<svg width="32" height="24" viewBox="0 0 32 24" fill="none" xmlns="http://www.w3.org/2000/svg">
<mask id="mask0_5190_110203" style="mask-type:luminance" maskUnits="userSpaceOnUse" x="0" y="0" width="32" height="24">
<rect width="32" height="24" fill="white"/>
</mask>
<g mask="url(#mask0_5190_110203)">
<path fill-rule="evenodd" clip-rule="evenodd" d="M8 0H24V24H8V0Z" fill="#FFD018"/>
<path fill-rule="evenodd" clip-rule="evenodd" d="M0 0H8V24H0V0Z" fill="#2E42A5"/>
<path fill-rule="evenodd" clip-rule="evenodd" d="M24 0H32V24H24V0Z" fill="#E31D1C"/>
<path fill-rule="evenodd" clip-rule="evenodd" d="M16.2995 19.4236C16.5205 19.3615 16.7106 18.9772 16.7106 18.9772C16.7106 18.9772 16.8549 19.09 17.0837 19.2048C17.3125 19.3195 17.5505 18.9772 17.5505 18.9772C17.5505 18.9772 17.8755 18.9772 18.018 18.5937C18.1605 18.2103 17.7336 18.046 17.7336 18.046C17.7336 18.046 18.2326 17.5217 19.0753 17.5217C19.9179 17.5217 20.5737 17.5217 21.1236 17.2883C21.6734 17.0549 22.2077 16.6536 22.4076 15.8203C22.6075 14.9869 21.9748 14.4621 21.9748 14.4621C21.9748 14.4621 22.1149 14.5064 22.4076 14.267C22.7003 14.0276 22.2284 13.2572 21.9748 13.2572C21.7212 13.2572 21.6909 13.3998 21.6909 13.3998C21.6909 13.3998 21.5342 13.2638 21.3195 12.8014C21.1048 12.339 21.5342 11.933 21.5342 11.933C21.5342 11.933 21.7696 12.0679 21.9748 11.8454C22.1801 11.623 21.8682 11.2821 21.8682 11.2821C21.8682 11.2821 22.8562 10.9458 22.7134 9.68177C22.5706 8.41774 21.2677 8.48963 21.2677 8.48963C21.2677 8.48963 21.3072 8.27946 21.1236 8.15968C20.94 8.03991 20.804 8.27946 20.804 8.27946C20.66 7.94606 21.0823 7.48997 21.4204 7.12497C21.5251 7.01186 21.6218 6.90751 21.6909 6.81826C21.9834 6.44099 21.7998 5.9749 20.7313 5.46617C19.6629 4.95744 19.0796 5.64116 18.994 5.88344C18.9083 6.12571 19.2398 6.27563 19.2398 6.27563C18.9694 6.51292 18.4465 6.60353 18.0901 6.43958C17.7336 6.27563 17.8916 5.77705 17.9653 5.64116C17.9733 5.62629 17.9841 5.60827 17.9964 5.58746C18.0972 5.4181 18.3079 5.06401 18.0901 4.71967C17.8455 4.33302 17.422 4.33302 17.0837 4.55258C16.7942 4.74051 16.3826 4.84015 16.27 4.86497C16.1574 4.84015 15.7458 4.74051 15.4563 4.55258C15.118 4.33302 14.6946 4.33302 14.45 4.71967C14.2321 5.06401 14.4428 5.4181 14.5436 5.58746C14.556 5.60827 14.5667 5.62629 14.5747 5.64116C14.6484 5.77705 14.8064 6.27563 14.45 6.43958C14.0935 6.60353 13.5706 6.51292 13.3002 6.27563C13.3002 6.27563 13.6317 6.12571 13.5461 5.88344C13.4604 5.64116 12.8771 4.95744 11.8087 5.46617C10.7403 5.9749 10.5566 6.44099 10.8491 6.81826C10.9183 6.90751 11.0149 7.01186 11.1197 7.12497C11.4577 7.48997 11.8801 7.94606 11.736 8.27946C11.736 8.27946 11.6 8.03991 11.4164 8.15968C11.2329 8.27946 11.2724 8.48963 11.2724 8.48963C11.2724 8.48963 9.96947 8.41774 9.82662 9.68177C9.68377 10.9458 10.6718 11.2821 10.6718 11.2821C10.6718 11.2821 10.3599 11.623 10.5652 11.8454C10.7705 12.0679 11.0058 11.933 11.0058 11.933C11.0058 11.933 11.4352 12.339 11.2205 12.8014C11.0058 13.2638 10.8491 13.3998 10.8491 13.3998C10.8491 13.3998 10.8188 13.2572 10.5652 13.2572C10.3116 13.2572 9.83975 14.0276 10.1324 14.267C10.4251 14.5064 10.5652 14.4621 10.5652 14.4621C10.5652 14.4621 9.93254 14.9869 10.1324 15.8203C10.3323 16.6536 10.8666 17.0549 11.4164 17.2883C11.9663 17.5217 12.6221 17.5217 13.4647 17.5217C14.3074 17.5217 14.8064 18.046 14.8064 18.046C14.8064 18.046 14.3795 18.2103 14.522 18.5937C14.6645 18.9772 14.9895 18.9772 14.9895 18.9772C14.9895 18.9772 15.2275 19.3195 15.4563 19.2048C15.6851 19.09 15.8295 18.9772 15.8295 18.9772C15.8295 18.9772 16.0195 19.3615 16.2406 19.4236V19.4321C16.2504 19.4321 16.2602 19.4313 16.27 19.4299C16.2798 19.4313 16.2896 19.4321 16.2995 19.4321V19.4236Z" fill="#BF9937"/>
<path d="M12.1094 15.9979L12.2145 15.7438C13.4222 16.2614 14.7965 16.5206 16.3384 16.5206C17.8794 16.5206 19.2168 16.2617 20.3513 15.745L20.4619 15.9967C19.2906 16.5302 17.9157 16.7964 16.3384 16.7964C14.7618 16.7964 13.3518 16.5304 12.1094 15.9979Z" fill="#805440"/>
<path fill-rule="evenodd" clip-rule="evenodd" d="M12.4805 7.23267H16.2036H16.2977H20.0208V14.2625C20.0208 14.2625 20.0195 14.8829 19.3635 15.1542C18.7076 15.4255 17.936 15.3284 17.936 15.3284C17.936 15.3284 17.1977 15.1697 16.8079 15.3284C16.569 15.4257 16.3959 15.4738 16.2977 15.4965V15.515C16.2977 15.515 16.2818 15.513 16.2506 15.5067C16.2195 15.513 16.2036 15.515 16.2036 15.515V15.4965C16.1054 15.4738 15.9323 15.4257 15.6934 15.3284C15.3036 15.1697 14.5653 15.3284 14.5653 15.3284C14.5653 15.3284 13.7937 15.4255 13.1378 15.1542C12.4818 14.8829 12.4805 14.2625 12.4805 14.2625V7.23267Z" fill="#BF9937"/>
<mask id="mask1_5190_110203" style="mask-type:luminance" maskUnits="userSpaceOnUse" x="12" y="7" width="9" height="9">
<path fill-rule="evenodd" clip-rule="evenodd" d="M12.4805 7.23267H16.2036H16.2977H20.0208V14.2625C20.0208 14.2625 20.0195 14.8829 19.3635 15.1542C18.7076 15.4255 17.936 15.3284 17.936 15.3284C17.936 15.3284 17.1977 15.1697 16.8079 15.3284C16.569 15.4257 16.3959 15.4738 16.2977 15.4965V15.515C16.2977 15.515 16.2818 15.513 16.2506 15.5067C16.2195 15.513 16.2036 15.515 16.2036 15.515V15.4965C16.1054 15.4738 15.9323 15.4257 15.6934 15.3284C15.3036 15.1697 14.5653 15.3284 14.5653 15.3284C14.5653 15.3284 13.7937 15.4255 13.1378 15.1542C12.4818 14.8829 12.4805 14.2625 12.4805 14.2625V7.23267Z" fill="white"/>
</mask>
<g mask="url(#mask1_5190_110203)">
<rect x="12.375" y="7.14441" width="3.65625" height="3.9" fill="#D00F3A"/>
<path fill-rule="evenodd" clip-rule="evenodd" d="M16.4375 7.14441H20.2292V11.0444H16.4375V7.14441Z" fill="#FEDF00"/>
<path fill-rule="evenodd" clip-rule="evenodd" d="M16.4375 11.4778H20.0938V15.5222H16.4375V11.4778Z" fill="#FEDF00"/>
<rect x="12.375" y="11.4778" width="3.65625" height="4.04444" fill="#FEDF00"/>
<path fill-rule="evenodd" clip-rule="evenodd" d="M19.1451 13.2985C19.1451 13.2985 19.3151 13.1261 19.3151 12.7191C19.3151 12.3121 19.4582 12.0428 19.1451 12.0428C18.832 12.0428 18.4069 12.0428 18.1075 12.0428C17.8081 12.0428 17.9619 12.2238 17.6608 12.0428C17.3598 11.8619 17.1172 11.9195 17.1172 12.0428C17.1172 12.1662 17.421 12.1119 17.421 12.3625C17.421 12.6131 17.536 12.3952 17.536 12.8468C17.536 13.2985 17.5995 13.2227 17.6301 13.2227C17.6608 13.2227 17.6608 13.1411 17.6608 13.0224C17.6608 12.9036 17.6456 12.4247 17.7291 12.5719C17.8126 12.7191 17.8539 12.6496 17.8951 12.8169C17.9363 12.9841 18.0472 13.1468 17.9711 13.2227C17.8951 13.2985 17.7415 13.3636 17.8563 13.3636C17.9711 13.3636 18.138 13.171 18.0546 12.8468C17.9711 12.5227 18.1581 12.8169 18.1581 12.8169C18.1581 12.8169 18.6003 12.915 18.6287 12.7803C18.6571 12.6457 18.6977 12.9091 18.8176 12.9091C18.9374 12.9091 18.7019 13.1802 18.603 13.2227C18.504 13.2652 18.603 13.2985 18.603 13.2985C18.603 13.2985 18.6953 13.3743 18.7564 13.2985C18.8176 13.2227 19.0363 12.9746 19.0363 12.8468C19.0363 12.7191 19.1766 12.7958 19.1766 12.9091C19.1766 13.0224 19.0464 13.4287 19.0958 13.3636C19.1451 13.2985 19.1451 13.2985 19.1451 13.2985Z" fill="#D00F3A"/>
<path fill-rule="evenodd" clip-rule="evenodd" d="M19.1451 14.8874C19.1451 14.8874 19.3151 14.715 19.3151 14.308C19.3151 13.901 19.4582 13.6317 19.1451 13.6317C18.832 13.6317 18.4069 13.6317 18.1075 13.6317C17.8081 13.6317 17.9619 13.8126 17.6608 13.6317C17.3598 13.4508 17.1172 13.5084 17.1172 13.6317C17.1172 13.7551 17.421 13.7008 17.421 13.9514C17.421 14.202 17.536 13.9841 17.536 14.4357C17.536 14.8874 17.5995 14.8115 17.6301 14.8115C17.6608 14.8115 17.6608 14.7299 17.6608 14.6112C17.6608 14.4925 17.6456 14.0136 17.7291 14.1608C17.8126 14.308 17.8539 14.2384 17.8951 14.4057C17.9363 14.573 18.0472 14.7357 17.9711 14.8115C17.8951 14.8874 17.7415 14.9525 17.8563 14.9525C17.9711 14.9525 18.138 14.7599 18.0546 14.4357C17.9711 14.1116 18.1581 14.4057 18.1581 14.4057C18.1581 14.4057 18.6003 14.5038 18.6287 14.3692C18.6571 14.2345 18.6977 14.498 18.8176 14.498C18.9374 14.498 18.7019 14.769 18.603 14.8115C18.504 14.854 18.603 14.8874 18.603 14.8874C18.603 14.8874 18.6953 14.9632 18.7564 14.8874C18.8176 14.8115 19.0363 14.5635 19.0363 14.4357C19.0363 14.308 19.1766 14.3847 19.1766 14.498C19.1766 14.6112 19.0464 15.0176 19.0958 14.9525C19.1451 14.8874 19.1451 14.8874 19.1451 14.8874Z" fill="#D00F3A"/>
<path fill-rule="evenodd" clip-rule="evenodd" d="M14.212 10.2976C14.212 10.4626 14.1281 10.5887 13.9367 10.7818L13.9115 10.8071L13.8602 10.8586C13.8324 10.8868 13.8112 10.9091 13.7926 10.9301C13.6291 11.1147 13.3432 10.9556 13.27 10.7764C13.2582 10.7477 13.2008 10.6447 13.1075 10.4833L13.1024 10.4745L13.0474 10.3796L12.9973 10.2936C12.9606 10.2305 12.9414 10.197 12.9318 10.1794C12.9252 10.1672 12.8874 10.1813 12.821 10.2661C12.7957 10.2983 12.8476 10.4087 13.0127 10.5854L12.9191 10.6897C12.6893 10.4656 12.5781 10.3204 12.5781 10.2197C12.5781 10.0517 12.7131 9.96157 12.9648 9.96157C13.123 9.96157 13.2075 10.073 13.3342 10.3535L13.3665 10.4254C13.429 10.564 13.4691 10.6394 13.5178 10.7009C13.5756 10.7739 13.6102 10.7705 13.6699 10.6952C13.7287 10.6212 13.783 10.5056 13.8646 10.2975C13.8732 10.2756 13.8808 10.257 13.8871 10.2415C13.9046 10.1983 13.9126 10.1787 13.9076 10.1745C13.9034 10.171 13.8902 10.1782 13.8659 10.1915C13.8572 10.1963 13.8471 10.2018 13.8355 10.2079L13.7723 10.2411L13.1982 8.86191L14.2844 7.54317V10.2896L14.2148 10.2267C14.2131 10.2455 14.212 10.2693 14.212 10.2976ZM14.2896 10.2943L14.2844 10.299V10.2896L14.2896 10.2943ZM14.2948 10.2896V10.299L14.2896 10.2943L14.2948 10.2896ZM14.2948 7.54317L15.3809 8.86191L14.8069 10.2411L14.7437 10.2079C14.6996 10.1848 14.6773 10.1697 14.6716 10.1745C14.6648 10.1802 14.682 10.2144 14.7146 10.2975C14.7962 10.5056 14.8505 10.6212 14.9093 10.6952C14.9689 10.7705 15.0036 10.7739 15.0614 10.7009C15.1101 10.6394 15.1502 10.564 15.2126 10.4254L15.2449 10.3535C15.3716 10.073 15.4561 9.96157 15.6144 9.96157C15.866 9.96157 16.001 10.0517 16.001 10.2197C16.001 10.3204 15.8899 10.4656 15.6601 10.6897L15.5665 10.5854C15.7316 10.4087 15.7835 10.2983 15.7582 10.2661C15.6918 10.1813 15.654 10.1672 15.6473 10.1794C15.6378 10.197 15.6185 10.2305 15.5819 10.2936L15.5318 10.3796L15.4768 10.4745L15.4716 10.4833C15.3783 10.6447 15.3209 10.7477 15.3092 10.7764C15.236 10.9556 14.95 11.1147 14.7866 10.9301C14.768 10.9091 14.7467 10.8868 14.719 10.8586C14.7101 10.8496 14.6866 10.826 14.6677 10.8071C14.656 10.7954 14.6461 10.7855 14.6425 10.7818C14.4511 10.5887 14.3672 10.4626 14.3672 10.2976C14.3672 10.2693 14.3661 10.2455 14.3644 10.2267L14.2948 10.2896V7.54317ZM14.2948 7.54317L14.2896 7.53684L14.2948 7.53052V7.54317ZM14.2896 7.53684L14.2844 7.54317V7.53052L14.2896 7.53684ZM14.2225 10.1836L14.2245 10.1802L14.2239 10.1814L14.2225 10.1836Z" fill="white"/>
<path fill-rule="evenodd" clip-rule="evenodd" d="M14.2789 10.0497V7.82288L15.2203 8.88784L14.7367 10.0497C14.5585 9.98761 14.4961 10.1191 14.5879 10.3533C14.6427 10.4929 14.6859 10.5934 14.728 10.671C14.5677 10.5085 14.5009 10.4068 14.5009 10.2976C14.5009 10.2092 14.4927 10.1485 14.4712 10.1085C14.4612 10.0897 14.3766 10.0716 14.3223 10.06C14.3012 10.0554 14.2847 10.0519 14.2789 10.0497ZM13.839 10.0497L13.3555 8.88784L14.274 7.83106V10.0579C14.268 10.0602 14.2524 10.0632 14.2329 10.067C14.1853 10.0762 14.1145 10.09 14.1045 10.1085C14.0831 10.1485 14.0749 10.2092 14.0749 10.2976C14.0749 10.4068 14.0081 10.5085 13.8478 10.671C13.8899 10.5934 13.9331 10.4929 13.9878 10.3533C14.0797 10.1191 14.0173 9.98761 13.839 10.0497Z" fill="#FEDF00"/>
<path fill-rule="evenodd" clip-rule="evenodd" d="M13.1875 11.4778H12.7812V15.5222H13.1875V11.4778ZM14 11.4778H13.5938V15.5222H14V11.4778ZM14.4062 11.4778H14.8125V15.5222H14.4062V11.4778ZM15.625 11.4778H15.2188V15.5222H15.625V11.4778Z" fill="#D00F3A"/>
<path fill-rule="evenodd" clip-rule="evenodd" d="M17.3867 7.14441H16.9805V11.1889H17.3867V7.14441ZM18.1992 7.14441H17.793V11.1889H18.1992V7.14441ZM18.6055 7.14441H19.0117V11.1889H18.6055V7.14441ZM19.8242 7.14441H19.418V11.1889H19.8242V7.14441Z" fill="#D00F3A"/>
</g>
</g>
</svg>
