<svg width="32" height="24" viewBox="0 0 32 24" fill="none" xmlns="http://www.w3.org/2000/svg">
<mask id="mask0_5190_110154" style="mask-type:luminance" maskUnits="userSpaceOnUse" x="0" y="0" width="32" height="24">
<rect width="32" height="24" fill="white"/>
</mask>
<g mask="url(#mask0_5190_110154)">
<path fill-rule="evenodd" clip-rule="evenodd" d="M22 0H32V24H22V0Z" fill="#67BD38"/>
<path fill-rule="evenodd" clip-rule="evenodd" d="M10 0H22V24H10V0Z" fill="#D51700"/>
<path fill-rule="evenodd" clip-rule="evenodd" d="M0 0H10V24H0V0Z" fill="#272727"/>
<path fill-rule="evenodd" clip-rule="evenodd" d="M12.4881 7.97681L12.834 8.19396C12.2574 9.16445 11.8701 10.0537 11.6698 10.8621C11.7546 10.9403 11.8077 11.0088 11.8619 11.1027C12.0184 11.3737 12.1499 11.6367 12.2566 11.892L11.7967 12.0877C11.7245 11.915 11.6395 11.7373 11.5415 11.5548C11.4947 11.9492 11.4979 12.3218 11.5509 12.6727C11.635 12.6814 11.7056 12.699 11.7873 12.7288C12.0813 12.8358 12.3511 12.9527 12.5969 13.0797L12.3705 13.5252C12.161 13.417 11.9309 13.3159 11.6802 13.2222L11.6851 13.2373C11.8989 13.8833 12.226 14.4775 12.6674 15.0204C12.7363 15.0056 12.8006 15 12.8757 15C13.1886 15 13.4822 15.0175 13.7565 15.0528L13.6962 15.5489C13.5094 15.5249 13.3119 15.5097 13.1036 15.5034C13.5003 15.9003 13.9659 16.2663 14.5009 16.6016L14.2899 16.9573C13.6264 16.5415 13.0617 16.0779 12.5966 15.5668C12.536 15.5905 12.4621 15.6219 12.3682 15.6629L12.3329 15.6783C12.7389 16.104 13.2189 16.4955 13.7734 16.853L13.5579 17.2059C12.9172 16.7928 12.3687 16.3339 11.9131 15.8295C11.6956 15.8854 11.5122 15.8842 11.2976 15.8212L11.4312 15.3405C11.4634 15.3499 11.495 15.3569 11.5267 15.3614C11.1036 14.7984 10.7848 14.1845 10.571 13.5199C10.5333 13.4025 10.5009 13.283 10.474 13.1613C10.3083 13.1297 10.1685 13.0676 10.0234 12.9608L10.3134 12.5547C10.3384 12.5731 10.3636 12.5893 10.3896 12.6036C10.3376 11.9911 10.4092 11.3299 10.6033 10.6201C10.4817 10.4803 10.4074 10.3353 10.3616 10.1467L10.7864 10.037C11.0153 9.38871 11.3391 8.70269 11.757 7.97904L12.1056 8.19172C11.6499 8.98082 11.3122 9.71799 11.0916 10.4033C11.1535 10.4594 11.2291 10.5196 11.3217 10.5883C11.5433 9.78218 11.9326 8.91164 12.4881 7.97681ZM11.1985 11.1184C11.1536 11.0835 11.0996 11.043 11.034 10.9947C11.0025 10.9715 10.9723 10.9488 10.9434 10.9267C10.789 11.5626 10.7435 12.1501 10.8059 12.6894C10.8803 12.69 10.9647 12.6868 11.062 12.6807L11.1413 12.6759C11.0752 12.1893 11.0945 11.6701 11.1985 11.1184ZM11.0836 13.1782C11.1429 13.1744 11.1948 13.1714 11.2406 13.1693C11.259 13.2374 11.2792 13.3048 11.3013 13.3715C11.5158 14.0197 11.8358 14.6183 12.2605 15.1669L12.1778 15.2028C12.1068 15.2338 12.043 15.2603 11.9845 15.2824C11.5198 14.7081 11.1773 14.0771 10.9559 13.3891C10.9345 13.3226 10.9151 13.2552 10.8976 13.1869C10.956 13.1853 11.0178 13.1823 11.0836 13.1782Z" fill="#F7FCFF"/>
<path fill-rule="evenodd" clip-rule="evenodd" d="M19.5002 7.97681L19.1542 8.19396C19.7308 9.16445 20.1182 10.0537 20.3185 10.8621C20.2337 10.9403 20.1806 11.0088 20.1264 11.1027C19.9699 11.3737 19.8383 11.6367 19.7317 11.892L20.1916 12.0877C20.2637 11.915 20.3488 11.7373 20.4468 11.5548C20.4936 11.9492 20.4904 12.3218 20.4374 12.6727C20.3533 12.6814 20.2827 12.699 20.201 12.7288C19.907 12.8358 19.6371 12.9527 19.3914 13.0797L19.6178 13.5252C19.8273 13.417 20.0574 13.3159 20.3081 13.2222L20.3032 13.2373C20.0894 13.8833 19.7623 14.4775 19.3209 15.0204C19.252 15.0056 19.1877 15 19.1126 15C18.7997 15 18.5061 15.0175 18.2318 15.0528L18.2921 15.5489C18.4789 15.5249 18.6764 15.5097 18.8846 15.5034C18.488 15.9003 18.0224 16.2663 17.4874 16.6016L17.6984 16.9573C18.3619 16.5415 18.9266 16.0779 19.3917 15.5668C19.4523 15.5905 19.5262 15.6219 19.6201 15.6629L19.6554 15.6783C19.2494 16.104 18.7694 16.4955 18.2149 16.853L18.4303 17.2059C19.0711 16.7928 19.6196 16.3339 20.0752 15.8295C20.2927 15.8854 20.4761 15.8842 20.6907 15.8212L20.5571 15.3405C20.5249 15.3499 20.4933 15.3569 20.4616 15.3614C20.8847 14.7984 21.2035 14.1845 21.4173 13.5199C21.455 13.4025 21.4873 13.283 21.5143 13.1613C21.68 13.1297 21.8198 13.0676 21.9648 12.9608L21.6749 12.5547C21.6499 12.5731 21.6247 12.5893 21.5987 12.6036C21.6506 11.9911 21.5791 11.3299 21.385 10.6201C21.5065 10.4803 21.5809 10.3353 21.6267 10.1467L21.2019 10.037C20.973 9.38871 20.6492 8.70269 20.2313 7.97904L19.8827 8.19172C20.3384 8.98082 20.676 9.71799 20.8967 10.4033C20.8348 10.4594 20.7592 10.5196 20.6666 10.5883C20.445 9.78218 20.0557 8.91164 19.5002 7.97681ZM20.7898 11.1184C20.8347 11.0835 20.8887 11.043 20.9543 10.9947C20.9858 10.9715 21.016 10.9488 21.0448 10.9267C21.1993 11.5626 21.2448 12.1501 21.1824 12.6894C21.1079 12.69 21.0236 12.6868 20.9262 12.6807L20.847 12.6759C20.9131 12.1893 20.8938 11.6701 20.7898 11.1184ZM20.9047 13.1782C20.8453 13.1744 20.7935 13.1714 20.7476 13.1693C20.7293 13.2374 20.709 13.3048 20.687 13.3715C20.4725 14.0197 20.1525 14.6183 19.7278 15.1669L19.8105 15.2028C19.8814 15.2338 19.9453 15.2603 20.0037 15.2824C20.4685 14.7081 20.811 14.0771 21.0323 13.3891C21.0537 13.3226 21.0732 13.2552 21.0907 13.1869C21.0323 13.1853 20.9705 13.1823 20.9047 13.1782Z" fill="#F7FCFF"/>
<path fill-rule="evenodd" clip-rule="evenodd" d="M14.253 16.264L13.1367 17.3686C13.1367 17.3686 14.0994 17.9582 15.9137 17.9582C17.728 17.9582 18.7844 17.3686 18.7844 17.3686L17.9358 16.264C17.9358 16.264 16.7795 16.7122 15.9606 16.7122C15.1416 16.7122 14.253 16.264 14.253 16.264Z" fill="#F7FCFF"/>
<path d="M14.2773 16.969C14.2773 16.969 15.2225 17.192 15.947 17.192C16.6715 17.192 17.6166 16.969 17.6166 16.969" stroke="#C00001" stroke-width="0.5"/>
<path fill-rule="evenodd" clip-rule="evenodd" d="M16.8928 9.45829C16.8928 9.89552 16.4935 10.25 16.001 10.25C15.5084 10.25 15.1091 9.89552 15.1091 9.45829C15.1091 9.02107 15.5084 8.66663 16.001 8.66663C16.4935 8.66663 16.8928 9.02107 16.8928 9.45829ZM16.001 10.25H15.0408L14.7763 10.4527H14.7247V8.86796H14.2383V10.4527H13.8118V10.7229H14.2383V13.5805C14.1806 14.037 14.0472 14.2951 13.8604 14.3848L12.8672 14.8613H18.8446L18.415 14.4321C18.0377 14.0551 17.8574 13.7652 17.8574 13.5964V10.7229H18.028V10.4527H17.8574V8.86796H17.3709V10.4527H17.2137L16.9002 10.25H16.001ZM14.7247 10.7229H17.3709V13.5964C17.3709 13.8282 17.4804 14.0796 17.6945 14.3613H14.5241C14.622 14.1642 14.6875 13.9185 14.7247 13.612V10.7229ZM16.082 12H15.028V14.0833H17.1361L16.082 12Z" fill="#F7FCFF"/>
<path fill-rule="evenodd" clip-rule="evenodd" d="M17.1719 6.15613L17.1738 6.15916L17.1733 6.15801L17.1719 6.15613ZM18.7131 6.69775L18.714 6.70704L18.7134 6.70027L18.7131 6.69775ZM19.0124 6.73464L19.014 6.73008L19.0132 6.73232L19.0124 6.73464ZM17.8007 7.34831L17.8063 7.34826L17.8036 7.34861L17.8007 7.34831Z" fill="#F7FCFF"/>
<path fill-rule="evenodd" clip-rule="evenodd" d="M12.992 10.6681L12.7928 10.8115L12.9982 11.113C12.8222 11.1762 12.5392 11.3361 12.5392 11.712C12.5392 12.2575 12.3477 12.7044 12.3477 12.7044L12.9199 13.0719C12.9199 13.0719 12.9796 12.4357 13.1353 12.0738C13.2134 11.8924 13.335 11.802 13.4368 11.7569L14.3263 13.0625L14.5256 12.9191L12.992 10.6681Z" fill="#F7FCFF"/>
<path fill-rule="evenodd" clip-rule="evenodd" d="M19.0705 10.6681L19.2697 10.8115L19.0643 11.113C19.2403 11.1762 19.5233 11.3361 19.5233 11.712C19.5233 12.2575 19.7148 12.7044 19.7148 12.7044L19.1426 13.0719C19.1426 13.0719 19.0829 12.4357 18.9272 12.0738C18.8491 11.8924 18.7275 11.802 18.6257 11.7569L17.7362 13.0625L17.5369 12.9191L19.0705 10.6681Z" fill="#F7FCFF"/>
</g>
</svg>
