<svg width="32" height="24" viewBox="0 0 32 24" fill="none" xmlns="http://www.w3.org/2000/svg">
<mask id="mask0_5190_110104" style="mask-type:luminance" maskUnits="userSpaceOnUse" x="0" y="0" width="32" height="24">
<rect width="32" height="24" fill="white"/>
</mask>
<g mask="url(#mask0_5190_110104)">
<path fill-rule="evenodd" clip-rule="evenodd" d="M0 0V24H32V0H0Z" fill="#2E42A5"/>
<mask id="mask1_5190_110104" style="mask-type:luminance" maskUnits="userSpaceOnUse" x="0" y="0" width="32" height="24">
<path fill-rule="evenodd" clip-rule="evenodd" d="M0 0V24H32V0H0Z" fill="white"/>
</mask>
<g mask="url(#mask1_5190_110104)">
<path fill-rule="evenodd" clip-rule="evenodd" d="M20.9414 11.8562L20.9446 12.2066C20.9715 15.1566 21.0803 17.0865 21.274 18.011C21.4348 18.7787 22.0192 20.0518 22.7066 21.0726C23.5708 22.3561 24.4929 23.1368 25.3755 23.1368C26.2611 23.1368 27.1839 22.4108 28.0444 21.2011C28.7508 20.2082 29.3557 18.9486 29.5966 18.0204C29.8947 16.8714 30.0336 14.9356 30.0167 12.2035L30.0146 11.8556L29.6967 12.0202C29.056 12.3518 28.3662 12.5174 27.6241 12.5174C26.8906 12.5174 26.1827 12.2982 25.4961 11.8563L25.3783 11.7805L25.2589 11.8537C24.5343 12.2979 23.8535 12.5174 23.2152 12.5174C22.5689 12.5174 21.9189 12.3521 21.2631 12.0194L20.9414 11.8562ZM21.487 17.9695C21.297 17.0627 21.1887 15.1411 21.1619 12.2048C21.848 12.5529 22.5324 12.7269 23.2152 12.7269C23.8981 12.7269 24.6181 12.4948 25.3755 12.0306C26.0968 12.4948 26.8463 12.7269 27.6241 12.7269C28.4019 12.7269 29.127 12.5529 29.7994 12.2048C29.8162 14.9205 29.6783 16.842 29.3858 17.9695C28.9469 19.6607 27.1067 22.9273 25.3755 22.9273C23.6442 22.9273 21.7719 19.3297 21.487 17.9695Z" fill="#FBE625"/>
<path fill-rule="evenodd" clip-rule="evenodd" d="M21.1602 12.2047C21.1602 12.2047 21.2003 16.6092 21.4853 17.9694C21.7702 19.3297 23.6425 22.9272 25.3737 22.9272C27.105 22.9272 28.9452 19.6606 29.384 17.9694C29.8229 16.2783 29.7977 12.2047 29.7977 12.2047C29.7977 12.2047 28.789 12.7269 27.6224 12.7269C26.4557 12.7269 25.3737 12.0305 25.3737 12.0305C25.3737 12.0305 24.2378 12.7269 23.2135 12.7269C22.1893 12.7269 21.1602 12.2047 21.1602 12.2047Z" fill="#F5FBFF"/>
<mask id="mask2_5190_110104" style="mask-type:luminance" maskUnits="userSpaceOnUse" x="21" y="12" width="9" height="11">
<path fill-rule="evenodd" clip-rule="evenodd" d="M21.1602 12.2047C21.1602 12.2047 21.2003 16.6092 21.4853 17.9694C21.7702 19.3297 23.6425 22.9272 25.3737 22.9272C27.105 22.9272 28.9452 19.6606 29.384 17.9694C29.8229 16.2783 29.7977 12.2047 29.7977 12.2047C29.7977 12.2047 28.789 12.7269 27.6224 12.7269C26.4557 12.7269 25.3737 12.0305 25.3737 12.0305C25.3737 12.0305 24.2378 12.7269 23.2135 12.7269C22.1893 12.7269 21.1602 12.2047 21.1602 12.2047Z" fill="white"/>
</mask>
<g mask="url(#mask2_5190_110104)">
<path fill-rule="evenodd" clip-rule="evenodd" d="M24.6368 15.4882C24.6368 15.7759 24.2257 16.6133 23.9876 16.8276C23.8113 16.9862 23.8657 16.6177 23.9059 16.3458L23.9059 16.3457C23.92 16.2503 23.9324 16.1667 23.9324 16.122L23.9324 16.1024C23.9325 16.0459 23.9325 16.0151 23.9268 15.9854C23.9201 15.9498 23.9051 15.9158 23.8723 15.841L23.8723 15.841C23.8599 15.813 23.8451 15.7792 23.8272 15.7375C23.4457 14.9236 23.7157 14.5339 23.8356 14.3608C23.8539 14.3343 23.8687 14.3129 23.8772 14.2958C23.8953 14.2592 23.9294 14.2263 23.9674 14.1896C24.0631 14.0973 24.184 13.9807 24.1384 13.7194C24.0748 13.3543 24.4609 12.8859 24.4609 12.8859C24.4609 12.8859 24.3672 13.7943 24.8109 13.5717C25.0994 13.4271 25.6221 13.6346 26.087 13.8192C26.3373 13.9186 26.5709 14.0113 26.7421 14.0389C27.088 14.0944 27.2774 13.9492 27.3946 13.8593C27.4432 13.822 27.4794 13.7943 27.5092 13.7943C27.6109 13.7943 27.7309 13.8146 27.7309 13.8889C27.7309 13.9631 27.2754 14.1804 27.0464 14.2482C26.8739 14.2993 27.051 14.4401 27.1993 14.558C27.2478 14.5966 27.2933 14.6327 27.3224 14.6625C27.4406 14.7832 27.5489 15.4415 27.2754 15.0274C27.0019 14.6132 26.4196 14.3363 25.9247 14.2958C25.4298 14.2552 24.8058 14.6309 24.7308 15.0274C24.6559 15.4239 25.3163 15.3512 25.3163 15.3512C25.3163 15.3512 25.268 15.413 25.0551 15.4882C24.8421 15.5633 24.6368 15.4882 24.6368 15.4882ZM24.1389 15.457C24.1389 15.5149 24.0902 15.5618 24.0302 15.5618C23.9702 15.5618 23.9216 15.5149 23.9216 15.457C23.9216 15.3992 23.9702 15.3523 24.0302 15.3523C24.0902 15.3523 24.1389 15.3992 24.1389 15.457ZM26.5789 17.401C26.276 17.2966 25.3443 17.3431 25.0927 17.4826C25.0927 17.4826 25.0588 17.2665 24.8899 17.1167C24.7209 16.9668 24.6435 16.9546 24.6435 16.9546C24.6435 16.9546 25.0272 17.497 24.644 17.6237C24.2609 17.7503 23.6298 17.3867 23.4254 16.9342C23.2209 16.4817 23.1808 15.8381 23.4104 15.3981C23.64 14.9581 23.1168 15.372 23.0685 15.534C23.0566 15.5739 23.047 15.6311 23.0368 15.6922C23.0056 15.8792 22.9683 16.1023 22.84 15.9761C22.6697 15.8087 22.2588 15.5158 22.1939 15.5517C22.1289 15.5877 22.1693 15.7025 22.2186 15.7915C22.233 15.8175 22.2749 15.8357 22.331 15.8602C22.4665 15.9191 22.6853 16.0144 22.8044 16.3438C22.8633 16.5069 22.8955 16.7562 22.9299 17.0233C22.9938 17.5194 23.0657 18.0772 23.3321 18.2593C23.7419 18.5395 22.9019 18.898 22.9019 18.898C22.9019 18.898 23.4988 19.0086 23.7873 18.7759C23.9938 18.6094 24.1543 18.6586 24.2814 18.6975C24.332 18.713 24.3772 18.7269 24.418 18.725C24.4371 18.7241 24.463 18.7267 24.4951 18.7299C24.7046 18.7508 25.1763 18.798 25.7032 18.0697C25.731 18.0339 25.7533 18.0046 25.7719 17.9802L25.7719 17.9801C25.8214 17.9152 25.8439 17.8856 25.8717 17.8624C25.895 17.8431 25.9219 17.8282 25.9713 17.8008L25.9713 17.8008L25.9714 17.8008L25.9885 17.7913C26.0276 17.7696 26.1067 17.7399 26.1971 17.706L26.1971 17.706L26.1971 17.706C26.4544 17.6093 26.8031 17.4782 26.5789 17.401ZM25.3257 17.8815C25.3763 17.8535 25.4409 17.8733 25.47 17.9258C25.4991 17.9782 25.4816 18.0435 25.431 18.0716C25.3804 18.0996 25.3158 18.0798 25.2867 18.0273C25.2576 17.9749 25.2751 17.9096 25.3257 17.8815ZM25.8387 14.8742C25.9161 15.1851 26.4626 15.9411 26.7166 16.0762C26.7166 16.0762 26.5538 16.2223 26.5202 16.4456C26.4866 16.6689 26.5185 16.7405 26.5185 16.7405C26.5185 16.7405 26.7644 16.1233 27.0793 16.3756C27.3942 16.6279 27.4329 17.3553 27.1648 17.7732C26.8966 18.1911 26.3788 18.5752 25.8847 18.6223C25.3906 18.6694 26.0227 18.8828 26.1848 18.8351C26.2248 18.8234 26.278 18.8002 26.3348 18.7755C26.5086 18.6999 26.716 18.6096 26.6801 18.786C26.6325 19.02 26.6105 19.5241 26.6761 19.5589C26.7416 19.5938 26.8159 19.4975 26.8637 19.4077C26.8777 19.3814 26.8701 19.3364 26.8601 19.2759C26.8357 19.1302 26.7964 18.8948 27.0078 18.6155C27.1125 18.4773 27.3041 18.3146 27.5094 18.1402C27.8906 17.8164 28.3192 17.4523 28.3269 17.1297C28.3388 16.6334 29.0969 17.1426 29.0969 17.1426C29.0969 17.1426 28.8646 16.5818 28.5122 16.4666C28.2601 16.3841 28.214 16.2227 28.1774 16.0948C28.1629 16.044 28.1498 15.9985 28.126 15.9653C28.1149 15.9499 28.1029 15.9267 28.0882 15.8981C27.9916 15.7109 27.7742 15.2896 26.8765 15.2444C26.8313 15.2406 26.7945 15.2378 26.764 15.2355C26.6825 15.2294 26.6455 15.2267 26.6109 15.216C26.582 15.207 26.5548 15.1925 26.505 15.1659C26.4995 15.163 26.4937 15.16 26.4876 15.1567C26.4482 15.1357 26.3802 15.0856 26.3025 15.0283L26.3025 15.0283C26.0812 14.8651 25.7814 14.6441 25.8387 14.8742ZM26.9588 15.7033C26.9077 15.6761 26.8891 15.6111 26.9173 15.5582C26.9455 15.5052 27.0097 15.4843 27.0608 15.5114C27.1119 15.5386 27.1305 15.6035 27.1023 15.6565C27.0741 15.7095 27.0099 15.7304 26.9588 15.7033Z" fill="#FF9800"/>
<path fill-rule="evenodd" clip-rule="evenodd" d="M21.4219 19.7523H28.7009V23.2095H21.4219V19.7523Z" fill="#36C6FF"/>
</g>
<rect width="18" height="14" fill="#2B409A"/>
<mask id="mask3_5190_110104" style="mask-type:luminance" maskUnits="userSpaceOnUse" x="0" y="0" width="18" height="14">
<rect width="18" height="14" fill="white"/>
</mask>
<g mask="url(#mask3_5190_110104)">
<path d="M-2.00391 12.9997L1.95704 14.7369L18.0902 1.88866L20.1796 -0.692871L15.9439 -1.27349L9.36354 4.2632L4.06704 7.99363L-2.00391 12.9997Z" fill="#F7FCFF"/>
<path d="M-1.46094 14.217L0.556984 15.2251L19.43 -0.932617H16.5966L-1.46094 14.217Z" fill="#F50100"/>
<path d="M20.0039 12.9997L16.043 14.7369L-0.0902405 1.88866L-2.17955 -0.692871L2.05612 -1.27349L8.63646 4.2632L13.933 7.99363L20.0039 12.9997Z" fill="#F7FCFF"/>
<path d="M19.8672 13.8733L17.8493 14.8815L9.81294 7.96351L7.43034 7.19059L-2.38215 -0.683947H0.451241L10.2582 7.00368L12.8632 7.9305L19.8672 13.8733Z" fill="#F50100"/>
<mask id="path-15-outside-1_5190_110104" maskUnits="userSpaceOnUse" x="-2" y="-2" width="22" height="18" fill="black">
<rect fill="white" x="-2" y="-2" width="22" height="18"/>
<path fill-rule="evenodd" clip-rule="evenodd" d="M9.98451 0H7.98451V6H0V8H7.98451V14H9.98451V8H18V6H9.98451V0Z"/>
</mask>
<path fill-rule="evenodd" clip-rule="evenodd" d="M9.98451 0H7.98451V6H0V8H7.98451V14H9.98451V8H18V6H9.98451V0Z" fill="#F50100"/>
<path d="M7.98451 0V-1.5H6.48451V0H7.98451ZM9.98451 0H11.4845V-1.5H9.98451V0ZM7.98451 6V7.5H9.48451V6H7.98451ZM0 6V4.5H-1.5V6H0ZM0 8H-1.5V9.5H0V8ZM7.98451 8H9.48451V6.5H7.98451V8ZM7.98451 14H6.48451V15.5H7.98451V14ZM9.98451 14V15.5H11.4845V14H9.98451ZM9.98451 8V6.5H8.48451V8H9.98451ZM18 8V9.5H19.5V8H18ZM18 6H19.5V4.5H18V6ZM9.98451 6H8.48451V7.5H9.98451V6ZM7.98451 1.5H9.98451V-1.5H7.98451V1.5ZM9.48451 6V0H6.48451V6H9.48451ZM0 7.5H7.98451V4.5H0V7.5ZM1.5 8V6H-1.5V8H1.5ZM7.98451 6.5H0V9.5H7.98451V6.5ZM9.48451 14V8H6.48451V14H9.48451ZM9.98451 12.5H7.98451V15.5H9.98451V12.5ZM8.48451 8V14H11.4845V8H8.48451ZM18 6.5H9.98451V9.5H18V6.5ZM16.5 6V8H19.5V6H16.5ZM9.98451 7.5H18V4.5H9.98451V7.5ZM8.48451 0V6H11.4845V0H8.48451Z" fill="#F7FCFF" mask="url(#path-15-outside-1_5190_110104)"/>
</g>
</g>
</g>
</svg>
