<svg width="32" height="24" viewBox="0 0 32 24" fill="none" xmlns="http://www.w3.org/2000/svg">
<mask id="mask0_5190_110066" style="mask-type:luminance" maskUnits="userSpaceOnUse" x="0" y="0" width="32" height="24">
<rect width="32" height="24" fill="white"/>
</mask>
<g mask="url(#mask0_5190_110066)">
<path fill-rule="evenodd" clip-rule="evenodd" d="M0 0V24H32V0H0Z" fill="#1D1D1D"/>
<mask id="mask1_5190_110066" style="mask-type:luminance" maskUnits="userSpaceOnUse" x="0" y="0" width="32" height="24">
<path fill-rule="evenodd" clip-rule="evenodd" d="M0 0V24H32V0H0Z" fill="white"/>
</mask>
<g mask="url(#mask1_5190_110066)">
<path fill-rule="evenodd" clip-rule="evenodd" d="M0 0V12H32V0H0Z" fill="#F50100"/>
<path d="M9.93436 5.89667L10.3611 4.49182C13.5613 5.46852 15.4907 7.18076 16.0334 9.62351C16.3934 11.244 16.2298 12.6925 15.6475 13.9824C15.2327 14.9014 14.7058 15.5874 13.9481 16.3597C12.6848 17.6476 10.6067 18.4694 8.73061 18.1209C7.42291 17.8781 6.21825 17.4194 5.12109 16.7455L5.88655 15.4934C6.82918 16.0723 7.86469 16.4666 8.99754 16.677C10.3523 16.9286 11.9585 16.2934 12.9034 15.3302C13.5508 14.6702 13.9828 14.1077 14.3127 13.377C14.7662 12.3724 14.8932 11.2477 14.6033 9.94272C14.1892 8.07902 12.6715 6.73203 9.93436 5.89667Z" fill="#FFEA42"/>
<g filter="url(#filter0_d_5190_110066)">
<path fill-rule="evenodd" clip-rule="evenodd" d="M9.84585 9.46436L8.89635 10.1217L9.23132 9.02015L8.30953 8.32486L9.46605 8.30142L9.84585 7.21436L10.2257 8.30142L11.3822 8.32486L10.4604 9.02015L10.7954 10.1217L9.84585 9.46436Z" fill="#FCFF01"/>
<path fill-rule="evenodd" clip-rule="evenodd" d="M9.84585 9.46436L8.89635 10.1217L9.23132 9.02015L8.30953 8.32486L9.46605 8.30142L9.84585 7.21436L10.2257 8.30142L11.3822 8.32486L10.4604 9.02015L10.7954 10.1217L9.84585 9.46436Z" fill="#FFEA42"/>
</g>
<g filter="url(#filter1_d_5190_110066)">
<path fill-rule="evenodd" clip-rule="evenodd" d="M7.61393 9.85974C7.61393 9.85974 5.93007 12.3283 7.25599 13.2308C8.58191 14.1332 15.5931 17.9375 15.5931 17.9375C15.5931 17.9375 17.0418 17.9291 17.248 18.2373C17.4541 18.5455 17.8829 18.908 18.0636 18.908C18.2444 18.908 18.7112 18.5815 18.7112 18.5815C18.7112 18.5815 19.0751 18.2837 18.7112 17.9375C18.3473 17.5912 16.4238 16.4057 16.4238 16.4057C16.4238 16.4057 8.91578 11.6142 8.27735 11.1398C7.63892 10.6654 7.61393 9.85974 7.61393 9.85974Z" fill="#FCFF01"/>
<path fill-rule="evenodd" clip-rule="evenodd" d="M7.61393 9.85974C7.61393 9.85974 5.93007 12.3283 7.25599 13.2308C8.58191 14.1332 15.5931 17.9375 15.5931 17.9375C15.5931 17.9375 17.0418 17.9291 17.248 18.2373C17.4541 18.5455 17.8829 18.908 18.0636 18.908C18.2444 18.908 18.7112 18.5815 18.7112 18.5815C18.7112 18.5815 19.0751 18.2837 18.7112 17.9375C18.3473 17.5912 16.4238 16.4057 16.4238 16.4057C16.4238 16.4057 8.91578 11.6142 8.27735 11.1398C7.63892 10.6654 7.61393 9.85974 7.61393 9.85974Z" fill="#FFEA42"/>
</g>
<path fill-rule="evenodd" clip-rule="evenodd" d="M11.7131 4.07422L11.3233 4.95707L12.6016 5.51046L12.964 4.62738L11.7131 4.07422ZM14.3259 5.48414L13.6221 6.14449L14.5825 7.15334L15.2612 6.4821L14.3259 5.48414ZM15.2874 8.13652L16.1873 7.78789L16.6807 9.06356L15.8 9.43169L15.2874 8.13652ZM17.0404 10.6362L16.0758 10.6055L16.0415 11.9979L16.9961 12.0032L17.0404 10.6362ZM15.8485 13.1941L16.7313 13.5839L16.1782 14.8348L15.2951 14.4723L15.8485 13.1941ZM15.325 16.202L14.6646 15.4983L13.6557 16.4587L14.327 17.1374L15.325 16.202ZM12.6779 17.1671L13.0265 18.067L11.7508 18.5604L11.3827 17.6797L12.6779 17.1671ZM10.1845 18.9214L10.2152 17.9568L8.82276 17.9225L8.8175 18.8771L10.1845 18.9214ZM7.6329 17.7283L7.2431 18.6111L5.99219 18.058L6.35465 17.1749L7.6329 17.7283Z" fill="#FFEA42"/>
</g>
</g>
<defs>
<filter id="filter0_d_5190_110066" x="8.30859" y="7.21436" width="3.07422" height="2.90735" filterUnits="userSpaceOnUse" color-interpolation-filters="sRGB">
<feFlood flood-opacity="0" result="BackgroundImageFix"/>
<feColorMatrix in="SourceAlpha" type="matrix" values="0 0 0 0 0 0 0 0 0 0 0 0 0 0 0 0 0 0 127 0" result="hardAlpha"/>
<feOffset/>
<feColorMatrix type="matrix" values="0 0 0 0 0 0 0 0 0 0 0 0 0 0 0 0 0 0 0.2 0"/>
<feBlend mode="normal" in2="BackgroundImageFix" result="effect1_dropShadow_5190_110066"/>
<feBlend mode="normal" in="SourceGraphic" in2="effect1_dropShadow_5190_110066" result="shape"/>
</filter>
<filter id="filter1_d_5190_110066" x="6.74609" y="9.85974" width="12.125" height="9.04822" filterUnits="userSpaceOnUse" color-interpolation-filters="sRGB">
<feFlood flood-opacity="0" result="BackgroundImageFix"/>
<feColorMatrix in="SourceAlpha" type="matrix" values="0 0 0 0 0 0 0 0 0 0 0 0 0 0 0 0 0 0 127 0" result="hardAlpha"/>
<feOffset/>
<feColorMatrix type="matrix" values="0 0 0 0 0 0 0 0 0 0 0 0 0 0 0 0 0 0 0.2 0"/>
<feBlend mode="normal" in2="BackgroundImageFix" result="effect1_dropShadow_5190_110066"/>
<feBlend mode="normal" in="SourceGraphic" in2="effect1_dropShadow_5190_110066" result="shape"/>
</filter>
</defs>
</svg>
