<svg width="32" height="24" viewBox="0 0 32 24" fill="none" xmlns="http://www.w3.org/2000/svg">
<mask id="mask0_5190_109977" style="mask-type:luminance" maskUnits="userSpaceOnUse" x="0" y="0" width="32" height="24">
<rect width="32" height="24" fill="white"/>
</mask>
<g mask="url(#mask0_5190_109977)">
<path fill-rule="evenodd" clip-rule="evenodd" d="M0 0H32V24H0V0Z" fill="#F7FCFF"/>
<path d="M0 -1H-1V0V11.307L-2.848 12L-1 12.693V24V25H0H32L32.3511 23.0637L2.848 12L32.3511 0.936329L32 -1H0Z" fill="#3547A0" stroke="#E31D1C" stroke-width="2"/>
<path fill-rule="evenodd" clip-rule="evenodd" d="M29.0225 5.11011C29.0225 5.11011 27.0122 5.65257 26.2853 5.84976C26.1872 5.87636 26.0001 5.92394 26.0135 5.65694C25.553 5.95255 24.8106 6.25133 24.5062 6.33612C24.353 6.37878 24.3939 6.11378 24.3286 6.03793C24.196 6.2333 23.8554 6.51953 23.7588 6.5475C22.8005 6.82478 22.1643 7.02635 21.85 7.15218C21.85 7.15218 21.4009 7.58412 21.4009 7.92657C21.4009 8.26903 21.353 8.56151 21.0439 8.56151C20.7348 8.56151 20.0218 9.18356 20.283 9.53409C20.5441 9.88462 21.4009 9.69796 21.4009 9.53409C21.4009 9.37021 22.0116 9.1652 22.0116 9.34965C22.0116 9.53409 21.85 9.8677 21.85 9.8677H22.5243L22.0116 10.1329H22.5243L22.0116 10.447H22.9715L22.3581 10.7206H22.7836L22.5243 11.0808H23.1892C23.1892 11.0808 23.448 11.3425 23.6919 11.4855C23.9358 11.6285 24.4765 12.8457 24.2061 13.3171C23.9358 13.7884 24.2675 13.8585 24.3286 13.6514C24.3896 13.4444 24.516 13.1476 24.6245 13.1476C24.7331 13.1476 24.9413 13.1476 24.9413 13.1476L25.0885 13.5349L25.4378 13.9081C25.4378 13.9081 25.4627 13.5837 25.5282 13.5349C25.5282 13.5349 25.8009 13.5626 25.9332 13.5306C25.9332 13.5306 25.8744 13.0587 25.8791 12.9952C25.8791 12.9952 26.3019 13.1387 26.483 13.1355C26.483 13.1355 26.2109 12.71 26.2109 12.5648C26.2109 12.5648 26.7163 12.5905 26.7163 12.8054L26.6604 12.269C26.6604 12.269 27.1388 12.0655 27.1555 11.8942L26.842 11.8558C26.842 11.8558 27.0048 11.6492 26.9897 11.6084L26.5266 11.5496C26.5266 11.5496 27.0326 11.3735 27.0708 11.2621C27.0708 11.2621 26.9572 11.0837 26.8532 11.0136L26.4997 10.7845C26.4997 10.7845 27.2902 10.7896 27.4225 10.7896C27.4225 10.7896 27.6292 10.7154 27.4701 10.5883C27.4701 10.5883 27.3144 10.4948 27.3357 10.4044C27.3357 10.4044 27.4415 10.2011 27.4173 10.1657C27.4173 10.1657 27.5302 10.3154 27.5302 9.94551C27.5302 9.94551 27.5331 9.57376 27.4619 9.55588C27.4619 9.55588 27.67 9.40282 27.5882 9.30513C27.5064 9.20743 26.6302 8.94739 26.4206 8.94739L28.0258 7.92995C28.0258 7.92995 28.137 7.50972 28.3 7.25854C28.3 7.25854 28.7265 6.87561 28.8125 6.57555C28.8984 6.27549 29.1405 5.53542 29.1405 5.53542V5.19674L29.0225 5.11011Z" fill="#9C3900"/>
<path fill-rule="evenodd" clip-rule="evenodd" d="M26.2109 12.5648C26.2317 12.5658 26.2519 12.5671 26.2757 12.569C26.5426 12.5907 26.6882 12.6577 26.7127 12.7701L26.7242 12.8701C26.7242 12.8355 26.7204 12.8021 26.7127 12.7701L26.6604 12.269C26.9793 12.1333 27.1443 12.0084 27.1555 11.8942L26.9165 11.8649L26.8932 11.8948L26.8786 11.8603L26.842 11.8558L26.8645 11.827L26.85 11.7926L26.8872 11.7972C26.9641 11.6944 26.9983 11.6315 26.9897 11.6084L26.6658 11.5673C26.6289 11.5811 26.5896 11.5952 26.5481 11.6096C26.5481 11.6096 26.5363 11.5462 26.5411 11.5445L26.5348 11.4865L26.6578 11.5021C26.9112 11.4061 27.0489 11.3261 27.0708 11.2621C26.9951 11.1432 26.9225 11.0603 26.8532 11.0136L26.5989 10.8488L26.4992 10.8482C26.4992 10.8482 26.5125 10.7846 26.5188 10.7846L26.5352 10.7313L26.6185 10.7853C27.0731 10.7882 27.3412 10.7896 27.4225 10.7896C27.5603 10.7401 27.5761 10.673 27.4701 10.5883C27.3663 10.5259 27.3215 10.4646 27.3357 10.4044C27.3698 10.3389 27.3937 10.2865 27.4076 10.2471C27.3928 10.2358 27.3785 10.2211 27.3654 10.2036L27.4173 10.1657L27.4709 10.1301C27.4847 10.1502 27.4894 10.1744 27.4855 10.2053C27.5153 10.1873 27.5302 10.1007 27.5302 9.94551C27.5315 9.77984 27.5218 9.66688 27.5007 9.60687L27.4619 9.55588L27.4779 9.4942C27.4922 9.49778 27.5048 9.50392 27.5161 9.51276C27.6108 9.43005 27.6348 9.36084 27.5882 9.30513C27.5162 9.21924 26.8304 9.00788 26.5232 8.95804L26.4556 9.0009C26.4556 9.0009 26.4265 8.94739 26.4366 8.93724L26.4206 8.88372C26.444 8.88372 26.474 8.8864 26.509 8.89133L28.0258 7.92995C28.0999 7.6498 28.1913 7.42599 28.3 7.25854C28.5843 7.00325 28.7552 6.77559 28.8125 6.57555C28.8698 6.37551 28.9791 6.0288 29.1405 5.53542V5.19674L29.0225 5.11011C27.6823 5.47175 26.7699 5.7183 26.2853 5.84976C26.1872 5.87636 26.0001 5.92394 26.0135 5.65694C25.553 5.95255 24.8106 6.25133 24.5062 6.33612C24.4082 6.36341 24.3897 6.26479 24.3719 6.17033C24.3619 6.11713 24.3521 6.06525 24.3286 6.03793C24.196 6.2333 23.8554 6.51953 23.7588 6.5475C22.8005 6.82478 22.1643 7.02635 21.85 7.15218C21.5506 7.44014 21.4009 7.69827 21.4009 7.92657C21.4009 8.26903 21.353 8.56151 21.0439 8.56151C20.7348 8.56151 20.0218 9.18356 20.283 9.53409C20.5441 9.88462 21.4009 9.69796 21.4009 9.53409C21.4009 9.37021 22.0116 9.1652 22.0116 9.34965C22.0116 9.47261 21.9577 9.64529 21.85 9.8677H22.3853L22.4942 9.81135L22.5102 9.87501L22.5243 9.93136H22.4012L22.0116 10.1329H22.4019L22.4901 10.0788L22.5086 10.1425L22.5243 10.1965H22.4204L22.0116 10.447H22.8148L22.9448 10.389L22.9588 10.4527L22.9715 10.5106H22.8288L22.3581 10.7206H22.7043L22.7308 10.6838L22.7502 10.7206H22.7836L22.7643 10.7475L22.7836 10.7843H22.7378L22.5243 11.0808H23.1892C23.3618 11.2552 23.5293 11.3902 23.6919 11.4855C23.9358 11.6285 24.4765 12.8457 24.2061 13.3171C23.9358 13.7884 24.2675 13.8585 24.3286 13.6514C24.3896 13.4444 24.516 13.1476 24.6245 13.1476H24.9413L25.0885 13.5349L25.4378 13.9081C25.4378 13.9081 25.4627 13.5837 25.5282 13.5349C25.71 13.5534 25.845 13.5519 25.9332 13.5306C25.9304 13.5082 25.9277 13.4866 25.9251 13.4656C25.9015 13.2744 25.8849 13.1396 25.858 13.0554L25.8791 12.9952C25.8791 12.9952 25.9433 13.0094 25.9435 13.0167C26.1918 13.0979 26.3717 13.1375 26.483 13.1355C26.3356 12.905 26.2481 12.7362 26.2179 12.6187C26.2133 12.5983 26.2109 12.5803 26.2109 12.5648ZM26.505 11.4896L26.2492 11.5786L26.9027 11.6615C26.8796 11.6997 26.8422 11.7517 26.7909 11.8168L26.7213 11.9052L27.0645 11.9472C27.0087 12.0212 26.866 12.1121 26.6347 12.2105L26.5912 12.229L26.6283 12.5851C26.5328 12.5375 26.3936 12.5103 26.2143 12.5012L26.1462 12.4977V12.5648C26.1462 12.6638 26.2175 12.826 26.3606 13.061C26.2475 13.0426 26.0935 13.0007 25.9002 12.9351L25.8206 12.9081L25.8146 12.9907C25.8112 13.0362 25.8267 13.1941 25.8616 13.4784C25.7826 13.4877 25.6733 13.4856 25.5348 13.4715L25.4891 13.4841C25.4435 13.5181 25.4193 13.5912 25.3984 13.7074C25.3952 13.7253 25.3922 13.7438 25.3894 13.7625L25.1446 13.5009L24.9862 13.084H24.6245C24.485 13.084 24.357 13.3266 24.2664 13.6337C24.2494 13.6915 24.2069 13.7097 24.1865 13.6915C24.1458 13.6552 24.1562 13.5336 24.2625 13.3484C24.3967 13.1143 24.3604 12.7123 24.2031 12.2576C24.0681 11.8676 23.8662 11.5136 23.725 11.4308C23.5677 11.3385 23.4044 11.2071 23.2356 11.0364L23.2165 11.0171H22.6494L22.9087 10.657H22.6575L23.2709 10.3833H22.2379L22.7506 10.0692H22.2737L22.7864 9.80404H21.9508C22.0342 9.61664 22.0763 9.46588 22.0763 9.34965C22.0763 9.26591 22.012 9.22073 21.921 9.21412C21.8561 9.20941 21.7729 9.22309 21.6863 9.25069C21.4906 9.3131 21.3362 9.41928 21.3362 9.53409C21.3362 9.53886 21.3029 9.5668 21.2378 9.59387C21.1574 9.62727 21.0478 9.65284 20.9337 9.66362C20.6653 9.68899 20.4359 9.6317 20.3352 9.49645C20.2398 9.36853 20.3052 9.16713 20.4974 8.95918C20.6728 8.7695 20.9131 8.62517 21.0439 8.62517C21.2161 8.62517 21.3334 8.545 21.3978 8.39759C21.4475 8.28375 21.4656 8.13668 21.4656 7.92657C21.4656 7.72098 21.6041 7.47998 21.8861 7.20645C22.2018 7.08136 22.8327 6.88182 23.777 6.60857C23.8811 6.57846 24.147 6.35557 24.31 6.19106C24.3237 6.26325 24.3338 6.29975 24.3555 6.33502C24.3914 6.39324 24.4513 6.41757 24.5238 6.39737C24.8832 6.29726 25.5376 6.01679 25.9564 5.76736C25.9737 5.84903 26.0183 5.90207 26.0878 5.92405C26.1511 5.94408 26.2083 5.93668 26.3025 5.91113C26.7834 5.78068 27.6856 5.53688 29.0092 5.17972L29.0758 5.22867V5.52543C28.9159 6.01445 28.8074 6.35857 28.7502 6.55828C28.6968 6.74471 28.5326 6.9635 28.2454 7.22429C28.136 7.39307 28.0442 7.61485 27.9696 7.88982L26.2007 9.01105H26.4206C26.6208 9.01105 27.4741 9.269 27.5383 9.34562C27.5609 9.37266 27.5362 9.42178 27.4232 9.50489L27.3148 9.58462L27.4347 9.61482C27.4404 9.62632 27.4461 9.646 27.4508 9.67305C27.4614 9.73354 27.4665 9.82457 27.4655 9.94502C27.4655 10.0405 27.4595 10.1074 27.45 10.1411C27.45 10.1411 27.36 10.1883 27.357 10.1875L27.357 10.1872L27.3569 10.1874C27.3561 10.1951 27.353 10.2071 27.3477 10.2227C27.3353 10.259 27.3121 10.3101 27.2727 10.39C27.2508 10.4832 27.3103 10.5659 27.4326 10.6403C27.4919 10.688 27.4915 10.6965 27.411 10.726C27.3098 10.7258 27.006 10.7241 26.5001 10.7209L26.2816 10.7194L26.8176 11.0668C26.8713 11.1029 26.9307 11.1682 26.9938 11.2621C26.9746 11.2805 26.9382 11.3055 26.8851 11.3336C26.7977 11.3797 26.6708 11.4319 26.505 11.4896ZM27.357 10.1875L27.3572 10.1896L27.3569 10.188L27.357 10.1875L27.357 10.1875Z" fill="#212121"/>
<path fill-rule="evenodd" clip-rule="evenodd" d="M27.4055 10.7921C27.4055 10.7921 29.314 11.0462 29.4295 11.0462C29.5449 11.0462 30.0253 10.924 29.8608 10.1552C29.6963 9.38644 29.7632 8.92139 29.2923 8.92139C28.8214 8.92139 28.3302 9.12598 28.1535 9.12598C27.9768 9.12598 28.1478 9.12598 27.4055 9.12598C26.6632 9.12598 22.2416 9.10045 21.9232 9.4551C21.6048 9.80974 20.7093 10.3099 20.2945 10.4864C19.8798 10.6628 19.7734 10.5395 19.5869 11.0462C19.4005 11.5528 19.2617 11.5881 19.2617 11.5881L19.5869 11.9508H20.5535C20.5535 11.9508 21.2189 11.1158 22.6005 11.0462C23.982 10.9766 27.4055 10.7921 27.4055 10.7921Z" fill="white"/>
<path fill-rule="evenodd" clip-rule="evenodd" d="M22.6005 11.0462C23.5215 10.9998 25.1232 10.9151 27.4055 10.7921C28.6779 10.9615 29.3525 11.0462 29.4295 11.0462C29.5449 11.0462 30.0253 10.924 29.8608 10.1552C29.8229 9.97812 29.7973 9.81714 29.7746 9.67425C29.6986 9.19686 29.6548 8.92139 29.2923 8.92139C29.0003 8.92139 28.7004 9.00007 28.4727 9.05984C28.3331 9.09646 28.2206 9.12598 28.1535 9.12598H27.4055C27.3673 9.12598 27.3192 9.12591 27.2625 9.12583C26.2185 9.12436 22.2252 9.11872 21.9232 9.4551C21.6048 9.80974 20.7093 10.3099 20.2945 10.4864C20.1885 10.5315 20.1027 10.557 20.0305 10.5784C19.8202 10.6409 19.7257 10.669 19.5869 11.0462C19.4626 11.384 19.3542 11.5646 19.2617 11.5881L19.5869 11.9508H20.5535C20.9971 11.3941 21.6795 11.0926 22.6005 11.0462ZM20.5069 11.8553H19.6307L19.4062 11.6049C19.4966 11.5119 19.5827 11.3382 19.6782 11.0787C19.7146 10.9796 19.7474 10.9067 19.7793 10.8531C19.8372 10.7554 19.883 10.724 20.0058 10.6858C20.0084 10.6849 20.0181 10.682 20.0314 10.678C20.0651 10.6679 20.122 10.6508 20.1463 10.6431C20.2106 10.6225 20.27 10.6008 20.333 10.574C20.8787 10.3419 21.7085 9.83842 21.9959 9.51832C22.0498 9.45829 22.3794 9.39016 22.8971 9.34151C23.3647 9.29757 23.98 9.26678 24.7106 9.24719C25.5245 9.22537 26.2774 9.21998 27.2235 9.22127C27.2187 9.22126 27.304 9.22138 27.3246 9.22141L27.4055 9.22147H28.1535C28.2043 9.22147 28.2672 9.21021 28.3632 9.18667C28.3871 9.18082 28.4549 9.16321 28.5183 9.14676C28.5687 9.13367 28.6162 9.12131 28.6366 9.11621C28.8629 9.0594 29.04 9.02734 29.2118 9.0189C29.2391 9.01756 29.266 9.01688 29.2923 9.01688C29.5194 9.01688 29.5854 9.12354 29.6585 9.56359C29.6611 9.57929 29.6681 9.6232 29.676 9.67262C29.6865 9.73781 29.6985 9.81261 29.7039 9.84489C29.724 9.9655 29.7433 10.0697 29.7659 10.1749C29.8332 10.4894 29.7917 10.6988 29.6775 10.8257C29.6033 10.9082 29.4969 10.9507 29.4295 10.9507C29.3597 10.9507 28.6735 10.8646 27.4002 10.6968C25.118 10.8197 23.5164 10.9044 22.5955 10.9508C21.6683 10.9975 20.9696 11.2986 20.5069 11.8553Z" fill="#4D4D4D"/>
<path fill-rule="evenodd" clip-rule="evenodd" d="M19.5051 11.3994C19.5051 11.3994 18.7772 11.8663 19.0444 12.18C19.3117 12.4938 19.3381 12.5336 19.3914 12.5336C19.3914 12.5336 19.4056 12.1977 19.4918 12.1977C19.578 12.1977 20.2608 12.5239 20.5083 11.9725C20.7558 11.421 19.5051 11.3994 19.5051 11.3994Z" fill="#FFC221"/>
<path fill-rule="evenodd" clip-rule="evenodd" d="M17.9219 12.921L19.5974 12.6106L20.24 13.3064L20.4254 12.6837L20.8861 12.7967V13.1111H21.0562V13.5424L22.261 13.7942L22.4121 13.381C22.4121 13.381 22.8045 14.0285 23.4071 13.9963C24.0098 13.964 24.1173 14.1347 24.2233 13.6563C24.3292 13.1779 24.6247 12.921 24.6247 12.921L25.3279 13.1578C25.3279 13.1578 24.5554 14.1067 24.9248 14.4049L27.6785 15.0421L27.5697 15.3756H27.2537L27.339 15.6629L24.3296 15.455C24.3296 15.455 23.9943 15.8799 23.9943 15.7714C23.9943 15.6629 23.9761 15.6629 23.8279 15.6629C23.6797 15.6629 23.6029 15.455 23.6029 15.455L23.4071 15.5304C23.4071 15.5304 23.4367 15.5344 23.1905 15.455C22.9444 15.3756 22.8002 15.3756 22.8002 15.3756L21.7837 15.3006V15.455C21.7837 15.455 21.5145 15.4685 21.608 15.5304C21.7015 15.5923 23.6029 15.6629 23.6029 15.6629L23.487 15.8765C23.487 15.8765 24.4271 15.8799 24.6247 15.7714C24.8224 15.6629 24.6953 16.0118 24.6953 16.0118H25.629C25.629 16.0118 25.3974 16.231 25.1006 16.231C24.8037 16.231 25.9528 16.5955 25.9528 16.5955C25.9528 16.5955 25.3113 16.7945 25.0143 16.6629C24.7172 16.5313 25.1403 16.9174 25.3279 17.0149C25.5155 17.1124 24.668 17.1037 24.3296 16.7274C24.3296 16.7274 24.436 17.0062 24.3296 17.0859C24.3296 17.0859 23.7367 16.3873 23.4405 16.3873C23.1443 16.3873 23.487 16.8479 23.487 16.8479C23.487 16.8479 23.3179 16.6071 23.129 16.7049C22.94 16.8027 22.8002 16.9135 22.8002 16.9135C22.8002 16.9135 22.6764 16.4868 22.022 16.3103C21.3677 16.1339 21.5872 16.069 21.0562 16.0118C20.5251 15.9546 20.4984 15.6629 20.4254 15.6629C20.3525 15.6629 19.7908 15.1714 19.7908 15.1714C19.7908 15.1714 19.6659 14.7104 19.9588 14.7104C20.2516 14.7104 20.716 14.5726 20.8861 14.7104C21.0562 14.8483 21.1281 14.7104 21.1281 14.7104H21.4274L21.8562 15.0421H22.707C22.707 15.0421 22.8701 14.7902 23.129 14.7104C23.3879 14.6307 23.129 14.4049 23.129 14.4049C23.129 14.4049 22.5112 14.4401 22.261 14.5358C22.0108 14.6315 22.1712 14.0726 22.1712 14.0726L21.0562 13.8701L20.8861 14.0726L20.5171 14.1837V14.4049L20.1281 14.3194L20.24 13.6563L19.3297 14.0726L17.9219 12.921Z" fill="#FFC221"/>
<path fill-rule="evenodd" clip-rule="evenodd" d="M23.5215 15.813L23.6029 15.6629C22.4469 15.6199 21.7921 15.5794 21.6378 15.5412C21.6233 15.5375 21.6134 15.5339 21.608 15.5304C21.5145 15.4685 21.7837 15.455 21.7837 15.455V15.3597V15.3006L21.8484 15.3054L22.8002 15.3756C22.8963 15.3756 23.0264 15.4021 23.1905 15.455C23.2603 15.4775 23.3134 15.495 23.3499 15.5074C23.3523 15.5018 23.3564 15.4962 23.3638 15.4861C23.3812 15.475 23.3883 15.4705 23.396 15.4686C23.4012 15.4674 23.4067 15.4674 23.416 15.4673C23.416 15.4673 23.4113 15.5309 23.4071 15.5304C23.4071 15.5304 23.5423 15.4773 23.5441 15.4777L23.6029 15.455C23.6265 15.5188 23.6551 15.5679 23.6888 15.6024L23.7022 15.6151C23.7386 15.6469 23.7805 15.6629 23.8279 15.6629C23.9761 15.6629 23.9943 15.6629 23.9943 15.7714C23.9943 15.8437 24.1061 15.7383 24.3296 15.455L27.339 15.6629L27.2537 15.4393L27.2673 15.4214L27.2537 15.3756H27.3022L27.3158 15.3578L27.3211 15.3756H27.5697L27.6785 15.0421L24.9248 14.4049C24.6785 14.2061 24.8129 13.7904 25.3279 13.1578L24.6247 12.921C24.4277 13.0923 24.2939 13.3374 24.2233 13.6563C24.1444 14.0122 24.0648 14.0089 23.7811 13.9971C23.6834 13.9931 23.5615 13.988 23.4071 13.9963C23.0053 14.0178 22.6737 13.8127 22.4121 13.381L22.261 13.7942L21.0562 13.5424V13.1111H20.8861V12.7967L20.4254 12.6837L20.2613 13.2348L20.2879 13.2635L20.2502 13.2721L20.24 13.3064L20.2156 13.2799L20.1779 13.2885L20.189 13.2512L19.5974 12.6106L17.9219 12.921L19.3297 14.0726L20.169 13.6888L20.1762 13.6459L20.2091 13.6705L20.24 13.6563L20.2344 13.6895L20.2673 13.714L20.2272 13.7324L20.1281 14.3194L20.5171 14.4049V14.1837L20.8861 14.0726L21.0562 13.8701C21.0562 13.8701 22.1084 14.0572 22.1132 14.0621L22.1712 14.0726C22.1656 14.092 22.1604 14.1109 22.1542 14.1343C22.0681 14.4621 22.1037 14.596 22.261 14.5358C22.4278 14.472 22.7171 14.4284 23.129 14.4049C23.3016 14.5554 23.3016 14.6573 23.129 14.7104C22.9564 14.7636 22.8157 14.8741 22.707 15.0421H21.8562L21.4274 14.7104H21.1281C21.0802 14.8023 20.9995 14.8023 20.8861 14.7104C20.7717 14.6177 20.5241 14.6498 20.2852 14.6806C20.1689 14.6957 20.0546 14.7104 19.9588 14.7104C19.7635 14.7104 19.7076 14.8641 19.7908 15.1714C20.1653 15.4991 20.3768 15.6629 20.4254 15.6629C20.4458 15.6629 20.4625 15.6855 20.4876 15.7194C20.5524 15.8072 20.6731 15.9705 21.0562 16.0118C21.3439 16.0428 21.4113 16.0761 21.5167 16.1281C21.6059 16.1721 21.7222 16.2295 22.022 16.3103C22.4583 16.4279 22.7177 16.629 22.8002 16.9135C22.8002 16.9135 22.94 16.8027 23.129 16.7049C23.251 16.6417 23.3668 16.6845 23.4765 16.8333C23.4973 16.8627 23.5095 16.8792 23.5095 16.8792C23.4985 16.8636 23.4875 16.8483 23.4765 16.8333C23.4211 16.7548 23.1759 16.3873 23.4405 16.3873C23.638 16.3873 23.9343 16.6202 24.3296 17.0859C24.3831 17.0458 24.3962 16.9679 24.369 16.8523C24.3369 16.8265 24.3075 16.7989 24.2812 16.7696C24.2812 16.7696 24.331 16.7311 24.3376 16.7362L24.3902 16.705C24.4051 16.7443 24.4173 16.7812 24.4265 16.816C24.8053 17.1044 25.4995 17.1041 25.3279 17.0149C25.2161 16.9567 25.0205 16.796 24.939 16.6977C24.8979 16.6463 24.8975 16.6187 24.9835 16.6501C24.9927 16.6536 25.003 16.6579 25.0143 16.6629C25.2123 16.7507 25.5252 16.7282 25.9528 16.5955C25.5069 16.454 25.2243 16.3538 25.0881 16.286C25.0196 16.2493 25.0237 16.231 25.1023 16.231C25.1007 16.2259 25.0984 16.2213 25.095 16.2156C25.099 16.2186 25.1051 16.2224 25.1203 16.2308C25.2586 16.2273 25.3862 16.1877 25.5029 16.1118H25.5544C25.5733 16.0892 25.5918 16.065 25.6101 16.0392L25.608 16.0311C25.6151 16.0249 25.6221 16.0184 25.629 16.0118H25.603L25.608 16.0311C25.574 16.0615 25.539 16.0884 25.5029 16.1118H25.4402C25.4715 16.0829 25.502 16.0496 25.5318 16.0118H24.7638L24.7561 16.0333L24.7408 16.0118H24.6953C24.7007 15.9969 24.7057 15.9827 24.7102 15.969L24.7169 15.9482C24.7744 15.765 24.7437 15.7061 24.6247 15.7714C24.4982 15.8409 24.1434 15.8759 23.5603 15.8766L23.5441 15.9065L23.5259 15.8766L23.487 15.8765L23.5054 15.8427L23.4872 15.8129L23.5215 15.813ZM19.3395 13.9979L18.069 12.9585L19.5738 12.6797L20.2697 13.4331L20.4701 12.7602L20.8214 12.8465V13.1748H20.9915V13.594L22.3027 13.8681L22.4285 13.5243C22.6907 13.8999 23.0195 14.0808 23.4106 14.0598C23.5283 14.0535 23.621 14.0543 23.7575 14.0599C23.9842 14.0691 24.034 14.0663 24.108 14.0219C24.195 13.9695 24.242 13.8704 24.2865 13.6699C24.3509 13.3787 24.469 13.1538 24.6401 12.9934L25.2206 13.1889C24.7319 13.8081 24.6077 14.2313 24.8953 14.4635L27.5955 15.0882L27.5225 15.312H27.1674L27.2508 15.593L24.2997 15.3891L24.2785 15.416C24.1794 15.5415 24.1029 15.6313 24.0499 15.6844C24.0296 15.6136 23.9705 15.5992 23.8279 15.5992C23.7607 15.5992 23.7065 15.5492 23.6637 15.4332L23.641 15.372C23.641 15.372 23.3972 15.4563 23.3893 15.4535C23.3526 15.4408 23.2932 15.4211 23.2107 15.3945C23.042 15.3401 22.9066 15.3124 22.8027 15.312L21.719 15.232V15.3965C21.7044 15.3981 21.6899 15.4 21.6759 15.4022C21.6296 15.4094 21.5944 15.4186 21.5689 15.4336C21.5062 15.4707 21.5097 15.542 21.5719 15.5832C21.6489 15.6342 22.2498 15.6753 23.4971 15.7226L23.3794 15.9398L23.4868 15.9402C24.1266 15.9425 24.5105 15.907 24.6562 15.827C24.6655 15.8219 24.6736 15.818 24.6802 15.8152C24.6797 15.8253 24.6781 15.8383 24.675 15.8539C24.6681 15.8894 24.6545 15.935 24.6344 15.9903L24.6033 16.0755H25.4402C25.3358 16.1369 25.2229 16.1674 25.1006 16.1674C25.0682 16.1674 25.0444 16.17 25.025 16.1776C24.9784 16.1959 24.959 16.2473 24.9895 16.2902C25.0101 16.3194 25.0555 16.3446 25.1394 16.3805C25.2572 16.4309 25.4542 16.501 25.7312 16.5913C25.4209 16.6676 25.1901 16.671 25.0409 16.6049C24.9992 16.5864 24.9674 16.5758 24.9421 16.573C24.8918 16.5673 24.8445 16.594 24.847 16.6513C24.8487 16.6927 24.881 16.7353 24.9432 16.7976C25.0112 16.8657 25.1049 16.9436 25.1883 17.0025C25.143 17.0002 25.0909 16.9947 25.0364 16.986C24.7643 16.9423 24.5149 16.8374 24.3781 16.6852L24.146 16.4272L24.2691 16.7498C24.3075 16.8506 24.3221 16.9247 24.3178 16.9736C23.9405 16.5408 23.6533 16.3237 23.4405 16.3237C23.3427 16.3237 23.2769 16.3673 23.2596 16.4458C23.2488 16.4949 23.2582 16.5517 23.2828 16.6168C23.2232 16.606 23.1615 16.6161 23.0988 16.6486C23.079 16.6589 23.0592 16.6695 23.0395 16.6805C22.9679 16.7205 22.9004 16.7632 22.8319 16.8108C22.7186 16.5471 22.452 16.3603 22.0391 16.2489C21.8829 16.2068 21.7686 16.169 21.677 16.1314C21.6424 16.1172 21.6123 16.1036 21.5786 16.0873L21.5667 16.0815C21.5477 16.0721 21.5121 16.0546 21.4996 16.0488C21.3911 15.9979 21.2888 15.9728 21.0632 15.9485C20.867 15.9274 20.7338 15.8733 20.6402 15.7939C20.614 15.7718 20.5736 15.7237 20.5394 15.6829L20.5394 15.6829C20.5116 15.6499 20.4879 15.6216 20.479 15.6157C20.4646 15.6063 20.4487 15.6005 20.4269 15.5975C20.4187 15.5937 20.4073 15.5874 20.3933 15.5786C20.3628 15.5594 20.3217 15.5298 20.2703 15.49C20.1685 15.4112 20.0278 15.2933 19.8485 15.1367C19.7812 14.8772 19.8219 14.7741 19.9588 14.7741C20.0437 14.7741 20.1157 14.7668 20.3 14.7429L20.3372 14.7382C20.6329 14.7004 20.7748 14.7027 20.845 14.7596C20.973 14.8633 21.0909 14.8731 21.1642 14.7741H21.405L21.8338 15.1057H22.7425L22.7616 15.0763C22.8623 14.9206 22.9907 14.8197 23.1483 14.7712C23.3774 14.7006 23.3774 14.5366 23.1719 14.3573L23.1252 14.3413C22.7071 14.3652 22.4123 14.4096 22.2376 14.4765C22.19 14.4947 22.184 14.4919 22.177 14.4559C22.1644 14.3912 22.1825 14.2673 22.2334 14.0899L22.2527 14.0227L21.0305 13.8007L20.8486 14.0173L20.4524 14.1365V14.3254L20.2019 14.2704L20.3239 13.5477L19.3395 13.9979ZM23.4071 15.5323C23.4172 15.5337 23.4196 15.5327 23.4144 15.5295L23.4071 15.5323ZM21.6359 15.5431L21.6355 15.5433L21.6367 15.5426L21.6359 15.5431Z" fill="#4D4D4D"/>
</g>
</svg>
