<svg width="32" height="24" viewBox="0 0 32 24" fill="none" xmlns="http://www.w3.org/2000/svg">
<mask id="mask0_5190_109388" style="mask-type:luminance" maskUnits="userSpaceOnUse" x="0" y="0" width="32" height="24">
<rect width="32" height="24" fill="white"/>
</mask>
<g mask="url(#mask0_5190_109388)">
<path fill-rule="evenodd" clip-rule="evenodd" d="M0 0H32V24H0V0Z" fill="#73BE4A"/>
<path fill-rule="evenodd" clip-rule="evenodd" d="M0 0V16H32V0H0Z" fill="#AF0100"/>
<rect width="6" height="24" fill="#F7FCFF"/>
<path fill-rule="evenodd" clip-rule="evenodd" d="M0.441406 2.23612L1.89403 0.0568848L3.30926 2.23605L1.89399 4.31542L0.441406 2.23612ZM1.88868 3.42541L2.70285 2.2292L1.88864 0.975484L1.05298 2.22914L1.88868 3.42541ZM1.99719 2.06457H1.74719V2.5807H1.99719V2.06457Z" fill="#B20000"/>
<path fill-rule="evenodd" clip-rule="evenodd" d="M1.13425 4.18591L0.441406 5.1766L1.13423 6.12187L1.80926 5.17658L1.13425 4.18591ZM1.45831 5.19339L1.14612 5.61718L0.830192 5.16811L1.14529 4.70305L1.45831 5.19339Z" fill="#B20000"/>
<path fill-rule="evenodd" clip-rule="evenodd" d="M2.63425 4.18591L1.94141 5.1766L2.63423 6.12187L3.30926 5.17658L2.63425 4.18591ZM2.95831 5.19339L2.64612 5.61718L2.33019 5.16811L2.64529 4.70305L2.95831 5.19339Z" fill="#B20000"/>
<path fill-rule="evenodd" clip-rule="evenodd" d="M3.63425 4.18591L2.94141 5.1766L3.63423 6.12187L4.30926 5.17658L3.63425 4.18591ZM3.95831 5.19339L3.64612 5.61718L3.33019 5.16811L3.64529 4.70305L3.95831 5.19339Z" fill="#B20000"/>
<path fill-rule="evenodd" clip-rule="evenodd" d="M5.13425 4.18591L4.44141 5.1766L5.13423 6.12187L5.80926 5.17658L5.13425 4.18591ZM5.45831 5.19339L5.14612 5.61718L4.83019 5.16811L5.14529 4.70305L5.45831 5.19339Z" fill="#B20000"/>
<path fill-rule="evenodd" clip-rule="evenodd" d="M2.94141 2.23612L4.39403 0.0568848L5.80926 2.23605L4.39399 4.31542L2.94141 2.23612ZM4.38868 3.42541L5.20285 2.2292L4.38864 0.975484L3.55298 2.22914L4.38868 3.42541ZM4.49719 2.06457H4.24719V2.5807H4.49719V2.06457Z" fill="#B20000"/>
<path d="M1.65432 12.4062L0.0351562 9.68711L0.461116 9.41683L1.6349 11.388L3.06712 8.75598L4.53492 11.3942L5.57201 9.67291L5.9966 9.94549L4.51784 12.3999L3.07194 9.80101L1.65432 12.4062Z" fill="#B20000"/>
<path fill-rule="evenodd" clip-rule="evenodd" d="M0.75 0.516113H1.01882V1.03224H0.75V0.516113Z" fill="#B20000"/>
<path fill-rule="evenodd" clip-rule="evenodd" d="M3 0H3.26882V0.516129H3V0Z" fill="#B20000"/>
<path fill-rule="evenodd" clip-rule="evenodd" d="M5.25 0.516113H5.51882V1.03224H5.25V0.516113Z" fill="#B20000"/>
<path fill-rule="evenodd" clip-rule="evenodd" d="M0.75 3.61292H1V4.12904H0.75V3.61292ZM3 3.61292H3.25V4.12904H3V3.61292ZM5.5 3.61292H5.25V4.12904H5.5V3.61292Z" fill="#B20000"/>
<path fill-rule="evenodd" clip-rule="evenodd" d="M0.75 6.1936H1V6.70973H0.75V6.1936ZM3 6.1936H3.25V6.70973H3V6.1936ZM5.5 6.1936H5.25V6.70973H5.5V6.1936Z" fill="#B20000"/>
<path fill-rule="evenodd" clip-rule="evenodd" d="M2.20795 8.95476L1.54376 9.92298L0.496094 8.03608L1.87585 5.88025L3.06242 7.75944L4.24899 5.88025L5.62875 8.03608L4.58108 9.92298L3.91689 8.95476L4.44128 7.86449L4.24899 7.4215L3.12875 9.23859V9.45376L3.06242 9.34618L2.99609 9.45376V9.23859L1.87585 7.4215L1.68356 7.86449L2.20795 8.95476Z" fill="#B20000"/>
<path fill-rule="evenodd" clip-rule="evenodd" d="M3 10.5807H3.25V11.0968H3V10.5807ZM3 13.1613H3.25V13.6775H3V13.1613ZM3 11.3549H2.75V11.871H3V12.1291H2.75V12.6452H3V12.3871H3.25V12.6452H3.5V12.1291H3.25V11.871H3.5V11.3549H3.25V11.871H3V11.3549ZM2.25 11.871H2.5V12.3871H2.25V11.871ZM4 11.871H3.75V12.3871H4V11.871ZM0.5 11.871H0.75V12.3871H0.5V11.871ZM5.75 11.871H5.5V12.3871H5.75V11.871Z" fill="#B20000"/>
<path fill-rule="evenodd" clip-rule="evenodd" d="M0.441406 21.7639L1.89403 23.9431L3.30926 21.7639L1.89399 19.6846L0.441406 21.7639ZM1.88868 20.5746L2.70285 21.7708L1.88864 23.0245L1.05298 21.7709L1.88868 20.5746ZM1.99719 21.9354H1.74719V21.4193H1.99719V21.9354Z" fill="#B20000"/>
<path fill-rule="evenodd" clip-rule="evenodd" d="M1.13425 19.8141L0.441406 18.8234L1.13423 17.8781L1.80926 18.8234L1.13425 19.8141ZM1.45831 18.8066L1.14612 18.3828L0.830192 18.8319L1.14529 19.2969L1.45831 18.8066Z" fill="#B20000"/>
<path fill-rule="evenodd" clip-rule="evenodd" d="M2.63425 19.8141L1.94141 18.8234L2.63423 17.8781L3.30926 18.8234L2.63425 19.8141ZM2.95831 18.8066L2.64612 18.3828L2.33019 18.8319L2.64529 19.2969L2.95831 18.8066Z" fill="#B20000"/>
<path fill-rule="evenodd" clip-rule="evenodd" d="M3.63425 19.8141L2.94141 18.8234L3.63423 17.8781L4.30926 18.8234L3.63425 19.8141ZM3.95831 18.8066L3.64612 18.3828L3.33019 18.8319L3.64529 19.2969L3.95831 18.8066Z" fill="#B20000"/>
<path fill-rule="evenodd" clip-rule="evenodd" d="M5.13425 19.8141L4.44141 18.8234L5.13423 17.8781L5.80926 18.8234L5.13425 19.8141ZM5.45831 18.8066L5.14612 18.3828L4.83019 18.8319L5.14529 19.2969L5.45831 18.8066Z" fill="#B20000"/>
<path fill-rule="evenodd" clip-rule="evenodd" d="M2.94141 21.7639L4.39403 23.9431L5.80926 21.7639L4.39399 19.6846L2.94141 21.7639ZM4.38868 20.5746L5.20285 21.7708L4.38864 23.0245L3.55298 21.7709L4.38868 20.5746ZM4.49719 21.9354H4.24719V21.4193H4.49719V21.9354Z" fill="#B20000"/>
<path d="M1.65432 11.5938L0.0351562 14.3129L0.461116 14.5832L1.6349 12.612L3.06712 15.244L4.53492 12.6058L5.57201 14.3271L5.9966 14.0545L4.51784 11.6001L3.07194 14.199L1.65432 11.5938Z" fill="#B20000"/>
<path fill-rule="evenodd" clip-rule="evenodd" d="M0.75 23.4839H1.01882V22.9678H0.75V23.4839Z" fill="#B20000"/>
<path fill-rule="evenodd" clip-rule="evenodd" d="M3 24H3.26882V23.4839H3V24Z" fill="#B20000"/>
<path fill-rule="evenodd" clip-rule="evenodd" d="M5.25 23.4839H5.51882V22.9678H5.25V23.4839Z" fill="#B20000"/>
<path fill-rule="evenodd" clip-rule="evenodd" d="M0.75 20.3871H1V19.871H0.75V20.3871ZM3 20.3871H3.25V19.871H3V20.3871ZM5.5 20.3871H5.25V19.871H5.5V20.3871Z" fill="#B20000"/>
<path fill-rule="evenodd" clip-rule="evenodd" d="M0.75 17.8064H1V17.2903H0.75V17.8064ZM3 17.8064H3.25V17.2903H3V17.8064ZM5.5 17.8064H5.25V17.2903H5.5V17.8064Z" fill="#B20000"/>
<path fill-rule="evenodd" clip-rule="evenodd" d="M2.20795 15.1928L1.54376 14.2246L0.496094 16.1115L1.87585 18.2673L3.06242 16.3881L4.24899 18.2673L5.62875 16.1115L4.58108 14.2246L3.91689 15.1928L4.44128 16.2831L4.24899 16.7261L3.12875 14.909V14.6938L3.06242 14.8014L2.99609 14.6938V14.909L1.87585 16.7261L1.68356 16.2831L2.20795 15.1928Z" fill="#B20000"/>
</g>
</svg>
