<svg width="32" height="24" viewBox="0 0 32 24" fill="none" xmlns="http://www.w3.org/2000/svg">
<mask id="mask0_5190_109260" style="mask-type:luminance" maskUnits="userSpaceOnUse" x="0" y="0" width="32" height="24">
<rect width="32" height="24" fill="white"/>
</mask>
<g mask="url(#mask0_5190_109260)">
<path fill-rule="evenodd" clip-rule="evenodd" d="M0 0H32V24H0V0Z" fill="#5EAA22"/>
<path fill-rule="evenodd" clip-rule="evenodd" d="M24 7L23 7.73205L23.134 6.5L22 6L23.134 5.5L23 4.26795L24 5L25 4.26795L24.866 5.5L26 6L24.866 6.5L25 7.73205L24 7Z" fill="#FECA00"/>
<path fill-rule="evenodd" clip-rule="evenodd" d="M22.9609 13.6787L21.9609 14.4108L22.0949 13.1787L20.9609 12.6787L22.0949 12.1787L21.9609 10.9467L22.9609 11.6787L23.9609 10.9467L23.827 12.1787L24.9609 12.6787L23.827 13.1787L23.9609 14.4108L22.9609 13.6787Z" fill="#FECA00"/>
<path fill-rule="evenodd" clip-rule="evenodd" d="M26 19L25 19.7321L25.134 18.5L24 18L25.134 17.5L25 16.2679L26 17L27 16.2679L26.866 17.5L28 18L26.866 18.5L27 19.7321L26 19Z" fill="#FECA00"/>
<path fill-rule="evenodd" clip-rule="evenodd" d="M27 9.5L26.5 9.86603L26.567 9.25L26 9L26.567 8.75L26.5 8.13397L27 8.5L27.5 8.13397L27.433 8.75L28 9L27.433 9.25L27.5 9.86603L27 9.5Z" fill="#FECA00"/>
<path fill-rule="evenodd" clip-rule="evenodd" d="M7 14C9.76142 14 12 11.7614 12 9C12 6.23858 9.76142 4 7 4C4.23858 4 2 6.23858 2 9C2 11.7614 4.23858 14 7 14Z" fill="#FECA00"/>
<path fill-rule="evenodd" clip-rule="evenodd" d="M19.8977 14.945C19.2396 16.0745 18.1936 16.5872 16.7936 16.5872C14.6984 16.5872 13 14.8887 13 12.7936C13 10.6984 14.6984 9 16.7936 9C18.3921 9 19.6676 9.55928 20.2527 11.0826C19.7895 10.6232 19.0725 10.3081 18 10.3481C16.3431 10.3481 15.2653 11.6389 15.2653 12.7434C15.2653 13.848 16.3431 15.3495 18 15.3495C18.8333 15.337 19.4489 15.1846 19.8977 14.945Z" fill="#FECA00"/>
<path d="M7.58107 8.69364C7.58107 8.69364 6.60343 12.2746 6.19975 12.6134C6.02106 12.6922 7.81841 12.6134 7.81841 12.6134C7.81841 12.6134 7.14464 12.3186 7.38198 11.9263C7.61931 11.5339 7.92936 9.00948 7.81841 8.14961C7.70746 7.28974 7.58107 8.69364 7.58107 8.69364Z" fill="#915E2B"/>
<path fill-rule="evenodd" clip-rule="evenodd" d="M7.78906 8.82665C7.78906 8.82665 8.83739 9.14147 8.83739 9.67717C8.83739 10.2129 9.7095 10.9658 9.7095 10.2528C9.7095 9.53971 9.54636 8.82665 9.19188 8.82665C8.83739 8.82665 9.36526 8.34726 9.6684 8.74537C9.97155 9.14348 11.0345 8.70793 10.8186 8.42854C10.6027 8.14915 9.83632 7.80099 9.7095 7.80099C9.58269 7.80099 10.5816 7.12043 9.7095 7.12043C8.83739 7.12043 9.33754 7.70175 8.74653 7.08458C8.15551 6.46741 8.99815 7.38584 8.99815 6.34943C8.99815 5.31301 8.75906 4.88954 7.96962 5.4713C7.18019 6.05306 7.33155 5.68408 7.05057 5.46473C6.7696 5.24538 6.52302 6.26781 6.83223 6.47653C7.14144 6.68524 7.48421 7.20253 7.175 7.20253C6.86579 7.20253 6.64748 6.90402 6.64748 6.69028C6.64748 6.47653 5.80611 6.099 5.00754 6.099C4.20897 6.099 4.72565 6.69028 5.00754 6.69028C5.28942 6.69028 6.55176 7.12043 5.92059 7.12043C5.28942 7.12043 5.96935 6.80217 5.17377 6.80217C4.37819 6.80217 3.45339 6.43988 3.45339 7.12043C3.45339 7.80099 4.24834 8.10248 4.49668 7.80099C4.74502 7.4995 5.03212 6.99124 5.03212 7.49867C5.03212 8.0061 4.39936 7.79893 3.45339 8.11373C2.50742 8.42854 2.77887 9.25849 3.90736 9.0558C5.03584 8.85311 4.91374 8.86415 5.3668 8.54934C5.81987 8.23454 6.38058 8.3223 5.92059 8.82665C5.4606 9.331 5.00061 10.2528 5.4606 10.2528C5.92059 10.2528 6.21712 10.3782 6.21712 9.89092C6.21712 9.40365 6.48415 8.45499 6.48415 9.0558C6.48415 9.6566 6.83223 10.1095 7.14144 9.89092C7.45065 9.67238 7.06943 8.98857 7.42241 8.98857C7.7754 8.98857 7.78906 8.82665 7.78906 8.82665Z" fill="#5EAA22"/>
</g>
</svg>
