<svg width="32" height="24" viewBox="0 0 32 24" fill="none" xmlns="http://www.w3.org/2000/svg">
<mask id="mask0_5190_109251" style="mask-type:luminance" maskUnits="userSpaceOnUse" x="0" y="0" width="32" height="24">
<rect width="32" height="24" fill="white"/>
</mask>
<g mask="url(#mask0_5190_109251)">
<path fill-rule="evenodd" clip-rule="evenodd" d="M0 0V24H32V0H0Z" fill="#3195F9"/>
<mask id="mask1_5190_109251" style="mask-type:luminance" maskUnits="userSpaceOnUse" x="0" y="0" width="32" height="24">
<path fill-rule="evenodd" clip-rule="evenodd" d="M0 0V24H32V0H0Z" fill="white"/>
</mask>
<g mask="url(#mask1_5190_109251)">
<path d="M-1.8229 25.4392L-1.12894 26.4789L-0.0892694 25.7849L36.1717 1.58147L37.2113 0.887505L36.5174 -0.152167L34.2967 -3.47912L33.6027 -4.51879L32.5631 -3.82483L-3.69787 20.3786L-4.73754 21.0726L-4.04358 22.1123L-1.8229 25.4392Z" fill="#E31D1C" stroke="#FECA00" stroke-width="2.5"/>
<path fill-rule="evenodd" clip-rule="evenodd" d="M4.93065 8.60629L1.44503 11.024L2.55881 6.88304L0 4.23781L3.46478 4.09478L4.93065 0L6.39653 4.09478H9.85541L7.3025 6.88304L8.58104 10.7796L4.93065 8.60629Z" fill="#FECA00"/>
</g>
</g>
</svg>
