<svg width="32" height="24" viewBox="0 0 32 24" fill="none" xmlns="http://www.w3.org/2000/svg">
<mask id="mask0_5190_109111" style="mask-type:luminance" maskUnits="userSpaceOnUse" x="0" y="0" width="32" height="24">
<rect width="32" height="24" fill="white"/>
</mask>
<g mask="url(#mask0_5190_109111)">
<path fill-rule="evenodd" clip-rule="evenodd" d="M0 0V24H32V0H0Z" fill="#4141DB"/>
<mask id="mask1_5190_109111" style="mask-type:luminance" maskUnits="userSpaceOnUse" x="0" y="0" width="32" height="24">
<path fill-rule="evenodd" clip-rule="evenodd" d="M0 0V24H32V0H0Z" fill="white"/>
</mask>
<g mask="url(#mask1_5190_109111)">
<path d="M0 13H-1V14V16V17H0H32H33V16V14V13H32H0Z" fill="#F90000" stroke="#F7FCFF" stroke-width="2"/>
<g filter="url(#filter0_d_5190_109111)">
<path fill-rule="evenodd" clip-rule="evenodd" d="M9.79574 10.2595L10.5216 9.7506L11.224 10.2595L11.0056 9.35387L11.5696 8.77996H10.8518L10.5206 8.04089L10.2382 8.77996H9.39609L10.0408 9.35387L9.79574 10.2595ZM12.7957 11.8595L13.5216 11.3506L14.224 11.8595L14.0056 10.9539L14.5696 10.38H13.8518L13.5206 9.64089L13.2382 10.38H12.3961L13.0408 10.9539L12.7957 11.8595ZM15.9216 13.7506L15.1957 14.2595L15.4408 13.3539L14.7961 12.78H15.6382L15.9206 12.0409L16.2518 12.78H16.9696L16.4056 13.3539L16.624 14.2595L15.9216 13.7506ZM15.1957 18.2595L15.9216 17.7506L16.624 18.2595L16.4056 17.3539L16.9696 16.78H16.2518L15.9206 16.0409L15.6382 16.78H14.7961L15.4408 17.3539L15.1957 18.2595ZM13.5216 20.1506L12.7957 20.6595L13.0408 19.7539L12.3961 19.18H13.2382L13.5206 18.4409L13.8518 19.18H14.5696L14.0056 19.7539L14.224 20.6595L13.5216 20.1506ZM9.79574 22.2595L10.5216 21.7506L11.224 22.2595L11.0056 21.3539L11.5696 20.78H10.8518L10.5206 20.0409L10.2382 20.78H9.39609L10.0408 21.3539L9.79574 22.2595ZM7.52162 20.1506L6.79575 20.6595L7.04081 19.7539L6.39609 19.18H7.23818L7.52061 18.4409L7.85178 19.18H8.56964L8.0056 19.7539L8.22396 20.6595L7.52162 20.1506ZM4.39575 18.2595L5.12162 17.7506L5.82396 18.2595L5.6056 17.3539L6.16964 16.78H5.45178L5.12061 16.0409L4.83818 16.78H3.99609L4.64081 17.3539L4.39575 18.2595ZM5.12162 13.7506L4.39575 14.2595L4.64081 13.3539L3.99609 12.78H4.83818L5.12061 12.0409L5.45178 12.78H6.16964L5.6056 13.3539L5.82396 14.2595L5.12162 13.7506ZM6.79575 11.8595L7.52162 11.3506L8.22396 11.8595L8.0056 10.9539L8.56964 10.38H7.85178L7.52061 9.64089L7.23818 10.38H6.39609L7.04081 10.9539L6.79575 11.8595Z" fill="#FFDE00"/>
</g>
</g>
</g>
<defs>
<filter id="filter0_d_5190_109111" x="-0.00390625" y="4.04089" width="20.9727" height="22.2186" filterUnits="userSpaceOnUse" color-interpolation-filters="sRGB">
<feFlood flood-opacity="0" result="BackgroundImageFix"/>
<feColorMatrix in="SourceAlpha" type="matrix" values="0 0 0 0 0 0 0 0 0 0 0 0 0 0 0 0 0 0 127 0" result="hardAlpha"/>
<feOffset/>
<feGaussianBlur stdDeviation="2"/>
<feColorMatrix type="matrix" values="0 0 0 0 0 0 0 0 0 0 0 0 0 0 0 0 0 0 0.24 0"/>
<feBlend mode="normal" in2="BackgroundImageFix" result="effect1_dropShadow_5190_109111"/>
<feBlend mode="normal" in="SourceGraphic" in2="effect1_dropShadow_5190_109111" result="shape"/>
</filter>
</defs>
</svg>
