<svg width="32" height="24" viewBox="0 0 32 24" fill="none" xmlns="http://www.w3.org/2000/svg">
<mask id="mask0_5190_108886" style="mask-type:luminance" maskUnits="userSpaceOnUse" x="0" y="0" width="32" height="24">
<rect width="32" height="24" fill="white"/>
</mask>
<g mask="url(#mask0_5190_108886)">
<path fill-rule="evenodd" clip-rule="evenodd" d="M0 0V24H32V0H0Z" fill="#C51918"/>
<mask id="mask1_5190_108886" style="mask-type:luminance" maskUnits="userSpaceOnUse" x="0" y="0" width="32" height="24">
<path fill-rule="evenodd" clip-rule="evenodd" d="M0 0V24H32V0H0Z" fill="white"/>
</mask>
<g mask="url(#mask1_5190_108886)">
<rect width="14" height="10" fill="#4257BF"/>
<rect x="18" y="14" width="14" height="10" fill="#4257BF"/>
<path fill-rule="evenodd" clip-rule="evenodd" d="M13 0H19V9H32V15H19V24H13V15H0V9H13V0Z" fill="#F7FCFF"/>
<path fill-rule="evenodd" clip-rule="evenodd" d="M13.8631 10.5247C13.8253 10.3496 13.7828 10.1333 13.7828 10.1333C13.688 10.3638 13.6582 10.5735 13.6962 10.761C13.656 10.8201 13.6195 10.8754 13.5869 10.9271C13.485 10.7836 13.3579 10.5151 13.3579 10.5151C13.3623 10.5933 13.3603 10.673 13.3584 10.7504C13.3538 10.9324 13.3495 11.1016 13.4296 11.2075L13.4286 11.2096C13.4127 11.2447 13.3975 11.2797 13.3832 11.3147C13.2728 11.1973 13.0897 10.9856 13.0897 10.9856C13.104 11.2395 13.1698 11.4395 13.2895 11.5822C13.2679 11.6566 13.25 11.7306 13.2358 11.8042C13.1433 11.7021 13.054 11.6012 13.054 11.6012C13.0671 11.8328 13.1034 11.9858 13.1978 12.1144C13.1959 12.151 13.1949 12.1874 13.1949 12.2237C13.0971 12.1161 12.9976 12.0037 12.9976 12.0037C13.0114 12.2482 13.1008 12.409 13.2185 12.5429C13.2302 12.6203 13.2461 12.6969 13.2663 12.7726L13.2776 12.8145C13.1416 12.7433 12.9922 12.6622 12.9922 12.6622C13.0828 12.8734 13.2109 12.9926 13.3556 13.0772C13.3871 13.1752 13.4204 13.2699 13.4554 13.361C13.2954 13.312 13.0554 13.2316 13.0554 13.2316C13.1997 13.4519 13.3714 13.5447 13.5548 13.6005C13.5925 13.6845 13.6316 13.7647 13.6721 13.8408C13.5199 13.7928 13.3398 13.7325 13.3398 13.7325C13.4799 13.9464 13.6459 14.0401 13.8233 14.0965C13.9406 14.2744 14.0663 14.4203 14.1975 14.5291C14.0466 14.592 13.8533 14.6681 13.8533 14.6681C14.0675 14.7326 14.2377 14.714 14.3922 14.6609L14.4028 14.6664C14.4661 14.6987 14.537 14.7293 14.6169 14.7591C14.4925 14.8097 14.373 14.8568 14.373 14.8568C14.5832 14.9201 14.751 14.9034 14.9031 14.8526L14.9105 14.8547C14.9819 14.8755 15.0546 14.8954 15.1505 14.9207C15.0871 14.9039 15.321 14.9655 15.3685 14.9784C15.5206 15.0196 15.6072 15.0486 15.6488 15.0736C15.6527 15.0759 15.6555 15.0779 15.6573 15.0791C15.6591 15.0803 15.6599 15.0808 15.6595 15.0803L15.7758 14.9901C15.7623 14.9703 15.7436 14.9545 15.7194 14.94C15.6623 14.9057 15.5698 14.8747 15.404 14.8297C15.3568 14.8169 15.1303 14.7573 15.1816 14.7709C15.0885 14.7462 15.0176 14.7269 14.9483 14.7067L14.8945 14.6908C14.9072 14.5306 14.8829 14.3634 14.7704 14.1745C14.7704 14.1745 14.7318 14.4679 14.7051 14.6291C14.6129 14.5963 14.5335 14.5631 14.4649 14.528C14.445 14.5178 14.4251 14.5067 14.4053 14.4945C14.3915 14.3305 14.3397 14.1662 14.1924 13.9954C14.1924 13.9954 14.2004 14.1776 14.2046 14.3349C14.1068 14.2393 14.0118 14.1196 13.9216 13.9787L14.0067 14.0258C14.0072 13.8248 13.9699 13.6254 13.7896 13.4163C13.7896 13.4163 13.7982 13.6134 13.8023 13.7747C13.7493 13.6757 13.6984 13.569 13.65 13.4552C13.6948 13.2944 13.7037 13.1203 13.6226 12.9064C13.6226 12.9064 13.5818 13.0357 13.5386 13.1671C13.526 13.1311 13.5136 13.0946 13.5014 13.0575C13.5952 12.8895 13.6549 12.703 13.6055 12.4432C13.6055 12.4432 13.5007 12.6446 13.4208 12.7903C13.4153 12.7705 13.4099 12.7507 13.4046 12.7307C13.3873 12.6658 13.3734 12.6002 13.3629 12.5339C13.4974 12.4118 13.6064 12.2601 13.6465 12.0138C13.6465 12.0138 13.4657 12.1794 13.3397 12.2894C13.3379 12.2337 13.3385 12.1775 13.3415 12.1209C13.4867 12.0254 13.6123 11.8962 13.6909 11.671C13.6909 11.671 13.5105 11.7859 13.37 11.8715C13.3795 11.8168 13.3914 11.7617 13.4054 11.7063C13.5783 11.6064 13.7308 11.4744 13.8211 11.2156C13.8211 11.2156 13.6394 11.3314 13.4986 11.417C13.5168 11.3704 13.5366 11.3236 13.558 11.2766C13.5832 11.2212 13.6191 11.155 13.6656 11.0781C13.8202 11.0223 13.9651 10.9297 14.0917 10.7436C14.0917 10.7436 13.9631 10.7841 13.8312 10.824C13.9052 10.7164 13.9921 10.596 14.0919 10.4628L13.9795 10.367C13.9386 10.4216 13.8998 10.4742 13.8631 10.5247Z" fill="#5AB92D"/>
<path fill-rule="evenodd" clip-rule="evenodd" d="M17.9103 10.5247C17.9481 10.3496 17.9907 10.1333 17.9907 10.1333C18.0854 10.3638 18.1152 10.5735 18.0772 10.761C18.1175 10.8201 18.1539 10.8754 18.1866 10.9271C18.2884 10.7836 18.4155 10.5151 18.4155 10.5151C18.4111 10.5933 18.4131 10.673 18.4151 10.7504C18.4197 10.9324 18.4239 11.1016 18.3438 11.2075L18.3448 11.2096C18.3608 11.2447 18.3759 11.2797 18.3902 11.3147C18.5006 11.1973 18.6838 10.9856 18.6838 10.9856C18.6695 11.2395 18.6036 11.4395 18.4839 11.5822C18.5056 11.6566 18.5235 11.7306 18.5376 11.8042C18.6302 11.7021 18.7194 11.6012 18.7194 11.6012C18.7064 11.8328 18.67 11.9858 18.5756 12.1144C18.5776 12.151 18.5785 12.1874 18.5786 12.2237C18.6764 12.1161 18.7758 12.0037 18.7758 12.0037C18.762 12.2482 18.6726 12.409 18.5549 12.5429C18.5433 12.6203 18.5273 12.6969 18.5072 12.7726L18.4959 12.8145C18.6318 12.7433 18.7812 12.6622 18.7812 12.6622C18.6906 12.8734 18.5626 12.9926 18.4179 13.0772C18.3863 13.1752 18.353 13.2699 18.3181 13.361C18.478 13.312 18.7181 13.2316 18.7181 13.2316C18.5738 13.4519 18.4021 13.5447 18.2187 13.6005C18.181 13.6845 18.1418 13.7647 18.1013 13.8408C18.2535 13.7928 18.4337 13.7325 18.4337 13.7325C18.2935 13.9464 18.1276 14.0401 17.9502 14.0965C17.8328 14.2744 17.7071 14.4203 17.576 14.5291C17.7269 14.592 17.9201 14.6681 17.9201 14.6681C17.7059 14.7326 17.5357 14.714 17.3812 14.6609L17.3707 14.6664C17.3073 14.6987 17.2364 14.7293 17.1566 14.7591C17.281 14.8097 17.4004 14.8568 17.4004 14.8568C17.1903 14.9201 17.0225 14.9034 16.8703 14.8526L16.863 14.8547C16.7915 14.8755 16.7188 14.8954 16.623 14.9207C16.6863 14.9039 16.4524 14.9655 16.4049 14.9784C16.2528 15.0196 16.1662 15.0486 16.1246 15.0736C16.1208 15.0759 16.1179 15.0779 16.1161 15.0791C16.1143 15.0803 16.1136 15.0808 16.114 15.0803L15.9976 14.9901C16.0111 14.9703 16.0298 14.9545 16.0541 14.94C16.1111 14.9057 16.2037 14.8747 16.3694 14.8297C16.4166 14.8169 16.6432 14.7573 16.5919 14.7709C16.685 14.7462 16.7558 14.7269 16.8252 14.7067L16.879 14.6908C16.8663 14.5306 16.8905 14.3634 17.003 14.1745C17.003 14.1745 17.0417 14.4679 17.0683 14.6291C17.1605 14.5963 17.24 14.5631 17.3085 14.528C17.3284 14.5178 17.3483 14.5067 17.3681 14.4945C17.3819 14.3305 17.4338 14.1662 17.581 13.9954C17.581 13.9954 17.5731 14.1776 17.5688 14.3349C17.6667 14.2393 17.7616 14.1196 17.8518 13.9787L17.7667 14.0258C17.7662 13.8248 17.8035 13.6254 17.9838 13.4163C17.9838 13.4163 17.9752 13.6134 17.9711 13.7747C18.0242 13.6757 18.0751 13.569 18.1234 13.4552C18.0786 13.2944 18.0697 13.1203 18.1509 12.9064C18.1509 12.9064 18.1916 13.0357 18.2348 13.1671C18.2475 13.1311 18.2599 13.0946 18.272 13.0575C18.1782 12.8895 18.1185 12.703 18.1679 12.4432C18.1679 12.4432 18.2727 12.6446 18.3527 12.7903C18.3581 12.7705 18.3635 12.7507 18.3688 12.7307C18.3861 12.6658 18.4 12.6002 18.4106 12.5339C18.276 12.4118 18.167 12.2601 18.127 12.0138C18.127 12.0138 18.3078 12.1794 18.4338 12.2894C18.4356 12.2337 18.435 12.1775 18.432 12.1209C18.2868 12.0254 18.1611 11.8962 18.0825 11.671C18.0825 11.671 18.263 11.7859 18.4035 11.8715C18.3939 11.8168 18.3821 11.7617 18.368 11.7063C18.1951 11.6064 18.0426 11.4744 17.9523 11.2156C17.9523 11.2156 18.1341 11.3314 18.2748 11.417C18.2566 11.3704 18.2368 11.3236 18.2154 11.2766C18.1902 11.2212 18.1543 11.155 18.1078 11.0781C17.9533 11.0223 17.8083 10.9297 17.6817 10.7436C17.6817 10.7436 17.8103 10.7841 17.9423 10.824C17.8682 10.7164 17.7813 10.596 17.6816 10.4628L17.7939 10.367C17.8348 10.4216 17.8736 10.4742 17.9103 10.5247Z" fill="#5AB92D"/>
<path d="M13.2505 9.31579C13.6502 9.03478 14.3829 8.79217 14.7598 8.79217C14.7617 8.79217 14.7658 8.79127 14.7764 8.78688C14.8077 8.77393 15.0141 8.64604 15.0271 8.63864C15.2935 8.48614 15.5722 8.40588 15.952 8.40588V9.07255C15.6793 9.07255 15.5012 9.12384 15.3226 9.22608C15.3537 9.20829 15.0872 9.37334 15.0023 9.40844C14.9233 9.44114 14.8439 9.45884 14.7598 9.45884C14.5073 9.45884 13.8937 9.662 13.5945 9.87241C13.4869 9.94804 13.4968 9.92495 13.5001 9.97004C13.5122 10.134 13.4998 10.2342 13.399 10.3622C13.3859 10.3788 13.365 10.4705 13.3632 10.6313L12.7383 10.6234C12.7412 10.3609 12.781 10.1538 12.8756 9.99814C12.8618 9.72897 12.9564 9.52255 13.2505 9.31579Z" fill="#003994"/>
<path d="M13.5846 9.56537L13.5156 9.45417C13.8364 9.22775 14.1356 9.11352 14.4132 9.11352C14.5052 9.11352 14.61 9.08905 14.732 9.04195C14.8137 9.01039 14.8974 8.97139 15.0098 8.91426C15.4169 8.70729 15.4285 8.70203 15.5361 8.70203H15.9046V8.83536H15.5361C15.4582 8.83536 15.433 8.84678 15.0635 9.03462C14.9478 9.09345 14.8609 9.13398 14.7745 9.16732C14.6401 9.21925 14.5218 9.24685 14.4132 9.24685C14.1627 9.24685 13.8864 9.35234 13.5846 9.56537Z" fill="#EBCA5E"/>
<path d="M18.4956 9.31579C18.0959 9.03478 17.3632 8.79217 16.9863 8.79217C16.9844 8.79217 16.9803 8.79127 16.9697 8.78688C16.9384 8.77393 16.732 8.64604 16.719 8.63864C16.4526 8.48614 16.1739 8.40588 15.7941 8.40588V9.07255C16.0668 9.07255 16.2449 9.12384 16.4235 9.22608C16.3924 9.20829 16.6589 9.37334 16.7438 9.40844C16.8228 9.44114 16.9022 9.45884 16.9863 9.45884C17.2388 9.45884 17.8524 9.662 18.1516 9.87241C18.2592 9.94804 18.2493 9.92495 18.2459 9.97004C18.2339 10.134 18.2463 10.2342 18.3471 10.3622C18.3602 10.3788 18.3811 10.4705 18.3829 10.6313L19.0078 10.6234C19.0049 10.3609 18.9651 10.1538 18.8705 9.99814C18.8843 9.72897 18.7897 9.52255 18.4956 9.31579Z" fill="#003994"/>
<path d="M18.1107 9.56537L18.1797 9.45417C17.8589 9.22775 17.5597 9.11352 17.2821 9.11352C17.1901 9.11352 17.0853 9.08905 16.9633 9.04195C16.8816 9.01039 16.7979 8.97139 16.6856 8.91426C16.2784 8.70729 16.2668 8.70203 16.1593 8.70203H15.7907V8.83536H16.1593C16.2371 8.83536 16.2623 8.84678 16.6318 9.03462C16.7475 9.09345 16.8345 9.13398 16.9208 9.16732C17.0552 9.21925 17.1735 9.24685 17.2821 9.24685C17.5326 9.24685 17.8089 9.35234 18.1107 9.56537Z" fill="#EBCA5E"/>
<path d="M13.8194 10.0193L14.1455 10.3739V11.8467H14.4748V11.9404L14.9567 12.1721C14.9567 12.1721 15.0295 11.1978 14.8028 10.9411C14.5762 10.6844 14.9567 10.6212 14.9567 10.6212L15.5352 11.2004V10.0193H13.8194Z" fill="#003994"/>
<path d="M17.7353 10.0193L17.4092 10.3739V11.8467H17.0799V11.9404L16.598 12.1721C16.598 12.1721 16.5252 11.1978 16.7519 10.9411C16.9785 10.6844 16.598 10.6212 16.598 10.6212L16.0195 11.2004V10.0193H17.7353Z" fill="#D62818"/>
<path d="M14.8731 10.5967L14.824 10.6571L15.7857 11.5461L15.8374 11.5435L16.6328 10.6545L16.5786 10.5993L15.8078 11.4607L14.8731 10.5967Z" fill="#FFC300"/>
<path d="M14.7382 10.97L14.6756 11.0304L15.9032 11.9194L15.9691 11.9168L16.9844 11.0278L16.9151 10.9726L15.9314 11.834L14.7382 10.97Z" fill="#FFC300"/>
<path d="M14.1758 12.422H14.598L14.886 12.51C14.886 12.51 14.9787 13.171 15.4415 13.171L15.5173 14.0173L15.1586 13.8235C15.1586 13.8235 14.9255 13.9265 14.886 13.9265C14.8466 13.9265 14.5141 14.1129 14.5141 13.9265C14.5141 13.7401 14.1758 13.4384 14.1758 13.4384V12.422Z" fill="#D62818"/>
<path d="M17.5156 12.422H17.0934L16.8054 12.51C16.8054 12.51 16.7127 13.171 16.2499 13.171L16.1741 14.0173L16.5328 13.8235C16.5328 13.8235 16.7659 13.9265 16.8054 13.9265C16.8448 13.9265 17.1773 14.1129 17.1773 13.9265C17.1773 13.7401 17.5156 13.4384 17.5156 13.4384V12.422Z" fill="#003994"/>
<path d="M16.6113 12.502L17.1113 12.5022C17.1111 12.8762 16.9792 13.1793 16.7191 13.3843L16.4219 12.9555C16.5493 12.855 16.6112 12.7129 16.6113 12.502Z" fill="#D62818"/>
<path d="M15.3047 11.4734V12.1747H15.886C15.886 12.1747 15.8314 12.7006 15.8314 13.0323C15.8314 13.364 15.886 13.7945 15.886 13.7945C15.886 13.7945 16.0283 13.7235 16.0283 13.2749C16.0283 12.8262 16.0283 12.1261 16.0283 12.1261L16.4876 12.1747L16.4391 11.5422H16.2454C16.2454 11.5422 16.5432 11.9364 16.2454 11.9364C15.9476 11.9364 15.6053 12.0133 15.5403 12.0133C15.4754 12.0133 15.3047 11.4734 15.3047 11.4734Z" fill="#D62818"/>
<path d="M15.8071 12.3209C15.8071 12.3209 15.4805 12.5133 15.4805 12.8262C15.4805 13.1391 15.6438 13.496 15.6438 13.496C15.6438 13.496 15.5663 12.7912 15.6867 12.6038C15.8071 12.4163 15.8071 12.3209 15.8071 12.3209Z" fill="#003994"/>
<path d="M15.2757 12.5526C15.2757 12.5526 15.2572 12.7791 15.3914 12.7791C15.5256 12.7791 15.2757 12.5526 15.2757 12.5526Z" fill="#003994"/>
<path d="M16.4284 11.944L16.4797 12.1224L15.6252 12.4022L15.4336 11.6065L15.6031 11.5601L15.7491 12.1664L16.4284 11.944Z" fill="#373737"/>
<path fill-rule="evenodd" clip-rule="evenodd" d="M14.0344 15.4086L13.9594 15.4723C13.9343 15.4387 13.9129 15.4049 13.895 15.3711C13.8197 15.3451 13.7486 15.3105 13.6901 15.2693C13.6089 15.2122 13.5251 15.2122 13.4191 15.2747L13.2982 15.0413C13.4825 14.9327 13.6655 14.9327 13.8277 15.0467C13.8297 15.0481 13.8317 15.0494 13.8337 15.0508C13.8562 14.919 13.9425 14.8018 14.0912 14.7172C14.3461 14.572 15.4612 14.4192 15.8 14.4192V14.8459C15.525 14.8459 14.4576 14.9922 14.2795 15.0936C14.2743 15.0966 14.2694 15.0993 14.265 15.1018C14.2415 15.1149 14.2289 15.1219 14.2266 15.1315C14.2246 15.1395 14.2299 15.1494 14.2422 15.1664C14.2519 15.1655 14.2583 15.1638 14.2609 15.161L14.4383 15.3489C14.3648 15.4278 14.2017 15.4411 14.0344 15.4086ZM12.8398 15.4161C12.8398 15.4161 13.2095 15.7409 13.4763 15.6622C13.7432 15.5834 13.8258 15.4948 13.8258 15.4948C13.8258 15.4948 13.5594 15.4593 13.2766 15.4161C12.9938 15.373 12.8398 15.4161 12.8398 15.4161Z" fill="#D62818"/>
<path fill-rule="evenodd" clip-rule="evenodd" d="M14.0626 15.1794L14.1076 15.1154C13.9756 15.0098 14.0099 14.9507 14.2628 14.894C14.2849 14.889 14.3072 14.8842 14.3297 14.8793L14.3297 14.8794C14.5627 14.8297 14.8171 14.7876 15.0709 14.757C15.3501 14.7234 15.6296 14.7037 15.8781 14.7037C15.6295 14.7037 15.3506 14.7233 15.0709 14.757C14.8157 14.7877 14.5606 14.83 14.3297 14.8793L14.315 14.8009C14.5503 14.7508 14.8072 14.7082 15.0635 14.6774C15.345 14.6435 15.627 14.6237 15.8781 14.6237C15.6269 14.6237 15.3455 14.6434 15.0635 14.6774C14.7805 14.7114 14.498 14.7595 14.2474 14.8157C13.9424 14.8841 13.8634 15.0201 14.0626 15.1794Z" fill="#EBCA5E"/>
<path fill-rule="evenodd" clip-rule="evenodd" d="M17.4617 15.4086L17.5367 15.4723C17.5617 15.4387 17.5832 15.4049 17.6011 15.3711C17.6764 15.3451 17.7475 15.3105 17.806 15.2693C17.8872 15.2122 17.971 15.2122 18.077 15.2747L18.1979 15.0413C18.0136 14.9327 17.8305 14.9327 17.6684 15.0467C17.6664 15.0481 17.6644 15.0494 17.6624 15.0508C17.6399 14.919 17.5536 14.8018 17.4049 14.7172C17.15 14.572 16.0349 14.4192 15.6961 14.4192V14.8459C15.971 14.8459 17.0385 14.9922 17.2166 15.0936C17.2218 15.0966 17.2266 15.0993 17.2311 15.1018C17.2546 15.1149 17.2672 15.1219 17.2695 15.1315C17.2715 15.1395 17.2661 15.1494 17.2539 15.1664C17.2442 15.1655 17.2378 15.1638 17.2352 15.161L17.0578 15.3489C17.1313 15.4278 17.2944 15.4411 17.4617 15.4086ZM18.6562 15.4161C18.6562 15.4161 18.2866 15.7409 18.0198 15.6622C17.7529 15.5834 17.6703 15.4948 17.6703 15.4948C17.6703 15.4948 17.9367 15.4593 18.2195 15.4161C18.5023 15.373 18.6562 15.4161 18.6562 15.4161Z" fill="#D62818"/>
<path fill-rule="evenodd" clip-rule="evenodd" d="M17.4335 15.1794L17.3885 15.1154C17.5205 15.0098 17.4862 14.9507 17.2333 14.894C17.2112 14.889 17.1889 14.8842 17.1664 14.8793L17.1664 14.8794C16.9334 14.8297 16.679 14.7876 16.4252 14.757C16.146 14.7234 15.8665 14.7037 15.618 14.7037C15.8665 14.7037 16.1455 14.7233 16.4252 14.757C16.6804 14.7877 16.9355 14.83 17.1664 14.8793L17.1811 14.8009C16.9458 14.7508 16.6889 14.7082 16.4326 14.6774C16.1511 14.6435 15.8691 14.6237 15.618 14.6237C15.8692 14.6237 16.1506 14.6434 16.4326 14.6774C16.7155 14.7114 16.9981 14.7595 17.2487 14.8157C17.5537 14.8841 17.6327 15.0201 17.4335 15.1794Z" fill="#EBCA5E"/>
<path d="M15.3662 15.5106L15.1719 15.1685C15.3489 15.0541 15.5761 14.9995 15.852 14.9995C16.1292 14.9995 16.3539 15.0546 16.5246 15.1711L16.3225 15.508C16.2196 15.4378 16.0633 15.3995 15.852 15.3995C15.6395 15.3995 15.4781 15.4383 15.3662 15.5106Z" fill="#D62818"/>
</g>
</g>
</svg>
