<svg width="32" height="24" viewBox="0 0 32 24" fill="none" xmlns="http://www.w3.org/2000/svg">
<path fill-rule="evenodd" clip-rule="evenodd" d="M16 0H32V24H16V0Z" fill="#F7FCFF"/>
<path fill-rule="evenodd" clip-rule="evenodd" d="M0 0H16V24H0V0Z" fill="#36A400"/>
<path fill-rule="evenodd" clip-rule="evenodd" d="M17.7924 6.79468C19.3145 6.79468 20.7053 7.35664 21.7687 8.2844C20.4219 6.58386 18.339 5.49292 16.0013 5.49292C11.9404 5.49292 8.64844 8.78491 8.64844 12.8458C8.64844 16.9067 11.9404 20.1987 16.0013 20.1987C18.3391 20.1987 20.422 19.1077 21.7688 17.4071C20.7054 18.3349 19.3145 18.8969 17.7924 18.8969C14.4505 18.8969 11.7413 16.1877 11.7413 12.8458C11.7413 9.50385 14.4505 6.79468 17.7924 6.79468ZM20.6123 9.54348L18.9099 11.4729L16.4647 10.7992L17.8203 12.9195L16.4647 15.1766L19.0297 14.2533L20.4318 16.442V13.9017L22.7232 12.9195L20.4318 12.0987L20.6123 9.54348Z" fill="#FF0000"/>
</svg>
