<svg width="32" height="24" viewBox="0 0 32 24" fill="none" xmlns="http://www.w3.org/2000/svg">
<mask id="mask0_5190_108821" style="mask-type:luminance" maskUnits="userSpaceOnUse" x="0" y="0" width="32" height="24">
<rect width="32" height="24" fill="white"/>
</mask>
<g mask="url(#mask0_5190_108821)">
<path fill-rule="evenodd" clip-rule="evenodd" d="M0 0V24H32V0H0Z" fill="#2E42A5"/>
<mask id="mask1_5190_108821" style="mask-type:luminance" maskUnits="userSpaceOnUse" x="0" y="0" width="32" height="24">
<path fill-rule="evenodd" clip-rule="evenodd" d="M0 0V24H32V0H0Z" fill="white"/>
</mask>
<g mask="url(#mask1_5190_108821)">
<path fill-rule="evenodd" clip-rule="evenodd" d="M0 0V12H32V0H0Z" fill="#FECA00"/>
<path fill-rule="evenodd" clip-rule="evenodd" d="M0 18V24H32V18H0Z" fill="#E31D1C"/>
<path fill-rule="evenodd" clip-rule="evenodd" d="M9.71875 5.71427C9.71875 5.71427 13.875 3.83665 14.2528 4.04996C14.6305 4.26326 14.7217 4.87124 15.0478 4.87124C15.374 4.87124 16.0305 4.67912 16.3046 4.67912C16.5788 4.67912 16.8497 4.87124 16.8497 4.87124H18.0204V4.22025L23.3286 5.71427C23.3286 5.71427 20.2326 6.11875 19.9992 6.11875C19.7659 6.11875 19.9992 6.45237 19.9992 6.45237C19.9992 6.45237 19.5577 6.11875 18.8854 6.11875C18.2131 6.11875 16.8497 6.81332 16.8497 6.81332L17.3453 7.87947L16.8497 8.19297L16.3046 7.87947C16.3046 7.87947 16.3399 7.00271 16.1052 7.00271C15.8704 7.00271 15.6992 7.56596 15.6992 7.87947C15.6992 8.19297 15.0478 8.19297 15.0478 8.19297L15.3388 7.60607C15.3388 7.60607 15.628 6.63303 15.0478 6.63303C14.4676 6.63303 11.823 6.11875 11.823 6.11875L11.1467 6.45237L11.3885 5.71427H9.71875Z" fill="#7B2900"/>
<path fill-rule="evenodd" clip-rule="evenodd" d="M11.4993 15.7742C10.8505 14.3163 11.4993 11.0865 11.4993 11.0865L12.7599 11.7476C12.6104 12.5014 12.5869 13.9258 13.0587 15.0908C13.5304 16.2557 15.3137 17.1732 15.3137 17.1732C15.3137 17.1732 16.2133 17.3738 14.8465 17.5184C13.4796 17.6629 12.148 17.2321 11.4993 15.7742ZM14.7312 21.5168C14.3251 21.5168 15.5435 18.8078 15.5435 18.8078L15.9195 18.0552C15.9195 18.0552 15.9655 21.244 15.708 21.5168C15.543 21.6916 15.355 21.6423 15.1343 21.5843C15.0108 21.5519 14.877 21.5168 14.7312 21.5168Z" fill="#E31D1C"/>
<path fill-rule="evenodd" clip-rule="evenodd" d="M10.3264 15.298C9.78291 13.1211 10.6308 10.1649 10.6308 10.1649L11.4841 10.7746C11.3588 11.9002 11.3588 14.8111 12.0805 16.0723C12.8023 17.3336 15.9677 17.8634 15.9677 17.8634C15.9677 17.8634 15.3432 18.3251 14.198 18.5409C13.0529 18.7567 10.8699 17.475 10.3264 15.298ZM13.9554 21.2171L14.4574 19.4247L15.165 18.5589H15.6738C15.6738 18.5589 14.9575 21.6395 14.4574 21.6395C14.1325 21.6395 14.2297 21.4612 14.3377 21.2632C14.396 21.1564 14.4574 21.0438 14.4574 20.9504C14.4574 20.6837 13.9554 21.2171 13.9554 21.2171Z" fill="#2E42A5"/>
<path fill-rule="evenodd" clip-rule="evenodd" d="M9.49739 15.671C9.2277 13.7972 9.76708 9.31995 9.76708 9.31995L10.6204 9.92963C10.2347 11.0141 10.3541 14.126 10.6204 15.671C10.8866 17.2161 13.406 18.1475 13.406 18.1475C13.406 18.1475 12.7815 18.6091 11.6363 18.825C10.4911 19.0408 9.76708 17.5449 9.49739 15.671ZM13.686 19.4155C13.2002 19.4155 13.8978 18.7189 13.8978 18.7189H15.061C15.061 18.7189 14.6631 19.7029 14.1719 19.7029C13.9256 19.7029 13.9263 19.6306 13.9269 19.5586C13.9276 19.487 13.9283 19.4155 13.686 19.4155Z" fill="#FECA00"/>
<path fill-rule="evenodd" clip-rule="evenodd" d="M20.3679 15.7742C21.0166 14.3163 20.3679 11.0865 20.3679 11.0865L19.1073 11.7476C19.2568 12.5014 19.2802 13.9258 18.8085 15.0908C18.3368 16.2557 16.5535 17.1732 16.5535 17.1732C16.5535 17.1732 15.6538 17.3738 17.0207 17.5184C18.3876 17.6629 19.7192 17.2321 20.3679 15.7742ZM17.1359 21.5168C17.5421 21.5168 16.3237 18.8078 16.3237 18.8078L15.9477 18.0552C15.9477 18.0552 15.9017 21.244 16.1591 21.5168C16.3242 21.6916 16.5122 21.6423 16.7329 21.5843C16.8564 21.5519 16.9902 21.5168 17.1359 21.5168Z" fill="#E31D1C"/>
<path fill-rule="evenodd" clip-rule="evenodd" d="M21.5408 15.298C22.0843 13.1211 21.2364 10.1649 21.2364 10.1649L20.3831 10.7746C20.5084 11.9002 20.5084 14.8111 19.7867 16.0723C19.0649 17.3336 15.8995 17.8634 15.8995 17.8634C15.8995 17.8634 16.524 18.3251 17.6692 18.5409C18.8143 18.7567 20.9973 17.475 21.5408 15.298ZM17.9118 21.2171L17.4098 19.4247L16.7022 18.5589H16.1934C16.1934 18.5589 16.9097 21.6395 17.4098 21.6395C17.7347 21.6395 17.6375 21.4612 17.5294 21.2632C17.4712 21.1564 17.4098 21.0438 17.4098 20.9504C17.4098 20.6837 17.9118 21.2171 17.9118 21.2171Z" fill="#2E42A5"/>
<path fill-rule="evenodd" clip-rule="evenodd" d="M22.3698 15.671C22.6395 13.7972 22.1001 9.31995 22.1001 9.31995L21.2468 9.92963C21.6325 11.0141 21.5131 14.126 21.2468 15.671C20.9806 17.2161 18.4612 18.1475 18.4612 18.1475C18.4612 18.1475 19.0857 18.6091 20.2309 18.825C21.376 19.0408 22.1001 17.5449 22.3698 15.671ZM18.1812 19.4155C18.667 19.4155 17.9694 18.7189 17.9694 18.7189H16.8062C16.8062 18.7189 17.2041 19.7029 17.6953 19.7029C17.9416 19.7029 17.9409 19.6306 17.9403 19.5586C17.9396 19.487 17.9389 19.4155 18.1812 19.4155Z" fill="#FECA00"/>
<path d="M10.2031 10.4461L10.2947 9.8937L11.8956 9.99734L10.6813 8.73942L11.0904 8.35024L12.7328 10.0515L11.3287 7.41154L11.8141 7.12285L13.0924 9.00323L12.4826 7.04874L13.0069 6.84021L14.9726 10.7602L14.2185 10.7114L14.2924 10.9482L14.9344 11.1185L14.7881 11.6619L14.4904 11.583L14.7685 12.4743L14.2855 11.7638L15.1265 13.3443L13.0601 11.2037L10.2031 10.4461Z" fill="#6FAE21"/>
<path d="M21.9258 10.4461L21.8342 9.8937L20.2333 9.99734L21.4476 8.73942L21.0385 8.35024L19.3961 10.0515L20.8002 7.41154L20.3148 7.12285L19.0365 9.00323L19.6463 7.04874L19.122 6.84021L17.1563 10.7602L17.9104 10.7114L17.8365 10.9482L17.1945 11.1185L17.3408 11.6619L17.6385 11.583L17.3604 12.4743L17.8434 11.7638L17.0024 13.3443L19.0688 11.2037L21.9258 10.4461Z" fill="#6FAE21"/>
<path d="M11.0686 21.3112L10.6562 20.9254L22.8466 8.09058L23.2589 8.47645L11.0686 21.3112Z" fill="#171401"/>
<path fill-rule="evenodd" clip-rule="evenodd" d="M22.5352 8.18943L23.1602 8.77887L23.5125 7.80444L22.5352 8.18943Z" fill="#CECECC"/>
<path fill-rule="evenodd" clip-rule="evenodd" d="M11.3775 21.3087L10.6596 20.8367L10.4271 21.8042L11.3775 21.3087Z" fill="#CECECC"/>
<path d="M10.1623 19.3988L9.75 19.0129L21.9404 6.1781L22.3527 6.56397L10.1623 19.3988Z" fill="#171401"/>
<path fill-rule="evenodd" clip-rule="evenodd" d="M21.6289 6.27696L22.2539 6.86639L22.6062 5.89197L21.6289 6.27696Z" fill="#CECECC"/>
<path fill-rule="evenodd" clip-rule="evenodd" d="M10.4713 19.3962L9.75338 18.9243L9.5208 19.8917L10.4713 19.3962Z" fill="#CECECC"/>
<path d="M21.2518 21.3112L21.6641 20.9254L9.47369 8.09058L9.06138 8.47645L21.2518 21.3112Z" fill="#171401"/>
<path fill-rule="evenodd" clip-rule="evenodd" d="M9.78516 8.18943L9.16013 8.77887L8.80785 7.80444L9.78516 8.18943Z" fill="#CECECC"/>
<path fill-rule="evenodd" clip-rule="evenodd" d="M20.9428 21.3087L21.6607 20.8367L21.8933 21.8042L20.9428 21.3087Z" fill="#CECECC"/>
<path d="M22.3846 19.8487L22.7969 19.4628L10.6065 6.62805L10.1942 7.01392L22.3846 19.8487Z" fill="#171401"/>
<path fill-rule="evenodd" clip-rule="evenodd" d="M10.918 6.72691L10.2929 7.31634L9.94066 6.34192L10.918 6.72691Z" fill="#CECECC"/>
<path fill-rule="evenodd" clip-rule="evenodd" d="M22.0756 19.8462L22.7935 19.3742L23.0261 20.3417L22.0756 19.8462Z" fill="#CECECC"/>
<rect x="13.668" y="16.375" width="4.53333" height="2.25" fill="#B74E01"/>
<path d="M15.9505 17.2869C16.8493 17.2869 17.6261 16.7088 18.1655 15.852C18.7071 14.992 19.0339 13.8192 19.0339 12.5369C19.0339 11.2545 18.7071 10.0818 18.1655 9.22168C17.6261 8.36489 16.8493 7.78687 15.9505 7.78687C15.0517 7.78687 14.275 8.36489 13.7355 9.22168C13.194 10.0818 12.8672 11.2545 12.8672 12.5369C12.8672 13.8192 13.194 14.992 13.7355 15.852C14.275 16.7088 15.0517 17.2869 15.9505 17.2869Z" fill="#7DB8FF" stroke="#FECA00" stroke-width="0.5"/>
<mask id="mask2_5190_108821" style="mask-type:luminance" maskUnits="userSpaceOnUse" x="12" y="7" width="8" height="11">
<path d="M15.9505 17.2869C16.8493 17.2869 17.6261 16.7088 18.1655 15.852C18.7071 14.992 19.0339 13.8192 19.0339 12.5369C19.0339 11.2545 18.7071 10.0818 18.1655 9.22168C17.6261 8.36489 16.8493 7.78687 15.9505 7.78687C15.0517 7.78687 14.275 8.36489 13.7355 9.22168C13.194 10.0818 12.8672 11.2545 12.8672 12.5369C12.8672 13.8192 13.194 14.992 13.7355 15.852C14.275 16.7088 15.0517 17.2869 15.9505 17.2869Z" fill="white" stroke="white" stroke-width="0.5"/>
</mask>
<g mask="url(#mask2_5190_108821)">
<path fill-rule="evenodd" clip-rule="evenodd" d="M12.883 12.6099H14.4953C14.4953 12.6099 15.6036 12.8555 15.0494 13.0487C14.4953 13.2419 14.4953 13.3058 14.4953 13.5813C14.4953 13.8569 14.4953 14.8652 14.4953 15.0805C14.4953 15.2959 14.8895 15.7569 14.0586 15.7569C13.2276 15.7569 12.5117 12.3408 12.5117 12.3408L12.883 12.6099Z" fill="#6FAE21"/>
<path fill-rule="evenodd" clip-rule="evenodd" d="M19.1836 12.7955C19.1836 12.7955 17.6859 13.0914 16.6599 12.9928C15.6339 12.8942 15.1836 12.7955 15.1836 12.7955C15.1836 12.7955 15.8987 13.1675 16.1529 13.4792C16.407 13.791 16.9274 14.3299 17.4579 14.3299C17.9883 14.3299 18.8015 14.8331 18.8015 14.8331L19.1836 12.7955Z" fill="#6FAE21"/>
<path fill-rule="evenodd" clip-rule="evenodd" d="M13.3202 10.1356C13.3202 10.1356 14.5548 10.3742 14.8522 10.7315C15.1495 11.0888 14.4593 11.4461 16.2583 11.0888C18.0573 10.7315 19.4853 10.1083 19.4853 11.0888C19.4853 12.0693 19.3282 12.9725 18.554 12.9725C17.7799 12.9725 17.4711 12.9725 15.1101 12.9725C12.7492 12.9725 11.4622 13.6946 11.6275 12.5327C11.7928 11.3708 13.3202 10.1356 13.3202 10.1356Z" fill="#F7FCFF"/>
</g>
</g>
</g>
</svg>
