<svg width="32" height="24" viewBox="0 0 32 24" fill="none" xmlns="http://www.w3.org/2000/svg">
<mask id="mask0_5190_108786" style="mask-type:luminance" maskUnits="userSpaceOnUse" x="0" y="0" width="32" height="24">
<rect width="32" height="24" fill="white"/>
</mask>
<g mask="url(#mask0_5190_108786)">
<path fill-rule="evenodd" clip-rule="evenodd" d="M0 0V24H32V0H0Z" fill="#F7FCFF"/>
<mask id="mask1_5190_108786" style="mask-type:luminance" maskUnits="userSpaceOnUse" x="0" y="0" width="32" height="24">
<path fill-rule="evenodd" clip-rule="evenodd" d="M0 0V24H32V0H0Z" fill="white"/>
</mask>
<g mask="url(#mask1_5190_108786)">
<path fill-rule="evenodd" clip-rule="evenodd" d="M0 0V8H32V0H0Z" fill="#BF2714"/>
<path fill-rule="evenodd" clip-rule="evenodd" d="M0 16V24H32V16H0Z" fill="#272727"/>
<path d="M12.2586 10.2202L13.2575 10.266L13.0068 15.7358L12.0078 15.69L12.2586 10.2202Z" fill="#C09302"/>
<path d="M13.3015 10.5597L14.2999 10.6161L14.0492 15.0515L13.0508 14.995L13.3015 10.5597Z" fill="#C09302"/>
<path d="M14.3484 10.8918L15.3451 10.9736L15.0943 14.0296L14.0977 13.9479L14.3484 10.8918Z" fill="#C09302"/>
<path d="M19.7375 10.2202L18.7386 10.266L18.9893 15.7358L19.9883 15.69L19.7375 10.2202Z" fill="#C09302"/>
<path d="M18.6946 10.5597L17.6962 10.6161L17.9469 15.0515L18.9453 14.995L18.6946 10.5597Z" fill="#C09302"/>
<path d="M17.6477 10.8918L16.651 10.9736L16.9018 14.0296L17.8984 13.9479L17.6477 10.8918Z" fill="#C09302"/>
<path d="M15.9708 15.3267L14.9961 15.1033L15.4087 13.3026L16.3834 13.5259L15.9708 15.3267Z" fill="#C09302"/>
<path d="M16.7167 15.3267L17.6914 15.1033L17.2788 13.3026L16.3041 13.5259L16.7167 15.3267Z" fill="#C09302"/>
<path d="M16.4688 15.3102H15.4688V13.5422H16.4688V15.3102Z" fill="#C09302"/>
<path d="M14.6326 10.9132L15.6323 10.9377L15.5739 13.3186L14.5742 13.2941L14.6326 10.9132Z" fill="#C09302"/>
<path d="M16.3709 10.9132L17.3706 10.9377L17.3122 13.3186L16.3125 13.2941L16.3709 10.9132Z" fill="#C09302"/>
<path d="M13.3359 15.9228L13.5956 14.9572C14.6567 15.2425 15.4714 15.3836 16.0269 15.3836C16.5825 15.3836 17.3972 15.2425 18.4583 14.9572L18.718 15.9228C17.5796 16.229 16.6869 16.3836 16.0269 16.3836C15.367 16.3836 14.4743 16.229 13.3359 15.9228Z" fill="#C09302"/>
<path d="M12.2809 10.2227C12.2142 9.56205 12.6008 9.11487 13.2561 9.17191C13.4716 9.19066 13.7136 9.2544 14.0359 9.36375C14.13 9.39606 14.13 9.39606 14.2216 9.42846C14.6647 9.58606 14.785 9.62657 14.8099 9.6319C14.7118 9.60966 15.0009 9.08689 15.0673 8.99878C15.0751 9.05474 15.0418 9.04677 14.9619 9.03077L14.0598 8.85024L14.702 8.19149C14.9264 7.96123 15.2253 7.84705 15.5664 7.84705C15.6017 7.84705 15.6347 7.8454 15.7431 7.83874C15.8232 7.83387 15.8232 7.83387 15.9133 7.83014C16.5373 7.80992 16.9848 7.98636 16.9848 8.62801C16.9848 8.85757 17.0138 9.22672 17.0616 9.50677C17.0777 9.60098 17.1088 9.68916 17.0171 9.72789C17.0209 9.69447 17.2394 9.60822 17.5793 9.4661L17.6201 9.44905C18.6075 9.0369 18.7229 8.99867 19.0412 9.19211C19.2533 9.32102 19.4553 9.55289 19.6816 9.8986L18.8449 10.4463C18.6989 10.2233 18.5827 10.088 18.5273 10.0502C18.6531 10.1376 18.2294 10.2783 18.0053 10.3719L17.9651 10.3887C17.1963 10.7102 17.095 10.7485 16.8751 10.7485C16.2769 10.7485 16.0622 10.1358 16.0034 9.25823C15.8188 9.8658 15.2681 10.6325 14.8143 10.6325C14.6157 10.6325 14.7112 10.664 13.8865 10.3706C13.8 10.3401 13.8 10.3401 13.7146 10.3107C13.4647 10.226 13.2845 10.1784 13.1708 10.1683C13.1755 10.1629 13.1922 10.1449 13.211 10.1288L12.2809 10.2227Z" fill="#C09302"/>
</g>
</g>
</svg>
