<svg width="32" height="24" viewBox="0 0 32 24" fill="none" xmlns="http://www.w3.org/2000/svg">
<mask id="mask0_5190_108615" style="mask-type:luminance" maskUnits="userSpaceOnUse" x="0" y="0" width="32" height="24">
<rect width="32" height="24" fill="white"/>
</mask>
<g mask="url(#mask0_5190_108615)">
<path fill-rule="evenodd" clip-rule="evenodd" d="M0 0V24H32V0H0Z" fill="#FECA00"/>
<mask id="mask1_5190_108615" style="mask-type:luminance" maskUnits="userSpaceOnUse" x="0" y="0" width="32" height="24">
<path fill-rule="evenodd" clip-rule="evenodd" d="M0 0V24H32V0H0Z" fill="white"/>
</mask>
<g mask="url(#mask1_5190_108615)">
<path fill-rule="evenodd" clip-rule="evenodd" d="M0 0V8H32V0H0Z" fill="#5EAA22"/>
<path fill-rule="evenodd" clip-rule="evenodd" d="M0 16V24H32V16H0Z" fill="#E31D1C"/>
<path fill-rule="evenodd" clip-rule="evenodd" d="M16 18C19.3137 18 22 15.3137 22 12C22 8.68629 19.3137 6 16 6C12.6863 6 10 8.68629 10 12C10 15.3137 12.6863 18 16 18Z" fill="#2B77B8"/>
<path fill-rule="evenodd" clip-rule="evenodd" d="M15.9982 14L13.2362 14.9265L14.0961 12.618L12.2227 10.382H14.8227L15.9982 8L17.1738 10.382H19.8311L17.9003 12.618L18.5857 14.9265L15.9982 14Z" stroke="#FECA00" stroke-width="1.5"/>
<path d="M15.6979 12.0345L13.6133 16.3947" stroke="#2B77B8"/>
<path d="M15.3672 11.4795H11.3672" stroke="#2B77B8"/>
<path d="M16.1211 12.8376L20.0301 14.6418" stroke="#2B77B8"/>
<path d="M16.9648 11.8737L19.7944 8.77649" stroke="#2B77B8"/>
</g>
</g>
</svg>
