<svg width="32" height="24" viewBox="0 0 32 24" fill="none" xmlns="http://www.w3.org/2000/svg">
<mask id="mask0_5190_108542" style="mask-type:luminance" maskUnits="userSpaceOnUse" x="0" y="0" width="32" height="24">
<rect width="32" height="24" fill="white"/>
</mask>
<g mask="url(#mask0_5190_108542)">
<path fill-rule="evenodd" clip-rule="evenodd" d="M0 0V24H32V0H0Z" fill="#67BFE5"/>
<mask id="mask1_5190_108542" style="mask-type:luminance" maskUnits="userSpaceOnUse" x="0" y="0" width="32" height="24">
<path fill-rule="evenodd" clip-rule="evenodd" d="M0 0V24H32V0H0Z" fill="white"/>
</mask>
<g mask="url(#mask1_5190_108542)">
<path fill-rule="evenodd" clip-rule="evenodd" d="M20 10H29.6552V18.3333C29.6552 18.3333 28.8455 22 24.8276 22C20.8097 22 20 18.3333 20 18.3333V10Z" fill="#F7FCFF"/>
<mask id="mask2_5190_108542" style="mask-type:luminance" maskUnits="userSpaceOnUse" x="20" y="10" width="10" height="12">
<path fill-rule="evenodd" clip-rule="evenodd" d="M20 10H29.6552V18.3333C29.6552 18.3333 28.8455 22 24.8276 22C20.8097 22 20 18.3333 20 18.3333V10Z" fill="white"/>
</mask>
<g mask="url(#mask2_5190_108542)">
<rect x="20" y="10" width="9.65517" height="3" fill="#C3352C"/>
<rect x="24.1367" y="12.6666" width="1.37931" height="9.33333" fill="#C3352C"/>
<rect x="20" y="16.3334" width="9.65517" height="1.33333" fill="#C3352C"/>
<path fill-rule="evenodd" clip-rule="evenodd" d="M22.5424 20.7371C23.123 21.5578 23.5961 21.8781 23.9305 21.3945C24.1655 21.0546 24.1898 20.7147 23.855 20.6482C23.6607 20.4013 23.5236 20.2088 23.4453 20.0745L23.4566 20.064C23.5505 19.9726 23.554 19.8509 23.5355 19.8055C23.5285 19.7434 23.575 19.659 23.8767 19.4283C24.15 19.2194 24.2712 19.0227 24.0921 18.806C23.998 18.6921 23.9134 18.6693 23.6465 18.6281L23.5645 18.6154C23.4855 18.6027 23.4281 18.5901 23.3919 18.5792L23.2063 18.2236C22.8187 18.2118 22.5159 18.2801 22.1846 18.42C22.0418 18.4802 21.9456 18.5212 21.8815 18.5485C21.7838 18.5901 21.7602 18.6002 21.7595 18.5987C21.7592 18.5982 21.7613 18.5966 21.764 18.5944C21.7716 18.5883 21.7845 18.5782 21.7659 18.5782C21.696 18.5782 21.6203 18.5703 21.4104 18.5436L21.3692 18.5384C20.7657 18.4626 20.6145 18.465 20.5167 18.746C20.3679 19.1735 21.2489 19.9571 21.7166 20.0512C21.9509 20.0983 22.2313 20.3226 22.5424 20.7371ZM23.1987 20.1486C23.2554 20.1486 23.2992 20.1463 23.3378 20.1359L23.3494 20.1102C23.318 20.1316 23.2708 20.1486 23.1987 20.1486ZM20.996 18.9682C20.9837 18.9537 20.9803 18.935 20.9889 18.9103C20.9872 18.9154 20.9928 18.9264 21.0045 18.942C21.0161 18.9573 21.0336 18.9771 21.0557 19.0002C21.0289 18.9925 21.0081 18.9824 20.996 18.9682ZM21.8153 19.561C21.6476 19.5273 21.2213 19.1726 21.0557 19.0002C21.0991 19.0126 21.1583 19.0187 21.2219 19.0252C21.2497 19.028 21.2784 19.0309 21.3069 19.0345L21.3474 19.0397C21.5833 19.0696 21.6656 19.0782 21.7659 19.0782C21.8237 19.0782 21.8118 19.0981 21.8046 19.1102C21.8023 19.114 21.8005 19.1169 21.8014 19.1184C21.8048 19.1241 21.8503 19.1047 22.0782 19.008L22.0782 19.008L22.0783 19.008C22.1557 18.9751 22.2541 18.9333 22.3791 18.8806C22.5561 18.8058 22.7177 18.7574 22.8951 18.7356C22.9148 18.8194 22.9634 18.8951 23.0428 18.9567C23.1493 19.0393 23.2696 19.074 23.4764 19.1076C23.2193 19.3192 23.0902 19.4962 23.0495 19.6688C22.8182 19.742 22.8393 20.0026 22.978 20.2631C23.0748 20.4447 23.2576 20.7021 23.5296 21.0425L23.7249 21.1365C23.6672 21.1365 23.635 21.1101 23.6106 21.09C23.5797 21.0647 23.5612 21.0494 23.5192 21.1101C23.5164 21.1142 23.3345 20.991 22.9465 20.4426C22.5644 19.9336 22.1939 19.6372 21.8153 19.561ZM23.0347 19.8606C23.0382 19.8577 23.0378 19.8538 23.0374 19.8499L23.0374 19.8498L23.0347 19.8606ZM23.1945 19.6487L23.1795 19.6489L23.1865 19.6494C23.1893 19.649 23.1919 19.6488 23.1945 19.6487ZM23.1987 19.6486C23.1973 19.6486 23.1959 19.6486 23.1945 19.6487L23.1987 19.6486Z" fill="#979797"/>
<path d="M21.6529 16.1102C21.6529 16.1102 21.1758 15.4501 21.1758 15.2148" stroke="#964C36"/>
<path d="M21.3561 15.5429C21.3561 15.5429 20.7461 15.2823 20.7461 15.5429" stroke="#2A8E51"/>
<path d="M21.3479 15.2688C21.3479 15.2688 20.9189 14.723 20.5963 14.723C20.2737 14.723 20.2814 14.9959 20.2814 14.9959" stroke="#2A8E51"/>
<path d="M21.1016 14.722C21.1016 14.722 20.9101 13.8292 20.6035 13.8292C20.2969 13.8292 20.2969 14.2756 20.2969 14.2756" stroke="#2A8E51"/>
<path d="M21.1793 14.7202C21.1793 14.7202 21.0938 13.9551 21.4887 13.9551" stroke="#2A8E51"/>
<path d="M22.2593 15.9812C22.2593 15.9812 22.0367 15.1978 22.1172 14.9767" stroke="#964C36"/>
<path d="M22.1771 15.3467C22.1771 15.3467 21.693 14.8932 21.6039 15.138" stroke="#2A8E51"/>
<path d="M22.261 15.0858C22.261 15.0858 22.0445 14.4262 21.7414 14.3159C21.4382 14.2056 21.3521 14.4646 21.3521 14.4646" stroke="#2A8E51"/>
<path d="M22.2165 14.4882C22.2165 14.4882 22.3419 13.5838 22.0538 13.4789C21.7656 13.374 21.613 13.7935 21.613 13.7935" stroke="#2A8E51"/>
<path d="M22.2917 14.513C22.2917 14.513 22.4731 13.7648 22.8441 13.8998" stroke="#2A8E51"/>
<path d="M22.7522 16.2601C22.7522 16.2601 23.0686 15.5097 23.0156 15.2804" stroke="#964C36" stroke-width="0.7"/>
<path d="M22.9154 15.6406C22.9154 15.6406 23.4512 15.2495 23.5098 15.5034" stroke="#2A8E51" stroke-width="0.7"/>
<path d="M22.8608 15.3715C22.8608 15.3715 23.1561 14.7432 23.4704 14.6706C23.7847 14.598 23.8386 14.8657 23.8386 14.8657" stroke="#2A8E51" stroke-width="0.7"/>
<path d="M22.9792 14.7834C22.9792 14.7834 22.965 13.8705 23.2637 13.8015C23.5625 13.7325 23.6629 14.1675 23.6629 14.1675" stroke="#2A8E51" stroke-width="0.7"/>
<path d="M22.9034 14.7992C22.9034 14.7992 22.8145 14.0345 22.4298 14.1233" stroke="#2A8E51" stroke-width="0.7"/>
<path d="M26.6992 15.8018C26.6992 15.8018 26.9412 14.6884 27.6298 14.6884C28.3185 14.6884 28.6266 15.8648 28.6266 15.8648" stroke="#2A8E51" stroke-width="0.7"/>
<path d="M26.1289 15.0417C26.1289 15.0417 26.4998 14.384 27.7236 14.4378C28.9474 14.4916 29.1705 15.0417 29.1705 15.0417" stroke="#2A8E51" stroke-width="0.7"/>
<path d="M25.8828 14.2054C25.8828 14.2054 26.5551 13.3726 27.4973 14.0785L27.8165 14.2054C27.8165 14.2054 28.1365 13.2617 29.6828 14.2054" stroke="#2A8E51" stroke-width="0.7"/>
<path d="M27.7392 16.037C27.7392 16.037 27.7883 14.9977 27.9531 14.7123" stroke="#964C36"/>
<path d="M29.0987 18.3139C29.0987 18.3139 28.4806 18.0232 28.2956 18.3139C28.1107 18.6046 25.8828 21.2758 25.8828 21.2758" stroke="#964C36"/>
<path fill-rule="evenodd" clip-rule="evenodd" d="M26.9648 18.5952L28.3457 19.5604C28.3457 19.5604 28.9812 19.1071 28.6634 18.8511C28.3457 18.5952 27.4798 18.1439 27.4798 18.1439L26.9648 18.5952Z" fill="#FFF203"/>
<path fill-rule="evenodd" clip-rule="evenodd" d="M26.9183 18.6445C26.9183 18.6445 26.5984 18.9794 26.5984 19.2354C26.5984 19.4913 26.3008 20.1774 26.3008 20.1774C26.3008 20.1774 27.1332 20.6898 27.306 20.3634C27.4789 20.037 28.6015 20.2325 28.4035 19.7339C28.2055 19.2354 26.9183 18.6445 26.9183 18.6445Z" fill="#00A651"/>
<path fill-rule="evenodd" clip-rule="evenodd" d="M21.0565 11.1823C21.0565 11.1823 21.7938 10.804 22.1587 11.1823C22.5237 11.5607 22.8227 11.151 22.8227 10.9228C22.8227 10.6945 23.4022 9.91107 23.4022 10.5467C23.4022 11.1823 23.2218 11.5412 23.7312 11.5412C24.2406 11.5412 26.5343 10.6632 27.0844 10.9228C27.6344 11.1823 28.0553 11.1178 27.9155 10.7453C27.7757 10.3729 27.4163 10.1401 26.7244 10.3434C26.0324 10.5467 26.1957 10.7453 25.5977 10.7453C24.9996 10.7453 24.334 10.5467 24.334 10.5467C24.334 10.5467 24.521 10.2127 25.2038 10.4503C25.8865 10.6879 26.8283 10.1561 27.0844 10.1561C27.3405 10.1561 28.0454 10.1401 28.1153 10.3434C28.1851 10.5467 28.6108 10.7332 28.2863 10.9228C27.9619 11.1123 27.4269 11.231 27.795 11.4738C28.1631 11.7166 29.0096 11.6698 29.0503 11.9224C29.0911 12.175 29.4923 12.5521 29.3313 12.5521C29.1703 12.5521 28.8793 12.9078 28.6084 12.7995C28.3374 12.6912 28.3055 12.5961 28.5654 12.5084C28.8252 12.4206 28.8227 12.0517 28.6084 12.0517C28.3941 12.0517 28.4986 12.1809 28.0107 12.0517C27.5228 11.9224 26.8771 11.7787 26.9159 12.0517C26.9547 12.3246 27.2724 12.7437 26.6863 12.7995C26.1002 12.8554 25.8258 13.0796 25.7118 12.899C25.5977 12.7185 25.1899 12.4779 25.5106 12.4007C25.8312 12.3236 26.1376 12.663 26.2531 12.6075C26.3685 12.5521 26.6303 12.5213 26.4111 12.2865C26.1918 12.0517 25.8304 11.9134 26.1655 11.7377C26.5006 11.5619 26.2361 11.5583 25.5977 11.9224C24.9592 12.2865 24.6041 12.5959 24.0436 12.5521C23.4831 12.5084 23.2732 12.5674 23.093 12.5084C22.9129 12.4494 22.0355 13.1605 21.7828 12.98C21.5301 12.7995 20.7145 12.7303 20.8613 12.5084C21.0081 12.2865 21.2053 12.1722 21.4248 12.2865C21.6444 12.4007 21.8626 12.515 22.0107 12.4007C22.1587 12.2865 22.5863 11.8944 22.4788 11.8161C22.3712 11.7377 22.4753 11.4738 21.8663 11.4738C21.2573 11.4738 21.0432 11.7679 20.8986 11.5826C20.7541 11.3973 21.0565 11.1823 21.0565 11.1823Z" fill="#FFD100"/>
</g>
<rect width="18" height="14" fill="#2B409A"/>
<mask id="mask3_5190_108542" style="mask-type:luminance" maskUnits="userSpaceOnUse" x="0" y="0" width="18" height="14">
<rect width="18" height="14" fill="white"/>
</mask>
<g mask="url(#mask3_5190_108542)">
<path d="M-2.00391 12.9997L1.95704 14.7369L18.0902 1.88866L20.1796 -0.692871L15.9439 -1.27349L9.36354 4.2632L4.06704 7.99363L-2.00391 12.9997Z" fill="#F7FCFF"/>
<path d="M-1.46094 14.217L0.556984 15.2251L19.43 -0.932617H16.5966L-1.46094 14.217Z" fill="#F50100"/>
<path d="M20.0039 12.9997L16.043 14.7369L-0.0902405 1.88866L-2.17955 -0.692871L2.05612 -1.27349L8.63646 4.2632L13.933 7.99363L20.0039 12.9997Z" fill="#F7FCFF"/>
<path d="M19.8672 13.8733L17.8493 14.8815L9.81294 7.96351L7.43034 7.19059L-2.38215 -0.683947H0.451241L10.2582 7.00368L12.8632 7.9305L19.8672 13.8733Z" fill="#F50100"/>
<mask id="path-39-outside-1_5190_108542" maskUnits="userSpaceOnUse" x="-2" y="-2" width="22" height="18" fill="black">
<rect fill="white" x="-2" y="-2" width="22" height="18"/>
<path fill-rule="evenodd" clip-rule="evenodd" d="M9.98451 0H7.98451V6H0V8H7.98451V14H9.98451V8H18V6H9.98451V0Z"/>
</mask>
<path fill-rule="evenodd" clip-rule="evenodd" d="M9.98451 0H7.98451V6H0V8H7.98451V14H9.98451V8H18V6H9.98451V0Z" fill="#F50100"/>
<path d="M7.98451 0V-1.5H6.48451V0H7.98451ZM9.98451 0H11.4845V-1.5H9.98451V0ZM7.98451 6V7.5H9.48451V6H7.98451ZM0 6V4.5H-1.5V6H0ZM0 8H-1.5V9.5H0V8ZM7.98451 8H9.48451V6.5H7.98451V8ZM7.98451 14H6.48451V15.5H7.98451V14ZM9.98451 14V15.5H11.4845V14H9.98451ZM9.98451 8V6.5H8.48451V8H9.98451ZM18 8V9.5H19.5V8H18ZM18 6H19.5V4.5H18V6ZM9.98451 6H8.48451V7.5H9.98451V6ZM7.98451 1.5H9.98451V-1.5H7.98451V1.5ZM9.48451 6V0H6.48451V6H9.48451ZM0 7.5H7.98451V4.5H0V7.5ZM1.5 8V6H-1.5V8H1.5ZM7.98451 6.5H0V9.5H7.98451V6.5ZM9.48451 14V8H6.48451V14H9.48451ZM9.98451 12.5H7.98451V15.5H9.98451V12.5ZM8.48451 8V14H11.4845V8H8.48451ZM18 6.5H9.98451V9.5H18V6.5ZM16.5 6V8H19.5V6H16.5ZM9.98451 7.5H18V4.5H9.98451V7.5ZM8.48451 0V6H11.4845V0H8.48451Z" fill="#F7FCFF" mask="url(#path-39-outside-1_5190_108542)"/>
</g>
</g>
</g>
</svg>
