<svg width="32" height="24" viewBox="0 0 32 24" fill="none" xmlns="http://www.w3.org/2000/svg">
<mask id="mask0_5190_108508" style="mask-type:luminance" maskUnits="userSpaceOnUse" x="0" y="0" width="32" height="24">
<rect width="32" height="24" fill="white"/>
</mask>
<g mask="url(#mask0_5190_108508)">
<path fill-rule="evenodd" clip-rule="evenodd" d="M0 0V24H32V0H0Z" fill="#2E42A5"/>
<mask id="mask1_5190_108508" style="mask-type:luminance" maskUnits="userSpaceOnUse" x="0" y="0" width="32" height="24">
<path fill-rule="evenodd" clip-rule="evenodd" d="M0 0V24H32V0H0Z" fill="white"/>
</mask>
<g mask="url(#mask1_5190_108508)">
<path d="M25.9511 19.714C24.9223 19.714 24.2064 19.4712 23.6968 19.0478C23.185 18.6225 22.8494 17.9888 22.6348 17.1443C22.4199 16.2985 22.3319 15.2635 22.2991 14.0611C22.276 13.2161 22.2803 12.2991 22.2849 11.3158C22.2864 10.9791 22.288 10.6347 22.2886 10.2827H29.7045C29.8369 12.6901 29.8844 15.0362 29.4131 16.7958C29.1709 17.7 28.7974 18.4261 28.2487 18.9257C27.7052 19.4206 26.9671 19.714 25.9511 19.714Z" fill="#6DC2FF" stroke="#F7FCFF" stroke-width="0.5"/>
<mask id="mask2_5190_108508" style="mask-type:luminance" maskUnits="userSpaceOnUse" x="22" y="10" width="9" height="10">
<path d="M25.9511 19.714C24.9223 19.714 24.2064 19.4712 23.6968 19.0478C23.185 18.6225 22.8494 17.9888 22.6348 17.1443C22.4199 16.2985 22.3319 15.2635 22.2991 14.0611C22.276 13.2161 22.2803 12.2991 22.2849 11.3158C22.2864 10.9791 22.288 10.6347 22.2886 10.2827H29.7045C29.8369 12.6901 29.8844 15.0362 29.4131 16.7958C29.1709 17.7 28.7974 18.4261 28.2487 18.9257C27.7052 19.4206 26.9671 19.714 25.9511 19.714Z" fill="white" stroke="white" stroke-width="0.5"/>
</mask>
<g mask="url(#mask2_5190_108508)">
<path fill-rule="evenodd" clip-rule="evenodd" d="M24.5253 13.587C24.5253 13.587 24.1307 13.2951 23.9614 12.8221C23.7922 12.3492 23.4573 11.0903 23.4573 10.981C23.4573 10.8717 23.0117 10.981 23.0117 10.981C23.0117 10.981 23.0179 10.4486 23.1861 10.4486C23.3543 10.4486 23.3605 9.95497 23.7685 10.0793C24.1765 10.2036 24.4974 10.6595 24.9131 10.6595C25.3289 10.6595 27.0669 10.792 27.3462 10.792C27.6256 10.792 28.362 11.3817 28.362 11.8231C28.362 12.2645 28.1612 12.9221 28.0032 12.9221C27.8453 12.9221 27.6465 13.3047 27.3462 13.1784C27.0459 13.0521 26.329 12.792 25.6869 12.9221C25.0447 13.0521 24.9131 12.9704 24.9131 13.1784C24.9131 13.3864 24.5253 13.587 24.5253 13.587Z" fill="#E1E5E8"/>
<path fill-rule="evenodd" clip-rule="evenodd" d="M23.6016 13.2787H28.7571L27.8692 14.4262H24.2264L23.6016 13.2787Z" fill="#49801E"/>
<path d="M23.5352 18.2955C23.5352 18.2955 24.4262 18.6142 24.7986 18.5755C25.211 18.5326 25.5761 18.0625 25.8517 18.0625C26.1268 18.0625 26.6565 18.5328 27.0679 18.5755C27.4408 18.6142 28.1682 18.2955 28.1682 18.2955" stroke="white" stroke-width="1.06667"/>
<path d="M22.5586 16.9362C22.8667 16.6753 23.5371 16.6563 23.5371 16.6563C23.5371 16.6563 24.4281 16.975 24.8005 16.9362C25.2129 16.8933 25.578 16.4232 25.8537 16.4232C26.1288 16.4232 26.6585 16.8935 27.0699 16.9362C27.4428 16.975 28.1702 16.6563 28.1702 16.6563C28.1702 16.6563 28.5767 16.1992 29.0871 16.6818" stroke="white" stroke-width="1.06667"/>
<path d="M22.4634 15.5297L21.7891 14.7032C22.0535 14.4875 22.4975 14.2748 23.1456 14.0398L23.4601 14.0246C24.1321 14.1973 24.5813 14.2722 24.7458 14.2557C24.8001 14.2502 24.8908 14.2061 25.0565 14.0962C25.527 13.7841 25.5727 13.7587 25.8521 13.7587C26.1074 13.7587 26.1601 13.7832 26.6938 14.0714C26.7929 14.1245 26.8301 14.1438 26.8837 14.1696C26.9964 14.2236 27.0771 14.2512 27.1214 14.2557C27.2497 14.2685 27.5076 14.2087 27.8687 14.0634C28.3383 13.6366 28.9331 13.6808 29.4448 14.1469C29.7861 14.4579 30.0601 14.7091 30.2669 14.9008L29.5419 15.6832C29.3376 15.4939 29.0657 15.2446 28.7264 14.9354C28.5915 14.8125 28.6205 14.8133 28.5605 14.8783L28.3761 15.0079C27.8158 15.2444 27.3735 15.3529 27.0152 15.317C26.8228 15.2978 26.6368 15.2342 26.4221 15.1312C26.3502 15.0966 26.2989 15.07 26.1869 15.0099C25.9294 14.8708 25.8315 14.8253 25.8521 14.8253C25.897 14.8253 25.8347 14.86 25.6461 14.9851C25.3426 15.1864 25.1315 15.289 24.8522 15.317C24.5433 15.348 24.0617 15.2735 23.3573 15.0988C22.8997 15.2719 22.5957 15.4217 22.4634 15.5297Z" fill="white"/>
</g>
<path d="M22.964 18.3937C22.964 18.3937 23.9479 19.3361 23.3538 19.9747C22.7596 20.6133 22.2148 20.2424 22.2148 20.2424" stroke="#B85F3C"/>
<path d="M29.0517 18.3937C29.0517 18.3937 28.0677 19.3361 28.6618 19.9747C29.256 20.6133 29.8008 20.2424 29.8008 20.2424" stroke="#B85F3C"/>
<path d="M22.3203 19.1531C22.3203 19.1531 24.0155 20.773 26.0995 20.773C28.1834 20.773 29.8604 19.5354 29.8604 19.5354" stroke="#CB8B73"/>
<rect width="18" height="14" fill="#2B409A"/>
<mask id="mask3_5190_108508" style="mask-type:luminance" maskUnits="userSpaceOnUse" x="0" y="0" width="18" height="14">
<rect width="18" height="14" fill="white"/>
</mask>
<g mask="url(#mask3_5190_108508)">
<path d="M-2.00391 12.9997L1.95704 14.7369L18.0902 1.88866L20.1796 -0.692871L15.9439 -1.27349L9.36354 4.2632L4.06704 7.99363L-2.00391 12.9997Z" fill="#F7FCFF"/>
<path d="M-1.46094 14.217L0.556984 15.2251L19.43 -0.932617H16.5966L-1.46094 14.217Z" fill="#F50100"/>
<path d="M20.0039 12.9997L16.043 14.7369L-0.0902405 1.88866L-2.17955 -0.692871L2.05612 -1.27349L8.63646 4.2632L13.933 7.99363L20.0039 12.9997Z" fill="#F7FCFF"/>
<path d="M19.8672 13.8733L17.8493 14.8815L9.81294 7.96351L7.43034 7.19059L-2.38215 -0.683947H0.451241L10.2582 7.00368L12.8632 7.9305L19.8672 13.8733Z" fill="#F50100"/>
<mask id="path-20-outside-1_5190_108508" maskUnits="userSpaceOnUse" x="-2" y="-2" width="22" height="18" fill="black">
<rect fill="white" x="-2" y="-2" width="22" height="18"/>
<path fill-rule="evenodd" clip-rule="evenodd" d="M9.98451 0H7.98451V6H0V8H7.98451V14H9.98451V8H18V6H9.98451V0Z"/>
</mask>
<path fill-rule="evenodd" clip-rule="evenodd" d="M9.98451 0H7.98451V6H0V8H7.98451V14H9.98451V8H18V6H9.98451V0Z" fill="#F50100"/>
<path d="M7.98451 0V-1.5H6.48451V0H7.98451ZM9.98451 0H11.4845V-1.5H9.98451V0ZM7.98451 6V7.5H9.48451V6H7.98451ZM0 6V4.5H-1.5V6H0ZM0 8H-1.5V9.5H0V8ZM7.98451 8H9.48451V6.5H7.98451V8ZM7.98451 14H6.48451V15.5H7.98451V14ZM9.98451 14V15.5H11.4845V14H9.98451ZM9.98451 8V6.5H8.48451V8H9.98451ZM18 8V9.5H19.5V8H18ZM18 6H19.5V4.5H18V6ZM9.98451 6H8.48451V7.5H9.98451V6ZM7.98451 1.5H9.98451V-1.5H7.98451V1.5ZM9.48451 6V0H6.48451V6H9.48451ZM0 7.5H7.98451V4.5H0V7.5ZM1.5 8V6H-1.5V8H1.5ZM7.98451 6.5H0V9.5H7.98451V6.5ZM9.48451 14V8H6.48451V14H9.48451ZM9.98451 12.5H7.98451V15.5H9.98451V12.5ZM8.48451 8V14H11.4845V8H8.48451ZM18 6.5H9.98451V9.5H18V6.5ZM16.5 6V8H19.5V6H16.5ZM9.98451 7.5H18V4.5H9.98451V7.5ZM8.48451 0V6H11.4845V0H8.48451Z" fill="#F7FCFF" mask="url(#path-20-outside-1_5190_108508)"/>
</g>
</g>
</g>
</svg>
