<svg width="32" height="24" viewBox="0 0 32 24" fill="none" xmlns="http://www.w3.org/2000/svg">
<mask id="mask0_5190_108375" style="mask-type:luminance" maskUnits="userSpaceOnUse" x="0" y="0" width="32" height="24">
<rect width="32" height="24" fill="white"/>
</mask>
<g mask="url(#mask0_5190_108375)">
<path fill-rule="evenodd" clip-rule="evenodd" d="M0 0H32V24H0V0Z" fill="#C51918"/>
<path fill-rule="evenodd" clip-rule="evenodd" d="M6 6H26V18H6V6Z" fill="#FECA00"/>
<mask id="mask1_5190_108375" style="mask-type:luminance" maskUnits="userSpaceOnUse" x="6" y="6" width="20" height="12">
<path fill-rule="evenodd" clip-rule="evenodd" d="M6 6H26V18H6V6Z" fill="white"/>
</mask>
<g mask="url(#mask1_5190_108375)">
<path fill-rule="evenodd" clip-rule="evenodd" d="M6 6L16 12L6 18V6Z" fill="#23875F"/>
<path fill-rule="evenodd" clip-rule="evenodd" d="M26 6L16 12L26 18V6Z" fill="#23875F"/>
<mask id="mask2_5190_108375" style="mask-type:luminance" maskUnits="userSpaceOnUse" x="16" y="6" width="10" height="12">
<path fill-rule="evenodd" clip-rule="evenodd" d="M26 6L16 12L26 18V6Z" fill="white"/>
</mask>
<g mask="url(#mask2_5190_108375)">
</g>
<path fill-rule="evenodd" clip-rule="evenodd" d="M16 16C18.2091 16 20 14.2091 20 12C20 9.79086 18.2091 8 16 8C13.7909 8 12 9.79086 12 12C12 14.2091 13.7909 16 16 16Z" fill="#C51918"/>
<path fill-rule="evenodd" clip-rule="evenodd" d="M15.9295 13.3132L13.8585 14.7497L14.5203 12.2894L13 10.7178L15.0585 10.6328L15.9295 8.19995L16.8004 10.6328H18.8554L17.3386 12.2894L18.0983 14.6044L15.9295 13.3132Z" fill="#FECA00"/>
</g>
<path fill-rule="evenodd" clip-rule="evenodd" d="M8.77484 4.44207L9.9066 3.74027L11.0919 4.37112L10.6767 3.24005L11.5056 2.43068H10.3826L9.9066 1.24207L9.43064 2.43068L8.30564 2.4722L9.13648 3.24005L8.77484 4.44207ZM14.7748 4.44207L15.9066 3.74027L17.0919 4.37112L16.6767 3.24005L17.5056 2.43068H16.3826L15.9066 1.24207L15.4306 2.43068L14.3056 2.4722L15.1365 3.24005L14.7748 4.44207ZM21.9066 3.74027L20.7748 4.44207L21.1365 3.24005L20.3056 2.4722L21.4306 2.43068L21.9066 1.24207L22.3826 2.43068H23.5056L22.6767 3.24005L23.0919 4.37112L21.9066 3.74027ZM8.77388 22.1672L9.90564 21.4654L11.0909 22.0962L10.6758 20.9652L11.5047 20.1558H10.3816L9.90564 18.9672L9.42968 20.1558L8.30469 20.1973L9.13552 20.9652L8.77388 22.1672ZM15.9056 21.4654L14.7739 22.1672L15.1355 20.9652L14.3047 20.1973L15.4297 20.1558L15.9056 18.9672L16.3816 20.1558H17.5047L16.6758 20.9652L17.0909 22.0962L15.9056 21.4654ZM20.7739 22.1672L21.9056 21.4654L23.0909 22.0962L22.6758 20.9652L23.5047 20.1558H22.3816L21.9056 18.9672L21.4297 20.1558L20.3047 20.1973L21.1355 20.9652L20.7739 22.1672Z" fill="#FECA00"/>
<path fill-rule="evenodd" clip-rule="evenodd" d="M8.63291 12.772C8.63291 12.772 9.17147 13.2514 9.46479 13.4147C9.56593 13.0314 9.34027 12.1629 9.34027 12.1629C9.27695 11.9553 8.58246 11.5831 8.58246 11.5831C8.58246 11.5831 8.38739 12.2385 8.63291 12.772Z" fill="#C51918"/>
<path fill-rule="evenodd" clip-rule="evenodd" d="M9.19384 13.9302C9.19384 13.9302 7.81061 13.2841 7.67004 12.3703C7.52948 11.4565 7.82758 9.99976 7.82758 9.99976C7.82758 9.99976 10.0738 10.5109 10.2266 11.6061C10.3794 12.7013 9.87209 13.3894 9.87209 13.3894C9.87209 13.3894 9.35254 12.0543 8.86226 11.9062C8.86226 11.9062 8.86226 13.2293 9.19384 13.9302Z" fill="#FECA00"/>
</g>
</svg>
