<svg width="32" height="24" viewBox="0 0 32 24" fill="none" xmlns="http://www.w3.org/2000/svg">
<mask id="mask0_5190_108290" style="mask-type:luminance" maskUnits="userSpaceOnUse" x="0" y="0" width="32" height="24">
<rect width="32" height="24" fill="white"/>
</mask>
<g mask="url(#mask0_5190_108290)">
<rect width="32" height="24" fill="#F7FCFF"/>
<path fill-rule="evenodd" clip-rule="evenodd" d="M0 16H32V24H0V16Z" fill="#C51918"/>
<path fill-rule="evenodd" clip-rule="evenodd" d="M17.3889 5H13.6111V9.61538H12.6667V6.84615H8.88889V9.61538H7V10.5385H7.94444V15.1538H7V16.0769H24V15.1538H23.0556V10.5385H24V9.61538H22.1111V6.84615H18.3333V9.61538H17.3889V5Z" fill="#DB000B"/>
<path d="M9.83203 8.58934C9.83203 8.13637 10.1992 7.76917 10.6522 7.76917C11.1052 7.76917 11.4724 8.13637 11.4724 8.58934V9.79993H9.83203V8.58934Z" fill="#272727"/>
<path d="M19.2773 8.58934C19.2773 8.13637 19.6445 7.76917 20.0975 7.76917C20.5505 7.76917 20.9177 8.13637 20.9177 8.58934V9.79993H19.2773V8.58934Z" fill="#272727"/>
<path fill-rule="evenodd" clip-rule="evenodd" d="M9.56641 13.4706C9.56641 12.8708 10.0527 12.3845 10.6525 12.3845C11.2524 12.3845 11.7386 12.8708 11.7386 13.4706V15.3384H9.56641V13.4706Z" fill="#272727"/>
<path d="M19.0117 13.4706C19.0117 12.8708 19.498 12.3845 20.0978 12.3845C20.6977 12.3845 21.1839 12.8708 21.1839 13.4706V15.3384H19.0117V13.4706Z" fill="#272727"/>
<path fill-rule="evenodd" clip-rule="evenodd" d="M13.8945 13.6395C13.8945 12.8708 14.5177 12.2477 15.2863 12.2477C16.055 12.2477 16.6782 12.8708 16.6782 13.6395V16.3092H13.8945V13.6395Z" fill="#272727"/>
<path d="M14.5547 7.66624C14.5547 7.21327 14.9219 6.84607 15.3749 6.84607C15.8278 6.84607 16.195 7.21327 16.195 7.66624V9.79992H14.5547V7.66624Z" fill="#272727"/>
<rect x="7" y="8.69226" width="0.944444" height="0.923077" fill="#DE1A23"/>
<path fill-rule="evenodd" clip-rule="evenodd" d="M8.5 6H9.5V7H8.5V6ZM12.3181 6H13.3181V7H12.3181V6ZM11.75 6H10.25V7H11.75V6Z" fill="#DE1A23"/>
<path fill-rule="evenodd" clip-rule="evenodd" d="M18.0898 6H19.0898V7H18.0898V6ZM21.8174 6H22.8174V7H21.8174V6ZM21.2034 6H19.7034V7H21.2034V6Z" fill="#DE1A23"/>
<path fill-rule="evenodd" clip-rule="evenodd" d="M13.8008 4.02271H12.8008V5.02271H13.8008V4.02271ZM15.3008 4.02271H14.3008V5.02271H15.3008V4.02271ZM15.8008 4.02271H16.8008V5.02271H15.8008V4.02271ZM18.3008 4.02271H17.3008V5.02271H18.3008V4.02271Z" fill="#DE1A23"/>
<rect x="23" y="8.77466" width="1" height="0.838696" fill="#DE1A23"/>
<path fill-rule="evenodd" clip-rule="evenodd" d="M15.4392 18.4532L18.1519 16.6793L15.2576 15.3258L12.3633 16.9894L15.4392 18.4532ZM14.3799 16.8417L15.2674 16.2469L16.205 16.7576L15.3618 17.3089L14.3799 16.8417Z" fill="#E8AA00"/>
<path fill-rule="evenodd" clip-rule="evenodd" d="M13.4766 21.0066H14.9502V22.1136V21.7399H14.0344V22.1136H13.4766V21.0066Z" fill="#E8AA00"/>
<path fill-rule="evenodd" clip-rule="evenodd" d="M14.8164 18.1136H16.0672V22.1136H14.8164V18.1136Z" fill="#E8AA00"/>
</g>
</svg>
