<svg width="32" height="24" viewBox="0 0 32 24" fill="none" xmlns="http://www.w3.org/2000/svg">
<path d="M0 0V7H32V0L0 0Z" fill="#002488"/>
<path d="M0 7V24H32V7L0 7Z" fill="#DA121A"/>
<path d="M5.02652 0.789522C4.64434 1.41978 4.59874 1.92393 4.85958 2.79447C4.98517 3.20072 5.12313 3.80738 5.1811 4.13625C5.25839 4.60054 5.25029 4.64468 5.26115 4.74563C5.35775 4.74563 5.5773 4.746 5.67882 4.74539C5.69342 4.58465 5.70522 4.39911 5.73949 4.14398C5.77945 3.84651 5.89797 3.22436 6.02544 2.79223C6.28018 1.9287 6.26312 1.3989 5.86702 0.799195C5.72211 0.576724 5.52889 0.392944 5.44194 0.392944C5.35499 0.392944 5.1583 0.5628 5.02652 0.789522Z" fill="#FCDD09"/>
<path d="M5.86198 4.33313C5.82915 4.49943 5.82115 4.55813 5.80469 4.74557C5.92179 4.74604 5.96781 4.74684 6.08196 4.74616C6.10695 4.62007 6.12495 4.5535 6.18002 4.37453C6.39834 3.68235 7.04138 3.40456 7.01239 4.05262C7.00273 4.23157 6.9273 4.33148 6.84334 4.42741C6.94713 4.4015 7.16755 4.29851 7.34628 4.19694C8.34135 3.59724 7.9495 2.12777 6.90612 2.57271C6.36511 2.80486 6.03972 3.4475 5.86198 4.33313Z" fill="#FCDD09"/>
<path d="M4.69531 4.9896C5.13194 4.99184 5.88655 4.99585 6.24899 4.99361C6.24942 4.88611 6.25077 4.94097 6.25166 4.8541C5.98483 4.85153 4.96306 4.85577 4.69738 4.85577C4.69799 4.91197 4.69677 4.93919 4.69531 4.9896L4.69531 4.9896Z" fill="#FCDD09"/>
<path d="M4.41797 5.78025C4.41797 5.78025 4.63547 5.80473 4.8383 5.78992C5.04114 5.77511 5.15369 5.74976 5.27356 5.69146C5.24101 5.93346 5.23914 6.16715 5.23914 6.16715C5.26865 6.47858 5.30203 6.55829 5.36948 6.70986C5.461 6.8363 5.51422 6.83699 5.5815 6.70348C5.65422 6.55399 5.70208 6.40024 5.71727 6.1657C5.71199 5.98991 5.70217 5.90936 5.66059 5.69448C5.80094 5.75528 5.88958 5.77104 6.09896 5.78992C6.31322 5.80923 6.51016 5.79976 6.51016 5.79976C6.51016 5.79976 6.22074 5.65434 6.09335 5.47599C5.96761 5.29994 5.99443 5.32987 5.90299 5.10307C5.79189 5.0978 5.2286 5.10299 5.04987 5.10299C4.95198 5.30975 4.94214 5.35293 4.82123 5.48341C4.66384 5.65326 4.41797 5.78025 4.41797 5.78025Z" fill="#FCDD09"/>
<path d="M4.02731 2.57247C4.56832 2.80461 4.89371 3.44726 5.07146 4.33289C5.10428 4.49919 5.11229 4.55789 5.12875 4.74532C5.01164 4.7458 4.96562 4.7466 4.85147 4.74591C4.82648 4.61982 4.80849 4.55326 4.75342 4.37429C4.53509 3.68211 3.89206 3.40431 3.92104 4.05238C3.9307 4.23132 4.00613 4.33124 4.09009 4.42717C3.9863 4.40126 3.76588 4.29826 3.58715 4.1967C2.59208 3.597 2.98393 2.12753 4.02731 2.57247V2.57247Z" fill="#FCDD09"/>
<path d="M15.0265 0.789522C14.6443 1.41978 14.5987 1.92393 14.8596 2.79447C14.9852 3.20072 15.1231 3.80738 15.1811 4.13625C15.2584 4.60054 15.2503 4.64468 15.2611 4.74563C15.3578 4.74563 15.5773 4.746 15.6788 4.74539C15.6934 4.58465 15.7052 4.39911 15.7395 4.14398C15.7795 3.84651 15.898 3.22436 16.0254 2.79223C16.2802 1.9287 16.2631 1.3989 15.867 0.799195C15.7221 0.576724 15.5289 0.392944 15.4419 0.392944C15.355 0.392944 15.1583 0.5628 15.0265 0.789522Z" fill="#FCDD09"/>
<path d="M16.9061 2.57271C16.3651 2.80486 16.0397 3.4475 15.862 4.33313C15.8292 4.49943 15.8211 4.55813 15.8047 4.74557C15.9218 4.74604 15.9678 4.74684 16.082 4.74616C16.107 4.62007 16.1249 4.5535 16.18 4.37453C16.3983 3.68235 17.0414 3.40456 17.0124 4.05262C17.0027 4.23157 16.9273 4.33148 16.8433 4.42741C16.9471 4.4015 17.1676 4.29851 17.3463 4.19694C18.3414 3.59724 17.9495 2.12777 16.9061 2.57271V2.57271Z" fill="#FCDD09"/>
<path d="M14.6953 4.9896C15.1319 4.99184 15.8866 4.99585 16.249 4.99361C16.2494 4.88611 16.2508 4.94097 16.2517 4.8541C15.9848 4.85153 14.9631 4.85577 14.6974 4.85577C14.698 4.91197 14.6968 4.93919 14.6953 4.9896L14.6953 4.9896Z" fill="#FCDD09"/>
<path d="M14.8212 5.48341C14.6638 5.65326 14.418 5.78025 14.418 5.78025C14.418 5.78025 14.6355 5.80473 14.8383 5.78992C15.0411 5.77511 15.1537 5.74976 15.2736 5.69146C15.241 5.93346 15.2391 6.16715 15.2391 6.16715C15.2686 6.47858 15.302 6.55829 15.3695 6.70986C15.461 6.8363 15.5142 6.83699 15.5815 6.70348C15.6542 6.55399 15.7021 6.40024 15.7173 6.1657C15.712 5.98991 15.7022 5.90936 15.6606 5.69448C15.8009 5.75528 15.8896 5.77104 16.099 5.78992C16.3132 5.80923 16.5102 5.79976 16.5102 5.79976C16.5102 5.79976 16.2207 5.65434 16.0934 5.47599C15.9676 5.29994 15.9944 5.32987 15.903 5.10307C15.7919 5.0978 15.2286 5.10299 15.0499 5.10299C14.952 5.30975 14.9421 5.35293 14.8212 5.48341V5.48341Z" fill="#FCDD09"/>
<path d="M14.0273 2.57247C14.5683 2.80461 14.8937 3.44726 15.0715 4.33289C15.1043 4.49919 15.1123 4.55789 15.1287 4.74532C15.0116 4.7458 14.9656 4.7466 14.8515 4.74591C14.8265 4.61982 14.8085 4.55326 14.7534 4.37429C14.5351 3.68211 13.8921 3.40431 13.921 4.05238C13.9307 4.23132 14.0061 4.33124 14.0901 4.42717C13.9863 4.40126 13.7659 4.29826 13.5872 4.1967C12.5921 3.597 12.9839 2.12753 14.0273 2.57247V2.57247Z" fill="#FCDD09"/>
<path d="M25.0265 0.789522C24.6443 1.41978 24.5987 1.92393 24.8596 2.79447C24.9852 3.20072 25.1231 3.80738 25.1811 4.13625C25.2584 4.60054 25.2503 4.64468 25.2611 4.74563C25.3578 4.74563 25.5773 4.746 25.6788 4.74539C25.6934 4.58465 25.7052 4.39911 25.7395 4.14398C25.7795 3.84651 25.898 3.22436 26.0254 2.79223C26.2802 1.9287 26.2631 1.3989 25.867 0.799195C25.7221 0.576724 25.5289 0.392944 25.4419 0.392944C25.355 0.392944 25.1583 0.5628 25.0265 0.789522Z" fill="#FCDD09"/>
<path d="M26.9061 2.57271C26.3651 2.80486 26.0397 3.4475 25.862 4.33313C25.8292 4.49943 25.8211 4.55813 25.8047 4.74557C25.9218 4.74604 25.9678 4.74684 26.082 4.74616C26.107 4.62007 26.1249 4.5535 26.18 4.37453C26.3983 3.68235 27.0414 3.40456 27.0124 4.05262C27.0027 4.23157 26.9273 4.33148 26.8433 4.42741C26.9471 4.4015 27.1676 4.29851 27.3463 4.19694C28.3414 3.59724 27.9495 2.12777 26.9061 2.57271V2.57271Z" fill="#FCDD09"/>
<path d="M24.6953 4.9896C25.1319 4.99184 25.8866 4.99585 26.249 4.99361C26.2494 4.88611 26.2508 4.94097 26.2517 4.8541C25.9848 4.85153 24.9631 4.85577 24.6974 4.85577C24.698 4.91197 24.6968 4.93919 24.6953 4.9896L24.6953 4.9896Z" fill="#FCDD09"/>
<path d="M24.8212 5.48341C24.6638 5.65326 24.418 5.78025 24.418 5.78025C24.418 5.78025 24.6355 5.80473 24.8383 5.78992C25.0411 5.77511 25.1537 5.74976 25.2736 5.69146C25.241 5.93346 25.2391 6.16715 25.2391 6.16715C25.2686 6.47858 25.302 6.55829 25.3695 6.70986C25.461 6.8363 25.5142 6.83699 25.5815 6.70348C25.6542 6.55399 25.7021 6.40024 25.7173 6.1657C25.712 5.98991 25.7022 5.90936 25.6606 5.69448C25.8009 5.75528 25.8896 5.77104 26.099 5.78992C26.3132 5.80923 26.5102 5.79976 26.5102 5.79976C26.5102 5.79976 26.2207 5.65434 26.0934 5.47599C25.9676 5.29994 25.9944 5.32987 25.903 5.10307C25.7919 5.0978 25.2286 5.10299 25.0499 5.10299C24.952 5.30975 24.9421 5.35293 24.8212 5.48341V5.48341Z" fill="#FCDD09"/>
<path d="M24.0273 2.57247C24.5683 2.80461 24.8937 3.44726 25.0715 4.33289C25.1043 4.49919 25.1123 4.55789 25.1287 4.74532C25.0116 4.7458 24.9656 4.7466 24.8515 4.74591C24.8265 4.61982 24.8085 4.55326 24.7534 4.37429C24.5351 3.68211 23.8921 3.40431 23.921 4.05238C23.9307 4.23132 24.0061 4.33124 24.0901 4.42717C23.9863 4.40126 23.7659 4.29826 23.5872 4.1967C22.5921 3.597 22.9839 2.12753 24.0273 2.57247V2.57247Z" fill="#FCDD09"/>
<path d="M11.2993 13.1284C11.5091 13.2263 11.7769 13.3035 11.912 13.308C12.0716 13.3134 12.0292 13.2741 11.7313 13.1581C11.4981 13.067 11.2192 12.9138 11.0954 12.8187C10.8734 12.6372 10.8734 12.6372 10.8967 12.7969C10.91 12.8882 11.0773 13.0301 11.2993 13.1284Z" fill="#008000"/>
<path d="M9.99626 11.2412C10.1315 11.7829 10.6918 12.7792 10.8851 12.8179C11.059 12.8469 11.059 12.8372 10.914 12.6728C10.6725 12.3923 10.1508 11.367 10.1508 11.1735C10.1508 11.0671 10.1025 10.9897 10.0446 10.9897C9.97694 10.9897 9.95761 11.0865 9.99626 11.2412Z" fill="#008000"/>
<path d="M4.18755 10.562C4.18419 10.5811 4.36553 10.7211 4.59277 10.8791C4.82001 11.0371 5.08475 11.2606 5.17263 11.3743C5.3232 11.5777 6.17616 12.0819 6.25618 12.0174C6.33452 11.9625 5.23582 11.0712 4.77129 10.8124C4.21832 10.4987 4.19929 10.4953 4.18755 10.562Z" fill="#008000"/>
<path d="M4.5 11.3061C4.5 11.3255 4.70288 11.4319 4.95406 11.548C5.20525 11.664 5.50473 11.8381 5.611 11.9349C5.79456 12.109 6.72201 12.4572 6.78963 12.3798C6.85726 12.3121 5.62066 11.6253 5.1183 11.4512C4.51932 11.2384 4.5 11.2384 4.5 11.3061Z" fill="#008000"/>
<path d="M9.28125 11.3835C9.28125 11.4899 9.65803 12.2251 9.88022 12.5346C10.0058 12.7087 10.1507 12.8054 10.315 12.8054C10.5565 12.8054 10.5565 12.8054 10.1894 12.3895C9.97683 12.167 9.69667 11.8285 9.55176 11.6447C9.40684 11.4609 9.28125 11.3448 9.28125 11.3835H9.28125Z" fill="#008000"/>
<path d="M7.726 14.3614C7.08838 14.6128 6.95312 14.6999 6.95312 14.8353C6.95312 14.8934 7.02075 14.8837 7.12702 14.7966C7.21397 14.7096 7.53278 14.5935 7.82261 14.5258C8.11243 14.4581 8.46022 14.342 8.59548 14.2743L8.837 14.1486H8.54717C8.3926 14.1582 8.01582 14.255 7.726 14.3614Z" fill="#008000"/>
<path d="M6.46188 12.8455C6.29765 12.9712 6.30731 12.9809 6.66476 12.9228C6.8773 12.8938 7.18645 12.8358 7.34102 12.7971C7.5922 12.7294 7.57288 12.7197 7.13814 12.71C6.84832 12.7004 6.57781 12.7584 6.46188 12.8455Z" fill="#008000"/>
<path d="M4.06351 11.8284C5.65755 12.1186 8.85531 13.1923 8.66209 13.3761C8.61379 13.4244 7.71532 13.202 7.58973 13.1149C7.54143 13.0665 7.06804 13.0859 6.54636 13.1536C5.5706 13.26 5.40637 13.347 5.42569 13.7436C5.43535 13.9371 5.43535 13.9371 5.48366 13.7436C5.5706 13.3857 5.71552 13.3084 6.26619 13.3084C6.86516 13.3084 8.50752 13.5502 9.23208 13.7436C10.1982 14.0145 10.2272 14.0145 9.90835 13.8403C9.49293 13.6082 8.86497 13.1826 8.74904 13.0569C8.5365 12.815 4.6818 11.7511 4.12147 11.7704C3.86063 11.7897 3.85097 11.7897 4.06351 11.8284Z" fill="#008000"/>
<path d="M4.79446 12.3439C4.67852 12.4309 4.55293 12.6341 4.52395 12.7985C4.46598 13.079 4.46598 13.079 4.62056 12.8952C5.02632 12.3826 5.0553 12.3632 5.55767 12.3535C5.96342 12.3439 6.02139 12.3245 5.82817 12.2665C5.42241 12.1408 5.01666 12.1698 4.79446 12.3439Z" fill="#008000"/>
<path d="M9.71907 12.9408C9.79636 13.0763 10.5499 13.4535 10.6079 13.3955C10.6369 13.3664 10.5499 13.2891 10.434 13.2214C10.3084 13.1536 10.1441 13.0472 10.0765 12.9699C9.92195 12.8248 9.63212 12.7958 9.71907 12.9408Z" fill="#008000"/>
<path d="M9.77766 13.8598C9.85495 13.9952 10.6085 14.3724 10.6665 14.3144C10.6954 14.2854 10.6085 14.208 10.4926 14.1403C10.367 14.0726 10.2027 13.9662 10.1351 13.8888C9.98054 13.7437 9.69072 13.7147 9.77766 13.8598Z" fill="#008000"/>
<path d="M8.69756 12.7082C8.71146 12.6947 8.92883 12.7669 9.18671 12.8672C9.4446 12.9675 9.77772 13.0622 9.92104 13.0716C10.1736 13.0828 11.0681 13.5089 11.0595 13.6113C11.0578 13.7071 9.70537 13.2935 9.23131 13.0527C8.66233 12.7691 8.64891 12.7552 8.69756 12.7082Z" fill="#008000"/>
<path d="M10.2993 13.415C10.1191 13.4847 9.93784 13.6108 9.88153 13.7011C9.81498 13.8077 9.8713 13.8087 10.1037 13.6918C10.286 13.6006 10.5492 13.5257 10.6936 13.5134C10.9639 13.5 10.9639 13.5 10.7919 13.3924C10.6936 13.3309 10.4847 13.337 10.2993 13.415Z" fill="#008000"/>
<path d="M5.77898 10.1551C6.07847 10.7258 7.29574 12.0413 7.972 12.5443C8.15556 12.6797 8.48403 12.8151 8.68691 12.8441L9.06369 12.9022L8.78352 12.5926C8.32946 12.0993 7.63387 11.1514 7.41167 10.7355C7.17015 10.2809 7.14117 10.3969 7.34405 10.9773C7.42133 11.2094 7.73048 11.6737 8.02997 12.0026C8.32946 12.3411 8.52268 12.6217 8.47437 12.6217C8.34878 12.6217 7.53726 11.6641 6.95761 10.8322C6.32965 9.92299 6.30067 9.89397 6.47457 10.3969C6.56151 10.6388 6.75473 10.9966 6.91897 11.1901C7.07354 11.3932 7.17015 11.5577 7.12185 11.5577C7.02524 11.5577 6.60016 11.074 6.06881 10.3776C5.9239 10.1745 5.72102 9.91332 5.63407 9.79724C5.53746 9.6715 5.60509 9.83593 5.77898 10.1551Z" fill="#008000"/>
<path d="M6.34465 13.8985C5.92923 13.9952 5.70703 14.1403 5.70703 14.3144C5.70703 14.3821 5.74567 14.3724 5.79398 14.295C5.87127 14.1693 6.66346 13.9372 6.74075 14.0145C6.76007 14.0339 6.73109 14.179 6.67312 14.3241C6.61516 14.4692 6.59583 14.6142 6.62482 14.6433C6.6538 14.682 6.7021 14.6046 6.73109 14.4982C6.84702 14.0822 7.20447 13.9565 8.06429 14.0339C8.49903 14.0726 8.98207 14.1209 9.13665 14.1306C9.30088 14.1403 9.52308 14.1983 9.63901 14.266C9.8902 14.4014 10.8659 14.4111 10.779 14.2757C10.75 14.2273 10.5665 14.1596 10.3636 14.1306C10.1704 14.1016 9.76461 14.0049 9.46512 13.9275C8.86614 13.7727 6.95329 13.7534 6.34465 13.8985Z" fill="#008000"/>
<path d="M9.87022 15.0149C9.1421 14.8849 8.79582 15.001 8.5013 15.4555L8.25 15.8458L8.5732 15.5391C9.01226 15.1122 9.33134 15.071 10.1205 15.3006C10.4897 15.4099 10.8028 15.4814 10.8136 15.4653C10.8731 15.3771 10.2504 15.0733 9.87022 15.0149Z" fill="#008000"/>
<path d="M10.0688 15.2181C9.39253 15.5179 9.17033 15.8081 9.17999 16.3498L9.18965 16.814L9.28626 16.3788C9.41185 15.7791 9.65337 15.5663 10.4359 15.3148C10.803 15.1987 11.1025 15.0826 11.1025 15.0633C11.1025 14.9569 10.4166 15.0536 10.0688 15.2181Z" fill="#008000"/>
<path d="M9.94116 16.0485C9.82523 16.2032 9.73828 16.4063 9.73828 16.5127C9.73828 16.6385 9.78659 16.6095 9.92184 16.387C10.0281 16.2129 10.2117 16.0098 10.3276 15.9227C10.5498 15.7679 10.5498 15.7679 10.3469 15.7679C10.231 15.7679 10.0571 15.884 9.94116 16.0485Z" fill="#008000"/>
<path d="M20.3882 17.6248C20.7019 17.7609 22.3295 18.1719 23.4811 18.5095C24.6327 18.8472 25.9792 19.2359 26.2772 19.2778C26.7032 18.3482 25.928 20.087 26.3704 19.0331C25.7953 18.8865 23.5282 18.3525 22.6184 18.0907C21.8341 17.8709 20.7215 17.5279 20.4366 17.4651C20.1516 17.4023 20.1477 17.5201 20.3882 17.6248Z" fill="#008000"/>
<path d="M20.5843 17.3835C20.9026 17.5086 22.5435 17.8624 23.7062 18.1596C24.8689 18.4568 26.2281 18.7983 26.5274 18.8297C26.9207 17.8858 26.2065 19.6506 26.612 18.5819C26.032 18.4555 23.7478 18.001 22.8294 17.7712C22.0379 17.5789 20.914 17.275 20.6271 17.2222C20.3401 17.1694 20.3403 17.2873 20.5843 17.3835Z" fill="#008000"/>
<path d="M20.1347 17.8001C20.4409 17.9525 22.0448 18.4482 23.1772 18.8457C24.3096 19.2433 25.6338 19.702 25.9293 19.7594C26.4033 18.8534 25.5382 20.5492 26.0351 19.52C25.4684 19.3435 23.2324 18.6914 22.3376 18.3823C21.5658 18.1216 20.4727 17.7208 20.1914 17.6432C19.9101 17.5655 19.9 17.683 20.1347 17.8001Z" fill="#008000"/>
<path d="M19.9395 17.9983C20.2373 18.1665 21.8131 18.7455 22.9231 19.2018C24.0332 19.6582 25.3317 20.1857 25.6237 20.2585C26.1444 19.3786 25.1919 21.0267 25.7419 20.025C25.1852 19.819 22.9863 19.0506 22.1089 18.6951C21.3518 18.3943 20.2811 17.9368 20.0043 17.8445C19.7274 17.7522 19.7112 17.869 19.9395 17.9983Z" fill="#008000"/>
<path d="M19.7545 18.2477C20.0462 18.4262 21.6008 19.0599 22.6943 19.5548C23.7878 20.0496 25.0671 20.6222 25.3564 20.7052C25.9075 19.8439 24.8981 21.4578 25.4827 20.4759C24.9335 20.2506 22.7628 19.4058 21.8982 19.0198C21.1521 18.6928 20.098 18.1982 19.8245 18.0962C19.5511 17.9943 19.5308 18.1105 19.7545 18.2477Z" fill="#008000"/>
<path d="M16.4971 20.755C16.9457 21.0679 17.1924 21.5027 17.1679 21.9514L17.1514 22.3221L17.2986 21.9574C17.4597 21.5758 17.4375 20.998 17.2473 20.5701L17.1363 20.3205L17.4888 20.4742C17.9925 20.6869 18.3241 21.0608 18.3934 21.505L18.4541 21.8709L18.5224 21.4835C18.6007 21.0766 18.4591 20.5163 18.1841 20.1373L18.0237 19.9162L18.4004 19.9931C18.9372 20.0963 19.3393 20.3931 19.4993 20.8131L19.6347 21.1585L19.621 20.7653C19.6132 20.351 19.3582 19.8323 19.0105 19.5189L18.8077 19.336L19.1922 19.3329C19.7387 19.3221 20.1936 19.5286 20.4374 19.9063L20.6415 20.2158L20.5465 19.8341C20.4528 19.4307 20.0957 18.9764 19.6905 18.7421L19.4542 18.6054L19.8296 18.5224C20.362 18.3979 20.8498 18.5054 21.1666 18.824L21.4305 19.0843L21.2583 18.7307C21.0829 18.3555 20.6393 17.9854 20.1943 17.8406L19.9347 17.7563L20.2847 17.5969C20.7795 17.3644 21.279 17.3679 21.6551 17.6135L21.9674 17.8132L21.7255 17.5031C21.476 17.1726 20.9652 16.903 20.4999 16.8541L20.2285 16.8256L20.5378 16.5968C20.9735 16.2664 21.4628 16.1657 21.8817 16.3278L22.2286 16.4581L21.9277 16.2052C21.615 15.9339 21.0593 15.7764 20.594 15.8255L20.3227 15.854L20.5776 15.5658C20.9352 15.1519 21.393 14.9516 21.8363 15.023L22.2027 15.0782L21.8557 14.8935C21.4935 14.6933 20.9174 14.6549 20.4724 14.7996L20.2128 14.884L20.4023 14.5491C20.6662 14.0698 21.0723 13.7787 21.5208 13.7561L21.8906 13.7339L21.5129 13.6255C21.117 13.505 20.5455 13.5875 20.1403 13.8216L19.904 13.9582L20.0198 13.5911C20.1784 13.0674 20.5152 12.6981 20.9492 12.5827L21.3064 12.4839L20.9144 12.4565C20.5022 12.421 19.9602 12.6206 19.6126 12.934L19.4098 13.1169L19.4469 12.7338C19.4932 12.1883 19.7459 11.7571 20.1465 11.5537L20.4753 11.3829L20.0862 11.4376C19.6756 11.4887 19.187 11.7967 18.912 12.1757L18.7516 12.3968L18.7084 12.0143C18.6404 11.4713 18.798 10.9967 19.1476 10.7145L19.4338 10.4789L19.0645 10.6134C18.6735 10.7489 18.2596 11.1519 18.0693 11.5798L17.9583 11.8296L17.8365 11.4644C17.6573 10.9474 17.713 10.4503 17.9963 10.1016L18.2273 9.81156L17.8941 10.0199C17.5397 10.2338 17.2185 10.7142 17.1212 11.1724L17.0645 11.4397L16.8695 11.108C16.5869 10.6394 16.5381 10.1418 16.7428 9.74159L16.9085 9.40984L16.6259 9.68298C16.3237 9.96606 16.1092 10.5029 16.1092 10.9713V11.2445L15.8496 10.9605C15.4759 10.5613 15.3249 10.0845 15.442 9.65047L15.5351 9.29138L15.3154 9.61759C15.0786 9.95722 14.9803 10.5269 15.0776 10.9852L15.1342 11.2525L14.8214 11.0287C14.3728 10.7159 14.1262 10.281 14.1506 9.83211L14.1671 9.4615L14.0198 9.82632C13.8588 10.2079 13.881 10.7855 14.0712 11.2135L14.1822 11.4632L13.8297 11.3095C13.326 11.0969 12.9943 10.7229 12.9251 10.2788L12.8643 9.91281L12.7961 10.3002C12.7178 10.7069 12.8593 11.2675 13.1345 11.6464L13.2948 11.8674L12.9181 11.7905C12.3813 11.6873 11.9793 11.3906 11.8192 10.9705L11.6838 10.6252L11.6975 11.0184C11.7054 11.4326 11.9603 11.9513 12.308 12.2647L12.5108 12.4476L12.1263 12.4507C11.5798 12.4615 11.1249 12.2549 10.8811 11.8774L10.677 11.5678L10.772 11.9495C10.8657 12.353 11.2228 12.8074 11.628 13.0416L11.8643 13.1782L11.4889 13.2613C10.9566 13.3856 10.4687 13.2783 10.1519 12.9598L9.88792 12.6994L10.0602 13.053C10.2356 13.4282 10.6792 13.7982 11.1242 13.943L11.3838 14.0274L11.0338 14.1868C10.5389 14.4194 10.0394 14.4158 9.66337 14.1702L9.35108 13.9705L9.59294 14.2804C9.84248 14.6109 10.3532 14.8805 10.8186 14.9295L11.09 14.9581L10.7807 15.1868C10.345 15.5173 9.85564 15.6178 9.4368 15.4558L9.08984 15.3256L9.3908 15.5784C9.70351 15.8498 10.2591 16.0072 10.7244 15.9582L10.9959 15.9297L10.7409 16.2178C10.3833 16.6318 9.92551 16.8319 9.48218 16.7607L9.1158 16.7054L9.46275 16.8902C9.82499 17.0905 10.4011 17.1288 10.8461 16.984L11.1057 16.8996L10.9162 17.2346C10.6523 17.7139 10.2461 18.0051 9.7977 18.0276L9.42784 18.0497L9.80556 18.1582C10.2014 18.2787 10.7729 18.1962 11.1781 17.9621L11.4145 17.8254L11.2987 18.1924C11.1401 18.7163 10.8033 19.0856 10.3693 19.201L10.0121 19.2998L10.4041 19.3272C10.8164 19.3626 11.3583 19.163 11.706 18.8495L11.9088 18.6667L11.8717 19.05C11.8254 19.5952 11.5726 20.0266 11.172 20.2298L10.8432 20.4008L11.2323 20.3461C11.6429 20.295 12.1315 19.9868 12.4065 19.6079L12.5669 19.3869L12.6102 19.7694C12.6782 20.3124 12.5205 20.7869 12.1709 21.0691L11.8847 21.3048L12.254 21.1703C12.645 21.0349 13.0589 20.6317 13.2492 20.2038L13.3602 19.9542L13.482 20.3192C13.6612 20.8364 13.6055 21.3333 13.3222 21.6821L13.0912 21.9722L13.4244 21.7637C13.7787 21.5498 14.1 21.0694 14.1973 20.6112L14.254 20.344L14.4489 20.6758C14.7316 21.1442 14.7803 21.642 14.5756 22.0421L14.4099 22.3739L14.6926 22.1006C14.9948 21.8177 15.2092 21.2809 15.2092 20.8124V20.5391L15.4688 20.8231C15.8425 21.2225 15.9935 21.6992 15.8765 22.1332L15.7833 22.4923L16.003 22.1661C16.2399 21.8263 16.3381 21.2568 16.2409 20.7985L16.1842 20.5313L16.4971 20.755Z" fill="#FCDD09"/>
</svg>
