<svg width="32" height="24" viewBox="0 0 32 24" fill="none" xmlns="http://www.w3.org/2000/svg">
<mask id="mask0_5190_108187" style="mask-type:luminance" maskUnits="userSpaceOnUse" x="0" y="0" width="32" height="24">
<rect width="32" height="24" fill="white"/>
</mask>
<g mask="url(#mask0_5190_108187)">
<path fill-rule="evenodd" clip-rule="evenodd" d="M0 0V24H32V0H0Z" fill="#F7FCFF"/>
<mask id="mask1_5190_108187" style="mask-type:luminance" maskUnits="userSpaceOnUse" x="0" y="0" width="32" height="24">
<path fill-rule="evenodd" clip-rule="evenodd" d="M0 0V24H32V0H0Z" fill="white"/>
</mask>
<g mask="url(#mask1_5190_108187)">
<path fill-rule="evenodd" clip-rule="evenodd" d="M0 0V8H32V0H0Z" fill="#009D00"/>
<path fill-rule="evenodd" clip-rule="evenodd" d="M0 8V16H32V8H0Z" fill="white"/>
<path fill-rule="evenodd" clip-rule="evenodd" d="M0 16V24H32V16H0Z" fill="#F80000"/>
</g>
<path fill-rule="evenodd" clip-rule="evenodd" d="M0 0V24L8 12.152L0 0Z" fill="#0075D5"/>
<mask id="mask2_5190_108187" style="mask-type:luminance" maskUnits="userSpaceOnUse" x="0" y="0" width="8" height="24">
<path fill-rule="evenodd" clip-rule="evenodd" d="M0 0V24L8 12.152L0 0Z" fill="white"/>
</mask>
<g mask="url(#mask2_5190_108187)">
</g>
<path d="M14.5693 8.88296L14.5565 8.88586L14.5468 8.87694L14.3402 8.68601L14.3143 8.9662L14.3131 8.97928L14.3016 8.98571L14.0562 9.12327L14.3147 9.23442L14.3268 9.23962L14.3293 9.25251L14.3843 9.52846L14.5699 9.31697L14.5786 9.30709L14.5916 9.30863L14.8711 9.34161L14.7273 9.09975L14.7205 9.08845L14.726 9.07652L14.8438 8.82095L14.5693 8.88296Z" fill="#FFD500" stroke="black" stroke-width="0.05"/>
<path d="M15.5693 8.88296L15.5565 8.88586L15.5468 8.87694L15.3402 8.68601L15.3143 8.9662L15.3131 8.97928L15.3016 8.98571L15.0562 9.12327L15.3147 9.23442L15.3268 9.23962L15.3293 9.25251L15.3843 9.52846L15.5699 9.31697L15.5786 9.30709L15.5916 9.30863L15.8711 9.34161L15.7273 9.09975L15.7205 9.08845L15.726 9.07652L15.8438 8.82095L15.5693 8.88296Z" fill="#FFD500" stroke="black" stroke-width="0.05"/>
<path d="M16.5693 8.88296L16.5565 8.88586L16.5468 8.87694L16.3402 8.68601L16.3143 8.9662L16.3131 8.97928L16.3016 8.98571L16.0562 9.12327L16.3147 9.23442L16.3268 9.23962L16.3293 9.25251L16.3843 9.52846L16.5699 9.31697L16.5786 9.30709L16.5916 9.30863L16.8711 9.34161L16.7273 9.09975L16.7205 9.08845L16.726 9.07652L16.8438 8.82095L16.5693 8.88296Z" fill="#FFD500" stroke="black" stroke-width="0.05"/>
<path d="M17.5693 8.88296L17.5565 8.88586L17.5468 8.87694L17.3402 8.68601L17.3143 8.9662L17.3131 8.97928L17.3016 8.98571L17.0562 9.12327L17.3147 9.23442L17.3268 9.23962L17.3293 9.25251L17.3843 9.52846L17.5699 9.31697L17.5786 9.30709L17.5916 9.30863L17.8711 9.34161L17.7273 9.09975L17.7205 9.08845L17.726 9.07652L17.8438 8.82095L17.5693 8.88296Z" fill="#FFD500" stroke="black" stroke-width="0.05"/>
<path d="M18.5693 8.88296L18.5565 8.88586L18.5468 8.87694L18.3402 8.68601L18.3143 8.9662L18.3131 8.97928L18.3016 8.98571L18.0562 9.12327L18.3147 9.23442L18.3268 9.23962L18.3293 9.25251L18.3843 9.52846L18.5699 9.31697L18.5786 9.30709L18.5916 9.30863L18.8711 9.34161L18.7273 9.09975L18.7205 9.08845L18.726 9.07652L18.8438 8.82095L18.5693 8.88296Z" fill="#FFD500" stroke="black" stroke-width="0.05"/>
<path d="M19.5693 8.88296L19.5565 8.88586L19.5468 8.87694L19.3402 8.68601L19.3143 8.9662L19.3131 8.97928L19.3016 8.98571L19.0562 9.12327L19.3147 9.23442L19.3268 9.23962L19.3293 9.25251L19.3843 9.52846L19.5699 9.31697L19.5786 9.30709L19.5916 9.30863L19.8711 9.34161L19.7273 9.09975L19.7205 9.08845L19.726 9.07652L19.8438 8.82095L19.5693 8.88296Z" fill="#FFD500" stroke="black" stroke-width="0.05"/>
<path d="M15.05 10.05H18.95V13C18.95 14.077 18.077 14.95 17 14.95C15.923 14.95 15.05 14.077 15.05 13V10.05Z" stroke="#373737" stroke-width="0.1"/>
<path fill-rule="evenodd" clip-rule="evenodd" d="M16.7272 11.9599C16.7272 11.9599 16.5254 14.3252 16.3241 14.4685C16.1227 14.6118 17.289 14.6834 17.4005 14.576C17.5119 14.4685 16.8919 12.5411 17.1052 11.9599C17.3185 11.3787 17.662 11.3316 17.662 11.3316C17.662 11.3316 17.2289 11.24 17.1052 11.4144C16.9814 11.5888 16.6123 11.3316 16.6123 11.3316L16.7272 11.9599Z" fill="#6F3E1D"/>
<path fill-rule="evenodd" clip-rule="evenodd" d="M16.6838 11.8261H16.5286C16.5286 11.8261 16.4236 12.2369 16.1826 12.0315C15.9416 11.8261 15.6016 11.8985 15.6016 11.8985C15.6016 11.8985 15.6321 11.6528 16.0021 11.555C16.3721 11.4573 16.5286 10.6639 16.5286 10.6639C16.5286 10.6639 17.0523 10.469 17.3708 10.8684C17.6894 11.2678 18.1382 11.0974 18.1382 11.0974C18.1382 11.0974 18.4662 11.2839 18.3022 11.555C18.1382 11.8261 17.8584 12.0245 17.6146 11.8261C17.3708 11.6278 16.6838 11.8261 16.6838 11.8261Z" fill="#009D29"/>
</g>
</svg>
