<svg width="32" height="24" viewBox="0 0 32 24" fill="none" xmlns="http://www.w3.org/2000/svg">
<mask id="mask0_5190_108108" style="mask-type:luminance" maskUnits="userSpaceOnUse" x="0" y="0" width="32" height="24">
<rect width="32" height="24" fill="white"/>
</mask>
<g mask="url(#mask0_5190_108108)">
<path fill-rule="evenodd" clip-rule="evenodd" d="M0 0.0999756H32V24.1H0V0.0999756Z" fill="#2B409A"/>
</g>
<rect width="18" height="14" fill="#2B409A"/>
<mask id="mask1_5190_108108" style="mask-type:luminance" maskUnits="userSpaceOnUse" x="0" y="0" width="18" height="14">
<rect width="18" height="14" fill="white"/>
</mask>
<g mask="url(#mask1_5190_108108)">
<path d="M-2.00391 12.9997L1.95704 14.7369L18.0902 1.88866L20.1796 -0.692871L15.9439 -1.27349L9.36354 4.2632L4.06704 7.99363L-2.00391 12.9997Z" fill="#F7FCFF"/>
<path d="M-1.46094 14.217L0.556984 15.2251L19.43 -0.932617H16.5966L-1.46094 14.217Z" fill="#F50100"/>
<path d="M20.0039 12.9997L16.043 14.7369L-0.0902405 1.88866L-2.17955 -0.692871L2.05612 -1.27349L8.63646 4.2632L13.933 7.99363L20.0039 12.9997Z" fill="#F7FCFF"/>
<path d="M19.8672 13.8733L17.8493 14.8815L9.81294 7.96351L7.43034 7.19059L-2.38215 -0.683947H0.451241L10.2582 7.00368L12.8632 7.9305L19.8672 13.8733Z" fill="#F50100"/>
<mask id="path-9-outside-1_5190_108108" maskUnits="userSpaceOnUse" x="-2" y="-2" width="22" height="18" fill="black">
<rect fill="white" x="-2" y="-2" width="22" height="18"/>
<path fill-rule="evenodd" clip-rule="evenodd" d="M9.98451 0H7.98451V6H0V8H7.98451V14H9.98451V8H18V6H9.98451V0Z"/>
</mask>
<path fill-rule="evenodd" clip-rule="evenodd" d="M9.98451 0H7.98451V6H0V8H7.98451V14H9.98451V8H18V6H9.98451V0Z" fill="#F50100"/>
<path d="M7.98451 0V-1.5H6.48451V0H7.98451ZM9.98451 0H11.4845V-1.5H9.98451V0ZM7.98451 6V7.5H9.48451V6H7.98451ZM0 6V4.5H-1.5V6H0ZM0 8H-1.5V9.5H0V8ZM7.98451 8H9.48451V6.5H7.98451V8ZM7.98451 14H6.48451V15.5H7.98451V14ZM9.98451 14V15.5H11.4845V14H9.98451ZM9.98451 8V6.5H8.48451V8H9.98451ZM18 8V9.5H19.5V8H18ZM18 6H19.5V4.5H18V6ZM9.98451 6H8.48451V7.5H9.98451V6ZM7.98451 1.5H9.98451V-1.5H7.98451V1.5ZM9.48451 6V0H6.48451V6H9.48451ZM0 7.5H7.98451V4.5H0V7.5ZM1.5 8V6H-1.5V8H1.5ZM7.98451 6.5H0V9.5H7.98451V6.5ZM9.48451 14V8H6.48451V14H9.48451ZM9.98451 12.5H7.98451V15.5H9.98451V12.5ZM8.48451 8V14H11.4845V8H8.48451ZM18 6.5H9.98451V9.5H18V6.5ZM16.5 6V8H19.5V6H16.5ZM9.98451 7.5H18V4.5H9.98451V7.5ZM8.48451 0V6H11.4845V0H8.48451Z" fill="#F7FCFF" mask="url(#path-9-outside-1_5190_108108)"/>
</g>
<path d="M24.3176 18.5514C24.2561 18.5514 24.0331 18.4313 24.0331 18.4313C24.0331 18.4313 23.8716 18.687 23.787 18.7017C23.7024 18.7168 23.2641 18.5442 23.2641 18.5442C23.2641 18.5442 22.9566 18.7844 22.8874 18.7693C22.8182 18.7546 22.1108 18.6043 22.1108 18.6043L21.7263 18.3637C21.7263 18.3637 21.511 18.7093 21.5033 18.7017C21.4956 18.6942 20.8575 18.5741 20.8575 18.5741C20.8575 18.5741 21.0497 18.3112 21.0497 18.3037C21.0497 18.2961 20.9574 18.2659 20.9574 18.2659L20.819 18.3788L20.25 18.4313L20.3884 18.0405L20.6114 17.71L23.341 15.1176L24.6866 17.5446L24.4868 18.2735C24.4868 18.2735 24.379 18.5514 24.3176 18.5514Z" fill="#6A4C2D"/>
<path d="M21.7097 18.0608C21.8048 18.1758 23.0573 19.456 23.2603 20.0618C23.4633 20.6675 21.6133 19.8938 21.6133 19.8938C21.6133 19.8938 23.9428 18.3806 25.1066 18.3806C26.2703 18.3806 28.5575 19.8938 28.5575 19.8938C28.5575 19.8938 27.0227 20.9746 27.0384 20.2931C27.0542 19.6116 27.7589 18.269 28.5999 18.0608" stroke="#FFBB00" stroke-width="0.5" stroke-linecap="round" stroke-linejoin="round"/>
<path d="M29.5441 18.16L29.1615 18.0175L28.8227 17.5689L27.4198 17.4657L26.1408 17.1167L25.6016 17.4764L25.8919 17.8556L26.6016 18.1167L29.5441 18.16Z" fill="#F7FCFF"/>
<path d="M23.941 9.86604C23.954 9.8988 24.24 9.84071 24.3008 10.0121C24.6088 9.5574 24.9701 9.991 24.9701 9.991L25.2742 9.63098L25.6175 9.9561L25.9325 9.93158L26.2616 10.7041L23.6641 10.6554C23.6641 10.6554 23.9279 9.83327 23.941 9.86604Z" fill="#656263"/>
<path d="M26.6323 13.1539C26.6114 12.9093 26.3945 12.8807 26.2735 12.8888C26.1522 12.897 26.0438 12.9989 26.0438 12.9989L25.6432 12.7502C25.6432 12.7502 25.8436 11.5145 26.0563 11.4371C26.2584 11.2947 26.2941 11.233 26.2941 11.2007C26.2941 11.168 26.2191 11.0356 26.2191 11.0356L24.9128 10.8846L23.6775 11.0274C23.6775 11.0274 23.5816 11.2208 23.5942 11.278C23.6067 11.3349 23.6109 11.3962 23.832 11.5635C24.0768 11.7475 24.2451 12.8033 24.2451 12.8033C24.2451 12.8033 23.8989 12.9703 23.878 12.9498C23.8571 12.9297 23.7528 12.9093 23.6984 12.9174C23.6444 12.9256 23.4648 13.0152 23.4648 13.2476C23.4648 13.4803 23.6444 13.6149 23.6444 13.6149C23.6444 13.6149 24.8253 14.4803 25.0006 14.7982C25.1718 14.4149 26.2941 13.5495 26.4276 13.484C26.482 13.4517 26.6532 13.3985 26.6323 13.1539Z" fill="#656263"/>
<path d="M27.8108 12.0015C27.9089 11.9377 28.5624 11.9056 28.7195 12.0015C28.8762 12.0974 28.935 12.57 28.935 12.57C28.935 12.57 29.0332 12.736 29.0396 12.8574C29.046 12.9788 29.0592 13.0618 29.0592 13.0618C29.0592 13.0618 29.5821 13.7262 29.5885 14.3264C29.6474 14.7352 29.6342 15.8272 29.4711 16.2423C29.4643 16.7598 29.2423 17.0981 29.2423 17.0981C29.2423 17.0981 29.2944 17.1874 29.288 17.2833C29.2813 17.3792 29.2291 17.4685 29.2291 17.4685L28.7391 17.6792L28.1966 17.5899L27.582 15.7951L27.7259 12.7615L27.7651 12.6084L27.6998 12.1996C27.6998 12.1996 27.713 12.0654 27.8108 12.0015Z" fill="black"/>
<path d="M24.2627 13.5941C24.2627 13.5941 24.9239 13.5941 24.9954 13.8038C25.1205 13.5243 25.6923 13.5419 25.6923 13.5419C26.0379 13.5302 26.3835 13.5186 26.7287 13.507C26.7348 14.322 26.7406 15.137 26.7467 15.952C26.5443 16.9006 25.8413 17.5703 25.0668 17.8555C24.1433 17.5644 23.5597 16.8019 23.3692 15.9344C23.3331 15.1602 23.2974 14.3858 23.2617 13.6117C23.5954 13.6057 23.9291 13.6 24.2627 13.5941Z" fill="#F7FCFF"/>
<path d="M23.6172 13.6026L25.0751 17.399L26.3921 13.5199C25.9834 13.5457 25.1069 13.457 24.9982 13.8211C24.8296 13.4954 23.9074 13.6268 23.6172 13.6026V13.6026Z" fill="#006B00"/>
<path fill-rule="evenodd" clip-rule="evenodd" d="M25.3082 14.1979C25.3082 14.1979 25.4408 14.5439 25.3082 14.7151C25.1757 14.8863 25.3192 15.0266 25.3992 15.0266C25.4792 15.0266 25.7537 15.2985 25.531 15.2985C25.3082 15.2985 25.1825 15.2139 25.1825 15.4529C25.1825 15.6919 25.4902 16.7681 25.3992 17.0261C25.3082 17.2842 25.3309 17.4817 25.4614 17.4161C25.5919 17.3505 25.6734 17.1819 25.6022 16.8572C25.531 16.5326 25.4614 16.6092 25.4614 16.3286C25.4614 16.048 25.531 15.7357 25.531 15.7357C25.531 15.7357 25.648 15.8235 25.5648 16.1438C25.4815 16.4641 25.6679 16.906 25.6679 17.0261C25.6679 17.1463 25.6734 17.477 25.6022 17.5098C25.531 17.5426 25.4656 17.7423 25.3992 17.5901C25.3328 17.4379 25.2912 17.1869 25.2061 17.3596C25.121 17.5323 25.1374 17.9294 25.0489 17.9485C24.9604 17.9677 24.8282 18.1559 24.8282 18.0803C24.8282 18.0048 24.7036 17.8683 24.7415 17.7412C24.7795 17.614 24.8128 17.5991 24.8435 17.721C24.8743 17.8429 25.0036 17.8417 25.0036 17.7412C25.0036 17.6406 24.9583 17.6897 25.0036 17.4608C25.0489 17.2318 25.0993 16.9289 25.0036 16.9471C24.9079 16.9653 24.7611 17.1143 24.7415 16.8394C24.722 16.5644 24.6434 16.4357 24.7067 16.3821C24.7699 16.3286 24.8542 16.1373 24.8813 16.2877C24.9083 16.4382 24.7894 16.5819 24.8088 16.6361C24.8282 16.6903 24.839 16.8131 24.9213 16.7102C25.0036 16.6074 25.052 16.4378 25.1136 16.595C25.1752 16.7522 25.1765 16.6282 25.0489 16.3286C24.9213 16.0291 24.8129 15.8624 24.8282 15.5995C24.8435 15.3365 24.8229 15.238 24.8435 15.1535C24.8642 15.0689 24.615 14.6573 24.6783 14.5387C24.7415 14.4202 24.7658 14.0375 24.8435 14.1064C24.9213 14.1753 24.9613 14.2678 24.9213 14.3708C24.8813 14.4738 24.8412 14.5762 24.8813 14.6456C24.9213 14.7151 25.0587 14.9157 25.0862 14.8653C25.1136 14.8148 25.2061 14.8636 25.2061 14.5779C25.2061 14.2922 25.103 14.1917 25.168 14.1239C25.2329 14.0561 25.3082 14.1979 25.3082 14.1979Z" fill="#FFD100"/>
<path d="M26.4016 13.5206L26.5982 13.5159L26.2472 13.9504L26.6684 14.4309L25.8398 15.4509L26.6217 16.3703C26.5358 16.5762 26.4361 16.7636 26.3032 16.9331L25.854 16.4479L26.6684 15.4556L25.9991 14.7145L26.4016 13.5206Z" fill="#1E5AA6"/>
<path d="M23.3809 13.6121L23.7741 14.0281L23.3577 14.5359L24.2236 15.4556L23.5074 16.3933C23.5933 16.5992 23.7165 16.8278 23.8491 16.997L24.2751 16.4709L23.3999 15.5195L24.0412 14.7236L23.5917 13.6074L23.3809 13.6121Z" fill="#1E5AA6"/>
<path d="M24.5667 16.0775L24.2578 16.4799L25.3624 17.7289C25.5574 17.6327 25.7106 17.5229 25.8776 17.3905L25.3016 16.7409L25.5358 16.0684L25.8727 16.4479L24.8196 17.7609C24.6433 17.6877 24.4483 17.5732 24.272 17.4314L24.8289 16.7409L24.5667 16.0775Z" fill="#1E5AA6"/>
<path d="M28.3864 12.8511C28.3864 12.9149 28.456 16.6832 28.5323 16.6472C28.7218 16.5576 28.7655 16.7532 28.7655 16.7532C28.7655 16.7532 28.8308 17.3729 28.6673 17.4559C28.3732 17.609 28.2446 17.6428 28.2446 17.6428L27.9617 17.4367C27.9617 17.4367 27.674 17.0343 27.6087 16.8554C27.5434 16.6768 27.4649 15.8784 27.491 15.7058C27.517 15.5335 27.5367 14.5242 27.5238 14.4732C27.5106 14.422 27.4585 13.579 27.491 13.4513C27.5238 13.3237 27.7262 12.7615 27.7197 12.7615C27.7197 12.7615 28.3864 12.7873 28.3864 12.8511Z" fill="url(#paint0_linear_5190_108108)"/>
<path d="M27.732 12.2059C27.8691 12.2059 27.9737 12.321 28.0065 12.4232C28.0129 12.4679 27.9933 12.4999 27.9997 12.5829C28.0065 12.6659 27.0064 12.6018 27 12.5955C27 12.5955 27.464 12.155 27.732 12.2059Z" fill="#FF7000"/>
<path d="M28.832 17.6666C28.832 17.6666 29.1457 17.5962 29.2307 17.4877C29.2831 17.4494 29.5576 17.8902 28.832 17.6666Z" fill="white" stroke="black" stroke-width="0.5" stroke-linejoin="round"/>
<path d="M28.3109 12.4603C28.3109 12.4879 28.2886 12.5103 28.2609 12.5103C28.2333 12.5103 28.2109 12.4879 28.2109 12.4603C28.2109 12.4327 28.2333 12.4103 28.2609 12.4103C28.2886 12.4103 28.3109 12.4327 28.3109 12.4603Z" fill="black"/>
<path d="M25.8207 11.9088C25.8207 11.9088 26.3413 12.4594 26.6782 12.4534C26.7393 12.615 26.525 12.7653 26.4395 12.837C26.268 12.7832 26.1129 12.8468 25.7148 12.3682C25.7396 12.0629 25.8268 11.9208 25.8207 11.9088Z" fill="#F7FCFF"/>
<path d="M27.8929 9.13806C27.9418 9.49117 27.89 9.57315 27.867 9.72143C27.8439 9.86971 28.7714 9.92445 29.0101 9.63109C28.9857 9.76283 28.7073 10.2989 27.4457 10.293C27.9235 10.736 27.2928 11.0891 27.0232 10.9813C27.5193 10.6102 26.8826 10.3889 26.5273 10.6281C26.5946 10.4247 27.0907 9.40155 27.8929 9.13806Z" fill="#F7FCFF"/>
<path fill-rule="evenodd" clip-rule="evenodd" d="M27.0495 11.6167C26.9548 11.2278 26.9091 10.7811 27.1182 10.6102C26.8424 10.4247 26.5425 10.6162 26.5425 10.6162C26.5405 10.6208 26.5348 10.6287 26.5268 10.6397C26.4627 10.7283 26.2485 11.0245 26.5425 11.5564C25.7587 11.353 26.0867 12.0645 26.1445 12.1182C26.1751 12.0044 26.5914 11.8969 26.6957 12.4773C26.7307 12.5949 26.5196 12.7646 26.4519 12.819C26.4368 12.8311 26.4288 12.8375 26.4322 12.8364C26.4322 12.8364 27.0955 12.971 27.1813 12.0947C27.2949 12.0271 27.845 11.6603 27.8283 10.9036C27.3228 10.914 27.0993 11.471 27.0495 11.6167Z" fill="#0000FF"/>
<path d="M24.0895 12.0645C24.0895 12.0645 23.5814 12.4952 23.2935 12.3575C23.0792 12.4833 22.8281 12.2619 22.8281 12.2619C22.8281 12.2619 23.122 13.3209 24.1754 12.555C24.1571 12.3217 24.1017 12.0824 24.0895 12.0645Z" fill="#F7FCFF"/>
<path d="M23.2861 12.3396C23.3288 12.1182 23.5065 12.0103 23.6474 12.2198C23.8372 12.2559 24.0271 11.4959 23.3533 11.6214C23.5431 10.6281 22.9738 10.2571 22.9738 10.2571C22.9738 10.2571 22.7717 11.3582 22.8636 11.5617C22.9554 11.7651 22.7289 11.1846 22.0001 11.023C21.9879 11.855 22.8146 12.244 22.8146 12.244C22.8146 12.244 23.0473 12.4534 23.2861 12.3396Z" fill="#0000FF"/>
<path d="M22.5973 11.1388C22.3829 11.2045 21.8618 10.8903 22.1924 10.4831C21.1085 10.4592 20.5184 9.54352 20.8797 9.71813C21.2409 9.89274 21.4991 9.52066 21.7685 9.71813C21.4378 9.4191 21.8839 9.17981 21.8839 9.17981C21.8839 9.17981 22.8086 9.44928 22.9739 10.2511C22.9188 10.4067 22.8943 10.6818 22.8821 10.6699C22.8821 10.6639 22.3095 10.6599 22.5973 11.1388Z" fill="#F7FCFF"/>
<path d="M24.3266 7.43122C24.3314 7.40377 25.0241 7.16583 25.0708 6.77249C25.1175 6.37915 25.0615 6.64439 25.0615 6.64439C25.0615 6.64439 25.2536 6.46602 25.1834 6.36993C25.113 6.27388 25.1364 6.49347 25.0241 6.48888C24.9119 6.48429 24.9727 6.25101 24.9727 6.25101C24.9727 6.25101 24.9633 6.22356 24.9305 6.20984C24.8835 6.21441 24.7761 6.11377 24.7761 6.11377C24.7761 6.11377 24.7059 6.02229 24.6448 6.31047C24.6776 6.61697 24.879 6.55748 24.879 6.75879C24.879 6.96006 24.7011 7.11557 24.6496 7.12016C24.5981 7.12472 24.6168 6.95091 24.6168 6.95091C24.6168 6.95091 24.5888 6.86856 24.5701 6.86856C24.5515 6.86856 24.6731 6.85026 24.6544 6.62154C24.6123 6.34707 24.5795 6.68559 24.5045 6.67185C24.4295 6.65814 24.4858 6.42027 24.5138 6.39282C24.5418 6.36537 24.481 6.25102 24.3172 6.54378C24.3031 6.68559 24.2844 6.50718 24.2516 6.51633C24.1956 6.63069 24.2049 6.71304 24.2844 6.81825C24.4015 6.92346 24.4765 7.02866 24.4717 7.08356C24.4672 7.13846 24.406 7.26197 24.3221 7.26197C24.2378 7.26197 24.3266 7.11101 24.3221 7.06067C24.3172 7.01036 24.1769 6.8274 24.1769 6.8274C24.1769 6.8274 24.0785 6.67185 24.0878 6.66729C24.0972 6.6627 23.8632 6.89142 24.0035 7.01036C23.896 6.99666 23.8867 7.03781 23.8867 7.03781C23.8867 7.09271 24.0318 7.11557 24.0505 7.21163C24.0692 7.30772 23.9006 7.36259 23.9006 7.36259C23.9006 7.36259 23.971 7.45865 24.1673 7.27112C24.1721 7.39004 24.0926 7.47239 24.0926 7.47239C24.158 7.50135 24.2094 7.4983 24.2188 7.57304C24.2188 7.57303 24.3221 7.45864 24.3266 7.43122Z" fill="#CDAD56"/>
<path d="M23.5761 7.57301C23.5761 7.57301 23.4885 7.44608 23.4847 7.42108C23.4805 7.39611 23.0542 7.45265 22.8525 6.94446C22.7213 6.70304 22.8525 6.84457 22.8525 6.84457L22.8604 6.72801C22.8604 6.72801 22.7208 6.56111 22.7804 6.4737C22.8401 6.38629 22.8155 6.58608 22.8922 6.58649C22.9876 6.58233 22.9359 6.37003 22.9359 6.37003C22.9359 6.37003 22.9439 6.34507 22.9717 6.33258C23.0114 6.33673 23.0278 6.46197 23.0635 6.4703C23.0992 6.47864 23.1732 6.32293 23.1964 6.29091C23.2292 6.28633 23.2279 6.16192 23.2797 6.42414C23.252 6.70304 23.0155 6.64893 23.0155 6.83209C23.0155 7.01521 23.1665 7.15674 23.2102 7.16092C23.254 7.16507 23.2382 7.00691 23.2382 7.00691C23.2382 7.00691 23.262 6.93198 23.2778 6.93198C23.2939 6.93198 23.1388 6.96107 23.1549 6.75294C23.1906 6.55809 23.2697 6.76549 23.3335 6.75298C23.3972 6.74049 23.326 6.54693 23.3444 6.51737C23.3486 6.48782 23.4422 6.36088 23.4786 6.64101C23.4905 6.77005 23.5625 6.52995 23.5902 6.53828C23.6382 6.64233 23.5693 6.78131 23.5017 6.87705C23.4023 6.97276 23.3573 7.07766 23.3614 7.12762C23.3653 7.17755 23.3888 7.23962 23.4605 7.23962C23.532 7.23962 23.4847 7.15259 23.4885 7.1068C23.4924 7.06102 23.6118 6.9128 23.6118 6.9128C23.6353 6.87623 23.6156 6.80788 23.6404 6.77628C23.6793 6.77668 23.6954 6.72386 23.735 6.86954C23.7749 7.01521 23.8225 6.77379 23.8225 6.77379C23.8225 6.77379 23.8782 6.9528 23.7588 7.06102C23.8502 7.04854 23.8582 7.08599 23.8582 7.08599C23.8582 7.13595 23.8148 7.15674 23.7987 7.24415C23.7826 7.33156 23.8463 7.38152 23.8463 7.38152C23.8463 7.38152 23.7868 7.46893 23.6198 7.29826C23.6156 7.40649 23.6835 7.48142 23.6835 7.48142C23.6275 7.5078 23.5841 7.505 23.5761 7.57301Z" fill="#CDAD56"/>
<path d="M24.6765 7.47455C24.5742 7.77348 24.2051 7.66006 24.2051 7.66006C24.2051 7.66006 24.2173 7.80967 24.1807 7.88145C24.2109 7.90373 24.429 8.07156 24.6581 8.11486C24.9876 8.17711 25.6624 8.00679 25.8889 8.25846C26.1154 8.51012 26.1035 8.71325 26.1035 8.71325C26.1035 8.71325 25.8087 8.74691 25.8906 8.85071C25.9438 8.91811 26.0905 8.9682 26.1035 9.03786C26.1449 9.25959 25.9652 9.65854 26.0298 9.80841C25.9278 9.81753 25.9198 9.92192 25.9198 9.92192C25.914 10.0405 25.6196 9.97003 25.6196 9.97003C25.6196 9.97003 25.8033 9.50907 25.8155 9.40154C25.8278 9.29369 25.6868 9.1022 25.5768 9.1022C25.4664 9.1022 25.3869 9.44336 25.3869 9.44336C25.3869 9.44336 25.3319 9.70056 25.3503 9.72446C25.3686 9.74835 25.2766 9.64082 25.2766 9.64082C25.2766 9.64082 25.2477 9.74529 25.2003 9.80841C25.147 9.8794 25.0745 9.90997 25.0745 9.90997C25.0745 9.90997 25.0195 9.75433 25.0378 9.69459C25.0562 9.63484 25.338 9.40154 25.3136 9.23395C25.3026 9.15998 25.2929 9.03088 25.2003 8.98805C25.083 8.93382 24.8679 8.97337 24.7379 8.94662C24.6665 9.06824 24.6337 9.73641 24.6826 9.77854C24.7318 9.82036 24.5603 9.90997 24.5603 9.90997L24.3583 9.91594C24.355 9.82539 24.4773 9.57793 24.4773 9.36852C24.4773 9.15911 24.4928 8.93467 24.4928 8.93467C24.4928 8.93467 24.3569 8.96886 24.2846 9.1022C24.2239 9.214 24.224 9.42533 24.2296 9.4553C24.2418 9.52102 24.3029 9.70653 24.2846 9.76062C24.2662 9.81438 23.948 9.88607 23.948 9.88607L23.9355 9.71251C23.9355 9.71251 24.0703 9.62887 24.0703 9.41946C24.0703 9.21005 24.0825 8.91071 24.0764 8.89279C24.0727 8.88202 23.9661 8.42375 23.8258 8.11486C23.7323 7.90884 23.5879 7.81445 23.5806 7.79769C23.5622 7.75581 23.5622 7.70792 23.5622 7.70792C23.5622 7.70792 23.3598 7.85155 23.1211 7.54637C23.3399 7.3639 23.5745 7.49848 23.5745 7.49848C23.5745 7.49848 23.6356 7.33092 23.9171 7.3429C24.199 7.35488 24.254 7.51046 24.2418 7.4925C24.2418 7.4925 24.45 7.31296 24.6765 7.47455Z" fill="#923F00"/>
<path d="M25.7811 10.5879C25.7859 10.5879 26.301 10.603 26.3062 10.8721C26.3113 11.141 26.1482 11.0715 26.1431 11.0715C26.1379 11.0715 25.7656 11.0265 25.7656 11.0265L25.7811 10.5879Z" fill="#0000FF"/>
<path d="M25.2812 10.5131C25.2812 10.5131 25.9238 10.5084 25.8881 10.7822C25.8524 11.0564 25.6892 11.0017 25.6892 11.0017L25.3781 10.9765L25.2812 10.5131Z" fill="#F7FCFF"/>
<path d="M24.9192 10.4832L25.2915 10.513C25.2915 10.513 25.5158 10.5429 25.5058 10.7523C25.4955 10.9617 25.276 10.9667 25.276 10.9667L24.9141 10.9466L24.9192 10.4832Z" fill="#0000FF"/>
<path d="M24.049 10.5879C24.0438 10.5879 23.5287 10.603 23.5235 10.8721C23.5187 11.141 23.6818 11.0715 23.687 11.0715C23.6921 11.0715 24.0644 11.0265 24.0644 11.0265L24.049 10.5879Z" fill="#F7FCFF"/>
<path d="M24.5497 10.5131C24.5497 10.5131 23.9071 10.5084 23.9428 10.7822C23.9786 11.0564 24.1417 11.0017 24.1417 11.0017L24.4528 10.9765L24.5497 10.5131Z" fill="#0000FF"/>
<path d="M24.9111 10.4832L24.5389 10.513C24.5389 10.513 24.3143 10.5429 24.3246 10.7523C24.3349 10.9617 24.554 10.9667 24.554 10.9667L24.916 10.9466L24.9111 10.4832Z" fill="#F7FCFF"/>
<path d="M26.2873 13.1646C26.3857 13.1967 26.3108 13.4951 26.2638 13.5228L25.9066 13.5089C25.9066 13.5089 26.1743 13.1234 26.2873 13.1646Z" fill="#5E0043"/>
<path d="M24.0708 13.5778C23.9865 13.463 23.8642 13.1464 23.7516 13.2335C23.6528 13.2655 23.7281 13.5639 23.7751 13.5916L24.0708 13.5778Z" fill="#5E0043"/>
<path d="M23.6284 11.3635L24.9168 12.1873L26.077 11.4248C26.077 11.4248 26.319 11.2943 26.2981 11.2006C26.2775 11.1066 26.1938 11.1434 26.152 11.1598C26.1105 11.1761 24.9377 11.9877 24.9377 11.9877L23.6899 11.2167C23.6899 11.2167 23.5982 11.1884 23.5815 11.2453C23.5647 11.3025 23.6159 11.3349 23.6284 11.3635Z" fill="#B4B6B9"/>
<path d="M27.9455 17.4273C27.9455 17.4273 27.3824 17.5973 27.5393 17.6021C27.6554 17.6057 28.2148 17.6021 28.2148 17.6021L27.9455 17.4273Z" fill="#FF7000"/>
<path d="M28.1773 17.6135L27.6773 17.6276C27.6773 17.6276 27.5515 17.7392 27.5434 17.766C27.5357 17.793 27.6261 17.8006 27.6261 17.8006C27.6261 17.8006 28.1419 17.9317 28.5322 17.8468C28.7291 17.7795 28.7636 17.6987 28.6255 17.6496C28.4878 17.6006 28.1812 17.6154 28.1773 17.6135Z" fill="#FF7000"/>
<path d="M22.3913 12.9898C22.3913 12.9898 22.3262 13.1898 22.3913 13.2898C22.4564 13.3898 22.8657 14.1988 22.8657 14.1988C22.8657 14.1988 23.1449 13.8623 23.2472 13.8532C23.3495 13.8444 23.3028 14.7261 23.3028 14.7261C23.3028 14.7261 23.1355 14.8805 23.0332 14.8714C22.9308 14.8622 23.2842 15.2169 23.2749 15.5169C23.2655 15.8168 22.8099 17.3076 22.6425 17.3346C22.475 17.362 22.3305 17.0539 22.3305 16.7877C22.3305 16.5214 22.5029 16.0986 22.4936 15.9804C22.4843 15.8621 21.6616 17.2473 21.6118 17.4636C21.6024 17.5046 21.6565 17.6528 21.6565 17.6528C21.6565 17.6528 21.3341 17.6792 21.4054 18.0892C20.4566 17.7619 19.9915 17.1985 20.0008 16.6259C20.0044 16.4064 19.7951 15.89 20.0008 15.3199C20.332 14.4021 21.1392 13.3545 21.1449 13.2536C21.1542 13.0898 21.2193 13.0172 21.2286 12.9263C21.2379 12.8354 21.2007 12.3716 21.2937 12.2899C21.3868 12.2081 21.8704 12.0082 21.9913 12.0173C22.1123 12.0264 22.2146 12.1081 22.2146 12.1081C22.2146 12.1081 22.6704 12.1081 22.6983 12.2808C22.7262 12.4537 22.6053 12.5172 22.6053 12.5172C22.6053 12.5172 22.6704 12.7628 22.3913 12.9898Z" fill="#8A9396"/>
<path d="M22.6626 18.1455C22.8163 18.2518 23.1713 18.3147 23.1713 18.3147C23.1713 18.3147 22.2993 18.5496 21.4134 18.0936C21.3324 17.7386 21.6035 17.6594 21.6705 17.6566C21.827 17.6157 22.5089 18.0389 22.6626 18.1455Z" fill="#2B2B2B"/>
<path d="M23.7275 18.108C24.6816 18.6122 24.7837 18.2728 25.441 17.7934C25.4866 17.7602 25.7035 18.5633 26.6247 18.108C27.9282 17.4637 25.5072 16.3898 25.165 16.4131C24.8229 16.437 22.7735 17.6037 23.7275 18.108Z" fill="#00713D"/>
<defs>
<linearGradient id="paint0_linear_5190_108108" x1="28.2763" y1="15.6071" x2="29.0189" y2="15.5989" gradientUnits="userSpaceOnUse">
<stop stop-color="#D5DFFF"/>
<stop offset="1" stop-color="white"/>
</linearGradient>
</defs>
</svg>
