<svg width="32" height="24" viewBox="0 0 32 24" fill="none" xmlns="http://www.w3.org/2000/svg">
<mask id="mask0_5190_107884" style="mask-type:luminance" maskUnits="userSpaceOnUse" x="0" y="0" width="32" height="24">
<rect width="32" height="24" fill="white"/>
</mask>
<g mask="url(#mask0_5190_107884)">
<path fill-rule="evenodd" clip-rule="evenodd" d="M0 0V24H32V0H0Z" fill="#F7FCFF"/>
<mask id="mask1_5190_107884" style="mask-type:luminance" maskUnits="userSpaceOnUse" x="0" y="0" width="32" height="24">
<path fill-rule="evenodd" clip-rule="evenodd" d="M0 0V24H32V0H0Z" fill="white"/>
</mask>
<g mask="url(#mask1_5190_107884)">
<path fill-rule="evenodd" clip-rule="evenodd" d="M0 0V8H32V0H0Z" fill="#E31D1C"/>
<path fill-rule="evenodd" clip-rule="evenodd" d="M0 16V24H32V16H0Z" fill="#3D58DB"/>
<rect x="10.0781" y="6.39734" width="11.4" height="4" fill="#E31D1C"/>
<path d="M10.6552 8.95978H20.7838C20.8009 9.72874 20.806 11.0701 20.8059 12.3615C20.8059 13.1954 20.8037 13.9982 20.8015 14.5927C20.8004 14.8899 20.7993 15.1349 20.7985 15.3056L20.7975 15.5032L20.7974 15.5318C20.7972 15.5328 20.797 15.5338 20.7968 15.5349C20.7924 15.5615 20.7849 15.6034 20.7734 15.6584C20.7504 15.7685 20.7116 15.9301 20.6499 16.1259C20.5261 16.5192 20.3131 17.0407 19.9582 17.5589C19.2638 18.5728 18.0029 19.6152 15.6528 19.6152C13.3059 19.6152 12.106 18.5742 11.4673 17.57C11.1394 17.0544 10.9521 16.5347 10.8473 16.1417C10.7951 15.9461 10.7641 15.7847 10.7464 15.6747C10.7375 15.6198 10.732 15.5779 10.7289 15.5514C10.7281 15.5449 10.7275 15.5394 10.727 15.5348L10.7264 15.4901L10.7241 15.2938L10.7156 14.5852C10.7085 13.9944 10.6992 13.1957 10.6898 12.3647C10.6755 11.0949 10.6612 9.75331 10.6552 8.95978ZM10.7253 15.5185C10.7253 15.5182 10.7253 15.5182 10.7253 15.5185L10.7253 15.5185Z" fill="#F7FCFF" stroke="#E31D1C" stroke-width="1.125"/>
<mask id="mask2_5190_107884" style="mask-type:luminance" maskUnits="userSpaceOnUse" x="10" y="8" width="12" height="13">
<path d="M10.6552 8.95978H20.7838C20.8009 9.72874 20.806 11.0701 20.8059 12.3615C20.8059 13.1954 20.8037 13.9982 20.8015 14.5927C20.8004 14.8899 20.7993 15.1349 20.7985 15.3056L20.7975 15.5032L20.7974 15.5318C20.7972 15.5328 20.797 15.5338 20.7968 15.5349C20.7924 15.5615 20.7849 15.6034 20.7734 15.6584C20.7504 15.7685 20.7116 15.9301 20.6499 16.1259C20.5261 16.5192 20.3131 17.0407 19.9582 17.5589C19.2638 18.5728 18.0029 19.6152 15.6528 19.6152C13.3059 19.6152 12.106 18.5742 11.4673 17.57C11.1394 17.0544 10.9521 16.5347 10.8473 16.1417C10.7951 15.9461 10.7641 15.7847 10.7464 15.6747C10.7375 15.6198 10.732 15.5779 10.7289 15.5514C10.7281 15.5449 10.7275 15.5394 10.727 15.5348L10.7264 15.4901L10.7241 15.2938L10.7156 14.5852C10.7085 13.9944 10.6992 13.1957 10.6898 12.3647C10.6755 11.0949 10.6612 9.75331 10.6552 8.95978ZM10.7253 15.5185C10.7253 15.5182 10.7253 15.5182 10.7253 15.5185L10.7253 15.5185Z" fill="white" stroke="white" stroke-width="1.125"/>
</mask>
<g mask="url(#mask2_5190_107884)">
<path fill-rule="evenodd" clip-rule="evenodd" d="M10.5 9.03986H12.6094V11.1818H10.5V9.03986ZM14.7188 11.1818H12.6094V13.3237H10.5V15.4656H12.6094V17.6075H10.5V19.7494H12.6094V17.6075H14.7188V19.7494H16.8281V17.6075H18.9375V19.7494H21.0469V17.6075H18.9375V15.4656H21.0469V13.3237H18.9375V11.1818H21.0469V9.03986H18.9375V11.1818H16.8281V9.03986H14.7188V11.1818ZM14.7188 13.3237V11.1818H16.8281V13.3237H14.7188ZM14.7188 15.4656V13.3237H12.6094V15.4656H14.7188ZM16.8281 15.4656V17.6075H14.7188V15.4656H16.8281ZM16.8281 15.4656V13.3237H18.9375V15.4656H16.8281Z" fill="#F50100"/>
</g>
<path fill-rule="evenodd" clip-rule="evenodd" d="M10.4546 8.16255C10.4546 8.16255 11.107 7.81405 11.6635 7.63445C12.22 7.45485 12.6599 7.35673 12.6599 7.35673L11.8319 4.30464L10.1736 3.68506L9.23438 5.23316L10.4546 8.16255Z" fill="#56C6F5" stroke="white" stroke-width="0.5"/>
<path d="M10.1836 6.4907L10.3742 6.39884C10.5709 6.81976 10.8303 6.94977 11.1859 6.81708C11.549 6.68155 11.6971 6.42526 11.6448 6.01894L11.854 5.99121C11.9189 6.49558 11.7155 6.84763 11.2586 7.01813C10.7941 7.19147 10.4246 7.00625 10.1836 6.4907Z" fill="white"/>
<path fill-rule="evenodd" clip-rule="evenodd" d="M10.6357 5.54176L10.4535 5.65212C10.4132 5.67654 10.3631 5.64145 10.3723 5.59521L10.4137 5.38628L10.227 5.28368C10.1857 5.26098 10.191 5.20003 10.2356 5.18485L10.4373 5.11622L10.4328 4.90327C10.4318 4.85615 10.4873 4.8303 10.5227 4.86134L10.683 5.00166L10.8651 4.8913C10.9055 4.86688 10.9556 4.90198 10.9464 4.94821L10.905 5.15715L11.0917 5.25974C11.133 5.28244 11.1277 5.3434 11.083 5.35858L10.8814 5.4272L10.8859 5.64015C10.8869 5.68727 10.8314 5.71313 10.796 5.68208L10.6357 5.54176Z" fill="#FECA00"/>
<path fill-rule="evenodd" clip-rule="evenodd" d="M14.5408 7.07575C14.5408 7.07575 15.0972 7.0261 15.6818 7.03746C16.2665 7.04881 16.7611 7.05297 16.7611 7.05297L17.0466 4.04349L15.7943 2.9121L14.4022 4.07008L14.5408 7.07575Z" fill="#56C6F5" stroke="white" stroke-width="0.5"/>
<path fill-rule="evenodd" clip-rule="evenodd" d="M15.7516 6.58475C16.2339 6.58475 16.2801 6.06379 16.2801 5.7089C16.1568 5.51207 16.1816 5.37122 15.7863 5.37122C15.3909 5.37122 15.3458 5.49068 15.2305 5.7089C15.2305 6.06379 15.2692 6.58475 15.7516 6.58475Z" fill="#FECA00"/>
<path fill-rule="evenodd" clip-rule="evenodd" d="M16.2945 5.11282C16.7769 5.11282 16.8231 4.59186 16.8231 4.23698C16.6998 4.04015 16.7246 3.89929 16.3293 3.89929C15.9339 3.89929 15.8888 4.01875 15.7734 4.23698C15.7734 4.59186 15.8122 5.11282 16.2945 5.11282Z" fill="#FECA00"/>
<path fill-rule="evenodd" clip-rule="evenodd" d="M15.2399 5.11282C15.7222 5.11282 15.7684 4.59186 15.7684 4.23698C15.6451 4.04015 15.6699 3.89929 15.2746 3.89929C14.8792 3.89929 14.8341 4.01875 14.7188 4.23698C14.7188 4.59186 14.7575 5.11282 15.2399 5.11282Z" fill="#FECA00"/>
<path d="M12.4449 7.60484L12.3728 7.36014L11.5063 4.4164L11.4652 4.2769L11.5662 4.17224L12.8046 2.88833L12.954 2.73352L13.1293 2.85806L14.4921 3.82587L14.5864 3.89289L14.5964 4.00821L14.8486 6.93263L14.8711 7.19317L14.6098 7.2039L14.6098 7.2039L14.6098 7.2039L14.6096 7.20391L14.6085 7.20396L14.604 7.20415L14.586 7.20495L14.5182 7.20825C14.4602 7.21122 14.3788 7.21573 14.2856 7.2219C14.0976 7.23434 13.8666 7.25318 13.6814 7.27891C13.5044 7.3035 13.2594 7.36417 13.0504 7.42171C12.9477 7.44999 12.8567 7.47665 12.7915 7.49623C12.7589 7.50601 12.7328 7.514 12.715 7.51952L12.6946 7.52583L12.6896 7.52743L12.6883 7.52781L12.6881 7.52789L12.6881 7.5279L12.4449 7.60484ZM12.4449 7.60484L12.688 7.5279L12.4449 7.60484Z" fill="#2E42A5" stroke="white" stroke-width="0.5"/>
<mask id="mask3_5190_107884" style="mask-type:luminance" maskUnits="userSpaceOnUse" x="11" y="2" width="5" height="6">
<path d="M12.4449 7.60484L12.3728 7.36014L11.5063 4.4164L11.4652 4.2769L11.5662 4.17224L12.8046 2.88833L12.954 2.73352L13.1293 2.85806L14.4921 3.82587L14.5864 3.89289L14.5964 4.00821L14.8486 6.93263L14.8711 7.19317L14.6098 7.2039L14.6098 7.2039L14.6098 7.2039L14.6096 7.20391L14.6085 7.20396L14.604 7.20415L14.586 7.20495L14.5182 7.20825C14.4602 7.21122 14.3788 7.21573 14.2856 7.2219C14.0976 7.23434 13.8666 7.25318 13.6814 7.27891C13.5044 7.3035 13.2594 7.36417 13.0504 7.42171C12.9477 7.44999 12.8567 7.47665 12.7915 7.49623C12.7589 7.50601 12.7328 7.514 12.715 7.51952L12.6946 7.52583L12.6896 7.52743L12.6883 7.52781L12.6881 7.52789L12.6881 7.5279L12.4449 7.60484ZM12.4449 7.60484L12.688 7.5279L12.4449 7.60484Z" fill="white" stroke="white" stroke-width="0.5"/>
</mask>
<g mask="url(#mask3_5190_107884)">
<path d="M12.438 6.63778L12.1875 6.0477C12.7255 5.8122 13.6343 5.66771 14.5907 5.61121L14.6275 6.25269C13.7384 6.30521 12.8974 6.4367 12.438 6.63778Z" fill="#C51918"/>
<path d="M12.0122 5.21042L11.7617 4.62034C12.2997 4.38484 13.4561 4.19419 14.4125 4.1377L14.4493 4.77918C13.5602 4.8317 12.4716 5.00933 12.0122 5.21042Z" fill="#C51918"/>
</g>
<path d="M18.9674 7.6066L19.0354 7.35468L19.8312 4.40609L19.8669 4.27369L19.7745 4.1724L18.6068 2.89333L18.4577 2.73002L18.2774 2.85806L16.9147 3.82587L16.8203 3.89289L16.8104 4.00821L16.5581 6.93263L16.5356 7.19317L16.7969 7.2039L16.7969 7.2039L16.7969 7.2039L16.7972 7.20391L16.7982 7.20396L16.8028 7.20415L16.8207 7.20495L16.8886 7.20825C16.9465 7.21122 17.0279 7.21573 17.1212 7.2219C17.3092 7.23434 17.5401 7.25318 17.7253 7.27891C17.9023 7.3035 18.1473 7.36417 18.3563 7.42171C18.4591 7.44999 18.55 7.47665 18.6152 7.49623C18.6478 7.50601 18.6739 7.514 18.6918 7.51952L18.7121 7.52583L18.7172 7.52743L18.7184 7.52781L18.7186 7.52789L18.7187 7.5279L18.9674 7.6066ZM18.9674 7.6066L18.7187 7.5279L18.9674 7.6066Z" fill="#2E42A5" stroke="white" stroke-width="0.5"/>
<mask id="mask4_5190_107884" style="mask-type:luminance" maskUnits="userSpaceOnUse" x="16" y="2" width="5" height="6">
<path d="M18.9674 7.6066L19.0354 7.35468L19.8312 4.40609L19.8669 4.27369L19.7745 4.1724L18.6068 2.89333L18.4577 2.73002L18.2774 2.85806L16.9147 3.82587L16.8203 3.89289L16.8104 4.00821L16.5581 6.93263L16.5356 7.19317L16.7969 7.2039L16.7969 7.2039L16.7969 7.2039L16.7972 7.20391L16.7982 7.20396L16.8028 7.20415L16.8207 7.20495L16.8886 7.20825C16.9465 7.21122 17.0279 7.21573 17.1212 7.2219C17.3092 7.23434 17.5401 7.25318 17.7253 7.27891C17.9023 7.3035 18.1473 7.36417 18.3563 7.42171C18.4591 7.44999 18.55 7.47665 18.6152 7.49623C18.6478 7.50601 18.6739 7.514 18.6918 7.51952L18.7121 7.52583L18.7172 7.52743L18.7184 7.52781L18.7186 7.52789L18.7187 7.5279L18.9674 7.6066ZM18.9674 7.6066L18.7187 7.5279L18.9674 7.6066Z" fill="white" stroke="white" stroke-width="0.5"/>
</mask>
<g mask="url(#mask4_5190_107884)">
<path fill-rule="evenodd" clip-rule="evenodd" d="M18.3972 6.46648C18.3972 6.46648 18.6912 6.30285 18.7336 6.02697C18.776 5.75109 19.2307 5.41129 19.0033 5.45173C18.776 5.49217 18.906 5.52376 18.5767 5.45173C18.2475 5.3797 17.8214 5.33206 17.8214 5.12967C17.8214 4.92728 18.0332 4.76665 17.8601 4.76665C17.6869 4.76665 17.3176 4.5751 17.3917 4.72151C17.4659 4.86792 17.2211 4.70237 17.3435 5.00633C17.4659 5.3103 17.3176 5.61652 17.3917 5.6971C17.4659 5.77767 17.3435 6.17286 17.3435 6.17286C17.3435 6.17286 17.3885 6.31964 17.4671 6.09979C17.5458 5.87995 17.7179 5.72585 17.6318 5.91282C17.5458 6.09979 17.436 6.54452 17.5339 6.46648C17.6318 6.38844 17.7292 6.17262 17.7292 6.09979C17.7292 6.02697 17.9763 5.74111 17.9763 5.95698C17.9763 6.17286 17.7438 6.34287 17.8601 6.34287C17.9763 6.34287 18.0415 6.38874 18.1145 6.17286C18.1876 5.95698 18.3651 5.81418 18.4379 5.95698C18.5107 6.09979 18.4946 6.09216 18.3972 6.27932C18.2999 6.46648 18.3972 6.46648 18.3972 6.46648Z" fill="#FECA00"/>
<path fill-rule="evenodd" clip-rule="evenodd" d="M17.7088 4.86644L17.5994 4.68333C17.7957 4.56232 17.9761 4.53007 18.1344 4.59754C18.2064 4.62822 18.2607 4.66317 18.4021 4.76262L18.4205 4.7756C18.5678 4.87885 18.6457 4.92091 18.6937 4.92091V5.1351C18.5839 5.1351 18.4889 5.08383 18.3007 4.95184L18.282 4.93869C18.1547 4.84917 18.1056 4.81752 18.0528 4.79505C17.9652 4.75773 17.8525 4.77788 17.7088 4.86644ZM17.3625 6.26338C17.4246 6.26338 17.475 6.21363 17.475 6.15227C17.475 6.0909 17.4246 6.04116 17.3625 6.04116C17.3004 6.04116 17.25 6.0909 17.25 6.15227C17.25 6.21363 17.3004 6.26338 17.3625 6.26338ZM17.6859 6.36646C17.6859 6.42782 17.6356 6.47757 17.5734 6.47757C17.5113 6.47757 17.4609 6.42782 17.4609 6.36646C17.4609 6.30509 17.5113 6.25535 17.5734 6.25535C17.6356 6.25535 17.6859 6.30509 17.6859 6.36646ZM17.9523 6.46931C18.0145 6.46931 18.0648 6.41956 18.0648 6.3582C18.0648 6.29683 18.0145 6.24709 17.9523 6.24709C17.8902 6.24709 17.8398 6.29683 17.8398 6.3582C17.8398 6.41956 17.8902 6.46931 17.9523 6.46931ZM18.4173 6.53602C18.4173 6.59738 18.3669 6.64713 18.3048 6.64713C18.2427 6.64713 18.1923 6.59738 18.1923 6.53602C18.1923 6.47465 18.2427 6.42491 18.3048 6.42491C18.3669 6.42491 18.4173 6.47465 18.4173 6.53602Z" fill="#C51918"/>
</g>
<path d="M21.3543 8.18587L21.2464 8.4346L21.0072 8.30687L21.0072 8.30687L21.0072 8.30685L21.007 8.30673L21.0058 8.30611L21.0007 8.30343L20.9802 8.29264C20.962 8.28315 20.9352 8.26927 20.9012 8.25199C20.833 8.2174 20.7364 8.16935 20.6227 8.11582C20.3936 8.00794 20.1025 7.88113 19.8393 7.79616C19.5665 7.70813 19.3221 7.63998 19.1459 7.59389C19.0579 7.57086 18.9872 7.55339 18.9387 7.54173L18.8834 7.52866L18.8695 7.52546L18.8661 7.52471L18.8654 7.52455L18.8653 7.52453L18.8653 7.52452L18.8653 7.52452L18.8653 7.52452L18.6069 7.46687L18.6793 7.21216L19.5253 4.23627L19.5598 4.11469L19.6782 4.07045L21.3366 3.45087L21.5304 3.37843L21.6378 3.55538L22.577 5.10349L22.6441 5.21405L22.5926 5.33269L21.3543 8.18587Z" fill="#56C6F5" stroke="white" stroke-width="0.5"/>
<mask id="mask5_5190_107884" style="mask-type:luminance" maskUnits="userSpaceOnUse" x="18" y="3" width="5" height="6">
<path d="M21.3543 8.18587L21.2464 8.4346L21.0072 8.30687L21.0072 8.30687L21.0072 8.30685L21.007 8.30673L21.0058 8.30611L21.0007 8.30343L20.9802 8.29264C20.962 8.28315 20.9352 8.26927 20.9012 8.25199C20.833 8.2174 20.7364 8.16935 20.6227 8.11582C20.3936 8.00794 20.1025 7.88113 19.8393 7.79616C19.5665 7.70813 19.3221 7.63998 19.1459 7.59389C19.0579 7.57086 18.9872 7.55339 18.9387 7.54173L18.8834 7.52866L18.8695 7.52546L18.8661 7.52471L18.8654 7.52455L18.8653 7.52453L18.8653 7.52452L18.8653 7.52452L18.8653 7.52452L18.6069 7.46687L18.6793 7.21216L19.5253 4.23627L19.5598 4.11469L19.6782 4.07045L21.3366 3.45087L21.5304 3.37843L21.6378 3.55538L22.577 5.10349L22.6441 5.21405L22.5926 5.33269L21.3543 8.18587Z" fill="white" stroke="white" stroke-width="0.5"/>
</mask>
<g mask="url(#mask5_5190_107884)">
<path fill-rule="evenodd" clip-rule="evenodd" d="M21.1281 5.08906L20.9862 5.24786C20.9548 5.28299 20.8966 5.26409 20.8918 5.2172L20.8703 5.00529L20.6618 4.96175C20.6157 4.95212 20.603 4.89227 20.6412 4.8647L20.814 4.74013L20.7474 4.53779C20.7327 4.49302 20.7782 4.45208 20.8211 4.4714L21.0154 4.55874L21.1574 4.39994C21.1888 4.3648 21.247 4.38371 21.2517 4.4306L21.2732 4.64251L21.4817 4.68604C21.5279 4.69567 21.5406 4.75553 21.5024 4.78309L21.3296 4.90767L21.3961 5.11C21.4109 5.15477 21.3654 5.19571 21.3224 5.17639L21.1281 5.08906Z" fill="#FECA00"/>
<path d="M18.9961 6.48749L19.2085 5.65833C20.1493 5.90682 21.13 6.22531 21.8494 6.53328L21.5216 7.32276C20.842 7.03182 19.8995 6.72611 18.9961 6.48749Z" fill="#E31D1C"/>
<path d="M19.2852 5.72186L19.3352 5.51379C20.2371 5.73761 21.1958 6.09474 21.8924 6.42736L21.8026 6.62119C21.1194 6.29496 20.174 5.94243 19.2852 5.72186Z" fill="white"/>
<path d="M19.0156 6.57647L19.0657 6.36841C19.9676 6.59223 20.8012 6.89592 21.4978 7.22854L21.4081 7.42237C20.7248 7.09614 19.9045 6.79705 19.0156 6.57647Z" fill="white"/>
<path d="M19.4219 6.17485L19.615 6.08765C19.6963 6.27796 19.7967 6.31989 19.9646 6.23832C20.3611 6.04566 21.3448 6.31489 21.3448 6.67792C21.3448 6.81955 21.2627 6.90542 21.1373 6.90044C21.0666 6.89764 20.9911 6.86969 20.8803 6.81493C20.8669 6.80829 20.8581 6.80384 20.8363 6.79276C20.7138 6.7303 20.7045 6.72574 20.6719 6.71399L20.7417 6.50934C20.7869 6.52562 20.794 6.5291 20.93 6.59848C20.951 6.60915 20.9592 6.61328 20.9717 6.61948C21.0566 6.66146 21.1134 6.68247 21.1455 6.68374C21.1484 6.68386 21.1338 6.69916 21.1338 6.67792C21.1338 6.51819 20.3333 6.29906 20.0547 6.43439C19.777 6.56935 19.5499 6.47454 19.4219 6.17485Z" fill="#272727"/>
</g>
</g>
</g>
</svg>
