<svg width="32" height="24" viewBox="0 0 32 24" fill="none" xmlns="http://www.w3.org/2000/svg">
<mask id="mask0_5190_107845" style="mask-type:luminance" maskUnits="userSpaceOnUse" x="0" y="0" width="32" height="24">
<rect width="32" height="24" fill="white"/>
</mask>
<g mask="url(#mask0_5190_107845)">
<path fill-rule="evenodd" clip-rule="evenodd" d="M0 0V24H32V0H0Z" fill="#2E42A5"/>
<mask id="mask1_5190_107845" style="mask-type:luminance" maskUnits="userSpaceOnUse" x="0" y="0" width="32" height="24">
<path fill-rule="evenodd" clip-rule="evenodd" d="M0 0V24H32V0H0Z" fill="white"/>
</mask>
<g mask="url(#mask1_5190_107845)">
<path fill-rule="evenodd" clip-rule="evenodd" d="M0 12V24H32V12H0Z" fill="#E31D1C"/>
<rect x="10" y="8" width="12" height="8" fill="white"/>
<mask id="mask2_5190_107845" style="mask-type:luminance" maskUnits="userSpaceOnUse" x="10" y="8" width="12" height="8">
<rect x="10" y="8" width="12" height="8" fill="white"/>
</mask>
<g mask="url(#mask2_5190_107845)">
<path fill-rule="evenodd" clip-rule="evenodd" d="M10 14.5778C10 14.5778 12.8803 13.8205 16 13.8667C19.1197 13.9129 22 14.7556 22 14.7556V16H10V14.5778Z" fill="#279E19"/>
<path d="M16.0725 8.90113C16.0725 8.90113 15.1414 8.48175 14.4915 8.48175C13.8415 8.48175 13.4805 9.12186 13.4805 9.12186" stroke="#026A16" stroke-width="0.5"/>
<path d="M16.2796 9.32149C16.2796 9.32149 15.4229 9.01508 14.8248 9.01508C14.2268 9.01508 13.8945 9.48277 13.8945 9.48277" stroke="#026A16" stroke-width="0.5"/>
<path d="M16.28 9.67709C16.28 9.67709 15.6462 9.37067 15.2038 9.37067C14.7614 9.37067 14.5156 9.83836 14.5156 9.83836" stroke="#026A16" stroke-width="0.5"/>
<path d="M16.0198 10.0326C16.0198 10.0326 15.6282 9.7262 15.3549 9.7262C15.0815 9.7262 14.9297 10.1939 14.9297 10.1939" stroke="#026A16" stroke-width="0.5"/>
<path d="M15.9866 10.2752C15.9866 10.2752 15.8301 10.0817 15.7208 10.0817C15.6115 10.0817 15.5508 10.377 15.5508 10.377" stroke="#026A16" stroke-width="0.5"/>
<path d="M15.9236 8.90113C15.9236 8.90113 16.8547 8.48175 17.5046 8.48175C18.1546 8.48175 18.5156 9.12186 18.5156 9.12186" stroke="#026A16" stroke-width="0.5"/>
<path d="M15.7165 9.32149C15.7165 9.32149 16.5732 9.01508 17.1713 9.01508C17.7693 9.01508 18.1016 9.48277 18.1016 9.48277" stroke="#026A16" stroke-width="0.5"/>
<path d="M15.7161 9.67709C15.7161 9.67709 16.3498 9.37067 16.7923 9.37067C17.2347 9.37067 17.4805 9.83836 17.4805 9.83836" stroke="#026A16" stroke-width="0.5"/>
<path d="M15.9763 10.0326C15.9763 10.0326 16.3679 9.7262 16.6412 9.7262C16.9146 9.7262 17.0664 10.1939 17.0664 10.1939" stroke="#026A16" stroke-width="0.5"/>
<path d="M16.0095 10.2752C16.0095 10.2752 16.166 10.0817 16.2753 10.0817C16.3846 10.0817 16.4453 10.377 16.4453 10.377" stroke="#026A16" stroke-width="0.5"/>
<path fill-rule="evenodd" clip-rule="evenodd" d="M15.8877 10.3982C15.8877 10.3982 15.7734 11.7356 15.7734 12.2799C15.7734 12.8242 15.8877 13.9986 15.8877 13.9986H16.1815C16.1815 13.9986 16.1815 12.7343 16.1815 12.2799C16.1815 11.8255 16.0091 10.3982 16.0091 10.3982H15.8877Z" fill="#FECA00"/>
<path fill-rule="evenodd" clip-rule="evenodd" d="M14.732 11.9185C14.732 11.9185 14.0078 12.3061 14.0078 13.4536L14.732 14.8392H16.0389V12.5575L14.732 11.9185Z" fill="#C51918"/>
<path fill-rule="evenodd" clip-rule="evenodd" d="M13.6596 10.826C13.6596 10.826 11.9688 11.3269 11.9688 13.1747L14.1594 13.3616C14.1594 13.3616 14.0397 12.288 14.7138 11.7914L13.6596 10.826Z" fill="#0A328C"/>
<path d="M12.9609 10.1209L15.8614 12.779" stroke="#FFD018" stroke-width="0.5"/>
<path d="M11.9531 10.7228L15.9986 13.3498" stroke="#FFD018" stroke-width="0.5"/>
<path d="M11.2578 11.7396L15.8174 13.8248" stroke="#FFD018" stroke-width="0.5"/>
<path fill-rule="evenodd" clip-rule="evenodd" d="M11.9805 13.1602L15.0061 13.4985L14.8358 13.9208H14.3561L14.6828 14.1593L15.4195 14.3318V13.9208H16.0647V14.7939H14.6828L14.1528 14.1593C14.1528 14.1593 13.7076 14.5982 13.2732 14.5982C12.8387 14.5982 12.4104 14.4556 12.4104 13.9771C12.4104 13.4985 12.4104 13.6441 12.4104 13.6441L11.9805 13.4985V13.1602Z" fill="#FECA00"/>
<path fill-rule="evenodd" clip-rule="evenodd" d="M16.8539 11.9185C16.8539 11.9185 17.5781 12.3061 17.5781 13.4536L16.8539 14.8392H15.547V12.5575L16.8539 11.9185Z" fill="#C51918"/>
<path fill-rule="evenodd" clip-rule="evenodd" d="M17.9264 10.826C17.9264 10.826 19.6172 11.3269 19.6172 13.1747L17.4266 13.3616C17.4266 13.3616 17.5462 12.288 16.8721 11.7914L17.9264 10.826Z" fill="#0A328C"/>
<path d="M18.625 10.1209L15.7245 12.779" stroke="#FFD018" stroke-width="0.5"/>
<path d="M19.6328 10.7228L15.5874 13.3498" stroke="#FFD018" stroke-width="0.5"/>
<path d="M20.3281 11.7396L15.7685 13.8248" stroke="#FFD018" stroke-width="0.5"/>
<path fill-rule="evenodd" clip-rule="evenodd" d="M19.6055 13.1602L16.5798 13.4985L16.7502 13.9208H17.2298L16.9031 14.1593L16.1664 14.3318V13.9208H15.5212V14.7939H16.9031L17.4332 14.1593C17.4332 14.1593 17.8783 14.5982 18.3128 14.5982C18.7472 14.5982 19.1755 14.4556 19.1755 13.9771C19.1755 13.4985 19.1755 13.6441 19.1755 13.6441L19.6055 13.4985V13.1602Z" fill="#FECA00"/>
</g>
</g>
</g>
</svg>
