<svg width="32" height="24" viewBox="0 0 32 24" fill="none" xmlns="http://www.w3.org/2000/svg">
<mask id="mask0_5190_107809" style="mask-type:luminance" maskUnits="userSpaceOnUse" x="0" y="0" width="32" height="24">
<rect width="32" height="24" fill="white"/>
</mask>
<g mask="url(#mask0_5190_107809)">
<path fill-rule="evenodd" clip-rule="evenodd" d="M0 0V24H32V0H0Z" fill="#F7FCFF"/>
<mask id="mask1_5190_107809" style="mask-type:luminance" maskUnits="userSpaceOnUse" x="0" y="0" width="32" height="24">
<path fill-rule="evenodd" clip-rule="evenodd" d="M0 0V24H32V0H0Z" fill="white"/>
</mask>
<g mask="url(#mask1_5190_107809)">
<path fill-rule="evenodd" clip-rule="evenodd" d="M0 3V6H32V3H0Z" fill="#3D58DB"/>
<path fill-rule="evenodd" clip-rule="evenodd" d="M0 18V21H32V18H0Z" fill="#3D58DB"/>
<path fill-rule="evenodd" clip-rule="evenodd" d="M11.3828 14.9387H20.7598L16.1175 6.62024L11.3828 14.9387ZM19.1548 13.9295H13.0221L16.1082 8.45988L19.1548 13.9295Z" fill="#3D58DB"/>
<path fill-rule="evenodd" clip-rule="evenodd" d="M11.2656 9.07606H20.6824L16.1375 17.1615L11.2656 9.07606ZM19.047 10.05H13.0526L16.1109 15.5312L19.047 10.05Z" fill="#3D58DB"/>
</g>
</g>
</svg>
