<svg width="32" height="24" viewBox="0 0 32 24" fill="none" xmlns="http://www.w3.org/2000/svg">
<mask id="mask0_5190_107775" style="mask-type:luminance" maskUnits="userSpaceOnUse" x="0" y="0" width="32" height="24">
<rect width="32" height="24" fill="white"/>
</mask>
<g mask="url(#mask0_5190_107775)">
<path fill-rule="evenodd" clip-rule="evenodd" d="M0 0V24H32V0H0Z" fill="#F7FCFF"/>
<mask id="mask1_5190_107775" style="mask-type:luminance" maskUnits="userSpaceOnUse" x="0" y="0" width="32" height="24">
<path fill-rule="evenodd" clip-rule="evenodd" d="M0 0V24H32V0H0Z" fill="white"/>
</mask>
<g mask="url(#mask1_5190_107775)">
<path fill-rule="evenodd" clip-rule="evenodd" d="M0 0V8H32V0H0Z" fill="#FF8C1A"/>
<path fill-rule="evenodd" clip-rule="evenodd" d="M0 16V24H32V16H0Z" fill="#5EAA22"/>
<path fill-rule="evenodd" clip-rule="evenodd" d="M12 12C12 14.2091 13.7909 16 16 16C18.2091 16 20 14.2091 20 12C20 9.79086 18.2091 8 16 8C13.7909 8 12 9.79086 12 12ZM19 12C19 13.6569 17.6569 15 16 15C14.3431 15 13 13.6569 13 12C13 10.3431 14.3431 9 16 9C17.6569 9 19 10.3431 19 12Z" fill="#3D58DB"/>
<path fill-rule="evenodd" clip-rule="evenodd" d="M15.993 12.8607L15.4221 15.9813L15.7536 12.8263L14.3267 15.6596L15.5336 12.7258L13.3663 15.0424L15.3508 12.5675L12.6187 14.1796L15.2201 12.364L12.1444 13.1411L15.152 12.132L11.9819 12.011L15.152 11.8901L12.1444 10.881L15.2201 11.6581L12.6187 9.84251L15.3508 11.4546L13.3663 8.9797L15.5336 11.2963L14.3267 8.36247L15.7536 11.1958L15.4221 8.04083L15.993 11.1614L16.5638 8.04083L16.2324 11.1958L17.6592 8.36247L16.4523 11.2963L18.6197 8.9797L16.6351 11.4546L19.3673 9.84251L16.7659 11.6581L19.8416 10.881L16.834 11.8901L20.004 12.011L16.834 12.132L19.8416 13.1411L16.7659 12.364L19.3673 14.1796L16.6351 12.5675L18.6197 15.0424L16.4523 12.7258L17.6592 15.6596L16.2324 12.8263L16.5638 15.9813L15.993 12.8607Z" fill="#3D58DB"/>
</g>
</g>
</svg>
