<svg width="32" height="24" viewBox="0 0 32 24" fill="none" xmlns="http://www.w3.org/2000/svg">
<mask id="mask0_5190_107495" style="mask-type:luminance" maskUnits="userSpaceOnUse" x="0" y="0" width="32" height="24">
<rect width="32" height="24" fill="white"/>
</mask>
<g mask="url(#mask0_5190_107495)">
<path fill-rule="evenodd" clip-rule="evenodd" d="M0 0V24H32V0H0Z" fill="#C51918"/>
<mask id="mask1_5190_107495" style="mask-type:luminance" maskUnits="userSpaceOnUse" x="0" y="0" width="32" height="24">
<path fill-rule="evenodd" clip-rule="evenodd" d="M0 0V24H32V0H0Z" fill="white"/>
</mask>
<g mask="url(#mask1_5190_107495)">
<path fill-rule="evenodd" clip-rule="evenodd" d="M15.9804 17.8668C16.0875 17.8668 16.194 17.864 16.2998 17.8585L16.9169 19.8262L17.0598 17.7705C17.2663 17.7331 17.469 17.6853 17.6675 17.6275L18.7255 19.4011L18.3864 17.3673C18.5776 17.2839 18.7635 17.1909 18.9436 17.0889L20.3864 18.5737L19.5829 16.6706C19.7488 16.5463 19.908 16.4136 20.0598 16.2731L21.8102 17.3887L20.5857 15.7204C20.7182 15.562 20.8426 15.3967 20.9582 15.2251L22.9201 15.9099L21.3419 14.5677C21.4341 14.3836 21.5168 14.1941 21.5896 13.9997L23.6563 14.2172L21.8094 13.2726C21.8558 13.073 21.8921 12.8695 21.9176 12.6628L23.9791 12.4016L21.9623 11.9049C21.9613 11.696 21.9494 11.4896 21.9272 11.2863L23.871 10.5612L21.7963 10.5393C21.7471 10.3364 21.6873 10.1377 21.6177 9.94358L23.3379 8.79511L21.316 9.24787C21.2209 9.06229 21.1162 8.88234 21.0026 8.70865L22.4086 7.19855L20.5474 8.10113C20.412 7.94245 20.2682 7.79093 20.1169 7.64722L21.1331 5.8576L19.534 7.15993C19.3654 7.03623 19.19 6.92111 19.0084 6.81522L19.5802 4.84455L18.3291 6.47483C18.1363 6.39309 17.9382 6.32111 17.7356 6.25952L17.8337 4.21402L16.9959 6.08516C16.7899 6.05021 16.5803 6.02571 16.3677 6.01224L15.9876 4L15.6077 6.01133C15.3946 6.02432 15.1846 6.04836 14.9782 6.0829L14.1415 4.21402L14.2393 6.25522C14.0356 6.3166 13.8364 6.38848 13.6425 6.47022L12.3949 4.84455L12.9646 6.80805C12.7814 6.91432 12.6044 7.02999 12.4343 7.15437L10.842 5.8576L11.8532 7.63834C11.7 7.7832 11.5546 7.93604 11.4175 8.09619L9.56656 7.19855L10.9641 8.69956C10.8488 8.87516 10.7426 9.05718 10.6462 9.24498L8.63723 8.79511L10.3458 9.93582C10.275 10.1324 10.2143 10.3338 10.1644 10.5394L8.10416 10.5612L10.0341 11.2811C10.0114 11.4873 9.99928 11.6966 9.9984 11.9085L7.99609 12.4016L10.0429 12.6609C10.0687 12.8706 10.1056 13.0768 10.1529 13.2791L8.31885 14.2172L10.3716 14.0012C10.4454 14.198 10.5295 14.39 10.6231 14.5763L9.05502 15.9099L11.0053 15.2292C11.1223 15.4026 11.2484 15.5697 11.3827 15.7296L10.1649 17.3887L11.9068 16.2786C12.0602 16.4201 12.2211 16.5537 12.3888 16.6788L11.5887 18.5737L13.0265 17.0941C13.2079 17.1965 13.3952 17.2897 13.5878 17.3732L13.2497 19.4011L14.3055 17.6311C14.5047 17.6886 14.7083 17.7361 14.9155 17.7731L15.0582 19.8262L15.6751 17.8592C15.7762 17.8643 15.878 17.8668 15.9804 17.8668ZM20.4804 11.9157C20.4804 14.4005 18.4495 16.4148 15.9444 16.4148C13.4392 16.4148 11.4084 14.4005 11.4084 11.9157C11.4084 9.43088 13.4392 7.41654 15.9444 7.41654C18.4495 7.41654 20.4804 9.43088 20.4804 11.9157ZM19.1085 13.3813C19.2978 12.9558 19.403 12.4846 19.403 11.9888C19.403 11.5045 19.3026 11.0437 19.1215 10.6259C18.3387 10.6816 17.6752 10.8876 17.1369 11.1513C18.3316 11.6739 18.8721 12.5342 19.1085 13.3813ZM18.723 14.0389C18.6252 14.1698 18.5183 14.2935 18.4032 14.409C18.3393 13.2285 17.8343 12.3283 16.9286 11.3571C18.05 11.8943 18.6825 13.1784 18.723 14.0389ZM17.8647 14.85C17.8013 14.892 17.7365 14.932 17.6702 14.9697C17.4011 13.6432 16.8913 12.5965 16.1818 11.76L16.3537 11.6304C16.3766 11.6131 16.3999 11.5959 16.4236 11.5787C17.3316 12.6228 17.9043 13.5186 17.8647 14.85ZM15.9737 15.4181C16.3762 15.4181 16.7624 15.3488 17.1212 15.2214C16.8605 13.9592 16.4064 12.7836 15.7492 11.9353C14.9639 12.8702 14.5643 13.9267 14.5496 15.1093C14.9833 15.3076 15.4656 15.4181 15.9737 15.4181ZM15.3137 11.529C15.341 11.5504 15.3671 11.5717 15.392 11.5929C14.5555 12.5443 14.0978 13.6172 14.0199 14.8074C13.9172 14.736 13.8185 14.6592 13.7243 14.5773C14.0395 13.3189 14.5621 12.2807 15.3137 11.529ZM12.8161 10.6491C13.6021 10.7376 14.2226 10.9287 14.6876 11.15C13.5024 11.6536 13.0357 12.4649 12.801 13.2925C12.6357 12.8906 12.5445 12.4504 12.5445 11.9888C12.5445 11.5135 12.6412 11.0607 12.8161 10.6491ZM13.2465 14.068C13.2201 14.0334 13.1943 13.9983 13.1692 13.9628C13.2285 13.0938 13.7819 11.8607 14.8998 11.3523C14.1499 12.0801 13.5889 12.9085 13.2465 14.068ZM13.5002 9.61372C14.1242 8.96401 15.0018 8.55962 15.9737 8.55962C16.9306 8.55962 17.7959 8.95149 18.4179 9.58351C17.4391 9.69703 16.609 9.94244 15.9351 10.3242C15.3342 9.97946 14.5219 9.74642 13.5002 9.61372Z" fill="#FFDC17"/>
</g>
</g>
</svg>
