<svg width="32" height="24" viewBox="0 0 32 24" fill="none" xmlns="http://www.w3.org/2000/svg">
<mask id="mask0_5190_107291" style="mask-type:luminance" maskUnits="userSpaceOnUse" x="0" y="0" width="32" height="24">
<rect width="32" height="24" fill="white"/>
</mask>
<g mask="url(#mask0_5190_107291)">
<path fill-rule="evenodd" clip-rule="evenodd" d="M0 0V24H32V0H0Z" fill="#E31D1C"/>
<mask id="mask1_5190_107291" style="mask-type:luminance" maskUnits="userSpaceOnUse" x="0" y="0" width="32" height="24">
<path fill-rule="evenodd" clip-rule="evenodd" d="M0 0V24H32V0H0Z" fill="white"/>
</mask>
<g mask="url(#mask1_5190_107291)">
<path fill-rule="evenodd" clip-rule="evenodd" d="M16.0068 9.96085C16.0234 9.96235 16.04 9.96398 16.0566 9.96572C16.1136 9.76972 16.2148 9.44831 16.3446 9.14436C16.5505 8.6623 17.145 8.39169 17.145 8.39169C17.145 8.39169 16.8512 8.72311 16.774 9.24836C16.7269 9.56923 16.7102 9.89544 16.7044 10.1007L16.7458 10.1141C16.8493 9.93702 17.0225 9.65537 17.2183 9.39668C17.5346 8.97873 18.177 8.86001 18.177 8.86001C18.177 8.86001 17.8117 9.1105 17.6097 9.60147C17.4925 9.8865 17.4008 10.1829 17.3445 10.3814C17.3652 10.3932 17.3856 10.4052 17.406 10.4174C17.5481 10.2677 17.7698 10.0448 18.0068 9.84678C18.4091 9.5107 19.0617 9.53953 19.0617 9.53953C19.0617 9.53953 18.6494 9.70143 18.3422 10.1344C18.1736 10.3719 18.025 10.6245 17.9252 10.8041C17.9472 10.8241 17.9688 10.8443 17.9902 10.8649C18.1623 10.7521 18.4122 10.5971 18.6702 10.4663C19.1377 10.2293 19.7671 10.4042 19.7671 10.4042C19.7671 10.4042 19.329 10.4692 18.9322 10.822C18.7294 11.0023 18.5406 11.1992 18.4045 11.3486C18.4233 11.3754 18.4417 11.4026 18.4597 11.43C18.6514 11.3641 18.9134 11.2815 19.1772 11.2211C19.6882 11.1043 20.2566 11.4263 20.2566 11.4263C20.2566 11.4263 19.8158 11.3834 19.3455 11.6297C19.1257 11.7447 18.9139 11.8761 18.7507 11.9834C18.7676 12.025 18.7838 12.0671 18.799 12.1095C18.9943 12.0903 19.2445 12.0723 19.492 12.0728C20.0161 12.0739 20.4975 12.5155 20.4975 12.5155C20.4975 12.5155 20.0777 12.3745 19.564 12.5087C19.3434 12.5663 19.1264 12.6388 18.9504 12.7028C18.9586 12.755 18.9654 12.8077 18.971 12.8606C19.1566 12.8858 19.3821 12.9225 19.6019 12.9738C20.1124 13.0928 20.4821 13.6313 20.4821 13.6313C20.4821 13.6313 20.1047 13.3995 19.574 13.4147C19.3648 13.4207 19.1557 13.4396 18.979 13.4603C18.9745 13.5179 18.9685 13.5751 18.961 13.6319C19.1264 13.6988 19.3196 13.7829 19.5051 13.8779C19.9716 14.1169 20.2001 14.7289 20.2001 14.7289C20.2001 14.7289 19.89 14.4127 19.3714 14.299C19.1852 14.2582 18.9963 14.2278 18.8308 14.2056C18.8097 14.2703 18.7867 14.3342 18.7617 14.3971C18.8988 14.4943 19.053 14.6098 19.1988 14.7327C19.5996 15.0704 19.6845 15.7182 19.6845 15.7182C19.6845 15.7182 19.4535 15.3403 18.9738 15.1129C18.8136 15.0369 18.6492 14.9693 18.5012 14.9128C18.4623 14.9754 18.4212 15.0365 18.3782 15.0962C18.4834 15.2154 18.5978 15.3522 18.7039 15.4935C19.0184 15.9128 18.9555 16.563 18.9555 16.563C18.9555 16.563 18.8154 16.1428 18.3991 15.8134C18.268 15.7096 18.1317 15.6122 18.0063 15.5274C17.9524 15.58 17.8965 15.6308 17.839 15.6796C17.9091 15.8158 17.983 15.9688 18.0485 16.1239C18.2523 16.6069 18.0339 17.2226 18.0339 17.2226C18.0339 17.2226 17.9996 16.781 17.6754 16.3606C17.5788 16.2352 17.4761 16.1142 17.3797 16.0061C17.3099 16.0472 17.2384 16.0858 17.1653 16.1218C17.2013 16.2651 17.2369 16.4233 17.2645 16.5818C17.3544 17.0982 17.0031 17.649 17.0031 17.649C17.0031 17.649 17.069 17.211 16.8477 16.7284C16.7833 16.5879 16.7124 16.4502 16.6442 16.3256C16.5651 16.3489 16.4848 16.3694 16.4034 16.3869C16.406 16.5316 16.4048 16.6898 16.3963 16.8465C16.3677 17.3699 15.9016 17.8275 15.9016 17.8275C15.9016 17.8275 16.0643 17.4156 15.9572 16.8956C15.926 16.7443 15.8879 16.5942 15.8496 16.4574C15.8019 16.4595 15.754 16.4605 15.7058 16.4605C15.6732 16.4605 15.6406 16.46 15.6082 16.4591C15.5755 16.6015 15.5358 16.7565 15.489 16.9082C15.3347 17.4091 14.7717 17.7404 14.7717 17.7404C14.7717 17.7404 15.0292 17.3801 15.0511 16.8497C15.0575 16.6944 15.0568 16.5387 15.0526 16.3961C14.9719 16.3799 14.8923 16.3608 14.8138 16.3389C14.7493 16.4718 14.6748 16.6158 14.5941 16.755C14.331 17.2083 13.7079 17.4045 13.7079 17.4045C13.7079 17.4045 14.0399 17.1113 14.1806 16.5994C14.2233 16.4438 14.2587 16.286 14.2873 16.1417C14.2154 16.1075 14.145 16.0708 14.0762 16.0317C13.9811 16.15 13.8727 16.2782 13.7589 16.3997C13.4006 16.7823 12.7493 16.8332 12.7493 16.8332C12.7493 16.8332 13.1388 16.6223 13.391 16.1551C13.4721 16.0048 13.5458 15.8501 13.6084 15.7096C13.5523 15.6633 13.4978 15.6152 13.4449 15.5654C13.3183 15.6623 13.1733 15.7674 13.0242 15.8638C12.584 16.1483 11.9398 16.0402 11.9398 16.0402C11.9398 16.0402 12.3687 15.9297 12.7264 15.5374C12.8485 15.4035 12.9636 15.2629 13.0623 15.1358C13.0204 15.0793 12.9802 15.0215 12.9419 14.9624C12.7901 15.032 12.6147 15.1069 12.4372 15.1711C11.9442 15.3493 11.3408 15.099 11.3408 15.099C11.3408 15.099 11.7836 15.0879 12.2204 14.7862C12.3821 14.6744 12.5376 14.5532 12.6693 14.4448C12.6447 14.3856 12.6218 14.3256 12.6007 14.2647C12.429 14.3009 12.2272 14.3378 12.0257 14.3621C11.5053 14.4249 10.9737 14.0452 10.9737 14.0452C10.9737 14.0452 11.4076 14.134 11.9011 13.9382C12.1011 13.8589 12.2965 13.7667 12.4581 13.6851C12.4502 13.6324 12.4436 13.5792 12.4383 13.5256C12.2528 13.5199 12.0281 13.5069 11.8074 13.4793C11.2873 13.4144 10.8633 12.9174 10.8633 12.9174C10.8633 12.9174 11.2629 13.1085 11.789 13.0379C12.0205 13.0069 12.2503 12.9598 12.4351 12.9169C12.4394 12.8676 12.4449 12.8186 12.4514 12.77C12.2638 12.7215 12.0292 12.6543 11.8029 12.5714C11.3108 12.3911 11.0094 11.8115 11.0094 11.8115C11.0094 11.8115 11.3558 12.0875 11.8843 12.1371C12.1387 12.161 12.3955 12.1658 12.5934 12.1643C12.6067 12.125 12.6208 12.0861 12.6356 12.0475C12.4575 11.956 12.2258 11.8294 12.0078 11.6872C11.5688 11.4008 11.4055 10.7682 11.4055 10.7682C11.4055 10.7682 11.6809 11.1151 12.1848 11.2824C12.4491 11.3701 12.7211 11.4363 12.9201 11.4795C12.9358 11.4546 12.9519 11.4299 12.9682 11.4054C12.8132 11.2713 12.6005 11.0779 12.408 10.8706C12.0513 10.4865 12.0459 9.83325 12.0459 9.83325C12.0459 9.83325 12.2292 10.2365 12.6776 10.5207C12.9282 10.6794 13.1933 10.8167 13.3784 10.9069C13.3975 10.8878 13.4169 10.869 13.4365 10.8504C13.314 10.6842 13.1382 10.4333 12.9882 10.1722C12.727 9.71771 12.8688 9.07999 12.8688 9.07999C12.8688 9.07999 12.9566 9.51411 13.3296 9.89187C13.5509 10.1159 13.7934 10.32 13.9542 10.449C13.9725 10.4375 13.9909 10.4262 14.0095 10.4151C13.927 10.2262 13.8051 9.92866 13.7135 9.62652C13.5613 9.12494 13.8428 8.53544 13.8428 8.53544C13.8428 8.53544 13.8307 8.9782 14.1092 9.43019C14.2814 9.70965 14.4811 9.97321 14.6084 10.1337C14.6208 10.1293 14.6333 10.125 14.6457 10.1208C14.6111 9.91945 14.5614 9.58728 14.5449 9.25824C14.5186 8.73474 14.9344 8.23087 14.9344 8.23087C14.9344 8.23087 14.8155 8.65756 14.9764 9.16349C15.0769 9.47966 15.2086 9.78685 15.2933 9.97281C15.3095 9.97079 15.3257 9.9689 15.342 9.96711C15.3534 9.76391 15.3796 9.42465 15.4383 9.09617C15.5304 8.58016 16.0489 8.18274 16.0489 8.18274C16.0489 8.18274 15.8371 8.57176 15.88 9.10092C15.9069 9.43164 15.9661 9.76062 16.0068 9.96085Z" fill="#FFC84A"/>
<path fill-rule="evenodd" clip-rule="evenodd" d="M-0.793842 13.9201L1.821 12.8589C2.20215 12.7042 2.62893 12.7061 3.0087 12.8641L6.63945 14.3751C7.05025 14.546 7.51445 14.5337 7.91559 14.3412L10.8442 12.9357C11.2642 12.7341 11.7523 12.7306 12.1753 12.926L15.2427 14.343C15.656 14.5339 16.1319 14.5351 16.5461 14.3462L19.6849 12.9148C20.0989 12.726 20.5747 12.7271 20.9879 12.9179L24.0867 14.3485C24.4934 14.5362 24.9611 14.5404 25.3711 14.3598L28.7572 12.8689C29.1238 12.7074 29.5384 12.693 29.9153 12.8285L32.9511 13.9201V23.9337H-0.882812L-0.793842 13.9201Z" fill="#F7FCFF"/>
<mask id="mask2_5190_107291" style="mask-type:luminance" maskUnits="userSpaceOnUse" x="-1" y="12" width="34" height="12">
<path fill-rule="evenodd" clip-rule="evenodd" d="M-0.793842 13.9201L1.821 12.8589C2.20215 12.7042 2.62893 12.7061 3.0087 12.8641L6.63945 14.3751C7.05025 14.546 7.51445 14.5337 7.91559 14.3412L10.8442 12.9357C11.2642 12.7341 11.7523 12.7306 12.1753 12.926L15.2427 14.343C15.656 14.5339 16.1319 14.5351 16.5461 14.3462L19.6849 12.9148C20.0989 12.726 20.5747 12.7271 20.9879 12.9179L24.0867 14.3485C24.4934 14.5362 24.9611 14.5404 25.3711 14.3598L28.7572 12.8689C29.1238 12.7074 29.5384 12.693 29.9153 12.8285L32.9511 13.9201V23.9337H-0.882812L-0.793842 13.9201Z" fill="white"/>
</mask>
<g mask="url(#mask2_5190_107291)">
<path d="M-0.792969 16.2457L1.82188 15.1845C2.20303 15.0298 2.6298 15.0317 3.00957 15.1897L6.64032 16.7007C7.05112 16.8716 7.51532 16.8593 7.91646 16.6668L10.8451 15.2613C11.2651 15.0598 11.7532 15.0562 12.1762 15.2516L15.2436 16.6686C15.6569 16.8595 16.1328 16.8607 16.547 16.6718L19.6857 15.2405C20.0998 15.0516 20.5756 15.0528 20.9887 15.2435L24.0876 16.6741C24.4943 16.8618 24.962 16.866 25.372 16.6855L28.758 15.1945C29.1246 15.0331 29.5392 15.0186 29.9162 15.1541L32.952 16.2457" stroke="#015989" stroke-width="2"/>
<path d="M-0.792969 19.5747L1.82188 18.5135C2.20303 18.3588 2.6298 18.3607 3.00957 18.5187L6.64032 20.0296C7.05112 20.2006 7.51532 20.1883 7.91646 19.9958L10.8451 18.5903C11.2651 18.3887 11.7532 18.3852 12.1762 18.5805L15.2436 19.9976C15.6569 20.1885 16.1328 20.1897 16.547 20.0008L19.6857 18.5694C20.0998 18.3806 20.5756 18.3817 20.9887 18.5725L24.0876 20.0031C24.4943 20.1908 24.962 20.195 25.372 20.0144L28.758 18.5235C29.1246 18.362 29.5392 18.3476 29.9162 18.4831L32.952 19.5747" stroke="#015989" stroke-width="2"/>
<path fill-rule="evenodd" clip-rule="evenodd" d="M-0.792969 22.2272L0.298697 21.7842C1.6557 21.2335 3.17515 21.2402 4.52724 21.8029L6.64032 22.6822C7.05112 22.8532 7.51532 22.8409 7.91646 22.6483L9.14698 22.0578C10.6424 21.3401 12.3802 21.3274 13.886 22.023L15.2436 22.6502C15.6569 22.8411 16.1328 22.8423 16.547 22.6534L18.0159 21.9835C19.49 21.3113 21.184 21.3152 22.655 21.9943L24.0876 22.6556C24.4943 22.8434 24.962 22.8475 25.372 22.667L27.2961 21.8198C28.6013 21.2451 30.0774 21.1937 31.4194 21.6762L32.952 22.2272V25.5421H-0.609352L-0.792969 22.2272Z" fill="#015989"/>
</g>
<path fill-rule="evenodd" clip-rule="evenodd" d="M9.77734 3.41838C9.77734 3.41838 11.1693 3.41838 11.6379 3.41838C12.1065 3.41838 13.1637 2.70185 13.7752 2.9407C14.3866 3.17954 15.416 3.95065 15.416 3.95065C15.416 3.95065 17.1155 2.60913 18.1291 2.60913C19.1428 2.60913 20.9712 2.45996 20.9712 2.45996C20.9712 2.45996 20.5423 3.57343 19.3357 3.76204C18.1291 3.95065 16.6856 4.87437 16.6856 4.87437C16.6856 4.87437 18.3477 4.87437 18.6466 4.87437C18.9456 4.87437 19.3357 5.32516 19.3357 5.32516C19.3357 5.32516 18.5309 5.87201 18.1291 5.87201C17.7274 5.87201 17.2836 5.87201 17.2836 5.87201C17.2836 5.87201 16.4295 6.60498 15.3743 6.44902C14.3191 6.29307 13.4724 5.32516 13.4724 5.32516C13.4724 5.32516 12.5492 5.19283 12.5492 5.0336C12.5492 5.0336 12.44 4.98338 12.3897 4.98475C12.0993 4.99267 11.9057 5.04485 11.8091 5.0336C12.34 4.82644 12.5492 4.64316 12.5492 4.64316C12.5492 4.64316 12.9146 4.30041 13.1935 4.30041C13.4724 4.30041 14.4039 4.87437 14.4039 4.87437L14.6263 4.64316L13.4724 3.76204C11.119 4.00862 9.77734 3.41838 9.77734 3.41838Z" fill="#FFC84A"/>
</g>
</g>
</svg>
