<svg width="32" height="24" viewBox="0 0 32 24" fill="none" xmlns="http://www.w3.org/2000/svg">
<mask id="mask0_5190_106858" style="mask-type:luminance" maskUnits="userSpaceOnUse" x="0" y="0" width="32" height="24">
<rect width="32" height="24" fill="white"/>
</mask>
<g mask="url(#mask0_5190_106858)">
<path fill-rule="evenodd" clip-rule="evenodd" d="M0 0H32V22C32 23.1046 31.1046 24 30 24H2C0.895431 24 0 23.1046 0 22V0Z" fill="#C51918"/>
<path fill-rule="evenodd" clip-rule="evenodd" d="M0 0H32V24H0V0Z" fill="#E31D1C"/>
<path fill-rule="evenodd" clip-rule="evenodd" d="M22.4836 19.6261L16.1675 2.70056H15.8935L9.79688 19.6261L16.1283 15.821L22.4836 19.6261ZM15.4683 8.22198L16.1454 5.58363L16.8481 8.29755L18.8668 13.954L20.052 16.6926L17.4932 14.8899L16.1268 14.0718L14.7824 14.8798L12.2831 16.6926L13.4385 13.8979L15.4683 8.22198Z" fill="#579D20"/>
<path fill-rule="evenodd" clip-rule="evenodd" d="M12.664 13.4731L16.1599 15.797L19.4221 13.4731L25.6179 8.23639H6.38672L12.664 13.4731ZM12.7365 11.474L10.3589 10.0191H13.2596H19.0234H21.5822L19.5412 11.3118L16.1447 13.8888L12.7365 11.474Z" fill="#579D20"/>
</g>
</svg>
