<svg width="32" height="24" viewBox="0 0 32 24" fill="none" xmlns="http://www.w3.org/2000/svg">
<mask id="mask0_5190_106811" style="mask-type:luminance" maskUnits="userSpaceOnUse" x="0" y="0" width="32" height="24">
<rect width="32" height="24" fill="white"/>
</mask>
<g mask="url(#mask0_5190_106811)">
<path fill-rule="evenodd" clip-rule="evenodd" d="M22 0H32V24H22V0Z" fill="#D9071E"/>
<path fill-rule="evenodd" clip-rule="evenodd" d="M0 0H12V24H0V0Z" fill="#3D58DB"/>
<path fill-rule="evenodd" clip-rule="evenodd" d="M10 0H22V24H10V0Z" fill="#FBCD17"/>
<path fill-rule="evenodd" clip-rule="evenodd" d="M21.7206 19.6141L20.6675 20.1895L17.1769 13.8007L18.23 13.2253L21.7206 19.6141ZM10.5156 19.7678L11.5687 20.3431L15.0593 13.9543L14.0062 13.379L10.5156 19.7678Z" fill="#FD1900"/>
<path fill-rule="evenodd" clip-rule="evenodd" d="M11.3801 9.38903V14.9404C11.3801 16.1735 10.3183 17.7807 9.78275 18.3786C9.24722 18.9765 8.18359 20.3462 8.18359 20.3462V5.40833C8.18359 3.73276 9.78275 3.15718 9.78275 3.15718C9.78275 3.15718 11.1106 3.41987 11.3801 5.40833V7.34629C11.7911 7.66994 13.1635 8.66252 14.05 8.24352C15.1026 7.74601 15.4662 6.31905 15.4662 6.31905C15.4662 6.31905 15.3678 4.87916 14.9357 4.87916C14.5037 4.87916 14.4692 2.85089 16.1238 2.85089C17.7784 2.85089 17.9713 3.63271 17.9713 4.25594C17.9713 4.58263 17.7094 5.10692 17.4602 5.60585C17.234 6.05872 17.0182 6.49069 17.0182 6.73502C17.0182 7.24851 17.4051 8.24352 17.9713 8.24352C18.3683 8.24352 20.2782 7.50151 21.3836 7.05831V5.40833C21.6532 3.41987 22.981 3.15718 22.981 3.15718C22.981 3.15718 24.5801 3.73276 24.5801 5.40833V20.3462C24.5801 20.3462 23.5165 18.9765 22.981 18.3786C22.4454 17.7807 21.3836 16.1735 21.3836 14.9404V9.38903H11.3801ZM13.1523 19.8322C14.2338 19.128 15.816 15.9702 15.816 15.9702L16.3413 16.0922C16.3413 16.0922 17.1434 18.1838 19.5017 19.8322C16.9879 20.5031 16.3413 21.8502 16.3413 21.8502C16.3413 20.7725 13.1523 19.8322 13.1523 19.8322ZM12.9781 17.8333C13.7071 17.8333 14.2981 17.2737 14.2981 16.5833C14.2981 15.893 13.7071 15.3333 12.9781 15.3333C12.2491 15.3333 11.6581 15.893 11.6581 16.5833C11.6581 17.2737 12.2491 17.8333 12.9781 17.8333ZM20.7221 16.5833C20.7221 17.2737 20.1311 17.8333 19.4021 17.8333C18.673 17.8333 18.0821 17.2737 18.0821 16.5833C18.0821 15.893 18.673 15.3333 19.4021 15.3333C20.1311 15.3333 20.7221 15.893 20.7221 16.5833Z" fill="#A77B3B"/>
<path d="M25.1419 10.4077L26.0598 10.8044L22.3203 19.4563L21.4023 19.0596L25.1419 10.4077Z" fill="#FDFF00"/>
<path opacity="0.3" fill-rule="evenodd" clip-rule="evenodd" d="M11.043 7.83331H21.603V15.4722C21.603 15.4722 18.9159 16.2816 16.323 17.6097C14.4089 16.1898 11.043 15.4722 11.043 15.4722V7.83331Z" fill="#E1E5E8"/>
<mask id="mask1_5190_106811" style="mask-type:luminance" maskUnits="userSpaceOnUse" x="11" y="7" width="11" height="11">
<path fill-rule="evenodd" clip-rule="evenodd" d="M11.043 7.83331H21.603V15.4722C21.603 15.4722 18.9159 16.2816 16.323 17.6097C14.4089 16.1898 11.043 15.4722 11.043 15.4722V7.83331Z" fill="white"/>
</mask>
<g mask="url(#mask1_5190_106811)">
<rect x="11.043" y="12.8333" width="10.56" height="5" fill="#3D58DB"/>
<rect x="11.043" y="7.83331" width="10.56" height="5" fill="#FD1900"/>
<path fill-rule="evenodd" clip-rule="evenodd" d="M15.7894 10.0821L14.989 10.1484L15.4506 9.5257L14.9587 8.88086L15.7631 8.98444L16.0716 8.27336L16.4144 8.99959L17.2147 8.93336L16.7531 9.55601L17.245 10.2009L16.4406 10.0973L16.1322 10.8084L15.7894 10.0821Z" fill="#FDFF00"/>
<path fill-rule="evenodd" clip-rule="evenodd" d="M14.3546 8.67169C14.3546 8.67169 12.2047 9.97969 12.9213 10.9186C13.638 11.8576 14.5401 11.9778 14.5401 11.9778C14.5401 11.9778 12.3409 15.2771 16.2116 17.1619C20.3556 15.3423 18.1762 11.9778 18.1762 11.9778C18.1762 11.9778 19.4518 11.6955 19.7072 10.6803C19.9626 9.6651 18.0399 8.50067 18.0399 8.50067C18.0399 8.50067 19.2395 10.2395 18.9656 10.6803C18.6918 11.1212 17.2246 11.57 16.2116 11.57C15.1985 11.57 13.6341 11.2855 13.3816 10.5152C13.1291 9.74485 14.3546 8.67169 14.3546 8.67169Z" fill="#FDFF00"/>
<path fill-rule="evenodd" clip-rule="evenodd" d="M12.363 12L13.683 12.8333L12.363 13.6667L11.043 12.8333L12.363 12Z" fill="#FDFF00"/>
<path fill-rule="evenodd" clip-rule="evenodd" d="M20.2848 12L21.6048 12.8333L20.2848 13.6667L18.9648 12.8333L20.2848 12Z" fill="#FDFF00"/>
<path fill-rule="evenodd" clip-rule="evenodd" d="M12.3219 15.3C12.5428 15.3 12.7219 15.1209 12.7219 14.9C12.7219 14.6791 12.5428 14.5 12.3219 14.5C12.101 14.5 11.9219 14.6791 11.9219 14.9C11.9219 15.1209 12.101 15.3 12.3219 15.3Z" fill="#FDFF00"/>
<path fill-rule="evenodd" clip-rule="evenodd" d="M20.8348 14.5428C20.4914 14.2647 19.9651 14.3455 19.6593 14.7232C19.3534 15.1009 19.3838 15.6325 19.7272 15.9106C19.9138 16.0617 19.8164 15.4612 20.0989 15.0792C20.3361 14.7583 20.9915 14.6697 20.8348 14.5428Z" fill="#FDFF00"/>
</g>
<path fill-rule="evenodd" clip-rule="evenodd" d="M4.73828 11.529C4.73828 11.529 5.7924 12.7752 6.78497 12.3677C7.77753 11.9603 7.53689 10.4995 7.53689 10.4995L6.78497 11.1816H6.14491V11.529L5.64501 11.1816V11.529H4.73828ZM5.45121 13.444C5.45121 13.444 6.73599 14.5646 7.60158 14.2479C8.46717 13.9313 8.24981 12.4145 8.24981 12.4145L7.49789 13.0966H6.85783V13.444L6.35793 13.0966V13.444H5.45121ZM8.91101 15.9869C8.04542 16.3036 6.76064 15.183 6.76064 15.183H7.66737V14.8356L8.16727 15.183V14.8356H8.80733L9.55925 14.1535C9.55925 14.1535 9.7766 15.6703 8.91101 15.9869Z" fill="#048F02"/>
<path fill-rule="evenodd" clip-rule="evenodd" d="M13.9824 2.24847H12.9824V2.84406H12.5117V3.84406H12.9824V5.58869H13.9824V3.84406H14.5546V2.84406H13.9824V2.24847Z" fill="#FDFF00"/>
<path fill-rule="evenodd" clip-rule="evenodd" d="M15.1599 3.38452L12.8438 3.98117L15.1599 4.71305V3.38452Z" fill="#DB4400"/>
</g>
</svg>
