<svg width="32" height="24" viewBox="0 0 32 24" fill="none" xmlns="http://www.w3.org/2000/svg">
<mask id="mask0_5190_106626" style="mask-type:luminance" maskUnits="userSpaceOnUse" x="0" y="0" width="32" height="24">
<rect width="32" height="24" fill="white"/>
</mask>
<g mask="url(#mask0_5190_106626)">
<path fill-rule="evenodd" clip-rule="evenodd" d="M0 0H34V24H0V0Z" fill="#2993EC"/>
<path fill-rule="evenodd" clip-rule="evenodd" d="M6.21484 11.5833C6.21484 16.8761 10.5967 21.1667 16.0021 21.1667C21.4074 21.1667 25.7893 16.8761 25.7893 11.5833C25.7893 6.2906 21.4074 2 16.0021 2C10.5967 2 6.21484 6.2906 6.21484 11.5833ZM23.6617 11.5833C23.6617 15.7255 20.2323 19.0833 16.0021 19.0833C11.7718 19.0833 8.3425 15.7255 8.3425 11.5833C8.3425 7.4412 11.7718 4.08333 16.0021 4.08333C20.2323 4.08333 23.6617 7.4412 23.6617 11.5833Z" fill="#F1F9FF"/>
<path fill-rule="evenodd" clip-rule="evenodd" d="M7.06641 11.5833C7.06641 16.4158 11.0673 20.3333 16.0026 20.3333C20.9379 20.3333 24.9387 16.4158 24.9387 11.5833C24.9387 6.75082 20.9379 2.83331 16.0026 2.83331C11.0673 2.83331 7.06641 6.75082 7.06641 11.5833ZM24.5132 11.5833C24.5132 16.1857 20.7029 19.9166 16.0026 19.9166C11.3023 19.9166 7.49194 16.1857 7.49194 11.5833C7.49194 6.98094 11.3023 3.24998 16.0026 3.24998C20.7029 3.24998 24.5132 6.98094 24.5132 11.5833Z" fill="#E31D1C"/>
<path fill-rule="evenodd" clip-rule="evenodd" d="M16.0019 2.20831C15.8941 2.43099 15.8401 2.74741 15.8401 3.15758C15.8401 3.56775 15.6813 3.97834 15.3636 4.38934C15.3046 3.93684 15.2751 3.52625 15.2751 3.15758C15.2751 2.78891 15.5174 2.47249 16.0019 2.20831ZM18.2382 2.54693C18.083 2.73963 17.9592 3.03581 17.867 3.43547C17.7747 3.83513 17.5276 4.19947 17.1256 4.52848C17.1699 4.0743 17.2335 3.6676 17.3165 3.30838C17.3994 2.94916 17.7066 2.69534 18.2382 2.54693ZM19.7749 4.16785C19.9611 3.80239 20.1529 3.54494 20.3501 3.39551C19.7984 3.41092 19.4389 3.58287 19.2715 3.91136C19.1042 4.23985 18.944 4.61907 18.7912 5.04904C19.2608 4.82705 19.5887 4.53332 19.7749 4.16785ZM22.1931 4.68398C21.9673 4.78521 21.7226 4.99294 21.459 5.30715C21.1953 5.62136 20.8097 5.83379 20.3022 5.94445C20.5479 5.55989 20.7892 5.2264 21.0262 4.94398C21.2631 4.66156 21.6521 4.57489 22.1931 4.68398ZM22.8299 6.79608C23.1575 6.54923 23.4426 6.40188 23.6854 6.35402C23.1828 6.12604 22.7843 6.12299 22.4899 6.34486C22.1954 6.56673 21.8853 6.83739 21.5594 7.15683C22.0788 7.16318 22.5023 7.04292 22.8299 6.79608ZM24.7485 8.33623C24.5014 8.32393 24.189 8.39792 23.8115 8.55818C23.4339 8.71845 22.9939 8.73268 22.4915 8.60087C22.8849 8.36975 23.2514 8.18217 23.5907 8.03811C23.9301 7.89406 24.316 7.99343 24.7485 8.33623ZM24.3544 10.4909C24.7583 10.4197 25.0793 10.4178 25.3173 10.4854C24.973 10.0541 24.6193 9.87046 24.2563 9.93448C23.8932 9.9985 23.494 10.0988 23.0586 10.2355C23.5185 10.477 23.9504 10.5621 24.3544 10.4909ZM6.08594 9.76964C6.2865 9.91454 6.58875 10.0226 6.99269 10.0938C7.39663 10.1651 7.7734 10.3928 8.123 10.777C7.66712 10.7565 7.25765 10.7143 6.89458 10.6502C6.53151 10.5862 6.26196 10.2927 6.08594 9.76964ZM7.62311 8.18706C7.24555 8.0268 6.97535 7.85351 6.81253 7.6672C6.86638 8.21644 7.06299 8.56308 7.40236 8.70713C7.74172 8.85119 8.1312 8.98446 8.57078 9.10696C8.31657 8.65396 8.00068 8.34733 7.62311 8.18706ZM8.02907 5.77358C8.14199 5.99374 8.36223 6.22724 8.68981 6.47409C9.01739 6.72094 9.24971 7.09488 9.38679 7.59592C8.98989 7.37072 8.64423 7.14718 8.3498 6.92531C8.05536 6.70343 7.94845 6.31952 8.02907 5.77358ZM10.1269 5.04799C9.86328 4.73378 9.7012 4.45672 9.64071 4.2168C9.43934 4.73062 9.45715 5.12874 9.69413 5.41116C9.93111 5.69358 10.2176 5.98914 10.5537 6.29786C10.5328 5.77882 10.3906 5.3622 10.1269 5.04799ZM11.5746 3.06555C11.5795 3.31293 11.6751 3.61935 11.8613 3.98482C12.0476 4.35028 12.0924 4.78823 11.996 5.29865C11.738 4.92225 11.5253 4.5698 11.3579 4.24132C11.1906 3.91283 11.2628 3.5209 11.5746 3.06555ZM13.8029 3.34478C13.7107 2.94512 13.692 2.62467 13.747 2.38344C13.3344 2.74984 13.1695 3.11265 13.2524 3.47187C13.3354 3.8311 13.4565 4.22453 13.6157 4.65216C13.8328 4.18023 13.8952 3.74444 13.8029 3.34478Z" fill="#FDDA33"/>
<path fill-rule="evenodd" clip-rule="evenodd" d="M14.5899 5.75C14.2232 5.75 13.9503 6.089 14.0288 6.44728L14.4156 8.21501C14.4496 8.37032 14.5446 8.49935 14.672 8.57918C14.5545 8.67059 14.4729 8.80708 14.4541 8.96483L13.0666 20.6104C13.0411 20.824 13.1367 21.0334 13.3235 21.1402C13.8457 21.4388 14.978 22 16.1102 22C17.2424 22 18.3747 21.4388 18.8969 21.1402C19.0837 21.0334 19.1793 20.824 19.1538 20.6104L17.7663 8.96483C17.7475 8.80708 17.6659 8.67059 17.5484 8.57918C17.6758 8.49935 17.7708 8.37032 17.8048 8.21501L18.1916 6.44728C18.2701 6.089 17.9972 5.75 17.6305 5.75H14.5899Z" fill="#A7A7A7"/>
<path d="M6.51953 12.0128C6.5711 11.8478 6.74955 11.7549 6.91809 11.8054C7.08664 11.8559 7.18146 12.0307 7.12989 12.1957C7.04065 12.4813 7.04065 12.903 7.13909 13.4548C7.17686 13.6664 7.22175 13.8299 7.27696 13.9742C7.29895 14.0317 7.3217 14.0844 7.35209 14.1497C7.33856 14.1206 7.41274 14.2782 7.43078 14.319C7.52616 14.5349 7.56835 14.7241 7.56835 15.0013C7.56835 15.1739 7.42546 15.3138 7.2492 15.3138C7.07294 15.3138 6.93005 15.1739 6.93005 15.0013C6.93005 14.8119 6.9066 14.7067 6.84495 14.5671C6.83042 14.5343 6.76114 14.3871 6.77123 14.4088C6.73521 14.3314 6.70701 14.2661 6.6792 14.1934C6.60993 14.0123 6.55477 13.8115 6.51032 13.5623C6.39611 12.9222 6.39611 12.4077 6.51953 12.0128Z" fill="#73BE4A"/>
<path fill-rule="evenodd" clip-rule="evenodd" d="M16.2148 16.1791L12.1003 18.9826L13.5519 14.2847L9.55745 11.3194L14.569 11.2194L16.2148 6.58331L17.8606 11.2194L22.8722 11.3194L18.8778 14.2847L20.3293 18.9826L16.2148 16.1791Z" fill="#F7FCFF"/>
<path d="M25.5625 12.4295C25.5109 12.2644 25.3325 12.1716 25.1639 12.2221C24.9954 12.2726 24.9006 12.4473 24.9521 12.6123C25.0414 12.8979 25.0414 13.3196 24.9429 13.8714C24.9052 14.0831 24.8603 14.2465 24.8051 14.3908C24.7831 14.4484 24.7603 14.501 24.7299 14.5663C24.7435 14.5372 24.6693 14.6948 24.6513 14.7356C24.5559 14.9515 24.5137 15.1407 24.5137 15.4179C24.5137 15.5905 24.6566 15.7304 24.8328 15.7304C25.0091 15.7304 25.152 15.5905 25.152 15.4179C25.152 15.2285 25.1754 15.1233 25.2371 14.9838C25.2516 14.9509 25.3209 14.8037 25.3108 14.8254C25.3468 14.748 25.375 14.6827 25.4028 14.61C25.4721 14.4289 25.5273 14.2281 25.5717 13.979C25.6859 13.3388 25.6859 12.8244 25.5625 12.4295Z" fill="#73BE4A"/>
<path d="M16.0625 3.14758C16.0625 3.14758 17.2269 3.66632 16.724 4.48307" stroke="#73BE4A" stroke-linecap="round" stroke-linejoin="round"/>
<path d="M16.9141 3.14758C16.9141 3.14758 18.0784 3.66632 17.5756 4.48307" stroke="#73BE4A" stroke-linecap="round" stroke-linejoin="round"/>
<path d="M9.26017 6.35675C9.34459 6.21063 9.5219 6.16663 9.65621 6.25848C9.79051 6.35032 9.83095 6.54323 9.74653 6.68935C9.58456 6.9697 9.50025 7.35435 9.50025 7.84755C9.50025 8.02014 9.37165 8.16005 9.21302 8.16005C9.05438 8.16005 8.92578 8.02014 8.92578 7.84755C8.92578 7.2448 9.03502 6.74645 9.26017 6.35675Z" fill="#73BE4A"/>
<path d="M8.80884 9.21252C8.80884 9.38511 8.68024 9.52502 8.52161 9.52502C8.36297 9.52502 8.23438 9.38511 8.23438 9.21252V8.32235C8.23438 7.69248 8.33317 7.19645 8.5415 6.83422C8.62565 6.68791 8.80288 6.64352 8.93736 6.73507C9.07183 6.82661 9.11264 7.01943 9.02849 7.16574C8.88564 7.41414 8.80884 7.79968 8.80884 8.32235V9.21252Z" fill="#73BE4A"/>
<path d="M23.488 8.79589C23.488 8.96848 23.6166 9.10839 23.7753 9.10839C23.9339 9.10839 24.0625 8.96848 24.0625 8.79589V7.90572C24.0625 7.27586 23.9637 6.77983 23.7554 6.41759C23.6712 6.27129 23.494 6.22689 23.3595 6.31844C23.225 6.40999 23.1842 6.60281 23.2684 6.74911C23.4112 6.99751 23.488 7.38306 23.488 7.90572V8.79589Z" fill="#73BE4A"/>
<path d="M24.3357 10.2542C24.3357 10.4268 24.4643 10.5667 24.6229 10.5667C24.7816 10.5667 24.9102 10.4268 24.9102 10.2542V9.36404C24.9102 8.73417 24.8114 8.23814 24.603 7.87591C24.5189 7.7296 24.3417 7.68521 24.2072 7.77675C24.0727 7.8683 24.0319 8.06112 24.116 8.20743C24.2589 8.45582 24.3357 8.84137 24.3357 9.36404V10.2542Z" fill="#73BE4A"/>
</g>
</svg>
