<svg width="32" height="24" viewBox="0 0 32 24" fill="none" xmlns="http://www.w3.org/2000/svg">
<mask id="mask0_5190_106588" style="mask-type:luminance" maskUnits="userSpaceOnUse" x="0" y="0" width="32" height="24">
<rect width="32" height="24" fill="white"/>
</mask>
<g mask="url(#mask0_5190_106588)">
<path fill-rule="evenodd" clip-rule="evenodd" d="M0 0V24H32V0H0Z" fill="#1C7B4D"/>
<mask id="mask1_5190_106588" style="mask-type:luminance" maskUnits="userSpaceOnUse" x="0" y="0" width="32" height="24">
<path fill-rule="evenodd" clip-rule="evenodd" d="M0 0V24H32V0H0Z" fill="white"/>
</mask>
<g mask="url(#mask1_5190_106588)">
<path fill-rule="evenodd" clip-rule="evenodd" d="M0 0V6H32V0H0Z" fill="#E31D1C"/>
<path fill-rule="evenodd" clip-rule="evenodd" d="M0 18V24H32V18H0Z" fill="#E31D1C"/>
<path fill-rule="evenodd" clip-rule="evenodd" d="M16.2433 14.3786C21.4286 14.4073 22.8889 10.0651 22.8889 10.0651C22.5952 13.7799 20.5406 16.2991 16.2433 16.2991C11.946 16.2991 10.368 13.036 9.59766 9.78078C9.59766 9.78078 11.058 14.3498 16.2433 14.3786Z" fill="#FECA00"/>
<path fill-rule="evenodd" clip-rule="evenodd" d="M17.6371 9.81371L17.9739 11.7772L16.2105 10.8502L14.4472 11.7772L14.784 9.81371L13.3574 8.2799L15.3289 8.2799L16.2105 6.35019L17.0922 8.2799L19.0637 8.2799L17.6371 9.81371Z" fill="#FECA00"/>
</g>
</g>
</svg>
