<svg width="32" height="24" viewBox="0 0 32 24" fill="none" xmlns="http://www.w3.org/2000/svg">
<mask id="mask0_5190_106445" style="mask-type:luminance" maskUnits="userSpaceOnUse" x="0" y="0" width="32" height="24">
<rect width="32" height="24" fill="white"/>
</mask>
<g mask="url(#mask0_5190_106445)">
<path fill-rule="evenodd" clip-rule="evenodd" d="M0 0V24H32V0H0Z" fill="#F7FCFF"/>
<mask id="mask1_5190_106445" style="mask-type:luminance" maskUnits="userSpaceOnUse" x="0" y="0" width="32" height="24">
<path fill-rule="evenodd" clip-rule="evenodd" d="M0 0V24H32V0H0Z" fill="white"/>
</mask>
<g mask="url(#mask1_5190_106445)">
<path fill-rule="evenodd" clip-rule="evenodd" d="M0 0V8H32V0H0Z" fill="#FECA00"/>
<path fill-rule="evenodd" clip-rule="evenodd" d="M0 16V24H32V16H0Z" fill="#009933"/>
<path d="M0 7H-1V8V16V17H0H32H33V16V8V7H32H0Z" fill="#272727" stroke="white" stroke-width="2"/>
</g>
<path fill-rule="evenodd" clip-rule="evenodd" d="M0 0V24L18 12L0 0Z" fill="#F50100"/>
<mask id="mask2_5190_106445" style="mask-type:luminance" maskUnits="userSpaceOnUse" x="0" y="0" width="18" height="24">
<path fill-rule="evenodd" clip-rule="evenodd" d="M0 0V24L18 12L0 0Z" fill="white"/>
</mask>
<g mask="url(#mask2_5190_106445)">
<path fill-rule="evenodd" clip-rule="evenodd" d="M8.06695 14.3532L4.28801 17.4037L6.02139 13.3271L3.04297 10.4588H6.55858L8.00116 7L9.53334 10.4588H13.043L9.90722 13.3271L11.4766 17.4037L8.06695 14.3532Z" fill="#FECA00"/>
<path fill-rule="evenodd" clip-rule="evenodd" d="M6.15653 11.9842L5.51562 14.1247C5.51562 14.1247 7.67926 14.1033 7.93913 14.3219C8.72213 13.8336 10.3341 14.1247 10.3341 14.1247L9.47671 11.8339C9.47671 11.8339 8.38966 11.3414 7.93913 11.6114C6.83484 11.362 6.15653 11.9842 6.15653 11.9842Z" fill="#F7FCFF"/>
<path d="M11.5639 15.2163C11.73 15.4369 11.6859 15.7504 11.4653 15.9165C11.2447 16.0826 10.9312 16.0385 10.7651 15.8179L6.58498 10.2666C6.41887 10.046 6.46304 9.73253 6.68364 9.56643C6.90423 9.40032 7.21772 9.44449 7.38383 9.66508L11.5639 15.2163Z" fill="black"/>
<path d="M6.97422 9.8398L6.57422 9.3598" stroke="black" stroke-linecap="round" stroke-linejoin="round"/>
<path fill-rule="evenodd" clip-rule="evenodd" d="M5.60304 9.36255L4.39453 11.2979L4.99879 12.3446L6.38097 10.2903L6.62957 9.65514L6.38097 9.36255H5.60304Z" fill="black"/>
<path fill-rule="evenodd" clip-rule="evenodd" d="M4.03906 15.1086L4.62168 15.9303L9.1173 10.6112L9.30378 10.8196L10.3401 9.84472L11.9962 8.04303L10.3401 9.39662L9.80447 9.24811L9.30378 10.0347H8.80149L5.12941 14.1223L4.03906 15.1086Z" fill="black"/>
</g>
</g>
</svg>
