<svg width="32" height="24" viewBox="0 0 32 24" fill="none" xmlns="http://www.w3.org/2000/svg">
<mask id="mask0_5190_106431" style="mask-type:luminance" maskUnits="userSpaceOnUse" x="0" y="0" width="32" height="24">
<rect width="32" height="24" fill="white"/>
</mask>
<g mask="url(#mask0_5190_106431)">
<path fill-rule="evenodd" clip-rule="evenodd" d="M0 0V24H32V0H0Z" fill="#009933"/>
<mask id="mask1_5190_106431" style="mask-type:luminance" maskUnits="userSpaceOnUse" x="0" y="0" width="32" height="24">
<path fill-rule="evenodd" clip-rule="evenodd" d="M0 0V24H32V0H0Z" fill="white"/>
</mask>
<g mask="url(#mask1_5190_106431)">
<path fill-rule="evenodd" clip-rule="evenodd" d="M0 0V24L32 0H0Z" fill="#3195F9"/>
<path d="M-1.01369 27.0936L-0.483136 28.0548L0.424498 27.437L35.2564 3.72766L35.9585 3.24976L35.6005 2.47955L33.2587 -2.55963L32.7674 -3.61671L31.7973 -2.97039L-3.55838 20.5861L-4.32392 21.0962L-3.8794 21.9015L-1.01369 27.0936Z" fill="#E31D1C" stroke="#F7FCFF" stroke-width="2"/>
<path fill-rule="evenodd" clip-rule="evenodd" d="M6.22807 9.24476L4.93397 10.8593L4.62051 8.81402L2.69253 9.56518L3.44369 7.6372L1.39844 7.32374L3.01294 6.02964L1.39844 4.73555L3.44369 4.42208L2.69253 2.49411L4.62051 3.24526L4.93397 1.20001L6.22807 2.81452L7.52216 1.20001L7.83563 3.24526L9.7636 2.49411L9.01244 4.42208L11.0577 4.73555L9.44319 6.02964L11.0577 7.32374L9.01244 7.6372L9.7636 9.56518L7.83563 8.81402L7.52216 10.8593L6.22807 9.24476ZM6.22807 8.52964C7.60878 8.52964 8.72807 7.41035 8.72807 6.02964C8.72807 4.64893 7.60878 3.52964 6.22807 3.52964C4.84735 3.52964 3.72807 4.64893 3.72807 6.02964C3.72807 7.41035 4.84735 8.52964 6.22807 8.52964ZM8.22807 6.02964C8.22807 7.13421 7.33264 8.02964 6.22807 8.02964C5.1235 8.02964 4.22807 7.13421 4.22807 6.02964C4.22807 4.92507 5.1235 4.02964 6.22807 4.02964C7.33264 4.02964 8.22807 4.92507 8.22807 6.02964Z" fill="#FECA00"/>
</g>
</g>
</svg>
