<svg width="32" height="24" viewBox="0 0 32 24" fill="none" xmlns="http://www.w3.org/2000/svg">
<rect width="32" height="24" fill="white"/>
<path d="M11.6159 12.3201L20.9325 23.5H0.5V0.842271L20.0392 11.5H12H10.9325L11.6159 12.3201Z" fill="#C51918" stroke="#4857A1"/>
<mask id="mask0_5190_106333" style="mask-type:luminance" maskUnits="userSpaceOnUse" x="0" y="0" width="22" height="24">
<path d="M11.6159 12.3201L20.9325 23.5H0.5V0.842271L20.0392 11.5H12H10.9325L11.6159 12.3201Z" fill="white" stroke="white"/>
</mask>
<g mask="url(#mask0_5190_106333)">
<path fill-rule="evenodd" clip-rule="evenodd" d="M5.82963 20.0102L4.60446 21.6003L4.54791 19.5938L2.6221 20.16L3.75576 18.5035L1.86491 17.8296L3.75576 17.1558L2.6221 15.4992L4.54791 16.0655L4.60446 14.059L5.82963 15.649L7.0548 14.059L7.11135 16.0655L9.03716 15.4992L7.9035 17.1558L9.79435 17.8296L7.9035 18.5035L9.03716 20.16L7.11135 19.5938L7.0548 21.6003L5.82963 20.0102Z" fill="#F7FCFF"/>
<path fill-rule="evenodd" clip-rule="evenodd" d="M5.80078 8.1388L5.16095 8.96921L5.13141 7.92131L4.12567 8.21704L4.71771 7.35191L3.73023 7L4.71771 6.64809L4.12567 5.78296L5.13141 6.07869L5.16095 5.03079L5.80078 5.8612L6.44062 5.03079L6.47015 6.07869L7.47589 5.78296L6.88385 6.64809L7.87133 7L6.88385 7.35191L7.47589 8.21704L6.47015 7.92131L6.44062 8.96921L5.80078 8.1388Z" fill="#F7FCFF"/>
<path fill-rule="evenodd" clip-rule="evenodd" d="M5.66764 7.89408C7.89396 7.90297 9.08096 6.63998 9.08096 6.63998C9.31579 8.08114 7.50277 9.03998 5.68934 9.03998C3.87592 9.03998 2.77798 7.73296 2.10156 6.63998C2.10156 6.63998 3.44133 7.88518 5.66764 7.89408Z" fill="#F9FAFA"/>
</g>
</svg>
