<svg width="32" height="24" viewBox="0 0 32 24" fill="none" xmlns="http://www.w3.org/2000/svg">
<mask id="mask0_5190_106231" style="mask-type:luminance" maskUnits="userSpaceOnUse" x="0" y="0" width="32" height="24">
<rect width="32" height="24" fill="white"/>
</mask>
<g mask="url(#mask0_5190_106231)">
<path fill-rule="evenodd" clip-rule="evenodd" d="M0 0V24H32V0H0Z" fill="#F7FCFF"/>
<mask id="mask1_5190_106231" style="mask-type:luminance" maskUnits="userSpaceOnUse" x="0" y="0" width="32" height="24">
<path fill-rule="evenodd" clip-rule="evenodd" d="M0 0V24H32V0H0Z" fill="white"/>
</mask>
<g mask="url(#mask1_5190_106231)">
<path fill-rule="evenodd" clip-rule="evenodd" d="M16 0V12H32V0H16Z" fill="#E31D1C"/>
<path fill-rule="evenodd" clip-rule="evenodd" d="M23.0219 19.1497L20.7195 20.5744L21.6133 18.1827L19.6562 16.372H22.03L23.0219 13.7849L23.7788 16.372H26.1562L24.4429 18.1827L25.2817 20.5744L23.0219 19.1497Z" fill="#E31D1C"/>
<path fill-rule="evenodd" clip-rule="evenodd" d="M9.02189 8.36481L6.71945 9.78952L7.61332 7.39778L5.65625 5.5871H8.03004L9.02189 3L9.7788 5.5871H12.1562L10.4429 7.39778L11.2817 9.78952L9.02189 8.36481Z" fill="#2E42A5"/>
<path fill-rule="evenodd" clip-rule="evenodd" d="M0 12V24H16V12H0Z" fill="#2E42A5"/>
</g>
</g>
</svg>
