<svg width="32" height="24" viewBox="0 0 32 24" fill="none" xmlns="http://www.w3.org/2000/svg">
<mask id="mask0_5190_106139" style="mask-type:luminance" maskUnits="userSpaceOnUse" x="0" y="0" width="32" height="24">
<rect width="32" height="24" fill="white"/>
</mask>
<g mask="url(#mask0_5190_106139)">
<path fill-rule="evenodd" clip-rule="evenodd" d="M0 0V24H32V0H0Z" fill="#F7FCFF"/>
<mask id="mask1_5190_106139" style="mask-type:luminance" maskUnits="userSpaceOnUse" x="0" y="0" width="32" height="24">
<path fill-rule="evenodd" clip-rule="evenodd" d="M0 0V24H32V0H0Z" fill="white"/>
</mask>
<g mask="url(#mask1_5190_106139)">
<path fill-rule="evenodd" clip-rule="evenodd" d="M0 0V6H32V0H0Z" fill="#BF2714"/>
<path fill-rule="evenodd" clip-rule="evenodd" d="M0 18V24H32V18H0Z" fill="#BF2714"/>
<mask id="mask2_5190_106139" style="mask-type:luminance" maskUnits="userSpaceOnUse" x="10" y="6" width="12" height="12">
<path fill-rule="evenodd" clip-rule="evenodd" d="M16 18C19.3137 18 22 15.3137 22 12C22 8.68629 19.3137 6 16 6C12.6863 6 10 8.68629 10 12C10 15.3137 12.6863 18 16 18Z" fill="white"/>
</mask>
<g mask="url(#mask2_5190_106139)">
<path fill-rule="evenodd" clip-rule="evenodd" d="M10.5458 13.7648C10.4911 13.5933 10.6763 13.4444 10.8319 13.5348L11.2056 13.7516C11.2614 13.784 11.3294 13.787 11.3878 13.7597L12.3103 13.3277C12.3749 13.2975 12.4509 13.3046 12.5088 13.3464L13.5053 14.0656L14.8827 13.3239C14.9358 13.2954 14.9991 13.2927 15.0544 13.3167L16.0918 13.7674C16.1443 13.7902 16.204 13.789 16.2555 13.7642L17.1862 13.3162C17.2359 13.2923 17.2933 13.2903 17.3445 13.3108L18.496 13.7707C18.5478 13.7914 18.6061 13.7891 18.6562 13.7644L19.5481 13.3231C19.6045 13.2952 19.6708 13.296 19.7266 13.3251L20.5447 13.7536C20.6039 13.7845 20.6747 13.7834 20.7329 13.7504L21.1583 13.5094C21.31 13.4235 21.4902 13.5627 21.4454 13.7311L21.3565 14.0656H10.6418L10.5458 13.7648Z" fill="#5277B9"/>
<path fill-rule="evenodd" clip-rule="evenodd" d="M10.5421 14.9506C10.4889 14.7781 10.6768 14.6311 10.8315 14.7242L11.1714 14.9287C11.2284 14.9629 11.2989 14.9661 11.3587 14.9371L12.2359 14.5113C12.3022 14.4792 12.3808 14.4867 12.4397 14.5308L13.3956 15.2459L14.7193 14.5072C14.7737 14.4769 14.8392 14.4741 14.8959 14.4996L15.8857 14.9453C15.9395 14.9695 16.0014 14.9683 16.0543 14.9419L16.9419 14.499C16.9929 14.4736 17.0524 14.4715 17.105 14.4933L18.2052 14.9488C18.2585 14.9709 18.3188 14.9684 18.3702 14.9421L19.2199 14.5064C19.2777 14.4767 19.3464 14.4775 19.4035 14.5085L20.1811 14.9306C20.2417 14.9635 20.3151 14.9623 20.3746 14.9274L20.7647 14.6983C20.9155 14.6097 21.0983 14.7474 21.0548 14.9168L20.9705 15.2459H10.633L10.5421 14.9506Z" fill="#5277B9"/>
<path fill-rule="evenodd" clip-rule="evenodd" d="M10.7413 15.7375C10.6881 15.565 10.876 15.418 11.0307 15.5111L11.3707 15.7155C11.4276 15.7498 11.4981 15.753 11.5579 15.7239L12.4352 15.2982C12.5014 15.2661 12.58 15.2736 12.6389 15.3177L13.5948 16.0328L14.9185 15.2941C14.9729 15.2638 15.0384 15.261 15.0951 15.2865L16.0849 15.7322C16.1387 15.7564 16.2006 15.7552 16.2535 15.7288L17.1412 15.2859C17.1921 15.2605 17.2516 15.2584 17.3042 15.2802L18.4044 15.7357C18.4577 15.7578 18.5181 15.7553 18.5694 15.729L19.4191 15.2933C19.4769 15.2636 19.5456 15.2644 19.6027 15.2954L20.3804 15.7175C20.441 15.7504 20.5144 15.7492 20.5738 15.7142L20.9639 15.4852C21.1147 15.3966 21.2975 15.5343 21.2541 15.7037L21.1697 16.0328H10.8322L10.7413 15.7375Z" fill="#5277B9"/>
<path fill-rule="evenodd" clip-rule="evenodd" d="M11.921 16.5244C11.8678 16.3519 12.0557 16.2049 12.2104 16.2979L12.5503 16.5024C12.6073 16.5367 12.6778 16.5399 12.7376 16.5108L13.6149 16.0851C13.6811 16.053 13.7597 16.0605 13.8186 16.1045L14.7745 16.8197L16.0982 16.081C16.1526 16.0507 16.2181 16.0478 16.2748 16.0734L17.2646 16.5191C17.3184 16.5433 17.3803 16.5421 17.4332 16.5157L18.3208 16.0728C18.3718 16.0474 18.4313 16.0453 18.4839 16.0671L19.5841 16.5226C19.6374 16.5446 19.6977 16.5422 19.7491 16.5159L20.5988 16.0801C20.6566 16.0505 20.7253 16.0513 20.7824 16.0823L21.56 16.5044C21.6206 16.5373 21.694 16.536 21.7535 16.5011L22.1436 16.2721C22.2944 16.1835 22.4772 16.3211 22.4337 16.4906L22.3494 16.8197H12.0119L11.921 16.5244Z" fill="#5277B9"/>
<path fill-rule="evenodd" clip-rule="evenodd" d="M10.3467 17.508C10.2936 17.3355 10.4815 17.1885 10.6361 17.2815L10.9761 17.486C11.0331 17.5203 11.1036 17.5235 11.1634 17.4944L12.0406 17.0687C12.1068 17.0366 12.1854 17.0441 12.2444 17.0882L13.2003 17.8033L14.524 17.0646C14.5783 17.0343 14.6438 17.0315 14.7006 17.057L15.6904 17.5027C15.7442 17.5269 15.8061 17.5257 15.859 17.4993L16.7466 17.0564C16.7976 17.031 16.8571 17.0289 16.9097 17.0507L18.0099 17.5062C18.0632 17.5283 18.1235 17.5258 18.1749 17.4995L19.0246 17.0638C19.0824 17.0341 19.1511 17.0349 19.2082 17.0659L19.9858 17.488C20.0464 17.5209 20.1198 17.5196 20.1793 17.4847L20.5694 17.2557C20.7202 17.1671 20.903 17.3047 20.8595 17.4742L20.7752 17.8033H10.4377L10.3467 17.508Z" fill="#5277B9"/>
<path d="M14.4233 14.1379V15.1379C13.579 15.1379 12.9816 14.6195 12.6911 13.6988L12.668 13.5484V9.44583H13.668V13.468C13.8346 13.9484 14.0689 14.1379 14.4233 14.1379Z" fill="#FF0000"/>
<path d="M17.1939 14.1379V15.1379C18.0382 15.1379 18.6356 14.6195 18.926 13.6988L18.9492 13.5484V9.44583H17.9492V13.468C17.7826 13.9484 17.5482 14.1379 17.1939 14.1379Z" fill="#FF0000"/>
<path fill-rule="evenodd" clip-rule="evenodd" d="M16.7253 6.90863C16.7253 6.90863 15.0664 6.47486 15.0664 7.5748C15.0664 8.67475 15.0664 11.0369 15.0664 11.0369L17.0004 11.6113V8.78148C17.0004 8.78148 16.0334 8.19063 16.0334 7.72856C16.0334 7.26649 16.7253 6.90863 16.7253 6.90863Z" fill="#FF0000"/>
<path d="M13.9336 12.8907L14.5643 12.0847" stroke="black"/>
<path d="M14.5106 12.8641L13.9062 12.0533" stroke="black"/>
<path d="M14.8359 12.8907L15.4666 12.0847" stroke="black"/>
<path d="M15.4129 12.8641L14.8086 12.0533" stroke="black"/>
<path d="M15.7031 12.8907L16.3338 12.0847" stroke="black"/>
<path d="M16.2801 12.8641L15.6758 12.0533" stroke="black"/>
<path d="M16.6055 12.8907L17.2362 12.0847" stroke="black"/>
<path d="M17.1824 12.8641L16.5781 12.0533" stroke="black"/>
<path d="M17.5117 12.8907L18.1424 12.0847" stroke="black"/>
<path d="M18.0887 12.8641L17.4844 12.0533" stroke="black"/>
<path fill-rule="evenodd" clip-rule="evenodd" d="M13.4545 7.09481L14.6514 9.43307L14.7988 7.09481L14.6514 6.63422L13.4545 7.09481ZM12.855 9.09021L11.9927 8.17592L12.855 7.14837L14.6674 10.0457V10.7822L13.7959 10.0457V9.09021H12.855ZM10.9566 9.7946L12.5294 10.5476L12.6523 9.38427L11.3428 8.26536L10.9566 9.7946ZM12.6088 11.7256L10.5399 11.514V10.0549L12.6088 10.8507V11.7256ZM10.4838 13.1589L10.2383 11.9182L12.5703 12.0344V13.1589H10.4838ZM13.7673 11.1203V10.42L14.6395 11.1203L14.5448 11.49L13.7673 11.1203ZM21.8807 11.9182L21.6352 13.1589H19.5487V12.0344L21.8807 11.9182ZM19.5102 11.7256L21.5791 11.514V10.0549L19.5102 10.8507V11.7256ZM21.1624 9.7946L19.5896 10.5476L19.4667 9.38427L20.7762 8.26536L21.1624 9.7946ZM19.2641 9.09021L20.1264 8.17592L19.2641 7.14837L17.4516 10.0457V10.7822L18.3231 10.0457V9.09021H19.2641ZM18.6645 7.09481L17.4676 9.43307L17.3202 7.09481L17.4676 6.63422L18.6645 7.09481ZM18.3517 11.1203V10.42L17.4795 11.1203L17.5742 11.49L18.3517 11.1203Z" fill="#FA8F21"/>
</g>
</g>
</g>
</svg>
