<svg width="32" height="24" viewBox="0 0 32 24" fill="none" xmlns="http://www.w3.org/2000/svg">
<mask id="mask0_5190_106076" style="mask-type:luminance" maskUnits="userSpaceOnUse" x="0" y="0" width="32" height="24">
<rect width="32" height="24" fill="white"/>
</mask>
<g mask="url(#mask0_5190_106076)">
<path fill-rule="evenodd" clip-rule="evenodd" d="M8 0H32V24H8V0Z" fill="#2F8D00"/>
<path fill-rule="evenodd" clip-rule="evenodd" d="M0 0H8V24H0V0Z" fill="#F7FCFF"/>
<path fill-rule="evenodd" clip-rule="evenodd" d="M22.4303 15.3062C22.4303 15.3062 17.9645 16.4705 14.4198 14.0956C10.8752 11.7206 12.657 6.24775 12.657 6.24775C10.8081 6.5168 7.90441 13.2627 12.5848 16.6461C17.2652 20.0296 21.749 16.7772 22.4303 15.3062ZM17.4746 8.86648L15.1031 10.0261L17.6049 10.4717L17.9426 12.9172L19.3597 10.8344L22.1482 11.0225L19.9641 9.39355L21.1269 7.21719L18.9525 8.21305L17.3373 6.69437L17.4746 8.86648Z" fill="#F1F9FF"/>
</g>
</svg>
