<svg width="32" height="24" viewBox="0 0 32 24" fill="none" xmlns="http://www.w3.org/2000/svg">
<mask id="mask0_5190_105927" style="mask-type:luminance" maskUnits="userSpaceOnUse" x="0" y="0" width="32" height="24">
<rect width="32" height="24" fill="white"/>
</mask>
<g mask="url(#mask0_5190_105927)">
<path fill-rule="evenodd" clip-rule="evenodd" d="M0 0V24H32V0H0Z" fill="#2E42A5"/>
<mask id="mask1_5190_105927" style="mask-type:luminance" maskUnits="userSpaceOnUse" x="0" y="0" width="32" height="24">
<path fill-rule="evenodd" clip-rule="evenodd" d="M0 0V24H32V0H0Z" fill="white"/>
</mask>
<g mask="url(#mask1_5190_105927)">
<rect width="18" height="14" fill="#2B409A"/>
<mask id="mask2_5190_105927" style="mask-type:luminance" maskUnits="userSpaceOnUse" x="0" y="0" width="18" height="14">
<rect width="18" height="14" fill="white"/>
</mask>
<g mask="url(#mask2_5190_105927)">
<path d="M-2.00391 12.9998L1.95704 14.737L18.0902 1.88872L20.1796 -0.69281L15.9439 -1.27343L9.36354 4.26326L4.06704 7.99369L-2.00391 12.9998Z" fill="#F7FCFF"/>
<path d="M-1.46094 14.2169L0.556984 15.225L19.43 -0.932678H16.5966L-1.46094 14.2169Z" fill="#F50100"/>
<path d="M20.0039 12.9998L16.043 14.737L-0.0902405 1.88872L-2.17955 -0.69281L2.05612 -1.27343L8.63646 4.26326L13.933 7.99369L20.0039 12.9998Z" fill="#F7FCFF"/>
<path d="M19.8672 13.8733L17.8493 14.8814L9.81294 7.96348L7.43034 7.19056L-2.38215 -0.683977H0.451241L10.2582 7.00365L12.8632 7.93047L19.8672 13.8733Z" fill="#F50100"/>
<mask id="path-10-outside-1_5190_105927" maskUnits="userSpaceOnUse" x="-2" y="-2" width="22" height="18" fill="black">
<rect fill="white" x="-2" y="-2" width="22" height="18"/>
<path fill-rule="evenodd" clip-rule="evenodd" d="M9.98451 0H7.98451V6H0V8H7.98451V14H9.98451V8H18V6H9.98451V0Z"/>
</mask>
<path fill-rule="evenodd" clip-rule="evenodd" d="M9.98451 0H7.98451V6H0V8H7.98451V14H9.98451V8H18V6H9.98451V0Z" fill="#F50100"/>
<path d="M7.98451 0V-1.5H6.48451V0H7.98451ZM9.98451 0H11.4845V-1.5H9.98451V0ZM7.98451 6V7.5H9.48451V6H7.98451ZM0 6V4.5H-1.5V6H0ZM0 8H-1.5V9.5H0V8ZM7.98451 8H9.48451V6.5H7.98451V8ZM7.98451 14H6.48451V15.5H7.98451V14ZM9.98451 14V15.5H11.4845V14H9.98451ZM9.98451 8V6.5H8.48451V8H9.98451ZM18 8V9.5H19.5V8H18ZM18 6H19.5V4.5H18V6ZM9.98451 6H8.48451V7.5H9.98451V6ZM7.98451 1.5H9.98451V-1.5H7.98451V1.5ZM9.48451 6V0H6.48451V6H9.48451ZM0 7.5H7.98451V4.5H0V7.5ZM1.5 8V6H-1.5V8H1.5ZM7.98451 6.5H0V9.5H7.98451V6.5ZM9.48451 14V8H6.48451V14H9.48451ZM9.98451 12.5H7.98451V15.5H9.98451V12.5ZM8.48451 8V14H11.4845V8H8.48451ZM18 6.5H9.98451V9.5H18V6.5ZM16.5 6V8H19.5V6H16.5ZM9.98451 7.5H18V4.5H9.98451V7.5ZM8.48451 0V6H11.4845V0H8.48451Z" fill="#F7FCFF" mask="url(#path-10-outside-1_5190_105927)"/>
</g>
<path fill-rule="evenodd" clip-rule="evenodd" d="M20.6155 10.7569C20.6155 10.7569 20.7142 11.8516 20.4977 12.4719C20.2812 13.0922 20.1712 13.4522 20.1712 13.0557C20.1712 12.6592 20.0192 12.345 19.8969 12.345C19.7747 12.345 19.8712 12.7382 19.7483 12.7382C19.6254 12.7382 19.2021 12.8058 19.2021 12.5754C19.2021 12.345 19.1463 13.1935 19.4211 13.2694C19.6958 13.3453 19.2877 13.5807 19.1055 13.5078C19.1055 13.5078 19.8549 13.7514 20.1488 13.9589C20.1488 13.9589 21.0298 15.0588 21.8539 14.9246C21.8539 14.9246 20.7318 14.5373 20.9295 13.7972C21.1272 13.0572 21.8539 12.9501 21.8539 12.9501C21.8539 12.9501 22.1949 13.0642 22.1846 13.3629C22.1744 13.6616 22.434 13.2694 22.434 13.2694C22.434 13.2694 22.4758 12.8919 22.4297 12.7998C22.3836 12.7077 23.2107 12.5294 23.2629 12.1408C23.2629 12.1408 22.4178 12.1794 22.3598 12.0796C22.3017 11.9797 22.6213 11.8232 22.5214 11.6285C22.4214 11.4339 20.9295 12.7382 20.9295 12.7382C20.9295 12.7382 21.4447 11.8504 21.4447 11.3737C21.4447 10.8969 21.3138 10.5711 20.9295 10.5711C20.5452 10.5711 20.6155 10.7569 20.6155 10.7569Z" fill="#5EAA22"/>
<path fill-rule="evenodd" clip-rule="evenodd" d="M28.3842 11.017C28.3833 11.0187 28.3853 11.0201 28.3867 11.0188C28.4422 10.9641 28.7845 10.6493 29.0714 10.8983C29.3846 11.1701 28.9136 11.4351 28.9136 11.4351C28.9136 11.4351 29.1338 11.6486 29.3856 11.6486C29.6374 11.6486 29.6991 11.4351 29.6991 11.4351C29.6991 11.4351 29.7184 11.9104 30.5396 12.0903C30.5396 12.0903 30.8326 11.6696 30.5396 11.4393C30.5396 11.4393 30.8857 11.3675 30.8606 11.0871C30.8606 11.0871 30.576 11.1841 30.3731 10.9613C30.1702 10.7385 29.7747 10.6358 29.4872 10.6871C28.7573 10.4239 28.4287 10.9395 28.3842 11.017Z" fill="#5EAA22"/>
<path fill-rule="evenodd" clip-rule="evenodd" d="M23.4023 13.415C23.4023 13.415 24.2516 15.0124 23.7208 15.3433C23.19 15.6743 26.2445 15.4389 26.5323 15.3433C26.8201 15.2478 26.4742 14.7442 26.1551 14.6044C25.8359 14.4645 24.5237 13.9993 24.1746 13.6485C23.8256 13.2976 24.0387 13.1732 24.3199 12.8268C24.601 12.4805 25.6418 12.342 25.6418 12.0183C25.6418 11.6946 26.302 10.3595 26.7635 10.2588C27.2249 10.1581 26.9756 9.99945 26.8695 9.99945C26.7635 9.99945 26.1255 10.657 25.8837 10.5383C25.6418 10.4197 25.6123 10.4281 25.8837 10.1413C26.1551 9.85456 26.3594 9.52452 26.0006 9.76199C25.6418 9.99945 25.0503 10.3753 24.766 10.3753C24.4817 10.3753 23.4694 10.2471 23.5951 10.5383C23.7208 10.8296 23.774 11.3352 24.3199 11.6767C24.8657 12.0183 24.6285 12.2682 24.1746 12.5973C23.7208 12.9265 23.4023 13.415 23.4023 13.415Z" fill="#96877D"/>
<path d="M29.038 11.3026L27.4198 14.548C27.4198 14.548 27.3726 15.4647 28.5295 14.8539C29.6864 14.243 29.6408 13.8097 29.9744 13.8097C30.3079 13.8097 30.4138 13.6245 30.4138 13.6245L30.1917 13.4498C30.1917 13.4498 30.166 13.1311 30.3067 13.0596C30.3067 13.0596 30.0306 12.9075 29.9912 13.0345C29.9517 13.1614 29.7571 12.7688 29.8672 12.7688C29.8672 12.7688 29.6238 13.163 29.5724 13.3168C29.5724 13.3168 29.2202 13.1736 29.2371 12.51C29.2539 11.8465 29.038 11.3026 29.038 11.3026Z" fill="#FFD018"/>
<path d="M21.3359 10.7887C21.3359 10.7887 20.5119 10.9806 20.6008 11.1802C20.6896 11.3798 20.8206 11.1748 20.4172 11.4154C20.4172 11.4154 19.7085 11.9633 19.554 11.904C19.3995 11.8446 19.6634 12.042 19.6634 11.4154C19.6634 10.7887 19.2518 11.2988 19.6634 10.8805C20.0749 10.4622 20.2192 10.7887 20.4172 10.548C20.6151 10.3073 20.4372 10.4353 20.974 10.4353C21.5109 10.4353 21.3359 10.7887 21.3359 10.7887Z" fill="#FFD018"/>
<path d="M23.8482 14.0141C23.8482 14.0141 21.5411 15.8271 21.08 15.9624C20.6189 16.0977 22.0284 15.9252 22.3727 15.6858C22.717 15.4465 23.8482 14.0141 23.8482 14.0141Z" fill="#FFD018"/>
<path fill-rule="evenodd" clip-rule="evenodd" d="M28.4248 17.1946C28.4248 17.1946 28.6463 18.623 28.0682 18.4824C27.4901 18.3419 27.2502 18.2692 27.2502 18.2692C27.2502 18.2692 27.4622 18.9345 27.7652 18.9345C27.7652 18.9345 28.2814 19.9405 28.0828 20.2582C28.0828 20.2582 28.972 19.5367 28.8283 18.9632C28.6845 18.3896 29.0581 19.0576 29.0581 19.0576C29.0581 19.0576 29.3853 19.2156 29.6219 19.0391C29.8584 18.8626 29.6189 18.9411 29.3824 18.6051C29.1458 18.2692 29.2042 17.3256 28.4847 16.8366C27.7652 16.3476 27.5977 16.3632 27.5977 16.3632C27.5977 16.3632 27.0678 15.4969 27.3853 15.5541C27.3853 15.5541 29.6605 16.3341 29.7196 16.534C29.7787 16.7339 30.382 16.6972 30.0804 16.1257C29.7787 15.5541 28.1524 15.2097 27.9588 15.0485C27.7652 14.8873 27.9453 14.276 27.5977 14.1428C27.2502 14.0096 26.3006 13.0646 26.3012 12.6092C26.3018 12.1538 25.8548 11.9394 25.4663 11.9394C25.0778 11.9394 24.3463 11.8272 24.0372 11.8272C23.7281 11.8272 23.4401 12.3442 23.7386 12.3442C24.0372 12.3442 23.7821 13.3122 23.2822 13.5237C22.7823 13.7353 22.3958 14.0393 21.8249 14.0393C21.254 14.0393 22.633 14.5316 22.8528 14.3372C23.0726 14.1428 23.0005 13.8532 23.7386 13.5237C24.4768 13.1943 25.1813 12.9993 25.0921 13.2615C25.0029 13.5237 25.2304 13.9624 25.5782 13.8036C25.9259 13.6449 26.0374 13.2439 26.0374 13.5237C26.0374 13.8036 26.5706 15.2411 26.978 15.8022C27.3853 16.3632 28.4248 17.1946 28.4248 17.1946Z" fill="#5EAA22"/>
<path d="M23.5688 11.9455C23.5688 11.9455 23.2983 12.3765 23.5688 12.3765C23.8394 12.3765 24.2744 12.3765 24.0093 12.161C23.7443 11.9455 23.5688 11.9455 23.5688 11.9455Z" fill="#FFD018"/>
<path d="M24.4727 11.9351C24.4727 11.9351 24.4739 12.2217 24.6614 12.2217C24.8489 12.2217 25.0157 12.5082 25.0157 12.2217C25.0157 11.9351 25.2763 12.0302 24.8745 11.9351C24.4727 11.8401 24.4727 11.9351 24.4727 11.9351Z" fill="#FFD018"/>
<path d="M25.6295 12.0008C25.6295 12.0008 25.4488 12.1368 25.5391 12.3796C25.6295 12.6223 25.8339 13.1026 25.5391 13.1026C25.2443 13.1026 25.0018 13.2758 25.2321 13.2758C25.4623 13.2758 25.872 13.4489 25.872 13.2758C25.872 13.1026 26.0387 13.5613 26.0387 13.2758C26.0387 12.9902 26.0387 12.8538 26.0387 12.6863C26.0387 12.5189 26.2053 12.4707 26.0387 12.2357C25.872 12.0008 25.6295 12.0008 25.6295 12.0008Z" fill="#FFD018"/>
<path d="M26.0469 13.6717C26.0469 13.6717 26.4235 14.8572 26.6284 15.01C26.8332 15.1628 26.9251 16.4502 27.015 16.5902C27.1048 16.7302 28.3296 17.4366 28.3296 17.8158C28.3296 18.1949 28.7067 17.5244 28.5182 17.149C28.3296 16.7736 27.7359 15.9743 27.3089 15.8C26.8819 15.6256 26.9361 15.2036 26.8463 14.9069C26.7566 14.6103 27.3776 15.1466 26.8463 14.4737C26.3151 13.8009 26.3292 14.1619 26.4788 14.1619C26.6284 14.1619 26.7779 14.0824 26.6284 13.9779C26.4788 13.8733 26.0469 13.6717 26.0469 13.6717Z" fill="#FFD018"/>
<path d="M22.0536 16.1164C22.0536 16.1164 20.8302 18.277 20.6119 18.3886C20.3936 18.5003 20.2308 18.523 20.1193 18.3886C20.0077 18.2543 19.9963 18.7491 20.1193 18.8846C20.2423 19.02 20.6119 19.02 20.817 18.7795C20.817 18.7795 20.8495 19.3873 21.169 19.8456C21.4885 20.3038 21.6216 20.1773 21.6216 20.4364C21.6216 20.6956 21.6971 21.0387 21.7946 21.0387C21.8922 21.0387 21.9677 21.8544 21.7946 21.8544C21.6216 21.8544 22.1956 21.9213 22.4459 21.7173C22.6961 21.5133 22.8031 21.3579 22.7496 21.3579C22.6961 21.3579 22.0536 21.0197 22.0536 20.7804C22.0536 20.5411 21.6216 20.3537 21.6216 19.9985C21.6216 19.6433 21.3971 19.221 21.3971 19.0528C21.3971 18.8846 21.5891 19.1177 21.7946 18.9584C22.0002 18.7991 22.0536 18.3886 22.0536 18.3886C22.0536 18.3886 21.7298 18.6058 21.6216 18.4972C21.5134 18.3886 21.1727 18.1743 21.3971 17.8065C21.6216 17.4386 22.0536 16.1164 22.0536 16.1164Z" fill="#FFD018"/>
<path fill-rule="evenodd" clip-rule="evenodd" d="M24.1723 9.30222C24.1723 9.30222 23.7342 9.49706 23.8803 9.78657C24.0263 10.0761 24.0788 10.2043 24.1723 10.1402C24.2659 10.0761 24.9222 9.95489 24.7752 9.62855C24.6281 9.30222 24.3201 9.30222 24.3201 9.30222H24.1723Z" fill="#5EAA22"/>
<path d="M25.6918 9.14566C25.6918 9.14566 25.1132 8.88962 25.306 9.14566C25.4989 9.4017 25.7456 9.53668 25.9232 9.53668C26.1007 9.53668 26.4695 9.48376 26.2851 9.38046C26.1007 9.27716 25.6918 9.14566 25.6918 9.14566Z" fill="#FFD018"/>
<path fill-rule="evenodd" clip-rule="evenodd" d="M19.9792 15.8006C19.9821 15.785 19.9635 15.7741 19.952 15.785C19.8312 15.9003 19.4705 16.2832 19.6239 16.6164C19.8068 17.0139 19.9898 17.1519 19.9898 17.1519C19.9898 17.1519 20.1012 17.7605 20.3316 17.9261C20.3316 17.9261 20.6409 17.9103 20.6562 17.4366C20.6562 17.4366 21.1816 17.2824 21.336 17.6105C21.336 17.6105 21.2341 17.6474 21.2341 17.9261C21.2341 18.2048 21.4718 18.5068 21.4718 18.5068C21.4718 18.5068 21.5807 17.5454 22.0698 16.9256C22.559 16.3058 22.699 16.1834 22.699 16.1834V15.486C22.699 15.486 21.6869 16.3107 21.4718 16.9964C21.4718 16.9964 20.9621 17.0134 20.755 16.9256C20.548 16.8378 21.0137 16.6938 20.755 16.3817C20.4964 16.0697 20.6149 16.8211 20.3316 16.6164C19.8884 16.4931 19.9485 15.9664 19.9792 15.8006Z" fill="#5EAA22"/>
<path fill-rule="evenodd" clip-rule="evenodd" d="M22.1875 15.1947L27.3722 15.1947V18.3624C27.3722 18.3624 26.9495 20.9507 24.6916 22.2258C24.6916 22.2258 22.5046 20.9331 22.1875 18.3624V15.1947Z" fill="#5EAA22"/>
<mask id="mask3_5190_105927" style="mask-type:luminance" maskUnits="userSpaceOnUse" x="22" y="15" width="6" height="8">
<path fill-rule="evenodd" clip-rule="evenodd" d="M22.1875 15.1947L27.3722 15.1947V18.3624C27.3722 18.3624 26.9495 20.9507 24.6916 22.2258C24.6916 22.2258 22.5046 20.9331 22.1875 18.3624V15.1947Z" fill="white"/>
</mask>
<g mask="url(#mask3_5190_105927)">
<path fill-rule="evenodd" clip-rule="evenodd" d="M24.6519 15.0236L22.3867 19.7243L25.4587 16.9346L27.5729 20.4389V15.0236L25.4587 16.7567L24.6519 15.0236Z" fill="#58A5FF"/>
<path d="M24.582 18.4136C24.582 18.3203 24.6577 18.2446 24.751 18.2446C24.8444 18.2446 24.9201 18.3203 24.9201 18.4136V21.432C24.9201 21.5253 24.8444 21.601 24.751 21.601C24.6577 21.601 24.582 21.5253 24.582 21.432L24.582 18.4136Z" fill="#FFD018"/>
<path d="M23.9942 19.1579C23.9025 19.1579 23.8281 19.0835 23.8281 18.9918C23.8281 18.9001 23.9025 18.8258 23.9942 18.8258H25.5214C25.6131 18.8258 25.6875 18.9001 25.6875 18.9918C25.6875 19.0835 25.6131 19.1579 25.5214 19.1579H23.9942Z" fill="#FFD018"/>
<path d="M24.8151 21.4887L24.6843 21.5949C24.4915 21.3607 24.3157 21.2481 24.1603 21.2481C23.9315 21.2481 23.7455 21.0572 23.5938 20.6952L23.7498 20.6307C23.8781 20.9369 24.0178 21.0802 24.1603 21.0802C24.3763 21.0802 24.5934 21.2193 24.8151 21.4887Z" fill="#FFD018"/>
<path fill-rule="evenodd" clip-rule="evenodd" d="M23.4441 20.1191C23.4431 20.1181 23.4414 20.1189 23.4414 20.1203V20.9363C23.4414 20.9375 23.4426 20.9383 23.4436 20.9378L24.0574 20.6852C24.0585 20.6847 24.0588 20.6833 24.0579 20.6825L23.4441 20.1191Z" fill="#FFD018"/>
<path d="M24.677 21.4887L24.8079 21.5949C25.0007 21.3607 25.1765 21.2481 25.3319 21.2481C25.5607 21.2481 25.7467 21.0572 25.8984 20.6952L25.7424 20.6307C25.6141 20.9369 25.4744 21.0802 25.3319 21.0802C25.1159 21.0802 24.8988 21.2193 24.677 21.4887Z" fill="#FFD018"/>
<path fill-rule="evenodd" clip-rule="evenodd" d="M26.0481 20.1191C26.0491 20.1181 26.0508 20.1189 26.0508 20.1203V20.9363C26.0508 20.9375 26.0496 20.9383 26.0485 20.9378L25.4348 20.6852C25.4337 20.6847 25.4334 20.6833 25.4343 20.6825L26.0481 20.1191Z" fill="#FFD018"/>
<rect x="24.4102" y="17.0586" width="0.676056" height="1.00733" fill="white"/>
</g>
</g>
</g>
</svg>
