<svg width="32" height="24" viewBox="0 0 32 24" fill="none" xmlns="http://www.w3.org/2000/svg">
<mask id="mask0_5190_105752" style="mask-type:luminance" maskUnits="userSpaceOnUse" x="0" y="0" width="32" height="24">
<rect width="32" height="24" fill="white"/>
</mask>
<g mask="url(#mask0_5190_105752)">
<path fill-rule="evenodd" clip-rule="evenodd" d="M8 0H32V24H8V0Z" fill="#EF0000"/>
<path fill-rule="evenodd" clip-rule="evenodd" d="M0 0H12V24H0V0Z" fill="#2F8D00"/>
<mask id="mask1_5190_105752" style="mask-type:luminance" maskUnits="userSpaceOnUse" x="4" y="4" width="16" height="16">
<path fill-rule="evenodd" clip-rule="evenodd" d="M11.9057 19.8072C7.64521 19.8072 4.19141 16.3118 4.19141 12C4.19141 7.6882 7.64521 4.19278 11.9057 4.19278C16.1662 4.19278 19.62 7.6882 19.62 12C19.62 16.3118 16.1662 19.8072 11.9057 19.8072Z" fill="white"/>
</mask>
<g mask="url(#mask1_5190_105752)">
<path fill-rule="evenodd" clip-rule="evenodd" d="M11.4297 4H12.4297V6.6988H11.4297V4Z" fill="#FFE017"/>
<path fill-rule="evenodd" clip-rule="evenodd" d="M11.4297 17.494H12.4297V20H11.4297V17.494Z" fill="#FFE017"/>
<path d="M4.31474 12.4038L4.03516 11.6865C7.12034 10.4548 9.4489 9.6605 11.0289 9.30252C13.347 8.77732 15.8941 8.38873 18.6703 8.13647L18.7384 8.90447C15.9941 9.15383 13.4797 9.53743 11.1953 10.055C9.66239 10.4023 7.36617 11.1856 4.31474 12.4038Z" fill="#FFE017"/>
<path d="M19.1403 7.6639L18.9135 8.40001C16.5818 7.66389 14.6823 7.34748 13.2223 7.44548L13.1719 6.67609C14.7395 6.57086 16.7266 6.90189 19.1403 7.6639Z" fill="#FFE017"/>
<path d="M19.9476 11.7798L19.5166 12.4156C18.3279 11.5904 16.8635 11.1758 15.1133 11.1758V10.4048C17.0107 10.4048 18.6254 10.8618 19.9476 11.7798Z" fill="#FFE017"/>
<path d="M19.3023 12.0106L19.4992 12.7554C16.9366 13.4496 14.5307 13.8434 12.2812 13.9361C10.0163 14.0295 7.3764 13.6343 4.35938 12.7534L4.57056 12.0126C7.51426 12.872 10.0749 13.2554 12.2502 13.1657C14.441 13.0754 16.7918 12.6906 19.3023 12.0106Z" fill="#FFE017"/>
<path d="M19.0145 15.6359L17.8102 16.8706C15.5215 14.584 13.5065 12.949 11.7778 11.9667C10.0195 10.9675 7.72646 9.95293 4.90234 8.92703L5.48149 7.2941C8.3889 8.35025 10.7662 9.40215 12.6171 10.4539C14.4974 11.5224 16.6258 13.2494 19.0145 15.6359Z" fill="#FFE017"/>
<path d="M5.45977 16.3353L5.00391 15.7175C5.06757 15.6694 5.18115 15.5891 5.33765 15.4875C5.59605 15.3196 5.88299 15.152 6.19171 14.9954C7.04202 14.5641 7.89496 14.2947 8.70847 14.27C8.74826 14.2688 8.78788 14.2682 8.82733 14.2682V15.0393C8.79555 15.0393 8.76356 15.0398 8.73136 15.0407C8.04579 15.0616 7.29292 15.2993 6.53312 15.6847C6.24992 15.8284 5.98605 15.9825 5.74924 16.1364C5.66681 16.1899 5.59387 16.2394 5.53138 16.2836C5.49494 16.3093 5.47076 16.327 5.45977 16.3353Z" fill="#FFE017"/>
<path d="M5.8125 16.6026L6.00437 15.8563C8.54449 16.5253 10.5028 16.8586 11.8695 16.8586C13.231 16.8586 15.2576 16.4654 17.9361 15.6763L18.149 16.4166C15.4073 17.2245 13.3184 17.6297 11.8695 17.6297C10.4256 17.6297 8.40985 17.2866 5.8125 16.6026Z" fill="#FFE017"/>
<path d="M4.82422 9.69443L6.0313 8.46249L7.79862 10.2361L6.59154 11.4681L4.82422 9.69443Z" fill="#FFE017"/>
<path d="M14.8359 15.8478L15.7338 14.3698L18.5374 16.1143L17.6396 17.5922L14.8359 15.8478Z" fill="#FFE017"/>
</g>
<path fill-rule="evenodd" clip-rule="evenodd" d="M4.19141 12C4.19141 16.3118 7.64521 19.8072 11.9057 19.8072C16.1662 19.8072 19.62 16.3118 19.62 12C19.62 7.6882 16.1662 4.19278 11.9057 4.19278C7.64521 4.19278 4.19141 7.6882 4.19141 12ZM18.6676 12.0964C18.6676 15.8227 15.6828 18.8434 12.0009 18.8434C8.31903 18.8434 5.33426 15.8227 5.33426 12.0964C5.33426 8.37014 8.31903 5.34941 12.0009 5.34941C15.6828 5.34941 18.6676 8.37014 18.6676 12.0964Z" fill="#F9E813"/>
<path d="M7.65625 7.18527V13.446C8.06838 15.9241 9.45685 17.1631 11.8216 17.1631C14.1864 17.1631 15.5749 15.9241 15.987 13.446V7.18527H7.65625Z" fill="white"/>
<path d="M7.08594 6.60696H16.5596V13.4943L16.5516 13.542C16.094 16.2936 14.4716 17.7414 11.8228 17.7414C9.17386 17.7414 7.5515 16.2936 7.09386 13.542L7.08594 13.4943V6.60696Z" fill="#C51918"/>
<path d="M9.25391 8.71069H14.3936V13.1516C14.3936 13.1516 14.0122 15.4449 11.8238 15.4449C9.63531 15.4449 9.25391 13.1516 9.25391 13.1516V8.71069Z" fill="#F7FCFF"/>
<path fill-rule="evenodd" clip-rule="evenodd" d="M8.00391 7.08435H8.7268V7.56628H8.00391V7.08435Z" fill="#F9E813"/>
<path fill-rule="evenodd" clip-rule="evenodd" d="M7.62109 7.27713H8.95443V7.51809H7.62109V7.27713Z" fill="#060101"/>
<path fill-rule="evenodd" clip-rule="evenodd" d="M7.62109 7.46988H8.34399V7.71084H7.62109V7.46988Z" fill="#F9E813"/>
<path fill-rule="evenodd" clip-rule="evenodd" d="M8.38281 7.46988H9.1057V7.71084H8.38281V7.46988Z" fill="#F9E813"/>
<path fill-rule="evenodd" clip-rule="evenodd" d="M7.62109 8.04822H8.10302V8.77111H7.62109V8.04822Z" fill="#F9E813"/>
<path fill-rule="evenodd" clip-rule="evenodd" d="M8.57422 8.04822H9.05615V8.77111H8.57422V8.04822Z" fill="#F9E813"/>
<path fill-rule="evenodd" clip-rule="evenodd" d="M8.19141 8.04822H8.43237V8.77111H8.19141V8.04822Z" fill="#F9E813"/>
<path fill-rule="evenodd" clip-rule="evenodd" d="M7.62109 7.85544H8.95443V8.0964H7.62109V7.85544Z" fill="#060101"/>
<path fill-rule="evenodd" clip-rule="evenodd" d="M7.62109 8.43375H8.95443V8.67471H7.62109V8.43375Z" fill="#060101"/>
<path fill-rule="evenodd" clip-rule="evenodd" d="M7.8125 7.66266H8.05346V7.90362H7.8125V7.66266Z" fill="#F9E813"/>
<path fill-rule="evenodd" clip-rule="evenodd" d="M8.57422 7.66266H8.81518V7.90362H8.57422V7.66266Z" fill="#F9E813"/>
<path fill-rule="evenodd" clip-rule="evenodd" d="M8.19141 7.46988H8.43237V7.95181H8.19141V7.46988Z" fill="#F9E813"/>
<path fill-rule="evenodd" clip-rule="evenodd" d="M11.6211 7.08435H12.344V7.56628H11.6211V7.08435Z" fill="#F9E813"/>
<path fill-rule="evenodd" clip-rule="evenodd" d="M11.2383 7.27713H12.5716V7.51809H11.2383V7.27713Z" fill="#060101"/>
<path fill-rule="evenodd" clip-rule="evenodd" d="M11.2383 7.46988H11.9612V7.71084H11.2383V7.46988Z" fill="#F9E813"/>
<path fill-rule="evenodd" clip-rule="evenodd" d="M12 7.46988H12.7229V7.71084H12V7.46988Z" fill="#F9E813"/>
<path fill-rule="evenodd" clip-rule="evenodd" d="M11.2383 8.04822H11.7202V8.77111H11.2383V8.04822Z" fill="#F9E813"/>
<path fill-rule="evenodd" clip-rule="evenodd" d="M12.1914 8.04822H12.6733V8.77111H12.1914V8.04822Z" fill="#F9E813"/>
<path fill-rule="evenodd" clip-rule="evenodd" d="M11.8086 8.04822H12.0496V8.77111H11.8086V8.04822Z" fill="#F9E813"/>
<path fill-rule="evenodd" clip-rule="evenodd" d="M11.2383 7.85544H12.5716V8.0964H11.2383V7.85544Z" fill="#060101"/>
<path fill-rule="evenodd" clip-rule="evenodd" d="M11.2383 8.43375H12.5716V8.67471H11.2383V8.43375Z" fill="#060101"/>
<path fill-rule="evenodd" clip-rule="evenodd" d="M11.4297 7.66266H11.6707V7.90362H11.4297V7.66266Z" fill="#F9E813"/>
<path fill-rule="evenodd" clip-rule="evenodd" d="M12.1914 7.66266H12.4324V7.90362H12.1914V7.66266Z" fill="#F9E813"/>
<path fill-rule="evenodd" clip-rule="evenodd" d="M11.8086 7.46988H12.0496V7.95181H11.8086V7.46988Z" fill="#F9E813"/>
<path fill-rule="evenodd" clip-rule="evenodd" d="M15.0508 7.08435H15.7737V7.56628H15.0508V7.08435Z" fill="#F9E813"/>
<path fill-rule="evenodd" clip-rule="evenodd" d="M14.668 7.27713H16.0013V7.51809H14.668V7.27713Z" fill="#060101"/>
<path fill-rule="evenodd" clip-rule="evenodd" d="M14.668 7.46988H15.3909V7.71084H14.668V7.46988Z" fill="#F9E813"/>
<path fill-rule="evenodd" clip-rule="evenodd" d="M15.4297 7.46988H16.1526V7.71084H15.4297V7.46988Z" fill="#F9E813"/>
<path fill-rule="evenodd" clip-rule="evenodd" d="M14.668 8.04822H15.1499V8.77111H14.668V8.04822Z" fill="#F9E813"/>
<path fill-rule="evenodd" clip-rule="evenodd" d="M15.6211 8.04822H16.103V8.77111H15.6211V8.04822Z" fill="#F9E813"/>
<path fill-rule="evenodd" clip-rule="evenodd" d="M15.2383 8.04822H15.4792V8.77111H15.2383V8.04822Z" fill="#F9E813"/>
<path fill-rule="evenodd" clip-rule="evenodd" d="M14.668 7.85544H16.0013V8.0964H14.668V7.85544Z" fill="#060101"/>
<path fill-rule="evenodd" clip-rule="evenodd" d="M14.668 8.43375H16.0013V8.67471H14.668V8.43375Z" fill="#060101"/>
<path fill-rule="evenodd" clip-rule="evenodd" d="M14.8594 7.66266H15.1003V7.90362H14.8594V7.66266Z" fill="#F9E813"/>
<path fill-rule="evenodd" clip-rule="evenodd" d="M15.6211 7.66266H15.8621V7.90362H15.6211V7.66266Z" fill="#F9E813"/>
<path fill-rule="evenodd" clip-rule="evenodd" d="M15.2383 7.46988H15.4792V7.95181H15.2383V7.46988Z" fill="#F9E813"/>
<path fill-rule="evenodd" clip-rule="evenodd" d="M15.0508 10.5542H15.7737V11.0362H15.0508V10.5542Z" fill="#F9E813"/>
<path fill-rule="evenodd" clip-rule="evenodd" d="M14.668 10.747H16.0013V10.988H14.668V10.747Z" fill="#060101"/>
<path fill-rule="evenodd" clip-rule="evenodd" d="M14.668 10.9398H15.3909V11.1807H14.668V10.9398Z" fill="#F9E813"/>
<path fill-rule="evenodd" clip-rule="evenodd" d="M15.4297 10.9398H16.1526V11.1807H15.4297V10.9398Z" fill="#F9E813"/>
<path fill-rule="evenodd" clip-rule="evenodd" d="M14.668 11.5181H15.1499V12.241H14.668V11.5181Z" fill="#F9E813"/>
<path fill-rule="evenodd" clip-rule="evenodd" d="M15.6211 11.5181H16.103V12.241H15.6211V11.5181Z" fill="#F9E813"/>
<path fill-rule="evenodd" clip-rule="evenodd" d="M15.2383 11.5181H15.4792V12.241H15.2383V11.5181Z" fill="#F9E813"/>
<path fill-rule="evenodd" clip-rule="evenodd" d="M14.668 11.3253H16.0013V11.5663H14.668V11.3253Z" fill="#060101"/>
<path fill-rule="evenodd" clip-rule="evenodd" d="M14.668 11.9036H16.0013V12.1446H14.668V11.9036Z" fill="#060101"/>
<path fill-rule="evenodd" clip-rule="evenodd" d="M14.8594 11.1325H15.1003V11.3735H14.8594V11.1325Z" fill="#F9E813"/>
<path fill-rule="evenodd" clip-rule="evenodd" d="M15.6211 11.1325H15.8621V11.3735H15.6211V11.1325Z" fill="#F9E813"/>
<path fill-rule="evenodd" clip-rule="evenodd" d="M15.2383 10.9398H15.4792V11.4217H15.2383V10.9398Z" fill="#F9E813"/>
<path fill-rule="evenodd" clip-rule="evenodd" d="M8.00391 10.5542H8.7268V11.0362H8.00391V10.5542Z" fill="#F9E813"/>
<path fill-rule="evenodd" clip-rule="evenodd" d="M7.62109 10.747H8.95443V10.988H7.62109V10.747Z" fill="#060101"/>
<path fill-rule="evenodd" clip-rule="evenodd" d="M7.62109 10.9398H8.34399V11.1807H7.62109V10.9398Z" fill="#F9E813"/>
<path fill-rule="evenodd" clip-rule="evenodd" d="M8.38281 10.9398H9.1057V11.1807H8.38281V10.9398Z" fill="#F9E813"/>
<path fill-rule="evenodd" clip-rule="evenodd" d="M7.62109 11.5181H8.10302V12.241H7.62109V11.5181Z" fill="#F9E813"/>
<path fill-rule="evenodd" clip-rule="evenodd" d="M8.57422 11.5181H9.05615V12.241H8.57422V11.5181Z" fill="#F9E813"/>
<path fill-rule="evenodd" clip-rule="evenodd" d="M8.19141 11.5181H8.43237V12.241H8.19141V11.5181Z" fill="#F9E813"/>
<path fill-rule="evenodd" clip-rule="evenodd" d="M7.62109 11.3253H8.95443V11.5663H7.62109V11.3253Z" fill="#060101"/>
<path fill-rule="evenodd" clip-rule="evenodd" d="M7.62109 11.9036H8.95443V12.1446H7.62109V11.9036Z" fill="#060101"/>
<path fill-rule="evenodd" clip-rule="evenodd" d="M7.8125 11.1325H8.05346V11.3735H7.8125V11.1325Z" fill="#F9E813"/>
<path fill-rule="evenodd" clip-rule="evenodd" d="M8.57422 11.1325H8.81518V11.3735H8.57422V11.1325Z" fill="#F9E813"/>
<path fill-rule="evenodd" clip-rule="evenodd" d="M8.19141 10.9398H8.43237V11.4217H8.19141V10.9398Z" fill="#F9E813"/>
<path fill-rule="evenodd" clip-rule="evenodd" d="M8.46875 14.904L8.93342 14.3502L9.30259 14.66L8.83793 15.2137L8.46875 14.904Z" fill="#F9E813"/>
<path fill-rule="evenodd" clip-rule="evenodd" d="M8.37109 15.3197L9.22814 14.2983L9.41273 14.4532L8.55568 15.4746L8.37109 15.3197Z" fill="#060101"/>
<path fill-rule="evenodd" clip-rule="evenodd" d="M8.51953 15.4436L8.9842 14.8899L9.16879 15.0448L8.70412 15.5985L8.51953 15.4436Z" fill="#F9E813"/>
<path fill-rule="evenodd" clip-rule="evenodd" d="M9.00781 14.86L9.47248 14.3062L9.65707 14.4611L9.1924 15.0148L9.00781 14.86Z" fill="#F9E813"/>
<path fill-rule="evenodd" clip-rule="evenodd" d="M8.96094 15.8154L9.27071 15.4462L9.82448 15.9109L9.5147 16.28L8.96094 15.8154Z" fill="#F9E813"/>
<path fill-rule="evenodd" clip-rule="evenodd" d="M9.57422 15.0858L9.884 14.7166L10.4378 15.1813L10.128 15.5505L9.57422 15.0858Z" fill="#F9E813"/>
<path fill-rule="evenodd" clip-rule="evenodd" d="M9.32812 15.3776L9.48301 15.193L10.0368 15.6577L9.88189 15.8423L9.32812 15.3776Z" fill="#F9E813"/>
<path fill-rule="evenodd" clip-rule="evenodd" d="M8.8125 15.6914L9.66955 14.67L9.85414 14.8249L8.99709 15.8463L8.8125 15.6914Z" fill="#060101"/>
<path fill-rule="evenodd" clip-rule="evenodd" d="M9.25781 16.0632L10.1149 15.0418L10.2995 15.1967L9.4424 16.2181L9.25781 16.0632Z" fill="#060101"/>
<path fill-rule="evenodd" clip-rule="evenodd" d="M8.78906 15.4216L8.94395 15.237L9.12854 15.3919L8.97365 15.5765L8.78906 15.4216Z" fill="#F9E813"/>
<path fill-rule="evenodd" clip-rule="evenodd" d="M9.27734 14.838L9.43223 14.6534L9.61682 14.8083L9.46193 14.9929L9.27734 14.838Z" fill="#F9E813"/>
<path fill-rule="evenodd" clip-rule="evenodd" d="M8.88672 15.0059L9.04161 14.8213L9.41079 15.1311L9.2559 15.3157L8.88672 15.0059Z" fill="#F9E813"/>
<path fill-rule="evenodd" clip-rule="evenodd" d="M14.9805 14.4662L15.4451 15.02L15.076 15.3298L14.6113 14.776L14.9805 14.4662Z" fill="#F9E813"/>
<path fill-rule="evenodd" clip-rule="evenodd" d="M14.5859 14.2983L15.443 15.3197L15.2584 15.4746L14.4013 14.4532L14.5859 14.2983Z" fill="#060101"/>
<path fill-rule="evenodd" clip-rule="evenodd" d="M14.4375 14.4222L14.9022 14.976L14.7176 15.1309L14.2529 14.5771L14.4375 14.4222Z" fill="#F9E813"/>
<path fill-rule="evenodd" clip-rule="evenodd" d="M14.9297 15.0059L15.3944 15.5597L15.2098 15.7145L14.7451 15.1608L14.9297 15.0059Z" fill="#F9E813"/>
<path fill-rule="evenodd" clip-rule="evenodd" d="M13.9961 14.794L14.3059 15.1632L13.7521 15.6278L13.4423 15.2586L13.9961 14.794Z" fill="#F9E813"/>
<path fill-rule="evenodd" clip-rule="evenodd" d="M14.6094 15.5235L14.9192 15.8927L14.3654 16.3574L14.0556 15.9882L14.6094 15.5235Z" fill="#F9E813"/>
<path fill-rule="evenodd" clip-rule="evenodd" d="M14.3633 15.2317L14.5182 15.4163L13.9644 15.8809L13.8095 15.6964L14.3633 15.2317Z" fill="#F9E813"/>
<path fill-rule="evenodd" clip-rule="evenodd" d="M14.1445 14.67L15.0016 15.6914L14.817 15.8463L13.9599 14.8249L14.1445 14.67Z" fill="#060101"/>
<path fill-rule="evenodd" clip-rule="evenodd" d="M13.6992 15.0418L14.5563 16.0632L14.3717 16.2181L13.5146 15.1967L13.6992 15.0418Z" fill="#060101"/>
<path fill-rule="evenodd" clip-rule="evenodd" d="M14.4141 14.692L14.569 14.8766L14.3844 15.0315L14.2295 14.8469L14.4141 14.692Z" fill="#F9E813"/>
<path fill-rule="evenodd" clip-rule="evenodd" d="M14.9023 15.2757L15.0572 15.4603L14.8726 15.6152L14.7178 15.4306L14.9023 15.2757Z" fill="#F9E813"/>
<path fill-rule="evenodd" clip-rule="evenodd" d="M14.8047 14.86L14.9596 15.0445L14.5904 15.3543L14.4355 15.1697L14.8047 14.86Z" fill="#F9E813"/>
<path fill-rule="evenodd" clip-rule="evenodd" d="M12.5586 9.20483H11.2383V10.1663C11.2383 10.1663 11.3363 10.6628 11.8984 10.6628C12.4606 10.6628 12.5586 10.1663 12.5586 10.1663V9.20483ZM11.8097 9.59038C11.8097 9.69684 11.7244 9.78315 11.6192 9.78315C11.514 9.78315 11.4288 9.69684 11.4288 9.59038C11.4288 9.48391 11.514 9.39761 11.6192 9.39761C11.7244 9.39761 11.8097 9.48391 11.8097 9.59038ZM11.6192 10.5542C11.7244 10.5542 11.8097 10.4679 11.8097 10.3615C11.8097 10.255 11.7244 10.1687 11.6192 10.1687C11.514 10.1687 11.4288 10.255 11.4288 10.3615C11.4288 10.4679 11.514 10.5542 11.6192 10.5542ZM12.3811 10.3615C12.3811 10.4679 12.2959 10.5542 12.1907 10.5542C12.0855 10.5542 12.0002 10.4679 12.0002 10.3615C12.0002 10.255 12.0855 10.1687 12.1907 10.1687C12.2959 10.1687 12.3811 10.255 12.3811 10.3615ZM11.9049 10.1687C12.0101 10.1687 12.0954 10.0824 12.0954 9.97592C12.0954 9.86945 12.0101 9.78315 11.9049 9.78315C11.7998 9.78315 11.7145 9.86945 11.7145 9.97592C11.7145 10.0824 11.7998 10.1687 11.9049 10.1687ZM12.3811 9.59038C12.3811 9.69684 12.2959 9.78315 12.1907 9.78315C12.0855 9.78315 12.0002 9.69684 12.0002 9.59038C12.0002 9.48391 12.0855 9.39761 12.1907 9.39761C12.2959 9.39761 12.3811 9.48391 12.3811 9.59038Z" fill="#013399"/>
<path fill-rule="evenodd" clip-rule="evenodd" d="M12.5586 11.3253H11.2383V12.2868C11.2383 12.2868 11.3363 12.7833 11.8984 12.7833C12.4606 12.7833 12.5586 12.2868 12.5586 12.2868V11.3253ZM11.8097 11.7109C11.8097 11.8173 11.7244 11.9036 11.6192 11.9036C11.514 11.9036 11.4288 11.8173 11.4288 11.7109C11.4288 11.6044 11.514 11.5181 11.6192 11.5181C11.7244 11.5181 11.8097 11.6044 11.8097 11.7109ZM11.6192 12.6747C11.7244 12.6747 11.8097 12.5884 11.8097 12.4819C11.8097 12.3755 11.7244 12.2892 11.6192 12.2892C11.514 12.2892 11.4288 12.3755 11.4288 12.4819C11.4288 12.5884 11.514 12.6747 11.6192 12.6747ZM12.3811 12.4819C12.3811 12.5884 12.2959 12.6747 12.1907 12.6747C12.0855 12.6747 12.0002 12.5884 12.0002 12.4819C12.0002 12.3755 12.0855 12.2892 12.1907 12.2892C12.2959 12.2892 12.3811 12.3755 12.3811 12.4819ZM11.9049 12.2892C12.0101 12.2892 12.0954 12.2029 12.0954 12.0964C12.0954 11.9899 12.0101 11.9036 11.9049 11.9036C11.7998 11.9036 11.7145 11.9899 11.7145 12.0964C11.7145 12.2029 11.7998 12.2892 11.9049 12.2892ZM12.3811 11.7109C12.3811 11.8173 12.2959 11.9036 12.1907 11.9036C12.0855 11.9036 12.0002 11.8173 12.0002 11.7109C12.0002 11.6044 12.0855 11.5181 12.1907 11.5181C12.2959 11.5181 12.3811 11.6044 12.3811 11.7109Z" fill="#013399"/>
<path fill-rule="evenodd" clip-rule="evenodd" d="M14.2735 11.3253H12.9531V12.2868C12.9531 12.2868 13.0511 12.7833 13.6133 12.7833C14.1755 12.7833 14.2735 12.2868 14.2735 12.2868V11.3253ZM13.5246 11.7109C13.5246 11.8173 13.4393 11.9036 13.3341 11.9036C13.2289 11.9036 13.1436 11.8173 13.1436 11.7109C13.1436 11.6044 13.2289 11.5181 13.3341 11.5181C13.4393 11.5181 13.5246 11.6044 13.5246 11.7109ZM13.3341 12.6747C13.4393 12.6747 13.5246 12.5884 13.5246 12.4819C13.5246 12.3755 13.4393 12.2892 13.3341 12.2892C13.2289 12.2892 13.1436 12.3755 13.1436 12.4819C13.1436 12.5884 13.2289 12.6747 13.3341 12.6747ZM14.096 12.4819C14.096 12.5884 14.0107 12.6747 13.9055 12.6747C13.8003 12.6747 13.715 12.5884 13.715 12.4819C13.715 12.3755 13.8003 12.2892 13.9055 12.2892C14.0107 12.2892 14.096 12.3755 14.096 12.4819ZM13.6198 12.2892C13.725 12.2892 13.8103 12.2029 13.8103 12.0964C13.8103 11.9899 13.725 11.9036 13.6198 11.9036C13.5146 11.9036 13.4293 11.9899 13.4293 12.0964C13.4293 12.2029 13.5146 12.2892 13.6198 12.2892ZM14.096 11.7109C14.096 11.8173 14.0107 11.9036 13.9055 11.9036C13.8003 11.9036 13.715 11.8173 13.715 11.7109C13.715 11.6044 13.8003 11.5181 13.9055 11.5181C14.0107 11.5181 14.096 11.6044 14.096 11.7109Z" fill="#013399"/>
<path fill-rule="evenodd" clip-rule="evenodd" d="M10.8438 11.3253H9.52344V12.2868C9.52344 12.2868 9.62142 12.7833 10.1836 12.7833C10.7458 12.7833 10.8438 12.2868 10.8438 12.2868V11.3253ZM10.0949 11.7109C10.0949 11.8173 10.0096 11.9036 9.90439 11.9036C9.79919 11.9036 9.71391 11.8173 9.71391 11.7109C9.71391 11.6044 9.79919 11.5181 9.90439 11.5181C10.0096 11.5181 10.0949 11.6044 10.0949 11.7109ZM9.90439 12.6747C10.0096 12.6747 10.0949 12.5884 10.0949 12.4819C10.0949 12.3755 10.0096 12.2892 9.90439 12.2892C9.79919 12.2892 9.71391 12.3755 9.71391 12.4819C9.71391 12.5884 9.79919 12.6747 9.90439 12.6747ZM10.6663 12.4819C10.6663 12.5884 10.581 12.6747 10.4758 12.6747C10.3706 12.6747 10.2853 12.5884 10.2853 12.4819C10.2853 12.3755 10.3706 12.2892 10.4758 12.2892C10.581 12.2892 10.6663 12.3755 10.6663 12.4819ZM10.1901 12.2892C10.2953 12.2892 10.3806 12.2029 10.3806 12.0964C10.3806 11.9899 10.2953 11.9036 10.1901 11.9036C10.0849 11.9036 9.99963 11.9899 9.99963 12.0964C9.99963 12.2029 10.0849 12.2892 10.1901 12.2892ZM10.6663 11.7109C10.6663 11.8173 10.581 11.9036 10.4758 11.9036C10.3706 11.9036 10.2853 11.8173 10.2853 11.7109C10.2853 11.6044 10.3706 11.5181 10.4758 11.5181C10.581 11.5181 10.6663 11.6044 10.6663 11.7109Z" fill="#013399"/>
<path fill-rule="evenodd" clip-rule="evenodd" d="M12.5586 13.4458H11.2383V14.4073C11.2383 14.4073 11.3363 14.9038 11.8984 14.9038C12.4606 14.9038 12.5586 14.4073 12.5586 14.4073V13.4458ZM11.8097 13.8313C11.8097 13.9378 11.7244 14.0241 11.6192 14.0241C11.514 14.0241 11.4288 13.9378 11.4288 13.8313C11.4288 13.7249 11.514 13.6386 11.6192 13.6386C11.7244 13.6386 11.8097 13.7249 11.8097 13.8313ZM11.6192 14.7952C11.7244 14.7952 11.8097 14.7089 11.8097 14.6024C11.8097 14.496 11.7244 14.4097 11.6192 14.4097C11.514 14.4097 11.4288 14.496 11.4288 14.6024C11.4288 14.7089 11.514 14.7952 11.6192 14.7952ZM12.3811 14.6024C12.3811 14.7089 12.2959 14.7952 12.1907 14.7952C12.0855 14.7952 12.0002 14.7089 12.0002 14.6024C12.0002 14.496 12.0855 14.4097 12.1907 14.4097C12.2959 14.4097 12.3811 14.496 12.3811 14.6024ZM11.9049 14.4097C12.0101 14.4097 12.0954 14.3233 12.0954 14.2169C12.0954 14.1104 12.0101 14.0241 11.9049 14.0241C11.7998 14.0241 11.7145 14.1104 11.7145 14.2169C11.7145 14.3233 11.7998 14.4097 11.9049 14.4097ZM12.3811 13.8313C12.3811 13.9378 12.2959 14.0241 12.1907 14.0241C12.0855 14.0241 12.0002 13.9378 12.0002 13.8313C12.0002 13.7249 12.0855 13.6386 12.1907 13.6386C12.2959 13.6386 12.3811 13.7249 12.3811 13.8313Z" fill="#013399"/>
</g>
</svg>
