<svg width="32" height="24" viewBox="0 0 32 24" fill="none" xmlns="http://www.w3.org/2000/svg">
<mask id="mask0_5190_105540" style="mask-type:luminance" maskUnits="userSpaceOnUse" x="0" y="0" width="32" height="24">
<rect width="32" height="24" fill="white"/>
</mask>
<g mask="url(#mask0_5190_105540)">
<path fill-rule="evenodd" clip-rule="evenodd" d="M0 0V24H32V0H0Z" fill="#FECA00"/>
<mask id="mask1_5190_105540" style="mask-type:luminance" maskUnits="userSpaceOnUse" x="0" y="0" width="32" height="24">
<path fill-rule="evenodd" clip-rule="evenodd" d="M0 0V24H32V0H0Z" fill="white"/>
</mask>
<g mask="url(#mask1_5190_105540)">
<path fill-rule="evenodd" clip-rule="evenodd" d="M0 0V14H32V0H0Z" fill="#3CA5D9"/>
<path fill-rule="evenodd" clip-rule="evenodd" d="M0 18V24H32V18H0Z" fill="#5A962A"/>
<path fill-rule="evenodd" clip-rule="evenodd" d="M24.0835 11.8656C24.0504 11.8664 24.0171 11.8668 23.9837 11.8668C23.9552 11.8668 23.9267 11.8665 23.8983 11.8659L23.2938 13.8398L23.166 11.7838C23.1047 11.7712 23.044 11.7571 22.9838 11.7418L21.9371 13.5217L22.2915 11.495C22.2345 11.4685 22.1782 11.4407 22.1226 11.4116L20.6911 12.9027L21.5075 11.0139C21.4577 10.9749 21.409 10.9347 21.3612 10.8934L19.6231 12.0162L20.8555 10.3675C20.8158 10.3177 20.7772 10.2669 20.7399 10.2152L18.7905 10.9099L20.3708 9.58953C20.3435 9.53135 20.3175 9.47239 20.2929 9.4127L18.2382 9.64357L20.0815 8.72045C20.0685 8.65722 20.057 8.59345 20.0471 8.52916L17.9961 8.28534L20.0037 7.80786C20.0058 7.74254 20.0095 7.67762 20.0147 7.61315L18.0772 6.9085L20.1401 6.90187C20.1574 6.83861 20.1763 6.77598 20.1968 6.71403L18.477 5.58727L20.4862 6.05147C20.5179 5.99415 20.551 5.93769 20.5854 5.88214L19.1742 4.39286L21.0225 5.30363C21.0664 5.25539 21.1115 5.20823 21.1578 5.1622L20.131 3.38969L21.7181 4.69831C21.7718 4.66153 21.8265 4.62602 21.8821 4.59182L21.2959 2.63182L22.5358 4.26812C22.5964 4.24476 22.6577 4.22282 22.7196 4.20234L22.6061 2.16011L23.4321 4.03744C23.4959 4.02871 23.5601 4.02147 23.6248 4.01576L23.991 2L24.3574 4.01709C24.4217 4.023 24.4856 4.03042 24.549 4.03932L25.3758 2.16011L25.262 4.20705C25.323 4.22744 25.3833 4.24925 25.4428 4.27244L26.686 2.63182L26.0976 4.59934C26.1517 4.63289 26.2049 4.6677 26.2573 4.70371L27.8509 3.38969L26.8188 5.17132C26.8635 5.21602 26.907 5.26177 26.9495 5.30854L28.8077 4.39286L27.3878 5.89135C27.4208 5.94488 27.4525 5.99925 27.4829 6.05442L29.5049 5.58727L27.7733 6.7218C27.7927 6.7812 27.8108 6.84122 27.8274 6.90182L29.9047 6.9085L27.9532 7.61824C27.9581 7.6799 27.9616 7.74197 27.9637 7.8044L29.9858 8.28534L27.9201 8.53091C27.9106 8.59239 27.8997 8.65339 27.8874 8.7139L29.7437 9.64357L27.6752 9.41115C27.6517 9.46841 27.6268 9.525 27.6007 9.58088L29.1915 10.9099L27.2306 10.2111C27.1947 10.261 27.1576 10.31 27.1194 10.3581L28.3589 12.0162L26.6124 10.888C26.5661 10.9282 26.5189 10.9674 26.4708 11.0055L27.2908 12.9027L25.8545 11.4066C25.8001 11.4352 25.7451 11.4626 25.6893 11.4888L26.0448 13.5217L24.9962 11.7385C24.9367 11.7539 24.8767 11.768 24.8161 11.7807L24.6881 13.8398L24.0835 11.8656ZM23.9477 10.4148C25.3483 10.4148 26.4838 9.29593 26.4838 7.91569C26.4838 6.53545 25.3483 5.41654 23.9477 5.41654C22.5471 5.41654 21.4117 6.53545 21.4117 7.91569C21.4117 9.29593 22.5471 10.4148 23.9477 10.4148ZM25.4064 7.98885C25.4064 8.77819 24.7665 9.41808 23.9771 9.41808C23.1878 9.41808 22.5479 8.77819 22.5479 7.98885C22.5479 7.1995 23.1878 6.55962 23.9771 6.55962C24.7665 6.55962 25.4064 7.1995 25.4064 7.98885Z" fill="#FFDC17"/>
</g>
</g>
</svg>
