<svg width="32" height="24" viewBox="0 0 32 24" fill="none" xmlns="http://www.w3.org/2000/svg">
<mask id="mask0_5190_105446" style="mask-type:luminance" maskUnits="userSpaceOnUse" x="0" y="0" width="32" height="24">
<rect width="32" height="24" fill="white"/>
</mask>
<g mask="url(#mask0_5190_105446)">
<path fill-rule="evenodd" clip-rule="evenodd" d="M0 0V24H32V0H0Z" fill="#F7FCFF"/>
<mask id="mask1_5190_105446" style="mask-type:luminance" maskUnits="userSpaceOnUse" x="0" y="0" width="32" height="24">
<path fill-rule="evenodd" clip-rule="evenodd" d="M0 0V24H32V0H0Z" fill="white"/>
</mask>
<g mask="url(#mask1_5190_105446)">
<path fill-rule="evenodd" clip-rule="evenodd" d="M0 0V12H32V0H0Z" fill="#E31D1C"/>
<path fill-rule="evenodd" clip-rule="evenodd" d="M8.86901 10.5896C8.86901 10.5896 6.04332 9.4531 6.04332 6.37402C6.04332 3.29495 8.86901 2.19517 8.86901 2.19517C7.49567 1.8475 3.85156 2.15846 3.85156 6.37402C3.85156 10.5896 7.44061 11.3846 8.86901 10.5896ZM9.59298 10.0806L10.4036 9.59127L11.2321 10.0806L11.0293 9.12568L11.7028 8.37234H10.7903L10.4036 7.48064L10.0169 8.37234L9.10283 8.41098L9.77788 9.12568L9.59298 10.0806ZM13.3499 9.53662L12.5393 10.026L12.7242 9.07103L12.0491 8.35633L12.9632 8.31769L13.3499 7.42599L13.7366 8.31769H14.6491L13.9756 9.07103L14.1784 10.026L13.3499 9.53662ZM11.2878 5.76988L12.0984 5.28051L12.9269 5.76988L12.7241 4.81492L13.3976 4.06158H12.4851L12.0984 3.16988L11.7117 4.06158L10.7976 4.10022L11.4727 4.81492L11.2878 5.76988ZM9.37039 7.22267L8.55977 7.71204L8.74467 6.75708L8.06962 6.04239L8.98367 6.00374L9.37039 5.11204L9.75711 6.00374H10.6696L9.99612 6.75708L10.1989 7.71204L9.37039 7.22267ZM13.9182 7.66819L14.7288 7.17882L15.5573 7.66819L15.3545 6.71323L16.028 5.95989H15.1155L14.7288 5.06819L14.3421 5.95989L13.428 5.99853L14.1031 6.71323L13.9182 7.66819Z" fill="#F1F9FF"/>
</g>
</g>
</svg>
