<svg width="32" height="24" viewBox="0 0 32 24" fill="none" xmlns="http://www.w3.org/2000/svg">
<mask id="mask0_5190_105092" style="mask-type:luminance" maskUnits="userSpaceOnUse" x="0" y="0" width="32" height="24">
<rect width="32" height="24" fill="white"/>
</mask>
<g mask="url(#mask0_5190_105092)">
<path fill-rule="evenodd" clip-rule="evenodd" d="M0 0H32V24H0V0Z" fill="#3D58DB"/>
<path d="M0 5H-1V6V18V19H0H32H33V18V6V5H32H0Z" fill="#C51918" stroke="#FFD018" stroke-width="2"/>
<path d="M7.15079 9.33101C7.03084 9.33101 6.93359 9.05981 6.93359 8.72527C6.93359 8.39072 7.03084 8.11952 7.15079 8.11952H24.5616C24.6815 8.11952 24.7788 8.39072 24.7788 8.72527C24.7788 9.05981 24.6815 9.33101 24.5616 9.33101H7.15079Z" fill="#FFD018"/>
<path fill-rule="evenodd" clip-rule="evenodd" d="M24.0977 8.6022L25.1087 7.31241L26.8977 8.6022L25.1087 9.92591L24.0977 8.6022Z" fill="#F7FCFF"/>
<path d="M7.15079 13.331C7.03084 13.331 6.93359 13.0598 6.93359 12.7253C6.93359 12.3907 7.03084 12.1195 7.15079 12.1195H24.5616C24.6815 12.1195 24.7788 12.3907 24.7788 12.7253C24.7788 13.0598 24.6815 13.331 24.5616 13.331H7.15079Z" fill="#FFD018"/>
<path fill-rule="evenodd" clip-rule="evenodd" d="M24.0977 12.6022L25.1087 11.3124L26.8977 12.6022L25.1087 13.9259L24.0977 12.6022Z" fill="#F7FCFF"/>
<path d="M4.3459 15.8217C4.18507 15.8217 4.05469 15.5138 4.05469 15.1339C4.05469 14.7541 4.18507 14.4462 4.3459 14.4462H27.6901C27.8509 14.4462 27.9813 14.7541 27.9813 15.1339C27.9813 15.5138 27.8509 15.8217 27.6901 15.8217H4.3459Z" fill="#FFD018"/>
<path fill-rule="evenodd" clip-rule="evenodd" d="M8.81641 12.0527C8.81641 12.0527 11.6578 6.07272 15.7217 6.07272C19.7856 6.07272 22.7225 12.0527 22.7225 12.0527C22.7225 12.0527 19.1363 17.9542 15.7694 17.9542C12.4026 17.9542 8.81641 12.0527 8.81641 12.0527Z" fill="#F7FCFF"/>
<mask id="mask1_5190_105092" style="mask-type:luminance" maskUnits="userSpaceOnUse" x="8" y="6" width="15" height="12">
<path fill-rule="evenodd" clip-rule="evenodd" d="M8.81641 12.0527C8.81641 12.0527 11.6578 6.07272 15.7217 6.07272C19.7856 6.07272 22.7225 12.0527 22.7225 12.0527C22.7225 12.0527 19.1363 17.9542 15.7694 17.9542C12.4026 17.9542 8.81641 12.0527 8.81641 12.0527Z" fill="white"/>
</mask>
<g mask="url(#mask1_5190_105092)">
<path fill-rule="evenodd" clip-rule="evenodd" d="M15.9233 5.68015C15.9233 5.68015 14.9961 6.80635 15.3051 7.88027C15.6142 8.95418 16.3344 8.84075 16.3344 9.78652C16.3344 10.7323 16.0017 11.6968 16.3344 11.6968C16.6671 11.6968 16.7823 12.3495 16.4783 12.7919C16.1742 13.2344 15.9053 13.2481 15.9233 13.9682C15.9413 14.6883 17.5154 15.3951 16.7529 15.3951C15.9904 15.3951 14.9854 16.1352 15.3051 16.1352C15.6249 16.1352 17.2978 16.7118 17.2978 17.4686C17.2978 18.2254 17.2978 18.831 17.2978 18.831H8.57031V5.68015H15.9233Z" fill="#272727"/>
<path fill-rule="evenodd" clip-rule="evenodd" d="M11.8172 9.92308H11.3828V11.6923H11.8172V9.92308ZM13.0986 9.92308H12.6643V11.6923H13.0986V9.92308ZM12.0235 9.92308H12.4579V11.6923H12.0235V9.92308ZM13.7394 9.92308H13.305V11.6923H13.7394V9.92308ZM13.9457 9.92308H14.3801V11.6923H13.9457V9.92308ZM15.0208 9.92308H14.5864V11.6923H15.0208V9.92308ZM11.3828 12.4615H11.8172V14.2308H11.3828V12.4615ZM13.0986 12.4615H12.6643V14.2308H13.0986V12.4615ZM12.0235 12.4615H12.4579V14.2308H12.0235V12.4615ZM13.7394 12.4615H13.305V14.2308H13.7394V12.4615ZM13.9457 12.4615H14.3801V14.2308H13.9457V12.4615ZM15.0208 12.4615H14.5864V14.2308H15.0208V12.4615Z" fill="#F7FCFF"/>
<path fill-rule="evenodd" clip-rule="evenodd" d="M16.9774 9.92308H16.543V11.6923H16.9774V9.92308ZM18.2588 9.92308H17.8244V11.6923H18.2588V9.92308ZM17.1837 9.92308H17.6181V11.6923H17.1837V9.92308ZM18.8995 9.92308H18.4651V11.6923H18.8995V9.92308ZM19.1059 9.92308H19.5403V11.6923H19.1059V9.92308ZM20.181 9.92308H19.7466V11.6923H20.181V9.92308ZM16.543 12.4615H16.9774V14.2308H16.543V12.4615ZM18.2588 12.4615H17.8244V14.2308H18.2588V12.4615ZM17.1837 12.4615H17.6181V14.2308H17.1837V12.4615ZM18.8995 12.4615H18.4651V14.2308H18.8995V12.4615ZM19.1059 12.4615H19.5403V14.2308H19.1059V12.4615ZM20.181 12.4615H19.7466V14.2308H20.181V12.4615Z" fill="#272727"/>
<path fill-rule="evenodd" clip-rule="evenodd" d="M13.2324 7.07157C12.6239 7.2601 12.3454 8.85591 12.4134 9.24164C12.4814 9.62737 12.6879 9.19324 12.6879 9.19324C12.6879 9.19324 13.1089 10.1083 13.1524 10.3545C13.1958 10.6007 13.4175 9.98238 13.4175 9.98238C13.4175 9.98238 14.1478 10.4855 14.2467 11.0461C14.3455 11.6067 14.4942 10.4046 14.4942 10.4046L14.6596 10.3754L14.555 9.78182L14.8705 10.0516L14.7731 9.49956C14.7731 9.49956 15.0107 9.81008 14.9505 9.46829C14.8902 9.12651 14.8566 8.9357 14.8566 8.9357L14.7742 8.46854L15.0865 8.41348C15.0865 8.41348 13.8409 6.88304 13.2324 7.07157Z" fill="#3D58DB"/>
</g>
<path fill-rule="evenodd" clip-rule="evenodd" d="M26.0896 13.6959C25.4576 13.7759 24.9062 15.2991 24.9062 15.6908C24.9062 16.0824 25.185 15.6908 25.185 15.6908C25.185 15.6908 25.4407 16.6651 25.4407 16.9151C25.4407 17.1651 25.7664 16.5946 25.7664 16.5946C25.7664 16.5946 26.3983 17.2169 26.3983 17.7862C26.3983 18.3554 26.7535 17.1974 26.7535 17.1974H26.9215V16.5946L27.1853 16.9151V16.3545C27.1853 16.3545 27.3654 16.7016 27.3654 16.3545C27.3654 16.0075 27.3654 15.8137 27.3654 15.8137V15.3393H27.6825C27.6825 15.3393 26.7216 13.6159 26.0896 13.6959Z" fill="#3D58DB"/>
<path fill-rule="evenodd" clip-rule="evenodd" d="M5.59402 13.4651C6.22601 13.5451 6.77734 15.0683 6.77734 15.46C6.77734 15.8517 6.49864 15.46 6.49864 15.46C6.49864 15.46 6.24289 16.4343 6.24289 16.6843C6.24289 16.9343 5.91716 16.3638 5.91716 16.3638C5.91716 16.3638 5.2853 16.9861 5.2853 17.5554C5.2853 18.1247 4.93013 16.9666 4.93013 16.9666H4.76214V16.3638L4.49829 16.6843V16.1238C4.49829 16.1238 4.31821 16.4708 4.31821 16.1238C4.31821 15.7767 4.31821 15.5829 4.31821 15.5829V15.1086H4.00111C4.00111 15.1086 4.96202 13.3851 5.59402 13.4651Z" fill="#3D58DB"/>
</g>
</svg>
