<svg width="32" height="24" viewBox="0 0 32 24" fill="none" xmlns="http://www.w3.org/2000/svg">
<mask id="mask0_5190_104691" style="mask-type:luminance" maskUnits="userSpaceOnUse" x="0" y="0" width="32" height="24">
<rect width="32" height="24" fill="white"/>
</mask>
<g mask="url(#mask0_5190_104691)">
<path fill-rule="evenodd" clip-rule="evenodd" d="M0 0V24H32V0H0Z" fill="#29C470"/>
<mask id="mask1_5190_104691" style="mask-type:luminance" maskUnits="userSpaceOnUse" x="0" y="0" width="32" height="24">
<path fill-rule="evenodd" clip-rule="evenodd" d="M0 0V24H32V0H0Z" fill="white"/>
</mask>
<g mask="url(#mask1_5190_104691)">
<rect x="2" y="-0.322922" width="10" height="26.3229" fill="#C51918"/>
<mask id="mask2_5190_104691" style="mask-type:luminance" maskUnits="userSpaceOnUse" x="2" y="-1" width="10" height="27">
<rect x="2" y="-0.322922" width="10" height="26.3229" fill="white"/>
</mask>
<g mask="url(#mask2_5190_104691)">
<path fill-rule="evenodd" clip-rule="evenodd" d="M2.59535 0.905626L2.04927 1.60734L2 1.55863L2.52982 0.87782V0.741155L2.53182 0.728459L2.59342 0.538775L2.55572 0.472698L2.24326 0.785112L2.84555 -0.152898V0.167626L2.96114 0.271955L3.23721 -0.210907L2.96021 -0.675624L2.76029 -0.521986L2.84136 -0.359119L2.78561 -0.32041L2.33431 -1.07543L2.62183 -0.878831L2.67248 -0.952274L2.39696 -1.23292L2.51883 -1.36713L2.11613 -1.95485L2.168 -2L2.60635 -1.36025L2.49264 -1.23502L2.76156 -0.961092L2.63775 -0.781553L2.55528 -0.837937L2.71261 -0.574742L2.9778 -0.77855L3.31566 -0.211753L2.97687 0.38079L2.78002 0.203106V0.0751505L2.58241 0.382915L2.66615 0.529695L2.59535 0.747702V0.905626ZM2.04927 6.63024L2.59535 5.92852V5.7706L2.66615 5.55259L2.58241 5.40581L2.78002 5.09804V5.226L2.97687 5.40368L3.31566 4.81114L2.9778 4.24434L2.71261 4.44815L2.55528 4.18496L2.63775 4.24134L2.76156 4.0618L2.49264 3.78787L2.60635 3.66265L2.168 3.02289L2.11613 3.06804L2.51883 3.65576L2.39696 3.78997L2.67248 4.07062L2.62183 4.14406L2.33431 3.94746L2.78561 4.70248L2.84136 4.66377L2.76029 4.50091L2.96021 4.34727L3.23721 4.81199L2.96114 5.29485L2.84555 5.19052V4.87L2.24326 5.80801L2.55572 5.49559L2.59342 5.56167L2.53182 5.75135L2.52982 5.76405V5.90071L2 6.58153L2.04927 6.63024ZM2.59535 10.5082L2.04927 11.2099L2 11.1612L2.52982 10.4804V10.3437L2.53182 10.3311L2.59342 10.1414L2.55572 10.0753L2.24326 10.3877L2.84555 9.44969V9.77022L2.96114 9.87455L3.23721 9.39168L2.96021 8.92697L2.76029 9.08061L2.84136 9.24347L2.78561 9.28218L2.33431 8.52716L2.62183 8.72376L2.67248 8.65032L2.39696 8.36967L2.51883 8.23546L2.11613 7.64774L2.168 7.60259L2.60635 8.24235L2.49264 8.36757L2.76156 8.6415L2.63775 8.82104L2.55528 8.76465L2.71261 9.02785L2.9778 8.82404L3.31566 9.39084L2.97687 9.98338L2.78002 9.8057V9.67774L2.58241 9.98551L2.66615 10.1323L2.59535 10.3503V10.5082ZM2.04927 15.8635L2.59535 15.1618V15.0039L2.66615 14.7859L2.58241 14.6391L2.78002 14.3313V14.4593L2.97687 14.6369L3.31566 14.0444L2.9778 13.4776L2.71261 13.6814L2.55528 13.4182L2.63775 13.4746L2.76156 13.2951L2.49264 13.0211L2.60635 12.8959L2.168 12.2562L2.11613 12.3013L2.51883 12.889L2.39696 13.0232L2.67248 13.3039L2.62183 13.3773L2.33431 13.1807L2.78561 13.9357L2.84136 13.897L2.76029 13.7342L2.96021 13.5805L3.23721 14.0452L2.96114 14.5281L2.84555 14.4238V14.1033L2.24326 15.0413L2.55572 14.7289L2.59342 14.7949L2.53182 14.9846L2.52982 14.9973V15.134L2 15.8148L2.04927 15.8635ZM2.04927 20L2.59535 19.2983V19.1404L2.66615 18.9224L2.58241 18.7756L2.78002 18.4678V18.5958L2.97687 18.7734L3.31566 18.1809L2.9778 17.6141L2.71261 17.8179L2.55528 17.5547L2.63775 17.6111L2.76156 17.4316L2.49264 17.1576L2.60635 17.0324L2.168 16.3927L2.11613 16.4378L2.51883 17.0255L2.39696 17.1597L2.67248 17.4404L2.62183 17.5138L2.33431 17.3172L2.78561 18.0722L2.84136 18.0335L2.76029 17.8707L2.96021 17.717L3.23721 18.1817L2.96114 18.6646L2.84555 18.5603V18.2398L2.24326 19.1778L2.55572 18.8654L2.59342 18.9314L2.53182 19.1211L2.52982 19.1338V19.2705L2 19.9513L2.04927 20ZM11.9507 20L11.4046 19.2983V19.1404L11.3338 18.9224L11.4176 18.7756L11.22 18.4678V18.5958L11.0231 18.7734L10.6843 18.1809L11.0222 17.6141L11.2874 17.8179L11.4447 17.5547L11.3623 17.6111L11.2384 17.4316L11.5074 17.1576L11.3937 17.0324L11.832 16.3927L11.8839 16.4378L11.4812 17.0255L11.603 17.1597L11.3275 17.4404L11.3782 17.5138L11.6657 17.3172L11.2144 18.0722L11.1586 18.0335L11.2397 17.8707L11.0398 17.717L10.7628 18.1817L11.0389 18.6646L11.1544 18.5603V18.2398L11.7567 19.1778L11.4443 18.8654L11.4066 18.9314L11.4682 19.1211L11.4702 19.1338V19.2705L12 19.9513L11.9507 20ZM11.4046 15.1618L11.9507 15.8635L12 15.8148L11.4702 15.134V14.9973L11.4682 14.9846L11.4066 14.7949L11.4443 14.7289L11.7567 15.0413L11.1544 14.1033V14.4238L11.0389 14.5281L10.7628 14.0452L11.0398 13.5805L11.2397 13.7342L11.1586 13.897L11.2144 13.9357L11.6657 13.1807L11.3782 13.3773L11.3275 13.3039L11.603 13.0232L11.4812 12.889L11.8839 12.3013L11.832 12.2562L11.3937 12.8959L11.5074 13.0211L11.2384 13.2951L11.3623 13.4746L11.4447 13.4182L11.2874 13.6814L11.0222 13.4776L10.6843 14.0444L11.0231 14.6369L11.22 14.4593V14.3313L11.4176 14.6391L11.3338 14.7859L11.4046 15.0039V15.1618ZM11.9507 11.2099L11.4046 10.5082V10.3503L11.3338 10.1323L11.4176 9.98551L11.22 9.67774V9.8057L11.0231 9.98338L10.6843 9.39084L11.0222 8.82404L11.2874 9.02785L11.4447 8.76465L11.3623 8.82104L11.2384 8.6415L11.5074 8.36757L11.3937 8.24235L11.832 7.60259L11.8839 7.64774L11.4812 8.23546L11.603 8.36967L11.3275 8.65032L11.3782 8.72376L11.6657 8.52716L11.2144 9.28218L11.1586 9.24347L11.2397 9.08061L11.0398 8.92697L10.7628 9.39168L11.0389 9.87455L11.1544 9.77022V9.44969L11.7567 10.3877L11.4443 10.0753L11.4066 10.1414L11.4682 10.3311L11.4702 10.3437V10.4804L12 11.1612L11.9507 11.2099ZM11.4046 5.92852L11.9507 6.63024L12 6.58153L11.4702 5.90071V5.76405L11.4682 5.75135L11.4066 5.56167L11.4443 5.49559L11.7567 5.80801L11.1544 4.87V5.19052L11.0389 5.29485L10.7628 4.81199L11.0398 4.34727L11.2397 4.50091L11.1586 4.66377L11.2144 4.70248L11.6657 3.94746L11.3782 4.14406L11.3275 4.07062L11.603 3.78997L11.4812 3.65576L11.8839 3.06804L11.832 3.02289L11.3937 3.66265L11.5074 3.78787L11.2384 4.0618L11.3623 4.24134L11.4447 4.18496L11.2874 4.44815L11.0222 4.24434L10.6843 4.81114L11.0231 5.40368L11.22 5.226V5.09804L11.4176 5.40581L11.3338 5.55259L11.4046 5.7706V5.92852ZM11.9507 1.60734L11.4046 0.905626V0.747702L11.3338 0.529695L11.4176 0.382915L11.22 0.0751505V0.203106L11.0231 0.38079L10.6843 -0.211753L11.0222 -0.77855L11.2874 -0.574742L11.4447 -0.837937L11.3623 -0.781553L11.2384 -0.961092L11.5074 -1.23502L11.3937 -1.36025L11.832 -2L11.8839 -1.95485L11.4812 -1.36713L11.603 -1.23292L11.3275 -0.952274L11.3782 -0.878831L11.6657 -1.07543L11.2144 -0.32041L11.1586 -0.359119L11.2397 -0.521986L11.0398 -0.675624L10.7628 -0.210907L11.0389 0.271955L11.1544 0.167626V-0.152898L11.7567 0.785112L11.4443 0.472698L11.4066 0.538775L11.4682 0.728459L11.4702 0.741155V0.87782L12 1.55863L11.9507 1.60734Z" fill="#E8AA00"/>
<path fill-rule="evenodd" clip-rule="evenodd" d="M7.30511 14.5646H8.85861V14.9292H9.2126V15.2208H9.63738V16.1687H9.2126V16.4604H8.85861V16.7521H7.34656L6.92824 17.1239L6.50793 16.7521H5.1064V16.4604H4.75242V16.1687H4.39844V15.2208H4.75242V14.9292H5.1064V14.5646H6.54958L6.92824 14.2296L7.30511 14.5646Z" fill="#389F5D"/>
<path d="M8.85861 14.5646H9.10861V14.3146H8.85861V14.5646ZM7.30511 14.5646L7.13904 14.7514L7.21008 14.8146H7.30511V14.5646ZM8.85861 14.9292H8.60861V15.1792H8.85861V14.9292ZM9.2126 14.9292H9.4626V14.6792H9.2126V14.9292ZM9.2126 15.2208H8.9626V15.4708H9.2126V15.2208ZM9.63738 15.2208H9.88738V14.9708H9.63738V15.2208ZM9.63738 16.1687V16.4187H9.88738V16.1687H9.63738ZM9.2126 16.1687V15.9187H8.9626V16.1687H9.2126ZM9.2126 16.4604V16.7104H9.4626V16.4604H9.2126ZM8.85861 16.4604V16.2104H8.60861V16.4604H8.85861ZM8.85861 16.7521V17.0021H9.10861V16.7521H8.85861ZM7.34656 16.7521V16.5021H7.25153L7.18049 16.5652L7.34656 16.7521ZM6.92824 17.1239L6.76261 17.3111L6.92864 17.458L7.09432 17.3107L6.92824 17.1239ZM6.50793 16.7521L6.67356 16.5648L6.60263 16.5021H6.50793V16.7521ZM5.1064 16.7521H4.8564V17.0021H5.1064V16.7521ZM5.1064 16.4604H5.3564V16.2104H5.1064V16.4604ZM4.75242 16.4604H4.50242V16.7104H4.75242V16.4604ZM4.75242 16.1687H5.00242V15.9187H4.75242V16.1687ZM4.39844 16.1687H4.14844V16.4187H4.39844V16.1687ZM4.39844 15.2208V14.9708H4.14844V15.2208H4.39844ZM4.75242 15.2208V15.4708H5.00242V15.2208H4.75242ZM4.75242 14.9292V14.6792H4.50242V14.9292H4.75242ZM5.1064 14.9292V15.1792H5.3564V14.9292H5.1064ZM5.1064 14.5646V14.3146H4.8564V14.5646H5.1064ZM6.54958 14.5646V14.8146H6.64428L6.71521 14.7518L6.54958 14.5646ZM6.92824 14.2296L7.09432 14.0428L6.92864 13.8955L6.76261 14.0424L6.92824 14.2296ZM8.85861 14.3146H7.30511V14.8146H8.85861V14.3146ZM9.10861 14.9292V14.5646H8.60861V14.9292H9.10861ZM9.2126 14.6792H8.85861V15.1792H9.2126V14.6792ZM9.4626 15.2208V14.9292H8.9626V15.2208H9.4626ZM9.63738 14.9708H9.2126V15.4708H9.63738V14.9708ZM9.88738 16.1687V15.2208H9.38738V16.1687H9.88738ZM9.2126 16.4187H9.63738V15.9187H9.2126V16.4187ZM9.4626 16.4604V16.1687H8.9626V16.4604H9.4626ZM8.85861 16.7104H9.2126V16.2104H8.85861V16.7104ZM9.10861 16.7521V16.4604H8.60861V16.7521H9.10861ZM7.34656 17.0021H8.85861V16.5021H7.34656V17.0021ZM7.09432 17.3107L7.51264 16.9389L7.18049 16.5652L6.76217 16.937L7.09432 17.3107ZM6.3423 16.9393L6.76261 17.3111L7.09388 16.9366L6.67356 16.5648L6.3423 16.9393ZM5.1064 17.0021H6.50793V16.5021H5.1064V17.0021ZM4.8564 16.4604V16.7521H5.3564V16.4604H4.8564ZM4.75242 16.7104H5.1064V16.2104H4.75242V16.7104ZM4.50242 16.1687V16.4604H5.00242V16.1687H4.50242ZM4.39844 16.4187H4.75242V15.9187H4.39844V16.4187ZM4.14844 15.2208V16.1687H4.64844V15.2208H4.14844ZM4.75242 14.9708H4.39844V15.4708H4.75242V14.9708ZM4.50242 14.9292V15.2208H5.00242V14.9292H4.50242ZM5.1064 14.6792H4.75242V15.1792H5.1064V14.6792ZM4.8564 14.5646V14.9292H5.3564V14.5646H4.8564ZM6.54958 14.3146H5.1064V14.8146H6.54958V14.3146ZM6.71521 14.7518L7.09388 14.4169L6.76261 14.0424L6.38394 14.3773L6.71521 14.7518ZM6.76217 14.4165L7.13904 14.7514L7.47119 14.3777L7.09432 14.0428L6.76217 14.4165Z" fill="#E8AA00"/>
<path fill-rule="evenodd" clip-rule="evenodd" d="M5.3125 15.4073V14.7632H6.06307L5.3125 15.4073ZM8.47015 15.4073V14.7632H7.71958L8.47015 15.4073ZM5.3125 16.574V15.9298L6.06307 16.574H5.3125ZM8.47015 15.9298V16.574H7.71958L8.47015 15.9298Z" fill="#C51918"/>
<path fill-rule="evenodd" clip-rule="evenodd" d="M6.64453 14.8186L6.90362 14.4793L7.15945 14.8186H6.64453ZM6.64453 15.1356L6.90362 15.4748L7.15945 15.1356H6.64453ZM6.90362 15.9376L6.64453 16.2769H7.15945L6.90362 15.9376ZM6.64453 16.5939L6.90362 16.9332L7.15945 16.5939H6.64453Z" fill="#E8AA00"/>
<path fill-rule="evenodd" clip-rule="evenodd" d="M6.64875 14.7784V14.9242H6.5V15.1242H6.64875V15.27H7.16783V15.1242H7.31658V14.9242H7.16783V14.7784H6.64875ZM7.16783 16.3825V16.2367H6.64875V16.3825H6.5V16.5825H6.64875V16.7284H7.16783V16.5825H7.31658V16.3825H7.16783Z" fill="#AF0100"/>
<path fill-rule="evenodd" clip-rule="evenodd" d="M5.65234 15.5493L5.89896 15.2085L6.14249 15.5493H5.65234ZM5.65234 15.8677L5.89896 16.2085L6.14249 15.8677H5.65234ZM7.95206 15.2085L7.70544 15.5493H8.19558L7.95206 15.2085ZM7.70544 15.8677L7.95206 16.2085L8.19558 15.8677H7.70544Z" fill="#AF0100"/>
<path fill-rule="evenodd" clip-rule="evenodd" d="M5.64941 15.5075V15.6563H5.50781V15.8603H5.64941V16.009H6.14351V15.8603H6.28511V15.6563H6.14351V15.5075H5.64941ZM8.19661 15.6563V15.5075H7.7025V15.6563H7.56091V15.8603H7.7025V16.009H8.19661V15.8603H8.3382V15.6563H8.19661Z" fill="#E8AA00"/>
<mask id="mask3_5190_104691" style="mask-type:luminance" maskUnits="userSpaceOnUse" x="4" y="17" width="6" height="4">
<path fill-rule="evenodd" clip-rule="evenodd" d="M6.21688 17.2509L4.44531 18.2498V19.9054L6.21688 20.9447H8.13567L9.94937 19.9054V18.2498L8.13567 17.2509H6.21688Z" fill="white"/>
</mask>
<g mask="url(#mask3_5190_104691)">
<path d="M4.46875 19.0958H7.22981V20.9187H4.46875V19.0958Z" fill="#E8AA00"/>
<rect x="4.1875" y="17.2729" width="3.04425" height="1.82292" fill="#F9E8E7"/>
<path d="M4.89453 18.3352L5.81105 17.7833V18.3352H4.89453Z" fill="#E8AA00"/>
<rect width="3.04425" height="1.82292" transform="matrix(-1 0 0 1 10.2773 17.2729)" fill="#E8AA00"/>
<path d="M9.35547 18.3352L8.43895 17.7833V18.3352H9.35547Z" fill="#F9E8E7"/>
<rect x="9.99219" y="20.9187" width="2.76106" height="1.82292" transform="rotate(180 9.99219 20.9187)" fill="#F9E8E7"/>
<path d="M9.28516 19.8564L8.36864 20.4083V19.8564H9.28516Z" fill="#E8AA00"/>
<path d="M4.89453 19.7413L5.81105 20.2932V19.7413H4.89453Z" fill="#FCFCFC"/>
</g>
<path fill-rule="evenodd" clip-rule="evenodd" d="M6.24219 18.3667H6.70236L7.16254 18.2208L7.62272 18.3667H8.0829V19.7521H7.62272L7.16254 19.9708L6.70236 19.7521H6.24219V18.3667Z" fill="#C51918"/>
<path fill-rule="evenodd" clip-rule="evenodd" d="M7.79622 17.5376H8.04622V17.8197H8.14866V18.0197H8.04622V18.1273H7.79622V17.5376ZM5.28516 18.4126H5.03516V19.0023H5.28516V18.8947H5.3876V18.6947H5.28516V18.4126ZM5.63914 18.4126H5.38914V19.0023H5.63914V18.4126ZM5.28516 19.1417H5.03516V19.7315H5.28516V19.6239H5.3876V19.4239H5.28516V19.1417ZM5.38914 19.1417H5.63914V19.7315H5.38914V19.1417ZM8.92896 18.4126H9.17896V18.6947H9.28141V18.8947H9.17896V19.0023H8.92896V18.4126ZM9.53294 18.4126H9.28294V19.0023H9.53294V18.4126ZM9.17896 19.1417H8.92896V19.7315H9.17896V19.6239H9.28141V19.4239H9.17896V19.1417ZM9.28294 19.1417H9.53294V19.7315H9.28294V19.1417ZM8.4002 17.5376H8.1502V18.1273H8.4002V17.5376ZM6.3471 17.5376H6.0971V18.1273H6.3471V18.0197H6.44955V17.8197H6.3471V17.5376ZM6.45109 17.5376H6.70109V18.1273H6.45109V17.5376ZM7.79622 20.0167H8.04622V20.2989H8.14866V20.4989H8.04622V20.6065H7.79622V20.0167ZM8.4002 20.0167H8.1502V20.6065H8.4002V20.0167ZM6.3471 20.0167H6.0971V20.6065H6.3471V20.4989H6.44955V20.2989H6.3471V20.0167ZM6.45109 20.0167H6.70109V20.6065H6.45109V20.0167Z" fill="#C9343F"/>
<path fill-rule="evenodd" clip-rule="evenodd" d="M7.02364 18.6663H7.09444V18.468H6.74071V18.6947H6.44922V19.0196H6.72027V18.9467H6.52002V18.7676H6.76043L7.1223 19.0807L6.76043 19.3939H6.52002V19.2148H6.72027V19.1419H6.44922V19.4668H6.74071V19.6935H7.09444V19.4952H7.02364V19.6206H6.81151V19.4449L7.17951 19.1265L7.5475 19.4449V19.6206H7.33537V19.4952H7.26458V19.6935H7.6183V19.4668H7.90979V19.1419H7.63875V19.2148H7.839V19.3939H7.59858L7.23671 19.0807L7.59858 18.7676H7.839V18.9467H7.63875V19.0196H7.90979V18.6947H7.6183V18.468H7.26458V18.6663H7.33537V18.5409H7.5475V18.7166L7.17951 19.035L6.81151 18.7166V18.5409H7.02364V18.6663Z" fill="white"/>
<path fill-rule="evenodd" clip-rule="evenodd" d="M7.58254 4.79999H6.33579V8.79999H7.58254V4.79999ZM4.77734 5.64614H5.55656V7.79999H4.77734V5.64614ZM8.43968 5.64614H9.2189V7.79999H8.43968V5.64614Z" fill="#E8AA00"/>
<path fill-rule="evenodd" clip-rule="evenodd" d="M6.33766 5.10768H5.55844V8.1846H6.33766V5.10768ZM4.77922 5.95384H4V7.41537H4.77922V5.95384ZM9.22078 5.95384H10V7.41537H9.22078V5.95384ZM8.36364 5.10768H7.58442V8.1846H8.36364V5.10768Z" fill="#389F5D"/>
<path fill-rule="evenodd" clip-rule="evenodd" d="M6.18222 5.49229C6.18222 5.61974 6.07756 5.72306 5.94846 5.72306C5.81935 5.72306 5.71469 5.61974 5.71469 5.49229C5.71469 5.36484 5.81935 5.26152 5.94846 5.26152C6.07756 5.26152 6.18222 5.36484 6.18222 5.49229ZM4.62378 6.26152C4.62378 6.38897 4.51912 6.49229 4.39002 6.49229C4.26091 6.49229 4.15625 6.38897 4.15625 6.26152C4.15625 6.13407 4.26091 6.03075 4.39002 6.03075C4.51912 6.03075 4.62378 6.13407 4.62378 6.26152ZM4.62378 7.10767C4.62378 7.23512 4.51912 7.33844 4.39002 7.33844C4.26091 7.33844 4.15625 7.23512 4.15625 7.10767C4.15625 6.98022 4.26091 6.8769 4.39002 6.8769C4.51912 6.8769 4.62378 6.98022 4.62378 7.10767ZM5.94846 8.03075C6.07756 8.03075 6.18222 7.92743 6.18222 7.79998C6.18222 7.67253 6.07756 7.56921 5.94846 7.56921C5.81935 7.56921 5.71469 7.67253 5.71469 7.79998C5.71469 7.92743 5.81935 8.03075 5.94846 8.03075ZM9.6108 6.49229C9.7399 6.49229 9.84456 6.38897 9.84456 6.26152C9.84456 6.13407 9.7399 6.03075 9.6108 6.03075C9.48169 6.03075 9.37703 6.13407 9.37703 6.26152C9.37703 6.38897 9.48169 6.49229 9.6108 6.49229ZM9.84456 7.10767C9.84456 7.23512 9.7399 7.33844 9.6108 7.33844C9.48169 7.33844 9.37703 7.23512 9.37703 7.10767C9.37703 6.98022 9.48169 6.8769 9.6108 6.8769C9.7399 6.8769 9.84456 6.98022 9.84456 7.10767ZM7.97443 8.03075C8.10354 8.03075 8.2082 7.92743 8.2082 7.79998C8.2082 7.67253 8.10354 7.56921 7.97443 7.56921C7.84533 7.56921 7.74067 7.67253 7.74067 7.79998C7.74067 7.92743 7.84533 8.03075 7.97443 8.03075ZM8.2082 5.49229C8.2082 5.61974 8.10354 5.72306 7.97443 5.72306C7.84533 5.72306 7.74067 5.61974 7.74067 5.49229C7.74067 5.36484 7.84533 5.26152 7.97443 5.26152C8.10354 5.26152 8.2082 5.36484 8.2082 5.49229Z" fill="#E1E5E8"/>
<path fill-rule="evenodd" clip-rule="evenodd" d="M7.19333 5.1846C7.19333 5.31205 7.08867 5.41537 6.95957 5.41537C6.83046 5.41537 6.7258 5.31205 6.7258 5.1846C6.7258 5.05715 6.83046 4.95383 6.95957 4.95383C7.08867 4.95383 7.19333 5.05715 7.19333 5.1846ZM5.40113 6.03075C5.40113 6.1582 5.29647 6.26152 5.16736 6.26152C5.03825 6.26152 4.93359 6.1582 4.93359 6.03075C4.93359 5.9033 5.03825 5.79998 5.16736 5.79998C5.29647 5.79998 5.40113 5.9033 5.40113 6.03075ZM6.95957 8.72306C7.08867 8.72306 7.19333 8.61974 7.19333 8.49229C7.19333 8.36484 7.08867 8.26152 6.95957 8.26152C6.83046 8.26152 6.7258 8.36484 6.7258 8.49229C6.7258 8.61974 6.83046 8.72306 6.95957 8.72306ZM9.06346 6.03075C9.06346 6.1582 8.9588 6.26152 8.8297 6.26152C8.70059 6.26152 8.59593 6.1582 8.59593 6.03075C8.59593 5.9033 8.70059 5.79998 8.8297 5.79998C8.9588 5.79998 9.06346 5.9033 9.06346 6.03075ZM5.16736 7.64613C5.29647 7.64613 5.40113 7.54282 5.40113 7.41537C5.40113 7.28791 5.29647 7.1846 5.16736 7.1846C5.03825 7.1846 4.93359 7.28791 4.93359 7.41537C4.93359 7.54282 5.03825 7.64613 5.16736 7.64613ZM9.06346 7.41537C9.06346 7.54282 8.9588 7.64613 8.8297 7.64613C8.70059 7.64613 8.59593 7.54282 8.59593 7.41537C8.59593 7.28791 8.70059 7.1846 8.8297 7.1846C8.9588 7.1846 9.06346 7.28791 9.06346 7.41537Z" fill="#C51918"/>
<path fill-rule="evenodd" clip-rule="evenodd" d="M5.60734 6.39141L6.36591 5.70633H7.59759L8.46202 6.49229H9.6112V6.79998H8.49318V6.81604L7.59759 7.72691H6.36591L5.60734 6.90482V6.79998H4.3125V6.49229H5.60734V6.39141Z" fill="#C51918"/>
<path fill-rule="evenodd" clip-rule="evenodd" d="M7.01264 6.2765L7.381 6.64982L6.99428 7.01614L6.60757 6.64982L6.97593 6.2765L6.99429 6.25957L7.01264 6.2765ZM7.07971 7.17787L7.12285 7.13793L7.07869 7.0961L7.46256 6.73247L7.86295 7.13824L7.68276 7.32827H7.57592L7.3772 7.45329L7.07971 7.17787ZM6.99428 7.25696L6.62512 7.59876L6.37857 7.44366H6.25511L5.96402 7.13665L6.44167 6.65258L5.96094 6.19721L6.27638 5.89111L6.3907 5.98092L6.55611 5.81384L6.50639 5.76345L6.59012 5.68294L6.99428 6.09254L7.39845 5.68294L7.48218 5.76345L7.43246 5.81384L7.59787 5.98092L7.71219 5.89111L8.02763 6.19721L7.5469 6.65258L8.02455 7.13665L7.73346 7.44366H7.61L7.36345 7.59876L6.99428 7.25696ZM7.20029 6.30131L7.20514 6.29619L7.09445 6.19405L7.08055 6.17997L7.36848 5.9143L7.58806 6.13609L7.70403 6.04499L7.85987 6.19621L7.46534 6.56993L7.20029 6.30131ZM6.95303 7.13697L6.61137 7.45329L6.41265 7.32827H6.30581L6.12562 7.13824L6.52601 6.73247L6.95303 7.13697ZM6.1287 6.19621L6.52323 6.56993L6.90802 6.17997L6.62009 5.9143L6.40051 6.13609L6.28454 6.04499L6.1287 6.19621Z" fill="#E8AA00"/>
<path fill-rule="evenodd" clip-rule="evenodd" d="M4.44836 21.4417C4.23934 21.1764 4.09826 20.9973 4.0611 21C3.94444 21.0086 3.83503 22.2438 5.35145 23.1836C5.35145 23.1836 5.57528 23.308 5.70565 23.1836C5.83602 23.0591 5.70565 22.876 5.70565 22.876C5.21547 22.4153 4.75757 21.8341 4.44836 21.4417L4.44836 21.4417L4.44836 21.4417ZM9.55164 21.4417L9.55164 21.4417L9.55166 21.4416C9.76068 21.1764 9.90174 20.9973 9.9389 21C10.0556 21.0086 10.165 22.2438 8.64855 23.1836C8.64855 23.1836 8.42472 23.308 8.29435 23.1836C8.16398 23.0591 8.29435 22.876 8.29435 22.876C8.78453 22.4153 9.24243 21.8341 9.55164 21.4417ZM9.44071 23.1037C8.94241 23.2509 8.36529 23.2818 8.14461 23.1866C8.07422 23.1562 7.99949 23.1323 7.92096 23.1145C7.70143 23.0647 7.48745 23.0643 7.23351 23.0921C7.21197 23.0944 7.15882 23.1007 7.13999 23.1029L7.13983 23.1029L7.13329 23.1037C7.10938 23.1064 7.09557 23.1076 7.09293 23.1076C7.07805 23.1076 7.06173 23.1098 7.04384 23.1139C7.02595 23.1098 7.00964 23.1076 6.99475 23.1076C6.99212 23.1076 6.97831 23.1064 6.9544 23.1037C6.95404 23.1036 6.95167 23.1034 6.94786 23.1029C6.92917 23.1007 6.87578 23.0945 6.85417 23.0921C6.60024 23.0643 6.38626 23.0647 6.16673 23.1145C6.0882 23.1323 6.01346 23.1562 5.94307 23.1866C5.72239 23.2818 5.14527 23.2509 4.64698 23.1037C4.64698 23.1037 5.55375 23.4679 6.09229 23.3065C6.14451 23.284 6.19959 23.2664 6.25754 23.2532C6.41085 23.2184 6.56786 23.2153 6.75674 23.233C6.6773 23.27 6.58494 23.3123 6.47751 23.3559V23.4C6.68959 23.3139 6.93812 23.2732 7.04384 23.2607C7.14956 23.2732 7.39809 23.3139 7.61018 23.4V23.3559C7.50275 23.3123 7.41038 23.27 7.33095 23.233C7.51983 23.2153 7.67684 23.2184 7.83014 23.2532C7.8881 23.2664 7.94318 23.284 7.9954 23.3065C8.53394 23.4679 9.44071 23.1037 9.44071 23.1037Z" fill="#E8AA00"/>
<path fill-rule="evenodd" clip-rule="evenodd" d="M5.76365 9.97739L4.51172 11.0806V12.1314L5.6062 13.2312H7.84098L9.07314 12.0577V11.1632L7.84098 9.97739H5.76365Z" fill="#389F5D"/>
<path fill-rule="evenodd" clip-rule="evenodd" d="M6.19725 10.0941H5.91406V10.3129H6.19725V10.0941ZM6.19725 12.9542H5.91406V13.1729H6.19725V12.9542ZM6.62203 12.9542H6.90521V13.1729H6.62203V12.9542ZM6.90521 10.0941H6.62203V10.3129H6.90521V10.0941ZM7.32999 12.9542H7.61318V13.1729H7.32999V12.9542ZM7.61318 10.0941H7.32999V10.3129H7.61318V10.0941Z" fill="#C51918"/>
<path fill-rule="evenodd" clip-rule="evenodd" d="M6.55389 10.0375H6.26562V10.2562H6.55389V10.0375ZM6.55389 12.9542H6.26562V13.1729H6.55389V12.9542ZM6.98629 10.0375H7.27455V10.2562H6.98629V10.0375ZM7.27455 12.9542H6.98629V13.1729H7.27455V12.9542Z" fill="#E8AA00"/>
<path fill-rule="evenodd" clip-rule="evenodd" d="M4.91586 9.84192H8.69589V10.426H9.23714V12.8409H8.69589V13.34H4.91586V12.8409H4.32812V10.426H4.91586V9.84192ZM5.12825 10.6448H4.54051V12.6221H5.12825V13.1213H8.4835V12.6221H9.02475V10.6448H8.4835V10.0607H5.12825V10.6448Z" fill="#750100"/>
<path fill-rule="evenodd" clip-rule="evenodd" d="M6.40847 9.59999H6.05449V9.96457H6.40847V9.59999ZM6.97485 9.59999H6.62086V9.96457H6.97485V9.59999ZM7.18723 9.59999H7.54122V9.96457H7.18723V9.59999ZM6.40847 13.2458H6.05449V13.6104H6.40847V13.2458ZM6.62086 13.2458H6.97485V13.6104H6.62086V13.2458ZM7.54122 13.2458H7.18723V13.6104H7.54122V13.2458ZM3.99609 12.4384V12.0845H4.36068V12.4384H3.99609ZM3.99609 11.5011V11.8551H4.36068V11.5011H3.99609ZM3.99609 11.2718V10.9178H4.36068V11.2718H3.99609ZM9.09344 12.0845V12.4384H9.45802V12.0845H9.09344ZM9.09344 11.8551V11.5011H9.45802V11.8551H9.09344ZM9.09344 10.9178V11.2718H9.45802V10.9178H9.09344Z" fill="#389F5D"/>
<path fill-rule="evenodd" clip-rule="evenodd" d="M5.7785 10.2846L5.16797 10.8156V12.5339L5.67465 12.8924H7.87129L8.37723 12.5339V10.8156L7.80622 10.2846H5.7785Z" fill="#C51918"/>
<path fill-rule="evenodd" clip-rule="evenodd" d="M6.80309 10.9968L6.06641 11.6263H6.80309V10.9968Z" fill="#E1E5E8"/>
<path d="M6.80309 12.1973L6.06641 11.5678H6.80309V12.1973Z" fill="#E8AA00"/>
<path fill-rule="evenodd" clip-rule="evenodd" d="M6.73987 10.9968L7.47656 11.6263H6.73987V10.9968Z" fill="#E8AA00"/>
<path fill-rule="evenodd" clip-rule="evenodd" d="M6.77391 11.7962C6.89713 11.7962 6.99703 11.6963 6.99703 11.5731C6.99703 11.4499 6.89713 11.35 6.77391 11.35C6.65068 11.35 6.55078 11.4499 6.55078 11.5731C6.55078 11.6963 6.65068 11.7962 6.77391 11.7962Z" fill="#29AE66"/>
<path d="M6.73987 12.1973L7.47656 11.5678H6.73987V12.1973Z" fill="#E1E5E8"/>
<path fill-rule="evenodd" clip-rule="evenodd" d="M5.20357 11.35H4.56641V11.554H5.20357V11.35ZM5.20357 11.7219H4.56641V11.9259H5.20357V11.7219ZM8.38942 11.35H9.02658V11.554H8.38942V11.35ZM9.02658 11.7219H8.38942V11.9259H9.02658V11.7219Z" fill="#C51918"/>
<path fill-rule="evenodd" clip-rule="evenodd" d="M5.13278 11.1312H4.56641V11.3544H5.13278V11.1312ZM5.13278 11.5031H4.56641V11.7262H5.13278V11.5031ZM4.56641 11.875H5.13278V12.0981H4.56641V11.875ZM8.95579 11.1312H8.38942V11.3544H8.95579V11.1312ZM8.38942 11.5031H8.95579V11.7262H8.38942V11.5031ZM8.95579 11.875H8.38942V12.0981H8.95579V11.875Z" fill="#E8AA00"/>
<path fill-rule="evenodd" clip-rule="evenodd" d="M9.98313 1.59034L9.98098 1.99551H7.02206L7.01994 3.83551H6.09214C5.93018 3.83551 5.48612 3.52452 5.48612 3.52452H4.73277L4.38499 3.16921V2.81221L4.01172 2.369L4.01387 1.96383H6.97279L6.97491 0.123825H7.90271C8.06467 0.123825 8.50873 0.43482 8.50873 0.43482H9.26208L9.60987 0.790124V1.14713L9.98313 1.59034Z" fill="#E8AA00"/>
<path fill-rule="evenodd" clip-rule="evenodd" d="M4.01296 1.59034L4.01511 1.99551H6.97404L6.97615 3.83551H7.90395C8.06591 3.83551 8.50997 3.52452 8.50997 3.52452H9.26332L9.61111 3.16921V2.81221L9.98438 2.369L9.98222 1.96383H7.0233L7.02118 0.123825H6.09338C5.93143 0.123825 5.48737 0.43482 5.48737 0.43482H4.73402L4.38623 0.790124V1.14713L4.01296 1.59034Z" fill="#E1E5E8"/>
<path fill-rule="evenodd" clip-rule="evenodd" d="M5.99918 0.685349L5.96678 0.528855L6.60504 0.382083C6.68167 0.345084 6.81464 0.239682 6.9978 0.0684052L7.0836 0.16498L7.09833 0.148405C7.28149 0.319682 7.41446 0.425084 7.49108 0.462083L8.12935 0.608855L8.09695 0.765349L7.74298 0.692231L7.77685 0.722511C7.75253 0.737085 7.72607 0.758328 7.69772 0.786114L7.54828 0.764109L7.56217 0.713572L7.52465 0.707463C7.49716 0.759311 7.46573 0.833494 7.43215 0.928684L7.28269 0.884679L7.34321 0.594795L7.00542 0.277973L6.76876 0.499936C6.79821 0.526625 6.82756 0.557263 6.85696 0.591923C6.83185 0.601476 6.80785 0.609906 6.78494 0.617219L6.7748 0.619636L6.81343 0.804679L6.66398 0.848684C6.64447 0.793378 6.62568 0.745163 6.60797 0.704299L6.59565 0.706114C6.5673 0.678328 6.54084 0.657085 6.51652 0.642511L6.55882 0.604688C6.55188 0.59282 6.54524 0.582534 6.53893 0.573855L5.99918 0.685349ZM6.02545 1.25835L6.11066 1.12438L5.66985 0.828822L5.71887 0.76027L5.59325 0.665579L5.53917 0.741202L5.36423 0.623908L5.27902 0.75787L5.4468 0.870367L5.41224 0.918691L5.53786 1.01338L5.57748 0.957987L6.02545 1.25835ZM5.47999 1.41835L5.56521 1.28438L5.1244 0.988822L5.17342 0.92027L5.0478 0.825579L4.99372 0.901202L4.81878 0.783908L4.73356 0.91787L4.90135 1.03037L4.86679 1.07869L4.99241 1.17338L5.03203 1.11799L5.47999 1.41835ZM5.24623 1.89835L5.33144 1.76438L4.89063 1.46882L4.93965 1.40027L4.81403 1.30558L4.75995 1.3812L4.58501 1.26391L4.4998 1.39787L4.66758 1.51037L4.63302 1.55869L4.75864 1.65338L4.79826 1.59799L5.24623 1.89835ZM5.25352 2.28237L5.16831 2.14841L4.72034 2.44876L4.68072 2.39337L4.5551 2.48806L4.58966 2.53638L4.42188 2.64888L4.50709 2.78284L4.68203 2.66555L4.73611 2.74117L4.86173 2.64648L4.81271 2.57793L5.25352 2.28237ZM5.40207 2.62841L5.48729 2.76237L5.04647 3.05793L5.0955 3.12648L4.96988 3.22117L4.91579 3.14555L4.74086 3.26284L4.65564 3.12888L4.82342 3.01638L4.78887 2.96806L4.91449 2.87337L4.9541 2.92876L5.40207 2.62841ZM5.94753 2.78841L6.03274 2.92237L5.59193 3.21793L5.64095 3.28648L5.51533 3.38117L5.46125 3.30555L5.28631 3.42284L5.2011 3.28888L5.36888 3.17638L5.33432 3.12806L5.45994 3.03337L5.49956 3.08876L5.94753 2.78841ZM6.77904 3.55305C6.75393 3.5435 6.72993 3.53507 6.70702 3.52776L6.67735 3.52068L6.73551 3.24207L6.58605 3.19807C6.53831 3.33343 6.49489 3.42631 6.46101 3.4729L5.92126 3.3614L5.88886 3.5179L6.50405 3.65936L6.50388 3.65995L6.59285 3.71904L6.60455 3.71175C6.6821 3.76582 6.78797 3.855 6.91987 3.97835L6.97014 3.92177L7.02041 3.97835C7.20357 3.80707 7.33654 3.70167 7.41316 3.66467L7.43387 3.65991C7.46077 3.68287 7.48776 3.70256 7.51497 3.71904L7.60395 3.65995L7.59495 3.62945L7.60488 3.62058L8.05142 3.5179L8.01902 3.3614L7.47928 3.4729C7.44539 3.42631 7.40197 3.33343 7.35423 3.19807L7.20477 3.24207L7.26529 3.53196L6.97014 3.80878L6.74191 3.59471C6.75428 3.58154 6.76666 3.56765 6.77904 3.55305ZM8.68676 2.28237L8.77198 2.14841L9.21995 2.44876L9.25956 2.39337L9.38518 2.48806L9.35063 2.53638L9.51841 2.64888L9.43319 2.78284L9.25826 2.66555L9.20417 2.74117L9.07855 2.64648L9.12758 2.57793L8.68676 2.28237ZM8.453 2.76237L8.53821 2.62841L8.98618 2.92876L9.0258 2.87337L9.15142 2.96806L9.11686 3.01638L9.28464 3.12888L9.19943 3.26284L9.02449 3.14555L8.97041 3.22117L8.84479 3.12648L8.89381 3.05793L8.453 2.76237ZM7.90754 2.92237L7.99276 2.78841L8.44073 3.08876L8.48034 3.03337L8.60596 3.12806L8.5714 3.17638L8.73919 3.28888L8.65397 3.42284L8.47903 3.30555L8.42495 3.38117L8.29933 3.28648L8.34836 3.21793L7.90754 2.92237ZM8.76469 1.84438L8.8499 1.97835L9.29787 1.67799L9.33748 1.73338L9.46311 1.63869L9.42855 1.59037L9.59633 1.47787L9.51112 1.34391L9.33618 1.4612L9.2821 1.38558L9.15648 1.48027L9.2055 1.54882L8.76469 1.84438ZM8.53092 1.36438L8.61613 1.49835L9.0641 1.19799L9.10372 1.25338L9.22934 1.15869L9.19478 1.11037L9.36257 0.99787L9.27735 0.863908L9.10241 0.981203L9.04833 0.905579L8.92271 1.00027L8.97173 1.06882L8.53092 1.36438ZM7.98546 1.20438L8.07068 1.33835L8.51865 1.03799L8.55826 1.09338L8.68389 0.998691L8.64933 0.950368L8.81711 0.83787L8.7319 0.703908L8.55696 0.821203L8.50288 0.745579L8.37725 0.84027L8.42628 0.908822L7.98546 1.20438Z" fill="#C51918"/>
<path fill-rule="evenodd" clip-rule="evenodd" d="M6.206 1.15295L7.08854 0.684937V1.96494H9.27036L8.75047 2.33937V2.82925H7.92764L7.0451 3.29726V2.01726H4.86328L5.38317 1.64283V1.15295H6.206Z" fill="#C51918"/>
<path fill-rule="evenodd" clip-rule="evenodd" d="M7.92681 1.15295L7.04427 0.684937V1.96494H4.86245L5.38234 2.33937V2.82925H6.20517L7.08771 3.29726V2.01726H9.26953L8.74965 1.64283V1.15295H7.92681Z" fill="#29AE66"/>
<path fill-rule="evenodd" clip-rule="evenodd" d="M5.77734 1.48469L5.92135 1.2009L6.28769 1.39684L6.38862 1.24667L6.64516 1.42842L6.56625 1.54582L7.65055 2.12577L7.7174 2.02632L7.97394 2.20806L7.92911 2.27476L8.04623 2.33741L7.90223 2.6212L7.75072 2.54017L7.62773 2.72315L7.37119 2.5414L7.47216 2.39118L6.38786 1.81123L6.29895 1.94351L6.04241 1.76176L6.1093 1.66224L5.77734 1.48469Z" fill="#29AE66"/>
<path fill-rule="evenodd" clip-rule="evenodd" d="M8.0862 1.40672L7.92275 1.13366L7.57097 1.35467L7.45981 1.21192L7.21658 1.41112L7.30349 1.52273L6.26228 2.1769L6.18866 2.08235L5.94542 2.28155L5.99479 2.34496L5.88232 2.41562L6.04578 2.68868L6.19126 2.59728L6.32671 2.77123L6.56995 2.57203L6.45875 2.42922L7.49996 1.77505L7.59787 1.9008L7.84111 1.7016L7.76744 1.60699L8.0862 1.40672Z" fill="#C51918"/>
</g>
<path fill-rule="evenodd" clip-rule="evenodd" d="M19.0734 2C19.0734 2 21.4036 7.5216 19.3333 9.86652C17.263 12.2114 12 11.7593 12 11.7593C12 11.7593 18.7564 14.811 21.7001 10.6091C24.6439 6.40713 19.0734 2 19.0734 2Z" fill="#F7FCFF"/>
<path fill-rule="evenodd" clip-rule="evenodd" d="M14.8425 5.24848L14.2259 5.68245L14.4434 4.95522L13.8449 4.4962L14.5959 4.48072L14.8425 3.76306L15.0891 4.48072L15.8401 4.4962L15.2415 4.95522L15.459 5.68245L14.8425 5.24848ZM14.9618 7.25381L14.3452 7.68778L14.5627 6.96056L13.9642 6.50154L14.7151 6.48606L14.9618 5.7684L15.2084 6.48606L15.9593 6.50154L15.3608 6.96056L15.5783 7.68778L14.9618 7.25381ZM12.4709 7.84266L13.0874 7.40869L13.704 7.84266L13.4865 7.11543L14.085 6.65642L13.3341 6.64094L13.0874 5.92327L12.8408 6.64094L12.0898 6.65642L12.6884 7.11543L12.4709 7.84266ZM14.9618 9.35728L14.3452 9.79125L14.5627 9.06402L13.9642 8.605L14.7151 8.58952L14.9618 7.87186L15.2084 8.58952L15.9593 8.605L15.3608 9.06402L15.5783 9.79125L14.9618 9.35728ZM16.3828 7.07491L16.9994 6.64094L17.6159 7.07491L17.3984 6.34768L17.9969 5.88866L17.246 5.87318L16.9994 5.15552L16.7527 5.87318L16.0018 5.88866L16.6003 6.34768L16.3828 7.07491Z" fill="#F7FCFF"/>
</g>
</g>
</svg>
