<svg width="32" height="24" viewBox="0 0 32 24" fill="none" xmlns="http://www.w3.org/2000/svg">
<mask id="mask0_5190_104219" style="mask-type:luminance" maskUnits="userSpaceOnUse" x="0" y="0" width="32" height="24">
<rect width="32" height="24" fill="white"/>
</mask>
<g mask="url(#mask0_5190_104219)">
<path fill-rule="evenodd" clip-rule="evenodd" d="M0 0V24H32V0H0Z" fill="#2E42A5"/>
<mask id="mask1_5190_104219" style="mask-type:luminance" maskUnits="userSpaceOnUse" x="0" y="0" width="32" height="24">
<path fill-rule="evenodd" clip-rule="evenodd" d="M0 0V24H32V0H0Z" fill="white"/>
</mask>
<g mask="url(#mask1_5190_104219)">
<rect width="18" height="14" fill="#2B409A"/>
<mask id="mask2_5190_104219" style="mask-type:luminance" maskUnits="userSpaceOnUse" x="0" y="0" width="18" height="14">
<rect width="18" height="14" fill="white"/>
</mask>
<g mask="url(#mask2_5190_104219)">
<path d="M-2.00391 12.9998L1.95704 14.737L18.0902 1.88875L20.1796 -0.69278L15.9439 -1.2734L9.36354 4.26329L4.06704 7.99372L-2.00391 12.9998Z" fill="#F7FCFF"/>
<path d="M-1.46094 14.217L0.556984 15.2251L19.43 -0.932632H16.5966L-1.46094 14.217Z" fill="#F50100"/>
<path d="M20.0039 12.9998L16.043 14.737L-0.0902405 1.88875L-2.17955 -0.69278L2.05612 -1.2734L8.63646 4.26329L13.933 7.99372L20.0039 12.9998Z" fill="#F7FCFF"/>
<path d="M19.8672 13.8733L17.8493 14.8815L9.81294 7.96351L7.43034 7.19059L-2.38215 -0.683947H0.451241L10.2582 7.00368L12.8632 7.9305L19.8672 13.8733Z" fill="#F50100"/>
<mask id="path-10-outside-1_5190_104219" maskUnits="userSpaceOnUse" x="-2" y="-2" width="22" height="18" fill="black">
<rect fill="white" x="-2" y="-2" width="22" height="18"/>
<path fill-rule="evenodd" clip-rule="evenodd" d="M9.98451 0H7.98451V6H0V8H7.98451V14H9.98451V8H18V6H9.98451V0Z"/>
</mask>
<path fill-rule="evenodd" clip-rule="evenodd" d="M9.98451 0H7.98451V6H0V8H7.98451V14H9.98451V8H18V6H9.98451V0Z" fill="#F50100"/>
<path d="M7.98451 0V-1.5H6.48451V0H7.98451ZM9.98451 0H11.4845V-1.5H9.98451V0ZM7.98451 6V7.5H9.48451V6H7.98451ZM0 6V4.5H-1.5V6H0ZM0 8H-1.5V9.5H0V8ZM7.98451 8H9.48451V6.5H7.98451V8ZM7.98451 14H6.48451V15.5H7.98451V14ZM9.98451 14V15.5H11.4845V14H9.98451ZM9.98451 8V6.5H8.48451V8H9.98451ZM18 8V9.5H19.5V8H18ZM18 6H19.5V4.5H18V6ZM9.98451 6H8.48451V7.5H9.98451V6ZM7.98451 1.5H9.98451V-1.5H7.98451V1.5ZM9.48451 6V0H6.48451V6H9.48451ZM0 7.5H7.98451V4.5H0V7.5ZM1.5 8V6H-1.5V8H1.5ZM7.98451 6.5H0V9.5H7.98451V6.5ZM9.48451 14V8H6.48451V14H9.48451ZM9.98451 12.5H7.98451V15.5H9.98451V12.5ZM8.48451 8V14H11.4845V8H8.48451ZM18 6.5H9.98451V9.5H18V6.5ZM16.5 6V8H19.5V6H16.5ZM9.98451 7.5H18V4.5H9.98451V7.5ZM8.48451 0V6H11.4845V0H8.48451Z" fill="#F7FCFF" mask="url(#path-10-outside-1_5190_104219)"/>
</g>
<path fill-rule="evenodd" clip-rule="evenodd" d="M20.2479 10.0327V16.5618C20.2479 16.5618 20.1512 21.964 25.1299 21.964C30.1086 21.964 30.1086 16.5618 30.1086 16.5618V10.0327H20.2479Z" fill="#3B7E05" stroke="#F7FCFF" stroke-width="0.5"/>
<path fill-rule="evenodd" clip-rule="evenodd" d="M20.2389 19.8887L21.0321 19.0924C22.2716 20.6233 23.5754 21.3685 24.9617 21.3685C26.3479 21.3685 27.6507 20.6235 28.8883 19.0928L29.3397 19.5453L29.3589 19.5169C29.6349 19.7506 29.8169 19.9692 29.9042 20.2225C30.0465 20.635 29.8945 21.0314 29.561 21.2411C29.4783 21.2931 29.4126 21.3306 29.3542 21.3578C29.2188 21.4208 29.1103 21.4482 28.9492 21.4028C28.7852 21.3565 28.6473 21.2303 28.576 21.0566C27.4511 22.0516 26.2438 22.5576 24.9617 22.5576C23.6907 22.5576 22.4926 22.0603 21.3748 21.0821C21.3002 21.2529 21.1608 21.3755 20.997 21.4186C20.8351 21.4612 20.7271 21.4319 20.5929 21.3666C20.5349 21.3384 20.4699 21.2997 20.3881 21.2463C20.0583 21.0308 19.9133 20.6318 20.0627 20.2219C20.1034 20.1103 20.1687 20.0069 20.2531 19.9063C20.2484 19.9005 20.2436 19.8946 20.2389 19.8887Z" fill="#FFD018"/>
<path d="M21.0321 19.0924L21.2263 18.9351L21.0513 18.7189L20.8549 18.916L21.0321 19.0924ZM20.2389 19.8887L20.0618 19.7123L19.9032 19.8715L20.0446 20.0461L20.2389 19.8887ZM28.8883 19.0928L29.0653 18.9162L28.8688 18.7192L28.6939 18.9356L28.8883 19.0928ZM29.3397 19.5453L29.1627 19.7219L29.3771 19.9368L29.5469 19.6852L29.3397 19.5453ZM29.3589 19.5169L29.5204 19.3261L29.3077 19.146L29.1517 19.3771L29.3589 19.5169ZM29.9042 20.2225L30.1406 20.141V20.141L29.9042 20.2225ZM29.561 21.2411L29.4279 21.0295V21.0295L29.561 21.2411ZM29.3542 21.3578L29.2487 21.1311L29.3542 21.3578ZM28.9492 21.4028L28.8814 21.6434L28.9492 21.4028ZM28.576 21.0566L28.8073 20.9617L28.6737 20.6364L28.4104 20.8694L28.576 21.0566ZM21.3748 21.0821L21.5395 20.894L21.2826 20.6692L21.1458 20.982L21.3748 21.0821ZM20.997 21.4186L20.9334 21.1769H20.9334L20.997 21.4186ZM20.5929 21.3666L20.7023 21.1418L20.7023 21.1418L20.5929 21.3666ZM20.3881 21.2463L20.2514 21.4556L20.2514 21.4556L20.3881 21.2463ZM20.0627 20.2219L20.2976 20.3075V20.3075L20.0627 20.2219ZM20.2531 19.9063L20.4446 20.0671L20.5774 19.9089L20.4471 19.7486L20.2531 19.9063ZM20.8549 18.916L20.0618 19.7123L20.416 20.0652L21.2092 19.2689L20.8549 18.916ZM24.9617 21.1185C23.6774 21.1185 22.4382 20.4317 21.2263 18.9351L20.8378 19.2498C22.1051 20.8149 23.4734 21.6185 24.9617 21.6185V21.1185ZM28.6939 18.9356C27.484 20.4319 26.2459 21.1185 24.9617 21.1185V21.6185C26.45 21.6185 27.8173 20.815 29.0827 19.2499L28.6939 18.9356ZM29.5167 19.3688L29.0653 18.9162L28.7113 19.2693L29.1627 19.7219L29.5167 19.3688ZM29.1517 19.3771L29.1325 19.4054L29.5469 19.6852L29.5661 19.6568L29.1517 19.3771ZM30.1406 20.141C30.032 19.8261 29.8111 19.5722 29.5204 19.3261L29.1974 19.7078C29.4587 19.929 29.6018 20.1123 29.6679 20.304L30.1406 20.141ZM29.6941 21.4527C30.1267 21.1807 30.3205 20.6625 30.1406 20.141L29.6679 20.304C29.7726 20.6075 29.6624 20.8821 29.4279 21.0295L29.6941 21.4527ZM29.4597 21.5844C29.5319 21.5508 29.6077 21.507 29.6941 21.4527L29.4279 21.0295C29.3489 21.0792 29.2933 21.1104 29.2487 21.1311L29.4597 21.5844ZM28.8814 21.6434C28.9907 21.6742 29.0933 21.683 29.1963 21.6685C29.296 21.6544 29.3828 21.6202 29.4597 21.5844L29.2487 21.1311C29.1903 21.1583 29.1552 21.1693 29.1265 21.1734C29.1011 21.177 29.0688 21.1767 29.017 21.1622L28.8814 21.6434ZM28.3448 21.1516C28.4427 21.39 28.637 21.5745 28.8814 21.6434L29.017 21.1622C28.9334 21.1386 28.852 21.0706 28.8073 20.9617L28.3448 21.1516ZM24.9617 22.8076C26.3158 22.8076 27.58 22.2713 28.7417 21.2439L28.4104 20.8694C27.3222 21.8319 26.1717 22.3076 24.9617 22.3076V22.8076ZM21.2102 21.2703C22.3647 22.2806 23.6194 22.8076 24.9617 22.8076V22.3076C23.762 22.3076 22.6205 21.84 21.5395 20.894L21.2102 21.2703ZM21.0607 21.6604C21.3047 21.5962 21.5013 21.4169 21.6039 21.1823L21.1458 20.982C21.099 21.089 21.017 21.1548 20.9334 21.1769L21.0607 21.6604ZM20.4834 21.5913C20.5597 21.6285 20.6459 21.6642 20.7454 21.68C20.8481 21.6963 20.9508 21.6893 21.0607 21.6604L20.9334 21.1769C20.8814 21.1905 20.8491 21.1902 20.8238 21.1862C20.7952 21.1816 20.7602 21.17 20.7023 21.1418L20.4834 21.5913ZM20.2514 21.4556C20.3368 21.5114 20.4118 21.5565 20.4834 21.5913L20.7023 21.1418C20.6581 21.1202 20.6031 21.0881 20.5249 21.037L20.2514 21.4556ZM19.8279 20.1362C19.6389 20.6546 19.8236 21.1761 20.2514 21.4556L20.5249 21.037C20.293 20.8855 20.1876 20.6091 20.2976 20.3075L19.8279 20.1362ZM20.0617 19.7455C19.964 19.8618 19.8811 19.9903 19.8279 20.1362L20.2976 20.3075C20.3257 20.2304 20.3733 20.1519 20.4446 20.0671L20.0617 19.7455ZM20.0446 20.0461C20.0494 20.0521 20.0543 20.058 20.0591 20.064L20.4471 19.7486C20.4425 19.7429 20.4378 19.7372 20.4332 19.7314L20.0446 20.0461Z" fill="white"/>
<path fill-rule="evenodd" clip-rule="evenodd" d="M21.9575 11.4603L22.0688 11.5011C22.1597 11.2932 22.1747 11.1347 22.0688 11.033L22.0658 11.0284C22.0411 10.9898 21.9972 10.9213 22.0688 10.7749L22.0178 10.6703C21.9142 10.8822 21.8675 11.0351 21.9485 11.1382L21.9526 11.1435L21.9575 11.1479C22.0044 11.1901 22.0241 11.3081 21.9575 11.4603ZM21.9575 12.9738L22.0688 13.0146C22.1597 12.8067 22.1747 12.6483 22.0688 12.5465L22.0658 12.5419C22.0411 12.5033 21.9972 12.4348 22.0688 12.2884L22.0178 12.1838C21.9142 12.3957 21.8675 12.5486 21.9485 12.6517L21.9526 12.657L21.9575 12.6614C22.0044 12.7036 22.0241 12.8216 21.9575 12.9738ZM22.0688 14.3659L21.9575 14.3252C22.0241 14.1729 22.0044 14.055 21.9575 14.0127L21.9526 14.0083L21.9485 14.0031C21.8675 13.9 21.9142 13.7471 22.0178 13.5351L22.0688 13.6398C21.9972 13.7861 22.0411 13.8546 22.0658 13.8932L22.0688 13.8979C22.1747 13.9996 22.1597 14.158 22.0688 14.3659ZM22.7342 15.9468L22.8455 15.9876C22.9364 15.7796 22.9514 15.6212 22.8455 15.5195L22.8425 15.5148C22.8178 15.4763 22.7739 15.4078 22.8455 15.2614L22.7945 15.1568C22.6909 15.3687 22.6442 15.5216 22.7252 15.6247L22.7293 15.63L22.7342 15.6344C22.7811 15.6766 22.8008 15.7946 22.7342 15.9468ZM21.9231 17.2849L21.8119 17.2441C21.8785 17.0919 21.8588 16.9739 21.8119 16.9317L21.807 16.9273L21.8029 16.922C21.7219 16.8189 21.7686 16.666 21.8721 16.4541L21.9231 16.5587C21.8516 16.7051 21.8955 16.7736 21.9202 16.8121L21.9231 16.8168C22.0291 16.9185 22.0141 17.0769 21.9231 17.2849ZM21.8119 18.7576L21.9231 18.7984C22.0141 18.5904 22.0291 18.432 21.9231 18.3303L21.9202 18.3256C21.8955 18.2871 21.8516 18.2186 21.9231 18.0722L21.8721 17.9676C21.7686 18.1795 21.7219 18.3324 21.8029 18.4355L21.807 18.4408L21.8119 18.4452C21.8588 18.4874 21.8785 18.6054 21.8119 18.7576ZM26.729 18.7984L26.6177 18.7576C26.6843 18.6054 26.6646 18.4874 26.6177 18.4452L26.6128 18.4408L26.6087 18.4355C26.5277 18.3324 26.5744 18.1795 26.678 17.9676L26.729 18.0722C26.6574 18.2186 26.7013 18.2871 26.726 18.3256L26.729 18.3303C26.8349 18.432 26.8199 18.5904 26.729 18.7984ZM26.6177 17.2981L26.729 17.3389C26.8199 17.131 26.8349 16.9726 26.729 16.8709L26.726 16.8662C26.7013 16.8276 26.6574 16.7591 26.729 16.6127L26.678 16.5081C26.5744 16.72 26.5277 16.873 26.6087 16.9761L26.6128 16.9813L26.6177 16.9857C26.6646 17.0279 26.6843 17.1459 26.6177 17.2981ZM26.729 15.8794L26.6177 15.8387C26.6843 15.6865 26.6646 15.5685 26.6177 15.5263L26.6128 15.5219L26.6087 15.5166C26.5277 15.4135 26.5744 15.2606 26.678 15.0487L26.729 15.1533C26.6574 15.2997 26.7013 15.3682 26.726 15.4067L26.729 15.4114C26.8349 15.5131 26.8199 15.6715 26.729 15.8794ZM26.5692 14.4333L26.6804 14.474C26.7713 14.2661 26.7864 14.1077 26.6804 14.006L26.6774 14.0013C26.6527 13.9627 26.6089 13.8943 26.6804 13.7479L26.6294 13.6433C26.5259 13.8552 26.4792 14.0081 26.5602 14.1112L26.5643 14.1165L26.5692 14.1209C26.6161 14.1631 26.6357 14.281 26.5692 14.4333ZM26.6804 12.9605L26.5692 12.9197C26.6357 12.7675 26.6161 12.6495 26.5692 12.6073L26.5643 12.6029L26.5602 12.5977C26.4792 12.4946 26.5259 12.3417 26.6294 12.1297L26.6804 12.2344C26.6089 12.3807 26.6527 12.4492 26.6774 12.4878L26.6804 12.4925C26.7864 12.5942 26.7713 12.7526 26.6804 12.9605ZM26.5692 11.5143L26.6804 11.5551C26.7713 11.3472 26.7864 11.1888 26.6804 11.0871C26.6795 11.0856 26.6785 11.084 26.6774 11.0824C26.6527 11.0438 26.6089 10.9753 26.6804 10.829L26.6294 10.7243C26.5259 10.9362 26.4792 11.0892 26.5602 11.1923L26.5643 11.1975L26.5692 11.2019C26.6161 11.2441 26.6357 11.3621 26.5692 11.5143Z" fill="#F50100"/>
<path fill-rule="evenodd" clip-rule="evenodd" d="M22.7624 10.8148C22.7705 10.7992 22.7751 10.7813 22.7751 10.7622C22.7751 10.7025 22.7303 10.6541 22.6751 10.6541C22.6198 10.6541 22.5751 10.7025 22.5751 10.7622C22.5751 10.7879 22.5834 10.8115 22.5973 10.8301L22.2189 11.416L22.2583 11.4476L22.6365 10.8619C22.6484 10.8673 22.6614 10.8703 22.6751 10.8703C22.6945 10.8703 22.7127 10.8643 22.728 10.8539L23.126 11.448L23.1649 11.4156L22.7624 10.8148ZM22.7488 11.3217C22.7651 11.3024 22.7751 11.2768 22.7751 11.2486C22.7751 11.1889 22.7303 11.1405 22.6751 11.1405C22.6198 11.1405 22.5751 11.1889 22.5751 11.2486C22.5751 11.2851 22.5917 11.3173 22.6172 11.3369L22.5224 11.4509H21.88C21.88 11.4509 21.9504 11.6119 22.1695 11.6544C22.2363 11.718 22.4074 11.8363 22.4074 11.8363L22.3098 11.9549H23.0024V11.8363C23.1712 11.8351 23.2346 11.7018 23.2572 11.6542C23.2665 11.6346 23.2689 11.6296 23.2689 11.6544C23.2689 11.7395 23.3921 11.6544 23.3921 11.6544C23.3921 11.6544 23.5966 11.4509 23.5966 11.2569C23.5966 11.0629 23.169 11.4509 23.169 11.4509H22.8788L22.7488 11.3217ZM21.88 12.9644H22.5224L22.6172 12.8504C22.5917 12.8308 22.5751 12.7986 22.5751 12.7622C22.5751 12.7025 22.6198 12.6541 22.6751 12.6541C22.7303 12.6541 22.7751 12.7025 22.7751 12.7622C22.7751 12.7903 22.7651 12.8159 22.7488 12.8352L22.8788 12.9644H23.169C23.169 12.9644 23.5966 12.5764 23.5966 12.7704C23.5966 12.9644 23.3921 13.1679 23.3921 13.1679C23.3921 13.1679 23.2689 13.253 23.2689 13.1679C23.2689 13.1431 23.2665 13.1481 23.2572 13.1678C23.2346 13.2153 23.1712 13.3486 23.0024 13.3498V13.4684H22.3098L22.4074 13.3498C22.4074 13.3498 22.2363 13.2315 22.1695 13.1679C21.9504 13.1254 21.88 12.9644 21.88 12.9644ZM22.7624 12.3283C22.7705 12.3127 22.7751 12.2948 22.7751 12.2757C22.7751 12.216 22.7303 12.1676 22.6751 12.1676C22.6198 12.1676 22.5751 12.216 22.5751 12.2757C22.5751 12.3014 22.5834 12.3251 22.5973 12.3436L22.2189 12.9295L22.2583 12.9611L22.6365 12.3755C22.6484 12.3808 22.6614 12.3838 22.6751 12.3838C22.6945 12.3838 22.7127 12.3778 22.728 12.3674L23.126 12.9615L23.1649 12.9291L22.7624 12.3283ZM21.88 14.3157H22.5224L22.6172 14.2017C22.5917 14.1821 22.5751 14.1499 22.5751 14.1135C22.5751 14.0538 22.6198 14.0054 22.6751 14.0054C22.7303 14.0054 22.7751 14.0538 22.7751 14.1135C22.7751 14.1417 22.7651 14.1673 22.7488 14.1865L22.8788 14.3157H23.169C23.169 14.3157 23.5966 13.9278 23.5966 14.1218C23.5966 14.3157 23.3921 14.5193 23.3921 14.5193C23.3921 14.5193 23.2689 14.6043 23.2689 14.5193C23.2689 14.4944 23.2665 14.4995 23.2572 14.5191C23.2346 14.5667 23.1712 14.6999 23.0024 14.7012V14.8197H22.3098L22.4074 14.7012C22.4074 14.7012 22.2363 14.5829 22.1695 14.5193C21.9504 14.4768 21.88 14.3157 21.88 14.3157ZM22.7624 13.6797C22.7705 13.6641 22.7751 13.6461 22.7751 13.627C22.7751 13.5673 22.7303 13.5189 22.6751 13.5189C22.6198 13.5189 22.5751 13.5673 22.5751 13.627C22.5751 13.6528 22.5834 13.6764 22.5973 13.695L22.2189 14.2809L22.2583 14.3124L22.6365 13.7268C22.6484 13.7322 22.6614 13.7351 22.6751 13.7351C22.6945 13.7351 22.7127 13.7291 22.728 13.7187L23.126 14.3128L23.1649 14.2805L22.7624 13.6797ZM22.6567 15.9374H23.2991L23.3939 15.8233C23.3684 15.8037 23.3518 15.7715 23.3518 15.7351C23.3518 15.6754 23.3965 15.627 23.4518 15.627C23.507 15.627 23.5518 15.6754 23.5518 15.7351C23.5518 15.7633 23.5418 15.7889 23.5255 15.8081L23.6555 15.9374H23.9457C23.9457 15.9374 24.3732 15.5494 24.3732 15.7434C24.3732 15.9374 24.1688 16.1409 24.1688 16.1409C24.1688 16.1409 24.0456 16.226 24.0456 16.1409C24.0456 16.1161 24.0432 16.1211 24.0339 16.1407C24.0113 16.1883 23.9479 16.3215 23.7791 16.3228V16.4414H23.0865L23.1841 16.3228C23.1841 16.3228 23.013 16.2045 22.9462 16.1409C22.7271 16.0984 22.6567 15.9374 22.6567 15.9374ZM23.5391 15.3013C23.5472 15.2857 23.5518 15.2678 23.5518 15.2486C23.5518 15.1889 23.507 15.1405 23.4518 15.1405C23.3965 15.1405 23.3518 15.1889 23.3518 15.2486C23.3518 15.2744 23.3601 15.298 23.374 15.3166L22.9956 15.9025L23.035 15.9341L23.4132 15.3484C23.4251 15.3538 23.4381 15.3568 23.4518 15.3568C23.4712 15.3568 23.4894 15.3507 23.5047 15.3404L23.9027 15.9344L23.9416 15.9021L23.5391 15.3013ZM21.7344 17.2347H22.3768L22.4716 17.1206C22.4461 17.101 22.4294 17.0688 22.4294 17.0324C22.4294 16.9727 22.4742 16.9243 22.5294 16.9243C22.5847 16.9243 22.6294 16.9727 22.6294 17.0324C22.6294 17.0606 22.6195 17.0862 22.6032 17.1054L22.7332 17.2347H23.0233C23.0233 17.2347 23.4509 16.8467 23.4509 17.0407C23.4509 17.2347 23.2465 17.4382 23.2465 17.4382C23.2465 17.4382 23.1233 17.5233 23.1233 17.4382C23.1233 17.4134 23.1209 17.4184 23.1115 17.438C23.0889 17.4856 23.0256 17.6188 22.8568 17.6201V17.7386H22.1642L22.2618 17.6201C22.2618 17.6201 22.0907 17.5018 22.0238 17.4382C21.8047 17.3957 21.7344 17.2347 21.7344 17.2347ZM22.6168 16.5986C22.6248 16.583 22.6294 16.5651 22.6294 16.5459C22.6294 16.4862 22.5847 16.4378 22.5294 16.4378C22.4742 16.4378 22.4294 16.4862 22.4294 16.5459C22.4294 16.5717 22.4378 16.5953 22.4516 16.6139L22.0733 17.1998L22.1127 17.2314L22.4909 16.6457C22.5027 16.6511 22.5158 16.6541 22.5294 16.6541C22.5489 16.6541 22.567 16.648 22.5824 16.6377L22.9804 17.2317L23.0193 17.1994L22.6168 16.5986ZM21.7344 18.7482H22.3768L22.4716 18.6341C22.4461 18.6146 22.4294 18.5824 22.4294 18.5459C22.4294 18.4862 22.4742 18.4378 22.5294 18.4378C22.5847 18.4378 22.6294 18.4862 22.6294 18.5459C22.6294 18.5741 22.6195 18.5997 22.6032 18.6189L22.7332 18.7482H23.0233C23.0233 18.7482 23.4509 18.3602 23.4509 18.5542C23.4509 18.7482 23.2465 18.9517 23.2465 18.9517C23.2465 18.9517 23.1233 19.0368 23.1233 18.9517C23.1233 18.9269 23.1209 18.9319 23.1115 18.9515C23.0889 18.9991 23.0256 19.1324 22.8568 19.1336V19.2522H22.1642L22.2618 19.1336C22.2618 19.1336 22.0907 19.0153 22.0238 18.9517C21.8047 18.9092 21.7344 18.7482 21.7344 18.7482ZM22.6168 18.1121C22.6248 18.0965 22.6294 18.0786 22.6294 18.0595C22.6294 17.9998 22.5847 17.9514 22.5294 17.9514C22.4742 17.9514 22.4294 17.9998 22.4294 18.0595C22.4294 18.0852 22.4378 18.1088 22.4516 18.1274L22.0733 18.7133L22.1127 18.7449L22.4909 18.1592C22.5027 18.1646 22.5158 18.1676 22.5294 18.1676C22.5489 18.1676 22.567 18.1616 22.5824 18.1512L22.9804 18.7453L23.0193 18.7129L22.6168 18.1121ZM26.5402 18.7482H27.1826L27.2774 18.6341C27.2519 18.6146 27.2353 18.5824 27.2353 18.5459C27.2353 18.4862 27.28 18.4378 27.3353 18.4378C27.3905 18.4378 27.4353 18.4862 27.4353 18.5459C27.4353 18.5741 27.4253 18.5997 27.409 18.6189L27.539 18.7482H27.8292C27.8292 18.7482 28.2567 18.3602 28.2567 18.5542C28.2567 18.7482 28.0523 18.9517 28.0523 18.9517C28.0523 18.9517 27.9291 19.0368 27.9291 18.9517C27.9291 18.9269 27.9267 18.9319 27.9174 18.9515C27.8948 18.9991 27.8314 19.1324 27.6626 19.1336V19.2522H26.97L27.0676 19.1336C27.0676 19.1336 26.8965 19.0153 26.8297 18.9517C26.6106 18.9092 26.5402 18.7482 26.5402 18.7482ZM27.4226 18.1121C27.4307 18.0965 27.4353 18.0786 27.4353 18.0595C27.4353 17.9998 27.3905 17.9514 27.3353 17.9514C27.28 17.9514 27.2353 17.9998 27.2353 18.0595C27.2353 18.0852 27.2436 18.1088 27.2575 18.1274L26.8791 18.7133L26.9185 18.7449L27.2967 18.1592C27.3086 18.1646 27.3216 18.1676 27.3353 18.1676C27.3547 18.1676 27.3729 18.1616 27.3882 18.1512L27.7862 18.7453L27.8251 18.7129L27.4226 18.1121ZM26.5402 17.2887H27.1826L27.2774 17.1747C27.2519 17.1551 27.2353 17.1229 27.2353 17.0865C27.2353 17.0268 27.28 16.9784 27.3353 16.9784C27.3905 16.9784 27.4353 17.0268 27.4353 17.0865C27.4353 17.1146 27.4253 17.1403 27.409 17.1595L27.539 17.2887H27.8292C27.8292 17.2887 28.2567 16.9008 28.2567 17.0947C28.2567 17.2887 28.0523 17.4923 28.0523 17.4923C28.0523 17.4923 27.9291 17.5773 27.9291 17.4923C27.9291 17.4674 27.9267 17.4725 27.9174 17.4921C27.8948 17.5396 27.8314 17.6729 27.6626 17.6742V17.7927H26.97L27.0676 17.6742C27.0676 17.6742 26.8965 17.5558 26.8297 17.4923C26.6106 17.4497 26.5402 17.2887 26.5402 17.2887ZM27.4226 16.6526C27.4307 16.6371 27.4353 16.6191 27.4353 16.6C27.4353 16.5403 27.3905 16.4919 27.3353 16.4919C27.28 16.4919 27.2353 16.5403 27.2353 16.6C27.2353 16.6257 27.2436 16.6494 27.2575 16.6679L26.8791 17.2539L26.9185 17.2854L27.2967 16.6998C27.3086 16.7051 27.3216 16.7081 27.3353 16.7081C27.3547 16.7081 27.3729 16.7021 27.3882 16.6917L27.7862 17.2858L27.8251 17.2535L27.4226 16.6526ZM26.5402 15.8293H27.1826L27.2774 15.7152C27.2519 15.6956 27.2353 15.6634 27.2353 15.627C27.2353 15.5673 27.28 15.5189 27.3353 15.5189C27.3905 15.5189 27.4353 15.5673 27.4353 15.627C27.4353 15.6552 27.4253 15.6808 27.409 15.7L27.539 15.8293H27.8292C27.8292 15.8293 28.2567 15.4413 28.2567 15.6353C28.2567 15.8293 28.0523 16.0328 28.0523 16.0328C28.0523 16.0328 27.9291 16.1178 27.9291 16.0328C27.9291 16.008 27.9267 16.013 27.9174 16.0326C27.8948 16.0802 27.8314 16.2134 27.6626 16.2147V16.3332H26.97L27.0676 16.2147C27.0676 16.2147 26.8965 16.0964 26.8297 16.0328C26.6106 15.9903 26.5402 15.8293 26.5402 15.8293ZM27.4226 15.1932C27.4307 15.1776 27.4353 15.1597 27.4353 15.1405C27.4353 15.0808 27.3905 15.0324 27.3353 15.0324C27.28 15.0324 27.2353 15.0808 27.2353 15.1405C27.2353 15.1663 27.2436 15.1899 27.2575 15.2085L26.8791 15.7944L26.9185 15.826L27.2967 15.2403C27.3086 15.2457 27.3216 15.2486 27.3353 15.2486C27.3547 15.2486 27.3729 15.2426 27.3882 15.2322L27.7862 15.8263L27.8251 15.794L27.4226 15.1932ZM26.4917 14.4239H27.1341L27.2289 14.3098C27.2034 14.2902 27.1867 14.258 27.1867 14.2216C27.1867 14.1619 27.2315 14.1135 27.2867 14.1135C27.3419 14.1135 27.3867 14.1619 27.3867 14.2216C27.3867 14.2498 27.3768 14.2754 27.3605 14.2946L27.4905 14.4239H27.7806C27.7806 14.4239 28.2082 14.0359 28.2082 14.2299C28.2082 14.4239 28.0037 14.6274 28.0037 14.6274C28.0037 14.6274 27.8806 14.7124 27.8806 14.6274C27.8806 14.6026 27.8782 14.6076 27.8688 14.6272C27.8462 14.6748 27.7828 14.808 27.6141 14.8093V14.9278H26.9215L27.0191 14.8093C27.0191 14.8093 26.848 14.691 26.7811 14.6274C26.562 14.5849 26.4917 14.4239 26.4917 14.4239ZM27.3741 13.7878C27.3821 13.7722 27.3867 13.7542 27.3867 13.7351C27.3867 13.6754 27.3419 13.627 27.2867 13.627C27.2315 13.627 27.1867 13.6754 27.1867 13.7351C27.1867 13.7609 27.195 13.7845 27.2089 13.8031L26.8306 14.389L26.87 14.4205L27.2482 13.8349C27.26 13.8403 27.2731 13.8432 27.2867 13.8432C27.3062 13.8432 27.3243 13.8372 27.3397 13.8268L27.7377 14.4209L27.7766 14.3886L27.3741 13.7878ZM26.4917 12.9103H27.1341L27.2289 12.7963C27.2034 12.7767 27.1867 12.7445 27.1867 12.7081C27.1867 12.6484 27.2315 12.6 27.2867 12.6C27.3419 12.6 27.3867 12.6484 27.3867 12.7081C27.3867 12.7362 27.3768 12.7619 27.3605 12.7811L27.4905 12.9103H27.7806C27.7806 12.9103 28.2082 12.5224 28.2082 12.7164C28.2082 12.9103 28.0037 13.1139 28.0037 13.1139C28.0037 13.1139 27.8806 13.1989 27.8806 13.1139C27.8806 13.089 27.8782 13.0941 27.8688 13.1137C27.8462 13.1613 27.7828 13.2945 27.6141 13.2958V13.4143H26.9215L27.0191 13.2958C27.0191 13.2958 26.848 13.1775 26.7811 13.1139C26.562 13.0714 26.4917 12.9103 26.4917 12.9103ZM27.3741 12.2743C27.3821 12.2587 27.3867 12.2407 27.3867 12.2216C27.3867 12.1619 27.3419 12.1135 27.2867 12.1135C27.2315 12.1135 27.1867 12.1619 27.1867 12.2216C27.1867 12.2474 27.195 12.271 27.2089 12.2896L26.8306 12.8755L26.87 12.907L27.2482 12.3214C27.26 12.3268 27.2731 12.3297 27.2867 12.3297C27.3062 12.3297 27.3243 12.3237 27.3397 12.3133L27.7377 12.9074L27.7766 12.8751L27.3741 12.2743Z" fill="#FFD018"/>
<path fill-rule="evenodd" clip-rule="evenodd" d="M24.6435 12.5856L24.3071 13.6791C24.3071 13.6791 23.7436 14.4081 23.6397 14.7654C23.5358 15.1226 23.4788 15.36 23.5073 15.36C23.5358 15.36 23.766 15.2583 23.766 15.0118C23.766 14.7654 24.6435 13.9728 24.6435 13.9728L24.9054 12.5856H24.6435Z" fill="#FFC6B5"/>
<path fill-rule="evenodd" clip-rule="evenodd" d="M27.3746 10.8689C27.3827 10.8533 27.3872 10.8353 27.3872 10.8162C27.3872 10.7565 27.3425 10.7081 27.2872 10.7081C27.232 10.7081 27.1872 10.7565 27.1872 10.8162C27.1872 10.842 27.1956 10.8656 27.2095 10.8842L26.8311 11.4701L26.8705 11.5016L27.2487 10.916C27.2606 10.9214 27.2736 10.9243 27.2872 10.9243C27.3067 10.9243 27.3249 10.9183 27.3402 10.9079L27.7382 11.502L27.7771 11.4697L27.3746 10.8689ZM27.361 11.3757C27.3773 11.3565 27.3872 11.3308 27.3872 11.3027C27.3872 11.243 27.3425 11.1946 27.2872 11.1946C27.232 11.1946 27.1872 11.243 27.1872 11.3027C27.1872 11.3391 27.2039 11.3713 27.2294 11.3909L27.1346 11.5049H26.4922C26.4922 11.5049 26.5626 11.666 26.7816 11.7085C26.8485 11.7721 27.0196 11.8904 27.0196 11.8904L26.922 12.0089H27.6146V11.8904C27.7834 11.8891 27.8467 11.7559 27.8694 11.7083C27.8787 11.6887 27.8811 11.6836 27.8811 11.7085C27.8811 11.7935 28.0043 11.7085 28.0043 11.7085C28.0043 11.7085 28.2087 11.5049 28.2087 11.311C28.2087 11.117 27.7812 11.5049 27.7812 11.5049H27.491L27.361 11.3757Z" fill="#FFD018"/>
<path fill-rule="evenodd" clip-rule="evenodd" d="M25.4631 12.148C25.4726 12.168 25.4797 12.183 25.4797 12.2041C25.4797 12.2671 25.2124 12.3597 25.0196 12.3597C24.8269 12.3597 24.9025 12.2041 25.0196 12.1177C25.1368 12.0314 25.0102 11.8829 24.9025 11.8829C24.8002 11.8829 24.8005 11.7383 24.8008 11.6222C24.8008 11.6161 24.8008 11.61 24.8008 11.6041V11.1516C24.8008 10.97 24.85 10.9913 24.944 11.0319C24.9993 11.0559 25.0701 11.0865 25.1556 11.0865C25.299 11.0865 25.307 11.1195 25.3285 11.209C25.3416 11.2634 25.3597 11.3386 25.4163 11.4399C25.5064 11.6012 25.488 11.6383 25.4591 11.6968C25.44 11.7354 25.4163 11.7834 25.4163 11.8829C25.4163 12.0491 25.4444 12.1084 25.4631 12.148ZM25.7012 13.3086L25.758 12.6936C25.758 12.6936 25.7012 12.4686 25.8341 12.4686C25.967 12.4686 26.1733 13.5442 26.2479 13.9754C26.2956 14.2512 26.2518 14.3024 26.1252 14.4502C26.0539 14.5335 25.9564 14.6475 25.8341 14.8497C25.6307 15.1861 25.6438 15.383 25.6539 15.533C25.6605 15.6331 25.6658 15.7124 25.6043 15.7984C25.4613 15.9983 25.4027 15.8091 25.3455 15.6246C25.3412 15.6109 25.337 15.5972 25.3327 15.5836C25.2781 15.411 25.5273 14.8877 25.6965 14.5322C25.7186 14.4858 25.7394 14.4421 25.758 14.4025C25.9183 14.0603 25.9032 13.9408 25.8341 13.7975C25.765 13.6542 25.7012 13.3086 25.7012 13.3086Z" fill="#FFC6B5"/>
<path fill-rule="evenodd" clip-rule="evenodd" d="M26.022 19.3696C26.022 19.526 25.9025 19.6528 25.755 19.6528C25.6076 19.6528 25.488 19.526 25.488 19.3696C25.488 19.2133 25.6076 19.0865 25.755 19.0865C25.9025 19.0865 26.022 19.2133 26.022 19.3696ZM24.6021 19.4483C24.4823 19.5488 24.3363 19.572 24.276 19.5001C24.2157 19.4283 24.2639 19.2885 24.3837 19.188C24.5035 19.0875 24.6495 19.0643 24.7098 19.1361C24.7701 19.208 24.7219 19.3478 24.6021 19.4483Z" fill="#FFD018"/>
<path fill-rule="evenodd" clip-rule="evenodd" d="M24.9543 10.7847C24.9543 10.7847 24.6767 10.841 24.7692 10.9801C24.8618 11.1191 24.6486 11.0831 24.9543 11.1011C25.26 11.1191 25.3437 11.2304 25.3019 11.3126C25.26 11.3948 25.2272 11.599 25.3019 11.722C25.3766 11.845 25.4003 12.0591 25.5323 11.952C25.6642 11.845 25.9177 11.6979 25.8401 11.5053C25.7624 11.3126 25.8714 11.0885 25.7018 10.9801C25.5323 10.8717 25.4944 10.9379 25.3973 10.7847C25.3003 10.6314 25.1574 10.5891 25.0558 10.6869C24.9543 10.7847 24.9543 10.7847 24.9543 10.7847Z" fill="#A95601"/>
<path fill-rule="evenodd" clip-rule="evenodd" d="M24.8978 12.1775C24.8978 12.1775 24.3398 12.8494 24.4312 13.0862C24.5226 13.3229 24.6591 13.3354 24.5908 13.672C24.5226 14.0086 24.6324 14.5289 24.4312 15.1909C24.23 15.8529 24.0977 17.4061 24.1639 17.4061C24.23 17.4061 24.3218 18.2641 24.2428 18.649C24.1639 19.0339 23.613 19.356 24.1639 19.356C24.7147 19.356 24.78 19.4323 25.0001 19.356C25.2202 19.2797 25.5325 19.5755 25.5325 19.356C25.5325 19.1364 25.5561 19.0915 25.7239 19.0915C25.8916 19.0915 25.8832 19.0915 26.0317 19.0915C26.1803 19.0915 26.375 19.2297 26.375 18.9017C26.375 18.5737 26.4112 17.869 26.2215 17.3217C26.0317 16.7744 26.0962 17.1239 25.91 16.392C25.7997 15.9585 25.7146 15.7864 25.6475 15.635C25.6014 15.5308 25.4697 15.7137 25.4384 15.5506C25.4278 15.4953 25.5179 15.1706 25.5189 15.129C25.5248 14.8691 25.7239 14.8249 25.7239 14.3779C25.7239 13.8593 25.5995 13.2895 25.7239 13.0044C25.8482 12.7193 26.1534 12.8907 26.0317 12.6134C25.91 12.3361 25.8704 12.1775 25.6414 12.1775C25.4124 12.1775 24.8978 12.1775 24.8978 12.1775Z" fill="#F7FCFF"/>
<path d="M20.9883 20.1455L21.0817 20.0211C22.4178 21.2655 23.6529 21.8856 24.7865 21.8856C25.9213 21.8856 27.303 21.2275 28.9287 19.9075L29.0145 20.0385C27.3662 21.3769 25.9577 22.0478 24.7865 22.0478C23.6142 22.0478 22.3483 21.4123 20.9883 20.1455Z" fill="#272727"/>
</g>
</g>
</svg>
