<svg width="32" height="24" viewBox="0 0 32 24" fill="none" xmlns="http://www.w3.org/2000/svg">
<mask id="mask0_5190_104173" style="mask-type:luminance" maskUnits="userSpaceOnUse" x="0" y="0" width="32" height="24">
<rect width="32" height="24" fill="white"/>
</mask>
<g mask="url(#mask0_5190_104173)">
<path fill-rule="evenodd" clip-rule="evenodd" d="M0 0V24H32V0H0Z" fill="#F7FCFF"/>
<mask id="mask1_5190_104173" style="mask-type:luminance" maskUnits="userSpaceOnUse" x="0" y="0" width="32" height="24">
<path fill-rule="evenodd" clip-rule="evenodd" d="M0 0V24H32V0H0Z" fill="white"/>
</mask>
<g mask="url(#mask1_5190_104173)">
<path fill-rule="evenodd" clip-rule="evenodd" d="M17.6037 8.21483C17.8457 8.35253 17.9908 8.70507 17.9908 8.70507H13.9028L14.185 8.21483C14.185 8.21483 13.9028 8.08673 14.0448 8.08673C14.1867 8.08673 14.5917 7.51861 14.5917 7.51861H14.4227C14.4227 7.51861 14.3358 7.37728 14.5917 7.37728C14.8475 7.37728 15.0519 6.46282 15.0519 6.46282C15.0519 6.46282 15.2198 6.03497 14.8088 5.92699C14.3979 5.81901 13.9028 6.28467 13.9028 6.28467C13.9028 6.28467 14.0236 5.53967 14.185 5.3783C14.26 5.30331 14.4001 5.29139 14.5285 5.28046C14.6763 5.26786 14.8088 5.25658 14.8088 5.15175C14.8088 4.9559 15.2899 4.80322 16.0763 4.80322C16.8627 4.80322 17.1484 5.74248 17.1484 5.92699C17.1484 6.1115 17.4174 7.0922 17.4174 7.0922C17.4174 7.0922 17.1484 7.0922 17.1484 7.21871C17.1484 7.34522 17.9908 7.89194 17.9908 7.89194C17.9908 7.89194 17.3617 8.07713 17.6037 8.21483ZM2.77839 4.86953C3.09203 4.73495 6.27933 5.68474 8.6669 6.39622L8.66693 6.39622L8.66695 6.39623L8.66696 6.39623C10.0399 6.80536 11.1484 7.13569 11.2939 7.13569C11.6925 7.13569 12.4424 8.10079 12.0674 8.50701C11.6925 8.91323 11.5657 9.15062 11.8166 9.15062C12.0674 9.15062 13.3328 8.82223 13.3328 8.82223V12.594C13.3328 12.594 12.1201 12.8818 11.8166 12.594C11.6696 12.4546 11.4454 12.4462 11.2532 12.4391C11.0486 12.4314 10.8802 12.4251 10.8802 12.2634C10.8802 11.9497 10.1815 11.9004 10.1815 11.9004C10.1815 11.9004 9.53479 11.6872 9.53479 11.4865C9.53479 11.2859 9.11161 10.7188 9.11161 10.7188C9.11161 10.7188 7.49883 9.80571 6.12758 8.80372C5.85055 8.60129 5.57678 8.41058 5.31465 8.22798C4.27928 7.50675 3.42577 6.91219 3.27239 6.22299C2.55622 5.5138 2.28439 5.0815 2.77839 4.86953ZM12.845 12.8319C12.845 12.8319 12.302 13.206 11.7012 14.2079C11.4057 14.7008 11.3819 15.1349 11.3647 15.4489C11.3469 15.7731 11.3362 15.9692 11.0404 15.9692C10.6951 15.9692 10.4446 16.0438 10.2407 16.1046C10.1007 16.1464 9.98279 16.1815 9.87122 16.1815C9.59708 16.1815 9.07071 17.2164 9.3339 17.4558C9.59708 17.6953 10.6998 18.077 10.6998 17.4558C10.6998 16.8347 10.9964 16.4818 11.5353 16.4818C12.0743 16.4818 13.0376 16.1249 13.0376 15.342C13.0376 14.559 14.0879 14.6149 14.0879 14.6149L12.845 12.8319ZM23.5625 6.39622C25.95 5.68474 29.1373 4.73495 29.451 4.86953C29.945 5.0815 29.6731 5.5138 28.957 6.22299C28.8036 6.91219 27.9501 7.50674 26.9147 8.22798C26.6526 8.41058 26.3788 8.60129 26.1018 8.80372C24.7305 9.80571 23.1178 10.7188 23.1178 10.7188C23.1178 10.7188 22.6946 11.2859 22.6946 11.4865C22.6946 11.6872 22.0479 11.9004 22.0479 11.9004C22.0479 11.9004 21.3491 11.9497 21.3491 12.2634C21.3491 12.4251 21.1808 12.4314 20.9762 12.4391C20.784 12.4462 20.5598 12.4546 20.4128 12.594C20.1093 12.8818 18.8965 12.594 18.8965 12.594V8.82223C18.8965 8.82223 20.1619 9.15062 20.4128 9.15062C20.6637 9.15062 20.5368 8.91323 20.1619 8.50701C19.787 8.10079 20.5368 7.13569 20.9354 7.13569C21.0809 7.13569 22.1893 6.80539 23.5622 6.39629L23.5623 6.39627L23.5624 6.39622L23.5625 6.39622ZM19.3844 12.8319C19.3844 12.8319 19.9274 13.206 20.5282 14.2079C20.8237 14.7008 20.8475 15.1349 20.8647 15.4489C20.8824 15.7731 20.8932 15.9692 21.189 15.9692C21.5343 15.9692 21.7848 16.0438 21.9887 16.1046C22.1286 16.1464 22.2466 16.1815 22.3581 16.1815C22.6323 16.1815 23.1587 17.2164 22.8955 17.4558C22.6323 17.6953 21.5296 18.077 21.5296 17.4558C21.5296 16.8347 21.233 16.4818 20.694 16.4818C20.1551 16.4818 19.1918 16.1249 19.1918 15.342C19.1918 14.559 18.1415 14.6149 18.1415 14.6149L19.3844 12.8319ZM13.5422 15.4423C13.5422 15.0974 14.1517 14.8373 14.1517 14.8373L15.9863 14.0631C15.9863 14.0631 15.9958 14.2378 16.0098 14.5279C16.0239 14.2378 16.0333 14.0631 16.0333 14.0631L17.8679 14.8373C17.8679 14.8373 18.4774 15.0974 18.4774 15.4423C18.4774 15.6152 18.7367 15.9208 18.9954 16.2258L18.9954 16.2258C19.253 16.5294 19.51 16.8324 19.51 17.003C19.51 17.3039 18.8139 17.9806 18.3936 18.3892C18.3363 18.445 18.2841 18.4957 18.2395 18.5398C18.1433 18.6351 18.0392 18.7531 17.9311 18.8756C17.622 19.2261 17.2799 19.6141 16.9928 19.6141C16.791 19.6141 16.6279 19.7545 16.4716 19.8891C16.3279 20.0128 16.1901 20.1315 16.0333 20.1315C16.025 20.1315 16.0172 20.1276 16.0098 20.1202C16.0024 20.1276 15.9946 20.1315 15.9863 20.1315C15.8295 20.1315 15.6917 20.0128 15.548 19.8891C15.3917 19.7545 15.2286 19.6141 15.0268 19.6141C14.7397 19.6141 14.3976 19.2261 14.0885 18.8756C13.9804 18.7531 13.8763 18.6351 13.7801 18.5398C13.7355 18.4957 13.6833 18.445 13.626 18.3893L13.626 18.3892C13.2057 17.9806 12.5096 17.3039 12.5096 17.003C12.5096 16.8324 12.7666 16.5294 13.0242 16.2258C13.2829 15.9208 13.5422 15.6152 13.5422 15.4423Z" fill="#E8AA00"/>
<path fill-rule="evenodd" clip-rule="evenodd" d="M7.01088 10.6732C7.05087 11.1359 7.18241 11.4087 7.18241 11.4087C7.18241 11.4087 7.41393 11.7728 7.54523 11.7771C7.61267 11.9447 7.68615 12.1165 7.7647 12.2915C8.12507 13.2516 8.6161 14.5131 9.11899 15.6621C9.08671 15.6376 9.04006 15.6108 8.9763 15.581C8.55562 15.3842 8.2536 15.3618 8.2536 15.3618C8.2536 15.3618 7.68972 15.3859 7.74794 15.5458C7.80616 15.7058 8.50526 16.0532 8.78912 15.9499C8.82075 15.9384 8.85289 15.9273 8.88444 15.9164C9.01501 15.8713 9.13552 15.8298 9.16891 15.7757C9.23575 15.9272 9.30274 16.0765 9.36958 16.2226C8.94995 16.0267 8.64889 16.0043 8.64889 16.0043C8.64889 16.0043 8.08501 16.0284 8.14323 16.1884C8.20145 16.3483 8.90055 16.6958 9.18441 16.5925C9.21605 16.5809 9.24819 16.5698 9.27974 16.559C9.35836 16.5318 9.43333 16.506 9.48783 16.4779C9.99455 17.5583 10.4837 18.4207 10.8329 18.6385H11.5375C11.5375 18.6385 10.9286 17.7779 10.1611 16.5731C10.3923 16.409 10.7145 16.0466 10.7145 15.8186C10.7145 15.785 10.7151 15.751 10.7156 15.7176C10.7201 15.4516 10.7239 15.2251 10.4318 15.5166C10.1031 15.8446 9.97868 16.1207 9.97868 16.1207C9.97868 16.1207 9.96372 16.168 9.9471 16.2346C9.88543 16.1363 9.82305 16.0362 9.76017 15.9345C9.99175 15.7724 10.3192 15.4059 10.3192 15.1761C10.3192 15.1424 10.3198 15.1084 10.3203 15.075C10.3248 14.809 10.3286 14.5825 10.0365 14.874C9.70781 15.202 9.58339 15.4781 9.58339 15.4781C9.58339 15.4781 9.56812 15.5264 9.5513 15.5941C9.46253 15.4481 9.37326 15.2997 9.28404 15.1494C9.51031 15.03 9.9239 14.599 9.9239 14.3407C9.9239 14.3071 9.92447 14.2731 9.92504 14.2397C9.92951 13.9737 9.93333 13.7472 9.64124 14.0387C9.31252 14.3667 9.18809 14.6428 9.18809 14.6428C9.18809 14.6428 9.15089 14.7604 9.12867 14.8857C9.01194 14.686 8.89589 14.4837 8.78182 14.2805C8.78531 14.281 8.78897 14.2813 8.7928 14.2813C8.96302 14.2813 9.52861 13.7432 9.52861 13.4411C9.52861 13.4075 9.52918 13.3735 9.52974 13.3401C9.53422 13.0741 9.53803 12.8476 9.24595 13.1391C8.91722 13.4671 8.7928 13.7432 8.7928 13.7432C8.7928 13.7432 8.70909 14.0078 8.71778 14.1659C8.56042 13.8832 8.40733 13.599 8.26198 13.3174L8.26574 13.3175C8.43596 13.3175 9.00155 12.7794 9.00155 12.4773C9.00155 12.4436 9.00212 12.4096 9.00268 12.3762C9.00716 12.1102 9.01098 11.8837 8.71889 12.1752C8.39016 12.5032 8.26574 12.7794 8.26574 12.7794C8.26574 12.7794 8.19038 13.0176 8.19009 13.177C8.03734 12.8765 7.89412 12.5797 7.7647 12.2915C7.69517 12.1062 7.6305 11.9322 7.57155 11.7723C7.57994 11.7687 7.58767 11.7628 7.59463 11.7546C7.70404 11.6242 7.65538 10.845 7.42397 10.6508C7.39818 10.6292 7.37251 10.6069 7.34731 10.585C7.14641 10.4106 6.97535 10.2621 7.01088 10.6732ZM7.79301 11.8568C7.79301 11.8568 7.81549 11.5548 8.0122 11.1341C8.18698 10.7603 8.26087 10.9744 8.34764 11.2259C8.35853 11.2575 8.36961 11.2896 8.38113 11.3213C8.48445 11.6051 8.13701 12.3042 7.97706 12.3624C7.8171 12.4207 7.79301 11.8568 7.79301 11.8568ZM8.58101 14.7456C8.16033 14.5489 7.8583 14.5264 7.8583 14.5264C7.8583 14.5264 7.29442 14.5505 7.35264 14.7105C7.41086 14.8704 8.10996 15.2179 8.39382 15.1145C8.42546 15.103 8.4576 15.0919 8.48915 15.0811C8.74066 14.9943 8.9548 14.9204 8.58101 14.7456ZM7.46301 13.6268C7.46301 13.6268 7.76503 13.6493 8.18571 13.846C8.5595 14.0208 8.34536 14.0947 8.09385 14.1815C8.0623 14.1923 8.03017 14.2034 7.99853 14.2149C7.71467 14.3183 7.01557 13.9708 6.95735 13.8109C6.89913 13.6509 7.46301 13.6268 7.46301 13.6268ZM7.8563 12.9464C7.43562 12.7497 7.1336 12.7272 7.1336 12.7272C7.1336 12.7272 6.56972 12.7513 6.62794 12.9113C6.68616 13.0712 7.38526 13.4187 7.66912 13.3153C7.70071 13.3038 7.7328 13.2928 7.7643 13.2819L7.76441 13.2819L7.76444 13.2819C8.01595 13.1951 8.23009 13.1212 7.8563 12.9464ZM6.97561 11.6448C6.97561 11.6448 7.25173 11.7692 7.57976 12.0979C7.87123 12.39 7.64474 12.3862 7.37872 12.3817H7.37872C7.34535 12.3812 7.31136 12.3806 7.27769 12.3806C6.97561 12.3806 6.4375 11.815 6.4375 11.6448C6.4375 11.4746 6.97561 11.6448 6.97561 11.6448Z" fill="#46A000"/>
<path fill-rule="evenodd" clip-rule="evenodd" d="M28.694 10.3386H26.5567C26.5567 10.3386 27.0098 10.3386 27.0596 10.7763C27.0596 10.7763 27.07 14.4702 27.0596 14.7604C27.0492 15.0507 26.5567 15.1494 26.5567 15.1494C26.5567 15.1494 29.1495 15.1573 28.694 15.1494C28.2385 15.1415 28.138 14.7604 28.138 14.7604V10.7763C28.138 10.439 28.694 10.3386 28.694 10.3386ZM4.56766 14.8533C4.32573 14.2287 2.83203 10.4042 2.83203 10.4042H4.31077C4.05388 10.4042 3.9585 10.7311 3.9585 10.7311L4.99427 13.6844C4.99427 13.6844 5.99588 11.2733 5.99588 10.8457C5.99588 10.4181 5.57543 10.4042 5.57543 10.4042H7.50328L7.03753 10.5597C7.03753 10.5597 5.49495 14.0962 5.49495 14.8533C5.42145 15.0211 6.20517 15.1327 6.20517 15.1327H4.13497L4.56766 14.8533ZM22.2689 13.4566L23.4146 11.3457L23.4482 13.6944L23.0934 13.5792L22.8417 15.1475L24.1087 12.7179L23.6869 12.5594L25.2552 10.8618L24.7211 13.1563L24.4172 12.8887L22.6206 16.2409L24.6259 13.9432L24.2394 13.7502L26.2197 12.4536L25.3575 14.5665L24.8765 14.2202L22.8417 16.782L21.9977 16.4574L22.8417 13.4566H22.2689ZM21.6073 17.46H20.9739V17.9418H20.4752L19.0627 19.5803H19.8423L20.1131 20.5028L20.4752 20.1773V20.5028L21.1832 20.1773L21.86 20.7633L22.3652 18.5104L22.0252 18.2608L22.1998 18.1081L22.0252 17.46H21.6073Z" fill="#0093E1"/>
<path fill-rule="evenodd" clip-rule="evenodd" d="M12.3439 8.01285C12.3439 8.01285 13.2745 8.65542 14.2051 8.65542C15.1357 8.65542 16.0662 8.01285 16.0662 8.01285C16.0662 8.01285 16.9968 8.65542 17.9274 8.65542C18.858 8.65542 19.7886 8.01285 19.7886 8.01285V10.9137C19.7886 13.9131 16.0662 16.2377 16.0662 16.2377C16.0662 16.2377 12.1637 14.1033 12.3439 10.8781V8.01285Z" fill="#F7FCFF"/>
<mask id="mask2_5190_104173" style="mask-type:luminance" maskUnits="userSpaceOnUse" x="12" y="8" width="8" height="9">
<path fill-rule="evenodd" clip-rule="evenodd" d="M12.3439 8.01285C12.3439 8.01285 13.2745 8.65542 14.2051 8.65542C15.1357 8.65542 16.0662 8.01285 16.0662 8.01285C16.0662 8.01285 16.9968 8.65542 17.9274 8.65542C18.858 8.65542 19.7886 8.01285 19.7886 8.01285V10.9137C19.7886 13.9131 16.0662 16.2377 16.0662 16.2377C16.0662 16.2377 12.1637 14.1033 12.3439 10.8781V8.01285Z" fill="white"/>
</mask>
<g mask="url(#mask2_5190_104173)">
<path fill-rule="evenodd" clip-rule="evenodd" d="M12.082 7.82008H19.922V10.8402H12.082V7.82008Z" fill="#2E42A5"/>
<path fill-rule="evenodd" clip-rule="evenodd" d="M13.5963 10.8402H12.9375V16.9446H13.5963V10.8402ZM14.7163 10.8402H14.0575V16.9446H14.7163V10.8402ZM15.1775 10.8402H15.8363V16.9446H15.1775V10.8402ZM16.9563 10.8402H16.2975V16.9446H16.9563V10.8402ZM17.4175 10.8402H18.0763V16.9446H17.4175V10.8402ZM19.1963 10.8402H18.5375V16.9446H19.1963V10.8402Z" fill="#AF0100"/>
</g>
</g>
</g>
</svg>
