<svg width="32" height="24" viewBox="0 0 32 24" fill="none" xmlns="http://www.w3.org/2000/svg">
<mask id="mask0_5190_104062" style="mask-type:luminance" maskUnits="userSpaceOnUse" x="0" y="0" width="32" height="24">
<rect width="32" height="24" fill="white"/>
</mask>
<g mask="url(#mask0_5190_104062)">
<path fill-rule="evenodd" clip-rule="evenodd" d="M0 0V24H32V0H0Z" fill="#F7FCFF"/>
<mask id="mask1_5190_104062" style="mask-type:luminance" maskUnits="userSpaceOnUse" x="0" y="0" width="32" height="24">
<path fill-rule="evenodd" clip-rule="evenodd" d="M0 0V24H32V0H0Z" fill="white"/>
</mask>
<g mask="url(#mask1_5190_104062)">
<path fill-rule="evenodd" clip-rule="evenodd" d="M0 2V22H32V2H0Z" fill="#FECA00"/>
<path d="M0 8.25H-1.75V10V14V15.75H0H32H33.75V14V10V8.25H32H0Z" fill="#272727" stroke="#E31D1C" stroke-width="3.5"/>
<path fill-rule="evenodd" clip-rule="evenodd" d="M0 4V0H32V4H0ZM0 24V20H32V24H0Z" fill="#5EAA22"/>
</g>
<path d="M0.596961 -0.80227L-1 -1.99055V0V24V25.9609L0.587223 24.8094L16.9185 12.9614L18.0202 12.1622L16.9283 11.3497L0.596961 -0.80227Z" fill="#F7FCFF" stroke="#272727" stroke-width="2"/>
<mask id="mask2_5190_104062" style="mask-type:luminance" maskUnits="userSpaceOnUse" x="-2" y="-4" width="22" height="32">
<path d="M0.596961 -0.80227L-1 -1.99055V0V24V25.9609L0.587223 24.8094L16.9185 12.9614L18.0202 12.1622L16.9283 11.3497L0.596961 -0.80227Z" fill="white" stroke="white" stroke-width="2"/>
</mask>
<g mask="url(#mask2_5190_104062)">
<path fill-rule="evenodd" clip-rule="evenodd" d="M7.4771 14.2783L3.69817 17.3287L5.43154 13.2521L2.45312 10.3839H5.96873L7.41132 6.92504L8.9435 10.3839H12.4531L9.31737 13.2521L10.8867 17.3287L7.4771 14.2783Z" fill="#E31D1C"/>
<path fill-rule="evenodd" clip-rule="evenodd" d="M5.01576 8.4215C5.01576 8.4215 4.9609 8.28924 5.28472 8.1723C5.60854 8.05536 5.70732 7.80758 5.96117 7.98994C6.21502 8.1723 6.37382 7.80566 6.44665 8.33153C6.51949 8.85739 6.72023 9.68661 6.72023 9.68661L10.0078 12.1573H9.39013C9.39013 12.1573 8.42828 13.5705 8.58709 14.8104C8.58709 14.8104 7.92345 14.7095 7.02394 14.7095C6.12443 14.7095 5.53527 14.925 5.53527 14.925L5.01576 13.0014C5.01576 13.0014 5.20386 12.6782 5.28472 12.4177C5.36558 12.1573 5.7004 12.1092 5.7004 11.902C5.7004 11.6948 5.37014 11.5211 5.53527 10.9848C5.7004 10.4484 5.7004 8.84405 5.7004 8.84405C5.7004 8.84405 5.17852 8.61456 5.28472 8.61456C5.39092 8.61456 5.63301 8.4215 5.45886 8.4215C5.28472 8.4215 5.01576 8.4215 5.01576 8.4215Z" fill="#FECA00"/>
<path d="M6.72023 9.68661L6.59874 9.71602L6.60929 9.7596L6.64514 9.78654L9.63342 12.0323H9.39013H9.324L9.28679 12.0869L9.39013 12.1573L9.28675 12.087L9.28668 12.0871L9.28648 12.0874L9.28583 12.0884L9.28349 12.0918L9.27492 12.1048C9.26754 12.116 9.25689 12.1324 9.24349 12.1536C9.21669 12.1959 9.17885 12.2574 9.13407 12.3349C9.04459 12.4899 8.92701 12.7096 8.81439 12.9691C8.60901 13.4423 8.41388 14.0618 8.44838 14.6662C8.37362 14.6572 8.27415 14.6463 8.15412 14.6354C7.87287 14.6099 7.47823 14.5845 7.02394 14.5845C6.56429 14.5845 6.18353 14.6395 5.91689 14.6949C5.79287 14.7206 5.6934 14.7464 5.62202 14.7668L5.14978 13.0182C5.15175 13.0146 5.1538 13.0109 5.15595 13.007C5.17541 12.9716 5.20217 12.9218 5.23154 12.8635C5.28962 12.7483 5.36057 12.595 5.4041 12.4548C5.4307 12.3691 5.49873 12.3144 5.59796 12.2398L5.60107 12.2375C5.64496 12.2045 5.69929 12.1637 5.74132 12.1152C5.78751 12.0618 5.8254 11.992 5.8254 11.902C5.8254 11.8178 5.79185 11.7451 5.76193 11.6884C5.74944 11.6647 5.73772 11.6439 5.72645 11.6239C5.70675 11.5889 5.68842 11.5563 5.66973 11.5151C5.61911 11.4037 5.58206 11.2576 5.65474 11.0216C5.69988 10.8749 5.73175 10.6637 5.75508 10.4368C5.77864 10.2076 5.79426 9.95413 5.80463 9.71879C5.81502 9.48324 5.82021 9.26472 5.8228 9.10514C5.8241 9.02533 5.82475 8.96018 5.82507 8.91493L5.82536 8.86262L5.82539 8.84887L5.8254 8.84531L5.8254 8.84439L5.8254 8.84415V8.84408L5.7004 8.84405H5.8254V8.76246L5.75072 8.72962L5.75071 8.72962L5.75071 8.72962L5.75065 8.7296L5.7504 8.72949L5.74936 8.72902L5.74517 8.72717L5.72912 8.72004L5.6723 8.69442C5.63348 8.67675 5.58501 8.65435 5.53698 8.63124C5.54569 8.6242 5.55404 8.61699 5.56193 8.60967C5.57937 8.59349 5.59755 8.57402 5.61227 8.55197C5.62514 8.53268 5.64539 8.49672 5.64505 8.45074C5.64461 8.39136 5.61073 8.34427 5.56483 8.31965C5.52813 8.29995 5.4884 8.2965 5.45886 8.2965H5.45784H5.45682H5.45579H5.45477H5.45374H5.4527H5.45167H5.45063H5.44959H5.44855H5.44751H5.44647H5.44542H5.44437H5.44332H5.44227H5.44122H5.44016H5.4391H5.43804H5.43698H5.43592H5.43485H5.43379H5.43272H5.43165H5.43058H5.4295H5.42843H5.42735H5.42627H5.42519H5.42411H5.42302H5.42194H5.42085H5.41976H5.41867H5.41758H5.41649H5.41539H5.4143H5.4132H5.4121H5.411H5.4099H5.40879H5.40769H5.40658H5.40547H5.40436H5.40325H5.40214H5.40103H5.39991H5.3988H5.39768H5.39656H5.39544H5.39432H5.3932H5.39208H5.39095H5.38983H5.3887H5.38757H5.38644H5.38531H5.38418H5.38305H5.38192H5.38078H5.37965H5.37851H5.37738H5.37624H5.3751H5.37396H5.37282H5.37168H5.37054H5.36939H5.36825H5.3671H5.36596H5.36481H5.36366H5.36252H5.36137H5.36022H5.35907H5.35792H5.35677H5.35561H5.35446H5.35331H5.35215H5.351H5.34984H5.34869H5.34753H5.34637H5.34522H5.34406H5.3429H5.34174H5.34058H5.33942H5.33826H5.3371H5.33594H5.33478H5.33362H5.33246H5.33129H5.33013H5.32897H5.32781H5.32664H5.32548H5.32431H5.32315H5.32199H5.32082H5.31966H5.31849H5.31733H5.31616H5.315H5.31383H5.31267H5.3115H5.31034H5.30932C5.31508 8.2943 5.32103 8.29209 5.32718 8.28987C5.41967 8.25647 5.49494 8.21409 5.55771 8.17475C5.58572 8.1572 5.6086 8.14211 5.62895 8.12869C5.65857 8.10917 5.68284 8.09316 5.70983 8.07818C5.75 8.0559 5.77377 8.04983 5.79245 8.05005C5.80962 8.05025 5.83891 8.05602 5.88824 8.09146C6.03642 8.19791 6.19128 8.17101 6.25351 8.16021C6.26313 8.15854 6.27053 8.15725 6.27536 8.1569C6.28706 8.17698 6.30622 8.22869 6.32284 8.34868C6.35994 8.6166 6.4292 8.95926 6.4886 9.23279C6.5184 9.37002 6.54591 9.49071 6.56597 9.5771C6.576 9.62031 6.58418 9.65496 6.58985 9.67885L6.59641 9.70634L6.59814 9.71351L6.59858 9.71536L6.5987 9.71584L6.59873 9.71597L6.59874 9.71601L6.72023 9.68661Z" stroke="#0A0A0A" stroke-width="0.25"/>
</g>
</g>
</svg>
