<svg width="20" height="20" viewBox="0 0 20 20" fill="none" xmlns="http://www.w3.org/2000/svg">
<g id="3d-move-2" clip-path="url(#clip0_47_141554)">
<g id="3d-move">
<path id="Vector 2076" d="M6.69531 11.9822V8.01796C6.69531 7.28816 7.28694 6.69653 8.01674 6.69653H11.981C12.7108 6.69653 13.3025 7.28816 13.3025 8.01796V11.9822C13.3025 12.712 12.7108 13.3037 11.981 13.3037H8.01674C7.28694 13.3037 6.69531 12.712 6.69531 11.9822Z" stroke="black" stroke-width="1.5" stroke-linecap="round" stroke-linejoin="round"/>
<path id="Vector 2078" d="M10 1.41077V6.69648" stroke="black" stroke-width="1.5" stroke-linecap="round" stroke-linejoin="round"/>
<path id="Vector 2080" d="M18.5904 10H13.3047" stroke="black" stroke-width="1.5" stroke-linecap="round" stroke-linejoin="round"/>
<path id="Vector 2079" d="M8.01562 3.39291L9.99777 1.41077L11.9799 3.39291" stroke="black" stroke-width="1.5" stroke-linecap="round" stroke-linejoin="round"/>
<path id="Vector 2081" d="M16.6055 8.01794L18.5876 10.0001L16.6055 11.9822" stroke="black" stroke-width="1.5" stroke-linecap="round" stroke-linejoin="round"/>
<path id="Vector 2082" d="M10 18.5893V13.3036" stroke="black" stroke-width="1.5" stroke-linecap="round" stroke-linejoin="round"/>
<path id="Vector 2083" d="M1.41016 10H6.69587" stroke="black" stroke-width="1.5" stroke-linecap="round" stroke-linejoin="round"/>
<path id="Vector 2084" d="M11.9799 16.6072L9.99777 18.5893L8.01562 16.6072" stroke="black" stroke-width="1.5" stroke-linecap="round" stroke-linejoin="round"/>
<path id="Vector 2085" d="M3.3923 11.9822L1.41016 10.0001L3.3923 8.01794" stroke="black" stroke-width="1.5" stroke-linecap="round" stroke-linejoin="round"/>
</g>
</g>
<defs>
<clipPath id="clip0_47_141554">
<rect width="20" height="20" fill="white"/>
</clipPath>
</defs>
</svg>
