<svg width="20" height="20" viewBox="0 0 20 20" fill="none" xmlns="http://www.w3.org/2000/svg">
<g id="3d-rotate-y-axis-20" clip-path="url(#clip0_47_141585)">
<g id="3d-rotate-y-axis">
<path id="Vector 857" d="M10 1.41077L10 18.5893" stroke="black" stroke-width="1.5" stroke-linecap="round" stroke-linejoin="round"/>
<path id="Vector 858" d="M4.84766 12.55C5.34809 12.6859 5.87809 12.8004 6.41964 12.8938C6.63612 12.9311 6.85444 12.9651 7.07346 12.9956" stroke="black" stroke-width="1.5" stroke-linecap="round" stroke-linejoin="round"/>
<path id="Vector 862" d="M6.41965 7.13977C6.01271 7.20759 5.44978 7.31884 4.84766 7.48202" stroke="black" stroke-width="1.5" stroke-linecap="round" stroke-linejoin="round"/>
<path id="Vector 861" d="M2.22604 8.62769C1.73376 9.00375 1.41016 9.45827 1.41016 10.0026C1.41016 10.5316 1.71422 10.9942 2.22604 11.3911" stroke="black" stroke-width="1.5" stroke-linecap="round" stroke-linejoin="round"/>
<path id="Vector 860" d="M13.5789 7.13977C15.0562 7.38598 18.5893 8.20435 18.5893 10.0029C18.5893 12.1502 13.5789 13.2046 10 13.2046" stroke="black" stroke-width="1.5" stroke-linecap="round" stroke-linejoin="round"/>
<path id="Vector 859" d="M15.5175 5.44409L13.5586 7.13667L14.5227 9.52341" stroke="black" stroke-width="1.5" stroke-linecap="round" stroke-linejoin="round"/>
</g>
</g>
<defs>
<clipPath id="clip0_47_141585">
<rect width="20" height="20" fill="white"/>
</clipPath>
</defs>
</svg>
