<svg width="20" height="20" viewBox="0 0 20 20" fill="none" xmlns="http://www.w3.org/2000/svg">
<g id="add-2-23" clip-path="url(#clip0_47_141614)">
<g id="add-2--remove-bold-cross-buttons-button-add-plus-+-mathematics-math">
<path id="Vector" d="M18.5887 9.33934C18.5887 8.98887 18.4494 8.65276 18.2017 8.40494C17.9539 8.15714 17.6177 8.01791 17.2673 8.01791H11.9816V2.7322C11.9816 2.38173 11.8424 2.04562 11.5946 1.7978C11.3467 1.54999 11.0106 1.41077 10.6602 1.41077H9.33873C8.98826 1.41077 8.65215 1.54999 8.40433 1.7978C8.15653 2.04562 8.0173 2.38173 8.0173 2.7322V8.01791H2.73158C2.38112 8.01791 2.04501 8.15714 1.79719 8.40494C1.54938 8.65276 1.41016 8.98887 1.41016 9.33934V10.6608C1.41016 11.0112 1.54938 11.3473 1.79719 11.5952C2.04501 11.843 2.38112 11.9822 2.73158 11.9822H8.0173V17.2679C8.0173 17.6184 8.15653 17.9545 8.40433 18.2023C8.65215 18.4501 8.98826 18.5893 9.33873 18.5893H10.6602C11.0106 18.5893 11.3467 18.4501 11.5946 18.2023C11.8424 17.9545 11.9816 17.6184 11.9816 17.2679V11.9822H17.2673C17.6177 11.9822 17.9539 11.843 18.2017 11.5952C18.4494 11.3473 18.5887 11.0112 18.5887 10.6608V9.33934Z" stroke="black" stroke-width="1.5" stroke-linecap="round" stroke-linejoin="round"/>
</g>
</g>
<defs>
<clipPath id="clip0_47_141614">
<rect width="20" height="20" fill="white"/>
</clipPath>
</defs>
</svg>
