<svg width="21" height="21" viewBox="0 0 21 21" fill="none" xmlns="http://www.w3.org/2000/svg">
<path d="M10.4989 14.3304H2.83817C2.46876 14.3304 2.11448 14.1836 1.85327 13.9224C1.59206 13.6612 1.44531 13.3069 1.44531 12.9375V4.58036C1.44531 4.21094 1.59206 3.85667 1.85327 3.59545C2.11448 3.33425 2.46876 3.1875 2.83817 3.1875H18.1596C18.529 3.1875 18.8833 3.33425 19.1445 3.59545C19.4056 3.85667 19.5525 4.21094 19.5525 4.58036V5.27679" stroke="black" stroke-width="1.5" stroke-linecap="round" stroke-linejoin="round"/>
<path d="M5.625 7.36597V10.1517" stroke="black" stroke-width="1.5" stroke-linecap="round" stroke-linejoin="round"/>
<path d="M19.553 11.3078C19.553 13.1045 16.4191 17.8124 16.4191 17.8124C16.4191 17.8124 13.2852 13.1045 13.2852 11.3078C13.2852 10.4766 13.6153 9.67945 14.2031 9.09174C14.7908 8.50401 15.588 8.17383 16.4191 8.17383C17.2502 8.17383 18.0473 8.50401 18.6351 9.09174C19.2228 9.67945 19.553 10.4766 19.553 11.3078Z" stroke="black" stroke-width="1.5" stroke-linecap="round" stroke-linejoin="round"/>
<path d="M16.4185 11.5446C16.2262 11.5446 16.0703 11.3887 16.0703 11.1964C16.0703 11.004 16.2262 10.8481 16.4185 10.8481" stroke="black" stroke-width="1.5" stroke-linecap="round" stroke-linejoin="round"/>
<path d="M16.418 11.5446C16.6103 11.5446 16.7662 11.3887 16.7662 11.1964C16.7662 11.004 16.6103 10.8481 16.418 10.8481" stroke="black" stroke-width="1.5" stroke-linecap="round" stroke-linejoin="round"/>
</svg>
