<svg width="21" height="21" viewBox="0 0 21 21" fill="none" xmlns="http://www.w3.org/2000/svg">
<path d="M10.5006 16.9799C9.574 17.7927 8.51179 18.5 7.5136 19.0088C6.20585 19.6756 4.70653 19.1902 3.66803 18.1543C2.3276 16.8173 1.95926 14.7913 2.74369 13.0699L6.84046 4.08014C7.49286 2.64852 8.92398 1.72937 10.5006 1.72937C12.0772 1.72937 13.5083 2.64852 14.1607 4.08014L18.2574 13.0699C19.0419 14.7913 18.6736 16.8173 17.3331 18.1543C16.2946 19.1902 14.7953 19.6756 13.4876 19.0088C12.4894 18.5 11.4272 17.7927 10.5006 16.9799ZM10.5006 16.9799C11.9642 15.6958 13.0894 14.1483 13.0894 12.7038C13.0894 10.7672 11.795 9.47603 10.5006 9.47603C9.20616 9.47603 7.91174 10.7672 7.91174 12.7038C7.91174 14.1483 9.03697 15.6958 10.5006 16.9799Z" stroke="black" stroke-width="1.5" stroke-linecap="round" stroke-linejoin="round"/>
</svg>
