<svg width="21" height="21" viewBox="0 0 21 21" fill="none" xmlns="http://www.w3.org/2000/svg">
<g clip-path="url(#clip0_146_402185)">
<path d="M13.4894 19.2394L10.5 17.9431L7.51055 19.2394C6.59926 19.6346 5.58147 18.9666 5.58147 17.9733C5.58147 17.5677 5.75994 17.1826 6.06943 16.9203L8.7154 14.6787L8.41071 11.8494L3.34427 12.9935C2.48313 13.1879 1.66406 12.5332 1.66406 11.6504C1.66406 11.1316 1.95558 10.6569 2.4182 10.4223L5.08801 9.06836" stroke="black" stroke-width="1.5" stroke-linecap="round" stroke-linejoin="round"/>
<path d="M19.5525 19.5537L1.44531 1.44653" stroke="black" stroke-width="1.5" stroke-linecap="round" stroke-linejoin="round"/>
<path d="M7.75738 7.71438L7.49277 5.90626C7.32828 4.78215 7.63396 3.63991 8.33792 2.74822C9.44059 1.35151 11.5585 1.35151 12.6612 2.74822C13.3652 3.63991 13.6709 4.78215 13.5064 5.90626L13.2418 7.71438L18.5814 10.4223C19.044 10.6569 19.3355 11.1316 19.3355 11.6504C19.3355 12.5332 18.5164 13.1879 17.6553 12.9935L12.5888 11.8494L12.5169 12.5174" stroke="black" stroke-width="1.5" stroke-linecap="round" stroke-linejoin="round"/>
</g>
<defs>
<clipPath id="clip0_146_402185">
<rect width="21" height="21" fill="white"/>
</clipPath>
</defs>
</svg>
