<svg width="22" height="21" viewBox="0 0 22 21" fill="none" xmlns="http://www.w3.org/2000/svg">
<path d="M10.1693 18.1169C10.1693 19.0374 9.42308 19.7835 8.5026 19.7835C7.58213 19.7835 6.83594 19.0374 6.83594 18.1169" stroke="black" stroke-linecap="round" stroke-linejoin="round"/>
<path d="M8.91797 5.66022C8.78093 5.63158 8.64131 5.61705 8.5013 5.61688C7.35071 5.61688 6.41797 6.54962 6.41797 7.70022C4.39946 8.54126 3.08464 10.5135 3.08464 12.7002V16.4502C3.08464 17.3707 2.33844 18.1169 1.41797 18.1169H15.5846C14.6642 18.1169 13.918 17.3707 13.918 16.4502V12.7002C13.9147 12.4833 13.8983 12.2668 13.8688 12.0519" stroke="black" stroke-linecap="round" stroke-linejoin="round"/>
<path d="M18.6937 3.99854L15.2812 7.62937L12.8438 5.2627" stroke="black" stroke-linecap="round" stroke-linejoin="round"/>
<path fill-rule="evenodd" clip-rule="evenodd" d="M15.5859 10.6177C18.3474 10.6177 20.5859 8.37913 20.5859 5.61771C20.5859 2.85628 18.3474 0.617706 15.5859 0.617706C12.8245 0.617706 10.5859 2.85628 10.5859 5.61771C10.5859 8.37913 12.8245 10.6177 15.5859 10.6177Z" stroke="black" stroke-linecap="round" stroke-linejoin="round"/>
</svg>
