<svg width="22" height="21" viewBox="0 0 22 21" fill="none" xmlns="http://www.w3.org/2000/svg">
<path fill-rule="evenodd" clip-rule="evenodd" d="M16.418 16.4502V12.7002C16.418 10.5135 15.1031 8.54123 13.0846 7.70019C13.0846 6.54959 12.1519 5.61685 11.0013 5.61685C9.85071 5.61685 8.91797 6.54959 8.91797 7.70019C6.89946 8.54123 5.58464 10.5135 5.58464 12.7002V16.4502C5.58464 17.3707 4.83844 18.1169 3.91797 18.1169H18.0846C17.1642 18.1169 16.418 17.3707 16.418 16.4502Z" stroke="black" stroke-linecap="round" stroke-linejoin="round"/>
<path d="M12.6693 18.1169C12.6693 19.0373 11.9231 19.7835 11.0026 19.7835C10.0821 19.7835 9.33594 19.0373 9.33594 18.1169" stroke="black" stroke-linecap="round" stroke-linejoin="round"/>
<path d="M3.91797 7.70019C3.91797 5.16888 5.97 3.11685 8.5013 3.11685" stroke="black" stroke-linecap="round" stroke-linejoin="round"/>
<path d="M1.41797 7.70019C1.41797 3.78817 4.58929 0.616852 8.5013 0.616852" stroke="black" stroke-linecap="round" stroke-linejoin="round"/>
<path d="M18.0833 7.70019C18.0833 5.16888 16.0313 3.11685 13.5 3.11685" stroke="black" stroke-linecap="round" stroke-linejoin="round"/>
<path d="M20.5833 7.70019C20.5833 3.78817 17.412 0.616852 13.5 0.616852" stroke="black" stroke-linecap="round" stroke-linejoin="round"/>
</svg>
