<svg width="22" height="21" viewBox="0 0 22 21" fill="none" xmlns="http://www.w3.org/2000/svg">
<path fill-rule="evenodd" clip-rule="evenodd" d="M11.0026 18.9519C15.3749 18.9519 18.9193 15.4075 18.9193 11.0352C18.9193 6.66294 15.3749 3.11853 11.0026 3.11853C6.63035 3.11853 3.08594 6.66294 3.08594 11.0352C3.08594 15.4075 6.63035 18.9519 11.0026 18.9519Z" stroke="black" stroke-linecap="round" stroke-linejoin="round"/>
<path d="M6.54677 17.5744L4.33594 19.7844" stroke="black" stroke-linecap="round" stroke-linejoin="round"/>
<path d="M15.457 17.5728L17.6695 19.7844" stroke="black" stroke-linecap="round" stroke-linejoin="round"/>
<path d="M8.08594 11.4519H11.4193V6.4519" stroke="black" stroke-linecap="round" stroke-linejoin="round"/>
<path d="M7.52847 2.11022C6.81515 1.02207 5.53303 0.449489 4.24663 0.644597C2.96022 0.839705 1.90554 1.7667 1.54696 3.01743C1.18838 4.26816 1.59168 5.61316 2.5793 6.46022" stroke="black" stroke-linecap="round" stroke-linejoin="round"/>
<path d="M14.4766 2.11022C15.1899 1.02207 16.472 0.449489 17.7584 0.644597C19.0448 0.839705 20.0995 1.7667 20.4581 3.01743C20.8167 4.26816 20.4133 5.61316 19.4257 6.46022" stroke="black" stroke-linecap="round" stroke-linejoin="round"/>
</svg>
