<svg width="22" height="21" viewBox="0 0 22 21" fill="none" xmlns="http://www.w3.org/2000/svg">
<path fill-rule="evenodd" clip-rule="evenodd" d="M15.5859 10.6177C18.3474 10.6177 20.5859 8.3791 20.5859 5.61768C20.5859 2.85625 18.3474 0.617676 15.5859 0.617676C12.8245 0.617676 10.5859 2.85625 10.5859 5.61768C10.5859 8.3791 12.8245 10.6177 15.5859 10.6177Z" stroke="black" stroke-linecap="round" stroke-linejoin="round"/>
<path d="M17.2513 6.45103H15.168V3.53436" stroke="black" stroke-linecap="round" stroke-linejoin="round"/>
<path d="M10.1693 18.1168C10.1693 19.0373 9.42308 19.7835 8.5026 19.7835C7.58213 19.7835 6.83594 19.0373 6.83594 18.1168" stroke="black" stroke-linecap="round" stroke-linejoin="round"/>
<path d="M8.91797 5.66015C8.78093 5.63151 8.64131 5.61699 8.5013 5.61682C7.35071 5.61682 6.41797 6.54956 6.41797 7.70015C4.39946 8.5412 3.08464 10.5134 3.08464 12.7002V16.4502C3.08464 17.3706 2.33844 18.1168 1.41797 18.1168H15.5846C14.6642 18.1168 13.918 17.3706 13.918 16.4502V12.7002C13.9147 12.4832 13.8983 12.2667 13.8688 12.0518" stroke="black" stroke-linecap="round" stroke-linejoin="round"/>
</svg>
