<svg width="22" height="21" viewBox="0 0 22 21" fill="none" xmlns="http://www.w3.org/2000/svg">
<path d="M1.41797 19.7844L20.5846 0.617706" stroke="black" stroke-linecap="round" stroke-linejoin="round"/>
<path d="M12.6693 15.6169C12.6693 16.5374 11.9231 17.2835 11.0026 17.2835C10.0821 17.2835 9.33594 16.5374 9.33594 15.6169" stroke="black" stroke-linecap="round" stroke-linejoin="round"/>
<path d="M13.4576 5.38855C13.3359 5.32605 13.2151 5.25438 13.0859 5.20022C13.0859 4.04962 12.1532 3.11688 11.0026 3.11688C9.85201 3.11688 8.91927 4.04962 8.91927 5.20022C6.90077 6.04126 5.58594 8.0135 5.58594 10.2002V13.2602" stroke="black" stroke-linecap="round" stroke-linejoin="round"/>
<path d="M7.94141 15.6169H18.0847C17.1643 15.6169 16.4181 14.8707 16.4181 13.9502V10.2002C16.4173 9.34373 16.2121 8.49981 15.8197 7.73853" stroke="black" stroke-linecap="round" stroke-linejoin="round"/>
</svg>
