<svg width="22" height="21" viewBox="0 0 22 21" fill="none" xmlns="http://www.w3.org/2000/svg">
<path d="M13.918 0.617706H16.418L13.918 3.11771H16.418" stroke="black" stroke-linecap="round" stroke-linejoin="round"/>
<path d="M16.418 5.61771H20.5846L16.418 9.78437H20.5846" stroke="black" stroke-linecap="round" stroke-linejoin="round"/>
<path fill-rule="evenodd" clip-rule="evenodd" d="M12.668 11.4502C12.668 8.68877 10.4294 6.4502 7.66797 6.4502C4.90654 6.4502 2.66797 8.68877 2.66797 11.4502V16.0335C2.66797 16.7239 2.10832 17.2835 1.41797 17.2835H13.918C13.2276 17.2835 12.668 16.7239 12.668 16.0335V11.4502Z" stroke="black" stroke-linecap="round" stroke-linejoin="round"/>
<path d="M8.84578 18.9502C8.6694 19.45 8.19702 19.7842 7.66703 19.7842C7.13704 19.7842 6.66466 19.45 6.48828 18.9502" stroke="black" stroke-linecap="round" stroke-linejoin="round"/>
<path d="M7.66797 4.78436V6.45103" stroke="black" stroke-linecap="round" stroke-linejoin="round"/>
</svg>
