<svg width="22" height="21" viewBox="0 0 22 21" fill="none" xmlns="http://www.w3.org/2000/svg">
<path fill-rule="evenodd" clip-rule="evenodd" d="M11 18.5344C15.1421 18.5344 18.5 15.1765 18.5 11.0344C18.5 6.89223 15.1421 3.53436 11 3.53436C6.85786 3.53436 3.5 6.89223 3.5 11.0344C3.5 15.1765 6.85786 18.5344 11 18.5344Z" stroke="black" stroke-linecap="round" stroke-linejoin="round"/>
<path d="M7.095 17.4385L4.75 19.7843" stroke="black" stroke-linecap="round" stroke-linejoin="round"/>
<path d="M14.9023 17.4385L17.2473 19.7843" stroke="black" stroke-linecap="round" stroke-linejoin="round"/>
<path d="M11 5.61768V11.0343H13.9167" stroke="black" stroke-linecap="round" stroke-linejoin="round"/>
<path fill-rule="evenodd" clip-rule="evenodd" d="M2.619 7.3285C3.54331 5.24459 5.20925 3.57865 7.29316 2.65434C6.48958 1.68215 5.20452 1.24928 3.9765 1.53713C2.74848 1.82498 1.78964 2.78382 1.50179 4.01184C1.21394 5.23986 1.64681 6.52492 2.619 7.3285Z" stroke="black" stroke-linecap="round" stroke-linejoin="round"/>
<path fill-rule="evenodd" clip-rule="evenodd" d="M19.3773 7.3285C18.453 5.24459 16.787 3.57865 14.7031 2.65434C15.5067 1.68215 16.7918 1.24928 18.0198 1.53713C19.2478 1.82498 20.2067 2.78382 20.4945 4.01184C20.7823 5.23986 20.3495 6.52492 19.3773 7.3285V7.3285Z" stroke="black" stroke-linecap="round" stroke-linejoin="round"/>
</svg>
