<svg width="22" height="21" viewBox="0 0 22 21" fill="none" xmlns="http://www.w3.org/2000/svg">
<path d="M9.0013 6.63687C7.49677 6.21524 5.8816 6.52306 4.6376 7.4685C3.39361 8.41394 2.66457 9.88772 2.66797 11.4502V16.0335C2.66797 16.3651 2.53627 16.683 2.30185 16.9174C2.06743 17.1518 1.74949 17.2835 1.41797 17.2835H13.918C13.2276 17.2835 12.668 16.7239 12.668 16.0335V11.6052" stroke="black" stroke-linecap="round" stroke-linejoin="round"/>
<path d="M8.84578 18.9502C8.6694 19.45 8.19702 19.7842 7.66703 19.7842C7.13704 19.7842 6.66466 19.45 6.48828 18.9502" stroke="black" stroke-linecap="round" stroke-linejoin="round"/>
<path d="M7.66797 4.78436V6.45103" stroke="black" stroke-linecap="round" stroke-linejoin="round"/>
<path d="M9.0013 6.63687C7.49677 6.21524 5.8816 6.52306 4.6376 7.4685C3.39361 8.41394 2.66457 9.88772 2.66797 11.4502V16.0335C2.66797 16.3651 2.53627 16.683 2.30185 16.9174C2.06743 17.1518 1.74949 17.2835 1.41797 17.2835H13.918C13.2276 17.2835 12.668 16.7239 12.668 16.0335V11.6052" stroke="black" stroke-linecap="round" stroke-linejoin="round"/>
<path d="M8.84578 18.9502C8.6694 19.45 8.19702 19.7842 7.66703 19.7842C7.13704 19.7842 6.66466 19.45 6.48828 18.9502" stroke="black" stroke-linecap="round" stroke-linejoin="round"/>
<path d="M7.66797 4.78436V6.45103" stroke="black" stroke-linecap="round" stroke-linejoin="round"/>
<path fill-rule="evenodd" clip-rule="evenodd" d="M15.5859 10.6185C18.3474 10.6185 20.5859 8.37995 20.5859 5.61853C20.5859 2.85711 18.3474 0.61853 15.5859 0.61853C12.8245 0.61853 10.5859 2.85711 10.5859 5.61853C10.5859 8.37995 12.8245 10.6185 15.5859 10.6185Z" stroke="black" stroke-linecap="round" stroke-linejoin="round"/>
<path d="M17.8126 4.16519L15.3917 7.39269C15.2828 7.53742 15.1165 7.62792 14.9358 7.64086C14.7551 7.6538 14.5777 7.58792 14.4492 7.46019L13.1992 6.21019" stroke="black" stroke-linecap="round" stroke-linejoin="round"/>
</svg>
