<svg width="22" height="21" viewBox="0 0 22 21" fill="none" xmlns="http://www.w3.org/2000/svg">
<path fill-rule="evenodd" clip-rule="evenodd" d="M16 11.4502C16 8.68877 13.7614 6.4502 11 6.4502C8.23858 6.4502 6 8.68877 6 11.4502V16.0335C6 16.7239 5.44036 17.2835 4.75 17.2835H17.25C16.5596 17.2835 16 16.7239 16 16.0335V11.4502Z" stroke="black" stroke-linecap="round" stroke-linejoin="round"/>
<path d="M12.1817 18.9502C12.0053 19.45 11.533 19.7842 11.003 19.7842C10.473 19.7842 10.0006 19.45 9.82422 18.9502" stroke="black" stroke-linecap="round" stroke-linejoin="round"/>
<path d="M11 4.78436V6.45103" stroke="black" stroke-linecap="round" stroke-linejoin="round"/>
<path d="M8.08594 3.53351C6.01487 3.53351 4.33594 5.21244 4.33594 7.28351" stroke="black" stroke-linecap="round" stroke-linejoin="round"/>
<path d="M1.41797 7.28352C1.41797 3.60162 4.40274 0.616852 8.08464 0.616852" stroke="black" stroke-linecap="round" stroke-linejoin="round"/>
<path d="M13.918 3.53351C14.9125 3.53351 15.8664 3.9286 16.5696 4.63186C17.2729 5.33512 17.668 6.28895 17.668 7.28351" stroke="black" stroke-linecap="round" stroke-linejoin="round"/>
<path d="M20.5846 7.28352C20.5846 3.60162 17.5999 0.616852 13.918 0.616852" stroke="black" stroke-linecap="round" stroke-linejoin="round"/>
</svg>
