<svg width="20" height="20" viewBox="0 0 20 20" fill="none" xmlns="http://www.w3.org/2000/svg">
<g id="align-object-left-10" clip-path="url(#clip0_47_141980)">
<g id="align-object-left">
<path id="Rectangle 53" d="M1.03516 2.21793V17.7821C1.03516 17.7821 1.03516 18.9655 2.2186 18.9655H17.7827C17.7827 18.9655 18.9662 18.9655 18.9662 17.7821V2.21793C18.9662 2.21793 18.9662 1.03448 17.7827 1.03448H2.2186C2.2186 1.03448 1.03516 1.03448 1.03516 2.21793Z" stroke="black" stroke-width="1.3" stroke-linecap="round" stroke-linejoin="round"/>
<path id="Rectangle 54" d="M4.71875 5.40691V14.5945C4.71875 14.5945 4.71875 15.2842 5.40841 15.2842H8.35185C8.35185 15.2842 9.04151 15.2842 9.04151 14.5945V5.40691C9.04151 5.40691 9.04151 4.71725 8.35185 4.71725H5.40841C5.40841 4.71725 4.71875 4.71725 4.71875 5.40691Z" stroke="black" stroke-width="1.3" stroke-linecap="round" stroke-linejoin="round"/>
</g>
</g>
<defs>
<clipPath id="clip0_47_141980">
<rect width="20" height="20" fill="white"/>
</clipPath>
</defs>
</svg>
