<svg width="20" height="20" viewBox="0 0 20 20" fill="none" xmlns="http://www.w3.org/2000/svg">
<g id="align-object-bottom-33" clip-path="url(#clip0_47_141972)">
<g id="align-object-bottom">
<path id="Rectangle 53" d="M2.2186 18.9655H17.7827C17.7827 18.9655 18.9662 18.9655 18.9662 17.7821V2.21793C18.9662 2.21793 18.9662 1.03448 17.7827 1.03448H2.2186C2.2186 1.03448 1.03516 1.03448 1.03516 2.21793V17.7821C1.03516 17.7821 1.03516 18.9655 2.2186 18.9655Z" stroke="black" stroke-width="1.5" stroke-linecap="round" stroke-linejoin="round"/>
<path id="Rectangle 54" d="M5.40841 15.2828H14.596C14.596 15.2828 15.2856 15.2828 15.2856 14.5931V11.6497C15.2856 11.6497 15.2856 10.96 14.596 10.96H5.40841C5.40841 10.96 4.71875 10.96 4.71875 11.6497V14.5931C4.71875 14.5931 4.71875 15.2828 5.40841 15.2828Z" stroke="black" stroke-width="1.5" stroke-linecap="round" stroke-linejoin="round"/>
</g>
</g>
<defs>
<clipPath id="clip0_47_141972">
<rect width="20" height="20" fill="white"/>
</clipPath>
</defs>
</svg>
