<svg width="20" height="20" viewBox="0 0 20 20" fill="none" xmlns="http://www.w3.org/2000/svg">
<g id="align-page-41">
<g id="align-page">
<path id="Vector 385" d="M3.39062 10H8.01566C8.38056 10 8.67638 10.2958 8.67638 10.6607V13.3036C8.67638 13.6685 8.38056 13.9643 8.01566 13.9643H3.39062" stroke="black" stroke-width="1.5" stroke-linecap="round" stroke-linejoin="round"/>
<path id="Vector" d="M17.2662 17.2678C17.2662 17.6183 17.1269 17.9545 16.8791 18.2022C16.6314 18.45 16.2952 18.5893 15.9448 18.5893H4.0519C3.70143 18.5893 3.36532 18.45 3.1175 18.2022C2.86969 17.9545 2.73047 17.6183 2.73047 17.2678V2.73213C2.73047 2.38166 2.86969 2.04556 3.1175 1.79774C3.36532 1.54993 3.70143 1.41071 4.0519 1.41071H13.3019L17.2662 5.37499V17.2678Z" stroke="black" stroke-width="1.5" stroke-linecap="round" stroke-linejoin="round"/>
<path id="Vector_2" d="M12.6406 1.41071L12.6406 6.03571H17.2656" stroke="black" stroke-width="1.5" stroke-linecap="round" stroke-linejoin="round"/>
</g>
</g>
</svg>
