<svg width="20" height="20" viewBox="0 0 20 20" fill="none" xmlns="http://www.w3.org/2000/svg">
<g id="align-horizontal-center-1-42">
<g id="align-horizontal-center-1--align-center-design-horizontal">
<path id="Vector" d="M13.3036 1.41071H6.69643C5.96663 1.41071 5.375 2.00233 5.375 2.73213V5.37499C5.375 6.10479 5.96663 6.69642 6.69643 6.69642H13.3036C14.0334 6.69642 14.625 6.10479 14.625 5.37499V2.73213C14.625 2.00233 14.0334 1.41071 13.3036 1.41071Z" stroke="black" stroke-width="1.5" stroke-linecap="round" stroke-linejoin="round"/>
<path id="Vector_2" d="M15.9448 13.3036H4.0519C3.3221 13.3036 2.73047 13.8952 2.73047 14.625V17.2678C2.73047 17.9977 3.3221 18.5893 4.0519 18.5893H15.9448C16.6746 18.5893 17.2662 17.9977 17.2662 17.2678V14.625C17.2662 13.8952 16.6746 13.3036 15.9448 13.3036Z" stroke="black" stroke-width="1.5" stroke-linecap="round" stroke-linejoin="round"/>
<path id="Vector_3" d="M10 6.69641V13.3036" stroke="black" stroke-width="1.5" stroke-linecap="round" stroke-linejoin="round"/>
</g>
</g>
</svg>
