<svg width="20" height="20" viewBox="0 0 20 20" fill="none" xmlns="http://www.w3.org/2000/svg">
<g id="align-vertical-center-1-31">
<g id="align-vertical-center-1--align-design-middle-vertical">
<path id="Vector" d="M18.5904 14.625V6.69643C18.5904 5.96663 17.9988 5.375 17.269 5.375H14.6261C13.8963 5.375 13.3047 5.96663 13.3047 6.69643V14.625C13.3047 15.3548 13.8963 15.9464 14.6261 15.9464H17.269C17.9988 15.9464 18.5904 15.3548 18.5904 14.625Z" stroke="black" stroke-width="1.5" stroke-linecap="round" stroke-linejoin="round"/>
<path id="Vector_2" d="M6.69587 15.9464V4.05358C6.69587 3.32378 6.10424 2.73215 5.37444 2.73215H2.73158C2.00178 2.73215 1.41016 3.32378 1.41016 4.05358V15.9464C1.41016 16.6763 2.00178 17.2679 2.73158 17.2679H5.37444C6.10424 17.2679 6.69587 16.6763 6.69587 15.9464Z" stroke="black" stroke-width="1.5" stroke-linecap="round" stroke-linejoin="round"/>
<path id="Vector_3" d="M13.3025 10H6.69531" stroke="black" stroke-width="1.5" stroke-linecap="round" stroke-linejoin="round"/>
</g>
</g>
</svg>
