<svg width="20" height="20" viewBox="0 0 20 20" fill="none" xmlns="http://www.w3.org/2000/svg">
<g id="align-object-top-1" clip-path="url(#clip0_47_141988)">
<g id="align-object-top">
<path id="Rectangle 53" d="M2.54394 1.41071H17.4549C17.4549 1.41071 18.5887 1.41071 18.5887 2.54449V17.4555C18.5887 17.4555 18.5887 18.5893 17.4549 18.5893H2.54394C2.54394 18.5893 1.41016 18.5893 1.41016 17.4555V2.54449C1.41016 2.54449 1.41016 1.41071 2.54394 1.41071Z" stroke="black" stroke-width="1.5" stroke-linecap="round" stroke-linejoin="round"/>
<path id="Rectangle 54" d="M5.59821 4.93893H14.4003C14.4003 4.93893 15.061 4.93893 15.061 5.59965V8.41958C15.061 8.41958 15.061 9.08029 14.4003 9.08029H5.59821C5.59821 9.08029 4.9375 9.08029 4.9375 8.41958V5.59965C4.9375 5.59965 4.9375 4.93893 5.59821 4.93893Z" stroke="black" stroke-width="1.5" stroke-linecap="round" stroke-linejoin="round"/>
</g>
</g>
<defs>
<clipPath id="clip0_47_141988">
<rect width="20" height="20" fill="white"/>
</clipPath>
</defs>
</svg>
