<svg width="20" height="20" viewBox="0 0 20 20" fill="none" xmlns="http://www.w3.org/2000/svg">
<g id="align-bottom-1-24" clip-path="url(#clip0_47_141887)">
<g id="align-bottom-1--align-design-bottom-vertical">
<path id="Vector" d="M18.5887 18.5893H1.41016" stroke="black" stroke-width="1.5" stroke-linecap="round" stroke-linejoin="round"/>
<path id="Vector_2" d="M11.9805 8.01784V13.9643C11.9805 14.6941 12.5721 15.2857 13.3019 15.2857H15.9448C16.6746 15.2857 17.2662 14.6941 17.2662 13.9643V8.01784C17.2662 7.28804 16.6746 6.69641 15.9448 6.69641H13.3019C12.5721 6.69641 11.9805 7.28804 11.9805 8.01784Z" stroke="black" stroke-width="1.5" stroke-linecap="round" stroke-linejoin="round"/>
<path id="Vector_3" d="M2.73047 2.73213V13.9643C2.73047 14.6941 3.3221 15.2857 4.0519 15.2857H6.69475C7.42455 15.2857 8.01618 14.6941 8.01618 13.9643V2.73213C8.01618 2.00233 7.42455 1.41071 6.69475 1.41071H4.0519C3.3221 1.41071 2.73047 2.00233 2.73047 2.73213Z" stroke="black" stroke-width="1.5" stroke-linecap="round" stroke-linejoin="round"/>
</g>
</g>
<defs>
<clipPath id="clip0_47_141887">
<rect width="20" height="20" fill="white"/>
</clipPath>
</defs>
</svg>
