<svg width="20" height="20" viewBox="0 0 20 20" fill="none" xmlns="http://www.w3.org/2000/svg">
<g id="align-top-1-28" clip-path="url(#clip0_47_142036)">
<g id="align-top-1--align-design-top-vertical">
<path id="Vector" d="M18.5887 1.41072H1.41016" stroke="black" stroke-width="1.5" stroke-linecap="round" stroke-linejoin="round"/>
<path id="Vector_2" d="M17.2662 11.9822V6.03572C17.2662 5.30592 16.6746 4.71429 15.9448 4.71429H13.3019C12.5721 4.71429 11.9805 5.30592 11.9805 6.03572V11.9822C11.9805 12.7119 12.5721 13.3036 13.3019 13.3036H15.9448C16.6746 13.3036 17.2662 12.7119 17.2662 11.9822Z" stroke="black" stroke-width="1.5" stroke-linecap="round" stroke-linejoin="round"/>
<path id="Vector_3" d="M8.01618 17.2679V6.03572C8.01618 5.30592 7.42455 4.71429 6.69475 4.71429H4.0519C3.3221 4.71429 2.73047 5.30592 2.73047 6.03572V17.2679C2.73047 17.9977 3.3221 18.5893 4.0519 18.5893H6.69475C7.42455 18.5893 8.01618 17.9977 8.01618 17.2679Z" stroke="black" stroke-width="1.5" stroke-linecap="round" stroke-linejoin="round"/>
</g>
</g>
<defs>
<clipPath id="clip0_47_142036">
<rect width="20" height="20" fill="white"/>
</clipPath>
</defs>
</svg>
