<svg width="20" height="20" viewBox="0 0 20 20" fill="none" xmlns="http://www.w3.org/2000/svg">
<g id="align-right-1-32" clip-path="url(#clip0_47_142001)">
<g id="align-right-1--align-design-right-horizontal">
<path id="Vector" d="M18.5898 1.41071V18.5893" stroke="black" stroke-width="1.5" stroke-linecap="round" stroke-linejoin="round"/>
<path id="Vector_2" d="M8.01674 8.01786H13.9632C14.693 8.01786 15.2846 7.42623 15.2846 6.69643V4.05358C15.2846 3.32378 14.693 2.73215 13.9632 2.73215H8.01674C7.28694 2.73215 6.69531 3.32378 6.69531 4.05358V6.69643C6.69531 7.42623 7.28694 8.01786 8.01674 8.01786Z" stroke="black" stroke-width="1.5" stroke-linecap="round" stroke-linejoin="round"/>
<path id="Vector_3" d="M2.73158 17.2679H13.9637C14.6936 17.2679 15.2852 16.6763 15.2852 15.9464V13.3036C15.2852 12.5738 14.6936 11.9821 13.9637 11.9821H2.73158C2.00178 11.9821 1.41016 12.5738 1.41016 13.3036V15.9464C1.41016 16.6763 2.00178 17.2679 2.73158 17.2679Z" stroke="black" stroke-width="1.5" stroke-linecap="round" stroke-linejoin="round"/>
</g>
</g>
<defs>
<clipPath id="clip0_47_142001">
<rect width="20" height="20" fill="white"/>
</clipPath>
</defs>
</svg>
