<svg width="20" height="20" viewBox="0 0 20 20" fill="none" xmlns="http://www.w3.org/2000/svg">
<g id="align-left-1-30" clip-path="url(#clip0_47_141943)">
<g id="align-left-1--align-design-left-horizontal">
<path id="Vector" d="M1.41016 1.41071V18.5893" stroke="black" stroke-width="1.5" stroke-linecap="round" stroke-linejoin="round"/>
<path id="Vector_2" d="M11.9827 2.73215H6.03627C5.30647 2.73215 4.71484 3.32378 4.71484 4.05358V6.69643C4.71484 7.42623 5.30647 8.01786 6.03627 8.01786H11.9827C12.7125 8.01786 13.3041 7.42623 13.3041 6.69643V4.05358C13.3041 3.32378 12.7125 2.73215 11.9827 2.73215Z" stroke="black" stroke-width="1.5" stroke-linecap="round" stroke-linejoin="round"/>
<path id="Vector_3" d="M17.2684 11.9821H6.03627C5.30647 11.9821 4.71484 12.5738 4.71484 13.3036V15.9464C4.71484 16.6763 5.30647 17.2679 6.03627 17.2679H17.2684C17.9982 17.2679 18.5898 16.6763 18.5898 15.9464V13.3036C18.5898 12.5738 17.9982 11.9821 17.2684 11.9821Z" stroke="black" stroke-width="1.5" stroke-linecap="round" stroke-linejoin="round"/>
</g>
</g>
<defs>
<clipPath id="clip0_47_141943">
<rect width="20" height="20" fill="white"/>
</clipPath>
</defs>
</svg>
