<svg width="20" height="20" viewBox="0 0 20 20" fill="none" xmlns="http://www.w3.org/2000/svg">
<g id="align-front-2-12">
<g id="align-front-2--design-front-layer-layers-pile-stack-arrange-rectangle">
<path id="Rectangle 1684" d="M5.375 8.01787C5.375 7.28807 5.96663 6.69644 6.69643 6.69644H17.2679C17.9977 6.69644 18.5893 7.28807 18.5893 8.01787V15.9464C18.5893 16.6763 17.9977 17.2679 17.2679 17.2679H6.69643C5.96663 17.2679 5.375 16.6763 5.375 15.9464V8.01787Z" stroke="black" stroke-width="1.5" stroke-linecap="round" stroke-linejoin="round"/>
<path id="Rectangle 1685" d="M2.73158 13.3036C2.00178 13.3036 1.41016 12.7119 1.41016 11.9821" stroke="black" stroke-width="1.5" stroke-linecap="round" stroke-linejoin="round"/>
<path id="Rectangle 1687" d="M13.3047 2.73215C14.0345 2.73215 14.6261 3.32378 14.6261 4.05358" stroke="black" stroke-width="1.5" stroke-linecap="round" stroke-linejoin="round"/>
<path id="Rectangle 1686" d="M2.73158 2.73215C2.00178 2.73215 1.41016 3.32378 1.41016 4.05358" stroke="black" stroke-width="1.5" stroke-linecap="round" stroke-linejoin="round"/>
<path id="Vector 1948" d="M5.375 2.73215H6.69643" stroke="black" stroke-width="1.5" stroke-linecap="round" stroke-linejoin="round"/>
<path id="Vector 1950" d="M1.41016 7.35715V8.67858" stroke="black" stroke-width="1.5" stroke-linecap="round" stroke-linejoin="round"/>
<path id="Vector 1949" d="M9.33984 2.73215H10.6613" stroke="black" stroke-width="1.5" stroke-linecap="round" stroke-linejoin="round"/>
</g>
</g>
</svg>
