<svg width="21" height="21" viewBox="0 0 21 21" fill="none" xmlns="http://www.w3.org/2000/svg">
<path d="M12.5438 10.1889C12.5438 11.6457 11.0676 12.8267 9.24652 12.8267C7.42547 12.8267 5.94922 11.6457 5.94922 10.1889C5.94922 8.73203 7.42547 7.55103 9.24652 7.55103H12.5438" stroke="black" stroke-width="1.5" stroke-linecap="round" stroke-linejoin="round"/>
<path d="M5.94922 4.91129C5.94922 3.45444 7.42547 2.27344 9.24652 2.27344C11.0676 2.27344 12.5438 3.45444 12.5438 4.91129V10.5091C12.6583 11.0697 13.1276 12.2487 14.0887 12.4794" stroke="black" stroke-width="1.5" stroke-linecap="round" stroke-linejoin="round"/>
<path d="M1.91797 14.7635C3.49923 16.1976 6.88973 17.5435 11.1112 17.3373C15.3327 17.1313 18.3248 15.474 19.2931 14.6711" stroke="black" stroke-width="1.5" stroke-linecap="round" stroke-linejoin="round"/>
<path d="M15.4375 13.9757C17.0777 13.3855 19.3081 14.4355 19.3081 14.4355C19.3081 14.4355 19.1967 16.898 17.9097 18.0738" stroke="black" stroke-width="1.5" stroke-linecap="round" stroke-linejoin="round"/>
</svg>
