<svg width="20" height="20" viewBox="0 0 20 20" fill="none" xmlns="http://www.w3.org/2000/svg">
<g id="angled-moon-35">
<g id="angled-moon--astronomy-moon-science-space-crescent">
<path id="Vector" d="M16.6084 14.598C15.0733 14.5886 13.5684 14.1712 12.2479 13.3884C10.9274 12.6057 9.83876 11.4858 9.09371 10.1437C8.34868 8.8015 7.97399 7.28535 8.00807 5.75064C8.04215 4.21595 8.48378 2.71791 9.28767 1.41016C7.16966 1.78198 5.26591 2.92893 3.94725 4.62757C2.6286 6.32621 1.98948 8.4549 2.15442 10.599C2.31934 12.743 3.27649 14.7489 4.83943 16.2259C6.40236 17.703 8.45914 18.5453 10.6091 18.5887C12.08 18.5924 13.5269 18.2161 14.8095 17.496C16.0923 16.776 17.1671 15.7368 17.9298 14.4791C17.4928 14.5512 17.0512 14.591 16.6084 14.598Z" stroke="black" stroke-width="1.5" stroke-linecap="round" stroke-linejoin="round"/>
</g>
</g>
</svg>
