<svg width="21" height="21" viewBox="0 0 21 21" fill="none" xmlns="http://www.w3.org/2000/svg">
<path d="M14.9334 11.1833C14.9347 10.448 15.17 9.73226 15.6051 9.1396C16.0402 8.54692 16.6526 8.1081 17.3537 7.88664C17.0821 7.3863 16.7081 6.94888 16.2558 6.60295C15.8037 6.25702 15.2836 6.01036 14.7297 5.8791C14.1757 5.74782 13.6003 5.73488 13.041 5.84113C12.4817 5.94736 11.951 6.1704 11.4838 6.49566C11.2723 6.61774 11.0325 6.68201 10.7883 6.68201C10.5441 6.68201 10.3043 6.61774 10.0928 6.49566C9.58705 6.17489 9.01985 5.96334 8.42755 5.87459C7.83526 5.78585 7.23096 5.82187 6.6534 5.98033C6.07583 6.1388 5.53777 6.41623 5.0737 6.7948C4.60963 7.1734 4.2298 7.64478 3.95858 8.17875C3.18371 9.6058 2.91874 11.2545 3.20744 12.8525C3.44186 15.0471 4.38984 17.1044 5.90595 18.7085C6.40573 19.1826 7.05765 19.4639 7.74548 19.502C8.43331 19.5403 9.11237 19.3329 9.66161 18.9172C9.97766 18.6833 10.3604 18.5571 10.7535 18.5571C11.1466 18.5571 11.5294 18.6833 11.8454 18.9172C12.3725 19.343 13.0334 19.5682 13.7107 19.5529C14.3881 19.5375 15.0382 19.2828 15.5455 18.8337C16.6907 17.6777 17.5069 16.2372 17.9101 14.6607C17.0747 14.5452 16.3104 14.1276 15.7619 13.4869C15.2134 12.8461 14.9187 12.0266 14.9334 11.1833Z" stroke="black" stroke-width="1.5" stroke-linecap="round" stroke-linejoin="round"/>
<path d="M12.1523 3.53288L14.2388 1.44641" stroke="black" stroke-width="1.5" stroke-linecap="round" stroke-linejoin="round"/>
</svg>
