<svg width="21" height="21" viewBox="0 0 21 21" fill="none" xmlns="http://www.w3.org/2000/svg">
<g clip-path="url(#clip0_146_399873)">
<path d="M7.71317 1.44653H2.83817C2.06892 1.44653 1.44531 2.07014 1.44531 2.83939V7.71439C1.44531 8.48364 2.06892 9.10725 2.83817 9.10725H7.71317C8.48242 9.10725 9.10603 8.48364 9.10603 7.71439V2.83939C9.10603 2.07014 8.48242 1.44653 7.71317 1.44653Z" stroke="black" stroke-width="1.5" stroke-linecap="round" stroke-linejoin="round"/>
<path d="M18.1585 1.44653H13.2835C12.5142 1.44653 11.8906 2.07014 11.8906 2.83939V7.71439C11.8906 8.48364 12.5142 9.10725 13.2835 9.10725H18.1585C18.9278 9.10725 19.5513 8.48364 19.5513 7.71439V2.83939C19.5513 2.07014 18.9278 1.44653 18.1585 1.44653Z" stroke="black" stroke-width="1.5" stroke-linecap="round" stroke-linejoin="round"/>
<path d="M7.71317 11.8931H2.83817C2.06892 11.8931 1.44531 12.5167 1.44531 13.2859V18.1609C1.44531 18.9302 2.06892 19.5538 2.83817 19.5538H7.71317C8.48242 19.5538 9.10603 18.9302 9.10603 18.1609V13.2859C9.10603 12.5167 8.48242 11.8931 7.71317 11.8931Z" stroke="black" stroke-width="1.5" stroke-linecap="round" stroke-linejoin="round"/>
<path d="M12.5898 18.8572L18.8577 12.5894" stroke="black" stroke-width="1.5" stroke-linecap="round" stroke-linejoin="round"/>
<path d="M12.5898 12.5894L18.8577 18.8572" stroke="black" stroke-width="1.5" stroke-linecap="round" stroke-linejoin="round"/>
</g>
<defs>
<clipPath id="clip0_146_399873">
<rect width="21" height="21" fill="white"/>
</clipPath>
</defs>
</svg>
