<svg width="20" height="20" viewBox="0 0 20 20" fill="none" xmlns="http://www.w3.org/2000/svg">
<g id="archive-document">
<g id="archive-document--outbox-content-folder-archive-file-inbox">
<path id="Vector" d="M18.5887 11.9821C18.5887 11.6316 18.4494 11.2955 18.2017 11.0477C17.9539 10.7999 17.6177 10.6606 17.2673 10.6606H13.303V11.9821H6.69587V10.6606H2.73158C2.38112 10.6606 2.04501 10.7999 1.79719 11.0477C1.54938 11.2955 1.41016 11.6316 1.41016 11.9821V15.9464C1.41016 16.2968 1.54938 16.633 1.79719 16.8807C2.04501 17.1285 2.38112 17.2678 2.73158 17.2678H17.2673C17.6177 17.2678 17.9539 17.1285 18.2017 16.8807C18.4494 16.633 18.5887 16.2968 18.5887 15.9464V11.9821Z" stroke="black" stroke-width="1.5" stroke-linecap="round" stroke-linejoin="round"/>
<path id="Vector_2" d="M2.73047 6.69653H17.2662" stroke="black" stroke-width="1.5" stroke-linecap="round" stroke-linejoin="round"/>
<path id="Vector_3" d="M2.73047 2.73218H17.2662" stroke="black" stroke-width="1.5" stroke-linecap="round" stroke-linejoin="round"/>
</g>
</g>
</svg>
