<svg width="20" height="20" viewBox="0 0 20 20" fill="none" xmlns="http://www.w3.org/2000/svg">
<g id="archive-box-14">
<g id="archive-box--box-content-banker-archive-file">
<path id="Vector" d="M2.73047 7.35718H17.2662V16.6072C17.2662 16.9576 17.1269 17.2938 16.8791 17.5416C16.6314 17.7893 16.2952 17.9286 15.9448 17.9286H4.0519C3.70143 17.9286 3.36532 17.7893 3.1175 17.5416C2.86969 17.2938 2.73047 16.9576 2.73047 16.6072V7.35718Z" stroke="black" stroke-width="1.5" stroke-linecap="round" stroke-linejoin="round"/>
<path id="Vector_2" d="M18.5887 6.03582V3.39296C18.5887 2.66316 17.9971 2.07153 17.2673 2.07153H2.73158C2.00178 2.07153 1.41016 2.66316 1.41016 3.39296V6.03582C1.41016 6.76562 2.00178 7.35725 2.73158 7.35725H17.2673C17.9971 7.35725 18.5887 6.76562 18.5887 6.03582Z" stroke="black" stroke-width="1.5" stroke-linecap="round" stroke-linejoin="round"/>
<path id="Vector_3" d="M8.01562 11.3215H11.9799" stroke="black" stroke-width="1.5" stroke-linecap="round" stroke-linejoin="round"/>
</g>
</g>
</svg>
