<svg width="20" height="20" viewBox="0 0 20 20" fill="none" xmlns="http://www.w3.org/2000/svg">
<g id="arrow-curvy-left-48" clip-path="url(#clip0_47_142289)">
<g id="arrow-curvy-left--snake-arrow-sideways-diagram-left">
<path id="Vector" d="M18.5887 1.74106H2.73158C2.38112 1.74106 2.04501 1.88028 1.79719 2.12809C1.54938 2.37591 1.41016 2.71202 1.41016 3.06249V7.02677C1.41016 7.37724 1.54938 7.71335 1.79719 7.96117C2.04501 8.20898 2.38112 8.3482 2.73158 8.3482H17.2673C17.6177 8.3482 17.9539 8.48743 18.2017 8.73523C18.4494 8.98306 18.5887 9.31916 18.5887 9.66963V13.6339C18.5887 13.9844 18.4494 14.3205 18.2017 14.5683C17.9539 14.8161 17.6177 14.9553 17.2673 14.9553H1.41016" stroke="black" stroke-width="1.5" stroke-linecap="round" stroke-linejoin="round"/>
<path id="Vector_2" d="M4.71373 11.6518L1.41016 14.9553L4.71373 18.2589" stroke="black" stroke-width="1.5" stroke-linecap="round" stroke-linejoin="round"/>
</g>
</g>
<defs>
<clipPath id="clip0_47_142289">
<rect width="20" height="20" fill="white"/>
</clipPath>
</defs>
</svg>
