<svg width="20" height="20" viewBox="0 0 20 20" fill="none" xmlns="http://www.w3.org/2000/svg">
<g id="arrow-infinite-loop-82">
<g id="arrow-infinite-loop--arrow-diagram-loop-infinity-repeat">
<path id="Vector" d="M7.35659 14.5325C6.80355 15.0064 6.10264 15.2728 5.37444 15.2857C4.84113 15.3369 4.30309 15.2695 3.79889 15.0883C3.29467 14.9071 2.83674 14.6168 2.4579 14.238C2.07906 13.8591 1.78868 13.4012 1.60754 12.897C1.42641 12.3928 1.41016 11.3214 1.41016 11.3214C1.41016 11.3214 1.42641 10.2501 1.60754 9.74588C1.78868 9.24167 2.07906 8.78374 2.4579 8.4049C2.83674 8.02606 3.29467 7.73567 3.79889 7.55453C4.30309 7.37341 4.84113 7.306 5.37444 7.35715C9.00837 7.35715 10.9905 15.2857 14.6244 15.2857C15.1578 15.3369 15.6957 15.2695 16.2 15.0883C16.7042 14.9071 17.1621 14.6168 17.541 14.238C17.9198 13.8591 18.2101 13.4012 18.3913 12.897C18.5725 12.3928 18.5887 11.3214 18.5887 11.3214C18.5887 11.3214 18.5725 10.2501 18.3913 9.74588C18.2101 9.24167 17.9198 8.78374 17.541 8.4049C17.1621 8.02606 16.7042 7.73567 16.2 7.55453C15.6957 7.37341 15.1578 7.306 14.6244 7.35715H11.9816L14.6244 4.71429" stroke="black" stroke-width="1.5" stroke-linecap="round" stroke-linejoin="round"/>
</g>
</g>
</svg>
