<svg width="20" height="20" viewBox="0 0 20 20" fill="none" xmlns="http://www.w3.org/2000/svg">
<g id="arrow-curvy-right-33" clip-path="url(#clip0_47_142293)">
<g id="arrow-curvy-right--snake-arrow-sideways-diagram-right">
<path id="Vector" d="M1.41016 1.74106H17.2673C17.6177 1.74106 17.9539 1.88028 18.2017 2.12809C18.4494 2.37591 18.5887 2.71202 18.5887 3.06249V7.02677C18.5887 7.37724 18.4494 7.71335 18.2017 7.96117C17.9539 8.20898 17.6177 8.3482 17.2673 8.3482H2.73158C2.38112 8.3482 2.04501 8.48743 1.79719 8.73523C1.54938 8.98306 1.41016 9.31916 1.41016 9.66963V13.6339C1.41016 13.9844 1.54938 14.3205 1.79719 14.5683C2.04501 14.8161 2.38112 14.9553 2.73158 14.9553H18.5887" stroke="black" stroke-width="1.5" stroke-linecap="round" stroke-linejoin="round"/>
<path id="Vector_2" d="M15.2852 11.6518L18.5887 14.9553L15.2852 18.2589" stroke="black" stroke-width="1.5" stroke-linecap="round" stroke-linejoin="round"/>
</g>
</g>
<defs>
<clipPath id="clip0_47_142293">
<rect width="20" height="20" fill="white"/>
</clipPath>
</defs>
</svg>
