<svg width="20" height="20" viewBox="0 0 20 20" fill="none" xmlns="http://www.w3.org/2000/svg">
<g id="arrow-curvy-both-direction-1-3" clip-path="url(#clip0_47_142283)">
<g id="arrow-curvy-both-direction-1--both-direction-arrow-curvy-diagram-zigzag-horizontal">
<path id="Vector" d="M15.2852 1.41071L18.5887 4.71428H2.73158C2.38112 4.71428 2.04501 4.8535 1.79719 5.10131C1.54938 5.34913 1.41016 5.68524 1.41016 6.03571V8.67856C1.41016 9.02903 1.54938 9.36514 1.79719 9.61296C2.04501 9.86077 2.38112 9.99999 2.73158 9.99999H17.2673C17.6177 9.99999 17.9539 10.1392 18.2017 10.387C18.4494 10.6348 18.5887 10.971 18.5887 11.3214V13.9643C18.5887 14.3147 18.4494 14.6509 18.2017 14.8987C17.9539 15.1464 17.6177 15.2857 17.2673 15.2857H1.41016L4.71373 18.5893" stroke="black" stroke-width="1.5" stroke-linecap="round" stroke-linejoin="round"/>
</g>
</g>
<defs>
<clipPath id="clip0_47_142283">
<rect width="20" height="20" fill="white"/>
</clipPath>
</defs>
</svg>
