<svg width="20" height="20" viewBox="0 0 20 20" fill="none" xmlns="http://www.w3.org/2000/svg">
<g id="arrow-curvy-both-direction-2-66" clip-path="url(#clip0_47_142286)">
<g id="arrow-curvy-both-direction-2--both-direction-arrow-curvy-diagram-zigzag-horizontal">
<path id="Vector" d="M4.71373 1.41071L1.41016 4.71428H17.2673C17.6177 4.71428 17.9539 4.8535 18.2017 5.10131C18.4494 5.34913 18.5887 5.68524 18.5887 6.03571V8.67856C18.5887 9.02903 18.4494 9.36514 18.2017 9.61296C17.9539 9.86077 17.6177 9.99999 17.2673 9.99999H2.73158C2.38112 9.99999 2.04501 10.1392 1.79719 10.387C1.54938 10.6348 1.41016 10.971 1.41016 11.3214V13.9643C1.41016 14.3147 1.54938 14.6509 1.79719 14.8987C2.04501 15.1464 2.38112 15.2857 2.73158 15.2857H18.5887L15.2852 18.5893" stroke="black" stroke-width="1.5" stroke-linecap="round" stroke-linejoin="round"/>
</g>
</g>
<defs>
<clipPath id="clip0_47_142286">
<rect width="20" height="20" fill="white"/>
</clipPath>
</defs>
</svg>
