<svg width="20" height="20" viewBox="0 0 20 20" fill="none" xmlns="http://www.w3.org/2000/svg">
<g id="arrow-roadmap-34" clip-path="url(#clip0_47_142630)">
<g id="arrow-roadmap">
<path id="Vector 362" d="M10 16.1355H18.5893" stroke="black" stroke-width="1.5" stroke-linecap="round" stroke-linejoin="round"/>
<path id="Vector 365" d="M16.1328 13.681L18.5868 16.1351L16.1328 18.5892" stroke="black" stroke-width="1.5" stroke-linecap="round" stroke-linejoin="round"/>
<path id="Ellipse 324" d="M5.08984 3.25146C5.08984 3.49319 5.13746 3.73255 5.22996 3.95588C5.32247 4.17921 5.45806 4.38213 5.62899 4.55306C5.79992 4.72399 6.00284 4.85958 6.22617 4.95209C6.4495 5.04459 6.68886 5.09221 6.93059 5.09221C7.17232 5.09221 7.41169 5.04459 7.63502 4.95209C7.85835 4.85958 8.06127 4.72399 8.2322 4.55306C8.40313 4.38213 8.53872 4.17921 8.63123 3.95588C8.72373 3.73255 8.77134 3.49319 8.77134 3.25146C8.77134 2.76326 8.57741 2.29506 8.2322 1.94985C7.88699 1.60464 7.41879 1.41071 6.93059 1.41071C6.4424 1.41071 5.97419 1.60464 5.62899 1.94985C5.28378 2.29506 5.08984 2.76326 5.08984 3.25146Z" stroke="black" stroke-width="1.5" stroke-linecap="round" stroke-linejoin="round"/>
<path id="Ellipse 325" d="M10 9.38683C10 9.87503 10.1939 10.3432 10.5391 10.6884C10.8844 11.0336 11.3526 11.2276 11.8407 11.2276C12.3289 11.2276 12.7971 11.0336 13.1424 10.6884C13.4876 10.3432 13.6815 9.87503 13.6815 9.38683C13.6815 8.89863 13.4876 8.43043 13.1424 8.08522C12.7971 7.74002 12.3289 7.54608 11.8407 7.54608C11.3526 7.54608 10.8844 7.74002 10.5391 8.08522C10.1939 8.43043 10 8.89863 10 9.38683Z" stroke="black" stroke-width="1.5" stroke-linecap="round" stroke-linejoin="round"/>
<path id="Ellipse 326" d="M6.31641 16.1354C6.31641 16.3771 6.36402 16.6165 6.45652 16.8398C6.54903 17.0631 6.68462 17.266 6.85555 17.437C7.02648 17.6079 7.2294 17.7435 7.45273 17.836C7.67606 17.9285 7.91543 17.9761 8.15716 17.9761C8.39889 17.9761 8.63825 17.9285 8.86158 17.836C9.08491 17.7435 9.28783 17.6079 9.45876 17.437C9.62969 17.266 9.76528 17.0631 9.85779 16.8398C9.95029 16.6165 9.99791 16.3771 9.99791 16.1354C9.99791 15.8936 9.95029 15.6543 9.85779 15.4309C9.76528 15.2076 9.62969 15.0047 9.45876 14.8338C9.28783 14.6628 9.08491 14.5272 8.86158 14.4347C8.63825 14.3422 8.39889 14.2946 8.15716 14.2946C7.91543 14.2946 7.67606 14.3422 7.45273 14.4347C7.2294 14.5272 7.02648 14.6628 6.85555 14.8338C6.68462 15.0047 6.54903 15.2076 6.45652 15.4309C6.36402 15.6543 6.31641 15.8936 6.31641 16.1354Z" stroke="black" stroke-width="1.5" stroke-linecap="round" stroke-linejoin="round"/>
<path id="Vector 361" d="M9.99948 9.38702H4.78453C2.92092 9.38702 1.41016 10.8978 1.41016 12.7614C1.41016 14.625 2.92092 16.1358 4.78453 16.1358H6.31834" stroke="black" stroke-width="1.5" stroke-linecap="round" stroke-linejoin="round"/>
<path id="Vector 363" d="M13.6816 9.38675H15.5222C17.2164 9.38675 18.5898 8.01333 18.5898 6.31913C18.5898 4.62494 17.2164 3.25153 15.5222 3.25153H8.77344" stroke="black" stroke-width="1.5" stroke-linecap="round" stroke-linejoin="round"/>
<path id="Vector 364" d="M5.0913 3.25153H1.41016" stroke="black" stroke-width="1.5" stroke-linecap="round" stroke-linejoin="round"/>
</g>
</g>
<defs>
<clipPath id="clip0_47_142630">
<rect width="20" height="20" fill="white"/>
</clipPath>
</defs>
</svg>
