<svg width="20" height="20" viewBox="0 0 20 20" fill="none" xmlns="http://www.w3.org/2000/svg">
<g id="arrow-curvy-up-down-1-58" clip-path="url(#clip0_47_142297)">
<g id="arrow-curvy-up-down-1--both-direction-arrow-curvy-diagram-zigzag-vertical">
<path id="Vector" d="M1.41016 15.2857L4.71373 18.5893V4.05356C4.71373 3.35264 4.99217 2.68041 5.48781 2.18479C5.98344 1.68915 6.65566 1.41071 7.35659 1.41071C8.05751 1.41071 8.72973 1.68915 9.22536 2.18479C9.721 2.68041 9.99944 3.35264 9.99944 4.05356V15.9464C9.99944 16.6473 10.2779 17.3195 10.7735 17.8152C11.2691 18.3109 11.9414 18.5893 12.6423 18.5893C13.3432 18.5893 14.0154 18.3109 14.5111 17.8152C15.0067 17.3195 15.2852 16.6473 15.2852 15.9464V1.41071L18.5887 4.71428" stroke="black" stroke-width="1.5" stroke-linecap="round" stroke-linejoin="round"/>
</g>
</g>
<defs>
<clipPath id="clip0_47_142297">
<rect width="20" height="20" fill="white"/>
</clipPath>
</defs>
</svg>
