<svg width="20" height="20" viewBox="0 0 20 20" fill="none" xmlns="http://www.w3.org/2000/svg">
<g id="auto-correction-check-84">
<g id="auto-correction-check">
<g id="group 13">
<path id="vector 1" d="M8.54688 5.20703V7.94667H10.6639C11.4204 7.94667 12.0337 7.33338 12.0337 6.57685C12.0337 5.82032 11.4204 5.20703 10.6639 5.20703H8.54688Z" stroke="black" stroke-width="1.5" stroke-linecap="round" stroke-linejoin="round"/>
<path id="vector 2" d="M8.54688 7.94629V11.1841H10.9129C11.807 11.1841 12.5318 10.4592 12.5318 9.56517C12.5318 8.67109 11.807 7.94629 10.9129 7.94629H8.54688Z" stroke="black" stroke-width="1.5" stroke-linecap="round" stroke-linejoin="round"/>
</g>
<path id="vector 2_2" d="M18.3882 6.20327C18.1831 5.62286 17.6296 5.20703 16.9789 5.20703H15.9827C15.1573 5.20703 14.4883 5.87607 14.4883 6.70138V9.69008C14.4883 10.5154 15.1573 11.1844 15.9827 11.1844H16.9789C17.6296 11.1844 18.1831 10.7686 18.3882 10.1882" stroke="black" stroke-width="1.5" stroke-linecap="round" stroke-linejoin="round"/>
<path id="vector 1_2" d="M1.60547 11.1844L3.44042 5.67959C3.53448 5.39738 3.79858 5.20703 4.09605 5.20703C4.39353 5.20703 4.65761 5.39738 4.75169 5.67959L6.58664 11.1844M2.26962 9.19196H5.92247" stroke="black" stroke-width="1.5" stroke-linecap="round" stroke-linejoin="round"/>
<g id="group 2218">
<path id="vector" d="M1.93583 14.7935C1.75337 14.7935 1.60547 14.6457 1.60547 14.4632C1.60547 14.2808 1.75337 14.1328 1.93583 14.1328" stroke="black" stroke-width="1.5" stroke-linecap="round" stroke-linejoin="round"/>
<path id="vector_2" d="M1.9375 14.7935C2.11995 14.7935 2.26786 14.6457 2.26786 14.4632C2.26786 14.2808 2.11995 14.1328 1.9375 14.1328" stroke="black" stroke-width="1.5" stroke-linecap="round" stroke-linejoin="round"/>
</g>
<g id="group 2220">
<path id="vector_3" d="M9.99833 14.7935C9.81588 14.7935 9.66797 14.6457 9.66797 14.4632C9.66797 14.2808 9.81588 14.1328 9.99833 14.1328" stroke="black" stroke-width="1.5" stroke-linecap="round" stroke-linejoin="round"/>
<path id="vector_4" d="M10 14.7935C10.1824 14.7935 10.3304 14.6457 10.3304 14.4632C10.3304 14.2808 10.1824 14.1328 10 14.1328" stroke="black" stroke-width="1.5" stroke-linecap="round" stroke-linejoin="round"/>
</g>
<g id="group 2219">
<path id="vector_5" d="M5.96708 14.7935C5.78463 14.7935 5.63672 14.6457 5.63672 14.4632C5.63672 14.2808 5.78463 14.1328 5.96708 14.1328" stroke="black" stroke-width="1.5" stroke-linecap="round" stroke-linejoin="round"/>
<path id="vector_6" d="M5.96875 14.7935C6.1512 14.7935 6.29911 14.6457 6.29911 14.4632C6.29911 14.2808 6.1512 14.1328 5.96875 14.1328" stroke="black" stroke-width="1.5" stroke-linecap="round" stroke-linejoin="round"/>
</g>
<g id="group 2221">
<path id="vector_7" d="M14.0296 14.7935C13.8471 14.7935 13.6992 14.6457 13.6992 14.4632C13.6992 14.2808 13.8471 14.1328 14.0296 14.1328" stroke="black" stroke-width="1.5" stroke-linecap="round" stroke-linejoin="round"/>
<path id="vector_8" d="M14.0312 14.7935C14.2137 14.7935 14.3616 14.6457 14.3616 14.4632C14.3616 14.2808 14.2137 14.1328 14.0312 14.1328" stroke="black" stroke-width="1.5" stroke-linecap="round" stroke-linejoin="round"/>
</g>
<g id="group 2222">
<path id="vector_9" d="M18.0608 14.7935C17.8783 14.7935 17.7305 14.6457 17.7305 14.4632C17.7305 14.2808 17.8783 14.1328 18.0608 14.1328" stroke="black" stroke-width="1.5" stroke-linecap="round" stroke-linejoin="round"/>
<path id="vector_10" d="M18.0625 14.7935C18.2449 14.7935 18.3929 14.6457 18.3929 14.4632C18.3929 14.2808 18.2449 14.1328 18.0625 14.1328" stroke="black" stroke-width="1.5" stroke-linecap="round" stroke-linejoin="round"/>
</g>
</g>
</g>
</svg>
