<svg width="21" height="21" viewBox="0 0 21 21" fill="none" xmlns="http://www.w3.org/2000/svg">
<path d="M7.43415 5.277C7.24184 5.277 7.08594 5.12109 7.08594 4.92878C7.08594 4.73647 7.24184 4.58057 7.43415 4.58057" stroke="black" stroke-width="1.5" stroke-linecap="round" stroke-linejoin="round"/>
<path d="M7.43359 5.277C7.62591 5.277 7.78181 5.12109 7.78181 4.92878C7.78181 4.73647 7.62591 4.58057 7.43359 4.58057" stroke="black" stroke-width="1.5" stroke-linecap="round" stroke-linejoin="round"/>
<path d="M7.43415 8.61977C7.24184 8.61977 7.08594 8.46388 7.08594 8.27155C7.08594 8.07924 7.24184 7.92334 7.43415 7.92334" stroke="black" stroke-width="1.5" stroke-linecap="round" stroke-linejoin="round"/>
<path d="M7.43359 8.61977C7.62591 8.61977 7.78181 8.46388 7.78181 8.27155C7.78181 8.07924 7.62591 7.92334 7.43359 7.92334" stroke="black" stroke-width="1.5" stroke-linecap="round" stroke-linejoin="round"/>
<path d="M7.43415 11.9625C7.24184 11.9625 7.08594 11.8066 7.08594 11.6143C7.08594 11.422 7.24184 11.2661 7.43415 11.2661" stroke="black" stroke-width="1.5" stroke-linecap="round" stroke-linejoin="round"/>
<path d="M7.43359 11.9625C7.62591 11.9625 7.78181 11.8066 7.78181 11.6143C7.78181 11.422 7.62591 11.2661 7.43359 11.2661" stroke="black" stroke-width="1.5" stroke-linecap="round" stroke-linejoin="round"/>
<path d="M15.3148 1.44653H5.56473C4.79547 1.44653 4.17188 2.07014 4.17188 2.83939V18.1608C4.17188 18.9301 4.79547 19.5537 5.56473 19.5537H15.3148C16.084 19.5537 16.7076 18.9301 16.7076 18.1608V2.83939C16.7076 2.07014 16.084 1.44653 15.3148 1.44653Z" stroke="black" stroke-width="1.5" stroke-linecap="round" stroke-linejoin="round"/>
</svg>
