<svg width="21" height="21" viewBox="0 0 21 21" fill="none" xmlns="http://www.w3.org/2000/svg">
<path d="M10.4967 5.62514C10.3043 5.62514 10.1484 5.46924 10.1484 5.27693C10.1484 5.08461 10.3043 4.92871 10.4967 4.92871" stroke="black" stroke-width="1.5" stroke-linecap="round" stroke-linejoin="round"/>
<path d="M10.4961 5.62514C10.6884 5.62514 10.8443 5.46924 10.8443 5.27693C10.8443 5.08461 10.6884 4.92871 10.4961 4.92871" stroke="black" stroke-width="1.5" stroke-linecap="round" stroke-linejoin="round"/>
<path d="M15.3733 1.44653H5.62333C4.85408 1.44653 4.23047 2.07014 4.23047 2.83939V18.1608C4.23047 18.9301 4.85408 19.5537 5.62333 19.5537H15.3733C16.1426 19.5537 16.7662 18.9301 16.7662 18.1608V2.83939C16.7662 2.07014 16.1426 1.44653 15.3733 1.44653Z" stroke="black" stroke-width="1.5" stroke-linecap="round" stroke-linejoin="round"/>
</svg>
