<svg width="21" height="21" viewBox="0 0 21 21" fill="none" xmlns="http://www.w3.org/2000/svg">
<path d="M11.6022 9.7341C12.389 9.6889 13.1292 9.34629 13.6729 8.77568C14.2165 8.20508 14.5229 7.44915 14.53 6.66106C14.5371 5.87298 14.2443 5.11166 13.711 4.53138C13.1777 3.95109 12.4438 3.59522 11.6579 3.53589H6.8665C6.56727 3.53589 6.2803 3.65475 6.06872 3.86633C5.85715 4.07792 5.73828 4.36488 5.73828 4.6641V15.9323C5.73828 16.2315 5.85715 16.5186 6.06872 16.7301C6.2803 16.9417 6.56727 17.0605 6.8665 17.0605H11.6022C12.5738 17.0605 13.5055 16.6746 14.1925 15.9876C14.8795 15.3007 15.2655 14.3689 15.2655 13.3973C15.2655 12.4258 14.8795 11.494 14.1925 10.807C13.5055 10.12 12.5738 9.7341 11.6022 9.7341Z" stroke="black" stroke-width="1.5" stroke-linecap="round" stroke-linejoin="round"/>
<path d="M9.98828 19.5537V1.44653" stroke="black" stroke-width="1.5" stroke-linecap="round" stroke-linejoin="round"/>
<path d="M11.6579 9.73438H5.73828" stroke="black" stroke-width="1.5" stroke-linecap="round" stroke-linejoin="round"/>
</svg>
