<svg width="21" height="21" viewBox="0 0 21 21" fill="none" xmlns="http://www.w3.org/2000/svg">
<g clip-path="url(#clip0_146_399019)">
<path d="M10.4989 19.5537C15.4991 19.5537 19.5525 15.5003 19.5525 10.5001C19.5525 5.49996 15.4991 1.44653 10.4989 1.44653C5.49874 1.44653 1.44531 5.49996 1.44531 10.5001C1.44531 15.5003 5.49874 19.5537 10.4989 19.5537Z" stroke="black" stroke-width="1.5" stroke-linecap="round" stroke-linejoin="round"/>
<path d="M11.7247 10.0264C11.9776 10.0301 12.2287 9.98345 12.4635 9.88921C12.6982 9.79497 12.9119 9.655 13.092 9.47744C13.2722 9.29988 13.4153 9.08826 13.5129 8.85491C13.6105 8.62157 13.6608 8.37113 13.6608 8.11818C13.6608 7.61209 13.4597 7.12673 13.1019 6.76887C12.744 6.41101 12.2586 6.20996 11.7525 6.20996H8.81362C8.62891 6.20996 8.45177 6.28334 8.32117 6.41395C8.19056 6.54455 8.11719 6.72168 8.11719 6.90639V13.8707C8.11719 14.0554 8.19056 14.2325 8.32117 14.3631C8.45177 14.4937 8.62891 14.5671 8.81362 14.5671H11.7247C12.3231 14.5671 12.8971 14.3294 13.3202 13.9062C13.7434 13.4831 13.9811 12.9091 13.9811 12.3107C13.9811 11.7122 13.7434 11.1383 13.3202 10.7151C12.8971 10.292 12.3231 10.0542 11.7247 10.0542V10.0264Z" stroke="black" stroke-width="1.5" stroke-linecap="round" stroke-linejoin="round"/>
<path d="M11.7525 10.0269H8.11719" stroke="black" stroke-width="1.5" stroke-linecap="round" stroke-linejoin="round"/>
<path d="M10.8477 16.0716V4.92871" stroke="black" stroke-width="1.5" stroke-linecap="round" stroke-linejoin="round"/>
</g>
<defs>
<clipPath id="clip0_146_399019">
<rect width="21" height="21" fill="white"/>
</clipPath>
</defs>
</svg>
