<svg width="21" height="21" viewBox="0 0 21 21" fill="none" xmlns="http://www.w3.org/2000/svg">
<g clip-path="url(#clip0_146_399721)">
<path d="M10.4989 19.5536C15.4991 19.5536 19.5525 15.5002 19.5525 10.5C19.5525 5.49983 15.4991 1.44641 10.4989 1.44641C5.49874 1.44641 1.44531 5.49983 1.44531 10.5C1.44531 15.5002 5.49874 19.5536 10.4989 19.5536Z" stroke="black" stroke-width="1.5" stroke-linecap="round" stroke-linejoin="round"/>
<path d="M10.5 1.44641V19.5536" stroke="black" stroke-width="1.5" stroke-linecap="round" stroke-linejoin="round"/>
<path d="M3.67578 16.4475C4.69638 15.8262 5.53995 14.9527 6.1254 13.9111C6.71083 12.8695 7.01844 11.6948 7.01864 10.5C7.01844 9.30514 6.71083 8.13045 6.1254 7.08886C5.53995 6.04726 4.69638 5.17382 3.67578 4.55249" stroke="black" stroke-width="1.5" stroke-linecap="round" stroke-linejoin="round"/>
<path d="M17.3253 4.55249C16.3051 5.17404 15.4618 6.0476 14.8768 7.08918C14.2917 8.13075 13.9844 9.30532 13.9844 10.5C13.9844 11.6947 14.2917 12.8692 14.8768 13.9108C15.4618 14.9524 16.3051 15.8259 17.3253 16.4475" stroke="black" stroke-width="1.5" stroke-linecap="round" stroke-linejoin="round"/>
</g>
<defs>
<clipPath id="clip0_146_399721">
<rect width="21" height="21" fill="white"/>
</clipPath>
</defs>
</svg>
