<svg width="50" height="50" viewBox="0 0 50 50" fill="none" xmlns="http://www.w3.org/2000/svg">
<g id="bank--institution-saving-bank-payment-finance">
<path id="Vector" d="M46.1069 19.1428H3.8926C1.8926 19.1428 1.03546 16.9642 2.60689 15.9285L23.714 2.10709C24.1037 1.87784 24.5476 1.75696 24.9997 1.75696C25.4518 1.75696 25.8958 1.87784 26.2855 2.10709L47.3926 15.9285C48.964 16.9642 48.1069 19.1428 46.1069 19.1428Z" stroke="#414E62" stroke-width="3" stroke-linecap="round" stroke-linejoin="round"/>
<path id="Vector_2" d="M46.4285 38.7856H3.57136C2.58514 38.7856 1.78564 39.5853 1.78564 40.5714V45.9285C1.78564 46.9146 2.58514 47.7142 3.57136 47.7142H46.4285C47.4146 47.7142 48.2142 46.9146 48.2142 45.9285V40.5714C48.2142 39.5853 47.4146 38.7856 46.4285 38.7856Z" stroke="#414E62" stroke-width="3" stroke-linecap="round" stroke-linejoin="round"/>
<path id="Vector_3" d="M7.14258 19.1428V38.7857" stroke="#414E62" stroke-width="3" stroke-linecap="round" stroke-linejoin="round"/>
<path id="Vector_4" d="M19.0474 19.1428V38.7857" stroke="#414E62" stroke-width="3" stroke-linecap="round" stroke-linejoin="round"/>
<path id="Vector_5" d="M30.9521 19.1428V38.7857" stroke="#414E62" stroke-width="3" stroke-linecap="round" stroke-linejoin="round"/>
<path id="Vector_6" d="M42.8569 19.1428V38.7857" stroke="#414E62" stroke-width="3" stroke-linecap="round" stroke-linejoin="round"/>
</g>
</svg>
