<svg width="21" height="21" viewBox="0 0 21 21" fill="none" xmlns="http://www.w3.org/2000/svg">
<path d="M4.23103 4.23218H2.83817C2.46876 4.23218 2.11448 4.37893 1.85327 4.64013C1.59206 4.90135 1.44531 5.25562 1.44531 5.62503V15.375C1.44531 15.7444 1.59206 16.0988 1.85327 16.3599C2.11448 16.6211 2.46876 16.7679 2.83817 16.7679H6.32031" stroke="black" stroke-width="1.5" stroke-linecap="round" stroke-linejoin="round"/>
<path d="M15.3744 4.23218H16.7673C17.1367 4.23218 17.491 4.37893 17.7522 4.64013C18.0133 4.90135 18.1602 5.25562 18.1602 5.62503V7.71432H18.8566C19.0413 7.71432 19.2184 7.7877 19.3491 7.9183C19.4796 8.0489 19.553 8.22604 19.553 8.41075V12.5893C19.553 12.774 19.4796 12.9512 19.3491 13.0818C19.2184 13.2124 19.0413 13.2857 18.8566 13.2857H18.1602V15.375C18.1602 15.7444 18.0133 16.0988 17.7522 16.3599C17.491 16.6211 17.1367 16.7679 16.7673 16.7679H13.2852" stroke="black" stroke-width="1.5" stroke-linecap="round" stroke-linejoin="round"/>
<path d="M5.625 6.32129H13.9821V9.107C13.9821 11.4148 12.1113 13.2856 9.80357 13.2856C7.49582 13.2856 5.625 11.4148 5.625 9.107V6.32129Z" stroke="black" stroke-width="1.5" stroke-linecap="round" stroke-linejoin="round"/>
<path d="M7.71484 6.32136V3.53564" stroke="black" stroke-width="1.5" stroke-linecap="round" stroke-linejoin="round"/>
<path d="M11.8906 6.32136V3.53564" stroke="black" stroke-width="1.5" stroke-linecap="round" stroke-linejoin="round"/>
<path d="M9.80078 13.2856V18.1606" stroke="black" stroke-width="1.5" stroke-linecap="round" stroke-linejoin="round"/>
</svg>
