<svg width="20" height="20" viewBox="0 0 20 20" fill="none" xmlns="http://www.w3.org/2000/svg">
<g id="bell-set-timer-48">
<g id="bell-set-timer--notification-alarm-alert-bell-set-time">
<path id="Vector" d="M7.35547 18.5893H9.99833" stroke="black" stroke-width="1.5" stroke-linecap="round" stroke-linejoin="round"/>
<path id="Vector_2" d="M6.11444 4.05359C5.28914 4.51129 4.60143 5.18161 4.12275 5.99493C3.64406 6.80823 3.39184 7.73486 3.3923 8.67859V13.3036C3.3923 13.8293 3.18346 14.3335 2.81174 14.7052C2.44002 15.0769 1.93585 15.2857 1.41016 15.2857H15.9459C15.4202 15.2857 14.9159 15.0769 14.5442 14.7052C14.1725 14.3335 13.9637 13.8293 13.9637 13.3036V12.6429" stroke="black" stroke-width="1.5" stroke-linecap="round" stroke-linejoin="round"/>
<path id="Vector_3" d="M13.9643 9.33928C16.1538 9.33928 17.9286 7.5644 17.9286 5.37499C17.9286 3.18558 16.1538 1.41071 13.9643 1.41071C11.7749 1.41071 10 3.18558 10 5.37499C10 7.5644 11.7749 9.33928 13.9643 9.33928Z" stroke="black" stroke-width="1.5" stroke-linecap="round" stroke-linejoin="round"/>
<path id="Vector_4" d="M13.9648 5.37498L14.9559 4.38391" stroke="black" stroke-width="1.5" stroke-linecap="round" stroke-linejoin="round"/>
</g>
</g>
</svg>
