<svg width="20" height="20" viewBox="0 0 20 20" fill="none" xmlns="http://www.w3.org/2000/svg">
<g id="binary-code">
<g id="binary-code_2">
<path id="Vector 3" d="M3.90234 2.96811V6.26C3.90234 7.11989 4.59942 7.81697 5.45932 7.81697H6.61592C7.47582 7.81697 8.1729 7.11989 8.1729 6.26V2.96811C8.1729 2.10821 7.47582 1.41113 6.61592 1.41113H5.45932C4.59942 1.41113 3.90234 2.10821 3.90234 2.96811Z" stroke="black" stroke-width="1.5" stroke-linecap="round" stroke-linejoin="round"/>
<path id="Vector 901" d="M11.7031 13.7406V17.0324C11.7031 17.8924 12.4002 18.5894 13.2601 18.5894H14.4167C15.2766 18.5894 15.9737 17.8924 15.9737 17.0324V13.7406C15.9737 12.8807 15.2766 12.1836 14.4167 12.1836H13.2601C12.4002 12.1836 11.7031 12.8807 11.7031 13.7406Z" stroke="black" stroke-width="1.5" stroke-linecap="round" stroke-linejoin="round"/>
<path id="Vector 2" d="M13.8984 1.48242V7.70565" stroke="black" stroke-width="1.5" stroke-linecap="round" stroke-linejoin="round"/>
<path id="Vector 3_2" d="M11.8242 3.03823H12.3428C13.2021 3.03823 13.8986 2.34167 13.8986 1.48242" stroke="black" stroke-width="1.5" stroke-linecap="round" stroke-linejoin="round"/>
<path id="Vector 1" d="M15.973 7.70605H11.8242" stroke="black" stroke-width="1.5" stroke-linecap="round" stroke-linejoin="round"/>
<path id="Vector 2_2" d="M5.97656 12.2559V18.4791" stroke="black" stroke-width="1.5" stroke-linecap="round" stroke-linejoin="round"/>
<path id="Vector 3_3" d="M3.90234 13.8117H4.42094C5.2802 13.8117 5.97675 13.1151 5.97675 12.2559" stroke="black" stroke-width="1.5" stroke-linecap="round" stroke-linejoin="round"/>
<path id="Vector 1_2" d="M8.05117 18.4795H3.90234" stroke="black" stroke-width="1.5" stroke-linecap="round" stroke-linejoin="round"/>
</g>
</g>
</svg>
