<svg width="21" height="21" viewBox="0 0 21 21" fill="none" xmlns="http://www.w3.org/2000/svg">
<g clip-path="url(#clip0_146_399082)">
<path d="M11.7247 10.0266C11.9776 10.0303 12.2287 9.98371 12.4635 9.88946C12.6982 9.79521 12.9119 9.65524 13.092 9.47768C13.2722 9.30012 13.4153 9.0885 13.5129 8.85516C13.6105 8.62181 13.6608 8.37138 13.6608 8.11842C13.6608 7.61234 13.4597 7.12697 13.1019 6.76912C12.744 6.41125 12.2586 6.21021 11.7525 6.21021H8.81362C8.62891 6.21021 8.45178 6.28358 8.32117 6.41419C8.19056 6.5448 8.11719 6.72194 8.11719 6.90663V13.8709C8.11719 14.0556 8.19056 14.2328 8.32117 14.3634C8.45178 14.494 8.62891 14.5673 8.81362 14.5673H11.7247C12.3231 14.5673 12.8971 14.3296 13.3202 13.9065C13.7434 13.4833 13.9811 12.9094 13.9811 12.3109C13.9811 11.7125 13.7434 11.1386 13.3202 10.7154C12.8971 10.2922 12.3231 10.0545 11.7247 10.0545V10.0266Z" stroke="black" stroke-width="1.5" stroke-linecap="round" stroke-linejoin="round"/>
<path d="M11.7525 10.0266H8.11719" stroke="black" stroke-width="1.5" stroke-linecap="round" stroke-linejoin="round"/>
<path d="M9.44141 6.21014V4.92871" stroke="black" stroke-width="1.5" stroke-linecap="round" stroke-linejoin="round"/>
<path d="M11.5859 6.21014V4.92871" stroke="black" stroke-width="1.5" stroke-linecap="round" stroke-linejoin="round"/>
<path d="M9.44141 16.0715V14.5393" stroke="black" stroke-width="1.5" stroke-linecap="round" stroke-linejoin="round"/>
<path d="M11.5859 16.0715V14.5393" stroke="black" stroke-width="1.5" stroke-linecap="round" stroke-linejoin="round"/>
<path d="M10.4989 19.5537C15.4991 19.5537 19.5525 15.5003 19.5525 10.5001C19.5525 5.49996 15.4991 1.44653 10.4989 1.44653C5.49874 1.44653 1.44531 5.49996 1.44531 10.5001C1.44531 15.5003 5.49874 19.5537 10.4989 19.5537Z" stroke="black" stroke-width="1.5" stroke-linecap="round" stroke-linejoin="round"/>
</g>
<defs>
<clipPath id="clip0_146_399082">
<rect width="21" height="21" fill="white"/>
</clipPath>
</defs>
</svg>
