<svg width="20" height="20" viewBox="0 0 20 20" fill="none" xmlns="http://www.w3.org/2000/svg">
<g id="book-2-39" clip-path="url(#clip0_47_143714)">
<g id="book-2--library-content-books-book-shelf-stack">
<path id="Vector" d="M5.44085 1.41064H2.13728C1.77237 1.41064 1.47656 1.70646 1.47656 2.07136V17.9285C1.47656 18.2933 1.77237 18.5892 2.13728 18.5892H5.44085C5.80575 18.5892 6.10156 18.2933 6.10156 17.9285V2.07136C6.10156 1.70646 5.80575 1.41064 5.44085 1.41064Z" stroke="black" stroke-width="1.5" stroke-linecap="round" stroke-linejoin="round"/>
<path id="Vector_2" d="M10.0658 4.05347H6.76228C6.39738 4.05347 6.10156 4.34928 6.10156 4.71418V17.9285C6.10156 18.2933 6.39738 18.5892 6.76228 18.5892H10.0658C10.4307 18.5892 10.7266 18.2933 10.7266 17.9285V4.71418C10.7266 4.34928 10.4307 4.05347 10.0658 4.05347Z" stroke="black" stroke-width="1.5" stroke-linecap="round" stroke-linejoin="round"/>
<path id="Vector_3" d="M14.4901 3.6918L11.9263 4.3334C11.5723 4.42199 11.3571 4.78076 11.4457 5.13474L14.6537 17.9537C14.7423 18.3077 15.1011 18.5228 15.4551 18.4343L18.0188 17.7927C18.3728 17.7041 18.5879 17.3453 18.4994 16.9913L15.2914 4.17235C15.2028 3.81836 14.8441 3.60321 14.4901 3.6918Z" stroke="black" stroke-width="1.5" stroke-linecap="round" stroke-linejoin="round"/>
<path id="Vector_4" d="M1.47656 13.9641H6.10156" stroke="black" stroke-width="1.5" stroke-linecap="round" stroke-linejoin="round"/>
<path id="Vector_5" d="M14.0312 15.2857L17.837 14.3342" stroke="black" stroke-width="1.5" stroke-linecap="round" stroke-linejoin="round"/>
</g>
</g>
<defs>
<clipPath id="clip0_47_143714">
<rect width="20" height="20" fill="white"/>
</clipPath>
</defs>
</svg>
