<svg width="20" height="20" viewBox="0 0 20 20" fill="none" xmlns="http://www.w3.org/2000/svg">
<g id="book-1-42">
<g id="book-1--content-books-book-close">
<path id="Vector" d="M17.2662 18.5892H4.71261C4.18692 18.5892 3.68274 18.3804 3.31103 18.0087C2.93931 17.637 2.73047 17.1327 2.73047 16.6071C2.73047 16.0814 2.93931 15.5772 3.31103 15.2054C3.68274 14.8337 4.18692 14.6249 4.71261 14.6249H15.9448C16.2952 14.6249 16.6314 14.4857 16.8791 14.2379C17.1269 13.9901 17.2662 13.654 17.2662 13.3035V2.73207C17.2662 2.3816 17.1269 2.0455 16.8791 1.79768C16.6314 1.54987 16.2952 1.41064 15.9448 1.41064H4.71261C4.19595 1.41046 3.69963 1.61202 3.32939 1.97239C2.95914 2.33276 2.74425 2.82345 2.73047 3.33993V16.5542" stroke="black" stroke-width="1.5" stroke-linecap="round" stroke-linejoin="round"/>
<path id="Vector_2" d="M15.9453 14.625V18.5893" stroke="black" stroke-width="1.5" stroke-linecap="round" stroke-linejoin="round"/>
</g>
</g>
</svg>
