<svg width="20" height="20" viewBox="0 0 20 20" fill="none" xmlns="http://www.w3.org/2000/svg">
<g id="braces-circle-40" clip-path="url(#clip0_47_146328)">
<g id="braces-circle--interface-math-braces-sign-mathematics">
<path id="Vector 286" d="M8.01786 6.69629C7.50287 6.69629 6.5865 7.09769 6.52016 8.21333C6.48114 8.86979 6.25954 9.55759 5.67136 9.85169L5.375 9.99986L5.67136 10.148C6.25954 10.4421 6.48114 11.1299 6.52016 11.7864C6.5865 12.902 7.50287 13.3034 8.01786 13.3034" stroke="black" stroke-width="1.5" stroke-linecap="round" stroke-linejoin="round"/>
<path id="Vector 287" d="M11.9844 6.69629C12.4994 6.69629 13.4157 7.09769 13.4821 8.21333C13.5211 8.86979 13.7427 9.55759 14.3308 9.85169L14.6272 9.99986L14.3308 10.148C13.7427 10.4421 13.5211 11.1299 13.4821 11.7864C13.4157 12.902 12.4994 13.3034 11.9844 13.3034" stroke="black" stroke-width="1.5" stroke-linecap="round" stroke-linejoin="round"/>
<path id="Vector" d="M10.0011 18.2591C14.5624 18.2591 18.26 14.5614 18.26 10.0001C18.26 5.43886 14.5624 1.74121 10.0011 1.74121C5.43984 1.74121 1.74219 5.43886 1.74219 10.0001C1.74219 14.5614 5.43984 18.2591 10.0011 18.2591Z" stroke="black" stroke-width="1.5" stroke-linecap="round" stroke-linejoin="round"/>
</g>
</g>
<defs>
<clipPath id="clip0_47_146328">
<rect width="20" height="20" fill="white"/>
</clipPath>
</defs>
</svg>
