<svg width="21" height="21" viewBox="0 0 21 21" fill="none" xmlns="http://www.w3.org/2000/svg">
<path d="M9.10603 18.1608H2.83817C2.46876 18.1608 2.11448 18.014 1.85327 17.7529C1.59206 17.4917 1.44531 17.1373 1.44531 16.768V2.83939C1.44531 2.46998 1.59206 2.1157 1.85327 1.85449C2.11448 1.59328 2.46876 1.44653 2.83817 1.44653H18.1596C18.529 1.44653 18.8833 1.59328 19.1445 1.85449C19.4056 2.1157 19.5525 2.46998 19.5525 2.83939V7.71439" stroke="black" stroke-width="1.5" stroke-linecap="round" stroke-linejoin="round"/>
<path d="M1.44531 5.625H19.5525" stroke="black" stroke-width="1.5" stroke-linecap="round" stroke-linejoin="round"/>
<path d="M13.2852 9.80371V14.6787" stroke="black" stroke-width="1.5" stroke-linecap="round" stroke-linejoin="round"/>
<path d="M9.42578 14.9155C9.7259 14.616 10.0575 14.3499 10.4147 14.1216" stroke="black" stroke-width="1.5" stroke-linecap="round" stroke-linejoin="round"/>
<path d="M7.01562 12.45C7.8228 11.6229 8.78313 10.9606 9.84312 10.5" stroke="black" stroke-width="1.5" stroke-linecap="round" stroke-linejoin="round"/>
<path d="M17.1413 14.9155C16.8411 14.616 16.5096 14.3499 16.1523 14.1216" stroke="black" stroke-width="1.5" stroke-linecap="round" stroke-linejoin="round"/>
<path d="M19.5513 12.4502C18.7553 11.6325 17.8096 10.9753 16.7656 10.5142" stroke="black" stroke-width="1.5" stroke-linecap="round" stroke-linejoin="round"/>
<path d="M13.2857 18.5089C13.0934 18.5089 12.9375 18.3531 12.9375 18.1607C12.9375 17.9684 13.0934 17.8125 13.2857 17.8125" stroke="black" stroke-width="1.5" stroke-linecap="round" stroke-linejoin="round"/>
<path d="M13.2852 18.5089C13.4775 18.5089 13.6334 18.3531 13.6334 18.1607C13.6334 17.9684 13.4775 17.8125 13.2852 17.8125" stroke="black" stroke-width="1.5" stroke-linecap="round" stroke-linejoin="round"/>
</svg>
