<svg width="21" height="21" viewBox="0 0 21 21" fill="none" xmlns="http://www.w3.org/2000/svg">
<g clip-path="url(#clip0_146_399950)">
<path d="M1.44531 9.10725V2.83939C1.44531 2.07014 2.06892 1.44653 2.83817 1.44653H18.1596C18.9289 1.44653 19.5525 2.07014 19.5525 2.83939V7.01796" stroke="black" stroke-width="1.5" stroke-linecap="round" stroke-linejoin="round"/>
<path d="M1.44531 16.7681V18.1609C1.44531 18.9302 2.06892 19.5538 2.83817 19.5538H18.1596C18.9289 19.5538 19.5525 18.9302 19.5525 18.1609V17.4645" stroke="black" stroke-width="1.5" stroke-linecap="round" stroke-linejoin="round"/>
<path d="M1.44531 5.625H19.5525" stroke="black" stroke-width="1.5" stroke-linecap="round" stroke-linejoin="round"/>
<path d="M5.59334 13.9463H1.91809C1.71523 13.9463 1.55078 13.7819 1.55078 13.579C1.55078 13.49 1.58307 13.4041 1.64166 13.3371L4.98414 9.51715C5.05015 9.44171 5.1455 9.39844 5.24573 9.39844C5.43771 9.39844 5.59334 9.55406 5.59334 9.74604V13.9463ZM5.59334 13.9463H6.60397M5.59334 13.9463V15.4623" stroke="black" stroke-width="1.5" stroke-linecap="round" stroke-linejoin="round"/>
<path d="M18.4371 13.9463H14.7619C14.559 13.9463 14.3945 13.7819 14.3945 13.579C14.3945 13.49 14.4268 13.4041 14.4854 13.3371L17.8279 9.51715C17.8939 9.44171 17.9893 9.39844 18.0894 9.39844C18.2815 9.39844 18.4371 9.55406 18.4371 9.74604V13.9463ZM18.4371 13.9463H19.4477M18.4371 13.9463V15.4623" stroke="black" stroke-width="1.5" stroke-linecap="round" stroke-linejoin="round"/>
<path d="M8.47656 10.8723V13.9884C8.47656 14.8025 9.13643 15.4623 9.9504 15.4623H11.0453C11.8592 15.4623 12.5191 14.8025 12.5191 13.9884V10.8723C12.5191 10.0583 11.8592 9.39844 11.0453 9.39844H9.9504C9.13643 9.39844 8.47656 10.0583 8.47656 10.8723Z" stroke="black" stroke-width="1.5" stroke-linecap="round" stroke-linejoin="round"/>
</g>
<defs>
<clipPath id="clip0_146_399950">
<rect width="21" height="21" fill="white"/>
</clipPath>
</defs>
</svg>
