<svg width="21" height="21" viewBox="0 0 21 21" fill="none" xmlns="http://www.w3.org/2000/svg">
<g clip-path="url(#clip0_146_399890)">
<path d="M1.44531 5.61621H19.5525" stroke="black" stroke-width="1.5" stroke-linecap="round" stroke-linejoin="round"/>
<path d="M18.1596 1.44653H2.83817C2.06892 1.44653 1.44531 2.07014 1.44531 2.83939V18.1608C1.44531 18.9301 2.06892 19.5537 2.83817 19.5537H18.1596C18.9289 19.5537 19.5525 18.9301 19.5525 18.1608V2.83939C19.5525 2.07014 18.9289 1.44653 18.1596 1.44653Z" stroke="black" stroke-width="1.5" stroke-linecap="round" stroke-linejoin="round"/>
<path d="M10.4989 16.768C12.8066 16.768 14.6775 14.8973 14.6775 12.5895C14.6775 10.2817 12.8066 8.41089 10.4989 8.41089C8.19113 8.41089 6.32031 10.2817 6.32031 12.5895C6.32031 14.8973 8.19113 16.768 10.4989 16.768Z" stroke="black" stroke-width="1.5" stroke-linecap="round" stroke-linejoin="round"/>
<path d="M13.4573 15.5465L7.54297 9.63232" stroke="black" stroke-width="1.5" stroke-linecap="round" stroke-linejoin="round"/>
</g>
<defs>
<clipPath id="clip0_146_399890">
<rect width="21" height="21" fill="white"/>
</clipPath>
</defs>
</svg>
