<svg width="21" height="21" viewBox="0 0 21 21" fill="none" xmlns="http://www.w3.org/2000/svg">
<g clip-path="url(#clip0_146_400029)">
<path d="M10.5 8.42139V10.2689" stroke="black" stroke-width="1.5" stroke-linecap="round" stroke-linejoin="round"/>
<path d="M6.76562 10.5769L8.36681 11.5007" stroke="black" stroke-width="1.5" stroke-linecap="round" stroke-linejoin="round"/>
<path d="M6.76562 14.8876L8.36681 13.9639" stroke="black" stroke-width="1.5" stroke-linecap="round" stroke-linejoin="round"/>
<path d="M10.5 17.0433V15.1958" stroke="black" stroke-width="1.5" stroke-linecap="round" stroke-linejoin="round"/>
<path d="M14.2301 14.8876L12.6289 13.9639" stroke="black" stroke-width="1.5" stroke-linecap="round" stroke-linejoin="round"/>
<path d="M14.2301 10.5769L12.6289 11.5007" stroke="black" stroke-width="1.5" stroke-linecap="round" stroke-linejoin="round"/>
<path d="M10.4985 15.1958C11.859 15.1958 12.9619 14.0929 12.9619 12.7324C12.9619 11.3719 11.859 10.269 10.4985 10.269C9.13803 10.269 8.03516 11.3719 8.03516 12.7324C8.03516 14.0929 9.13803 15.1958 10.4985 15.1958Z" stroke="black" stroke-width="1.5" stroke-linecap="round" stroke-linejoin="round"/>
<path d="M1.44531 5.61621H19.5525" stroke="black" stroke-width="1.5" stroke-linecap="round" stroke-linejoin="round"/>
<path d="M18.1596 1.44653H2.83817C2.06892 1.44653 1.44531 2.07014 1.44531 2.83939V18.1608C1.44531 18.9301 2.06892 19.5537 2.83817 19.5537H18.1596C18.9289 19.5537 19.5525 18.9301 19.5525 18.1608V2.83939C19.5525 2.07014 18.9289 1.44653 18.1596 1.44653Z" stroke="black" stroke-width="1.5" stroke-linecap="round" stroke-linejoin="round"/>
</g>
<defs>
<clipPath id="clip0_146_400029">
<rect width="21" height="21" fill="white"/>
</clipPath>
</defs>
</svg>
