<svg width="21" height="21" viewBox="0 0 21 21" fill="none" xmlns="http://www.w3.org/2000/svg">
<g clip-path="url(#clip0_146_400012)">
<path d="M1.44531 5.61621H19.5525" stroke="black" stroke-width="1.5" stroke-linecap="round" stroke-linejoin="round"/>
<path d="M18.1596 1.44653H2.83817C2.06892 1.44653 1.44531 2.07014 1.44531 2.83939V18.1608C1.44531 18.9301 2.06892 19.5537 2.83817 19.5537H18.1596C18.9289 19.5537 19.5525 18.9301 19.5525 18.1608V2.83939C19.5525 2.07014 18.9289 1.44653 18.1596 1.44653Z" stroke="black" stroke-width="1.5" stroke-linecap="round" stroke-linejoin="round"/>
<path d="M13.9103 11.8929C13.5876 10.3035 12.1824 9.10718 10.4978 9.10718C8.57464 9.10718 7.01562 10.6662 7.01562 12.5893C7.01562 14.5125 8.57464 16.0715 10.4978 16.0715C11.357 16.0715 12.1435 15.7603 12.7508 15.2444" stroke="black" stroke-width="1.5" stroke-linecap="round" stroke-linejoin="round"/>
<path d="M14.6763 9.80371L13.9103 11.893L11.8906 11.5448" stroke="black" stroke-width="1.5" stroke-linecap="round" stroke-linejoin="round"/>
</g>
<defs>
<clipPath id="clip0_146_400012">
<rect width="21" height="21" fill="white"/>
</clipPath>
</defs>
</svg>
