<svg width="21" height="21" viewBox="0 0 21 21" fill="none" xmlns="http://www.w3.org/2000/svg">
<path d="M2.83817 18.8571H18.1596C18.9289 18.8571 19.5525 18.2335 19.5525 17.4642V3.53568C19.5525 3.16627 19.4056 2.81199 19.1445 2.55078C18.8833 2.28957 18.529 2.14282 18.1596 2.14282H2.83817C2.46876 2.14282 2.11448 2.28957 1.85327 2.55078C1.59206 2.81199 1.44531 3.16627 1.44531 3.53568V17.4642C1.44531 17.8336 1.59206 18.188 1.85327 18.4491C2.11448 18.7103 2.46876 18.8571 2.83817 18.8571Z" stroke="black" stroke-width="1.5" stroke-linecap="round" stroke-linejoin="round"/>
<path d="M1.44531 6.32129H19.5525" stroke="black" stroke-width="1.5" stroke-linecap="round" stroke-linejoin="round"/>
<path d="M5.69141 11.092C8.33783 8.44557 12.6557 8.44557 15.3021 11.092" stroke="black" stroke-width="1.5" stroke-linecap="round" stroke-linejoin="round"/>
<path d="M8.20703 13.227C9.40298 12.0311 11.4532 12.0311 12.6491 13.227" stroke="black" stroke-width="1.5" stroke-linecap="round" stroke-linejoin="round"/>
<path d="M10.4302 16.4857C10.2379 16.4857 10.082 16.3297 10.082 16.1375C10.082 15.9452 10.2379 15.7893 10.4302 15.7893" stroke="black" stroke-width="1.5" stroke-linecap="round" stroke-linejoin="round"/>
<path d="M10.4297 16.4857C10.622 16.4857 10.7779 16.3297 10.7779 16.1375C10.7779 15.9452 10.622 15.7893 10.4297 15.7893" stroke="black" stroke-width="1.5" stroke-linecap="round" stroke-linejoin="round"/>
</svg>
