<svg width="21" height="21" viewBox="0 0 21 21" fill="none" xmlns="http://www.w3.org/2000/svg">
<g clip-path="url(#clip0_146_399993)">
<path d="M7.36328 15.3752V12.5895C7.36328 12.2049 7.67509 11.8931 8.05971 11.8931H12.9347C13.3193 11.8931 13.6311 12.2049 13.6311 12.5895V15.3752C13.6311 15.7598 13.3193 16.0716 12.9347 16.0716H8.05971C7.67509 16.0716 7.36328 15.7598 7.36328 15.3752Z" stroke="black" stroke-width="1.5" stroke-linejoin="round"/>
<path d="M8.41016 11.893V10.5002C8.41016 9.34629 9.34556 8.41089 10.4994 8.41089C11.6533 8.41089 12.5887 9.34629 12.5887 10.5002V11.893" stroke="black" stroke-width="1.5" stroke-linecap="round" stroke-linejoin="round"/>
<path d="M1.44531 5.61621H19.5525" stroke="black" stroke-width="1.5" stroke-linecap="round" stroke-linejoin="round"/>
<path d="M18.1596 1.44653H2.83817C2.06892 1.44653 1.44531 2.07014 1.44531 2.83939V18.1608C1.44531 18.9301 2.06892 19.5537 2.83817 19.5537H18.1596C18.9289 19.5537 19.5525 18.9301 19.5525 18.1608V2.83939C19.5525 2.07014 18.9289 1.44653 18.1596 1.44653Z" stroke="black" stroke-width="1.5" stroke-linecap="round" stroke-linejoin="round"/>
</g>
<defs>
<clipPath id="clip0_146_399993">
<rect width="21" height="21" fill="white"/>
</clipPath>
</defs>
</svg>
