<svg width="21" height="21" viewBox="0 0 21 21" fill="none" xmlns="http://www.w3.org/2000/svg">
<path d="M10.4983 18.1607C13.96 18.1607 16.7662 15.3545 16.7662 11.8929C16.7662 8.43122 13.96 5.625 10.4983 5.625C7.03669 5.625 4.23047 8.43122 4.23047 11.8929C4.23047 15.3545 7.03669 18.1607 10.4983 18.1607Z" stroke="black" stroke-width="1.5" stroke-linecap="round" stroke-linejoin="round"/>
<path d="M4.23103 11.8928H1.44531" stroke="black" stroke-width="1.5" stroke-linecap="round" stroke-linejoin="round"/>
<path d="M1.44531 16.7679C2.14032 16.77 2.82754 16.6216 3.45984 16.3332C4.09215 16.0446 4.65457 15.6228 5.10853 15.0964" stroke="black" stroke-width="1.5" stroke-linecap="round" stroke-linejoin="round"/>
<path d="M5.10853 8.68927C4.65457 8.16301 4.09215 7.74115 3.45984 7.45265C2.82754 7.16415 2.14032 7.01582 1.44531 7.01784" stroke="black" stroke-width="1.5" stroke-linecap="round" stroke-linejoin="round"/>
<path d="M16.7656 11.8928H19.5513" stroke="black" stroke-width="1.5" stroke-linecap="round" stroke-linejoin="round"/>
<path d="M19.5538 16.7679C18.8588 16.77 18.1716 16.6216 17.5393 16.3332C16.907 16.0446 16.3446 15.6228 15.8906 15.0964" stroke="black" stroke-width="1.5" stroke-linecap="round" stroke-linejoin="round"/>
<path d="M15.8906 8.68927C16.3446 8.16301 16.907 7.74115 17.5393 7.45265C18.1716 7.16415 18.8588 7.01582 19.5538 7.01784" stroke="black" stroke-width="1.5" stroke-linecap="round" stroke-linejoin="round"/>
<path d="M12.2266 5.86173C12.7595 5.5573 13.2025 5.1174 13.5107 4.58661C13.8189 4.05582 13.9814 3.45301 13.9816 2.83923" stroke="black" stroke-width="1.5" stroke-linecap="round" stroke-linejoin="round"/>
<path d="M7.01562 2.83923C7.01582 3.45301 7.17826 4.05582 7.48645 4.58661C7.79465 5.1174 8.23766 5.5573 8.77062 5.86173" stroke="black" stroke-width="1.5" stroke-linecap="round" stroke-linejoin="round"/>
<path d="M4.38281 10.5H16.6121" stroke="black" stroke-width="1.5" stroke-linecap="round" stroke-linejoin="round"/>
</svg>
