<svg width="21" height="21" viewBox="0 0 21 21" fill="none" xmlns="http://www.w3.org/2000/svg">
<g clip-path="url(#clip0_146_400075)">
<path d="M5.625 15.375L7.43571 13.5642" stroke="black" stroke-width="1.5" stroke-linecap="round" stroke-linejoin="round"/>
<path d="M7.01507 10.5H4.92578" stroke="black" stroke-width="1.5" stroke-linecap="round" stroke-linejoin="round"/>
<path d="M15.3733 5.625L13.5625 7.43571" stroke="black" stroke-width="1.5" stroke-linecap="round" stroke-linejoin="round"/>
<path d="M13.9805 10.5H16.0698" stroke="black" stroke-width="1.5" stroke-linecap="round" stroke-linejoin="round"/>
<path d="M9.80078 9.80359H13.9794" stroke="black" stroke-width="1.5" stroke-linecap="round" stroke-linejoin="round"/>
<path d="M1.44531 10.5C1.44531 12.9011 2.39917 15.204 4.09704 16.9018C5.79492 18.5997 8.09773 19.5536 10.4989 19.5536C12.9 19.5536 15.2029 18.5997 16.9007 16.9018C18.5986 15.204 19.5525 12.9011 19.5525 10.5C19.5525 8.09883 18.5986 5.79601 16.9007 4.09814C15.2029 2.40027 12.9 1.44641 10.4989 1.44641C8.09773 1.44641 5.79492 2.40027 4.09704 4.09814C2.39917 5.79601 1.44531 8.09883 1.44531 10.5Z" stroke="black" stroke-width="1.5" stroke-linecap="round" stroke-linejoin="round"/>
<path d="M16.9013 16.9018L4.09766 4.09814" stroke="black" stroke-width="1.5" stroke-linecap="round" stroke-linejoin="round"/>
<path d="M7.44141 7.44186C7.59945 7.1516 7.79938 6.88281 8.0373 6.64489C8.69033 5.99186 9.57603 5.625 10.4995 5.625C11.4231 5.625 12.3088 5.99186 12.9618 6.64489C13.6148 7.29792 13.9817 8.18362 13.9817 9.10714V11.8929C13.9817 12.4799 13.8335 13.0517 13.5577 13.5581" stroke="black" stroke-width="1.5" stroke-linecap="round" stroke-linejoin="round"/>
<path d="M7.01562 10.5V11.8929C7.01562 12.8164 7.38249 13.7021 8.03552 14.3551C8.68854 15.0081 9.57425 15.375 10.4978 15.375C10.8169 15.375 11.1315 15.3313 11.4335 15.2469" stroke="black" stroke-width="1.5" stroke-linecap="round" stroke-linejoin="round"/>
</g>
<defs>
<clipPath id="clip0_146_400075">
<rect width="21" height="21" fill="white"/>
</clipPath>
</defs>
</svg>
