<svg width="21" height="21" viewBox="0 0 21 21" fill="none" xmlns="http://www.w3.org/2000/svg">
<g clip-path="url(#clip0_146_400150)">
<path d="M9.10547 1.44641L10.9162 3.25713" stroke="black" stroke-width="1.5" stroke-linecap="round" stroke-linejoin="round"/>
<path d="M9.10547 11.1963L10.9162 9.38562" stroke="black" stroke-width="1.5" stroke-linecap="round" stroke-linejoin="round"/>
<path d="M10.4994 6.32141H8.41016" stroke="black" stroke-width="1.5" stroke-linecap="round" stroke-linejoin="round"/>
<path d="M18.8576 1.44641L17.0469 3.25713" stroke="black" stroke-width="1.5" stroke-linecap="round" stroke-linejoin="round"/>
<path d="M18.8576 11.1963L17.0469 9.38562" stroke="black" stroke-width="1.5" stroke-linecap="round" stroke-linejoin="round"/>
<path d="M10.5 4.92855C10.5 4.00503 10.8669 3.11933 11.5199 2.4663C12.1729 1.81328 13.0586 1.44641 13.9821 1.44641C14.9056 1.44641 15.7913 1.81328 16.4444 2.4663C17.0974 3.11933 17.4643 4.00503 17.4643 4.92855V7.71427C17.4643 8.63779 17.0974 9.52349 16.4444 10.1765C15.7913 10.8295 14.9056 11.1964 13.9821 11.1964C13.0586 11.1964 12.1729 10.8295 11.5199 10.1765C10.8669 9.52349 10.5 8.63779 10.5 7.71427V4.92855Z" stroke="black" stroke-width="1.5" stroke-linecap="round" stroke-linejoin="round"/>
<path d="M17.4648 6.32141H19.5541" stroke="black" stroke-width="1.5" stroke-linecap="round" stroke-linejoin="round"/>
<path d="M10.5 5.625H17.4643" stroke="black" stroke-width="1.5" stroke-linecap="round" stroke-linejoin="round"/>
<path d="M14.0279 14.6786V18.1607C14.0279 18.93 13.4043 19.5536 12.635 19.5536H2.88504C2.11579 19.5536 1.49219 18.93 1.49219 18.1607V2.83927C1.49219 2.07001 2.11579 1.44641 2.88504 1.44641H5.62638" stroke="black" stroke-width="1.5" stroke-linecap="round" stroke-linejoin="round"/>
<path d="M7.0625 16.0714H8.45536" stroke="black" stroke-width="1.5" stroke-linecap="round" stroke-linejoin="round"/>
</g>
<defs>
<clipPath id="clip0_146_400150">
<rect width="21" height="21" fill="white"/>
</clipPath>
</defs>
</svg>
