<svg width="20" height="25" viewBox="0 0 20 25" fill="none" xmlns="http://www.w3.org/2000/svg">
<g id="Group">
<g id="building-modern">
<path id="Shape" fill-rule="evenodd" clip-rule="evenodd" d="M11 24H1.5C1.22386 24 1 23.7761 1 23.5V10C1 9.44772 1.44772 9 2 9H10C10.5523 9 11 9.44772 11 10V24Z" stroke="#003366" stroke-width="1.5" stroke-linecap="round" stroke-linejoin="round"/>
<path id="Shape_2" d="M9 9V2C9 1.44772 9.44772 1 10 1H18C18.5523 1 19 1.44772 19 2V23.5C19 23.7761 18.7761 24 18.5 24H11" stroke="#003366" stroke-width="1.5" stroke-linecap="round" stroke-linejoin="round"/>
<path id="Shape_3" d="M17 24V21.5C17 21.2239 16.7761 21 16.5 21H14.5C14.2239 21 14 21.2239 14 21.5V24" stroke="#003366" stroke-width="1.5" stroke-linecap="round" stroke-linejoin="round"/>
<path id="Shape_4" d="M6 24V21.5C6 21.2239 5.77614 21 5.5 21H3.5C3.22386 21 3 21.2239 3 21.5V24" stroke="#003366" stroke-width="1.5" stroke-linecap="round" stroke-linejoin="round"/>
<path id="Shape_5" d="M1 12H5" stroke="#003366" stroke-width="1.5" stroke-linecap="round" stroke-linejoin="round"/>
<path id="Shape_6" d="M9 7H13" stroke="#003366" stroke-width="1.5" stroke-linecap="round" stroke-linejoin="round"/>
<path id="Shape_7" d="M9 4H15" stroke="#003366" stroke-width="1.5" stroke-linecap="round" stroke-linejoin="round"/>
<path id="Shape_8" d="M1 15H3" stroke="#003366" stroke-width="1.5" stroke-linecap="round" stroke-linejoin="round"/>
</g>
</g>
</svg>
