<svg width="21" height="21" viewBox="0 0 21 21" fill="none" xmlns="http://www.w3.org/2000/svg">
<path d="M18.1596 4.23218H2.83817C2.06892 4.23218 1.44531 4.85579 1.44531 5.62503V15.375C1.44531 16.1443 2.06892 16.7679 2.83817 16.7679H18.1596C18.9289 16.7679 19.5525 16.1443 19.5525 15.375V5.62503C19.5525 4.85579 18.9289 4.23218 18.1596 4.23218Z" stroke="black" stroke-width="1.5" stroke-linecap="round" stroke-linejoin="round"/>
<path d="M7.01507 12.5892C8.16895 12.5892 9.10435 11.6538 9.10435 10.4999C9.10435 9.34605 8.16895 8.41064 7.01507 8.41064C5.86118 8.41064 4.92578 9.34605 4.92578 10.4999C4.92578 11.6538 5.86118 12.5892 7.01507 12.5892Z" stroke="black" stroke-width="1.5" stroke-linecap="round" stroke-linejoin="round"/>
<path d="M12.5898 8.41064H16.072" stroke="black" stroke-width="1.5" stroke-linecap="round" stroke-linejoin="round"/>
<path d="M12.5898 12.5894H16.072" stroke="black" stroke-width="1.5" stroke-linecap="round" stroke-linejoin="round"/>
</svg>
