<svg width="21" height="21" viewBox="0 0 21 21" fill="none" xmlns="http://www.w3.org/2000/svg">
<path d="M5.625 19.5537H11.1964" stroke="black" stroke-width="1.5" stroke-linecap="round" stroke-linejoin="round"/>
<path d="M8.4098 10.5001V1.44653C7.01169 1.46541 5.66003 1.95124 4.56982 2.82674C3.4796 3.70225 2.71343 4.91716 2.39318 6.27823C2.07293 7.6393 2.21699 9.06839 2.80242 10.3382C3.38787 11.6079 4.38107 12.6455 5.62408 13.2858V15.3751C5.62408 15.5598 5.69746 15.737 5.82807 15.8676C5.95866 15.9981 6.13581 16.0715 6.32051 16.0715H10.4991C10.6838 16.0715 10.8609 15.9981 10.9915 15.8676C11.1221 15.737 11.1955 15.5598 11.1955 15.3751V13.2858C12.4017 12.6841 13.3795 11.7063 13.9812 10.5001" stroke="black" stroke-width="1.5" stroke-linecap="round" stroke-linejoin="round"/>
<path d="M18.8566 7.01796C18.8566 5.54032 18.2696 4.12321 17.2247 3.07836C16.1799 2.03352 14.7628 1.44653 13.2852 1.44653V7.01796H18.8566Z" stroke="black" stroke-width="1.5" stroke-linecap="round" stroke-linejoin="round"/>
<path d="M2.83984 7.71436H9.80413" stroke="black" stroke-width="1.5" stroke-linecap="round" stroke-linejoin="round"/>
</svg>
