<svg width="21" height="21" viewBox="0 0 21 21" fill="none" xmlns="http://www.w3.org/2000/svg">
<g clip-path="url(#clip0_146_398299)">
<path d="M8.09208 9.58911H12.9044C12.9044 9.58911 14.2973 9.58911 14.2973 10.982V14.4028C14.2973 14.4028 14.2973 15.7957 12.9044 15.7957H8.09208C8.09208 15.7957 6.69922 15.7957 6.69922 14.4028V10.982C6.69922 10.982 6.69922 9.58911 8.09208 9.58911Z" stroke="black" stroke-width="1.5" stroke-linecap="round" stroke-linejoin="round"/>
<path d="M8.75391 9.58957V8.79227C8.75391 8.02301 9.3775 7.39941 10.1468 7.39941H10.8571C11.6264 7.39941 12.25 8.02301 12.25 8.79227V9.58957" stroke="black" stroke-width="1.5" stroke-linecap="round" stroke-linejoin="round"/>
<path d="M19.5525 10.4165C19.5538 10.2232 19.5148 10.0317 19.4381 9.85427C19.3614 9.67682 19.2485 9.51728 19.1067 9.38582L10.4989 1.44653L1.89106 9.38582C1.7493 9.51728 1.63646 9.67682 1.55973 9.85427C1.48299 10.0317 1.44404 10.2232 1.44534 10.4165V18.1608C1.44534 18.5302 1.59209 18.8845 1.8533 19.1457C2.11451 19.4069 2.4688 19.5537 2.8382 19.5537H18.1596C18.529 19.5537 18.8833 19.4069 19.1445 19.1457C19.4058 18.8845 19.5525 18.5302 19.5525 18.1608V10.4165Z" stroke="black" stroke-width="1.5" stroke-linecap="round" stroke-linejoin="round"/>
</g>
<defs>
<clipPath id="clip0_146_398299">
<rect width="21" height="21" fill="white"/>
</clipPath>
</defs>
</svg>
