<svg width="21" height="21" viewBox="0 0 21 21" fill="none" xmlns="http://www.w3.org/2000/svg">
<path d="M12.2757 6.29186C12.2145 6.11885 12.1202 5.96154 12.0003 5.82758C11.7452 5.54261 11.3746 5.36328 10.9621 5.36328H9.88393C9.19727 5.36328 8.64062 5.91994 8.64062 6.6066C8.64062 7.19088 9.04745 7.69633 9.61824 7.8212L11.2597 8.18026C11.8991 8.32015 12.3549 8.88681 12.3549 9.54137C12.3549 10.3106 11.7313 10.9347 10.9621 10.9347H10.0335C9.42702 10.9347 8.91109 10.5471 8.71988 10.0062" stroke="black" stroke-width="1.5" stroke-linecap="round" stroke-linejoin="round"/>
<path d="M10.5 5.36333V3.97046" stroke="black" stroke-width="1.5" stroke-linecap="round" stroke-linejoin="round"/>
<path d="M10.5 12.3274V10.9346" stroke="black" stroke-width="1.5" stroke-linecap="round" stroke-linejoin="round"/>
<path d="M16.766 7.75768C16.7737 6.63888 16.4819 5.53841 15.9207 4.5705C15.3595 3.60261 14.5495 2.80256 13.5747 2.25343C12.5999 1.70429 11.4959 1.42609 10.3773 1.4477C9.25865 1.46931 8.16621 1.78995 7.21335 2.37632C6.2605 2.96269 5.48197 3.79343 4.95858 4.78227C4.4352 5.77113 4.18603 6.88205 4.23697 7.99972C4.28789 9.11737 4.63705 10.201 5.24821 11.1382C5.85937 12.0753 6.71022 12.8318 7.71245 13.3291V15.4184C7.71245 15.6031 7.78583 15.7803 7.91644 15.9108C8.04705 16.0414 8.22419 16.1149 8.40888 16.1149H12.5875C12.7722 16.1149 12.9493 16.0414 13.0799 15.9108C13.2105 15.7803 13.2839 15.6031 13.2839 15.4184V13.3291C14.325 12.8161 15.2024 12.023 15.8176 11.0388C16.4327 10.0546 16.7612 8.91829 16.766 7.75768Z" stroke="black" stroke-width="1.5" stroke-linecap="round" stroke-linejoin="round"/>
<path d="M7.71094 19.5537H13.2824" stroke="black" stroke-width="1.5" stroke-linecap="round" stroke-linejoin="round"/>
</svg>
