<svg width="21" height="21" viewBox="0 0 21 21" fill="none" xmlns="http://www.w3.org/2000/svg">
<path d="M16.6992 1.44653V6.5005" stroke="black" stroke-width="1.5" stroke-linecap="round" stroke-linejoin="round"/>
<path d="M19.2259 3.97339H14.1719" stroke="black" stroke-width="1.5" stroke-linecap="round" stroke-linejoin="round"/>
<path d="M19.2258 11.187H14.1719" stroke="black" stroke-width="1.5" stroke-linecap="round" stroke-linejoin="round"/>
<path d="M1.77734 15.6577L5.58563 18.8312C6.14576 19.2981 6.85181 19.5537 7.58094 19.5537H17.621C18.3382 19.5537 18.9196 18.9723 18.9196 18.255C18.9196 16.8206 17.7567 15.6577 16.3223 15.6577H9.34223" stroke="black" stroke-width="1.5" stroke-linecap="round" stroke-linejoin="round"/>
<path d="M6.45251 14.0991L7.62131 15.2679C8.26681 15.9133 9.31338 15.9133 9.95889 15.2679C10.6044 14.6224 10.6044 13.5758 9.95889 12.9303L8.14459 11.116C7.56008 10.5315 6.76732 10.2031 5.9407 10.2031H1.77734" stroke="black" stroke-width="1.5" stroke-linecap="round" stroke-linejoin="round"/>
</svg>
