<svg width="21" height="21" viewBox="0 0 21 21" fill="none" xmlns="http://www.w3.org/2000/svg">
<g clip-path="url(#clip0_146_399119)">
<path d="M16.7667 1.44653H4.23103C2.69252 1.44653 1.44531 2.69374 1.44531 4.23225V16.768C1.44531 18.3065 2.69252 19.5537 4.23103 19.5537H16.7667C18.3053 19.5537 19.5525 18.3065 19.5525 16.768V4.23225C19.5525 2.69374 18.3053 1.44653 16.7667 1.44653Z" stroke="black" stroke-width="1.5" stroke-linecap="round" stroke-linejoin="round"/>
<path d="M10.5 1.44653V19.5537" stroke="black" stroke-width="1.5" stroke-linecap="round" stroke-linejoin="round"/>
<path d="M1.44531 10.5H19.5525" stroke="black" stroke-width="1.5" stroke-linecap="round" stroke-linejoin="round"/>
<path d="M4.23047 5.97339H7.71261" stroke="black" stroke-width="1.5" stroke-linecap="round" stroke-linejoin="round"/>
<path d="M13.6328 5.97339H16.4185" stroke="black" stroke-width="1.5" stroke-linecap="round" stroke-linejoin="round"/>
<path d="M13.6328 13.634H16.4185" stroke="black" stroke-width="1.5" stroke-linecap="round" stroke-linejoin="round"/>
<path d="M13.6328 16.4197H16.4185" stroke="black" stroke-width="1.5" stroke-linecap="round" stroke-linejoin="round"/>
<path d="M5.97266 4.23218V7.71432" stroke="black" stroke-width="1.5" stroke-linecap="round" stroke-linejoin="round"/>
<path d="M4.49609 13.5505L7.44895 16.5034" stroke="black" stroke-width="1.5" stroke-linecap="round" stroke-linejoin="round"/>
<path d="M7.44895 13.5505L4.49609 16.5034" stroke="black" stroke-width="1.5" stroke-linecap="round" stroke-linejoin="round"/>
</g>
<defs>
<clipPath id="clip0_146_399119">
<rect width="21" height="21" fill="white"/>
</clipPath>
</defs>
</svg>
