<svg width="20" height="20" viewBox="0 0 20 20" fill="none" xmlns="http://www.w3.org/2000/svg">
<g id="calendar-deadline-23" clip-path="url(#clip0_47_143340)">
<g id="calendar-deadline--deadline-calendar-date-day-month-skull">
<path id="Vector" d="M2.73158 3.39282C2.38112 3.39282 2.04501 3.53205 1.79719 3.77986C1.54938 4.02768 1.41016 4.36378 1.41016 4.71425V17.2678C1.41016 17.6183 1.54938 17.9544 1.79719 18.2022C2.04501 18.45 2.38112 18.5893 2.73158 18.5893H17.2673C17.6177 18.5893 17.9539 18.45 18.2017 18.2022C18.4494 17.9544 18.5887 17.6183 18.5887 17.2678V4.71425C18.5887 4.36378 18.4494 4.02768 18.2017 3.77986C17.9539 3.53205 17.6177 3.39282 17.2673 3.39282H14.6244" stroke="black" stroke-width="1.5" stroke-linecap="round" stroke-linejoin="round"/>
<path id="Vector_2" d="M5.375 1.41064V5.37493" stroke="black" stroke-width="1.5" stroke-linecap="round" stroke-linejoin="round"/>
<path id="Vector_3" d="M14.625 1.41064V5.37493" stroke="black" stroke-width="1.5" stroke-linecap="round" stroke-linejoin="round"/>
<path id="Vector_4" d="M5.375 3.39282H11.9821" stroke="black" stroke-width="1.5" stroke-linecap="round" stroke-linejoin="round"/>
<g id="Group 2270">
<path id="Ellipse 81" d="M8.28231 11.0243C8.19112 11.0243 8.11719 10.9504 8.11719 10.8592C8.11719 10.768 8.19112 10.6941 8.28231 10.6941" stroke="black" stroke-width="1.5" stroke-linecap="round" stroke-linejoin="round"/>
<path id="Ellipse 82" d="M8.28125 11.0243C8.37246 11.0243 8.44638 10.9504 8.44638 10.8592C8.44638 10.768 8.37246 10.6941 8.28125 10.6941" stroke="black" stroke-width="1.5" stroke-linecap="round" stroke-linejoin="round"/>
</g>
<g id="Group 2271">
<path id="Ellipse 81_2" d="M11.7198 11.0243C11.6286 11.0243 11.5547 10.9504 11.5547 10.8592C11.5547 10.768 11.6286 10.6941 11.7198 10.6941" stroke="black" stroke-width="1.5" stroke-linecap="round" stroke-linejoin="round"/>
<path id="Ellipse 82_2" d="M11.7188 11.0243C11.8099 11.0243 11.8839 10.9504 11.8839 10.8592C11.8839 10.768 11.8099 10.6941 11.7188 10.6941" stroke="black" stroke-width="1.5" stroke-linecap="round" stroke-linejoin="round"/>
</g>
<path id="Ellipse 1516" d="M11.9799 14.4715C13.3541 13.7552 14.2924 12.3175 14.2924 10.6606C14.2924 8.28874 12.3696 6.36597 9.99777 6.36597C7.6259 6.36597 5.70312 8.28874 5.70312 10.6606C5.70312 12.3175 6.64141 13.7552 8.01562 14.4715V15.9463H11.9799V14.4715Z" stroke="black" stroke-width="1.5" stroke-linecap="round" stroke-linejoin="round"/>
</g>
</g>
<defs>
<clipPath id="clip0_47_143340">
<rect width="20" height="20" fill="white"/>
</clipPath>
</defs>
</svg>
