<svg width="20" height="20" viewBox="0 0 20 20" fill="none" xmlns="http://www.w3.org/2000/svg">
<g id="calendar-star-6" clip-path="url(#clip0_47_143506)">
<g id="calendar-star--calendar-date-day-favorite-like-month-star">
<path id="Vector" d="M2.73158 3.39282C2.38112 3.39282 2.04501 3.53205 1.79719 3.77986C1.54938 4.02768 1.41016 4.36378 1.41016 4.71425V17.2678C1.41016 17.6183 1.54938 17.9544 1.79719 18.2022C2.04501 18.45 2.38112 18.5893 2.73158 18.5893H17.2673C17.6177 18.5893 17.9539 18.45 18.2017 18.2022C18.4494 17.9544 18.5887 17.6183 18.5887 17.2678V4.71425C18.5887 4.36378 18.4494 4.02768 18.2017 3.77986C17.9539 3.53205 17.6177 3.39282 17.2673 3.39282H14.6244" stroke="black" stroke-width="1.5" stroke-linecap="round" stroke-linejoin="round"/>
<path id="Vector_2" d="M5.375 1.41064V5.37493" stroke="black" stroke-width="1.5" stroke-linecap="round" stroke-linejoin="round"/>
<path id="Vector_3" d="M14.625 1.41064V5.37493" stroke="black" stroke-width="1.5" stroke-linecap="round" stroke-linejoin="round"/>
<path id="Vector_4" d="M5.375 3.39282H11.9821" stroke="black" stroke-width="1.5" stroke-linecap="round" stroke-linejoin="round"/>
<path id="Vector_5" d="M10.3292 6.89769L11.4347 9.1216C11.4594 9.17784 11.4986 9.22652 11.5483 9.26265C11.598 9.29879 11.6564 9.3211 11.7175 9.32728L14.1728 9.70007C14.243 9.7092 14.3092 9.73814 14.3635 9.78348C14.4179 9.82883 14.4582 9.8887 14.4798 9.95612C14.5013 10.0235 14.5033 10.0957 14.4853 10.1642C14.4675 10.2327 14.4303 10.2946 14.3785 10.3428L12.5659 12.0654C12.5389 12.1169 12.5248 12.1743 12.5248 12.2325C12.5248 12.2907 12.5389 12.3481 12.5659 12.3996L12.913 14.8421C12.9278 14.9127 12.9218 14.986 12.8958 15.0533C12.8697 15.1205 12.8247 15.1788 12.7662 15.221C12.7077 15.2631 12.6382 15.2874 12.5661 15.291C12.4941 15.2944 12.4226 15.2769 12.3603 15.2405L10.1749 14.0836C10.1184 14.0581 10.057 14.0449 9.99495 14.0449C9.93288 14.0449 9.87154 14.0581 9.81498 14.0836L7.62963 15.2405C7.56734 15.2769 7.49582 15.2944 7.42378 15.291C7.35172 15.2874 7.28222 15.2631 7.22371 15.221C7.1652 15.1788 7.12018 15.1205 7.09412 15.0533C7.06805 14.986 7.06206 14.9127 7.07687 14.8421L7.48822 12.3996C7.50592 12.3429 7.5093 12.2827 7.49809 12.2244C7.48687 12.1661 7.46141 12.1115 7.42395 12.0654L5.6114 10.33C5.56332 10.2813 5.52957 10.2203 5.51386 10.1537C5.49815 10.0871 5.50108 10.0174 5.52232 9.95234C5.54357 9.88729 5.5823 9.82935 5.6343 9.78484C5.6863 9.74035 5.74953 9.71101 5.81708 9.70007L8.27238 9.34013C8.3335 9.33394 8.39189 9.31165 8.44158 9.27551C8.49127 9.23938 8.53047 9.1907 8.55518 9.13445L9.66072 6.91055C9.6903 6.8476 9.7369 6.79417 9.79526 6.75631C9.85362 6.71847 9.92141 6.69769 9.99095 6.69636C10.0605 6.69502 10.129 6.71317 10.1888 6.74875C10.2486 6.78433 10.2972 6.83591 10.3292 6.89769Z" stroke="black" stroke-width="1.5" stroke-linecap="round" stroke-linejoin="round"/>
</g>
</g>
<defs>
<clipPath id="clip0_47_143506">
<rect width="20" height="20" fill="white"/>
</clipPath>
</defs>
</svg>
