<svg width="20" height="20" viewBox="0 0 20 20" fill="none" xmlns="http://www.w3.org/2000/svg">
<g id="calendar-fire-8" clip-path="url(#clip0_47_143383)">
<g id="calendar-fire--calendar-date-day-month-fire-trend-deadline">
<path id="Vector" d="M2.73158 3.39282C2.38112 3.39282 2.04501 3.53205 1.79719 3.77986C1.54938 4.02768 1.41016 4.36378 1.41016 4.71425V17.2678C1.41016 17.6183 1.54938 17.9544 1.79719 18.2022C2.04501 18.45 2.38112 18.5893 2.73158 18.5893H17.2673C17.6177 18.5893 17.9539 18.45 18.2017 18.2022C18.4494 17.9544 18.5887 17.6183 18.5887 17.2678V4.71425C18.5887 4.36378 18.4494 4.02768 18.2017 3.77986C17.9539 3.53205 17.6177 3.39282 17.2673 3.39282H14.6244" stroke="black" stroke-width="1.5" stroke-linecap="round" stroke-linejoin="round"/>
<path id="Vector_2" d="M5.375 1.41064V5.37493" stroke="black" stroke-width="1.5" stroke-linecap="round" stroke-linejoin="round"/>
<path id="Vector_3" d="M14.625 1.41064V5.37493" stroke="black" stroke-width="1.5" stroke-linecap="round" stroke-linejoin="round"/>
<path id="Vector_4" d="M5.375 3.39282H11.9821" stroke="black" stroke-width="1.5" stroke-linecap="round" stroke-linejoin="round"/>
<path id="Vector_5" d="M10.6981 7.37736C10.8937 7.29354 11.0706 7.48911 10.9868 7.6288C10.3053 8.81633 10.0276 10.5343 10.9403 11.6799C11.0222 11.7823 11.1975 11.7871 11.2848 11.6892C11.5267 11.4388 11.9367 10.879 11.9367 10.879C11.9833 10.7859 12.1509 10.6369 12.3931 10.879C13.3042 11.7901 13.5019 13.3135 12.7749 14.4178C12.1607 15.2407 11.1635 15.7484 10.1368 15.7609C8.44135 15.7818 7.03273 14.5559 7.01953 12.8533C7.01969 10.5155 8.63684 8.36974 10.6981 7.37736Z" stroke="black" stroke-width="1.5" stroke-linecap="round" stroke-linejoin="round"/>
</g>
</g>
<defs>
<clipPath id="clip0_47_143383">
<rect width="20" height="20" fill="white"/>
</clipPath>
</defs>
</svg>
