<svg width="20" height="20" viewBox="0 0 20 20" fill="none" xmlns="http://www.w3.org/2000/svg">
<g id="calendar-mark-2" clip-path="url(#clip0_47_143438)">
<g id="calendar-mark--calendar-date-day-month-mark">
<path id="Vector" d="M2.73158 3.39282C2.38112 3.39282 2.04501 3.53205 1.79719 3.77986C1.54938 4.02768 1.41016 4.36378 1.41016 4.71425V17.2678C1.41016 17.6183 1.54938 17.9544 1.79719 18.2022C2.04501 18.45 2.38112 18.5893 2.73158 18.5893H17.2673C17.6177 18.5893 17.9539 18.45 18.2017 18.2022C18.4494 17.9544 18.5887 17.6183 18.5887 17.2678V4.71425C18.5887 4.36378 18.4494 4.02768 18.2017 3.77986C17.9539 3.53205 17.6177 3.39282 17.2673 3.39282H14.6244" stroke="black" stroke-width="1.5" stroke-linecap="round" stroke-linejoin="round"/>
<path id="Vector_2" d="M5.375 1.41064V5.37493" stroke="black" stroke-width="1.5" stroke-linecap="round" stroke-linejoin="round"/>
<path id="Vector_3" d="M14.625 1.41064V5.37493" stroke="black" stroke-width="1.5" stroke-linecap="round" stroke-linejoin="round"/>
<path id="Vector_4" d="M5.375 3.39282H11.9821" stroke="black" stroke-width="1.5" stroke-linecap="round" stroke-linejoin="round"/>
<g id="Group 2567">
<path id="Vector_5" d="M5.37333 9.6695C5.19088 9.6695 5.04297 9.5216 5.04297 9.33915C5.04297 9.1567 5.19088 9.00879 5.37333 9.00879" stroke="black" stroke-width="1.5" stroke-linecap="round" stroke-linejoin="round"/>
<path id="Vector_6" d="M5.375 9.6695C5.55745 9.6695 5.70536 9.5216 5.70536 9.33915C5.70536 9.1567 5.55745 9.00879 5.375 9.00879" stroke="black" stroke-width="1.5" stroke-linecap="round" stroke-linejoin="round"/>
</g>
<g id="Group 2617">
<path id="Vector_7" d="M9.99833 9.6695C9.81588 9.6695 9.66797 9.5216 9.66797 9.33915C9.66797 9.1567 9.81588 9.00879 9.99833 9.00879" stroke="black" stroke-width="1.5" stroke-linecap="round" stroke-linejoin="round"/>
<path id="Vector_8" d="M10 9.6695C10.1824 9.6695 10.3304 9.5216 10.3304 9.33915C10.3304 9.1567 10.1824 9.00879 10 9.00879" stroke="black" stroke-width="1.5" stroke-linecap="round" stroke-linejoin="round"/>
</g>
<g id="Group 2619">
<path id="Vector_9" d="M5.37333 14.2945C5.19088 14.2945 5.04297 14.1466 5.04297 13.9641C5.04297 13.7817 5.19088 13.6338 5.37333 13.6338" stroke="black" stroke-width="1.5" stroke-linecap="round" stroke-linejoin="round"/>
<path id="Vector_10" d="M5.375 14.2945C5.55745 14.2945 5.70536 14.1466 5.70536 13.9641C5.70536 13.7817 5.55745 13.6338 5.375 13.6338" stroke="black" stroke-width="1.5" stroke-linecap="round" stroke-linejoin="round"/>
</g>
<g id="Group 2620">
<path id="Vector_11" d="M9.99833 14.2945C9.81588 14.2945 9.66797 14.1466 9.66797 13.9641C9.66797 13.7817 9.81588 13.6338 9.99833 13.6338" stroke="black" stroke-width="1.5" stroke-linecap="round" stroke-linejoin="round"/>
<path id="Vector_12" d="M10 14.2945C10.1824 14.2945 10.3304 14.1466 10.3304 13.9641C10.3304 13.7817 10.1824 13.6338 10 13.6338" stroke="black" stroke-width="1.5" stroke-linecap="round" stroke-linejoin="round"/>
</g>
<g id="Group 2618">
<path id="Vector_13" d="M14.6233 9.6695C14.4408 9.6695 14.293 9.5216 14.293 9.33915C14.293 9.1567 14.4408 9.00879 14.6233 9.00879" stroke="black" stroke-width="1.5" stroke-linecap="round" stroke-linejoin="round"/>
<path id="Vector_14" d="M14.625 9.6695C14.8075 9.6695 14.9554 9.5216 14.9554 9.33915C14.9554 9.1567 14.8075 9.00879 14.625 9.00879" stroke="black" stroke-width="1.5" stroke-linecap="round" stroke-linejoin="round"/>
</g>
</g>
</g>
<defs>
<clipPath id="clip0_47_143438">
<rect width="20" height="20" fill="white"/>
</clipPath>
</defs>
</svg>
