<svg width="20" height="20" viewBox="0 0 20 20" fill="none" xmlns="http://www.w3.org/2000/svg">
<g id="calendar-lock-22" clip-path="url(#clip0_47_143430)">
<g id="calendar-lock--calendar-date-day-lock-month-padlock-secure-security">
<path id="Vector" d="M2.73158 3.39282C2.38112 3.39282 2.04501 3.53205 1.79719 3.77986C1.54938 4.02768 1.41016 4.36378 1.41016 4.71425V17.2678C1.41016 17.6183 1.54938 17.9544 1.79719 18.2022C2.04501 18.45 2.38112 18.5893 2.73158 18.5893H17.2673C17.6177 18.5893 17.9539 18.45 18.2017 18.2022C18.4494 17.9544 18.5887 17.6183 18.5887 17.2678V4.71425C18.5887 4.36378 18.4494 4.02768 18.2017 3.77986C17.9539 3.53205 17.6177 3.39282 17.2673 3.39282H14.6244" stroke="black" stroke-width="1.5" stroke-linecap="round" stroke-linejoin="round"/>
<path id="Vector_2" d="M5.375 1.41064V5.37493" stroke="black" stroke-width="1.5" stroke-linecap="round" stroke-linejoin="round"/>
<path id="Vector_3" d="M14.625 1.41064V5.37493" stroke="black" stroke-width="1.5" stroke-linecap="round" stroke-linejoin="round"/>
<path id="Vector_4" d="M5.375 3.39282H11.9821" stroke="black" stroke-width="1.5" stroke-linecap="round" stroke-linejoin="round"/>
<path id="Vector 2567" d="M7.02734 13.9642V11.3214C7.02734 10.9565 7.32316 10.6606 7.68806 10.6606H12.3131C12.678 10.6606 12.9738 10.9565 12.9738 11.3214V13.9642C12.9738 14.3291 12.678 14.6249 12.3131 14.6249H7.68806C7.32316 14.6249 7.02734 14.3291 7.02734 13.9642Z" stroke="black" stroke-width="1.5" stroke-linejoin="round"/>
<path id="Vector 2568" d="M8.01562 10.6607V9.33932C8.01562 8.24461 8.90306 7.35718 9.99777 7.35718C11.0925 7.35718 11.9799 8.24461 11.9799 9.33932V10.6607" stroke="black" stroke-width="1.5" stroke-linecap="round" stroke-linejoin="round"/>
</g>
</g>
<defs>
<clipPath id="clip0_47_143430">
<rect width="20" height="20" fill="white"/>
</clipPath>
</defs>
</svg>
