<svg width="21" height="21" viewBox="0 0 21 21" fill="none" xmlns="http://www.w3.org/2000/svg">
<g clip-path="url(#clip0_146_402211)">
<path d="M8.77369 12.8549C8.49745 13.1249 8.12647 13.2762 7.74014 13.2762C7.35381 13.2762 6.98282 13.1249 6.70659 12.8549C6.43266 12.5857 6.06395 12.4348 5.67987 12.4348C5.29581 12.4348 4.92709 12.5857 4.65317 12.8549L2.03848 15.4421C1.7684 15.7185 1.61719 16.0894 1.61719 16.4758C1.61719 16.862 1.7684 17.2331 2.03848 17.5093L2.6545 18.1117C3.35916 18.8258 4.2882 19.2754 5.28543 19.3852C6.28266 19.4948 7.28726 19.2579 8.13028 18.714C9.41571 17.8466 10.6466 16.9062 11.8172 15.8984" stroke="black" stroke-width="1.5" stroke-linecap="round" stroke-linejoin="round"/>
<path d="M1.44531 1.44653L19.5525 19.5537" stroke="black" stroke-width="1.5" stroke-linecap="round" stroke-linejoin="round"/>
<path d="M13.934 13.9363C15.7177 12.1589 17.3318 10.2114 18.752 8.11833C19.2959 7.27529 19.533 6.2707 19.4232 5.27347C19.3136 4.27624 18.8638 3.34719 18.1497 2.64255L17.5473 2.02651C17.2711 1.75644 16.9002 1.60522 16.5138 1.60522C16.1274 1.60522 15.7565 1.75644 15.4803 2.02651L12.8792 4.62751C12.61 4.90144 12.4592 5.27016 12.4592 5.65422C12.4592 6.03829 12.61 6.40701 12.8792 6.68093C13.0163 6.81594 13.125 6.97684 13.1993 7.15427C13.2736 7.33171 13.3118 7.52214 13.3118 7.71448C13.3118 7.90683 13.2736 8.09727 13.1993 8.27469C13.125 8.45212 13.0163 8.61303 12.8792 8.74804L10.8125 10.8148" stroke="black" stroke-width="1.5" stroke-linecap="round" stroke-linejoin="round"/>
</g>
<defs>
<clipPath id="clip0_146_402211">
<rect width="21" height="21" fill="white"/>
</clipPath>
</defs>
</svg>
