<svg width="21" height="21" viewBox="0 0 21 21" fill="none" xmlns="http://www.w3.org/2000/svg">
<g clip-path="url(#clip0_146_398673)">
<path d="M18.1596 1.44653H2.83817C2.06892 1.44653 1.44531 2.07014 1.44531 2.83939V18.1608C1.44531 18.9301 2.06892 19.5537 2.83817 19.5537H18.1596C18.9289 19.5537 19.5525 18.9301 19.5525 18.1608V2.83939C19.5525 2.07014 18.9289 1.44653 18.1596 1.44653Z" stroke="black" stroke-width="1.5" stroke-linecap="round" stroke-linejoin="round"/>
<path d="M15.375 9.10714C15.375 8.73773 15.2282 8.38346 14.967 8.12224C14.7059 7.86104 14.3516 7.71429 13.9821 7.71429H13.2857L11.8929 5.625H9.10714L7.71429 7.71429H7.01786C6.64844 7.71429 6.29417 7.86104 6.03295 8.12224C5.77175 8.38346 5.625 8.73773 5.625 9.10714V12.5893C5.625 12.9587 5.77175 13.313 6.03295 13.5742C6.29417 13.8354 6.64844 13.9821 7.01786 13.9821H13.9821C14.3516 13.9821 14.7059 13.8354 14.967 13.5742C15.2282 13.313 15.375 12.9587 15.375 12.5893V9.10714Z" stroke="black" stroke-width="1.5" stroke-linecap="round" stroke-linejoin="round"/>
<path d="M10.4989 11.0224C10.2104 11.0224 9.97656 10.7886 9.97656 10.5001C9.97656 10.2116 10.2104 9.97778 10.4989 9.97778" stroke="black" stroke-width="1.5" stroke-linecap="round" stroke-linejoin="round"/>
<path d="M10.5 11.0224C10.7885 11.0224 11.0223 10.7886 11.0223 10.5001C11.0223 10.2116 10.7885 9.97778 10.5 9.97778" stroke="black" stroke-width="1.5" stroke-linecap="round" stroke-linejoin="round"/>
</g>
<defs>
<clipPath id="clip0_146_398673">
<rect width="21" height="21" fill="white"/>
</clipPath>
</defs>
</svg>
