<svg width="21" height="21" viewBox="0 0 21 21" fill="none" xmlns="http://www.w3.org/2000/svg">
<path d="M19.5525 7.71422C19.5525 7.3448 19.4056 6.99053 19.1445 6.72931C18.8833 6.46811 18.529 6.32136 18.1596 6.32136H15.3739L13.2846 3.53564H7.71317L5.62388 6.32136H2.83817C2.46876 6.32136 2.11448 6.46811 1.85327 6.72931C1.59206 6.99053 1.44531 7.3448 1.44531 7.71422V16.0714C1.44531 16.4407 1.59206 16.7951 1.85327 17.0562C2.11448 17.3174 2.46876 17.4642 2.83817 17.4642H18.1596C18.529 17.4642 18.8833 17.3174 19.1445 17.0562C19.4056 16.7951 19.5525 16.4407 19.5525 16.0714V7.71422Z" stroke="black" stroke-width="1.5" stroke-linecap="round" stroke-linejoin="round"/>
<path d="M10.4972 14.3304C12.228 14.3304 13.6311 12.9272 13.6311 11.1964C13.6311 9.46561 12.228 8.0625 10.4972 8.0625C8.76639 8.0625 7.36328 9.46561 7.36328 11.1964C7.36328 12.9272 8.76639 14.3304 10.4972 14.3304Z" stroke="black" stroke-width="1.5" stroke-linecap="round" stroke-linejoin="round"/>
</svg>
