<svg width="21" height="21" viewBox="0 0 21 21" fill="none" xmlns="http://www.w3.org/2000/svg">
<path d="M13.981 17.4645H10.4989C5.49874 17.4645 1.44531 15.9055 1.44531 13.9823C1.44531 13.1983 2.11896 12.4748 3.25578 11.8928" stroke="black" stroke-width="1.5" stroke-linecap="round" stroke-linejoin="round"/>
<path d="M16.7656 16.4951C18.4826 15.8613 19.5513 14.9698 19.5513 13.9823C19.5513 13.1983 18.8778 12.4748 17.7409 11.8928" stroke="black" stroke-width="1.5" stroke-linecap="round" stroke-linejoin="round"/>
<path d="M11.8906 15.375L13.9799 17.4643L11.8906 19.5536" stroke="black" stroke-width="1.5" stroke-linecap="round" stroke-linejoin="round"/>
<path d="M15.375 7.71432C15.375 7.34491 15.2282 6.99063 14.967 6.72942C14.7059 6.46821 14.3516 6.32146 13.9821 6.32146H13.2857L11.8929 4.23218H9.10714L7.71429 6.32146H7.01786C6.64844 6.32146 6.29417 6.46821 6.03295 6.72942C5.77175 6.99063 5.625 7.34491 5.625 7.71432V11.1965C5.625 11.5659 5.77175 11.9202 6.03295 12.1814C6.29417 12.4426 6.64844 12.5893 7.01786 12.5893H13.9821C14.3516 12.5893 14.7059 12.4426 14.967 12.1814C15.2282 11.9202 15.375 11.5659 15.375 11.1965V7.71432Z" stroke="black" stroke-width="1.5" stroke-linecap="round" stroke-linejoin="round"/>
<path d="M10.4989 9.6296C10.2104 9.6296 9.97656 9.39576 9.97656 9.10728C9.97656 8.81881 10.2104 8.58496 10.4989 8.58496" stroke="black" stroke-width="1.5" stroke-linecap="round" stroke-linejoin="round"/>
<path d="M10.5 9.6296C10.7885 9.6296 11.0223 9.39576 11.0223 9.10728C11.0223 8.81881 10.7885 8.58496 10.5 8.58496" stroke="black" stroke-width="1.5" stroke-linecap="round" stroke-linejoin="round"/>
</svg>
