<svg width="21" height="21" viewBox="0 0 21 21" fill="none" xmlns="http://www.w3.org/2000/svg">
<g clip-path="url(#clip0_146_398620)">
<path d="M14.6775 9.10725C14.6775 8.73783 14.5307 8.38356 14.2695 8.12234C14.0083 7.86114 13.654 7.71439 13.2846 7.71439H12.5882L11.5435 6.32153H9.45424L8.4096 7.71439H7.71317C7.34376 7.71439 6.98948 7.86114 6.72827 8.12234C6.46706 8.38356 6.32031 8.73783 6.32031 9.10725V11.893C6.32031 12.2624 6.46706 12.6166 6.72827 12.8779C6.98948 13.1391 7.34376 13.2858 7.71317 13.2858H13.2846C13.654 13.2858 14.0083 13.1391 14.2695 12.8779C14.5307 12.6166 14.6775 12.2624 14.6775 11.893V9.10725Z" stroke="black" stroke-width="1.5" stroke-linecap="round" stroke-linejoin="round"/>
<path d="M10.4872 10.8484C10.1987 10.8484 9.96484 10.6145 9.96484 10.326C9.96484 10.0376 10.1987 9.80371 10.4872 9.80371" stroke="black" stroke-width="1.5" stroke-linecap="round" stroke-linejoin="round"/>
<path d="M10.4883 10.8484C10.7768 10.8484 11.0106 10.6145 11.0106 10.326C11.0106 10.0376 10.7768 9.80371 10.4883 9.80371" stroke="black" stroke-width="1.5" stroke-linecap="round" stroke-linejoin="round"/>
<path d="M19.5539 10.5C19.5539 15.5002 15.5005 19.5536 10.5003 19.5536C6.73412 19.5536 3.50501 17.254 2.14062 13.9821" stroke="black" stroke-width="1.5" stroke-linecap="round" stroke-linejoin="round"/>
<path d="M1.44531 10.5001C1.44531 5.49996 5.49874 1.44653 10.4989 1.44653C14.2651 1.44653 17.4942 3.74621 18.8585 7.01796" stroke="black" stroke-width="1.5" stroke-linecap="round" stroke-linejoin="round"/>
<path d="M19.5513 4.23218V7.01789H16.7656" stroke="black" stroke-width="1.5" stroke-linecap="round" stroke-linejoin="round"/>
<path d="M1.44531 16.7679V13.9822H4.23103" stroke="black" stroke-width="1.5" stroke-linecap="round" stroke-linejoin="round"/>
</g>
<defs>
<clipPath id="clip0_146_398620">
<rect width="21" height="21" fill="white"/>
</clipPath>
</defs>
</svg>
