<svg width="21" height="21" viewBox="0 0 21 21" fill="none" xmlns="http://www.w3.org/2000/svg">
<g clip-path="url(#clip0_146_399134)">
<path d="M10.4989 19.5537C15.4991 19.5537 19.5525 15.5003 19.5525 10.5001C19.5525 5.49996 15.4991 1.44653 10.4989 1.44653C5.49874 1.44653 1.44531 5.49996 1.44531 10.5001C1.44531 15.5003 5.49874 19.5537 10.4989 19.5537Z" stroke="black" stroke-width="1.5" stroke-linecap="round" stroke-linejoin="round"/>
<path d="M11.7506 13.077C11.5582 13.077 11.4023 12.9211 11.4023 12.7288C11.4023 12.5365 11.5582 12.3806 11.7506 12.3806" stroke="black" stroke-width="1.5" stroke-linecap="round" stroke-linejoin="round"/>
<path d="M11.75 13.077C11.9423 13.077 12.0982 12.9211 12.0982 12.7288C12.0982 12.5365 11.9423 12.3806 11.75 12.3806" stroke="black" stroke-width="1.5" stroke-linecap="round" stroke-linejoin="round"/>
<path d="M9.24665 13.077C9.05434 13.077 8.89844 12.9211 8.89844 12.7288C8.89844 12.5365 9.05434 12.3806 9.24665 12.3806" stroke="black" stroke-width="1.5" stroke-linecap="round" stroke-linejoin="round"/>
<path d="M9.24609 13.077C9.43841 13.077 9.59431 12.9211 9.59431 12.7288C9.59431 12.5365 9.43841 12.3806 9.24609 12.3806" stroke="black" stroke-width="1.5" stroke-linecap="round" stroke-linejoin="round"/>
<path d="M10.5006 4.99819C10.3082 4.99819 10.1523 4.84228 10.1523 4.64997C10.1523 4.45766 10.3082 4.30176 10.5006 4.30176" stroke="black" stroke-width="1.5" stroke-linecap="round" stroke-linejoin="round"/>
<path d="M10.5 4.99819C10.6923 4.99819 10.8482 4.84228 10.8482 4.64997C10.8482 4.45766 10.6923 4.30176 10.5 4.30176" stroke="black" stroke-width="1.5" stroke-linecap="round" stroke-linejoin="round"/>
<path d="M10.5006 16.6984C10.3082 16.6984 10.1523 16.5425 10.1523 16.3502C10.1523 16.1578 10.3082 16.002 10.5006 16.002" stroke="black" stroke-width="1.5" stroke-linecap="round" stroke-linejoin="round"/>
<path d="M10.5 16.6984C10.6923 16.6984 10.8482 16.5425 10.8482 16.3502C10.8482 16.1578 10.6923 16.002 10.5 16.002" stroke="black" stroke-width="1.5" stroke-linecap="round" stroke-linejoin="round"/>
<path d="M4.649 10.8483C4.45668 10.8483 4.30078 10.6924 4.30078 10.5001C4.30078 10.3078 4.45668 10.1519 4.649 10.1519" stroke="black" stroke-width="1.5" stroke-linecap="round" stroke-linejoin="round"/>
<path d="M4.64844 10.8483C4.84075 10.8483 4.99665 10.6924 4.99665 10.5001C4.99665 10.3078 4.84075 10.1519 4.64844 10.1519" stroke="black" stroke-width="1.5" stroke-linecap="round" stroke-linejoin="round"/>
<path d="M7.85212 10.8483C7.65981 10.8483 7.50391 10.6924 7.50391 10.5001C7.50391 10.3078 7.65981 10.1519 7.85212 10.1519" stroke="black" stroke-width="1.5" stroke-linecap="round" stroke-linejoin="round"/>
<path d="M7.85156 10.8483C8.04387 10.8483 8.19978 10.6924 8.19978 10.5001C8.19978 10.3078 8.04387 10.1519 7.85156 10.1519" stroke="black" stroke-width="1.5" stroke-linecap="round" stroke-linejoin="round"/>
<path d="M13.0045 10.8483C12.8122 10.8483 12.6562 10.6924 12.6562 10.5001C12.6562 10.3078 12.8122 10.1519 13.0045 10.1519" stroke="black" stroke-width="1.5" stroke-linecap="round" stroke-linejoin="round"/>
<path d="M13.0039 10.8483C13.1962 10.8483 13.3521 10.6924 13.3521 10.5001C13.3521 10.3078 13.1962 10.1519 13.0039 10.1519" stroke="black" stroke-width="1.5" stroke-linecap="round" stroke-linejoin="round"/>
<path d="M11.7506 8.61977C11.5582 8.61977 11.4023 8.46388 11.4023 8.27155C11.4023 8.07924 11.5582 7.92334 11.7506 7.92334" stroke="black" stroke-width="1.5" stroke-linecap="round" stroke-linejoin="round"/>
<path d="M11.75 8.61977C11.9423 8.61977 12.0982 8.46388 12.0982 8.27155C12.0982 8.07924 11.9423 7.92334 11.75 7.92334" stroke="black" stroke-width="1.5" stroke-linecap="round" stroke-linejoin="round"/>
<path d="M9.24665 8.61977C9.05434 8.61977 8.89844 8.46388 8.89844 8.27155C8.89844 8.07924 9.05434 7.92334 9.24665 7.92334" stroke="black" stroke-width="1.5" stroke-linecap="round" stroke-linejoin="round"/>
<path d="M9.24609 8.61977C9.43841 8.61977 9.59431 8.46388 9.59431 8.27155C9.59431 8.07924 9.43841 7.92334 9.24609 7.92334" stroke="black" stroke-width="1.5" stroke-linecap="round" stroke-linejoin="round"/>
<path d="M16.2115 10.8483C16.0191 10.8483 15.8633 10.6924 15.8633 10.5001C15.8633 10.3078 16.0191 10.1519 16.2115 10.1519" stroke="black" stroke-width="1.5" stroke-linecap="round" stroke-linejoin="round"/>
<path d="M16.2109 10.8483C16.4033 10.8483 16.5592 10.6924 16.5592 10.5001C16.5592 10.3078 16.4033 10.1519 16.2109 10.1519" stroke="black" stroke-width="1.5" stroke-linecap="round" stroke-linejoin="round"/>
<path d="M14.6763 6.53041C14.484 6.53041 14.3281 6.37452 14.3281 6.1822C14.3281 5.98989 14.484 5.83398 14.6763 5.83398" stroke="black" stroke-width="1.5" stroke-linecap="round" stroke-linejoin="round"/>
<path d="M14.6758 6.53041C14.8681 6.53041 15.024 6.37452 15.024 6.1822C15.024 5.98989 14.8681 5.83398 14.6758 5.83398" stroke="black" stroke-width="1.5" stroke-linecap="round" stroke-linejoin="round"/>
<path d="M6.18025 6.53041C5.98793 6.53041 5.83203 6.37452 5.83203 6.1822C5.83203 5.98989 5.98793 5.83398 6.18025 5.83398" stroke="black" stroke-width="1.5" stroke-linecap="round" stroke-linejoin="round"/>
<path d="M6.17969 6.53041C6.37201 6.53041 6.5279 6.37452 6.5279 6.1822C6.5279 5.98989 6.37201 5.83398 6.17969 5.83398" stroke="black" stroke-width="1.5" stroke-linecap="round" stroke-linejoin="round"/>
<path d="M14.6763 15.1661C14.484 15.1661 14.3281 15.0102 14.3281 14.8179C14.3281 14.6256 14.484 14.4697 14.6763 14.4697" stroke="black" stroke-width="1.5" stroke-linecap="round" stroke-linejoin="round"/>
<path d="M14.6758 15.1661C14.8681 15.1661 15.024 15.0102 15.024 14.8179C15.024 14.6256 14.8681 14.4697 14.6758 14.4697" stroke="black" stroke-width="1.5" stroke-linecap="round" stroke-linejoin="round"/>
<path d="M6.18025 15.1661C5.98793 15.1661 5.83203 15.0102 5.83203 14.8179C5.83203 14.6256 5.98793 14.4697 6.18025 14.4697" stroke="black" stroke-width="1.5" stroke-linecap="round" stroke-linejoin="round"/>
<path d="M6.17969 15.1661C6.37201 15.1661 6.5279 15.0102 6.5279 14.8179C6.5279 14.6256 6.37201 14.4697 6.17969 14.4697" stroke="black" stroke-width="1.5" stroke-linecap="round" stroke-linejoin="round"/>
</g>
<defs>
<clipPath id="clip0_146_399134">
<rect width="21" height="21" fill="white"/>
</clipPath>
</defs>
</svg>
