<svg width="21" height="21" viewBox="0 0 21 21" fill="none" xmlns="http://www.w3.org/2000/svg">
<path d="M4.54799 1.63452H16.45C16.45 1.63452 17.1464 1.63452 17.1464 2.33095V11.4249C17.1464 11.4249 17.1464 12.1213 16.45 12.1213H4.54799C4.54799 12.1213 3.85156 12.1213 3.85156 11.4249V2.33095C3.85156 2.33095 3.85156 1.63452 4.54799 1.63452Z" stroke="black" stroke-width="1.5" stroke-linecap="round" stroke-linejoin="round"/>
<path d="M3.08705 15.2539H17.9614C17.9614 15.2539 18.6578 15.2539 18.6578 15.9503V18.8335C18.6578 18.8335 18.6578 19.53 17.9614 19.53H3.08705C3.08705 19.53 2.39062 19.53 2.39062 18.8335V15.9503C2.39062 15.9503 2.39062 15.2539 3.08705 15.2539Z" stroke="black" stroke-width="1.5" stroke-linecap="round" stroke-linejoin="round"/>
<path d="M9.6875 17.3918H11.3125" stroke="black" stroke-width="1.5" stroke-linecap="round" stroke-linejoin="round"/>
<path d="M12.2188 12.1213L13.3981 15.2537" stroke="black" stroke-width="1.5" stroke-linecap="round" stroke-linejoin="round"/>
<path d="M8.82774 12.1213L7.64844 15.2537" stroke="black" stroke-width="1.5" stroke-linecap="round" stroke-linejoin="round"/>
<path d="M12.0557 5.25244C12.0021 5.10106 11.9196 4.96342 11.8147 4.8462C11.5915 4.59686 11.2672 4.43994 10.9063 4.43994H9.9629C9.36207 4.43994 8.875 4.92701 8.875 5.52783C8.875 6.03908 9.23099 6.48135 9.73042 6.59061L11.1667 6.90478C11.7262 7.02719 12.125 7.523 12.125 8.09575C12.125 8.76884 11.5794 9.31494 10.9063 9.31494H10.0938C9.5631 9.31494 9.11166 8.97581 8.94435 8.50245" stroke="black" stroke-width="1.5" stroke-linecap="round" stroke-linejoin="round"/>
</svg>
