<svg width="21" height="21" viewBox="0 0 21 21" fill="none" xmlns="http://www.w3.org/2000/svg">
<path d="M14.0211 7.49933C12.945 6.73766 11.7474 6.31245 10.5233 6.25732C9.3021 6.31592 8.10806 6.7428 7.03516 7.50432" stroke="black" stroke-width="1.5" stroke-linecap="round" stroke-linejoin="round"/>
<path d="M3.67188 4.68946C4.25859 4.19171 4.8978 3.75511 5.57995 3.3881C7.09651 2.5722 8.78317 2.12304 10.5047 2.07666C12.2279 2.12365 13.9161 2.5749 15.4329 3.39402C16.1104 3.75983 16.7451 4.19443 17.3281 4.68946" stroke="black" stroke-width="1.5" stroke-linecap="round" stroke-linejoin="round"/>
<path d="M14.9766 16.2836H16.7954V17.4961C16.7954 18.5007 15.9811 19.3149 14.9766 19.3149H13.7641C12.7596 19.3149 11.9453 18.5007 11.9453 17.4961V13.8586C11.9453 12.8541 12.7596 12.0398 13.7641 12.0398H14.9766C15.7684 12.0398 16.4422 12.5459 16.6919 13.2523" stroke="black" stroke-width="1.5" stroke-linecap="round" stroke-linejoin="round"/>
<path d="M9.73445 17.4963H4.11255C3.86917 17.4963 3.67188 17.2991 3.67188 17.0556C3.67188 16.9489 3.71061 16.8459 3.78091 16.7655L7.79107 12.1825C7.87025 12.092 7.98466 12.04 8.10491 12.04C8.33523 12.04 8.52194 12.2268 8.52194 12.4571V19.3151" stroke="black" stroke-width="1.5" stroke-linecap="round" stroke-linejoin="round"/>
</svg>
