<svg width="21" height="21" viewBox="0 0 21 21" fill="none" xmlns="http://www.w3.org/2000/svg">
<path d="M14.6758 2.83936H6.31864C5.54939 2.83936 4.92578 3.46297 4.92578 4.23221V11.1965C4.92578 11.9657 5.54939 12.5894 6.31864 12.5894H14.6758C15.4451 12.5894 16.0686 11.9657 16.0686 11.1965V4.23221C16.0686 3.46297 15.4451 2.83936 14.6758 2.83936Z" stroke="black" stroke-width="1.5" stroke-linecap="round" stroke-linejoin="round"/>
<path d="M4.92746 7.01782H2.83817C2.46876 7.01782 2.11448 7.16457 1.85327 7.42578C1.59206 7.68699 1.44531 8.04127 1.44531 8.41068V14.6785C1.44531 15.0479 1.59206 15.4023 1.85327 15.6634C2.11448 15.9246 2.46876 16.0714 2.83817 16.0714H18.1596C18.529 16.0714 18.8833 15.9246 19.1445 15.6634C19.4056 15.4023 19.5525 15.0479 19.5525 14.6785V8.41068C19.5525 8.04127 19.4056 7.68699 19.1445 7.42578C18.8833 7.16457 18.529 7.01782 18.1596 7.01782H16.0703" stroke="black" stroke-width="1.5" stroke-linecap="round" stroke-linejoin="round"/>
<path d="M6.32143 16.0715L5.625 19.5537" stroke="black" stroke-width="1.5" stroke-linecap="round" stroke-linejoin="round"/>
<path d="M14.6758 16.0715L15.3722 19.5537" stroke="black" stroke-width="1.5" stroke-linecap="round" stroke-linejoin="round"/>
</svg>
