<svg width="21" height="21" viewBox="0 0 21 21" fill="none" xmlns="http://www.w3.org/2000/svg">
<g clip-path="url(#clip0_146_403099)">
<path d="M7.01674 18.1608L1.44531 19.5537L2.83817 15.3751V2.83939C2.83817 2.46998 2.98492 2.1157 3.24612 1.85449C3.50734 1.59328 3.86161 1.44653 4.23103 1.44653H18.1596C18.529 1.44653 18.8833 1.59328 19.1445 1.85449C19.4056 2.1157 19.5525 2.46998 19.5525 2.83939V16.768C19.5525 17.1373 19.4056 17.4917 19.1445 17.7529C18.8833 18.014 18.529 18.1608 18.1596 18.1608H7.01674Z" stroke="black" stroke-width="1.5" stroke-linecap="round" stroke-linejoin="round"/>
<path d="M12.1125 13.2613C11.5974 13.7584 10.7998 13.7584 10.2848 13.2613L7.21308 10.2966C5.15819 8.29467 7.84151 3.87176 11.1986 7.14222C14.5498 3.8775 17.2331 8.30049 15.1841 10.2966L12.1125 13.2613Z" stroke="black" stroke-width="1.5" stroke-linecap="round" stroke-linejoin="round"/>
</g>
<defs>
<clipPath id="clip0_146_403099">
<rect width="21" height="21" fill="white"/>
</clipPath>
</defs>
</svg>
