<svg width="21" height="21" viewBox="0 0 21 21" fill="none" xmlns="http://www.w3.org/2000/svg">
<g clip-path="url(#clip0_146_403048)">
<path d="M7.01674 18.1608L1.44531 19.5537L2.83817 15.3751V2.83939C2.83817 2.46998 2.98492 2.1157 3.24612 1.85449C3.50734 1.59328 3.86161 1.44653 4.23103 1.44653H18.1596C18.529 1.44653 18.8833 1.59328 19.1445 1.85449C19.4056 2.1157 19.5525 2.46998 19.5525 2.83939V16.768C19.5525 17.1373 19.4056 17.4917 19.1445 17.7529C18.8833 18.014 18.529 18.1608 18.1596 18.1608H7.01674Z" stroke="black" stroke-width="1.5" stroke-linecap="round" stroke-linejoin="round"/>
<path d="M8.06306 6.32143C7.87075 6.32143 7.71484 6.16553 7.71484 5.97321C7.71484 5.7809 7.87075 5.625 8.06306 5.625" stroke="black" stroke-width="1.5" stroke-linecap="round" stroke-linejoin="round"/>
<path d="M8.0625 6.32143C8.25481 6.32143 8.41071 6.16553 8.41071 5.97321C8.41071 5.7809 8.25481 5.625 8.0625 5.625" stroke="black" stroke-width="1.5" stroke-linecap="round" stroke-linejoin="round"/>
<path d="M14.3287 6.32143C14.1364 6.32143 13.9805 6.16553 13.9805 5.97321C13.9805 5.7809 14.1364 5.625 14.3287 5.625" stroke="black" stroke-width="1.5" stroke-linecap="round" stroke-linejoin="round"/>
<path d="M14.3281 6.32143C14.5204 6.32143 14.6763 6.16553 14.6763 5.97321C14.6763 5.7809 14.5204 5.625 14.3281 5.625" stroke="black" stroke-width="1.5" stroke-linecap="round" stroke-linejoin="round"/>
<path d="M11.1953 14.6787C13.8877 14.6787 16.0703 12.4961 16.0703 9.80371H6.32031C6.32031 12.4961 8.50292 14.6787 11.1953 14.6787Z" stroke="black" stroke-width="1.5" stroke-linecap="round" stroke-linejoin="round"/>
</g>
<defs>
<clipPath id="clip0_146_403048">
<rect width="21" height="21" fill="white"/>
</clipPath>
</defs>
</svg>
