<svg width="21" height="21" viewBox="0 0 21 21" fill="none" xmlns="http://www.w3.org/2000/svg">
<g clip-path="url(#clip0_146_403160)">
<path d="M7.01674 18.1607L1.44531 19.5536L2.83817 15.375V2.83927C2.83817 2.46985 2.98492 2.11558 3.24612 1.85437C3.50734 1.59316 3.86161 1.44641 4.23103 1.44641H18.1596C18.529 1.44641 18.8833 1.59316 19.1445 1.85437C19.4056 2.11558 19.5525 2.46985 19.5525 2.83927V16.7678C19.5525 17.1372 19.4056 17.4916 19.1445 17.7527C18.8833 18.0139 18.529 18.1607 18.1596 18.1607H7.01674Z" stroke="black" stroke-width="1.5" stroke-linecap="round" stroke-linejoin="round"/>
<path d="M11.1953 4.92859V9.80359" stroke="black" stroke-width="1.5" stroke-linecap="round" stroke-linejoin="round"/>
<path d="M11.1959 13.6339C11.0036 13.6339 10.8477 13.478 10.8477 13.2857C10.8477 13.0934 11.0036 12.9375 11.1959 12.9375" stroke="black" stroke-width="1.5" stroke-linecap="round" stroke-linejoin="round"/>
<path d="M11.1953 13.6339C11.3876 13.6339 11.5435 13.478 11.5435 13.2857C11.5435 13.0934 11.3876 12.9375 11.1953 12.9375" stroke="black" stroke-width="1.5" stroke-linecap="round" stroke-linejoin="round"/>
</g>
<defs>
<clipPath id="clip0_146_403160">
<rect width="21" height="21" fill="white"/>
</clipPath>
</defs>
</svg>
