<svg width="21" height="21" viewBox="0 0 21 21" fill="none" xmlns="http://www.w3.org/2000/svg">
<g clip-path="url(#clip0_146_403038)">
<path d="M10.4967 1.53052C8.87428 1.53102 7.28237 1.97159 5.89052 2.8053C4.49868 3.639 3.35903 4.83462 2.59296 6.2648C1.82688 7.69499 1.46308 9.30619 1.5403 10.9268C1.61752 12.5474 2.13286 14.1167 3.03144 15.4675L1.52734 19.4693L6.56399 18.5585C7.77681 19.1512 9.10774 19.4625 10.4576 19.4692C11.8075 19.4759 13.1414 19.1778 14.36 18.5971C15.5787 18.0166 16.6505 17.1683 17.4957 16.1157C18.3409 15.0633 18.9376 13.8336 19.2414 12.5183C19.5452 11.2031 19.5481 9.8362 19.25 8.51965C18.9521 7.20307 18.3607 5.97076 17.5201 4.91456C16.6795 3.85834 15.6115 3.00548 14.3953 2.41956C13.1792 1.83362 11.8466 1.52972 10.4967 1.53052Z" stroke="black" stroke-width="1.5" stroke-linecap="round" stroke-linejoin="round"/>
<path d="M5.90234 11.8928C6.59877 14.4 9.38449 15.9321 11.8916 15.2357C13.4238 14.6785 14.6773 13.425 15.0953 11.8928" stroke="black" stroke-width="1.5" stroke-linecap="round" stroke-linejoin="round"/>
<path d="M7.36384 8.41054C7.17153 8.41054 7.01562 8.25464 7.01562 8.06233C7.01562 7.87001 7.17153 7.71411 7.36384 7.71411" stroke="black" stroke-width="1.5" stroke-linecap="round" stroke-linejoin="round"/>
<path d="M7.36328 8.41054C7.55559 8.41054 7.7115 8.25464 7.7115 8.06233C7.7115 7.87001 7.55559 7.71411 7.36328 7.71411" stroke="black" stroke-width="1.5" stroke-linecap="round" stroke-linejoin="round"/>
<path d="M13.6334 8.41054C13.4411 8.41054 13.2852 8.25464 13.2852 8.06233C13.2852 7.87001 13.4411 7.71411 13.6334 7.71411" stroke="black" stroke-width="1.5" stroke-linecap="round" stroke-linejoin="round"/>
<path d="M13.6328 8.41054C13.8251 8.41054 13.981 8.25464 13.981 8.06233C13.981 7.87001 13.8251 7.71411 13.6328 7.71411" stroke="black" stroke-width="1.5" stroke-linecap="round" stroke-linejoin="round"/>
</g>
<defs>
<clipPath id="clip0_146_403038">
<rect width="21" height="21" fill="white"/>
</clipPath>
</defs>
</svg>
