<svg width="21" height="21" viewBox="0 0 21 21" fill="none" xmlns="http://www.w3.org/2000/svg">
<g clip-path="url(#clip0_146_403085)">
<path d="M11.3041 14.3319C13.8042 14.3319 15.831 12.3052 15.831 9.80511C15.831 7.30502 13.8042 5.27832 11.3041 5.27832C8.80405 5.27832 6.77734 7.30502 6.77734 9.80511C6.77734 12.3052 8.80405 14.3319 11.3041 14.3319Z" stroke="black" stroke-width="1.5" stroke-linecap="round" stroke-linejoin="round"/>
<path d="M14.5087 13.0087L8.10156 6.60156" stroke="black" stroke-width="1.5" stroke-linecap="round" stroke-linejoin="round"/>
<path d="M7.01674 18.1608L1.44531 19.5537L2.83817 15.3751V2.83939C2.83817 2.46998 2.98492 2.1157 3.24612 1.85449C3.50734 1.59328 3.86161 1.44653 4.23103 1.44653H18.1596C18.529 1.44653 18.8833 1.59328 19.1445 1.85449C19.4056 2.1157 19.5525 2.46998 19.5525 2.83939V16.768C19.5525 17.1373 19.4056 17.4917 19.1445 17.7529C18.8833 18.014 18.529 18.1608 18.1596 18.1608H7.01674Z" stroke="black" stroke-width="1.5" stroke-linecap="round" stroke-linejoin="round"/>
</g>
<defs>
<clipPath id="clip0_146_403085">
<rect width="21" height="21" fill="white"/>
</clipPath>
</defs>
</svg>
