<svg width="21" height="21" viewBox="0 0 21 21" fill="none" xmlns="http://www.w3.org/2000/svg">
<g clip-path="url(#clip0_146_403193)">
<path d="M7.01674 18.1607L1.44531 19.5536L2.83817 15.375V2.83927C2.83817 2.46985 2.98492 2.11558 3.24612 1.85437C3.50734 1.59316 3.86161 1.44641 4.23103 1.44641H18.1596C18.529 1.44641 18.8833 1.59316 19.1445 1.85437C19.4056 2.11558 19.5525 2.46985 19.5525 2.83927V16.7678C19.5525 17.1372 19.4056 17.4916 19.1445 17.7527C18.8833 18.0139 18.529 18.1607 18.1596 18.1607H7.01674Z" stroke="black" stroke-width="1.5" stroke-linecap="round" stroke-linejoin="round"/>
<path d="M11.1959 10.1518C11.0036 10.1518 10.8477 9.99585 10.8477 9.80354C10.8477 9.61122 11.0036 9.45532 11.1959 9.45532" stroke="black" stroke-width="1.5" stroke-linecap="round" stroke-linejoin="round"/>
<path d="M11.1953 10.1518C11.3876 10.1518 11.5435 9.99585 11.5435 9.80354C11.5435 9.61122 11.3876 9.45532 11.1953 9.45532" stroke="black" stroke-width="1.5" stroke-linecap="round" stroke-linejoin="round"/>
<path d="M7.36384 10.1518C7.17153 10.1518 7.01562 9.99585 7.01562 9.80354C7.01562 9.61122 7.17153 9.45532 7.36384 9.45532" stroke="black" stroke-width="1.5" stroke-linecap="round" stroke-linejoin="round"/>
<path d="M7.36328 10.1518C7.55559 10.1518 7.7115 9.99585 7.7115 9.80354C7.7115 9.61122 7.55559 9.45532 7.36328 9.45532" stroke="black" stroke-width="1.5" stroke-linecap="round" stroke-linejoin="round"/>
<path d="M15.024 10.1518C14.8316 10.1518 14.6758 9.99585 14.6758 9.80354C14.6758 9.61122 14.8316 9.45532 15.024 9.45532" stroke="black" stroke-width="1.5" stroke-linecap="round" stroke-linejoin="round"/>
<path d="M15.0234 10.1518C15.2158 10.1518 15.3717 9.99585 15.3717 9.80354C15.3717 9.61122 15.2158 9.45532 15.0234 9.45532" stroke="black" stroke-width="1.5" stroke-linecap="round" stroke-linejoin="round"/>
</g>
<defs>
<clipPath id="clip0_146_403193">
<rect width="21" height="21" fill="white"/>
</clipPath>
</defs>
</svg>
