<svg width="21" height="21" viewBox="0 0 21 21" fill="none" xmlns="http://www.w3.org/2000/svg">
<g clip-path="url(#clip0_146_403146)">
<path d="M7.01674 18.1607L1.44531 19.5536L2.83817 15.375V2.83927C2.83817 2.46985 2.98492 2.11558 3.24612 1.85437C3.50734 1.59316 3.86161 1.44641 4.23103 1.44641H18.1596C18.529 1.44641 18.8833 1.59316 19.1445 1.85437C19.4056 2.11558 19.5525 2.46985 19.5525 2.83927V16.7678C19.5525 17.1372 19.4056 17.4916 19.1445 17.7527C18.8833 18.0139 18.529 18.1607 18.1596 18.1607H7.01674Z" stroke="black" stroke-width="1.5" stroke-linecap="round" stroke-linejoin="round"/>
<path d="M8.06306 6.32143C7.87075 6.32143 7.71484 6.16553 7.71484 5.97321C7.71484 5.7809 7.87075 5.625 8.06306 5.625" stroke="black" stroke-width="1.5" stroke-linecap="round" stroke-linejoin="round"/>
<path d="M8.0625 6.32143C8.25481 6.32143 8.41071 6.16553 8.41071 5.97321C8.41071 5.7809 8.25481 5.625 8.0625 5.625" stroke="black" stroke-width="1.5" stroke-linecap="round" stroke-linejoin="round"/>
<path d="M14.3287 6.32143C14.1364 6.32143 13.9805 6.16553 13.9805 5.97321C13.9805 5.7809 14.1364 5.625 14.3287 5.625" stroke="black" stroke-width="1.5" stroke-linecap="round" stroke-linejoin="round"/>
<path d="M14.3281 6.32143C14.5204 6.32143 14.6763 6.16553 14.6763 5.97321C14.6763 5.7809 14.5204 5.625 14.3281 5.625" stroke="black" stroke-width="1.5" stroke-linecap="round" stroke-linejoin="round"/>
<path d="M11.1953 14.6786C13.8877 14.6786 16.0703 12.496 16.0703 9.80359H6.32031C6.32031 12.496 8.50292 14.6786 11.1953 14.6786Z" stroke="black" stroke-width="1.5" stroke-linecap="round" stroke-linejoin="round"/>
</g>
<defs>
<clipPath id="clip0_146_403146">
<rect width="21" height="21" fill="white"/>
</clipPath>
</defs>
</svg>
