<svg width="21" height="21" viewBox="0 0 21 21" fill="none" xmlns="http://www.w3.org/2000/svg">
<g clip-path="url(#clip0_146_403107)">
<path d="M7.71205 9.10718H14.6763C15.0942 9.10718 15.3728 9.38575 15.3728 9.80361V13.9822C15.3728 14.4 15.0942 14.6786 14.6763 14.6786H7.71205C7.2942 14.6786 7.01562 14.4 7.01562 13.9822V9.80361C7.01562 9.38575 7.2942 9.10718 7.71205 9.10718Z" stroke="black" stroke-width="1.5" stroke-linecap="round" stroke-linejoin="round"/>
<path d="M8.41016 9.10716V7.7143C8.41016 6.18216 9.66373 4.92859 11.1959 4.92859C12.728 4.92859 13.9816 6.18216 13.9816 7.7143V9.10716" stroke="black" stroke-width="1.5" stroke-linecap="round" stroke-linejoin="round"/>
<path d="M7.01674 18.1607L1.44531 19.5536L2.83817 15.375V2.83927C2.83817 2.46985 2.98492 2.11558 3.24612 1.85437C3.50734 1.59316 3.86161 1.44641 4.23103 1.44641H18.1596C18.529 1.44641 18.8833 1.59316 19.1445 1.85437C19.4056 2.11558 19.5525 2.46985 19.5525 2.83927V16.7678C19.5525 17.1372 19.4056 17.4916 19.1445 17.7527C18.8833 18.0139 18.529 18.1607 18.1596 18.1607H7.01674Z" stroke="black" stroke-width="1.5" stroke-linecap="round" stroke-linejoin="round"/>
</g>
<defs>
<clipPath id="clip0_146_403107">
<rect width="21" height="21" fill="white"/>
</clipPath>
</defs>
</svg>
