<svg width="21" height="21" viewBox="0 0 21 21" fill="none" xmlns="http://www.w3.org/2000/svg">
<g clip-path="url(#clip0_146_403073)">
<path d="M7.01674 18.1608L1.44531 19.5537L2.83817 15.3751V2.83939C2.83817 2.46998 2.98492 2.1157 3.24612 1.85449C3.50734 1.59328 3.86161 1.44653 4.23103 1.44653H18.1596C18.529 1.44653 18.8833 1.59328 19.1445 1.85449C19.4056 2.1157 19.5525 2.46998 19.5525 2.83939V16.768C19.5525 17.1373 19.4056 17.4917 19.1445 17.7529C18.8833 18.014 18.529 18.1608 18.1596 18.1608H7.01674Z" stroke="black" stroke-width="1.5" stroke-linecap="round" stroke-linejoin="round"/>
<path d="M10.3128 14.659C9.72987 14.9056 9.08359 14.9602 8.46758 14.815C7.85154 14.6697 7.29773 14.3322 6.88636 13.8512L6.45458 13.4194C6.26674 13.2686 6.14446 13.0511 6.11331 12.8123C6.08215 12.5735 6.14455 12.3318 6.28743 12.138L7.68029 10.7451C7.87418 10.6022 8.11578 10.5398 8.35461 10.571C8.59343 10.6021 8.81097 10.7244 8.96172 10.9122C9.11247 11.1001 9.32999 11.2224 9.56881 11.2535C9.80764 11.2846 10.0493 11.2223 10.2431 11.0794L12.4717 8.85081C12.6146 8.65692 12.677 8.4153 12.6458 8.17649C12.6147 7.93767 12.4924 7.72013 12.3046 7.56938C12.1167 7.41863 11.9945 7.20111 11.9633 6.96228C11.9322 6.72346 11.9945 6.48184 12.1374 6.28795L13.5303 4.89509C13.7242 4.75222 13.9658 4.68983 14.2046 4.72097C14.4434 4.75213 14.661 4.87441 14.8117 5.06224L15.2435 5.49402C15.7227 5.9067 16.0589 6.46047 16.204 7.076C16.3492 7.69152 16.2957 8.33718 16.0514 8.92045C14.639 11.2757 12.668 13.2467 10.3128 14.659Z" stroke="black" stroke-width="1.5" stroke-linecap="round" stroke-linejoin="round"/>
</g>
<defs>
<clipPath id="clip0_146_403073">
<rect width="21" height="21" fill="white"/>
</clipPath>
</defs>
</svg>
