<svg width="21" height="21" viewBox="0 0 21 21" fill="none" xmlns="http://www.w3.org/2000/svg">
<g clip-path="url(#clip0_146_403025)">
<path d="M6.52189 18.6356C7.72235 19.2236 9.07207 19.5537 10.4989 19.5537C15.4991 19.5537 19.5525 15.5003 19.5525 10.5001C19.5525 5.49996 15.4991 1.44653 10.4989 1.44653C5.49874 1.44653 1.44531 5.49996 1.44531 10.5001C1.44531 12.3562 2.00388 14.0819 2.96208 15.5182M6.52189 18.6356L1.44531 19.5537L2.96208 15.5182M6.52189 18.6356L6.52924 18.6344M2.96208 15.5182L2.96353 15.5144" stroke="black" stroke-width="1.5" stroke-linecap="round" stroke-linejoin="round"/>
<path d="M9.61748 15.3554C9.03455 15.6019 8.38828 15.6565 7.77226 15.5112C7.15623 15.366 6.60242 15.0285 6.19105 14.5475L5.75926 14.1157C5.57142 13.9649 5.44914 13.7474 5.418 13.5086C5.38684 13.2697 5.44924 13.0281 5.59212 12.8342L6.98498 11.4414C7.17886 11.2985 7.42047 11.2361 7.6593 11.2673C7.89812 11.2984 8.11566 11.4207 8.26641 11.6085C8.41716 11.7964 8.63468 11.9186 8.8735 11.9498C9.11233 11.9809 9.35395 11.9185 9.54784 11.7757L11.7764 9.5471C11.9193 9.35321 11.9817 9.11159 11.9505 8.87277C11.9194 8.63396 11.7971 8.41642 11.6093 8.26567C11.4214 8.11492 11.2991 7.8974 11.268 7.65857C11.2368 7.41975 11.2992 7.17813 11.4421 6.98424L12.835 5.59138C13.0289 5.4485 13.2705 5.38612 13.5093 5.41726C13.7481 5.44842 13.9657 5.5707 14.1164 5.75853L14.5482 6.19031C15.0273 6.60299 15.3636 7.15676 15.5087 7.77229C15.6539 8.38781 15.6004 9.03347 15.3561 9.61674C13.9437 11.972 11.9727 13.943 9.61748 15.3554Z" stroke="black" stroke-width="1.5" stroke-linecap="round" stroke-linejoin="round"/>
</g>
<defs>
<clipPath id="clip0_146_403025">
<rect width="21" height="21" fill="white"/>
</clipPath>
</defs>
</svg>
