<svg width="21" height="21" viewBox="0 0 21 21" fill="none" xmlns="http://www.w3.org/2000/svg">
<g clip-path="url(#clip0_146_403021)">
<path d="M9.26347 1.5647C7.76014 1.77852 6.33514 2.3685 5.12062 3.27992C3.90612 4.19133 2.94141 5.39468 2.31599 6.77836C1.69057 8.16203 1.42468 9.68124 1.54297 11.1951C1.66126 12.7089 2.15991 14.1684 2.99267 15.4382L1.48047 19.5169L6.54428 18.6013C7.84637 19.239 9.2832 19.5528 10.7326 19.516C12.182 19.4793 13.6011 19.0932 14.8693 18.3903C16.1373 17.6875 17.2169 16.6887 18.0163 15.4791C18.8157 14.2695 19.3111 12.8847 19.4604 11.4426" stroke="black" stroke-width="1.5" stroke-linecap="round" stroke-linejoin="round"/>
<path d="M16.0465 8.41792C17.962 8.41792 19.5149 6.86508 19.5149 4.94956C19.5149 3.03404 17.962 1.4812 16.0465 1.4812C14.131 1.4812 12.5781 3.03404 12.5781 4.94956C12.5781 6.86508 14.131 8.41792 16.0465 8.41792Z" stroke="black" stroke-width="1.5" stroke-linecap="round" stroke-linejoin="round"/>
</g>
<defs>
<clipPath id="clip0_146_403021">
<rect width="21" height="21" fill="white"/>
</clipPath>
</defs>
</svg>
