<svg width="21" height="21" viewBox="0 0 21 21" fill="none" xmlns="http://www.w3.org/2000/svg">
<g clip-path="url(#clip0_146_403116)">
<path d="M7.01674 18.1607L1.44531 19.5536L2.83817 15.375V2.83927C2.83817 2.46985 2.98492 2.11558 3.24612 1.85437C3.50734 1.59316 3.86161 1.44641 4.23103 1.44641H18.1596C18.529 1.44641 18.8833 1.59316 19.1445 1.85437C19.4056 2.11558 19.5525 2.46985 19.5525 2.83927V16.7678C19.5525 17.1372 19.4056 17.4916 19.1445 17.7527C18.8833 18.0139 18.529 18.1607 18.1596 18.1607H7.01674Z" stroke="black" stroke-width="1.5" stroke-linecap="round" stroke-linejoin="round"/>
<path d="M10.3128 14.6589C9.72987 14.9055 9.08359 14.9601 8.46758 14.8148C7.85154 14.6696 7.29773 14.332 6.88636 13.851L6.45458 13.4193C6.26674 13.2685 6.14446 13.051 6.11331 12.8122C6.08215 12.5733 6.14455 12.3317 6.28743 12.1378L7.68029 10.745C7.87418 10.6021 8.11578 10.5397 8.35461 10.5709C8.59343 10.602 8.81097 10.7243 8.96172 10.9121C9.11247 11.1 9.32999 11.2222 9.56881 11.2534C9.80764 11.2845 10.0493 11.2221 10.2431 11.0793L12.4717 8.85069C12.6146 8.6568 12.677 8.41518 12.6458 8.17636C12.6147 7.93754 12.4924 7.72001 12.3046 7.56926C12.1167 7.41851 11.9945 7.20099 11.9633 6.96215C11.9322 6.72333 11.9945 6.48172 12.1374 6.28783L13.5303 4.89497C13.7242 4.75209 13.9658 4.68971 14.2046 4.72085C14.4434 4.75201 14.661 4.87429 14.8117 5.06212L15.2435 5.4939C15.7227 5.90658 16.0589 6.46035 16.204 7.07588C16.3492 7.6914 16.2957 8.33706 16.0514 8.92033C14.639 11.2756 12.668 13.2465 10.3128 14.6589Z" stroke="black" stroke-width="1.5" stroke-linecap="round" stroke-linejoin="round"/>
</g>
<defs>
<clipPath id="clip0_146_403116">
<rect width="21" height="21" fill="white"/>
</clipPath>
</defs>
</svg>
