<svg width="21" height="21" viewBox="0 0 21 21" fill="none" xmlns="http://www.w3.org/2000/svg">
<g clip-path="url(#clip0_146_403103)">
<path d="M7.01674 18.1608L1.44531 19.5537L2.83817 15.3751V2.83939C2.83817 2.46998 2.98492 2.1157 3.24612 1.85449C3.50734 1.59328 3.86161 1.44653 4.23103 1.44653H18.1596C18.529 1.44653 18.8833 1.59328 19.1445 1.85449C19.4056 2.1157 19.5525 2.46998 19.5525 2.83939V16.768C19.5525 17.1373 19.4056 17.4917 19.1445 17.7529C18.8833 18.014 18.529 18.1608 18.1596 18.1608H7.01674Z" stroke="black" stroke-width="1.5" stroke-linecap="round" stroke-linejoin="round"/>
<path d="M11.6648 4.8806L12.8347 7.23399C12.8608 7.29351 12.9023 7.34503 12.9549 7.38326C13.0075 7.4215 13.0693 7.4451 13.134 7.45165L15.7322 7.84615C15.8065 7.85582 15.8765 7.88643 15.934 7.93442C15.9916 7.9824 16.0342 8.04576 16.057 8.11712C16.0799 8.18846 16.0818 8.26483 16.0629 8.33729C16.0439 8.40976 16.0047 8.47532 15.9498 8.52631L14.0318 10.3492C14.0032 10.4037 13.9882 10.4644 13.9882 10.526C13.9882 10.5876 14.0032 10.6483 14.0318 10.7029L14.3991 13.2875C14.4147 13.3622 14.4084 13.4399 14.3808 13.511C14.3532 13.5822 14.3056 13.6438 14.2437 13.6885C14.1817 13.7331 14.1082 13.7589 14.032 13.7625C13.9557 13.7662 13.8801 13.7477 13.8141 13.7092L11.5015 12.4849C11.4417 12.4579 11.3768 12.4439 11.3111 12.4439C11.2454 12.4439 11.1805 12.4579 11.1207 12.4849L8.80808 13.7092C8.74216 13.7477 8.66648 13.7662 8.59024 13.7625C8.51399 13.7589 8.44045 13.7331 8.37852 13.6885C8.31661 13.6438 8.26896 13.5822 8.24138 13.511C8.2138 13.4399 8.20747 13.3622 8.22313 13.2875L8.65844 10.7029C8.67716 10.6429 8.68074 10.5792 8.66888 10.5175C8.65701 10.4558 8.63006 10.3979 8.59042 10.3492L6.67234 8.51272C6.62147 8.46117 6.58576 8.39662 6.56913 8.32614C6.5525 8.25565 6.55561 8.18195 6.57809 8.11311C6.60055 8.04427 6.64156 7.98294 6.69658 7.93585C6.7516 7.88876 6.81851 7.85772 6.89 7.84615L9.48824 7.46525C9.55292 7.4587 9.61472 7.4351 9.66729 7.39687C9.71987 7.35862 9.76136 7.30711 9.78752 7.2476L10.9574 4.89421C10.9887 4.82759 11.038 4.77106 11.0998 4.731C11.1615 4.69095 11.2333 4.66897 11.3069 4.66755C11.3805 4.66615 11.453 4.68534 11.5162 4.72299C11.5795 4.76064 11.6309 4.81524 11.6648 4.8806Z" stroke="black" stroke-width="1.5" stroke-linecap="round" stroke-linejoin="round"/>
</g>
<defs>
<clipPath id="clip0_146_403103">
<rect width="21" height="21" fill="white"/>
</clipPath>
</defs>
</svg>
