<svg width="21" height="21" viewBox="0 0 21 21" fill="none" xmlns="http://www.w3.org/2000/svg">
<g clip-path="url(#clip0_146_402982)">
<path d="M7.01674 18.1608L1.44531 19.5537L2.83817 15.3751V2.83939C2.83817 2.46998 2.98492 2.1157 3.24612 1.85449C3.50734 1.59328 3.86161 1.44653 4.23103 1.44653H18.1596C18.529 1.44653 18.8833 1.59328 19.1445 1.85449C19.4056 2.1157 19.5525 2.46998 19.5525 2.83939V16.768C19.5525 17.1373 19.4056 17.4917 19.1445 17.7529C18.8833 18.014 18.529 18.1608 18.1596 18.1608H7.01674Z" stroke="black" stroke-width="1.5" stroke-linecap="round" stroke-linejoin="round"/>
<path d="M11.5427 5.48994L12.707 7.83207C12.7331 7.89131 12.7744 7.94258 12.8267 7.98063C12.879 8.01869 12.9405 8.04217 13.0049 8.04869L15.5907 8.44131C15.6646 8.45092 15.7343 8.48139 15.7915 8.52915C15.8488 8.5769 15.8913 8.63997 15.914 8.71098C15.9367 8.78197 15.9388 8.85798 15.9198 8.9301C15.901 9.00222 15.8619 9.06747 15.8073 9.11822L13.8984 10.9324C13.8699 10.9867 13.8551 11.0471 13.8551 11.1084C13.8551 11.1697 13.8699 11.2301 13.8984 11.2844L14.264 13.8567C14.2795 13.931 14.2732 14.0083 14.2458 14.0791C14.2183 14.15 14.1709 14.2113 14.1093 14.2557C14.0477 14.3002 13.9745 14.3258 13.8986 14.3294C13.8227 14.3331 13.7474 14.3146 13.6818 14.2763L11.3803 13.0579C11.3207 13.031 11.2561 13.0171 11.1907 13.0171C11.1254 13.0171 11.0608 13.031 11.0012 13.0579L8.69967 14.2763C8.63405 14.3146 8.55874 14.3331 8.48287 14.3294C8.40699 14.3258 8.3338 14.3002 8.27218 14.2557C8.21054 14.2113 8.16313 14.15 8.13569 14.0791C8.10824 14.0083 8.10193 13.931 8.11753 13.8567L8.55075 11.2844C8.56938 11.2247 8.57295 11.1613 8.56114 11.0999C8.54933 11.0384 8.5225 10.9809 8.48305 10.9324L6.57414 9.10468C6.52351 9.0534 6.48798 8.98916 6.47142 8.919C6.45487 8.84886 6.45797 8.77551 6.48034 8.70699C6.5027 8.63848 6.5435 8.57744 6.59825 8.53059C6.65302 8.48372 6.71961 8.45283 6.79076 8.44131L9.37659 8.06223C9.44096 8.05571 9.50246 8.03222 9.55479 7.99417C9.60712 7.95612 9.6484 7.90485 9.67444 7.84561L10.8387 5.50348C10.8699 5.43718 10.919 5.38091 10.9804 5.34104C11.0419 5.30118 11.1133 5.27931 11.1865 5.2779C11.2598 5.2765 11.3319 5.29561 11.3949 5.33308C11.4578 5.37054 11.5091 5.42488 11.5427 5.48994Z" stroke="black" stroke-width="1.5" stroke-linecap="round" stroke-linejoin="round"/>
</g>
<defs>
<clipPath id="clip0_146_402982">
<rect width="21" height="21" fill="white"/>
</clipPath>
</defs>
</svg>
