<svg width="21" height="21" viewBox="0 0 21 21" fill="none" xmlns="http://www.w3.org/2000/svg">
<g clip-path="url(#clip0_146_403016)">
<path d="M10.4967 1.53052C8.87428 1.53102 7.28237 1.97159 5.89052 2.8053C4.49868 3.639 3.35903 4.83462 2.59296 6.2648C1.82688 7.69499 1.46308 9.30619 1.5403 10.9268C1.61752 12.5474 2.13286 14.1167 3.03144 15.4675L1.52734 19.4693L6.56399 18.5585C7.77681 19.1512 9.10774 19.4625 10.4576 19.4692C11.8075 19.4759 13.1414 19.1778 14.36 18.5971C15.5787 18.0166 16.6505 17.1683 17.4957 16.1157C18.3409 15.0633 18.9376 13.8336 19.2414 12.5183C19.5452 11.2031 19.5481 9.8362 19.25 8.51965C18.9521 7.20307 18.3607 5.97076 17.5201 4.91456C16.6795 3.85834 15.6115 3.00548 14.3953 2.41956C13.1792 1.83362 11.8466 1.52972 10.4967 1.53052Z" stroke="black" stroke-width="1.5" stroke-linecap="round" stroke-linejoin="round"/>
<path d="M7.01674 9.45532H13.981C14.3989 9.45532 14.6775 9.73389 14.6775 10.1518V14.3303C14.6775 14.7482 14.3989 15.0268 13.981 15.0268H7.01674C6.59888 15.0268 6.32031 14.7482 6.32031 14.3303V10.1518C6.32031 9.73389 6.59888 9.45532 7.01674 9.45532Z" stroke="black" stroke-width="1.5" stroke-linecap="round" stroke-linejoin="round"/>
<path d="M7.71484 9.45518V8.06233C7.71484 6.53018 8.96842 5.27661 10.5006 5.27661C12.0327 5.27661 13.2863 6.53018 13.2863 8.06233V9.45518" stroke="black" stroke-width="1.5" stroke-linecap="round" stroke-linejoin="round"/>
</g>
<defs>
<clipPath id="clip0_146_403016">
<rect width="21" height="21" fill="white"/>
</clipPath>
</defs>
</svg>
