<svg width="21" height="21" viewBox="0 0 21 21" fill="none" xmlns="http://www.w3.org/2000/svg">
<g clip-path="url(#clip0_146_403541)">
<path d="M7.01674 18.1607L1.44531 19.5536L2.83817 15.375V2.83927C2.83817 2.46985 2.98492 2.11558 3.24612 1.85437C3.50734 1.59316 3.86161 1.44641 4.23103 1.44641H18.1596C18.529 1.44641 18.8833 1.59316 19.1445 1.85437C19.4056 2.11558 19.5525 2.46985 19.5525 2.83927V16.7678C19.5525 17.1372 19.4056 17.4916 19.1445 17.7527C18.8833 18.0139 18.529 18.1607 18.1596 18.1607H7.01674Z" stroke="black" stroke-width="1.5" stroke-linecap="round" stroke-linejoin="round"/>
<path d="M7.71317 6.66968L6.32031 12.9375" stroke="black" stroke-width="1.5" stroke-linecap="round" stroke-linejoin="round"/>
<path d="M10.846 6.66968L9.45312 12.9375" stroke="black" stroke-width="1.5" stroke-linecap="round" stroke-linejoin="round"/>
<path d="M5.97266 8.0625H11.8923" stroke="black" stroke-width="1.5" stroke-linecap="round" stroke-linejoin="round"/>
<path d="M5.27734 11.5447H11.197" stroke="black" stroke-width="1.5" stroke-linecap="round" stroke-linejoin="round"/>
<path d="M15.375 5.625V9.10714" stroke="black" stroke-width="1.5" stroke-linecap="round" stroke-linejoin="round"/>
<path d="M15.3756 12.5893C15.1832 12.5893 15.0273 12.4333 15.0273 12.241C15.0273 12.0487 15.1832 11.8928 15.3756 11.8928" stroke="black" stroke-width="1.5" stroke-linecap="round" stroke-linejoin="round"/>
<path d="M15.375 12.5893C15.5674 12.5893 15.7232 12.4333 15.7232 12.241C15.7232 12.0487 15.5674 11.8928 15.375 11.8928" stroke="black" stroke-width="1.5" stroke-linecap="round" stroke-linejoin="round"/>
</g>
<defs>
<clipPath id="clip0_146_403541">
<rect width="21" height="21" fill="white"/>
</clipPath>
</defs>
</svg>
