<svg width="21" height="21" viewBox="0 0 21 21" fill="none" xmlns="http://www.w3.org/2000/svg">
<g clip-path="url(#clip0_146_403029)">
<path d="M10.7371 15.4122C10.5841 15.4675 10.4165 15.4675 10.2635 15.4122C9.10191 14.952 8.10518 14.1538 7.4024 13.1207C6.69962 12.0877 6.32316 10.8674 6.32174 9.61796V7.79332C6.31558 7.70027 6.32937 7.60698 6.3622 7.51969C6.39502 7.43241 6.44611 7.35314 6.51205 7.28721C6.57799 7.22127 6.65725 7.17018 6.74454 7.13735C6.83183 7.10453 6.92511 7.09073 7.01817 7.09689H13.9825C14.0755 7.09073 14.1688 7.10453 14.2561 7.13735C14.3434 7.17018 14.4226 7.22127 14.4886 7.28721C14.5545 7.35314 14.6056 7.43241 14.6384 7.51969C14.6712 7.60698 14.685 7.70027 14.6789 7.79332V9.61796C14.6775 10.8674 14.301 12.0877 13.5982 13.1207C12.8954 14.1538 11.8987 14.952 10.7371 15.4122Z" stroke="black" stroke-width="1.5" stroke-linecap="round" stroke-linejoin="round"/>
<path d="M10.4967 1.53052C8.87428 1.53102 7.28237 1.97159 5.89052 2.8053C4.49868 3.639 3.35903 4.83462 2.59296 6.2648C1.82688 7.69499 1.46308 9.30619 1.5403 10.9268C1.61752 12.5474 2.13286 14.1167 3.03144 15.4675L1.52734 19.4693L6.56399 18.5585C7.77681 19.1512 9.10774 19.4625 10.4576 19.4692C11.8075 19.4759 13.1414 19.1778 14.36 18.5971C15.5787 18.0166 16.6505 17.1683 17.4957 16.1157C18.3409 15.0633 18.9376 13.8336 19.2414 12.5183C19.5452 11.2031 19.5481 9.8362 19.25 8.51965C18.9521 7.20307 18.3607 5.97076 17.5201 4.91456C16.6795 3.85834 15.6115 3.00548 14.3953 2.41956C13.1792 1.83362 11.8466 1.52972 10.4967 1.53052Z" stroke="black" stroke-width="1.5" stroke-linecap="round" stroke-linejoin="round"/>
</g>
<defs>
<clipPath id="clip0_146_403029">
<rect width="21" height="21" fill="white"/>
</clipPath>
</defs>
</svg>
