<svg width="20" height="20" viewBox="0 0 20 20" fill="none" xmlns="http://www.w3.org/2000/svg">
<g id="clipboard-delete-15">
<g id="clipboard-delete--edit-task-edition-delete-clipboard-form-cross">
<path id="Vector" d="M11.981 1.41064H8.01674C7.28694 1.41064 6.69531 2.00227 6.69531 2.73207V3.39279C6.69531 4.12259 7.28694 4.71422 8.01674 4.71422H11.981C12.7108 4.71422 13.3025 4.12259 13.3025 3.39279V2.73207C13.3025 2.00227 12.7108 1.41064 11.981 1.41064Z" stroke="black" stroke-width="1.5" stroke-linecap="round" stroke-linejoin="round"/>
<path id="Vector_2" d="M7.35547 9.33936L12.6412 14.6251" stroke="black" stroke-width="1.5" stroke-linecap="round" stroke-linejoin="round"/>
<path id="Vector_3" d="M12.6412 9.33936L7.35547 14.6251" stroke="black" stroke-width="1.5" stroke-linecap="round" stroke-linejoin="round"/>
<path id="Vector_4" d="M13.6339 2.73193H15.6161C15.9665 2.73193 16.3027 2.87116 16.5505 3.11897C16.7982 3.36679 16.9375 3.70289 16.9375 4.05336V17.2676C16.9375 17.6181 16.7982 17.9543 16.5505 18.202C16.3027 18.4498 15.9665 18.5891 15.6161 18.5891H4.38393C4.03346 18.5891 3.69735 18.4498 3.44953 18.202C3.20173 17.9543 3.0625 17.6181 3.0625 17.2676V4.05336C3.0625 3.70289 3.20173 3.36679 3.44953 3.11897C3.69735 2.87116 4.03346 2.73193 4.38393 2.73193H6.36607" stroke="black" stroke-width="1.5" stroke-linecap="round" stroke-linejoin="round"/>
</g>
</g>
</svg>
