<svg width="20" height="20" viewBox="0 0 20 20" fill="none" xmlns="http://www.w3.org/2000/svg">
<g id="clock-setting-21" clip-path="url(#clip0_47_148485)">
<g id="clock-setting--clock-cog-timer-set">
<path id="Vector" d="M5.2091 8.31508L4.3201 7.18069C4.16661 6.98776 4.07513 6.75275 4.05773 6.50667C4.04034 6.26059 4.09785 6.01501 4.22267 5.80235L4.7098 4.94849C4.83076 4.73917 5.01111 4.57058 5.22796 4.46415C5.4448 4.35772 5.68834 4.31828 5.92762 4.3508L7.36464 4.57037L9.14265 3.54574L9.66632 2.1918C9.75463 1.96255 9.91 1.76537 10.1121 1.62607C10.3142 1.48678 10.5536 1.41186 10.7989 1.41113H11.7975C12.0428 1.41186 12.2822 1.48678 12.4843 1.62607C12.6864 1.76537 12.8418 1.96255 12.9301 2.1918L13.4537 3.54574L15.2561 4.57037L16.6931 4.3508C16.9324 4.31828 17.1759 4.35772 17.3928 4.46415C17.6096 4.57058 17.79 4.73917 17.9109 4.94849L18.3981 5.80235C18.5229 6.01501 18.5805 6.26059 18.563 6.50667C18.5456 6.75275 18.4541 6.98776 18.3006 7.18069L17.3872 8.31508V10.3643L18.2763 11.4987C18.4298 11.6917 18.5213 11.9267 18.5387 12.1727C18.556 12.4188 18.4985 12.6644 18.3737 12.8771L17.8866 13.7309C17.7657 13.9402 17.5853 14.1089 17.3685 14.2153C17.1516 14.3216 16.9081 14.3611 16.6688 14.3286L15.2317 14.109L13.4537 15.1337L12.9301 16.4876C12.8418 16.7169 12.6864 16.914 12.4843 17.0533C12.2822 17.1926 12.0428 17.2675 11.7975 17.2683" stroke="black" stroke-width="1.5" stroke-linecap="round" stroke-linejoin="round"/>
<path id="Vector_2" d="M12.2292 11.5938C12.6742 11.4092 13.0546 11.0965 13.3223 10.6953C13.5899 10.2941 13.7327 9.82245 13.7327 9.33995C13.7327 8.69293 13.4761 8.07242 13.0194 7.61491C12.5626 7.15741 11.9431 6.90039 11.2971 6.90039C10.8154 6.90039 10.3445 7.04346 9.94394 7.31153C9.5434 7.57959 9.23121 7.9606 9.04688 8.40637" stroke="black" stroke-width="1.5" stroke-linecap="round" stroke-linejoin="round"/>
<path id="Vector_3" d="M5.37444 18.5887C7.56385 18.5887 9.33873 16.8139 9.33873 14.6244C9.33873 12.435 7.56385 10.6602 5.37444 10.6602C3.18502 10.6602 1.41016 12.435 1.41016 14.6244C1.41016 16.8139 3.18502 18.5887 5.37444 18.5887Z" stroke="black" stroke-width="1.5" stroke-linecap="round" stroke-linejoin="round"/>
<path id="Vector_4" d="M6.36607 13.6338L5.375 14.6249" stroke="black" stroke-width="1.5" stroke-linecap="round" stroke-linejoin="round"/>
</g>
</g>
<defs>
<clipPath id="clip0_47_148485">
<rect width="20" height="20" fill="white"/>
</clipPath>
</defs>
</svg>
