<svg width="21" height="21" viewBox="0 0 21 21" fill="none" xmlns="http://www.w3.org/2000/svg">
<path d="M7.71596 13.9821H14.6802C15.0981 13.9821 15.3767 14.2606 15.3767 14.6785V18.8571C15.3767 19.2749 15.0981 19.5535 14.6802 19.5535H7.71596C7.2981 19.5535 7.01953 19.2749 7.01953 18.8571V14.6785C7.01953 14.2606 7.2981 13.9821 7.71596 13.9821Z" stroke="black" stroke-width="1.5" stroke-linecap="round" stroke-linejoin="round"/>
<path d="M8.41016 13.982V12.5892C8.41016 11.057 9.66373 9.80347 11.1959 9.80347C12.728 9.80347 13.9816 11.057 13.9816 12.5892V13.982" stroke="black" stroke-width="1.5" stroke-linecap="round" stroke-linejoin="round"/>
<path d="M18.2742 14.4686C18.9664 13.8466 19.4066 12.9923 19.5112 12.0676C19.6159 11.1429 19.3779 10.2119 18.8422 9.45086C18.3065 8.68986 17.5103 8.15168 16.6044 7.93827C16.5419 7.91961 16.4859 7.88343 16.4433 7.83401C16.4007 7.7846 16.3729 7.72401 16.3636 7.65939C16.2516 6.43216 15.7223 5.28041 14.8639 4.39621C14.0055 3.51201 12.87 2.9488 11.6466 2.80051C10.4232 2.65222 9.18598 2.92781 8.14121 3.58133C7.09644 4.23484 6.30728 5.22678 5.90534 6.39173C5.87875 6.44605 5.83716 6.49162 5.7855 6.52306C5.73382 6.55451 5.67425 6.57051 5.61377 6.56919C5.03113 6.60831 4.46188 6.76182 3.93855 7.02093C3.41522 7.28005 2.94805 7.6397 2.56371 8.07937C1.78751 8.9673 1.39583 10.1272 1.47484 11.3039C1.55385 12.4807 2.09707 13.5778 2.985 14.354C3.35887 14.6807 3.78095 14.9394 4.2322 15.1235" stroke="black" stroke-width="1.5" stroke-linecap="round" stroke-linejoin="round"/>
</svg>
