<svg width="21" height="21" viewBox="0 0 21 21" fill="none" xmlns="http://www.w3.org/2000/svg">
<path d="M13.8314 13.6802H7.16797" stroke="black" stroke-width="1.5" stroke-linecap="round" stroke-linejoin="round"/>
<path d="M10.5 10.3484V17.0119" stroke="black" stroke-width="1.5" stroke-linecap="round" stroke-linejoin="round"/>
<path d="M6.20958 16.0616C5.03285 16.1405 3.87295 15.7489 2.985 14.9726C2.09707 14.1964 1.55385 13.0993 1.47484 11.9226C1.39583 10.7459 1.78751 9.58594 2.56371 8.69801C2.94805 8.25834 3.41522 7.89869 3.93855 7.63958C4.46188 7.38047 5.03113 7.22696 5.61377 7.18785C5.67425 7.18917 5.73382 7.17315 5.7855 7.14172C5.83716 7.11027 5.87875 7.06469 5.90534 7.01037C6.30728 5.84543 7.09644 4.8535 8.14121 4.19999C9.18598 3.54646 10.4232 3.27087 11.6466 3.41917C12.87 3.56745 14.0055 4.13065 14.8639 5.01485C15.7223 5.89905 16.2516 7.0508 16.3636 8.27804C16.3729 8.34265 16.4007 8.40324 16.4433 8.45266C16.4859 8.50208 16.5419 8.53825 16.6044 8.55693C17.5103 8.77034 18.3065 9.3085 18.8422 10.0695C19.3779 10.8305 19.6159 11.7615 19.5112 12.6863C19.4066 13.611 18.9664 14.4653 18.2742 15.0873C17.5821 15.7093 16.6858 16.056 15.7551 16.0616" stroke="black" stroke-width="1.5" stroke-linecap="round" stroke-linejoin="round"/>
</svg>
