<svg width="21" height="21" viewBox="0 0 21 21" fill="none" xmlns="http://www.w3.org/2000/svg">
<path d="M10.5018 17.5263C8.34777 17.5263 6.60156 15.7801 6.60156 13.626C6.60156 11.4719 8.34777 9.72571 10.5018 9.72571C12.6559 9.72571 14.4021 11.4719 14.4021 13.626C14.4021 15.7801 12.6559 17.5263 10.5018 17.5263Z" stroke="black" stroke-width="1.5" stroke-linecap="round" stroke-linejoin="round"/>
<path d="M13.2587 16.3861L7.73828 10.8657" stroke="black" stroke-width="1.5" stroke-linecap="round" stroke-linejoin="round"/>
<path d="M4.67602 15.8962C4.05743 15.7174 3.47912 15.4044 2.985 14.9725C2.09707 14.1963 1.55385 13.0992 1.47484 11.9225C1.39583 10.7457 1.78751 9.58583 2.56371 8.6979C2.94805 8.25823 3.41522 7.89858 3.93855 7.63946C4.46188 7.38035 5.03113 7.22684 5.61377 7.18772C5.67425 7.18906 5.73382 7.17304 5.7855 7.1416C5.83716 7.11015 5.87875 7.06458 5.90534 7.01026C6.30728 5.84531 7.09644 4.85337 8.14121 4.19986C9.18598 3.54634 10.4232 3.27075 11.6466 3.41904C12.87 3.56734 14.0055 4.13054 14.8639 5.01474C15.7223 5.89894 16.2516 7.05069 16.3636 8.27792C16.3729 8.34254 16.4007 8.40313 16.4433 8.45254C16.4859 8.50196 16.5419 8.53814 16.6044 8.5568C17.5103 8.77023 18.3065 9.30839 18.8422 10.0694C19.3779 10.8304 19.6159 11.7614 19.5112 12.6861C19.4066 13.6109 18.9664 14.4651 18.2742 15.0872C17.7549 15.5538 17.1206 15.8656 16.4433 15.9944" stroke="black" stroke-width="1.5" stroke-linecap="round" stroke-linejoin="round"/>
</svg>
