<svg width="21" height="21" viewBox="0 0 21 21" fill="none" xmlns="http://www.w3.org/2000/svg">
<path d="M11.0078 9.01233V17.3694" stroke="black" stroke-width="1.5" stroke-linecap="round" stroke-linejoin="round"/>
<path d="M8.22266 11.798L11.0084 9.01233L13.7941 11.798" stroke="black" stroke-width="1.5" stroke-linecap="round" stroke-linejoin="round"/>
<path d="M6.20958 14.1937C5.03285 14.2727 3.87295 13.881 2.985 13.1048C2.09707 12.3286 1.55385 11.2315 1.47484 10.0548C1.39583 8.87807 1.78751 7.71815 2.56371 6.83022C2.94805 6.39055 3.41522 6.0309 3.93855 5.77178C4.46188 5.51267 5.03113 5.35916 5.61377 5.32004C5.67425 5.32136 5.73382 5.30536 5.7855 5.27391C5.83716 5.24247 5.87875 5.1969 5.90534 5.14258C6.30728 3.97763 7.09644 2.98569 8.14121 2.33218C9.18598 1.67867 10.4232 1.40308 11.6466 1.55136C12.87 1.69965 14.0055 2.26286 14.8639 3.14706C15.7223 4.03126 16.2516 5.18301 16.3636 6.41024C16.3729 6.47486 16.4007 6.53545 16.4433 6.58487C16.4859 6.63427 16.5419 6.67046 16.6044 6.68912C17.5103 6.90253 18.3065 7.44069 18.8422 8.20171C19.3779 8.96271 19.6159 9.89372 19.5112 10.8185C19.4066 11.7432 18.9664 12.5975 18.2742 13.2195C17.5821 13.8415 16.6858 14.1881 15.7551 14.1937" stroke="black" stroke-width="1.5" stroke-linecap="round" stroke-linejoin="round"/>
</svg>
