<svg width="21" height="21" viewBox="0 0 21 21" fill="none" xmlns="http://www.w3.org/2000/svg">
<path d="M14.1713 14.2131H7.20703" stroke="black" stroke-width="1.5" stroke-linecap="round" stroke-linejoin="round"/>
<path d="M17.2106 13.9329C17.5971 13.7699 17.957 13.5427 18.2742 13.2577C18.9664 12.6357 19.4066 11.7814 19.5112 10.8567C19.6159 9.93192 19.3779 9.00091 18.8422 8.23991C18.3064 7.47891 17.5104 6.94075 16.6044 6.72734C16.5419 6.70866 16.4859 6.67249 16.4433 6.62307C16.4007 6.57365 16.3729 6.51306 16.3636 6.44844C16.2516 5.22121 15.7223 4.06947 14.8639 3.18526C14.0055 2.30106 12.87 1.73786 11.6466 1.58957C10.4232 1.44128 9.18598 1.71688 8.14121 2.3704C7.09643 3.02391 6.30728 4.01585 5.90534 5.18078C5.87874 5.2351 5.83715 5.28067 5.78549 5.31212C5.73383 5.34357 5.67424 5.35958 5.61378 5.35826C5.03112 5.39738 4.46188 5.55087 3.93855 5.80999C3.41522 6.0691 2.94804 6.42876 2.56371 6.86842C1.78751 7.75635 1.39583 8.91627 1.47484 10.093C1.55385 11.2697 2.09707 12.3668 2.98501 13.143C3.37288 13.4821 3.81265 13.7478 4.28303 13.9329" stroke="black" stroke-width="1.5" stroke-linecap="round" stroke-linejoin="round"/>
</svg>
