<svg width="21" height="21" viewBox="0 0 21 21" fill="none" xmlns="http://www.w3.org/2000/svg">
<path d="M3.53577 16.158C3.34304 16.0361 3.15882 15.8989 2.985 15.7469C2.09707 14.9707 1.55385 13.8736 1.47484 12.6969C1.39583 11.5202 1.78751 10.3602 2.56371 9.47231C2.94805 9.03264 3.41522 8.67299 3.93855 8.41388C4.46188 8.15477 5.03113 8.00126 5.61377 7.96213C5.67425 7.96346 5.73382 7.94745 5.7855 7.916C5.83716 7.88457 5.87875 7.83899 5.90534 7.78467C6.30728 6.61973 7.09644 5.62779 8.14121 4.97427C9.18598 4.32076 10.4232 4.04517 11.6466 4.19345C12.87 4.34175 14.0055 4.90495 14.8639 5.78915C15.7223 6.67335 16.2516 7.8251 16.3636 9.05234C16.3729 9.11695 16.4007 9.17754 16.4433 9.22696C16.4859 9.27638 16.5419 9.31255 16.6044 9.33121C17.5103 9.54463 18.3065 10.0828 18.8422 10.8438C19.3779 11.6048 19.6159 12.5358 19.5112 13.4605C19.4066 14.3853 18.9664 15.2395 18.2742 15.8616C18.0277 16.0832 17.7551 16.2698 17.4644 16.4186" stroke="black" stroke-width="1.5" stroke-linecap="round" stroke-linejoin="round"/>
<path d="M12.0414 13.2107L8.95312 14.7548" stroke="black" stroke-width="1.5" stroke-linecap="round" stroke-linejoin="round"/>
<path d="M11.8945 12.5893C11.8945 12.7722 11.9306 12.9533 12.0006 13.1223C12.0706 13.2913 12.1732 13.4448 12.3025 13.5742C12.4318 13.7035 12.5854 13.8061 12.7544 13.8761C12.9234 13.9461 13.1045 13.9821 13.2874 13.9821C13.4703 13.9821 13.6514 13.9461 13.8204 13.8761C13.9894 13.8061 14.1429 13.7035 14.2723 13.5742C14.4016 13.4448 14.5042 13.2913 14.5742 13.1223C14.6442 12.9533 14.6802 12.7722 14.6802 12.5893C14.6802 12.4064 14.6442 12.2252 14.5742 12.0562C14.5042 11.8873 14.4016 11.7337 14.2723 11.6044C14.1429 11.475 13.9894 11.3724 13.8204 11.3024C13.6514 11.2324 13.4703 11.1964 13.2874 11.1964C13.1045 11.1964 12.9234 11.2324 12.7544 11.3024C12.5854 11.3724 12.4318 11.475 12.3025 11.6044C12.1732 11.7337 12.0706 11.8873 12.0006 12.0562C11.9306 12.2252 11.8945 12.4064 11.8945 12.5893Z" stroke="black" stroke-width="1.5" stroke-linecap="round" stroke-linejoin="round"/>
<path d="M6.32031 15.375C6.32031 15.7444 6.46706 16.0987 6.72827 16.3599C6.98948 16.6211 7.34376 16.7679 7.71317 16.7679C8.08258 16.7679 8.43686 16.6211 8.69807 16.3599C8.95928 16.0987 9.10603 15.7444 9.10603 15.375C9.10603 15.1921 9.07 15.011 9 14.842C8.93 14.673 8.82741 14.5195 8.69807 14.3901C8.56873 14.2608 8.41518 14.1582 8.24619 14.0882C8.0772 14.0182 7.89608 13.9822 7.71317 13.9822C7.53026 13.9822 7.34914 14.0182 7.18015 14.0882C7.01116 14.1582 6.85761 14.2608 6.72827 14.3901C6.59893 14.5195 6.49633 14.673 6.42634 14.842C6.35634 15.011 6.32031 15.1921 6.32031 15.375Z" stroke="black" stroke-width="1.5" stroke-linecap="round" stroke-linejoin="round"/>
<path d="M11.8945 18.1608C11.8945 18.3437 11.9306 18.5248 12.0006 18.6938C12.0706 18.8628 12.1732 19.0164 12.3025 19.1457C12.4318 19.275 12.5854 19.3776 12.7544 19.4476C12.9234 19.5176 13.1045 19.5537 13.2874 19.5537C13.4703 19.5537 13.6514 19.5176 13.8204 19.4476C13.9894 19.3776 14.1429 19.275 14.2723 19.1457C14.4016 19.0164 14.5042 18.8628 14.5742 18.6938C14.6442 18.5248 14.6802 18.3437 14.6802 18.1608C14.6802 17.9779 14.6442 17.7968 14.5742 17.6278C14.5042 17.4588 14.4016 17.3052 14.2723 17.1759C14.1429 17.0466 13.9894 16.944 13.8204 16.874C13.6514 16.804 13.4703 16.7679 13.2874 16.7679C13.1045 16.7679 12.9234 16.804 12.7544 16.874C12.5854 16.944 12.4318 17.0466 12.3025 17.1759C12.1732 17.3052 12.0706 17.4588 12.0006 17.6278C11.9306 17.7968 11.8945 17.9779 11.8945 18.1608Z" stroke="black" stroke-width="1.5" stroke-linecap="round" stroke-linejoin="round"/>
<path d="M8.95312 15.9952L12.0414 17.5394" stroke="black" stroke-width="1.5" stroke-linecap="round" stroke-linejoin="round"/>
</svg>
