<svg width="20" height="20" viewBox="0 0 20 20" fill="none" xmlns="http://www.w3.org/2000/svg">
<g id="clouds-4">
<g id="cloud--cloud-meteorology-cloudy-overcast-cover-weather">
<path id="Vector" d="M16.1399 13.7585C16.0081 13.7458 15.8754 13.7458 15.7437 13.7585C15.599 13.099 15.2332 12.5087 14.707 12.0855C14.1808 11.6623 13.5259 11.4316 12.8507 11.4316C12.1755 11.4316 11.5206 11.6623 10.9944 12.0855C10.4683 12.5087 10.1025 13.099 9.95775 13.7585C9.82603 13.7458 9.6934 13.7458 9.56168 13.7585C9.24738 13.7392 8.93247 13.7845 8.63632 13.8916C8.34019 13.9986 8.0691 14.1651 7.83974 14.3809C7.61038 14.5967 7.42761 14.8572 7.30267 15.1462C7.17774 15.4352 7.11328 15.7468 7.11328 16.0616C7.11328 16.3765 7.17774 16.6881 7.30267 16.9771C7.42761 17.2663 7.61038 17.5266 7.83974 17.7424C8.0691 17.9582 8.34019 18.1247 8.63632 18.2317C8.93247 18.3387 9.24738 18.3841 9.56168 18.3649H16.1399C16.4541 18.3841 16.769 18.3387 17.0651 18.2317C17.3613 18.1247 17.6324 17.9582 17.8617 17.7424C18.0911 17.5266 18.2738 17.2663 18.3988 16.9771C18.5237 16.6881 18.5882 16.3765 18.5882 16.0616C18.5882 15.7468 18.5237 15.4352 18.3988 15.1462C18.2738 14.8572 18.0911 14.5967 17.8617 14.3809C17.6324 14.1651 17.3613 13.9986 17.0651 13.8916C16.769 13.7845 16.4541 13.7392 16.1399 13.7585Z" stroke="black" stroke-width="1.5" stroke-linecap="round" stroke-linejoin="round"/>
<path id="Vector_2" d="M18.5887 10.9369C18.5887 10.0608 18.2407 9.22051 17.6212 8.60097C17.0016 7.98143 16.1613 7.63337 15.2852 7.63337C14.5705 7.63432 13.8753 7.86606 13.303 8.29408C13.303 7.118 12.9543 5.96831 12.3009 4.99043C11.6475 4.01255 10.7187 3.25037 9.63219 2.80031C8.54562 2.35023 7.34999 2.23248 6.1965 2.46192C5.043 2.69136 3.98345 3.25771 3.15183 4.08932C2.32021 4.92095 1.75386 5.9805 1.52442 7.134C1.29497 8.28749 1.41273 9.48311 1.8628 10.5697C2.31288 11.6563 3.07504 12.585 4.05293 13.2384C4.2613 13.3776 4.47747 13.503 4.70004 13.6141" stroke="black" stroke-width="1.5" stroke-linecap="round" stroke-linejoin="round"/>
</g>
</g>
</svg>
