<svg width="20" height="20" viewBox="0 0 20 20" fill="none" xmlns="http://www.w3.org/2000/svg">
<g id="cloud-26">
<g id="cloud--cloud-meteorology-cloudy-overcast-cover-weather">
<path id="Vector" d="M15.2852 9.33845C14.5705 9.3394 13.8753 9.57114 13.303 9.99917C13.303 8.82308 12.9543 7.6734 12.3009 6.69551C11.6475 5.71762 10.7187 4.95546 9.63219 4.50538C8.54562 4.05531 7.34999 3.93755 6.1965 4.167C5.043 4.39644 3.98345 4.96278 3.15183 5.79441C2.32021 6.62603 1.75386 7.68558 1.52442 8.83908C1.29497 9.99257 1.41273 11.1882 1.8628 12.2748C2.31288 13.3613 3.07504 14.29 4.05293 14.9434C5.03082 15.5969 6.1805 15.9456 7.35658 15.9456H15.2852C16.1613 15.9456 17.0016 15.5975 17.6212 14.978C18.2407 14.3584 18.5887 13.5182 18.5887 12.642C18.5887 11.7659 18.2407 10.9256 17.6212 10.306C17.0016 9.6865 16.1613 9.33845 15.2852 9.33845Z" stroke="black" stroke-width="1.5" stroke-linecap="round" stroke-linejoin="round"/>
</g>
</g>
</svg>
