<svg width="21" height="21" viewBox="0 0 21 21" fill="none" xmlns="http://www.w3.org/2000/svg">
<path d="M4.2322 16.5165C3.78095 16.3323 3.35887 16.0737 2.985 15.7469C2.09707 14.9707 1.55385 13.8736 1.47484 12.6969C1.39583 11.5202 1.78751 10.3602 2.56371 9.47231C2.94805 9.03264 3.41522 8.67299 3.93855 8.41388C4.46188 8.15477 5.03113 8.00126 5.61377 7.96213C5.67425 7.96346 5.73382 7.94745 5.7855 7.916C5.83716 7.88457 5.87875 7.83899 5.90534 7.78467C6.30728 6.61973 7.09644 5.62779 8.14121 4.97427C9.18598 4.32076 10.4232 4.04517 11.6466 4.19345C12.87 4.34175 14.0055 4.90495 14.8639 5.78915C15.7223 6.67335 16.2516 7.8251 16.3636 9.05234C16.3729 9.11695 16.4007 9.17754 16.4433 9.22696C16.4859 9.27638 16.5419 9.31255 16.6044 9.33121C17.5103 9.54463 18.3065 10.0828 18.8422 10.8438C19.3779 11.6048 19.6159 12.5358 19.5112 13.4605C19.4066 14.3853 18.9664 15.2395 18.2742 15.8616C18.0277 16.0832 17.7551 16.2698 17.4644 16.4186" stroke="black" stroke-width="1.5" stroke-linecap="round" stroke-linejoin="round"/>
<path d="M13.9142 15.3751C13.5915 13.7857 12.1863 12.5894 10.5017 12.5894C8.57854 12.5894 7.01953 14.1484 7.01953 16.0715C7.01953 17.9946 8.57854 19.5536 10.5017 19.5536C11.3609 19.5536 12.1474 19.2425 12.7547 18.7266" stroke="black" stroke-width="1.5" stroke-linecap="round" stroke-linejoin="round"/>
<path d="M14.6802 13.2858L13.9142 15.3751L11.8945 15.0268" stroke="black" stroke-width="1.5" stroke-linecap="round" stroke-linejoin="round"/>
</svg>
