<svg width="21" height="21" viewBox="0 0 21 21" fill="none" xmlns="http://www.w3.org/2000/svg">
<path d="M3.53516 19.5536C3.53516 17.7066 4.26889 15.9351 5.57495 14.6292C6.88101 13.3231 8.6524 12.5894 10.4994 12.5894C12.3465 12.5894 14.1179 13.3231 15.4239 14.6292C16.73 15.9351 17.4637 17.7066 17.4637 19.5536" stroke="black" stroke-width="1.5" stroke-linecap="round" stroke-linejoin="round"/>
<path d="M11.8906 12.7285V15.6675C11.9028 15.9782 12.0093 16.2778 12.1959 16.5267C12.3825 16.7755 12.6404 16.9616 12.9353 17.0603C13.2302 17.1589 13.4881 17.3452 13.6747 17.5939C13.8613 17.8427 13.9677 18.1424 13.9799 18.4532V19.4421" stroke="black" stroke-width="1.5" stroke-linecap="round" stroke-linejoin="round"/>
<path d="M4.12109 16.7678H5.62538C6.36419 16.7678 7.07275 17.0613 7.59517 17.5838C8.11759 18.1062 8.41109 18.8148 8.41109 19.5535" stroke="black" stroke-width="1.5" stroke-linecap="round" stroke-linejoin="round"/>
<path d="M14.3036 4.7962C14.2646 4.78455 14.2297 4.762 14.2031 4.7312C14.1765 4.70041 14.1593 4.66263 14.1535 4.62237C14.0837 3.85744 13.7537 3.13956 13.2187 2.58845C12.6837 2.03733 11.9759 1.68629 11.2134 1.59386C10.4509 1.50144 9.67971 1.67321 9.02851 2.08054C8.37732 2.48787 7.88544 3.10614 7.63491 3.83224C7.61833 3.86609 7.59241 3.8945 7.56021 3.9141C7.52801 3.9337 7.49087 3.94368 7.45318 3.94285C7.09002 3.96724 6.73522 4.06291 6.40903 4.22441C6.08283 4.38592 5.79166 4.6101 5.5521 4.88413C5.06831 5.43756 4.82418 6.16053 4.87342 6.89398C4.92267 7.62741 5.26124 8.31125 5.8147 8.79506C6.36813 9.27886 7.0911 9.52298 7.82455 9.47374H13.7742C14.3542 9.47026 14.9129 9.25422 15.3443 8.86651C15.7758 8.47881 16.0502 7.94635 16.1154 7.36997C16.1805 6.79358 16.0322 6.21329 15.6983 5.73897C15.3645 5.26464 14.8682 4.92921 14.3036 4.7962Z" stroke="black" stroke-width="1.5" stroke-linecap="round" stroke-linejoin="round"/>
</svg>
