<svg width="21" height="21" viewBox="0 0 21 21" fill="none" xmlns="http://www.w3.org/2000/svg">
<path d="M6.29688 13.0733L9.03848 10.651V17.9181" stroke="black" stroke-width="1.5" stroke-linecap="round" stroke-linejoin="round"/>
<path d="M14.7026 15.4956L11.9609 17.9181V10.651" stroke="black" stroke-width="1.5" stroke-linecap="round" stroke-linejoin="round"/>
<path d="M6.20958 15.8516C5.03285 15.9306 3.87295 15.5389 2.985 14.7628C2.09707 13.9866 1.55385 12.8895 1.47484 11.7127C1.39583 10.536 1.78751 9.37611 2.56371 8.48817C2.94805 8.04851 3.41522 7.68886 3.93855 7.42973C4.46188 7.17062 5.03113 7.01713 5.61377 6.978C5.67425 6.97933 5.73382 6.96332 5.7855 6.93187C5.83716 6.90042 5.87875 6.85485 5.90534 6.80052C6.30728 5.63559 7.09644 4.64366 8.14121 3.99014C9.18598 3.33663 10.4232 3.06104 11.6466 3.20932C12.87 3.3576 14.0055 3.92082 14.8639 4.80502C15.7223 5.68922 16.2516 6.84097 16.3636 8.06819C16.3729 8.13282 16.4007 8.19341 16.4433 8.24283C16.4859 8.29223 16.5419 8.32842 16.6044 8.34708C17.5103 8.5605 18.3065 9.09865 18.8422 9.85966C19.3779 10.6207 19.6159 11.5517 19.5112 12.4764C19.4066 13.4012 18.9664 14.2554 18.2742 14.8775C17.9828 15.1393 17.6551 15.3524 17.3039 15.5119" stroke="black" stroke-width="1.5" stroke-linecap="round" stroke-linejoin="round"/>
</svg>
