<svg width="21" height="21" viewBox="0 0 21 21" fill="none" xmlns="http://www.w3.org/2000/svg">
<path d="M18.856 3.53577H2.14174C1.75711 3.53577 1.44531 3.84757 1.44531 4.2322V15.3751C1.44531 15.7596 1.75711 16.0715 2.14174 16.0715H18.856C19.2406 16.0715 19.5525 15.7596 19.5525 15.3751V4.2322C19.5525 3.84757 19.2406 3.53577 18.856 3.53577Z" stroke="black" stroke-width="1.5" stroke-linecap="round" stroke-linejoin="round"/>
<path d="M9.1077 16.0715L7.71484 19.5537" stroke="black" stroke-width="1.5" stroke-linecap="round" stroke-linejoin="round"/>
<path d="M11.8906 16.0715L13.2835 19.5537" stroke="black" stroke-width="1.5" stroke-linecap="round" stroke-linejoin="round"/>
<path d="M6.32031 19.5536H14.6775" stroke="black" stroke-width="1.5" stroke-linecap="round" stroke-linejoin="round"/>
<path d="M11.1953 3.53577V16.0715" stroke="black" stroke-width="1.5" stroke-linecap="round" stroke-linejoin="round"/>
<path d="M4.92578 7.71436H7.7115" stroke="black" stroke-width="1.5" stroke-linecap="round" stroke-linejoin="round"/>
<path d="M4.92578 11.8929H6.31864" stroke="black" stroke-width="1.5" stroke-linecap="round" stroke-linejoin="round"/>
<path d="M11.1953 10.5001L12.8807 9.10723C13.3802 8.69392 14.0082 8.46777 14.6566 8.46777C15.3049 8.46777 15.933 8.69392 16.4325 9.10723L19.5525 11.8929" stroke="black" stroke-width="1.5" stroke-linecap="round" stroke-linejoin="round"/>
</svg>
