<svg width="20" height="20" viewBox="0 0 20 20" fill="none" xmlns="http://www.w3.org/2000/svg">
<g id="cog-double-25" clip-path="url(#clip0_47_147173)">
<g id="cog-double--work-loading-cog-double-gear-settings-machine">
<path id="Vector" d="M5.50906 7.64204L5.12821 8.62515L3.81739 9.36912L2.77228 9.2097C2.59827 9.18607 2.42114 9.21472 2.26344 9.292C2.10574 9.36928 1.97457 9.49169 1.8866 9.64368L1.53232 10.2637C1.44154 10.4181 1.39972 10.5964 1.41237 10.7751C1.42502 10.9538 1.49155 11.1244 1.60318 11.2645L2.26745 12.0882V13.5761L1.62089 14.3998C1.50926 14.5399 1.44273 14.7105 1.43008 14.8892C1.41743 15.068 1.45926 15.2462 1.55004 15.4007L1.90431 16.0206C1.99228 16.1727 2.12345 16.295 2.28116 16.3723C2.43886 16.4495 2.61597 16.4782 2.78999 16.4547L3.83511 16.2952L5.12821 17.0391L5.50906 18.0223C5.57328 18.1888 5.68629 18.3319 5.83325 18.433C5.98024 18.5342 6.15432 18.5886 6.33274 18.589H7.07672C7.25513 18.5886 7.42922 18.5342 7.57619 18.433C7.72318 18.3319 7.83617 18.1888 7.90041 18.0223L8.28124 17.0391L9.57435 16.2952L10.6195 16.4547C10.7935 16.4782 10.9706 16.4495 11.1283 16.3723C11.286 16.295 11.4172 16.1727 11.5051 16.0206L11.8594 15.4007C11.9502 15.2462 11.992 15.068 11.9794 14.8892C11.9667 14.7105 11.9002 14.5399 11.7886 14.3998L11.1243 13.5761V12.0882L11.7708 11.2645C11.8825 11.1244 11.949 10.9538 11.9617 10.7751C11.9743 10.5964 11.9325 10.4181 11.8417 10.2637L11.4874 9.64368C11.3995 9.49169 11.2683 9.36928 11.1106 9.292C10.9529 9.21472 10.7758 9.18607 10.6017 9.2097L9.55663 9.36912L8.26353 8.62515L7.88268 7.64204C7.81846 7.47559 7.70545 7.33241 7.55849 7.23127C7.4115 7.13013 7.23742 7.07572 7.059 7.0752H6.33274C6.15432 7.07572 5.98024 7.13013 5.83325 7.23127C5.68629 7.33241 5.57328 7.47559 5.50906 7.64204Z" stroke="black" stroke-width="1.5" stroke-linecap="round" stroke-linejoin="round"/>
<path id="Vector_2" d="M5.32134 13.7501C5.13984 13.4785 5.04297 13.1591 5.04297 12.8324C5.04297 12.3944 5.217 11.9742 5.52677 11.6645C5.83654 11.3547 6.25667 11.1807 6.69475 11.1807C7.02145 11.1807 7.3408 11.2775 7.61243 11.459C7.88407 11.6405 8.09579 11.8985 8.22081 12.2003C8.34583 12.5022 8.37853 12.8343 8.3148 13.1547C8.25107 13.4751 8.09375 13.7694 7.86274 14.0004C7.63174 14.2314 7.33742 14.3888 7.017 14.4525C6.69659 14.5162 6.36446 14.4836 6.06265 14.3586C5.76082 14.2334 5.50284 14.0217 5.32134 13.7501Z" stroke="black" stroke-width="1.5" stroke-linecap="round" stroke-linejoin="round"/>
<path id="Vector_3" d="M14.5423 1.76541L14.3042 2.37985L13.485 2.84483L12.8318 2.74519C12.723 2.73043 12.6123 2.74834 12.5138 2.79664C12.4152 2.84494 12.3332 2.92143 12.2782 3.01644L12.0568 3.40393C12.0001 3.50043 11.9739 3.61188 11.9819 3.72355C11.9898 3.83523 12.0313 3.94188 12.1011 4.02944L12.5163 4.54424V5.47421L12.1122 5.98902C12.0424 6.07657 12.0008 6.18322 11.9929 6.2949C11.985 6.40657 12.0112 6.51802 12.0679 6.61454L12.2893 7.00202C12.3443 7.09702 12.4263 7.17353 12.5248 7.22182C12.6234 7.27012 12.7341 7.28803 12.8429 7.27327L13.4961 7.17362L14.3042 7.6386L14.5423 8.25305C14.5824 8.35709 14.6531 8.44656 14.7449 8.50978C14.8367 8.573 14.9456 8.607 15.057 8.60733H15.522C15.6336 8.607 15.7424 8.573 15.8343 8.50978C15.9261 8.44656 15.9967 8.35709 16.0369 8.25305L16.2748 7.6386L17.083 7.17362L17.7363 7.27327C17.8451 7.28803 17.9557 7.27012 18.0543 7.22182C18.1529 7.17353 18.2348 7.09702 18.2899 7.00202L18.5112 6.61454C18.5681 6.51802 18.5941 6.40657 18.5863 6.2949C18.5784 6.18322 18.5367 6.07657 18.467 5.98902L18.0518 5.47421V4.54424L18.4559 4.02944C18.5256 3.94188 18.5673 3.83523 18.5752 3.72355C18.5831 3.61188 18.557 3.50043 18.5001 3.40393L18.2788 3.01644C18.2238 2.92143 18.1418 2.84494 18.0432 2.79664C17.9447 2.74834 17.834 2.73043 17.7252 2.74519L17.0721 2.84483L16.2639 2.37985L16.0258 1.76541C15.9857 1.66137 15.915 1.57189 15.8232 1.50868C15.7313 1.44546 15.6225 1.41146 15.5111 1.41113H15.057C14.9456 1.41146 14.8367 1.44546 14.7449 1.50868C14.6531 1.57189 14.5824 1.66137 14.5423 1.76541Z" stroke="black" stroke-width="1.5" stroke-linecap="round" stroke-linejoin="round"/>
<g id="Group 4624">
<path id="Vector_4" d="M15.2835 5.33943C15.101 5.33943 14.9531 5.19152 14.9531 5.00907C14.9531 4.82662 15.101 4.67871 15.2835 4.67871" stroke="black" stroke-width="1.5" stroke-linecap="round" stroke-linejoin="round"/>
<path id="Vector_5" d="M15.2852 5.33943C15.4676 5.33943 15.6155 5.19152 15.6155 5.00907C15.6155 4.82662 15.4676 4.67871 15.2852 4.67871" stroke="black" stroke-width="1.5" stroke-linecap="round" stroke-linejoin="round"/>
</g>
</g>
</g>
<defs>
<clipPath id="clip0_47_147173">
<rect width="20" height="20" fill="white"/>
</clipPath>
</defs>
</svg>
