<svg width="21" height="21" viewBox="0 0 21 21" fill="none" xmlns="http://www.w3.org/2000/svg">
<g clip-path="url(#clip0_146_401445)">
<path d="M18.1596 1.44641H2.83817C2.06892 1.44641 1.44531 2.07001 1.44531 2.83927V18.1607C1.44531 18.93 2.06892 19.5536 2.83817 19.5536H18.1596C18.9289 19.5536 19.5525 18.93 19.5525 18.1607V2.83927C19.5525 2.07001 18.9289 1.44641 18.1596 1.44641Z" stroke="black" stroke-width="1.5" stroke-linecap="round" stroke-linejoin="round"/>
<path d="M7.7115 7.7143V6.32145C7.7115 5.5522 7.08789 4.92859 6.31864 4.92859C5.54939 4.92859 4.92578 5.5522 4.92578 6.32145C4.92578 7.09069 5.54939 7.7143 6.31864 7.7143H7.7115ZM7.7115 7.7143V13.2857M7.7115 7.7143H13.2829M7.7115 13.2857V14.6786C7.7115 15.4479 7.08789 16.0714 6.31864 16.0714C5.54939 16.0714 4.92578 15.4479 4.92578 14.6786C4.92578 13.9093 5.54939 13.2857 6.31864 13.2857H7.7115ZM7.7115 13.2857H13.2829M13.2829 7.7143V13.2857M13.2829 7.7143V6.32145C13.2829 5.5522 13.9065 4.92859 14.6758 4.92859C15.4451 4.92859 16.0686 5.5522 16.0686 6.32145C16.0686 7.09069 15.4451 7.7143 14.6758 7.7143H13.2829ZM13.2829 13.2857H14.6758C15.4451 13.2857 16.0686 13.9093 16.0686 14.6786C16.0686 15.4479 15.4451 16.0714 14.6758 16.0714C13.9065 16.0714 13.2829 15.4479 13.2829 14.6786V13.2857Z" stroke="black" stroke-width="1.5" stroke-linecap="round" stroke-linejoin="round"/>
</g>
<defs>
<clipPath id="clip0_146_401445">
<rect width="21" height="21" fill="white"/>
</clipPath>
</defs>
</svg>
