<svg width="20" height="20" viewBox="0 0 20 20" fill="none" xmlns="http://www.w3.org/2000/svg">
<g id="compare-arrow-69" clip-path="url(#clip0_47_141025)">
<g id="compare-arrow">
<path id="Vector 368" d="M1.41016 8.1594H6.93185M6.93185 8.1594L5.09129 6.31885M6.93185 8.1594L5.09129 9.99996" stroke="black" stroke-width="1.5" stroke-linecap="round" stroke-linejoin="round"/>
<path id="Rectangle 585" d="M1.41016 2.73207C1.41016 2.00227 2.00178 1.41064 2.73158 1.41064H8.67803C9.40783 1.41064 9.99946 2.00227 9.99946 2.73207V13.5867C9.99946 14.3165 9.40783 14.9081 8.67803 14.9081H2.73158C2.00178 14.9081 1.41016 14.3165 1.41016 13.5867V2.73207Z" stroke="black" stroke-width="1.5" stroke-linecap="round" stroke-linejoin="round"/>
<path id="Rectangle 586" d="M18.5893 17.2677V6.4131C18.5893 5.6833 17.9977 5.09167 17.2679 5.09167H11.3214C10.5916 5.09167 10 5.6833 10 6.4131V17.2677C10 17.9975 10.5916 18.5891 11.3214 18.5891H17.2679C17.9977 18.5891 18.5893 17.9975 18.5893 17.2677Z" stroke="black" stroke-width="1.5" stroke-linecap="round" stroke-linejoin="round"/>
<path id="Vector 369" d="M18.5881 11.8404H13.0664M13.0664 11.8404L14.907 9.99988M13.0664 11.8404L14.907 13.681" stroke="black" stroke-width="1.5" stroke-linecap="round" stroke-linejoin="round"/>
</g>
</g>
<defs>
<clipPath id="clip0_47_141025">
<rect width="20" height="20" fill="white"/>
</clipPath>
</defs>
</svg>
