<svg width="20" height="20" viewBox="0 0 20 20" fill="none" xmlns="http://www.w3.org/2000/svg">
<g id="compress-pdf-12">
<g id="compress-PDF--essential-files-folder-compress-PDF">
<path id="Vector 1250" d="M16.4415 13.9644V16.6071C16.4415 17.3369 15.8497 17.9285 15.12 17.9285H4.71205C3.98225 17.9285 3.39062 17.3369 3.39062 16.6071V13.9644" stroke="black" stroke-width="1.5" stroke-linecap="round" stroke-linejoin="round"/>
<path id="Vector 1248" d="M1.41016 8.01758L3.3923 9.99972L1.41016 11.9819" stroke="black" stroke-width="1.5" stroke-linecap="round" stroke-linejoin="round"/>
<path id="Vector 1249" d="M18.5876 8.01758L16.6055 9.99972L18.5876 11.9819" stroke="black" stroke-width="1.5" stroke-linecap="round" stroke-linejoin="round"/>
<path id="Vector 1238" d="M7.75352 5.39882C6.0439 5.90535 13.1721 14.4951 13.9323 12.5295C14.6925 10.5639 4.56932 13.0978 6.23656 14.4951C7.90381 15.8924 9.46315 4.89228 7.75352 5.39882Z" stroke="black" stroke-width="1.5" stroke-linecap="round" stroke-linejoin="round"/>
<path id="Vector 1284" d="M3.39062 6.03557V3.39272C3.39062 2.66292 3.98225 2.07129 4.71205 2.07129H11.4326C11.783 2.07129 12.1191 2.21051 12.3669 2.45832L15.9442 6.03557" stroke="black" stroke-width="1.5" stroke-linecap="round" stroke-linejoin="round"/>
</g>
</g>
</svg>
