<svg width="20" height="20" viewBox="0 0 20 20" fill="none" xmlns="http://www.w3.org/2000/svg">
<path d="M15.5728 2.55824C16.7117 2.2384 17.7616 3.28832 17.4417 4.42717L14.8182 13.7688C14.6753 14.2777 14.2776 14.6753 13.7688 14.8182L4.42717 17.4418C3.28832 17.7615 2.2384 16.7117 2.55824 15.5728L5.18178 6.23113C5.32468 5.72232 5.72232 5.32468 6.23113 5.18178L15.5728 2.55824Z" stroke="black" stroke-width="2.06897" stroke-linecap="round" stroke-linejoin="round"/>
<path d="M8.19176 8.19179C7.9543 8.42925 7.76593 8.71116 7.63742 9.02142C7.5089 9.33168 7.44276 9.66421 7.44276 10C7.44276 10.3359 7.5089 10.6684 7.63742 10.9786C7.76593 11.2889 7.9543 11.5708 8.19176 11.8083C8.42922 12.0457 8.71113 12.2341 9.02139 12.3626C9.33165 12.4911 9.66418 12.5573 10 12.5573C10.3358 12.5573 10.6684 12.4911 10.9786 12.3626C11.2889 12.2341 11.5708 12.0457 11.8082 11.8083C12.2878 11.3287 12.5572 10.6783 12.5572 10C12.5572 9.32181 12.2878 8.67136 11.8082 8.19179C11.3287 7.71221 10.6782 7.44279 10 7.44279C9.32178 7.44279 8.67133 7.71221 8.19176 8.19179Z" stroke="black" stroke-width="2.06897" stroke-linecap="round" stroke-linejoin="round"/>
</svg>
