<svg width="21" height="21" viewBox="0 0 21 21" fill="none" xmlns="http://www.w3.org/2000/svg">
<path d="M1.44531 9.8035V15.3749C1.44531 16.1442 2.06892 16.7678 2.83817 16.7678H11.1953C11.9646 16.7678 12.5882 16.1442 12.5882 15.3749V9.8035C12.5882 9.03425 11.9646 8.41064 11.1953 8.41064H2.83817C2.06892 8.41064 1.44531 9.03425 1.44531 9.8035Z" stroke="black" stroke-width="1.5" stroke-linecap="round" stroke-linejoin="round"/>
<path d="M4.92578 19.5537H9.10435" stroke="black" stroke-width="1.5" stroke-linecap="round" stroke-linejoin="round"/>
<path d="M7.01562 19.5535V16.7678" stroke="black" stroke-width="1.5" stroke-linecap="round" stroke-linejoin="round"/>
<path d="M11.1953 5.62503V4.92861C11.1953 4.54398 11.5071 4.23218 11.8917 4.23218H18.856C19.2406 4.23218 19.5525 4.54398 19.5525 4.92861V18.8572C19.5525 19.2417 19.2406 19.5536 18.856 19.5536H13.2846" stroke="black" stroke-width="1.5" stroke-linecap="round" stroke-linejoin="round"/>
<path d="M16.5922 7.54066C16.496 7.54066 16.418 7.46265 16.418 7.3664C16.418 7.27017 16.496 7.19214 16.5922 7.19214" stroke="black" stroke-width="1.5" stroke-linecap="round" stroke-linejoin="round"/>
<path d="M16.5938 7.54042C16.69 7.54042 16.768 7.4624 16.768 7.36616C16.768 7.26991 16.69 7.19189 16.5938 7.19189" stroke="black" stroke-width="1.5" stroke-linecap="round" stroke-linejoin="round"/>
<path d="M15.375 10.5H19.5536" stroke="black" stroke-width="1.5" stroke-linecap="round" stroke-linejoin="round"/>
</svg>
