<svg width="21" height="21" viewBox="0 0 21 21" fill="none" xmlns="http://www.w3.org/2000/svg">
<g clip-path="url(#clip0_146_400752)">
<path d="M5.82814 11.7188V11.5156C5.82814 10.8425 6.37379 10.2969 7.04688 10.2969L7.85937 10.2969C8.53247 10.2969 9.07812 10.8425 9.07812 11.5156V11.7188C9.07812 12.3918 8.53247 12.9375 7.85938 12.9375H7.04689C6.37379 12.9375 5.82814 12.3918 5.82814 11.7188ZM5.82814 11.7188L5.82812 9.28125C5.82812 8.60815 6.37378 8.0625 7.04688 8.0625H7.85937C8.39002 8.0625 8.84146 8.40163 9.00877 8.875" stroke="black" stroke-width="1.5" stroke-linecap="round" stroke-linejoin="round"/>
<path d="M14.3594 11.7188H11.4047C11.2416 11.7188 11.1094 11.5866 11.1094 11.4235C11.1094 11.3519 11.1353 11.2828 11.1824 11.229L13.8696 8.15792C13.9227 8.09728 13.9994 8.0625 14.0799 8.0625C14.2343 8.0625 14.3594 8.18761 14.3594 8.34195V11.7188ZM14.3594 11.7188H15.1719M14.3594 11.7188V12.9375" stroke="black" stroke-width="1.5" stroke-linecap="round" stroke-linejoin="round"/>
<path d="M16.0709 3.53589H4.92801C4.15877 3.53589 3.53516 4.1595 3.53516 4.92875V16.0716C3.53516 16.8409 4.15877 17.4645 4.92801 17.4645H16.0709C16.8401 17.4645 17.4637 16.8409 17.4637 16.0716V4.92875C17.4637 4.1595 16.8401 3.53589 16.0709 3.53589Z" stroke="black" stroke-width="1.5" stroke-linecap="round" stroke-linejoin="round"/>
<path d="M7.71484 3.53582V1.44653" stroke="black" stroke-width="1.5" stroke-linecap="round" stroke-linejoin="round"/>
<path d="M13.2852 3.53582V1.44653" stroke="black" stroke-width="1.5" stroke-linecap="round" stroke-linejoin="round"/>
<path d="M3.5346 13.2859H1.44531" stroke="black" stroke-width="1.5" stroke-linecap="round" stroke-linejoin="round"/>
<path d="M3.5346 7.71436H1.44531" stroke="black" stroke-width="1.5" stroke-linecap="round" stroke-linejoin="round"/>
<path d="M13.2852 17.4644V19.5536" stroke="black" stroke-width="1.5" stroke-linecap="round" stroke-linejoin="round"/>
<path d="M7.71484 17.4644V19.5536" stroke="black" stroke-width="1.5" stroke-linecap="round" stroke-linejoin="round"/>
<path d="M17.4648 7.71436H19.5541" stroke="black" stroke-width="1.5" stroke-linecap="round" stroke-linejoin="round"/>
<path d="M17.4648 13.2859H19.5541" stroke="black" stroke-width="1.5" stroke-linecap="round" stroke-linejoin="round"/>
</g>
<defs>
<clipPath id="clip0_146_400752">
<rect width="21" height="21" fill="white"/>
</clipPath>
</defs>
</svg>
