<svg width="21" height="21" viewBox="0 0 21 21" fill="none" xmlns="http://www.w3.org/2000/svg">
<g clip-path="url(#clip0_146_400727)">
<path d="M10.1083 10.239H10.8917C11.685 10.239 12.3281 9.59588 12.3281 8.80259C12.3281 8.00929 11.685 7.36621 10.8917 7.36621L10.1082 7.36622C9.31496 7.36622 8.67188 8.00931 8.67188 8.80259C8.67188 9.59588 9.31497 10.239 10.1083 10.239Z" stroke="black" stroke-width="1.5" stroke-linecap="round" stroke-linejoin="round"/>
<path d="M10.1077 13.6341L10.8912 13.6341C11.8287 13.6341 12.5887 12.8741 12.5887 11.9366C12.5887 10.999 11.8287 10.239 10.8912 10.239H10.1077C9.17017 10.239 8.41016 10.999 8.41016 11.9366C8.41016 12.8741 9.17017 13.6341 10.1077 13.6341Z" stroke="black" stroke-width="1.5" stroke-linecap="round" stroke-linejoin="round"/>
<path d="M15.3733 4.23218H5.62333C4.85408 4.23218 4.23047 4.85579 4.23047 5.62503V15.375C4.23047 16.1443 4.85408 16.7679 5.62333 16.7679H15.3733C16.1426 16.7679 16.7662 16.1443 16.7662 15.375V5.62503C16.7662 4.85579 16.1426 4.23218 15.3733 4.23218Z" stroke="black" stroke-width="1.5" stroke-linecap="round" stroke-linejoin="round"/>
<path d="M7.71484 4.23225V1.44653" stroke="black" stroke-width="1.5" stroke-linecap="round" stroke-linejoin="round"/>
<path d="M13.2852 4.23225V1.44653" stroke="black" stroke-width="1.5" stroke-linecap="round" stroke-linejoin="round"/>
<path d="M4.23103 13.2859H1.44531" stroke="black" stroke-width="1.5" stroke-linecap="round" stroke-linejoin="round"/>
<path d="M4.23103 7.71436H1.44531" stroke="black" stroke-width="1.5" stroke-linecap="round" stroke-linejoin="round"/>
<path d="M13.2852 16.7681V19.5538" stroke="black" stroke-width="1.5" stroke-linecap="round" stroke-linejoin="round"/>
<path d="M7.71484 16.7681V19.5538" stroke="black" stroke-width="1.5" stroke-linecap="round" stroke-linejoin="round"/>
<path d="M16.7656 7.71436H19.5513" stroke="black" stroke-width="1.5" stroke-linecap="round" stroke-linejoin="round"/>
<path d="M16.7656 13.2859H19.5513" stroke="black" stroke-width="1.5" stroke-linecap="round" stroke-linejoin="round"/>
</g>
<defs>
<clipPath id="clip0_146_400727">
<rect width="21" height="21" fill="white"/>
</clipPath>
</defs>
</svg>
