<svg width="21" height="21" viewBox="0 0 21 21" fill="none" xmlns="http://www.w3.org/2000/svg">
<path d="M18.5914 16.35C18.6928 16.4014 18.8049 16.4281 18.9187 16.4281C19.0325 16.4281 19.1446 16.4014 19.246 16.35C19.3405 16.2876 19.4179 16.2028 19.4714 16.1032C19.5249 16.0034 19.5527 15.892 19.5525 15.7789V5.29069C19.5527 5.17756 19.5249 5.06615 19.4714 4.96646C19.4179 4.86677 19.3405 4.78195 19.246 4.71962C19.1502 4.65712 19.0409 4.61822 18.9271 4.60611C18.8133 4.59401 18.6982 4.60904 18.5914 4.64998C16.0358 5.75223 13.282 6.32079 10.4989 6.32079C7.71575 6.32079 4.96194 5.75223 2.40638 4.64998C2.29952 4.60904 2.18449 4.59401 2.07069 4.60611C1.9569 4.61822 1.8476 4.65712 1.75174 4.71962C1.65734 4.78195 1.57991 4.86677 1.52642 4.96646C1.47293 5.06615 1.44506 5.17756 1.44531 5.29069V15.7093C1.44506 15.8224 1.47293 15.9338 1.52642 16.0335C1.57991 16.1331 1.65734 16.2179 1.75174 16.2803C1.8532 16.3317 1.96533 16.3585 2.07906 16.3585C2.1928 16.3585 2.30493 16.3317 2.40638 16.2803C4.96669 15.189 7.72293 14.6323 10.5061 14.6443C13.2892 14.6563 16.0405 15.2367 18.5914 16.35Z" stroke="black" stroke-width="1.5" stroke-linecap="round" stroke-linejoin="round"/>
</svg>
