<svg width="21" height="21" viewBox="0 0 21 21" fill="none" xmlns="http://www.w3.org/2000/svg">
<path d="M1.44531 15.375H4.92746L6.32031 16.7679H14.6775L16.0703 15.375H19.5525" stroke="black" stroke-width="1.5" stroke-linecap="round" stroke-linejoin="round"/>
<path d="M8.41016 4.23218H12.5887V9.80361C12.5887 10.173 12.442 10.5273 12.1808 10.7885C11.9196 11.0497 11.5653 11.1965 11.1959 11.1965H9.80301C9.4336 11.1965 9.07933 11.0497 8.81811 10.7885C8.55691 10.5273 8.41016 10.173 8.41016 9.80361V4.23218Z" stroke="black" stroke-width="1.5" stroke-linecap="round" stroke-linejoin="round"/>
<path d="M18.1613 15.375V13.2857C18.1631 11.618 17.6197 9.99545 16.6139 8.66524C15.608 7.33502 14.1949 6.37009 12.5898 5.91748" stroke="black" stroke-width="1.5" stroke-linecap="round" stroke-linejoin="round"/>
<path d="M8.41128 5.91748C6.80619 6.37009 5.39307 7.33502 4.38724 8.66524C3.38141 9.99545 2.83801 11.618 2.83985 13.2857V15.375" stroke="black" stroke-width="1.5" stroke-linecap="round" stroke-linejoin="round"/>
</svg>
