<svg width="21" height="21" viewBox="0 0 21 21" fill="none" xmlns="http://www.w3.org/2000/svg">
<path d="M6.87891 7.74121V10.96" stroke="black" stroke-width="1.5" stroke-linecap="round" stroke-linejoin="round"/>
<path d="M8.48828 9.35059H5.26953" stroke="black" stroke-width="1.5" stroke-linecap="round" stroke-linejoin="round"/>
<path d="M2.5002 8.00949L1.92608 13.1766C1.71679 15.0602 3.19122 16.7076 5.0864 16.7076C6.2908 16.7076 7.39184 16.027 7.93047 14.9498L8.43107 13.9486H12.5695L13.0701 14.9498C13.6087 16.027 14.7098 16.7076 15.9142 16.7076C17.8093 16.7076 19.2838 15.0602 19.0744 13.1766L18.5003 8.00949C18.2652 5.89332 16.4765 4.29236 14.3473 4.29236H6.65321C4.52403 4.29236 2.73533 5.89332 2.5002 8.00949Z" stroke="black" stroke-width="1.5" stroke-linejoin="round"/>
<path d="M15.3291 8.43094C15.1387 8.43094 14.9844 8.27654 14.9844 8.08607C14.9844 7.89561 15.1387 7.74121 15.3291 7.74121" stroke="black" stroke-width="1.5" stroke-linecap="round" stroke-linejoin="round"/>
<path d="M15.3281 8.43094C15.5187 8.43094 15.673 8.27654 15.673 8.08607C15.673 7.89561 15.5187 7.74121 15.3281 7.74121" stroke="black" stroke-width="1.5" stroke-linecap="round" stroke-linejoin="round"/>
<path d="M12.9141 10.1553C12.9141 9.96484 13.0685 9.81042 13.2589 9.81042C13.4494 9.81042 13.6038 9.96484 13.6038 10.1553" stroke="black" stroke-width="1.5" stroke-linecap="round" stroke-linejoin="round"/>
<path d="M12.9141 10.1552C12.9141 10.3456 13.0685 10.5 13.2589 10.5C13.4494 10.5 13.6038 10.3456 13.6038 10.1552" stroke="black" stroke-width="1.5" stroke-linecap="round" stroke-linejoin="round"/>
</svg>
