<svg width="21" height="21" viewBox="0 0 21 21" fill="none" xmlns="http://www.w3.org/2000/svg">
<path d="M17.466 19.5537H3.53739C3.16797 19.5537 2.8137 19.4069 2.55249 19.1457C2.29128 18.8845 2.14453 18.5302 2.14453 18.1608V2.83939C2.14453 2.46998 2.29128 2.1157 2.55249 1.85449C2.8137 1.59328 3.16797 1.44653 3.53739 1.44653H17.466C17.8353 1.44653 18.1897 1.59328 18.4508 1.85449C18.712 2.1157 18.8588 2.46998 18.8588 2.83939V18.1608C18.8588 18.5302 18.712 18.8845 18.4508 19.1457C18.1897 19.4069 17.8353 19.5537 17.466 19.5537Z" stroke="black" stroke-width="1.5" stroke-linecap="round" stroke-linejoin="round"/>
<path d="M6.32422 1.44653V19.5537" stroke="black" stroke-width="1.5" stroke-linecap="round" stroke-linejoin="round"/>
<path d="M11.1992 6.32153H13.9849" stroke="black" stroke-width="1.5" stroke-linecap="round" stroke-linejoin="round"/>
</svg>
