<svg width="21" height="21" viewBox="0 0 21 21" fill="none" xmlns="http://www.w3.org/2000/svg">
<path d="M6.32087 11.1964L3.53516 11.1963" stroke="black" stroke-width="1.5" stroke-linecap="round" stroke-linejoin="round"/>
<path d="M1.44531 18.1606V15.3749C1.44531 14.6057 2.06892 13.9821 2.83817 13.9821H18.1596C18.9289 13.9821 19.5525 14.6057 19.5525 15.3749V18.1606C19.5525 18.9299 18.9289 19.5535 18.1596 19.5535H2.83817C2.06892 19.5535 1.44531 18.9299 1.44531 18.1606Z" stroke="black" stroke-width="1.5" stroke-linecap="round"/>
<path d="M12.5898 13.9821V9.10706" stroke="black" stroke-width="1.5" stroke-linecap="round"/>
<path d="M9.10547 5.62497C9.10547 6.54849 9.47234 7.43418 10.1254 8.08721C10.7784 8.74024 11.6641 9.10711 12.5876 9.10711C13.5111 9.10711 14.3968 8.74024 15.0499 8.08721C15.7029 7.43418 16.0698 6.54849 16.0698 5.62497C16.0698 4.70144 15.7029 3.81575 15.0499 3.16272C14.3968 2.50969 13.5111 2.14282 12.5876 2.14282C11.6641 2.14282 10.7784 2.50969 10.1254 3.16272C9.47234 3.81575 9.10547 4.70144 9.10547 5.62497Z" stroke="black" stroke-width="1.5"/>
</svg>
