<svg width="20" height="20" viewBox="0 0 20 20" fill="none" xmlns="http://www.w3.org/2000/svg">
<g id="copy-paste" clip-path="url(#clip0_47_147071)">
<g id="copy-paste--clipboard-copy-cut-paste">
<path id="Vector" d="M11.9827 5.37528V4.05385C11.9827 3.70338 11.8435 3.36728 11.5957 3.11946C11.3478 2.87165 11.0117 2.73242 10.6613 2.73242H9.33984" stroke="black" stroke-width="1.5" stroke-linecap="round" stroke-linejoin="round"/>
<path id="Vector_2" d="M6.03516 14.6253H2.73158C2.38112 14.6253 2.04501 14.486 1.79719 14.2382C1.54938 13.9905 1.41016 13.6543 1.41016 13.3039V4.05385C1.41016 3.70338 1.54938 3.36728 1.79719 3.11946C2.04501 2.87165 2.38112 2.73242 2.73158 2.73242H4.05301" stroke="black" stroke-width="1.5" stroke-linecap="round" stroke-linejoin="round"/>
<path id="Vector_3" d="M17.2684 8.01855H10.6613C9.93147 8.01855 9.33984 8.61018 9.33984 9.33998V17.2686C9.33984 17.9984 9.93147 18.59 10.6613 18.59H17.2684C17.9982 18.59 18.5898 17.9984 18.5898 17.2686V9.33998C18.5898 8.61018 17.9982 8.01855 17.2684 8.01855Z" stroke="black" stroke-width="1.5" stroke-linecap="round" stroke-linejoin="round"/>
<path id="Vector_4" d="M9.66908 1.41113H3.72266L4.26444 3.55185C4.29745 3.69513 4.37823 3.82291 4.49351 3.91417C4.60879 4.00543 4.75169 4.05474 4.89873 4.05399H8.49301C8.64005 4.05474 8.78295 4.00543 8.89823 3.91417C9.01351 3.82291 9.09429 3.69513 9.1273 3.55185L9.66908 1.41113Z" stroke="black" stroke-width="1.5" stroke-linecap="round" stroke-linejoin="round"/>
<path id="Vector_5" d="M11.9805 11.9824H15.9448" stroke="black" stroke-width="1.5" stroke-linecap="round" stroke-linejoin="round"/>
<path id="Vector_6" d="M11.9805 14.625H15.9448" stroke="black" stroke-width="1.5" stroke-linecap="round" stroke-linejoin="round"/>
</g>
</g>
<defs>
<clipPath id="clip0_47_147071">
<rect width="20" height="20" fill="white"/>
</clipPath>
</defs>
</svg>
