<svg width="20" height="20" viewBox="0 0 20 20" fill="none" xmlns="http://www.w3.org/2000/svg">
<g id="cosine-23">
<g id="cosine--interface-math-cos-sign-mathematics-trigonometry">
<path id="Vector 2388" d="M5.37444 7.70898C5.16592 7.11899 4.60324 6.69629 3.94185 6.69629H2.92918C2.09024 6.69629 1.41016 7.37638 1.41016 8.21531V11.2533C1.41016 12.0923 2.09024 12.7724 2.92918 12.7724H3.94185C4.60324 12.7724 5.16591 12.3497 5.37444 11.7597" stroke="black" stroke-width="1.5" stroke-linecap="round" stroke-linejoin="round"/>
<path id="Vector 3" d="M18.5038 7.70309C18.4375 7.51551 18.3352 7.34495 18.2051 7.19969C17.9286 6.89072 17.5267 6.69629 17.0796 6.69629H15.9105C15.166 6.69629 14.5625 7.29984 14.5625 8.04434C14.5625 8.67785 15.0036 9.22589 15.6224 9.36127L17.4022 9.75059C18.0955 9.90225 18.5897 10.5166 18.5897 11.2263C18.5897 12.0604 17.9135 12.7371 17.0796 12.7371H16.0726C15.4151 12.7371 14.8557 12.3169 14.6484 11.7303" stroke="black" stroke-width="1.5" stroke-linecap="round" stroke-linejoin="round"/>
<path id="Vector 2390" d="M8.01562 8.2065V11.2269C8.01562 12.061 8.69176 12.7371 9.52583 12.7371H10.5326C11.3667 12.7371 12.0428 12.061 12.0428 11.2269V8.2065C12.0428 7.37242 11.3667 6.69629 10.5326 6.69629H9.52583C8.69176 6.69629 8.01562 7.37242 8.01562 8.2065Z" stroke="black" stroke-width="1.5" stroke-linecap="round" stroke-linejoin="round"/>
</g>
</g>
</svg>
