<svg width="20" height="20" viewBox="0 0 20 20" fill="none" xmlns="http://www.w3.org/2000/svg">
<g id="countdown-timer-11" clip-path="url(#clip0_47_148491)">
<g id="countdown-timer--timer-countdown-clock">
<path id="Vector" d="M18.5872 9.89453C18.5744 11.3628 18.2408 12.8106 17.6094 14.1363" stroke="black" stroke-width="1.5" stroke-linecap="round" stroke-linejoin="round"/>
<path id="Vector_2" d="M9.99944 18.4838C8.87148 18.4838 7.75456 18.2617 6.71247 17.83C5.67036 17.3984 4.72349 16.7657 3.92591 15.9681C2.3151 14.3573 1.41016 12.1726 1.41016 9.89453" stroke="black" stroke-width="1.5" stroke-linecap="round" stroke-linejoin="round"/>
<path id="Vector_3" d="M12.6423 12.537L9.99944 9.2334H6.03516" stroke="black" stroke-width="1.5" stroke-linecap="round" stroke-linejoin="round"/>
<path id="Vector_4" d="M16.6071 17.8227C17.7018 17.8227 18.5893 16.9352 18.5893 15.8405C18.5893 14.7459 17.7018 13.8584 16.6071 13.8584C15.5125 13.8584 14.625 14.7459 14.625 15.8405C14.625 16.9352 15.5125 17.8227 16.6071 17.8227Z" stroke="black" stroke-width="1.5" stroke-linecap="round" stroke-linejoin="round"/>
<path id="Vector_5" d="M1.96484 6.72342C2.25283 6.00371 2.63977 5.32767 3.11448 4.71484" stroke="black" stroke-width="1.5" stroke-linecap="round" stroke-linejoin="round"/>
<path id="Vector_6" d="M5.66406 2.4416C6.40877 2.01159 7.2156 1.69955 8.05585 1.5166" stroke="black" stroke-width="1.5" stroke-linecap="round" stroke-linejoin="round"/>
<path id="Vector_7" d="M18.0325 6.72342C17.7445 6.00371 17.3575 5.32767 16.8828 4.71484" stroke="black" stroke-width="1.5" stroke-linecap="round" stroke-linejoin="round"/>
<path id="Vector_8" d="M14.3332 2.4416C13.5885 2.01159 12.7817 1.69955 11.9414 1.5166" stroke="black" stroke-width="1.5" stroke-linecap="round" stroke-linejoin="round"/>
</g>
</g>
<defs>
<clipPath id="clip0_47_148491">
<rect width="20" height="20" fill="white"/>
</clipPath>
</defs>
</svg>
