<svg width="21" height="21" viewBox="0 0 21 21" fill="none" xmlns="http://www.w3.org/2000/svg">
<path d="M13.9827 19.5535V16.0714H16.7684C17.1378 16.0714 17.4921 15.9246 17.7533 15.6634C18.0145 15.4021 18.1613 15.0479 18.1613 14.6785V9.10705C18.161 7.74556 17.7979 6.40875 17.1094 5.23421C16.4209 4.05967 15.4317 3.08985 14.2439 2.42458C13.056 1.75932 11.7123 1.42264 10.351 1.44921C8.98984 1.47578 7.66029 1.86464 6.49927 2.57576C5.33827 3.28687 4.38775 4.29456 3.74556 5.49507C3.10339 6.69559 2.79275 8.04556 2.84562 9.406C2.89851 10.7665 3.313 12.0882 4.04642 13.2353C4.77984 14.3823 5.80571 15.3131 7.01841 15.9321V19.5535" stroke="black" stroke-width="1.5" stroke-linecap="round" stroke-linejoin="round"/>
<path d="M9.25958 6.15376L9.56065 5.37658C9.61142 5.24499 9.70076 5.13181 9.81695 5.05185C9.93314 4.97188 10.0708 4.92888 10.2118 4.92847H10.7859C10.927 4.92888 11.0646 4.97188 11.1808 5.05185C11.297 5.13181 11.3863 5.24499 11.4371 5.37658L11.7382 6.15376L12.7604 6.74191L13.5866 6.61587C13.7242 6.59721 13.8642 6.61986 13.9889 6.68093C14.1136 6.74202 14.2172 6.8388 14.2868 6.95896L14.5669 7.44908C14.6386 7.57115 14.6717 7.71212 14.6617 7.85337C14.6517 7.99462 14.5991 8.12953 14.5108 8.24028L13.9997 8.89142V10.0677L14.5249 10.7189C14.6131 10.8296 14.6657 10.9645 14.6757 11.1058C14.6857 11.247 14.6526 11.388 14.5809 11.5101L14.3008 12.0002C14.2313 12.1203 14.1276 12.2171 14.0029 12.2782C13.8782 12.3393 13.7382 12.3619 13.6006 12.3433L12.7744 12.2172L11.7522 12.8054L11.4511 13.5826C11.4003 13.7142 11.311 13.8273 11.1948 13.9073C11.0786 13.9873 10.941 14.0303 10.8 14.0307H10.2118C10.0708 14.0303 9.93314 13.9873 9.81695 13.9073C9.70076 13.8273 9.61142 13.7142 9.56065 13.5826L9.25958 12.8054L8.23732 12.2172L7.41112 12.3433C7.27355 12.3619 7.13354 12.3393 7.00887 12.2782C6.88419 12.2171 6.78051 12.1203 6.71096 12.0002L6.43089 11.5101C6.35913 11.388 6.32606 11.247 6.33606 11.1058C6.34606 10.9645 6.39865 10.8296 6.48691 10.7189L6.99803 10.0677V8.89142L6.47289 8.24028C6.38466 8.12953 6.33205 7.99462 6.32206 7.85337C6.31206 7.71212 6.34511 7.57115 6.41689 7.44908L6.69695 6.95896C6.76649 6.8388 6.87019 6.74202 6.99487 6.68093C7.11954 6.61986 7.25955 6.59721 7.39712 6.61587L8.22333 6.74191L9.25958 6.15376Z" stroke="black" stroke-width="1.5" stroke-linecap="round" stroke-linejoin="round"/>
<path d="M9.80469 9.48036C9.80469 9.66507 9.87806 9.84221 10.0087 9.97281C10.1393 10.1034 10.3164 10.1768 10.5011 10.1768C10.6858 10.1768 10.863 10.1034 10.9936 9.97281C11.1242 9.84221 11.1975 9.66507 11.1975 9.48036C11.1975 9.29566 11.1242 9.11852 10.9936 8.98791C10.863 8.85731 10.6858 8.78394 10.5011 8.78394C10.3164 8.78394 10.1393 8.85731 10.0087 8.98791C9.87806 9.11852 9.80469 9.29566 9.80469 9.48036Z" stroke="black" stroke-width="1.5" stroke-linecap="round" stroke-linejoin="round"/>
</svg>
