<svg width="20" height="20" viewBox="0 0 20 20" fill="none" xmlns="http://www.w3.org/2000/svg">
<g id="crown-square-2" clip-path="url(#clip0_47_148653)">
<g id="crown-square--reward-social-rating-media-queen-vip-king-crown-square">
<path id="Vector" d="M15.2863 7.35603L12.6434 9.33817L10.0006 6.69531L7.3577 9.33817L4.71484 7.35603V11.3203C4.71484 11.846 4.92368 12.3502 5.2954 12.7219C5.66712 13.0936 6.1713 13.3025 6.69699 13.3025H13.3041C13.8298 13.3025 14.3341 13.0936 14.7058 12.7219C15.0775 12.3502 15.2863 11.846 15.2863 11.3203V7.35603Z" stroke="black" stroke-width="1.5" stroke-linecap="round" stroke-linejoin="round"/>
<path id="Vector_2" d="M17.2673 1.41016H2.73158C2.00178 1.41016 1.41016 2.00178 1.41016 2.73158V17.2673C1.41016 17.9971 2.00178 18.5887 2.73158 18.5887H17.2673C17.9971 18.5887 18.5887 17.9971 18.5887 17.2673V2.73158C18.5887 2.00178 17.9971 1.41016 17.2673 1.41016Z" stroke="black" stroke-width="1.5" stroke-linecap="round" stroke-linejoin="round"/>
</g>
</g>
<defs>
<clipPath id="clip0_47_148653">
<rect width="20" height="20" fill="white"/>
</clipPath>
</defs>
</svg>
