<svg width="21" height="21" viewBox="0 0 21 21" fill="none" xmlns="http://www.w3.org/2000/svg">
<g clip-path="url(#clip0_146_399727)">
<path d="M1.44531 11.8928H8.4096" stroke="black" stroke-width="1.5" stroke-linecap="round" stroke-linejoin="round"/>
<path d="M4.23047 11.8929V9.10718H5.62333" stroke="black" stroke-width="1.5" stroke-linecap="round" stroke-linejoin="round"/>
<path d="M1.44531 15.375H3.5346" stroke="black" stroke-width="1.5" stroke-linecap="round" stroke-linejoin="round"/>
<path d="M9.80078 19.5535V16.7678H11.1936" stroke="black" stroke-width="1.5" stroke-linecap="round" stroke-linejoin="round"/>
<path d="M10.5 5.625V8.41071H11.8929" stroke="black" stroke-width="1.5" stroke-linecap="round" stroke-linejoin="round"/>
<path d="M6.66853 15.7232C6.47621 15.7232 6.32031 15.5673 6.32031 15.3749C6.32031 15.1826 6.47621 15.0267 6.66853 15.0267" stroke="black" stroke-width="1.5" stroke-linecap="round" stroke-linejoin="round"/>
<path d="M6.66797 15.7232C6.86028 15.7232 7.01618 15.5673 7.01618 15.3749C7.01618 15.1826 6.86028 15.0267 6.66797 15.0267" stroke="black" stroke-width="1.5" stroke-linecap="round" stroke-linejoin="round"/>
<path d="M17.4632 14.6786V18.1607C17.4632 18.5301 17.3164 18.8844 17.0552 19.1456C16.794 19.4067 16.4397 19.5536 16.0703 19.5536H2.83817C2.46876 19.5536 2.11448 19.4067 1.85327 19.1456C1.59206 18.8844 1.44531 18.5301 1.44531 18.1607V5.62498C1.44531 3.31723 3.31613 1.44641 5.62388 1.44641H14.6775V5.62498" stroke="black" stroke-width="1.5" stroke-linecap="round" stroke-linejoin="round"/>
<path d="M18.8555 10.5H14.6769C14.2923 10.5 13.9805 10.8118 13.9805 11.1964V13.9821C13.9805 14.3668 14.2923 14.6786 14.6769 14.6786H18.8555C19.24 14.6786 19.5519 14.3668 19.5519 13.9821V11.1964C19.5519 10.8118 19.24 10.5 18.8555 10.5Z" stroke="black" stroke-width="1.5" stroke-linecap="round" stroke-linejoin="round"/>
<path d="M17.4643 10.5V7.01786C17.4643 6.64844 17.3175 6.29417 17.0563 6.03295C16.7952 5.77175 16.4408 5.625 16.0714 5.625H5.625" stroke="black" stroke-width="1.5" stroke-linecap="round" stroke-linejoin="round"/>
</g>
<defs>
<clipPath id="clip0_146_399727">
<rect width="21" height="21" fill="white"/>
</clipPath>
</defs>
</svg>
