<svg width="21" height="21" viewBox="0 0 21 21" fill="none" xmlns="http://www.w3.org/2000/svg">
<path d="M9.07422 2.31702H8.53675C7.7675 2.31702 7.14389 2.94063 7.14389 3.70987V7.56787C7.14389 8.51703 6.66061 9.40087 5.86154 9.9131L4.74219 10.6306L5.86154 11.3482C6.66061 11.8604 7.14389 12.7442 7.14389 13.6934V17.5514C7.14389 18.3207 7.7675 18.9442 8.53675 18.9442H9.07422" stroke="black" stroke-width="1.5" stroke-linecap="round" stroke-linejoin="round"/>
<path d="M12.4023 2.31702H12.9398C13.7091 2.31702 14.3327 2.94063 14.3327 3.70987V7.56787C14.3327 8.51703 14.8159 9.40087 15.615 9.9131L16.7344 10.6306L15.615 11.3482C14.8159 11.8604 14.3327 12.7442 14.3327 13.6934V17.5514C14.3327 18.3207 13.7091 18.9442 12.9398 18.9442H12.4023" stroke="black" stroke-width="1.5" stroke-linecap="round" stroke-linejoin="round"/>
</svg>
