<svg width="20" height="20" viewBox="0 0 20 20" fill="none" xmlns="http://www.w3.org/2000/svg">
<g id="customer-support-7-4">
<g id="customer-support-7--customer-headphones-help-microphone-person-profile-support">
<path id="Vector" d="M9.34263 13.3034C11.1671 13.3034 12.6462 11.8244 12.6462 9.99986C12.6462 8.17535 11.1671 6.69629 9.34263 6.69629C7.51812 6.69629 6.03906 8.17535 6.03906 9.99986C6.03906 11.8244 7.51812 13.3034 9.34263 13.3034Z" stroke="black" stroke-width="1.5" stroke-linecap="round" stroke-linejoin="round"/>
<path id="Vector_2" d="M9.33984 6.69636V1.41064" stroke="black" stroke-width="1.5" stroke-linecap="round" stroke-linejoin="round"/>
<path id="Vector_3" d="M12.6445 3.5249C13.8379 4.13391 14.8398 5.06094 15.5394 6.20361C16.2389 7.34628 16.6091 8.66008 16.6088 9.9999V11.982" stroke="black" stroke-width="1.5" stroke-linecap="round" stroke-linejoin="round"/>
<path id="Vector_4" d="M12.6445 18.5891V16.6069" stroke="black" stroke-width="1.5" stroke-linecap="round" stroke-linejoin="round"/>
<path id="Vector_5" d="M6.03725 3.5249C4.84335 4.13354 3.84096 5.06043 3.1409 6.20312C2.44082 7.34581 2.07031 8.65982 2.07031 9.9999C2.07031 11.34 2.44082 12.654 3.1409 13.7967C3.84096 14.9394 4.84335 15.8663 6.03725 16.4749V18.5892" stroke="black" stroke-width="1.5" stroke-linecap="round" stroke-linejoin="round"/>
<path id="Vector_6" d="M11.3242 12.6426C11.3242 12.6426 13.3064 14.6247 17.9315 14.6247" stroke="black" stroke-width="1.5" stroke-linecap="round" stroke-linejoin="round"/>
</g>
</g>
</svg>
