<svg width="20" height="20" viewBox="0 0 20 20" fill="none" xmlns="http://www.w3.org/2000/svg">
<g id="customer-support-2-8" clip-path="url(#clip0_47_144982)">
<g id="customer-support-2--customer-headphones-headset-help-microphone-phone-person-support">
<path id="Vector" d="M4.71484 10.0003V6.52492C4.72516 5.84178 4.87018 5.1674 5.14159 4.54041C5.41298 3.9134 5.80545 3.34613 6.29646 2.87106C6.78748 2.39601 7.36741 2.0225 8.00303 1.77195C8.63864 1.52141 9.31746 1.39874 10.0006 1.41099C10.6837 1.39874 11.3625 1.52141 11.9981 1.77195C12.6337 2.0225 13.2136 2.39601 13.7047 2.87106C14.1957 3.34613 14.5882 3.9134 14.8596 4.54041C15.1309 5.1674 15.276 5.84178 15.2863 6.52492V10.0003" stroke="black" stroke-width="1.5" stroke-linecap="round" stroke-linejoin="round"/>
<path id="Vector_2" d="M2.73158 8.01807H4.05301C4.22825 8.01807 4.39631 8.08768 4.5202 8.21159C4.64411 8.33549 4.71373 8.50355 4.71373 8.67878V12.6431C4.71373 12.8183 4.64411 12.9864 4.5202 13.1103C4.39631 13.2342 4.22825 13.3038 4.05301 13.3038H2.73158C2.38112 13.3038 2.04501 13.1646 1.79719 12.9167C1.54938 12.6689 1.41016 12.3328 1.41016 11.9824V9.3395C1.41016 8.98903 1.54938 8.65292 1.79719 8.4051C2.04501 8.15729 2.38112 8.01807 2.73158 8.01807Z" stroke="black" stroke-width="1.5" stroke-linecap="round" stroke-linejoin="round"/>
<path id="Vector_3" d="M17.2673 13.3038H15.9459C15.7706 13.3038 15.6026 13.2342 15.4786 13.1103C15.3548 12.9864 15.2852 12.8183 15.2852 12.6431V8.67878C15.2852 8.50355 15.3548 8.33549 15.4786 8.21159C15.6026 8.08768 15.7706 8.01807 15.9459 8.01807H17.2673C17.6177 8.01807 17.9539 8.15729 18.2017 8.4051C18.4494 8.65292 18.5887 8.98903 18.5887 9.3395V11.9824C18.5887 12.3328 18.4494 12.6689 18.2017 12.9167C17.9539 13.1646 17.6177 13.3038 17.2673 13.3038Z" stroke="black" stroke-width="1.5" stroke-linecap="round" stroke-linejoin="round"/>
<path id="Vector_4" d="M12.6406 16.9374C13.3416 16.9374 14.0137 16.6589 14.5094 16.1633C15.0051 15.6676 15.2835 14.9954 15.2835 14.2945V11.3213" stroke="black" stroke-width="1.5" stroke-linecap="round" stroke-linejoin="round"/>
<path id="Vector_5" d="M12.6412 16.9374C12.6412 17.3755 12.4672 17.7957 12.1574 18.1054C11.8476 18.4152 11.4275 18.5892 10.9894 18.5892H9.00725C8.56917 18.5892 8.14904 18.4152 7.83927 18.1054C7.5295 17.7957 7.35547 17.3755 7.35547 16.9374C7.35547 16.4994 7.5295 16.0792 7.83927 15.7694C8.14904 15.4597 8.56917 15.2856 9.00725 15.2856H10.9894C11.4275 15.2856 11.8476 15.4597 12.1574 15.7694C12.4672 16.0792 12.6412 16.4994 12.6412 16.9374Z" stroke="black" stroke-width="1.5" stroke-linecap="round" stroke-linejoin="round"/>
<path id="Vector_6" d="M8.01562 10C8.01562 11.9821 11.9799 11.9821 11.9799 10" stroke="black" stroke-width="1.5" stroke-linecap="round" stroke-linejoin="round"/>
<g id="Group 2657">
<path id="Ellipse 1121" d="M8.01786 7.357C7.83541 7.357 7.6875 7.2091 7.6875 7.02665C7.6875 6.8442 7.83541 6.69629 8.01786 6.69629" stroke="black" stroke-width="1.5" stroke-linecap="round" stroke-linejoin="round"/>
<path id="Ellipse 1122" d="M8.01953 7.357C8.20198 7.357 8.34989 7.2091 8.34989 7.02665C8.34989 6.8442 8.20198 6.69629 8.01953 6.69629" stroke="black" stroke-width="1.5" stroke-linecap="round" stroke-linejoin="round"/>
</g>
<g id="Group 2658">
<path id="Ellipse 1121_2" d="M11.9827 7.357C11.8003 7.357 11.6523 7.2091 11.6523 7.02665C11.6523 6.8442 11.8003 6.69629 11.9827 6.69629" stroke="black" stroke-width="1.5" stroke-linecap="round" stroke-linejoin="round"/>
<path id="Ellipse 1122_2" d="M11.9844 7.357C12.1668 7.357 12.3147 7.2091 12.3147 7.02665C12.3147 6.8442 12.1668 6.69629 11.9844 6.69629" stroke="black" stroke-width="1.5" stroke-linecap="round" stroke-linejoin="round"/>
</g>
</g>
</g>
<defs>
<clipPath id="clip0_47_144982">
<rect width="20" height="20" fill="white"/>
</clipPath>
</defs>
</svg>
