<svg width="20" height="20" viewBox="0 0 20 20" fill="none" xmlns="http://www.w3.org/2000/svg">
<g id="custom-feeds-like-favorite-1" clip-path="url(#clip0_47_147439)">
<g id="custom-feeds-like-favorite">
<path id="vector" d="M15.0003 4.83775V3.04333C15.0003 2.22135 14.3131 1.53418 13.4912 1.53418H2.92713C2.10513 1.53418 1.41797 2.22135 1.41797 3.04333V13.6074C1.41797 14.4294 2.10513 15.1165 2.92713 15.1165H5.0106" stroke="black" stroke-width="1.5" stroke-linecap="round" stroke-linejoin="round"/>
<path id="vector_2" d="M17.0771 18.4651C17.9106 18.4651 18.5862 17.7895 18.5862 16.9561V6.39196C18.5862 5.56997 17.8991 4.88281 17.0771 4.88281H6.51306C5.69108 4.88281 5.00391 5.56997 5.00391 6.39196V16.9561C5.00391 17.778 5.69108 18.4651 6.51306 18.4651H17.0771Z" stroke="black" stroke-width="1.5" stroke-linecap="round" stroke-linejoin="round"/>
<path id="vector_3" d="M11.7947 15.1993L8.53478 12.1784C6.70925 10.3963 9.33888 6.94084 11.7947 9.7226C14.2504 6.94084 16.8801 10.3963 15.0545 12.1784L11.7947 15.1993Z" stroke="black" stroke-width="1.5" stroke-linecap="round" stroke-linejoin="round"/>
</g>
</g>
<defs>
<clipPath id="clip0_47_147439">
<rect width="20" height="20" fill="white"/>
</clipPath>
</defs>
</svg>
