<svg width="20" height="20" viewBox="0 0 20 20" fill="none" xmlns="http://www.w3.org/2000/svg">
<g id="cutter-13">
<g id="cutter--cutter-company-office-supplies-work">
<path id="Vector" d="M5.4112 10.6569L2.78906 13.279V18.5232L8.03334 13.279" stroke="black" stroke-width="1.5" stroke-linecap="round" stroke-linejoin="round"/>
<path id="Vector_2" d="M16.1241 2.56729C15.7805 2.22162 15.3719 1.9473 14.9218 1.76012C14.4719 1.57293 13.9893 1.47656 13.5019 1.47656C13.0145 1.47656 12.5319 1.57293 12.0819 1.76012C11.6319 1.9473 11.2234 2.22162 10.8798 2.56729L4.10156 9.3455L9.34582 14.5898L16.1241 7.81155C16.4698 7.46795 16.744 7.05939 16.9312 6.60939C17.1185 6.15938 17.2148 5.67681 17.2148 5.18941C17.2148 4.70203 17.1185 4.21946 16.9312 3.76945C16.744 3.31945 16.4698 2.91089 16.1241 2.56729Z" stroke="black" stroke-width="1.5" stroke-linecap="round" stroke-linejoin="round"/>
<path id="Vector_3" d="M9.34375 9.34568L13.277 5.41248" stroke="black" stroke-width="1.5" stroke-linecap="round" stroke-linejoin="round"/>
</g>
</g>
</svg>
