<svg width="21" height="21" viewBox="0 0 21 21" fill="none" xmlns="http://www.w3.org/2000/svg">
<g clip-path="url(#clip0_146_401513)">
<path d="M9.10603 7.35213C13.3369 7.35213 16.7667 6.03008 16.7667 4.39927C16.7667 2.76846 13.3369 1.44641 9.10603 1.44641C4.87512 1.44641 1.44531 2.76846 1.44531 4.39927C1.44531 6.03008 4.87512 7.35213 9.10603 7.35213Z" stroke="black" stroke-width="1.5" stroke-linecap="round" stroke-linejoin="round"/>
<path d="M16.7656 8.41072V4.39929" stroke="black" stroke-width="1.5" stroke-linecap="round" stroke-linejoin="round"/>
<path d="M1.44531 4.39929V13.815C1.44531 15.2671 4.14874 16.4295 7.71317 16.707" stroke="black" stroke-width="1.5" stroke-linecap="round" stroke-linejoin="round"/>
<path d="M1.44531 9.10718C1.44531 10.7368 4.92745 12.06 9.10603 12.0043H9.80246" stroke="black" stroke-width="1.5" stroke-linecap="round" stroke-linejoin="round"/>
<path d="M19.4498 18.3139C19.518 18.4401 19.5538 18.5814 19.5538 18.7248C19.5538 18.8683 19.518 19.0095 19.4498 19.1357C19.3855 19.2615 19.2879 19.3671 19.1674 19.4409C19.0469 19.5146 18.9085 19.5536 18.7673 19.5536H10.5912C10.45 19.5536 10.3115 19.5146 10.1911 19.4409C10.0706 19.3671 9.9729 19.2615 9.90871 19.1357C9.84044 19.0095 9.80469 18.8683 9.80469 18.7248C9.80469 18.5814 9.84044 18.4401 9.90871 18.3139L14.0176 10.904C14.0741 10.7656 14.1705 10.6472 14.2945 10.5638C14.4186 10.4804 14.5646 10.4359 14.714 10.4359C14.8635 10.4359 15.0096 10.4804 15.1336 10.5638C15.2577 10.6472 15.3541 10.7656 15.4105 10.904L19.4498 18.3139Z" stroke="black" stroke-width="1.5" stroke-linecap="round" stroke-linejoin="round"/>
<path d="M14.6836 15.375V13.9822" stroke="black" stroke-width="1.5" stroke-linecap="round" stroke-linejoin="round"/>
<path d="M14.6781 17.6387C14.5819 17.6387 14.5039 17.5607 14.5039 17.4644C14.5039 17.3682 14.5819 17.2902 14.6781 17.2902" stroke="black" stroke-width="1.5" stroke-linecap="round" stroke-linejoin="round"/>
<path d="M14.6797 17.6384C14.7759 17.6384 14.8539 17.5604 14.8539 17.4643C14.8539 17.368 14.7759 17.29 14.6797 17.29" stroke="black" stroke-width="1.5" stroke-linecap="round" stroke-linejoin="round"/>
</g>
<defs>
<clipPath id="clip0_146_401513">
<rect width="21" height="21" fill="white"/>
</clipPath>
</defs>
</svg>
