<svg width="21" height="21" viewBox="0 0 21 21" fill="none" xmlns="http://www.w3.org/2000/svg">
<g clip-path="url(#clip0_146_401504)">
<path d="M15.0268 19.5536C17.5268 19.5536 19.5536 17.5268 19.5536 15.0268C19.5536 12.5267 17.5268 10.5 15.0268 10.5C12.5267 10.5 10.5 12.5267 10.5 15.0268C10.5 17.5268 12.5267 19.5536 15.0268 19.5536Z" stroke="black" stroke-width="1.5" stroke-linecap="round" stroke-linejoin="round"/>
<path d="M15.0273 13.2856V16.7678" stroke="black" stroke-width="1.5" stroke-linecap="round" stroke-linejoin="round"/>
<path d="M13.2852 15.0267H16.7673" stroke="black" stroke-width="1.5" stroke-linecap="round" stroke-linejoin="round"/>
<path d="M9.10603 7.35213C13.3369 7.35213 16.7667 6.03008 16.7667 4.39927C16.7667 2.76846 13.3369 1.44641 9.10603 1.44641C4.87512 1.44641 1.44531 2.76846 1.44531 4.39927C1.44531 6.03008 4.87512 7.35213 9.10603 7.35213Z" stroke="black" stroke-width="1.5" stroke-linecap="round" stroke-linejoin="round"/>
<path d="M16.7656 7.01786V4.39929" stroke="black" stroke-width="1.5" stroke-linecap="round" stroke-linejoin="round"/>
<path d="M1.44531 4.39929V13.815C1.44531 15.1104 3.59031 16.1968 6.58496 16.6007" stroke="black" stroke-width="1.5" stroke-linecap="round" stroke-linejoin="round"/>
<path d="M7.00281 11.8929C3.79924 11.5865 1.44531 10.5 1.44531 9.10718" stroke="black" stroke-width="1.5" stroke-linecap="round" stroke-linejoin="round"/>
</g>
<defs>
<clipPath id="clip0_146_401504">
<rect width="21" height="21" fill="white"/>
</clipPath>
</defs>
</svg>
