<svg width="21" height="21" viewBox="0 0 21 21" fill="none" xmlns="http://www.w3.org/2000/svg">
<g clip-path="url(#clip0_146_401577)">
<path d="M9.10603 7.35213C13.3369 7.35213 16.7667 6.03008 16.7667 4.39927C16.7667 2.76846 13.3369 1.44641 9.10603 1.44641C4.87512 1.44641 1.44531 2.76846 1.44531 4.39927C1.44531 6.03008 4.87512 7.35213 9.10603 7.35213Z" stroke="black" stroke-width="1.5" stroke-linecap="round" stroke-linejoin="round"/>
<path d="M16.7656 9.10715V4.39929" stroke="black" stroke-width="1.5" stroke-linecap="round" stroke-linejoin="round"/>
<path d="M1.44531 4.39929V13.815C1.44531 15.2671 4.14874 16.4295 7.71317 16.707" stroke="black" stroke-width="1.5" stroke-linecap="round" stroke-linejoin="round"/>
<path d="M9.10603 12.0043C4.92745 12.06 1.44531 10.7368 1.44531 9.10718" stroke="black" stroke-width="1.5" stroke-linecap="round" stroke-linejoin="round"/>
<path d="M19.4123 16.5846L18.2409 17.4699L17.3555 16.2985" stroke="black" stroke-width="1.5" stroke-linecap="round" stroke-linejoin="round"/>
<path d="M18.1782 17.382C18.3715 17.0105 18.5027 16.5985 18.5565 16.1582C18.7966 14.1888 17.3947 12.3975 15.4252 12.1573C14.8019 12.0813 14.1964 12.1697 13.6523 12.3886" stroke="black" stroke-width="1.5" stroke-linecap="round" stroke-linejoin="round"/>
<path d="M10.5625 14.9161L11.7339 14.0306L12.6193 15.202" stroke="black" stroke-width="1.5" stroke-linecap="round" stroke-linejoin="round"/>
<path d="M11.7957 14.1191C11.6023 14.4907 11.4711 14.9026 11.4174 15.3429C11.1772 17.3124 12.5791 19.1036 14.5486 19.3439C15.172 19.4198 15.7774 19.3314 16.3215 19.1125" stroke="black" stroke-width="1.5" stroke-linecap="round" stroke-linejoin="round"/>
</g>
<defs>
<clipPath id="clip0_146_401577">
<rect width="21" height="21" fill="white"/>
</clipPath>
</defs>
</svg>
