<svg width="21" height="21" viewBox="0 0 21 21" fill="none" xmlns="http://www.w3.org/2000/svg">
<g clip-path="url(#clip0_146_401491)">
<path d="M10.4989 8.4107C15.4991 8.4107 19.5525 6.85169 19.5525 4.92855C19.5525 3.00542 15.4991 1.44641 10.4989 1.44641C5.49874 1.44641 1.44531 3.00542 1.44531 4.92855C1.44531 6.85169 5.49874 8.4107 10.4989 8.4107Z" stroke="black" stroke-width="1.5" stroke-linecap="round" stroke-linejoin="round"/>
<path d="M1.44531 4.92859V16.0714C1.44531 17.9936 5.49853 19.5536 10.4989 19.5536C15.4992 19.5536 19.5525 17.9936 19.5525 16.0714V4.92859" stroke="black" stroke-width="1.5" stroke-linecap="round" stroke-linejoin="round"/>
<path d="M19.5525 10.5C19.5525 12.4221 15.4992 13.9821 10.4989 13.9821C5.49853 13.9821 1.44531 12.4221 1.44531 10.5" stroke="black" stroke-width="1.5" stroke-linecap="round" stroke-linejoin="round"/>
</g>
<defs>
<clipPath id="clip0_146_401491">
<rect width="21" height="21" fill="white"/>
</clipPath>
</defs>
</svg>
