<svg width="21" height="21" viewBox="0 0 21 21" fill="none" xmlns="http://www.w3.org/2000/svg">
<path d="M18.1596 2.14282H2.83817C2.06892 2.14282 1.44531 2.76643 1.44531 3.53568V9.10711C1.44531 9.87635 2.06892 10.5 2.83817 10.5H18.1596C18.9289 10.5 19.5525 9.87635 19.5525 9.10711V3.53568C19.5525 2.76643 18.9289 2.14282 18.1596 2.14282Z" stroke="black" stroke-width="1.5" stroke-linecap="round" stroke-linejoin="round"/>
<path d="M5.62221 7.01786C6.00683 7.01786 6.31864 6.70605 6.31864 6.32143C6.31864 5.93681 6.00683 5.625 5.62221 5.625C5.23759 5.625 4.92578 5.93681 4.92578 6.32143C4.92578 6.70605 5.23759 7.01786 5.62221 7.01786Z" stroke="black" stroke-width="1.5" stroke-linecap="round" stroke-linejoin="round"/>
<path d="M11.1953 6.32141H16.0703" stroke="black" stroke-width="1.5" stroke-linecap="round" stroke-linejoin="round"/>
<path d="M2.83817 10.5C2.46876 10.5 2.11448 10.6468 1.85327 10.908C1.59206 11.1692 1.44531 11.5234 1.44531 11.8929V17.4643C1.44531 17.8337 1.59206 18.188 1.85327 18.4492C2.11448 18.7103 2.46876 18.8571 2.83817 18.8571H18.1596C18.529 18.8571 18.8833 18.7103 19.1445 18.4492C19.4056 18.188 19.5525 17.8337 19.5525 17.4643V11.8929C19.5525 11.5234 19.4056 11.1692 19.1445 10.908C18.8833 10.6468 18.529 10.5 18.1596 10.5" stroke="black" stroke-width="1.5" stroke-linecap="round" stroke-linejoin="round"/>
<path d="M5.62221 15.3749C6.00683 15.3749 6.31864 15.0631 6.31864 14.6785C6.31864 14.2939 6.00683 13.9821 5.62221 13.9821C5.23759 13.9821 4.92578 14.2939 4.92578 14.6785C4.92578 15.0631 5.23759 15.3749 5.62221 15.3749Z" stroke="black" stroke-width="1.5" stroke-linecap="round" stroke-linejoin="round"/>
<path d="M11.1953 14.6786H16.0703" stroke="black" stroke-width="1.5" stroke-linecap="round" stroke-linejoin="round"/>
</svg>
