<svg width="21" height="21" viewBox="0 0 21 21" fill="none" xmlns="http://www.w3.org/2000/svg">
<g clip-path="url(#clip0_146_401611)">
<path d="M18.1596 1.44641H2.83817C2.06892 1.44641 1.44531 2.07001 1.44531 2.83927V7.01784C1.44531 7.78709 2.06892 8.4107 2.83817 8.4107H18.1596C18.9289 8.4107 19.5525 7.78709 19.5525 7.01784V2.83927C19.5525 2.07001 18.9289 1.44641 18.1596 1.44641Z" stroke="black" stroke-width="1.5" stroke-linecap="round" stroke-linejoin="round"/>
<path d="M11.1953 4.92859H16.0703" stroke="black" stroke-width="1.5" stroke-linecap="round" stroke-linejoin="round"/>
<path d="M2.83817 8.41064C2.46876 8.41064 2.11448 8.5574 1.85327 8.8186C1.59206 9.07982 1.44531 9.43409 1.44531 9.8035V13.9821C1.44531 14.3515 1.59206 14.7058 1.85327 14.967C2.11448 15.2281 2.46876 15.3749 2.83817 15.3749H18.1596C18.529 15.3749 18.8833 15.2281 19.1445 14.967C19.4056 14.7058 19.5525 14.3515 19.5525 13.9821V9.8035C19.5525 9.43409 19.4056 9.07982 19.1445 8.8186C18.8833 8.5574 18.529 8.41064 18.1596 8.41064" stroke="black" stroke-width="1.5" stroke-linecap="round" stroke-linejoin="round"/>
<path d="M5.274 12.2411C5.08168 12.2411 4.92578 12.0852 4.92578 11.8929C4.92578 11.7006 5.08168 11.5447 5.274 11.5447" stroke="black" stroke-width="1.5" stroke-linecap="round" stroke-linejoin="round"/>
<path d="M5.27344 12.2411C5.46575 12.2411 5.62165 12.0852 5.62165 11.8929C5.62165 11.7006 5.46575 11.5447 5.27344 11.5447" stroke="black" stroke-width="1.5" stroke-linecap="round" stroke-linejoin="round"/>
<path d="M5.274 5.27675C5.08168 5.27675 4.92578 5.12085 4.92578 4.92854C4.92578 4.73622 5.08168 4.58032 5.274 4.58032" stroke="black" stroke-width="1.5" stroke-linecap="round" stroke-linejoin="round"/>
<path d="M5.27344 5.27675C5.46575 5.27675 5.62165 5.12085 5.62165 4.92854C5.62165 4.73622 5.46575 4.58032 5.27344 4.58032" stroke="black" stroke-width="1.5" stroke-linecap="round" stroke-linejoin="round"/>
<path d="M11.1953 11.8928H16.0703" stroke="black" stroke-width="1.5" stroke-linecap="round" stroke-linejoin="round"/>
<path d="M10.5 15.375V19.5536" stroke="black" stroke-width="1.5" stroke-linecap="round" stroke-linejoin="round"/>
<path d="M3.53516 19.5536H17.4637" stroke="black" stroke-width="1.5" stroke-linecap="round" stroke-linejoin="round"/>
</g>
<defs>
<clipPath id="clip0_146_401611">
<rect width="21" height="21" fill="white"/>
</clipPath>
</defs>
</svg>
