<svg width="21" height="21" viewBox="0 0 21 21" fill="none" xmlns="http://www.w3.org/2000/svg">
<g clip-path="url(#clip0_146_401669)">
<path d="M9.10603 7.35213C13.3369 7.35213 16.7667 6.03008 16.7667 4.39927C16.7667 2.76846 13.3369 1.44641 9.10603 1.44641C4.87512 1.44641 1.44531 2.76846 1.44531 4.39927C1.44531 6.03008 4.87512 7.35213 9.10603 7.35213Z" stroke="black" stroke-width="1.5" stroke-linecap="round" stroke-linejoin="round"/>
<path d="M13.9805 15.3749L16.7662 12.5892L19.5519 15.3749" stroke="black" stroke-width="1.5" stroke-linecap="round" stroke-linejoin="round"/>
<path d="M16.7656 12.5892V19.5535" stroke="black" stroke-width="1.5" stroke-linecap="round" stroke-linejoin="round"/>
<path d="M1.44531 4.39941V13.8151C1.44531 15.4447 4.92745 16.768 9.10603 16.768C9.65022 16.768 10.1826 16.7455 10.697 16.7029" stroke="black" stroke-width="1.5" stroke-linecap="round" stroke-linejoin="round"/>
<path d="M1.44531 9.10718C1.44531 10.7368 4.92745 12.06 9.10603 12.06C13.2846 12.06 16.7667 10.7368 16.7667 9.10718" stroke="black" stroke-width="1.5" stroke-linecap="round" stroke-linejoin="round"/>
<path d="M16.7656 9.10727V4.39941" stroke="black" stroke-width="1.5" stroke-linecap="round" stroke-linejoin="round"/>
</g>
<defs>
<clipPath id="clip0_146_401669">
<rect width="21" height="21" fill="white"/>
</clipPath>
</defs>
</svg>
