<svg width="19" height="19" viewBox="0 0 19 19" fill="none" xmlns="http://www.w3.org/2000/svg">
<path d="M8.21596 6.59425C12.1214 6.59425 15.2874 5.3739 15.2874 3.86854C15.2874 2.36317 12.1214 1.14282 8.21596 1.14282C4.31051 1.14282 1.14453 2.36317 1.14453 3.86854C1.14453 5.3739 4.31051 6.59425 8.21596 6.59425Z" stroke="#003366" stroke-width="1.28571" stroke-linecap="round" stroke-linejoin="round"/>
<path d="M15.2891 6.28567V3.86853" stroke="#003366" stroke-width="1.28571" stroke-linecap="round" stroke-linejoin="round"/>
<path d="M1.14453 3.86853V12.56C1.14453 14 4.02453 15.1314 7.67596 15.2728" stroke="#003366" stroke-width="1.28571" stroke-linecap="round" stroke-linejoin="round"/>
<path d="M8.21596 10.8885C4.35882 10.9399 1.14453 9.71852 1.14453 8.21423" stroke="#003366" stroke-width="1.28571" stroke-linecap="round" stroke-linejoin="round"/>
<path d="M10.7874 12.7142H17.216C17.6017 12.7142 17.8588 12.9714 17.8588 13.3571V17.2142C17.8588 17.5999 17.6017 17.8571 17.216 17.8571H10.7874C10.4017 17.8571 10.1445 17.5999 10.1445 17.2142V13.3571C10.1445 12.9714 10.4017 12.7142 10.7874 12.7142Z" stroke="#003366" stroke-width="1.28571" stroke-linecap="round" stroke-linejoin="round"/>
<path d="M11.4297 12.7142V11.4285C11.4297 10.0142 12.5868 8.85706 14.0011 8.85706C15.4154 8.85706 16.5725 10.0142 16.5725 11.4285V12.7142" stroke="#003366" stroke-width="1.28571" stroke-linecap="round" stroke-linejoin="round"/>
</svg>
