<svg width="21" height="21" viewBox="0 0 21 21" fill="none" xmlns="http://www.w3.org/2000/svg">
<g clip-path="url(#clip0_146_401539)">
<path d="M7.71317 1.44641H2.83817C2.06892 1.44641 1.44531 2.07001 1.44531 2.83927V7.71427C1.44531 8.48352 2.06892 9.10712 2.83817 9.10712H7.71317C8.48242 9.10712 9.10603 8.48352 9.10603 7.71427V2.83927C9.10603 2.07001 8.48242 1.44641 7.71317 1.44641Z" stroke="black" stroke-width="1.5" stroke-linecap="round" stroke-linejoin="round"/>
<path d="M18.1585 11.8928H13.2835C12.5142 11.8928 11.8906 12.5164 11.8906 13.2857V18.1607C11.8906 18.93 12.5142 19.5535 13.2835 19.5535H18.1585C18.9278 19.5535 19.5513 18.93 19.5513 18.1607V13.2857C19.5513 12.5164 18.9278 11.8928 18.1585 11.8928Z" stroke="black" stroke-width="1.5" stroke-linecap="round" stroke-linejoin="round"/>
<path d="M17.4648 8.41068H13.9827C13.2135 8.41068 12.5898 7.78707 12.5898 7.01782V3.53568C12.5898 2.76643 13.2135 2.14282 13.9827 2.14282H17.4648C18.2341 2.14282 18.8577 2.76643 18.8577 3.53568V7.01782C18.8577 7.78707 18.2341 8.41068 17.4648 8.41068Z" stroke="black" stroke-width="1.5" stroke-linecap="round" stroke-linejoin="round"/>
<path d="M7.71484 16.7678V14.6785C7.71484 13.9093 7.09123 13.2856 6.32199 13.2856H4.2327C3.46345 13.2856 2.83984 13.9093 2.83984 14.6785V16.7678C2.83984 17.5371 3.46345 18.1606 4.2327 18.1606H6.32199C7.09123 18.1606 7.71484 17.5371 7.71484 16.7678Z" stroke="black" stroke-width="1.5" stroke-linecap="round" stroke-linejoin="round"/>
<path d="M7.71484 15.7231H11.8934" stroke="black" stroke-width="1.5" stroke-linecap="round" stroke-linejoin="round"/>
<path d="M15.7227 11.8928V8.41064" stroke="black" stroke-width="1.5" stroke-linecap="round" stroke-linejoin="round"/>
<path d="M12.5876 5.27673H9.10547" stroke="black" stroke-width="1.5" stroke-linecap="round" stroke-linejoin="round"/>
<path d="M5.97321 6.32143C5.7809 6.32143 5.625 6.16553 5.625 5.97321C5.625 5.7809 5.7809 5.625 5.97321 5.625" stroke="black" stroke-width="1.5" stroke-linecap="round" stroke-linejoin="round"/>
<path d="M5.97266 6.32131C6.16498 6.32131 6.32088 6.1654 6.32088 5.97309C6.32088 5.78078 6.16498 5.62488 5.97266 5.62488" stroke="black" stroke-width="1.5" stroke-linecap="round" stroke-linejoin="round"/>
</g>
<defs>
<clipPath id="clip0_146_401539">
<rect width="21" height="21" fill="white"/>
</clipPath>
</defs>
</svg>
