<svg width="20" height="20" viewBox="0 0 20 20" fill="none" xmlns="http://www.w3.org/2000/svg">
<g id="delete-2-13" clip-path="url(#clip0_47_141673)">
<g id="delete-2--remove-bold-add-button-buttons-delete-cross-x-mathematics-multiply-math">
<path id="Vector" d="M18.1199 4.76438C18.3781 4.50304 18.5229 4.15046 18.5229 3.78307C18.5229 3.4157 18.3781 3.06312 18.1199 2.80178L17.132 1.81389C16.8739 1.57505 16.5352 1.44238 16.1836 1.44238C15.832 1.44238 15.4933 1.57505 15.2352 1.81389L9.96651 7.01676L4.76365 1.81389C4.50231 1.55569 4.14973 1.41089 3.78235 1.41089C3.41496 1.41089 3.06239 1.55569 2.80105 1.81389L1.81316 2.80178C1.55495 3.06312 1.41016 3.4157 1.41016 3.78307C1.41016 4.15046 1.55495 4.50304 1.81316 4.76438L7.08189 10.0331L1.81316 15.2359C1.55495 15.4973 1.41016 15.8498 1.41016 16.2173C1.41016 16.5847 1.55495 16.9372 1.81316 17.1986L2.80105 18.1864C3.06239 18.4446 3.41496 18.5894 3.78235 18.5894C4.14973 18.5894 4.50231 18.4446 4.76365 18.1864L9.96651 12.9177L15.2352 18.1206C15.4966 18.3788 15.8491 18.5236 16.2165 18.5236C16.5839 18.5236 16.9365 18.3788 17.1978 18.1206L18.1857 17.1327C18.4439 16.8713 18.5887 16.5188 18.5887 16.1514C18.5887 15.784 18.4439 15.4315 18.1857 15.1701L12.917 9.96724L18.1199 4.76438Z" stroke="black" stroke-width="1.5" stroke-linecap="round" stroke-linejoin="round"/>
</g>
</g>
<defs>
<clipPath id="clip0_47_141673">
<rect width="20" height="20" fill="white"/>
</clipPath>
</defs>
</svg>
