<svg width="21" height="21" viewBox="0 0 21 21" fill="none" xmlns="http://www.w3.org/2000/svg">
<g clip-path="url(#clip0_146_401007)">
<path d="M8.11064 3.53564H2.14174C1.95704 3.53564 1.7799 3.60902 1.64929 3.73963C1.51869 3.87022 1.44531 4.04737 1.44531 4.23207V15.3749C1.44531 15.5596 1.51869 15.7368 1.64929 15.8674C1.7799 15.998 1.95704 16.0714 2.14174 16.0714H18.856C19.0407 16.0714 19.2179 15.998 19.3485 15.8674C19.4791 15.7368 19.5525 15.5596 19.5525 15.3749V10.1477" stroke="black" stroke-width="1.5" stroke-linecap="round" stroke-linejoin="round"/>
<path d="M11.8906 16.0714L13.2835 19.5536" stroke="black" stroke-width="1.5" stroke-linecap="round" stroke-linejoin="round"/>
<path d="M9.1077 16.0714L7.71484 19.5536" stroke="black" stroke-width="1.5" stroke-linecap="round" stroke-linejoin="round"/>
<path d="M14.6775 19.5536H6.32031" stroke="black" stroke-width="1.5" stroke-linecap="round" stroke-linejoin="round"/>
<path d="M19.5529 5.90076L18.3815 6.78614L17.4961 5.61475" stroke="black" stroke-width="1.5" stroke-linecap="round" stroke-linejoin="round"/>
<path d="M18.3148 6.69789C18.5083 6.32636 18.6395 5.91443 18.6931 5.47415C18.9334 3.50468 17.5315 1.71338 15.562 1.4732C14.9387 1.39718 14.3332 1.48565 13.7891 1.70454" stroke="black" stroke-width="1.5" stroke-linecap="round" stroke-linejoin="round"/>
<path d="M10.6992 4.23205L11.8706 3.34668L12.756 4.51807" stroke="black" stroke-width="1.5" stroke-linecap="round" stroke-linejoin="round"/>
<path d="M11.9363 3.43506C11.7429 3.8066 11.6117 4.21853 11.558 4.65881C11.3178 6.62828 12.7197 8.41958 14.6892 8.65976C15.3125 8.73579 15.918 8.64731 16.4622 8.42842" stroke="black" stroke-width="1.5" stroke-linecap="round" stroke-linejoin="round"/>
</g>
<defs>
<clipPath id="clip0_146_401007">
<rect width="21" height="21" fill="white"/>
</clipPath>
</defs>
</svg>
