<svg width="21" height="21" viewBox="0 0 21 21" fill="none" xmlns="http://www.w3.org/2000/svg">
<g clip-path="url(#clip0_146_400900)">
<path d="M9.1077 16.0715L7.71484 19.5537" stroke="black" stroke-width="1.5" stroke-linecap="round" stroke-linejoin="round"/>
<path d="M11.8906 16.0715L13.2835 19.5537" stroke="black" stroke-width="1.5" stroke-linecap="round" stroke-linejoin="round"/>
<path d="M6.32031 19.5536H14.6775" stroke="black" stroke-width="1.5" stroke-linecap="round" stroke-linejoin="round"/>
<path d="M19.5525 10.7407V15.3751C19.5525 15.5597 19.4791 15.7369 19.3485 15.8676C19.2179 15.9981 19.0407 16.0715 18.856 16.0715H2.14174C1.95704 16.0715 1.7799 15.9981 1.64929 15.8676C1.51869 15.7369 1.44531 15.5597 1.44531 15.3751V4.2322C1.44531 4.04749 1.51869 3.87034 1.64929 3.73975C1.7799 3.60914 1.95704 3.53577 2.14174 3.53577H6.97118" stroke="black" stroke-width="1.5" stroke-linecap="round" stroke-linejoin="round"/>
<path d="M14.592 9.82246L10.4134 5.95032C8.07344 3.66604 11.4442 -0.76325 14.592 2.80246C17.7398 -0.76325 21.1105 3.66604 18.7705 5.95032L14.592 9.82246Z" stroke="black" stroke-width="1.5" stroke-linecap="round" stroke-linejoin="round"/>
</g>
<defs>
<clipPath id="clip0_146_400900">
<rect width="21" height="21" fill="white"/>
</clipPath>
</defs>
</svg>
