<svg width="21" height="21" viewBox="0 0 21 21" fill="none" xmlns="http://www.w3.org/2000/svg">
<g clip-path="url(#clip0_146_400997)">
<path d="M8.11064 3.53564H2.14174C1.95704 3.53564 1.7799 3.60902 1.64929 3.73963C1.51869 3.87022 1.44531 4.04737 1.44531 4.23207V15.3749C1.44531 15.5596 1.51869 15.7368 1.64929 15.8674C1.7799 15.998 1.95704 16.0714 2.14174 16.0714H18.856C19.0407 16.0714 19.2179 15.998 19.3485 15.8674C19.4791 15.7368 19.5525 15.5596 19.5525 15.3749V13.2856" stroke="black" stroke-width="1.5" stroke-linecap="round" stroke-linejoin="round"/>
<path d="M11.8906 16.0714L13.2835 19.5536" stroke="black" stroke-width="1.5" stroke-linecap="round" stroke-linejoin="round"/>
<path d="M9.1077 16.0714L7.71484 19.5536" stroke="black" stroke-width="1.5" stroke-linecap="round" stroke-linejoin="round"/>
<path d="M14.6775 19.5536H6.32031" stroke="black" stroke-width="1.5" stroke-linecap="round" stroke-linejoin="round"/>
<path d="M13.5156 5.91492C13.5156 6.81238 12.7881 7.53993 11.8906 7.53993C10.9932 7.53993 10.2656 6.81238 10.2656 5.91492C10.2656 5.01746 10.9932 4.28992 11.8906 4.28992C12.7881 4.28992 13.5156 5.01746 13.5156 5.91492Z" stroke="black" stroke-width="1.5" stroke-linecap="round" stroke-linejoin="round"/>
<path d="M19.5509 3.07142C19.5509 3.96888 18.8232 4.69641 17.9258 4.69641C17.0284 4.69641 16.3008 3.96888 16.3008 3.07142C16.3008 2.17394 17.0284 1.44641 17.9258 1.44641C18.8232 1.44641 19.5509 2.17394 19.5509 3.07142Z" stroke="black" stroke-width="1.5" stroke-linecap="round" stroke-linejoin="round"/>
<path d="M19.5509 8.75867C19.5509 7.86121 18.8232 7.13367 17.9258 7.13367C17.0284 7.13367 16.3008 7.86121 16.3008 8.75867C16.3008 9.65613 17.0284 10.3837 17.9258 10.3837C18.8232 10.3837 19.5509 9.65613 19.5509 8.75867Z" stroke="black" stroke-width="1.5" stroke-linecap="round" stroke-linejoin="round"/>
<path d="M16.524 3.89001L13.2852 5.09592M16.524 7.93968L13.2852 6.73377" stroke="black" stroke-width="1.5" stroke-linecap="round" stroke-linejoin="round"/>
</g>
<defs>
<clipPath id="clip0_146_400997">
<rect width="21" height="21" fill="white"/>
</clipPath>
</defs>
</svg>
