<svg width="21" height="21" viewBox="0 0 21 21" fill="none" xmlns="http://www.w3.org/2000/svg">
<g clip-path="url(#clip0_146_401017)">
<path d="M19.5525 14.6785V15.3749C19.5525 15.5596 19.4791 15.7368 19.3485 15.8674C19.2179 15.998 19.0407 16.0714 18.856 16.0714H2.14174C1.95704 16.0714 1.7799 15.998 1.64929 15.8674C1.51869 15.7368 1.44531 15.5596 1.44531 15.3749V4.23207C1.44531 4.04737 1.51869 3.87022 1.64929 3.73963C1.7799 3.60902 1.95704 3.53564 2.14174 3.53564H9.10603" stroke="black" stroke-width="1.5" stroke-linecap="round" stroke-linejoin="round"/>
<path d="M9.1077 16.0714L7.71484 19.5536" stroke="black" stroke-width="1.5" stroke-linecap="round" stroke-linejoin="round"/>
<path d="M11.8906 16.0714L13.2835 19.5536" stroke="black" stroke-width="1.5" stroke-linecap="round" stroke-linejoin="round"/>
<path d="M6.32031 19.5536H14.6775" stroke="black" stroke-width="1.5" stroke-linecap="round" stroke-linejoin="round"/>
<path d="M18.1613 1.44641H13.9827C13.2135 1.44641 12.5898 2.07001 12.5898 2.83927V9.80355C12.5898 10.5728 13.2135 11.1964 13.9827 11.1964H18.1613C18.9305 11.1964 19.5541 10.5728 19.5541 9.80355V2.83927C19.5541 2.07001 18.9305 1.44641 18.1613 1.44641Z" stroke="black" stroke-width="1.5" stroke-linecap="round" stroke-linejoin="round"/>
<path d="M15.7227 8.41064H16.4191" stroke="black" stroke-width="1.5" stroke-linecap="round" stroke-linejoin="round"/>
</g>
<defs>
<clipPath id="clip0_146_401017">
<rect width="21" height="21" fill="white"/>
</clipPath>
</defs>
</svg>
