<svg width="21" height="21" viewBox="0 0 21 21" fill="none" xmlns="http://www.w3.org/2000/svg">
<g clip-path="url(#clip0_146_400823)">
<path d="M8.11064 3.53589H2.14174C1.95704 3.53589 1.7799 3.60926 1.64929 3.73987C1.51869 3.87047 1.44531 4.04761 1.44531 4.23232V15.3752C1.44531 15.5599 1.51869 15.737 1.64929 15.8677C1.7799 15.9982 1.95704 16.0716 2.14174 16.0716H18.856C19.0407 16.0716 19.2179 15.9982 19.3485 15.8677C19.4791 15.737 19.5525 15.5599 19.5525 15.3752V11.5408" stroke="black" stroke-width="1.5" stroke-linecap="round" stroke-linejoin="round"/>
<path d="M11.8906 16.0715L13.2835 19.5537" stroke="black" stroke-width="1.5" stroke-linecap="round" stroke-linejoin="round"/>
<path d="M9.1077 16.0715L7.71484 19.5537" stroke="black" stroke-width="1.5" stroke-linecap="round" stroke-linejoin="round"/>
<path d="M14.6775 19.5537H6.32031" stroke="black" stroke-width="1.5" stroke-linecap="round" stroke-linejoin="round"/>
<path d="M15.3739 9.80368C13.0661 9.80368 11.1953 7.93286 11.1953 5.6251C11.1953 3.31735 13.0661 1.44653 15.3739 1.44653C17.6817 1.44653 19.5525 3.31735 19.5525 5.6251C19.5525 7.93286 17.6817 9.80368 15.3739 9.80368Z" stroke="black" stroke-width="1.5" stroke-linecap="round" stroke-linejoin="round"/>
<path d="M18.3276 8.57808L12.4219 2.67236" stroke="black" stroke-width="1.5" stroke-linecap="round" stroke-linejoin="round"/>
</g>
<defs>
<clipPath id="clip0_146_400823">
<rect width="21" height="21" fill="white"/>
</clipPath>
</defs>
</svg>
