<svg width="21" height="21" viewBox="0 0 21 21" fill="none" xmlns="http://www.w3.org/2000/svg">
<g clip-path="url(#clip0_146_401025)">
<path d="M19.5525 12.5892V15.3749C19.5525 15.7443 19.2254 16.0714 18.856 16.0714H2.14174C1.77233 16.0714 1.44531 15.7443 1.44531 15.3749V4.23207C1.44531 3.86266 1.77233 3.53564 2.14174 3.53564H7.71317" stroke="black" stroke-width="1.5" stroke-linecap="round" stroke-linejoin="round"/>
<path d="M9.1077 16.0714L7.71484 19.5536" stroke="black" stroke-width="1.5" stroke-linecap="round" stroke-linejoin="round"/>
<path d="M11.8906 16.0714L13.2835 19.5536" stroke="black" stroke-width="1.5" stroke-linecap="round" stroke-linejoin="round"/>
<path d="M6.32031 19.5536H14.6775" stroke="black" stroke-width="1.5" stroke-linecap="round" stroke-linejoin="round"/>
<path d="M15.0268 10.5C17.5268 10.5 19.5536 8.47328 19.5536 5.9732C19.5536 3.47312 17.5268 1.44641 15.0268 1.44641C12.5267 1.44641 10.5 3.47312 10.5 5.9732C10.5 8.47328 12.5267 10.5 15.0268 10.5Z" stroke="black" stroke-width="1.5" stroke-linecap="round" stroke-linejoin="round"/>
<path d="M16.072 4.92859L15.0273 5.97323" stroke="black" stroke-width="1.5" stroke-linecap="round" stroke-linejoin="round"/>
</g>
<defs>
<clipPath id="clip0_146_401025">
<rect width="21" height="21" fill="white"/>
</clipPath>
</defs>
</svg>
