<svg width="21" height="21" viewBox="0 0 21 21" fill="none" xmlns="http://www.w3.org/2000/svg">
<g clip-path="url(#clip0_146_400946)">
<path d="M13.6317 10.1518C14.5933 10.1518 15.3728 9.37232 15.3728 8.41075C15.3728 7.44918 14.5933 6.66968 13.6317 6.66968C12.6701 6.66968 11.8906 7.44918 11.8906 8.41075C11.8906 9.37232 12.6701 10.1518 13.6317 10.1518Z" stroke="black" stroke-width="1.5" stroke-linecap="round" stroke-linejoin="round"/>
<path d="M15.375 8.4107V1.44641C16.4832 1.44641 17.546 1.88665 18.3297 2.67029C19.1133 3.45392 19.5536 4.51676 19.5536 5.62498" stroke="black" stroke-width="1.5" stroke-linecap="round" stroke-linejoin="round"/>
<path d="M19.5525 9.8035V15.3749C19.5525 15.5596 19.4791 15.7368 19.3485 15.8674C19.2179 15.998 19.0407 16.0714 18.856 16.0714H2.14174C1.95704 16.0714 1.7799 15.998 1.64929 15.8674C1.51869 15.7368 1.44531 15.5596 1.44531 15.3749V4.23207C1.44531 4.04737 1.51869 3.87022 1.64929 3.73963C1.7799 3.60902 1.95704 3.53564 2.14174 3.53564H11.1953" stroke="black" stroke-width="1.5" stroke-linecap="round" stroke-linejoin="round"/>
<path d="M9.1077 16.0714L7.71484 19.5536" stroke="black" stroke-width="1.5" stroke-linecap="round" stroke-linejoin="round"/>
<path d="M11.8906 16.0714L13.2835 19.5536" stroke="black" stroke-width="1.5" stroke-linecap="round" stroke-linejoin="round"/>
<path d="M6.32031 19.5536H14.6775" stroke="black" stroke-width="1.5" stroke-linecap="round" stroke-linejoin="round"/>
</g>
<defs>
<clipPath id="clip0_146_400946">
<rect width="21" height="21" fill="white"/>
</clipPath>
</defs>
</svg>
