<svg width="21" height="21" viewBox="0 0 21 21" fill="none" xmlns="http://www.w3.org/2000/svg">
<g clip-path="url(#clip0_146_401033)">
<path d="M19.5525 14.1911V15.3749C19.5525 15.5596 19.4791 15.7368 19.3485 15.8674C19.2179 15.998 19.0407 16.0714 18.856 16.0714H2.14174C1.95704 16.0714 1.7799 15.998 1.64929 15.8674C1.51869 15.7368 1.44531 15.5596 1.44531 15.3749V4.23207C1.44531 4.04737 1.51869 3.87022 1.64929 3.73963C1.7799 3.60902 1.95704 3.53564 2.14174 3.53564H9.03048" stroke="black" stroke-width="1.5" stroke-linecap="round" stroke-linejoin="round"/>
<path d="M9.1077 16.0714L7.71484 19.5536" stroke="black" stroke-width="1.5" stroke-linecap="round" stroke-linejoin="round"/>
<path d="M11.8906 16.0714L13.2835 19.5536" stroke="black" stroke-width="1.5" stroke-linecap="round" stroke-linejoin="round"/>
<path d="M6.32031 19.5536H14.6775" stroke="black" stroke-width="1.5" stroke-linecap="round" stroke-linejoin="round"/>
<path d="M11.8917 5.625H18.856C19.2739 5.625 19.5525 5.90357 19.5525 6.32143V10.5C19.5525 10.9179 19.2739 11.1964 18.856 11.1964H11.8917C11.4739 11.1964 11.1953 10.9179 11.1953 10.5V6.32143C11.1953 5.90357 11.4739 5.625 11.8917 5.625Z" stroke="black" stroke-width="1.5" stroke-linecap="round" stroke-linejoin="round"/>
<path d="M12.5898 5.62498V4.23213C12.5898 2.69998 13.8434 1.44641 15.3756 1.44641C16.2053 1.44641 16.9534 1.81407 17.4648 2.39453" stroke="black" stroke-width="1.5" stroke-linecap="round" stroke-linejoin="round"/>
</g>
<defs>
<clipPath id="clip0_146_401033">
<rect width="21" height="21" fill="white"/>
</clipPath>
</defs>
</svg>
