<svg width="21" height="21" viewBox="0 0 21 21" fill="none" xmlns="http://www.w3.org/2000/svg">
<path d="M2.14174 3.53577H18.856C19.2739 3.53577 19.5525 3.81434 19.5525 4.2322V15.3751C19.5525 15.7929 19.2739 16.0715 18.856 16.0715H2.14174C1.72388 16.0715 1.44531 15.7929 1.44531 15.3751V4.2322C1.44531 3.81434 1.72388 3.53577 2.14174 3.53577Z" stroke="black" stroke-width="1.5" stroke-linecap="round" stroke-linejoin="round"/>
<path d="M9.1077 16.0715L7.71484 19.5537" stroke="black" stroke-width="1.5" stroke-linecap="round" stroke-linejoin="round"/>
<path d="M11.8906 16.0715L13.2835 19.5537" stroke="black" stroke-width="1.5" stroke-linecap="round" stroke-linejoin="round"/>
<path d="M6.32031 19.5536H14.6775" stroke="black" stroke-width="1.5" stroke-linecap="round" stroke-linejoin="round"/>
<path d="M4.92578 9.80359H9.10435" stroke="black" stroke-width="1.5" stroke-linecap="round" stroke-linejoin="round"/>
<path d="M7.01562 7.71436V11.8929" stroke="black" stroke-width="1.5" stroke-linecap="round" stroke-linejoin="round"/>
<path d="M15.7935 9.1769C15.6012 9.1769 15.4453 9.02099 15.4453 8.82868C15.4453 8.63637 15.6012 8.48047 15.7935 8.48047" stroke="black" stroke-width="1.5" stroke-linecap="round" stroke-linejoin="round"/>
<path d="M15.793 9.1769C15.9853 9.1769 16.1412 9.02099 16.1412 8.82868C16.1412 8.63637 15.9853 8.48047 15.793 8.48047" stroke="black" stroke-width="1.5" stroke-linecap="round" stroke-linejoin="round"/>
<path d="M13.2857 11.1267C13.0934 11.1267 12.9375 10.9708 12.9375 10.7785C12.9375 10.5862 13.0934 10.4303 13.2857 10.4303" stroke="black" stroke-width="1.5" stroke-linecap="round" stroke-linejoin="round"/>
<path d="M13.2852 11.1267C13.4775 11.1267 13.6334 10.9708 13.6334 10.7785C13.6334 10.5862 13.4775 10.4303 13.2852 10.4303" stroke="black" stroke-width="1.5" stroke-linecap="round" stroke-linejoin="round"/>
</svg>
