<svg width="20" height="20" viewBox="0 0 20 20" fill="none" xmlns="http://www.w3.org/2000/svg">
<g id="diagonal-scroll-2-86" clip-path="url(#clip0_47_142960)">
<g id="diagonal-scroll-2--move-scroll">
<path id="Vector" d="M9.99777 11.9822C11.0925 11.9822 11.9799 11.0948 11.9799 10.0001C11.9799 8.90538 11.0925 8.01794 9.99777 8.01794C8.90306 8.01794 8.01562 8.90538 8.01562 10.0001C8.01562 11.0948 8.90306 11.9822 9.99777 11.9822Z" stroke="black" stroke-width="1.5" stroke-linecap="round" stroke-linejoin="round"/>
<path id="Vector_2" d="M7.35659 1.41077H2.07087C1.89564 1.41077 1.72758 1.48038 1.60368 1.60429C1.47977 1.72819 1.41016 1.89625 1.41016 2.07148V7.3572" stroke="black" stroke-width="1.5" stroke-linecap="round" stroke-linejoin="round"/>
<path id="Vector_3" d="M12.6406 18.5894H17.9263C18.1016 18.5894 18.2696 18.5197 18.3936 18.3959C18.5174 18.272 18.5871 18.1039 18.5871 17.9287V12.6429" stroke="black" stroke-width="1.5" stroke-linecap="round" stroke-linejoin="round"/>
</g>
</g>
<defs>
<clipPath id="clip0_47_142960">
<rect width="20" height="20" fill="white"/>
</clipPath>
</defs>
</svg>
