<svg width="20" height="20" viewBox="0 0 20 20" fill="none" xmlns="http://www.w3.org/2000/svg">
<g id="dial-pad-2-18" clip-path="url(#clip0_47_146170)">
<g id="dial-pad-2--dial-pad-dot-login">
<path id="Vector" d="M3.3923 5.37542C4.48701 5.37542 5.37444 4.48799 5.37444 3.39328C5.37444 2.29856 4.48701 1.41113 3.3923 1.41113C2.29759 1.41113 1.41016 2.29856 1.41016 3.39328C1.41016 4.48799 2.29759 5.37542 3.3923 5.37542Z" stroke="black" stroke-width="1.5" stroke-linecap="round" stroke-linejoin="round"/>
<path id="Vector_2" d="M3.3923 11.9828C4.48701 11.9828 5.37444 11.0954 5.37444 10.0007C5.37444 8.90599 4.48701 8.01855 3.3923 8.01855C2.29759 8.01855 1.41016 8.90599 1.41016 10.0007C1.41016 11.0954 2.29759 11.9828 3.3923 11.9828Z" stroke="black" stroke-width="1.5" stroke-linecap="round" stroke-linejoin="round"/>
<path id="Vector_3" d="M9.99777 5.37542C11.0925 5.37542 11.9799 4.48799 11.9799 3.39328C11.9799 2.29856 11.0925 1.41113 9.99777 1.41113C8.90306 1.41113 8.01562 2.29856 8.01562 3.39328C8.01562 4.48799 8.90306 5.37542 9.99777 5.37542Z" stroke="black" stroke-width="1.5" stroke-linecap="round" stroke-linejoin="round"/>
<path id="Vector_4" d="M9.99777 11.9828C11.0925 11.9828 11.9799 11.0954 11.9799 10.0007C11.9799 8.90599 11.0925 8.01855 9.99777 8.01855C8.90306 8.01855 8.01562 8.90599 8.01562 10.0007C8.01562 11.0954 8.90306 11.9828 9.99777 11.9828Z" stroke="black" stroke-width="1.5" stroke-linecap="round" stroke-linejoin="round"/>
<path id="Vector_5" d="M9.99777 18.5893C11.0925 18.5893 11.9799 17.7018 11.9799 16.6071C11.9799 15.5125 11.0925 14.625 9.99777 14.625C8.90306 14.625 8.01562 15.5125 8.01562 16.6071C8.01562 17.7018 8.90306 18.5893 9.99777 18.5893Z" stroke="black" stroke-width="1.5" stroke-linecap="round" stroke-linejoin="round"/>
<path id="Vector_6" d="M16.6071 5.37542C17.7018 5.37542 18.5893 4.48799 18.5893 3.39328C18.5893 2.29856 17.7018 1.41113 16.6071 1.41113C15.5125 1.41113 14.625 2.29856 14.625 3.39328C14.625 4.48799 15.5125 5.37542 16.6071 5.37542Z" stroke="black" stroke-width="1.5" stroke-linecap="round" stroke-linejoin="round"/>
<path id="Vector_7" d="M16.6071 11.9828C17.7018 11.9828 18.5893 11.0954 18.5893 10.0007C18.5893 8.90599 17.7018 8.01855 16.6071 8.01855C15.5125 8.01855 14.625 8.90599 14.625 10.0007C14.625 11.0954 15.5125 11.9828 16.6071 11.9828Z" stroke="black" stroke-width="1.5" stroke-linecap="round" stroke-linejoin="round"/>
<path id="Vector_8" d="M3.3923 18.5893C4.48701 18.5893 5.37444 17.7018 5.37444 16.6071C5.37444 15.5125 4.48701 14.625 3.3923 14.625C2.29759 14.625 1.41016 15.5125 1.41016 16.6071C1.41016 17.7018 2.29759 18.5893 3.3923 18.5893Z" stroke="black" stroke-width="1.5" stroke-linecap="round" stroke-linejoin="round"/>
<path id="Vector_9" d="M16.6071 18.5893C17.7018 18.5893 18.5893 17.7018 18.5893 16.6071C18.5893 15.5125 17.7018 14.625 16.6071 14.625C15.5125 14.625 14.625 15.5125 14.625 16.6071C14.625 17.7018 15.5125 18.5893 16.6071 18.5893Z" stroke="black" stroke-width="1.5" stroke-linecap="round" stroke-linejoin="round"/>
</g>
</g>
<defs>
<clipPath id="clip0_47_146170">
<rect width="20" height="20" fill="white"/>
</clipPath>
</defs>
</svg>
