<svg width="20" height="20" viewBox="0 0 20 20" fill="none" xmlns="http://www.w3.org/2000/svg">
<g id="dial-pad-finger-2" clip-path="url(#clip0_47_146214)">
<g id="dial-pad-finger-2--hand-lock-login-padlock-password-textbox-touch-type">
<path id="Vector" d="M8.0173 1.41113H2.07087C1.70597 1.41113 1.41016 1.70695 1.41016 2.07185V4.7147C1.41016 5.0796 1.70597 5.37542 2.07087 5.37542H8.0173C8.3822 5.37542 8.67801 5.0796 8.67801 4.7147V2.07185C8.67801 1.70695 8.3822 1.41113 8.0173 1.41113Z" stroke="black" stroke-width="1.5" stroke-linecap="round" stroke-linejoin="round"/>
<path id="Vector_2" d="M17.9275 1.41113H11.981C11.6161 1.41113 11.3203 1.70695 11.3203 2.07185V4.7147C11.3203 5.0796 11.6161 5.37542 11.981 5.37542H17.9275C18.2923 5.37542 18.5882 5.0796 18.5882 4.7147V2.07185C18.5882 1.70695 18.2923 1.41113 17.9275 1.41113Z" stroke="black" stroke-width="1.5" stroke-linecap="round" stroke-linejoin="round"/>
<path id="Vector_3" d="M8.0173 11.9828H2.07087C1.89564 11.9828 1.72758 11.9132 1.60368 11.7893C1.47977 11.6654 1.41016 11.4974 1.41016 11.3221V8.67927C1.41016 8.50403 1.47977 8.33598 1.60368 8.21208C1.72758 8.08817 1.89564 8.01855 2.07087 8.01855H8.0173" stroke="black" stroke-width="1.5" stroke-linecap="round" stroke-linejoin="round"/>
<path id="Vector_4" d="M16.6077 11.9828H17.9291C18.1044 11.9828 18.2724 11.9132 18.3964 11.7893C18.5202 11.6654 18.5898 11.4974 18.5898 11.3221V8.67927C18.5898 8.50403 18.5202 8.33598 18.3964 8.21208C18.2724 8.08817 18.1044 8.01855 17.9291 8.01855H13.9648" stroke="black" stroke-width="1.5" stroke-linecap="round" stroke-linejoin="round"/>
<path id="Vector_5" d="M10.6602 18.5893V11.6518C10.6602 11.2137 10.8342 10.7936 11.144 10.4838C11.4537 10.174 11.8739 10 12.3119 10C12.75 10 13.1702 10.174 13.4799 10.4838C13.7897 10.7936 13.9637 11.2137 13.9637 11.6518V15.2857H15.9459C16.6467 15.2857 17.3191 15.5641 17.8146 16.0598C18.3103 16.5555 18.5887 17.2277 18.5887 17.9286V18.5893" stroke="black" stroke-width="1.5" stroke-linecap="round" stroke-linejoin="round"/>
</g>
</g>
<defs>
<clipPath id="clip0_47_146214">
<rect width="20" height="20" fill="white"/>
</clipPath>
</defs>
</svg>
