<svg width="20" height="20" viewBox="0 0 20 20" fill="none" xmlns="http://www.w3.org/2000/svg">
<g id="dial-pad-disable-2-16" clip-path="url(#clip0_47_146191)">
<g id="dial-pad-disable-2--dial-pad-disable-dot-login">
<path id="Vector 1859" d="M1.41016 1.41113L18.5887 18.5897" stroke="black" stroke-width="1.5" stroke-linecap="round" stroke-linejoin="round"/>
<path id="Vector" d="M16.2768 5.37584C17.1891 5.37584 17.9286 4.63631 17.9286 3.72405C17.9286 2.81179 17.1891 2.07227 16.2768 2.07227C15.3645 2.07227 14.625 2.81179 14.625 3.72405C14.625 4.63631 15.3645 5.37584 16.2768 5.37584Z" stroke="black" stroke-width="1.5" stroke-linecap="round" stroke-linejoin="round"/>
<path id="Vector_2" d="M9.99944 5.37584C10.9117 5.37584 11.6512 4.63631 11.6512 3.72405C11.6512 2.81179 10.9117 2.07227 9.99944 2.07227C9.08718 2.07227 8.34766 2.81179 8.34766 3.72405C8.34766 4.63631 9.08718 5.37584 9.99944 5.37584Z" stroke="black" stroke-width="1.5" stroke-linecap="round" stroke-linejoin="round"/>
<path id="Vector_3" d="M16.2768 11.6522C17.1891 11.6522 17.9286 10.9127 17.9286 10.0004C17.9286 9.08816 17.1891 8.34863 16.2768 8.34863C15.3645 8.34863 14.625 9.08816 14.625 10.0004C14.625 10.9127 15.3645 11.6522 16.2768 11.6522Z" stroke="black" stroke-width="1.5" stroke-linecap="round" stroke-linejoin="round"/>
<path id="Vector_4" d="M9.99944 17.9286C10.9117 17.9286 11.6512 17.1891 11.6512 16.2768C11.6512 15.3645 10.9117 14.625 9.99944 14.625C9.08718 14.625 8.34766 15.3645 8.34766 16.2768C8.34766 17.1891 9.08718 17.9286 9.99944 17.9286Z" stroke="black" stroke-width="1.5" stroke-linecap="round" stroke-linejoin="round"/>
<path id="Vector_5" d="M3.7221 11.6522C4.63436 11.6522 5.37388 10.9127 5.37388 10.0004C5.37388 9.08816 4.63436 8.34863 3.7221 8.34863C2.80984 8.34863 2.07031 9.08816 2.07031 10.0004C2.07031 10.9127 2.80984 11.6522 3.7221 11.6522Z" stroke="black" stroke-width="1.5" stroke-linecap="round" stroke-linejoin="round"/>
<path id="Vector_6" d="M3.7221 17.9286C4.63436 17.9286 5.37388 17.1891 5.37388 16.2768C5.37388 15.3645 4.63436 14.625 3.7221 14.625C2.80984 14.625 2.07031 15.3645 2.07031 16.2768C2.07031 17.1891 2.80984 17.9286 3.7221 17.9286Z" stroke="black" stroke-width="1.5" stroke-linecap="round" stroke-linejoin="round"/>
<path id="Vector_7" d="M5.37446 3.72405C5.37446 2.81179 4.63493 2.07227 3.72267 2.07227C3.26655 2.07227 2.85361 2.25715 2.55469 2.55607L4.89067 4.89204C5.18958 4.59313 5.37446 4.18018 5.37446 3.72405Z" stroke="black" stroke-width="1.5" stroke-linecap="round" stroke-linejoin="round"/>
<path id="Vector_8" d="M17.9292 16.2768C17.9292 15.3645 17.1897 14.625 16.2774 14.625C15.8212 14.625 15.4083 14.8099 15.1094 15.1088L17.4454 17.4448C17.7443 17.1459 17.9292 16.7329 17.9292 16.2768Z" stroke="black" stroke-width="1.5" stroke-linecap="round" stroke-linejoin="round"/>
<path id="Vector_9" d="M11.6518 10.0004C11.6518 9.08816 10.9123 8.34863 10 8.34863C9.5439 8.34863 9.13095 8.53351 8.83203 8.83243L11.168 11.1684C11.4669 10.8695 11.6518 10.4565 11.6518 10.0004Z" stroke="black" stroke-width="1.5" stroke-linecap="round" stroke-linejoin="round"/>
</g>
</g>
<defs>
<clipPath id="clip0_47_146191">
<rect width="20" height="20" fill="white"/>
</clipPath>
</defs>
</svg>
