<svg width="20" height="20" viewBox="0 0 20 20" fill="none" xmlns="http://www.w3.org/2000/svg">
<g id="disable-protection-7" clip-path="url(#clip0_47_147001)">
<g id="disable-protection--shield-protection-security-defend-cover-disabled-off">
<path id="Vector 864" d="M1.41016 1.41113L18.5887 18.5897" stroke="black" stroke-width="1.5" stroke-linecap="round" stroke-linejoin="round"/>
<path id="Vector" d="M3.05859 3.08921C3.26829 2.87952 3.55269 2.76172 3.84923 2.76172H16.1487C16.4452 2.76172 16.7296 2.87952 16.9393 3.08921C17.149 3.29891 17.2668 3.5833 17.2668 3.87985V7.23424C17.2681 9.39936 16.6127 11.5139 15.3869 13.2987C15.1052 13.7087 14.7965 14.0969 14.4636 14.4611" stroke="black" stroke-width="1.5" stroke-linecap="round" stroke-linejoin="round"/>
<path id="Vector_2" d="M2.73047 6.52246V7.234C2.72916 9.39912 3.38468 11.5137 4.61044 13.2984C5.8362 15.0832 7.57452 16.454 9.59579 17.2301C9.85485 17.33 10.1418 17.33 10.4009 17.2301C11.0344 16.9868 11.6402 16.6851 12.2111 16.3306" stroke="black" stroke-width="1.5" stroke-linecap="round" stroke-linejoin="round"/>
</g>
</g>
<defs>
<clipPath id="clip0_47_147001">
<rect width="20" height="20" fill="white"/>
</clipPath>
</defs>
</svg>
