<svg width="20" height="20" viewBox="0 0 20 20" fill="none" xmlns="http://www.w3.org/2000/svg">
<g id="disable-star-8" clip-path="url(#clip0_47_143193)">
<g id="disable-star">
<path id="vector" d="M7.59766 6.78546L9.44084 3.06433C9.49169 2.95453 9.57289 2.86157 9.67485 2.79642C9.77682 2.73128 9.89529 2.69666 10.0163 2.69666C10.1373 2.69666 10.2558 2.73128 10.3577 2.79642C10.4597 2.86157 10.5409 2.95453 10.5917 3.06433L12.4591 6.83417C12.5015 6.92985 12.5683 7.01273 12.6528 7.07455C12.7373 7.13636 12.8365 7.17496 12.9406 7.18649L17.0628 7.79718C17.1821 7.81253 17.2946 7.86151 17.3872 7.93841C17.4797 8.01531 17.5485 8.11697 17.5854 8.2315C17.6224 8.34601 17.626 8.46869 17.5958 8.58519C17.5656 8.70168 17.503 8.80719 17.4151 8.88938L14.4438 11.8371C14.368 11.908 14.311 11.9967 14.2783 12.0951C14.2454 12.1936 14.2377 12.2987 14.2559 12.4009L14.4708 13.6442" stroke="black" stroke-width="1.5" stroke-linecap="round" stroke-linejoin="round"/>
<path id="vector_2" d="M14.3787 17.3017C14.2581 17.3101 14.1376 17.2845 14.0308 17.2277L10.3197 15.2664C10.2247 15.2197 10.1202 15.1956 10.0143 15.1956C9.90848 15.1956 9.80402 15.2197 9.70899 15.2664L5.99787 17.2277C5.8911 17.2845 5.77055 17.3101 5.64993 17.3017C5.5293 17.2933 5.41345 17.2513 5.31556 17.1803C5.21766 17.1093 5.14166 17.0123 5.09618 16.9002C5.05071 16.7883 5.03761 16.6656 5.05835 16.5466L5.77474 12.3539C5.79289 12.2517 5.7852 12.1466 5.75239 12.0482C5.71957 11.9497 5.66265 11.861 5.58683 11.7902L2.58034 8.88941C2.4914 8.80496 2.42885 8.69654 2.40027 8.57726C2.37169 8.45801 2.37831 8.333 2.41933 8.21741C2.46033 8.10183 2.53399 8.00062 2.63135 7.92604C2.72873 7.85146 2.84562 7.8067 2.9679 7.79721L4.94034 7.505" stroke="black" stroke-width="1.5" stroke-linecap="round" stroke-linejoin="round"/>
<path id="Vector 2130" d="M1.41016 1.41077L18.5887 18.5893" stroke="black" stroke-width="1.5" stroke-linecap="round" stroke-linejoin="round"/>
</g>
</g>
<defs>
<clipPath id="clip0_47_143193">
<rect width="20" height="20" fill="white"/>
</clipPath>
</defs>
</svg>
