<svg width="20" height="20" viewBox="0 0 20 20" fill="none" xmlns="http://www.w3.org/2000/svg">
<g id="disable-bell-notification-21" clip-path="url(#clip0_47_141691)">
<g id="disable-bell-notification--disable-silent-notification-off-silence-alarm-bell-alert">
<path id="Vector" d="M18.5887 18.588L1.41016 1.40942" stroke="black" stroke-width="1.5" stroke-linecap="round" stroke-linejoin="round"/>
<path id="Vector_2" d="M14.6235 14.6185H17.927C17.3432 14.6185 16.9268 14.3865 16.5139 13.9737C16.1011 13.5608 15.8692 13.0008 15.8692 12.417V7.2801C15.8692 5.7231 15.2506 4.22988 14.1496 3.1289C13.0487 2.02794 11.5555 1.40942 9.99846 1.40942C8.44145 1.40942 6.94822 2.02794 5.84726 3.1289C5.39394 3.58222 5.02242 4.10203 4.74219 4.66542" stroke="black" stroke-width="1.5" stroke-linecap="round" stroke-linejoin="round"/>
<path id="Vector_3" d="M8.67969 18.5906H11.3225" stroke="black" stroke-width="1.5" stroke-linecap="round" stroke-linejoin="round"/>
<path id="Vector_4" d="M4.12817 8.01654V12.4169C4.12817 13.0008 3.89624 13.5608 3.48337 13.9736C3.07051 14.3865 2.65419 14.6185 2.07031 14.6185H10.6596" stroke="black" stroke-width="1.5" stroke-linecap="round" stroke-linejoin="round"/>
</g>
</g>
<defs>
<clipPath id="clip0_47_141691">
<rect width="20" height="20" fill="white"/>
</clipPath>
</defs>
</svg>
