<svg width="20" height="20" viewBox="0 0 20 20" fill="none" xmlns="http://www.w3.org/2000/svg">
<g id="disabled-padlock-7" clip-path="url(#clip0_47_146089)">
<g id="disabled-padlock">
<path id="Vector" d="M4.71205 8.01855C3.98225 8.01855 3.39062 8.61018 3.39062 9.33998V17.2686C3.39062 17.9984 3.98225 18.59 4.71205 18.59H15.2835" stroke="black" stroke-width="1.5" stroke-linecap="round" stroke-linejoin="round"/>
<path id="Vector_2" d="M14.6244 8.01828V6.03613C14.6244 4.8095 14.1372 3.63311 13.2698 2.76577C12.4025 1.89841 11.2261 1.41113 9.99945 1.41113C8.77283 1.41113 7.59644 1.89841 6.72908 2.76577C6.01899 3.47585 5.56365 4.39308 5.42188 5.37542" stroke="black" stroke-width="1.5" stroke-linecap="round" stroke-linejoin="round"/>
<path id="Vector 1859" d="M1.41016 1.41113L18.5887 18.5897" stroke="black" stroke-width="1.5" stroke-linecap="round" stroke-linejoin="round"/>
<path id="Vector_3" d="M16.6049 16.6078V9.33998C16.6049 8.61018 16.0133 8.01855 15.2835 8.01855H8.01562" stroke="black" stroke-width="1.5" stroke-linecap="round" stroke-linejoin="round"/>
</g>
</g>
<defs>
<clipPath id="clip0_47_146089">
<rect width="20" height="20" fill="white"/>
</clipPath>
</defs>
</svg>
