<svg width="20" height="20" viewBox="0 0 20 20" fill="none" xmlns="http://www.w3.org/2000/svg">
<g id="dislike-2-32">
<g id="dislike-2--reward-down-thumb-hand-social-media-dislike-rating">
<path id="Vector" d="M4.54743 11.5263H5.86886L9.10636 16.7327C9.23833 16.9429 9.42152 17.1163 9.63876 17.2365C9.85602 17.3567 10.1002 17.4198 10.3485 17.4198C10.7352 17.4198 11.1063 17.2671 11.381 16.9949C11.6557 16.7226 11.8118 16.353 11.8153 15.9663V12.187H16.9027C17.1222 12.1856 17.3388 12.137 17.5379 12.0447C17.7369 11.9524 17.9139 11.8183 18.0567 11.6517C18.1996 11.4851 18.3049 11.2897 18.3658 11.0789C18.4266 10.868 18.4414 10.6466 18.4092 10.4295L17.352 3.90163C17.3069 3.53723 17.1304 3.20184 16.8554 2.95851C16.5804 2.71517 16.226 2.58064 15.8588 2.5802H3.88672" stroke="black" stroke-width="1.5" stroke-linecap="round" stroke-linejoin="round"/>
<path id="Vector_2" d="M1.57422 11.5263V2.5802" stroke="black" stroke-width="1.5" stroke-linecap="round" stroke-linejoin="round"/>
</g>
</g>
</svg>
