<svg width="20" height="20" viewBox="0 0 20 20" fill="none" xmlns="http://www.w3.org/2000/svg">
<g id="dislike-circle-17" clip-path="url(#clip0_47_143207)">
<g id="dislike-circle--reward-social-up-rating-media-dislike-thumb-hand">
<path id="Vector" d="M6.28516 11.3214L8.4523 14.8364C8.5375 14.9736 8.65621 15.0867 8.79722 15.1653C8.93824 15.244 9.09693 15.2853 9.25837 15.2857C9.51071 15.2857 9.7527 15.1854 9.93114 15.007C10.1096 14.8286 10.2098 14.5867 10.2098 14.3343V11.8236H13.9627C14.1051 11.8216 14.2454 11.789 14.374 11.7279C14.5027 11.6668 14.6166 11.5787 14.7082 11.4696C14.7998 11.3605 14.8668 11.233 14.9046 11.0957C14.9424 10.9584 14.9502 10.8145 14.9273 10.6739L14.2534 6.22071C14.2186 5.98604 14.1007 5.77164 13.9213 5.61646C13.7419 5.46128 13.5127 5.37559 13.2755 5.375H6.6948" stroke="black" stroke-width="1.5" stroke-linecap="round" stroke-linejoin="round"/>
<path id="Vector_2" d="M9.99944 18.5893C14.7432 18.5893 18.5887 14.7438 18.5887 10.0001C18.5887 5.25632 14.7432 1.41077 9.99944 1.41077C5.25571 1.41077 1.41016 5.25632 1.41016 10.0001C1.41016 14.7438 5.25571 18.5893 9.99944 18.5893Z" stroke="black" stroke-width="1.5" stroke-linecap="round" stroke-linejoin="round"/>
</g>
</g>
<defs>
<clipPath id="clip0_47_143207">
<rect width="20" height="20" fill="white"/>
</clipPath>
</defs>
</svg>
