<svg width="20" height="20" viewBox="0 0 20 20" fill="none" xmlns="http://www.w3.org/2000/svg">
<g id="dislike-square-21" clip-path="url(#clip0_47_143211)">
<g id="dislike-square--reward-social-up-rating-media-dislike-thumb-hand">
<path id="Vector" d="M17.2673 1.41077H2.73158C2.00178 1.41077 1.41016 2.00239 1.41016 2.7322V17.2679C1.41016 17.9977 2.00178 18.5893 2.73158 18.5893H17.2673C17.9971 18.5893 18.5887 17.9977 18.5887 17.2679V2.7322C18.5887 2.00239 17.9971 1.41077 17.2673 1.41077Z" stroke="black" stroke-width="1.5" stroke-linecap="round" stroke-linejoin="round"/>
<path id="Vector_2" d="M6.03516 11.3214L8.2023 14.8364C8.2875 14.9736 8.4062 15.0867 8.54722 15.1653C8.68823 15.244 8.84693 15.2853 9.00837 15.2857C9.26071 15.2857 9.5027 15.1854 9.68114 15.007C9.85956 14.8286 9.9598 14.5867 9.9598 14.3343V11.8236H13.7127C13.8551 11.8216 13.9953 11.789 14.124 11.7279C14.2527 11.6668 14.3666 11.5787 14.4582 11.4696C14.5498 11.3605 14.6168 11.233 14.6546 11.0957C14.6924 10.9584 14.7002 10.8145 14.6773 10.6739L14.0034 6.22071C13.9686 5.98604 13.8508 5.77164 13.6713 5.61646C13.4919 5.46128 13.2627 5.37559 13.0255 5.375H6.4448" stroke="black" stroke-width="1.5" stroke-linecap="round" stroke-linejoin="round"/>
</g>
</g>
<defs>
<clipPath id="clip0_47_143211">
<rect width="20" height="20" fill="white"/>
</clipPath>
</defs>
</svg>
