<svg width="20" height="20" viewBox="0 0 20 20" fill="none" xmlns="http://www.w3.org/2000/svg">
<g id="distribute-right-37">
<g id="distribute-right">
<path id="Vector 734" d="M8.01562 18.5893V1.41072" stroke="black" stroke-width="1.5" stroke-linecap="round" stroke-linejoin="round"/>
<path id="Vector 735" d="M6.69475 13.9643H4.0519C3.3221 13.9643 2.73047 13.3727 2.73047 12.6429V7.35715C2.73047 6.62735 3.32209 6.03572 4.0519 6.03572H6.69475C7.42455 6.03572 8.01618 6.62735 8.01618 7.35715V12.6429C8.01618 13.3727 7.42455 13.9643 6.69475 13.9643Z" stroke="black" stroke-width="1.5" stroke-linecap="round" stroke-linejoin="round"/>
<path id="Vector 736" d="M17.2656 18.5893V1.41072" stroke="black" stroke-width="1.5" stroke-linecap="round" stroke-linejoin="round"/>
<path id="Vector 737" d="M15.9448 16.6072H13.3019C12.5721 16.6072 11.9805 16.0155 11.9805 15.2857V4.7143C11.9805 3.98448 12.5721 3.39287 13.3019 3.39287H15.9448C16.6746 3.39287 17.2662 3.9845 17.2662 4.7143V15.2857C17.2662 16.0155 16.6746 16.6072 15.9448 16.6072Z" stroke="black" stroke-width="1.5" stroke-linecap="round" stroke-linejoin="round"/>
</g>
</g>
</svg>
