<svg width="20" height="20" viewBox="0 0 20 20" fill="none" xmlns="http://www.w3.org/2000/svg">
<g id="distribute-left-23">
<g id="distribute-left">
<path id="Vector 734" d="M11.9805 1.41072V18.5893" stroke="black" stroke-width="1.5" stroke-linecap="round" stroke-linejoin="round"/>
<path id="Vector 735" d="M13.3019 6.03572H15.9448C16.6746 6.03572 17.2662 6.62735 17.2662 7.35715V12.6429C17.2662 13.3727 16.6746 13.9643 15.9448 13.9643H13.3019C12.5721 13.9643 11.9805 13.3727 11.9805 12.6429V7.35715C11.9805 6.62735 12.5721 6.03572 13.3019 6.03572Z" stroke="black" stroke-width="1.5" stroke-linecap="round" stroke-linejoin="round"/>
<path id="Vector 736" d="M2.73047 1.41072V18.5893" stroke="black" stroke-width="1.5" stroke-linecap="round" stroke-linejoin="round"/>
<path id="Vector 737" d="M4.0519 3.39287H6.69475C7.42455 3.39287 8.01618 3.9845 8.01618 4.7143V15.2857C8.01618 16.0155 7.42455 16.6072 6.69475 16.6072H4.0519C3.32209 16.6072 2.73047 16.0155 2.73047 15.2857V4.7143C2.73047 3.9845 3.3221 3.39287 4.0519 3.39287Z" stroke="black" stroke-width="1.5" stroke-linecap="round" stroke-linejoin="round"/>
</g>
</g>
</svg>
