<svg width="20" height="20" viewBox="0 0 20 20" fill="none" xmlns="http://www.w3.org/2000/svg">
<g id="division-circle-16" clip-path="url(#clip0_47_146338)">
<g id="division-circle--interface-math-divided-by-sign-mathematics">
<path id="Vector" d="M10.0011 18.2591C14.5624 18.2591 18.26 14.5614 18.26 10.0001C18.26 5.43886 14.5624 1.74121 10.0011 1.74121C5.43984 1.74121 1.74219 5.43886 1.74219 10.0001C1.74219 14.5614 5.43984 18.2591 10.0011 18.2591Z" stroke="black" stroke-width="1.5" stroke-linecap="round" stroke-linejoin="round"/>
<path id="Vector 279" d="M6.09375 10.0078H13.9922" stroke="black" stroke-width="1.5" stroke-linecap="round" stroke-linejoin="round"/>
<g id="Group 54">
<path id="Vector_2" d="M10.0022 6.54548C9.81978 6.54548 9.67188 6.39757 9.67188 6.21512C9.67188 6.03267 9.81978 5.88477 10.0022 5.88477" stroke="black" stroke-width="1.5" stroke-linecap="round" stroke-linejoin="round"/>
<path id="Vector_3" d="M10.0039 6.54548C10.1864 6.54548 10.3343 6.39757 10.3343 6.21512C10.3343 6.03267 10.1864 5.88477 10.0039 5.88477" stroke="black" stroke-width="1.5" stroke-linecap="round" stroke-linejoin="round"/>
</g>
<g id="Group 55">
<path id="Vector_4" d="M10.0022 14.1295C9.81978 14.1295 9.67188 13.9816 9.67188 13.7991C9.67188 13.6167 9.81978 13.4688 10.0022 13.4688" stroke="black" stroke-width="1.5" stroke-linecap="round" stroke-linejoin="round"/>
<path id="Vector_5" d="M10.0039 14.1295C10.1864 14.1295 10.3343 13.9816 10.3343 13.7991C10.3343 13.6167 10.1864 13.4688 10.0039 13.4688" stroke="black" stroke-width="1.5" stroke-linecap="round" stroke-linejoin="round"/>
</g>
</g>
</g>
<defs>
<clipPath id="clip0_47_146338">
<rect width="20" height="20" fill="white"/>
</clipPath>
</defs>
</svg>
