<svg width="20" height="20" viewBox="0 0 20 20" fill="none" xmlns="http://www.w3.org/2000/svg">
<g id="document-setting-63" clip-path="url(#clip0_47_144308)">
<g id="document-setting--file-common-setting">
<path id="Vector" d="M3.90625 6.03564V2.73207C3.90625 2.3816 4.04548 2.0455 4.2933 1.79768C4.5411 1.54987 4.87722 1.41064 5.22768 1.41064H13.817L18.4419 6.03564V17.2678C18.4419 17.6182 18.3028 17.9544 18.0549 18.2022C17.8071 18.4499 17.471 18.5892 17.1205 18.5892H12.4955" stroke="black" stroke-width="1.5" stroke-linecap="round" stroke-linejoin="round"/>
<path id="Vector_2" d="M5.55859 9.33936V11.3215" stroke="black" stroke-width="1.5" stroke-linecap="round" stroke-linejoin="round"/>
<path id="Vector_3" d="M1.55469 11.6519L3.27255 12.6429" stroke="black" stroke-width="1.5" stroke-linecap="round" stroke-linejoin="round"/>
<path id="Vector_4" d="M1.55469 16.2767L3.27255 15.2856" stroke="black" stroke-width="1.5" stroke-linecap="round" stroke-linejoin="round"/>
<path id="Vector_5" d="M5.55859 18.5891V16.6069" stroke="black" stroke-width="1.5" stroke-linecap="round" stroke-linejoin="round"/>
<path id="Vector_6" d="M9.56161 16.2767L7.84375 15.2856" stroke="black" stroke-width="1.5" stroke-linecap="round" stroke-linejoin="round"/>
<path id="Vector_7" d="M9.56161 11.6519L7.84375 12.6429" stroke="black" stroke-width="1.5" stroke-linecap="round" stroke-linejoin="round"/>
<path id="Vector_8" d="M5.55692 16.607C7.01653 16.607 8.19978 15.4238 8.19978 13.9641C8.19978 12.5045 7.01653 11.3213 5.55692 11.3213C4.09732 11.3213 2.91406 12.5045 2.91406 13.9641C2.91406 15.4238 4.09732 16.607 5.55692 16.607Z" stroke="black" stroke-width="1.5" stroke-linecap="round" stroke-linejoin="round"/>
</g>
</g>
<defs>
<clipPath id="clip0_47_144308">
<rect width="20" height="20" fill="white"/>
</clipPath>
</defs>
</svg>
