<svg width="21" height="21" viewBox="0 0 21 21" fill="none" xmlns="http://www.w3.org/2000/svg">
<g clip-path="url(#clip0_146_399242)">
<path d="M15.3728 13.6256C17.8072 12.7652 19.5513 10.4435 19.5513 7.71439C19.5513 4.25275 16.7451 1.44653 13.2835 1.44653C9.82184 1.44653 7.01562 4.25275 7.01562 7.71439C7.01562 8.75043 7.26699 9.72774 7.71205 10.5887" stroke="black" stroke-width="1.5" stroke-linecap="round" stroke-linejoin="round"/>
<path d="M13.2846 19.5538L7.71317 13.9824L5.62388 16.0716L1.44531 11.8931" stroke="black" stroke-width="1.5" stroke-linecap="round" stroke-linejoin="round"/>
<path d="M9.10547 19.5537H13.284V15.3751" stroke="black" stroke-width="1.5" stroke-linecap="round" stroke-linejoin="round"/>
<path d="M15.0608 5.85729C14.9996 5.68428 14.9053 5.52697 14.7854 5.39301C14.5304 5.10804 14.1597 4.92871 13.7472 4.92871H12.6691C11.9824 4.92871 11.4258 5.48537 11.4258 6.17203C11.4258 6.75631 11.8326 7.26176 12.4034 7.38662L14.0449 7.7457C14.6843 7.88557 15.14 8.45224 15.14 9.10679C15.14 9.87606 14.5165 10.5002 13.7472 10.5002H12.8186C12.2122 10.5002 11.6962 10.1126 11.505 9.57159" stroke="black" stroke-width="1.5" stroke-linecap="round" stroke-linejoin="round"/>
<path d="M13.2852 4.92869V3.88403" stroke="black" stroke-width="1.5" stroke-linecap="round" stroke-linejoin="round"/>
<path d="M13.2852 11.5446V10.5" stroke="black" stroke-width="1.5" stroke-linecap="round" stroke-linejoin="round"/>
</g>
<defs>
<clipPath id="clip0_146_399242">
<rect width="21" height="21" fill="white"/>
</clipPath>
</defs>
</svg>
