<svg width="20" height="20" viewBox="0 0 20 20" fill="none" xmlns="http://www.w3.org/2000/svg">
<g id="double-star-33">
<g id="double-star--reward-rating-rate-social-star-media-favorite-like-stars">
<path id="Vector" d="M9.6574 15.92L5.48168 18.1268C5.36155 18.1906 5.22591 18.2194 5.09018 18.21C4.95446 18.2006 4.8241 18.1532 4.71396 18.0734C4.6038 17.9936 4.51828 17.8844 4.46712 17.7583C4.41596 17.6323 4.4012 17.4943 4.42454 17.3603L5.23061 12.6428C5.25104 12.5278 5.2424 12.4096 5.20548 12.2988C5.16856 12.188 5.10451 12.0882 5.01918 12.0085L1.63633 8.74459C1.53625 8.64958 1.46587 8.52757 1.43371 8.39336C1.40155 8.25917 1.409 8.11852 1.45514 7.98847C1.50129 7.85841 1.58416 7.74453 1.69372 7.66061C1.80328 7.5767 1.93481 7.52634 2.0724 7.51566L6.71061 6.82852C6.82769 6.81555 6.93932 6.77212 7.03439 6.70257C7.12945 6.63301 7.20461 6.53976 7.2524 6.43209L9.35347 2.1903C9.41069 2.06676 9.50205 1.96217 9.61679 1.88886C9.73152 1.81556 9.86482 1.77661 10.001 1.77661C10.1371 1.77661 10.2704 1.81556 10.3852 1.88886C10.4999 1.96217 10.5913 2.06676 10.6485 2.1903L12.7495 6.43209C12.7973 6.53976 12.8725 6.63301 12.9676 6.70257C13.0626 6.77212 13.1743 6.81555 13.2913 6.82852L17.9295 7.51566C18.0639 7.53292 18.1905 7.58803 18.2946 7.67457C18.3987 7.7611 18.4762 7.87547 18.5177 8.00434C18.5593 8.1332 18.5633 8.27124 18.5293 8.40231C18.4955 8.53338 18.4249 8.6521 18.3259 8.74459L17.1057 9.95516" stroke="black" stroke-width="1.5" stroke-linecap="round" stroke-linejoin="round"/>
<path id="Vector_2" d="M14.9148 11.1882L15.8897 13.1491C15.9115 13.1987 15.946 13.2416 15.9898 13.2735C16.0336 13.3054 16.0851 13.325 16.139 13.3305L18.3039 13.6592C18.3658 13.6672 18.4242 13.6927 18.4721 13.7327C18.52 13.7727 18.5555 13.8255 18.5745 13.885C18.5936 13.9444 18.5953 14.0081 18.5794 14.0684C18.5637 14.1288 18.5309 14.1834 18.4852 14.226L16.8871 15.7448C16.8633 15.7903 16.8507 15.8409 16.8507 15.8921C16.8507 15.9434 16.8633 15.994 16.8871 16.0395L17.1931 18.1931C17.2062 18.2554 17.2009 18.32 17.1779 18.3793C17.1549 18.4387 17.1153 18.4901 17.0636 18.5272C17.0121 18.5645 16.9508 18.5859 16.8872 18.5889C16.8236 18.592 16.7606 18.5765 16.7058 18.5445L14.7787 17.5244C14.7289 17.5018 14.6749 17.4901 14.6202 17.4901C14.5653 17.4901 14.5113 17.5018 14.4615 17.5244L12.5345 18.5445C12.4796 18.5765 12.4165 18.592 12.353 18.5889C12.2895 18.5859 12.2282 18.5645 12.1766 18.5272C12.125 18.4901 12.0853 18.4387 12.0623 18.3793C12.0393 18.32 12.034 18.2554 12.0471 18.1931L12.4098 16.0395C12.4254 15.9895 12.4284 15.9364 12.4185 15.885C12.4086 15.8336 12.3862 15.7854 12.3531 15.7448L10.7549 14.2146C10.7126 14.1716 10.6828 14.1179 10.6689 14.0592C10.6551 14.0004 10.6577 13.939 10.6764 13.8816C10.6951 13.8243 10.7293 13.7732 10.7751 13.7339C10.821 13.6947 10.8767 13.6688 10.9363 13.6592L13.1012 13.3418C13.1551 13.3364 13.2066 13.3167 13.2504 13.2848C13.2942 13.253 13.3288 13.21 13.3506 13.1604L14.3254 11.1995C14.3515 11.144 14.3926 11.0969 14.444 11.0635C14.4955 11.0302 14.5553 11.0119 14.6166 11.0107C14.6779 11.0095 14.7383 11.0255 14.791 11.0569C14.8437 11.0882 14.8866 11.1337 14.9148 11.1882Z" stroke="black" stroke-width="1.5" stroke-linecap="round" stroke-linejoin="round"/>
</g>
</g>
</svg>
