<svg width="20" height="20" viewBox="0 0 20 20" fill="none" xmlns="http://www.w3.org/2000/svg">
<g id="draft-17" clip-path="url(#clip0_47_143745)">
<g id="draft">
<path id="Vector" d="M15.9458 2.73207C15.9458 2.3816 15.8067 2.0455 15.5588 1.79768C15.311 1.54987 14.9748 1.41064 14.6244 1.41064H5.37444L1.41016 5.37493V17.2678C1.41016 17.6182 1.54938 17.9544 1.79719 18.2022C2.04501 18.4499 2.38112 18.5892 2.73159 18.5892H14.6244C14.9748 18.5892 15.311 18.4499 15.5588 18.2022C15.8067 17.9544 15.9458 17.6182 15.9458 17.2678V15.2856" stroke="black" stroke-width="1.5" stroke-linecap="round" stroke-linejoin="round"/>
<path id="Vector_2" d="M6.03519 1.41064L6.0352 6.03564H1.41016" stroke="black" stroke-width="1.5" stroke-linecap="round" stroke-linejoin="round"/>
<path id="Vector_3" d="M11.9781 15.2878L8.01562 16.001L8.67605 11.9857L14.9224 5.76571C15.0452 5.6419 15.1913 5.54364 15.3523 5.47658C15.5132 5.40953 15.6858 5.375 15.8602 5.375C16.0345 5.375 16.2073 5.40953 16.3682 5.47658C16.5292 5.54364 16.6753 5.6419 16.7981 5.76571L18.1981 7.16579C18.3219 7.28859 18.4201 7.43467 18.4872 7.59562C18.5542 7.75658 18.5889 7.92922 18.5889 8.10359C18.5889 8.27795 18.5542 8.4506 18.4872 8.61155C18.4201 8.77251 18.3219 8.9186 18.1981 9.04138L11.9781 15.2878Z" stroke="black" stroke-width="1.5" stroke-linecap="round" stroke-linejoin="round"/>
</g>
</g>
<defs>
<clipPath id="clip0_47_143745">
<rect width="20" height="20" fill="white"/>
</clipPath>
</defs>
</svg>
