<svg width="20" height="20" viewBox="0 0 20 20" fill="none" xmlns="http://www.w3.org/2000/svg">
<g id="drawing-compass-19">
<g id="drawing-compass">
<path id="Vector 21" d="M10 1.41077V4.05362" stroke="black" stroke-width="1.5" stroke-linecap="round" stroke-linejoin="round"/>
<path id="Ellipse 2" d="M8.01953 6.03573C8.01953 6.56143 8.22836 7.06559 8.60009 7.43732C8.97181 7.80904 9.47598 8.01787 10.0017 8.01787C10.5274 8.01787 11.0315 7.80904 11.4033 7.43732C11.775 7.06559 11.9838 6.56143 11.9838 6.03573C11.9838 5.77543 11.9325 5.51768 11.8329 5.2772C11.7333 5.03671 11.5873 4.8182 11.4033 4.63415C11.2192 4.45009 11.0007 4.30408 10.7602 4.20447C10.5197 4.10486 10.262 4.05359 10.0017 4.05359C9.74138 4.05359 9.48363 4.10486 9.24314 4.20447C9.00266 4.30408 8.78415 4.45009 8.60009 4.63415C8.41603 4.8182 8.27003 5.03671 8.17041 5.2772C8.0708 5.51768 8.01953 5.77543 8.01953 6.03573Z" stroke="black" stroke-width="1.5"/>
<path id="Vector 22" d="M8.01897 6.69653L4.05469 18.5894" stroke="black" stroke-width="1.5" stroke-linecap="round" stroke-linejoin="round"/>
<path id="Vector 23" d="M11.9844 6.69653L15.9487 18.5894" stroke="black" stroke-width="1.5" stroke-linecap="round" stroke-linejoin="round"/>
<path id="Vector 24" d="M4.71484 12.6429H15.2863" stroke="black" stroke-width="1.5" stroke-linecap="round" stroke-linejoin="round"/>
<path id="Vector 25" d="M10 11.3215V13.9644" stroke="black" stroke-width="1.5" stroke-linecap="round" stroke-linejoin="round"/>
</g>
</g>
</svg>
