<svg width="21" height="21" viewBox="0 0 21 21" fill="none" xmlns="http://www.w3.org/2000/svg">
<g clip-path="url(#clip0_146_399262)">
<path d="M3.53516 11.1965V18.1608C3.53516 18.5302 3.68191 18.8845 3.94311 19.1457C4.20433 19.4069 4.5586 19.5537 4.92801 19.5537H16.0709C16.4403 19.5537 16.7946 19.4069 17.0558 19.1457C17.3169 18.8845 17.4637 18.5302 17.4637 18.1608V11.1965" stroke="black" stroke-width="1.5" stroke-linecap="round" stroke-linejoin="round"/>
<path d="M1.44531 11.1965H19.5525" stroke="black" stroke-width="1.5" stroke-linecap="round" stroke-linejoin="round"/>
<path d="M10.5 11.1965V19.5537" stroke="black" stroke-width="1.5" stroke-linecap="round" stroke-linejoin="round"/>
<path d="M13.9805 14.6787V16.0716" stroke="black" stroke-width="1.5" stroke-linecap="round" stroke-linejoin="round"/>
<path d="M7.01562 14.6787V16.0716" stroke="black" stroke-width="1.5" stroke-linecap="round" stroke-linejoin="round"/>
<path d="M17.4637 11.1965V8.41082C17.4637 6.56378 16.73 4.79238 15.4239 3.48633C14.1179 2.18026 12.3465 1.44653 10.4994 1.44653C8.6524 1.44653 6.88101 2.18026 5.57495 3.48633C4.26889 4.79238 3.53516 6.56378 3.53516 8.41082V11.1965" stroke="black" stroke-width="1.5" stroke-linecap="round" stroke-linejoin="round"/>
</g>
<defs>
<clipPath id="clip0_146_399262">
<rect width="21" height="21" fill="white"/>
</clipPath>
</defs>
</svg>
