<svg width="20" height="20" viewBox="0 0 20 20" fill="none" xmlns="http://www.w3.org/2000/svg">
<g clip-path="url(#clip0_48_150610)">
<path d="M9.99944 18.5892C14.7432 18.5892 18.5887 14.7437 18.5887 9.99993C18.5887 5.2562 14.7432 1.41064 9.99944 1.41064C5.25571 1.41064 1.41016 5.2562 1.41016 9.99993C1.41016 14.7437 5.25571 18.5892 9.99944 18.5892Z" stroke="black" stroke-width="1.5" stroke-linecap="round" stroke-linejoin="round"/>
<path d="M2.07031 13.3035H4.38281C4.99613 13.3035 5.58432 13.0599 6.018 12.6262C6.45168 12.1925 6.69531 11.6043 6.69531 10.991V9.00889C6.69531 8.39558 6.93894 7.80738 7.37262 7.3737C7.8063 6.94003 8.3945 6.69639 9.00781 6.69639C9.62113 6.69639 10.2093 6.45275 10.643 6.01907C11.0767 5.58539 11.3203 4.99721 11.3203 4.38389V1.50317" stroke="black" stroke-width="1.5" stroke-linecap="round" stroke-linejoin="round"/>
<path d="M18.5882 9.86768C17.9265 9.52439 17.1929 9.34322 16.4475 9.33911H13.6328C13.0195 9.33911 12.4313 9.58274 11.9976 10.0164C11.5639 10.4501 11.3203 11.0383 11.3203 11.6516C11.3203 12.2649 11.5639 12.8531 11.9976 13.2868C12.4313 13.7205 13.0195 13.9641 13.6328 13.9641C14.0709 13.9641 14.4911 14.1381 14.8008 14.4479C15.1106 14.7576 15.2846 15.1778 15.2846 15.6159V16.7655" stroke="black" stroke-width="1.5" stroke-linecap="round" stroke-linejoin="round"/>
</g>
<defs>
<clipPath id="clip0_48_150610">
<rect width="20" height="20" fill="white"/>
</clipPath>
</defs>
</svg>
