<svg width="21" height="21" viewBox="0 0 21 21" fill="none" xmlns="http://www.w3.org/2000/svg">
<g clip-path="url(#clip0_146_403226)">
<path d="M9.10603 16.7678H2.83817C2.46876 16.7678 2.11448 16.621 1.85327 16.3599C1.59206 16.0987 1.44531 15.7444 1.44531 15.375V2.83927C1.44531 2.46985 1.59206 2.11558 1.85327 1.85437C2.11448 1.59316 2.46876 1.44641 2.83817 1.44641H11.1953L15.3739 5.62498V6.32141" stroke="black" stroke-width="1.5" stroke-linecap="round" stroke-linejoin="round"/>
<path d="M16.072 13.9822V17.8125C16.072 18.2742 15.8885 18.7172 15.5621 19.0437C15.2356 19.3701 14.7926 19.5536 14.3309 19.5536C13.8692 19.5536 13.4263 19.3701 13.0998 19.0437C12.7733 18.7172 12.5898 18.2742 12.5898 17.8125V13.2857C12.5898 12.3622 12.9567 11.4765 13.6097 10.8235C14.2628 10.1705 15.1485 9.80359 16.072 9.80359C16.9955 9.80359 17.8812 10.1705 18.5343 10.8235C19.1873 11.4765 19.5541 12.3622 19.5541 13.2857V18.1607" stroke="black" stroke-width="1.5" stroke-linecap="round" stroke-linejoin="round"/>
</g>
<defs>
<clipPath id="clip0_146_403226">
<rect width="21" height="21" fill="white"/>
</clipPath>
</defs>
</svg>
