<svg width="20" height="20" viewBox="0 0 20 20" fill="none" xmlns="http://www.w3.org/2000/svg">
<g id="empty-recycle-bin-1-33" clip-path="url(#clip0_47_141697)">
<g id="empty-recycle-bin-1--remove-delete-empty-bin-trash-garbage-undo-put-back">
<path id="Vector" d="M1.74219 5.375H17.5993" stroke="black" stroke-width="1.5" stroke-linecap="round" stroke-linejoin="round"/>
<path id="Vector_2" d="M10.3298 18.5893H5.04408C4.69362 18.5893 4.35751 18.45 4.10969 18.2022C3.86188 17.9545 3.72266 17.6183 3.72266 17.2679V5.375H15.6155V10" stroke="black" stroke-width="1.5" stroke-linecap="round" stroke-linejoin="round"/>
<path id="Vector_3" d="M6.36719 5.37499V4.71428C6.36719 3.83812 6.71524 2.99783 7.33478 2.3783C7.95432 1.75876 8.7946 1.41071 9.67076 1.41071C10.5469 1.41071 11.3872 1.75876 12.0067 2.3783C12.6263 2.99783 12.9743 3.83812 12.9743 4.71428V5.37499" stroke="black" stroke-width="1.5" stroke-linecap="round" stroke-linejoin="round"/>
<path id="Vector_4" d="M10.332 13.3036H15.6177C16.3186 13.3036 16.9908 13.582 17.4865 14.0777C17.9822 14.5733 18.2606 15.2456 18.2606 15.9464C18.2606 16.6473 17.9822 17.3195 17.4865 17.8152C16.9908 18.3109 16.3186 18.5893 15.6177 18.5893H13.6356" stroke="black" stroke-width="1.5" stroke-linecap="round" stroke-linejoin="round"/>
<path id="Vector_5" d="M11.6546 15.9464L9.01172 13.3036L11.6546 10.6607" stroke="black" stroke-width="1.5" stroke-linecap="round" stroke-linejoin="round"/>
</g>
</g>
<defs>
<clipPath id="clip0_47_141697">
<rect width="20" height="20" fill="white"/>
</clipPath>
</defs>
</svg>
