<svg width="20" height="20" viewBox="0 0 20 20" fill="none" xmlns="http://www.w3.org/2000/svg">
<g id="eraser-35" clip-path="url(#clip0_47_147752)">
<g id="eraser--text-remove-format-formatting-eraser-delete">
<path id="Vector" d="M5.375 18.5889H18.5893" stroke="black" stroke-width="1.5" stroke-linecap="round" stroke-linejoin="round"/>
<path id="Vector_2" d="M17.0316 8.95563C17.151 8.83983 17.246 8.7012 17.3109 8.54798C17.3758 8.39475 17.4092 8.23006 17.4092 8.06367C17.4092 7.89727 17.3758 7.73258 17.3109 7.57936C17.246 7.42613 17.151 7.28751 17.0316 7.1717L11.6533 1.78027C11.409 1.55366 11.088 1.42773 10.7547 1.42773C10.4215 1.42773 10.1005 1.55366 9.85615 1.78027L1.78223 9.8542C1.55561 10.0986 1.42969 10.4195 1.42969 10.7528C1.42969 11.086 1.55561 11.407 1.78223 11.6513L5.00651 14.8625C5.12013 14.9834 5.25729 15.0797 5.40955 15.1456C5.56182 15.2114 5.72596 15.2455 5.89187 15.2457H10.2262C10.3943 15.2474 10.561 15.2142 10.7156 15.1483C10.8703 15.0823 11.0096 14.985 11.1247 14.8625L17.0316 8.95563Z" stroke="black" stroke-width="1.5" stroke-linecap="round" stroke-linejoin="round"/>
</g>
</g>
<defs>
<clipPath id="clip0_47_147752">
<rect width="20" height="20" fill="white"/>
</clipPath>
</defs>
</svg>
