<svg width="20" height="20" viewBox="0 0 20 20" fill="none" xmlns="http://www.w3.org/2000/svg">
<g id="expand-28" clip-path="url(#clip0_47_141087)">
<g id="expand--big-bigger-design-expand-larger-resize-size-square">
<path id="Vector" d="M15.9453 1.41077H17.2667C17.6172 1.41077 17.9534 1.54999 18.2011 1.7978C18.4489 2.04562 18.5882 2.38173 18.5882 2.7322V4.05362" stroke="black" stroke-width="1.5" stroke-linecap="round" stroke-linejoin="round"/>
<path id="Vector_2" d="M1.41016 4.05362V2.7322C1.41016 2.38173 1.54938 2.04562 1.79719 1.7978C2.04501 1.54999 2.38112 1.41077 2.73158 1.41077H4.05301" stroke="black" stroke-width="1.5" stroke-linecap="round" stroke-linejoin="round"/>
<path id="Vector_3" d="M8.01562 1.41077H11.9799" stroke="black" stroke-width="1.5" stroke-linecap="round" stroke-linejoin="round"/>
<path id="Vector_4" d="M18.5898 8.01794V11.9822" stroke="black" stroke-width="1.5" stroke-linecap="round" stroke-linejoin="round"/>
<path id="Vector_5" d="M1.41016 8.01794V11.9822" stroke="black" stroke-width="1.5" stroke-linecap="round" stroke-linejoin="round"/>
<path id="Vector_6" d="M15.9453 18.5894H17.2667C17.6172 18.5894 17.9534 18.4501 18.2011 18.2023C18.4489 17.9546 18.5882 17.6184 18.5882 17.268V15.9465" stroke="black" stroke-width="1.5" stroke-linecap="round" stroke-linejoin="round"/>
<path id="Vector_7" d="M1.41016 15.9465V17.268C1.41016 17.6184 1.54938 17.9546 1.79719 18.2023C2.04501 18.4501 2.38112 18.5894 2.73158 18.5894H4.05301" stroke="black" stroke-width="1.5" stroke-linecap="round" stroke-linejoin="round"/>
<path id="Vector_8" d="M8.01562 18.5894H11.9799" stroke="black" stroke-width="1.5" stroke-linecap="round" stroke-linejoin="round"/>
<path id="Vector_9" d="M12.6423 6.03577H7.35659C6.62679 6.03577 6.03516 6.6274 6.03516 7.3572V12.6429C6.03516 13.3727 6.62679 13.9643 7.35659 13.9643H12.6423C13.3721 13.9643 13.9637 13.3727 13.9637 12.6429V7.3572C13.9637 6.6274 13.3721 6.03577 12.6423 6.03577Z" stroke="black" stroke-width="1.5" stroke-linecap="round" stroke-linejoin="round"/>
</g>
</g>
<defs>
<clipPath id="clip0_47_141087">
<rect width="20" height="20" fill="white"/>
</clipPath>
</defs>
</svg>
