<svg width="21" height="21" viewBox="0 0 21 21" fill="none" xmlns="http://www.w3.org/2000/svg">
<g clip-path="url(#clip0_146_398354)">
<path d="M8.70254 9.38448V14.2372H18.7477C18.9612 14.2372 19.1658 14.322 19.3168 14.4729C19.4676 14.6238 19.5525 14.8285 19.5525 15.0419V19.4681H1.44531V12.4313C1.44536 12.3047 1.47527 12.18 1.5326 12.0671C1.58993 11.9543 1.67307 11.8566 1.77527 11.7819L7.42297 8.73263C7.54309 8.64485 7.6852 8.59209 7.83351 8.58021C7.98181 8.56833 8.13051 8.59779 8.26308 8.66533C8.39566 8.73286 8.5069 8.83582 8.58449 8.96278C8.66207 9.08973 8.70293 9.23571 8.70254 9.38448Z" stroke="black" stroke-width="1.5" stroke-linecap="round" stroke-linejoin="round"/>
<path d="M17.776 14.2156L16.7638 1.56274H13.7271L12.7148 14.2156" stroke="black" stroke-width="1.5" stroke-linecap="round" stroke-linejoin="round"/>
<path d="M13.3789 6.02295H17.108" stroke="black" stroke-width="1.5" stroke-linecap="round" stroke-linejoin="round"/>
<path d="M2.14062 2.36691C5.62277 5.15262 7.01562 -0.418803 10.4978 2.36691" stroke="black" stroke-width="1.5" stroke-linecap="round" stroke-linejoin="round"/>
<path d="M2.14062 5.5217C5.62277 8.30741 7.01562 2.73598 10.4978 5.5217" stroke="black" stroke-width="1.5" stroke-linecap="round" stroke-linejoin="round"/>
<path d="M5.1875 19.4683V16.448" stroke="black" stroke-width="1.5" stroke-linecap="round" stroke-linejoin="round"/>
</g>
<defs>
<clipPath id="clip0_146_398354">
<rect width="21" height="21" fill="white"/>
</clipPath>
</defs>
</svg>
