<svg width="20" height="20" viewBox="0 0 20 20" fill="none" xmlns="http://www.w3.org/2000/svg">
<g id="factorial-47">
<g id="factorial--interface-math-number-factorial-sign-mathematics">
<path id="Vector 292" d="M17.2656 1.41113V13.9647" stroke="black" stroke-width="1.5" stroke-linecap="round" stroke-linejoin="round"/>
<path id="Ellipse 85" d="M2.07031 18.59V8.67927C2.07031 5.76005 4.43681 3.39355 7.35603 3.39355C10.2752 3.39355 12.6417 5.76005 12.6417 8.67927V18.59" stroke="black" stroke-width="1.5" stroke-linecap="round" stroke-linejoin="round"/>
<path id="Vector 291" d="M2.07031 3.39355V8.67927" stroke="black" stroke-width="1.5" stroke-linecap="round" stroke-linejoin="round"/>
<path id="Ellipse 1000" d="M16.6055 17.9293C16.6055 18.1045 16.6751 18.2726 16.799 18.3965C16.9229 18.5204 17.091 18.59 17.2662 18.59C17.4414 18.59 17.6095 18.5204 17.7334 18.3965C17.8573 18.2726 17.9269 18.1045 17.9269 17.9293C17.9269 17.754 17.8573 17.586 17.7334 17.4621C17.6095 17.3382 17.4414 17.2686 17.2662 17.2686C17.091 17.2686 16.9229 17.3382 16.799 17.4621C16.6751 17.586 16.6055 17.754 16.6055 17.9293Z" stroke="black" stroke-width="1.5" stroke-linecap="round" stroke-linejoin="round"/>
</g>
</g>
</svg>
