<svg width="20" height="20" viewBox="0 0 20 20" fill="none" xmlns="http://www.w3.org/2000/svg">
<g id="file-lock-67" clip-path="url(#clip0_47_144375)">
<g id="file-lock">
<path id="Vector" d="M4.05469 6.03564V2.73207C4.05469 2.3816 4.19391 2.0455 4.44172 1.79768C4.68954 1.54987 5.02565 1.41064 5.37612 1.41064H13.9654L18.5904 6.03564V17.2678C18.5904 17.6182 18.4511 17.9544 18.2034 18.2022C17.9556 18.4499 17.6194 18.5892 17.269 18.5892H12.644" stroke="black" stroke-width="1.5" stroke-linecap="round" stroke-linejoin="round"/>
<path id="Vector_2" d="M2.07087 13.3037H8.67801C9.07444 13.3037 9.33873 13.568 9.33873 13.9644V17.9287C9.33873 18.3251 9.07444 18.5894 8.67801 18.5894H2.07087C1.67444 18.5894 1.41016 18.3251 1.41016 17.9287V13.9644C1.41016 13.568 1.67444 13.3037 2.07087 13.3037Z" stroke="black" stroke-width="1.5" stroke-linecap="round" stroke-linejoin="round"/>
<path id="Vector_3" d="M2.73047 13.3036V11.9822C2.73047 10.5286 3.91975 9.33936 5.37333 9.33936C6.8269 9.33936 8.01618 10.5286 8.01618 11.9822V13.3036" stroke="black" stroke-width="1.5" stroke-linecap="round" stroke-linejoin="round"/>
</g>
</g>
<defs>
<clipPath id="clip0_47_144375">
<rect width="20" height="20" fill="white"/>
</clipPath>
</defs>
</svg>
