<svg width="20" height="20" viewBox="0 0 20 20" fill="none" xmlns="http://www.w3.org/2000/svg">
<g id="file-folder-51" clip-path="url(#clip0_47_144371)">
<g id="file-folder--work-office-company-folder-supplies-file">
<path id="Vector" d="M1.9565 17.4002L1.41493 8.15017C1.40367 8.05699 1.41238 7.96248 1.44049 7.87292C1.4686 7.78337 1.51546 7.70085 1.57795 7.63083C1.64044 7.56082 1.71712 7.50492 1.8029 7.46688C1.88867 7.42882 1.98156 7.4095 2.07538 7.41017H8.16472C8.31277 7.4111 8.4564 7.46077 8.57338 7.55154C8.69038 7.64231 8.77423 7.7691 8.81197 7.91232L9.34033 10.053H17.9262C18.0175 10.0527 18.108 10.0714 18.1918 10.1079C18.2755 10.1443 18.3509 10.1978 18.4128 10.2649C18.475 10.3319 18.5224 10.4111 18.5524 10.4975C18.5823 10.5839 18.5939 10.6755 18.5866 10.7666L18.0715 17.3738C18.0448 17.7056 17.8941 18.0151 17.6491 18.2405C17.4042 18.466 17.0834 18.5906 16.7506 18.5895H3.2774C2.9488 18.5911 2.63139 18.4702 2.38714 18.2503C2.1429 18.0303 1.98936 17.7273 1.9565 17.4002Z" stroke="black" stroke-width="1.5" stroke-linecap="round" stroke-linejoin="round"/>
<path id="Vector_2" d="M5.375 4.71422V2.07136C5.375 1.89613 5.44461 1.72807 5.56851 1.60416C5.69242 1.48025 5.86048 1.41064 6.03571 1.41064H17.2678C17.4431 1.41064 17.6111 1.48025 17.7351 1.60416C17.8589 1.72807 17.9286 1.89613 17.9286 2.07136V7.35707" stroke="black" stroke-width="1.5" stroke-linecap="round" stroke-linejoin="round"/>
</g>
</g>
<defs>
<clipPath id="clip0_47_144371">
<rect width="20" height="20" fill="white"/>
</clipPath>
</defs>
</svg>
