<svg width="20" height="20" viewBox="0 0 20 20" fill="none" xmlns="http://www.w3.org/2000/svg">
<g id="fill-and-sign-33">
<g id="fill-and-sign--essential-files-folder-fill-and-sign">
<path id="Vector" d="M14.6239 5.37486L6.0346 13.9641L2.07031 14.6249L2.73103 10.6606L11.3203 2.07129L14.6239 5.37486Z" stroke="black" stroke-width="1.5" stroke-linecap="round" stroke-linejoin="round"/>
<path id="Vector 1296" d="M1.41016 17.9283H11.3577C11.768 17.9283 12.1726 17.8328 12.5396 17.6493L13.303 17.2676L14.0664 17.6493C14.4334 17.8328 14.838 17.9283 15.2483 17.9283H18.5887" stroke="black" stroke-width="1.5" stroke-linecap="round" stroke-linejoin="round"/>
<path id="Rectangle 614" d="M11.9805 15.2858C11.9805 14.556 12.5721 13.9644 13.3019 13.9644C14.0317 13.9644 14.6233 14.556 14.6233 15.2858V15.366C14.6233 15.7377 14.4757 16.0941 14.2128 16.3571L13.3019 17.2679L12.391 16.3571C12.1281 16.0941 11.9805 15.7377 11.9805 15.366V15.2858Z" stroke="black" stroke-width="1.5" stroke-linecap="round" stroke-linejoin="round"/>
</g>
</g>
</svg>
