<svg width="20" height="20" viewBox="0 0 20 20" fill="none" xmlns="http://www.w3.org/2000/svg">
<g id="finger-snapping-30">
<g id="finger-snapping">
<path id="Vector 852" d="M13.1758 3.20008L14.7212 1.46875" stroke="black" stroke-width="1.5" stroke-linecap="round" stroke-linejoin="round"/>
<path id="Vector 854" d="M10.8261 3.19998L9.10156 1.64697" stroke="black" stroke-width="1.5" stroke-linecap="round" stroke-linejoin="round"/>
<path id="Vector 107" d="M17.1236 13.3736L15.5797 12.0383L16.4004 6.71987C16.4382 6.47557 16.4421 6.22157 16.3497 5.99229C16.1767 5.56307 15.8783 5.33166 15.3395 5.33166C14.7072 5.33166 14.4361 5.62527 13.9015 6.38962L12.3356 8.24516L5.36575 3.01574C4.65376 2.48154 3.63877 2.65822 3.14918 3.40159C2.72465 4.04619 2.8412 4.90523 3.42214 5.41342L8.09922 9.50462C7.03451 11.3616 4.03191 13.6557 6.15163 15.6609C8.33974 17.7306 9.839 18.1708 10.7408 18.1708" stroke="black" stroke-width="1.5" stroke-linecap="round" stroke-linejoin="round"/>
</g>
</g>
</svg>
