<svg width="20" height="20" viewBox="0 0 20 20" fill="none" xmlns="http://www.w3.org/2000/svg">
<g id="fingerprint-lock-privacy-8" clip-path="url(#clip0_47_145312)">
<g id="fingerprint-lock-privacy--fingerprint-lock-privacy-indentification-password-touch-id-secure">
<path id="Vector" d="M12.9453 3.7627C13.5691 4.46141 14.0318 5.27851 14.3117 6.15658" stroke="black" stroke-width="1.5" stroke-linecap="round" stroke-linejoin="round"/>
<path id="Vector_2" d="M1.41016 9.63037V11.8372C1.40971 13.1378 1.79318 14.4097 2.51249 15.4934C3.2318 16.577 4.25495 17.4243 5.45373 17.9289" stroke="black" stroke-width="1.5" stroke-linecap="round" stroke-linejoin="round"/>
<path id="Vector_3" d="M11.3215 2.44181C9.80402 1.56569 8.00062 1.32827 6.30805 1.78177C4.61548 2.23527 3.17237 3.34255 2.29619 4.86003C1.9354 5.48312 1.68085 6.16192 1.54297 6.8686" stroke="black" stroke-width="1.5" stroke-linecap="round" stroke-linejoin="round"/>
<path id="Vector_4" d="M7.33203 5.38809C7.81805 5.2872 8.32051 5.29667 8.80238 5.41581C9.28426 5.53496 9.73324 5.76076 10.1162 6.07652C10.4992 6.39231 10.8064 6.79002 11.0153 7.24033" stroke="black" stroke-width="1.5" stroke-linecap="round" stroke-linejoin="round"/>
<path id="Vector_5" d="M4.97955 7.35742C4.80268 7.77539 4.71275 8.22501 4.71526 8.67885V11.3217C4.70452 11.9947 4.89958 12.6548 5.27432 13.2139C5.64908 13.7729 6.18564 14.2041 6.8122 14.4499C7.14389 14.58 7.49242 14.6549 7.84414 14.6734" stroke="black" stroke-width="1.5" stroke-linecap="round" stroke-linejoin="round"/>
<path id="Vector_6" d="M8.01562 8.82373V11.0305" stroke="black" stroke-width="1.5" stroke-linecap="round" stroke-linejoin="round"/>
<path id="Vector_7" d="M11.3209 13.3037H17.928C18.3244 13.3037 18.5887 13.568 18.5887 13.9644V17.9287C18.5887 18.3251 18.3244 18.5894 17.928 18.5894H11.3209C10.9244 18.5894 10.6602 18.3251 10.6602 17.9287V13.9644C10.6602 13.568 10.9244 13.3037 11.3209 13.3037Z" stroke="black" stroke-width="1.5" stroke-linecap="round" stroke-linejoin="round"/>
<path id="Vector_8" d="M11.9805 13.3036V11.9822C11.9805 10.5286 13.1698 9.33936 14.6233 9.33936C16.0769 9.33936 17.2662 10.5286 17.2662 11.9822V13.3036" stroke="black" stroke-width="1.5" stroke-linecap="round" stroke-linejoin="round"/>
</g>
</g>
<defs>
<clipPath id="clip0_47_145312">
<rect width="20" height="20" fill="white"/>
</clipPath>
</defs>
</svg>
