<svg width="20" height="20" viewBox="0 0 20 20" fill="none" xmlns="http://www.w3.org/2000/svg">
<g id="fire-wall-9" clip-path="url(#clip0_47_147006)">
<g id="fire-wall--code-firewall-programming-secure-security">
<path id="Vector" d="M18.5887 10.6602H1.41016V18.5887H18.5887V10.6602Z" stroke="black" stroke-width="1.5" stroke-linecap="round" stroke-linejoin="round"/>
<path id="Vector_2" d="M1.41016 14.625H18.5887" stroke="black" stroke-width="1.5" stroke-linecap="round" stroke-linejoin="round"/>
<path id="Vector_3" d="M8.01562 14.625V18.5893" stroke="black" stroke-width="1.5" stroke-linecap="round" stroke-linejoin="round"/>
<path id="Vector_4" d="M11.9805 10.6602V14.6244" stroke="black" stroke-width="1.5" stroke-linecap="round" stroke-linejoin="round"/>
<path id="Vector_5" d="M9.32426 1.45029C9.27634 1.42467 9.2216 1.41113 9.16579 1.41113C9.10999 1.41113 9.05523 1.42467 9.00733 1.45029C8.96782 1.47834 8.94115 1.51838 8.93239 1.56284C8.92363 1.60731 8.93338 1.65311 8.9598 1.69157C9.93434 3.20307 10.1403 5.26099 8.80925 6.3964C8.29713 6.01094 7.89054 5.5254 7.62078 4.97714C7.12855 5.222 6.7206 5.58295 6.44125 6.02081C6.16188 6.45866 6.02178 6.9567 6.03616 7.46083C6.05626 7.90526 6.1754 8.34159 6.38658 8.74417C6.59776 9.14674 6.89672 9.50741 7.26584 9.80496C7.63497 10.1025 8.06683 10.3309 8.53599 10.4768C9.00515 10.6226 9.50214 10.6829 9.99771 10.6542C12.549 10.6542 13.8721 9.2349 13.9593 7.46083C14.0623 5.33196 12.3747 2.71343 9.32426 1.45029Z" stroke="black" stroke-width="1.5" stroke-linecap="round" stroke-linejoin="round"/>
</g>
</g>
<defs>
<clipPath id="clip0_47_147006">
<rect width="20" height="20" fill="white"/>
</clipPath>
</defs>
</svg>
