<svg width="20" height="20" viewBox="0 0 20 20" fill="none" xmlns="http://www.w3.org/2000/svg">
<g id="fist-11">
<g id="fist">
<path id="Vector 1200" d="M5.90368 18.4666V15.2108C4.18057 14.6128 3.02344 12.6061 3.02344 10.2499C3.02344 8.8448 3.33939 7.37646 4.89952 7.37646H8.85367C9.66461 7.37646 10.3217 8.03385 10.3217 8.8448C10.3217 9.49158 9.89847 10.0622 9.27952 10.2499L7.01886 10.9355C8.17546 10.9355 9.59412 12.0325 9.56366 13.4533" stroke="black" stroke-width="1.5" stroke-linecap="round" stroke-linejoin="round"/>
<path id="Vector 1999" d="M13.7188 18.467V15.2105C13.7188 15.2105 14.4945 14.8227 15.3052 14.0469C16.8664 12.5528 17.0697 10.1901 16.6474 8.07095C16.5067 7.36431 16.3053 6.64832 16.0171 6.0459" stroke="black" stroke-width="1.5" stroke-linecap="round" stroke-linejoin="round"/>
<path id="Rectangle 745" d="M4.27344 7.28062V4.78901C4.27344 3.71009 5.14808 2.83545 6.227 2.83545C7.30592 2.83545 8.18056 3.71009 8.18056 4.78901V7.28062" stroke="black" stroke-width="1.5" stroke-linecap="round" stroke-linejoin="round"/>
<path id="Rectangle 746" d="M8.17969 6.76711V3.48798C8.17969 2.40838 9.05487 1.5332 10.1345 1.5332C11.214 1.5332 12.0892 2.40838 12.0892 3.48798V6.76711C12.0892 7.79552 11.2951 8.63843 10.2866 8.71605" stroke="black" stroke-width="1.5" stroke-linecap="round" stroke-linejoin="round"/>
<path id="Rectangle 747" d="M12.0898 4.78974C12.0898 3.71042 12.9648 2.83545 14.0442 2.83545C15.1235 2.83545 15.9984 3.71042 15.9984 4.78974V6.46701C15.9984 7.54633 15.1235 8.42129 14.0442 8.42129C12.9648 8.42129 12.0898 7.54633 12.0898 6.46701V4.78974Z" stroke="black" stroke-width="1.5" stroke-linecap="round" stroke-linejoin="round"/>
</g>
</g>
</svg>
