<svg width="20" height="20" viewBox="0 0 20 20" fill="none" xmlns="http://www.w3.org/2000/svg">
<g id="flip-horizontal-square-2-11" clip-path="url(#clip0_47_144664)">
<g id="flip-horizontal-square-2--design-flip-reflect-right-horizontal">
<path id="Vector" d="M15.9453 1.41064H17.2667C17.6172 1.41064 17.9534 1.54987 18.2011 1.79768C18.4489 2.0455 18.5882 2.3816 18.5882 2.73207V4.0535" stroke="black" stroke-width="1.5" stroke-linecap="round" stroke-linejoin="round"/>
<path id="Vector_2" d="M18.5898 8.01758V11.9819" stroke="black" stroke-width="1.5" stroke-linecap="round" stroke-linejoin="round"/>
<path id="Vector_3" d="M15.9453 18.5891H17.2667C17.6172 18.5891 17.9534 18.4499 18.2011 18.2021C18.4489 17.9543 18.5882 17.6182 18.5882 17.2677V15.9463" stroke="black" stroke-width="1.5" stroke-linecap="round" stroke-linejoin="round"/>
<path id="Vector_4" d="M6.69587 18.5892H2.73158C2.38112 18.5892 2.04501 18.4499 1.79719 18.2022C1.54938 17.9544 1.41016 17.6182 1.41016 17.2678V2.73207C1.41016 2.3816 1.54938 2.0455 1.79719 1.79768C2.04501 1.54987 2.38112 1.41064 2.73158 1.41064H6.69587" stroke="black" stroke-width="1.5" stroke-linecap="round" stroke-linejoin="round"/>
<path id="Vector_5" d="M11.9821 18.5892H10V1.41064H11.9821" stroke="black" stroke-width="1.5" stroke-linecap="round" stroke-linejoin="round"/>
</g>
</g>
<defs>
<clipPath id="clip0_47_144664">
<rect width="20" height="20" fill="white"/>
</clipPath>
</defs>
</svg>
