<svg width="20" height="20" viewBox="0 0 20 20" fill="none" xmlns="http://www.w3.org/2000/svg">
<g id="flip-horizontal-circle-1-8" clip-path="url(#clip0_47_144645)">
<g id="flip-horizontal-circle-1--flip-left-object-work">
<path id="Vector" d="M9.99944 18.5892V1.41064C7.72142 1.41064 5.5367 2.31559 3.92591 3.92639C2.3151 5.53719 1.41016 7.72191 1.41016 9.99993C1.41016 12.278 2.3151 14.4627 3.92591 16.0735C5.5367 17.6843 7.72142 18.5892 9.99944 18.5892Z" stroke="black" stroke-width="1.5" stroke-linecap="round" stroke-linejoin="round"/>
<path id="Vector_2" d="M13.4492 2.13721C14.0609 2.40011 14.6379 2.73741 15.1671 3.14149C15.6971 3.52427 16.1805 3.96776 16.6074 4.46292" stroke="black" stroke-width="1.5" stroke-linecap="round" stroke-linejoin="round"/>
<path id="Vector_3" d="M13.4492 17.9287C14.0609 17.6659 14.6379 17.3285 15.1671 16.9245C15.6971 16.5418 16.1805 16.0983 16.6074 15.603" stroke="black" stroke-width="1.5" stroke-linecap="round" stroke-linejoin="round"/>
<path id="Vector_4" d="M18.3633 8.01758C18.663 9.32203 18.663 10.6774 18.3633 11.9819" stroke="black" stroke-width="1.5" stroke-linecap="round" stroke-linejoin="round"/>
</g>
</g>
<defs>
<clipPath id="clip0_47_144645">
<rect width="20" height="20" fill="white"/>
</clipPath>
</defs>
</svg>
