<svg width="20" height="20" viewBox="0 0 20 20" fill="none" xmlns="http://www.w3.org/2000/svg">
<g id="flip-horizontal-circle-2-5" clip-path="url(#clip0_47_144651)">
<g id="flip-horizontal-circle-2--flip-right-object-work">
<path id="Vector" d="M10 18.5892V1.41064C12.278 1.41064 14.4627 2.31559 16.0736 3.92639C17.6844 5.53719 18.5893 7.72191 18.5893 9.99993C18.5893 12.278 17.6844 14.4627 16.0736 16.0735C14.4627 17.6843 12.278 18.5892 10 18.5892Z" stroke="black" stroke-width="1.5" stroke-linecap="round" stroke-linejoin="round"/>
<path id="Vector_2" d="M6.54884 2.13721C5.93712 2.40011 5.36015 2.73741 4.83098 3.14149C4.29794 3.54072 3.81442 4.00207 3.39062 4.51578" stroke="black" stroke-width="1.5" stroke-linecap="round" stroke-linejoin="round"/>
<path id="Vector_3" d="M6.54884 17.9287C5.93712 17.6659 5.36015 17.3285 4.83098 16.9245C4.30094 16.5418 3.81754 16.0983 3.39062 15.603" stroke="black" stroke-width="1.5" stroke-linecap="round" stroke-linejoin="round"/>
<path id="Vector_4" d="M1.63489 8.01758C1.33524 9.32203 1.33524 10.6774 1.63489 11.9819" stroke="black" stroke-width="1.5" stroke-linecap="round" stroke-linejoin="round"/>
</g>
</g>
<defs>
<clipPath id="clip0_47_144651">
<rect width="20" height="20" fill="white"/>
</clipPath>
</defs>
</svg>
