<svg width="21" height="21" viewBox="0 0 21 21" fill="none" xmlns="http://www.w3.org/2000/svg">
<path d="M4.23103 2.83923H2.83817C2.46876 2.83923 2.11448 2.98598 1.85327 3.24719C1.59206 3.5084 1.44531 3.86268 1.44531 4.23209V5.62495" stroke="black" stroke-width="1.5" stroke-linecap="round" stroke-linejoin="round"/>
<path d="M19.5513 5.62495V4.23209C19.5513 3.86268 19.4045 3.5084 19.1434 3.24719C18.8822 2.98598 18.5279 2.83923 18.1585 2.83923H16.7656" stroke="black" stroke-width="1.5" stroke-linecap="round" stroke-linejoin="round"/>
<path d="M16.7656 18.1607H18.1585C18.5279 18.1607 18.8822 18.0139 19.1434 17.7527C19.4045 17.4916 19.5513 17.1372 19.5513 16.7679V15.375" stroke="black" stroke-width="1.5" stroke-linecap="round" stroke-linejoin="round"/>
<path d="M1.44531 15.375V16.7679C1.44531 17.1372 1.59206 17.4916 1.85327 17.7527C2.11448 18.0139 2.46876 18.1607 2.83817 18.1607H4.23103" stroke="black" stroke-width="1.5" stroke-linecap="round" stroke-linejoin="round"/>
<path d="M10.4978 13.9821C12.4209 13.9821 13.9799 12.4231 13.9799 10.5C13.9799 8.57683 12.4209 7.01782 10.4978 7.01782C8.57464 7.01782 7.01562 8.57683 7.01562 10.5C7.01562 12.4231 8.57464 13.9821 10.4978 13.9821Z" stroke="black" stroke-width="1.5" stroke-linecap="round" stroke-linejoin="round"/>
</svg>
