<svg width="20" height="20" viewBox="0 0 20 20" fill="none" xmlns="http://www.w3.org/2000/svg">
<g id="fog-cloud-38" clip-path="url(#clip0_47_149560)">
<g id="fog-cloud--fog-cloud-foggy-meteorology-weather">
<path id="Vector" d="M1.8628 9.63219C1.41273 8.54562 1.29497 7.34999 1.52442 6.1965C1.75386 5.043 2.32021 3.98345 3.15183 3.15183C3.98345 2.3202 5.043 1.75386 6.1965 1.52442C7.34999 1.29497 8.54562 1.41273 9.63219 1.8628C10.7187 2.31288 11.6475 3.07504 12.3009 4.05293C12.9543 5.03082 13.303 6.1805 13.303 7.35658C13.8753 6.92856 14.5705 6.69682 15.2852 6.69587C16.1613 6.69587 17.0016 7.04392 17.6212 7.66346C18.2407 8.28301 18.5887 9.12328 18.5887 9.99944C18.5887 10.8756 18.2407 11.7159 17.6212 12.3354" stroke="black" stroke-width="1.5" stroke-linecap="round" stroke-linejoin="round"/>
<path id="Vector 2746" d="M1.41016 18.5879H14.6244" stroke="black" stroke-width="1.5" stroke-linecap="round" stroke-linejoin="round"/>
<path id="Vector 2747" d="M5.375 15.2852H18.5893" stroke="black" stroke-width="1.5" stroke-linecap="round" stroke-linejoin="round"/>
<path id="Vector 2748" d="M1.41016 11.9824H14.6244" stroke="black" stroke-width="1.5" stroke-linecap="round" stroke-linejoin="round"/>
</g>
</g>
<defs>
<clipPath id="clip0_47_149560">
<rect width="20" height="20" fill="white"/>
</clipPath>
</defs>
</svg>
