<svg width="20" height="20" viewBox="0 0 20 20" fill="none" xmlns="http://www.w3.org/2000/svg">
<g id="folder-search-7" clip-path="url(#clip0_47_144432)">
<g id="folder-search">
<path id="Vector" d="M18.5887 9.00951V5.37549C18.5887 5.02503 18.4494 4.68891 18.2017 4.4411C17.9539 4.19328 17.6177 4.05406 17.2673 4.05406H9.33873L8.92908 2.41549C8.85674 2.1223 8.68614 1.86273 8.44572 1.68C8.20529 1.49727 7.90951 1.40241 7.60766 1.41121H2.73158C2.38112 1.41121 2.04501 1.55043 1.79719 1.79824C1.54938 2.04606 1.41016 2.38217 1.41016 2.73263V16.6076C1.41016 16.958 1.54938 17.2942 1.79719 17.542C2.04501 17.7899 2.38112 17.929 2.73158 17.929H8.0173" stroke="black" stroke-width="1.5" stroke-linecap="round" stroke-linejoin="round"/>
<path id="vector" d="M13.3041 17.2679C15.4936 17.2679 17.2684 15.4931 17.2684 13.3036C17.2684 11.1142 15.4936 9.33936 13.3041 9.33936C11.1147 9.33936 9.33984 11.1142 9.33984 13.3036C9.33984 15.4931 11.1147 17.2679 13.3041 17.2679Z" stroke="black" stroke-width="1.5" stroke-linecap="round" stroke-linejoin="round"/>
<path id="vector_2" d="M18.5898 18.5894L16.2773 16.2769" stroke="black" stroke-width="1.5" stroke-linecap="round" stroke-linejoin="round"/>
</g>
</g>
<defs>
<clipPath id="clip0_47_144432">
<rect width="20" height="20" fill="white"/>
</clipPath>
</defs>
</svg>
