<svg width="20" height="20" viewBox="0 0 20 20" fill="none" xmlns="http://www.w3.org/2000/svg">
<g id="folder-block-34" clip-path="url(#clip0_47_144409)">
<g id="folder-block--block-folder-subtract">
<path id="Vector" d="M9.99944 15.2855C7.81003 15.2855 6.03516 13.5106 6.03516 11.3212C6.03516 9.13181 7.81003 7.35693 9.99944 7.35693C12.1889 7.35693 13.9637 9.13181 13.9637 11.3212C13.9637 13.5106 12.1889 15.2855 9.99944 15.2855Z" stroke="black" stroke-width="1.5" stroke-linecap="round" stroke-linejoin="round"/>
<path id="Vector_2" d="M12.6412 13.9638L7.35547 8.67822" stroke="black" stroke-width="1.5" stroke-linecap="round" stroke-linejoin="round"/>
<path id="Vector_3" d="M1.41016 16.9372V3.06223C1.41016 2.71176 1.54938 2.37565 1.79719 2.12783C2.04501 1.88002 2.38112 1.7408 2.73158 1.7408H7.60766C7.90951 1.732 8.20529 1.82686 8.44572 2.00959C8.68614 2.19232 8.85674 2.45189 8.92908 2.74509L9.33873 4.38366H17.2673C17.6177 4.38366 17.9539 4.52287 18.2017 4.77069C18.4494 5.01851 18.5887 5.35462 18.5887 5.70509V16.9372C18.5887 17.2878 18.4494 17.6238 18.2017 17.8716C17.9539 18.1195 17.6177 18.2586 17.2673 18.2586H2.73158C2.38112 18.2586 2.04501 18.1195 1.79719 17.8716C1.54938 17.6238 1.41016 17.2878 1.41016 16.9372Z" stroke="black" stroke-width="1.5" stroke-linecap="round" stroke-linejoin="round"/>
</g>
</g>
<defs>
<clipPath id="clip0_47_144409">
<rect width="20" height="20" fill="white"/>
</clipPath>
</defs>
</svg>
