<svg width="20" height="20" viewBox="0 0 20 20" fill="none" xmlns="http://www.w3.org/2000/svg">
<g id="following-25">
<g id="following">
<path id="vector" d="M6.99544 7.68034C8.65841 7.68034 10.0065 6.33224 10.0065 4.66928C10.0065 3.0063 8.65841 1.6582 6.99544 1.6582C5.33247 1.6582 3.98438 3.0063 3.98438 4.66928C3.98438 6.33224 5.33247 7.68034 6.99544 7.68034Z" stroke="black" stroke-width="1.5" stroke-linecap="round" stroke-linejoin="round"/>
<path id="vector_2" d="M7.851 16.1122H1.57422V15.4591C1.58381 14.5412 1.82592 13.6406 2.27793 12.8415C2.72995 12.0424 3.37712 11.3709 4.15901 10.8898C4.94089 10.4086 5.83197 10.1335 6.74901 10.09C6.83078 10.0862 6.9125 10.0842 6.99414 10.084C7.07578 10.0842 7.15751 10.0862 7.23926 10.09C8.15631 10.1335 9.04739 10.4086 9.82928 10.8898" stroke="black" stroke-width="1.5" stroke-linecap="round" stroke-linejoin="round"/>
<path id="vector 1240" d="M11.0586 15.0781H17.7622" stroke="black" stroke-width="1.5" stroke-linecap="round" stroke-linejoin="round"/>
<path id="vector 1262" d="M15.2422 17.5985L17.7611 15.0796L15.2422 12.5605" stroke="black" stroke-width="1.5" stroke-linecap="round" stroke-linejoin="round"/>
</g>
</g>
</svg>
