<svg width="20" height="20" viewBox="0 0 20 20" fill="none" xmlns="http://www.w3.org/2000/svg">
<g id="font-variable-68" clip-path="url(#clip0_47_147774)">
<g id="font-variable">
<path id="Vector 378" d="M18.5873 16.3096H9.29688" stroke="black" stroke-width="1.5" stroke-linecap="round" stroke-linejoin="round"/>
<path id="Vector 695" d="M5.2661 16.3096H1.41016" stroke="black" stroke-width="1.5" stroke-linecap="round" stroke-linejoin="round"/>
<path id="Vector 690" d="M14.4453 1.67285V11.1081" stroke="black" stroke-width="1.5" stroke-linecap="round" stroke-linejoin="round"/>
<path id="Vector 692" d="M4.51953 1.67285V11.1082" stroke="black" stroke-width="1.5" stroke-linecap="round" stroke-linejoin="round"/>
<path id="Vector 691" d="M16.0717 11.1084H12.8125" stroke="black" stroke-width="1.5" stroke-linecap="round" stroke-linejoin="round"/>
<path id="Vector 693" d="M5.71459 11.1084H3.31641" stroke="black" stroke-width="1.5" stroke-linecap="round" stroke-linejoin="round"/>
<path id="Vector 614" d="M10.6875 4.14416V1.67285H18.1989V4.14416" stroke="black" stroke-width="1.5" stroke-linecap="round" stroke-linejoin="round"/>
<path id="Vector 694" d="M1.75391 3.61088V1.67285H7.28111V3.61088" stroke="black" stroke-width="1.5" stroke-linecap="round" stroke-linejoin="round"/>
<path id="Ellipse 51" d="M5.26563 16.3114C5.26562 16.5762 5.31778 16.8385 5.41912 17.0831C5.52046 17.3278 5.66899 17.5501 5.85624 17.7373C6.04349 17.9246 6.26579 18.0731 6.51044 18.1744C6.7551 18.2758 7.01731 18.3279 7.28212 18.3279C7.54694 18.3279 7.80915 18.2758 8.05381 18.1744C8.29846 18.0731 8.52076 17.9246 8.70801 17.7373C8.89525 17.5501 9.04379 17.3278 9.14513 17.0831C9.24647 16.8385 9.29862 16.5762 9.29862 16.3114C9.29862 15.7766 9.08617 15.2637 8.70801 14.8855C8.32984 14.5074 7.81693 14.2949 7.28212 14.2949C6.74732 14.2949 6.23441 14.5074 5.85624 14.8855C5.47808 15.2637 5.26562 15.7766 5.26563 16.3114Z" stroke="black" stroke-width="1.5" stroke-linecap="round" stroke-linejoin="round"/>
</g>
</g>
<defs>
<clipPath id="clip0_47_147774">
<rect width="20" height="20" fill="white"/>
</clipPath>
</defs>
</svg>
