<svg width="21" height="21" viewBox="0 0 21 21" fill="none" xmlns="http://www.w3.org/2000/svg">
<path d="M7.71317 14.3304H2.83817C2.46876 14.3304 2.11448 14.1836 1.85327 13.9224C1.59206 13.6612 1.44531 13.3069 1.44531 12.9375V4.58036C1.44531 4.21094 1.59206 3.85667 1.85327 3.59545C2.11448 3.33425 2.46876 3.1875 2.83817 3.1875H18.1596C18.529 3.1875 18.8833 3.33425 19.1445 3.59545C19.4056 3.85667 19.5525 4.21094 19.5525 4.58036V7.36607" stroke="black" stroke-width="1.5" stroke-linecap="round" stroke-linejoin="round"/>
<path d="M5.625 7.36609V10.1518" stroke="black" stroke-width="1.5" stroke-linecap="round" stroke-linejoin="round"/>
<path d="M18.1596 10.8483H12.5882C11.8189 10.8483 11.1953 11.4719 11.1953 12.2411V16.4197C11.1953 17.189 11.8189 17.8126 12.5882 17.8126H18.1596C18.9289 17.8126 19.5525 17.189 19.5525 16.4197V12.2411C19.5525 11.4719 18.9289 10.8483 18.1596 10.8483Z" stroke="black" stroke-width="1.5" stroke-linecap="round" stroke-linejoin="round"/>
<path d="M11.1953 12.9375L15.3739 15.0268L19.5525 12.9375" stroke="black" stroke-width="1.5" stroke-linecap="round" stroke-linejoin="round"/>
</svg>
