<svg width="21" height="21" viewBox="0 0 21 21" fill="none" xmlns="http://www.w3.org/2000/svg">
<path d="M9.84357 18.6109C9.12151 19.0758 8.26206 19.2796 7.40813 19.1883C6.55418 19.0971 5.75719 18.7164 5.14964 18.1094L4.62035 17.5801C4.38559 17.3428 4.25391 17.0224 4.25391 16.6887C4.25391 16.3548 4.38559 16.0346 4.62035 15.7973L6.84892 13.5826C7.08386 13.3487 7.40187 13.2174 7.73339 13.2174C8.0649 13.2174 8.38292 13.3487 8.61785 13.5826C8.85515 13.8174 9.17548 13.9491 9.50928 13.9491C9.84308 13.9491 10.1634 13.8174 10.4007 13.5826L13.9525 10.0308C14.1873 9.79354 14.3189 9.47321 14.3189 9.13939C14.3189 8.8056 14.1873 8.48527 13.9525 8.24797C13.7186 8.01305 13.5873 7.69503 13.5873 7.3635C13.5873 7.03199 13.7186 6.71397 13.9525 6.47904L16.0975 4.25047C16.3348 4.01571 16.6552 3.88403 16.9889 3.88403C17.3227 3.88403 17.6431 4.01571 17.8803 4.25047L18.4096 4.77975C19.0275 5.37874 19.4212 6.17149 19.5251 7.02575C19.629 7.87999 19.437 8.74403 18.9807 9.47368C16.5519 13.0795 13.4494 16.1821 9.84357 18.6109Z" stroke="black" stroke-width="1.5" stroke-linecap="round" stroke-linejoin="round"/>
<path d="M8.4096 9.10718H1.44531" stroke="black" stroke-width="1.5" stroke-linecap="round" stroke-linejoin="round"/>
<path d="M3.5346 11.1966L1.44531 9.10735L3.5346 7.01807" stroke="black" stroke-width="1.5" stroke-linecap="round" stroke-linejoin="round"/>
<path d="M8.4096 3.53589H1.44531" stroke="black" stroke-width="1.5" stroke-linecap="round" stroke-linejoin="round"/>
<path d="M6.32031 5.6251L8.4096 3.53582L6.32031 1.44653" stroke="black" stroke-width="1.5" stroke-linecap="round" stroke-linejoin="round"/>
</svg>
