<svg width="21" height="21" viewBox="0 0 21 21" fill="none" xmlns="http://www.w3.org/2000/svg">
<g clip-path="url(#clip0_146_398362)">
<path d="M12.5977 10.8691L15.2473 13.5188L12.5977 16.1686" stroke="black" stroke-width="1.5" stroke-linecap="round" stroke-linejoin="round"/>
<path d="M8.53101 7.48315H18.2114C18.2114 7.48315 19.4064 7.48315 19.4064 8.67823V18.3586C19.4064 18.3586 19.4064 19.5537 18.2114 19.5537H8.53101C8.53101 19.5537 7.33594 19.5537 7.33594 18.3586V8.67823C7.33594 8.67823 7.33594 7.48315 8.53101 7.48315Z" stroke="black" stroke-width="1.5" stroke-linecap="round" stroke-linejoin="round"/>
<path d="M13.668 6.58399V2.64114C13.668 1.98138 13.1332 1.44653 12.4734 1.44653H2.79227C2.1325 1.44653 1.59766 1.98138 1.59766 2.64114V12.3223C1.59766 12.982 2.1325 13.5169 2.79227 13.5169H15.1161" stroke="black" stroke-width="1.5" stroke-linecap="round" stroke-linejoin="round"/>
</g>
<defs>
<clipPath id="clip0_146_398362">
<rect width="21" height="21" fill="white"/>
</clipPath>
</defs>
</svg>
