<svg width="20" height="20" viewBox="0 0 20 20" fill="none" xmlns="http://www.w3.org/2000/svg">
<g id="freehand-tool-11" clip-path="url(#clip0_47_149344)">
<g id="freehand-tool">
<path id="Vector 1181" d="M2.27619 1.41016C3.28998 2.77965 4.88004 4.33375 3.87658 7.34415C2.75693 10.7031 -0.59765 13.7443 3.10406 16.3453" stroke="black" stroke-width="1.5" stroke-linecap="round" stroke-linejoin="round"/>
<path id="Vector 2523" d="M6.74191 9.92797L5.51612 17.6912C5.44616 18.1345 5.82869 18.5169 6.2718 18.447L14.0351 17.2212C14.6232 17.1283 15.0766 16.6537 15.1424 16.0618L15.5393 12.4898L11.4733 8.42383L7.90124 8.82072C7.30948 8.88647 6.83477 9.33986 6.74191 9.92797Z" stroke="black" stroke-width="1.5" stroke-linecap="round" stroke-linejoin="round"/>
<path id="Vector 2524" d="M11.4727 8.42445L13.5056 5.375" stroke="black" stroke-width="1.5" stroke-linecap="round" stroke-linejoin="round"/>
<path id="Vector 2525" d="M15.5391 12.49L18.5885 10.457" stroke="black" stroke-width="1.5" stroke-linecap="round" stroke-linejoin="round"/>
<path id="Vector 2526" d="M5.88281 18.0815L9.94876 14.0156" stroke="black" stroke-width="1.5" stroke-linecap="round" stroke-linejoin="round"/>
</g>
</g>
<defs>
<clipPath id="clip0_47_149344">
<rect width="20" height="20" fill="white"/>
</clipPath>
</defs>
</svg>
