<svg width="20" height="20" viewBox="0 0 20 20" fill="none" xmlns="http://www.w3.org/2000/svg">
<g id="gif-format-9">
<g id="gif-format">
<path id="rectangle 629" d="M18.8789 6.76692V12.6828C18.8789 12.6828 18.8789 15.4414 16.1203 15.4414L3.87891 15.4414C3.87891 15.4414 1.12029 15.4414 1.12029 12.6828V6.76692C1.12029 6.76692 1.12029 4.0083 3.87891 4.0083L16.1203 4.0083C16.1203 4.0083 18.8789 4.0083 18.8789 6.76692Z" stroke="black" stroke-width="2.06897" stroke-linecap="round" stroke-linejoin="round"/>
<path id="vector 1" d="M8.62109 7.30371H11.0422M11.0422 12.1458H8.62109" stroke="black" stroke-width="2.06897" stroke-linecap="round" stroke-linejoin="round"/>
<path id="vector 2" d="M9.83203 7.30371V12.1458" stroke="black" stroke-width="2.06897" stroke-linecap="round" stroke-linejoin="round"/>
<path id="vector 2_2" d="M5.52926 10.1283H6.7398V10.9353C6.7398 11.6039 6.19783 12.1458 5.52926 12.1458H4.72224C4.05369 12.1458 3.51172 11.6039 3.51172 10.9353V8.51424C3.51172 7.84568 4.05369 7.30371 4.72224 7.30371H5.52926C6.05634 7.30371 6.50474 7.64057 6.67092 8.11073" stroke="black" stroke-width="2.06897" stroke-linecap="round" stroke-linejoin="round"/>
<path id="vector 2_3" d="M13.2891 12.1458V7.30371H16.5172" stroke="black" stroke-width="2.06897" stroke-linecap="round" stroke-linejoin="round"/>
<path id="vector 3" d="M13.2891 9.52344H16.1136" stroke="black" stroke-width="2.06897" stroke-linecap="round" stroke-linejoin="round"/>
</g>
</g>
</svg>
