<svg width="20" height="20" viewBox="0 0 20 20" fill="none" xmlns="http://www.w3.org/2000/svg">
<g id="glasses-2">
<g id="glasses--vision-sunglasses-protection-spectacles-correction-sun-eye-glasses">
<path id="Vector" d="M8.0173 12.6431H1.41016V16.6074C1.41016 16.9578 1.54938 17.294 1.79719 17.5417C2.04501 17.7895 2.38112 17.9288 2.73158 17.9288H6.69587C7.04634 17.9288 7.38245 17.7895 7.63027 17.5417C7.87807 17.294 8.0173 16.9578 8.0173 16.6074V12.6431Z" stroke="black" stroke-width="1.5" stroke-linecap="round" stroke-linejoin="round"/>
<path id="Vector_2" d="M18.5876 12.6431H11.9805V16.6074C11.9805 16.9578 12.1197 17.294 12.3675 17.5417C12.6153 17.7895 12.9514 17.9288 13.3019 17.9288H17.2662C17.6166 17.9288 17.9528 17.7895 18.2006 17.5417C18.4483 17.294 18.5876 16.9578 18.5876 16.6074V12.6431Z" stroke="black" stroke-width="1.5" stroke-linecap="round" stroke-linejoin="round"/>
<path id="Vector_3" d="M8.01562 12.6431H11.9799" stroke="black" stroke-width="1.5" stroke-linecap="round" stroke-linejoin="round"/>
<path id="Vector_4" d="M18.5893 12.643V4.71439C18.5893 4.01346 18.3109 3.34124 17.8152 2.84561C17.3195 2.34997 16.6473 2.07153 15.9464 2.07153H14.625" stroke="black" stroke-width="1.5" stroke-linecap="round" stroke-linejoin="round"/>
<path id="Vector_5" d="M1.41016 12.643V4.71439C1.41016 4.01346 1.6886 3.34124 2.18424 2.84561C2.67986 2.34997 3.35209 2.07153 4.05301 2.07153H5.37444" stroke="black" stroke-width="1.5" stroke-linecap="round" stroke-linejoin="round"/>
</g>
</g>
</svg>
