<svg width="21" height="21" viewBox="0 0 21 21" fill="none" xmlns="http://www.w3.org/2000/svg">
<g clip-path="url(#clip0_146_399326)">
<path d="M11.8912 11.1964C13.4297 11.1964 14.6769 9.94922 14.6769 8.41071C14.6769 6.87221 13.4297 5.625 11.8912 5.625C10.3527 5.625 9.10547 6.87221 9.10547 8.41071C9.10547 9.94922 10.3527 11.1964 11.8912 11.1964Z" stroke="black" stroke-width="1.5" stroke-linecap="round" stroke-linejoin="round"/>
<path d="M5.625 19.5535C5.625 17.8911 6.28537 16.2969 7.46081 15.1214C8.63626 13.946 10.2305 13.2856 11.8929 13.2856C13.5552 13.2856 15.1495 13.946 16.3249 15.1214C17.5004 16.2969 18.1607 17.8911 18.1607 19.5535H5.625Z" stroke="black" stroke-width="1.5" stroke-linecap="round" stroke-linejoin="round"/>
<path d="M16.7656 4.23213L19.5513 1.44641" stroke="black" stroke-width="1.5" stroke-linecap="round" stroke-linejoin="round"/>
<path d="M15.375 1.44641H19.5536V5.62498" stroke="black" stroke-width="1.5" stroke-linecap="round" stroke-linejoin="round"/>
<path d="M1.44531 11.1964L4.23103 8.41064L6.19496 10.3746" stroke="black" stroke-width="1.5" stroke-linecap="round" stroke-linejoin="round"/>
</g>
<defs>
<clipPath id="clip0_146_399326">
<rect width="21" height="21" fill="white"/>
</clipPath>
</defs>
</svg>
