<svg width="21" height="21" viewBox="0 0 21 21" fill="none" xmlns="http://www.w3.org/2000/svg">
<g clip-path="url(#clip0_146_399375)">
<path d="M1.64453 1.64539V19.3547H19.3538" stroke="black" stroke-width="1.5" stroke-linecap="round" stroke-linejoin="round"/>
<path d="M7.12978 6.11877C8.4959 6.11877 9.60333 7.22622 9.60333 8.59232C9.60333 9.95842 8.4959 11.0659 7.12978 11.0659C5.76368 11.0659 4.65625 9.95842 4.65625 8.59232C4.65625 7.22622 5.76368 6.11877 7.12978 6.11877Z" stroke="black" stroke-width="1.5" stroke-linecap="round" stroke-linejoin="round"/>
<path d="M16.8799 1.98376C18.2458 1.98376 19.3533 3.09121 19.3533 4.45731C19.3533 5.82341 18.2458 6.93086 16.8799 6.93086C15.5137 6.93086 14.4062 5.82341 14.4062 4.45731C14.4062 3.09121 15.5137 1.98376 16.8799 1.98376Z" stroke="black" stroke-width="1.5" stroke-linecap="round" stroke-linejoin="round"/>
<path d="M13.4423 11.0659C14.8084 11.0659 15.9159 12.1734 15.9159 13.5395C15.9159 14.9055 14.8084 16.013 13.4423 16.013C12.0762 16.013 10.9688 14.9055 10.9688 13.5395C10.9688 12.1734 12.0762 11.0659 13.4423 11.0659Z" stroke="black" stroke-width="1.5" stroke-linecap="round" stroke-linejoin="round"/>
<path d="M1.64453 13.8762L5.17428 10.1068" stroke="black" stroke-width="1.5" stroke-linecap="round" stroke-linejoin="round"/>
<path d="M9.28906 9.82532L11.5525 11.9364" stroke="black" stroke-width="1.5" stroke-linecap="round" stroke-linejoin="round"/>
<path d="M14.5312 11.3053L16.1635 6.82202" stroke="black" stroke-width="1.5" stroke-linecap="round" stroke-linejoin="round"/>
</g>
<defs>
<clipPath id="clip0_146_399375">
<rect width="21" height="21" fill="white"/>
</clipPath>
</defs>
</svg>
