<svg width="20" height="20" viewBox="0 0 20 20" fill="none" xmlns="http://www.w3.org/2000/svg">
<g id="graphic-template-website-ui-10">
<g id="graphic-template-website-ui">
<path id="vector" d="M16.1148 1.41113H3.88522C3.27119 1.41113 2.77344 2.00276 2.77344 2.73256V17.2683C2.77344 17.9981 3.27119 18.5897 3.88522 18.5897H16.1148C16.7288 18.5897 17.2266 17.9981 17.2266 17.2683V2.73256C17.2266 2.00276 16.7288 1.41113 16.1148 1.41113Z" stroke="black" stroke-width="1.5" stroke-linecap="round" stroke-linejoin="round"/>
<path id="vector 2599" d="M2.77344 10H17.2266" stroke="black" stroke-width="1.5" stroke-linecap="round" stroke-linejoin="round"/>
<path id="vector 2600" d="M5.82812 4.40234H9.99888" stroke="black" stroke-width="1.5" stroke-linecap="round" stroke-linejoin="round"/>
<path id="vector 2601" d="M5.82812 7.04492H14.1696" stroke="black" stroke-width="1.5" stroke-linecap="round" stroke-linejoin="round"/>
<path id="vector_2" d="M5.79688 18.5897L11.8624 12.9312C11.967 12.8444 12.0988 12.7969 12.2349 12.7969C12.371 12.7969 12.5029 12.8444 12.6075 12.9312L17.2249 16.2717" stroke="black" stroke-width="1.5" stroke-linecap="round" stroke-linejoin="round"/>
<path id="vector_3" d="M6.38655 14.4576C7.03582 14.4576 7.56216 13.9313 7.56216 13.2821C7.56216 12.6328 7.03582 12.1064 6.38655 12.1064C5.73728 12.1064 5.21094 12.6328 5.21094 13.2821C5.21094 13.9313 5.73728 14.4576 6.38655 14.4576Z" stroke="black" stroke-width="1.5" stroke-linecap="round" stroke-linejoin="round"/>
</g>
</g>
</svg>
