<svg width="21" height="21" viewBox="0 0 21 21" fill="none" xmlns="http://www.w3.org/2000/svg">
<path d="M2.47656 1.44641L18.4944 8.73105" stroke="black" stroke-width="1.5" stroke-linecap="round" stroke-linejoin="round"/>
<path d="M15.5 9.85932L18.4946 8.73111L17.3804 5.72253" stroke="black" stroke-width="1.5" stroke-linecap="round" stroke-linejoin="round"/>
<path d="M2.4894 9.10718H4.57868C4.76339 9.10718 4.94053 9.18055 5.07113 9.31116C5.20174 9.44176 5.27511 9.6189 5.27511 9.80361V19.5536H1.79297V9.80361C1.79297 9.6189 1.86634 9.44176 1.99695 9.31116C2.12755 9.18055 2.30469 9.10718 2.4894 9.10718Z" stroke="black" stroke-width="1.5" stroke-linecap="round" stroke-linejoin="round"/>
<path d="M9.45424 11.1964H11.5435C11.7282 11.1964 11.9054 11.2698 12.036 11.4004C12.1666 11.531 12.24 11.7081 12.24 11.8928V19.5536H8.75781V11.8928C8.75781 11.7081 8.83119 11.531 8.9618 11.4004C9.09239 11.2698 9.26953 11.1964 9.45424 11.1964Z" stroke="black" stroke-width="1.5" stroke-linecap="round" stroke-linejoin="round"/>
<path d="M16.4191 13.2856H18.5084C18.6931 13.2856 18.8702 13.359 19.0009 13.4896C19.1314 13.6202 19.2048 13.7974 19.2048 13.9821V19.5535H15.7227V13.9821C15.7227 13.7974 15.7961 13.6202 15.9266 13.4896C16.0572 13.359 16.2344 13.2856 16.4191 13.2856Z" stroke="black" stroke-width="1.5" stroke-linecap="round" stroke-linejoin="round"/>
</svg>
