<svg width="20" height="20" viewBox="0 0 20 20" fill="none" xmlns="http://www.w3.org/2000/svg">
<g id="grid-dots-4" clip-path="url(#clip0_47_141128)">
<g id="grid-dots--grid-layout-layouts-module-artboard-note-dots-dotted">
<g id="Group 2626">
<path id="Vector" d="M5.76004 6.09126C5.57759 6.09126 5.42969 5.94335 5.42969 5.7609C5.42969 5.57845 5.57759 5.43054 5.76004 5.43054" stroke="black" stroke-width="1.5" stroke-linecap="round" stroke-linejoin="round"/>
<path id="Vector_2" d="M5.76172 6.09126C5.94417 6.09126 6.09208 5.94335 6.09208 5.7609C6.09208 5.57845 5.94417 5.43054 5.76172 5.43054" stroke="black" stroke-width="1.5" stroke-linecap="round" stroke-linejoin="round"/>
</g>
<g id="Group 2627">
<path id="Vector_3" d="M9.99833 6.09126C9.81588 6.09126 9.66797 5.94335 9.66797 5.7609C9.66797 5.57845 9.81588 5.43054 9.99833 5.43054" stroke="black" stroke-width="1.5" stroke-linecap="round" stroke-linejoin="round"/>
<path id="Vector_4" d="M10 6.09126C10.1824 6.09126 10.3304 5.94335 10.3304 5.7609C10.3304 5.57845 10.1824 5.43054 10 5.43054" stroke="black" stroke-width="1.5" stroke-linecap="round" stroke-linejoin="round"/>
</g>
<g id="Group 2628">
<path id="Vector_5" d="M14.2405 6.09126C14.058 6.09126 13.9102 5.94335 13.9102 5.7609C13.9102 5.57845 14.058 5.43054 14.2405 5.43054" stroke="black" stroke-width="1.5" stroke-linecap="round" stroke-linejoin="round"/>
<path id="Vector_6" d="M14.2422 6.09126C14.4247 6.09126 14.5725 5.94335 14.5725 5.7609C14.5725 5.57845 14.4247 5.43054 14.2422 5.43054" stroke="black" stroke-width="1.5" stroke-linecap="round" stroke-linejoin="round"/>
</g>
<g id="Group 2629">
<path id="Vector_7" d="M5.76004 10.3304C5.57759 10.3304 5.42969 10.1825 5.42969 10C5.42969 9.81759 5.57759 9.66968 5.76004 9.66968" stroke="black" stroke-width="1.5" stroke-linecap="round" stroke-linejoin="round"/>
<path id="Vector_8" d="M5.76172 10.3304C5.94417 10.3304 6.09208 10.1825 6.09208 10C6.09208 9.81759 5.94417 9.66968 5.76172 9.66968" stroke="black" stroke-width="1.5" stroke-linecap="round" stroke-linejoin="round"/>
</g>
<g id="Group 2632">
<path id="Vector_9" d="M5.76004 14.5695C5.57759 14.5695 5.42969 14.4216 5.42969 14.2392C5.42969 14.0567 5.57759 13.9088 5.76004 13.9088" stroke="black" stroke-width="1.5" stroke-linecap="round" stroke-linejoin="round"/>
<path id="Vector_10" d="M5.76172 14.5695C5.94417 14.5695 6.09208 14.4216 6.09208 14.2392C6.09208 14.0567 5.94417 13.9088 5.76172 13.9088" stroke="black" stroke-width="1.5" stroke-linecap="round" stroke-linejoin="round"/>
</g>
<g id="Group 2630">
<path id="Vector_11" d="M9.99833 10.3304C9.81588 10.3304 9.66797 10.1825 9.66797 10C9.66797 9.81759 9.81588 9.66968 9.99833 9.66968" stroke="black" stroke-width="1.5" stroke-linecap="round" stroke-linejoin="round"/>
<path id="Vector_12" d="M10 10.3304C10.1824 10.3304 10.3304 10.1825 10.3304 10C10.3304 9.81759 10.1824 9.66968 10 9.66968" stroke="black" stroke-width="1.5" stroke-linecap="round" stroke-linejoin="round"/>
</g>
<g id="Group 2633">
<path id="Vector_13" d="M9.99833 14.5695C9.81588 14.5695 9.66797 14.4216 9.66797 14.2392C9.66797 14.0567 9.81588 13.9088 9.99833 13.9088" stroke="black" stroke-width="1.5" stroke-linecap="round" stroke-linejoin="round"/>
<path id="Vector_14" d="M10 14.5695C10.1824 14.5695 10.3304 14.4216 10.3304 14.2392C10.3304 14.0567 10.1824 13.9088 10 13.9088" stroke="black" stroke-width="1.5" stroke-linecap="round" stroke-linejoin="round"/>
</g>
<g id="Group 2631">
<path id="Vector_15" d="M14.2405 10.3304C14.058 10.3304 13.9102 10.1825 13.9102 10C13.9102 9.81759 14.058 9.66968 14.2405 9.66968" stroke="black" stroke-width="1.5" stroke-linecap="round" stroke-linejoin="round"/>
<path id="Vector_16" d="M14.2422 10.3304C14.4247 10.3304 14.5725 10.1825 14.5725 10C14.5725 9.81759 14.4247 9.66968 14.2422 9.66968" stroke="black" stroke-width="1.5" stroke-linecap="round" stroke-linejoin="round"/>
</g>
<g id="Group 2634">
<path id="Vector_17" d="M14.2405 14.5695C14.058 14.5695 13.9102 14.4216 13.9102 14.2392C13.9102 14.0567 14.058 13.9088 14.2405 13.9088" stroke="black" stroke-width="1.5" stroke-linecap="round" stroke-linejoin="round"/>
<path id="Vector_18" d="M14.2422 14.5695C14.4247 14.5695 14.5725 14.4216 14.5725 14.2392C14.5725 14.0567 14.4247 13.9088 14.2422 13.9088" stroke="black" stroke-width="1.5" stroke-linecap="round" stroke-linejoin="round"/>
</g>
<path id="Vector 1945" d="M1.41016 17.2679V2.7322C1.41016 2.00239 2.00178 1.41077 2.73158 1.41077H17.2673C17.9971 1.41077 18.5887 2.00239 18.5887 2.7322V17.2679C18.5887 17.9977 17.9971 18.5893 17.2673 18.5893H2.73158C2.00178 18.5893 1.41016 17.9977 1.41016 17.2679Z" stroke="black" stroke-width="1.5" stroke-linecap="round" stroke-linejoin="round"/>
</g>
</g>
<defs>
<clipPath id="clip0_47_141128">
<rect width="20" height="20" fill="white"/>
</clipPath>
</defs>
</svg>
