<svg width="20" height="20" viewBox="0 0 20 20" fill="none" xmlns="http://www.w3.org/2000/svg">
<g id="half-star-1-10">
<g id="half-star-1--reward-rating-rate-social-star-media-favorite-like-stars-half">
<path id="Vector" d="M10.0231 1.41016C9.88592 1.41096 9.7519 1.45127 9.63707 1.52626C9.52223 1.60126 9.43144 1.70776 9.37557 1.83301L7.2745 6.27301C7.22742 6.38239 7.15273 6.47765 7.05776 6.54946C6.96277 6.62126 6.85077 6.66717 6.73271 6.68266L2.05485 7.35659C1.91269 7.37946 1.77985 7.44191 1.67155 7.53679C1.56324 7.63167 1.48385 7.75514 1.44248 7.89306C1.40111 8.03096 1.39942 8.17775 1.43761 8.31658C1.4758 8.45541 1.55233 8.58066 1.65842 8.67801L5.04128 12.1534C5.12599 12.2391 5.18928 12.3436 5.22602 12.4584C5.26277 12.5732 5.2719 12.6951 5.25271 12.8141L4.407 17.7034C4.38296 17.8383 4.39684 17.9772 4.44706 18.1046C4.4973 18.2319 4.58193 18.3429 4.69151 18.4251C4.8011 18.5073 4.93135 18.5575 5.06776 18.5701C5.20418 18.5826 5.34139 18.557 5.46414 18.4962L9.69271 16.1969C9.79857 16.14 9.91615 16.1084 10.0363 16.1044L10.0231 1.41016Z" stroke="black" stroke-width="1.5" stroke-linecap="round" stroke-linejoin="round"/>
</g>
</g>
</svg>
