<svg width="20" height="20" viewBox="0 0 20 20" fill="none" xmlns="http://www.w3.org/2000/svg">
<g id="hamburger-menu-2-45">
<g id="hamburger-menu-2--button-parallel-horizontal-lines-menu-navigation-two-thick">
<path id="Vector" d="M15.9448 13.2783H4.0519C3.3221 13.2783 2.73047 13.8654 2.73047 14.5896V17.2121C2.73047 17.9362 3.3221 18.5234 4.0519 18.5234H15.9448C16.6746 18.5234 17.2662 17.9362 17.2662 17.2121V14.5896C17.2662 13.8654 16.6746 13.2783 15.9448 13.2783Z" stroke="black" stroke-width="1.5" stroke-linecap="round" stroke-linejoin="round"/>
<path id="Vector_2" d="M15.9448 1.47656H4.0519C3.3221 1.47656 2.73047 2.06363 2.73047 2.78782V5.41031C2.73047 6.1345 3.3221 6.72157 4.0519 6.72157H15.9448C16.6746 6.72157 17.2662 6.1345 17.2662 5.41031V2.78782C17.2662 2.06363 16.6746 1.47656 15.9448 1.47656Z" stroke="black" stroke-width="1.5" stroke-linecap="round" stroke-linejoin="round"/>
</g>
</g>
</svg>
