<svg width="21" height="21" viewBox="0 0 21 21" fill="none" xmlns="http://www.w3.org/2000/svg">
<path d="M16.7684 1.44641H4.2327C3.46345 1.44641 2.83984 2.07001 2.83984 2.83927V18.1607C2.83984 18.93 3.46345 19.5536 4.2327 19.5536H16.7684C17.5377 19.5536 18.1613 18.93 18.1613 18.1607V2.83927C18.1613 2.07001 17.5377 1.44641 16.7684 1.44641Z" stroke="black" stroke-width="1.5" stroke-linecap="round" stroke-linejoin="round"/>
<path d="M2.83984 15.375H18.1613" stroke="black" stroke-width="1.5" stroke-linecap="round" stroke-linejoin="round"/>
<path d="M6.32031 6.32141C7.13526 5.16936 8.70132 3.8274 9.80246 4.92854C11.1953 6.32141 6.73143 10.1421 8.4096 11.1964C10.2432 12.3483 12.9553 6.56617 14.6775 7.71425C16.3996 8.86233 12.5882 11.1964 14.6775 12.5893" stroke="black" stroke-width="1.5" stroke-linecap="round" stroke-linejoin="round"/>
</svg>
