<svg width="20" height="20" viewBox="0 0 20 20" fill="none" xmlns="http://www.w3.org/2000/svg">
<g id="handwritten-font-24">
<g id="handwritten-font">
<path id="Vector 1133" d="M2.48047 18.5897C2.77512 14.6183 3.2044 10.4091 4.40366 6.62903C4.65447 5.83847 4.96793 5.08887 5.30683 4.34259C5.52556 3.86097 5.79595 3.34819 6.2909 3.19428C6.71126 3.06357 7.03312 3.25959 7.25249 3.6719C7.77391 4.65191 8.04761 5.87916 8.33092 6.96438C8.58008 7.91879 8.80578 8.87977 9.06784 9.83006C9.21126 10.3501 9.45431 11.3766 10.0789 11.4103C10.5595 11.4361 10.9456 10.5811 11.1348 10.2061C11.819 8.85056 12.3235 7.38658 12.9906 6.01931C13.5884 4.79415 14.2896 3.61524 15.0981 2.55408C15.2584 2.34361 15.9505 1.2311 16.3293 1.43625C16.7396 1.65862 16.9244 2.43513 17.0257 2.87418C17.3131 4.11968 17.4212 5.46016 17.4751 6.74081C17.5681 8.94949 17.4751 10.0131 17.4751 13.7426" stroke="black" stroke-width="1.5" stroke-linecap="round" stroke-linejoin="round"/>
</g>
</g>
</svg>
