<svg width="21" height="21" viewBox="0 0 21 21" fill="none" xmlns="http://www.w3.org/2000/svg">
<g clip-path="url(#clip0_146_401759)">
<path d="M11.8917 1.44641H2.83817C2.06892 1.44641 1.44531 2.07001 1.44531 2.83927V18.1607C1.44531 18.93 2.06892 19.5536 2.83817 19.5536H15.3739C16.1432 19.5536 16.7667 18.93 16.7667 18.1607V11.8928" stroke="black" stroke-width="1.5" stroke-linecap="round" stroke-linejoin="round"/>
<path d="M1.44531 15.375H16.7667" stroke="black" stroke-width="1.5" stroke-linecap="round" stroke-linejoin="round"/>
<path d="M5.625 4.92859H8.41071" stroke="black" stroke-width="1.5" stroke-linecap="round" stroke-linejoin="round"/>
<path d="M5.625 8.41064H7.01786" stroke="black" stroke-width="1.5" stroke-linecap="round" stroke-linejoin="round"/>
<path d="M13.2762 11.2045L9.09766 11.9566L9.79408 7.72235L15.6858 1.85842C15.8154 1.72787 15.9694 1.62425 16.1392 1.55353C16.3088 1.48282 16.4909 1.44641 16.6747 1.44641C16.8587 1.44641 17.0408 1.48282 17.2104 1.55353C17.3802 1.62425 17.5343 1.72787 17.6637 1.85842L19.1401 3.33485C19.2707 3.46433 19.3744 3.61838 19.445 3.78811C19.5158 3.95784 19.5521 4.1399 19.5521 4.32378C19.5521 4.50765 19.5158 4.68971 19.445 4.85943C19.3744 5.02916 19.2707 5.18322 19.1401 5.3127L13.2762 11.2045Z" stroke="black" stroke-width="1.5" stroke-linecap="round" stroke-linejoin="round"/>
</g>
<defs>
<clipPath id="clip0_146_401759">
<rect width="21" height="21" fill="white"/>
</clipPath>
</defs>
</svg>
