<svg width="21" height="21" viewBox="0 0 21 21" fill="none" xmlns="http://www.w3.org/2000/svg">
<path d="M4.37052 7.34691C3.57364 7.51881 2.86025 7.95983 2.3503 8.59585C1.84034 9.23185 1.56493 10.0241 1.57036 10.8393L1.5625 11.5393C1.56605 11.8532 1.69232 12.1532 1.91429 12.3752C2.13627 12.5972 2.4363 12.7235 2.75021 12.727L5.73915 12.7113C6.05121 12.7085 6.34975 12.5834 6.57042 12.3627C6.7911 12.142 6.91628 11.8435 6.91899 11.5314C6.92253 11.2175 7.04881 10.9175 7.27077 10.6955C7.49275 10.4735 7.7928 10.3473 8.1067 10.3437H12.8261C12.9824 10.3426 13.1373 10.3725 13.2819 10.4318C13.4265 10.4911 13.5579 10.5785 13.6685 10.689C13.779 10.7996 13.8664 10.9309 13.9257 11.0756C13.985 11.2202 14.0149 11.3751 14.0138 11.5314C14.0165 11.8435 14.1417 12.142 14.3623 12.3627C14.583 12.5834 14.8816 12.7085 15.1936 12.7113H18.1825C18.4965 12.7077 18.7965 12.5815 19.0185 12.3595C19.2404 12.1375 19.3667 11.8375 19.3702 11.5235L19.3624 10.8235C19.3678 10.0083 19.0925 9.21613 18.5824 8.58011C18.0725 7.9441 17.3591 7.50307 16.5622 7.33117C12.5344 6.55981 8.39633 6.56514 4.37052 7.34691Z" stroke="black" stroke-width="1.5" stroke-linecap="round" stroke-linejoin="round"/>
</svg>
