<svg width="20" height="20" viewBox="0 0 20 20" fill="none" xmlns="http://www.w3.org/2000/svg">
<g id="help-question-1-5" clip-path="url(#clip0_47_145043)">
<g id="help-question-1--circle-faq-frame-help-info-mark-more-query-question">
<path id="Vector" d="M9.99944 18.5892C14.7432 18.5892 18.5887 14.7437 18.5887 9.99993C18.5887 5.2562 14.7432 1.41064 9.99944 1.41064C5.25571 1.41064 1.41016 5.2562 1.41016 9.99993C1.41016 14.7437 5.25571 18.5892 9.99944 18.5892Z" stroke="black" stroke-width="1.5" stroke-linecap="round" stroke-linejoin="round"/>
<path id="Vector_2" d="M7.6875 7.687C7.6875 7.22963 7.82325 6.78254 8.07759 6.40226C8.33191 6.02197 8.69341 5.72557 9.11635 5.55055C9.53928 5.37551 10.0047 5.32972 10.4537 5.41894C10.9027 5.50818 11.3151 5.72842 11.6388 6.05183C11.9625 6.37524 12.1829 6.78728 12.2722 7.23586C12.3615 7.68444 12.3157 8.1494 12.1405 8.57195C11.9653 8.99451 11.6687 9.35567 11.288 9.60976C10.9074 9.86387 10.4599 9.99949 10.0021 9.99949V11.5411" stroke="black" stroke-width="1.5" stroke-linecap="round" stroke-linejoin="round"/>
<g id="Group 2567">
<path id="Vector_3" d="M9.99833 14.5699C9.81588 14.5699 9.66797 14.422 9.66797 14.2395C9.66797 14.057 9.81588 13.9092 9.99833 13.9092" stroke="black" stroke-width="1.5" stroke-linecap="round" stroke-linejoin="round"/>
<path id="Vector_4" d="M10 14.5699C10.1824 14.5699 10.3304 14.422 10.3304 14.2395C10.3304 14.057 10.1824 13.9092 10 13.9092" stroke="black" stroke-width="1.5" stroke-linecap="round" stroke-linejoin="round"/>
</g>
</g>
</g>
<defs>
<clipPath id="clip0_47_145043">
<rect width="20" height="20" fill="white"/>
</clipPath>
</defs>
</svg>
