<svg width="20" height="20" viewBox="0 0 20 20" fill="none" xmlns="http://www.w3.org/2000/svg">
<g id="help-chat-1-11" clip-path="url(#clip0_47_145029)">
<g id="help-chat-1--bubble-help-mark-message-query-question-speech-square">
<path id="Vector" d="M17.2673 1.41064H2.73158C2.38112 1.41064 2.04501 1.54987 1.79719 1.79768C1.54938 2.0455 1.41016 2.3816 1.41016 2.73207V13.9642C1.41016 14.3147 1.54938 14.6508 1.79719 14.8986C2.04501 15.1464 2.38112 15.2856 2.73158 15.2856H5.37444V18.5892L9.4973 15.2856H17.2673C17.6177 15.2856 17.9539 15.1464 18.2017 14.8986C18.4494 14.6508 18.5887 14.3147 18.5887 13.9642V2.73207C18.5887 2.3816 18.4494 2.0455 18.2017 1.79768C17.9539 1.54987 17.6177 1.41064 17.2673 1.41064Z" stroke="black" stroke-width="1.5" stroke-linecap="round" stroke-linejoin="round"/>
<path id="Vector_2" d="M8.01562 6.6965C8.01562 6.30447 8.13187 5.92125 8.34968 5.59529C8.56748 5.26932 8.87705 5.01526 9.23923 4.86524C9.60142 4.71522 9.99996 4.67596 10.3845 4.75244C10.769 4.82893 11.1221 5.01771 11.3994 5.29492C11.6766 5.57213 11.8653 5.9253 11.9418 6.30981C12.0183 6.69431 11.9791 7.09285 11.829 7.45504C11.679 7.81722 11.425 8.12679 11.099 8.34459C10.773 8.5624 10.3898 8.67864 9.99777 8.67864V9.33936" stroke="black" stroke-width="1.5" stroke-linecap="round" stroke-linejoin="round"/>
<g id="Group 2571">
<path id="Vector_3" d="M9.99833 12.6426C9.81588 12.6426 9.66797 12.4947 9.66797 12.3123C9.66797 12.1298 9.81588 11.9819 9.99833 11.9819" stroke="black" stroke-width="1.5" stroke-linecap="round" stroke-linejoin="round"/>
<path id="Vector_4" d="M10 12.6426C10.1824 12.6426 10.3304 12.4947 10.3304 12.3123C10.3304 12.1298 10.1824 11.9819 10 11.9819" stroke="black" stroke-width="1.5" stroke-linecap="round" stroke-linejoin="round"/>
</g>
</g>
</g>
<defs>
<clipPath id="clip0_47_145029">
<rect width="20" height="20" fill="white"/>
</clipPath>
</defs>
</svg>
