<svg width="20" height="20" viewBox="0 0 20 20" fill="none" xmlns="http://www.w3.org/2000/svg">
<g id="help-chat-2-10" clip-path="url(#clip0_47_145036)">
<g id="help-chat-2--bubble-help-mark-message-query-question-speech-circle">
<path id="Vector" d="M9.99727 1.47901C8.45598 1.47949 6.9437 1.89801 5.62148 2.69002C4.29925 3.48201 3.21662 4.61782 2.48887 5.97646C1.76112 7.3351 1.41552 8.8657 1.48887 10.4052C1.56222 11.9448 2.05179 13.4356 2.90542 14.7188L1.47656 18.5205L6.26126 17.6552C7.4134 18.2183 8.67777 18.514 9.9601 18.5203C11.2424 18.5267 12.5096 18.2435 13.6673 17.6919C14.8249 17.1404 15.8432 16.3346 16.6461 15.3346C17.449 14.3348 18.0159 13.1666 18.3045 11.9171C18.593 10.6677 18.5959 9.3692 18.3127 8.1185C18.0296 6.86779 17.4679 5.69713 16.6694 4.69375C15.8708 3.69038 14.8561 2.88018 13.7008 2.32356C12.5456 1.76694 11.2796 1.47825 9.99727 1.47901Z" stroke="black" stroke-width="1.5" stroke-linecap="round" stroke-linejoin="round"/>
<path id="Vector_2" d="M8.03125 8.0337C8.03125 7.6448 8.14657 7.26463 8.36264 6.94128C8.57869 6.61791 8.88579 6.36589 9.24509 6.21707C9.60438 6.06823 9.99974 6.02929 10.3812 6.10517C10.7626 6.18103 11.113 6.3683 11.388 6.64331C11.663 6.9183 11.8502 7.26866 11.9261 7.65009C12.002 8.03152 11.963 8.42688 11.8142 8.78618C11.6654 9.14547 11.4134 9.45257 11.09 9.66863C10.7666 9.88469 10.3865 10 9.99756 10V11.3109" stroke="black" stroke-width="1.5" stroke-linecap="round" stroke-linejoin="round"/>
<g id="Group 2575">
<path id="Vector_3" d="M9.99959 14.5881C9.81859 14.5881 9.67188 14.4413 9.67188 14.2604C9.67188 14.0793 9.81859 13.9326 9.99959 13.9326" stroke="black" stroke-width="1.5" stroke-linecap="round" stroke-linejoin="round"/>
<path id="Vector_4" d="M10 14.5881C10.181 14.5881 10.3277 14.4413 10.3277 14.2604C10.3277 14.0793 10.181 13.9326 10 13.9326" stroke="black" stroke-width="1.5" stroke-linecap="round" stroke-linejoin="round"/>
</g>
</g>
</g>
<defs>
<clipPath id="clip0_47_145036">
<rect width="20" height="20" fill="white"/>
</clipPath>
</defs>
</svg>
