<svg width="20" height="20" viewBox="0 0 20 20" fill="none" xmlns="http://www.w3.org/2000/svg">
<g id="hierarchy-11-4">
<g id="hierarchy-11--node-organization-links-structure-link-nodes-network-hierarchy">
<path id="Vector" d="M5.375 10V18.5893" stroke="black" stroke-width="1.5" stroke-linecap="round" stroke-linejoin="round"/>
<path id="Vector_2" d="M5.375 4.71422V1.41064" stroke="black" stroke-width="1.5" stroke-linecap="round" stroke-linejoin="round"/>
<path id="Vector_3" d="M8.01562 7.35693H11.9799C12.6808 7.35693 13.3531 7.63537 13.8487 8.13101C14.3443 8.62664 14.6228 9.29887 14.6228 9.99979V11.9819" stroke="black" stroke-width="1.5" stroke-linecap="round" stroke-linejoin="round"/>
<path id="Vector 2519" d="M15.9448 11.9819H13.3019C12.5721 11.9819 11.9805 12.5736 11.9805 13.3034V15.9462C11.9805 16.676 12.5721 17.2676 13.3019 17.2676H15.9448C16.6746 17.2676 17.2662 16.676 17.2662 15.9462V13.3034C17.2662 12.5736 16.6746 11.9819 15.9448 11.9819Z" stroke="black" stroke-width="1.5" stroke-linecap="round" stroke-linejoin="round"/>
<path id="Vector 2520" d="M6.69475 4.71436H4.0519C3.3221 4.71436 2.73047 5.30599 2.73047 6.03578V8.67864C2.73047 9.40844 3.3221 10.0001 4.0519 10.0001H6.69475C7.42455 10.0001 8.01618 9.40844 8.01618 8.67864V6.03578C8.01618 5.30599 7.42455 4.71436 6.69475 4.71436Z" stroke="black" stroke-width="1.5" stroke-linecap="round" stroke-linejoin="round"/>
</g>
</g>
</svg>
