<svg width="20" height="20" viewBox="0 0 20 20" fill="none" xmlns="http://www.w3.org/2000/svg">
<g id="hierarchy-3-12" clip-path="url(#clip0_47_145072)">
<g id="hierarchy-3--node-organization-links-structure-link-nodes-network-hierarchy">
<path id="Vector" d="M5.37444 13.9644H2.07087C1.70597 13.9644 1.41016 14.2602 1.41016 14.6251V17.9286C1.41016 18.2935 1.70597 18.5894 2.07087 18.5894H5.37444C5.73934 18.5894 6.03516 18.2935 6.03516 17.9286V14.6251C6.03516 14.2602 5.73934 13.9644 5.37444 13.9644Z" stroke="black" stroke-width="1.5" stroke-linecap="round" stroke-linejoin="round"/>
<path id="Vector_2" d="M17.9291 13.9644H14.6256C14.2607 13.9644 13.9648 14.2602 13.9648 14.6251V17.9286C13.9648 18.2935 14.2607 18.5894 14.6256 18.5894H17.9291C18.294 18.5894 18.5898 18.2935 18.5898 17.9286V14.6251C18.5898 14.2602 18.294 13.9644 17.9291 13.9644Z" stroke="black" stroke-width="1.5" stroke-linecap="round" stroke-linejoin="round"/>
<path id="Vector_3" d="M11.9805 1.41064H8.01618C7.65128 1.41064 7.35547 1.70646 7.35547 2.07136V6.03564C7.35547 6.40054 7.65128 6.69636 8.01618 6.69636H11.9805C12.3454 6.69636 12.6412 6.40054 12.6412 6.03564V2.07136C12.6412 1.70646 12.3454 1.41064 11.9805 1.41064Z" stroke="black" stroke-width="1.5" stroke-linecap="round" stroke-linejoin="round"/>
<path id="Vector_4" d="M6.03516 16.6069H13.9637" stroke="black" stroke-width="1.5" stroke-linecap="round" stroke-linejoin="round"/>
<path id="Vector_5" d="M7.47719 6.41895L4.05469 13.9642" stroke="black" stroke-width="1.5" stroke-linecap="round" stroke-linejoin="round"/>
<path id="Vector_6" d="M12.5234 6.41895L15.946 13.9642" stroke="black" stroke-width="1.5" stroke-linecap="round" stroke-linejoin="round"/>
</g>
</g>
<defs>
<clipPath id="clip0_47_145072">
<rect width="20" height="20" fill="white"/>
</clipPath>
</defs>
</svg>
