<svg width="20" height="20" viewBox="0 0 20 20" fill="none" xmlns="http://www.w3.org/2000/svg">
<g id="hierarchy-8-1" clip-path="url(#clip0_47_145109)">
<g id="hierarchy-8--node-organization-links-structure-link-nodes-network-hierarchy">
<path id="Vector" d="M15.9464 13.3037V6.69657C15.9464 5.99564 15.668 5.32342 15.1723 4.82779C14.6767 4.33215 14.0045 4.05371 13.3036 4.05371H10" stroke="black" stroke-width="1.5" stroke-linecap="round" stroke-linejoin="round"/>
<path id="Vector_2" d="M12.6429 1.41064L10 4.0535L12.6429 6.69636" stroke="black" stroke-width="1.5" stroke-linecap="round" stroke-linejoin="round"/>
<path id="Vector_3" d="M4.05469 6.69629V13.3034C4.05469 14.0043 4.33313 14.6765 4.82877 15.1722C5.3244 15.6679 5.99662 15.9463 6.69754 15.9463H10.0011" stroke="black" stroke-width="1.5" stroke-linecap="round" stroke-linejoin="round"/>
<path id="Vector_4" d="M7.35547 18.5894L9.99833 15.9466L7.35547 13.3037" stroke="black" stroke-width="1.5" stroke-linecap="round" stroke-linejoin="round"/>
<path id="Vector 2519" d="M17.269 13.3037H14.6261C13.8963 13.3037 13.3047 13.8953 13.3047 14.6251V17.268C13.3047 17.9978 13.8963 18.5894 14.6261 18.5894H17.269C17.9988 18.5894 18.5904 17.9978 18.5904 17.268V14.6251C18.5904 13.8953 17.9988 13.3037 17.269 13.3037Z" stroke="black" stroke-width="1.5" stroke-linecap="round" stroke-linejoin="round"/>
<path id="Vector 2520" d="M5.37444 1.41064H2.73158C2.00178 1.41064 1.41016 2.00227 1.41016 2.73207V5.37493C1.41016 6.10473 2.00178 6.69636 2.73158 6.69636H5.37444C6.10424 6.69636 6.69587 6.10473 6.69587 5.37493V2.73207C6.69587 2.00227 6.10424 1.41064 5.37444 1.41064Z" stroke="black" stroke-width="1.5" stroke-linecap="round" stroke-linejoin="round"/>
</g>
</g>
<defs>
<clipPath id="clip0_47_145109">
<rect width="20" height="20" fill="white"/>
</clipPath>
</defs>
</svg>
