<svg width="20" height="20" viewBox="0 0 20 20" fill="none" xmlns="http://www.w3.org/2000/svg">
<g id="hierarchy-2-10">
<g id="hierarchy-2--node-organization-links-structure-link-nodes-network-hierarchy">
<path id="Vector" d="M3.39062 13.9643V11.3214C3.39062 10.971 3.52985 10.6349 3.77766 10.387C4.02548 10.1392 4.36158 10 4.71205 10H15.2835C15.6339 10 15.9701 10.1392 16.2179 10.387C16.4656 10.6349 16.6049 10.971 16.6049 11.3214V13.9643" stroke="black" stroke-width="1.5" stroke-linecap="round" stroke-linejoin="round"/>
<path id="Vector_2" d="M10 6.03564V13.9642" stroke="black" stroke-width="1.5" stroke-linecap="round" stroke-linejoin="round"/>
<path id="Vector 2521" d="M8.01562 3.39272V4.71415C8.01562 5.44394 8.60726 6.03557 9.33705 6.03557H10.6585C11.3883 6.03557 11.9799 5.44394 11.9799 4.71415V3.39272C11.9799 2.66292 11.3883 2.07129 10.6585 2.07129H9.33705C8.60726 2.07129 8.01562 2.66292 8.01562 3.39272Z" stroke="black" stroke-width="1.5" stroke-linecap="round" stroke-linejoin="round"/>
<path id="Vector 2522" d="M8.01562 15.2858V16.6072C8.01562 17.337 8.60726 17.9286 9.33705 17.9286H10.6585C11.3883 17.9286 11.9799 17.337 11.9799 16.6072V15.2858C11.9799 14.556 11.3883 13.9644 10.6585 13.9644H9.33705C8.60726 13.9644 8.01562 14.556 8.01562 15.2858Z" stroke="black" stroke-width="1.5" stroke-linecap="round" stroke-linejoin="round"/>
<path id="Vector 2523" d="M1.41016 15.2858V16.6072C1.41016 17.337 2.00178 17.9286 2.73158 17.9286H4.05301C4.78281 17.9286 5.37444 17.337 5.37444 16.6072V15.2858C5.37444 14.556 4.78281 13.9644 4.05301 13.9644H2.73158C2.00178 13.9644 1.41016 14.556 1.41016 15.2858Z" stroke="black" stroke-width="1.5" stroke-linecap="round" stroke-linejoin="round"/>
<path id="Vector 2524" d="M14.625 15.2858V16.6072C14.625 17.337 15.2166 17.9286 15.9464 17.9286H17.2679C17.9977 17.9286 18.5893 17.337 18.5893 16.6072V15.2858C18.5893 14.556 17.9977 13.9644 17.2679 13.9644H15.9464C15.2166 13.9644 14.625 14.556 14.625 15.2858Z" stroke="black" stroke-width="1.5" stroke-linecap="round" stroke-linejoin="round"/>
</g>
</g>
</svg>
