<svg width="20" height="20" viewBox="0 0 20 20" fill="none" xmlns="http://www.w3.org/2000/svg">
<g id="hierarchy-12-17" clip-path="url(#clip0_47_145136)">
<g id="hierarchy-12--node-organization-links-structure-link-nodes-network-hierarchy">
<path id="Vector 186" d="M13.0352 8.01758L15.9258 11.9819" stroke="black" stroke-width="1.5" stroke-linecap="round" stroke-linejoin="round"/>
<path id="Vector 2258" d="M6.92299 8.01758L3.86719 11.9819" stroke="black" stroke-width="1.5" stroke-linecap="round" stroke-linejoin="round"/>
<path id="Vector 185" d="M8.01562 15.2856H11.9799" stroke="black" stroke-width="1.5" stroke-linecap="round" stroke-linejoin="round"/>
<path id="Vector 2259" d="M11.981 8.01779H8.01674C7.28694 8.01779 6.69531 7.42616 6.69531 6.69636V2.73207C6.69531 2.00227 7.28693 1.41064 8.01674 1.41064H11.981C12.7108 1.41064 13.3025 2.00227 13.3025 2.73207V6.69636C13.3025 7.42616 12.7108 8.01779 11.981 8.01779Z" stroke="black" stroke-width="1.5" stroke-linecap="round" stroke-linejoin="round"/>
<path id="Vector 2260" d="M6.69587 18.5891H2.73158C2.00178 18.5891 1.41016 17.9975 1.41016 17.2676V13.3034C1.41016 12.5736 2.00178 11.9819 2.73158 11.9819H6.69587C7.42567 11.9819 8.0173 12.5736 8.0173 13.3034V17.2676C8.0173 17.9975 7.42567 18.5891 6.69587 18.5891Z" stroke="black" stroke-width="1.5" stroke-linecap="round" stroke-linejoin="round"/>
<path id="Vector 2261" d="M17.2662 18.5891H13.3019C12.5721 18.5891 11.9805 17.9975 11.9805 17.2676V13.3034C11.9805 12.5736 12.5721 11.9819 13.3019 11.9819H17.2662C17.996 11.9819 18.5876 12.5736 18.5876 13.3034V17.2676C18.5876 17.9975 17.996 18.5891 17.2662 18.5891Z" stroke="black" stroke-width="1.5" stroke-linecap="round" stroke-linejoin="round"/>
</g>
</g>
<defs>
<clipPath id="clip0_47_145136">
<rect width="20" height="20" fill="white"/>
</clipPath>
</defs>
</svg>
