<svg width="20" height="20" viewBox="0 0 20 20" fill="none" xmlns="http://www.w3.org/2000/svg">
<g id="hierarchy-13-9" clip-path="url(#clip0_47_145144)">
<g id="hierarchy-13--node-organization-links-structure-link-nodes-network-hierarchy">
<path id="Vector 190" d="M5.41678 10.0356L4.5625 13.3034" stroke="black" stroke-width="1.5" stroke-linecap="round" stroke-linejoin="round"/>
<path id="Vector 191" d="M15.4279 6.69629L14.418 9.99986" stroke="black" stroke-width="1.5" stroke-linecap="round" stroke-linejoin="round"/>
<path id="Vector 192" d="M9.00781 9.01855L10.6596 10.6607" stroke="black" stroke-width="1.5" stroke-linecap="round" stroke-linejoin="round"/>
<path id="Vector 2259" d="M17.269 6.69636H14.6261C13.8963 6.69636 13.3047 6.10473 13.3047 5.37493V2.73207C13.3047 2.00227 13.8963 1.41064 14.6261 1.41064H17.269C17.9988 1.41064 18.5904 2.00227 18.5904 2.73207V5.37493C18.5904 6.10473 17.9988 6.69636 17.269 6.69636Z" stroke="black" stroke-width="1.5" stroke-linecap="round" stroke-linejoin="round"/>
<path id="Vector 2260" d="M14.6244 15.2857H11.9816C11.2518 15.2857 10.6602 14.6941 10.6602 13.9643V11.3214C10.6602 10.5916 11.2518 10 11.9816 10H14.6244C15.3543 10 15.9459 10.5916 15.9459 11.3214V13.9643C15.9459 14.6941 15.3543 15.2857 14.6244 15.2857Z" stroke="black" stroke-width="1.5" stroke-linecap="round" stroke-linejoin="round"/>
<path id="Vector 2261" d="M7.68694 10.0357H5.04408C4.31429 10.0357 3.72266 9.44408 3.72266 8.71429V6.07143C3.72266 5.34162 4.31429 4.75 5.04408 4.75H7.68694C8.41674 4.75 9.00837 5.34162 9.00837 6.07143V8.71429C9.00837 9.44408 8.41674 10.0357 7.68694 10.0357Z" stroke="black" stroke-width="1.5" stroke-linecap="round" stroke-linejoin="round"/>
<path id="Vector 2262" d="M5.37444 18.5894H2.73158C2.00178 18.5894 1.41016 17.9978 1.41016 17.268V14.6251C1.41016 13.8953 2.00178 13.3037 2.73158 13.3037H5.37444C6.10424 13.3037 6.69587 13.8953 6.69587 14.6251V17.268C6.69587 17.9978 6.10424 18.5894 5.37444 18.5894Z" stroke="black" stroke-width="1.5" stroke-linecap="round" stroke-linejoin="round"/>
</g>
</g>
<defs>
<clipPath id="clip0_47_145144">
<rect width="20" height="20" fill="white"/>
</clipPath>
</defs>
</svg>
