<svg width="20" height="20" viewBox="0 0 20 20" fill="none" xmlns="http://www.w3.org/2000/svg">
<g id="home-chimney-2-3" clip-path="url(#clip0_47_145243)">
<g id="home-chimney-2--home-chimney-house-roof-shelter">
<path id="Vector" d="M18.4802 9.38721C18.553 9.55556 18.59 9.73723 18.5887 9.92064V17.2678C18.5887 17.6182 18.4496 17.9544 18.2017 18.2022C17.9539 18.4499 17.6177 18.5892 17.2673 18.5892H2.73161C2.38116 18.5892 2.04504 18.4499 1.79722 18.2022C1.54941 17.9544 1.41019 17.6182 1.41019 17.2678V9.92064C1.40895 9.73723 1.4459 9.55556 1.5187 9.38721C1.5915 9.21886 1.69856 9.0675 1.83304 8.94279L9.99947 1.41064L18.1659 8.94279C18.3004 9.0675 18.4074 9.21886 18.4802 9.38721Z" stroke="black" stroke-width="1.5" stroke-linecap="round" stroke-linejoin="round"/>
<path id="Vector 2766" d="M18.5893 9.99979V2.73193H14.625V5.68451" stroke="black" stroke-width="1.5" stroke-linecap="round" stroke-linejoin="round"/>
<path id="Vector_2" d="M10 18.5894V13.3037" stroke="black" stroke-width="1.5" stroke-linecap="round" stroke-linejoin="round"/>
</g>
</g>
<defs>
<clipPath id="clip0_47_145243">
<rect width="20" height="20" fill="white"/>
</clipPath>
</defs>
</svg>
