<svg width="20" height="20" viewBox="0 0 20 20" fill="none" xmlns="http://www.w3.org/2000/svg">
<g id="horizontal-menu-square-24" clip-path="url(#clip0_47_147241)">
<g id="horizontal-menu-square--navigation-dots-three-square-button-horizontal-menu">
<path id="Vector" d="M17.2673 1.41113H2.73158C2.00178 1.41113 1.41016 2.00276 1.41016 2.73256V17.2683C1.41016 17.9981 2.00178 18.5897 2.73158 18.5897H17.2673C17.9971 18.5897 18.5887 17.9981 18.5887 17.2683V2.73256C18.5887 2.00276 17.9971 1.41113 17.2673 1.41113Z" stroke="black" stroke-width="1.5" stroke-linecap="round" stroke-linejoin="round"/>
<g id="Group 2606">
<path id="Ellipse 1111" d="M6.03348 10.3306C5.85103 10.3306 5.70312 10.1827 5.70312 10.0003C5.70312 9.81783 5.85103 9.66992 6.03348 9.66992" stroke="black" stroke-width="1.5" stroke-linecap="round" stroke-linejoin="round"/>
<path id="Ellipse 1112" d="M6.03516 10.3306C6.21761 10.3306 6.36551 10.1827 6.36551 10.0003C6.36551 9.81783 6.21761 9.66992 6.03516 9.66992" stroke="black" stroke-width="1.5" stroke-linecap="round" stroke-linejoin="round"/>
</g>
<g id="Group 2632">
<path id="Ellipse 1111_2" d="M9.99833 10.3306C9.81588 10.3306 9.66797 10.1827 9.66797 10.0003C9.66797 9.81783 9.81588 9.66992 9.99833 9.66992" stroke="black" stroke-width="1.5" stroke-linecap="round" stroke-linejoin="round"/>
<path id="Ellipse 1112_2" d="M10 10.3306C10.1824 10.3306 10.3304 10.1827 10.3304 10.0003C10.3304 9.81783 10.1824 9.66992 10 9.66992" stroke="black" stroke-width="1.5" stroke-linecap="round" stroke-linejoin="round"/>
</g>
<g id="Group 2633">
<path id="Ellipse 1111_3" d="M13.9632 10.3306C13.7807 10.3306 13.6328 10.1827 13.6328 10.0003C13.6328 9.81783 13.7807 9.66992 13.9632 9.66992" stroke="black" stroke-width="1.5" stroke-linecap="round" stroke-linejoin="round"/>
<path id="Ellipse 1112_3" d="M13.9648 10.3306C14.1473 10.3306 14.2952 10.1827 14.2952 10.0003C14.2952 9.81783 14.1473 9.66992 13.9648 9.66992" stroke="black" stroke-width="1.5" stroke-linecap="round" stroke-linejoin="round"/>
</g>
</g>
</g>
<defs>
<clipPath id="clip0_47_147241">
<rect width="20" height="20" fill="white"/>
</clipPath>
</defs>
</svg>
