<svg width="20" height="20" viewBox="0 0 20 20" fill="none" xmlns="http://www.w3.org/2000/svg">
<g id="horizontal-toggle-button-37" clip-path="url(#clip0_47_147286)">
<g id="horizontal-toggle-button--toggle-adjustment-adjust-button-off-on-horizontal-settings-controls">
<path id="Vector" d="M15.2852 11.6523H4.71373C2.88922 11.6523 1.41016 13.1314 1.41016 14.9559C1.41016 16.7804 2.88922 18.2595 4.71373 18.2595H15.2852C17.1097 18.2595 18.5887 16.7804 18.5887 14.9559C18.5887 13.1314 17.1097 11.6523 15.2852 11.6523Z" stroke="black" stroke-width="1.5" stroke-linecap="round" stroke-linejoin="round"/>
<path id="Vector_2" d="M5.37556 15.6164C5.74046 15.6164 6.03627 15.3205 6.03627 14.9556C6.03627 14.5908 5.74046 14.2949 5.37556 14.2949C5.01066 14.2949 4.71484 14.5908 4.71484 14.9556C4.71484 15.3205 5.01066 15.6164 5.37556 15.6164Z" stroke="black" stroke-width="1.5" stroke-linecap="round" stroke-linejoin="round"/>
<path id="Vector_3" d="M4.71373 8.34835H15.2852C17.1097 8.34835 18.5887 6.86929 18.5887 5.04478C18.5887 3.22027 17.1097 1.74121 15.2852 1.74121H4.71373C2.88922 1.74121 1.41016 3.22027 1.41016 5.04478C1.41016 6.86929 2.88922 8.34835 4.71373 8.34835Z" stroke="black" stroke-width="1.5" stroke-linecap="round" stroke-linejoin="round"/>
<path id="Vector_4" d="M14.6256 5.70522C14.9904 5.70522 15.2863 5.4094 15.2863 5.0445C15.2863 4.6796 14.9904 4.38379 14.6256 4.38379C14.2607 4.38379 13.9648 4.6796 13.9648 5.0445C13.9648 5.4094 14.2607 5.70522 14.6256 5.70522Z" stroke="black" stroke-width="1.5" stroke-linecap="round" stroke-linejoin="round"/>
</g>
</g>
<defs>
<clipPath id="clip0_47_147286">
<rect width="20" height="20" fill="white"/>
</clipPath>
</defs>
</svg>
