<svg width="20" height="20" viewBox="0 0 20 20" fill="none" xmlns="http://www.w3.org/2000/svg">
<g id="hourglass-20">
<g id="hourglass--hourglass-loading-measure-clock-time">
<path id="Vector" d="M14.625 5.37542C14.625 6.60205 14.1378 7.77844 13.2704 8.64578C12.403 9.51314 11.2266 10.0004 10 10.0004C8.77337 10.0004 7.59698 9.51314 6.72964 8.64578C5.86228 7.77844 5.375 6.60205 5.375 5.37542V1.41113H14.625V5.37542Z" stroke="black" stroke-width="1.5" stroke-linecap="round" stroke-linejoin="round"/>
<path id="Vector_2" d="M14.625 14.625C14.625 13.3984 14.1378 12.222 13.2704 11.3546C12.403 10.4873 11.2266 10 10 10C8.77337 10 7.59698 10.4873 6.72964 11.3546C5.86228 12.222 5.375 13.3984 5.375 14.625V18.5893H14.625V14.625Z" stroke="black" stroke-width="1.5" stroke-linecap="round" stroke-linejoin="round"/>
<path id="Vector_3" d="M2.73047 1.41113H17.2662" stroke="black" stroke-width="1.5" stroke-linecap="round" stroke-linejoin="round"/>
<path id="Vector_4" d="M2.73047 18.5898H17.2662" stroke="black" stroke-width="1.5" stroke-linecap="round" stroke-linejoin="round"/>
</g>
</g>
</svg>
