<svg width="20" height="20" viewBox="0 0 20 20" fill="none" xmlns="http://www.w3.org/2000/svg">
<g id="humidity-none-34" clip-path="url(#clip0_47_149569)">
<g id="humidity-none--humidity-drop-weather">
<path id="Vector" d="M18.5887 18.5887L1.41016 1.41016" stroke="black" stroke-width="1.5" stroke-linecap="round" stroke-linejoin="round"/>
<path id="Vector_2" d="M12.8289 17.8596C11.9228 18.3525 10.9037 18.6 9.87247 18.5775C8.84128 18.5552 7.83382 18.2638 6.94997 17.7322C6.06611 17.2004 5.33652 16.4471 4.83353 15.5467C4.33053 14.6461 4.07158 13.6299 4.08235 12.5985C4.1429 11.7148 4.36584 10.8498 4.73998 10.0469" stroke="black" stroke-width="1.5" stroke-linecap="round" stroke-linejoin="round"/>
<path id="Vector_3" d="M15.3118 15.3126C15.7243 14.4916 15.945 13.5783 15.945 12.6423C15.945 9.35194 9.99858 1.41016 9.99858 1.41016C9.99858 1.41016 8.18324 3.83465 6.55859 6.55946" stroke="black" stroke-width="1.5" stroke-linecap="round" stroke-linejoin="round"/>
</g>
</g>
<defs>
<clipPath id="clip0_47_149569">
<rect width="20" height="20" fill="white"/>
</clipPath>
</defs>
</svg>
