<svg width="21" height="21" viewBox="0 0 21 21" fill="none" xmlns="http://www.w3.org/2000/svg">
<path d="M13.635 6.66963C14.4043 6.66963 15.0279 6.04602 15.0279 5.27677C15.0279 4.50752 14.4043 3.88391 13.635 3.88391C12.8658 3.88391 12.2422 4.50752 12.2422 5.27677C12.2422 6.04602 12.8658 6.66963 13.635 6.66963Z" stroke="black" stroke-width="1.5" stroke-linecap="round" stroke-linejoin="round"/>
<path d="M4.92801 11.8928H16.0709C16.8401 11.8928 17.4637 11.2692 17.4637 10.5V2.83927C17.4637 2.07001 16.8401 1.44641 16.0709 1.44641H4.92801C4.15875 1.44641 3.53516 2.07001 3.53516 2.83927V10.5C3.53516 11.2692 4.15875 11.8928 4.92801 11.8928Z" stroke="black" stroke-width="1.5" stroke-linecap="round" stroke-linejoin="round"/>
<path d="M3.53516 15.7231H17.4637" stroke="black" stroke-width="1.5" stroke-linecap="round" stroke-linejoin="round"/>
<path d="M3.53516 19.5536H11.8923" stroke="black" stroke-width="1.5" stroke-linecap="round" stroke-linejoin="round"/>
<path d="M4.92801 11.8928H12.5505C12.204 8.75894 9.54712 6.32141 6.32087 6.32141C5.32021 6.32141 4.37432 6.5559 3.53516 6.97293V10.5C3.53516 11.2692 4.15875 11.8928 4.92801 11.8928Z" stroke="black" stroke-width="1.5" stroke-linecap="round" stroke-linejoin="round"/>
</svg>
