<svg width="21" height="21" viewBox="0 0 21 21" fill="none" xmlns="http://www.w3.org/2000/svg">
<g clip-path="url(#clip0_146_403284)">
<path d="M7.01674 13.9821H2.83817C2.46876 13.9821 2.11448 13.8354 1.85327 13.5742C1.59206 13.313 1.44531 12.9587 1.44531 12.5893V2.83927C1.44531 2.46985 1.59206 2.11558 1.85327 1.85437C2.11448 1.59316 2.46876 1.44641 2.83817 1.44641H16.7667C17.1361 1.44641 17.4905 1.59316 17.7516 1.85437C18.0128 2.11558 18.1596 2.46985 18.1596 2.83927V7.71427" stroke="black" stroke-width="1.5" stroke-linecap="round" stroke-linejoin="round"/>
<path d="M1.44531 3.20142L9.80246 9.10713L18.1596 3.20142" stroke="black" stroke-width="1.5" stroke-linecap="round" stroke-linejoin="round"/>
<path d="M14.6758 13.2732C16.3054 9.65853 19.5508 11.4728 19.5508 14.1804C19.5508 17.7392 14.6758 19.5536 14.6758 19.5536C14.6758 19.5536 9.80078 17.7392 9.80078 14.1106C9.80078 11.4031 13.0461 9.58875 14.6758 13.2732Z" stroke="black" stroke-width="1.5" stroke-linecap="round" stroke-linejoin="round"/>
</g>
<defs>
<clipPath id="clip0_146_403284">
<rect width="21" height="21" fill="white"/>
</clipPath>
</defs>
</svg>
