<svg width="21" height="21" viewBox="0 0 21 21" fill="none" xmlns="http://www.w3.org/2000/svg">
<g clip-path="url(#clip0_146_403263)">
<path d="M18.1596 1.44641H2.83817C2.06892 1.44641 1.44531 2.07001 1.44531 2.83927V18.1607C1.44531 18.93 2.06892 19.5536 2.83817 19.5536H18.1596C18.9289 19.5536 19.5525 18.93 19.5525 18.1607V2.83927C19.5525 2.07001 18.9289 1.44641 18.1596 1.44641Z" stroke="black" stroke-width="1.5" stroke-linecap="round" stroke-linejoin="round"/>
<path d="M1.44531 11.8928H6.32031C6.68973 11.8928 7.044 12.0396 7.30522 12.3008C7.56642 12.562 7.71317 12.9163 7.71317 13.2857C7.71317 14.0245 8.00666 14.733 8.52909 15.2555C9.05151 15.7779 9.76007 16.0714 10.4989 16.0714C11.2377 16.0714 11.9463 15.7779 12.4687 15.2555C12.9911 14.733 13.2846 14.0245 13.2846 13.2857C13.2846 12.9163 13.4314 12.562 13.6926 12.3008C13.9538 12.0396 14.308 11.8928 14.6775 11.8928H19.5525" stroke="black" stroke-width="1.5" stroke-linecap="round" stroke-linejoin="round"/>
</g>
<defs>
<clipPath id="clip0_146_403263">
<rect width="21" height="21" fill="white"/>
</clipPath>
</defs>
</svg>
