<svg width="21" height="21" viewBox="0 0 21 21" fill="none" xmlns="http://www.w3.org/2000/svg">
<path d="M18.8588 9.10718V18.1608C18.8588 18.5301 18.712 18.8845 18.4508 19.1456C18.1897 19.4068 17.8353 19.5536 17.466 19.5536H3.53739C3.16797 19.5536 2.8137 19.4068 2.55249 19.1456C2.29128 18.8845 2.14453 18.5301 2.14453 18.1608V9.10718" stroke="black" stroke-width="1.5" stroke-linecap="round" stroke-linejoin="round"/>
<path d="M2.14453 10.1658L10.5017 15.375L18.8588 10.1658" stroke="black" stroke-width="1.5" stroke-linecap="round" stroke-linejoin="round"/>
<path d="M4.23438 7.71427V2.83927C4.23438 2.46985 4.38113 2.11558 4.64233 1.85437C4.90355 1.59316 5.25782 1.44641 5.62723 1.44641H15.3772C15.7466 1.44641 16.101 1.59316 16.3621 1.85437C16.6233 2.11558 16.7701 2.46985 16.7701 2.83927V7.71427" stroke="black" stroke-width="1.5" stroke-linecap="round" stroke-linejoin="round"/>
<path d="M8.41406 5.625H12.5926" stroke="black" stroke-width="1.5" stroke-linecap="round" stroke-linejoin="round"/>
<path d="M8.41406 9.10718H12.5926" stroke="black" stroke-width="1.5" stroke-linecap="round" stroke-linejoin="round"/>
</svg>
