<svg width="21" height="21" viewBox="0 0 21 21" fill="none" xmlns="http://www.w3.org/2000/svg">
<g clip-path="url(#clip0_146_403279)">
<path d="M13.9111 10.9686C13.9711 10.8141 14.0763 10.6814 14.213 10.5879C14.3497 10.4943 14.5115 10.4442 14.6771 10.4442C14.8429 10.4442 15.0046 10.4943 15.1414 10.5879C15.278 10.6814 15.3833 10.8141 15.4432 10.9686L16.3346 13.2389H18.7164C18.8858 13.2414 19.0506 13.2945 19.1896 13.3912C19.3286 13.4881 19.4354 13.6242 19.4964 13.7821C19.5555 13.9379 19.5656 14.1078 19.5258 14.2695C19.4861 14.4312 19.3981 14.5769 19.2736 14.6875L17.1704 16.5678L18.0618 18.3507C18.1426 18.5072 18.1699 18.6858 18.1396 18.8594C18.1096 19.0328 18.0235 19.1917 17.8946 19.3118C17.7668 19.4334 17.6042 19.5122 17.4294 19.5371C17.2548 19.5621 17.0766 19.532 16.9196 19.451L14.6771 18.1835L12.4347 19.4093C12.2778 19.4902 12.0997 19.5203 11.9249 19.4953C11.7502 19.4704 11.5876 19.3916 11.4597 19.27C11.3309 19.1499 11.2449 18.991 11.2147 18.8176C11.1845 18.644 11.2118 18.4655 11.2926 18.3089L12.184 16.526L10.0808 14.6318C9.95627 14.5212 9.8683 14.3754 9.8285 14.2138C9.78871 14.0521 9.79896 13.8821 9.85791 13.7264C9.92741 13.5789 10.0379 13.4544 10.1762 13.368C10.3145 13.2815 10.4748 13.2367 10.6379 13.2389H13.0197L13.9111 10.9686Z" stroke="black" stroke-width="1.5" stroke-linecap="round" stroke-linejoin="round"/>
<path d="M6.32031 13.9821H2.83817C2.46876 13.9821 2.11448 13.8354 1.85327 13.5742C1.59206 13.313 1.44531 12.9587 1.44531 12.5893V2.83927C1.44531 2.46985 1.59206 2.11558 1.85327 1.85437C2.11448 1.59316 2.46876 1.44641 2.83817 1.44641H16.7667C17.1361 1.44641 17.4905 1.59316 17.7516 1.85437C18.0128 2.11558 18.1596 2.46985 18.1596 2.83927V8.4107" stroke="black" stroke-width="1.5" stroke-linecap="round" stroke-linejoin="round"/>
<path d="M1.44531 3.20142L9.80246 9.10713L18.1596 3.20142" stroke="black" stroke-width="1.5" stroke-linecap="round" stroke-linejoin="round"/>
</g>
<defs>
<clipPath id="clip0_146_403279">
<rect width="21" height="21" fill="white"/>
</clipPath>
</defs>
</svg>
