<svg width="21" height="21" viewBox="0 0 21 21" fill="none" xmlns="http://www.w3.org/2000/svg">
<g clip-path="url(#clip0_146_400328)">
<path d="M2.83594 16.4085C2.83594 16.82 2.917 17.2275 3.07449 17.6078C3.23199 17.988 3.46283 18.3335 3.75384 18.6245C4.04486 18.9155 4.39034 19.1463 4.77056 19.3038C5.15079 19.4613 5.55831 19.5424 5.96987 19.5424C6.38142 19.5424 6.78894 19.4613 7.16917 19.3038C7.54939 19.1463 7.89488 18.9155 8.18589 18.6245C8.4769 18.3335 8.70774 17.988 8.86524 17.6078C9.02273 17.2275 9.1038 16.82 9.1038 16.4085C9.1038 15.5773 8.77361 14.7802 8.18589 14.1924C7.59816 13.6047 6.80104 13.2745 5.96987 13.2745C5.1387 13.2745 4.34157 13.6047 3.75384 14.1924C3.16612 14.7802 2.83594 15.5773 2.83594 16.4085Z" stroke="black" stroke-width="1.5" stroke-linecap="round" stroke-linejoin="round"/>
<path d="M11.8945 16.4085C11.8945 17.2396 12.2247 18.0368 12.8124 18.6245C13.4002 19.2122 14.1973 19.5424 15.0285 19.5424C15.8596 19.5424 16.6568 19.2122 17.2445 18.6245C17.8322 18.0368 18.1624 17.2396 18.1624 16.4085C18.1624 15.5773 17.8322 14.7802 17.2445 14.1924C16.6568 13.6047 15.8596 13.2745 15.0285 13.2745C14.1973 13.2745 13.4002 13.6047 12.8124 14.1924C12.2247 14.7802 11.8945 15.5773 11.8945 16.4085Z" stroke="black" stroke-width="1.5" stroke-linecap="round" stroke-linejoin="round"/>
<path d="M9.10156 16.4081C9.10156 16.4081 9.10156 15.0144 10.4951 15.0144C11.8887 15.0144 11.8887 16.4081 11.8887 16.4081" stroke="black" stroke-width="1.5" stroke-linecap="round" stroke-linejoin="round"/>
<path d="M1.44531 9.80359H19.5525" stroke="black" stroke-width="1.5" stroke-linecap="round" stroke-linejoin="round"/>
<path d="M4.73418 2.61025C4.84613 1.93865 5.42721 1.44641 6.10808 1.44641H14.891C15.5718 1.44641 16.1529 1.93868 16.2649 2.61031L17.4636 9.80355H3.53516L4.73418 2.61025Z" stroke="black" stroke-width="1.5" stroke-linecap="round" stroke-linejoin="round"/>
</g>
<defs>
<clipPath id="clip0_146_400328">
<rect width="21" height="21" fill="white"/>
</clipPath>
</defs>
</svg>
