<svg width="21" height="21" viewBox="0 0 21 21" fill="none" xmlns="http://www.w3.org/2000/svg">
<path d="M9.84355 18.6106C9.1215 19.0756 8.26206 19.2794 7.40811 19.1881C6.55418 19.0969 5.75718 18.7161 5.14962 18.1092L4.62034 17.5799C4.38557 17.3426 4.25391 17.0222 4.25391 16.6885C4.25391 16.3546 4.38557 16.0343 4.62034 15.7971L6.84891 13.5824C7.08384 13.3485 7.40186 13.2171 7.73338 13.2171C8.06489 13.2171 8.38291 13.3485 8.61784 13.5824C8.85514 13.8171 9.17547 13.9488 9.50927 13.9488C9.84307 13.9488 10.1634 13.8171 10.4007 13.5824L13.9525 10.0306C14.1872 9.79329 14.3189 9.47296 14.3189 9.13915C14.3189 8.80535 14.1872 8.48502 13.9525 8.24772C13.7186 8.0128 13.5873 7.69479 13.5873 7.36326C13.5873 7.03174 13.7186 6.71373 13.9525 6.47879L16.0976 4.25022C16.3348 4.01547 16.6551 3.88379 16.989 3.88379C17.3227 3.88379 17.6431 4.01547 17.8804 4.25022L18.4097 4.77951C19.0274 5.37849 19.4212 6.17125 19.5252 7.0255C19.6291 7.87974 19.4369 8.74379 18.9808 9.47344C16.5519 13.0793 13.4494 16.1818 9.84355 18.6106Z" stroke="black" stroke-width="1.5" stroke-linecap="round" stroke-linejoin="round"/>
<path d="M3.53516 8.41064H8.41016V3.53564" stroke="black" stroke-width="1.5" stroke-linecap="round" stroke-linejoin="round"/>
<path d="M8.40955 8.41058L1.44531 1.44629" stroke="black" stroke-width="1.5" stroke-linecap="round" stroke-linejoin="round"/>
</svg>
