<svg width="20" height="20" viewBox="0 0 20 20" fill="none" xmlns="http://www.w3.org/2000/svg">
<g id="incoming-video-call-9">
<g id="incoming-video-call">
<path id="Vector 377" d="M8.67913 12.643H4.71484V8.67871" stroke="black" stroke-width="1.5" stroke-linecap="round" stroke-linejoin="round"/>
<path id="Vector 378" d="M4.71484 12.6431L10.0006 7.35742" stroke="black" stroke-width="1.5" stroke-linecap="round" stroke-linejoin="round"/>
<path id="Vector" d="M17.6902 5.70557L13.9637 7.35735V4.71449C13.9637 4.36403 13.8245 4.02792 13.5767 3.7801C13.3289 3.53229 12.9928 3.39307 12.6423 3.39307H2.73158C2.38112 3.39307 2.04501 3.53229 1.79719 3.7801C1.54938 4.02792 1.41016 4.36403 1.41016 4.71449V15.2859C1.41016 15.6364 1.54938 15.9725 1.79719 16.2203C2.04501 16.4681 2.38112 16.6074 2.73158 16.6074H12.6423C12.9928 16.6074 13.3289 16.4681 13.5767 16.2203C13.8245 15.9725 13.9637 15.6364 13.9637 15.2859V12.6431L17.6902 14.2949C17.7906 14.3336 17.8991 14.3473 18.006 14.3345C18.1129 14.3218 18.2152 14.2832 18.3037 14.2219C18.3922 14.1607 18.4645 14.0788 18.5142 13.9833C18.5639 13.8877 18.5895 13.7815 18.5887 13.6738V6.32664C18.5895 6.21895 18.5639 6.11271 18.5142 6.01717C18.4645 5.92163 18.3922 5.83968 18.3037 5.77846C18.2152 5.71722 18.1129 5.67858 18.006 5.66587C17.8991 5.65317 17.7906 5.6668 17.6902 5.70557Z" stroke="black" stroke-width="1.5" stroke-linecap="round" stroke-linejoin="round"/>
</g>
</g>
</svg>
