<svg width="18" height="19" viewBox="0 0 18 19" fill="none" xmlns="http://www.w3.org/2000/svg">
<path fill-rule="evenodd" clip-rule="evenodd" d="M9 17.7507C13.5563 17.7507 17.25 14.0571 17.25 9.50073C17.25 4.94438 13.5563 1.25073 9 1.25073C4.44365 1.25073 0.75 4.94438 0.75 9.50073C0.75 14.0571 4.44365 17.7507 9 17.7507Z" stroke="#003366" stroke-width="1.3" stroke-linecap="round" stroke-linejoin="round"/>
<path d="M10.875 13.2538H9.75C9.33579 13.2538 9 12.918 9 12.5038V7.62878C9 7.42168 8.83211 7.25378 8.625 7.25378H7.5" stroke="#003366" stroke-width="1.3" stroke-linecap="round" stroke-linejoin="round"/>
<path d="M8.80859 5.375C8.70504 5.375 8.62109 5.45895 8.62109 5.5625C8.62109 5.66605 8.70504 5.75 8.80859 5.75C8.91215 5.75 8.99609 5.66605 8.99609 5.5625C8.99609 5.45895 8.91215 5.375 8.80859 5.375" stroke="#003366" stroke-width="1.3" stroke-linecap="round" stroke-linejoin="round"/>
</svg>
