<svg width="20" height="20" viewBox="0 0 20 20" fill="none" xmlns="http://www.w3.org/2000/svg">
<g id="ink-bottle-75" clip-path="url(#clip0_47_141259)">
<g id="ink-bottle--ink-company-office-supplies-work">
<path id="Vector" d="M14.6244 5.375H5.37444V7.35714L3.22051 8.07071C2.69312 8.24575 2.23432 8.58258 1.90931 9.03331C1.58431 9.48404 1.40965 10.0257 1.41016 10.5814V15.9464C1.41016 16.6473 1.6886 17.3195 2.18424 17.8152C2.67986 18.3109 3.35209 18.5893 4.05301 18.5893H15.9459C16.6468 18.5893 17.319 18.3109 17.8146 17.8152C18.3103 17.3195 18.5887 16.6473 18.5887 15.9464V10.5814C18.5893 10.0257 18.4146 9.48404 18.0896 9.03331C17.7646 8.58258 17.3058 8.24575 16.7784 8.07071L14.6244 7.35714V5.375Z" stroke="black" stroke-width="1.5" stroke-linecap="round" stroke-linejoin="round"/>
<path id="Vector_2" d="M15.2835 1.41077H4.71205C3.98225 1.41077 3.39062 2.00239 3.39062 2.7322V4.05362C3.39062 4.78342 3.98225 5.37505 4.71205 5.37505H15.2835C16.0133 5.37505 16.6049 4.78342 16.6049 4.05362V2.7322C16.6049 2.00239 16.0133 1.41077 15.2835 1.41077Z" stroke="black" stroke-width="1.5" stroke-linecap="round" stroke-linejoin="round"/>
<path id="Vector_3" d="M14.625 10.6608H5.375V14.6251H14.625V10.6608Z" stroke="black" stroke-width="1.5" stroke-linecap="round" stroke-linejoin="round"/>
</g>
</g>
<defs>
<clipPath id="clip0_47_141259">
<rect width="20" height="20" fill="white"/>
</clipPath>
</defs>
</svg>
