<svg width="20" height="20" viewBox="0 0 20 20" fill="none" xmlns="http://www.w3.org/2000/svg">
<g id="insert-row-3" clip-path="url(#clip0_47_143649)">
<g id="insert-row">
<path id="Rectangle 580" d="M7.74706 18.589C6.95694 18.589 6.31641 17.9485 6.31641 17.1584V14.498C6.31641 13.7079 6.95694 13.0674 7.74706 13.0674H17.1561C17.9462 13.0674 18.5868 13.7079 18.5868 14.498V17.1584C18.5868 17.9485 17.9462 18.589 17.1561 18.589H7.74706Z" stroke="black" stroke-width="1.5" stroke-linecap="round" stroke-linejoin="round"/>
<path id="Rectangle 581" d="M7.74706 6.9323C6.95694 6.9323 6.31641 6.29176 6.31641 5.50164V2.8413C6.31641 2.05117 6.95694 1.41064 7.74706 1.41064H17.1561C17.9462 1.41064 18.5868 2.05117 18.5868 2.8413V5.50164C18.5868 6.29176 17.9462 6.9323 17.1561 6.9323H7.74706Z" stroke="black" stroke-width="1.5" stroke-linecap="round" stroke-linejoin="round"/>
<path id="Vector 990" d="M1.41016 12.4535L3.86422 9.99947L1.41016 7.54541" stroke="black" stroke-width="1.5" stroke-linecap="round" stroke-linejoin="round"/>
</g>
</g>
<defs>
<clipPath id="clip0_47_143649">
<rect width="20" height="20" fill="white"/>
</clipPath>
</defs>
</svg>
