<svg width="21" height="21" viewBox="0 0 21 21" fill="none" xmlns="http://www.w3.org/2000/svg">
<path d="M3.92759 14.5921C3.45026 14.4196 3.0133 14.1513 2.6436 13.8035C2.27391 13.4558 1.9793 13.0361 1.77792 12.5702C1.57654 12.1043 1.47266 11.6022 1.47266 11.0946C1.47266 10.5871 1.57654 10.0849 1.77792 9.61903C1.9793 9.15316 2.27391 8.73344 2.6436 8.3857C3.0133 8.03797 3.45026 7.76958 3.92759 7.59708C4.40491 7.42458 4.91249 7.3516 5.41907 7.38265C5.62775 7.36826 5.83718 7.36826 6.04586 7.38265C6.27349 6.31207 6.86182 5.35211 7.71244 4.66334C8.56306 3.97456 9.62438 3.59875 10.7189 3.59875C11.8134 3.59875 12.8747 3.97456 13.7254 4.66334C14.576 5.35211 15.1643 6.31207 15.3919 7.38265C15.6053 7.36827 15.8194 7.36827 16.0326 7.38265C16.9778 7.44058 17.8653 7.85687 18.5141 8.54663C19.1629 9.2364 19.5241 10.1477 19.5241 11.0946C19.5241 12.0416 19.1629 12.9528 18.5141 13.6426C18.2062 13.9699 17.8446 14.2357 17.4484 14.4308" stroke="black" stroke-width="1.5" stroke-linecap="round" stroke-linejoin="round"/>
<path d="M10.0039 12.2L11.0151 11.1887C11.9335 10.2704 13.4224 10.2704 14.3407 11.1887C15.259 12.1071 15.259 13.596 14.3407 14.5143L13.3295 15.5256" stroke="black" stroke-width="1.5" stroke-linecap="round" stroke-linejoin="round"/>
<path d="M11.7165 13.8146L9.71875 15.8123" stroke="black" stroke-width="1.5" stroke-linecap="round" stroke-linejoin="round"/>
<path d="M8.14527 14.0585L7.13406 15.0697C6.21573 15.988 6.21573 17.4769 7.13406 18.3953C8.05238 19.3136 9.54129 19.3136 10.4596 18.3953L11.4708 17.3841" stroke="black" stroke-width="1.5" stroke-linecap="round" stroke-linejoin="round"/>
</svg>
