<svg width="20" height="20" viewBox="0 0 20 20" fill="none" xmlns="http://www.w3.org/2000/svg">
<g id="insert-side-66">
<g id="insert-side--points-bullet-align-paragraph-formatting-bullets-text">
<path id="Vector" d="M18.5882 2.07129H11.3203" stroke="black" stroke-width="1.5" stroke-linecap="round" stroke-linejoin="round"/>
<path id="Vector_2" d="M18.5882 6.03516H11.3203" stroke="black" stroke-width="1.5" stroke-linecap="round" stroke-linejoin="round"/>
<path id="Vector_3" d="M18.5882 10H11.3203" stroke="black" stroke-width="1.5" stroke-linecap="round" stroke-linejoin="round"/>
<path id="Vector_4" d="M18.5882 17.9287H11.3203" stroke="black" stroke-width="1.5" stroke-linecap="round" stroke-linejoin="round"/>
<path id="Vector_5" d="M18.5882 13.9639H11.3203" stroke="black" stroke-width="1.5" stroke-linecap="round" stroke-linejoin="round"/>
<path id="Vector_6" d="M1.41016 2.732V8.01772C1.41016 8.38262 1.70597 8.67843 2.07087 8.67843H7.35659C7.72148 8.67843 8.0173 8.38262 8.0173 8.01772V2.732C8.0173 2.3671 7.72148 2.07129 7.35659 2.07129H2.07087C1.70597 2.07129 1.41016 2.3671 1.41016 2.732Z" stroke="black" stroke-width="1.5" stroke-linecap="round" stroke-linejoin="round"/>
<path id="Vector_7" d="M1.41016 11.982V17.2677C1.41016 17.6326 1.70597 17.9284 2.07087 17.9284H7.35659C7.72148 17.9284 8.0173 17.6326 8.0173 17.2677V11.982C8.0173 11.6171 7.72148 11.3213 7.35659 11.3213H2.07087C1.70597 11.3213 1.41016 11.6171 1.41016 11.982Z" stroke="black" stroke-width="1.5" stroke-linecap="round" stroke-linejoin="round"/>
</g>
</g>
</svg>
