<svg width="21" height="21" viewBox="0 0 21 21" fill="none" xmlns="http://www.w3.org/2000/svg">
<path d="M8.19141 11.8199L13.5888 15.1933L8.19141 18.5666V11.8199Z" stroke="black" stroke-width="1.5" stroke-linecap="round" stroke-linejoin="round"/>
<path d="M5.41907 15.1863C4.91249 15.2174 4.40491 15.1444 3.92759 14.972C3.45026 14.7994 3.0133 14.531 2.6436 14.1833C2.27391 13.8356 1.9793 13.4158 1.77792 12.95C1.57654 12.4841 1.47266 11.9819 1.47266 11.4744C1.47266 10.9668 1.57654 10.4647 1.77792 9.99881C1.9793 9.53292 2.27391 9.1132 2.6436 8.76546C3.0133 8.41773 3.45026 8.14936 3.92759 7.97685C4.40491 7.80435 4.91249 7.73137 5.41907 7.76242C5.62775 7.74802 5.83718 7.74802 6.04586 7.76242C6.27349 6.69183 6.86182 5.73187 7.71244 5.0431C8.56306 4.35434 9.62438 3.97852 10.7189 3.97852C11.8134 3.97852 12.8747 4.35434 13.7254 5.0431C14.576 5.73187 15.1643 6.69183 15.3919 7.76242C15.6053 7.74803 15.8194 7.74803 16.0326 7.76242C16.9778 7.82034 17.8653 8.23663 18.5141 8.9264C19.1629 9.61616 19.5241 10.5274 19.5241 11.4744C19.5241 12.4213 19.1629 13.3326 18.5141 14.0224C17.8653 14.7122 16.9778 15.1284 16.0326 15.1863" stroke="black" stroke-width="1.5" stroke-linecap="round" stroke-linejoin="round"/>
</svg>
