<svg width="21" height="21" viewBox="0 0 21 21" fill="none" xmlns="http://www.w3.org/2000/svg">
<g clip-path="url(#clip0_146_398367)">
<path d="M9.57646 5.90245C9.51531 5.72945 9.42094 5.57214 9.30105 5.43817C9.046 5.15321 8.67536 4.97388 8.26285 4.97388H7.18473C6.49806 4.97388 5.94141 5.53053 5.94141 6.2172C5.94141 6.80147 6.34825 7.30693 6.91902 7.4318L8.56049 7.79086C9.19994 7.93075 9.65571 8.4974 9.65571 9.15196C9.65571 9.92122 9.0321 10.5453 8.26285 10.5453H7.33428C6.72781 10.5453 6.21187 10.1577 6.02066 9.61676" stroke="black" stroke-width="1.5" stroke-linecap="round" stroke-linejoin="round"/>
<path d="M7.79688 4.97393V3.58105" stroke="black" stroke-width="1.5" stroke-linecap="round" stroke-linejoin="round"/>
<path d="M7.79688 11.9383V10.5454" stroke="black" stroke-width="1.5" stroke-linecap="round" stroke-linejoin="round"/>
<path d="M10.4531 19.5521V12.2396C10.4531 11.7778 10.6366 11.335 10.9631 11.0085C11.2896 10.682 11.7324 10.4985 12.1942 10.4985C12.656 10.4985 13.0988 10.682 13.4253 11.0085C13.7518 11.335 13.9353 11.7778 13.9353 12.2396V16.07H16.7211C17.4598 16.07 18.1684 16.3635 18.6908 16.8859C19.2132 17.4082 19.5068 18.1168 19.5068 18.8557V19.5521" stroke="black" stroke-width="1.5" stroke-linecap="round" stroke-linejoin="round"/>
<path d="M7.79966 14.071C4.31398 14.071 1.48828 11.2453 1.48828 7.75962C1.48828 4.27394 4.31398 1.44824 7.79966 1.44824C11.2853 1.44824 14.111 4.27394 14.111 7.75962C14.111 8.05265 14.0911 8.341 14.0524 8.62342" stroke="black" stroke-width="1.5" stroke-linecap="round"/>
</g>
<defs>
<clipPath id="clip0_146_398367">
<rect width="21" height="21" fill="white"/>
</clipPath>
</defs>
</svg>
