<svg width="21" height="21" viewBox="0 0 21 21" fill="none" xmlns="http://www.w3.org/2000/svg">
<path d="M8.4096 13.9822L4.92746 6.32153L1.44531 13.9822M8.4096 13.9822C8.4096 14.9057 8.04273 15.7914 7.38971 16.4445C6.73668 17.0975 5.85098 17.4644 4.92746 17.4644C4.00394 17.4644 3.11823 17.0975 2.4652 16.4445C1.81218 15.7914 1.44531 14.9057 1.44531 13.9822M8.4096 13.9822H1.44531" stroke="black" stroke-width="1.5" stroke-linecap="round" stroke-linejoin="round"/>
<path d="M19.5541 13.9822L16.072 6.32153L12.5898 13.9822M19.5541 13.9822C19.5541 14.9057 19.1873 15.7914 18.5343 16.4445C17.8812 17.0975 16.9955 17.4644 16.072 17.4644C15.1485 17.4644 14.2628 17.0975 13.6097 16.4445C12.9567 15.7914 12.5898 14.9057 12.5898 13.9822M19.5541 13.9822H12.5898" stroke="black" stroke-width="1.5" stroke-linecap="round" stroke-linejoin="round"/>
<path d="M2.83984 6.32153H18.1613" stroke="black" stroke-width="1.5" stroke-linecap="round" stroke-linejoin="round"/>
<path d="M10.5 6.32148V3.53577" stroke="black" stroke-width="1.5" stroke-linecap="round" stroke-linejoin="round"/>
</svg>
