<svg width="20" height="20" viewBox="0 0 20 20" fill="none" xmlns="http://www.w3.org/2000/svg">
<g id="key-frame-19" clip-path="url(#clip0_47_146240)">
<g id="key-frame--key-frame-entry-lock-login-pass-unlock-access">
<path id="Ellipse 43" d="M9.11719 10.2361L11.5827 7.77058L13.3318 6.02148L14.731 7.42076" stroke="black" stroke-width="1.5" stroke-linecap="round" stroke-linejoin="round"/>
<path id="Ellipse 44" d="M9.71262 11.7557C9.71262 12.9837 8.71713 13.9792 7.48913 13.9792C6.26112 13.9792 5.26562 12.9837 5.26562 11.7557C5.26562 10.5277 6.26112 9.53223 7.48913 9.53223C8.71713 9.53223 9.71262 10.5277 9.71262 11.7557Z" stroke="black" stroke-width="1.5" stroke-linecap="round" stroke-linejoin="round"/>
<path id="Vector 1116" d="M11.1992 8.15625L12.5792 9.53168" stroke="black" stroke-width="1.5" stroke-linecap="round" stroke-linejoin="round"/>
<path id="Vector 138" d="M5.7048 18.5896H2.6372C1.95952 18.5896 1.41016 18.0402 1.41016 17.3625V14.2949" stroke="black" stroke-width="1.5" stroke-linecap="round" stroke-linejoin="round"/>
<path id="Vector 902" d="M18.5876 14.2949V17.3625C18.5876 18.0402 18.0383 18.5896 17.3605 18.5896H14.293" stroke="black" stroke-width="1.5" stroke-linecap="round" stroke-linejoin="round"/>
<path id="Vector 901" d="M14.293 1.41113H17.3605C18.0383 1.41113 18.5876 1.9605 18.5876 2.63817V5.70578" stroke="black" stroke-width="1.5" stroke-linecap="round" stroke-linejoin="round"/>
<path id="Vector 900" d="M1.41016 5.70578V2.63817C1.41016 1.9605 1.95952 1.41113 2.6372 1.41113H5.7048" stroke="black" stroke-width="1.5" stroke-linecap="round" stroke-linejoin="round"/>
</g>
</g>
<defs>
<clipPath id="clip0_47_146240">
<rect width="20" height="20" fill="white"/>
</clipPath>
</defs>
</svg>
