<svg width="21" height="21" viewBox="0 0 21 21" fill="none" xmlns="http://www.w3.org/2000/svg">
<path d="M15.5039 10.1654V12.1094" stroke="black" stroke-width="1.5" stroke-linecap="round" stroke-linejoin="round"/>
<path d="M11.5781 12.4335L13.263 13.4055" stroke="black" stroke-width="1.5" stroke-linecap="round" stroke-linejoin="round"/>
<path d="M11.5781 16.9695L13.263 15.9974" stroke="black" stroke-width="1.5" stroke-linecap="round" stroke-linejoin="round"/>
<path d="M15.5039 19.2376V17.2935" stroke="black" stroke-width="1.5" stroke-linecap="round" stroke-linejoin="round"/>
<path d="M19.4309 16.9695L17.7461 15.9974" stroke="black" stroke-width="1.5" stroke-linecap="round" stroke-linejoin="round"/>
<path d="M19.4309 12.4335L17.7461 13.4055" stroke="black" stroke-width="1.5" stroke-linecap="round" stroke-linejoin="round"/>
<path d="M15.5062 17.2935C16.9376 17.2935 18.0982 16.1329 18.0982 14.7015C18.0982 13.2699 16.9376 12.1094 15.5062 12.1094C14.0746 12.1094 12.9141 13.2699 12.9141 14.7015C12.9141 16.1329 14.0746 17.2935 15.5062 17.2935Z" stroke="black" stroke-width="1.5" stroke-linecap="round" stroke-linejoin="round"/>
<path d="M8.4096 11.1964H2.83817C2.06892 11.1964 1.44531 10.5728 1.44531 9.80355V2.83927C1.44531 2.07001 2.06892 1.44641 2.83817 1.44641H16.7667C17.536 1.44641 18.1596 2.07001 18.1596 2.83927V8.4107" stroke="black" stroke-width="1.5" stroke-linecap="round" stroke-linejoin="round"/>
<path d="M4.23047 4.92859H4.9269" stroke="black" stroke-width="1.5" stroke-linecap="round" stroke-linejoin="round"/>
<path d="M7.71484 4.92859H8.41127" stroke="black" stroke-width="1.5" stroke-linecap="round" stroke-linejoin="round"/>
<path d="M11.1953 4.92859H11.8917" stroke="black" stroke-width="1.5" stroke-linecap="round" stroke-linejoin="round"/>
<path d="M14.6758 4.92859H15.3722" stroke="black" stroke-width="1.5" stroke-linecap="round" stroke-linejoin="round"/>
<path d="M14.6758 7.71423H15.3722" stroke="black" stroke-width="1.5" stroke-linecap="round" stroke-linejoin="round"/>
<path d="M4.23047 7.71423H4.9269" stroke="black" stroke-width="1.5" stroke-linecap="round" stroke-linejoin="round"/>
<path d="M7.71484 7.71423H11.8934" stroke="black" stroke-width="1.5" stroke-linecap="round" stroke-linejoin="round"/>
</svg>
