<svg width="21" height="21" viewBox="0 0 21 21" fill="none" xmlns="http://www.w3.org/2000/svg">
<g clip-path="url(#clip0_146_401770)">
<path d="M5.625 8.4107V7.01784C5.625 6.27903 5.91849 5.57047 6.44092 5.04805C6.96334 4.52561 7.6719 4.23213 8.41071 4.23213H13.9821C14.7209 4.23213 15.4295 3.93864 15.9519 3.4162C16.4744 2.89378 16.7679 2.18522 16.7679 1.44641" stroke="black" stroke-width="1.5" stroke-linecap="round" stroke-linejoin="round"/>
<path d="M18.1596 8.41064H2.83817C2.06892 8.41064 1.44531 9.03425 1.44531 9.8035V18.1606C1.44531 18.9299 2.06892 19.5535 2.83817 19.5535H18.1596C18.9289 19.5535 19.5525 18.9299 19.5525 18.1606V9.8035C19.5525 9.03425 18.9289 8.41064 18.1596 8.41064Z" stroke="black" stroke-width="1.5" stroke-linecap="round" stroke-linejoin="round"/>
<path d="M8.41016 15.7231H12.5887" stroke="black" stroke-width="1.5" stroke-linecap="round" stroke-linejoin="round"/>
<path d="M4.23047 15.7231H5.62333M15.3733 15.7231H16.7662" stroke="black" stroke-width="1.5" stroke-linecap="round" stroke-linejoin="round"/>
<path d="M4.23047 12.2411H5.62333" stroke="black" stroke-width="1.5" stroke-linecap="round" stroke-linejoin="round"/>
<path d="M7.94531 12.2411H9.33817" stroke="black" stroke-width="1.5" stroke-linecap="round" stroke-linejoin="round"/>
<path d="M11.6602 12.2411H13.053" stroke="black" stroke-width="1.5" stroke-linecap="round" stroke-linejoin="round"/>
<path d="M15.375 12.2411H16.7679" stroke="black" stroke-width="1.5" stroke-linecap="round" stroke-linejoin="round"/>
</g>
<defs>
<clipPath id="clip0_146_401770">
<rect width="21" height="21" fill="white"/>
</clipPath>
</defs>
</svg>
