<svg width="20" height="20" viewBox="0 0 20 20" fill="none" xmlns="http://www.w3.org/2000/svg">
<g id="keyhole-shield-4" clip-path="url(#clip0_47_146105)">
<g id="keyhole-shield--combination-combo-lock-locked-secure-security-shield-keyhole">
<path id="Vector" d="M10.4752 18.4574C10.169 18.5755 9.82988 18.5755 9.52373 18.4574C7.13704 17.5373 5.08472 15.9163 3.63658 13.8078C2.18842 11.6992 1.41227 9.2018 1.41016 6.64387V2.7853C1.41016 2.43483 1.54938 2.09872 1.79719 1.8509C2.04501 1.60309 2.38112 1.46387 2.73158 1.46387H17.2673C17.6177 1.46387 17.9539 1.60309 18.2017 1.8509C18.4494 2.09872 18.5887 2.43483 18.5887 2.7853V6.64387C18.5866 9.2018 17.8104 11.6992 16.3623 13.8078C14.9142 15.9163 12.8618 17.5373 10.4752 18.4574Z" stroke="black" stroke-width="1.5" stroke-linecap="round" stroke-linejoin="round"/>
<path id="Vector_2" d="M9.99777 9.39202C11.0925 9.39202 11.9799 8.50459 11.9799 7.40988C11.9799 6.31517 11.0925 5.42773 9.99777 5.42773C8.90306 5.42773 8.01562 6.31517 8.01562 7.40988C8.01562 8.50459 8.90306 9.39202 9.99777 9.39202Z" stroke="black" stroke-width="1.5" stroke-linecap="round" stroke-linejoin="round"/>
<path id="Vector_3" d="M10 12.6961V9.39258" stroke="black" stroke-width="1.5" stroke-linecap="round" stroke-linejoin="round"/>
</g>
</g>
<defs>
<clipPath id="clip0_47_146105">
<rect width="20" height="20" fill="white"/>
</clipPath>
</defs>
</svg>
