<svg width="20" height="20" viewBox="0 0 20 20" fill="none" xmlns="http://www.w3.org/2000/svg">
<g id="korean-alphabet-53">
<g id="korean-alphabet">
<path id="Vector 1093" d="M7.10156 1.41113V4.16985" stroke="black" stroke-width="1.5" stroke-linecap="round" stroke-linejoin="round"/>
<path id="Vector 1094" d="M11.241 4.16992H2.96484" stroke="black" stroke-width="1.5" stroke-linecap="round" stroke-linejoin="round"/>
<path id="Vector 1095" d="M17.0322 8.30859H14.2734" stroke="black" stroke-width="1.5" stroke-linecap="round" stroke-linejoin="round"/>
<path id="Vector 1096" d="M14.2734 2.79102V15.2053" stroke="black" stroke-width="1.5" stroke-linecap="round" stroke-linejoin="round"/>
<path id="Vector 1097" d="M2.96484 15.8311V18.5897H13.9971" stroke="black" stroke-width="1.5" stroke-linecap="round" stroke-linejoin="round"/>
<path id="Ellipse 50" d="M2.96484 10.3786C2.96484 11.2933 3.40089 12.1706 4.17705 12.8174C4.9532 13.4642 6.0059 13.8275 7.10356 13.8275C8.20121 13.8275 9.25391 13.4642 10.0301 12.8174C10.8062 12.1706 11.2423 11.2933 11.2423 10.3786C11.2423 9.9257 11.1352 9.47721 10.9272 9.05877C10.7192 8.64032 10.4144 8.26012 10.0301 7.93986C9.64576 7.61959 9.18951 7.36555 8.68738 7.19222C8.18524 7.0189 7.64706 6.92969 7.10356 6.92969C6.56005 6.92969 6.02187 7.0189 5.51974 7.19222C5.01761 7.36555 4.56136 7.61959 4.17705 7.93986C3.79273 8.26012 3.48787 8.64032 3.27988 9.05877C3.07189 9.47721 2.96484 9.9257 2.96484 10.3786Z" stroke="black" stroke-width="1.5" stroke-linecap="round" stroke-linejoin="round"/>
</g>
</g>
</svg>
