<svg width="20" height="20" viewBox="0 0 20 20" fill="none" xmlns="http://www.w3.org/2000/svg">
<g id="label-folder-tag-42" clip-path="url(#clip0_47_144459)">
<g id="label-folder-tag">
<path id="vector" d="M7.62718 16.6076H2.75111C2.40066 16.6076 2.06454 16.4685 1.81672 16.2206C1.56891 15.9728 1.42969 15.6366 1.42969 15.2862V2.73263C1.42969 2.38217 1.56891 2.04606 1.81672 1.79824C2.06454 1.55043 2.40066 1.41121 2.75111 1.41121H7.62718C7.92905 1.40241 8.22481 1.49727 8.46525 1.68C8.70568 1.86273 8.87626 2.1223 8.94861 2.41549L9.31861 4.05406H17.2472C17.5976 4.05406 17.9338 4.19328 18.1816 4.4411C18.4293 4.68891 18.5686 5.02503 18.5686 5.37549V7.60484" stroke="black" stroke-width="1.5" stroke-linecap="round" stroke-linejoin="round"/>
<path id="vector_2" d="M12.5931 18.3667L9.63301 15.4067C9.52613 15.2997 9.46049 15.1603 9.45054 15.019C9.44058 14.8778 9.48711 14.7461 9.57988 14.6532L14.6806 9.5525C14.7051 9.52678 14.7357 9.50773 14.7705 9.49671C14.8051 9.4857 14.843 9.48301 14.8812 9.48885L17.6332 10.1002C17.6984 10.1082 17.7617 10.1398 17.8108 10.189C17.86 10.2381 17.8916 10.3014 17.8996 10.3665L18.5109 13.1185C18.5167 13.1568 18.5141 13.1946 18.5031 13.2293C18.492 13.2641 18.473 13.2948 18.4472 13.3192L13.3466 18.4198C13.2536 18.5127 13.1221 18.5592 12.9808 18.5492C12.8395 18.5393 12.7001 18.4736 12.5931 18.3667Z" stroke="black" stroke-width="1.5" stroke-linecap="round" stroke-linejoin="round"/>
<g id="group 2218">
<path id="vector_3" d="M15.2882 12.7119C15.1591 12.5829 15.1591 12.3737 15.2882 12.2447C15.4172 12.1157 15.6264 12.1157 15.7554 12.2447" stroke="black" stroke-width="1.5" stroke-linecap="round" stroke-linejoin="round"/>
<path id="vector_4" d="M15.2891 12.7118C15.4182 12.8408 15.6273 12.8408 15.7563 12.7118C15.8853 12.5828 15.8853 12.3736 15.7563 12.2446" stroke="black" stroke-width="1.5" stroke-linecap="round" stroke-linejoin="round"/>
</g>
</g>
</g>
<defs>
<clipPath id="clip0_47_144459">
<rect width="20" height="20" fill="white"/>
</clipPath>
</defs>
</svg>
