<svg width="20" height="20" viewBox="0 0 20 20" fill="none" xmlns="http://www.w3.org/2000/svg">
<g id="label-file-tag-72" clip-path="url(#clip0_47_144450)">
<g id="label-file-tag">
<g id="Group 4563">
<path id="vector" d="M4.00391 7.56209V2.82183C4.00391 2.475 4.14168 2.1424 4.38691 1.89717C4.63214 1.65193 4.96474 1.51416 5.31157 1.51416H13.8114L18.3881 6.09097V17.2061C18.3881 17.553 18.2504 17.8856 18.0052 18.1307C17.7599 18.376 17.4273 18.5138 17.0806 18.5138H8.98937" stroke="black" stroke-width="1.5" stroke-linecap="round" stroke-linejoin="round"/>
<g id="group 53">
<path id="vector_2" d="M4.61111 18.2938L1.68188 15.3645C1.57611 15.2587 1.51117 15.1206 1.50131 14.9808C1.49145 14.841 1.53749 14.7108 1.62932 14.6189L6.67688 9.57133C6.70105 9.5459 6.73142 9.52703 6.76577 9.51613C6.80012 9.50524 6.83758 9.50257 6.87543 9.50834L9.5988 10.1133C9.66323 10.1212 9.72581 10.1525 9.77447 10.2012C9.82314 10.2498 9.85444 10.3124 9.86234 10.3769L10.4673 13.1002C10.4731 13.1381 10.4704 13.1755 10.4595 13.2099C10.4486 13.2442 10.4298 13.2746 10.4043 13.2988L5.35673 18.3463C5.26479 18.4382 5.1346 18.4842 4.99481 18.4744C4.855 18.4645 4.71699 18.3996 4.61111 18.2938Z" stroke="black" stroke-width="1.5" stroke-linecap="round" stroke-linejoin="round"/>
<g id="group 2218">
<path id="vector_3" d="M7.27934 12.6977C7.15168 12.5701 7.15168 12.3631 7.27934 12.2354C7.40702 12.1077 7.61401 12.1077 7.74167 12.2354" stroke="black" stroke-width="1.5" stroke-linecap="round" stroke-linejoin="round"/>
<path id="vector_4" d="M7.28125 12.6977C7.40891 12.8253 7.6159 12.8253 7.74358 12.6977C7.87124 12.57 7.87124 12.363 7.74358 12.2354" stroke="black" stroke-width="1.5" stroke-linecap="round" stroke-linejoin="round"/>
</g>
</g>
</g>
</g>
</g>
<defs>
<clipPath id="clip0_47_144450">
<rect width="20" height="20" fill="white"/>
</clipPath>
</defs>
</svg>
