<svg width="21" height="21" viewBox="0 0 21 21" fill="none" xmlns="http://www.w3.org/2000/svg">
<path d="M18.8065 15.2468C19.2636 15.7109 19.2636 16.4318 18.8065 16.8959C17.7922 17.9257 15.8875 19.5535 13.9829 19.5535C12.0782 19.5535 10.1735 17.9257 9.15927 16.8959C8.70212 16.4318 8.70212 15.7109 9.15927 15.2468C10.1735 14.2171 12.0782 12.5892 13.9829 12.5892C15.8875 12.5892 17.7922 14.2171 18.8065 15.2468Z" stroke="black" stroke-width="1.5" stroke-linecap="round" stroke-linejoin="round"/>
<path d="M4.92746 15.375H2.83817C2.46876 15.375 2.11448 15.2282 1.85327 14.967C1.59206 14.7059 1.44531 14.3515 1.44531 13.9821V2.83927C1.44531 2.46985 1.59206 2.11558 1.85327 1.85437C2.11448 1.59316 2.46876 1.44641 2.83817 1.44641H13.981C14.3504 1.44641 14.7048 1.59316 14.9659 1.85437C15.2271 2.11558 15.3739 2.46985 15.3739 2.83927V9.10712" stroke="black" stroke-width="1.5" stroke-linecap="round" stroke-linejoin="round"/>
<path d="M9.45592 8.41073C10.4175 8.41073 11.197 7.63123 11.197 6.66966C11.197 5.70809 10.4175 4.92859 9.45592 4.92859C8.49434 4.92859 7.71484 5.70809 7.71484 6.66966C7.71484 7.63123 8.49434 8.41073 9.45592 8.41073Z" stroke="black" stroke-width="1.5" stroke-linecap="round" stroke-linejoin="round"/>
<path d="M1.44531 9.94818C1.97127 9.85311 2.51302 9.80347 3.06638 9.80347C5.2644 9.80347 7.27948 10.5868 8.84771 11.8894" stroke="black" stroke-width="1.5" stroke-linecap="round" stroke-linejoin="round"/>
<path d="M13.9794 16.5937C13.6909 16.5937 13.457 16.3599 13.457 16.0714C13.457 15.7829 13.6909 15.5491 13.9794 15.5491" stroke="black" stroke-width="1.5" stroke-linecap="round" stroke-linejoin="round"/>
<path d="M13.9805 16.5937C14.2689 16.5937 14.5028 16.3599 14.5028 16.0714C14.5028 15.7829 14.2689 15.5491 13.9805 15.5491" stroke="black" stroke-width="1.5" stroke-linecap="round" stroke-linejoin="round"/>
</svg>
