<svg width="21" height="21" viewBox="0 0 21 21" fill="none" xmlns="http://www.w3.org/2000/svg">
<g clip-path="url(#clip0_146_398858)">
<path d="M7.71317 15.375H2.83817C2.46876 15.375 2.11448 15.2282 1.85327 14.967C1.59206 14.7059 1.44531 14.3515 1.44531 13.9821V2.83927C1.44531 2.46985 1.59206 2.11558 1.85327 1.85437C2.11448 1.59316 2.46876 1.44641 2.83817 1.44641H13.981C14.3504 1.44641 14.7048 1.59316 14.9659 1.85437C15.2271 2.11558 15.3739 2.46985 15.3739 2.83927V5.62498" stroke="black" stroke-width="1.5" stroke-linecap="round" stroke-linejoin="round"/>
<path d="M8.24246 11.4332C6.74144 10.3666 4.94417 9.79672 3.10281 9.80353C2.54681 9.80422 1.99202 9.85551 1.44531 9.95674" stroke="black" stroke-width="1.5" stroke-linecap="round" stroke-linejoin="round"/>
<path d="M18.856 13.2856H11.8917C11.5071 13.2856 11.1953 13.5974 11.1953 13.9821V18.8571C11.1953 19.2416 11.5071 19.5535 11.8917 19.5535H18.856C19.2406 19.5535 19.5525 19.2416 19.5525 18.8571V13.9821C19.5525 13.5974 19.2406 13.2856 18.856 13.2856Z" stroke="black" stroke-width="1.5" stroke-linecap="round" stroke-linejoin="round"/>
<path d="M12.5898 13.2857V11.8929C12.5898 11.1541 12.8833 10.4455 13.4058 9.9231C13.9282 9.40067 14.6367 9.10718 15.3756 9.10718C16.1143 9.10718 16.8229 9.40067 17.3453 9.9231C17.8678 10.4455 18.1613 11.1541 18.1613 11.8929V13.2857" stroke="black" stroke-width="1.5" stroke-linecap="round" stroke-linejoin="round"/>
<path d="M9.45592 7.36605C10.4175 7.36605 11.197 6.58656 11.197 5.62498C11.197 4.66341 10.4175 3.88391 9.45592 3.88391C8.49434 3.88391 7.71484 4.66341 7.71484 5.62498C7.71484 6.58656 8.49434 7.36605 9.45592 7.36605Z" stroke="black" stroke-width="1.5" stroke-linecap="round" stroke-linejoin="round"/>
</g>
<defs>
<clipPath id="clip0_146_398858">
<rect width="21" height="21" fill="white"/>
</clipPath>
</defs>
</svg>
