<svg width="21" height="21" viewBox="0 0 21 21" fill="none" xmlns="http://www.w3.org/2000/svg">
<g clip-path="url(#clip0_146_398841)">
<path d="M2.83817 19.5536H18.1596C18.9289 19.5536 19.5525 18.93 19.5525 18.1607V2.83927C19.5525 2.07001 18.9289 1.44641 18.1596 1.44641H2.83817C2.06892 1.44641 1.44531 2.07001 1.44531 2.83927V18.1607C1.44531 18.93 2.06892 19.5536 2.83817 19.5536Z" stroke="black" stroke-width="1.5" stroke-linecap="round" stroke-linejoin="round"/>
<path d="M13.6172 9.80359C14.9634 9.80359 16.0547 8.71229 16.0547 7.36609C16.0547 6.01989 14.9634 4.92859 13.6172 4.92859C12.271 4.92859 11.1797 6.01989 11.1797 7.36609C11.1797 8.71229 12.271 9.80359 13.6172 9.80359Z" stroke="black" stroke-width="1.5" stroke-linecap="round" stroke-linejoin="round"/>
<path d="M13.8288 19.5535C13.3803 17.1648 12.0977 15.0131 10.2098 13.4823C8.32186 11.9516 5.95151 11.1414 3.52164 11.1963C2.8263 11.1945 2.13238 11.2587 1.44922 11.3881" stroke="black" stroke-width="1.5" stroke-linecap="round" stroke-linejoin="round"/>
<path d="M19.5371 14.5532C18.4153 14.1743 17.239 13.9814 16.055 13.9821C14.5562 13.9788 13.0725 14.2822 11.6953 14.8735" stroke="black" stroke-width="1.5" stroke-linecap="round" stroke-linejoin="round"/>
</g>
<defs>
<clipPath id="clip0_146_398841">
<rect width="21" height="21" fill="white"/>
</clipPath>
</defs>
</svg>
