<svg width="21" height="21" viewBox="0 0 21 21" fill="none" xmlns="http://www.w3.org/2000/svg">
<g clip-path="url(#clip0_146_398865)">
<path d="M15.8973 10.3911L12.3047 14.972L15.8973 19.5242L19.4899 14.972L15.8973 10.3911Z" stroke="black" stroke-width="1.5" stroke-linecap="round" stroke-linejoin="round"/>
<path d="M12.3516 15.0336C12.3516 15.0336 14.5103 15.7783 15.8935 16.2555C15.8935 16.2555 18.0523 15.5108 19.4355 15.0336" stroke="black" stroke-width="1.5" stroke-linecap="round" stroke-linejoin="round"/>
<path d="M9.10603 15.375H2.83817C2.46876 15.375 2.11448 15.2282 1.85327 14.967C1.59206 14.7059 1.44531 14.3515 1.44531 13.9821V2.83927C1.44531 2.46985 1.59206 2.11558 1.85327 1.85437C2.11448 1.59316 2.46876 1.44641 2.83817 1.44641H13.981C14.3504 1.44641 14.7048 1.59316 14.9659 1.85437C15.2271 2.11558 15.3739 2.46985 15.3739 2.83927V4.92855" stroke="black" stroke-width="1.5" stroke-linecap="round" stroke-linejoin="round"/>
<path d="M1.44531 9.94818C1.97127 9.85311 2.51302 9.80347 3.06638 9.80347C5.63394 9.80347 7.95188 10.8723 9.59953 12.5892" stroke="black" stroke-width="1.5" stroke-linecap="round" stroke-linejoin="round"/>
<path d="M9.45592 7.36605C10.4175 7.36605 11.197 6.58656 11.197 5.62498C11.197 4.66341 10.4175 3.88391 9.45592 3.88391C8.49434 3.88391 7.71484 4.66341 7.71484 5.62498C7.71484 6.58656 8.49434 7.36605 9.45592 7.36605Z" stroke="black" stroke-width="1.5" stroke-linecap="round" stroke-linejoin="round"/>
</g>
<defs>
<clipPath id="clip0_146_398865">
<rect width="21" height="21" fill="white"/>
</clipPath>
</defs>
</svg>
