<svg width="21" height="21" viewBox="0 0 21 21" fill="none" xmlns="http://www.w3.org/2000/svg">
<g clip-path="url(#clip0_146_401121)">
<path d="M4.19654 13.8427L1.6894 17.4641C1.41083 17.8819 1.41083 18.4391 1.6894 18.8569C1.96797 19.2748 2.38582 19.5534 2.80368 19.5534H17.8465C18.6823 19.5534 19.2394 18.9962 19.2394 18.1605C19.2394 17.8819 19.2394 17.7427 19.1001 17.4641L16.593 13.8427H4.19654Z" stroke="black" stroke-width="1.5" stroke-linecap="round" stroke-linejoin="round"/>
<path d="M16.5938 13.8428V12.5892" stroke="black" stroke-width="1.5" stroke-linecap="round" stroke-linejoin="round"/>
<path d="M7.01571 5.4856H5.58817C4.75246 5.4856 4.19531 6.04274 4.19531 6.87845V13.8427" stroke="black" stroke-width="1.5" stroke-linecap="round" stroke-linejoin="round"/>
<path d="M15.1639 1.65852L16.3281 4.00066C16.3542 4.0599 16.3954 4.11116 16.4478 4.14921C16.5002 4.18728 16.5616 4.21076 16.6259 4.21726L19.2118 4.60988C19.2857 4.61951 19.3554 4.64997 19.4126 4.69773C19.4699 4.74549 19.5124 4.80855 19.5351 4.87955C19.5578 4.95056 19.5599 5.02657 19.5409 5.09868C19.5221 5.1708 19.483 5.23606 19.4284 5.2868L17.5195 7.10095C17.491 7.15525 17.4761 7.21564 17.4761 7.27694C17.4761 7.33825 17.491 7.39865 17.5195 7.45294L17.8851 10.0252C17.9007 10.0996 17.8943 10.1769 17.8668 10.2477C17.8394 10.3185 17.792 10.3799 17.7303 10.4243C17.6688 10.4687 17.5955 10.4943 17.5197 10.498C17.4438 10.5017 17.3685 10.4832 17.3029 10.4449L15.0013 9.22648C14.9418 9.19956 14.8772 9.18564 14.8119 9.18564C14.7464 9.18564 14.6818 9.19956 14.6223 9.22648L12.3208 10.4449C12.2552 10.4832 12.1798 10.5017 12.104 10.498C12.0281 10.4943 11.9549 10.4687 11.8933 10.4243C11.8316 10.3799 11.7842 10.3185 11.7568 10.2477C11.7293 10.1769 11.723 10.0996 11.7386 10.0252L12.1718 7.45294C12.1905 7.39324 12.194 7.32985 12.1822 7.26844C12.1704 7.20702 12.1436 7.14948 12.1042 7.10095L10.1952 5.27326C10.1446 5.22197 10.1091 5.15773 10.0925 5.08759C10.076 5.01743 10.0791 4.94408 10.1014 4.87557C10.1238 4.80705 10.1646 4.74603 10.2194 4.69916C10.2741 4.65229 10.3407 4.62142 10.4118 4.60988L12.9977 4.2308C13.062 4.2243 13.1235 4.20081 13.1759 4.16275C13.2282 4.12469 13.2695 4.07344 13.2955 4.0142L14.4598 1.67205C14.491 1.60575 14.5401 1.54949 14.6015 1.50963C14.663 1.46976 14.7344 1.44789 14.8076 1.44648C14.8808 1.44508 14.953 1.46419 15.0159 1.50166C15.0789 1.53913 15.1302 1.59346 15.1639 1.65852Z" stroke="black" stroke-width="1.5" stroke-linecap="round" stroke-linejoin="round"/>
</g>
<defs>
<clipPath id="clip0_146_401121">
<rect width="21" height="21" fill="white"/>
</clipPath>
</defs>
</svg>
