<svg width="21" height="21" viewBox="0 0 21 21" fill="none" xmlns="http://www.w3.org/2000/svg">
<path d="M4.23073 11.8929L1.75145 15.4447C1.63962 15.6626 1.58717 15.9059 1.59939 16.1505C1.61162 16.3951 1.68809 16.632 1.82109 16.8376C1.94655 17.0383 2.12109 17.2038 2.32824 17.3183C2.53539 17.4329 2.76831 17.4926 3.00502 17.4922H17.9922C18.2288 17.4926 18.4618 17.4329 18.6689 17.3183C18.8761 17.2038 19.0506 17.0383 19.1761 16.8376C19.2984 16.6259 19.3627 16.3856 19.3627 16.1412C19.3627 15.8967 19.2984 15.6564 19.1761 15.4447L16.7664 11.8929" stroke="black" stroke-width="1.5" stroke-linecap="round" stroke-linejoin="round"/>
<path d="M5.62333 3.53577C5.25391 3.53577 4.89964 3.68252 4.63842 3.94372C4.37722 4.20494 4.23047 4.55921 4.23047 4.92862V11.8929H16.7662V4.92862C16.7662 4.55921 16.6194 4.20494 16.3582 3.94372C16.0971 3.68252 15.7427 3.53577 15.3733 3.53577H5.62333Z" stroke="black" stroke-width="1.5" stroke-linecap="round" stroke-linejoin="round"/>
</svg>
