<svg width="21" height="21" viewBox="0 0 21 21" fill="none" xmlns="http://www.w3.org/2000/svg">
<path d="M4.19654 13.8427L1.6894 17.4641C1.41083 17.8819 1.41083 18.4391 1.6894 18.8569C1.96797 19.2748 2.38582 19.5534 2.80368 19.5534H17.8465C18.6823 19.5534 19.2394 18.9962 19.2394 18.1605C19.2394 17.8819 19.2394 17.7427 19.1001 17.4641L16.593 13.8427H4.19654Z" stroke="black" stroke-width="1.5" stroke-linecap="round" stroke-linejoin="round"/>
<path d="M16.5938 13.8428V12.5892" stroke="black" stroke-width="1.5" stroke-linecap="round" stroke-linejoin="round"/>
<path d="M9.76674 5.4856H5.58817C4.75246 5.4856 4.19531 6.04274 4.19531 6.87845V13.8427" stroke="black" stroke-width="1.5" stroke-linecap="round" stroke-linejoin="round"/>
<path d="M16.7526 4.15501C16.6813 3.95317 16.5713 3.76963 16.4313 3.61334C16.1338 3.28088 15.7014 3.07166 15.2201 3.07166H13.9623C13.1612 3.07166 12.5117 3.72109 12.5117 4.52222C12.5117 5.20388 12.9864 5.79359 13.6523 5.93927L15.5673 6.35819C16.3133 6.52137 16.8451 7.18249 16.8451 7.94615C16.8451 8.84364 16.1176 9.57179 15.2201 9.57179H14.1368C13.4292 9.57179 12.8273 9.11959 12.6042 8.48843" stroke="black" stroke-width="1.5" stroke-linecap="round" stroke-linejoin="round"/>
<path d="M14.6797 3.07144V1.44641" stroke="black" stroke-width="1.5" stroke-linecap="round" stroke-linejoin="round"/>
<path d="M14.6797 11.1963V9.57129" stroke="black" stroke-width="1.5" stroke-linecap="round" stroke-linejoin="round"/>
</svg>
