<svg width="21" height="21" viewBox="0 0 21 21" fill="none" xmlns="http://www.w3.org/2000/svg">
<g clip-path="url(#clip0_146_401136)">
<path d="M4.19654 13.8427L1.6894 17.4641C1.41083 17.8819 1.41083 18.4391 1.6894 18.8569C1.96797 19.2748 2.38582 19.5534 2.80368 19.5534H17.8465C18.6823 19.5534 19.2394 18.9962 19.2394 18.1605C19.2394 17.8819 19.2394 17.7427 19.1001 17.4641L16.593 13.8427H4.19654Z" stroke="black" stroke-width="1.5" stroke-linecap="round" stroke-linejoin="round"/>
<path d="M7.71214 5.4856H5.58817C4.75246 5.4856 4.19531 6.04274 4.19531 6.87845V13.8427" stroke="black" stroke-width="1.5" stroke-linecap="round" stroke-linejoin="round"/>
<path d="M11.8917 5.625H18.856C19.2739 5.625 19.5525 5.90357 19.5525 6.32143V10.5C19.5525 10.9179 19.2739 11.1964 18.856 11.1964H11.8917C11.4739 11.1964 11.1953 10.9179 11.1953 10.5V6.32143C11.1953 5.90357 11.4739 5.625 11.8917 5.625Z" stroke="black" stroke-width="1.5" stroke-linecap="round" stroke-linejoin="round"/>
<path d="M12.5898 5.62498V4.23213C12.5898 2.69998 13.8434 1.44641 15.3756 1.44641C16.9077 1.44641 18.1613 2.69998 18.1613 4.23213V5.62498" stroke="black" stroke-width="1.5" stroke-linecap="round" stroke-linejoin="round"/>
</g>
<defs>
<clipPath id="clip0_146_401136">
<rect width="21" height="21" fill="white"/>
</clipPath>
</defs>
</svg>
