<svg width="21" height="21" viewBox="0 0 21 21" fill="none" xmlns="http://www.w3.org/2000/svg">
<path d="M4.19654 13.8427L1.6894 17.4641C1.41083 17.8819 1.41083 18.4391 1.6894 18.8569C1.96797 19.2748 2.38582 19.5534 2.80368 19.5534H17.8465C18.6823 19.5534 19.2394 18.9962 19.2394 18.1605C19.2394 17.8819 19.2394 17.7427 19.1001 17.4641L16.593 13.8427H4.19654Z" stroke="black" stroke-width="1.5" stroke-linecap="round" stroke-linejoin="round"/>
<path d="M16.5938 13.8429V9.80359" stroke="black" stroke-width="1.5" stroke-linecap="round" stroke-linejoin="round"/>
<path d="M7.71214 5.4856H5.58817C4.75246 5.4856 4.19531 6.04274 4.19531 6.87845V13.8427" stroke="black" stroke-width="1.5" stroke-linecap="round" stroke-linejoin="round"/>
<path d="M10.5 4.23213C10.5 3.68117 10.6634 3.14258 10.9695 2.68447C11.2756 2.22636 11.7106 1.86931 12.2197 1.65846C12.7287 1.44762 13.2888 1.39245 13.8292 1.49994C14.3696 1.60743 14.8659 1.87274 15.2555 2.26233C15.6451 2.65191 15.9104 3.14829 16.0179 3.68866C16.1253 4.22903 16.0702 4.78916 15.8594 5.29818C15.6486 5.8072 15.2914 6.24227 14.8333 6.54836C14.3753 6.85446 13.8367 7.01784 13.2857 7.01784V8.87498" stroke="black" stroke-width="1.5" stroke-linecap="round" stroke-linejoin="round"/>
<path d="M13.2857 11.6609C13.0934 11.6609 12.9375 11.505 12.9375 11.3127C12.9375 11.1204 13.0934 10.9645 13.2857 10.9645" stroke="black" stroke-width="1.5" stroke-linecap="round" stroke-linejoin="round"/>
<path d="M13.2852 11.6609C13.4775 11.6609 13.6334 11.505 13.6334 11.3127C13.6334 11.1204 13.4775 10.9645 13.2852 10.9645" stroke="black" stroke-width="1.5" stroke-linecap="round" stroke-linejoin="round"/>
</svg>
