<svg width="20" height="20" viewBox="0 0 20 20" fill="none" xmlns="http://www.w3.org/2000/svg">
<g id="lasso-tool-3" clip-path="url(#clip0_47_147087)">
<g id="lasso-tool">
<path id="Vector 1053" d="M6.19868 17.5437C8.20452 17.5437 8.70598 16.1264 8.70598 15.4178C8.70598 14.7092 8.20452 13.292 6.19868 13.292C4.19286 13.292 3.69141 14.7092 3.69141 15.4178C3.69141 16.1264 4.19286 17.5437 6.19868 17.5437Z" stroke="black" stroke-width="1.5" stroke-linecap="round" stroke-linejoin="round"/>
<path id="Vector 1039" d="M9.99944 13.7078C3.12801 13.7078 1.41016 9.66197 1.41016 7.63905C1.41016 5.61614 3.12801 1.57031 9.99944 1.57031C16.8709 1.57031 18.5887 5.61614 18.5887 7.63905C18.5887 9.66197 16.8709 13.7078 9.99944 13.7078Z" stroke="black" stroke-width="1.5" stroke-linecap="round" stroke-linejoin="round"/>
<path id="Vector 1054" d="M8.12891 14.0059C9.46302 15.5217 10.3524 16.5323 10.3479 18.4264" stroke="black" stroke-width="1.5" stroke-linecap="round" stroke-linejoin="round"/>
</g>
</g>
<defs>
<clipPath id="clip0_47_147087">
<rect width="20" height="20" fill="white"/>
</clipPath>
</defs>
</svg>
