<svg width="20" height="20" viewBox="0 0 20 20" fill="none" xmlns="http://www.w3.org/2000/svg">
<g id="layer-mask-77">
<g id="layer-mask">
<path id="Ellipse 50" d="M6.42578 10.0026C6.42578 10.9514 6.80265 11.8612 7.47349 12.532C8.14433 13.2029 9.05418 13.5798 10.0029 13.5798C10.9516 13.5798 11.8614 13.2029 12.5323 12.532C13.2031 11.8612 13.58 10.9514 13.58 10.0026C13.58 9.05394 13.2031 8.14409 12.5323 7.47325C11.8614 6.80241 10.9516 6.42554 10.0029 6.42554C9.05418 6.42554 8.14433 6.80241 7.47349 7.47325C6.80265 8.14409 6.42578 9.05394 6.42578 10.0026Z" stroke="black" stroke-width="1.5" stroke-linecap="round" stroke-linejoin="round"/>
<path id="Rectangle 53" d="M2.54394 3.41931H17.4549C17.4549 3.41931 18.5887 3.41931 18.5887 4.5531V15.447C18.5887 15.447 18.5887 16.5807 17.4549 16.5807H2.54394C2.54394 16.5807 1.41016 16.5807 1.41016 15.447V4.5531C1.41016 4.5531 1.41016 3.41931 2.54394 3.41931Z" stroke="black" stroke-width="1.5" stroke-linecap="round" stroke-linejoin="round"/>
</g>
</g>
</svg>
