<svg width="20" height="20" viewBox="0 0 20 20" fill="none" xmlns="http://www.w3.org/2000/svg">
<g id="like-1-25">
<g id="like-1--reward-social-up-rating-media-like-thumb-hand">
<path id="Vector" d="M2.13206 8.43274H5.23911V16.7051H2.13206C1.95821 16.7051 1.79148 16.636 1.66855 16.5131C1.54562 16.3901 1.47656 16.2235 1.47656 16.0496V9.08823C1.47656 8.91439 1.54562 8.74766 1.66855 8.62473C1.79148 8.50181 1.95821 8.43274 2.13206 8.43274Z" stroke="black" stroke-width="1.5" stroke-linecap="round" stroke-linejoin="round"/>
<path id="Vector_2" d="M5.23828 8.43228L8.56819 3.10966C8.69724 2.89929 8.87858 2.72592 9.09454 2.60645C9.3105 2.48698 9.55374 2.42549 9.80053 2.42795C9.9949 2.42093 10.1887 2.45295 10.3705 2.52211C10.5523 2.59128 10.7183 2.69617 10.8589 2.83062C10.9994 2.96506 11.1116 3.1263 11.1888 3.30484C11.2659 3.48336 11.3065 3.67555 11.3082 3.87004V7.68502H17.0634C17.276 7.69191 17.4848 7.74374 17.676 7.83711C17.8673 7.93047 18.0365 8.06323 18.1728 8.2267C18.309 8.39016 18.409 8.58059 18.4664 8.78549C18.5237 8.99039 18.5371 9.20511 18.5055 9.41552L17.4567 16.1802C17.412 16.5418 17.2367 16.8745 16.9639 17.1159C16.6912 17.3574 16.3395 17.4908 15.9752 17.4912H7.37519C6.9658 17.4928 6.56172 17.3986 6.1953 17.2158L5.25139 16.744" stroke="black" stroke-width="1.5" stroke-linecap="round" stroke-linejoin="round"/>
<path id="Vector_3" d="M5.23828 8.4325V16.7048" stroke="black" stroke-width="1.5" stroke-linecap="round" stroke-linejoin="round"/>
</g>
</g>
</svg>
