<svg width="20" height="20" viewBox="0 0 20 20" fill="none" xmlns="http://www.w3.org/2000/svg">
<g id="loading-horizontal-1-16">
<g id="loading-horizontal-1--progress-loading-line-load-wait-waiting">
<path id="Vector" d="M7.35659 7.35742H2.07087C1.70597 7.35742 1.41016 7.65324 1.41016 8.01814V11.9824C1.41016 12.3473 1.70597 12.6431 2.07087 12.6431H7.35659C7.72148 12.6431 8.0173 12.3473 8.0173 11.9824V8.01814C8.0173 7.65324 7.72148 7.35742 7.35659 7.35742Z" stroke="black" stroke-width="1.5" stroke-linecap="round" stroke-linejoin="round"/>
<path id="Vector_2" d="M14.6239 7.35742H11.981C11.6161 7.35742 11.3203 7.65324 11.3203 8.01814V11.9824C11.3203 12.3473 11.6161 12.6431 11.981 12.6431H14.6239C14.9887 12.6431 15.2846 12.3473 15.2846 11.9824V8.01814C15.2846 7.65324 14.9887 7.35742 14.6239 7.35742Z" stroke="black" stroke-width="1.5" stroke-linecap="round" stroke-linejoin="round"/>
<path id="Vector_3" d="M18.5898 7.35742V12.6431" stroke="black" stroke-width="1.5" stroke-linecap="round" stroke-linejoin="round"/>
</g>
</g>
</svg>
