<svg width="20" height="20" viewBox="0 0 20 20" fill="none" xmlns="http://www.w3.org/2000/svg">
<g clip-path="url(#clip0_48_150711)">
<path d="M10.0011 15.9464C13.2852 15.9464 15.9475 13.2841 15.9475 10C15.9475 6.7159 13.2852 4.05359 10.0011 4.05359C6.717 4.05359 4.05469 6.7159 4.05469 10C4.05469 13.2841 6.717 15.9464 10.0011 15.9464Z" stroke="black" stroke-width="1.5" stroke-linecap="round" stroke-linejoin="round"/>
<path d="M10.0006 10.6608C10.3655 10.6608 10.6613 10.365 10.6613 10.0001C10.6613 9.63517 10.3655 9.33936 10.0006 9.33936C9.63566 9.33936 9.33984 9.63517 9.33984 10.0001C9.33984 10.365 9.63566 10.6608 10.0006 10.6608Z" stroke="black" stroke-width="1.5" stroke-linecap="round" stroke-linejoin="round"/>
<path d="M10 4.05362V1.41077" stroke="black" stroke-width="1.5" stroke-linecap="round" stroke-linejoin="round"/>
<path d="M10 18.5894V15.9465" stroke="black" stroke-width="1.5" stroke-linecap="round" stroke-linejoin="round"/>
<path d="M15.9453 10H18.5882" stroke="black" stroke-width="1.5" stroke-linecap="round" stroke-linejoin="round"/>
<path d="M1.41016 10H4.05301" stroke="black" stroke-width="1.5" stroke-linecap="round" stroke-linejoin="round"/>
</g>
<defs>
<clipPath id="clip0_48_150711">
<rect width="20" height="20" fill="white"/>
</clipPath>
</defs>
</svg>
