<svg width="20" height="20" viewBox="0 0 20 20" fill="none" xmlns="http://www.w3.org/2000/svg">
<path d="M2.81641 8.7351C2.81641 13.5441 7.59333 17.1995 9.35729 18.3853C9.75025 18.6495 10.2531 18.6495 10.6461 18.3853C12.41 17.1995 17.1869 13.5441 17.1869 8.7351C17.1869 4.68991 13.9699 1.41064 10.0017 1.41064C6.03336 1.41064 2.81641 4.68991 2.81641 8.7351Z" stroke="black" stroke-width="1.5" stroke-linecap="round" stroke-linejoin="round"/>
<path d="M11.6495 7.35718H8.3573C7.76731 7.35718 7.2488 7.74829 7.08672 8.31558L6.5204 10.2977C6.27921 11.1419 6.91305 11.9822 7.79098 11.9822H12.2158C13.0938 11.9822 13.7276 11.1419 13.4864 10.2977L12.9201 8.31558C12.758 7.74829 12.2395 7.35718 11.6495 7.35718Z" stroke="black" stroke-width="1.5" stroke-linecap="round" stroke-linejoin="round"/>
<path d="M8.35156 7.35697V6.3659C8.35156 5.45364 9.09109 4.71411 10.0033 4.71411C10.9156 4.71411 11.6551 5.45364 11.6551 6.3659V7.35697" stroke="black" stroke-width="1.5" stroke-linecap="round" stroke-linejoin="round"/>
</svg>
