<svg width="20" height="20" viewBox="0 0 20 20" fill="none" xmlns="http://www.w3.org/2000/svg">
<path d="M2.81641 8.7351C2.81641 13.5441 7.59333 17.1995 9.35729 18.3853C9.75025 18.6495 10.2531 18.6495 10.6461 18.3853C12.41 17.1995 17.1869 13.5441 17.1869 8.7351C17.1869 4.68991 13.9699 1.41064 10.0017 1.41064C6.03336 1.41064 2.81641 4.68991 2.81641 8.7351Z" stroke="black" stroke-width="1.5" stroke-linecap="round" stroke-linejoin="round"/>
<path d="M7.35938 8.01786C7.35938 8.71879 7.63782 9.39101 8.13345 9.88664C8.62908 10.3823 9.3013 10.6607 10.0022 10.6607C10.7032 10.6607 11.3754 10.3823 11.871 9.88664C12.3666 9.39101 12.6451 8.71879 12.6451 8.01786C12.6451 7.31693 12.3666 6.64471 11.871 6.14908C11.3754 5.65344 10.7032 5.375 10.0022 5.375C9.3013 5.375 8.62908 5.65344 8.13345 6.14908C7.63782 6.64471 7.35938 7.31693 7.35938 8.01786Z" stroke="black" stroke-width="1.5"/>
</svg>
