<svg width="20" height="20" viewBox="0 0 20 20" fill="none" xmlns="http://www.w3.org/2000/svg">
<path d="M2.81641 8.7351C2.81641 13.5441 7.59333 17.1995 9.35729 18.3853C9.75025 18.6495 10.2531 18.6495 10.6461 18.3853C12.41 17.1995 17.1869 13.5441 17.1869 8.7351C17.1869 4.68991 13.9699 1.41064 10.0017 1.41064C6.03336 1.41064 2.81641 4.68991 2.81641 8.7351Z" stroke="black" stroke-width="1.5" stroke-linecap="round" stroke-linejoin="round"/>
<path d="M7.78906 6.47894C7.78906 7.70024 8.77912 8.69029 10.0004 8.69029C10.3092 8.69029 10.6031 8.62702 10.8701 8.51273C11.659 8.17494 12.2118 7.39149 12.2118 6.47894C12.2118 5.25763 11.2217 4.26758 10.0004 4.26758C8.77912 4.26758 7.78906 5.25763 7.78906 6.47894Z" stroke="black" stroke-width="1.5" stroke-linecap="round" stroke-linejoin="round"/>
<path d="M6.16797 11.8089C6.56869 11.0467 7.13189 10.4168 7.80342 9.9797C8.47495 9.54259 9.23223 9.31299 10.0025 9.31299C10.7727 9.31299 11.53 9.54259 12.2015 9.9797C12.873 10.4168 13.4362 11.0467 13.8369 11.8089" stroke="black" stroke-width="1.5" stroke-linecap="round" stroke-linejoin="round"/>
</svg>
