<svg width="20" height="20" viewBox="0 0 20 20" fill="none" xmlns="http://www.w3.org/2000/svg">
<g clip-path="url(#clip0_48_150668)">
<path d="M1.41406 1.41382L18.5861 18.5859" stroke="black" stroke-width="1.5" stroke-linecap="round" stroke-linejoin="round"/>
<path d="M10.5955 10.5937C11.7692 10.3243 12.6445 9.27328 12.6445 8.01786C12.6445 6.55825 11.4613 5.375 10.0017 5.375C8.74623 5.375 7.69525 6.25035 7.42578 7.42402" stroke="black" stroke-width="1.5" stroke-linecap="round" stroke-linejoin="round"/>
<path d="M4.28906 4.28918C5.60209 2.53933 7.67159 1.41064 9.99969 1.41064C13.968 1.41064 17.185 4.68991 17.185 8.7351C17.185 11.0506 16.0775 13.0986 14.7322 14.7324" stroke="black" stroke-width="1.5" stroke-linecap="round" stroke-linejoin="round"/>
<path d="M3.09843 6.69629C2.91481 7.34347 2.81641 8.02754 2.81641 8.73503C2.81641 13.544 7.59333 17.1994 9.35729 18.3853C9.75025 18.6494 10.2531 18.6494 10.6461 18.3853C11.2024 18.0112 12.0584 17.3915 12.9697 16.5676" stroke="black" stroke-width="1.5" stroke-linecap="round" stroke-linejoin="round"/>
</g>
<defs>
<clipPath id="clip0_48_150668">
<rect width="20" height="20" fill="white"/>
</clipPath>
</defs>
</svg>
