<svg width="20" height="20" viewBox="0 0 20 20" fill="none" xmlns="http://www.w3.org/2000/svg">
<g id="logout-3-1">
<g id="logout-3--arrow-enter-right-logout-point-square">
<path id="Vector" d="M15.9459 15.9467C15.9459 16.2972 15.8066 16.6333 15.5588 16.8811C15.3111 17.1289 14.9749 17.2681 14.6244 17.2681H2.73158C2.38112 17.2681 2.04501 17.1289 1.79719 16.8811C1.54938 16.6333 1.41016 16.2972 1.41016 15.9467V4.05385C1.41016 3.70338 1.54938 3.36728 1.79719 3.11946C2.04501 2.87165 2.38112 2.73242 2.73158 2.73242H14.6244C14.9749 2.73242 15.3111 2.87165 15.5588 3.11946C15.8066 3.36728 15.9459 3.70338 15.9459 4.05385" stroke="black" stroke-width="1.5" stroke-linecap="round" stroke-linejoin="round"/>
<path id="Vector_2" d="M8.67969 10H18.5904" stroke="black" stroke-width="1.5" stroke-linecap="round" stroke-linejoin="round"/>
<path id="Vector_3" d="M15.9453 7.35742L18.5882 10.0003L15.9453 12.6431" stroke="black" stroke-width="1.5" stroke-linecap="round" stroke-linejoin="round"/>
</g>
</g>
</svg>
