<svg width="20" height="20" viewBox="0 0 20 20" fill="none" xmlns="http://www.w3.org/2000/svg">
<g id="lowercase-98">
<g id="lowercase">
<path id="Vector 11" d="M9.33854 13.3032C8.60873 13.3032 8.01712 12.7115 8.01712 11.9817V8.01744C8.01712 6.19293 6.53805 4.71387 4.71354 4.71387C3.28706 4.71387 2.07174 5.61798 1.60938 6.88443" stroke="black" stroke-width="1.5" stroke-linecap="round" stroke-linejoin="round"/>
<path id="Vector 12" d="M8.0173 8.67773H3.72266C2.4455 8.67773 1.41016 9.71307 1.41016 10.9902C1.41016 12.2674 2.4455 13.3027 3.72266 13.3027H4.71373C6.53824 13.3027 8.0173 11.8237 8.0173 9.99916" stroke="black" stroke-width="1.5" stroke-linecap="round" stroke-linejoin="round"/>
<path id="Vector 13" d="M11.9805 9.99958V8.01744C11.9805 6.19293 13.4595 4.71387 15.284 4.71387C17.1085 4.71387 18.5876 6.19293 18.5876 8.01744V9.99958C18.5876 11.8241 17.1085 13.3032 15.284 13.3032C13.4595 13.3032 11.9805 11.8241 11.9805 9.99958Z" stroke="black" stroke-width="1.5" stroke-linecap="round" stroke-linejoin="round"/>
<path id="Vector 14" d="M18.5873 4.71387V14.6246C18.5873 16.4491 17.1082 17.9282 15.2837 17.9282C13.6933 17.9282 12.3653 16.8041 12.0508 15.3072" stroke="black" stroke-width="1.5" stroke-linecap="round" stroke-linejoin="round"/>
</g>
</g>
</svg>
