<svg width="20" height="20" viewBox="0 0 20 20" fill="none" xmlns="http://www.w3.org/2000/svg">
<g id="magic-wand-2-1" clip-path="url(#clip0_47_147100)">
<g id="magic-wand-2--design-magic-star-supplies-tool-wand">
<path id="Vector" d="M17.4506 3.22103L16.3405 6.49817C16.3022 6.57395 16.2823 6.6577 16.2823 6.74263C16.2823 6.82756 16.3022 6.9113 16.3405 6.9871L18.4152 9.7621C18.4748 9.84152 18.5109 9.93614 18.5192 10.0351C18.5275 10.1341 18.5078 10.2334 18.4622 10.3216C18.4168 10.4099 18.3473 10.4836 18.2619 10.5342C18.1764 10.5848 18.0785 10.6103 17.9791 10.6078H14.517C14.4321 10.6103 14.3489 10.6318 14.2734 10.6706C14.198 10.7095 14.1322 10.7648 14.0809 10.8325L12.1517 13.6075C12.0951 13.6886 12.0169 13.7522 11.9259 13.7911C11.835 13.8299 11.7349 13.8425 11.6372 13.8274C11.5395 13.8122 11.4479 13.77 11.373 13.7054C11.2981 13.6408 11.2428 13.5565 11.2134 13.4621L10.1827 10.1585C10.1592 10.0769 10.1154 10.0025 10.0553 9.94242C9.99517 9.88232 9.92081 9.83846 9.83916 9.81495L6.53559 8.78424C6.44115 8.75485 6.35685 8.69955 6.29227 8.62464C6.2277 8.54973 6.18544 8.4582 6.17029 8.36046C6.15515 8.26272 6.16774 8.16271 6.20662 8.07176C6.2455 7.98081 6.30911 7.90261 6.39023 7.84602L9.21808 5.85067C9.28572 5.79937 9.34101 5.73358 9.37988 5.65812C9.41876 5.58266 9.44023 5.49945 9.44272 5.4146V1.95245C9.44642 1.86152 9.47352 1.77308 9.52142 1.69569C9.56932 1.61831 9.63639 1.5546 9.71614 1.51074C9.79588 1.46688 9.8856 1.44436 9.9766 1.44534C10.0676 1.44633 10.1568 1.4708 10.2356 1.51638L13.0106 3.59103C13.081 3.63994 13.1621 3.67146 13.2471 3.68294C13.3321 3.69443 13.4186 3.68557 13.4995 3.6571L16.7766 2.5471C16.8706 2.51406 16.9721 2.50826 17.0692 2.53037C17.1663 2.55246 17.2552 2.60157 17.3257 2.67201C17.3961 2.74244 17.4453 2.83136 17.4673 2.9285C17.4894 3.02564 17.4836 3.12703 17.4506 3.22103Z" stroke="black" stroke-width="1.5" stroke-linecap="round" stroke-linejoin="round"/>
<path id="Vector_2" d="M10.0523 9.94727L1.41016 18.5895" stroke="black" stroke-width="1.5" stroke-linecap="round" stroke-linejoin="round"/>
</g>
</g>
<defs>
<clipPath id="clip0_47_147100">
<rect width="20" height="20" fill="white"/>
</clipPath>
</defs>
</svg>
