<svg width="20" height="20" viewBox="0 0 20 20" fill="none" xmlns="http://www.w3.org/2000/svg">
<g id="magnifier-93" clip-path="url(#clip0_47_148011)">
<g id="magnifier">
<path id="vector" d="M12.3962 18.5649C15.7259 18.5649 18.4252 15.8655 18.4252 12.5359C18.4252 9.20612 15.7259 6.50684 12.3962 6.50684C9.06647 6.50684 6.36719 9.20612 6.36719 12.5359C6.36719 15.8655 9.06647 18.5649 12.3962 18.5649Z" stroke="black" stroke-width="1.5" stroke-linecap="round" stroke-linejoin="round"/>
<path id="Vector 1" d="M1.66016 15.5335L3.20186 10.9084M3.20186 10.9084L5.9196 2.75513C6.13795 2.10006 6.75099 1.6582 7.4415 1.6582C8.13201 1.6582 8.74506 2.10006 8.96342 2.75513L9.44431 4.19782M3.20186 10.9084H4.2618" stroke="black" stroke-width="1.5" stroke-linecap="round" stroke-linejoin="round"/>
<path id="Vector 2" d="M11.3574 11.646L10.9723 10.3495L10.0573 7.35645M11.3574 11.646H6.42969M11.3574 11.646L12.2729 14.7275" stroke="black" stroke-width="1.5" stroke-linecap="round" stroke-linejoin="round"/>
</g>
</g>
<defs>
<clipPath id="clip0_47_148011">
<rect width="20" height="20" fill="white"/>
</clipPath>
</defs>
</svg>
