<svg width="20" height="20" viewBox="0 0 20 20" fill="none" xmlns="http://www.w3.org/2000/svg">
<g id="magnifying-glass-circle-9" clip-path="url(#clip0_47_146904)">
<g id="magnifying-glass-circle--circle-glass-search-magnifying">
<path id="Vector" d="M9.99944 18.5897C14.7432 18.5897 18.5887 14.7442 18.5887 10.0004C18.5887 5.25669 14.7432 1.41113 9.99944 1.41113C5.25571 1.41113 1.41016 5.25669 1.41016 10.0004C1.41016 14.7442 5.25571 18.5897 9.99944 18.5897Z" stroke="black" stroke-width="1.5" stroke-linecap="round" stroke-linejoin="round"/>
<path id="Vector_2" d="M9.33873 12.6433C11.1632 12.6433 12.6423 11.1642 12.6423 9.3397C12.6423 7.51519 11.1632 6.03613 9.33873 6.03613C7.51422 6.03613 6.03516 7.51519 6.03516 9.3397C6.03516 11.1642 7.51422 12.6433 9.33873 12.6433Z" stroke="black" stroke-width="1.5" stroke-linecap="round" stroke-linejoin="round"/>
<path id="Vector_3" d="M13.9618 13.9648L11.6758 11.6787" stroke="black" stroke-width="1.5" stroke-linecap="round" stroke-linejoin="round"/>
</g>
</g>
<defs>
<clipPath id="clip0_47_146904">
<rect width="20" height="20" fill="white"/>
</clipPath>
</defs>
</svg>
