<svg width="21" height="21" viewBox="0 0 21 21" fill="none" xmlns="http://www.w3.org/2000/svg">
<g clip-path="url(#clip0_146_403425)">
<path d="M7.71317 13.9821H2.83817C2.46875 13.9821 2.11448 13.8354 1.85327 13.5742C1.59206 13.313 1.44531 12.9587 1.44531 12.5893V2.83927C1.44531 2.46985 1.59206 2.11558 1.85327 1.85437C2.11448 1.59316 2.46875 1.44641 2.83817 1.44641H16.7667C17.1361 1.44641 17.4904 1.59316 17.7516 1.85437C18.0129 2.11558 18.1596 2.46985 18.1596 2.83927V7.71427" stroke="black" stroke-width="1.5" stroke-linecap="round" stroke-linejoin="round"/>
<path d="M1.44531 3.20142L9.80245 9.10713L18.1596 3.20142" stroke="black" stroke-width="1.5" stroke-linecap="round" stroke-linejoin="round"/>
<path d="M15.332 9.80359V11.8929" stroke="black" stroke-width="1.5" stroke-linecap="round" stroke-linejoin="round"/>
<path d="M11.1133 12.2411L12.924 13.2857" stroke="black" stroke-width="1.5" stroke-linecap="round" stroke-linejoin="round"/>
<path d="M11.1133 17.1161L12.924 16.0714" stroke="black" stroke-width="1.5" stroke-linecap="round" stroke-linejoin="round"/>
<path d="M15.332 19.5535V17.4642" stroke="black" stroke-width="1.5" stroke-linecap="round" stroke-linejoin="round"/>
<path d="M19.5529 17.1161L17.7422 16.0714" stroke="black" stroke-width="1.5" stroke-linecap="round" stroke-linejoin="round"/>
<path d="M19.5529 12.2411L17.7422 13.2857" stroke="black" stroke-width="1.5" stroke-linecap="round" stroke-linejoin="round"/>
<path d="M15.3326 17.4642C16.8711 17.4642 18.1183 16.2171 18.1183 14.6785C18.1183 13.14 16.8711 11.8928 15.3326 11.8928C13.7941 11.8928 12.5469 13.14 12.5469 14.6785C12.5469 16.2171 13.7941 17.4642 15.3326 17.4642Z" stroke="black" stroke-width="1.5" stroke-linecap="round" stroke-linejoin="round"/>
</g>
<defs>
<clipPath id="clip0_146_403425">
<rect width="21" height="21" fill="white"/>
</clipPath>
</defs>
</svg>
