<svg width="21" height="21" viewBox="0 0 21 21" fill="none" xmlns="http://www.w3.org/2000/svg">
<g clip-path="url(#clip0_146_403394)">
<path d="M7.71317 13.9821H2.83817C2.46876 13.9821 2.11448 13.8354 1.85327 13.5742C1.59206 13.313 1.44531 12.9587 1.44531 12.5893V2.83927C1.44531 2.46985 1.59206 2.11558 1.85327 1.85437C2.11448 1.59316 2.46876 1.44641 2.83817 1.44641H16.7667C17.1361 1.44641 17.4905 1.59316 17.7516 1.85437C18.0128 2.11558 18.1596 2.46985 18.1596 2.83927V8.4107" stroke="black" stroke-width="1.5" stroke-linecap="round" stroke-linejoin="round"/>
<path d="M1.44531 3.20142L9.80246 9.10713L18.1596 3.20142" stroke="black" stroke-width="1.5" stroke-linecap="round" stroke-linejoin="round"/>
<path d="M14.6775 18.1607C16.6006 18.1607 18.1596 16.6017 18.1596 14.6786C18.1596 12.7554 16.6006 11.1964 14.6775 11.1964C12.7543 11.1964 11.1953 12.7554 11.1953 14.6786C11.1953 16.6017 12.7543 18.1607 14.6775 18.1607Z" stroke="black" stroke-width="1.5" stroke-linecap="round" stroke-linejoin="round"/>
<path d="M19.5542 19.5536L17.1445 17.1439" stroke="black" stroke-width="1.5" stroke-linecap="round" stroke-linejoin="round"/>
</g>
<defs>
<clipPath id="clip0_146_403394">
<rect width="21" height="21" fill="white"/>
</clipPath>
</defs>
</svg>
