<svg width="21" height="21" viewBox="0 0 21 21" fill="none" xmlns="http://www.w3.org/2000/svg">
<path d="M16.072 9.80352C17.9951 9.80352 19.5541 8.24451 19.5541 6.32138C19.5541 4.39824 17.9951 2.83923 16.072 2.83923C14.1489 2.83923 12.5898 4.39824 12.5898 6.32138C12.5898 8.24451 14.1489 9.80352 16.072 9.80352Z" stroke="black" stroke-width="1.5" stroke-linecap="round" stroke-linejoin="round"/>
<path d="M18.1596 13.2857V18.1607C18.1596 18.5301 18.0128 18.8844 17.7516 19.1456C17.4905 19.4067 17.1361 19.5535 16.7667 19.5535H2.83817C2.46876 19.5535 2.11448 19.4067 1.85327 19.1456C1.59206 18.8844 1.44531 18.5301 1.44531 18.1607V8.41068C1.44531 8.04127 1.59206 7.68699 1.85327 7.42578C2.11448 7.16457 2.46876 7.01782 2.83817 7.01782H8.4096" stroke="black" stroke-width="1.5" stroke-linecap="round" stroke-linejoin="round"/>
<path d="M1.44531 8.77283L9.80246 14.6785L12.6857 12.645" stroke="black" stroke-width="1.5" stroke-linecap="round" stroke-linejoin="round"/>
</svg>
