<svg width="21" height="21" viewBox="0 0 21 21" fill="none" xmlns="http://www.w3.org/2000/svg">
<g clip-path="url(#clip0_146_403411)">
<path d="M1.44531 10.5C1.44531 12.9011 2.39917 15.204 4.09704 16.9018C5.79492 18.5997 8.09773 19.5536 10.4989 19.5536C12.9 19.5536 15.2029 18.5997 16.9007 16.9018C18.5986 15.204 19.5525 12.9011 19.5525 10.5C19.5525 8.09883 18.5986 5.79601 16.9007 4.09814C15.2029 2.40027 12.9 1.44641 10.4989 1.44641C8.09773 1.44641 5.79492 2.40027 4.09704 4.09814C2.39917 5.79601 1.44531 8.09883 1.44531 10.5Z" stroke="black" stroke-width="1.5" stroke-linecap="round" stroke-linejoin="round"/>
<path d="M9.10435 11.8928L4.92578 9.80355L14.6758 6.32141L11.1936 16.0714L9.10435 11.8928Z" stroke="black" stroke-width="1.5" stroke-linecap="round" stroke-linejoin="round"/>
<path d="M9.10547 11.8929L10.4983 10.5" stroke="black" stroke-width="1.5" stroke-linecap="round" stroke-linejoin="round"/>
</g>
<defs>
<clipPath id="clip0_146_403411">
<rect width="21" height="21" fill="white"/>
</clipPath>
</defs>
</svg>
