<svg width="20" height="20" viewBox="0 0 20 20" fill="none" xmlns="http://www.w3.org/2000/svg">
<g id="manual-book-29">
<g id="manual-book">
<path id="vector" d="M8.01562 6.10665C8.01562 5.71462 8.13187 5.3314 8.34968 5.00544C8.56748 4.67947 8.87705 4.42541 9.23923 4.27539C9.60142 4.12537 9.99996 4.08612 10.3845 4.16259C10.769 4.23908 11.1221 4.42786 11.3994 4.70507C11.6766 4.98228 11.8653 5.33545 11.9418 5.71996C12.0183 6.10446 11.9791 6.503 11.829 6.86519C11.679 7.22738 11.425 7.53694 11.099 7.75475C10.773 7.97255 10.3898 8.0888 9.99777 8.0888V8.74951" stroke="black" stroke-width="1.5" stroke-linecap="round" stroke-linejoin="round"/>
<g id="Group 14">
<path id="vector_2" d="M9.99833 11.4749C9.81588 11.4749 9.66797 11.327 9.66797 11.1446C9.66797 10.9621 9.81588 10.8142 9.99833 10.8142" stroke="black" stroke-width="1.5" stroke-linecap="round" stroke-linejoin="round"/>
<path id="vector_3" d="M10 11.4749C10.1824 11.4749 10.3304 11.327 10.3304 11.1446C10.3304 10.9621 10.1824 10.8142 10 10.8142" stroke="black" stroke-width="1.5" stroke-linecap="round" stroke-linejoin="round"/>
</g>
<path id="vector_4" d="M17.2662 18.5892H4.71261C4.18692 18.5892 3.68274 18.3804 3.31103 18.0087C2.93931 17.637 2.73047 17.1327 2.73047 16.6071C2.73047 16.0814 2.93931 15.5772 3.31103 15.2054C3.68274 14.8337 4.18692 14.6249 4.71261 14.6249H15.9448C16.2952 14.6249 16.6314 14.4857 16.8791 14.2379C17.1269 13.9901 17.2662 13.654 17.2662 13.3035V2.73207C17.2662 2.3816 17.1269 2.0455 16.8791 1.79768C16.6314 1.54987 16.2952 1.41064 15.9448 1.41064H4.71261C4.19595 1.41046 3.69963 1.61202 3.32939 1.97239C2.95914 2.33276 2.74425 2.82345 2.73047 3.33993V16.5542" stroke="black" stroke-width="1.5" stroke-linecap="round" stroke-linejoin="round"/>
<path id="vector_5" d="M15.9453 14.625V18.5893" stroke="black" stroke-width="1.5" stroke-linecap="round" stroke-linejoin="round"/>
</g>
</g>
</svg>
