<svg width="21" height="21" viewBox="0 0 21 21" fill="none" xmlns="http://www.w3.org/2000/svg">
<path d="M1.44531 5.62503C1.44531 4.85579 2.06892 4.23218 2.83817 4.23218H18.1596C18.9288 4.23218 19.5524 4.85579 19.5524 5.62503V15.375C19.5524 16.1443 18.9288 16.7679 18.1596 16.7679H2.83817C2.06892 16.7679 1.44531 16.1443 1.44531 15.375V5.62503Z" stroke="black" stroke-width="1.5" stroke-linecap="round" stroke-linejoin="round"/>
<path d="M5.625 13.2858V8.05271C5.625 7.86584 5.77649 7.71436 5.96335 7.71436C6.09651 7.71436 6.21728 7.79245 6.27191 7.91388L7.32121 10.246C7.39077 10.4006 7.54455 10.5001 7.7141 10.5001C7.88363 10.5001 8.0374 10.4006 8.10697 10.2461L9.1566 7.91385C9.21126 7.79244 9.33202 7.71436 9.46516 7.71436C9.65204 7.71436 9.80354 7.86584 9.80354 8.05272V13.2858" stroke="black" stroke-width="1.5" stroke-linecap="round" stroke-linejoin="round"/>
<path d="M13.9805 7.71436V13.2857" stroke="black" stroke-width="1.5" stroke-linecap="round" stroke-linejoin="round"/>
<path d="M12.5898 11.8929L13.9827 13.2858L15.3756 11.8929" stroke="black" stroke-width="1.5" stroke-linecap="round" stroke-linejoin="round"/>
</svg>
