<svg width="20" height="20" viewBox="0 0 20 20" fill="none" xmlns="http://www.w3.org/2000/svg">
<g id="megaphone-1-8">
<g id="megaphone-1--bullhorn-loud-megaphone-share-speaker-transmit">
<path id="Vector" d="M17.7166 16.6991L2.29551 11.3209C2.04389 11.2331 1.8247 11.0713 1.66669 10.8567C1.50869 10.6421 1.41927 10.3847 1.41016 10.1184V8.67803C1.41125 8.40486 1.49696 8.13875 1.65551 7.9163C1.81406 7.69387 2.03765 7.52602 2.29551 7.43588L17.7166 2.07088C17.8156 2.03744 17.9211 2.02796 18.0245 2.04321C18.1279 2.05847 18.2261 2.09804 18.3112 2.15865C18.3965 2.21927 18.466 2.29921 18.5142 2.39192C18.5624 2.48463 18.5879 2.58746 18.5887 2.69195V16.078C18.5879 16.1825 18.5624 16.2853 18.5142 16.3781C18.466 16.4707 18.3965 16.5507 18.3112 16.6113C18.2261 16.672 18.1279 16.7115 18.0245 16.7268C17.9211 16.742 17.8156 16.7325 17.7166 16.6991Z" stroke="black" stroke-width="1.5" stroke-linecap="round" stroke-linejoin="round"/>
<path id="Vector_2" d="M11.9563 14.7173C11.845 15.6351 11.3881 16.4762 10.6785 17.0689C9.96884 17.6617 9.05995 17.9616 8.13691 17.9079C7.21385 17.8539 6.34607 17.4501 5.71028 16.7788C5.07448 16.1075 4.7185 15.219 4.71484 14.2944V12.1934" stroke="black" stroke-width="1.5" stroke-linecap="round" stroke-linejoin="round"/>
</g>
</g>
</svg>
