<svg width="20" height="20" viewBox="0 0 20 20" fill="none" xmlns="http://www.w3.org/2000/svg">
<g id="memes-comment-reply-20" clip-path="url(#clip0_47_143765)">
<g id="memes-comment-reply">
<path id="vector 2103" d="M1.60547 9.05127H4.10992" stroke="black" stroke-width="1.5" stroke-linecap="round" stroke-linejoin="round"/>
<path id="vector 2104" d="M10.1289 9.05103H12.3748" stroke="black" stroke-width="1.5" stroke-linecap="round" stroke-linejoin="round"/>
<path id="vector 2105" d="M4.10938 12.1348V7.77734H10.1271V12.1348H4.10938Z" stroke="black" stroke-width="1.5" stroke-linecap="round" stroke-linejoin="round"/>
<path id="vector 2106" d="M12.375 12.1348V7.77734H18.3927V12.1348H12.375Z" stroke="black" stroke-width="1.5" stroke-linecap="round" stroke-linejoin="round"/>
<path id="vector 2107" d="M6.52734 14.2983C6.90281 14.6837 8.16363 15.4426 10.2031 15.3951" stroke="black" stroke-width="1.5" stroke-linecap="round" stroke-linejoin="round"/>
<path id="union" d="M17.5297 7.85585V1.51196C16.2125 2.26099 13.903 3.57698 12.6965 4.27255C11.736 3.89044 10.6784 3.67892 9.56759 3.67892C8.50703 3.67892 7.49488 3.87176 6.56951 4.22179C5.2849 3.51456 2.95064 2.24322 1.60547 1.51208V11.7209C1.93705 15.5268 5.3897 18.4879 9.56759 18.4879C13.5651 18.4879 16.8731 15.7055 17.4419 12.1351" stroke="black" stroke-width="1.5" stroke-linejoin="round"/>
</g>
</g>
<defs>
<clipPath id="clip0_47_143765">
<rect width="20" height="20" fill="white"/>
</clipPath>
</defs>
</svg>
