<svg width="21" height="21" viewBox="0 0 21 21" fill="none" xmlns="http://www.w3.org/2000/svg">
<path d="M2.03125 9.80352C2.03125 7.95648 2.76498 6.18509 4.07104 4.87903C5.3771 3.57296 7.1485 2.83923 8.99554 2.83923C10.8426 2.83923 12.614 3.57296 13.92 4.87903C15.2261 6.18509 15.9598 7.95648 15.9598 9.80352V13.2857H2.03125V9.80352Z" stroke="black" stroke-width="1.5" stroke-linecap="round" stroke-linejoin="round"/>
<path d="M2.02983 13.2856L1.57019 16.5728C1.54042 16.7706 1.55363 16.9725 1.60891 17.1649C1.66419 17.3571 1.76025 17.5353 1.89054 17.6871C2.02261 17.8374 2.18552 17.9576 2.3682 18.0393C2.55087 18.1209 2.749 18.1625 2.94911 18.1606H6.68197C6.95538 18.1604 7.22267 18.0797 7.45054 17.9286C7.67841 17.7776 7.85678 17.5627 7.9634 17.311L9.69054 13.2856" stroke="black" stroke-width="1.5" stroke-linecap="round" stroke-linejoin="round"/>
<path d="M15.957 13.2857H19.4392V7.01782H15.957" stroke="black" stroke-width="1.5" stroke-linecap="round" stroke-linejoin="round"/>
<path d="M2.03125 9.80347H15.9598" stroke="black" stroke-width="1.5" stroke-linecap="round" stroke-linejoin="round"/>
</svg>
