<svg width="20" height="20" viewBox="0 0 20 20" fill="none" xmlns="http://www.w3.org/2000/svg">
<g id="minimize" clip-path="url(#clip0_47_146854)">
<g id="minimize_2">
<path id="Vector 1024" d="M18.5866 1.41211L11.3711 8.627" stroke="black" stroke-width="1.5" stroke-linecap="round" stroke-linejoin="round"/>
<path id="Vector 1025" d="M14.8064 8.62766H11.3711V5.19238" stroke="black" stroke-width="1.5" stroke-linecap="round" stroke-linejoin="round"/>
<path id="Vector" d="M9.3116 17.2158C9.3116 17.9747 8.6964 18.5898 7.9375 18.5898" stroke="black" stroke-width="1.5" stroke-linecap="round" stroke-linejoin="round"/>
<path id="Vector_2" d="M1.41016 17.2158C1.41016 17.9747 2.02537 18.5898 2.78426 18.5898" stroke="black" stroke-width="1.5" stroke-linecap="round" stroke-linejoin="round"/>
<path id="Vector_3" d="M1.41016 12.7501C1.41016 11.9912 2.02537 11.376 2.78426 11.376" stroke="black" stroke-width="1.5" stroke-linecap="round" stroke-linejoin="round"/>
<path id="Vector_4" d="M9.3116 12.7501C9.3116 11.9912 8.6964 11.376 7.9375 11.376" stroke="black" stroke-width="1.5" stroke-linecap="round" stroke-linejoin="round"/>
<path id="Vector 1033" d="M12.4023 18.5876H17.3451C18.0304 18.5876 18.5859 18.0322 18.5859 17.3469V6.2207" stroke="black" stroke-width="1.5" stroke-linecap="round" stroke-linejoin="round"/>
<path id="Vector 1037" d="M1.41016 7.59461V2.65186C1.41016 1.96663 1.96565 1.41113 2.65089 1.41113H13.7771" stroke="black" stroke-width="1.5" stroke-linecap="round" stroke-linejoin="round"/>
</g>
</g>
<defs>
<clipPath id="clip0_47_146854">
<rect width="20" height="20" fill="white"/>
</clipPath>
</defs>
</svg>
