<svg width="21" height="21" viewBox="0 0 21 21" fill="none" xmlns="http://www.w3.org/2000/svg">
<g clip-path="url(#clip0_146_398914)">
<path d="M19.5525 3.53564H1.44531" stroke="black" stroke-width="1.5" stroke-linecap="round" stroke-linejoin="round"/>
<path d="M17.4648 5.62498L19.5541 3.5357L17.4648 1.44641" stroke="black" stroke-width="1.5" stroke-linecap="round" stroke-linejoin="round"/>
<path d="M3.5346 5.62498L1.44531 3.5357L3.5346 1.44641" stroke="black" stroke-width="1.5" stroke-linecap="round" stroke-linejoin="round"/>
<path d="M7.71444 19.5536H2.14301C1.56912 19.5536 1.24153 18.8984 1.58586 18.4393L7.85372 10.0822C8.25528 9.54675 9.10729 9.83075 9.10729 10.5V18.1607C9.10729 18.93 8.48368 19.5536 7.71444 19.5536Z" stroke="black" stroke-width="1.5" stroke-linecap="round" stroke-linejoin="round"/>
<path d="M13.2835 19.5536H18.8549C19.4288 19.5536 19.7564 18.8984 19.4121 18.4393L13.1442 10.0822C12.7426 9.54675 11.8906 9.83075 11.8906 10.5V18.1607C11.8906 18.93 12.5142 19.5536 13.2835 19.5536Z" stroke="black" stroke-width="1.5" stroke-linecap="round" stroke-linejoin="round"/>
</g>
<defs>
<clipPath id="clip0_146_398914">
<rect width="21" height="21" fill="white"/>
</clipPath>
</defs>
</svg>
