<svg width="21" height="21" viewBox="0 0 21 21" fill="none" xmlns="http://www.w3.org/2000/svg">
<g clip-path="url(#clip0_146_400379)">
<path d="M19.4462 13.255C19.4456 12.7721 19.3182 12.2978 19.0764 11.8798C18.8346 11.4617 18.4871 11.1146 18.0686 10.8734C17.6504 10.6321 17.1758 10.5052 16.6929 10.5053C16.21 10.5054 15.7356 10.6326 15.3173 10.8741V7.06182C15.3173 6.69682 15.1723 6.34676 14.9142 6.08866C14.6562 5.83056 14.3061 5.68555 13.9411 5.68555H10.1288C10.3715 5.26721 10.4997 4.79229 10.5004 4.30865C10.5012 3.82499 10.3745 3.34969 10.1331 2.93059C9.89167 2.51148 9.54411 2.16339 9.12538 1.92135C8.70666 1.67932 8.23154 1.55188 7.7479 1.55188C7.26424 1.55188 6.78914 1.67932 6.3704 1.92135C5.95168 2.16339 5.60411 2.51148 5.36273 2.93059C5.12133 3.34969 4.99462 3.82499 4.99536 4.30865C4.9961 4.79229 5.12427 5.26721 5.36695 5.68555H2.93095C2.56595 5.68555 2.21589 5.83056 1.95779 6.08866C1.69969 6.34676 1.55469 6.69682 1.55469 7.06182V9.89694C1.77985 9.84152 2.01094 9.81379 2.24282 9.81436C2.97283 9.81436 3.67295 10.1044 4.18916 10.6206C4.70535 11.1368 4.99536 11.8369 4.99536 12.5669C4.99536 13.2969 4.70535 13.997 4.18916 14.5132C3.67295 15.0295 2.97283 15.3195 2.24282 15.3195C2.01094 15.32 1.77985 15.2923 1.55469 15.2369V18.072C1.55469 18.437 1.69969 18.787 1.95779 19.0451C2.21589 19.3033 2.56595 19.4483 2.93095 19.4483H6.4542C6.39878 19.2231 6.37104 18.992 6.37163 18.7601C6.37163 18.0301 6.66162 17.3299 7.17783 16.8137C7.69402 16.2975 8.39414 16.0075 9.12417 16.0075C9.85418 16.0075 10.5543 16.2975 11.0705 16.8137C11.5867 17.3299 11.8767 18.0301 11.8767 18.7601C11.8773 18.992 11.8496 19.2231 11.7941 19.4483H13.9411C14.3061 19.4483 14.6562 19.3033 14.9142 19.0451C15.1723 18.787 15.3173 18.437 15.3173 18.072V15.6359C15.7356 15.8774 16.21 16.0046 16.6929 16.0047C17.1758 16.0049 17.6504 15.878 18.0686 15.6368C18.4871 15.3954 18.8346 15.0484 19.0764 14.6303C19.3182 14.2123 19.4456 13.738 19.4462 13.255Z" stroke="black" stroke-width="1.5" stroke-linecap="round" stroke-linejoin="round"/>
</g>
<defs>
<clipPath id="clip0_146_400379">
<rect width="21" height="21" fill="white"/>
</clipPath>
</defs>
</svg>
