<svg width="21" height="21" viewBox="0 0 21 21" fill="none" xmlns="http://www.w3.org/2000/svg">
<g clip-path="url(#clip0_146_400382)">
<path d="M18.1596 1.44641H2.83817C2.06892 1.44641 1.44531 2.07001 1.44531 2.83927V18.1607C1.44531 18.93 2.06892 19.5536 2.83817 19.5536H18.1596C18.9289 19.5536 19.5525 18.93 19.5525 18.1607V2.83927C19.5525 2.07001 18.9289 1.44641 18.1596 1.44641Z" stroke="black" stroke-width="1.5" stroke-linecap="round" stroke-linejoin="round"/>
<path d="M10.4978 1.44641V4.41591C10.1281 4.08508 9.64002 3.88391 9.10491 3.88391C7.95103 3.88391 7.01562 4.81931 7.01562 5.9732C7.01562 7.12708 7.95103 8.06248 9.10491 8.06248C9.64002 8.06248 10.1281 7.86131 10.4978 7.53048V13.4695C10.8674 13.1387 11.3555 12.9375 11.8906 12.9375C13.0445 12.9375 13.9799 13.8729 13.9799 15.0268C13.9799 16.1806 13.0445 17.1161 11.8906 17.1161C11.3555 17.1161 10.8674 16.9149 10.4978 16.5841V19.5536" stroke="black" stroke-width="1.5" stroke-linecap="round" stroke-linejoin="round"/>
<path d="M1.44531 10.5H4.41481C4.08398 10.8696 3.88281 11.3577 3.88281 11.8928C3.88281 13.0467 4.81821 13.9821 5.9721 13.9821C7.12598 13.9821 8.06138 13.0467 8.06138 11.8928C8.06138 11.3577 7.86021 10.8696 7.52938 10.5H13.4684C13.1376 10.1303 12.9364 9.64222 12.9364 9.10711C12.9364 7.95322 13.8718 7.01782 15.0257 7.01782C16.1795 7.01782 17.115 7.95322 17.115 9.10711C17.115 9.64222 16.9138 10.1303 16.583 10.5H19.5525" stroke="black" stroke-width="1.5" stroke-linecap="round" stroke-linejoin="round"/>
</g>
<defs>
<clipPath id="clip0_146_400382">
<rect width="21" height="21" fill="white"/>
</clipPath>
</defs>
</svg>
