<svg width="21" height="21" viewBox="0 0 21 21" fill="none" xmlns="http://www.w3.org/2000/svg">
<g clip-path="url(#clip0_146_400376)">
<path d="M6.46059 2.43728C6.96065 2.9257 7.25801 3.58482 7.29322 4.28295L9.83278 1.75729C9.92 1.6595 10.0269 1.58126 10.1465 1.52768C10.2661 1.47411 10.3956 1.44641 10.5266 1.44641C10.6577 1.44641 10.7872 1.47411 10.9068 1.52768C11.0264 1.58126 11.1333 1.6595 11.2205 1.75729L13.2743 3.89439C12.9826 4.03584 12.7156 4.22327 12.4833 4.44948C11.9891 4.99306 11.723 5.70606 11.7405 6.44056C11.7579 7.17505 12.0574 7.87464 12.577 8.39415C13.0965 8.91367 13.7961 9.21322 14.5306 9.23066C15.2651 9.24808 15.9781 8.98206 16.5216 8.48778C16.7478 8.25555 16.9353 7.98848 17.0767 7.69677L19.2416 9.83388C19.3393 9.9211 19.4176 10.028 19.4713 10.1476C19.5247 10.2672 19.5525 10.3967 19.5525 10.5277C19.5525 10.6588 19.5247 10.7883 19.4713 10.9079C19.4176 11.0275 19.3393 11.1344 19.2416 11.2216L16.7159 13.7056C17.2629 13.7387 17.7888 13.9291 18.2302 14.2539C18.6716 14.5787 19.0098 15.0241 19.2041 15.5364C19.3985 16.0488 19.4407 16.6065 19.3257 17.1424C19.2106 17.6782 18.9434 18.1693 18.5559 18.557C18.1682 18.9445 17.6771 19.2117 17.1413 19.3268C16.6054 19.4418 16.0477 19.3996 15.5353 19.2052C15.023 19.0109 14.5776 18.6727 14.2528 18.2313C13.928 17.7899 13.7376 17.264 13.7045 16.717L11.165 19.2427C11.0778 19.3404 10.9709 19.4187 10.8513 19.4724C10.7317 19.5258 10.6022 19.5536 10.4711 19.5536C10.3401 19.5536 10.2105 19.5258 10.091 19.4724C9.9714 19.4187 9.86448 19.3404 9.77726 19.2427L7.72342 17.1056C8.01513 16.9641 8.28221 16.7768 8.51442 16.5504C9.04994 16.0112 9.34933 15.2815 9.34673 14.5215C9.34412 13.7616 9.03974 13.0338 8.50055 12.4983C7.96136 11.9628 7.23152 11.6634 6.47159 11.666C5.71166 11.6686 4.98389 11.973 4.44838 12.5122C4.22217 12.7444 4.03475 13.0115 3.89329 13.3032L1.75619 11.1661C1.6584 11.0789 1.58016 10.972 1.52658 10.8524C1.47301 10.7328 1.44531 10.6033 1.44531 10.4722C1.44531 10.3412 1.47301 10.2116 1.52658 10.0921C1.58016 9.97249 1.6584 9.86558 1.75619 9.77836L4.28185 7.29432C3.58372 7.25911 2.9246 6.96175 2.43618 6.46169C1.90251 5.92801 1.60269 5.2042 1.60269 4.44948C1.60269 3.69476 1.90251 2.97095 2.43618 2.43728C2.96985 1.9036 3.69366 1.60379 4.44838 1.60379C5.2031 1.60379 5.92691 1.9036 6.46059 2.43728Z" stroke="black" stroke-width="1.5" stroke-linecap="round" stroke-linejoin="round"/>
</g>
<defs>
<clipPath id="clip0_146_400376">
<rect width="21" height="21" fill="white"/>
</clipPath>
</defs>
</svg>
