<svg width="21" height="21" viewBox="0 0 21 21" fill="none" xmlns="http://www.w3.org/2000/svg">
<path d="M8.74984 9.24935H1.24984C0.7896 9.24935 0.416504 8.87625 0.416504 8.41602V1.74935C0.416504 1.28911 0.7896 0.916016 1.24984 0.916016H14.5832C15.0434 0.916016 15.4165 1.28911 15.4165 1.74935V5.91602" stroke="#637083" stroke-linecap="round" stroke-linejoin="round"/>
<path d="M0.419922 3.83268L3.33659 0.916016" stroke="#637083" stroke-linecap="round" stroke-linejoin="round"/>
<path d="M15.4196 3.83268L12.5029 0.916016" stroke="#637083" stroke-linecap="round" stroke-linejoin="round"/>
<path d="M0.419922 6.33203L3.33659 9.2487" stroke="#637083" stroke-linecap="round" stroke-linejoin="round"/>
<path d="M9.58333 3.41602H6.955C6.60195 3.4192 6.30612 3.68393 6.26389 4.03446C6.22166 4.38498 6.44615 4.7124 6.78833 4.79935L9.05833 5.36602C9.40052 5.45297 9.62501 5.78038 9.58278 6.13091C9.54055 6.48143 9.24471 6.74616 8.89167 6.74935H6.25" stroke="#637083" stroke-linecap="round" stroke-linejoin="round"/>
<path d="M7.91992 3.41536V2.58203" stroke="#637083" stroke-linecap="round" stroke-linejoin="round"/>
<path d="M7.91992 7.58333V6.75" stroke="#637083" stroke-linecap="round" stroke-linejoin="round"/>
<path d="M12.0864 13.416H12.9198" stroke="#637083" stroke-linecap="round" stroke-linejoin="round"/>
<path d="M14.5864 13.416H15.4198" stroke="#637083" stroke-linecap="round" stroke-linejoin="round"/>
<path d="M17.0864 13.416H17.9198" stroke="#637083" stroke-linecap="round" stroke-linejoin="round"/>
<path d="M12.0864 15.082H12.9198" stroke="#637083" stroke-linecap="round" stroke-linejoin="round"/>
<path d="M14.5864 15.082H15.4198" stroke="#637083" stroke-linecap="round" stroke-linejoin="round"/>
<path d="M17.0864 15.082H17.9198" stroke="#637083" stroke-linecap="round" stroke-linejoin="round"/>
<path d="M12.0864 16.75H12.9198" stroke="#637083" stroke-linecap="round" stroke-linejoin="round"/>
<path d="M14.5864 16.75H15.4198" stroke="#637083" stroke-linecap="round" stroke-linejoin="round"/>
<path d="M17.0864 16.75H17.9198" stroke="#637083" stroke-linecap="round" stroke-linejoin="round"/>
<path d="M12.0864 18.416H12.9198" stroke="#637083" stroke-linecap="round" stroke-linejoin="round"/>
<path d="M14.5864 18.416H15.4198" stroke="#637083" stroke-linecap="round" stroke-linejoin="round"/>
<path d="M17.0864 18.416H17.9198" stroke="#637083" stroke-linecap="round" stroke-linejoin="round"/>
<path fill-rule="evenodd" clip-rule="evenodd" d="M10.4199 9.58203C10.4199 8.47746 11.3154 7.58203 12.4199 7.58203H17.5866C18.6912 7.58203 19.5866 8.47746 19.5866 9.58203V18.082C19.5866 19.1866 18.6912 20.082 17.5866 20.082H12.4199C11.3154 20.082 10.4199 19.1866 10.4199 18.082V9.58203Z" stroke="#637083" stroke-linecap="round" stroke-linejoin="round"/>
<path d="M10.4199 11.75H19.5866" stroke="#637083" stroke-linecap="round" stroke-linejoin="round"/>
<path d="M1.25293 10.916H8.75293" stroke="#637083" stroke-linecap="round" stroke-linejoin="round"/>
<path d="M2.08643 12.582H8.75309" stroke="#637083" stroke-linecap="round" stroke-linejoin="round"/>
</svg>
