<svg width="21" height="21" viewBox="0 0 21 21" fill="none" xmlns="http://www.w3.org/2000/svg">
<path d="M16.7684 9.80359H4.2327C3.46345 9.80359 2.83984 10.4272 2.83984 11.1964V18.1607C2.83984 18.93 3.46345 19.5536 4.2327 19.5536H16.7684C17.5377 19.5536 18.1613 18.93 18.1613 18.1607V11.1964C18.1613 10.4272 17.5377 9.80359 16.7684 9.80359Z" stroke="black" stroke-width="1.5" stroke-linecap="round" stroke-linejoin="round"/>
<path d="M10.5 17.1161C11.8462 17.1161 12.9375 16.0248 12.9375 14.6786C12.9375 13.3324 11.8462 12.2411 10.5 12.2411C9.1538 12.2411 8.0625 13.3324 8.0625 14.6786C8.0625 16.0248 9.1538 17.1161 10.5 17.1161Z" stroke="black" stroke-width="1.5" stroke-linecap="round" stroke-linejoin="round"/>
<path d="M5.31306 15.0268C5.12075 15.0268 4.96484 14.8709 4.96484 14.6785C4.96484 14.4862 5.12075 14.3303 5.31306 14.3303" stroke="black" stroke-width="1.5" stroke-linecap="round" stroke-linejoin="round"/>
<path d="M5.3125 15.0268C5.50481 15.0268 5.66071 14.8709 5.66071 14.6785C5.66071 14.4862 5.50481 14.3303 5.3125 14.3303" stroke="black" stroke-width="1.5" stroke-linecap="round" stroke-linejoin="round"/>
<path d="M15.6881 15.0268C15.4957 15.0268 15.3398 14.8709 15.3398 14.6785C15.3398 14.4862 15.4957 14.3303 15.6881 14.3303" stroke="black" stroke-width="1.5" stroke-linecap="round" stroke-linejoin="round"/>
<path d="M15.6875 15.0268C15.8799 15.0268 16.0357 14.8709 16.0357 14.6785C16.0357 14.4862 15.8799 14.3303 15.6875 14.3303" stroke="black" stroke-width="1.5" stroke-linecap="round" stroke-linejoin="round"/>
<path d="M16.0725 1.44641L10.5011 7.01784L7.7154 4.23213L4.92969 7.01784" stroke="black" stroke-width="1.5" stroke-linecap="round" stroke-linejoin="round"/>
<path d="M12.5898 1.44641H16.072V4.92855" stroke="black" stroke-width="1.5" stroke-linecap="round" stroke-linejoin="round"/>
</svg>
