<svg width="21" height="21" viewBox="0 0 21 21" fill="none" xmlns="http://www.w3.org/2000/svg">
<g clip-path="url(#clip0_146_401252)">
<path d="M1.47266 9.32659C1.47266 8.53804 2.07582 7.8988 2.81987 7.8988H12.2504C12.9944 7.8988 13.5976 8.53804 13.5976 9.32659V15.0378C13.5976 15.8263 12.9944 16.4656 12.2504 16.4656H2.81987C2.07582 16.4656 1.47266 15.8263 1.47266 15.0378V9.32659Z" stroke="black" stroke-width="1.5" stroke-linecap="round" stroke-linejoin="round"/>
<path d="M7.53516 16.4656V19.5537" stroke="black" stroke-width="1.5" stroke-linecap="round" stroke-linejoin="round"/>
<path d="M4.83984 19.5536H10.2287" stroke="black" stroke-width="1.5" stroke-linecap="round" stroke-linejoin="round"/>
<path d="M4.05469 4.02572V2.73606C4.05469 2.02381 4.63208 1.44641 5.34433 1.44641H18.2408C18.9531 1.44641 19.5304 2.02381 19.5304 2.73606V11.7636C19.5304 12.4759 18.9531 13.0533 18.2408 13.0533H16.9511" stroke="black" stroke-width="1.5" stroke-linecap="round" stroke-linejoin="round"/>
</g>
<defs>
<clipPath id="clip0_146_401252">
<rect width="21" height="21" fill="white"/>
</clipPath>
</defs>
</svg>
