<svg width="20" height="20" viewBox="0 0 20 20" fill="none" xmlns="http://www.w3.org/2000/svg">
<g id="monthly-calendar-5" clip-path="url(#clip0_47_143547)">
<g id="monthly-calendar--calendar-date-week-day-month">
<path id="Vector" d="M2.73158 3.39282C2.38112 3.39282 2.04501 3.53205 1.79719 3.77986C1.54938 4.02768 1.41016 4.36378 1.41016 4.71425V17.2678C1.41016 17.6183 1.54938 17.9544 1.79719 18.2022C2.04501 18.45 2.38112 18.5893 2.73158 18.5893H17.2673C17.6177 18.5893 17.9539 18.45 18.2017 18.2022C18.4494 17.9544 18.5887 17.6183 18.5887 17.2678V4.71425C18.5887 4.36378 18.4494 4.02768 18.2017 3.77986C17.9539 3.53205 17.6177 3.39282 17.2673 3.39282H14.6244" stroke="black" stroke-width="1.5" stroke-linecap="round" stroke-linejoin="round"/>
<path id="Vector_2" d="M5.375 1.41064V5.37493" stroke="black" stroke-width="1.5" stroke-linecap="round" stroke-linejoin="round"/>
<path id="Vector_3" d="M14.625 1.41064V5.37493" stroke="black" stroke-width="1.5" stroke-linecap="round" stroke-linejoin="round"/>
<path id="Vector_4" d="M5.375 3.39282H11.9821" stroke="black" stroke-width="1.5" stroke-linecap="round" stroke-linejoin="round"/>
<path id="Vector 2" d="M13.3008 8.67847V14.6246" stroke="black" stroke-width="1.5" stroke-linecap="round" stroke-linejoin="round"/>
<path id="Vector 3" d="M11.3203 10.165H11.8158C12.6368 10.165 13.3023 9.49946 13.3023 8.67847" stroke="black" stroke-width="1.5" stroke-linecap="round" stroke-linejoin="round"/>
<path id="Vector 1" d="M15.2844 14.625H11.3203" stroke="black" stroke-width="1.5" stroke-linecap="round" stroke-linejoin="round"/>
<path id="Vector_5" d="M4.71484 13.6338C4.91893 14.2112 5.46958 14.6249 6.11687 14.6249H7.10792C7.92895 14.6249 8.59453 13.9593 8.59453 13.1383V12.8905C8.59453 12.0695 7.92895 11.4039 7.10792 11.4039H6.6124H6.98405C7.73666 11.4039 8.34676 10.7938 8.34676 10.0412C8.34676 9.28857 7.73665 8.67845 6.98404 8.67847H6.24074C5.61698 8.67848 5.09111 9.09757 4.92932 9.66954" stroke="black" stroke-width="1.5" stroke-linecap="round" stroke-linejoin="round"/>
</g>
</g>
<defs>
<clipPath id="clip0_47_143547">
<rect width="20" height="20" fill="white"/>
</clipPath>
</defs>
</svg>
