<svg width="20" height="20" viewBox="0 0 20 20" fill="none" xmlns="http://www.w3.org/2000/svg">
<g id="multiple-stars-22" clip-path="url(#clip0_47_143255)">
<g id="multiple-stars--reward-rating-rate-social-star-media-favorite-like-stars-spark">
<path id="Vector 2134" d="M8.57555 7.84127L11.5974 6.74243L12.6963 3.72056C12.9071 3.14067 13.7273 3.14067 13.9381 3.72056L15.037 6.74243L18.0588 7.84127C18.6387 8.05215 18.6387 8.87228 18.0588 9.08315L15.037 10.182L13.9381 13.2039C13.7273 13.7838 12.9071 13.7838 12.6963 13.2039L11.5974 10.182L8.57555 9.08315C7.99565 8.87228 7.99565 8.05215 8.57555 7.84127Z" stroke="black" stroke-width="1.5" stroke-linecap="round" stroke-linejoin="round"/>
<path id="Vector 2135" d="M1.94273 13.5585L4.17602 12.7463L4.98813 10.513C5.19901 9.93315 6.01914 9.93315 6.23 10.513L7.04211 12.7463L9.2754 13.5585C9.8553 13.7693 9.8553 14.5895 9.2754 14.8004L7.04211 15.6124L6.23 17.8457C6.01914 18.4256 5.19901 18.4256 4.98813 17.8457L4.17602 15.6124L1.94273 14.8004C1.36284 14.5895 1.36284 13.7693 1.94273 13.5585Z" stroke="black" stroke-width="1.5" stroke-linecap="round" stroke-linejoin="round"/>
<path id="Vector 2136" d="M1.94273 4.06678L3.34532 3.55675L3.85535 2.15416C4.06623 1.57426 4.88636 1.57426 5.09723 2.15416L5.60726 3.55675L7.00985 4.06678C7.58974 4.27766 7.58974 5.09779 7.00985 5.30865L5.60726 5.81868L5.09723 7.22127C4.88636 7.80116 4.06623 7.80116 3.85535 7.22127L3.34532 5.81868L1.94273 5.30865C1.36284 5.09779 1.36284 4.27766 1.94273 4.06678Z" stroke="black" stroke-width="1.5" stroke-linecap="round" stroke-linejoin="round"/>
</g>
</g>
<defs>
<clipPath id="clip0_47_143255">
<rect width="20" height="20" fill="white"/>
</clipPath>
</defs>
</svg>
