<svg width="20" height="20" viewBox="0 0 20 20" fill="none" xmlns="http://www.w3.org/2000/svg">
<g id="music-folder-song-37" clip-path="url(#clip0_47_144488)">
<g id="music-folder-song">
<path id="vector" d="M6.889 15.2868C7.531 15.2868 8.05143 14.7664 8.05143 14.1243C8.05143 13.4823 7.531 12.9619 6.889 12.9619C6.24701 12.9619 5.72656 13.4823 5.72656 14.1243C5.72656 14.7664 6.24701 15.2868 6.889 15.2868Z" stroke="black" stroke-width="1.5" stroke-linecap="round" stroke-linejoin="round"/>
<path id="vector_2" d="M12.1156 13.8336C12.7575 13.8336 13.278 13.3132 13.278 12.6712C13.278 12.0292 12.7575 11.5088 12.1156 11.5088C11.4736 11.5088 10.9531 12.0292 10.9531 12.6712C10.9531 13.3132 11.4736 13.8336 12.1156 13.8336Z" stroke="black" stroke-width="1.5" stroke-linecap="round" stroke-linejoin="round"/>
<path id="vector_3" d="M8.05078 14.1234V9.1249L13.2793 7.89404V12.6715" stroke="black" stroke-width="1.5" stroke-linecap="round" stroke-linejoin="round"/>
<path id="vector_4" d="M1.41016 16.9377V3.06271C1.41016 2.71224 1.54938 2.37614 1.79719 2.12832C2.04501 1.88051 2.38112 1.74128 2.73158 1.74128H7.60766C7.90951 1.73249 8.20529 1.82735 8.44572 2.01008C8.68614 2.1928 8.85674 2.45237 8.92908 2.74557L9.33873 4.38414H17.2673C17.6177 4.38414 17.9539 4.52337 18.2017 4.77117C18.4494 5.01899 18.5887 5.3551 18.5887 5.70557V16.9377C18.5887 17.2882 18.4494 17.6244 18.2017 17.8721C17.9539 18.1199 17.6177 18.2592 17.2673 18.2592H2.73158C2.38112 18.2592 2.04501 18.1199 1.79719 17.8721C1.54938 17.6244 1.41016 17.2882 1.41016 16.9377Z" stroke="black" stroke-width="1.5" stroke-linecap="round" stroke-linejoin="round"/>
</g>
</g>
<defs>
<clipPath id="clip0_47_144488">
<rect width="20" height="20" fill="white"/>
</clipPath>
</defs>
</svg>
