<svg width="21" height="21" viewBox="0 0 21 21" fill="none" xmlns="http://www.w3.org/2000/svg">
<path d="M2.68726 18.3334L1.83833 11.5419C1.63049 9.87922 2.92693 8.41064 4.60252 8.41064H9.43418C11.1098 8.41064 12.4062 9.87922 12.1984 11.5419L11.3494 18.3334C11.2623 19.0305 10.6698 19.5535 9.96734 19.5535H4.06937C3.36692 19.5535 2.7744 19.0305 2.68726 18.3334Z" stroke="black" stroke-width="1.5" stroke-linecap="round" stroke-linejoin="round"/>
<path d="M14.6797 12.5892L15.2508 18.2993C15.3219 19.0113 15.921 19.5535 16.6367 19.5535H17.5977C18.3134 19.5535 18.9124 19.0113 18.9836 18.2993L19.5547 12.5892H14.6797Z" stroke="black" stroke-width="1.5" stroke-linecap="round" stroke-linejoin="round"/>
<path d="M17.1172 12.5893V7.01782" stroke="black" stroke-width="1.5" stroke-linecap="round" stroke-linejoin="round"/>
<path d="M15.9745 6.43587L15.375 2.83923H18.8571L18.2577 6.43587C18.2018 6.77167 17.9113 7.01781 17.5707 7.01781H16.6614C16.3209 7.01781 16.0303 6.77167 15.9745 6.43587Z" stroke="black" stroke-width="1.5" stroke-linecap="round" stroke-linejoin="round"/>
<path d="M4.23438 8.41071V5.625H9.8058V8.41071" stroke="black" stroke-width="1.5" stroke-linecap="round" stroke-linejoin="round"/>
<path d="M2.14453 12.5892H11.8945" stroke="black" stroke-width="1.5" stroke-linecap="round" stroke-linejoin="round"/>
</svg>
