<svg width="20" height="20" viewBox="0 0 20 20" fill="none" xmlns="http://www.w3.org/2000/svg">
<g id="new-sticky-note-10" clip-path="url(#clip0_47_144501)">
<g id="new-sticky-note--empty-common-file">
<path id="Vector" d="M12.6423 18.5892H2.73158C2.38112 18.5892 2.04501 18.4499 1.79719 18.2022C1.54938 17.9544 1.41016 17.6182 1.41016 17.2678V2.73207C1.41016 2.3816 1.54938 2.0455 1.79719 1.79768C2.04501 1.54987 2.38112 1.41064 2.73158 1.41064H17.2673C17.6177 1.41064 17.9539 1.54987 18.2017 1.79768C18.4494 2.0455 18.5887 2.3816 18.5887 2.73207V12.6428L12.6423 18.5892Z" stroke="black" stroke-width="1.5" stroke-linecap="round" stroke-linejoin="round"/>
<path id="Vector_2" d="M12.6406 13.3033V18.589L18.5871 12.6426H13.3013C13.1261 12.6426 12.958 12.7122 12.8341 12.8361C12.7102 12.96 12.6406 13.1281 12.6406 13.3033Z" stroke="black" stroke-width="1.5" stroke-linecap="round" stroke-linejoin="round"/>
</g>
</g>
<defs>
<clipPath id="clip0_47_144501">
<rect width="20" height="20" fill="white"/>
</clipPath>
</defs>
</svg>
