<svg width="20" height="20" viewBox="0 0 20 20" fill="none" xmlns="http://www.w3.org/2000/svg">
<g id="new-filter-slide-33" clip-path="url(#clip0_47_147300)">
<g id="new-filter-slide">
<path id="vector" d="M4.29688 1.46777V9.86119" stroke="black" stroke-width="1.5" stroke-linecap="round" stroke-linejoin="round"/>
<path id="vector_2" d="M16.693 11.6475C17.6043 11.6475 18.3431 12.3862 18.3431 13.2975C18.3431 14.2088 17.6043 14.9475 16.693 14.9475C15.7818 14.9475 15.043 14.2088 15.043 13.2975C15.043 12.3862 15.7818 11.6475 16.693 11.6475Z" stroke="black" stroke-width="1.5" stroke-linecap="round" stroke-linejoin="round"/>
<path id="vector_3" d="M16.6953 14.9482V18.5318" stroke="black" stroke-width="1.5" stroke-linecap="round" stroke-linejoin="round"/>
<path id="vector_4" d="M16.6953 1.46875V11.6478" stroke="black" stroke-width="1.5" stroke-linecap="round" stroke-linejoin="round"/>
<path id="vector_5" d="M10.4938 11.5569C11.4051 11.5569 12.1438 10.8182 12.1438 9.90688C12.1438 8.99558 11.4051 8.25684 10.4938 8.25684C9.58251 8.25684 8.84375 8.99558 8.84375 9.90688C8.84375 10.8182 9.58251 11.5569 10.4938 11.5569Z" stroke="black" stroke-width="1.5" stroke-linecap="round" stroke-linejoin="round"/>
<path id="vector_6" d="M10.4961 1.46875V8.25655" stroke="black" stroke-width="1.5" stroke-linecap="round" stroke-linejoin="round"/>
<path id="vector_7" d="M10.5 11.5566V18.5315" stroke="black" stroke-width="1.5" stroke-linecap="round" stroke-linejoin="round"/>
<g id="group 54">
<path id="vector_8" d="M4.29688 13.2461V18.5318" stroke="black" stroke-width="1.5" stroke-linecap="round" stroke-linejoin="round"/>
<path id="vector_9" d="M1.65234 15.8887H6.93806" stroke="black" stroke-width="1.5" stroke-linecap="round" stroke-linejoin="round"/>
</g>
</g>
</g>
<defs>
<clipPath id="clip0_47_147300">
<rect width="20" height="20" fill="white"/>
</clipPath>
</defs>
</svg>
