<svg width="20" height="20" viewBox="0 0 20 20" fill="none" xmlns="http://www.w3.org/2000/svg">
<g id="non-commercial-euro-23" clip-path="url(#clip0_47_143794)">
<g id="non-commercial-euro">
<path id="Ellipse 11" d="M1.41016 9.99993C1.41016 11.1279 1.63232 12.2448 2.06398 13.2869C2.49563 14.329 3.12831 15.2759 3.9259 16.0735C4.72349 16.8711 5.67036 17.5037 6.71246 17.9354C7.75457 18.367 8.87148 18.5892 9.99944 18.5892C11.1274 18.5892 12.2443 18.367 13.2864 17.9354C14.3285 17.5037 15.2754 16.8711 16.073 16.0735C16.8706 15.2759 17.5033 14.329 17.9349 13.2869C18.3666 12.2448 18.5887 11.1279 18.5887 9.99993C18.5887 8.87197 18.3666 7.75505 17.9349 6.71295C17.5033 5.67085 16.8706 4.72398 16.073 3.92639C15.2754 3.1288 14.3285 2.49612 13.2864 2.06447C12.2443 1.63281 11.1274 1.41064 9.99944 1.41064C8.87148 1.41064 7.75457 1.63281 6.71246 2.06447C5.67036 2.49612 4.72349 3.1288 3.9259 3.92639C3.12831 4.72398 2.49563 5.67085 2.06398 6.71295C1.63232 7.75505 1.41016 8.87197 1.41016 9.99993Z" stroke="black" stroke-width="1.5" stroke-linecap="round" stroke-linejoin="round"/>
<path id="Vector 598" d="M17.4927 14.2545L2.60547 5.65942" stroke="black" stroke-width="1.5" stroke-linecap="round" stroke-linejoin="round"/>
<path id="Ellipse 129" d="M6.85156 9.94482C6.85156 9.36794 6.96834 8.81833 7.17954 8.31834C7.81416 6.81602 9.30128 5.76172 11.0347 5.76172C11.5236 5.76172 11.9929 5.8456 12.429 5.99975" stroke="black" stroke-width="1.5" stroke-linecap="round" stroke-linejoin="round"/>
<path id="Ellipse 130" d="M12.4277 13.8902C11.9916 14.0444 11.5223 14.1283 11.0333 14.1283C9.55238 14.1283 8.25116 13.3586 7.50781 12.1975" stroke="black" stroke-width="1.5" stroke-linecap="round" stroke-linejoin="round"/>
<path id="Vector 541" d="M4.76172 9.94629H9.64199" stroke="black" stroke-width="1.5" stroke-linecap="round" stroke-linejoin="round"/>
</g>
</g>
<defs>
<clipPath id="clip0_47_143794">
<rect width="20" height="20" fill="white"/>
</clipPath>
</defs>
</svg>
