<svg width="21" height="21" viewBox="0 0 21 21" fill="none" xmlns="http://www.w3.org/2000/svg">
<path d="M9.37008 1.44653H4.20536C3.43611 1.44653 2.8125 2.07014 2.8125 2.83939V18.1608C2.8125 18.9301 3.43611 19.5537 4.20536 19.5537H13.9554C14.7246 19.5537 15.3482 18.9301 15.3482 18.1608V13.5035" stroke="black" stroke-width="1.5" stroke-linecap="round" stroke-linejoin="round"/>
<path d="M8.38281 16.0715H9.77567" stroke="black" stroke-width="1.5" stroke-linecap="round" stroke-linejoin="round"/>
<path d="M14.3457 10.8768C16.8537 10.8768 18.8868 8.8437 18.8868 6.33574C18.8868 3.82779 16.8537 1.79468 14.3457 1.79468C11.8378 1.79468 9.80469 3.82779 9.80469 6.33574C9.80469 8.8437 11.8378 10.8768 14.3457 10.8768Z" stroke="black" stroke-width="1.5" stroke-linecap="round" stroke-linejoin="round"/>
<path d="M14.3477 4.19116V5.58402" stroke="black" stroke-width="1.5" stroke-linecap="round" stroke-linejoin="round"/>
<path d="M14.346 8.38288C14.2498 8.38288 14.1719 8.30494 14.1719 8.20878C14.1719 8.11261 14.2498 8.03467 14.346 8.03467" stroke="black" stroke-width="1.5" stroke-linecap="round" stroke-linejoin="round"/>
<path d="M14.3477 8.38288C14.4438 8.38288 14.5218 8.30494 14.5218 8.20878C14.5218 8.11261 14.4438 8.03467 14.3477 8.03467" stroke="black" stroke-width="1.5" stroke-linecap="round" stroke-linejoin="round"/>
</svg>
