<svg width="21" height="21" viewBox="0 0 21 21" fill="none" xmlns="http://www.w3.org/2000/svg">
<g clip-path="url(#clip0_146_402317)">
<path d="M9.10603 4.23218H4.23103C3.49221 4.23218 2.78365 4.52567 2.26123 5.0481C1.73881 5.57052 1.44531 6.27908 1.44531 7.01789V16.7679C1.44531 17.5067 1.73881 18.2152 2.26123 18.7377C2.78365 19.2601 3.49221 19.5536 4.23103 19.5536H13.981C14.7198 19.5536 15.4283 19.2601 15.9508 18.7377C16.4733 18.2152 16.7667 17.5067 16.7667 16.7679V11.8929" stroke="black" stroke-width="1.5" stroke-linecap="round" stroke-linejoin="round"/>
<path d="M16.072 8.41082C17.9951 8.41082 19.5541 6.85181 19.5541 4.92868C19.5541 3.00554 17.9951 1.44653 16.072 1.44653C14.1489 1.44653 12.5898 3.00554 12.5898 4.92868C12.5898 6.85181 14.1489 8.41082 16.072 8.41082Z" stroke="black" stroke-width="1.5" stroke-linecap="round" stroke-linejoin="round"/>
</g>
<defs>
<clipPath id="clip0_146_402317">
<rect width="21" height="21" fill="white"/>
</clipPath>
</defs>
</svg>
