<svg width="21" height="21" viewBox="0 0 21 21" fill="none" xmlns="http://www.w3.org/2000/svg">
<path d="M15.7204 8.41082C17.6435 8.41082 19.2026 6.85181 19.2026 4.92868C19.2026 3.00554 17.6435 1.44653 15.7204 1.44653C13.7973 1.44653 12.2383 3.00554 12.2383 4.92868C12.2383 6.85181 13.7973 8.41082 15.7204 8.41082Z" stroke="black" stroke-width="1.5" stroke-linecap="round" stroke-linejoin="round"/>
<path d="M14.5836 11.893V14.0291C14.5836 14.5738 14.8 15.0963 15.1853 15.4816C15.5704 15.8667 16.222 16.0832 16.7667 16.0832H1.44531C1.99009 16.0832 2.64161 15.8667 3.02683 15.4816C3.41204 15.0963 3.62846 14.5738 3.62846 14.0291L3.62845 9.01347C3.62845 7.56073 4.20555 6.16748 5.2328 5.14024C6.26004 4.11299 7.65329 3.53589 9.10603 3.53589" stroke="black" stroke-width="1.5" stroke-linecap="round" stroke-linejoin="round"/>
<path d="M7.71484 19.5537H10.5006" stroke="black" stroke-width="1.5" stroke-linecap="round" stroke-linejoin="round"/>
</svg>
