<svg width="20" height="20" viewBox="0 0 20 20" fill="none" xmlns="http://www.w3.org/2000/svg">
<g id="number-one-hand-1">
<g id="number-one-hand">
<path id="Vector 2368" d="M5.52144 18.5895L4.55149 12.5683C4.26947 10.8176 5.3803 9.14416 7.10314 8.72425L11.3793 7.68202V3.39594C11.3793 2.39928 12.1873 1.59131 13.184 1.59131C14.1807 1.59131 14.9886 2.39928 14.9886 3.39594V11.2823L15.5101 11.4652C16.8571 11.9375 17.5856 13.3939 17.1559 14.755L15.9449 18.5895" stroke="black" stroke-width="1.5" stroke-linecap="round" stroke-linejoin="round"/>
<path id="Vector 2371" d="M15.0057 11.2798H11.1175C10.2997 11.2798 9.63672 11.9427 9.63672 12.7605C9.63672 13.5783 10.2997 14.2413 11.1175 14.2413H13.4717C12.1934 14.227 9.63672 14.7654 9.63672 17.0323" stroke="black" stroke-width="1.5" stroke-linecap="round" stroke-linejoin="round"/>
</g>
</g>
</svg>
