<svg width="20" height="20" viewBox="0 0 20 20" fill="none" xmlns="http://www.w3.org/2000/svg">
<g id="number-five-square" clip-path="url(#clip0_47_146426)">
<g id="number-five-square--number-five-square-mathematics-equation-text">
<path id="Vector 3" d="M12.3108 6.03613H8.01618L7.35547 10.0004L7.83985 9.75823C8.39032 9.483 8.9973 9.3397 9.61273 9.3397H10.659C11.7538 9.3397 12.6412 10.2271 12.6412 11.3218V11.9826C12.6412 13.0773 11.7538 13.9647 10.659 13.9647H9.33761C8.47457 13.9647 7.74036 13.4131 7.46825 12.6433" stroke="black" stroke-width="1.5" stroke-linecap="round" stroke-linejoin="round"/>
<path id="Vector" d="M17.2673 1.41113H2.73158C2.00178 1.41113 1.41016 2.00276 1.41016 2.73256V17.2683C1.41016 17.9981 2.00178 18.5897 2.73158 18.5897H17.2673C17.9971 18.5897 18.5887 17.9981 18.5887 17.2683V2.73256C18.5887 2.00276 17.9971 1.41113 17.2673 1.41113Z" stroke="black" stroke-width="1.5" stroke-linecap="round" stroke-linejoin="round"/>
</g>
</g>
<defs>
<clipPath id="clip0_47_146426">
<rect width="20" height="20" fill="white"/>
</clipPath>
</defs>
</svg>
