<svg width="20" height="20" viewBox="0 0 20 20" fill="none" xmlns="http://www.w3.org/2000/svg">
<g id="number-44">
<g id="number">
<path id="Vector 2" d="M6.21484 1.41113V8.09427" stroke="black" stroke-width="1.5" stroke-linecap="round" stroke-linejoin="round"/>
<path id="Vector 3" d="M3.98828 3.08192H4.54521C5.46796 3.08192 6.216 2.33389 6.216 1.41113" stroke="black" stroke-width="1.5" stroke-linecap="round" stroke-linejoin="round"/>
<path id="Vector 1" d="M8.44372 8.09473H3.98828" stroke="black" stroke-width="1.5" stroke-linecap="round" stroke-linejoin="round"/>
<path id="Vector" d="M11.9961 11.7324C12.2255 12.3813 12.8443 12.8463 13.5718 12.8463L14.6857 12.8462C15.6084 12.8462 16.3565 12.0982 16.3565 11.1754V10.897C16.3565 9.97423 15.6084 9.2262 14.6857 9.2262H14.1287H14.5464C15.3922 9.2262 16.0781 8.54049 16.0781 7.69463C16.0781 6.84878 15.3922 6.16307 14.5464 6.16309H13.711C13.01 6.1631 12.419 6.63411 12.2371 7.27694" stroke="black" stroke-width="1.5" stroke-linecap="round" stroke-linejoin="round"/>
<path id="Vector 3_2" d="M8.4437 18.5777H3.98828V17.6283C3.98828 16.9645 4.38123 16.3637 4.98938 16.0977L7.46858 15.0129C8.06094 14.7538 8.4437 14.1685 8.4437 13.522C8.4437 12.6232 7.71508 11.8945 6.81627 11.8945H5.65907C4.9316 11.8945 4.31271 12.3595 4.08334 13.0084" stroke="black" stroke-width="1.5" stroke-linecap="round" stroke-linejoin="round"/>
</g>
</g>
</svg>
