<svg width="20" height="20" viewBox="0 0 20 20" fill="none" xmlns="http://www.w3.org/2000/svg">
<g id="number-one-circle-37" clip-path="url(#clip0_47_146459)">
<g id="number-one-circle--number-one-circle-mathematics-equation-text">
<path id="Vector 2" d="M9.99833 13.9647V6.03613C9.99833 7.13084 9.11089 8.01828 8.01618 8.01828H7.35547" stroke="black" stroke-width="1.5" stroke-linecap="round" stroke-linejoin="round"/>
<path id="Vector 1" d="M12.6412 13.9648H7.35547" stroke="black" stroke-width="1.5" stroke-linecap="round" stroke-linejoin="round"/>
<path id="Ellipse 1518" d="M1.41016 10.0004C1.41016 11.1284 1.63232 12.2453 2.06398 13.2874C2.49563 14.3295 3.12831 15.2764 3.9259 16.074C4.72349 16.8716 5.67036 17.5042 6.71246 17.9359C7.75457 18.3675 8.87148 18.5897 9.99944 18.5897C11.1274 18.5897 12.2443 18.3675 13.2864 17.9359C14.3285 17.5042 15.2754 16.8716 16.073 16.074C16.8706 15.2764 17.5033 14.3295 17.9349 13.2874C18.3666 12.2453 18.5887 11.1284 18.5887 10.0004C18.5887 8.87246 18.3666 7.75554 17.9349 6.71344C17.5033 5.67134 16.8706 4.72447 16.073 3.92688C15.2754 3.12929 14.3285 2.49661 13.2864 2.06495C12.2443 1.6333 11.1274 1.41113 9.99944 1.41113C8.87148 1.41113 7.75457 1.6333 6.71246 2.06495C5.67036 2.49661 4.72349 3.12929 3.9259 3.92688C3.12831 4.72447 2.49563 5.67134 2.06398 6.71344C1.63232 7.75554 1.41016 8.87246 1.41016 10.0004Z" stroke="black" stroke-width="1.5" stroke-linecap="round" stroke-linejoin="round"/>
</g>
</g>
<defs>
<clipPath id="clip0_47_146459">
<rect width="20" height="20" fill="white"/>
</clipPath>
</defs>
</svg>
