<svg width="20" height="20" viewBox="0 0 20 20" fill="none" xmlns="http://www.w3.org/2000/svg">
<g id="one-finger-drag-horizontal-2">
<g id="one-finger-drag-horizontal">
<path id="Vector 107" d="M18.5595 16.3856L17.9515 12.7423C17.6424 10.8901 15.8903 9.63922 14.0381 9.94834L11.1693 10.4271L10.2674 5.02303C10.124 4.16376 9.31117 3.58344 8.4519 3.72684C7.59263 3.87026 7.01231 4.68308 7.15572 5.54235L8.33799 12.6263L7.85844 12.8021C6.31963 13.3663 5.86971 15.3267 7.00858 16.5054L7.25155 16.7569L8.51171 18.0625" stroke="black" stroke-width="1.5" stroke-linecap="round" stroke-linejoin="round"/>
<path id="Vector 2512" d="M3.06194 1.41064L1.41016 3.06243L3.06194 4.71422" stroke="black" stroke-width="1.5" stroke-linecap="round" stroke-linejoin="round"/>
<path id="Vector 2513" d="M1.41016 3.0625H5.37444" stroke="black" stroke-width="1.5" stroke-linecap="round" stroke-linejoin="round"/>
<path id="Vector 2514" d="M14.293 1.41064L15.9448 3.06243L14.293 4.71422" stroke="black" stroke-width="1.5" stroke-linecap="round" stroke-linejoin="round"/>
<path id="Vector 2515" d="M15.9448 3.0625H11.9805" stroke="black" stroke-width="1.5" stroke-linecap="round" stroke-linejoin="round"/>
</g>
</g>
</svg>
