<svg width="20" height="20" viewBox="0 0 20 20" fill="none" xmlns="http://www.w3.org/2000/svg">
<g id="one-finger-hold-33">
<g id="one-finger-hold">
<path id="Ellipse 50" d="M11.6211 4.98398C11.6211 5.9085 11.9884 6.79516 12.6421 7.4489C13.2958 8.10264 14.1825 8.4699 15.107 8.4699C16.0315 8.4699 16.9182 8.10264 17.5719 7.4489C18.2257 6.79516 18.5929 5.9085 18.5929 4.98398C18.5929 4.05945 18.2257 3.17279 17.5719 2.51905C16.9182 1.86531 16.0315 1.49805 15.107 1.49805C14.1825 1.49805 13.2958 1.86531 12.6421 2.51905C11.9884 3.17279 11.6211 4.05945 11.6211 4.98398Z" stroke="black" stroke-width="1.5" stroke-linecap="round" stroke-linejoin="round"/>
<path id="Vector 225" d="M15.8475 4.24609L15.1016 4.98214" stroke="black" stroke-width="1.5" stroke-linecap="round" stroke-linejoin="round"/>
<path id="Vector 107" d="M14.2771 18.5015V15.0845C14.2771 13.2067 12.7548 11.6844 10.877 11.6844H8.21449V6.41918C8.21449 5.58201 7.53581 4.90332 6.69862 4.90332C5.86143 4.90332 5.18276 5.58201 5.18276 6.41918V13.3211L4.83384 13.3868C3.22313 13.6899 2.45664 15.5496 3.38595 16.8996L3.49948 17.0645L4.48742 18.5015" stroke="black" stroke-width="1.5" stroke-linecap="round" stroke-linejoin="round"/>
<path id="Ellipse 302" d="M2.2941 7.69797C2.21671 7.36525 2.17578 7.01852 2.17578 6.66225C2.17578 4.14749 4.2144 2.10889 6.72915 2.10889C7.49453 2.10889 8.21581 2.29773 8.84893 2.63137" stroke="black" stroke-width="1.5" stroke-linecap="round" stroke-linejoin="round"/>
</g>
</g>
</svg>
