<svg width="20" height="20" viewBox="0 0 20 20" fill="none" xmlns="http://www.w3.org/2000/svg">
<g id="online-status-away-account-43" clip-path="url(#clip0_47_148864)">
<g id="online-status-away-account">
<path id="vector" d="M7.49107 8.1462C9.31558 8.1462 10.7946 6.66715 10.7946 4.84263C10.7946 3.01812 9.31558 1.53906 7.49107 1.53906C5.66656 1.53906 4.1875 3.01812 4.1875 4.84263C4.1875 6.66715 5.66656 8.1462 7.49107 8.1462Z" stroke="black" stroke-width="1.5" stroke-linecap="round" stroke-linejoin="round"/>
<path id="vector_2" d="M10.793 17.397H1.54297V16.6806C1.55349 15.6734 1.81912 14.6852 2.31505 13.8086C2.81097 12.9319 3.52101 12.1952 4.37886 11.6673C5.23669 11.1394 6.21433 10.8375 7.22047 10.7899C7.31017 10.7856 7.39983 10.7834 7.48939 10.7832C7.57896 10.7834 7.66863 10.7856 7.75833 10.7899C8.76447 10.8375 9.7421 11.1394 10.5999 11.6673C10.7409 11.754 10.8779 11.8464 11.0106 11.9442" stroke="black" stroke-width="1.5" stroke-linecap="round" stroke-linejoin="round"/>
<path id="subtract" d="M17.0436 13.0677C17.6701 13.3716 18.1738 13.8889 18.4603 14.5252M14.5385 13.0273C13.8719 13.3245 13.3347 13.8598 13.0352 14.5252M14.5385 18.4614C13.8943 18.1743 13.3709 17.6646 13.0661 17.0302M18.4292 17.0302C18.1382 17.6359 17.6481 18.1279 17.0436 18.4211" stroke="black" stroke-width="1.5" stroke-linecap="round" stroke-linejoin="round"/>
</g>
</g>
<defs>
<clipPath id="clip0_47_148864">
<rect width="20" height="20" fill="white"/>
</clipPath>
</defs>
</svg>
