<svg width="21" height="20" viewBox="0 0 21 20" fill="none" xmlns="http://www.w3.org/2000/svg">
<g id="Group">
<g id="hierarchy-5">
<path id="Shape" d="M10.5 4.08252V14.9159" stroke="#637083" stroke-linecap="round" stroke-linejoin="round"/>
<path id="Rectangle-path" fill-rule="evenodd" clip-rule="evenodd" d="M4.25 1.74902C4.25 1.19674 4.69772 0.749023 5.25 0.749023H15.75C16.3023 0.749023 16.75 1.19674 16.75 1.74902V3.08236C16.75 3.63464 16.3023 4.08236 15.75 4.08236H5.25C4.69772 4.08236 4.25 3.63464 4.25 3.08236V1.74902Z" stroke="#637083" stroke-linecap="round" stroke-linejoin="round"/>
<path id="Rectangle-path_2" fill-rule="evenodd" clip-rule="evenodd" d="M8.41602 15.9155C8.41602 15.3632 8.86373 14.9155 9.41602 14.9155H11.5827C12.135 14.9155 12.5827 15.3632 12.5827 15.9155V18.0822C12.5827 18.6345 12.135 19.0822 11.5827 19.0822H9.41602C8.86373 19.0822 8.41602 18.6345 8.41602 18.0822V15.9155Z" stroke="#637083" stroke-linecap="round" stroke-linejoin="round"/>
<path id="Rectangle-path_3" fill-rule="evenodd" clip-rule="evenodd" d="M0.916016 15.9155C0.916016 15.3632 1.36373 14.9155 1.91602 14.9155H4.08268C4.63497 14.9155 5.08268 15.3632 5.08268 15.9155V18.0822C5.08268 18.6345 4.63497 19.0822 4.08268 19.0822H1.91602C1.36373 19.0822 0.916016 18.6345 0.916016 18.0822V15.9155Z" stroke="#637083" stroke-linecap="round" stroke-linejoin="round"/>
<path id="Rectangle-path_4" fill-rule="evenodd" clip-rule="evenodd" d="M15.916 15.9155C15.916 15.3632 16.3637 14.9155 16.916 14.9155H19.0827C19.635 14.9155 20.0827 15.3632 20.0827 15.9155V18.0822C20.0827 18.6345 19.635 19.0822 19.0827 19.0822H16.916C16.3637 19.0822 15.916 18.6345 15.916 18.0822V15.9155Z" stroke="#637083" stroke-linecap="round" stroke-linejoin="round"/>
<path id="Shape_2" d="M17.5827 14.9165V10.7498C17.5827 10.2896 17.2096 9.9165 16.7493 9.9165H4.24935C3.78911 9.9165 3.41602 10.2896 3.41602 10.7498V14.9165" stroke="#637083" stroke-linecap="round" stroke-linejoin="round"/>
</g>
</g>
</svg>
