<svg width="21" height="21" viewBox="0 0 21 21" fill="none" xmlns="http://www.w3.org/2000/svg">
<path d="M2.83817 17.4643H18.1596C18.9289 17.4643 19.5525 16.8408 19.5525 16.0715V4.92862C19.5525 4.15936 18.9289 3.53577 18.1596 3.53577H2.83817C2.06892 3.53577 1.44531 4.15936 1.44531 4.92862V16.0715C1.44531 16.8408 2.06892 17.4643 2.83817 17.4643Z" stroke="black" stroke-width="1.5" stroke-linecap="round" stroke-linejoin="round"/>
<path d="M13.9844 9.40258C14.9423 9.40258 15.7188 8.62608 15.7188 7.66821C15.7188 6.71034 14.9423 5.93384 13.9844 5.93384C13.0265 5.93384 12.25 6.71034 12.25 7.66821C12.25 8.62608 13.0265 9.40258 13.9844 9.40258Z" stroke="black" stroke-width="1.5" stroke-linecap="round" stroke-linejoin="round"/>
<path d="M13.3998 17.4643C12.9673 15.1607 11.7304 13.0857 9.90979 11.6096C8.0892 10.1334 5.80335 9.35213 3.46011 9.40512C2.78404 9.40331 2.10936 9.46628 1.44531 9.59317" stroke="black" stroke-width="1.5" stroke-linecap="round" stroke-linejoin="round"/>
<path d="M19.5517 13.2032C18.4545 12.8327 17.3043 12.644 16.1463 12.6447C14.6806 12.6415 13.2297 12.9382 11.8828 13.5165" stroke="black" stroke-width="1.5" stroke-linecap="round" stroke-linejoin="round"/>
</svg>
