<svg width="20" height="20" viewBox="0 0 20 20" fill="none" xmlns="http://www.w3.org/2000/svg">
<g id="padlock-key-5" clip-path="url(#clip0_47_146126)">
<g id="padlock-key--combination-combo-key-keyhole-lock-secure-security-square-unlock-unlocked">
<path id="Vector" d="M6.69531 10.6613C6.69531 10.3108 6.83454 9.9747 7.08235 9.72688C7.33017 9.47907 7.66627 9.33984 8.01674 9.33984H17.2667C17.6172 9.33984 17.9534 9.47907 18.2011 9.72688C18.4489 9.9747 18.5882 10.3108 18.5882 10.6613V17.2684C18.5882 17.6189 18.4489 17.955 18.2011 18.2028C17.9534 18.4506 17.6172 18.5898 17.2667 18.5898" stroke="black" stroke-width="1.5" stroke-linecap="round" stroke-linejoin="round"/>
<path id="Vector_2" d="M8.01562 9.3397V6.03613C8.01562 4.8095 8.5029 3.63311 9.37026 2.76577C10.2376 1.89841 11.414 1.41113 12.6406 1.41113C13.8673 1.41113 15.0436 1.89841 15.911 2.76577C16.7784 3.63311 17.2656 4.8095 17.2656 6.03613V9.3397" stroke="black" stroke-width="1.5" stroke-linecap="round" stroke-linejoin="round"/>
<path id="Vector_3" d="M4.05301 18.5894C5.51262 18.5894 6.69587 17.4062 6.69587 15.9466C6.69587 14.4869 5.51262 13.3037 4.05301 13.3037C2.5934 13.3037 1.41016 14.4869 1.41016 15.9466C1.41016 17.4062 2.5934 18.5894 4.05301 18.5894Z" stroke="black" stroke-width="1.5" stroke-linecap="round" stroke-linejoin="round"/>
<path id="Vector_4" d="M6.69531 15.9473H13.3025V18.5901" stroke="black" stroke-width="1.5" stroke-linecap="round" stroke-linejoin="round"/>
<path id="Vector_5" d="M10 15.9473V18.5901" stroke="black" stroke-width="1.5" stroke-linecap="round" stroke-linejoin="round"/>
</g>
</g>
<defs>
<clipPath id="clip0_47_146126">
<rect width="20" height="20" fill="white"/>
</clipPath>
</defs>
</svg>
