<svg width="20" height="20" viewBox="0 0 20 20" fill="none" xmlns="http://www.w3.org/2000/svg">
<g id="padlock-shield-8" clip-path="url(#clip0_47_146133)">
<g id="padlock-shield--combination-combo-lock-locked-padlock-secure-security-shield">
<path id="Vector" d="M10.4752 18.4972C10.169 18.6153 9.82988 18.6153 9.52373 18.4972C7.13285 17.5598 5.07993 15.9236 3.63264 13.8022C2.18536 11.6807 1.41086 9.17244 1.41016 6.60435V2.73256C1.41016 2.38209 1.54938 2.04599 1.79719 1.79817C2.04501 1.55035 2.38112 1.41113 2.73158 1.41113H17.2673C17.6177 1.41113 17.9539 1.55035 18.2017 1.79817C18.4494 2.04599 18.5887 2.38209 18.5887 2.73256V6.59113C18.5907 9.16148 17.8174 11.6727 16.3699 13.7967C14.9226 15.9208 12.8681 17.5589 10.4752 18.4972Z" stroke="black" stroke-width="1.5" stroke-linecap="round" stroke-linejoin="round"/>
<path id="Vector_2" d="M7.0279 8.01855H12.9743C13.3708 8.01855 13.635 8.28284 13.635 8.67927V12.6436C13.635 13.04 13.3708 13.3043 12.9743 13.3043H7.0279C6.63147 13.3043 6.36719 13.04 6.36719 12.6436V8.67927C6.36719 8.28284 6.63147 8.01855 7.0279 8.01855Z" stroke="black" stroke-width="1.5" stroke-linecap="round" stroke-linejoin="round"/>
<path id="Vector_3" d="M7.35547 8.018V6.69657C7.35547 5.243 8.54475 4.05371 9.99833 4.05371C11.4519 4.05371 12.6412 5.243 12.6412 6.69657V8.018" stroke="black" stroke-width="1.5" stroke-linecap="round" stroke-linejoin="round"/>
</g>
</g>
<defs>
<clipPath id="clip0_47_146133">
<rect width="20" height="20" fill="white"/>
</clipPath>
</defs>
</svg>
