<svg width="20" height="20" viewBox="0 0 20 20" fill="none" xmlns="http://www.w3.org/2000/svg">
<g id="padlock-circle-1-6">
<g id="padlock-circle-1--combination-combo-lock-locked-padlock-secure-security-shield-keyhole">
<path id="Vector" d="M10.0006 13.3039C10.3655 13.3039 10.6613 13.008 10.6613 12.6431C10.6613 12.2782 10.3655 11.9824 10.0006 11.9824C9.63566 11.9824 9.33984 12.2782 9.33984 12.6431C9.33984 13.008 9.63566 13.3039 10.0006 13.3039Z" stroke="black" stroke-width="1.5" stroke-linecap="round" stroke-linejoin="round"/>
<path id="Vector_2" d="M10.0011 18.5901C13.2852 18.5901 15.9475 15.9278 15.9475 12.6437C15.9475 9.35957 13.2852 6.69727 10.0011 6.69727C6.717 6.69727 4.05469 9.35957 4.05469 12.6437C4.05469 15.9278 6.717 18.5901 10.0011 18.5901Z" stroke="black" stroke-width="1.5" stroke-linecap="round" stroke-linejoin="round"/>
<path id="Vector_3" d="M14.625 8.90363V4.05399C14.625 3.35306 14.3466 2.68084 13.8509 2.18521C13.3553 1.68958 12.6831 1.41113 11.9821 1.41113H8.01786C7.31693 1.41113 6.64471 1.68958 6.14908 2.18521C5.65344 2.68084 5.375 3.35306 5.375 4.05399V8.90363" stroke="black" stroke-width="1.5" stroke-linecap="round" stroke-linejoin="round"/>
</g>
</g>
</svg>
