<svg width="20" height="20" viewBox="0 0 20 20" fill="none" xmlns="http://www.w3.org/2000/svg">
<g id="password-input-5">
<g id="password-input--lock-login-padlock-password-secure-security-textbox-type">
<path id="Vector" d="M17.2673 5.375H2.73158C2.00178 5.375 1.41016 5.96663 1.41016 6.69643V13.3036C1.41016 14.0334 2.00178 14.625 2.73158 14.625H17.2673C17.9971 14.625 18.5887 14.0334 18.5887 13.3036V6.69643C18.5887 5.96663 17.9971 5.375 17.2673 5.375Z" stroke="black" stroke-width="1.5" stroke-linecap="round" stroke-linejoin="round"/>
<path id="Vector_2" d="M13.3047 11.3213H15.2868" stroke="black" stroke-width="1.5" stroke-linecap="round" stroke-linejoin="round"/>
<g id="Group 2605">
<path id="Ellipse 1111" d="M5.37333 10.3306C5.19088 10.3306 5.04297 10.1827 5.04297 10.0003C5.04297 9.81783 5.19088 9.66992 5.37333 9.66992" stroke="black" stroke-width="1.5" stroke-linecap="round" stroke-linejoin="round"/>
<path id="Ellipse 1112" d="M5.375 10.3306C5.55745 10.3306 5.70536 10.1827 5.70536 10.0003C5.70536 9.81783 5.55745 9.66992 5.375 9.66992" stroke="black" stroke-width="1.5" stroke-linecap="round" stroke-linejoin="round"/>
</g>
<g id="Group 2612">
<path id="Ellipse 1111_2" d="M8.67801 10.3306C8.49556 10.3306 8.34766 10.1827 8.34766 10.0003C8.34766 9.81783 8.49556 9.66992 8.67801 9.66992" stroke="black" stroke-width="1.5" stroke-linecap="round" stroke-linejoin="round"/>
<path id="Ellipse 1112_2" d="M8.67969 10.3306C8.86214 10.3306 9.01004 10.1827 9.01004 10.0003C9.01004 9.81783 8.86214 9.66992 8.67969 9.66992" stroke="black" stroke-width="1.5" stroke-linecap="round" stroke-linejoin="round"/>
</g>
</g>
</g>
</svg>
