<svg width="20" height="20" viewBox="0 0 20 20" fill="none" xmlns="http://www.w3.org/2000/svg">
<g id="pathfinder-minus-front-1-11" clip-path="url(#clip0_47_146719)">
<g id="pathfinder-minus-front-1">
<path id="Vector" d="M13.303 6.69685V2.73256C13.303 2.01282 12.7013 1.41113 11.9816 1.41113H2.73158C2.01185 1.41113 1.41016 2.01282 1.41016 2.73256V11.9826C1.41016 12.7023 2.01185 13.304 2.73158 13.304H6.69587" stroke="black" stroke-width="1.5" stroke-linecap="round" stroke-linejoin="round"/>
<path id="Vector 2580" d="M18.5871 17.2686C18.5871 17.9984 17.9955 18.59 17.2656 18.59" stroke="black" stroke-width="1.5" stroke-linecap="round" stroke-linejoin="round"/>
<path id="Vector 2581" d="M6.69531 8.01869C6.69531 7.2889 7.28694 6.69727 8.01674 6.69727" stroke="black" stroke-width="1.5" stroke-linecap="round" stroke-linejoin="round"/>
<path id="Vector 2582" d="M17.2656 6.69727C17.9955 6.69727 18.5871 7.2889 18.5871 8.01869" stroke="black" stroke-width="1.5" stroke-linecap="round" stroke-linejoin="round"/>
<path id="Vector 2583" d="M6.69531 17.2686C6.69531 17.9984 7.28694 18.59 8.01674 18.59" stroke="black" stroke-width="1.5" stroke-linecap="round" stroke-linejoin="round"/>
<path id="Vector 2584" d="M18.5898 11.3223V13.9651" stroke="black" stroke-width="1.5" stroke-linecap="round" stroke-linejoin="round"/>
<path id="Vector 2585" d="M6.69531 13.9651V11.3223" stroke="black" stroke-width="1.5" stroke-linecap="round" stroke-linejoin="round"/>
<path id="Vector 2586" d="M11.3203 6.69727H13.9632" stroke="black" stroke-width="1.5" stroke-linecap="round" stroke-linejoin="round"/>
<path id="Vector 2587" d="M11.3203 18.5898H13.9632" stroke="black" stroke-width="1.5" stroke-linecap="round" stroke-linejoin="round"/>
</g>
</g>
<defs>
<clipPath id="clip0_47_146719">
<rect width="20" height="20" fill="white"/>
</clipPath>
</defs>
</svg>
