<svg width="20" height="20" viewBox="0 0 20 20" fill="none" xmlns="http://www.w3.org/2000/svg">
<g id="pathfinder-minus-back-1-7" clip-path="url(#clip0_47_146700)">
<g id="pathfinder-minus-back-1">
<path id="Vector" d="M6.69531 13.3044V17.2687C6.69531 17.9885 7.297 18.5901 8.01674 18.5901H17.2667C17.9865 18.5901 18.5882 17.9885 18.5882 17.2687V8.01869C18.5882 7.29895 17.9865 6.69727 17.2667 6.69727H13.3025" stroke="black" stroke-width="1.5" stroke-linecap="round" stroke-linejoin="round"/>
<path id="Vector 2580" d="M1.41016 2.73256C1.41016 2.00276 2.00178 1.41113 2.73158 1.41113" stroke="black" stroke-width="1.5" stroke-linecap="round" stroke-linejoin="round"/>
<path id="Vector 2581" d="M13.3019 11.9824C13.3019 12.7122 12.7103 13.3039 11.9805 13.3039" stroke="black" stroke-width="1.5" stroke-linecap="round" stroke-linejoin="round"/>
<path id="Vector 2582" d="M2.73158 13.3039C2.00178 13.3039 1.41016 12.7122 1.41016 11.9824" stroke="black" stroke-width="1.5" stroke-linecap="round" stroke-linejoin="round"/>
<path id="Vector 2583" d="M13.3019 2.73256C13.3019 2.00276 12.7103 1.41113 11.9805 1.41113" stroke="black" stroke-width="1.5" stroke-linecap="round" stroke-linejoin="round"/>
<path id="Vector 2584" d="M1.41016 8.67899V6.03613" stroke="black" stroke-width="1.5" stroke-linecap="round" stroke-linejoin="round"/>
<path id="Vector 2585" d="M13.3047 6.03613V8.67899" stroke="black" stroke-width="1.5" stroke-linecap="round" stroke-linejoin="round"/>
<path id="Vector 2586" d="M8.67801 13.3037H6.03516" stroke="black" stroke-width="1.5" stroke-linecap="round" stroke-linejoin="round"/>
<path id="Vector 2587" d="M8.67801 1.41113H6.03516" stroke="black" stroke-width="1.5" stroke-linecap="round" stroke-linejoin="round"/>
</g>
</g>
<defs>
<clipPath id="clip0_47_146700">
<rect width="20" height="20" fill="white"/>
</clipPath>
</defs>
</svg>
