<svg width="20" height="20" viewBox="0 0 20 20" fill="none" xmlns="http://www.w3.org/2000/svg">
<g id="pathfinder-intersect-8" clip-path="url(#clip0_47_146683)">
<g id="pathfinder-intersect">
<path id="Vector 2580" d="M18.5871 17.2686C18.5871 17.9984 17.9955 18.59 17.2656 18.59" stroke="black" stroke-width="1.5" stroke-linecap="round" stroke-linejoin="round"/>
<path id="Vector 2582" d="M17.2656 6.69727C17.9955 6.69727 18.5871 7.2889 18.5871 8.01869" stroke="black" stroke-width="1.5" stroke-linecap="round" stroke-linejoin="round"/>
<path id="Vector 2583" d="M6.69531 17.2686C6.69531 17.9984 7.28694 18.59 8.01674 18.59" stroke="black" stroke-width="1.5" stroke-linecap="round" stroke-linejoin="round"/>
<path id="Vector 2584" d="M18.5898 11.3223V13.9651" stroke="black" stroke-width="1.5" stroke-linecap="round" stroke-linejoin="round"/>
<path id="Vector 2587" d="M11.3203 18.5898H13.9632" stroke="black" stroke-width="1.5" stroke-linecap="round" stroke-linejoin="round"/>
<path id="Vector 2589" d="M1.41016 2.73256C1.41016 2.00276 2.00178 1.41113 2.73158 1.41113" stroke="black" stroke-width="1.5" stroke-linecap="round" stroke-linejoin="round"/>
<path id="Vector 2590" d="M11.9805 1.41113C12.7103 1.41113 13.3019 2.00276 13.3019 2.73256" stroke="black" stroke-width="1.5" stroke-linecap="round" stroke-linejoin="round"/>
<path id="Vector 2591" d="M1.41016 11.9824C1.41016 12.7122 2.00178 13.3039 2.73158 13.3039" stroke="black" stroke-width="1.5" stroke-linecap="round" stroke-linejoin="round"/>
<path id="Vector 2593" d="M1.41016 8.67899V6.03613" stroke="black" stroke-width="1.5" stroke-linecap="round" stroke-linejoin="round"/>
<path id="Vector 2594" d="M6.03516 1.41113H8.67801" stroke="black" stroke-width="1.5" stroke-linecap="round" stroke-linejoin="round"/>
<path id="Vector" d="M8.01674 6.69727C7.28694 6.69727 6.69531 7.2889 6.69531 8.01869V11.983C6.69531 12.7128 7.28694 13.3044 8.01674 13.3044H11.981C12.7108 13.3044 13.3025 12.7128 13.3025 11.983V8.01869C13.3025 7.2889 12.7108 6.69727 11.981 6.69727H8.01674Z" stroke="black" stroke-width="1.5" stroke-linecap="round" stroke-linejoin="round"/>
</g>
</g>
<defs>
<clipPath id="clip0_47_146683">
<rect width="20" height="20" fill="white"/>
</clipPath>
</defs>
</svg>
