<svg width="20" height="20" viewBox="0 0 20 20" fill="none" xmlns="http://www.w3.org/2000/svg">
<g id="pattern-2" clip-path="url(#clip0_47_141300)">
<g id="pattern">
<path id="Rectangle 50" d="M1.41016 11.2271C1.41016 11.9048 1.95952 12.4542 2.6372 12.4542H11.2265C11.9042 12.4542 12.4535 11.9048 12.4535 11.2271V2.63781C12.4535 1.96013 11.9042 1.41077 11.2265 1.41077H2.6372C1.95952 1.41077 1.41016 1.96013 1.41016 2.63781V11.2271Z" stroke="black" stroke-width="1.5" stroke-linecap="round" stroke-linejoin="round"/>
<path id="Rectangle 51" d="M12.4551 7.54626H17.3632C18.0408 7.54626 18.5903 8.09562 18.5903 8.7733V17.3627C18.5903 18.0403 18.0408 18.5896 17.3632 18.5896H8.77393C8.09625 18.5896 7.54688 18.0403 7.54688 17.3627V12.4544" stroke="black" stroke-width="1.5" stroke-linecap="round" stroke-linejoin="round"/>
<g id="Group 2567">
<path id="Vector" d="M4.10379 2.50118C3.92134 2.50118 3.77344 2.35327 3.77344 2.17082C3.77344 1.98836 3.92134 1.84045 4.10379 1.84045" stroke="black" stroke-width="1.5" stroke-linecap="round" stroke-linejoin="round"/>
<path id="Vector_2" d="M4.10547 2.50118C4.28792 2.50118 4.43583 2.35327 4.43583 2.17082C4.43583 1.98836 4.28792 1.84045 4.10547 1.84045" stroke="black" stroke-width="1.5" stroke-linecap="round" stroke-linejoin="round"/>
</g>
<g id="Group 2622">
<path id="Vector_3" d="M9.5452 2.50118C9.36275 2.50118 9.21484 2.35327 9.21484 2.17082C9.21484 1.98836 9.36275 1.84045 9.5452 1.84045" stroke="black" stroke-width="1.5" stroke-linecap="round" stroke-linejoin="round"/>
<path id="Vector_4" d="M9.54688 2.50118C9.72932 2.50118 9.87723 2.35327 9.87723 2.17082C9.87723 1.98836 9.72932 1.84045 9.54688 1.84045" stroke="black" stroke-width="1.5" stroke-linecap="round" stroke-linejoin="round"/>
</g>
<g id="Group 2623">
<path id="Vector_5" d="M4.10379 8.81538C3.92134 8.81538 3.77344 8.66747 3.77344 8.48502C3.77344 8.30257 3.92134 8.15466 4.10379 8.15466" stroke="black" stroke-width="1.5" stroke-linecap="round" stroke-linejoin="round"/>
<path id="Vector_6" d="M4.10547 8.81538C4.28792 8.81538 4.43583 8.66747 4.43583 8.48502C4.43583 8.30257 4.28792 8.15466 4.10547 8.15466" stroke="black" stroke-width="1.5" stroke-linecap="round" stroke-linejoin="round"/>
</g>
<g id="Group 2625">
<path id="Vector_7" d="M1.76395 5.48737C1.5815 5.48737 1.43359 5.33947 1.43359 5.15702C1.43359 4.97457 1.5815 4.82666 1.76395 4.82666" stroke="black" stroke-width="1.5" stroke-linecap="round" stroke-linejoin="round"/>
<path id="Vector_8" d="M1.76562 5.48737C1.94807 5.48737 2.09598 5.33947 2.09598 5.15702C2.09598 4.97457 1.94807 4.82666 1.76562 4.82666" stroke="black" stroke-width="1.5" stroke-linecap="round" stroke-linejoin="round"/>
</g>
<g id="Group 2626">
<path id="Vector_9" d="M6.93583 5.48737C6.75338 5.48737 6.60547 5.33947 6.60547 5.15702C6.60547 4.97457 6.75338 4.82666 6.93583 4.82666" stroke="black" stroke-width="1.5" stroke-linecap="round" stroke-linejoin="round"/>
<path id="Vector_10" d="M6.9375 5.48737C7.11995 5.48737 7.26786 5.33947 7.26786 5.15702C7.26786 4.97457 7.11995 4.82666 6.9375 4.82666" stroke="black" stroke-width="1.5" stroke-linecap="round" stroke-linejoin="round"/>
</g>
<g id="Group 2627">
<path id="Vector_11" d="M11.7718 5.48737C11.5893 5.48737 11.4414 5.33947 11.4414 5.15702C11.4414 4.97457 11.5893 4.82666 11.7718 4.82666" stroke="black" stroke-width="1.5" stroke-linecap="round" stroke-linejoin="round"/>
<path id="Vector_12" d="M11.7734 5.48737C11.9559 5.48737 12.1038 5.33947 12.1038 5.15702C12.1038 4.97457 11.9559 4.82666 11.7734 4.82666" stroke="black" stroke-width="1.5" stroke-linecap="round" stroke-linejoin="round"/>
</g>
<g id="Group 2628">
<path id="Vector_13" d="M1.76395 11.7125C1.5815 11.7125 1.43359 11.5646 1.43359 11.3821C1.43359 11.1997 1.5815 11.0518 1.76395 11.0518" stroke="black" stroke-width="1.5" stroke-linecap="round" stroke-linejoin="round"/>
<path id="Vector_14" d="M1.76562 11.7125C1.94807 11.7125 2.09598 11.5646 2.09598 11.3821C2.09598 11.1997 1.94807 11.0518 1.76562 11.0518" stroke="black" stroke-width="1.5" stroke-linecap="round" stroke-linejoin="round"/>
</g>
<g id="Group 2629">
<path id="Vector_15" d="M6.93583 11.7125C6.75338 11.7125 6.60547 11.5646 6.60547 11.3821C6.60547 11.1997 6.75338 11.0518 6.93583 11.0518" stroke="black" stroke-width="1.5" stroke-linecap="round" stroke-linejoin="round"/>
<path id="Vector_16" d="M6.9375 11.7125C7.11995 11.7125 7.26786 11.5646 7.26786 11.3821C7.26786 11.1997 7.11995 11.0518 6.9375 11.0518" stroke="black" stroke-width="1.5" stroke-linecap="round" stroke-linejoin="round"/>
</g>
<g id="Group 2630">
<path id="Vector_17" d="M11.7718 11.7125C11.5893 11.7125 11.4414 11.5646 11.4414 11.3821C11.4414 11.1997 11.5893 11.0518 11.7718 11.0518" stroke="black" stroke-width="1.5" stroke-linecap="round" stroke-linejoin="round"/>
<path id="Vector_18" d="M11.7734 11.7125C11.9559 11.7125 12.1038 11.5646 12.1038 11.3821C12.1038 11.1997 11.9559 11.0518 11.7734 11.0518" stroke="black" stroke-width="1.5" stroke-linecap="round" stroke-linejoin="round"/>
</g>
<g id="Group 2624">
<path id="Vector_19" d="M9.5452 8.81538C9.36275 8.81538 9.21484 8.66747 9.21484 8.48502C9.21484 8.30257 9.36275 8.15466 9.5452 8.15466" stroke="black" stroke-width="1.5" stroke-linecap="round" stroke-linejoin="round"/>
<path id="Vector_20" d="M9.54688 8.81538C9.72932 8.81538 9.87723 8.66747 9.87723 8.48502C9.87723 8.30257 9.72932 8.15466 9.54688 8.15466" stroke="black" stroke-width="1.5" stroke-linecap="round" stroke-linejoin="round"/>
</g>
</g>
</g>
<defs>
<clipPath id="clip0_47_141300">
<rect width="20" height="20" fill="white"/>
</clipPath>
</defs>
</svg>
