<svg width="20" height="20" viewBox="0 0 20 20" fill="none" xmlns="http://www.w3.org/2000/svg">
<g id="pdf-reader-69">
<g id="PDF-reader--essential-files-folder-PDF-reader-view">
<path id="Vector 1239" d="M5.43993 4.40674C7.44459 3.81279 5.65637 14.9557 3.92297 13.503C2.81965 12.5783 6.51266 11.1063 9.16885 10.7491C6.90952 8.73816 4.12339 4.79682 5.43993 4.40674Z" stroke="black" stroke-width="1.5" stroke-linecap="round" stroke-linejoin="round"/>
<path id="Vector" d="M15.9459 9.33922V6.03564L11.3209 1.41064H2.73158C2.38112 1.41064 2.04501 1.54987 1.79719 1.79768C1.54938 2.0455 1.41016 2.3816 1.41016 2.73207V17.2678C1.41016 17.6182 1.54938 17.9544 1.79719 18.2022C2.04501 18.4499 2.38112 18.5892 2.73158 18.5892H7.35659" stroke="black" stroke-width="1.5" stroke-linecap="round" stroke-linejoin="round"/>
<path id="Vector_2" d="M17.8801 14.5032C18.3138 14.9435 18.3138 15.6275 17.8801 16.0678C16.9178 17.0447 15.1108 18.5891 13.3038 18.5891C11.4969 18.5891 9.68989 17.0447 8.72762 16.0678C8.29392 15.6275 8.29392 14.9435 8.72762 14.5032C9.68989 13.5263 11.4969 11.9819 13.3038 11.9819C15.1108 11.9819 16.9178 13.5263 17.8801 14.5032Z" stroke="black" stroke-width="1.5" stroke-linecap="round" stroke-linejoin="round"/>
<path id="Vector_3" d="M13.3013 15.9464C13.6662 15.9464 13.9621 15.6506 13.9621 15.2857C13.9621 14.9209 13.6662 14.625 13.3013 14.625C12.9364 14.625 12.6406 14.9209 12.6406 15.2857C12.6406 15.6506 12.9364 15.9464 13.3013 15.9464Z" stroke="black" stroke-width="1.5" stroke-linecap="round" stroke-linejoin="round"/>
</g>
</g>
</svg>
