<svg width="20" height="20" viewBox="0 0 20 20" fill="none" xmlns="http://www.w3.org/2000/svg">
<g id="pdf-to-jpg-62" clip-path="url(#clip0_47_144529)">
<g id="PDF-to-JPG--essential-files-folder-PDF-to-JPG">
<path id="Vector" d="M9.3404 15.9466H5.37612C4.64632 15.9466 4.05469 15.355 4.05469 14.6251V5.37514C4.05469 4.64534 4.64632 4.05371 5.37612 4.05371H14.6261C14.9766 4.05371 15.3127 4.19294 15.5605 4.44074C15.8083 4.68856 15.9475 5.02467 15.9475 5.37514V10.6609" stroke="black" stroke-width="1.5" stroke-linecap="round" stroke-linejoin="round"/>
<path id="Vector_2" d="M11.6518 9.99986C12.564 9.99986 13.3036 9.26034 13.3036 8.34807C13.3036 7.43581 12.564 6.69629 11.6518 6.69629C10.7395 6.69629 10 7.43581 10 8.34807C10 9.26034 10.7395 9.99986 11.6518 9.99986Z" stroke="black" stroke-width="1.5" stroke-linecap="round" stroke-linejoin="round"/>
<path id="Vector_3" d="M15.9453 13.3037L18.5882 15.9466L15.9453 18.5894" stroke="black" stroke-width="1.5" stroke-linecap="round" stroke-linejoin="round"/>
<path id="Vector_4" d="M18.5876 15.9463H11.9805" stroke="black" stroke-width="1.5" stroke-linecap="round" stroke-linejoin="round"/>
<path id="Vector 1285" d="M4.05469 10.6606C6.97391 10.6606 9.3404 13.0271 9.3404 15.9464" stroke="black" stroke-width="1.5" stroke-linecap="round" stroke-linejoin="round"/>
<path id="Vector 1286" d="M1.41016 13.3035V2.73207C1.41016 2.00227 2.00178 1.41064 2.73158 1.41064H13.303" stroke="black" stroke-width="1.5" stroke-linecap="round" stroke-linejoin="round"/>
</g>
</g>
<defs>
<clipPath id="clip0_47_144529">
<rect width="20" height="20" fill="white"/>
</clipPath>
</defs>
</svg>
