<svg width="20" height="20" viewBox="0 0 20 20" fill="none" xmlns="http://www.w3.org/2000/svg">
<g id="peace-hand-6">
<g id="peace-hand">
<path id="Vector 107" d="M14.2428 18.5895C16.1769 16.7014 16.3078 14.282 16.5453 12.8331C16.9548 10.3355 14.2427 9.31023 11.241 8.72851L11.6266 3.14879C11.6867 2.27831 10.9968 1.53908 10.1243 1.53906C9.36011 1.53905 8.71709 2.11138 8.62848 2.87038L8.00283 8.13593L6.62459 3.1302C6.38159 2.24764 5.4644 1.70457 4.57384 1.91594C3.68472 2.12696 3.15656 3.01069 3.39193 3.89351L5.30883 11.0832" stroke="black" stroke-width="1.5" stroke-linecap="round" stroke-linejoin="round"/>
<path id="Vector 536" d="M5.88362 18.5893C3.27183 17.5477 2.86388 14.903 2.98314 13.0559C3.05812 11.8947 4.11254 11.0859 5.27615 11.0859H9.49371C10.2549 11.0859 10.872 11.703 10.872 12.4643C10.872 13.1017 10.4349 13.656 9.81508 13.8046L7.42766 14.377C8.17987 14.2538 9.89809 15.0129 9.96144 16.669" stroke="black" stroke-width="1.5" stroke-linecap="round" stroke-linejoin="round"/>
</g>
</g>
</svg>
