<svg width="20" height="20" viewBox="0 0 20 20" fill="none" xmlns="http://www.w3.org/2000/svg">
<g id="pen-1-59" clip-path="url(#clip0_47_141334)">
<g id="pen-1--content-creation-edit-pen-write">
<path id="Vector" d="M1.47656 18.5235L4.09879 15.9012" stroke="black" stroke-width="1.5" stroke-linecap="round" stroke-linejoin="round"/>
<path id="Vector_2" d="M6.99694 16.9363C6.87507 17.0592 6.73006 17.1568 6.57028 17.2234C6.41051 17.29 6.23915 17.3242 6.06605 17.3242C5.89297 17.3242 5.72161 17.29 5.56183 17.2234C5.40206 17.1568 5.25705 17.0592 5.13516 16.9363L3.06361 14.8647C2.94071 14.7429 2.84317 14.5979 2.77661 14.4382C2.71005 14.2783 2.67578 14.107 2.67578 13.9339C2.67578 13.7608 2.71005 13.5894 2.77661 13.4297C2.84317 13.2699 2.94071 13.1249 3.06361 13.003L13.7754 2.29119C14.297 1.76959 15.0045 1.47656 15.7421 1.47656C16.4797 1.47656 17.1872 1.76959 17.7088 2.29119C18.2303 2.81278 18.5234 3.52021 18.5234 4.25786C18.5234 4.99551 18.2303 5.70293 17.7088 6.22453L6.99694 16.9363Z" stroke="black" stroke-width="1.5" stroke-linecap="round" stroke-linejoin="round"/>
<path id="Vector_3" d="M15.8977 8.03424L10.273 2.40955C10.1511 2.28667 10.0061 2.18912 9.84635 2.12256C9.68657 2.056 9.51521 2.02173 9.34213 2.02173C9.16905 2.02173 8.99767 2.056 8.8379 2.12256C8.67812 2.18912 8.53312 2.28667 8.41123 2.40955L4.09766 6.72313" stroke="black" stroke-width="1.5" stroke-linecap="round" stroke-linejoin="round"/>
</g>
</g>
<defs>
<clipPath id="clip0_47_141334">
<rect width="20" height="20" fill="white"/>
</clipPath>
</defs>
</svg>
