<svg width="20" height="20" viewBox="0 0 20 20" fill="none" xmlns="http://www.w3.org/2000/svg">
<g id="pen-3-12" clip-path="url(#clip0_47_141344)">
<g id="pen-3--content-creation-edit-pen-pens-write">
<path id="Vector" d="M8.0173 4.71434C8.0173 3.83818 7.66925 2.99789 7.04971 2.37836C6.43017 1.75882 5.58989 1.41077 4.71373 1.41077C3.83757 1.41077 2.99728 1.75882 2.37775 2.37836C1.75821 2.99789 1.41016 3.83818 1.41016 4.71434V14.6251L4.71373 18.5893L8.0173 14.6251V4.71434Z" stroke="black" stroke-width="1.5" stroke-linecap="round" stroke-linejoin="round"/>
<path id="Vector_2" d="M1.41016 6.69653H8.0173" stroke="black" stroke-width="1.5" stroke-linecap="round" stroke-linejoin="round"/>
<path id="Vector_3" d="M10.6602 4.05362C10.6602 3.3527 10.9386 2.68047 11.4342 2.18485C11.9299 1.68921 12.6021 1.41077 13.303 1.41077C14.0039 1.41077 14.6761 1.68921 15.1718 2.18485C15.6674 2.68047 15.9459 3.3527 15.9459 4.05362V14.6251C15.9459 14.9755 15.8066 15.3117 15.5588 15.5594C15.3111 15.8072 14.9749 15.9465 14.6244 15.9465H11.9816C11.6311 15.9465 11.295 15.8072 11.0472 15.5594C10.7994 15.3117 10.6602 14.9755 10.6602 14.6251V4.05362Z" stroke="black" stroke-width="1.5" stroke-linecap="round" stroke-linejoin="round"/>
<path id="Vector_4" d="M13.3047 15.9465V18.5894" stroke="black" stroke-width="1.5" stroke-linecap="round" stroke-linejoin="round"/>
<path id="Vector_5" d="M10.6602 6.69653H17.2673C17.6177 6.69653 17.9539 6.83576 18.2017 7.08357C18.4494 7.33139 18.5887 7.66749 18.5887 8.01796V13.3037" stroke="black" stroke-width="1.5" stroke-linecap="round" stroke-linejoin="round"/>
</g>
</g>
<defs>
<clipPath id="clip0_47_141344">
<rect width="20" height="20" fill="white"/>
</clipPath>
</defs>
</svg>
