<svg width="20" height="20" viewBox="0 0 20 20" fill="none" xmlns="http://www.w3.org/2000/svg">
<g id="pencil-circle-33" clip-path="url(#clip0_47_141368)">
<g id="pencil-circle--change-circle-edit-modify-pencil-write-writing">
<path id="Vector" d="M18.5887 10.0001C18.5887 11.6989 18.085 13.3595 17.1412 14.772C16.1973 16.1845 14.856 17.2854 13.2864 17.9355C11.7169 18.5856 9.98991 18.7557 8.32376 18.4243C6.6576 18.0929 5.12714 17.2748 3.9259 16.0736C2.72467 14.8724 1.90662 13.3419 1.5752 11.6757C1.24378 10.0096 1.41388 8.28257 2.06398 6.71308C2.71409 5.14359 3.815 3.80213 5.2275 2.85833C6.64 1.91452 8.30064 1.41077 9.99944 1.41077" stroke="black" stroke-width="1.5" stroke-linecap="round" stroke-linejoin="round"/>
<path id="Vector_2" d="M14.6239 1.41077L8.01674 8.01791L6.69531 13.3036L11.981 11.9822L18.5882 5.37505" stroke="black" stroke-width="1.5" stroke-linecap="round" stroke-linejoin="round"/>
</g>
</g>
<defs>
<clipPath id="clip0_47_141368">
<rect width="20" height="20" fill="white"/>
</clipPath>
</defs>
</svg>
