<svg width="20" height="20" viewBox="0 0 20 20" fill="none" xmlns="http://www.w3.org/2000/svg">
<g id="pencil-square-32" clip-path="url(#clip0_47_141376)">
<g id="pencil-square--change-document-edit-modify-paper-pencil-write-writing">
<path id="Vector" d="M10.6508 12.6249L6.71875 13.3327L7.37409 9.3482L14.8842 1.86426C15.0061 1.74141 15.151 1.6439 15.3108 1.57736C15.4705 1.51082 15.6418 1.47656 15.8148 1.47656C15.9879 1.47656 16.1591 1.51082 16.3189 1.57736C16.4786 1.6439 16.6236 1.74141 16.7454 1.86426L18.1347 3.25357C18.2576 3.37541 18.3551 3.52037 18.4215 3.68009C18.4881 3.83981 18.5224 4.01112 18.5224 4.18415C18.5224 4.35718 18.4881 4.52849 18.4215 4.6882C18.3551 4.84792 18.2576 4.99288 18.1347 5.11473L10.6508 12.6249Z" stroke="black" stroke-width="1.5" stroke-linecap="round" stroke-linejoin="round"/>
<path id="Vector_2" d="M16.5492 13.2804V17.2124C16.5492 17.5601 16.4112 17.8933 16.1654 18.1391C15.9196 18.385 15.5862 18.5231 15.2386 18.5231H2.78724C2.43962 18.5231 2.10625 18.385 1.86045 18.1391C1.61465 17.8933 1.47656 17.5601 1.47656 17.2124V4.76099C1.47656 4.41337 1.61465 4.08 1.86045 3.83421C2.10625 3.58841 2.43962 3.45032 2.78724 3.45032H6.71925" stroke="black" stroke-width="1.5" stroke-linecap="round" stroke-linejoin="round"/>
</g>
</g>
<defs>
<clipPath id="clip0_47_141376">
<rect width="20" height="20" fill="white"/>
</clipPath>
</defs>
</svg>
