<svg width="21" height="21" viewBox="0 0 21 21" fill="none" xmlns="http://www.w3.org/2000/svg">
<path d="M14.9128 9.76177C14.7597 9.81709 14.5922 9.81709 14.4392 9.76177C13.2776 9.3016 12.2809 8.50329 11.5781 7.47024C10.8753 6.43717 10.4989 5.21693 10.4974 3.96748V2.14284C10.4918 2.05458 10.5041 1.96609 10.5335 1.88271C10.563 1.79933 10.6091 1.72279 10.669 1.6577C10.7288 1.59262 10.8013 1.54034 10.8819 1.50403C10.9626 1.46771 11.0497 1.44811 11.1382 1.44641H18.2139C18.3023 1.44811 18.3894 1.46771 18.47 1.50403C18.5507 1.54034 18.6232 1.59262 18.683 1.6577C18.7429 1.72279 18.789 1.79933 18.8185 1.88271C18.8479 1.96609 18.8603 2.05458 18.8546 2.14284V3.96748C18.8532 5.21693 18.4767 6.43717 17.7739 7.47024C17.0712 8.50329 16.0745 9.3016 14.9128 9.76177Z" stroke="black" stroke-width="1.5" stroke-linecap="round" stroke-linejoin="round"/>
<path d="M7.71317 1.44641H2.83817C2.06892 1.44641 1.44531 2.07001 1.44531 2.83927V18.1607C1.44531 18.93 2.06892 19.5536 2.83817 19.5536H12.5882C13.3574 19.5536 13.981 18.93 13.981 18.1607V12.5893" stroke="black" stroke-width="1.5" stroke-linecap="round" stroke-linejoin="round"/>
<path d="M7.01562 16.0714H8.40848" stroke="black" stroke-width="1.5" stroke-linecap="round" stroke-linejoin="round"/>
</svg>
