<svg width="21" height="21" viewBox="0 0 21 21" fill="none" xmlns="http://www.w3.org/2000/svg">
<g clip-path="url(#clip0_146_402524)">
<path d="M1.44531 14.6786L3.5346 12.5893L1.44531 10.5L3.5346 8.4107L1.44531 6.32141" stroke="black" stroke-width="1.5" stroke-linecap="round" stroke-linejoin="round"/>
<path d="M19.5541 14.6786L17.4648 12.5893L19.5541 10.5L17.4648 8.4107L19.5541 6.32141" stroke="black" stroke-width="1.5" stroke-linecap="round" stroke-linejoin="round"/>
<path d="M4.23047 16.0714V18.1607C4.23047 18.93 4.85408 19.5536 5.62333 19.5536H15.3733C16.1426 19.5536 16.7662 18.93 16.7662 18.1607V16.0714" stroke="black" stroke-width="1.5" stroke-linecap="round" stroke-linejoin="round"/>
<path d="M16.7662 4.92855V2.83927C16.7662 2.07001 16.1426 1.44641 15.3733 1.44641H5.62333C4.85408 1.44641 4.23047 2.07001 4.23047 2.83927V4.92855" stroke="black" stroke-width="1.5" stroke-linecap="round" stroke-linejoin="round"/>
<path d="M9.80078 16.0714H11.1936" stroke="black" stroke-width="1.5" stroke-linecap="round" stroke-linejoin="round"/>
</g>
<defs>
<clipPath id="clip0_146_402524">
<rect width="21" height="21" fill="white"/>
</clipPath>
</defs>
</svg>
