<svg width="21" height="21" viewBox="0 0 21 21" fill="none" xmlns="http://www.w3.org/2000/svg">
<path d="M10.0927 1.44641H4.92801C4.15877 1.44641 3.53516 2.07001 3.53516 2.83927V18.1607C3.53516 18.93 4.15877 19.5536 4.92801 19.5536H14.678C15.4473 19.5536 16.0709 18.93 16.0709 18.1607V13.5033" stroke="black" stroke-width="1.5" stroke-linecap="round" stroke-linejoin="round"/>
<path d="M9.10547 16.0714H10.4983" stroke="black" stroke-width="1.5" stroke-linecap="round" stroke-linejoin="round"/>
<path d="M7.78516 5.77736C7.78516 5.00812 8.40875 4.38452 9.17801 4.38452H17.8834C18.6526 4.38452 19.2763 5.00812 19.2763 5.77738V8.69367C19.2763 9.46292 18.6526 10.0865 17.8834 10.0865H9.17801C8.40875 10.0865 7.78516 9.46292 7.78516 8.69366V5.77736Z" stroke="black" stroke-width="1.5" stroke-linecap="round" stroke-linejoin="round"/>
<path d="M10.5552 7.47487C10.3629 7.47487 10.207 7.31897 10.207 7.12666C10.207 6.93433 10.3629 6.77844 10.5552 6.77844" stroke="black" stroke-width="1.5" stroke-linecap="round" stroke-linejoin="round"/>
<path d="M10.5547 7.47487C10.747 7.47487 10.9029 7.31897 10.9029 7.12666C10.9029 6.93433 10.747 6.77844 10.5547 6.77844" stroke="black" stroke-width="1.5" stroke-linecap="round" stroke-linejoin="round"/>
<path d="M13.5318 7.47487C13.3395 7.47487 13.1836 7.31897 13.1836 7.12666C13.1836 6.93433 13.3395 6.77844 13.5318 6.77844" stroke="black" stroke-width="1.5" stroke-linecap="round" stroke-linejoin="round"/>
<path d="M13.5312 7.47487C13.7236 7.47487 13.8795 7.31897 13.8795 7.12666C13.8795 6.93433 13.7236 6.77844 13.5312 6.77844" stroke="black" stroke-width="1.5" stroke-linecap="round" stroke-linejoin="round"/>
<path d="M16.5045 7.47487C16.3121 7.47487 16.1562 7.31897 16.1562 7.12666C16.1562 6.93433 16.3121 6.77844 16.5045 6.77844" stroke="black" stroke-width="1.5" stroke-linecap="round" stroke-linejoin="round"/>
<path d="M16.5039 7.47487C16.6963 7.47487 16.8521 7.31897 16.8521 7.12666C16.8521 6.93433 16.6963 6.77844 16.5039 6.77844" stroke="black" stroke-width="1.5" stroke-linecap="round" stroke-linejoin="round"/>
</svg>
