<svg width="20" height="20" viewBox="0 0 20 20" fill="none" xmlns="http://www.w3.org/2000/svg">
<g id="phonetic-text-99">
<g id="phonetic-text--phonetic-text-alphabet-formatting-letter-font">
<path id="Vector 3311" d="M1.41016 8.01786C1.41016 6.55825 2.5934 5.375 4.05301 5.375H7.35659C8.8162 5.375 9.99944 6.55825 9.99944 8.01786V10.6607M9.99944 10.6607V13.3036C9.99944 14.7632 8.8162 15.9464 7.35659 15.9464H4.05301C2.5934 15.9464 1.41016 14.7632 1.41016 13.3036C1.41016 11.844 2.5934 10.6607 4.05301 10.6607H9.99944Z" stroke="black" stroke-width="1.5" stroke-linecap="round" stroke-linejoin="round"/>
<path id="Vector 3312" d="M18.5893 13.3036C18.5893 14.7632 17.4061 15.9464 15.9464 15.9464H12.6429C11.1832 15.9464 10 14.7632 10 13.3036V10.6607M10 10.6607V9.66964C10 7.29777 11.9561 5.375 14.3279 5.375C16.6633 5.375 18.5893 7.2682 18.5893 9.60357C18.5893 10.1874 18.1159 10.6607 17.5321 10.6607H10Z" stroke="black" stroke-width="1.5" stroke-linecap="round" stroke-linejoin="round"/>
</g>
</g>
</svg>
