<svg width="21" height="21" viewBox="0 0 21 21" fill="none" xmlns="http://www.w3.org/2000/svg">
<path d="M17.4643 9.10712V4.92855C17.4643 4.00503 17.0974 3.11933 16.4444 2.4663C15.7913 1.81328 14.9056 1.44641 13.9821 1.44641C13.0586 1.44641 12.1729 1.81328 11.5199 2.4663C10.8669 3.11933 10.5 4.00503 10.5 4.92855V9.10712" stroke="black" stroke-width="1.5" stroke-linecap="round" stroke-linejoin="round"/>
<path d="M9.10547 9.10718H18.8555" stroke="black" stroke-width="1.5" stroke-linecap="round" stroke-linejoin="round"/>
<path d="M13.9805 9.10718V10.5" stroke="black" stroke-width="1.5" stroke-linecap="round" stroke-linejoin="round"/>
<path d="M8.06138 1.44641H2.83817C2.06892 1.44641 1.44531 2.07001 1.44531 2.83927V18.1607C1.44531 18.93 2.06892 19.5536 2.83817 19.5536H12.5882C13.3574 19.5536 13.981 18.93 13.981 18.1607V13.2857" stroke="black" stroke-width="1.5" stroke-linecap="round" stroke-linejoin="round"/>
<path d="M7.01562 16.0714H8.40848" stroke="black" stroke-width="1.5" stroke-linecap="round" stroke-linejoin="round"/>
</svg>
