<svg width="21" height="21" viewBox="0 0 21 21" fill="none" xmlns="http://www.w3.org/2000/svg">
<g clip-path="url(#clip0_146_401276)">
<path d="M13.9805 1.44641C15.4582 1.44641 16.8752 2.0334 17.92 3.07824C18.9649 4.12309 19.5519 5.5402 19.5519 7.01784" stroke="black" stroke-width="1.5" stroke-linecap="round" stroke-linejoin="round"/>
<path d="M13.9805 4.92859C14.5346 4.92859 15.0661 5.14872 15.4579 5.54053C15.8497 5.93234 16.0698 6.46377 16.0698 7.01787" stroke="black" stroke-width="1.5" stroke-linecap="round" stroke-linejoin="round"/>
<path d="M16.7667 11.1964C16.7667 10.827 16.6199 10.4727 16.3588 10.2115C16.0976 9.95027 15.7433 9.80352 15.3739 9.80352H13.2846L11.8917 7.71423H6.32031L4.92746 9.80352H2.83817C2.46876 9.80352 2.11448 9.95027 1.85327 10.2115C1.59206 10.4727 1.44531 10.827 1.44531 11.1964V18.1607C1.44531 18.53 1.59206 18.8844 1.85327 19.1456C2.11448 19.4067 2.46876 19.5535 2.83817 19.5535H15.3739C15.7433 19.5535 16.0976 19.4067 16.3588 19.1456C16.6199 18.8844 16.7667 18.53 16.7667 18.1607V11.1964Z" stroke="black" stroke-width="1.5" stroke-linecap="round" stroke-linejoin="round"/>
<path d="M9.10495 16.4191C10.4509 16.4191 11.5419 15.3281 11.5419 13.9822C11.5419 12.6362 10.4509 11.5452 9.10495 11.5452C7.75903 11.5452 6.66797 12.6362 6.66797 13.9822C6.66797 15.3281 7.75903 16.4191 9.10495 16.4191Z" stroke="black" stroke-width="1.5" stroke-linecap="round" stroke-linejoin="round"/>
</g>
<defs>
<clipPath id="clip0_146_401276">
<rect width="21" height="21" fill="white"/>
</clipPath>
</defs>
</svg>
