<svg width="21" height="21" viewBox="0 0 21 21" fill="none" xmlns="http://www.w3.org/2000/svg">
<g clip-path="url(#clip0_146_398954)">
<path d="M16.2644 12.4205C16.3498 12.8199 16.3948 13.2344 16.3948 13.6593C16.3948 16.9148 13.7556 19.554 10.5001 19.554C7.24458 19.554 4.60547 16.9148 4.60547 13.6593C4.60547 10.5775 6.97032 8.04817 9.98428 7.78687" stroke="black" stroke-width="1.5" stroke-linecap="round" stroke-linejoin="round"/>
<path d="M5.62006 16.9745C5.37742 17.8598 4.56713 18.5103 3.60491 18.5103C2.45103 18.5103 1.51562 17.5748 1.51562 16.421C1.51562 15.267 2.45103 14.3317 3.60491 14.3317C4.00186 14.3317 4.37296 14.4424 4.68901 14.6346" stroke="black" stroke-width="1.5" stroke-linecap="round" stroke-linejoin="round"/>
<path d="M16.3099 14.6346C16.6259 14.4424 16.9971 14.3317 17.394 14.3317C18.5479 14.3317 19.4832 15.267 19.4832 16.421C19.4832 17.5748 18.5479 18.5103 17.394 18.5103C16.4318 18.5103 15.6215 17.8598 15.3789 16.9745" stroke="black" stroke-width="1.5" stroke-linecap="round" stroke-linejoin="round"/>
<path d="M12.4238 15.9395C12.4238 15.9395 11.9347 16.9018 10.499 16.9018C9.06332 16.9018 8.57422 15.9395 8.57422 15.9395" stroke="black" stroke-width="1.5" stroke-linecap="round" stroke-linejoin="round"/>
<path d="M16.3553 13.0107C15.8419 13.2048 15.2853 13.3111 14.7038 13.3111C12.9218 13.3111 11.3728 12.3128 10.5857 10.845C9.79853 12.3128 8.24957 13.3111 6.46745 13.3111C5.82067 13.3111 5.20461 13.1796 4.64453 12.9419" stroke="black" stroke-width="1.5" stroke-linecap="round" stroke-linejoin="round"/>
<path d="M12.2945 6.93609C11.8758 6.86324 11.8758 6.26222 12.2945 6.18938C13.8113 5.9255 15.0177 4.77021 15.3468 3.26626L15.3722 3.15097C15.4627 2.73718 16.0519 2.7346 16.146 3.14758L16.1767 3.28193C16.5181 4.77879 17.7248 5.92433 19.2373 6.18748C19.6583 6.26069 19.6583 6.86477 19.2373 6.93798C17.7248 7.20113 16.5181 8.34667 16.1767 9.84354L16.146 9.97788C16.0519 10.3909 15.4627 10.3883 15.3722 9.97449L15.3468 9.85922C15.0177 8.35527 13.8113 7.19996 12.2945 6.93609Z" stroke="black" stroke-width="1.5" stroke-linecap="round" stroke-linejoin="round"/>
<path d="M9.10547 1.44641V4.23213" stroke="black" stroke-width="1.5" stroke-linecap="round" stroke-linejoin="round"/>
<path d="M7.71484 2.83923H10.5006" stroke="black" stroke-width="1.5" stroke-linecap="round" stroke-linejoin="round"/>
</g>
<defs>
<clipPath id="clip0_146_398954">
<rect width="21" height="21" fill="white"/>
</clipPath>
</defs>
</svg>
