<svg width="21" height="21" viewBox="0 0 21 21" fill="none" xmlns="http://www.w3.org/2000/svg">
<g clip-path="url(#clip0_146_398948)">
<path d="M7.71317 1.44641H2.14174C1.75711 1.44641 1.44531 1.75821 1.44531 2.14284V7.71427C1.44531 8.09889 1.75711 8.4107 2.14174 8.4107H7.71317C8.09779 8.4107 8.4096 8.09889 8.4096 7.71427V2.14284C8.4096 1.75821 8.09779 1.44641 7.71317 1.44641Z" stroke="black" stroke-width="1.5" stroke-linecap="round" stroke-linejoin="round"/>
<path d="M18.8577 1.44641H13.2863C12.9016 1.44641 12.5898 1.75821 12.5898 2.14284V7.71427C12.5898 8.09889 12.9016 8.4107 13.2863 8.4107H18.8577C19.2423 8.4107 19.5541 8.09889 19.5541 7.71427V2.14284C19.5541 1.75821 19.2423 1.44641 18.8577 1.44641Z" stroke="black" stroke-width="1.5" stroke-linecap="round" stroke-linejoin="round"/>
<path d="M7.71317 12.5892H2.14174C1.75711 12.5892 1.44531 12.901 1.44531 13.2857V18.8571C1.44531 19.2417 1.75711 19.5535 2.14174 19.5535H7.71317C8.09779 19.5535 8.4096 19.2417 8.4096 18.8571V13.2857C8.4096 12.901 8.09779 12.5892 7.71317 12.5892Z" stroke="black" stroke-width="1.5" stroke-linecap="round" stroke-linejoin="round"/>
<path d="M18.8577 12.5892H13.2863C12.9016 12.5892 12.5898 12.901 12.5898 13.2857V18.8571C12.5898 19.2417 12.9016 19.5535 13.2863 19.5535H18.8577C19.2423 19.5535 19.5541 19.2417 19.5541 18.8571V13.2857C19.5541 12.901 19.2423 12.5892 18.8577 12.5892Z" stroke="black" stroke-width="1.5" stroke-linecap="round" stroke-linejoin="round"/>
</g>
<defs>
<clipPath id="clip0_146_398948">
<rect width="21" height="21" fill="white"/>
</clipPath>
</defs>
</svg>
