<svg width="20" height="20" viewBox="0 0 20 20" fill="none" xmlns="http://www.w3.org/2000/svg">
<g id="pi-symbol-circle-9" clip-path="url(#clip0_47_146530)">
<g id="pi-symbol-circle--interface-math-pi-sign-mathematics-22-7">
<path id="Vector" d="M10.0011 18.2591C14.5624 18.2591 18.26 14.5614 18.26 10.0001C18.26 5.43886 14.5624 1.74121 10.0011 1.74121C5.43984 1.74121 1.74219 5.43886 1.74219 10.0001C1.74219 14.5614 5.43984 18.2591 10.0011 18.2591Z" stroke="black" stroke-width="1.5" stroke-linecap="round" stroke-linejoin="round"/>
<path id="Vector 297" d="M6.03516 8.34859C6.15107 7.90812 6.60326 7.19655 7.42612 7.02718C8.45583 6.81525 13.9636 6.03613 13.9636 6.03613" stroke="black" stroke-width="1.5" stroke-linecap="round" stroke-linejoin="round"/>
<path id="Vector 298" d="M8.68079 6.82031C8.68079 8.47207 8.65547 12.295 7.35938 13.9642" stroke="black" stroke-width="1.5" stroke-linecap="round" stroke-linejoin="round"/>
<path id="Vector 299" d="M11.9844 6.3252V13.2691C11.9844 13.5009 12.1429 13.9646 12.7772 13.9646C13.4115 13.9646 13.8343 13.5009 13.9665 13.2691" stroke="black" stroke-width="1.5" stroke-linecap="round" stroke-linejoin="round"/>
</g>
</g>
<defs>
<clipPath id="clip0_47_146530">
<rect width="20" height="20" fill="white"/>
</clipPath>
</defs>
</svg>
