<svg width="20" height="20" viewBox="0 0 20 20" fill="none" xmlns="http://www.w3.org/2000/svg">
<g id="pin-1-67" clip-path="url(#clip0_47_141380)">
<g id="pin-1--pin-push-thumbtack">
<path id="Vector" d="M13.6068 10.8588L17.9279 8.07063C18.0961 7.96855 18.2395 7.83016 18.3475 7.66558C18.4555 7.50098 18.5253 7.31436 18.5518 7.11931C18.5785 6.92427 18.5612 6.72576 18.5012 6.53827C18.4412 6.35078 18.3401 6.17905 18.2054 6.03563L13.9636 1.79385C13.8201 1.65902 13.6484 1.55793 13.4609 1.49797C13.2734 1.43802 13.0749 1.4207 12.8799 1.4473C12.6848 1.47389 12.4982 1.54373 12.3336 1.6517C12.169 1.75967 12.0306 1.90304 11.9286 2.07135L9.07426 6.33956L3.14105 7.66099C3.00537 7.69392 2.88078 7.76208 2.7799 7.8586C2.67903 7.95512 2.60541 8.07657 2.56653 8.21067C2.52764 8.34475 2.52486 8.48674 2.55845 8.62225C2.59204 8.75778 2.66082 8.88202 2.75784 8.98242L10.8846 17.1224C10.9875 17.2155 11.1126 17.2805 11.248 17.311C11.3833 17.3415 11.5242 17.3367 11.6571 17.2969C11.79 17.257 11.9104 17.1835 12.0065 17.0835C12.1027 16.9834 12.1714 16.8603 12.206 16.726L13.6068 10.8588Z" stroke="black" stroke-width="1.5" stroke-linecap="round" stroke-linejoin="round"/>
<path id="Vector_2" d="M6.8148 13.1448L1.41016 18.5891" stroke="black" stroke-width="1.5" stroke-linecap="round" stroke-linejoin="round"/>
</g>
</g>
<defs>
<clipPath id="clip0_47_141380">
<rect width="20" height="20" fill="white"/>
</clipPath>
</defs>
</svg>
