<svg width="20" height="20" viewBox="0 0 20 20" fill="none" xmlns="http://www.w3.org/2000/svg">
<g id="polygon-9" clip-path="url(#clip0_47_144750)">
<g id="polygon--polygon-octangle-design-geometric-shape-shapes-shape">
<path id="Vector" d="M13.69 18.2022C13.4422 18.4499 13.1061 18.5892 12.7557 18.5892H7.24322C6.89276 18.5892 6.55664 18.4499 6.30884 18.2022L1.79719 13.6905C1.54938 13.4427 1.41016 13.1066 1.41016 12.7562V7.24371C1.41016 6.89325 1.54938 6.55713 1.79719 6.30933L6.30884 1.79768C6.55664 1.54987 6.89276 1.41064 7.24322 1.41064H12.7557C13.1061 1.41064 13.4422 1.54987 13.69 1.79768L18.2017 6.30933C18.4494 6.55713 18.5887 6.89325 18.5887 7.24371V12.7562C18.5887 13.1066 18.4494 13.4427 18.2017 13.6905L13.69 18.2022Z" stroke="black" stroke-width="1.5" stroke-linecap="round" stroke-linejoin="round"/>
</g>
</g>
<defs>
<clipPath id="clip0_47_144750">
<rect width="20" height="20" fill="white"/>
</clipPath>
</defs>
</svg>
