<svg width="21" height="21" viewBox="0 0 21 21" fill="none" xmlns="http://www.w3.org/2000/svg">
<g clip-path="url(#clip0_146_398979)">
<path d="M7.71317 15.375H2.83817C2.46876 15.375 2.11448 15.2282 1.85327 14.967C1.59206 14.7059 1.44531 14.3515 1.44531 13.9821V2.83927C1.44531 2.46985 1.59206 2.11558 1.85327 1.85437C2.11448 1.59316 2.46876 1.44641 2.83817 1.44641H13.981C14.3504 1.44641 14.7048 1.59316 14.9659 1.85437C15.2271 2.11558 15.3739 2.46985 15.3739 2.83927V5.62498" stroke="black" stroke-width="1.5" stroke-linecap="round" stroke-linejoin="round"/>
<path d="M8.4096 8.06248C9.56348 8.06248 10.4989 7.12708 10.4989 5.9732C10.4989 4.81931 9.56348 3.88391 8.4096 3.88391C7.25571 3.88391 6.32031 4.81931 6.32031 5.9732C6.32031 7.12708 7.25571 8.06248 8.4096 8.06248Z" stroke="black" stroke-width="1.5" stroke-linecap="round" stroke-linejoin="round"/>
<path d="M9.39674 10.2493C9.07151 10.1817 8.73998 10.149 8.40781 10.1518C7.65079 10.1507 6.904 10.3264 6.2269 10.665C5.54981 11.0035 4.96115 11.4955 4.50781 12.1018" stroke="black" stroke-width="1.5" stroke-linecap="round" stroke-linejoin="round"/>
<path d="M18.856 13.2856H11.8917C11.5071 13.2856 11.1953 13.5974 11.1953 13.9821V18.8571C11.1953 19.2416 11.5071 19.5535 11.8917 19.5535H18.856C19.2406 19.5535 19.5525 19.2416 19.5525 18.8571V13.9821C19.5525 13.5974 19.2406 13.2856 18.856 13.2856Z" stroke="black" stroke-width="1.5" stroke-linecap="round" stroke-linejoin="round"/>
<path d="M12.5898 13.2857V11.8929C12.5898 11.1541 12.8833 10.4455 13.4058 9.9231C13.9282 9.40067 14.6367 9.10718 15.3756 9.10718C16.1143 9.10718 16.8229 9.40067 17.3453 9.9231C17.8678 10.4455 18.1613 11.1541 18.1613 11.8929V13.2857" stroke="black" stroke-width="1.5" stroke-linecap="round" stroke-linejoin="round"/>
</g>
<defs>
<clipPath id="clip0_146_398979">
<rect width="21" height="21" fill="white"/>
</clipPath>
</defs>
</svg>
