<svg width="21" height="21" viewBox="0 0 21 21" fill="none" xmlns="http://www.w3.org/2000/svg">
<g clip-path="url(#clip0_146_401944)">
<path d="M18.1596 1.44641H2.83817C2.06892 1.44641 1.44531 2.07001 1.44531 2.83927V18.1607C1.44531 18.93 2.06892 19.5536 2.83817 19.5536H18.1596C18.9289 19.5536 19.5525 18.93 19.5525 18.1607V2.83927C19.5525 2.07001 18.9289 1.44641 18.1596 1.44641Z" stroke="black" stroke-width="1.5" stroke-linecap="round" stroke-linejoin="round"/>
<path d="M8.41071 5.625H5.625V8.41071" stroke="black" stroke-width="1.5" stroke-linecap="round" stroke-linejoin="round"/>
<path d="M5.625 5.625L10.5 10.5" stroke="black" stroke-width="1.5" stroke-linecap="round" stroke-linejoin="round"/>
<path d="M12.687 6.14038C13.376 6.4872 13.9728 6.99256 14.4285 7.61493C14.8841 8.23729 15.1856 8.95888 15.3081 9.72041C15.4306 10.482 15.3707 11.2617 15.1332 11.9956C14.8957 12.7294 14.4875 13.3965 13.9421 13.9419C13.3967 14.4873 12.7297 14.8955 11.9958 15.1329C11.2619 15.3704 10.4822 15.4303 9.72066 15.3079C8.95913 15.1853 8.23753 14.8839 7.61517 14.4282C6.9928 13.9726 6.48745 13.3758 6.14062 12.6868" stroke="black" stroke-width="1.5" stroke-linecap="round" stroke-linejoin="round"/>
</g>
<defs>
<clipPath id="clip0_146_401944">
<rect width="21" height="21" fill="white"/>
</clipPath>
</defs>
</svg>
