<svg width="20" height="20" viewBox="0 0 20 20" fill="none" xmlns="http://www.w3.org/2000/svg">
<g id="press-button-3" clip-path="url(#clip0_47_146317)">
<g id="press-button--hand-lock-login-padlock-password-textbox-touch-type-button-finger">
<path id="Vector 107" d="M17.4017 18.59V14.8461C17.4017 12.9683 15.8794 11.446 14.0016 11.446H11.0485V5.92839C11.0485 5.05105 10.3373 4.33984 9.45994 4.33984C8.58261 4.33984 7.87139 5.05105 7.87139 5.92839V13.1612L7.34166 13.2609C5.73096 13.564 4.96445 15.4237 5.89376 16.7737L6.10741 17.0841L7.14272 18.59" stroke="black" stroke-width="1.5" stroke-linecap="round" stroke-linejoin="round"/>
<path id="Rectangle 1680" d="M5.37444 8.01828H4.71373C2.88922 8.01828 1.41016 6.53921 1.41016 4.7147C1.41016 2.89019 2.88922 1.41113 4.71373 1.41113H15.2852C17.1097 1.41113 18.5887 2.89019 18.5887 4.7147C18.5887 6.53921 17.1097 8.01828 15.2852 8.01828H13.9637" stroke="black" stroke-width="1.5" stroke-linecap="round" stroke-linejoin="round"/>
</g>
</g>
<defs>
<clipPath id="clip0_47_146317">
<rect width="20" height="20" fill="white"/>
</clipPath>
</defs>
</svg>
