<svg width="21" height="21" viewBox="0 0 21 21" fill="none" xmlns="http://www.w3.org/2000/svg">
<g clip-path="url(#clip0_146_401282)">
<path d="M13.9805 1.44641C15.4582 1.44641 16.8752 2.0334 17.92 3.07824C18.9649 4.12309 19.5519 5.5402 19.5519 7.01784" stroke="black" stroke-width="1.5" stroke-linecap="round" stroke-linejoin="round"/>
<path d="M13.9805 4.92859C14.5346 4.92859 15.0661 5.14872 15.4579 5.54053C15.8497 5.93234 16.0698 6.46377 16.0698 7.01787" stroke="black" stroke-width="1.5" stroke-linecap="round" stroke-linejoin="round"/>
<path d="M13.2846 16.7679H15.3739C15.7433 16.7679 16.0976 16.6211 16.3588 16.3599C16.6199 16.0987 16.7667 15.7444 16.7667 15.375V11.1964C16.7667 10.827 16.6199 10.4728 16.3588 10.2115C16.0976 9.95034 15.7433 9.80359 15.3739 9.80359H2.83817C2.46876 9.80359 2.11448 9.95034 1.85327 10.2115C1.59206 10.4728 1.44531 10.827 1.44531 11.1964V15.375C1.44531 15.7444 1.59206 16.0987 1.85327 16.3599C2.11448 16.6211 2.46876 16.7679 2.83817 16.7679H4.92746" stroke="black" stroke-width="1.5" stroke-linecap="round" stroke-linejoin="round"/>
<path d="M4.92578 13.9822V18.8572C4.92578 19.0419 4.99916 19.219 5.12977 19.3497C5.26036 19.4802 5.4375 19.5536 5.62221 19.5536H12.5865C12.7712 19.5536 12.9483 19.4802 13.0789 19.3497C13.2095 19.219 13.2829 19.0419 13.2829 18.8572V13.9822H4.92578Z" stroke="black" stroke-width="1.5" stroke-linecap="round" stroke-linejoin="round"/>
<path d="M9.8019 5.625H4.9269C4.74219 5.625 4.56505 5.69838 4.43445 5.82898C4.30384 5.95958 4.23047 6.13672 4.23047 6.32143V9.80357" stroke="black" stroke-width="1.5" stroke-linecap="round" stroke-linejoin="round"/>
</g>
<defs>
<clipPath id="clip0_146_401282">
<rect width="21" height="21" fill="white"/>
</clipPath>
</defs>
</svg>
