<svg width="21" height="21" viewBox="0 0 21 21" fill="none" xmlns="http://www.w3.org/2000/svg">
<path d="M4.78824 13.1115H16.2098C17.9826 13.1115 19.4199 14.5487 19.4199 16.3216C19.4199 18.0944 17.9826 19.5317 16.2098 19.5317H4.78824C3.01534 19.5317 1.57812 18.0944 1.57812 16.3216C1.57812 14.5487 3.01534 13.1115 4.78824 13.1115Z" stroke="black" stroke-width="1.5" stroke-linecap="round" stroke-linejoin="round"/>
<path d="M15.2962 2.83374H5.54649C5.05698 2.83374 4.66016 3.18771 4.66016 3.62434V12.3209C4.66016 12.7575 5.05698 13.1115 5.54649 13.1115H15.2962C15.7857 13.1115 16.1825 12.7575 16.1825 12.3209V3.62434C16.1825 3.18771 15.7857 2.83374 15.2962 2.83374Z" stroke="black" stroke-width="1.5" stroke-linecap="round" stroke-linejoin="round"/>
<path d="M12.1938 2.83374V6.78672C12.1938 6.89156 12.1471 6.99212 12.064 7.06624C11.9809 7.14038 11.8682 7.18203 11.7506 7.18203H9.0916C8.97407 7.18203 8.86135 7.14038 8.77824 7.06624C8.69513 6.99212 8.64844 6.89156 8.64844 6.78672V2.83374" stroke="black" stroke-width="1.5" stroke-linecap="round" stroke-linejoin="round"/>
<path d="M5.94978 16.6698C5.75746 16.6698 5.60156 16.514 5.60156 16.3216C5.60156 16.1292 5.75746 15.9734 5.94978 15.9734" stroke="black" stroke-width="1.5" stroke-linecap="round" stroke-linejoin="round"/>
<path d="M5.94922 16.6698C6.14153 16.6698 6.29743 16.514 6.29743 16.3216C6.29743 16.1292 6.14153 15.9734 5.94922 15.9734" stroke="black" stroke-width="1.5" stroke-linecap="round" stroke-linejoin="round"/>
<path d="M10.5006 16.6698C10.3082 16.6698 10.1523 16.514 10.1523 16.3216C10.1523 16.1292 10.3082 15.9734 10.5006 15.9734" stroke="black" stroke-width="1.5" stroke-linecap="round" stroke-linejoin="round"/>
<path d="M10.5 16.6698C10.6923 16.6698 10.8482 16.514 10.8482 16.3216C10.8482 16.1292 10.6923 15.9734 10.5 15.9734" stroke="black" stroke-width="1.5" stroke-linecap="round" stroke-linejoin="round"/>
<path d="M15.0474 16.6698C14.8551 16.6698 14.6992 16.514 14.6992 16.3216C14.6992 16.1292 14.8551 15.9734 15.0474 15.9734" stroke="black" stroke-width="1.5" stroke-linecap="round" stroke-linejoin="round"/>
<path d="M15.0469 16.6698C15.2392 16.6698 15.3951 16.514 15.3951 16.3216C15.3951 16.1292 15.2392 15.9734 15.0469 15.9734" stroke="black" stroke-width="1.5" stroke-linecap="round" stroke-linejoin="round"/>
</svg>
