<svg width="20" height="20" viewBox="0 0 20 20" fill="none" xmlns="http://www.w3.org/2000/svg">
<g id="projector-3">
<g id="projector--work-meeting-presentation-projection">
<path id="Vector" d="M7.35659 10H2.73158C2.38112 10 2.04501 10.1392 1.79719 10.387C1.54938 10.6349 1.41016 10.971 1.41016 11.3214V15.2857C1.41016 15.6362 1.54938 15.9723 1.79719 16.2201C2.04501 16.4679 2.38112 16.6071 2.73158 16.6071H17.2673C17.6177 16.6071 17.9539 16.4679 18.2017 16.2201C18.4494 15.9723 18.5887 15.6362 18.5887 15.2857V11.3214C18.5887 10.971 18.4494 10.6349 18.2017 10.387C17.9539 10.1392 17.6177 10 17.2673 10H15.2852" stroke="black" stroke-width="1.5" stroke-linecap="round" stroke-linejoin="round"/>
<path id="Vector_2" d="M11.3198 13.3036C13.5092 13.3036 15.284 11.5287 15.284 9.33929C15.284 7.14988 13.5092 5.375 11.3198 5.375C9.13035 5.375 7.35547 7.14988 7.35547 9.33929C7.35547 11.5287 9.13035 13.3036 11.3198 13.3036Z" stroke="black" stroke-width="1.5" stroke-linecap="round" stroke-linejoin="round"/>
<path id="Vector_3" d="M2.73047 16.6074V18.5896" stroke="black" stroke-width="1.5" stroke-linecap="round" stroke-linejoin="round"/>
<path id="Vector_4" d="M17.2656 16.6074V18.5896" stroke="black" stroke-width="1.5" stroke-linecap="round" stroke-linejoin="round"/>
</g>
</g>
</svg>
