<svg width="21" height="21" viewBox="0 0 21 21" fill="none" xmlns="http://www.w3.org/2000/svg">
<g clip-path="url(#clip0_146_398433)">
<path d="M12.2757 9.98815C12.2145 9.81514 12.1202 9.65783 12.0003 9.52387C11.7452 9.2389 11.3746 9.05957 10.9621 9.05957H9.88393C9.19727 9.05957 8.64062 9.61623 8.64062 10.3029C8.64062 10.8872 9.04745 11.3926 9.61824 11.5175L11.2597 11.8766C11.8991 12.0164 12.3549 12.5831 12.3549 13.2377C12.3549 14.0069 11.7313 14.631 10.9621 14.631H10.0335C9.42702 14.631 8.91109 14.2434 8.71988 13.7025" stroke="black" stroke-width="1.5" stroke-linecap="round" stroke-linejoin="round"/>
<path d="M10.5 9.0595V7.66663" stroke="black" stroke-width="1.5" stroke-linecap="round" stroke-linejoin="round"/>
<path d="M10.5 16.0238V14.631" stroke="black" stroke-width="1.5" stroke-linecap="round" stroke-linejoin="round"/>
<path d="M19.5525 10.4164C19.5538 10.2231 19.5148 10.0316 19.4381 9.85414C19.3614 9.67669 19.2485 9.51715 19.1067 9.3857L10.4989 1.44641L1.89106 9.3857C1.7493 9.51715 1.63646 9.67669 1.55973 9.85414C1.48299 10.0316 1.44404 10.2231 1.44534 10.4164V18.1607C1.44534 18.5301 1.59209 18.8844 1.8533 19.1456C2.11451 19.4067 2.4688 19.5536 2.8382 19.5536H18.1596C18.529 19.5536 18.8833 19.4067 19.1445 19.1456C19.4058 18.8844 19.5525 18.5301 19.5525 18.1607V10.4164Z" stroke="black" stroke-width="1.5" stroke-linecap="round" stroke-linejoin="round"/>
</g>
<defs>
<clipPath id="clip0_146_398433">
<rect width="21" height="21" fill="white"/>
</clipPath>
</defs>
</svg>
