<svg width="21" height="21" viewBox="0 0 21 21" fill="none" xmlns="http://www.w3.org/2000/svg">
<g clip-path="url(#clip0_146_399496)">
<path d="M9.10435 4.92859H6.31864C5.54939 4.92859 4.92578 5.5522 4.92578 6.32145V9.10716C4.92578 9.87641 5.54939 10.5 6.31864 10.5H9.10435C9.8736 10.5 10.4972 9.87641 10.4972 9.10716V6.32145C10.4972 5.5522 9.8736 4.92859 9.10435 4.92859Z" stroke="black" stroke-width="1.5" stroke-linecap="round" stroke-linejoin="round"/>
<path d="M4.92746 1.44641H2.83817C2.46876 1.44641 2.11448 1.59316 1.85327 1.85437C1.59206 2.11558 1.44531 2.46985 1.44531 2.83927V4.92855" stroke="black" stroke-width="1.5" stroke-linecap="round" stroke-linejoin="round"/>
<path d="M16.0703 1.44641H18.1596C18.529 1.44641 18.8833 1.59316 19.1445 1.85437C19.4056 2.11558 19.5525 2.46985 19.5525 2.83927V4.92855" stroke="black" stroke-width="1.5" stroke-linecap="round" stroke-linejoin="round"/>
<path d="M4.92746 19.5536H2.83817C2.46876 19.5536 2.11448 19.4067 1.85327 19.1456C1.59206 18.8844 1.44531 18.5301 1.44531 18.1607V16.0714" stroke="black" stroke-width="1.5" stroke-linecap="round" stroke-linejoin="round"/>
<path d="M16.0703 19.5536H18.1596C18.529 19.5536 18.8833 19.4067 19.1445 19.1456C19.4056 18.8844 19.5525 18.5301 19.5525 18.1607V16.0714" stroke="black" stroke-width="1.5" stroke-linecap="round" stroke-linejoin="round"/>
<path d="M4.92578 13.9822V16.0715H7.01507" stroke="black" stroke-width="1.5" stroke-linecap="round" stroke-linejoin="round"/>
<path d="M10.4994 16.0715V13.9822H8.41016" stroke="black" stroke-width="1.5" stroke-linecap="round" stroke-linejoin="round"/>
<path d="M16.0698 7.01787H13.9805V4.92859" stroke="black" stroke-width="1.5" stroke-linecap="round" stroke-linejoin="round"/>
<path d="M16.0698 11.8929V9.80359H13.9805" stroke="black" stroke-width="1.5" stroke-linecap="round" stroke-linejoin="round"/>
<path d="M13.9805 13.9822V16.0715H16.0698" stroke="black" stroke-width="1.5" stroke-linecap="round" stroke-linejoin="round"/>
</g>
<defs>
<clipPath id="clip0_146_399496">
<rect width="21" height="21" fill="white"/>
</clipPath>
</defs>
</svg>
