<svg width="20" height="20" viewBox="0 0 20 20" fill="none" xmlns="http://www.w3.org/2000/svg">
<g id="quotation-1-15">
<g id="quotation-1--quote-quotation-format-formatting-open-close-marks-text">
<path id="Vector" d="M6.14167 10.3306C5.65315 9.53567 5.39453 8.62085 5.39453 7.68778C5.39453 6.75471 5.65315 5.83989 6.14167 5.04492" stroke="black" stroke-width="1.5" stroke-linecap="round" stroke-linejoin="round"/>
<path id="Vector_2" d="M6.63337 10.5548C6.99827 10.5548 7.29409 10.259 7.29409 9.89411C7.29409 9.52921 6.99827 9.2334 6.63337 9.2334C6.26847 9.2334 5.97266 9.52921 5.97266 9.89411C5.97266 10.259 6.26847 10.5548 6.63337 10.5548Z" stroke="black" stroke-width="1.5" stroke-linecap="round" stroke-linejoin="round"/>
<path id="Vector_3" d="M2.16511 10.3306C1.67659 9.53567 1.41797 8.62085 1.41797 7.68778C1.41797 6.75471 1.67659 5.83989 2.16511 5.04492" stroke="black" stroke-width="1.5" stroke-linecap="round" stroke-linejoin="round"/>
<path id="Vector_4" d="M2.6529 10.5548C3.0178 10.5548 3.31361 10.259 3.31361 9.89411C3.31361 9.52921 3.0178 9.2334 2.6529 9.2334C2.288 9.2334 1.99219 9.52921 1.99219 9.89411C1.99219 10.259 2.288 10.5548 2.6529 10.5548Z" stroke="black" stroke-width="1.5" stroke-linecap="round" stroke-linejoin="round"/>
<path id="Vector_5" d="M13.8594 9.66992C14.3479 10.4649 14.6065 11.3797 14.6065 12.3128C14.6065 13.2459 14.3479 14.1607 13.8594 14.9556" stroke="black" stroke-width="1.5" stroke-linecap="round" stroke-linejoin="round"/>
<path id="Vector_6" d="M13.3717 10.7667C13.7366 10.7667 14.0324 10.4709 14.0324 10.106C14.0324 9.74113 13.7366 9.44531 13.3717 9.44531C13.0068 9.44531 12.7109 9.74113 12.7109 10.106C12.7109 10.4709 13.0068 10.7667 13.3717 10.7667Z" stroke="black" stroke-width="1.5" stroke-linecap="round" stroke-linejoin="round"/>
<path id="Vector_7" d="M17.8359 9.66992C18.3245 10.4649 18.5831 11.3797 18.5831 12.3128C18.5831 13.2459 18.3245 14.1607 17.8359 14.9556" stroke="black" stroke-width="1.5" stroke-linecap="round" stroke-linejoin="round"/>
<path id="Vector_8" d="M17.3482 10.7667C17.7131 10.7667 18.0089 10.4709 18.0089 10.106C18.0089 9.74113 17.7131 9.44531 17.3482 9.44531C16.9834 9.44531 16.6875 9.74113 16.6875 10.106C16.6875 10.4709 16.9834 10.7667 17.3482 10.7667Z" stroke="black" stroke-width="1.5" stroke-linecap="round" stroke-linejoin="round"/>
</g>
</g>
</svg>
