<svg width="20" height="20" viewBox="0 0 20 20" fill="none" xmlns="http://www.w3.org/2000/svg">
<g id="radioactive-1-16">
<g id="radioactive-1--danger-nuke-radiation-nuclear-warning-alert-radioactive-caution">
<path id="Vector" d="M8.67801 7.13242L5.7048 1.99207C4.39994 2.74388 3.31605 3.82604 2.56216 5.12969C1.80826 6.43336 1.41094 7.91254 1.41016 9.41849H7.35659C7.35706 8.95504 7.4794 8.49985 7.71134 8.0986C7.94327 7.69736 8.27664 7.36415 8.67801 7.13242Z" stroke="black" stroke-width="1.5" stroke-linecap="round" stroke-linejoin="round"/>
<path id="Vector_2" d="M12.6417 9.41849H18.5882C18.5874 7.91254 18.19 6.43336 17.4361 5.12969C16.6823 3.82604 15.5984 2.74388 14.2935 1.99207L11.3203 7.13242C11.7217 7.36415 12.0551 7.69736 12.287 8.0986C12.5189 8.49985 12.6413 8.95504 12.6417 9.41849Z" stroke="black" stroke-width="1.5" stroke-linecap="round" stroke-linejoin="round"/>
<path id="Vector_3" d="M9.99777 12.0615C9.53481 12.0647 9.07912 11.9462 8.67634 11.7179L5.70312 16.8582C7.0093 17.6109 8.4903 18.0069 9.99777 18.0069C11.5052 18.0069 12.9862 17.6109 14.2924 16.8582L11.3192 11.7179C10.9164 11.9462 10.4607 12.0647 9.99777 12.0615Z" stroke="black" stroke-width="1.5" stroke-linecap="round" stroke-linejoin="round"/>
</g>
</g>
</svg>
