<svg width="20" height="20" viewBox="0 0 20 20" fill="none" xmlns="http://www.w3.org/2000/svg">
<g id="razor-cutter-tool-2" clip-path="url(#clip0_47_145504)">
<g id="razor-cutter-tool">
<path id="Subtract" d="M10.1057 1.23001C8.79211 2.44401 6.68607 2.35185 5.47873 1.03467L1.14844 5.30683C2.4389 6.54076 2.49495 8.65485 1.26448 9.95242L9.89531 18.7676C11.2095 17.5548 13.3151 17.6482 14.5216 18.9657L18.8519 14.6934C17.5599 13.4592 17.5041 11.3429 18.7364 10.0452L10.1057 1.23001Z" stroke="black" stroke-width="2.06897" stroke-linecap="round" stroke-linejoin="round"/>
<path id="Rectangle 53" d="M11.9336 8.12158H8.11152V11.9437H11.9336V8.12158Z" stroke="black" stroke-width="2.06897" stroke-linecap="round" stroke-linejoin="round"/>
<path id="Vector 1201" d="M8.11097 8.12125L5.91406 5.92432" stroke="black" stroke-width="2.06897" stroke-linecap="round" stroke-linejoin="round"/>
<path id="Vector 1202" d="M4.98828 6.84892L6.83787 4.99951" stroke="black" stroke-width="2.06897" stroke-linecap="round" stroke-linejoin="round"/>
<path id="Vector 1203" d="M11.9336 11.9438L14.1305 14.1408" stroke="black" stroke-width="2.06897" stroke-linecap="round" stroke-linejoin="round"/>
<path id="Vector 1204" d="M15.0565 13.2153L13.207 15.0648" stroke="black" stroke-width="2.06897" stroke-linecap="round" stroke-linejoin="round"/>
</g>
</g>
<defs>
<clipPath id="clip0_47_145504">
<rect width="20" height="20" fill="white"/>
</clipPath>
</defs>
</svg>
