<svg width="21" height="21" viewBox="0 0 21 21" fill="none" xmlns="http://www.w3.org/2000/svg">
<g clip-path="url(#clip0_146_399523)">
<path d="M11.1964 12.5893L5.625 7.01782" stroke="black" stroke-width="1.5" stroke-linecap="round" stroke-linejoin="round"/>
<path d="M11.1964 7.01782L5.625 12.5893" stroke="black" stroke-width="1.5" stroke-linecap="round" stroke-linejoin="round"/>
<path d="M17.4632 1.44641H4.23103C3.49221 1.44641 2.78365 1.73991 2.26123 2.26233C1.73881 2.78475 1.44531 3.49331 1.44531 4.23213V19.5536L4.92746 17.4643L8.4096 19.5536L11.8917 17.4643L15.3739 19.5536V3.5357C15.3739 2.98159 15.594 2.45016 15.9858 2.05835C16.3776 1.66653 16.9091 1.44641 17.4632 1.44641ZM17.4632 1.44641C18.0172 1.44641 18.5488 1.66653 18.9406 2.05835C19.3324 2.45016 19.5525 2.98159 19.5525 3.5357V8.4107H15.3739" stroke="black" stroke-width="1.5" stroke-linecap="round" stroke-linejoin="round"/>
</g>
<defs>
<clipPath id="clip0_146_399523">
<rect width="21" height="21" fill="white"/>
</clipPath>
</defs>
</svg>
