<svg width="21" height="21" viewBox="0 0 21 21" fill="none" xmlns="http://www.w3.org/2000/svg">
<g clip-path="url(#clip0_146_401289)">
<path d="M13.9805 1.44641C15.4582 1.44641 16.8752 2.0334 17.92 3.07824C18.9649 4.12309 19.5519 5.5402 19.5519 7.01784" stroke="black" stroke-width="1.5" stroke-linecap="round" stroke-linejoin="round"/>
<path d="M13.9805 4.92859C14.5346 4.92859 15.0661 5.14872 15.4579 5.54053C15.8497 5.93234 16.0698 6.46377 16.0698 7.01787" stroke="black" stroke-width="1.5" stroke-linecap="round" stroke-linejoin="round"/>
<path d="M12.5882 8.41066V18.1607C12.5882 18.53 12.4414 18.8844 12.1802 19.1456C11.919 19.4067 11.5647 19.5535 11.1953 19.5535H2.83817C2.46876 19.5535 2.11448 19.4067 1.85327 19.1456C1.59206 18.8844 1.44531 18.53 1.44531 18.1607V4.23209C1.44531 3.86268 1.59206 3.5084 1.85327 3.24719C2.11448 2.98598 2.46876 2.83923 2.83817 2.83923H10.4989" stroke="black" stroke-width="1.5" stroke-linecap="round" stroke-linejoin="round"/>
<path d="M1.44531 10.5H12.5882" stroke="black" stroke-width="1.5" stroke-linecap="round" stroke-linejoin="round"/>
<path d="M4.92578 6.32141V7.01784" stroke="black" stroke-width="1.5" stroke-linecap="round" stroke-linejoin="round"/>
<path d="M4.92578 13.9822V14.6786" stroke="black" stroke-width="1.5" stroke-linecap="round" stroke-linejoin="round"/>
</g>
<defs>
<clipPath id="clip0_146_401289">
<rect width="21" height="21" fill="white"/>
</clipPath>
</defs>
</svg>
