<svg width="20" height="20" viewBox="0 0 20 20" fill="none" xmlns="http://www.w3.org/2000/svg">
<g id="reorder-dots-horizontal-31">
<g id="reorder-dots-horizontal--select-drag-reorder-dots">
<path id="Ellipse 588" d="M1.90625 6.91712C1.90625 7.17013 1.95608 7.42066 2.05291 7.65442C2.14973 7.88817 2.29165 8.10056 2.47055 8.27946C2.64946 8.45837 2.86185 8.60028 3.0956 8.69711C3.32935 8.79393 3.57988 8.84376 3.83289 8.84376C4.0859 8.84376 4.33644 8.79393 4.57019 8.69711C4.80394 8.60028 5.01633 8.45837 5.19524 8.27946C5.37414 8.10056 5.51606 7.88817 5.61288 7.65442C5.7097 7.42066 5.75954 7.17013 5.75954 6.91712C5.75954 6.40614 5.55655 5.91609 5.19524 5.55478C4.83392 5.19346 4.34387 4.99048 3.83289 4.99048C3.32192 4.99048 2.83187 5.19346 2.47055 5.55478C2.10924 5.91609 1.90625 6.40614 1.90625 6.91712Z" stroke="black" stroke-width="1.5" stroke-linecap="round" stroke-linejoin="round"/>
<path id="Ellipse 589" d="M14.2422 6.91712C14.2422 7.17013 14.292 7.42066 14.3888 7.65442C14.4857 7.88817 14.6276 8.10056 14.8065 8.27946C14.9854 8.45837 15.1978 8.60028 15.4315 8.69711C15.6653 8.79393 15.9158 8.84376 16.1688 8.84376C16.4218 8.84376 16.6724 8.79393 16.9061 8.69711C17.1399 8.60028 17.3523 8.45837 17.5312 8.27946C17.7101 8.10056 17.852 7.88817 17.9488 7.65442C18.0456 7.42066 18.0955 7.17013 18.0955 6.91712C18.0955 6.66411 18.0456 6.41358 17.9488 6.17983C17.852 5.94608 17.7101 5.73368 17.5312 5.55478C17.3523 5.37587 17.1399 5.23396 16.9061 5.13714C16.6724 5.04031 16.4218 4.99048 16.1688 4.99048C15.9158 4.99048 15.6653 5.04031 15.4315 5.13714C15.1978 5.23396 14.9854 5.37587 14.8065 5.55478C14.6276 5.73368 14.4857 5.94608 14.3888 6.17983C14.292 6.41358 14.2422 6.66411 14.2422 6.91712Z" stroke="black" stroke-width="1.5" stroke-linecap="round" stroke-linejoin="round"/>
<path id="Ellipse 590" d="M8.07422 6.91712C8.07422 7.17013 8.12405 7.42066 8.22088 7.65442C8.3177 7.88817 8.45961 8.10056 8.63852 8.27946C8.81742 8.45837 9.02982 8.60028 9.26357 8.69711C9.49732 8.79393 9.74785 8.84376 10.0009 8.84376C10.2539 8.84376 10.5044 8.79393 10.7382 8.69711C10.9719 8.60028 11.1843 8.45837 11.3632 8.27946C11.5421 8.10056 11.684 7.88817 11.7808 7.65442C11.8777 7.42066 11.9275 7.17013 11.9275 6.91712C11.9275 6.66411 11.8777 6.41358 11.7808 6.17983C11.684 5.94608 11.5421 5.73368 11.3632 5.55478C11.1843 5.37587 10.9719 5.23396 10.7382 5.13714C10.5044 5.04031 10.2539 4.99048 10.0009 4.99048C9.74785 4.99048 9.49732 5.04031 9.26357 5.13714C9.02982 5.23396 8.81742 5.37587 8.63852 5.55478C8.45961 5.73368 8.3177 5.94608 8.22088 6.17983C8.12405 6.41358 8.07422 6.66411 8.07422 6.91712Z" stroke="black" stroke-width="1.5" stroke-linecap="round" stroke-linejoin="round"/>
<path id="Ellipse 585" d="M1.90625 13.0829C1.90625 13.3359 1.95608 13.5864 2.05291 13.8202C2.14973 14.0539 2.29165 14.2663 2.47055 14.4452C2.64946 14.6241 2.86185 14.7661 3.0956 14.8629C3.32935 14.9597 3.57988 15.0095 3.83289 15.0095C4.0859 15.0095 4.33644 14.9597 4.57019 14.8629C4.80394 14.7661 5.01633 14.6241 5.19524 14.4452C5.37414 14.2663 5.51606 14.0539 5.61288 13.8202C5.7097 13.5864 5.75954 13.3359 5.75954 13.0829C5.75954 12.5719 5.55655 12.0819 5.19524 11.7206C4.83392 11.3592 4.34387 11.1562 3.83289 11.1562C3.32192 11.1562 2.83187 11.3592 2.47055 11.7206C2.10924 12.0819 1.90625 12.5719 1.90625 13.0829Z" stroke="black" stroke-width="1.5" stroke-linecap="round" stroke-linejoin="round"/>
<path id="Ellipse 587" d="M14.2422 13.0829C14.2422 13.3359 14.292 13.5864 14.3888 13.8202C14.4857 14.0539 14.6276 14.2663 14.8065 14.4452C14.9854 14.6241 15.1978 14.7661 15.4315 14.8629C15.6653 14.9597 15.9158 15.0095 16.1688 15.0095C16.4218 15.0095 16.6724 14.9597 16.9061 14.8629C17.1399 14.7661 17.3523 14.6241 17.5312 14.4452C17.7101 14.2663 17.852 14.0539 17.9488 13.8202C18.0456 13.5864 18.0955 13.3359 18.0955 13.0829C18.0955 12.8299 18.0456 12.5793 17.9488 12.3456C17.852 12.1118 17.7101 11.8995 17.5312 11.7206C17.3523 11.5416 17.1399 11.3997 16.9061 11.3029C16.6724 11.2061 16.4218 11.1562 16.1688 11.1562C15.9158 11.1562 15.6653 11.2061 15.4315 11.3029C15.1978 11.3997 14.9854 11.5416 14.8065 11.7206C14.6276 11.8995 14.4857 12.1118 14.3888 12.3456C14.292 12.5793 14.2422 12.8299 14.2422 13.0829Z" stroke="black" stroke-width="1.5" stroke-linecap="round" stroke-linejoin="round"/>
<path id="Ellipse 586" d="M8.07422 13.0829C8.07422 13.3359 8.12405 13.5864 8.22088 13.8202C8.3177 14.0539 8.45961 14.2663 8.63852 14.4452C8.81742 14.6241 9.02982 14.7661 9.26357 14.8629C9.49732 14.9597 9.74785 15.0095 10.0009 15.0095C10.2539 15.0095 10.5044 14.9597 10.7382 14.8629C10.9719 14.7661 11.1843 14.6241 11.3632 14.4452C11.5421 14.2663 11.684 14.0539 11.7808 13.8202C11.8777 13.5864 11.9275 13.3359 11.9275 13.0829C11.9275 12.8299 11.8777 12.5793 11.7808 12.3456C11.684 12.1118 11.5421 11.8995 11.3632 11.7206C11.1843 11.5416 10.9719 11.3997 10.7382 11.3029C10.5044 11.2061 10.2539 11.1562 10.0009 11.1562C9.74785 11.1562 9.49732 11.2061 9.26357 11.3029C9.02982 11.3997 8.81742 11.5416 8.63852 11.7206C8.45961 11.8995 8.3177 12.1118 8.22088 12.3456C8.12405 12.5793 8.07422 12.8299 8.07422 13.0829Z" stroke="black" stroke-width="1.5" stroke-linecap="round" stroke-linejoin="round"/>
</g>
</g>
</svg>
