<svg width="20" height="20" viewBox="0 0 20 20" fill="none" xmlns="http://www.w3.org/2000/svg">
<g id="ringing-bell-notification-46" clip-path="url(#clip0_47_141800)">
<g id="ringing-bell-notification--notification-vibrate-ring-sound-alarm-alert-bell-noise">
<path id="Vector" d="M8.67969 18.259H11.3225" stroke="black" stroke-width="1.5" stroke-linecap="round" stroke-linejoin="round"/>
<path id="Vector_2" d="M15.284 8.34821C15.284 6.94635 14.7272 5.60192 13.7359 4.61065C12.7446 3.61939 11.4002 3.0625 9.99833 3.0625C8.59646 3.0625 7.25203 3.61939 6.26076 4.61065C5.2695 5.60192 4.71261 6.94635 4.71261 8.34821V12.9732C4.71261 13.4989 4.50377 14.0031 4.13206 14.3749C3.76034 14.7466 3.25616 14.9554 2.73047 14.9554H17.2662C16.7405 14.9554 16.2363 14.7466 15.8645 14.3749C15.4928 14.0031 15.284 13.4989 15.284 12.9732V8.34821Z" stroke="black" stroke-width="1.5" stroke-linecap="round" stroke-linejoin="round"/>
<path id="Vector_3" d="M1.41016 8.17645C1.41087 6.91863 1.71083 5.67904 2.28526 4.56005C2.85968 3.44107 3.69209 2.47481 4.71373 1.74109" stroke="black" stroke-width="1.5" stroke-linecap="round" stroke-linejoin="round"/>
<path id="Vector_4" d="M18.5887 8.17645C18.5881 6.91863 18.2881 5.67904 17.7137 4.56005C17.1393 3.44107 16.3068 2.47481 15.2852 1.74109" stroke="black" stroke-width="1.5" stroke-linecap="round" stroke-linejoin="round"/>
</g>
</g>
<defs>
<clipPath id="clip0_47_141800">
<rect width="20" height="20" fill="white"/>
</clipPath>
</defs>
</svg>
