<svg width="20" height="20" viewBox="0 0 20 20" fill="none" xmlns="http://www.w3.org/2000/svg">
<g id="rotate-right-70" clip-path="url(#clip0_47_141436)">
<g id="rotate-right">
<path id="Vector" d="M18.5886 10C18.5886 10.7306 18.4954 11.4541 18.3141 12.1538M17.1411 14.7719C16.5971 15.5861 15.921 16.2966 15.1455 16.877M8.32363 18.4242C9.75196 18.7083 11.225 18.6239 12.6052 18.1844M3.92578 16.0736C4.36443 16.5123 4.847 16.8997 5.36404 17.2313" stroke="black" stroke-width="1.5" stroke-linecap="round" stroke-linejoin="round"/>
<path id="Vector_2" d="M15.947 1.41077L16.6077 4.05362L13.9648 4.71434" stroke="black" stroke-width="1.5" stroke-linecap="round" stroke-linejoin="round"/>
<path id="Vector_3" d="M3.92591 16.0736C2.72466 14.8724 1.90662 13.3419 1.5752 11.6757C1.24378 10.0096 1.41388 8.28257 2.06398 6.71308C2.71408 5.14359 3.81499 3.80213 5.22749 2.85833C6.63999 1.91453 8.30064 1.41077 9.99944 1.41077C12.46 1.40805 14.8268 2.35474 16.6066 4.05362" stroke="black" stroke-width="1.5" stroke-linecap="round" stroke-linejoin="round"/>
</g>
</g>
<defs>
<clipPath id="clip0_47_141436">
<rect width="20" height="20" fill="white"/>
</clipPath>
</defs>
</svg>
