<svg width="20" height="20" viewBox="0 0 20 20" fill="none" xmlns="http://www.w3.org/2000/svg">
<g id="rotate-right-circle-8" clip-path="url(#clip0_47_143099)">
<g id="rotate-right-circle">
<path id="Ellipse 440" d="M13.6781 11.5665C13.0698 12.9868 11.6594 13.9818 10.0165 13.9818C7.81768 13.9818 6.03516 12.1993 6.03516 10.0004C6.03516 7.80157 7.81768 6.01904 10.0165 6.01904C11.8006 6.01904 13.3106 7.1925 13.8168 8.80969" stroke="black" stroke-width="1.5" stroke-linecap="round" stroke-linejoin="round"/>
<path id="Vector 997" d="M11.2578 8.58755L13.8264 8.81751L14.0564 6.2489" stroke="black" stroke-width="1.5" stroke-linecap="round" stroke-linejoin="round"/>
<path id="Vector" d="M1.41016 10.0001C1.41016 5.25632 5.25571 1.41077 9.99944 1.41077C14.7432 1.41077 18.5887 5.25632 18.5887 10.0001C18.5887 14.7438 14.7432 18.5893 9.99944 18.5893C5.25571 18.5893 1.41016 14.7438 1.41016 10.0001Z" stroke="black" stroke-width="1.5" stroke-linecap="round" stroke-linejoin="round"/>
</g>
</g>
<defs>
<clipPath id="clip0_47_143099">
<rect width="20" height="20" fill="white"/>
</clipPath>
</defs>
</svg>
