<svg width="21" height="21" viewBox="0 0 21 21" fill="none" xmlns="http://www.w3.org/2000/svg">
<g clip-path="url(#clip0_146_403461)">
<path d="M19.5525 10.5C19.5525 12.9011 18.5986 15.2039 16.9007 16.9018C15.2028 18.5997 12.9 19.5536 10.4989 19.5536C8.09772 19.5536 5.79491 18.5997 4.09705 16.9018C2.39917 15.2039 1.44531 12.9011 1.44531 10.5V1.44641H19.5525V10.5Z" stroke="black" stroke-width="1.5" stroke-linecap="round" stroke-linejoin="round"/>
<path d="M7.7115 7.01782C7.7115 7.38724 7.56474 7.74151 7.30354 8.00273C7.04233 8.26393 6.68805 8.41068 6.31864 8.41068C5.94923 8.41068 5.59495 8.26393 5.33374 8.00273C5.07253 7.74151 4.92578 7.38724 4.92578 7.01782" stroke="black" stroke-width="1.5" stroke-linecap="round" stroke-linejoin="round"/>
<path d="M16.0709 7.01782C16.0709 7.38724 15.9241 7.74151 15.6629 8.00273C15.4017 8.26393 15.0474 8.41068 14.678 8.41068C14.3086 8.41068 13.9543 8.26393 13.6931 8.00273C13.4319 7.74151 13.2852 7.38724 13.2852 7.01782" stroke="black" stroke-width="1.5" stroke-linecap="round" stroke-linejoin="round"/>
<path d="M6.32031 13.9821C6.94398 11.993 9.31391 10.7775 11.6839 11.33C13.0559 11.6615 14.1785 12.6561 14.6775 13.9821" stroke="black" stroke-width="1.5" stroke-linecap="round" stroke-linejoin="round"/>
</g>
<defs>
<clipPath id="clip0_146_403461">
<rect width="21" height="21" fill="white"/>
</clipPath>
</defs>
</svg>
