<svg width="21" height="21" viewBox="0 0 21 21" fill="none" xmlns="http://www.w3.org/2000/svg">
<g clip-path="url(#clip0_146_403451)">
<path d="M7.36384 8.41066C7.17153 8.41066 7.01562 8.25476 7.01562 8.06245C7.01562 7.87014 7.17153 7.71423 7.36384 7.71423" stroke="black" stroke-width="1.5" stroke-linecap="round" stroke-linejoin="round"/>
<path d="M7.36328 8.41066C7.55559 8.41066 7.7115 8.25476 7.7115 8.06245C7.7115 7.87014 7.55559 7.71423 7.36328 7.71423" stroke="black" stroke-width="1.5" stroke-linecap="round" stroke-linejoin="round"/>
<path d="M13.6334 8.41066C13.4411 8.41066 13.2852 8.25476 13.2852 8.06245C13.2852 7.87014 13.4411 7.71423 13.6334 7.71423" stroke="black" stroke-width="1.5" stroke-linecap="round" stroke-linejoin="round"/>
<path d="M13.6328 8.41066C13.8251 8.41066 13.981 8.25476 13.981 8.06245C13.981 7.87014 13.8251 7.71423 13.6328 7.71423" stroke="black" stroke-width="1.5" stroke-linecap="round" stroke-linejoin="round"/>
<path d="M10.4989 19.5536C15.4991 19.5536 19.5525 15.5002 19.5525 10.5C19.5525 5.49983 15.4991 1.44641 10.4989 1.44641C5.49874 1.44641 1.44531 5.49983 1.44531 10.5C1.44531 15.5002 5.49874 19.5536 10.4989 19.5536Z" stroke="black" stroke-width="1.5" stroke-linecap="round" stroke-linejoin="round"/>
<path d="M6.32031 14.6785C6.94398 12.6894 9.31391 11.4739 11.6839 12.0264C13.0559 12.3579 14.1785 13.3525 14.6775 14.6785" stroke="black" stroke-width="1.5" stroke-linecap="round" stroke-linejoin="round"/>
</g>
<defs>
<clipPath id="clip0_146_403451">
<rect width="21" height="21" fill="white"/>
</clipPath>
</defs>
</svg>
