<svg width="18" height="18" viewBox="0 0 18 18" fill="none" xmlns="http://www.w3.org/2000/svg">
<path d="M1 3C1 1.89543 1.89543 1 3 1H11.1716C11.702 1 12.2107 1.21071 12.5858 1.58579L16.4142 5.41421C16.7893 5.78929 17 6.29799 17 6.82843V15C17 16.1046 16.1046 17 15 17H3C1.89543 17 1 16.1046 1 15V3Z" stroke="black" stroke-width="1.5" stroke-linecap="round" stroke-linejoin="round"/>
<path d="M5 1H10V4C10 4.55228 9.55228 5 9 5H6C5.44772 5 5 4.55228 5 4V1Z" stroke="black" stroke-width="1.5" stroke-linecap="round" stroke-linejoin="round"/>
<path d="M4 12C4 10.8954 4.89543 10 6 10H12C13.1046 10 14 10.8954 14 12V17H4V12Z" stroke="black" stroke-width="1.5" stroke-linecap="round" stroke-linejoin="round"/>
</svg>
