<svg width="21" height="21" viewBox="0 0 21 21" fill="none" xmlns="http://www.w3.org/2000/svg">
<g clip-path="url(#clip0_146_399543)">
<path d="M7.71317 1.44641H2.14174C1.95704 1.44641 1.7799 1.51978 1.64929 1.65039C1.51869 1.781 1.44531 1.95814 1.44531 2.14284V7.71427" stroke="black" stroke-width="1.5" stroke-linecap="round" stroke-linejoin="round"/>
<path d="M19.5531 7.71427V2.14284C19.5531 1.95814 19.4797 1.781 19.349 1.65039C19.2184 1.51978 19.0413 1.44641 18.8566 1.44641H13.2852" stroke="black" stroke-width="1.5" stroke-linecap="round" stroke-linejoin="round"/>
<path d="M13.2852 19.5535H18.8566C19.0413 19.5535 19.2184 19.4801 19.349 19.3496C19.4797 19.2189 19.5531 19.0418 19.5531 18.8571V13.2856" stroke="black" stroke-width="1.5" stroke-linecap="round" stroke-linejoin="round"/>
<path d="M1.44531 13.2856V18.8571C1.44531 19.0418 1.51869 19.2189 1.64929 19.3496C1.7799 19.4801 1.95704 19.5535 2.14174 19.5535H7.71317" stroke="black" stroke-width="1.5" stroke-linecap="round" stroke-linejoin="round"/>
</g>
<defs>
<clipPath id="clip0_146_399543">
<rect width="21" height="21" fill="white"/>
</clipPath>
</defs>
</svg>
