<svg width="20" height="20" viewBox="0 0 20 20" fill="none" xmlns="http://www.w3.org/2000/svg">
<g id="scissors-9" clip-path="url(#clip0_47_147126)">
<g id="scissors--clipboard-copy-cut-paste-right-scissors">
<path id="Vector" d="M3.64453 7.26562L18.5899 15.8814" stroke="black" stroke-width="1.5" stroke-linecap="round" stroke-linejoin="round"/>
<path id="Vector_2" d="M4.38337 7.35756C6.02543 7.35756 7.35659 6.02641 7.35659 4.38435C7.35659 2.74229 6.02543 1.41113 4.38337 1.41113C2.74131 1.41113 1.41016 2.74229 1.41016 4.38435C1.41016 6.02641 2.74131 7.35756 4.38337 7.35756Z" stroke="black" stroke-width="1.5" stroke-linecap="round" stroke-linejoin="round"/>
<path id="Vector_3" d="M3.64453 12.7358L18.5899 4.12012" stroke="black" stroke-width="1.5" stroke-linecap="round" stroke-linejoin="round"/>
<path id="Vector_4" d="M4.38337 18.59C6.02543 18.59 7.35659 17.2588 7.35659 15.6168C7.35659 13.9748 6.02543 12.6436 4.38337 12.6436C2.74131 12.6436 1.41016 13.9748 1.41016 15.6168C1.41016 17.2588 2.74131 18.59 4.38337 18.59Z" stroke="black" stroke-width="1.5" stroke-linecap="round" stroke-linejoin="round"/>
</g>
</g>
<defs>
<clipPath id="clip0_47_147126">
<rect width="20" height="20" fill="white"/>
</clipPath>
</defs>
</svg>
