<svg width="21" height="21" viewBox="0 0 21 21" fill="none" xmlns="http://www.w3.org/2000/svg">
<path d="M2.14174 2.49109H18.856C19.2739 2.49109 19.5525 2.76966 19.5525 3.18752V14.3304C19.5525 14.7482 19.2739 15.0268 18.856 15.0268H2.14174C1.72388 15.0268 1.44531 14.7482 1.44531 14.3304V3.18752C1.44531 2.76966 1.72388 2.49109 2.14174 2.49109Z" stroke="black" stroke-width="1.5" stroke-linecap="round" stroke-linejoin="round"/>
<path d="M7.21428 8.75889C8.28403 8.75889 9.15123 7.8917 9.15123 6.82196C9.15123 5.7522 8.28403 4.88501 7.21428 4.88501C6.14454 4.88501 5.27734 5.7522 5.27734 6.82196C5.27734 7.8917 6.14454 8.75889 7.21428 8.75889Z" stroke="black" stroke-width="1.5" stroke-linecap="round" stroke-linejoin="round"/>
<path d="M9.1077 15.0269L7.71484 18.509" stroke="black" stroke-width="1.5" stroke-linecap="round" stroke-linejoin="round"/>
<path d="M11.8906 15.0269L13.2835 18.509" stroke="black" stroke-width="1.5" stroke-linecap="round" stroke-linejoin="round"/>
<path d="M6.32031 18.5089H14.6775" stroke="black" stroke-width="1.5" stroke-linecap="round" stroke-linejoin="round"/>
<path d="M6.44531 15.0264L13.5144 8.2293C13.6363 8.12507 13.7899 8.06799 13.9486 8.06799C14.1073 8.06799 14.2609 8.12507 14.3828 8.2293L19.5523 12.0457" stroke="black" stroke-width="1.5" stroke-linecap="round" stroke-linejoin="round"/>
</svg>
