<svg width="20" height="20" viewBox="0 0 20 20" fill="none" xmlns="http://www.w3.org/2000/svg">
<g id="screwdriver-17" clip-path="url(#clip0_47_147322)">
<g id="screwdriver--screwdriver-screw-tool-settings-hand">
<path id="Vector" d="M7.24862 9.96654L10.0518 12.7697C10.1732 12.8911 10.2414 13.0558 10.2414 13.2276C10.2414 13.3993 10.1732 13.564 10.0518 13.6854L5.92179 17.8155C5.42616 18.311 4.75394 18.5894 4.05301 18.5894C3.35209 18.5894 2.67986 18.311 2.18424 17.8155C1.6886 17.3198 1.41016 16.6476 1.41016 15.9466C1.41016 15.2457 1.6886 14.5735 2.18424 14.0778L6.31424 9.94784C6.37591 9.88607 6.44945 9.8374 6.53043 9.80476C6.61141 9.77212 6.69813 9.7562 6.78542 9.75794C6.8727 9.7597 6.95873 9.77907 7.03833 9.81492C7.11793 9.85076 7.18946 9.90233 7.24862 9.96654Z" stroke="black" stroke-width="1.5" stroke-linecap="round" stroke-linejoin="round"/>
<path id="Vector_2" d="M8.67969 11.3218L14.4808 5.52051" stroke="black" stroke-width="1.5" stroke-linecap="round" stroke-linejoin="round"/>
<path id="Vector_3" d="M14.943 5.97006L14.0312 5.05828V3.2347L16.7666 1.41113L18.5902 3.2347L16.7666 5.97006H14.943Z" stroke="black" stroke-width="1.5" stroke-linecap="round" stroke-linejoin="round"/>
</g>
</g>
<defs>
<clipPath id="clip0_47_147322">
<rect width="20" height="20" fill="white"/>
</clipPath>
</defs>
</svg>
