<svg width="20" height="20" viewBox="0 0 20 20" fill="none" xmlns="http://www.w3.org/2000/svg">
<g id="screwdriver-wrench-20">
<g id="screwdriver-wrench--tools-construction-tools-wrench-screwdriver-preferences-setting-edit-adjust">
<path id="Union" d="M15.85 2.18126C15.7524 2.11406 15.6418 2.06815 15.5254 2.04648C15.409 2.02481 15.2892 2.02788 15.174 2.05548V5.04439C15.174 5.77418 14.5824 6.36581 13.8525 6.36581H13.1309C12.4011 6.36581 11.8094 5.7742 11.8094 5.04439V2.14981C11.6946 2.10356 11.571 2.0831 11.4474 2.0899C11.3238 2.09669 11.2032 2.13056 11.0941 2.18912C10.4361 2.62829 9.91468 3.24338 9.58914 3.96436C9.26361 4.68533 9.14703 5.48322 9.25271 6.2672C9.35838 7.05117 9.68207 7.78972 10.1869 8.39877C10.6598 8.96929 11.2738 9.4047 11.9667 9.66241L11.9668 16.5966C11.9668 17.4538 12.6633 18.1476 13.5204 18.1445C14.3698 18.1413 15.058 17.4543 15.0625 16.605L15.1004 9.60014C15.7525 9.32921 16.3277 8.89897 16.7725 8.34739C17.2644 7.73747 17.5774 7.00309 17.6768 6.22591C17.7762 5.44874 17.658 4.65924 17.3356 3.94518C17.013 3.23113 16.4989 2.62053 15.85 2.18126Z" stroke="black" stroke-width="1.5" stroke-linecap="round" stroke-linejoin="round"/>
<path id="Vector" d="M2.63487 10.8541H6.59916C6.77088 10.8541 6.93558 10.9223 7.057 11.0437C7.17843 11.1651 7.24666 11.3298 7.24666 11.5016V15.3601C7.24666 16.0611 6.9682 16.7333 6.47258 17.2289C5.97695 17.7245 5.30472 18.0029 4.6038 18.0029C3.90286 18.0029 3.23065 17.7245 2.73501 17.2289C2.23938 16.7333 1.96094 16.0611 1.96094 15.3601V11.5016C1.96087 11.4142 1.97845 11.3278 2.01263 11.2475C2.04681 11.1672 2.09688 11.0946 2.15983 11.0341C2.22278 10.9736 2.29732 10.9265 2.37895 10.8955C2.46059 10.8646 2.54764 10.8505 2.63487 10.8541Z" stroke="black" stroke-width="1.5" stroke-linecap="round" stroke-linejoin="round"/>
<path id="Vector_2" d="M4.6056 10.8023L4.60547 6.5625" stroke="black" stroke-width="1.5" stroke-linecap="round" stroke-linejoin="round"/>
<path id="Vector_3" d="M5.2469 6.55315H3.95743L2.66797 5.26369L3.31271 2.04004H5.89162L6.53636 5.26369L5.2469 6.55315Z" stroke="black" stroke-width="1.5" stroke-linecap="round" stroke-linejoin="round"/>
</g>
</g>
</svg>
