<svg width="21" height="21" viewBox="0 0 21 21" fill="none" xmlns="http://www.w3.org/2000/svg">
<g clip-path="url(#clip0_146_401344)">
<path d="M11.1953 12.9375L15.3739 10.5L19.5525 12.9375V17.1161L15.3739 19.5536L11.1953 17.1161V12.9375Z" stroke="black" stroke-width="1.5" stroke-linecap="round" stroke-linejoin="round"/>
<path d="M14.6797 15.0268C14.6797 15.2115 14.7531 15.3886 14.8837 15.5192C15.0143 15.6498 15.1914 15.7232 15.3761 15.7232C15.5608 15.7232 15.738 15.6498 15.8686 15.5192C15.9992 15.3886 16.0725 15.2115 16.0725 15.0268C16.0725 14.842 15.9992 14.6649 15.8686 14.5343C15.738 14.4037 15.5608 14.3303 15.3761 14.3303C15.1914 14.3303 15.0143 14.4037 14.8837 14.5343C14.7531 14.6649 14.6797 14.842 14.6797 15.0268Z" stroke="black" stroke-width="1.5" stroke-linecap="round" stroke-linejoin="round"/>
<path d="M7.35938 4.79663V6.88022" stroke="black" stroke-width="1.5" stroke-linecap="round" stroke-linejoin="round"/>
<path d="M10.4336 4.79663V6.88022" stroke="black" stroke-width="1.5" stroke-linecap="round" stroke-linejoin="round"/>
<path d="M14.0033 7.71427V3.83417C14.0033 2.51544 12.9343 1.44641 11.6156 1.44641H6.40541C6.03816 1.44641 5.68577 1.59145 5.42493 1.84998L2.08815 5.15705C1.82424 5.4186 1.67578 5.77477 1.67578 6.14634V14.3801C1.67578 15.6988 2.74482 16.7678 4.06353 16.7678H7.71506" stroke="black" stroke-width="1.5" stroke-linecap="round" stroke-linejoin="round"/>
</g>
<defs>
<clipPath id="clip0_146_401344">
<rect width="21" height="21" fill="white"/>
</clipPath>
</defs>
</svg>
