<svg width="21" height="21" viewBox="0 0 21 21" fill="none" xmlns="http://www.w3.org/2000/svg">
<g clip-path="url(#clip0_146_401351)">
<path d="M14.1346 11.6763L14.4356 10.8992C14.4864 10.7676 14.5758 10.6544 14.6919 10.5744C14.8081 10.4945 14.9457 10.4515 15.0868 10.451H15.6609C15.802 10.4515 15.9397 10.4945 16.0558 10.5744C16.172 10.6544 16.2613 10.7676 16.3121 10.8992L16.6132 11.6763L17.6355 12.2645L18.4616 12.1385C18.5992 12.1198 18.7392 12.1424 18.8638 12.2035C18.9886 12.2646 19.0922 12.3614 19.1618 12.4815L19.4419 12.9717C19.5136 13.0937 19.5467 13.2347 19.5367 13.376C19.5267 13.5172 19.4742 13.6521 19.3859 13.7629L18.8747 14.414V15.5904L19.3998 16.2415C19.4881 16.3523 19.5407 16.4871 19.5506 16.6283C19.5607 16.7696 19.5277 16.9106 19.4559 17.0327L19.1758 17.5228C19.1063 17.6429 19.0025 17.7397 18.8779 17.8008C18.7532 17.8618 18.6132 17.8845 18.4756 17.8659L17.6494 17.7398L16.6272 18.328L16.3262 19.1051C16.2753 19.2367 16.1861 19.35 16.0697 19.4299C15.9536 19.5099 15.816 19.5529 15.675 19.5533H15.0868C14.9457 19.5529 14.8081 19.5099 14.6919 19.4299C14.5758 19.35 14.4864 19.2367 14.4356 19.1051L14.1346 18.328L13.1123 17.7398L12.2861 17.8659C12.1485 17.8845 12.0085 17.8618 11.8839 17.8008C11.7592 17.7397 11.6555 17.6429 11.586 17.5228L11.3059 17.0327C11.2341 16.9106 11.2011 16.7696 11.2111 16.6283C11.2211 16.4871 11.2737 16.3523 11.3619 16.2415L11.873 15.5904V14.414L11.3479 13.7629C11.2597 13.6521 11.207 13.5172 11.1971 13.376C11.1871 13.2347 11.2201 13.0937 11.2919 12.9717L11.5719 12.4815C11.6415 12.3614 11.7452 12.2646 11.8699 12.2035C11.9945 12.1424 12.1346 12.1198 12.2721 12.1385L13.0983 12.2645L14.1346 11.6763Z" stroke="black" stroke-width="1.5" stroke-linecap="round" stroke-linejoin="round"/>
<path d="M14.6797 15.0017C14.6797 15.1864 14.7531 15.3636 14.8837 15.4942C15.0143 15.6248 15.1914 15.6982 15.3761 15.6982C15.5608 15.6982 15.738 15.6248 15.8686 15.4942C15.9992 15.3636 16.0725 15.1864 16.0725 15.0017C16.0725 14.817 15.9992 14.6399 15.8686 14.5093C15.738 14.3787 15.5608 14.3053 15.3761 14.3053C15.1914 14.3053 15.0143 14.3787 14.8837 14.5093C14.7531 14.6399 14.6797 14.817 14.6797 15.0017Z" stroke="black" stroke-width="1.5" stroke-linecap="round" stroke-linejoin="round"/>
<path d="M7.35938 4.79663V6.88022" stroke="black" stroke-width="1.5" stroke-linecap="round" stroke-linejoin="round"/>
<path d="M10.4336 4.79663V6.88022" stroke="black" stroke-width="1.5" stroke-linecap="round" stroke-linejoin="round"/>
<path d="M14.0033 7.01784V3.83417C14.0033 2.51544 12.9343 1.44641 11.6156 1.44641H6.40541C6.03816 1.44641 5.68577 1.59145 5.42493 1.84998L2.08815 5.15705C1.82424 5.4186 1.67578 5.77477 1.67578 6.14634V14.3801C1.67578 15.6988 2.74482 16.7678 4.06353 16.7678H8.41149" stroke="black" stroke-width="1.5" stroke-linecap="round" stroke-linejoin="round"/>
</g>
<defs>
<clipPath id="clip0_146_401351">
<rect width="21" height="21" fill="white"/>
</clipPath>
</defs>
</svg>
