<svg width="20" height="20" viewBox="0 0 20 20" fill="none" xmlns="http://www.w3.org/2000/svg">
<g id="search-setting-3" clip-path="url(#clip0_47_146979)">
<g id="search-setting--search-setting-magnifier-cog">
<path id="Vector" d="M8.67801 15.9468C12.6919 15.9468 15.9459 12.6929 15.9459 8.67899C15.9459 4.66506 12.6919 1.41113 8.67801 1.41113C4.66408 1.41113 1.41016 4.66506 1.41016 8.67899C1.41016 12.6929 4.66408 15.9468 8.67801 15.9468Z" stroke="black" stroke-width="1.5" stroke-linecap="round" stroke-linejoin="round"/>
<path id="Vector_2" d="M18.5898 18.5898L13.9648 13.9648" stroke="black" stroke-width="1.5" stroke-linecap="round" stroke-linejoin="round"/>
<path id="Vector_3" d="M7.72264 4.5091L7.41668 5.29891L6.3636 5.8966L5.524 5.76852C5.38419 5.74954 5.2419 5.77256 5.1152 5.83464C4.9885 5.89672 4.88313 5.99506 4.81246 6.11717L4.52784 6.61525C4.45491 6.7393 4.4213 6.88256 4.43146 7.02611C4.44163 7.16965 4.49508 7.30675 4.58476 7.41928L5.11841 8.08102V9.27641L4.59899 9.93814C4.50931 10.0507 4.45586 10.1878 4.4457 10.3313C4.43553 10.4749 4.46914 10.6181 4.54207 10.7422L4.82668 11.2402C4.89736 11.3624 5.00273 11.4607 5.12943 11.5228C5.25613 11.5849 5.39842 11.6079 5.53823 11.5889L6.37784 11.4608L7.41668 12.0585L7.72264 12.8483C7.77424 12.982 7.86502 13.0971 7.98311 13.1783C8.10118 13.2596 8.24104 13.3033 8.38437 13.3037H8.98207C9.1254 13.3033 9.26526 13.2596 9.38335 13.1783C9.50142 13.0971 9.5922 12.982 9.6438 12.8483L9.94976 12.0585L10.9886 11.4608L11.8282 11.5889C11.968 11.6079 12.1103 11.5849 12.237 11.5228C12.3637 11.4607 12.4691 11.3624 12.5398 11.2402L12.8244 10.7422C12.8973 10.6181 12.9309 10.4749 12.9207 10.3313C12.9106 10.1878 12.8571 10.0507 12.7675 9.93814L12.2338 9.27641V8.08102L12.7532 7.41928C12.8429 7.30675 12.8964 7.16965 12.9065 7.02611C12.9167 6.88256 12.8831 6.7393 12.8101 6.61525L12.5255 6.11717C12.4549 5.99506 12.3495 5.89672 12.2228 5.83464C12.0961 5.77256 11.9538 5.74954 11.814 5.76852L10.9744 5.8966L9.93553 5.29891L9.62957 4.5091C9.57797 4.37537 9.48718 4.26034 9.36911 4.17909C9.25103 4.09783 9.11117 4.05413 8.96784 4.05371H8.38437C8.24104 4.05413 8.10118 4.09783 7.98311 4.17909C7.86502 4.26034 7.77424 4.37537 7.72264 4.5091Z" stroke="black" stroke-width="1.5" stroke-linecap="round" stroke-linejoin="round"/>
<path id="Ellipse 1472" d="M8.01562 8.67927C8.01562 8.8545 8.08524 9.02256 8.20914 9.14646C8.33305 9.27037 8.50111 9.33998 8.67634 9.33998C8.85157 9.33998 9.01963 9.27037 9.14354 9.14646C9.26744 9.02256 9.33705 8.8545 9.33705 8.67927C9.33705 8.50404 9.26744 8.33598 9.14354 8.21207C9.01963 8.08817 8.85157 8.01855 8.67634 8.01855C8.50111 8.01855 8.33305 8.08817 8.20914 8.21207C8.08524 8.33598 8.01562 8.50404 8.01562 8.67927Z" stroke="black" stroke-width="1.5" stroke-linecap="round" stroke-linejoin="round"/>
</g>
</g>
<defs>
<clipPath id="clip0_47_146979">
<rect width="20" height="20" fill="white"/>
</clipPath>
</defs>
</svg>
