<svg width="21" height="21" viewBox="0 0 21 21" fill="none" xmlns="http://www.w3.org/2000/svg">
<g clip-path="url(#clip0_146_399578)">
<path d="M9.80246 18.1607C14.418 18.1607 18.1596 14.4191 18.1596 9.80355C18.1596 5.18803 14.418 1.44641 9.80246 1.44641C5.18693 1.44641 1.44531 5.18803 1.44531 9.80355C1.44531 14.4191 5.18693 18.1607 9.80246 18.1607Z" stroke="black" stroke-width="1.5" stroke-linecap="round" stroke-linejoin="round"/>
<path d="M15.707 15.7092L19.5513 19.5535" stroke="black" stroke-width="1.5" stroke-linecap="round" stroke-linejoin="round"/>
<path d="M12.1748 7.32745C12.0933 7.09678 11.9675 6.88703 11.8076 6.70841C11.4676 6.32847 10.9734 6.08936 10.4234 6.08936H8.98588C8.07032 6.08936 7.32812 6.83155 7.32812 7.74711C7.32812 8.52614 7.87057 9.20008 8.63162 9.36655L10.8202 9.84532C11.6728 10.0318 12.2805 10.7874 12.2805 11.6601C12.2805 12.6858 11.449 13.5179 10.4234 13.5179H9.18526C8.37665 13.5179 7.68875 13.0011 7.4338 12.2798" stroke="black" stroke-width="1.5" stroke-linecap="round" stroke-linejoin="round"/>
<path d="M9.80078 6.08932V4.23218" stroke="black" stroke-width="1.5" stroke-linecap="round" stroke-linejoin="round"/>
<path d="M9.80078 15.375V13.5178" stroke="black" stroke-width="1.5" stroke-linecap="round" stroke-linejoin="round"/>
</g>
<defs>
<clipPath id="clip0_146_399578">
<rect width="21" height="21" fill="white"/>
</clipPath>
</defs>
</svg>
