<svg width="21" height="21" viewBox="0 0 21 21" fill="none" xmlns="http://www.w3.org/2000/svg">
<g clip-path="url(#clip0_146_403467)">
<path d="M8.06417 16.3125H6.49051L1.53516 17.5513L2.77399 13.8348V2.68525C2.77399 2.35668 2.90452 2.04159 3.13684 1.80926C3.36917 1.57693 3.68428 1.44641 4.01284 1.44641H16.4013C16.7298 1.44641 17.0449 1.57693 17.2772 1.80926C17.5096 2.04159 17.6401 2.35668 17.6401 2.68525V8.67186" stroke="black" stroke-width="1.5" stroke-linecap="round" stroke-linejoin="round"/>
<path d="M6.49219 7.02051H13.9252" stroke="black" stroke-width="1.5" stroke-linecap="round" stroke-linejoin="round"/>
<path d="M6.49219 10.738H9.93625" stroke="black" stroke-width="1.5" stroke-linecap="round" stroke-linejoin="round"/>
<path d="M14.5603 18.0914C16.4834 18.0914 18.0425 16.5323 18.0425 14.6092C18.0425 12.6861 16.4834 11.1271 14.5603 11.1271C12.6371 11.1271 11.0781 12.6861 11.0781 14.6092C11.0781 16.5323 12.6371 18.0914 14.5603 18.0914Z" stroke="black" stroke-width="1.5" stroke-linecap="round" stroke-linejoin="round"/>
<path d="M19.4331 19.4835L17.0234 17.0739" stroke="black" stroke-width="1.5" stroke-linecap="round" stroke-linejoin="round"/>
</g>
<defs>
<clipPath id="clip0_146_403467">
<rect width="21" height="21" fill="white"/>
</clipPath>
</defs>
</svg>
