<svg width="22" height="21" viewBox="0 0 22 21" fill="none" xmlns="http://www.w3.org/2000/svg">
<path fill-rule="evenodd" clip-rule="evenodd" d="M10.2808 13.7619C12.6451 13.7619 14.5617 11.8453 14.5617 9.48103C14.5617 7.11679 12.6451 5.2002 10.2808 5.2002C7.91659 5.2002 6 7.11679 6 9.48103C6 11.8453 7.91659 13.7619 10.2808 13.7619Z" stroke="black" stroke-linecap="round" stroke-linejoin="round"/>
<path d="M13.3086 12.5077L16.0011 15.2002" stroke="black" stroke-linecap="round" stroke-linejoin="round"/>
<path fill-rule="evenodd" clip-rule="evenodd" d="M1.41797 2.61682C1.41797 1.51225 2.3134 0.616821 3.41797 0.616821H18.5846C19.6892 0.616821 20.5846 1.51225 20.5846 2.61682V17.7835C20.5846 18.8881 19.6892 19.7835 18.5846 19.7835H3.41797C2.3134 19.7835 1.41797 18.8881 1.41797 17.7835V2.61682Z" stroke="black" stroke-linecap="round" stroke-linejoin="round"/>
</svg>
