<svg width="21" height="21" viewBox="0 0 21 21" fill="none" xmlns="http://www.w3.org/2000/svg">
<g clip-path="url(#clip0_146_398439)">
<path d="M9.80246 18.1607C14.418 18.1607 18.1596 14.4191 18.1596 9.80355C18.1596 5.18803 14.418 1.44641 9.80246 1.44641C5.18693 1.44641 1.44531 5.18803 1.44531 9.80355C1.44531 14.4191 5.18693 18.1607 9.80246 18.1607Z" stroke="black" stroke-width="1.5" stroke-linecap="round" stroke-linejoin="round"/>
<path d="M15.707 15.7092L19.5513 19.5535" stroke="black" stroke-width="1.5" stroke-linecap="round" stroke-linejoin="round"/>
<path d="M5.625 8.89625C5.625 8.21586 6.17656 7.66431 6.85694 7.66431H12.7497C13.4301 7.66431 13.9817 8.21586 13.9817 8.89625V12.4014C13.9817 13.0818 13.4301 13.6334 12.7497 13.6334H6.85694C6.17656 13.6334 5.625 13.0818 5.625 12.4014V8.89625Z" stroke="black" stroke-width="1.5" stroke-linecap="round" stroke-linejoin="round"/>
<path d="M8.01172 7.38003V6.66959C8.01172 5.90034 8.63532 5.27673 9.40458 5.27673H10.2003C10.9695 5.27673 11.5931 5.90034 11.5931 6.66959V7.38003" stroke="black" stroke-width="1.5" stroke-linecap="round" stroke-linejoin="round"/>
</g>
<defs>
<clipPath id="clip0_146_398439">
<rect width="21" height="21" fill="white"/>
</clipPath>
</defs>
</svg>
