<svg width="21" height="21" viewBox="0 0 21 21" fill="none" xmlns="http://www.w3.org/2000/svg">
<path d="M19.2523 13.1744C19.1911 13.0014 19.0968 12.8441 18.9769 12.7101C18.7219 12.4252 18.3512 12.2458 17.9387 12.2458H16.8606C16.1739 12.2458 15.6172 12.8025 15.6172 13.4892C15.6172 14.0734 16.024 14.5789 16.5948 14.7038L18.2363 15.0629C18.8758 15.2027 19.3315 15.7693 19.3315 16.424C19.3315 17.1933 18.7079 17.8173 17.9387 17.8173H17.01C16.4036 17.8173 15.8877 17.4298 15.6964 16.8888" stroke="black" stroke-width="1.5" stroke-linecap="round" stroke-linejoin="round"/>
<path d="M17.4727 12.2458V10.8529" stroke="black" stroke-width="1.5" stroke-linecap="round" stroke-linejoin="round"/>
<path d="M17.4727 19.2101V17.8173" stroke="black" stroke-width="1.5" stroke-linecap="round" stroke-linejoin="round"/>
<path d="M16.2217 7.86788C15.8636 7.17163 15.3973 6.52845 14.8333 5.96457C13.4043 4.53543 11.4659 3.73254 9.44482 3.73254C7.42372 3.73254 5.48539 4.53543 4.05625 5.96457C2.62711 7.39371 1.82422 9.33204 1.82422 11.3531H13.1412" stroke="black" stroke-width="1.5" stroke-linecap="round" stroke-linejoin="round"/>
<path d="M9.44531 3.73259V1.44641" stroke="black" stroke-width="1.5" stroke-linecap="round" stroke-linejoin="round"/>
<path d="M4.87109 17.2674C4.87109 17.8737 5.11196 18.4552 5.5407 18.884C5.96944 19.3128 6.55094 19.5536 7.15727 19.5536C7.76361 19.5536 8.3451 19.3128 8.77385 18.884C9.20259 18.4552 9.44345 17.8737 9.44345 17.2674V11.3497" stroke="black" stroke-width="1.5" stroke-linecap="round" stroke-linejoin="round"/>
</svg>
