<svg width="20" height="20" viewBox="0 0 20 20" fill="none" xmlns="http://www.w3.org/2000/svg">
<g id="select-back-12" clip-path="url(#clip0_47_144018)">
<g id="select-back--behind-box-design-layer-layers-select-send-to-back">
<path id="Vector" d="M5.375 13.3035C5.375 13.6539 5.51423 13.9901 5.76203 14.2378C6.00985 14.4856 6.34596 14.6249 6.69643 14.6249" stroke="black" stroke-width="1.5" stroke-linecap="round" stroke-linejoin="round"/>
<path id="Vector_2" d="M6.69643 1.41064C6.34596 1.41064 6.00985 1.54987 5.76203 1.79768C5.51423 2.0455 5.375 2.3816 5.375 2.73207" stroke="black" stroke-width="1.5" stroke-linecap="round" stroke-linejoin="round"/>
<path id="Vector_3" d="M18.5871 2.73207C18.5871 2.3816 18.4478 2.0455 18.2 1.79768C17.9522 1.54987 17.6161 1.41064 17.2656 1.41064" stroke="black" stroke-width="1.5" stroke-linecap="round" stroke-linejoin="round"/>
<path id="Vector_4" d="M17.2656 14.6249C17.6161 14.6249 17.9522 14.4856 18.2 14.2378C18.4478 13.9901 18.5871 13.6539 18.5871 13.3035" stroke="black" stroke-width="1.5" stroke-linecap="round" stroke-linejoin="round"/>
<path id="Vector_5" d="M14.6244 18.5893H4.05301C3.35209 18.5893 2.67986 18.3109 2.18424 17.8152C1.6886 17.3195 1.41016 16.6473 1.41016 15.9464V5.375" stroke="black" stroke-width="1.5" stroke-linecap="round" stroke-linejoin="round"/>
<path id="Vector_6" d="M10.6602 1.41064H13.303" stroke="black" stroke-width="1.5" stroke-linecap="round" stroke-linejoin="round"/>
<path id="Vector_7" d="M10.6602 14.625H13.303" stroke="black" stroke-width="1.5" stroke-linecap="round" stroke-linejoin="round"/>
<path id="Vector_8" d="M18.5898 6.69629V9.33915" stroke="black" stroke-width="1.5" stroke-linecap="round" stroke-linejoin="round"/>
<path id="Vector_9" d="M5.375 6.69629V9.33915" stroke="black" stroke-width="1.5" stroke-linecap="round" stroke-linejoin="round"/>
</g>
</g>
<defs>
<clipPath id="clip0_47_144018">
<rect width="20" height="20" fill="white"/>
</clipPath>
</defs>
</svg>
