<svg width="20" height="20" viewBox="0 0 20 20" fill="none" xmlns="http://www.w3.org/2000/svg">
<g id="select-circle-area-1-11" clip-path="url(#clip0_47_144029)">
<g id="select-circle-area-1--select-area-object-work">
<path id="Vector" d="M11.9799 1.63538C10.6755 1.33573 9.32007 1.33573 8.01562 1.63538" stroke="black" stroke-width="1.5" stroke-linecap="round" stroke-linejoin="round"/>
<path id="Vector_2" d="M5.49283 2.69238C4.92588 3.04412 4.39865 3.45616 3.92033 3.92131C3.45518 4.39963 3.04314 4.92685 2.69141 5.49381" stroke="black" stroke-width="1.5" stroke-linecap="round" stroke-linejoin="round"/>
<path id="Vector_3" d="M1.63489 8.01782C1.33524 9.32227 1.33524 10.6777 1.63489 11.9821" stroke="black" stroke-width="1.5" stroke-linecap="round" stroke-linejoin="round"/>
<path id="Vector_4" d="M2.69141 14.5059C3.04314 15.0729 3.45518 15.6 3.92033 16.0784C4.39865 16.5435 4.92588 16.9555 5.49283 17.3073" stroke="black" stroke-width="1.5" stroke-linecap="round" stroke-linejoin="round"/>
<path id="Vector_5" d="M8.01562 18.3647C9.32007 18.6643 10.6755 18.6643 11.9799 18.3647" stroke="black" stroke-width="1.5" stroke-linecap="round" stroke-linejoin="round"/>
<path id="Vector_6" d="M14.5039 17.3073C15.0708 16.9555 15.598 16.5435 16.0764 16.0784C16.5415 15.6 16.9536 15.0729 17.3053 14.5059" stroke="black" stroke-width="1.5" stroke-linecap="round" stroke-linejoin="round"/>
<path id="Vector_7" d="M18.3633 11.9821C18.663 10.6777 18.663 9.32227 18.3633 8.01782" stroke="black" stroke-width="1.5" stroke-linecap="round" stroke-linejoin="round"/>
<path id="Vector_8" d="M17.3053 5.49381C16.9536 4.92685 16.5415 4.39963 16.0764 3.92131C15.598 3.45616 15.0708 3.04412 14.5039 2.69238" stroke="black" stroke-width="1.5" stroke-linecap="round" stroke-linejoin="round"/>
</g>
</g>
<defs>
<clipPath id="clip0_47_144029">
<rect width="20" height="20" fill="white"/>
</clipPath>
</defs>
</svg>
