<svg width="20" height="20" viewBox="0 0 20 20" fill="none" xmlns="http://www.w3.org/2000/svg">
<g id="select-none-5" clip-path="url(#clip0_47_144109)">
<g id="select-none">
<path id="Rectangle 433" d="M5.375 6.50835C5.375 5.88242 5.88242 5.375 6.50835 5.375H13.4917C14.1176 5.375 14.625 5.88242 14.625 6.50835V13.4917C14.625 14.1176 14.1176 14.625 13.4917 14.625H6.50835C5.88242 14.625 5.375 14.1176 5.375 13.4917V6.50835Z" stroke="black" stroke-width="1.5" stroke-linecap="round" stroke-linejoin="round"/>
<path id="Vector 2552" d="M5.70312 14.2946L14.2924 5.70532" stroke="black" stroke-width="1.5" stroke-linecap="round" stroke-linejoin="round"/>
<path id="Vector 2558" d="M8.01562 1.41064H11.9799" stroke="black" stroke-width="1.5" stroke-linecap="round" stroke-linejoin="round"/>
<path id="Vector 2559" d="M8.01562 18.5891H11.9799" stroke="black" stroke-width="1.5" stroke-linecap="round" stroke-linejoin="round"/>
<path id="Vector 2554" d="M1.41016 8.01782V11.9821" stroke="black" stroke-width="1.5" stroke-linecap="round" stroke-linejoin="round"/>
<path id="Vector 2555" d="M1.41016 15.9463V17.2677C1.41016 17.9975 2.00178 18.5891 2.73158 18.5891H4.05301" stroke="black" stroke-width="1.5" stroke-linecap="round" stroke-linejoin="round"/>
<path id="Vector 2556" d="M15.9453 18.5891H17.2667C17.9966 18.5891 18.5882 17.9975 18.5882 17.2677V15.9463" stroke="black" stroke-width="1.5" stroke-linecap="round" stroke-linejoin="round"/>
<path id="Vector 2557" d="M18.5882 4.0535V2.73207C18.5882 2.00227 17.9966 1.41064 17.2667 1.41064H15.9453" stroke="black" stroke-width="1.5" stroke-linecap="round" stroke-linejoin="round"/>
<path id="Vector 2553" d="M1.41016 4.0535V2.73207C1.41016 2.00227 2.00178 1.41064 2.73158 1.41064H4.05301" stroke="black" stroke-width="1.5" stroke-linecap="round" stroke-linejoin="round"/>
<path id="Vector 2560" d="M18.5898 8.01782V11.9821" stroke="black" stroke-width="1.5" stroke-linecap="round" stroke-linejoin="round"/>
</g>
</g>
<defs>
<clipPath id="clip0_47_144109">
<rect width="20" height="20" fill="white"/>
</clipPath>
</defs>
</svg>
