<svg width="20" height="20" viewBox="0 0 20 20" fill="none" xmlns="http://www.w3.org/2000/svg">
<g id="select-square-area-2-9" clip-path="url(#clip0_47_144131)">
<g id="select-square-area-2--select-area-object-work">
<g id="Group 34">
<path id="Vector" d="M1.74051 2.07136C1.55806 2.07136 1.41016 1.92345 1.41016 1.741C1.41016 1.55855 1.55806 1.41064 1.74051 1.41064" stroke="black" stroke-width="1.5" stroke-linecap="round" stroke-linejoin="round"/>
<path id="Vector_2" d="M1.74219 2.07136C1.92464 2.07136 2.07254 1.92345 2.07254 1.741C2.07254 1.55855 1.92464 1.41064 1.74219 1.41064" stroke="black" stroke-width="1.5" stroke-linecap="round" stroke-linejoin="round"/>
</g>
<g id="Group 49">
<path id="Vector_3" d="M1.74051 6.19441C1.55806 6.19441 1.41016 6.0465 1.41016 5.86405C1.41016 5.6816 1.55806 5.53369 1.74051 5.53369" stroke="black" stroke-width="1.5" stroke-linecap="round" stroke-linejoin="round"/>
<path id="Vector_4" d="M1.74219 6.19441C1.92464 6.19441 2.07254 6.0465 2.07254 5.86405C2.07254 5.6816 1.92464 5.53369 1.74219 5.53369" stroke="black" stroke-width="1.5" stroke-linecap="round" stroke-linejoin="round"/>
</g>
<g id="Group 48">
<path id="Vector_5" d="M1.74051 10.3175C1.55806 10.3175 1.41016 10.1696 1.41016 9.9871C1.41016 9.80465 1.55806 9.65674 1.74051 9.65674" stroke="black" stroke-width="1.5" stroke-linecap="round" stroke-linejoin="round"/>
<path id="Vector_6" d="M1.74219 10.3175C1.92464 10.3175 2.07254 10.1696 2.07254 9.9871C2.07254 9.80465 1.92464 9.65674 1.74219 9.65674" stroke="black" stroke-width="1.5" stroke-linecap="round" stroke-linejoin="round"/>
</g>
<g id="Group 47">
<path id="Vector_7" d="M1.74051 14.4662C1.55806 14.4662 1.41016 14.3183 1.41016 14.1358C1.41016 13.9533 1.55806 13.8054 1.74051 13.8054" stroke="black" stroke-width="1.5" stroke-linecap="round" stroke-linejoin="round"/>
<path id="Vector_8" d="M1.74219 14.4662C1.92464 14.4662 2.07254 14.3183 2.07254 14.1358C2.07254 13.9533 1.92464 13.8054 1.74219 13.8054" stroke="black" stroke-width="1.5" stroke-linecap="round" stroke-linejoin="round"/>
</g>
<g id="Group 46">
<path id="Vector_9" d="M1.74051 18.5892C1.55806 18.5892 1.41016 18.4413 1.41016 18.2588C1.41016 18.0763 1.55806 17.9285 1.74051 17.9285" stroke="black" stroke-width="1.5" stroke-linecap="round" stroke-linejoin="round"/>
<path id="Vector_10" d="M1.74219 18.5892C1.92464 18.5892 2.07254 18.4413 2.07254 18.2588C2.07254 18.0763 1.92464 17.9285 1.74219 17.9285" stroke="black" stroke-width="1.5" stroke-linecap="round" stroke-linejoin="round"/>
</g>
<g id="Group 38">
<path id="Vector_11" d="M18.26 2.07136C18.0776 2.07136 17.9297 1.92345 17.9297 1.741C17.9297 1.55855 18.0776 1.41064 18.26 1.41064" stroke="black" stroke-width="1.5" stroke-linecap="round" stroke-linejoin="round"/>
<path id="Vector_12" d="M18.2617 2.07136C18.4442 2.07136 18.5921 1.92345 18.5921 1.741C18.5921 1.55855 18.4442 1.41064 18.2617 1.41064" stroke="black" stroke-width="1.5" stroke-linecap="round" stroke-linejoin="round"/>
</g>
<g id="Group 39">
<path id="Vector_13" d="M18.26 6.19441C18.0776 6.19441 17.9297 6.0465 17.9297 5.86405C17.9297 5.6816 18.0776 5.53369 18.26 5.53369" stroke="black" stroke-width="1.5" stroke-linecap="round" stroke-linejoin="round"/>
<path id="Vector_14" d="M18.2617 6.19441C18.4442 6.19441 18.5921 6.0465 18.5921 5.86405C18.5921 5.6816 18.4442 5.53369 18.2617 5.53369" stroke="black" stroke-width="1.5" stroke-linecap="round" stroke-linejoin="round"/>
</g>
<g id="Group 40">
<path id="Vector_15" d="M18.26 10.3175C18.0776 10.3175 17.9297 10.1696 17.9297 9.9871C17.9297 9.80465 18.0776 9.65674 18.26 9.65674" stroke="black" stroke-width="1.5" stroke-linecap="round" stroke-linejoin="round"/>
<path id="Vector_16" d="M18.2617 10.3175C18.4442 10.3175 18.5921 10.1696 18.5921 9.9871C18.5921 9.80465 18.4442 9.65674 18.2617 9.65674" stroke="black" stroke-width="1.5" stroke-linecap="round" stroke-linejoin="round"/>
</g>
<g id="Group 41">
<path id="Vector_17" d="M18.26 14.4662C18.0776 14.4662 17.9297 14.3183 17.9297 14.1358C17.9297 13.9533 18.0776 13.8054 18.26 13.8054" stroke="black" stroke-width="1.5" stroke-linecap="round" stroke-linejoin="round"/>
<path id="Vector_18" d="M18.2617 14.4662C18.4442 14.4662 18.5921 14.3183 18.5921 14.1358C18.5921 13.9533 18.4442 13.8054 18.2617 13.8054" stroke="black" stroke-width="1.5" stroke-linecap="round" stroke-linejoin="round"/>
</g>
<g id="Group 42">
<path id="Vector_19" d="M18.26 18.5892C18.0776 18.5892 17.9297 18.4413 17.9297 18.2588C17.9297 18.0763 18.0776 17.9285 18.26 17.9285" stroke="black" stroke-width="1.5" stroke-linecap="round" stroke-linejoin="round"/>
<path id="Vector_20" d="M18.2617 18.5892C18.4442 18.5892 18.5921 18.4413 18.5921 18.2588C18.5921 18.0763 18.4442 17.9285 18.2617 17.9285" stroke="black" stroke-width="1.5" stroke-linecap="round" stroke-linejoin="round"/>
</g>
<g id="Group 45">
<path id="Vector_21" d="M5.86161 18.5892C5.67914 18.5892 5.53125 18.4413 5.53125 18.2588C5.53125 18.0763 5.67914 17.9285 5.86161 17.9285" stroke="black" stroke-width="1.5" stroke-linecap="round" stroke-linejoin="round"/>
<path id="Vector_22" d="M5.86328 18.5892C6.04573 18.5892 6.19364 18.4413 6.19364 18.2588C6.19364 18.0763 6.04573 17.9285 5.86328 17.9285" stroke="black" stroke-width="1.5" stroke-linecap="round" stroke-linejoin="round"/>
</g>
<g id="Group 44">
<path id="Vector_23" d="M9.99833 18.5892C9.81588 18.5892 9.66797 18.4413 9.66797 18.2588C9.66797 18.0763 9.81588 17.9285 9.99833 17.9285" stroke="black" stroke-width="1.5" stroke-linecap="round" stroke-linejoin="round"/>
<path id="Vector_24" d="M10 18.5892C10.1824 18.5892 10.3304 18.4413 10.3304 18.2588C10.3304 18.0763 10.1824 17.9285 10 17.9285" stroke="black" stroke-width="1.5" stroke-linecap="round" stroke-linejoin="round"/>
</g>
<g id="Group 43">
<path id="Vector_25" d="M14.135 18.5892C13.9526 18.5892 13.8047 18.4413 13.8047 18.2588C13.8047 18.0763 13.9526 17.9285 14.135 17.9285" stroke="black" stroke-width="1.5" stroke-linecap="round" stroke-linejoin="round"/>
<path id="Vector_26" d="M14.1367 18.5892C14.3192 18.5892 14.4671 18.4413 14.4671 18.2588C14.4671 18.0763 14.3192 17.9285 14.1367 17.9285" stroke="black" stroke-width="1.5" stroke-linecap="round" stroke-linejoin="round"/>
</g>
<g id="Group 35">
<path id="Vector_27" d="M5.86161 2.07136C5.67914 2.07136 5.53125 1.92345 5.53125 1.741C5.53125 1.55855 5.67914 1.41064 5.86161 1.41064" stroke="black" stroke-width="1.5" stroke-linecap="round" stroke-linejoin="round"/>
<path id="Vector_28" d="M5.86328 2.07136C6.04573 2.07136 6.19364 1.92345 6.19364 1.741C6.19364 1.55855 6.04573 1.41064 5.86328 1.41064" stroke="black" stroke-width="1.5" stroke-linecap="round" stroke-linejoin="round"/>
</g>
<g id="Group 36">
<path id="Vector_29" d="M9.99833 2.07136C9.81588 2.07136 9.66797 1.92345 9.66797 1.741C9.66797 1.55855 9.81588 1.41064 9.99833 1.41064" stroke="black" stroke-width="1.5" stroke-linecap="round" stroke-linejoin="round"/>
<path id="Vector_30" d="M10 2.07136C10.1824 2.07136 10.3304 1.92345 10.3304 1.741C10.3304 1.55855 10.1824 1.41064 10 1.41064" stroke="black" stroke-width="1.5" stroke-linecap="round" stroke-linejoin="round"/>
</g>
<g id="Group 37">
<path id="Vector_31" d="M14.135 2.07136C13.9526 2.07136 13.8047 1.92345 13.8047 1.741C13.8047 1.55855 13.9526 1.41064 14.135 1.41064" stroke="black" stroke-width="1.5" stroke-linecap="round" stroke-linejoin="round"/>
<path id="Vector_32" d="M14.1367 2.07136C14.3192 2.07136 14.4671 1.92345 14.4671 1.741C14.4671 1.55855 14.3192 1.41064 14.1367 1.41064" stroke="black" stroke-width="1.5" stroke-linecap="round" stroke-linejoin="round"/>
</g>
</g>
</g>
<defs>
<clipPath id="clip0_47_144131">
<rect width="20" height="20" fill="white"/>
</clipPath>
</defs>
</svg>
