<svg width="20" height="20" viewBox="0 0 20 20" fill="none" xmlns="http://www.w3.org/2000/svg">
<g id="share-setting-bolt-13" clip-path="url(#clip0_47_147337)">
<g id="share-setting-bolt--share-settings-bolt-work-cog-gear-machine-nut-hand-give">
<path id="Vector 294" d="M1.41016 15.2861L4.63937 17.9771C5.11433 18.373 5.71303 18.5897 6.33129 18.5897H14.8447C15.4528 18.5897 15.9459 18.0967 15.9459 17.4886C15.9459 16.2722 14.9598 15.2861 13.7435 15.2861H7.82475" stroke="black" stroke-width="1.5" stroke-linecap="round" stroke-linejoin="round"/>
<path id="Vector 295" d="M5.37444 13.9647L6.36551 14.9558C6.91286 15.5031 7.80031 15.5031 8.34766 14.9558C8.89501 14.4084 8.89501 13.521 8.34766 12.9736L6.80924 11.4352C6.31359 10.9396 5.64138 10.6611 4.94045 10.6611H1.41016" stroke="black" stroke-width="1.5" stroke-linecap="round" stroke-linejoin="round"/>
<path id="Rectangle 1920" d="M10 3.72363L14.2946 1.41113L18.5893 3.72363V8.34863L14.2946 10.6611L10 8.34863V3.72363Z" stroke="black" stroke-width="1.5" stroke-linecap="round" stroke-linejoin="round"/>
<path id="Ellipse 1472" d="M13.6328 6.03571C13.6328 6.21095 13.7024 6.379 13.8263 6.50291C13.9502 6.62682 14.1183 6.69643 14.2935 6.69643C14.4688 6.69643 14.6368 6.62682 14.7607 6.50291C14.8846 6.379 14.9542 6.21095 14.9542 6.03571C14.9542 5.86048 14.8846 5.69243 14.7607 5.56852C14.6368 5.44461 14.4688 5.375 14.2935 5.375C14.1183 5.375 13.9502 5.44461 13.8263 5.56852C13.7024 5.69243 13.6328 5.86048 13.6328 6.03571Z" stroke="black" stroke-width="1.5" stroke-linecap="round" stroke-linejoin="round"/>
</g>
</g>
<defs>
<clipPath id="clip0_47_147337">
<rect width="20" height="20" fill="white"/>
</clipPath>
</defs>
</svg>
