<svg width="21" height="21" viewBox="0 0 21 21" fill="none" xmlns="http://www.w3.org/2000/svg">
<path d="M1.64844 15.8973L5.05221 18.7338C5.55284 19.1511 6.18389 19.3795 6.83558 19.3795H15.8092C16.4502 19.3795 16.9699 18.8598 16.9699 18.2188C16.9699 16.9367 15.9305 15.8973 14.6484 15.8973H8.40977" stroke="black" stroke-width="1.5" stroke-linecap="round" stroke-linejoin="round"/>
<path d="M5.82701 14.5045L6.87165 15.5491C7.44859 16.126 8.38399 16.126 8.96094 15.5491C9.53788 14.9722 9.53788 14.0368 8.96094 13.4598L7.33935 11.8383C6.81693 11.3158 6.10837 11.0223 5.36956 11.0223H1.64844" stroke="black" stroke-width="1.5" stroke-linecap="round" stroke-linejoin="round"/>
<path d="M9.6875 6.78528C9.6875 7.42547 9.8136 8.0594 10.0586 8.65086C10.3036 9.24232 10.6627 9.77974 11.1154 10.2324C11.568 10.6851 12.1055 11.0442 12.6969 11.2892C13.2884 11.5342 13.9223 11.6603 14.5625 11.6603C15.2027 11.6603 15.8366 11.5342 16.4281 11.2892C17.0195 11.0442 17.557 10.6851 18.0096 10.2324C18.4623 9.77974 18.8214 9.24232 19.0664 8.65086C19.3114 8.0594 19.4375 7.42547 19.4375 6.78528C19.4375 6.14508 19.3114 5.51116 19.0664 4.9197C18.8214 4.32823 18.4623 3.79082 18.0096 3.33813C17.557 2.88545 17.0195 2.52636 16.4281 2.28137C15.8366 2.03637 15.2027 1.91028 14.5625 1.91028C13.9223 1.91028 13.2884 2.03637 12.6969 2.28137C12.1055 2.52636 11.568 2.88545 11.1154 3.33813C10.6627 3.79082 10.3036 4.32823 10.0586 4.9197C9.8136 5.51116 9.6875 6.14508 9.6875 6.78528Z" stroke="black" stroke-width="1.5" stroke-linecap="round" stroke-linejoin="round"/>
<path d="M16.1182 5.16065C16.0647 5.00926 15.9821 4.87162 15.8772 4.7544C15.6541 4.50506 15.3297 4.34814 14.9688 4.34814H14.0254C13.4246 4.34814 12.9375 4.83521 12.9375 5.43605C12.9375 5.94728 13.2935 6.38956 13.7929 6.49881L15.2293 6.813C15.7888 6.93539 16.1875 7.43121 16.1875 8.00395C16.1875 8.67705 15.6418 9.22314 14.9688 9.22314H14.1562C13.6256 9.22314 13.1742 8.88401 13.0069 8.41065" stroke="black" stroke-width="1.5" stroke-linecap="round" stroke-linejoin="round"/>
</svg>
