<svg width="20" height="20" viewBox="0 0 20 20" fill="none" xmlns="http://www.w3.org/2000/svg">
<g id="share-lock-2" clip-path="url(#clip0_47_147526)">
<g id="share-lock--give-hand-lock-padlock-secure-security-transfer">
<path id="Vector 294" d="M1.41016 15.2861L4.63937 17.9771C5.11433 18.373 5.71303 18.5897 6.33129 18.5897H14.8447C15.4528 18.5897 15.9459 18.0967 15.9459 17.4886C15.9459 16.2722 14.9598 15.2861 13.7435 15.2861H7.82475" stroke="black" stroke-width="1.5" stroke-linecap="round" stroke-linejoin="round"/>
<path id="Vector 295" d="M5.37444 13.9647L6.36551 14.9558C6.91286 15.5031 7.80031 15.5031 8.34766 14.9558C8.89501 14.4084 8.89501 13.521 8.34766 12.9736L6.80924 11.4352C6.31359 10.9396 5.64138 10.6611 4.94045 10.6611H1.41016" stroke="black" stroke-width="1.5" stroke-linecap="round" stroke-linejoin="round"/>
<path id="Vector" d="M11.3209 5.375H17.928C18.3244 5.375 18.5887 5.63929 18.5887 6.03571V10C18.5887 10.3964 18.3244 10.6607 17.928 10.6607H11.3209C10.9244 10.6607 10.6602 10.3964 10.6602 10V6.03571C10.6602 5.63929 10.9244 5.375 11.3209 5.375Z" stroke="black" stroke-width="1.5" stroke-linecap="round" stroke-linejoin="round"/>
<path id="Vector_2" d="M11.9805 5.37542V4.05399C11.9805 2.60042 13.1698 1.41113 14.6233 1.41113C16.0769 1.41113 17.2662 2.60042 17.2662 4.05399V5.37542" stroke="black" stroke-width="1.5" stroke-linecap="round" stroke-linejoin="round"/>
</g>
</g>
<defs>
<clipPath id="clip0_47_147526">
<rect width="20" height="20" fill="white"/>
</clipPath>
</defs>
</svg>
