<svg width="21" height="21" viewBox="0 0 21 21" fill="none" xmlns="http://www.w3.org/2000/svg">
<g clip-path="url(#clip0_146_402544)">
<path d="M15.839 13.0554C16.2097 12.2818 16.4174 11.4151 16.4174 10.5C16.4174 7.23064 13.7671 4.58032 10.4978 4.58032C7.22844 4.58032 4.57812 7.23064 4.57812 10.5C4.57812 11.4151 4.7858 12.2818 5.15661 13.0554" stroke="black" stroke-width="1.5" stroke-linecap="round" stroke-linejoin="round"/>
<path d="M10.0051 12.3853L4.02569 18.3646C3.58696 18.8033 3.89768 19.5535 4.51814 19.5535H16.4769C17.0973 19.5535 17.408 18.8033 16.9693 18.3646L10.99 12.3853C10.718 12.1133 10.2771 12.1133 10.0051 12.3853Z" stroke="black" stroke-width="1.5" stroke-linecap="round" stroke-linejoin="round"/>
<path d="M13.2863 10.4999C13.2863 8.96144 12.0391 7.71423 10.5006 7.71423C8.96205 7.71423 7.71484 8.96144 7.71484 10.4999" stroke="black" stroke-width="1.5" stroke-linecap="round" stroke-linejoin="round"/>
<path d="M18.1411 15.3565C19.0347 13.9531 19.5525 12.287 19.5525 10.5C19.5525 5.49983 15.4991 1.44641 10.4989 1.44641C5.49874 1.44641 1.44531 5.49983 1.44531 10.5C1.44531 12.287 1.96305 13.9531 2.85672 15.3565" stroke="black" stroke-width="1.5" stroke-linecap="round" stroke-linejoin="round"/>
</g>
<defs>
<clipPath id="clip0_146_402544">
<rect width="21" height="21" fill="white"/>
</clipPath>
</defs>
</svg>
