<svg width="20" height="20" viewBox="0 0 20 20" fill="none" xmlns="http://www.w3.org/2000/svg">
<g clip-path="url(#clip0_48_150801)">
<path d="M1.41016 15.2858L4.63937 17.9767C5.11433 18.3726 5.71303 18.5893 6.33129 18.5893H14.8447C15.4528 18.5893 15.9459 18.0963 15.9459 17.4882C15.9459 16.2718 14.9598 15.2858 13.7435 15.2858H7.82475" stroke="black" stroke-width="1.5" stroke-linecap="round" stroke-linejoin="round"/>
<path d="M5.37444 13.9643L6.36551 14.9554C6.91286 15.5027 7.80031 15.5027 8.34766 14.9554C8.89501 14.4081 8.89501 13.5206 8.34766 12.9733L6.80924 11.4348C6.31359 10.9392 5.64138 10.6608 4.94045 10.6608H1.41016" stroke="black" stroke-width="1.5" stroke-linecap="round" stroke-linejoin="round"/>
<path d="M14.6233 5.72859C14.4408 5.72859 14.293 5.58068 14.293 5.39823C14.293 5.21578 14.4408 5.06787 14.6233 5.06787" stroke="black" stroke-width="1.5" stroke-linecap="round" stroke-linejoin="round"/>
<path d="M14.625 5.72859C14.8075 5.72859 14.9554 5.58068 14.9554 5.39823C14.9554 5.21578 14.8075 5.06787 14.625 5.06787" stroke="black" stroke-width="1.5" stroke-linecap="round" stroke-linejoin="round"/>
<path d="M18.5887 5.37505C18.5887 8.01791 14.6244 12.6429 14.6244 12.6429C14.6244 12.6429 10.6602 8.01791 10.6602 5.37505C10.6602 3.18564 12.435 1.41077 14.6244 1.41077C16.8139 1.41077 18.5887 3.18564 18.5887 5.37505Z" stroke="black" stroke-width="1.5" stroke-linecap="round" stroke-linejoin="round"/>
</g>
<defs>
<clipPath id="clip0_48_150801">
<rect width="20" height="20" fill="white"/>
</clipPath>
</defs>
</svg>
