<svg width="20" height="20" viewBox="0 0 20 20" fill="none" xmlns="http://www.w3.org/2000/svg">
<g id="share-link-circle-6">
<g id="share-link-circle--share-transmit">
<path id="Ellipse 19" d="M1.90625 10C1.90625 12.1466 2.75898 14.2053 4.27685 15.7231C5.79473 17.241 7.8534 18.0937 10 18.0938C12.1466 18.0937 14.2053 17.241 15.7231 15.7231C17.241 14.2053 18.0937 12.1466 18.0938 10C18.0937 7.8534 17.241 5.79473 15.7231 4.27685C14.2053 2.75898 12.1466 1.90625 10 1.90625C7.8534 1.90625 5.79473 2.75898 4.27685 4.27685C2.75898 5.79473 1.90625 7.8534 1.90625 10Z" stroke="black" stroke-width="1.5" stroke-linecap="round" stroke-linejoin="round"/>
<path id="Ellipse 18" d="M8.4557 10.0003C8.4557 10.9265 7.70486 11.6774 6.77863 11.6774C5.85241 11.6774 5.10156 10.9265 5.10156 10.0003C5.10156 9.07409 5.85241 8.32324 6.77863 8.32324C7.70486 8.32324 8.4557 9.07409 8.4557 10.0003Z" stroke="black" stroke-width="1.5" stroke-linecap="round" stroke-linejoin="round"/>
<path id="Ellipse 19_2" d="M13.487 6.98177C13.487 7.90798 12.7361 8.65884 11.8099 8.65884C10.8837 8.65884 10.1328 7.90798 10.1328 6.98177C10.1328 6.05554 10.8837 5.30469 11.8099 5.30469C12.7361 5.30469 13.487 6.05554 13.487 6.98177Z" stroke="black" stroke-width="1.5" stroke-linecap="round" stroke-linejoin="round"/>
<path id="Ellipse 20" d="M13.487 13.0189C13.487 13.9451 12.7361 14.696 11.8099 14.696C10.8837 14.696 10.1328 13.9451 10.1328 13.0189C10.1328 12.0926 10.8837 11.3418 11.8099 11.3418C12.7361 11.3418 13.487 12.0926 13.487 13.0189Z" stroke="black" stroke-width="1.5" stroke-linecap="round" stroke-linejoin="round"/>
<path id="Subtract" d="M10.3734 12.156L8.21875 10.8633" stroke="black" stroke-width="1.5" stroke-linecap="round" stroke-linejoin="round"/>
<path id="Subtract_2" d="M10.3734 7.84473L8.21875 9.13751" stroke="black" stroke-width="1.5" stroke-linecap="round" stroke-linejoin="round"/>
</g>
</g>
</svg>
