<svg width="20" height="20" viewBox="0 0 20 20" fill="none" xmlns="http://www.w3.org/2000/svg">
<g id="shield-3-6" clip-path="url(#clip0_47_147025)">
<g id="shield-3--shield-protection-security-defend-crime-war-cover">
<path id="Vector" d="M10.4723 18.4351C10.1685 18.5523 9.83191 18.5523 9.52811 18.4351C7.15759 17.525 5.1189 15.9172 3.68136 13.8241C2.24381 11.731 1.47503 9.25104 1.47657 6.71183V3.28927C1.47585 3.14567 1.52137 3.00567 1.60638 2.88995C1.6914 2.77423 1.81141 2.68895 1.94865 2.64672C7.20296 1.08651 12.7974 1.08651 18.0517 2.64672C18.189 2.68895 18.3089 2.77423 18.394 2.88995C18.479 3.00567 18.5245 3.14567 18.5238 3.28927V6.71183C18.5254 9.25104 17.7566 11.731 16.319 13.8241C14.8814 15.9172 12.8428 17.525 10.4723 18.4351Z" stroke="black" stroke-width="1.5" stroke-linecap="round" stroke-linejoin="round"/>
</g>
</g>
<defs>
<clipPath id="clip0_47_147025">
<rect width="20" height="20" fill="white"/>
</clipPath>
</defs>
</svg>
