<svg width="20" height="20" viewBox="0 0 20 20" fill="none" xmlns="http://www.w3.org/2000/svg">
<g id="shield-check-4" clip-path="url(#clip0_47_147028)">
<g id="shield-check--shield-protection-security-defend-crime-war-cover-check">
<path id="Vector" d="M10.467 18.4352C10.1633 18.5523 9.82699 18.5523 9.52336 18.4352C7.15423 17.5255 5.11676 15.9188 3.68006 13.8269C2.24335 11.735 1.47503 9.2565 1.47656 6.71878V2.78712C1.47656 2.43954 1.61464 2.10618 1.86042 1.86042C2.1062 1.61464 2.43954 1.47656 2.78712 1.47656H17.2032C17.5508 1.47656 17.8841 1.61464 18.1299 1.86042C18.3757 2.10618 18.5138 2.43954 18.5138 2.78712V6.71878C18.5153 9.2565 17.7469 11.735 16.3103 13.8269C14.8736 15.9188 12.8361 17.5255 10.467 18.4352Z" stroke="black" stroke-width="1.5" stroke-linecap="round" stroke-linejoin="round"/>
<path id="Vector_2" d="M13.9637 6.03516L8.67801 11.9816L6.03516 9.99944" stroke="black" stroke-width="1.5" stroke-linecap="round" stroke-linejoin="round"/>
</g>
</g>
<defs>
<clipPath id="clip0_47_147028">
<rect width="20" height="20" fill="white"/>
</clipPath>
</defs>
</svg>
