<svg width="21" height="21" viewBox="0 0 21 21" fill="none" xmlns="http://www.w3.org/2000/svg">
<g clip-path="url(#clip0_146_403486)">
<path d="M14.7478 10.5001C14.7476 11.3235 14.5042 12.1286 14.0481 12.8142C13.592 13.4997 12.9434 14.0353 12.1839 14.3535C11.4245 14.6717 10.5879 14.7584 9.77927 14.6027C8.97067 14.4471 8.22608 14.0559 7.63902 13.4785C7.05195 12.9011 6.6486 12.163 6.47959 11.3571C6.31058 10.5512 6.38345 9.71332 6.68906 8.94867C6.99468 8.18403 7.5194 7.52673 8.19734 7.05933C8.87529 6.59191 9.67621 6.33522 10.4996 6.3215C11.0541 6.31226 11.605 6.41352 12.12 6.61937C12.6351 6.82522 13.1039 7.13155 13.4994 7.52049C13.8948 7.90942 14.2088 8.3732 14.4232 8.88475C14.6375 9.39632 14.7478 9.94543 14.7478 10.5001Z" stroke="black" stroke-width="1.5" stroke-linecap="round" stroke-linejoin="round"/>
<path d="M14.7465 10.5V12.3107C14.7465 17.1718 22.3654 12.5893 18.3679 5.98713C17.563 4.61244 16.4141 3.47092 15.0344 2.67477C13.6545 1.87864 12.0913 1.45531 10.4983 1.44641C9.15996 1.45054 7.83922 1.75133 6.6311 2.32711C5.42298 2.90289 4.35754 3.73936 3.51146 4.77629C2.66539 5.81321 2.05971 7.02483 1.73805 8.32391C1.41639 9.62298 1.38673 10.9772 1.65121 12.2891C1.91569 13.6011 2.46774 14.838 3.2676 15.911C4.06748 16.984 5.09528 17.8662 6.27704 18.4944C7.45879 19.1225 8.7651 19.4808 10.1019 19.5435C11.4388 19.6063 12.7729 19.3718 14.0083 18.8571" stroke="black" stroke-width="1.5" stroke-linecap="round" stroke-linejoin="round"/>
</g>
<defs>
<clipPath id="clip0_146_403486">
<rect width="21" height="21" fill="white"/>
</clipPath>
</defs>
</svg>
