<svg width="20" height="20" viewBox="0 0 20 20" fill="none" xmlns="http://www.w3.org/2000/svg">
<g id="signature-86" clip-path="url(#clip0_47_148161)">
<g id="signature">
<path id="Rectangle 54" d="M11.4805 16.3428H18.1245" stroke="black" stroke-width="1.5" stroke-linecap="round" stroke-linejoin="round"/>
<path id="Vector 1123" d="M3.52797 8.02602C2.20284 7.08948 1.6212 6.51712 1.44863 5.14252C1.28508 3.83973 2.01594 2.49645 3.11476 1.81026C4.64283 0.856022 6.45737 1.75382 7.47204 3.01955C8.57161 4.39118 9.52242 8.35639 9.59516 10.0569C9.67777 11.9877 9.29793 13.7417 8.32061 15.42C7.65028 16.571 6.65983 17.9279 5.34154 18.3875C4.14686 18.804 2.84861 18.6488 2.60816 17.2396C2.31346 15.5125 3.12549 13.8299 4.01324 12.4025C5.19027 10.51 6.67668 8.94318 8.73522 8.02602C9.81661 7.54421 12.0387 6.79118 13.3529 8.02602C14.6054 9.2029 13.4516 12.145 13.8163 12.4025C14.1808 12.6599 15.6489 9.16746 17.4062 9.53275C17.8962 9.63459 18.5755 10.0569 18.5755 10.0569" stroke="black" stroke-width="1.5" stroke-linecap="round" stroke-linejoin="round"/>
</g>
</g>
<defs>
<clipPath id="clip0_47_148161">
<rect width="20" height="20" fill="white"/>
</clipPath>
</defs>
</svg>
