<svg width="20" height="20" viewBox="0 0 20 20" fill="none" xmlns="http://www.w3.org/2000/svg">
<g id="sine-6">
<g id="sine--interface-math-sin-sign-mathematics-trigonometry">
<path id="Vector 2391" d="M5.31277 8.02134C5.24712 7.8356 5.14582 7.66671 5.01709 7.52287C4.74327 7.21695 4.34537 7.02441 3.90248 7.02441H2.745C2.00778 7.02441 1.41016 7.62203 1.41016 8.35924C1.41016 8.98654 1.84694 9.52919 2.45974 9.66324L4.22204 10.0487C4.90855 10.1989 5.39787 10.8073 5.39787 11.51C5.39787 12.3359 4.72836 13.006 3.90248 13.006H2.90555C2.25444 13.006 1.70053 12.5898 1.49525 12.009" stroke="black" stroke-width="1.5" stroke-linecap="round" stroke-linejoin="round"/>
<path id="Vector 1" d="M8.38672 7.02441H11.3775M11.3775 13.006H8.38672" stroke="black" stroke-width="1.5" stroke-linecap="round" stroke-linejoin="round"/>
<path id="Vector 2" d="M9.88283 7.02441L9.88281 13.006" stroke="black" stroke-width="1.5" stroke-linecap="round" stroke-linejoin="round"/>
<path id="Vector 2392" d="M14.6016 13.006V7.02441L18.5892 13.006V7.02441" stroke="black" stroke-width="1.5" stroke-linecap="round" stroke-linejoin="round"/>
</g>
</g>
</svg>
