<svg width="21" height="21" viewBox="0 0 21 21" fill="none" xmlns="http://www.w3.org/2000/svg">
<path d="M7.01562 15.375V18.1607C7.01562 18.93 7.63923 19.5536 8.40848 19.5536H12.5871C13.3563 19.5536 13.9799 18.93 13.9799 18.1607V15.375H7.01562Z" stroke="black" stroke-width="1.5" stroke-linecap="round" stroke-linejoin="round"/>
<path d="M13.9817 15.375H7.01741L5.16804 3.04588C5.04172 2.20376 5.69394 1.44641 6.54549 1.44641H14.4536C15.3052 1.44641 15.9573 2.20376 15.831 3.04588L13.9817 15.375Z" stroke="black" stroke-width="1.5" stroke-linecap="round" stroke-linejoin="round"/>
<path d="M8.41016 7.71429V6.32143C8.41016 5.93681 8.72196 5.625 9.10658 5.625H11.8923C12.2769 5.625 12.5887 5.93681 12.5887 6.32143V7.71429C12.5887 8.09891 12.2769 8.41071 11.8923 8.41071H9.10658C8.72196 8.41071 8.41016 8.09891 8.41016 7.71429Z" stroke="black" stroke-width="1.5" stroke-linecap="round" stroke-linejoin="round"/>
</svg>
