<svg width="20" height="20" viewBox="0 0 20 20" fill="none" xmlns="http://www.w3.org/2000/svg">
<g id="skull-2-45">
<g id="skull-2--crash-death-delete-die-error-garbage-remove-skull-trash">
<path id="Vector 1348" d="M14.625 18.5893V15.9464" stroke="black" stroke-width="1.5" stroke-linecap="round" stroke-linejoin="round"/>
<path id="Vector 1349" d="M11.3203 18.5893V15.9464" stroke="black" stroke-width="1.5" stroke-linecap="round" stroke-linejoin="round"/>
<path id="Ellipse 454" d="M13.9648 10.3304C13.9648 10.7685 14.1389 11.1886 14.4486 11.4984C14.7584 11.8081 15.1785 11.9822 15.6166 11.9822C16.0547 11.9822 16.4748 11.8081 16.7846 11.4984C17.0944 11.1886 17.2684 10.7685 17.2684 10.3304C17.2684 9.89229 17.0944 9.47216 16.7846 9.16239C16.4748 8.85262 16.0547 8.67859 15.6166 8.67859C15.1785 8.67859 14.7584 8.85262 14.4486 9.16239C14.1389 9.47216 13.9648 9.89229 13.9648 10.3304Z" stroke="black" stroke-width="1.5" stroke-linecap="round" stroke-linejoin="round"/>
<path id="Ellipse 457" d="M8.01562 10.3304C8.01563 10.7685 8.18965 11.1886 8.49942 11.4984C8.80919 11.8081 9.22933 11.9822 9.66741 11.9822C10.1055 11.9822 10.5256 11.8081 10.8354 11.4984C11.1452 11.1886 11.3192 10.7685 11.3192 10.3304C11.3192 9.89229 11.1452 9.47216 10.8354 9.16239C10.5256 8.85262 10.1055 8.67859 9.66741 8.67859C9.22933 8.67859 8.80919 8.85262 8.49942 9.16239C8.18965 9.47216 8.01562 9.89229 8.01562 10.3304Z" stroke="black" stroke-width="1.5" stroke-linecap="round" stroke-linejoin="round"/>
<path id="Ellipse 456" d="M9.66853 1.41003C5.47215 1.41003 2.07031 4.81186 2.07031 9.00825C2.07031 12.6374 4.61462 15.6722 8.01678 16.4265V17.2678C8.01678 17.9976 8.60841 18.5893 9.33821 18.5893H15.9453C16.6751 18.5893 17.2667 17.9976 17.2667 17.2678V9.00825C17.2667 4.81186 13.8649 1.41003 9.66853 1.41003Z" stroke="black" stroke-width="1.5" stroke-linecap="round" stroke-linejoin="round"/>
</g>
</g>
</svg>
