<svg width="21" height="21" viewBox="0 0 21 21" fill="none" xmlns="http://www.w3.org/2000/svg">
<g clip-path="url(#clip0_146_402905)">
<path d="M8.59336 7.28116C8.3755 6.92713 7.89621 6.7002 7.43144 6.7002C6.96668 6.7002 6.48739 6.92713 6.26953 7.28116" stroke="black" stroke-width="1.5" stroke-linecap="round" stroke-linejoin="round"/>
<path d="M12.4023 7.28116C12.6202 6.92713 13.0995 6.7002 13.5643 6.7002C14.029 6.7002 14.5083 6.92713 14.7262 7.28116" stroke="black" stroke-width="1.5" stroke-linecap="round" stroke-linejoin="round"/>
<path d="M10.5 16.0714C13.1924 16.0714 15.375 13.8888 15.375 11.1964H5.625C5.625 13.8888 7.80761 16.0714 10.5 16.0714Z" stroke="black" stroke-width="1.5" stroke-linecap="round" stroke-linejoin="round"/>
<path d="M10.4989 19.5536C15.4991 19.5536 19.5525 15.5002 19.5525 10.5C19.5525 5.49983 15.4991 1.44641 10.4989 1.44641C5.49874 1.44641 1.44531 5.49983 1.44531 10.5C1.44531 15.5002 5.49874 19.5536 10.4989 19.5536Z" stroke="black" stroke-width="1.5" stroke-linecap="round" stroke-linejoin="round"/>
</g>
<defs>
<clipPath id="clip0_146_402905">
<rect width="21" height="21" fill="white"/>
</clipPath>
</defs>
</svg>
