<svg width="21" height="21" viewBox="0 0 21 21" fill="none" xmlns="http://www.w3.org/2000/svg">
<g clip-path="url(#clip0_146_402928)">
<path d="M7.36384 7.71425C7.17153 7.71425 7.01562 7.55835 7.01562 7.36604C7.01562 7.17372 7.17153 7.01782 7.36384 7.01782" stroke="black" stroke-width="1.5" stroke-linecap="round" stroke-linejoin="round"/>
<path d="M7.36328 7.71425C7.55559 7.71425 7.7115 7.55835 7.7115 7.36604C7.7115 7.17372 7.55559 7.01782 7.36328 7.01782" stroke="black" stroke-width="1.5" stroke-linecap="round" stroke-linejoin="round"/>
<path d="M13.6334 7.71425C13.4411 7.71425 13.2852 7.55835 13.2852 7.36604C13.2852 7.17372 13.4411 7.01782 13.6334 7.01782" stroke="black" stroke-width="1.5" stroke-linecap="round" stroke-linejoin="round"/>
<path d="M13.6328 7.71425C13.8251 7.71425 13.981 7.55835 13.981 7.36604C13.981 7.17372 13.8251 7.01782 13.6328 7.01782" stroke="black" stroke-width="1.5" stroke-linecap="round" stroke-linejoin="round"/>
<path d="M14.6775 2.46627C13.4274 1.81473 12.0061 1.44641 10.4989 1.44641C5.49874 1.44641 1.44531 5.49983 1.44531 10.5C1.44531 15.5002 5.49874 19.5536 10.4989 19.5536C15.4991 19.5536 19.5525 15.5002 19.5525 10.5C19.5525 10.1894 19.5369 9.88256 19.5064 9.58007" stroke="black" stroke-width="1.5" stroke-linecap="round" stroke-linejoin="round"/>
<path d="M18.0203 7.1667C18.8663 7.1667 19.5521 6.48083 19.5521 5.63475C19.5521 4.78869 18.0203 2.83923 18.0203 2.83923C18.0203 2.83923 16.4883 4.78869 16.4883 5.63475C16.4883 6.48083 17.1741 7.1667 18.0203 7.1667Z" stroke="black" stroke-width="1.5" stroke-linecap="round" stroke-linejoin="round"/>
<path d="M10.4989 10.5C12.8066 10.5 14.6775 12.3708 14.6775 14.6786H6.32031C6.32031 12.3708 8.19113 10.5 10.4989 10.5Z" stroke="black" stroke-width="1.5" stroke-linecap="round" stroke-linejoin="round"/>
</g>
<defs>
<clipPath id="clip0_146_402928">
<rect width="21" height="21" fill="white"/>
</clipPath>
</defs>
</svg>
