<svg width="21" height="21" viewBox="0 0 21 21" fill="none" xmlns="http://www.w3.org/2000/svg">
<path d="M2.14453 5.62498C2.14453 4.08647 3.39174 2.83927 4.93025 2.83927C5.6718 2.83927 6.34568 3.12902 6.84485 3.6015C7.55752 2.31632 8.92801 1.44641 10.5017 1.44641C12.0753 1.44641 13.4458 2.31632 14.1585 3.6015C14.6577 3.12902 15.3315 2.83927 16.0731 2.83927C17.6117 2.83927 18.8588 4.08647 18.8588 5.62498M2.14453 5.62498C2.14453 6.65609 2.70474 7.55636 3.53739 8.03802M2.14453 5.62498C2.14453 7.16349 3.39174 8.4107 4.93025 8.4107M18.8588 5.62498C18.8588 6.65609 18.2986 7.55636 17.466 8.03802M18.8588 5.62498C18.8588 7.16349 17.6117 8.4107 16.0731 8.4107" stroke="black" stroke-width="1.5" stroke-linecap="round" stroke-linejoin="round"/>
<path d="M10.5011 19.5536C13.5781 19.5536 16.0725 17.0591 16.0725 13.9822C16.0725 12.2227 15.257 10.6537 13.9833 9.63269C13.9833 9.63269 12.5904 10.5 10.5011 10.5C8.41183 10.5 7.01897 9.63269 7.01897 9.63269C5.74526 10.6537 4.92969 12.2227 4.92969 13.9822C4.92969 17.0591 7.4241 19.5536 10.5011 19.5536Z" stroke="black" stroke-width="1.5" stroke-linecap="round" stroke-linejoin="round"/>
<path d="M10.5 16.0714V16.7678" stroke="black" stroke-width="1.5" stroke-linecap="round" stroke-linejoin="round"/>
<path d="M8.41406 7.01782V10.206" stroke="black" stroke-width="1.5" stroke-linecap="round" stroke-linejoin="round"/>
<path d="M12.5898 7.01782V10.206" stroke="black" stroke-width="1.5" stroke-linecap="round" stroke-linejoin="round"/>
<path d="M8.23661 13.6339C8.14044 13.6339 8.0625 13.5559 8.0625 13.4598C8.0625 13.3636 8.14044 13.2856 8.23661 13.2856" stroke="black" stroke-width="1.5" stroke-linecap="round" stroke-linejoin="round"/>
<path d="M8.23828 13.6339C8.33444 13.6339 8.41239 13.5559 8.41239 13.4598C8.41239 13.3636 8.33444 13.2856 8.23828 13.2856" stroke="black" stroke-width="1.5" stroke-linecap="round" stroke-linejoin="round"/>
<path d="M12.764 13.6339C12.6678 13.6339 12.5898 13.5559 12.5898 13.4598C12.5898 13.3636 12.6678 13.2856 12.764 13.2856" stroke="black" stroke-width="1.5" stroke-linecap="round" stroke-linejoin="round"/>
<path d="M12.7656 13.6339C12.8618 13.6339 12.9397 13.5559 12.9397 13.4598C12.9397 13.3636 12.8618 13.2856 12.7656 13.2856" stroke="black" stroke-width="1.5" stroke-linecap="round" stroke-linejoin="round"/>
</svg>
