<svg width="21" height="21" viewBox="0 0 21 21" fill="none" xmlns="http://www.w3.org/2000/svg">
<g clip-path="url(#clip0_146_403496)">
<path d="M10.4994 16.0714C11.6533 16.0714 12.5887 14.9801 12.5887 13.6339C12.5887 12.2877 11.6533 11.1964 10.4994 11.1964C9.34556 11.1964 8.41016 12.2877 8.41016 13.6339C8.41016 14.9801 9.34556 16.0714 10.4994 16.0714Z" stroke="black" stroke-width="1.5" stroke-linecap="round" stroke-linejoin="round"/>
<path d="M10.4989 19.5536C15.4991 19.5536 19.5525 15.5002 19.5525 10.5C19.5525 5.49983 15.4991 1.44641 10.4989 1.44641C5.49874 1.44641 1.44531 5.49983 1.44531 10.5C1.44531 15.5002 5.49874 19.5536 10.4989 19.5536Z" stroke="black" stroke-width="1.5" stroke-linecap="round" stroke-linejoin="round"/>
<path d="M6.66853 9.10707C6.47621 9.10707 6.32031 8.95117 6.32031 8.75886C6.32031 8.56655 6.47621 8.41064 6.66853 8.41064" stroke="black" stroke-width="1.5" stroke-linecap="round" stroke-linejoin="round"/>
<path d="M6.66797 9.10707C6.86028 9.10707 7.01618 8.95117 7.01618 8.75886C7.01618 8.56655 6.86028 8.41064 6.66797 8.41064" stroke="black" stroke-width="1.5" stroke-linecap="round" stroke-linejoin="round"/>
<path d="M14.3287 9.10707C14.1364 9.10707 13.9805 8.95117 13.9805 8.75886C13.9805 8.56655 14.1364 8.41064 14.3287 8.41064" stroke="black" stroke-width="1.5" stroke-linecap="round" stroke-linejoin="round"/>
<path d="M14.3281 9.10707C14.5204 9.10707 14.6763 8.95117 14.6763 8.75886C14.6763 8.56655 14.5204 8.41064 14.3281 8.41064" stroke="black" stroke-width="1.5" stroke-linecap="round" stroke-linejoin="round"/>
<path d="M8.19531 5.60193C8.6274 5.95595 9.57802 6.18289 10.4998 6.18289C11.4216 6.18289 12.3722 5.95595 12.8043 5.60193" stroke="black" stroke-width="1.5" stroke-linecap="round" stroke-linejoin="round"/>
</g>
<defs>
<clipPath id="clip0_146_403496">
<rect width="21" height="21" fill="white"/>
</clipPath>
</defs>
</svg>
