<svg width="21" height="21" viewBox="0 0 21 21" fill="none" xmlns="http://www.w3.org/2000/svg">
<g clip-path="url(#clip0_146_402636)">
<path d="M8.59336 7.28116C8.3755 6.92713 7.89621 6.7002 7.43144 6.7002C6.96668 6.7002 6.48739 6.92713 6.26953 7.28116" stroke="black" stroke-width="1.5" stroke-linecap="round" stroke-linejoin="round"/>
<path d="M12.4023 7.28116C12.6202 6.92713 13.0995 6.7002 13.5643 6.7002C14.029 6.7002 14.5083 6.92713 14.7262 7.28116" stroke="black" stroke-width="1.5" stroke-linecap="round" stroke-linejoin="round"/>
<path d="M10.4989 19.5536C15.4991 19.5536 19.5525 15.5002 19.5525 10.5C19.5525 5.49983 15.4991 1.44641 10.4989 1.44641C5.49874 1.44641 1.44531 5.49983 1.44531 10.5C1.44531 15.5002 5.49874 19.5536 10.4989 19.5536Z" stroke="black" stroke-width="1.5" stroke-linecap="round" stroke-linejoin="round"/>
<path d="M10.8203 10.5017L11.4423 10.6368C12.4205 10.8492 12.7193 12.0984 11.9432 12.7305L11.4297 13.1487L11.9432 13.5669C12.7193 14.199 12.4205 15.4481 11.4423 15.6605L10.8203 15.7957" stroke="black" stroke-width="1.5" stroke-linecap="round" stroke-linejoin="round"/>
</g>
<defs>
<clipPath id="clip0_146_402636">
<rect width="21" height="21" fill="white"/>
</clipPath>
</defs>
</svg>
