<svg width="21" height="21" viewBox="0 0 21 21" fill="none" xmlns="http://www.w3.org/2000/svg">
<path d="M10.5 12.5892V15.3749" stroke="black" stroke-width="1.5" stroke-linecap="round" stroke-linejoin="round"/>
<path d="M2.14453 19.5535C2.48554 19.0134 3.06525 17.5011 2.65604 15.7728C2.24684 14.0445 2.48554 13.2523 2.65604 13.0723C2.99704 12.5322 3.98597 11.9921 5.21359 14.1525C6.44122 16.3129 6.40711 18.6533 6.23661 19.5535" stroke="black" stroke-width="1.5" stroke-linecap="round" stroke-linejoin="round"/>
<path d="M18.8583 19.5535C18.5173 19.0134 17.9376 17.5011 18.3468 15.7728C18.756 14.0445 18.5173 13.2523 18.3468 13.0723C18.0057 12.5322 17.0168 11.9921 15.7892 14.1525C14.5616 16.3129 14.5957 18.6533 14.7662 19.5535" stroke="black" stroke-width="1.5" stroke-linecap="round" stroke-linejoin="round"/>
<path d="M3.53906 7.01779C3.53906 7.47507 3.61112 7.92787 3.75111 8.35035C3.89111 8.77282 4.0963 9.15669 4.35498 9.48003C4.61366 9.80338 4.92075 10.0599 5.25873 10.2349C5.59671 10.4099 5.95895 10.4999 6.32478 10.4999C6.6906 10.4999 7.05285 10.4099 7.39082 10.2349C7.7288 10.0599 8.0359 9.80338 8.29457 9.48003C8.55325 9.15669 8.75845 8.77282 8.89844 8.35035C9.03844 7.92787 9.11049 7.47507 9.11049 7.01779C9.11049 6.56051 9.03844 6.1077 8.89844 5.68523C8.75845 5.26276 8.55325 4.87889 8.29457 4.55554C8.0359 4.23219 7.7288 3.9757 7.39082 3.80071C7.05285 3.62571 6.6906 3.53564 6.32478 3.53564C5.95895 3.53564 5.59671 3.62571 5.25873 3.80071C4.92075 3.9757 4.61366 4.23219 4.35498 4.55554C4.0963 4.87889 3.89111 5.26276 3.75111 5.68523C3.61112 6.1077 3.53906 6.56051 3.53906 7.01779Z" stroke="black" stroke-width="1.5" stroke-linecap="round" stroke-linejoin="round"/>
<path d="M11.8945 7.01779C11.8945 7.94131 12.188 8.82701 12.7104 9.48003C13.2329 10.1331 13.9414 10.4999 14.6802 10.4999C15.4191 10.4999 16.1276 10.1331 16.65 9.48003C17.1725 8.82701 17.466 7.94131 17.466 7.01779C17.466 6.56051 17.3939 6.1077 17.2539 5.68523C17.1139 5.26276 16.9087 4.87889 16.65 4.55554C16.3914 4.23219 16.0843 3.9757 15.7463 3.80071C15.4083 3.62571 15.0461 3.53564 14.6802 3.53564C14.3144 3.53564 13.9522 3.62571 13.6142 3.80071C13.2762 3.9757 12.9691 4.23219 12.7104 4.55554C12.4518 4.87889 12.2466 5.26276 12.1066 5.68523C11.9666 6.1077 11.8945 6.56051 11.8945 7.01779Z" stroke="black" stroke-width="1.5" stroke-linecap="round" stroke-linejoin="round"/>
<path d="M3.20541 12.6298C2.52312 11.7064 2.14453 10.7857 2.14453 9.10712C2.14453 3.88816 5.89516 1.44641 10.5017 1.44641C15.1081 1.44641 18.8588 3.88816 18.8588 9.10712C18.8588 10.7857 18.4802 11.7064 17.7979 12.6298" stroke="black" stroke-width="1.5" stroke-linecap="round" stroke-linejoin="round"/>
<path d="M6.04688 16.2471C6.9667 17.597 8.0059 18.8571 10.5025 18.8571C12.9992 18.8571 14.0384 17.597 14.9583 16.2471" stroke="black" stroke-width="1.5" stroke-linecap="round" stroke-linejoin="round"/>
</svg>
