<svg width="21" height="21" viewBox="0 0 21 21" fill="none" xmlns="http://www.w3.org/2000/svg">
<g clip-path="url(#clip0_146_402582)">
<path d="M10.8203 15.5378C11.3061 15.6042 12.0451 15.3196 12.6302 14.872C12.943 14.6326 13.2223 14.3387 13.4241 14.0426" stroke="black" stroke-width="1.5" stroke-linecap="round" stroke-linejoin="round"/>
<path d="M19.3651 8.65894C19.488 9.25339 19.5525 9.86916 19.5525 10.5C19.5525 15.5002 15.4991 19.5536 10.4989 19.5536C5.49874 19.5536 1.44531 15.5002 1.44531 10.5C1.44531 9.86916 1.50983 9.25339 1.63263 8.65894" stroke="black" stroke-width="1.5" stroke-linecap="round" stroke-linejoin="round"/>
<path d="M18.5322 6.32141C17.0224 3.42442 13.9914 1.44641 10.4986 1.44641C7.00564 1.44641 3.97473 3.42442 2.46484 6.32141" stroke="black" stroke-width="1.5" stroke-linecap="round" stroke-linejoin="round"/>
<path d="M1.44531 7.36605V6.32141H10.4989V7.36605C10.4989 9.86613 8.47218 11.8928 5.9721 11.8928C3.47202 11.8928 1.44531 9.86613 1.44531 7.36605Z" stroke="black" stroke-width="1.5" stroke-linecap="round" stroke-linejoin="round"/>
<path d="M10.5 7.36605V6.32141H19.5536V7.36605C19.5536 9.86613 17.5268 11.8928 15.0268 11.8928C12.5267 11.8928 10.5 9.86613 10.5 7.36605Z" stroke="black" stroke-width="1.5" stroke-linecap="round" stroke-linejoin="round"/>
</g>
<defs>
<clipPath id="clip0_146_402582">
<rect width="21" height="21" fill="white"/>
</clipPath>
</defs>
</svg>
