<svg width="21" height="21" viewBox="0 0 21 21" fill="none" xmlns="http://www.w3.org/2000/svg">
<g clip-path="url(#clip0_146_402920)">
<path d="M12.5547 8.1293C12.7725 7.77528 13.2518 7.54834 13.7166 7.54834C14.1814 7.54834 14.6607 7.77528 14.8785 8.1293" stroke="black" stroke-width="1.5" stroke-linecap="round" stroke-linejoin="round"/>
<path d="M7.36384 8.41066C7.17153 8.41066 7.01562 8.25476 7.01562 8.06245C7.01562 7.87014 7.17153 7.71423 7.36384 7.71423" stroke="black" stroke-width="1.5" stroke-linecap="round" stroke-linejoin="round"/>
<path d="M7.36328 8.41066C7.55559 8.41066 7.7115 8.25476 7.7115 8.06245C7.7115 7.87014 7.55559 7.71423 7.36328 7.71423" stroke="black" stroke-width="1.5" stroke-linecap="round" stroke-linejoin="round"/>
<path d="M5.90234 11.8928C6.59877 14.4 9.38449 15.9321 11.8916 15.2357C13.4238 14.6785 14.6773 13.425 15.0952 11.8928" stroke="black" stroke-width="1.5" stroke-linecap="round" stroke-linejoin="round"/>
<path d="M10.4989 19.5536C15.4991 19.5536 19.5525 15.5002 19.5525 10.5C19.5525 5.49983 15.4991 1.44641 10.4989 1.44641C5.49874 1.44641 1.44531 5.49983 1.44531 10.5C1.44531 15.5002 5.49874 19.5536 10.4989 19.5536Z" stroke="black" stroke-width="1.5" stroke-linecap="round" stroke-linejoin="round"/>
</g>
<defs>
<clipPath id="clip0_146_402920">
<rect width="21" height="21" fill="white"/>
</clipPath>
</defs>
</svg>
