<svg width="21" height="21" viewBox="0 0 21 21" fill="none" xmlns="http://www.w3.org/2000/svg">
<g clip-path="url(#clip0_146_402606)">
<path d="M10.4989 19.5536C15.4991 19.5536 19.5525 15.5002 19.5525 10.5C19.5525 5.49983 15.4991 1.44641 10.4989 1.44641C5.49874 1.44641 1.44531 5.49983 1.44531 10.5C1.44531 15.5002 5.49874 19.5536 10.4989 19.5536Z" stroke="black" stroke-width="1.5" stroke-linecap="round" stroke-linejoin="round"/>
<path d="M12.4023 8.67398C12.6202 8.31996 13.0995 8.09302 13.5643 8.09302C14.029 8.09302 14.5083 8.31996 14.7262 8.67398" stroke="black" stroke-width="1.5" stroke-linecap="round" stroke-linejoin="round"/>
<path d="M8.59336 8.67398C8.3755 8.31996 7.89621 8.09302 7.43144 8.09302C6.96668 8.09302 6.48739 8.31996 6.26953 8.67398" stroke="black" stroke-width="1.5" stroke-linecap="round" stroke-linejoin="round"/>
<path d="M6.57031 12.7765C6.57031 13.8611 7.44953 14.7403 8.5341 14.7403C9.61866 14.7403 10.4979 13.8611 10.4979 12.7765C10.4979 13.8611 11.3771 14.7403 12.4617 14.7403C13.5462 14.7403 14.4255 13.8611 14.4255 12.7765" stroke="black" stroke-width="1.5" stroke-linecap="round" stroke-linejoin="round"/>
</g>
<defs>
<clipPath id="clip0_146_402606">
<rect width="21" height="21" fill="white"/>
</clipPath>
</defs>
</svg>
