<svg width="20" height="20" viewBox="0 0 20 20" fill="none" xmlns="http://www.w3.org/2000/svg">
<g id="square-clock-6" clip-path="url(#clip0_47_148564)">
<g id="square-clock--clock-loading-frame-measure-time-circle">
<path id="Vector" d="M10.0006 15.2843C12.9198 15.2843 15.2863 12.9178 15.2863 9.9986C15.2863 7.07938 12.9198 4.71289 10.0006 4.71289C7.08134 4.71289 4.71484 7.07938 4.71484 9.9986C4.71484 12.9178 7.08134 15.2843 10.0006 15.2843Z" stroke="black" stroke-width="1.5" stroke-linecap="round" stroke-linejoin="round"/>
<path id="Vector_2" d="M10 8.01758V9.99972H11.9821" stroke="black" stroke-width="1.5" stroke-linecap="round" stroke-linejoin="round"/>
<path id="Vector_3" d="M17.2673 1.41016H2.73158C2.00178 1.41016 1.41016 2.00178 1.41016 2.73158V17.2673C1.41016 17.9971 2.00178 18.5887 2.73158 18.5887H17.2673C17.9971 18.5887 18.5887 17.9971 18.5887 17.2673V2.73158C18.5887 2.00178 17.9971 1.41016 17.2673 1.41016Z" stroke="black" stroke-width="1.5" stroke-linecap="round" stroke-linejoin="round"/>
</g>
</g>
<defs>
<clipPath id="clip0_47_148564">
<rect width="20" height="20" fill="white"/>
</clipPath>
</defs>
</svg>
