<svg width="20" height="20" viewBox="0 0 20 20" fill="none" xmlns="http://www.w3.org/2000/svg">
<g id="star-medal-1-6">
<g id="star-medal--ribbon-reward-like-social-rating-media">
<path id="Vector 2366" d="M5.4816 11.4826L2.38376 6.83585C1.82769 6.00175 1.98191 4.8838 2.74303 4.23139L6.03449 1.41016L8.35304 8.86616" stroke="black" stroke-width="1.5" stroke-linecap="round" stroke-linejoin="round"/>
<path id="Vector 2370" d="M14.5081 11.4826L17.606 6.83585C18.162 6.00175 18.0078 4.8838 17.2467 4.23139L13.9553 1.41016L11.6367 8.86616" stroke="black" stroke-width="1.5" stroke-linecap="round" stroke-linejoin="round"/>
<path id="Ellipse 20" d="M14.9948 13.5755C14.9948 16.3355 12.7574 18.573 9.99743 18.573C7.23743 18.573 5 16.3355 5 13.5755C5 10.8155 7.23743 8.57812 9.99743 8.57812C12.7574 8.57812 14.9948 10.8155 14.9948 13.5755Z" stroke="black" stroke-width="1.5" stroke-linecap="round" stroke-linejoin="round"/>
<path id="Vector" d="M10.1869 11.2157L10.824 12.4973C10.8383 12.5297 10.8608 12.5577 10.8895 12.5785C10.9181 12.5994 10.9518 12.6122 10.987 12.6158L12.4019 12.8306C12.4424 12.8359 12.4805 12.8526 12.5118 12.8787C12.5431 12.9048 12.5664 12.9393 12.5788 12.9782C12.5912 13.017 12.5924 13.0586 12.582 13.0981C12.5717 13.1375 12.5503 13.1732 12.5204 13.201L11.4759 14.1937C11.4603 14.2234 11.4522 14.2565 11.4522 14.29C11.4522 14.3236 11.4603 14.3566 11.4759 14.3862L11.6759 15.7938C11.6845 15.8345 11.681 15.8768 11.666 15.9155C11.651 15.9542 11.625 15.9879 11.5913 16.0121C11.5576 16.0364 11.5175 16.0504 11.476 16.0525C11.4345 16.0545 11.3933 16.0444 11.3574 16.0235L10.098 15.3567C10.0654 15.342 10.0301 15.3344 9.99432 15.3344C9.95855 15.3344 9.9232 15.342 9.89061 15.3567L8.63125 16.0235C8.59535 16.0444 8.55413 16.0545 8.51261 16.0525C8.47109 16.0504 8.43104 16.0364 8.39733 16.0121C8.36361 15.9879 8.33767 15.9542 8.32264 15.9155C8.30762 15.8768 8.30417 15.8345 8.31271 15.7938L8.54976 14.3862C8.55996 14.3536 8.5619 14.319 8.55544 14.2853C8.54898 14.2517 8.53431 14.2203 8.51272 14.1937L7.4682 13.1936C7.44049 13.1655 7.42105 13.1304 7.412 13.092C7.40293 13.0536 7.40462 13.0135 7.41686 12.976C7.42911 12.9385 7.45143 12.9051 7.48138 12.8795C7.51135 12.8538 7.5478 12.8369 7.58673 12.8306L9.00165 12.6232C9.03688 12.6196 9.07052 12.6068 9.09916 12.586C9.12779 12.5651 9.15038 12.5371 9.16462 12.5047L9.80171 11.2231C9.81875 11.1868 9.84562 11.156 9.87925 11.1342C9.91288 11.1124 9.95194 11.1004 9.99202 11.0996C10.0321 11.0989 10.0716 11.1093 10.106 11.1298C10.1405 11.1503 10.1685 11.1801 10.1869 11.2157Z" stroke="black" stroke-width="1.5" stroke-linecap="round" stroke-linejoin="round"/>
<path id="Vector 2365" d="M7.26953 5.375H12.7343" stroke="black" stroke-width="1.5" stroke-linecap="round" stroke-linejoin="round"/>
<path id="Vector 2363" d="M6.03516 1.41016H13.9637" stroke="black" stroke-width="1.5" stroke-linecap="round" stroke-linejoin="round"/>
</g>
</g>
</svg>
