<svg width="21" height="21" viewBox="0 0 21 21" fill="none" xmlns="http://www.w3.org/2000/svg">
<path d="M1.44531 16.0253H19.5525" stroke="black" stroke-width="1.5" stroke-linecap="round" stroke-linejoin="round"/>
<path d="M16.0703 19.5073L19.5525 16.0252L16.0703 12.5431" stroke="black" stroke-width="1.5" stroke-linecap="round" stroke-linejoin="round"/>
<path d="M3.81313 8.79728V2.854C3.81313 3.67459 3.1479 4.33981 2.32731 4.33981H1.83203" stroke="black" stroke-width="1.5" stroke-linecap="round" stroke-linejoin="round"/>
<path d="M5.79423 8.79736H1.83203" stroke="black" stroke-width="1.5" stroke-linecap="round" stroke-linejoin="round"/>
<path d="M12.4817 8.79728H8.51953V7.95303C8.51953 7.36271 8.86899 6.8284 9.4098 6.59178L11.6145 5.62721C12.1413 5.39675 12.4817 4.87628 12.4817 4.30128C12.4817 3.50197 11.8338 2.854 11.0344 2.854H10.0053C9.35841 2.854 8.80805 3.26746 8.60408 3.84455" stroke="black" stroke-width="1.5" stroke-linecap="round" stroke-linejoin="round"/>
<path d="M17.7199 5.578C18.5405 5.578 19.2057 6.24323 19.2057 7.06382V7.31147C19.2057 8.13206 18.5405 8.79729 17.7199 8.79729H16.7293C16.0824 8.7973 15.532 8.38383 15.3281 7.80673" stroke="black" stroke-width="1.5" stroke-linecap="round" stroke-linejoin="round"/>
<path d="M15.543 3.84455C15.7047 3.27289 16.2302 2.85402 16.8536 2.854H17.5966C18.3487 2.85399 18.9585 3.46378 18.9585 4.21601C18.9585 4.96822 18.3487 5.57801 17.5966 5.57801L17.4728 5.578" stroke="black" stroke-width="1.5" stroke-linecap="round" stroke-linejoin="round"/>
</svg>
