<svg width="21" height="21" viewBox="0 0 21 21" fill="none" xmlns="http://www.w3.org/2000/svg">
<path d="M1.51562 15.375H19.4813" stroke="black" stroke-width="1.5" stroke-linecap="round" stroke-linejoin="round"/>
<path d="M16.7188 12.6111L19.4827 15.375L16.7188 18.139" stroke="black" stroke-width="1.5" stroke-linecap="round" stroke-linejoin="round"/>
<path d="M8.94922 2.86438V5.78526H11.2063C12.0128 5.78526 12.6667 5.13139 12.6667 4.32482C12.6667 3.51823 12.0128 2.86438 11.2063 2.86438H8.94922Z" stroke="black" stroke-width="1.5" stroke-linecap="round" stroke-linejoin="round"/>
<path d="M8.94922 5.78528V9.23722H11.4718C12.425 9.23722 13.1978 8.46448 13.1978 7.51125C13.1978 6.55802 12.425 5.78528 11.4718 5.78528H8.94922Z" stroke="black" stroke-width="1.5" stroke-linecap="round" stroke-linejoin="round"/>
<path d="M19.482 3.92652C19.2634 3.30771 18.6732 2.86438 17.9796 2.86438H16.9174C16.0375 2.86438 15.3242 3.57768 15.3242 4.45759V7.644C15.3242 8.52389 16.0375 9.2372 16.9174 9.2372H17.9796C18.6732 9.2372 19.2634 8.79386 19.482 8.17507" stroke="black" stroke-width="1.5" stroke-linecap="round" stroke-linejoin="round"/>
<path d="M1.51562 9.2372L3.47196 3.36819C3.57225 3.06732 3.85381 2.86438 4.17097 2.86438C4.48812 2.86438 4.76969 3.06732 4.86997 3.36819L6.82631 9.2372M2.22371 7.11293H6.11822" stroke="black" stroke-width="1.5" stroke-linecap="round" stroke-linejoin="round"/>
</svg>
