<svg width="20" height="20" viewBox="0 0 20 20" fill="none" xmlns="http://www.w3.org/2000/svg">
<g id="stopwatch-three-quarter-26">
<g id="stopwatch-three-quarter--quarters-time-measure-stopwatch-three-seconds-minutes">
<path id="Vector" d="M9.6702 4.05273C11.1077 4.05273 12.5128 4.47899 13.708 5.27759C14.9032 6.07619 15.8348 7.21128 16.3848 8.5393C16.9349 9.86732 17.0788 11.3287 16.7984 12.7385C16.518 14.1483 15.8258 15.4433 14.8094 16.4598C13.7929 17.4762 12.4979 18.1684 11.0881 18.4488C9.67826 18.7292 8.21693 18.5853 6.88891 18.0352C5.56089 17.4852 4.42579 16.5536 3.6272 15.3583C2.8286 14.1632 2.40234 12.758 2.40234 11.3206H9.6702V4.05273Z" stroke="black" stroke-width="1.5" stroke-linecap="round" stroke-linejoin="round"/>
<path id="Vector_2" d="M7.6875 1.41016H11.6518" stroke="black" stroke-width="1.5" stroke-linecap="round" stroke-linejoin="round"/>
<path id="Vector_3" d="M9.67188 4.05301V1.41016" stroke="black" stroke-width="1.5" stroke-linecap="round" stroke-linejoin="round"/>
<path id="Vector_4" d="M16.2773 3.39258L17.5988 4.71401" stroke="black" stroke-width="1.5" stroke-linecap="round" stroke-linejoin="round"/>
<path id="Vector_5" d="M4.53125 6.17969L5.93196 7.5804" stroke="black" stroke-width="1.5" stroke-linecap="round" stroke-linejoin="round"/>
</g>
</g>
</svg>
