<svg width="21" height="21" viewBox="0 0 21 21" fill="none" xmlns="http://www.w3.org/2000/svg">
<path d="M13.9816 2.83923H16.0709C16.4403 2.83923 16.7946 2.98598 17.0558 3.24719C17.3169 3.5084 17.4637 3.86268 17.4637 4.23209V18.1607C17.4637 18.53 17.3169 18.8844 17.0558 19.1456C16.7946 19.4067 16.4403 19.5535 16.0709 19.5535H4.92801C4.5586 19.5535 4.20433 19.4067 3.94311 19.1456C3.68191 18.8844 3.53516 18.53 3.53516 18.1607V4.23209C3.53516 3.86268 3.68191 3.5084 3.94311 3.24719C4.20433 2.98598 4.5586 2.83923 4.92801 2.83923H7.0173" stroke="black" stroke-width="1.5" stroke-linecap="round" stroke-linejoin="round"/>
<path d="M12.5871 1.44641H8.40848C7.63923 1.44641 7.01562 2.07001 7.01562 2.83927V3.5357C7.01562 4.30494 7.63923 4.92855 8.40848 4.92855H12.5871C13.3563 4.92855 13.9799 4.30494 13.9799 3.5357V2.83927C13.9799 2.07001 13.3563 1.44641 12.5871 1.44641Z" stroke="black" stroke-width="1.5" stroke-linecap="round" stroke-linejoin="round"/>
<path d="M6.38672 9.39C6.38672 10.3516 7.16622 11.1311 8.12779 11.1311C8.37087 11.1311 8.60234 11.0813 8.81249 10.9913C9.43366 10.7253 9.86886 10.1085 9.86886 9.39C9.86886 8.42844 9.08935 7.64893 8.12779 7.64893C7.16622 7.64893 6.38672 8.42844 6.38672 9.39Z" stroke="black" stroke-width="1.5" stroke-linecap="round" stroke-linejoin="round"/>
<path d="M11.1289 13.0527L14.611 16.5349" stroke="black" stroke-width="1.5" stroke-linecap="round" stroke-linejoin="round"/>
<path d="M14.615 13.0527L11.1328 16.5349" stroke="black" stroke-width="1.5" stroke-linecap="round" stroke-linejoin="round"/>
</svg>
