<svg width="20" height="20" viewBox="0 0 20 20" fill="none" xmlns="http://www.w3.org/2000/svg">
<g id="strikethrough-1-20" clip-path="url(#clip0_47_148198)">
<g id="strikethrough-1--text-strike-through-formatting-format">
<path id="Vector" d="M14.0379 12.1914C14.3555 12.5617 14.5939 12.993 14.7387 13.4587C14.8835 13.9245 14.9316 14.4149 14.8801 14.9C14.8284 15.385 14.6783 15.8543 14.4389 16.2793C14.1993 16.7042 13.8755 17.0756 13.4872 17.3709C12.4579 18.0735 11.2514 18.472 10.0061 18.5206C8.76074 18.5693 7.52685 18.2663 6.44575 17.6462L5.26562 16.9776" stroke="black" stroke-width="1.5" stroke-linecap="round" stroke-linejoin="round"/>
<path id="Vector_2" d="M13.9331 2.55349C11.3106 1.25534 6.36713 0.4817 5.25254 4.15324C5.09191 4.69131 5.07391 5.26192 5.20036 5.80904C5.32679 6.35616 5.5933 6.86102 5.97374 7.27404C7.01894 8.0905 8.16475 8.76917 9.38302 9.2934" stroke="black" stroke-width="1.5" stroke-linecap="round" stroke-linejoin="round"/>
<path id="Vector_3" d="M1.41016 9.33887H18.5887" stroke="black" stroke-width="1.5" stroke-linecap="round" stroke-linejoin="round"/>
</g>
</g>
<defs>
<clipPath id="clip0_47_148198">
<rect width="20" height="20" fill="white"/>
</clipPath>
</defs>
</svg>
