<svg width="21" height="21" viewBox="0 0 21 21" fill="none" xmlns="http://www.w3.org/2000/svg">
<g clip-path="url(#clip0_146_399628)">
<path d="M12.3815 8.14144C12.3102 7.9396 12.2001 7.75608 12.0602 7.59977C11.7627 7.26733 11.3302 7.05811 10.849 7.05811H9.59116C8.79004 7.05811 8.14062 7.70754 8.14062 8.50864C8.14062 9.19031 8.61527 9.78 9.28118 9.92566L11.1962 10.3446C11.9422 10.5078 12.474 11.1689 12.474 11.9325C12.474 12.83 11.7464 13.5581 10.849 13.5581H9.76563C9.05809 13.5581 8.45616 13.1059 8.23308 12.4748" stroke="black" stroke-width="1.5" stroke-linecap="round" stroke-linejoin="round"/>
<path d="M10.3047 7.058V5.43298" stroke="black" stroke-width="1.5" stroke-linecap="round" stroke-linejoin="round"/>
<path d="M10.3047 15.1831V13.5581" stroke="black" stroke-width="1.5" stroke-linecap="round" stroke-linejoin="round"/>
<path d="M3.53125 19.5514V16.0692H7.01339" stroke="black" stroke-width="1.5" stroke-linecap="round" stroke-linejoin="round"/>
<path d="M19.3956 8.83411C20.2621 13.4416 17.4424 18.0095 12.839 19.2428C9.31569 20.1869 5.72074 18.9171 3.53125 16.2859" stroke="black" stroke-width="1.5" stroke-linecap="round" stroke-linejoin="round"/>
<path d="M1.60129 12.1659C0.734877 7.55845 3.55446 2.99063 8.1579 1.75715C11.681 0.813148 15.2757 2.08284 17.4653 4.71357" stroke="black" stroke-width="1.5" stroke-linecap="round" stroke-linejoin="round"/>
<path d="M17.4666 1.44885V4.931H13.9844" stroke="black" stroke-width="1.5" stroke-linecap="round" stroke-linejoin="round"/>
</g>
<defs>
<clipPath id="clip0_146_399628">
<rect width="21" height="21" fill="white"/>
</clipPath>
</defs>
</svg>
