<svg width="20" height="20" viewBox="0 0 20 20" fill="none" xmlns="http://www.w3.org/2000/svg">
<g id="sun-cloud-23" clip-path="url(#clip0_47_149667)">
<g id="sun-cloud--cloud-meteorology-cloudy-partly-sunny-weather">
<path id="Vector" d="M15.2852 11.981C14.5705 11.982 13.8753 12.2137 13.303 12.6417C13.303 11.4657 12.9543 10.316 12.3009 9.33809C11.6475 8.3602 10.7187 7.59804 9.63219 7.14796C8.54562 6.69789 7.34999 6.58013 6.1965 6.80958C5.043 7.03902 3.98345 7.60536 3.15183 8.43698C2.32021 9.26861 1.75386 10.3282 1.52442 11.4817C1.29497 12.6351 1.41273 13.8308 1.8628 14.9174C2.31288 16.0039 3.07504 16.9326 4.05293 17.586C5.03082 18.2394 6.1805 18.5882 7.35658 18.5882H15.2852C16.1613 18.5882 17.0016 18.2401 17.6212 17.6206C18.2407 17.001 18.5887 16.1607 18.5887 15.2846C18.5887 14.4085 18.2407 13.5682 17.6212 12.9486C17.0016 12.3291 16.1613 11.981 15.2852 11.981Z" stroke="black" stroke-width="1.5" stroke-linecap="round" stroke-linejoin="round"/>
<path id="Vector_2" d="M15.6138 7.35659C17.2558 7.35659 18.5871 6.02543 18.5871 4.38337C18.5871 2.74131 17.2558 1.41016 15.6138 1.41016C13.9718 1.41016 12.6406 2.74131 12.6406 4.38337C12.6406 6.02543 13.9718 7.35659 15.6138 7.35659Z" stroke="black" stroke-width="1.5" stroke-linecap="round" stroke-linejoin="round"/>
</g>
</g>
<defs>
<clipPath id="clip0_47_149667">
<rect width="20" height="20" fill="white"/>
</clipPath>
</defs>
</svg>
