<svg width="20" height="20" viewBox="0 0 20 20" fill="none" xmlns="http://www.w3.org/2000/svg">
<g id="swipe-left-8">
<g id="swipe-left">
<path id="Ellipse 302" d="M6.93741 7.6426C6.85826 7.30234 6.81641 6.94774 6.81641 6.58339C6.81641 4.0116 8.90125 1.92676 11.473 1.92676C14.0448 1.92676 16.1296 4.0116 16.1296 6.58339C16.1296 6.94774 16.0879 7.30234 16.0087 7.6426" stroke="black" stroke-width="1.5" stroke-linecap="round" stroke-linejoin="round"/>
<path id="Vector 719" d="M7.64592 3.92041H2.01562" stroke="black" stroke-width="1.5" stroke-linecap="round" stroke-linejoin="round"/>
<path id="Vector 720" d="M4.17583 1.92676L2.01562 3.91726L4.17583 5.90775" stroke="black" stroke-width="1.5" stroke-linecap="round" stroke-linejoin="round"/>
<path id="Vector 107" d="M9.15632 18.2832L6.27323 13.2685C6.01822 12.8249 6.10796 12.2635 6.48853 11.9215C6.92512 11.5292 7.59461 11.5555 7.99904 11.9809L10.0607 14.1493L10.0608 6.23309C10.0608 5.43315 10.7092 4.78467 11.5092 4.78467C12.3091 4.78467 12.9576 5.43315 12.9576 6.23309V11.264L14.4767 11.2193C16.5145 11.1593 18.1466 12.8938 17.9631 14.9242L17.6593 18.2832" stroke="black" stroke-width="1.5" stroke-linecap="round" stroke-linejoin="round"/>
</g>
</g>
</svg>
