<svg width="20" height="20" viewBox="0 0 20 20" fill="none" xmlns="http://www.w3.org/2000/svg">
<g id="synchronize-warning-3">
<g id="synchronize-warning--arrow-fail-notification-sync-warning-failure-synchronize-error">
<path id="Vector" d="M15.2852 12.6429L17.928 11.9822L18.5887 14.625" stroke="black" stroke-width="1.5" stroke-linecap="round" stroke-linejoin="round"/>
<path id="Vector_2" d="M17.9283 11.9822C17.3664 13.6609 16.3069 15.1289 14.8907 16.1911C13.4745 17.2532 11.7686 17.8592 9.99973 17.9286C8.37188 17.9289 6.78339 17.4282 5.45003 16.4943C4.11667 15.5605 3.10305 14.2389 2.54688 12.709" stroke="black" stroke-width="1.5" stroke-linecap="round" stroke-linejoin="round"/>
<path id="Vector_3" d="M4.71373 7.35714L2.07087 8.01786L1.41016 5.375" stroke="black" stroke-width="1.5" stroke-linecap="round" stroke-linejoin="round"/>
<path id="Vector_4" d="M2.07031 8.01784C2.66174 6.3575 3.72908 4.90814 5.13909 3.85061C6.54911 2.7931 8.23936 2.17428 9.99888 2.07141C11.6347 2.07601 13.229 2.58645 14.5632 3.53275C15.8976 4.47905 16.9065 5.81489 17.4517 7.35713" stroke="black" stroke-width="1.5" stroke-linecap="round" stroke-linejoin="round"/>
<path id="Vector_5" d="M10 5.375V10.6607" stroke="black" stroke-width="1.5" stroke-linecap="round" stroke-linejoin="round"/>
<g id="Group 2626">
<path id="Vector_6" d="M9.99833 14.2946C9.81588 14.2946 9.66797 14.1468 9.66797 13.9643C9.66797 13.7818 9.81588 13.6339 9.99833 13.6339" stroke="black" stroke-width="1.5" stroke-linecap="round" stroke-linejoin="round"/>
<path id="Vector_7" d="M10 14.2946C10.1824 14.2946 10.3304 14.1468 10.3304 13.9643C10.3304 13.7818 10.1824 13.6339 10 13.6339" stroke="black" stroke-width="1.5" stroke-linecap="round" stroke-linejoin="round"/>
</g>
</g>
</g>
</svg>
