<svg width="20" height="20" viewBox="0 0 20 20" fill="none" xmlns="http://www.w3.org/2000/svg">
<g id="synchronize-7">
<g id="synchronize--arrows-loading-load-sync-synchronize-arrow-reload">
<path id="Vector" d="M15.2852 12.6429L17.928 11.9822L18.5887 14.625" stroke="black" stroke-width="1.5" stroke-linecap="round" stroke-linejoin="round"/>
<path id="Vector_2" d="M17.9283 11.9822C17.3413 13.6453 16.2752 15.0976 14.8643 16.1558C13.4533 17.214 11.7607 17.8308 9.99973 17.9286C8.37188 17.9289 6.78339 17.4282 5.45003 16.4943C4.11667 15.5605 3.10305 14.2389 2.54688 12.709" stroke="black" stroke-width="1.5" stroke-linecap="round" stroke-linejoin="round"/>
<path id="Vector_3" d="M4.71373 7.35714L2.07087 8.01786L1.41016 5.375" stroke="black" stroke-width="1.5" stroke-linecap="round" stroke-linejoin="round"/>
<path id="Vector_4" d="M2.07031 8.01784C3.18031 4.97855 6.5896 2.07141 9.99888 2.07141C11.6347 2.07601 13.229 2.58645 14.5632 3.53275C15.8976 4.47905 16.9065 5.81489 17.4517 7.35713" stroke="black" stroke-width="1.5" stroke-linecap="round" stroke-linejoin="round"/>
</g>
</g>
</svg>
