<svg width="21" height="21" viewBox="0 0 21 21" fill="none" xmlns="http://www.w3.org/2000/svg">
<g clip-path="url(#clip0_146_399637)">
<path d="M1.79379 13.7872L7.212 19.2054C7.40788 19.4011 7.67338 19.5109 7.95021 19.5109C8.22706 19.5109 8.49256 19.4011 8.68843 19.2054L17.7559 10.138C17.81 10.0863 17.8518 10.0232 17.8782 9.95333C17.9048 9.88344 17.9153 9.80852 17.9092 9.73403L17.0874 4.38546C17.0778 4.26304 17.0248 4.14807 16.9381 4.06125C16.8511 3.97442 16.7362 3.92145 16.6138 3.91188L11.2652 3.0901C11.1907 3.08391 11.1158 3.09446 11.0459 3.12096C10.976 3.14748 10.9129 3.18927 10.8613 3.24331L1.79379 12.3108C1.59816 12.5067 1.48828 12.7722 1.48828 13.049C1.48828 13.3259 1.59816 13.5914 1.79379 13.7872Z" stroke="black" stroke-width="1.5" stroke-linecap="round" stroke-linejoin="round"/>
<path d="M17.1133 3.88396L19.509 1.48828" stroke="black" stroke-width="1.5" stroke-linecap="round" stroke-linejoin="round"/>
<path d="M13.6256 7.61659C13.4332 7.61659 13.2773 7.46069 13.2773 7.26838C13.2773 7.07607 13.4332 6.92017 13.6256 6.92017" stroke="black" stroke-width="1.5" stroke-linecap="round" stroke-linejoin="round"/>
<path d="M13.625 7.61659C13.8173 7.61659 13.9732 7.46069 13.9732 7.26838C13.9732 7.07607 13.8173 6.92017 13.625 6.92017" stroke="black" stroke-width="1.5" stroke-linecap="round" stroke-linejoin="round"/>
</g>
<defs>
<clipPath id="clip0_146_399637">
<rect width="21" height="21" fill="white"/>
</clipPath>
</defs>
</svg>
