<svg width="21" height="21" viewBox="0 0 21 21" fill="none" xmlns="http://www.w3.org/2000/svg">
<g clip-path="url(#clip0_146_399649)">
<path d="M10.4994 17.4642C14.3457 17.4642 17.4637 14.3462 17.4637 10.4999C17.4637 6.65367 14.3457 3.53564 10.4994 3.53564C6.65318 3.53564 3.53516 6.65367 3.53516 10.4999C3.53516 14.3462 6.65318 17.4642 10.4994 17.4642Z" stroke="black" stroke-width="1.5" stroke-linecap="round" stroke-linejoin="round"/>
<path d="M10.5 1.44641V5.62498" stroke="black" stroke-width="1.5" stroke-linecap="round" stroke-linejoin="round"/>
<path d="M1.44531 10.5H5.62388" stroke="black" stroke-width="1.5" stroke-linecap="round" stroke-linejoin="round"/>
<path d="M10.5 19.5536V15.375" stroke="black" stroke-width="1.5" stroke-linecap="round" stroke-linejoin="round"/>
<path d="M19.5536 10.5H15.375" stroke="black" stroke-width="1.5" stroke-linecap="round" stroke-linejoin="round"/>
<path d="M12.0556 8.875C12.0021 8.72362 11.9196 8.58598 11.8147 8.46875C11.5915 8.21942 11.2672 8.0625 10.9062 8.0625H9.96289C9.36207 8.0625 8.875 8.54957 8.875 9.15039C8.875 9.66164 9.23097 10.1039 9.73041 10.2132L11.1667 10.5273C11.7262 10.6497 12.125 11.1456 12.125 11.7183C12.125 12.3914 11.5793 12.9375 10.9062 12.9375H10.0938C9.5631 12.9375 9.11166 12.5984 8.94435 12.125" stroke="black" stroke-width="1.5" stroke-linecap="round" stroke-linejoin="round"/>
</g>
<defs>
<clipPath id="clip0_146_399649">
<rect width="21" height="21" fill="white"/>
</clipPath>
</defs>
</svg>
