<svg width="21" height="21" viewBox="0 0 21 21" fill="none" xmlns="http://www.w3.org/2000/svg">
<g clip-path="url(#clip0_146_398512)">
<path d="M19.5239 11.2181C19.3864 12.946 18.7559 14.5981 17.7071 15.9781C16.6582 17.3581 15.2354 18.408 13.6074 19.0031C11.9795 19.5982 10.2149 19.7136 8.52338 19.3354C6.83184 18.9571 5.28442 18.1013 4.06496 16.8695C2.8455 15.6378 2.00526 14.0818 1.64406 12.3865C1.28287 10.6913 1.41591 8.92797 2.02737 7.3061C2.63884 5.68423 3.70302 4.27197 5.0935 3.2371C6.48397 2.20224 8.14228 1.58827 9.87143 1.46814" stroke="black" stroke-width="1.5" stroke-linecap="round" stroke-linejoin="round"/>
<path d="M14.386 12.0182C14.1345 12.6656 13.7256 13.2401 13.1962 13.6897C12.6668 14.1393 12.0337 14.4499 11.3542 14.5934C10.6746 14.7368 9.97003 14.7087 9.30409 14.5114C8.63817 14.3141 8.03193 13.9539 7.54018 13.4634C7.04843 12.9729 6.68671 12.3676 6.48769 11.7022C6.2887 11.0368 6.25869 10.3322 6.4004 9.65233C6.54211 8.97239 6.85108 8.33851 7.29934 7.808C7.7476 7.27749 8.32104 6.86709 8.96779 6.61389" stroke="black" stroke-width="1.5" stroke-linecap="round" stroke-linejoin="round"/>
<path d="M10.5 10.5L13.9821 7.01782" stroke="black" stroke-width="1.5" stroke-linecap="round" stroke-linejoin="round"/>
<path d="M16.7673 7.71427L13.9816 7.01784L13.2852 4.23213L16.0709 1.44641L16.7673 4.23213L19.553 4.92855L16.7673 7.71427Z" stroke="black" stroke-width="1.5" stroke-linecap="round" stroke-linejoin="round"/>
</g>
<defs>
<clipPath id="clip0_146_398512">
<rect width="21" height="21" fill="white"/>
</clipPath>
</defs>
</svg>
