<svg width="21" height="21" viewBox="0 0 21 21" fill="none" xmlns="http://www.w3.org/2000/svg">
<g clip-path="url(#clip0_146_398527)">
<path d="M10.5 10.5L13.9821 7.01782" stroke="black" stroke-width="1.5" stroke-linecap="round" stroke-linejoin="round"/>
<path d="M16.7673 7.71427L13.9816 7.01784L13.2852 4.23213L16.0709 1.44641L16.7673 4.23213L19.553 4.92855L16.7673 7.71427Z" stroke="black" stroke-width="1.5" stroke-linecap="round" stroke-linejoin="round"/>
<path d="M9.46817 19.4978C7.2606 19.2418 5.22394 18.1839 3.74493 16.5252C2.26593 14.8664 1.44759 12.7223 1.44532 10.5C1.44357 8.2074 2.31296 5.99982 3.87749 4.32408C5.44203 2.64835 7.58482 1.62967 9.8721 1.47424" stroke="black" stroke-width="1.5" stroke-linecap="round" stroke-linejoin="round"/>
<path d="M14.6775 10.5C14.6775 11.6082 14.2372 12.671 13.4536 13.4547C12.6699 14.2383 11.6071 14.6785 10.4989 14.6785C9.39066 14.6785 8.32782 14.2383 7.54419 13.4547C6.76055 12.671 6.32031 11.6082 6.32031 10.5C6.3206 9.66148 6.57316 8.84246 7.04513 8.14942C7.5171 7.45636 8.18664 6.92134 8.96674 6.61389" stroke="black" stroke-width="1.5" stroke-linecap="round" stroke-linejoin="round"/>
<path d="M11.8906 17.4643L14.6763 19.5536L19.5513 13.9822" stroke="black" stroke-width="1.5" stroke-linecap="round" stroke-linejoin="round"/>
</g>
<defs>
<clipPath id="clip0_146_398527">
<rect width="21" height="21" fill="white"/>
</clipPath>
</defs>
</svg>
