<svg width="21" height="21" viewBox="0 0 21 21" fill="none" xmlns="http://www.w3.org/2000/svg">
<path d="M13.9805 2.32385C15.4582 2.32385 16.8752 2.91084 17.92 3.9557C18.9649 5.00053 19.5519 6.41765 19.5519 7.89528" stroke="black" stroke-width="1.5" stroke-linecap="round" stroke-linejoin="round"/>
<path d="M13.9805 5.80603C14.5346 5.80603 15.0661 6.02616 15.4579 6.41797C15.8497 6.80979 16.0698 7.34121 16.0698 7.89532" stroke="black" stroke-width="1.5" stroke-linecap="round" stroke-linejoin="round"/>
<path d="M9.80223 13.343V3.59296C9.80406 3.31743 9.75139 3.04425 9.64721 2.78915C9.54304 2.53406 9.38944 2.30209 9.19525 2.1066C9.00105 1.91111 8.7701 1.75597 8.51571 1.65011C8.26132 1.54424 7.98849 1.48974 7.71294 1.48975C7.15883 1.48975 6.62742 1.70987 6.23559 2.10168C5.84378 2.4935 5.62365 3.02491 5.62365 3.57903V13.329C5.11378 13.7199 4.72252 14.2448 4.49349 14.845C4.26445 15.4453 4.20666 16.0974 4.32654 16.7285C4.44642 17.3598 4.73927 17.9452 5.17244 18.4197C5.6056 18.8943 6.16205 19.239 6.77972 19.4158C7.54488 19.5977 8.34907 19.5152 9.06138 19.1819C9.77367 18.8485 10.3521 18.2838 10.7026 17.5797C11.053 16.8756 11.1547 16.0736 10.9913 15.3043C10.8278 14.535 10.4087 13.8437 9.80223 13.343Z" stroke="black" stroke-width="1.5" stroke-linecap="round" stroke-linejoin="round"/>
</svg>
