<svg width="20" height="20" viewBox="0 0 20 20" fill="none" xmlns="http://www.w3.org/2000/svg">
<g id="text-box-1-22" clip-path="url(#clip0_47_148248)">
<g id="text-box-1">
<path id="Ellipse 52" d="M1.03906 17.0361C1.03906 17.5479 1.24236 18.0387 1.60425 18.4006C1.96613 18.7625 2.45694 18.9658 2.96872 18.9658C3.48049 18.9658 3.97131 18.7625 4.33319 18.4006C4.69507 18.0387 4.89837 17.5479 4.89837 17.0361C4.89837 16.5243 4.69507 16.0335 4.33319 15.6716C3.97131 15.3097 3.48049 15.1064 2.96872 15.1064C2.45694 15.1064 1.96613 15.3097 1.60425 15.6716C1.24236 16.0335 1.03906 16.5243 1.03906 17.0361Z" stroke="black" stroke-width="1.5" stroke-linecap="round" stroke-linejoin="round"/>
<path id="Ellipse 53" d="M18.9609 17.0351C18.9609 17.5469 18.7576 18.0377 18.3958 18.3996C18.0339 18.7615 17.5431 18.9648 17.0313 18.9648C16.5195 18.9648 16.0287 18.7615 15.6668 18.3996C15.3049 18.0377 15.1016 17.5469 15.1016 17.0351C15.1016 16.5233 15.3049 16.0325 15.6668 15.6707C16.0287 15.3088 16.5195 15.1055 17.0313 15.1055C17.5431 15.1055 18.0339 15.3088 18.3958 15.6707C18.7576 16.0325 18.9609 16.5233 18.9609 17.0351Z" stroke="black" stroke-width="1.5" stroke-linecap="round" stroke-linejoin="round"/>
<path id="Ellipse 54" d="M1.03906 2.96585C1.03906 2.45408 1.24236 1.96326 1.60425 1.60138C1.96613 1.2395 2.45694 1.0362 2.96872 1.0362C3.48049 1.0362 3.97131 1.2395 4.33319 1.60138C4.69507 1.96326 4.89837 2.45408 4.89837 2.96585C4.89837 3.47763 4.69507 3.96844 4.33319 4.33032C3.97131 4.69221 3.48049 4.89551 2.96872 4.89551C2.45694 4.89551 1.96613 4.69221 1.60425 4.33032C1.24236 3.96844 1.03906 3.47763 1.03906 2.96585Z" stroke="black" stroke-width="1.5" stroke-linecap="round" stroke-linejoin="round"/>
<path id="Ellipse 55" d="M18.9609 2.96683C18.9609 2.45505 18.7576 1.96424 18.3958 1.60236C18.0339 1.24048 17.5431 1.03717 17.0313 1.03717C16.5195 1.03717 16.0287 1.24048 15.6668 1.60236C15.3049 1.96424 15.1016 2.45505 15.1016 2.96683C15.1016 3.47861 15.3049 3.96942 15.6668 4.3313C16.0287 4.69318 16.5195 4.89648 17.0313 4.89648C17.5431 4.89648 18.0339 4.69318 18.3958 4.3313C18.7576 3.96942 18.9609 3.47861 18.9609 2.96683Z" stroke="black" stroke-width="1.5" stroke-linecap="round" stroke-linejoin="round"/>
<path id="Vector 690" d="M10.0039 6.94434L10.0589 13.2559" stroke="black" stroke-width="1.5" stroke-linecap="round" stroke-linejoin="round"/>
<path id="Vector 691" d="M11.5051 13.2568H8.60938" stroke="black" stroke-width="1.5" stroke-linecap="round" stroke-linejoin="round"/>
<path id="Vector 614" d="M6.72266 8.87416V6.94434H13.3966V8.87416" stroke="black" stroke-width="1.5" stroke-linecap="round" stroke-linejoin="round"/>
<path id="Vector 1195" d="M2.91797 4.89453V15.1062" stroke="black" stroke-width="1.5" stroke-linecap="round" stroke-linejoin="round"/>
<path id="Vector 1196" d="M15.1024 2.91895H4.89062" stroke="black" stroke-width="1.5" stroke-linecap="round" stroke-linejoin="round"/>
<path id="Vector 1197" d="M17.082 15.1063V4.89453" stroke="black" stroke-width="1.5" stroke-linecap="round" stroke-linejoin="round"/>
<path id="Vector 1198" d="M4.89844 17.0811H15.1101" stroke="black" stroke-width="1.5" stroke-linecap="round" stroke-linejoin="round"/>
</g>
</g>
<defs>
<clipPath id="clip0_47_148248">
<rect width="20" height="20" fill="white"/>
</clipPath>
</defs>
</svg>
