<svg width="20" height="20" viewBox="0 0 20 20" fill="none" xmlns="http://www.w3.org/2000/svg">
<g id="thermometer-decrease-33">
<g id="thermometer-decrease--thermometer-decrease-negative-minus-mercury-cold">
<path id="Vector" d="M8.01618 12.6423V3.3923C8.01618 2.86661 7.80734 2.36243 7.43562 1.99071C7.0639 1.61899 6.55973 1.41016 6.03403 1.41016C5.50834 1.41016 5.00417 1.61899 4.63245 1.99071C4.26073 2.36243 4.05189 2.86661 4.05189 3.3923V12.6423C3.49721 13.0583 3.08747 13.6383 2.88074 14.3002C2.674 14.9619 2.68074 15.6721 2.89999 16.3299C3.11925 16.9876 3.53992 17.5597 4.1024 17.9651C4.66489 18.3706 5.34067 18.5887 6.03403 18.5887C6.7274 18.5887 7.40318 18.3706 7.96567 17.9651C8.52815 17.5597 8.94882 16.9876 9.16808 16.3299C9.38733 15.6721 9.39407 14.9619 9.18733 14.3002C8.9806 13.6383 8.57086 13.0583 8.01618 12.6423Z" stroke="black" stroke-width="1.5" stroke-linecap="round" stroke-linejoin="round"/>
<path id="Vector 348" d="M17.2662 10.6602L14.6233 13.303L11.9805 10.6602" stroke="black" stroke-width="1.5" stroke-linecap="round" stroke-linejoin="round"/>
<path id="Vector 349" d="M14.625 1.41016V13.303" stroke="black" stroke-width="1.5" stroke-linecap="round" stroke-linejoin="round"/>
</g>
</g>
</svg>
