<svg width="20" height="20" viewBox="0 0 20 20" fill="none" xmlns="http://www.w3.org/2000/svg">
<g id="thermometer-negative-5">
<g id="thermometer-negative--temperature-thermometer-minus-mercury-cold-weather">
<path id="Vector" d="M15.9459 12.6423V3.3923C15.9459 2.86661 15.7371 2.36243 15.3654 1.99071C14.9936 1.61899 14.4894 1.41016 13.9637 1.41016C13.438 1.41016 12.9339 1.61899 12.5621 1.99071C12.1904 2.36243 11.9816 2.86661 11.9816 3.3923V12.6423C11.4269 13.0583 11.0172 13.6383 10.8104 14.3002C10.6037 14.9619 10.6104 15.6721 10.8297 16.3299C11.0489 16.9876 11.4696 17.5597 12.0321 17.9651C12.5946 18.3706 13.2704 18.5887 13.9637 18.5887C14.6571 18.5887 15.3329 18.3706 15.8954 17.9651C16.4578 17.5597 16.8785 16.9876 17.0978 16.3299C17.317 15.6721 17.3237 14.9619 17.117 14.3002C16.9102 13.6383 16.5006 13.0583 15.9459 12.6423Z" stroke="black" stroke-width="1.5" stroke-linecap="round" stroke-linejoin="round"/>
<path id="Vector_2" d="M2.73047 4.05273H7.02511" stroke="black" stroke-width="1.5" stroke-linecap="round" stroke-linejoin="round"/>
</g>
</g>
</svg>
