<svg width="21" height="21" viewBox="0 0 21 21" fill="none" xmlns="http://www.w3.org/2000/svg">
<g clip-path="url(#clip0_146_400493)">
<path d="M6.32031 17.4644H2.83817C2.46876 17.4644 2.11448 17.3176 1.85327 17.0565C1.59206 16.7952 1.44531 16.441 1.44531 16.0716V2.83937C1.44531 2.46996 1.59206 2.11568 1.85327 1.85447C2.11448 1.59326 2.46876 1.44651 2.83817 1.44651H7.97781C8.29598 1.43724 8.60775 1.53723 8.86118 1.72984C9.11459 1.92244 9.29441 2.19604 9.37067 2.50509L9.76067 4.23223H18.1178C18.4872 4.23223 18.8415 4.37897 19.1027 4.64018C19.3639 4.9014 19.5107 5.25567 19.5107 5.62509V11.1965" stroke="black" stroke-width="1.5" stroke-linecap="round" stroke-linejoin="round"/>
<path d="M19.442 18.3139C19.5102 18.4401 19.546 18.5814 19.546 18.7248C19.546 18.8683 19.5102 19.0095 19.442 19.1357C19.3778 19.2615 19.2801 19.3671 19.1596 19.4409C19.0392 19.5146 18.9007 19.5536 18.7595 19.5536H10.5834C10.4422 19.5536 10.3037 19.5146 10.1832 19.4409C10.0628 19.3671 9.96508 19.2615 9.90088 19.1357C9.83262 19.0095 9.79688 18.8683 9.79688 18.7248C9.79688 18.5814 9.83262 18.4401 9.90088 18.3139L14.0098 10.904C14.0663 10.7656 14.1627 10.6472 14.2867 10.5638C14.4107 10.4804 14.5568 10.4359 14.7063 10.4359C14.8557 10.4359 15.0018 10.4804 15.1258 10.5638C15.2499 10.6472 15.3463 10.7656 15.4027 10.904L19.442 18.3139Z" stroke="black" stroke-width="1.5" stroke-linecap="round" stroke-linejoin="round"/>
<path d="M14.6758 15.375V13.9822" stroke="black" stroke-width="1.5" stroke-linecap="round" stroke-linejoin="round"/>
<path d="M14.6703 17.6387C14.5741 17.6387 14.4961 17.5607 14.4961 17.4644C14.4961 17.3682 14.5741 17.2902 14.6703 17.2902" stroke="black" stroke-width="1.5" stroke-linecap="round" stroke-linejoin="round"/>
<path d="M14.6719 17.6384C14.7681 17.6384 14.8461 17.5604 14.8461 17.4643C14.8461 17.368 14.7681 17.29 14.6719 17.29" stroke="black" stroke-width="1.5" stroke-linecap="round" stroke-linejoin="round"/>
</g>
<defs>
<clipPath id="clip0_146_400493">
<rect width="21" height="21" fill="white"/>
</clipPath>
</defs>
</svg>
