<svg width="21" height="21" viewBox="0 0 21 21" fill="none" xmlns="http://www.w3.org/2000/svg">
<g clip-path="url(#clip0_146_400476)">
<path d="M1.44531 5.61597H19.5525" stroke="black" stroke-width="1.5" stroke-linecap="round" stroke-linejoin="round"/>
<path d="M18.1596 1.44641H2.83817C2.06892 1.44641 1.44531 2.07001 1.44531 2.83927V18.1607C1.44531 18.93 2.06892 19.5536 2.83817 19.5536H18.1596C18.9289 19.5536 19.5525 18.93 19.5525 18.1607V2.83927C19.5525 2.07001 18.9289 1.44641 18.1596 1.44641Z" stroke="black" stroke-width="1.5" stroke-linecap="round" stroke-linejoin="round"/>
<path d="M15.2739 15.5922C15.3423 15.7184 15.378 15.8597 15.378 16.0031C15.378 16.1466 15.3423 16.2878 15.2739 16.414C15.2099 16.5399 15.1121 16.6455 14.9916 16.7192C14.8713 16.7929 14.7327 16.832 14.5915 16.8319H6.41542C6.2742 16.832 6.13571 16.7929 6.01527 16.7192C5.89483 16.6455 5.79712 16.5399 5.73292 16.414C5.66466 16.2878 5.62891 16.1466 5.62891 16.0031C5.62891 15.8597 5.66466 15.7184 5.73292 15.5922L9.84185 8.18229C9.89831 8.04391 9.99469 7.92549 10.1187 7.84213C10.2428 7.75875 10.3888 7.71423 10.5383 7.71423C10.6877 7.71423 10.8338 7.75875 10.9578 7.84213C11.0819 7.92549 11.1783 8.04391 11.2347 8.18229L15.2739 15.5922Z" stroke="black" stroke-width="1.5" stroke-linecap="round" stroke-linejoin="round"/>
<path d="M10.5117 12.6534V11.2605" stroke="black" stroke-width="1.5" stroke-linecap="round" stroke-linejoin="round"/>
<path d="M10.5063 14.9169C10.41 14.9169 10.332 14.8389 10.332 14.7427C10.332 14.6465 10.41 14.5685 10.5063 14.5685" stroke="black" stroke-width="1.5" stroke-linecap="round" stroke-linejoin="round"/>
<path d="M10.5078 14.9169C10.604 14.9169 10.682 14.8389 10.682 14.7426C10.682 14.6464 10.604 14.5684 10.5078 14.5684" stroke="black" stroke-width="1.5" stroke-linecap="round" stroke-linejoin="round"/>
</g>
<defs>
<clipPath id="clip0_146_400476">
<rect width="21" height="21" fill="white"/>
</clipPath>
</defs>
</svg>
