<svg width="21" height="21" viewBox="0 0 21 21" fill="none" xmlns="http://www.w3.org/2000/svg">
<g clip-path="url(#clip0_146_400501)">
<path d="M19.5525 13.9821V15.3749C19.5525 15.5596 19.4791 15.7368 19.3485 15.8674C19.2179 15.998 19.0407 16.0714 18.856 16.0714H2.14174C1.95704 16.0714 1.7799 15.998 1.64929 15.8674C1.51869 15.7368 1.44531 15.5596 1.44531 15.3749V4.23207C1.44531 4.04737 1.51869 3.87022 1.64929 3.73963C1.7799 3.60902 1.95704 3.53564 2.14174 3.53564H8.4096" stroke="black" stroke-width="1.5" stroke-linecap="round" stroke-linejoin="round"/>
<path d="M9.1077 16.0714L7.71484 19.5536" stroke="black" stroke-width="1.5" stroke-linecap="round" stroke-linejoin="round"/>
<path d="M11.8906 16.0714L13.2835 19.5536" stroke="black" stroke-width="1.5" stroke-linecap="round" stroke-linejoin="round"/>
<path d="M6.32031 19.5536H14.6775" stroke="black" stroke-width="1.5" stroke-linecap="round" stroke-linejoin="round"/>
<path d="M19.442 9.53529C19.5102 9.66148 19.546 9.8027 19.546 9.94618C19.546 10.0897 19.5102 10.2309 19.442 10.3571C19.3778 10.4829 19.2801 10.5885 19.1596 10.6622C19.0392 10.7359 18.9007 10.775 18.7595 10.7749H10.5834C10.4422 10.775 10.3037 10.7359 10.1832 10.6622C10.0628 10.5885 9.96508 10.4829 9.90088 10.3571C9.83262 10.2309 9.79688 10.0897 9.79688 9.94618C9.79688 9.8027 9.83262 9.66148 9.90088 9.53529L14.0098 2.12528C14.0663 1.9869 14.1627 1.86848 14.2867 1.78511C14.4107 1.70175 14.5568 1.65723 14.7063 1.65723C14.8557 1.65723 15.0018 1.70175 15.1258 1.78511C15.2499 1.86848 15.3463 1.9869 15.4027 2.12528L19.442 9.53529Z" stroke="black" stroke-width="1.5" stroke-linecap="round" stroke-linejoin="round"/>
<path d="M14.6758 6.59635V5.20349" stroke="black" stroke-width="1.5" stroke-linecap="round" stroke-linejoin="round"/>
<path d="M14.6703 8.85993C14.5741 8.85993 14.4961 8.78193 14.4961 8.68569C14.4961 8.58947 14.5741 8.51147 14.6703 8.51147" stroke="black" stroke-width="1.5" stroke-linecap="round" stroke-linejoin="round"/>
<path d="M14.6719 8.8598C14.7681 8.8598 14.8461 8.78179 14.8461 8.68557C14.8461 8.58935 14.7681 8.51135 14.6719 8.51135" stroke="black" stroke-width="1.5" stroke-linecap="round" stroke-linejoin="round"/>
</g>
<defs>
<clipPath id="clip0_146_400501">
<rect width="21" height="21" fill="white"/>
</clipPath>
</defs>
</svg>
