<svg width="20" height="20" viewBox="0 0 20 20" fill="none" xmlns="http://www.w3.org/2000/svg">
<g id="tile-window-right-4">
<g id="tile-window-right">
<path id="rectangle 629" d="M1.41016 5.37514C1.41016 4.64534 2.00178 4.05371 2.73158 4.05371H17.2673C17.9971 4.05371 18.5887 4.64534 18.5887 5.37514V14.6251C18.5887 15.355 17.9971 15.9466 17.2673 15.9466H2.73158C2.00178 15.9466 1.41016 15.355 1.41016 14.6251V5.37514Z" stroke="black" stroke-width="1.5" stroke-linecap="round" stroke-linejoin="round"/>
<path id="rectangle 630" d="M10.6602 7.357C10.6602 6.9921 10.956 6.69629 11.3209 6.69629H15.2852C15.65 6.69629 15.9459 6.9921 15.9459 7.357V12.6427C15.9459 13.0076 15.65 13.3034 15.2852 13.3034H11.3209C10.956 13.3034 10.6602 13.0076 10.6602 12.6427V7.357Z" stroke="black" stroke-width="1.5" stroke-linecap="round" stroke-linejoin="round"/>
</g>
</g>
</svg>
