<svg width="20" height="20" viewBox="0 0 20 20" fill="none" xmlns="http://www.w3.org/2000/svg">
<g id="track-select-left-tool-7">
<g id="track-select-left-tool">
<path id="Vector 377" d="M4.05301 7.35693L1.41016 9.99979L4.05301 12.6426" stroke="black" stroke-width="1.5" stroke-linecap="round" stroke-linejoin="round"/>
<path id="Vector 378" d="M10.6602 10H1.41016" stroke="black" stroke-width="1.5" stroke-linecap="round" stroke-linejoin="round"/>
<path id="Vector 2570" d="M9.33984 6.69643V6.03571C9.33984 5.67081 9.63566 5.375 10.0006 5.375H10.6613" stroke="black" stroke-width="1.5" stroke-linecap="round" stroke-linejoin="round"/>
<path id="Vector 2571" d="M13.3047 5.375H14.6261" stroke="black" stroke-width="1.5" stroke-linecap="round" stroke-linejoin="round"/>
<path id="Vector 2572" d="M17.2656 5.375H17.9263C18.2912 5.375 18.5871 5.67081 18.5871 6.03571V6.69643" stroke="black" stroke-width="1.5" stroke-linecap="round" stroke-linejoin="round"/>
<path id="Vector 2573" d="M18.5898 9.33936V10.6608" stroke="black" stroke-width="1.5" stroke-linecap="round" stroke-linejoin="round"/>
<path id="Vector 2574" d="M9.33984 13.3037V13.9644C9.33984 14.3293 9.63566 14.6251 10.0006 14.6251H10.6613" stroke="black" stroke-width="1.5" stroke-linecap="round" stroke-linejoin="round"/>
<path id="Vector 2575" d="M13.3047 14.625H14.6261" stroke="black" stroke-width="1.5" stroke-linecap="round" stroke-linejoin="round"/>
<path id="Vector 2576" d="M17.2656 14.6251H17.9263C18.2912 14.6251 18.5871 14.3293 18.5871 13.9644V13.3037" stroke="black" stroke-width="1.5" stroke-linecap="round" stroke-linejoin="round"/>
</g>
</g>
</svg>
