<svg width="20" height="20" viewBox="0 0 20 20" fill="none" xmlns="http://www.w3.org/2000/svg">
<g id="trash-bin-remove-6">
<g id="trash-bin-remove">
<path id="vector" d="M17.2209 4.22418L15.4851 17.4824C15.3952 18.1691 14.8101 18.6827 14.1175 18.6827H5.88471C5.19216 18.6827 4.60697 18.1691 4.51707 17.4824L2.78125 4.22418" stroke="black" stroke-width="1.5" stroke-linecap="round" stroke-linejoin="round"/>
<path id="ellipse 1496" d="M17.2188 4.19312C17.2188 4.95585 16.4581 5.68734 15.1043 6.22666C13.7504 6.76599 11.9141 7.06899 9.99944 7.06899C8.08476 7.06899 6.2485 6.76599 4.89462 6.22666C3.54073 5.68734 2.78013 4.95585 2.78013 4.19312C2.78013 3.4304 3.54073 2.69891 4.89462 2.15958C6.2485 1.62025 8.08476 1.31726 9.99944 1.31726C11.9141 1.31726 13.7504 1.62025 15.1043 2.15958C16.4581 2.69891 17.2187 3.4304 17.2188 4.19312Z" stroke="black" stroke-width="1.5"/>
</g>
</g>
</svg>
