<svg width="20" height="20" viewBox="0 0 20 20" fill="none" xmlns="http://www.w3.org/2000/svg">
<g id="trending-content-34">
<g id="trending-content--lit-flame-torch-trending">
<path id="Vector" d="M8.87713 1.48337C8.79745 1.43578 8.70636 1.41064 8.61354 1.41064C8.52073 1.41064 8.42965 1.43578 8.34997 1.48337C8.28424 1.53545 8.2399 1.60982 8.22532 1.69239C8.21076 1.77497 8.22697 1.86003 8.2709 1.93145C9.89189 4.73853 10.2345 8.56038 8.0205 10.669C7.16865 9.95314 6.49237 9.05144 6.04368 8.03324C5.22492 8.48797 4.54638 9.1583 4.08172 9.97147C3.61705 10.7846 3.38402 11.7095 3.40792 12.6458C3.44135 13.4712 3.63953 14.2815 3.99079 15.0292C4.34205 15.7768 4.83931 16.4465 5.45329 16.9991C6.06728 17.5518 6.7856 17.9759 7.56597 18.2468C8.34635 18.5176 9.17301 18.6297 9.99732 18.5763C14.2409 18.5763 16.4417 15.9405 16.5867 12.6458C16.7581 8.69217 13.951 3.8292 8.87713 1.48337Z" stroke="black" stroke-width="1.5" stroke-linecap="round" stroke-linejoin="round"/>
</g>
</g>
</svg>
