<svg width="20" height="20" viewBox="0 0 20 20" fill="none" xmlns="http://www.w3.org/2000/svg">
<g id="triangle-8">
<g id="triangle--geometric-triangle-shape-design-shapes-shape">
<path id="Vector" d="M10.6048 3.39186C10.5389 3.29099 10.4491 3.20815 10.3435 3.15082C10.2378 3.0935 10.1196 3.06348 9.99944 3.06348C9.87932 3.06348 9.76111 3.0935 9.65542 3.15082C9.54975 3.20815 9.45994 3.29099 9.3941 3.39186L1.49831 15.9454C1.44056 16.0459 1.41016 16.1598 1.41016 16.2758C1.41016 16.3918 1.44056 16.5057 1.49831 16.6061C1.56303 16.7083 1.65255 16.7921 1.75844 16.85C1.86434 16.9077 1.98313 16.9376 2.10366 16.9365H17.8952C18.0158 16.9376 18.1346 16.9077 18.2404 16.85C18.3464 16.7921 18.4358 16.7083 18.5006 16.6061C18.5583 16.5057 18.5887 16.3918 18.5887 16.2758C18.5887 16.1598 18.5583 16.0459 18.5006 15.9454L10.6048 3.39186Z" stroke="black" stroke-width="1.5" stroke-linecap="round" stroke-linejoin="round"/>
</g>
</g>
</svg>
