<svg width="20" height="20" viewBox="0 0 20 20" fill="none" xmlns="http://www.w3.org/2000/svg">
<g id="two-finger-hold-9" clip-path="url(#clip0_47_144943)">
<g id="two-finger-hold">
<path id="Vector 225" d="M15.7491 4.2959L15.0273 5.00803" stroke="black" stroke-width="1.5" stroke-linecap="round" stroke-linejoin="round"/>
<path id="Ellipse 302" d="M1.72485 9.03135C1.65187 8.71761 1.61328 8.39067 1.61328 8.05471C1.61328 5.6834 3.5356 3.76107 5.90691 3.76107C6.19137 3.76107 6.46937 3.78875 6.73836 3.84152C7.52599 2.90147 8.70869 2.30371 10.031 2.30371" stroke="black" stroke-width="1.5" stroke-linecap="round" stroke-linejoin="round"/>
<path id="Vector 108" d="M7.92188 11.8235L8.67732 6.06719C8.78067 5.27973 9.4518 4.69092 10.246 4.69092C11.2016 4.69092 11.939 5.53151 11.8147 6.47893L11.1133 11.8235H11.4921C13.0569 11.8235 14.3255 13.0921 14.3255 14.6569V18.2341" stroke="black" stroke-width="1.5" stroke-linecap="round" stroke-linejoin="round"/>
<path id="Vector 107" d="M7.9171 11.8337L7.21072 7.71629C7.07804 6.94281 6.4074 6.37744 5.62263 6.37744C4.65003 6.37744 3.89913 7.23259 4.02486 8.19704L4.72371 13.5577L4.17368 13.6612C2.56298 13.9643 1.79648 15.824 2.72579 17.1741L2.95067 17.5007L3.47099 18.2575" stroke="black" stroke-width="1.5" stroke-linecap="round" stroke-linejoin="round"/>
<path id="Ellipse 50" d="M12.2188 3.16215C12.8226 2.25195 13.8566 1.65186 15.0308 1.65186C16.8932 1.65186 18.4029 3.16163 18.4029 5.02404C18.4029 6.88643 16.8932 8.39621 15.0308 8.39621C14.6244 8.39621 14.2347 8.32432 13.8739 8.19255" stroke="black" stroke-width="1.5" stroke-linecap="round" stroke-linejoin="round"/>
</g>
</g>
<defs>
<clipPath id="clip0_47_144943">
<rect width="20" height="20" fill="white"/>
</clipPath>
</defs>
</svg>
