<svg width="20" height="20" viewBox="0 0 20 20" fill="none" xmlns="http://www.w3.org/2000/svg">
<g id="two-finger-drag-hotizontal" clip-path="url(#clip0_47_144928)">
<g id="two-finger-drag-hotizontal_2">
<path id="Vector 108" d="M9.93107 10.758L8.66712 5.09908C8.49422 4.32496 8.92203 3.54261 9.66708 3.27045C10.5635 2.943 11.5433 3.47881 11.7514 4.41021L12.9249 9.6643L13.2768 9.53574C14.7466 8.9988 16.3734 9.75507 16.9105 11.2249L18.135 14.5774" stroke="black" stroke-width="1.5" stroke-linecap="round" stroke-linejoin="round"/>
<path id="Vector 107" d="M9.93148 10.768L7.85783 7.14755C7.4683 6.46742 6.64543 6.16687 5.90924 6.4358C4.99684 6.76911 4.58548 7.82863 5.03393 8.69029L7.52656 13.4796L7.04985 13.7629C5.64095 14.6003 5.55908 16.6101 6.89521 17.5593L7.2145 17.7861L7.96196 18.3178" stroke="black" stroke-width="1.5" stroke-linecap="round" stroke-linejoin="round"/>
<path id="Vector 2512" d="M3.06194 1.41064L1.41016 3.06243L3.06194 4.71422" stroke="black" stroke-width="1.5" stroke-linecap="round" stroke-linejoin="round"/>
<path id="Vector 2513" d="M1.41016 3.0625H5.37444" stroke="black" stroke-width="1.5" stroke-linecap="round" stroke-linejoin="round"/>
<path id="Vector 2514" d="M16.9375 1.41064L18.5893 3.06243L16.9375 4.71422" stroke="black" stroke-width="1.5" stroke-linecap="round" stroke-linejoin="round"/>
<path id="Vector 2515" d="M18.5893 3.0625H14.625" stroke="black" stroke-width="1.5" stroke-linecap="round" stroke-linejoin="round"/>
</g>
</g>
<defs>
<clipPath id="clip0_47_144928">
<rect width="20" height="20" fill="white"/>
</clipPath>
</defs>
</svg>
