<svg width="20" height="20" viewBox="0 0 20 20" fill="none" xmlns="http://www.w3.org/2000/svg">
<g id="typewriter-39" clip-path="url(#clip0_47_141513)">
<g id="typewriter--typewriter-company-office-supplies-work">
<path id="Vector 282" d="M4.71484 8.01791V2.7322C4.71484 2.00239 5.30647 1.41077 6.03627 1.41077H13.9648C14.6947 1.41077 15.2863 2.00239 15.2863 2.7322V8.01791" stroke="black" stroke-width="1.5" stroke-linecap="round" stroke-linejoin="round"/>
<path id="Vector 300" d="M4.05301 8.01794H7.35659C7.35659 9.47755 8.53983 10.6614 9.99944 10.6614C11.4591 10.6614 12.6423 9.4782 12.6423 8.01859L15.9456 8.01794C16.6753 8.01794 17.267 8.60957 17.267 9.33937V11.9822L18.5885 15.9465V17.2679C18.5885 17.9978 17.9967 18.5894 17.267 18.5894H2.73158C2.00178 18.5894 1.41016 17.9978 1.41016 17.2679V15.9465L2.73158 11.9822V9.33937C2.73158 8.60957 3.32321 8.01794 4.05301 8.01794Z" stroke="black" stroke-width="1.5" stroke-linecap="round" stroke-linejoin="round"/>
<path id="Vector 301" d="M6.03516 15.9465H13.9637" stroke="black" stroke-width="1.5" stroke-linecap="round" stroke-linejoin="round"/>
<path id="Vector 302" d="M4.71484 13.3036H5.37556" stroke="black" stroke-width="1.5" stroke-linecap="round" stroke-linejoin="round"/>
<path id="Vector 303" d="M8.01562 13.3036H8.67634" stroke="black" stroke-width="1.5" stroke-linecap="round" stroke-linejoin="round"/>
<path id="Vector 305" d="M11.3203 13.3036H11.981" stroke="black" stroke-width="1.5" stroke-linecap="round" stroke-linejoin="round"/>
<path id="Vector 304" d="M14.625 13.3036H15.2857" stroke="black" stroke-width="1.5" stroke-linecap="round" stroke-linejoin="round"/>
<path id="Vector 306" d="M2.73158 10H1.41016" stroke="black" stroke-width="1.5" stroke-linecap="round" stroke-linejoin="round"/>
<path id="Vector 307" d="M17.2656 10H18.5871" stroke="black" stroke-width="1.5" stroke-linecap="round" stroke-linejoin="round"/>
</g>
</g>
<defs>
<clipPath id="clip0_47_141513">
<rect width="20" height="20" fill="white"/>
</clipPath>
</defs>
</svg>
