<svg width="21" height="21" viewBox="0 0 21 21" fill="none" xmlns="http://www.w3.org/2000/svg">
<path d="M4.92801 9.10718L3.53516 10.5L4.92801 11.8929" stroke="black" stroke-width="1.5" stroke-linecap="round" stroke-linejoin="round"/>
<path d="M16.0703 9.10718L17.4632 10.5L16.0703 11.8929" stroke="black" stroke-width="1.5" stroke-linecap="round" stroke-linejoin="round"/>
<path d="M7.71484 5.62503C7.71484 4.85579 8.33845 4.23218 9.1077 4.23218H11.8934C12.6627 4.23218 13.2863 4.85579 13.2863 5.62503V15.375C13.2863 16.1443 12.6627 16.7679 11.8934 16.7679H9.1077C8.33845 16.7679 7.71484 16.1443 7.71484 15.375V5.62503Z" stroke="black" stroke-width="1.5" stroke-linecap="round" stroke-linejoin="round"/>
<path d="M18.1602 16.7679C18.9294 16.7679 19.553 16.1443 19.553 15.375V5.62503C19.553 4.85579 18.9294 4.23218 18.1602 4.23218" stroke="black" stroke-width="1.5" stroke-linecap="round" stroke-linejoin="round"/>
<path d="M2.83817 16.7679C2.06892 16.7679 1.44531 16.1443 1.44531 15.375V5.62503C1.44531 4.85579 2.06892 4.23218 2.83817 4.23218" stroke="black" stroke-width="1.5" stroke-linecap="round" stroke-linejoin="round"/>
</svg>
