<svg width="21" height="21" viewBox="0 0 21 21" fill="none" xmlns="http://www.w3.org/2000/svg">
<path d="M11.8912 4.9285L10.4983 3.53564L9.10547 4.9285" stroke="black" stroke-width="1.5" stroke-linecap="round" stroke-linejoin="round"/>
<path d="M11.8912 16.0714L10.4983 17.4643L9.10547 16.0714" stroke="black" stroke-width="1.5" stroke-linecap="round" stroke-linejoin="round"/>
<path d="M15.3733 7.71423C16.1426 7.71423 16.7662 8.33784 16.7662 9.10709V11.8928C16.7662 12.6621 16.1426 13.2857 15.3733 13.2857H5.62333C4.85408 13.2857 4.23047 12.6621 4.23047 11.8928V9.10709C4.23047 8.33784 4.85408 7.71423 5.62333 7.71423H15.3733Z" stroke="black" stroke-width="1.5" stroke-linecap="round" stroke-linejoin="round"/>
<path d="M4.23047 18.1606C4.23047 18.9299 4.85408 19.5535 5.62333 19.5535H15.3733C16.1426 19.5535 16.7662 18.9299 16.7662 18.1606" stroke="black" stroke-width="1.5" stroke-linecap="round" stroke-linejoin="round"/>
<path d="M4.23047 2.83927C4.23047 2.07001 4.85408 1.44641 5.62333 1.44641H15.3733C16.1426 1.44641 16.7662 2.07002 16.7662 2.83927" stroke="black" stroke-width="1.5" stroke-linecap="round" stroke-linejoin="round"/>
</svg>
