<svg width="21" height="21" viewBox="0 0 21 21" fill="none" xmlns="http://www.w3.org/2000/svg">
<g clip-path="url(#clip0_146_399678)">
<path d="M10.4989 19.5536C15.4991 19.5536 19.5525 15.5002 19.5525 10.5C19.5525 5.49983 15.4991 1.44641 10.4989 1.44641C5.49874 1.44641 1.44531 5.49983 1.44531 10.5C1.44531 15.5002 5.49874 19.5536 10.4989 19.5536Z" stroke="black" stroke-width="1.5" stroke-linecap="round" stroke-linejoin="round"/>
<path d="M12.2408 16.4196C12.2157 15.9789 12.0733 15.5528 11.8284 15.1855C11.5836 14.8182 11.2451 14.523 10.8479 14.3303C9.45508 13.6339 7.89508 14.8875 7.04544 14.7064C6.65544 14.6785 5.37401 12.45 6.61365 11.5167C8.48008 10.11 7.71401 8.46639 9.10687 7.71424C12.1572 6.04281 13.954 9.3021 16.3219 8.88424" stroke="black" stroke-width="1.5" stroke-linecap="round" stroke-linejoin="round"/>
<path d="M8.71547 8.04859L6.66797 4.92859" stroke="black" stroke-width="1.5" stroke-linecap="round" stroke-linejoin="round"/>
<path d="M11.1953 5.625L11.6828 7.33821" stroke="black" stroke-width="1.5" stroke-linecap="round" stroke-linejoin="round"/>
<path d="M13.2852 10.5C14.2602 11.6421 15.1237 10.9179 15.7227 12.4221" stroke="black" stroke-width="1.5" stroke-linecap="round" stroke-linejoin="round"/>
<path d="M13.2852 13.2856C13.4646 13.5917 13.7181 13.8478 14.0223 14.0303C14.3265 14.2128 14.6717 14.316 15.0262 14.3303" stroke="black" stroke-width="1.5" stroke-linecap="round" stroke-linejoin="round"/>
</g>
<defs>
<clipPath id="clip0_146_399678">
<rect width="21" height="21" fill="white"/>
</clipPath>
</defs>
</svg>
