<svg width="20" height="20" viewBox="0 0 20 20" fill="none" xmlns="http://www.w3.org/2000/svg">
<g id="upload-box-2-10">
<g id="upload-box-2--arrow-button-download-internet-network-server-up-upload">
<path id="Vector" d="M14.6267 7.35742H15.9481C16.1233 7.35742 16.2914 7.42703 16.4154 7.55094C16.5392 7.67484 16.6088 7.8429 16.6088 8.01814V17.9289C16.6088 18.1041 16.5392 18.2722 16.4154 18.3961C16.2914 18.5199 16.1233 18.5896 15.9481 18.5896H4.05525C3.88001 18.5896 3.71195 18.5199 3.58805 18.3961C3.46414 18.2722 3.39453 18.1041 3.39453 17.9289V8.01814C3.39453 7.8429 3.46414 7.67484 3.58805 7.55094C3.71195 7.42703 3.88001 7.35742 4.05525 7.35742H5.37667" stroke="black" stroke-width="1.5" stroke-linecap="round" stroke-linejoin="round"/>
<path id="Vector_2" d="M10 10.6602V1.41016" stroke="black" stroke-width="1.5" stroke-linecap="round" stroke-linejoin="round"/>
<path id="Vector_3" d="M7.35938 4.05301L10.0022 1.41016L12.6451 4.05301" stroke="black" stroke-width="1.5" stroke-linecap="round" stroke-linejoin="round"/>
</g>
</g>
</svg>
