<svg width="20" height="20" viewBox="0 0 20 20" fill="none" xmlns="http://www.w3.org/2000/svg">
<g id="upload-box-1" clip-path="url(#clip0_47_148778)">
<g id="upload-box-1--arrow-box-download-internet-network-server-up-upload">
<path id="Vector" d="M5.37444 18.5882H2.73158C2.38112 18.5882 2.04501 18.4489 1.79719 18.2011C1.54938 17.9534 1.41016 17.6172 1.41016 17.2667V6.69531H18.5887V17.2667C18.5887 17.6172 18.4494 17.9534 18.2017 18.2011C17.9539 18.4489 17.6177 18.5882 17.2673 18.5882H14.6244" stroke="black" stroke-width="1.5" stroke-linecap="round" stroke-linejoin="round"/>
<path id="Vector_2" d="M6.69531 13.9637L9.99888 10.6602L13.3025 13.9637" stroke="black" stroke-width="1.5" stroke-linecap="round" stroke-linejoin="round"/>
<path id="Vector_3" d="M10 10.6602V18.5887" stroke="black" stroke-width="1.5" stroke-linecap="round" stroke-linejoin="round"/>
<path id="Vector_4" d="M15.6684 2.07087C15.5554 1.87495 15.3939 1.71132 15.1997 1.59564C15.0053 1.47995 14.7845 1.41609 14.5584 1.41016H5.44051C5.21442 1.41609 4.99363 1.47995 4.79928 1.59564C4.60492 1.71132 4.44352 1.87495 4.33051 2.07087L1.41016 6.69587H18.5887L15.6684 2.07087Z" stroke="black" stroke-width="1.5" stroke-linecap="round" stroke-linejoin="round"/>
<path id="Vector_5" d="M10 1.41016V6.69587" stroke="black" stroke-width="1.5" stroke-linecap="round" stroke-linejoin="round"/>
</g>
</g>
<defs>
<clipPath id="clip0_47_148778">
<rect width="20" height="20" fill="white"/>
</clipPath>
</defs>
</svg>
