<svg width="21" height="21" viewBox="0 0 21 21" fill="none" xmlns="http://www.w3.org/2000/svg">
<path d="M10.4576 19.5535C11.9961 19.5535 13.2433 18.3064 13.2433 16.7678C13.2433 15.2293 11.9961 13.9821 10.4576 13.9821C8.91908 13.9821 7.67188 15.2293 7.67188 16.7678C7.67188 18.3064 8.91908 19.5535 10.4576 19.5535Z" stroke="black" stroke-width="1.5" stroke-linecap="round" stroke-linejoin="round"/>
<path d="M10.457 13.9821V1.44641" stroke="black" stroke-width="1.5" stroke-linecap="round" stroke-linejoin="round"/>
<path d="M8.36719 3.5357L10.4565 1.44641L12.5458 3.5357" stroke="black" stroke-width="1.5" stroke-linecap="round" stroke-linejoin="round"/>
<path d="M9.1058 14.3721C8.3076 14.1336 7.57054 13.725 6.94538 13.1744C6.32021 12.6237 5.82178 11.9442 5.48438 11.1825" stroke="black" stroke-width="1.5" stroke-linecap="round" stroke-linejoin="round"/>
<path d="M5.23326 11.1964C6.19483 11.1964 6.97433 10.4169 6.97433 9.45537C6.97433 8.49379 6.19483 7.71429 5.23326 7.71429C4.2717 7.71429 3.49219 8.49379 3.49219 9.45537C3.49219 10.4169 4.2717 11.1964 5.23326 11.1964Z" stroke="black" stroke-width="1.5" stroke-linecap="round" stroke-linejoin="round"/>
<path d="M10.5 12.7286C11.5692 12.4054 12.5565 11.8564 13.3951 11.1187C14.2338 10.381 14.9042 9.47175 15.3611 8.45251" stroke="black" stroke-width="1.5" stroke-linecap="round" stroke-linejoin="round"/>
<path d="M15.7645 8.5082C16.7261 8.5082 17.5056 7.72869 17.5056 6.76713C17.5056 5.80556 16.7261 5.02606 15.7645 5.02606C14.8029 5.02606 14.0234 5.80556 14.0234 6.76713C14.0234 7.72869 14.8029 8.5082 15.7645 8.5082Z" stroke="black" stroke-width="1.5" stroke-linecap="round" stroke-linejoin="round"/>
</svg>
