<svg width="20" height="20" viewBox="0 0 20 20" fill="none" xmlns="http://www.w3.org/2000/svg">
<g id="user-king-crown-19">
<g id="user-king-crown--actions-crown-geometric-human-person-single-up-user">
<path id="Vector" d="M4.10156 12.6198C5.299 13.2209 6.6654 13.3966 7.97592 13.1178C9.28646 12.839 10.4631 12.1224 11.3121 11.0859C11.8612 11.7647 12.554 12.3132 13.3407 12.6918C14.1274 13.0705 14.9883 13.2697 15.8614 13.2753" stroke="black" stroke-width="1.5" stroke-linecap="round" stroke-linejoin="round"/>
<path id="Vector_2" d="M15.2444 9.34264H4.75633L3.44531 2.78758L6.72285 4.7541L10.0004 1.47656L13.2779 4.7541L16.5554 2.78758L15.2444 9.34264Z" stroke="black" stroke-width="1.5" stroke-linecap="round" stroke-linejoin="round"/>
<path id="Vector_3" d="M5.09793 9.3418C4.50364 10.23 4.16176 11.2629 4.10881 12.3303C4.05585 13.3976 4.29381 14.4593 4.79728 15.402C5.30074 16.3446 6.05078 17.1328 6.96733 17.6824C7.88386 18.2318 8.93246 18.5221 10.0011 18.5221C11.0698 18.5221 12.1184 18.2318 13.0349 17.6824C13.9515 17.1328 14.7015 16.3446 15.205 15.402C15.7085 14.4593 15.9464 13.3976 15.8935 12.3303C15.8405 11.2629 15.4986 10.23 14.9044 9.3418H5.09793Z" stroke="black" stroke-width="1.5" stroke-linecap="round" stroke-linejoin="round"/>
</g>
</g>
</svg>
