<svg width="20" height="20" viewBox="0 0 20 20" fill="none" xmlns="http://www.w3.org/2000/svg">
<g id="user-experience-design-37" clip-path="url(#clip0_47_141524)">
<g id="user-experience-design">
<path id="Ellipse 320" d="M5.88672 17.3312C7.09236 18.0925 8.52076 18.533 10.0521 18.533C11.5833 18.533 13.0117 18.0925 14.2173 17.3312" stroke="black" stroke-width="1.5" stroke-linecap="round" stroke-linejoin="round"/>
<path id="Ellipse 324" d="M2.23828 10.7205C2.23828 7.70652 3.94508 5.09119 6.44485 3.78833" stroke="black" stroke-width="1.5" stroke-linecap="round" stroke-linejoin="round"/>
<path id="Ellipse 323" d="M17.8629 10.7205C17.8629 7.70652 16.156 5.09119 13.6562 3.78833" stroke="black" stroke-width="1.5" stroke-linecap="round" stroke-linejoin="round"/>
<path id="Rectangle 54" d="M8.47266 1.46753H11.6335V4.62839H8.47266V1.46753Z" stroke="black" stroke-width="1.5" stroke-linecap="round" stroke-linejoin="round"/>
<path id="Ellipse 167" d="M15.3477 14.329C15.3477 14.7481 15.5142 15.1501 15.8106 15.4465C16.1069 15.7429 16.5089 15.9094 16.9281 15.9094C17.3472 15.9094 17.7492 15.7429 18.0456 15.4465C18.342 15.1501 18.5085 14.7481 18.5085 14.329C18.5085 13.9098 18.342 13.5078 18.0456 13.2114C17.7492 12.915 17.3472 12.7485 16.9281 12.7485C16.5089 12.7485 16.1069 12.915 15.8106 13.2114C15.5142 13.5078 15.3477 13.9098 15.3477 14.329Z" stroke="black" stroke-width="1.5" stroke-linecap="round" stroke-linejoin="round"/>
<path id="Vector 1152" d="M1.49219 15.4803L3.5066 12.3402L5.52101 15.4803H1.49219Z" stroke="black" stroke-width="1.5" stroke-linecap="round" stroke-linejoin="round"/>
<path id="Vector" d="M8.13672 9.1689C8.13672 10.2262 8.99381 11.0833 10.0511 11.0833C10.3184 11.0833 10.5729 11.0285 10.804 10.9295C11.4869 10.6371 11.9655 9.95889 11.9655 9.1689C11.9655 8.11161 11.1084 7.25452 10.0511 7.25452C8.99381 7.25452 8.13672 8.11161 8.13672 9.1689Z" stroke="black" stroke-width="1.5" stroke-linecap="round" stroke-linejoin="round"/>
<path id="Vector_2" d="M7.14062 12.9787C7.44482 12.4001 7.87235 11.9219 8.38211 11.5901C8.89186 11.2583 9.46671 11.084 10.0514 11.084C10.6361 11.084 11.2109 11.2583 11.7207 11.5901C12.2304 11.9219 12.658 12.4001 12.9622 12.9787" stroke="black" stroke-width="1.5" stroke-linecap="round" stroke-linejoin="round"/>
</g>
</g>
<defs>
<clipPath id="clip0_47_141524">
<rect width="20" height="20" fill="white"/>
</clipPath>
</defs>
</svg>
