<svg width="20" height="20" viewBox="0 0 20 20" fill="none" xmlns="http://www.w3.org/2000/svg">
<g id="user-delete-cross-16" clip-path="url(#clip0_47_148924)">
<g id="user-delete-cross--actions-close-delete-deny-fail-geometric-human-person-remove-single-up-user-cross">
<path id="Vector" d="M7.35826 8.0173C9.18277 8.0173 10.6618 6.53824 10.6618 4.71373C10.6618 2.88922 9.18277 1.41016 7.35826 1.41016C5.53375 1.41016 4.05469 2.88922 4.05469 4.71373C4.05469 6.53824 5.53375 8.0173 7.35826 8.0173Z" stroke="black" stroke-width="1.5" stroke-linecap="round" stroke-linejoin="round"/>
<path id="Vector_2" d="M10.6602 17.2681H1.41016V16.5518C1.42068 15.5444 1.6863 14.5564 2.18223 13.6797C2.67816 12.803 3.3882 12.0663 4.24603 11.5384C5.10388 11.0104 6.08153 10.7086 7.08765 10.661C7.17735 10.6567 7.26702 10.6545 7.35659 10.6543C7.44615 10.6545 7.53584 10.6567 7.62554 10.661C8.48477 10.7016 9.32321 10.9277 10.084 11.3217" stroke="black" stroke-width="1.5" stroke-linecap="round" stroke-linejoin="round"/>
<path id="Vector_3" d="M18.5872 12.9863L12.9844 18.5892" stroke="black" stroke-width="1.5" stroke-linecap="round" stroke-linejoin="round"/>
<path id="Vector_4" d="M12.9844 12.9863L18.5872 18.5892" stroke="black" stroke-width="1.5" stroke-linecap="round" stroke-linejoin="round"/>
</g>
</g>
<defs>
<clipPath id="clip0_47_148924">
<rect width="20" height="20" fill="white"/>
</clipPath>
</defs>
</svg>
