<svg width="20" height="20" viewBox="0 0 20 20" fill="none" xmlns="http://www.w3.org/2000/svg">
<g id="user-add-plus-38" clip-path="url(#clip0_47_148869)">
<g id="user-add-plus--actions-add-close-geometric-human-person-plus-single-user">
<path id="Vector" d="M7.35826 8.0173C9.18277 8.0173 10.6618 6.53824 10.6618 4.71373C10.6618 2.88922 9.18277 1.41016 7.35826 1.41016C5.53375 1.41016 4.05469 2.88922 4.05469 4.71373C4.05469 6.53824 5.53375 8.0173 7.35826 8.0173Z" stroke="black" stroke-width="1.5" stroke-linecap="round" stroke-linejoin="round"/>
<path id="Vector_2" d="M9.33873 17.2681H1.41016V16.5518C1.42068 15.5444 1.6863 14.5564 2.18223 13.6797C2.67816 12.803 3.3882 12.0663 4.24603 11.5384C5.10388 11.0105 6.08153 10.7086 7.08765 10.661C8.09378 10.6133 9.09557 10.8215 9.99944 11.266" stroke="black" stroke-width="1.5" stroke-linecap="round" stroke-linejoin="round"/>
<path id="Vector_3" d="M14.9531 11.3203V18.5882" stroke="black" stroke-width="1.5" stroke-linecap="round" stroke-linejoin="round"/>
<path id="Vector_4" d="M11.3203 14.9551H18.5882" stroke="black" stroke-width="1.5" stroke-linecap="round" stroke-linejoin="round"/>
</g>
</g>
<defs>
<clipPath id="clip0_47_148869">
<rect width="20" height="20" fill="white"/>
</clipPath>
</defs>
</svg>
