<svg width="20" height="20" viewBox="0 0 20 20" fill="none" xmlns="http://www.w3.org/2000/svg">
<g id="user-work-laptop-outdoor-42" clip-path="url(#clip0_47_149255)">
<g id="user-work-laptop-outdoor--geometric-work-laptop-outdoor-person-single-user">
<path id="Vector" d="M12.6429 9.9986C14.1025 9.9986 15.2857 8.81536 15.2857 7.35575C15.2857 5.89614 14.1025 4.71289 12.6429 4.71289C11.1832 4.71289 10 5.89614 10 7.35575C10 8.81536 11.1832 9.9986 12.6429 9.9986Z" stroke="black" stroke-width="1.5" stroke-linecap="round" stroke-linejoin="round"/>
<path id="Vector_2" d="M12.6406 12.6426C13.422 12.6408 14.1961 12.7935 14.9182 13.0917C15.6405 13.3899 16.2968 13.8278 16.8492 14.3804C17.4017 14.9329 17.8398 15.5891 18.1379 16.3114C18.4361 17.0336 18.5888 17.8076 18.5871 18.589" stroke="black" stroke-width="1.5" stroke-linecap="round" stroke-linejoin="round"/>
<path id="Vector_3" d="M9.33873 11.9824H1.41016L2.73158 18.5896H10.6602L9.33873 11.9824Z" stroke="black" stroke-width="1.5" stroke-linecap="round" stroke-linejoin="round"/>
<path id="Vector_4" d="M10.6602 18.5879H14.6244" stroke="black" stroke-width="1.5" stroke-linecap="round" stroke-linejoin="round"/>
<path id="Vector_5" d="M8.01562 1.41016H9.33705" stroke="black" stroke-width="1.5" stroke-linecap="round" stroke-linejoin="round"/>
<path id="Vector_6" d="M6.08984 6.08789L7.01484 7.01289" stroke="black" stroke-width="1.5" stroke-linecap="round" stroke-linejoin="round"/>
<path id="Vector_7" d="M1.41016 8.01758V9.33901" stroke="black" stroke-width="1.5" stroke-linecap="round" stroke-linejoin="round"/>
<path id="Vector_8" d="M5.37444 1.41016C5.37444 2.46155 4.95678 3.46988 4.21333 4.21333C3.46988 4.95678 2.46155 5.37444 1.41016 5.37444" stroke="black" stroke-width="1.5" stroke-linecap="round" stroke-linejoin="round"/>
</g>
</g>
<defs>
<clipPath id="clip0_47_149255">
<rect width="20" height="20" fill="white"/>
</clipPath>
</defs>
</svg>
