<svg width="20" height="20" viewBox="0 0 20 20" fill="none" xmlns="http://www.w3.org/2000/svg">
<g id="user-protection-cross-10" clip-path="url(#clip0_47_147052)">
<g id="user-protection-cross--shield-secure-security-person-plus-protection-medical-healthcare">
<path id="Vector" d="M14.8505 18.5504C14.7052 18.603 14.5463 18.603 14.4012 18.5504C13.2991 18.1139 12.3535 17.3565 11.6868 16.3764C11.02 15.3964 10.6629 14.2387 10.6615 13.0533V11.3222C10.6557 11.2339 10.6688 11.1454 10.6999 11.0626C10.731 10.9798 10.7795 10.9046 10.8421 10.8421C10.9046 10.7795 10.9798 10.731 11.0626 10.6999C11.1454 10.6688 11.2339 10.6557 11.3222 10.6615H17.9294C18.0177 10.6557 18.1062 10.6688 18.1889 10.6999C18.2718 10.731 18.347 10.7795 18.4096 10.8421C18.4721 10.9046 18.5206 10.9798 18.5516 11.0626C18.5828 11.1454 18.5959 11.2339 18.5901 11.3222V13.0533C18.5888 14.2387 18.2316 15.3964 17.5648 16.3764C16.8981 17.3565 15.9525 18.1139 14.8505 18.5504Z" stroke="black" stroke-width="1.5" stroke-linecap="round" stroke-linejoin="round"/>
<path id="Vector 881" d="M14.625 12.9736V15.6165" stroke="black" stroke-width="1.5" stroke-linecap="round" stroke-linejoin="round"/>
<path id="Vector 2495" d="M13.3047 14.2949H15.9475" stroke="black" stroke-width="1.5" stroke-linecap="round"/>
<path id="Vector_2" d="M7.35826 8.01828C9.18277 8.01828 10.6618 6.53921 10.6618 4.7147C10.6618 2.89019 9.18277 1.41113 7.35826 1.41113C5.53375 1.41113 4.05469 2.89019 4.05469 4.7147C4.05469 6.53921 5.53375 8.01828 7.35826 8.01828Z" stroke="black" stroke-width="1.5" stroke-linecap="round" stroke-linejoin="round"/>
<path id="Vector_3" d="M9.33873 17.268H1.41016V16.5517C1.42068 15.5445 1.6863 14.5563 2.18223 13.6797C3.22732 11.8321 5.23448 10.6589 7.35659 10.6543C7.44615 10.6545 7.53584 10.6567 7.62554 10.6609C7.84015 10.6711 8.05347 10.6928 8.2646 10.7259" stroke="black" stroke-width="1.5" stroke-linecap="round" stroke-linejoin="round"/>
</g>
</g>
<defs>
<clipPath id="clip0_47_147052">
<rect width="20" height="20" fill="white"/>
</clipPath>
</defs>
</svg>
