<svg width="20" height="20" viewBox="0 0 20 20" fill="none" xmlns="http://www.w3.org/2000/svg">
<g id="user-full-body-question-query-4" clip-path="url(#clip0_47_149042)">
<g id="user-full-body-question-query--actions-question-geometric-human-person-single-user">
<path id="Vector" d="M6.03348 6.69587C7.49309 6.69587 8.67634 5.51262 8.67634 4.05301C8.67634 2.5934 7.49309 1.41016 6.03348 1.41016C4.57387 1.41016 3.39062 2.5934 3.39062 4.05301C3.39062 5.51262 4.57387 6.69587 6.03348 6.69587Z" stroke="black" stroke-width="1.5" stroke-linecap="round" stroke-linejoin="round"/>
<path id="Vector_2" d="M10.6602 11.3203C10.6602 10.0937 10.1729 8.91729 9.30552 8.04995C8.43817 7.18259 7.26179 6.69531 6.03516 6.69531C4.80853 6.69531 3.63214 7.18259 2.76479 8.04995C1.89743 8.91729 1.41016 10.0937 1.41016 11.3203V13.3025H3.3923L4.05301 18.5882H8.0173L8.67801 13.3025H10.6602V11.3203Z" stroke="black" stroke-width="1.5" stroke-linecap="round" stroke-linejoin="round"/>
<path id="Vector_3" d="M13.3047 11.5413C13.3047 11.0186 13.4597 10.5076 13.7501 10.073C14.0405 9.6384 14.4533 9.29965 14.9361 9.09962C15.4191 8.89959 15.9505 8.84724 16.4632 8.94922C16.9757 9.05119 17.4467 9.30291 17.8163 9.67252C18.1859 10.0421 18.4376 10.513 18.5397 11.0257C18.6415 11.5384 18.5892 12.0698 18.3893 12.5527C18.1892 13.0356 17.8504 13.4484 17.4158 13.7387C16.9812 14.0291 16.4703 14.1842 15.9475 14.1842V15.946" stroke="black" stroke-width="1.5" stroke-linecap="round" stroke-linejoin="round"/>
<path id="Vector_4" d="M15.9475 18.5884C15.7651 18.5884 15.6172 18.4406 15.6172 18.2581C15.6172 18.0756 15.7651 17.9277 15.9475 17.9277" stroke="black" stroke-width="1.5" stroke-linecap="round" stroke-linejoin="round"/>
<path id="Vector_5" d="M15.9453 18.5884C16.1278 18.5884 16.2757 18.4406 16.2757 18.2581C16.2757 18.0756 16.1278 17.9277 15.9453 17.9277" stroke="black" stroke-width="1.5" stroke-linecap="round" stroke-linejoin="round"/>
</g>
</g>
<defs>
<clipPath id="clip0_47_149042">
<rect width="20" height="20" fill="white"/>
</clipPath>
</defs>
</svg>
