<svg width="20" height="20" viewBox="0 0 20 20" fill="none" xmlns="http://www.w3.org/2000/svg">
<g id="user-single-neutral-male-52">
<g id="user-single-neutral-male--close-geometric-human-person-single-up-user-male">
<path id="Vector" d="M18.1649 18.59C17.6101 16.86 16.5203 15.351 15.0527 14.2803C13.5849 13.2097 11.8152 12.6328 9.99846 12.6328C8.18175 12.6328 6.41197 13.2097 4.94428 14.2803C3.47659 15.351 2.3868 16.86 1.83203 18.59H18.1649Z" stroke="black" stroke-width="1.5" stroke-linecap="round" stroke-linejoin="round"/>
<path id="Vector_2" d="M9.9986 12.6437C13.0872 12.6437 15.591 10.1399 15.591 7.05134C15.591 3.96276 13.0872 1.45898 9.9986 1.45898C6.91003 1.45898 4.40625 3.96276 4.40625 7.05134C4.40625 10.1399 6.91003 12.6437 9.9986 12.6437Z" stroke="black" stroke-width="1.5" stroke-linecap="round" stroke-linejoin="round"/>
<path id="Ellipse 592" d="M11.824 9.21484C11.824 9.21484 11.36 10.1279 9.99796 10.1279C8.63589 10.1279 8.17188 9.21484 8.17188 9.21484" stroke="black" stroke-width="1.5" stroke-linecap="round" stroke-linejoin="round"/>
<path id="Intersect" d="M15.4877 5.9866C15.4752 5.98668 15.4627 5.98672 15.4503 5.98672C13.8247 5.98672 12.3653 5.27554 11.3661 4.14735C10.367 5.27556 8.90755 5.98675 7.282 5.98675C6.33805 5.98675 5.4501 5.74693 4.67578 5.32489C5.40328 3.08122 7.51047 1.45898 9.99657 1.45898C12.721 1.45898 14.9905 3.40726 15.4877 5.9866Z" stroke="black" stroke-width="1.5" stroke-linecap="round" stroke-linejoin="round"/>
</g>
</g>
</svg>
