<svg width="20" height="20" viewBox="0 0 20 20" fill="none" xmlns="http://www.w3.org/2000/svg">
<g id="user-full-body-alert-bell-63" clip-path="url(#clip0_47_148995)">
<g id="user-full-body-alert-bell--actions-alert-geometric-human-person-single-user">
<path id="Vector" d="M6.03348 6.69587C7.49309 6.69587 8.67634 5.51262 8.67634 4.05301C8.67634 2.5934 7.49309 1.41016 6.03348 1.41016C4.57387 1.41016 3.39062 2.5934 3.39062 4.05301C3.39062 5.51262 4.57387 6.69587 6.03348 6.69587Z" stroke="black" stroke-width="1.5" stroke-linecap="round" stroke-linejoin="round"/>
<path id="Vector_2" d="M6.69587 18.5882H4.05301L3.3923 13.3025H1.41016V11.3203C1.41016 10.0937 1.89743 8.91729 2.76479 8.04995C3.63214 7.18259 4.80853 6.69531 6.03516 6.69531C7.26179 6.69531 8.43817 7.18259 9.30552 8.04995C9.50011 8.24453 9.67557 8.45468 9.8307 8.67745" stroke="black" stroke-width="1.5" stroke-linecap="round" stroke-linejoin="round"/>
<path id="Vector_3" d="M17.2673 13.3036C17.2673 12.4274 16.9192 11.5871 16.2997 10.9676C15.6801 10.3481 14.8398 10 13.9637 10C13.0876 10 12.2473 10.3481 11.6277 10.9676C11.0082 11.5871 10.6602 12.4274 10.6602 13.3036V17.2679H17.2673V13.3036Z" stroke="black" stroke-width="1.5" stroke-linecap="round" stroke-linejoin="round"/>
<path id="Vector_4" d="M9.33984 17.2676H18.5898" stroke="black" stroke-width="1.5" stroke-linecap="round" stroke-linejoin="round"/>
<path id="Vector_5" d="M13.9648 17.2676V18.589" stroke="black" stroke-width="1.5" stroke-linecap="round" stroke-linejoin="round"/>
</g>
</g>
<defs>
<clipPath id="clip0_47_148995">
<rect width="20" height="20" fill="white"/>
</clipPath>
</defs>
</svg>
