<svg width="21" height="21" viewBox="0 0 21 21" fill="none" xmlns="http://www.w3.org/2000/svg">
<g clip-path="url(#clip0_3876_26994)">
<path d="M2.44007 3.7373H18.5601C18.5601 3.7373 19.7858 3.7373 19.7858 4.96302V16.0373C19.7858 16.0373 19.7858 17.263 18.5601 17.263H2.44007C2.44007 17.263 1.21436 17.263 1.21436 16.0373V4.96302C1.21436 4.96302 1.21436 3.7373 2.44007 3.7373Z" stroke="#637083" stroke-width="1.42857" stroke-linecap="round" stroke-linejoin="round"/>
<path d="M13.8706 8.89941H16.7089" stroke="#637083" stroke-width="1.42857" stroke-linecap="round" stroke-linejoin="round"/>
<path d="M13.8706 11.7119H16.7089" stroke="#637083" stroke-width="1.42857" stroke-linecap="round" stroke-linejoin="round"/>
<path d="M5.51074 9.36841C5.51074 10.663 6.56019 11.7124 7.85474 11.7124C8.18201 11.7124 8.49361 11.6453 8.77656 11.5242C9.61283 11.1661 10.1987 10.3357 10.1987 9.36841C10.1987 8.07386 9.1493 7.02441 7.85474 7.02441C6.56019 7.02441 5.51074 8.07386 5.51074 9.36841Z" stroke="#637083" stroke-width="1.42857" stroke-linecap="round" stroke-linejoin="round"/>
<path d="M4.29102 14.0337C4.66347 13.3253 5.18694 12.7398 5.8111 12.3335C6.43526 11.9273 7.13912 11.7139 7.855 11.7139C8.5709 11.7139 9.27476 11.9273 9.89892 12.3335C10.5231 12.7398 11.0465 13.3253 11.419 14.0337" stroke="#637083" stroke-width="1.42857" stroke-linecap="round" stroke-linejoin="round"/>
</g>
<defs>
<clipPath id="clip0_3876_26994">
<rect width="20" height="20" fill="white" transform="translate(0.5 0.5)"/>
</clipPath>
</defs>
</svg>
