<svg width="20" height="20" viewBox="0 0 20 20" fill="none" xmlns="http://www.w3.org/2000/svg">
<g id="user-question-query-13" clip-path="url(#clip0_47_149152)">
<g id="user-question-query--actions-question-geometric-human-person-single-up-user">
<path id="Vector" d="M7.35826 8.0173C9.18277 8.0173 10.6618 6.53824 10.6618 4.71373C10.6618 2.88922 9.18277 1.41016 7.35826 1.41016C5.53375 1.41016 4.05469 2.88922 4.05469 4.71373C4.05469 6.53824 5.53375 8.0173 7.35826 8.0173Z" stroke="black" stroke-width="1.5" stroke-linecap="round" stroke-linejoin="round"/>
<path id="Vector_2" d="M13.3047 11.5413C13.3047 11.0186 13.4597 10.5076 13.7501 10.073C14.0405 9.63839 14.4533 9.29964 14.9361 9.09961C15.4191 8.89958 15.9505 8.84725 16.4632 8.94922C16.9757 9.0512 17.4467 9.3029 17.8163 9.67251C18.1859 10.0421 18.4376 10.513 18.5397 11.0257C18.6415 11.5384 18.5892 12.0697 18.3893 12.5527C18.1892 13.0356 17.8504 13.4483 17.4158 13.7388C16.9812 14.0292 16.4703 14.1842 15.9475 14.1842V15.946" stroke="black" stroke-width="1.5" stroke-linecap="round" stroke-linejoin="round"/>
<path id="Vector_3" d="M11.9816 17.2681H1.41016V16.5518C1.42068 15.5444 1.6863 14.5564 2.18223 13.6797C2.67816 12.803 3.3882 12.0663 4.24603 11.5384C5.10388 11.0104 6.08153 10.7086 7.08765 10.661C7.17735 10.6567 7.26702 10.6545 7.35659 10.6543C7.44615 10.6545 7.53582 10.6567 7.62552 10.661C8.63164 10.7086 9.60929 11.0104 10.4671 11.5384" stroke="black" stroke-width="1.5" stroke-linecap="round" stroke-linejoin="round"/>
<path id="Vector_4" d="M15.9475 18.5884C15.7651 18.5884 15.6172 18.4406 15.6172 18.2581C15.6172 18.0756 15.7651 17.9277 15.9475 17.9277" stroke="black" stroke-width="1.5" stroke-linecap="round" stroke-linejoin="round"/>
<path id="Vector_5" d="M15.9453 18.5884C16.1278 18.5884 16.2757 18.4406 16.2757 18.2581C16.2757 18.0756 16.1278 17.9277 15.9453 17.9277" stroke="black" stroke-width="1.5" stroke-linecap="round" stroke-linejoin="round"/>
</g>
</g>
<defs>
<clipPath id="clip0_47_149152">
<rect width="20" height="20" fill="white"/>
</clipPath>
</defs>
</svg>
