<svg width="20" height="20" viewBox="0 0 20 20" fill="none" xmlns="http://www.w3.org/2000/svg">
<g id="user-nft-profile-picture-2-7">
<g id="user-nft-profile-picture-2">
<path id="Ellipse 167" d="M6.46875 10.627C7.25059 11.7356 8.53976 12.4613 9.99962 12.4655C11.4595 12.4697 12.7528 11.7514 13.541 10.6473" stroke="black" stroke-width="1.5" stroke-linecap="round" stroke-linejoin="round"/>
<path id="Polygon 5" d="M18.2066 9.33892C18.4426 9.74777 18.4426 10.2515 18.2066 10.6603L14.6757 16.7761C14.4396 17.1849 14.0034 17.4368 13.5313 17.4368H6.46952C5.99741 17.4368 5.56118 17.1849 5.32512 16.7761L1.79423 10.6603C1.55817 10.2515 1.55817 9.74777 1.79422 9.33892L5.32512 3.22321C5.56118 2.81436 5.99741 2.5625 6.46952 2.5625H13.5313C14.0034 2.5625 14.4396 2.81436 14.6757 3.22321L18.2066 9.33892Z" stroke="black" stroke-width="1.5" stroke-linecap="round" stroke-linejoin="round"/>
<g id="Group 2605">
<path id="Ellipse 1111" d="M7.68973 8.01814C7.50728 8.01814 7.35938 7.87023 7.35938 7.68778C7.35938 7.50533 7.50728 7.35742 7.68973 7.35742" stroke="black" stroke-width="1.5" stroke-linecap="round" stroke-linejoin="round"/>
<path id="Ellipse 1112" d="M7.69141 8.01814C7.87386 8.01814 8.02176 7.87023 8.02176 7.68778C8.02176 7.50533 7.87386 7.35742 7.69141 7.35742" stroke="black" stroke-width="1.5" stroke-linecap="round" stroke-linejoin="round"/>
</g>
<g id="Group 2606">
<path id="Ellipse 1111_2" d="M12.3147 8.01814C12.1323 8.01814 11.9844 7.87023 11.9844 7.68778C11.9844 7.50533 12.1323 7.35742 12.3147 7.35742" stroke="black" stroke-width="1.5" stroke-linecap="round" stroke-linejoin="round"/>
<path id="Ellipse 1112_2" d="M12.3164 8.01814C12.4989 8.01814 12.6468 7.87023 12.6468 7.68778C12.6468 7.50533 12.4989 7.35742 12.3164 7.35742" stroke="black" stroke-width="1.5" stroke-linecap="round" stroke-linejoin="round"/>
</g>
</g>
</g>
</svg>
