<svg width="20" height="20" viewBox="0 0 20 20" fill="none" xmlns="http://www.w3.org/2000/svg">
<g id="user-folder-71" clip-path="url(#clip0_47_144600)">
<g id="user-folder">
<path id="Ellipse 321" d="M8.67969 9.99979C8.67969 10.7007 8.95813 11.3729 9.45376 11.8686C9.94939 12.3642 10.6216 12.6426 11.3225 12.6426C12.0235 12.6426 12.6957 12.3642 13.1913 11.8686C13.687 11.3729 13.9654 10.7007 13.9654 9.99979C13.9654 9.29886 13.687 8.62664 13.1913 8.13101C12.6957 7.63538 12.0235 7.35693 11.3225 7.35693C10.6216 7.35693 9.94939 7.63538 9.45376 8.13101C8.95813 8.62664 8.67969 9.29886 8.67969 9.99979Z" stroke="black" stroke-width="1.5" stroke-linecap="round" stroke-linejoin="round"/>
<path id="Vector" d="M1.41016 16.9372V3.06223C1.41016 2.71176 1.54938 2.37565 1.79719 2.12783C2.04501 1.88002 2.38112 1.7408 2.73158 1.7408H7.60766C7.90951 1.732 8.20529 1.82686 8.44572 2.00959C8.68614 2.19232 8.85674 2.45189 8.92908 2.74509L9.33873 4.38366H17.2673C17.6177 4.38366 17.9539 4.52287 18.2017 4.77069C18.4494 5.01851 18.5887 5.35462 18.5887 5.70509V16.9372C18.5887 17.2878 18.4494 17.6238 18.2017 17.8716C17.9539 18.1195 17.6177 18.2586 17.2673 18.2586H2.73158C2.38112 18.2586 2.04501 18.1195 1.79719 17.8716C1.54938 17.6238 1.41016 17.2878 1.41016 16.9372Z" stroke="black" stroke-width="1.5" stroke-linecap="round" stroke-linejoin="round"/>
<path id="Vector_2" d="M5.80078 18.2587C6.98263 16.4675 9.01312 15.2856 11.3196 15.2856C13.6262 15.2856 15.6567 16.4675 16.8385 18.2587" stroke="black" stroke-width="1.5" stroke-linecap="round" stroke-linejoin="round"/>
</g>
</g>
<defs>
<clipPath id="clip0_47_144600">
<rect width="20" height="20" fill="white"/>
</clipPath>
</defs>
</svg>
