<svg width="20" height="20" viewBox="0 0 20 20" fill="none" xmlns="http://www.w3.org/2000/svg">
<g id="user-circle-avatar-happy-50" clip-path="url(#clip0_47_148899)">
<g id="user-circle-avatar-happy--circle-geometric-human-person-single-user-avatar-happy">
<path id="Vector" d="M9.99944 18.5887C14.7432 18.5887 18.5887 14.7432 18.5887 9.99944C18.5887 5.25571 14.7432 1.41016 9.99944 1.41016C5.25571 1.41016 1.41016 5.25571 1.41016 9.99944C1.41016 14.7432 5.25571 18.5887 9.99944 18.5887Z" stroke="black" stroke-width="1.5" stroke-linecap="round" stroke-linejoin="round"/>
<path id="Ellipse 592" d="M11.4368 10.6016C11.4368 10.6016 11.0716 11.3201 9.99963 11.3201C8.92769 11.3201 8.5625 10.6016 8.5625 10.6016" stroke="black" stroke-width="1.5" stroke-linecap="round" stroke-linejoin="round"/>
<path id="Vector_2" d="M10.0004 14.0184C12.7298 14.0184 14.9423 11.8059 14.9423 9.07662C14.9423 6.3473 12.7298 4.13477 10.0004 4.13477C7.27114 4.13477 5.05859 6.3473 5.05859 9.07662C5.05859 11.8059 7.27114 14.0184 10.0004 14.0184Z" stroke="black" stroke-width="1.5" stroke-linecap="round" stroke-linejoin="round"/>
<path id="Vector_3" d="M4.625 16.6826C5.01859 16.1658 5.48702 15.7054 6.01829 15.3178C7.17484 14.4742 8.56942 14.0195 10.001 14.0195C11.4326 14.0195 12.8271 14.4742 13.9837 15.3178C14.5149 15.7054 14.9834 16.1658 15.377 16.6826" stroke="black" stroke-width="1.5" stroke-linecap="round" stroke-linejoin="round"/>
<g id="Group 627">
<path id="Vector_4" d="M8.34877 8.40458C8.25754 8.40458 8.18359 8.33062 8.18359 8.2394C8.18359 8.14817 8.25754 8.07422 8.34877 8.07422" stroke="black" stroke-width="1.5" stroke-linecap="round" stroke-linejoin="round"/>
<path id="Vector_5" d="M8.34766 8.40458C8.43889 8.40458 8.51284 8.33062 8.51284 8.2394C8.51284 8.14817 8.43889 8.07422 8.34766 8.07422" stroke="black" stroke-width="1.5" stroke-linecap="round" stroke-linejoin="round"/>
</g>
<g id="Group 626">
<path id="Vector_6" d="M11.673 8.40458C11.5818 8.40458 11.5078 8.33062 11.5078 8.2394C11.5078 8.14817 11.5818 8.07422 11.673 8.07422" stroke="black" stroke-width="1.5" stroke-linecap="round" stroke-linejoin="round"/>
<path id="Vector_7" d="M11.6719 8.40458C11.7631 8.40458 11.8371 8.33062 11.8371 8.2394C11.8371 8.14817 11.7631 8.07422 11.6719 8.07422" stroke="black" stroke-width="1.5" stroke-linecap="round" stroke-linejoin="round"/>
</g>
</g>
</g>
<defs>
<clipPath id="clip0_47_148899">
<rect width="20" height="20" fill="white"/>
</clipPath>
</defs>
</svg>
