<svg width="20" height="20" viewBox="0 0 20 20" fill="none" xmlns="http://www.w3.org/2000/svg">
<g id="user-alert-bell-39" clip-path="url(#clip0_47_148875)">
<g id="user-alert-bell--actions-alert-geometric-human-person-single-up-user">
<path id="Vector" d="M7.35826 8.0173C9.18277 8.0173 10.6618 6.53824 10.6618 4.71373C10.6618 2.88922 9.18277 1.41016 7.35826 1.41016C5.53375 1.41016 4.05469 2.88922 4.05469 4.71373C4.05469 6.53824 5.53375 8.0173 7.35826 8.0173Z" stroke="black" stroke-width="1.5" stroke-linecap="round" stroke-linejoin="round"/>
<path id="Vector_2" d="M6.69587 17.2681H1.41016V16.5517C1.42068 15.5446 1.6863 14.5564 2.18223 13.6797C2.67816 12.803 3.3882 12.0663 4.24603 11.5384C5.10388 11.0105 6.08153 10.7086 7.08765 10.661C7.62373 10.6356 8.15856 10.6828 8.67801 10.7997" stroke="black" stroke-width="1.5" stroke-linecap="round" stroke-linejoin="round"/>
<path id="Vector_3" d="M17.2673 13.3036C17.2673 12.4274 16.9192 11.5871 16.2997 10.9676C15.6801 10.3481 14.8398 10 13.9637 10C13.0876 10 12.2473 10.3481 11.6277 10.9676C11.0082 11.5871 10.6602 12.4274 10.6602 13.3036V17.2679H17.2673V13.3036Z" stroke="black" stroke-width="1.5" stroke-linecap="round" stroke-linejoin="round"/>
<path id="Vector_4" d="M9.33984 17.2676H18.5898" stroke="black" stroke-width="1.5" stroke-linecap="round" stroke-linejoin="round"/>
<path id="Vector_5" d="M13.9648 17.2676V18.589" stroke="black" stroke-width="1.5" stroke-linecap="round" stroke-linejoin="round"/>
</g>
</g>
<defs>
<clipPath id="clip0_47_148875">
<rect width="20" height="20" fill="white"/>
</clipPath>
</defs>
</svg>
