<svg width="18" height="19" viewBox="0 0 18 19" fill="none" xmlns="http://www.w3.org/2000/svg">
<g clip-path="url(#clip0_208_66109)">
<path d="M13.7216 17.8186C13.5803 17.8697 13.4256 17.8697 13.2844 17.8186C12.2122 17.3939 11.2921 16.6569 10.6434 15.7033C9.99466 14.7498 9.64716 13.6234 9.64585 12.4701V10.7858C9.64017 10.6999 9.6529 10.6138 9.6832 10.5332C9.71349 10.4526 9.76065 10.3795 9.82152 10.3186C9.88238 10.2577 9.95555 10.2106 10.0361 10.1803C10.1167 10.15 10.2028 10.1372 10.2887 10.1429H16.7173C16.8032 10.1372 16.8893 10.15 16.9698 10.1803C17.0504 10.2106 17.1236 10.2577 17.1845 10.3186C17.2453 10.3795 17.2925 10.4526 17.3227 10.5332C17.3531 10.6138 17.3658 10.6999 17.3601 10.7858V12.4701C17.3589 13.6234 17.0113 14.7498 16.3626 15.7033C15.7139 16.6569 14.7939 17.3939 13.7216 17.8186Z" stroke="#003366" stroke-width="1.28571" stroke-linecap="round" stroke-linejoin="round"/>
<path d="M11.8945 13.6785L12.8588 14.6428L15.1088 12.3928" stroke="#003366" stroke-width="1.28571" stroke-linecap="round" stroke-linejoin="round"/>
<path d="M6.42913 7.57139C8.20433 7.57139 9.64342 6.13231 9.64342 4.35711C9.64342 2.58191 8.20433 1.14282 6.42913 1.14282C4.65393 1.14282 3.21484 2.58191 3.21484 4.35711C3.21484 6.13231 4.65393 7.57139 6.42913 7.57139Z" stroke="#003366" stroke-width="1.28571" stroke-linecap="round" stroke-linejoin="round"/>
<path d="M8.35882 16.5714H0.644531V15.8744C0.654767 14.8944 0.913216 13.9329 1.39574 13.08C2.41258 11.2823 4.36549 10.1408 6.43025 10.1364C6.51739 10.1365 6.60465 10.1387 6.69193 10.1428C6.90074 10.1527 7.10829 10.1738 7.31372 10.206" stroke="#003366" stroke-width="1.28571" stroke-linecap="round" stroke-linejoin="round"/>
</g>
<defs>
<clipPath id="clip0_208_66109">
<rect width="18" height="18" fill="white" transform="translate(0 0.5)"/>
</clipPath>
</defs>
</svg>
