<svg width="20" height="20" viewBox="0 0 20 20" fill="none" xmlns="http://www.w3.org/2000/svg">
<g id="user-protection-2a&#204;&#130;&#194;&#128;&#194;&#148;shield-secure-security-profile-person-3" clip-path="url(#clip0_47_147041)">
<g id="user-protection-2&#195;&#162;&#194;&#128;&#194;&#148;shield-secure-security-profile-person">
<path id="Vector" d="M10.4752 18.4972C10.169 18.6153 9.82988 18.6153 9.52373 18.4972C7.13285 17.5598 5.07993 15.9236 3.63264 13.8022C2.18536 11.6807 1.41086 9.17244 1.41016 6.60435V2.73256C1.41016 2.38209 1.54938 2.04599 1.79719 1.79817C2.04501 1.55035 2.38112 1.41113 2.73158 1.41113H17.2673C17.6177 1.41113 17.9539 1.55035 18.2017 1.79817C18.4494 2.04599 18.5887 2.38209 18.5887 2.73256V6.59113C18.5907 9.16148 17.8174 11.6727 16.3699 13.7967C14.9226 15.9208 12.8681 17.5589 10.4752 18.4972Z" stroke="black" stroke-width="1.5" stroke-linecap="round" stroke-linejoin="round"/>
<path id="Vector_2" d="M4.49609 14.9297C5.68036 13.153 7.70241 11.9824 9.99786 11.9824C12.2933 11.9824 14.3154 13.153 15.4996 14.9297" stroke="black" stroke-width="1.5" stroke-linecap="round" stroke-linejoin="round"/>
<path id="Vector_3" d="M10.0006 10.0001C11.6426 10.0001 12.9738 8.66899 12.9738 7.02693C12.9738 5.38487 11.6426 4.05371 10.0006 4.05371C8.3585 4.05371 7.02734 5.38487 7.02734 7.02693C7.02734 8.66899 8.3585 10.0001 10.0006 10.0001Z" stroke="black" stroke-width="1.5" stroke-linecap="round" stroke-linejoin="round"/>
</g>
</g>
<defs>
<clipPath id="clip0_47_147041">
<rect width="20" height="20" fill="white"/>
</clipPath>
</defs>
</svg>
