<svg width="20" height="20" viewBox="0 0 20 20" fill="none" xmlns="http://www.w3.org/2000/svg">
<g clip-path="url(#clip0_48_150820)">
<path d="M6.03348 6.69648C7.49309 6.69648 8.67634 5.51323 8.67634 4.05362C8.67634 2.59401 7.49309 1.41077 6.03348 1.41077C4.57387 1.41077 3.39062 2.59401 3.39062 4.05362C3.39062 5.51323 4.57387 6.69648 6.03348 6.69648Z" stroke="black" stroke-width="1.5" stroke-linecap="round" stroke-linejoin="round"/>
<path d="M8.59873 7.46286C7.90052 7.00321 7.09108 6.7408 6.25601 6.70338C5.42093 6.66596 4.59127 6.8549 3.85475 7.25024C3.11822 7.64557 2.50224 8.23261 2.07191 8.94926C1.6416 9.66589 1.41295 10.4855 1.41016 11.3214V13.3036H3.3923L4.05301 18.5893H8.0173L8.45337 15.0743" stroke="black" stroke-width="1.5" stroke-linecap="round" stroke-linejoin="round"/>
<path d="M18.5887 11.3215C18.5887 13.515 14.6244 18.5893 14.6244 18.5893C14.6244 18.5893 10.6602 13.515 10.6602 11.3215C10.6602 10.2701 11.0778 9.26174 11.8213 8.51829C12.5647 7.77484 13.573 7.35718 14.6244 7.35718C15.6758 7.35718 16.6842 7.77484 17.4276 8.51829C18.171 9.26174 18.5887 10.2701 18.5887 11.3215Z" stroke="black" stroke-width="1.5" stroke-linecap="round" stroke-linejoin="round"/>
<path d="M14.6256 11.9822C14.9904 11.9822 15.2863 11.6864 15.2863 11.3215C15.2863 10.9566 14.9904 10.6608 14.6256 10.6608C14.2607 10.6608 13.9648 10.9566 13.9648 11.3215C13.9648 11.6864 14.2607 11.9822 14.6256 11.9822Z" stroke="black" stroke-width="1.5" stroke-linecap="round" stroke-linejoin="round"/>
</g>
<defs>
<clipPath id="clip0_48_150820">
<rect width="20" height="20" fill="white"/>
</clipPath>
</defs>
</svg>
