<svg width="20" height="20" viewBox="0 0 20 20" fill="none" xmlns="http://www.w3.org/2000/svg">
<g id="user-feedback-heart-62" clip-path="url(#clip0_47_148973)">
<g id="user-feedback-heart">
<path id="Vector" d="M10.7655 12.9642C10.3833 13.3264 9.79137 13.3264 9.40916 12.9642L7.12972 10.8041C5.60482 9.34558 7.59607 6.12306 10.0873 8.5059C12.5742 6.12725 14.5655 9.3498 13.0449 10.8041L10.7655 12.9642Z" stroke="black" stroke-width="1.5" stroke-linecap="round" stroke-linejoin="round"/>
<path id="Ellipse 1522" d="M18.5867 10C18.5867 14.7438 14.7411 18.5893 9.9974 18.5893C6.42432 18.5893 3.36083 16.4076 2.06641 13.3036" stroke="black" stroke-width="1.5" stroke-linecap="round" stroke-linejoin="round"/>
<path id="Ellipse 1523" d="M1.41016 9.99944C1.41016 5.25571 5.25571 1.41016 9.99944 1.41016C13.5725 1.41016 16.6361 3.5919 17.9304 6.69587" stroke="black" stroke-width="1.5" stroke-linecap="round" stroke-linejoin="round"/>
<path id="Vector_2" d="M18.5882 4.05273V6.69559H15.9453" stroke="black" stroke-width="1.5" stroke-linecap="round" stroke-linejoin="round"/>
<path id="Vector_3" d="M1.41016 15.9456V13.3027H4.05301" stroke="black" stroke-width="1.5" stroke-linecap="round" stroke-linejoin="round"/>
</g>
</g>
<defs>
<clipPath id="clip0_47_148973">
<rect width="20" height="20" fill="white"/>
</clipPath>
</defs>
</svg>
