<svg width="20" height="20" viewBox="0 0 20 20" fill="none" xmlns="http://www.w3.org/2000/svg">
<g id="user-full-body-share-10">
<g id="user-full-body-share--user-share-actions-human-geometric-person-single">
<path id="Vector" d="M6.03348 6.69587C7.49309 6.69587 8.67634 5.51262 8.67634 4.05301C8.67634 2.5934 7.49309 1.41016 6.03348 1.41016C4.57387 1.41016 3.39062 2.5934 3.39062 4.05301C3.39062 5.51262 4.57387 6.69587 6.03348 6.69587Z" stroke="black" stroke-width="1.5" stroke-linecap="round" stroke-linejoin="round"/>
<path id="Vector_2" d="M8.26507 16.606L8.0173 18.5882H4.05301L3.3923 13.3025H1.41016V11.3203C1.41016 10.0937 1.89743 8.91729 2.76479 8.04995C3.63214 7.18259 4.80853 6.69531 6.03516 6.69531C7.26179 6.69531 8.43817 7.18259 9.30552 8.04995C9.85356 8.59797 10.2499 9.26939 10.4674 9.99888" stroke="black" stroke-width="1.5" stroke-linecap="round" stroke-linejoin="round"/>
<path id="Ellipse 21" d="M12.3685 13.8542C12.3685 14.7056 11.6783 15.3958 10.8268 15.3958C9.97538 15.3958 9.28516 14.7056 9.28516 13.8542C9.28516 13.0027 9.97538 12.3125 10.8268 12.3125C11.6783 12.3125 12.3685 13.0027 12.3685 13.8542Z" stroke="black" stroke-width="1.5" stroke-linecap="round" stroke-linejoin="round"/>
<path id="Ellipse 22" d="M18.0951 11.1549C18.0951 12.0064 17.4048 12.6966 16.5534 12.6966C15.702 12.6966 15.0117 12.0064 15.0117 11.1549C15.0117 10.3035 15.702 9.61328 16.5534 9.61328C17.4048 9.61328 18.0951 10.3035 18.0951 11.1549Z" stroke="black" stroke-width="1.5" stroke-linecap="round" stroke-linejoin="round"/>
<path id="Ellipse 23" d="M18.0951 16.5513C18.0951 15.6999 17.4048 15.0098 16.5534 15.0098C15.702 15.0098 15.0117 15.6999 15.0117 16.5513C15.0117 17.4029 15.702 18.0931 16.5534 18.0931C17.4048 18.0931 18.0951 17.4029 18.0951 16.5513Z" stroke="black" stroke-width="1.5" stroke-linecap="round" stroke-linejoin="round"/>
<path id="Subtract" d="M15.2212 15.775L12.1484 14.6309" stroke="black" stroke-width="1.5" stroke-linecap="round" stroke-linejoin="round"/>
<path id="Subtract_2" d="M15.2212 11.9316L12.1484 13.0757" stroke="black" stroke-width="1.5" stroke-linecap="round" stroke-linejoin="round"/>
</g>
</g>
</svg>
