<svg width="20" height="20" viewBox="0 0 20 20" fill="none" xmlns="http://www.w3.org/2000/svg">
<g id="vertical-scroll-8">
<g id="vertical-scroll--move-scroll-vertical">
<path id="Vector" d="M3.72266 7.35694L9.65587 1.55586C9.70027 1.50949 9.7536 1.47259 9.81266 1.44738C9.8717 1.42218 9.93523 1.40918 9.99944 1.40918C10.0637 1.40918 10.1272 1.42218 10.1862 1.44738C10.2453 1.47259 10.2986 1.50949 10.343 1.55586L16.2762 7.35694" stroke="black" stroke-width="1.5" stroke-linecap="round" stroke-linejoin="round"/>
<path id="Vector_2" d="M3.72266 12.6426L9.65587 18.4436C9.70027 18.49 9.7536 18.5269 9.81266 18.5521C9.8717 18.5774 9.93523 18.5903 9.99944 18.5903C10.0637 18.5903 10.1272 18.5774 10.1862 18.5521C10.2453 18.5269 10.2986 18.49 10.343 18.4436L16.2762 12.6426" stroke="black" stroke-width="1.5" stroke-linecap="round" stroke-linejoin="round"/>
</g>
</g>
</svg>
