<svg width="20" height="20" viewBox="0 0 20 20" fill="none" xmlns="http://www.w3.org/2000/svg">
<g id="vertical-menu-8">
<g id="vertical-menu--navigation-vertical-three-circle-button-menu-dots">
<path id="Vector" d="M10.0017 5.37542C11.0964 5.37542 11.9838 4.48799 11.9838 3.39328C11.9838 2.29856 11.0964 1.41113 10.0017 1.41113C8.90696 1.41113 8.01953 2.29856 8.01953 3.39328C8.01953 4.48799 8.90696 5.37542 10.0017 5.37542Z" stroke="black" stroke-width="1.5" stroke-linecap="round" stroke-linejoin="round"/>
<path id="Vector_2" d="M10.0017 11.9828C11.0964 11.9828 11.9838 11.0954 11.9838 10.0007C11.9838 8.90599 11.0964 8.01855 10.0017 8.01855C8.90696 8.01855 8.01953 8.90599 8.01953 10.0007C8.01953 11.0954 8.90696 11.9828 10.0017 11.9828Z" stroke="black" stroke-width="1.5" stroke-linecap="round" stroke-linejoin="round"/>
<path id="Vector_3" d="M10.0017 18.5893C11.0964 18.5893 11.9838 17.7018 11.9838 16.6071C11.9838 15.5125 11.0964 14.625 10.0017 14.625C8.90696 14.625 8.01953 15.5125 8.01953 16.6071C8.01953 17.7018 8.90696 18.5893 10.0017 18.5893Z" stroke="black" stroke-width="1.5" stroke-linecap="round" stroke-linejoin="round"/>
</g>
</g>
</svg>
