<svg width="20" height="20" viewBox="0 0 20 20" fill="none" xmlns="http://www.w3.org/2000/svg">
<g id="video-call-8">
<g id="video-call">
<path id="Vector" d="M17.6902 5.70508L13.9637 7.35686V4.71401C13.9637 4.36354 13.8245 4.02743 13.5767 3.77961C13.3289 3.5318 12.9928 3.39258 12.6423 3.39258H2.73158C2.38112 3.39258 2.04501 3.5318 1.79719 3.77961C1.54938 4.02743 1.41016 4.36354 1.41016 4.71401V15.2854C1.41016 15.6359 1.54938 15.9721 1.79719 16.2198C2.04501 16.4676 2.38112 16.6069 2.73158 16.6069H12.6423C12.9928 16.6069 13.3289 16.4676 13.5767 16.2198C13.8245 15.9721 13.9637 15.6359 13.9637 15.2854V12.6426L17.6902 14.2944C17.7906 14.3331 17.8991 14.3468 18.006 14.334C18.1129 14.3213 18.2152 14.2827 18.3037 14.2214C18.3922 14.1602 18.4645 14.0783 18.5142 13.9828C18.5639 13.8872 18.5895 13.781 18.5887 13.6733V6.32615C18.5895 6.21847 18.5639 6.11222 18.5142 6.01668C18.4645 5.92114 18.3922 5.83919 18.3037 5.77797C18.2152 5.71673 18.1129 5.67809 18.006 5.66538C17.8991 5.65268 17.7906 5.66631 17.6902 5.70508Z" stroke="black" stroke-width="1.5" stroke-linecap="round" stroke-linejoin="round"/>
<g id="Group 2605">
<path id="Ellipse 1111" d="M5.76395 8.67829C5.5815 8.67829 5.43359 8.53038 5.43359 8.34794C5.43359 8.16549 5.5815 8.01758 5.76395 8.01758" stroke="black" stroke-width="1.5" stroke-linecap="round" stroke-linejoin="round"/>
<path id="Ellipse 1112" d="M5.76562 8.67829C5.94807 8.67829 6.09598 8.53038 6.09598 8.34794C6.09598 8.16549 5.94807 8.01758 5.76562 8.01758" stroke="black" stroke-width="1.5" stroke-linecap="round" stroke-linejoin="round"/>
</g>
<g id="Group 2630">
<path id="Ellipse 1111_2" d="M9.77958 8.67829C9.59713 8.67829 9.44922 8.53038 9.44922 8.34794C9.44922 8.16549 9.59713 8.01758 9.77958 8.01758" stroke="black" stroke-width="1.5" stroke-linecap="round" stroke-linejoin="round"/>
<path id="Ellipse 1112_2" d="M9.78125 8.67829C9.9637 8.67829 10.1116 8.53038 10.1116 8.34794C10.1116 8.16549 9.9637 8.01758 9.78125 8.01758" stroke="black" stroke-width="1.5" stroke-linecap="round" stroke-linejoin="round"/>
</g>
<path id="ellipse 168" d="M5.5625 11.3213C6.0523 12.0116 6.85795 12.4621 7.76882 12.4621C8.67968 12.4621 9.48533 12.0116 9.97513 11.3213" stroke="black" stroke-width="1.5" stroke-linecap="round" stroke-linejoin="round"/>
</g>
</g>
</svg>
