<svg width="21" height="21" viewBox="0 0 21 21" fill="none" xmlns="http://www.w3.org/2000/svg">
<g clip-path="url(#clip0_146_402056)">
<path d="M13.9805 1.44641C15.4582 1.44641 16.8752 2.0334 17.92 3.07824C18.9649 4.12309 19.5519 5.5402 19.5519 7.01784" stroke="black" stroke-width="1.5" stroke-linecap="round" stroke-linejoin="round"/>
<path d="M13.9805 4.92853C14.5346 4.92853 15.0661 5.14866 15.4579 5.54047C15.8497 5.93228 16.0698 6.46371 16.0698 7.01781" stroke="black" stroke-width="1.5" stroke-linecap="round" stroke-linejoin="round"/>
<path d="M15.8196 10.1518L12.5882 11.8928V9.80356C12.5882 9.43415 12.4414 9.07988 12.1802 8.81866C11.919 8.55746 11.5647 8.41071 11.1953 8.41071H2.83817C2.46876 8.41071 2.11448 8.55746 1.85327 8.81866C1.59206 9.07988 1.44531 9.43415 1.44531 9.80356V18.1607C1.44531 18.5301 1.59206 18.8844 1.85327 19.1456C2.11448 19.4068 2.46876 19.5536 2.83817 19.5536H11.1953C11.5647 19.5536 11.919 19.4068 12.1802 19.1456C12.4414 18.8844 12.5882 18.5301 12.5882 18.1607V16.0714L15.8196 17.8125C15.9255 17.8533 16.0398 17.8678 16.1525 17.8543C16.2652 17.8409 16.373 17.8002 16.4663 17.7356C16.5596 17.6711 16.6358 17.5848 16.6882 17.4841C16.7406 17.3834 16.7676 17.2714 16.7667 17.1578V10.8064C16.7676 10.6929 16.7406 10.5809 16.6882 10.4802C16.6358 10.3795 16.5596 10.2931 16.4663 10.2286C16.373 10.1641 16.2652 10.1233 16.1525 10.1099C16.0398 10.0966 15.9255 10.1109 15.8196 10.1518Z" stroke="black" stroke-width="1.5" stroke-linecap="round" stroke-linejoin="round"/>
</g>
<defs>
<clipPath id="clip0_146_402056">
<rect width="21" height="21" fill="white"/>
</clipPath>
</defs>
</svg>
