<svg width="20" height="20" viewBox="0 0 20 20" fill="none" xmlns="http://www.w3.org/2000/svg">
<g id="view-document-files-20">
<g id="view-document-files">
<path id="vector" d="M3.65234 10.1238V2.73207C3.65234 2.3816 3.79156 2.0455 4.03938 1.79768C4.2872 1.54987 4.6233 1.41064 4.97377 1.41064H13.5631L18.1881 6.03564V17.2678C18.1881 17.6182 18.0488 17.9544 17.8011 18.2022C17.5532 18.4499 17.2171 18.5892 16.8667 18.5892H11.87" stroke="black" stroke-width="1.5" stroke-linecap="round" stroke-linejoin="round"/>
<path id="Vector" d="M11.2707 14.5032C11.7044 14.9435 11.7044 15.6275 11.2707 16.0678C10.3084 17.0447 8.50147 18.5891 6.69448 18.5891C4.88749 18.5891 3.08052 17.0447 2.11825 16.0678C1.68454 15.6275 1.68454 14.9435 2.11825 14.5032C3.08052 13.5263 4.88749 11.9819 6.69448 11.9819C8.50147 11.9819 10.3084 13.5263 11.2707 14.5032Z" stroke="black" stroke-width="1.5" stroke-linecap="round" stroke-linejoin="round"/>
<path id="Vector_2" d="M6.69587 15.9464C7.06077 15.9464 7.35659 15.6506 7.35659 15.2857C7.35659 14.9209 7.06077 14.625 6.69587 14.625C6.33097 14.625 6.03516 14.9209 6.03516 15.2857C6.03516 15.6506 6.33097 15.9464 6.69587 15.9464Z" stroke="black" stroke-width="1.5" stroke-linecap="round" stroke-linejoin="round"/>
</g>
</g>
</svg>
