<svg width="20" height="20" viewBox="0 0 20 20" fill="none" xmlns="http://www.w3.org/2000/svg">
<g id="visible">
<g id="visible--eye-eyeball-open-view">
<path id="Vector" d="M18.2313 9.0032C18.4504 9.27637 18.5717 9.63126 18.5717 9.99924C18.5717 10.3672 18.4504 10.7221 18.2313 10.9953C16.8438 12.6752 13.6855 15.9457 9.99874 15.9457C6.31195 15.9457 3.15374 12.6752 1.76623 10.9953C1.54709 10.7221 1.42578 10.3672 1.42578 9.99924C1.42578 9.63126 1.54709 9.27637 1.76623 9.0032C3.15374 7.32331 6.31195 4.05273 9.99874 4.05273C13.6855 4.05273 16.8438 7.32331 18.2313 9.0032Z" stroke="black" stroke-width="1.5" stroke-linecap="round" stroke-linejoin="round"/>
<path id="Vector_2" d="M9.99833 12.6412C11.4579 12.6412 12.6412 11.4579 12.6412 9.99833C12.6412 8.53872 11.4579 7.35547 9.99833 7.35547C8.53872 7.35547 7.35547 8.53872 7.35547 9.99833C7.35547 11.4579 8.53872 12.6412 9.99833 12.6412Z" stroke="black" stroke-width="1.5" stroke-linecap="round" stroke-linejoin="round"/>
</g>
</g>
</svg>
