<svg width="20" height="20" viewBox="0 0 20 20" fill="none" xmlns="http://www.w3.org/2000/svg">
<g id="voice-activation-lock-privacy-21">
<g id="voice-activation-lock-privacy--voice-activation-lock-privacy-identification-password-sound-secure-voice">
<path id="Vector" d="M1.41016 2.73193V17.2676" stroke="black" stroke-width="1.5" stroke-linecap="round" stroke-linejoin="round"/>
<path id="Vector_2" d="M8.28125 5.375V14.625" stroke="black" stroke-width="1.5" stroke-linecap="round" stroke-linejoin="round"/>
<path id="Vector_3" d="M4.84766 7.35693V12.6426" stroke="black" stroke-width="1.5" stroke-linecap="round" stroke-linejoin="round"/>
<path id="Vector_4" d="M18.5898 2.73193V8.01765" stroke="black" stroke-width="1.5" stroke-linecap="round" stroke-linejoin="round"/>
<path id="Vector_5" d="M15.1523 5.375V6.69643" stroke="black" stroke-width="1.5" stroke-linecap="round" stroke-linejoin="round"/>
<path id="Vector_6" d="M11.7188 7.35693V8.01765" stroke="black" stroke-width="1.5" stroke-linecap="round" stroke-linejoin="round"/>
<path id="Vector_7" d="M11.3209 13.3032H17.928C18.3244 13.3032 18.5887 13.5675 18.5887 13.9639V17.9282C18.5887 18.3247 18.3244 18.5889 17.928 18.5889H11.3209C10.9244 18.5889 10.6602 18.3247 10.6602 17.9282V13.9639C10.6602 13.5675 10.9244 13.3032 11.3209 13.3032Z" stroke="black" stroke-width="1.5" stroke-linecap="round" stroke-linejoin="round"/>
<path id="Vector_8" d="M11.9805 13.3032V11.9817C11.9805 10.5282 13.1698 9.33887 14.6233 9.33887C16.0769 9.33887 17.2662 10.5282 17.2662 11.9817V13.3032" stroke="black" stroke-width="1.5" stroke-linecap="round" stroke-linejoin="round"/>
</g>
</g>
</svg>
