<svg width="21" height="21" viewBox="0 0 21 21" fill="none" xmlns="http://www.w3.org/2000/svg">
<path d="M9.84355 18.6107C9.1215 19.0757 8.26206 19.2794 7.40811 19.1882C6.55418 19.097 5.75718 18.7163 5.14962 18.1093L4.62034 17.58C4.38557 17.3427 4.25391 17.0223 4.25391 16.6886C4.25391 16.3547 4.38557 16.0345 4.62034 15.7972L6.84891 13.5825C7.08384 13.3486 7.40186 13.2173 7.73338 13.2173C8.06489 13.2173 8.38291 13.3486 8.61784 13.5825C8.85514 13.8173 9.17547 13.9489 9.50927 13.9489C9.84307 13.9489 10.1634 13.8173 10.4007 13.5825L13.9525 10.0307C14.1872 9.79341 14.3189 9.47308 14.3189 9.13927C14.3189 8.80547 14.1872 8.48514 13.9525 8.24784C13.7186 8.01292 13.5873 7.69491 13.5873 7.36338C13.5873 7.03187 13.7186 6.71385 13.9525 6.47892L16.0976 4.25034C16.3348 4.01559 16.6551 3.88391 16.989 3.88391C17.3227 3.88391 17.6431 4.01559 17.8804 4.25034L18.4097 4.77963C19.0274 5.37861 19.4212 6.17137 19.5252 7.02563C19.6291 7.87987 19.4369 8.74391 18.9808 9.47356C16.5519 13.0794 13.4494 16.182 9.84355 18.6107Z" stroke="black" stroke-width="1.5" stroke-linecap="round" stroke-linejoin="round"/>
<path d="M4.23047 1.44641V7.21284" stroke="black" stroke-width="1.5" stroke-linecap="round" stroke-linejoin="round"/>
<path d="M1.44531 2.68555V5.97269" stroke="black" stroke-width="1.5" stroke-linecap="round" stroke-linejoin="round"/>
<path d="M7.01562 2.68555V5.97269" stroke="black" stroke-width="1.5" stroke-linecap="round" stroke-linejoin="round"/>
</svg>
