<svg width="20" height="20" viewBox="0 0 20 20" fill="none" xmlns="http://www.w3.org/2000/svg">
<g id="voice-scan-1-11" clip-path="url(#clip0_47_145432)">
<g id="voice-scan-1--identification-secure-id-soundwave-sound-voice-brackets-security">
<path id="Vector" d="M2.07031 10.6607H5.37388L7.35603 5.375L9.99888 12.6429L12.6417 7.35714L14.6239 10.6607H17.9275" stroke="black" stroke-width="1.5" stroke-linecap="round" stroke-linejoin="round"/>
<path id="Vector_2" d="M18.5893 14.625V17.2679C18.5893 17.6183 18.45 17.9545 18.2022 18.2022C17.9545 18.45 17.6183 18.5893 17.2679 18.5893H14.625" stroke="black" stroke-width="1.5" stroke-linecap="round" stroke-linejoin="round"/>
<path id="Vector_3" d="M14.625 1.41064H17.2679C17.6183 1.41064 17.9545 1.54987 18.2022 1.79768C18.45 2.0455 18.5893 2.3816 18.5893 2.73207V5.37493" stroke="black" stroke-width="1.5" stroke-linecap="round" stroke-linejoin="round"/>
<path id="Vector_4" d="M1.41016 5.37493V2.73207C1.41016 2.3816 1.54938 2.0455 1.79719 1.79768C2.04501 1.54987 2.38112 1.41064 2.73158 1.41064H5.37444" stroke="black" stroke-width="1.5" stroke-linecap="round" stroke-linejoin="round"/>
<path id="Vector_5" d="M5.37444 18.5893H2.73158C2.38112 18.5893 2.04501 18.45 1.79719 18.2022C1.54938 17.9545 1.41016 17.6183 1.41016 17.2679V14.625" stroke="black" stroke-width="1.5" stroke-linecap="round" stroke-linejoin="round"/>
</g>
</g>
<defs>
<clipPath id="clip0_47_145432">
<rect width="20" height="20" fill="white"/>
</clipPath>
</defs>
</svg>
