<svg width="21" height="21" viewBox="0 0 21 21" fill="none" xmlns="http://www.w3.org/2000/svg">
<path d="M19.5525 17.4642C19.5525 15.0631 18.5986 12.7602 16.9007 11.0624C15.2028 9.3645 12.9 8.41064 10.4989 8.41064C8.09772 8.41064 5.79491 9.3645 4.09705 11.0624C2.39917 12.7602 1.44531 15.0631 1.44531 17.4642C1.44531 18.0183 1.66543 18.5498 2.05725 18.9416C2.44906 19.3334 2.98049 19.5535 3.5346 19.5535H17.4632C18.0172 19.5535 18.5488 19.3334 18.9406 18.9416C19.3324 18.5498 19.5525 18.0183 19.5525 17.4642Z" stroke="black" stroke-width="1.5" stroke-linecap="round" stroke-linejoin="round"/>
<path d="M13.2863 2.14282C13.2863 2.88164 12.9928 3.5902 12.4704 4.11261C11.9479 4.63505 11.2394 4.92854 10.5006 4.92854C9.76174 4.92854 9.05318 4.63505 8.53077 4.11261C8.00833 3.5902 7.71484 2.88164 7.71484 2.14282" stroke="black" stroke-width="1.5" stroke-linecap="round" stroke-linejoin="round"/>
<path d="M1.64062 8.60569C3.99107 6.25817 7.17722 4.93958 10.4992 4.93958C13.8212 4.93958 17.0073 6.25817 19.3578 8.60569" stroke="black" stroke-width="1.5" stroke-linecap="round" stroke-linejoin="round"/>
</svg>
