<svg width="20" height="20" viewBox="0 0 20 20" fill="none" xmlns="http://www.w3.org/2000/svg">
<g id="warning-square-11" clip-path="url(#clip0_47_141856)">
<g id="warning-square--warning-alert-frame-exclamation-caution-square">
<path id="Vector 1945" d="M1.41016 2.73213V17.2678C1.41016 17.9977 2.00178 18.5893 2.73158 18.5893H17.2673C17.9971 18.5893 18.5887 17.9977 18.5887 17.2678V2.73213C18.5887 2.00233 17.9971 1.41071 17.2673 1.41071H2.73158C2.00178 1.41071 1.41016 2.00233 1.41016 2.73213Z" stroke="black" stroke-width="1.5" stroke-linecap="round" stroke-linejoin="round"/>
<path id="Vector" d="M10 6.03571V10.3303" stroke="black" stroke-width="1.5" stroke-linecap="round" stroke-linejoin="round"/>
<g id="Group 2605">
<path id="Ellipse 1111" d="M9.99833 13.9643C9.81588 13.9643 9.66797 13.8164 9.66797 13.6339C9.66797 13.4515 9.81588 13.3036 9.99833 13.3036" stroke="black" stroke-width="1.5" stroke-linecap="round" stroke-linejoin="round"/>
<path id="Ellipse 1112" d="M10 13.9643C10.1824 13.9643 10.3304 13.8164 10.3304 13.6339C10.3304 13.4515 10.1824 13.3036 10 13.3036" stroke="black" stroke-width="1.5" stroke-linecap="round" stroke-linejoin="round"/>
</g>
</g>
</g>
<defs>
<clipPath id="clip0_47_141856">
<rect width="20" height="20" fill="white"/>
</clipPath>
</defs>
</svg>
