<svg width="20" height="20" viewBox="0 0 20 20" fill="none" xmlns="http://www.w3.org/2000/svg">
<g id="warning-diamond-50" clip-path="url(#clip0_47_141835)">
<g id="warning-diamond--diamond-alert-warning-frame-exclamation-caution">
<path id="Vector" d="M9.00041 1.8241L1.82429 9.00023C1.27211 9.5524 1.27211 10.4476 1.82429 10.9998L9.00041 18.176C9.55258 18.7281 10.4478 18.7281 11 18.176L18.1761 10.9998C18.7284 10.4476 18.7284 9.5524 18.1761 9.00023L11 1.8241C10.4478 1.27193 9.55258 1.27193 9.00041 1.8241Z" stroke="black" stroke-width="1.5" stroke-linecap="round" stroke-linejoin="round"/>
<path id="Vector_2" d="M10 6.03577V10.3304" stroke="black" stroke-width="1.5" stroke-linecap="round" stroke-linejoin="round"/>
<g id="Group 2605">
<path id="Ellipse 1111" d="M10.0022 13.9643C9.81978 13.9643 9.67188 13.8164 9.67188 13.6339C9.67188 13.4515 9.81978 13.3036 10.0022 13.3036" stroke="black" stroke-width="1.5" stroke-linecap="round" stroke-linejoin="round"/>
<path id="Ellipse 1112" d="M10.0039 13.9643C10.1864 13.9643 10.3343 13.8164 10.3343 13.6339C10.3343 13.4515 10.1864 13.3036 10.0039 13.3036" stroke="black" stroke-width="1.5" stroke-linecap="round" stroke-linejoin="round"/>
</g>
</g>
</g>
<defs>
<clipPath id="clip0_47_141835">
<rect width="20" height="20" fill="white"/>
</clipPath>
</defs>
</svg>
