<svg width="20" height="20" viewBox="0 0 20 20" fill="none" xmlns="http://www.w3.org/2000/svg">
<g id="warp-fisheye-14" clip-path="url(#clip0_47_149493)">
<g id="warp-fisheye">
<path id="Vector 849" d="M1.41016 17.2673V2.73158C1.41016 2.00178 2.00178 1.41016 2.73158 1.41016H17.2673C17.9971 1.41016 18.5887 2.00178 18.5887 2.73158V17.2673C18.5887 17.9971 17.9971 18.5887 17.2673 18.5887H2.73158C2.00178 18.5887 1.41016 17.9971 1.41016 17.2673Z" stroke="black" stroke-width="1.5" stroke-linecap="round" stroke-linejoin="round"/>
<path id="Vector" d="M9.99819 4.69727C12.9269 4.69727 15.3011 7.07145 15.3011 10.0001C15.3011 12.9289 12.9269 15.3031 9.99819 15.3031C7.0695 15.3031 4.69531 12.9289 4.69531 10.0001C4.69531 7.07145 7.0695 4.69727 9.99819 4.69727Z" stroke="black" stroke-width="1.5" stroke-linecap="round" stroke-linejoin="round"/>
</g>
</g>
<defs>
<clipPath id="clip0_47_149493">
<rect width="20" height="20" fill="white"/>
</clipPath>
</defs>
</svg>
