<svg width="20" height="20" viewBox="0 0 20 20" fill="none" xmlns="http://www.w3.org/2000/svg">
<g id="warp-twist-4" clip-path="url(#clip0_47_149514)">
<g id="warp-twist">
<path id="Vector 850" d="M1.41016 17.927V2.07087C1.41016 1.70597 1.70597 1.41016 2.07087 1.41016H17.9271C18.2919 1.41016 18.5878 1.70597 18.5878 2.07087V17.927C18.5878 18.2919 18.2919 18.5877 17.9271 18.5877H2.07087C1.70597 18.5877 1.41016 18.2919 1.41016 17.927Z" stroke="black" stroke-width="1.5" stroke-linecap="round" stroke-linejoin="round"/>
<path id="Vector 847" d="M18.4982 9.3841C17.3859 10.4135 14.1287 11.9773 9.99911 9.9968C5.86947 8.01629 2.61235 9.58008 1.5 10.6095" stroke="black" stroke-width="1.5" stroke-linecap="round" stroke-linejoin="round"/>
<path id="Vector 848" d="M9.38285 1.5C10.4122 2.61241 11.9758 5.86962 9.99507 9.99914C8.01433 14.1286 9.57793 17.3859 10.6073 18.4983" stroke="black" stroke-width="1.5" stroke-linecap="round" stroke-linejoin="round"/>
</g>
</g>
<defs>
<clipPath id="clip0_47_149514">
<rect width="20" height="20" fill="white"/>
</clipPath>
</defs>
</svg>
