<svg width="20" height="20" viewBox="0 0 20 20" fill="none" xmlns="http://www.w3.org/2000/svg">
<g id="wave-signal">
<g id="wave-signal--heart-line-beat-square-graph-stats">
<path id="Vector" d="M1.41016 10.106H4.30408C4.42593 10.1046 4.54522 10.0709 4.64972 10.0082C4.7542 9.94548 4.84015 9.85613 4.89873 9.74926L7.2773 4.99212C7.33592 4.87368 7.42938 4.77601 7.54513 4.71224C7.66087 4.64845 7.79336 4.62162 7.9248 4.63533C8.05571 4.64419 8.18067 4.69341 8.28243 4.77625C8.38421 4.85908 8.45777 4.97144 8.49301 5.09783L11.4398 14.9028C11.4785 15.0359 11.558 15.1534 11.667 15.2387C11.7761 15.3241 11.9093 15.373 12.0477 15.3785C12.1773 15.3742 12.3029 15.3319 12.4086 15.2567C12.5144 15.1814 12.5957 15.0767 12.6423 14.9557L14.4527 10.5289C14.5025 10.4047 14.5882 10.2982 14.6988 10.2229C14.8094 10.1476 14.9399 10.1069 15.0737 10.106H18.5887" stroke="black" stroke-width="1.5" stroke-linecap="round" stroke-linejoin="round"/>
</g>
</g>
</svg>
