<svg width="20" height="20" viewBox="0 0 20 20" fill="none" xmlns="http://www.w3.org/2000/svg">
<g id="waving-hand-14">
<g id="waving-hand">
<path id="Ellipse 304" d="M17.987 5.95382C17.9386 5.20652 17.6771 4.52375 17.2656 3.96094" stroke="black" stroke-width="1.5" stroke-linecap="round" stroke-linejoin="round"/>
<path id="Ellipse 305" d="M5.26562 2.81737C5.68115 2.19434 6.24898 1.73379 6.88678 1.45215" stroke="black" stroke-width="1.5" stroke-linecap="round" stroke-linejoin="round"/>
<path id="Vector 1996" d="M4.93584 16.6218L4.4788 16.1018C3.84452 15.38 3.34671 14.549 3.00964 13.6492L2.10138 11.2247C1.87649 10.6243 2.06632 9.94746 2.57061 9.55163C3.32698 8.95791 4.44027 9.23767 4.82613 10.1184L5.59319 11.8693C6.168 12.0233 7.48594 12.6229 8.1592 13.789" stroke="black" stroke-width="1.5" stroke-linecap="round" stroke-linejoin="round"/>
<path id="Vector 1997" d="M5.59375 11.8714L7.51901 4.68628C7.73166 3.89263 8.54743 3.42165 9.34107 3.6343C10.1347 3.84696 10.6057 4.66273 10.393 5.45637L9.23791 9.76745L10.8551 3.73194C11.0678 2.93829 11.8835 2.46731 12.6772 2.67997C13.4708 2.89263 13.9418 3.7084 13.7292 4.50205L11.9579 11.1124L12.9591 7.37609C13.1717 6.58245 13.9875 6.11147 14.7811 6.32412C15.5748 6.53677 16.0457 7.35254 15.8331 8.14619L13.5751 16.5731C13.3937 17.2502 12.9508 17.8274 12.3437 18.178L11.8341 18.4721" stroke="black" stroke-width="1.5" stroke-linecap="round" stroke-linejoin="round"/>
</g>
</g>
</svg>
