<svg width="20" height="20" viewBox="0 0 20 20" fill="none" xmlns="http://www.w3.org/2000/svg">
<g id="waxing-cresent-moon-14">
<g id="waxing-cresent-moon--night-new-moon-crescent-waxing-time-weather">
<path id="Vector" d="M8.67911 9.99944C8.66881 8.39354 8.24062 6.81798 7.43662 5.4278C6.63262 4.03761 5.48055 2.88068 4.09375 2.07087C5.129 1.6424 6.23729 1.41805 7.35768 1.41016C9.6357 1.41016 11.8204 2.3151 13.4312 3.92591C15.042 5.5367 15.9469 7.72142 15.9469 9.99944C15.9469 12.2775 15.042 14.4622 13.4312 16.073C11.8204 17.6838 9.6357 18.5887 7.35768 18.5887C6.23729 18.5808 5.129 18.3564 4.09375 17.928C5.48055 17.1182 6.63262 15.9613 7.43662 14.5711C8.24062 13.1809 8.66881 11.6053 8.67911 9.99944Z" stroke="black" stroke-width="1.5" stroke-linecap="round" stroke-linejoin="round"/>
</g>
</g>
</svg>
