<svg width="21" height="21" viewBox="0 0 21 21" fill="none" xmlns="http://www.w3.org/2000/svg">
<path d="M18.1618 12.5892H11.1975C10.4283 12.5892 9.80469 11.9656 9.80469 11.1964V9.8035C9.80469 9.03425 10.4283 8.41064 11.1975 8.41064H18.1618C18.9311 8.41064 19.5547 9.03424 19.5547 9.8035V11.1964C19.5547 11.9656 18.9311 12.5892 18.1618 12.5892Z" stroke="black" stroke-width="1.5" stroke-linecap="round" stroke-linejoin="round"/>
<path d="M18.1618 5.62498H11.1975C10.4283 5.62498 9.80469 5.00137 9.80469 4.23213V2.83927C9.80469 2.07001 10.4283 1.44641 11.1975 1.44641H18.1618C18.9311 1.44641 19.5547 2.07001 19.5547 2.83927V4.23213C19.5547 5.00137 18.9311 5.62498 18.1618 5.62498Z" stroke="black" stroke-width="1.5" stroke-linecap="round" stroke-linejoin="round"/>
<path d="M18.1618 19.5536H11.1975C10.4283 19.5536 9.80469 18.93 9.80469 18.1607V16.7679C9.80469 15.9986 10.4283 15.375 11.1975 15.375H18.1618C18.9311 15.375 19.5547 15.9986 19.5547 16.7679V18.1607C19.5547 18.93 18.9311 19.5536 18.1618 19.5536Z" stroke="black" stroke-width="1.5" stroke-linecap="round" stroke-linejoin="round"/>
<path d="M2.83984 10.5H9.80413" stroke="black" stroke-width="1.5" stroke-linecap="round" stroke-linejoin="round"/>
<path d="M2.83984 3.53564H9.80413" stroke="black" stroke-width="1.5" stroke-linecap="round" stroke-linejoin="round"/>
<path d="M9.80413 17.4643H4.2327C3.46345 17.4643 2.83984 16.8407 2.83984 16.0714V1.44641" stroke="black" stroke-width="1.5" stroke-linecap="round" stroke-linejoin="round"/>
</svg>
