<svg width="21" height="21" viewBox="0 0 21 21" fill="none" xmlns="http://www.w3.org/2000/svg">
<path d="M18.6053 5.97319L14.6775 7.71426V5.62497C14.6775 5.25556 14.5307 4.90129 14.2695 4.64007C14.0083 4.37887 13.654 4.23212 13.2846 4.23212H2.83817C2.46876 4.23212 2.11448 4.37887 1.85327 4.64007C1.59206 4.90129 1.44531 5.25556 1.44531 5.62497V15.375C1.44531 15.7444 1.59206 16.0987 1.85327 16.3599C2.11448 16.621 2.46876 16.7678 2.83817 16.7678H13.2846C13.654 16.7678 14.0083 16.621 14.2695 16.3599C14.5307 16.0987 14.6775 15.7444 14.6775 15.375V13.2857L18.6053 15.0268C18.7112 15.0676 18.8255 15.0821 18.9382 15.0685C19.0509 15.0552 19.1587 15.0145 19.252 14.9499C19.3453 14.8854 19.4215 14.799 19.4739 14.6983C19.5263 14.5976 19.5533 14.4856 19.5525 14.3721V6.62783C19.5533 6.51433 19.5263 6.40234 19.4739 6.30164C19.4215 6.20093 19.3453 6.11455 19.252 6.05002C19.1587 5.98547 19.0509 5.94475 18.9382 5.93135C18.8255 5.91796 18.7112 5.93232 18.6053 5.97319Z" stroke="black" stroke-width="1.5" stroke-linecap="round" stroke-linejoin="round"/>
</svg>
