<svg width="21" height="21" viewBox="0 0 21 21" fill="none" xmlns="http://www.w3.org/2000/svg">
<g clip-path="url(#clip0_146_402172)">
<path d="M19.5525 19.5536L1.44531 1.44641" stroke="black" stroke-width="1.5" stroke-linecap="round" stroke-linejoin="round"/>
<path d="M4.23103 4.23212H13.2846C13.654 4.23212 14.0083 4.37887 14.2695 4.64007C14.5307 4.90129 14.6775 5.25556 14.6775 5.62497V7.71426L18.6053 5.97319C18.7112 5.93232 18.8255 5.91796 18.9382 5.93135C19.0509 5.94475 19.1587 5.98547 19.252 6.05002C19.3453 6.11455 19.4215 6.20093 19.4739 6.30164C19.5263 6.40234 19.5533 6.51433 19.5525 6.62783V14.3721C19.5533 14.4856 19.5263 14.5976 19.4739 14.6983C19.4215 14.799 19.3453 14.8854 19.252 14.9499C19.1587 15.0145 19.0509 15.0552 18.9382 15.0685C18.8255 15.0821 18.7112 15.0676 18.6053 15.0268L14.6775 13.2857V14.6785M1.44531 5.62497V15.375C1.44531 15.7444 1.59206 16.0987 1.85327 16.3599C2.11448 16.621 2.46876 16.7678 2.83817 16.7678H12.5882" stroke="black" stroke-width="1.5" stroke-linecap="round" stroke-linejoin="round"/>
</g>
<defs>
<clipPath id="clip0_146_402172">
<rect width="21" height="21" fill="white"/>
</clipPath>
</defs>
</svg>
