<svg width="21" height="21" viewBox="0 0 21 21" fill="none" xmlns="http://www.w3.org/2000/svg">
<path d="M15.2679 6.32144L18.4993 4.58037C18.6052 4.5395 18.7195 4.52514 18.8322 4.53852C18.9449 4.55192 19.0526 4.59265 19.146 4.6572C19.2393 4.72173 19.3155 4.80811 19.3679 4.90882C19.4203 5.00953 19.4473 5.12151 19.4465 5.23501V11.5864C19.4473 11.6999 19.4203 11.8119 19.3679 11.9126C19.3155 12.0133 19.2393 12.0997 19.146 12.1643C19.0526 12.2288 18.9449 12.2695 18.8322 12.2829C18.7195 12.2963 18.6052 12.2819 18.4993 12.2411L15.2679 10.5V12.5893C15.2679 12.9587 15.1211 13.313 14.8599 13.5742C14.5987 13.8354 14.2444 13.9822 13.875 13.9822H5.51786C4.74861 13.9822 4.125 13.3585 4.125 12.5893V4.23215C4.125 3.86274 4.27175 3.50846 4.53297 3.24725C4.79417 2.98605 5.14846 2.83929 5.51786 2.83929H13.875C14.2444 2.83929 14.5987 2.98605 14.8599 3.24725C15.1211 3.50846 15.2679 3.86274 15.2679 4.23215V6.32144Z" stroke="black" stroke-width="1.5" stroke-linecap="round" stroke-linejoin="round"/>
<path d="M1.79353 18.1607C1.60121 18.1607 1.44531 18.0049 1.44531 17.8125C1.44531 17.6202 1.60121 17.4643 1.79353 17.4643" stroke="black" stroke-width="1.5" stroke-linecap="round" stroke-linejoin="round"/>
<path d="M1.79297 18.1607C1.98528 18.1607 2.14118 18.0049 2.14118 17.8125C2.14118 17.6202 1.98528 17.4643 1.79297 17.4643" stroke="black" stroke-width="1.5" stroke-linecap="round" stroke-linejoin="round"/>
<path d="M5.274 18.1607C5.08168 18.1607 4.92578 18.0049 4.92578 17.8125C4.92578 17.6202 5.08168 17.4643 5.274 17.4643" stroke="black" stroke-width="1.5" stroke-linecap="round" stroke-linejoin="round"/>
<path d="M5.27344 18.1607C5.46575 18.1607 5.62165 18.0049 5.62165 17.8125C5.62165 17.6202 5.46575 17.4643 5.27344 17.4643" stroke="black" stroke-width="1.5" stroke-linecap="round" stroke-linejoin="round"/>
<path d="M8.75837 18.1607C8.56606 18.1607 8.41016 18.0049 8.41016 17.8125C8.41016 17.6202 8.56606 17.4643 8.75837 17.4643" stroke="black" stroke-width="1.5" stroke-linecap="round" stroke-linejoin="round"/>
<path d="M8.75781 18.1607C8.95012 18.1607 9.10603 18.0049 9.10603 17.8125C9.10603 17.6202 8.95012 17.4643 8.75781 17.4643" stroke="black" stroke-width="1.5" stroke-linecap="round" stroke-linejoin="round"/>
</svg>
