<svg width="21" height="21" viewBox="0 0 21 21" fill="none" xmlns="http://www.w3.org/2000/svg">
<path d="M13.0393 5.77112C13.0393 3.99865 11.6024 2.56177 9.82996 2.56177C8.05748 2.56177 6.62061 3.99865 6.62061 5.77112C6.62061 6.97307 7.28135 8.02071 8.25943 8.57059L5.62109 13.9419" stroke="black" stroke-width="1.5" stroke-linecap="round" stroke-linejoin="round"/>
<path d="M13.7615 17.3273C15.2966 18.2136 17.2594 17.6876 18.1456 16.1525C19.0318 14.6176 18.5059 12.6547 16.9708 11.7685C15.9299 11.1675 14.6924 11.2159 13.7271 11.788L10.3945 6.8175" stroke="black" stroke-width="1.5" stroke-linecap="round" stroke-linejoin="round"/>
<path d="M3.79755 11.7136C2.20811 12.4981 1.5555 14.4225 2.33993 16.0119C3.12434 17.6014 5.04876 18.254 6.6382 17.4695C7.71605 16.9376 8.36307 15.8815 8.42333 14.7609L14.4076 14.7498" stroke="black" stroke-width="1.5" stroke-linecap="round" stroke-linejoin="round"/>
</svg>
