<svg width="21" height="21" viewBox="0 0 21 21" fill="none" xmlns="http://www.w3.org/2000/svg">
<path d="M17.4621 13.9821C18.2313 13.9821 18.8549 14.6057 18.8549 15.3749V17.4642C18.8549 18.2335 18.2313 18.8571 17.4621 18.8571H3.53348C2.76422 18.8571 2.14062 18.2335 2.14062 17.4642V15.3749C2.14062 14.6057 2.76424 13.9821 3.53348 13.9821H17.4621Z" stroke="black" stroke-width="1.5" stroke-linecap="round" stroke-linejoin="round"/>
<path d="M10.4993 2.14282C11.2685 2.14282 11.8921 2.76643 11.8921 3.53568V9.80354C11.8921 10.5728 11.2685 11.1964 10.4993 11.1964H3.43973C2.67048 11.1964 2.04688 10.5728 2.04688 9.80354L2.04688 3.53568C2.04688 2.76642 2.67048 2.14282 3.43973 2.14282H10.4993Z" stroke="black" stroke-width="1.5" stroke-linecap="round" stroke-linejoin="round"/>
<path d="M18.1182 2.14282C18.5029 2.14282 18.8147 2.45463 18.8147 2.83925V4.58032C18.8147 4.96495 18.5029 5.27675 18.1182 5.27675H15.3761C14.9915 5.27675 14.6797 4.96495 14.6797 4.58032V2.83925C14.6797 2.45463 14.9915 2.14282 15.3761 2.14282H18.1182Z" stroke="black" stroke-width="1.5" stroke-linecap="round" stroke-linejoin="round"/>
<path d="M18.1182 8.0625C18.5029 8.0625 18.8147 8.3743 18.8147 8.75893V10.5C18.8147 10.8846 18.5029 11.1964 18.1182 11.1964H15.3761C14.9915 11.1964 14.6797 10.8846 14.6797 10.5V8.75893C14.6797 8.3743 14.9915 8.0625 15.3761 8.0625H18.1182Z" stroke="black" stroke-width="1.5" stroke-linecap="round" stroke-linejoin="round"/>
</svg>
