<svg width="21" height="21" viewBox="0 0 21 21" fill="none" xmlns="http://www.w3.org/2000/svg">
<g clip-path="url(#clip0_146_402081)">
<path d="M1.44531 1.44641L19.5525 19.5536" stroke="black" stroke-width="1.5" stroke-linecap="round" stroke-linejoin="round"/>
<path d="M10.5004 19.2053C11.5082 19.2053 12.3251 18.3884 12.3251 17.3807C12.3251 16.3729 11.5082 15.556 10.5004 15.556C9.49271 15.556 8.67578 16.3729 8.67578 17.3807C8.67578 18.3884 9.49271 19.2053 10.5004 19.2053Z" stroke="black" stroke-width="1.5" stroke-linecap="round" stroke-linejoin="round"/>
<path d="M7.05859 13.2856C7.51151 12.8206 8.05298 12.4511 8.65103 12.1987" stroke="black" stroke-width="1.5" stroke-linecap="round" stroke-linejoin="round"/>
<path d="M4.03516 10.9317C4.883 10.0789 5.78609 9.55872 5.78609 9.55872" stroke="black" stroke-width="1.5" stroke-linecap="round" stroke-linejoin="round"/>
<path d="M8.48047 8.47058C8.48047 8.47058 9.30361 8.24084 10.5062 8.24084C11.7087 8.24084 12.8994 8.47859 14.0097 8.94039C15.12 9.40221 16.1281 10.079 16.976 10.9318" stroke="black" stroke-width="1.5" stroke-linecap="round" stroke-linejoin="round"/>
<path d="M5.59766 5.56455C7.1511 4.92086 8.81614 4.58954 10.4977 4.58954C12.1792 4.58954 13.8442 4.92086 15.3978 5.56455C16.9511 6.20825 18.3626 7.1517 19.5513 8.34103" stroke="black" stroke-width="1.5" stroke-linecap="round" stroke-linejoin="round"/>
<path d="M1.44531 8.34098C1.94755 7.83848 2.46476 7.42583 3.0838 6.96155" stroke="black" stroke-width="1.5" stroke-linecap="round" stroke-linejoin="round"/>
</g>
<defs>
<clipPath id="clip0_146_402081">
<rect width="21" height="21" fill="white"/>
</clipPath>
</defs>
</svg>
