<svg width="21" height="21" viewBox="0 0 21 21" fill="none" xmlns="http://www.w3.org/2000/svg">
<g clip-path="url(#clip0_146_402103)">
<path d="M1.44531 16.7679V13.9822C1.44531 13.2129 2.06892 12.5893 2.83817 12.5893H18.1596C18.9289 12.5893 19.5525 13.2129 19.5525 13.9822V16.7679C19.5525 17.5371 18.9289 18.1607 18.1596 18.1607H2.83817C2.06892 18.1607 1.44531 17.5371 1.44531 16.7679Z" stroke="black" stroke-width="1.5" stroke-linecap="round" stroke-linejoin="round"/>
<path d="M4.92578 18.1607V19.5536" stroke="black" stroke-width="1.5" stroke-linecap="round" stroke-linejoin="round"/>
<path d="M4.92578 15.375H5.62221" stroke="black" stroke-width="1.5" stroke-linecap="round" stroke-linejoin="round"/>
<path d="M8.41016 15.375H9.10658" stroke="black" stroke-width="1.5" stroke-linecap="round" stroke-linejoin="round"/>
<path d="M2.14062 4.92859L4.22991 12.5893" stroke="black" stroke-width="1.5" stroke-linecap="round" stroke-linejoin="round"/>
<path d="M18.8549 4.92859L16.7656 12.5893" stroke="black" stroke-width="1.5" stroke-linecap="round" stroke-linejoin="round"/>
<path d="M5.69141 3.53566C8.33783 0.889235 12.6557 0.889235 15.3021 3.53566" stroke="black" stroke-width="1.5" stroke-linecap="round" stroke-linejoin="round"/>
<path d="M8.20703 5.67064C9.40298 4.47469 11.4532 4.47469 12.6491 5.67064" stroke="black" stroke-width="1.5" stroke-linecap="round" stroke-linejoin="round"/>
<path d="M16.0703 18.1607V19.5536" stroke="black" stroke-width="1.5" stroke-linecap="round" stroke-linejoin="round"/>
<path d="M10.4302 8.92928C10.2379 8.92928 10.082 8.77339 10.082 8.58106C10.082 8.38875 10.2379 8.23285 10.4302 8.23285" stroke="black" stroke-width="1.5" stroke-linecap="round" stroke-linejoin="round"/>
<path d="M10.4297 8.92928C10.622 8.92928 10.7779 8.77339 10.7779 8.58106C10.7779 8.38875 10.622 8.23285 10.4297 8.23285" stroke="black" stroke-width="1.5" stroke-linecap="round" stroke-linejoin="round"/>
</g>
<defs>
<clipPath id="clip0_146_402103">
<rect width="21" height="21" fill="white"/>
</clipPath>
</defs>
</svg>
