<svg width="21" height="21" viewBox="0 0 21 21" fill="none" xmlns="http://www.w3.org/2000/svg">
<g clip-path="url(#clip0_146_402073)">
<path d="M7.96556 13.4762C7.16826 12.9199 6.51065 12.1864 6.04425 11.3334C5.57787 10.4803 5.31537 9.53088 5.27734 8.5594C5.30898 7.58078 5.56842 6.62301 6.03509 5.76224C6.50175 4.90145 7.16274 4.16139 7.96556 3.60083" stroke="black" stroke-width="1.5" stroke-linecap="round" stroke-linejoin="round"/>
<path d="M5.20603 15.4819C4.07744 14.6968 3.14911 13.6575 2.49587 12.4478C1.84265 11.2382 1.48279 9.89191 1.44531 8.51762C1.49515 7.15907 1.85945 5.8306 2.50959 4.63667C3.15972 3.44274 4.07797 2.4159 5.1921 1.6369" stroke="black" stroke-width="1.5" stroke-linecap="round" stroke-linejoin="round"/>
<path d="M13.0352 13.4762C13.8361 12.917 14.496 12.1792 14.9626 11.321C15.4292 10.4628 15.6896 9.5078 15.7234 8.53154C15.6874 7.55769 15.426 6.60546 14.9595 5.74984C14.493 4.89422 13.8343 4.15859 13.0352 3.60083" stroke="black" stroke-width="1.5" stroke-linecap="round" stroke-linejoin="round"/>
<path d="M15.793 15.4819C16.9216 14.6968 17.8498 13.6575 18.5031 12.4479C19.1563 11.2382 19.5162 9.89192 19.5537 8.51763C19.5166 7.14479 19.1585 5.7997 18.5078 4.59027C17.8572 3.38084 16.932 2.34072 15.8069 1.55334" stroke="black" stroke-width="1.5" stroke-linecap="round" stroke-linejoin="round"/>
<path d="M10.4994 10.6905C11.6533 10.6905 12.5887 9.75507 12.5887 8.60119C12.5887 7.4473 11.6533 6.5119 10.4994 6.5119C9.34556 6.5119 8.41016 7.4473 8.41016 8.60119C8.41016 9.75507 9.34556 10.6905 10.4994 10.6905Z" stroke="black" stroke-width="1.5" stroke-linecap="round" stroke-linejoin="round"/>
<path d="M10.5 10.6905V19.548" stroke="black" stroke-width="1.5" stroke-linecap="round" stroke-linejoin="round"/>
</g>
<defs>
<clipPath id="clip0_146_402073">
<rect width="21" height="21" fill="white"/>
</clipPath>
</defs>
</svg>
