<svg width="21" height="21" viewBox="0 0 21 21" fill="none" xmlns="http://www.w3.org/2000/svg">
<path d="M7.02065 13.9821H13.9849C14.4028 13.9821 14.6814 14.2607 14.6814 14.6785V18.8571C14.6814 19.275 14.4028 19.5535 13.9849 19.5535H7.02065C6.60279 19.5535 6.32422 19.275 6.32422 18.8571V14.6785C6.32422 14.2607 6.60279 13.9821 7.02065 13.9821Z" stroke="black" stroke-width="1.5" stroke-linecap="round" stroke-linejoin="round"/>
<path d="M7.71484 13.9821V12.5892C7.71484 11.0571 8.96842 9.80353 10.5006 9.80353C11.3303 9.80353 12.0784 10.1712 12.5898 10.7516" stroke="black" stroke-width="1.5" stroke-linecap="round" stroke-linejoin="round"/>
<path d="M5.05859 2.80705C5.73891 2.35351 7.77986 1.44641 10.5011 1.44641C13.2224 1.44641 15.2633 2.35351 15.9437 2.80705" stroke="black" stroke-width="1.5" stroke-linecap="round" stroke-linejoin="round"/>
<path d="M7.78125 6.20859C8.23481 5.9818 9.41403 5.52826 10.5025 5.52826C11.591 5.52826 12.7703 5.9818 13.2238 6.20859" stroke="black" stroke-width="1.5" stroke-linecap="round" stroke-linejoin="round"/>
</svg>
