<svg width="21" height="21" viewBox="0 0 21 21" fill="none" xmlns="http://www.w3.org/2000/svg">
<path d="M8.31321 15.4725C7.51011 14.909 6.84914 14.1664 6.38258 13.3033C5.91601 12.4403 5.65665 11.4805 5.625 10.5C5.65665 9.51748 5.91591 8.55574 6.38239 7.69046C6.84886 6.82519 7.50981 6.08 8.31321 5.51355" stroke="black" stroke-width="1.5" stroke-linecap="round" stroke-linejoin="round"/>
<path d="M5.20603 17.4643C4.08136 16.6752 3.15596 15.6352 2.50319 14.4263C1.85042 13.2174 1.48822 11.8732 1.44531 10.5C1.48877 9.12847 1.84975 7.78573 2.49987 6.57732C3.15 5.3689 4.07156 4.32775 5.1921 3.53571" stroke="black" stroke-width="1.5" stroke-linecap="round" stroke-linejoin="round"/>
<path d="M12.6875 15.4725C13.4906 14.909 14.1516 14.1664 14.6181 13.3033C15.0847 12.4403 15.3441 11.4805 15.3757 10.5C15.3441 9.51748 15.0847 8.55574 14.6183 7.69046C14.1518 6.82519 13.4909 6.08 12.6875 5.51355" stroke="black" stroke-width="1.5" stroke-linecap="round" stroke-linejoin="round"/>
<path d="M15.793 17.4643C16.9176 16.6752 17.843 15.6352 18.4958 14.4263C19.1485 13.2174 19.5108 11.8732 19.5537 10.5C19.5102 9.12847 19.1492 7.78573 18.4992 6.57732C17.849 5.3689 16.9275 4.32775 15.8069 3.53571" stroke="black" stroke-width="1.5" stroke-linecap="round" stroke-linejoin="round"/>
<path d="M10.4972 11.1964C10.8818 11.1964 11.1936 10.8846 11.1936 10.5C11.1936 10.1154 10.8818 9.80359 10.4972 9.80359C10.1126 9.80359 9.80078 10.1154 9.80078 10.5C9.80078 10.8846 10.1126 11.1964 10.4972 11.1964Z" stroke="black" stroke-width="1.5" stroke-linecap="round" stroke-linejoin="round"/>
</svg>
