<svg width="20" height="20" viewBox="0 0 20 20" fill="none" xmlns="http://www.w3.org/2000/svg">
<g id="wind-flow-2-25">
<g id="wind-flow-2--wind-flow-weather">
<path id="Vector" d="M1.41016 5.37472C3.06548 4.58387 4.86312 4.13445 6.69587 4.05329C9.33873 4.05329 10.6602 6.03544 13.303 6.03544C15.1357 5.95427 16.9334 5.50486 18.5887 4.71401L15.9459 3.39258" stroke="black" stroke-width="1.5" stroke-linecap="round" stroke-linejoin="round"/>
<path id="Vector_2" d="M1.41016 10.6599C3.06548 9.86903 4.86312 9.41961 6.69587 9.33845C9.33873 9.33845 10.6602 11.3206 13.303 11.3206C15.1357 11.2394 16.9334 10.79 18.5887 9.99916L15.9459 8.67773" stroke="black" stroke-width="1.5" stroke-linecap="round" stroke-linejoin="round"/>
<path id="Vector_3" d="M1.41016 15.947C3.06548 15.1561 4.86312 14.7067 6.69587 14.6256C9.33873 14.6256 10.6602 16.6077 13.303 16.6077C15.1357 16.5266 16.9334 16.0771 18.5887 15.2863L15.9459 13.9648" stroke="black" stroke-width="1.5" stroke-linecap="round" stroke-linejoin="round"/>
</g>
</g>
</svg>
