<svg width="20" height="20" viewBox="0 0 20 20" fill="none" xmlns="http://www.w3.org/2000/svg">
<g id="wind-flow-1-3" clip-path="url(#clip0_47_149730)">
<g id="wind-flow-1--wind-high-overcast-gust-weather-meteorology-gale">
<path id="Vector" d="M10.6602 1.41016C11.2735 1.41016 11.8617 1.65379 12.2953 2.08747C12.729 2.52115 12.9727 3.10934 12.9727 3.72266C12.9727 4.33597 12.729 4.92417 12.2953 5.35784C11.8617 5.79152 11.2735 6.03516 10.6602 6.03516H1.41016" stroke="black" stroke-width="1.5" stroke-linecap="round" stroke-linejoin="round"/>
<path id="Vector_2" d="M16.2746 14.625C16.8878 14.625 17.476 14.3813 17.9097 13.9477C18.3434 13.514 18.5871 12.9258 18.5871 12.3125C18.5871 11.6992 18.3434 11.111 17.9097 10.6773C17.476 10.2436 16.8878 10 16.2746 10H3.39062" stroke="black" stroke-width="1.5" stroke-linecap="round" stroke-linejoin="round"/>
<path id="Vector_3" d="M10.3287 18.5879C10.942 18.5879 11.5302 18.3442 11.9639 17.9105C12.3976 17.4768 12.6412 16.8887 12.6412 16.2754C12.6412 15.6621 12.3976 15.0739 11.9639 14.6403C11.5302 14.2066 10.942 13.9629 10.3287 13.9629H2.73047" stroke="black" stroke-width="1.5" stroke-linecap="round" stroke-linejoin="round"/>
</g>
</g>
<defs>
<clipPath id="clip0_47_149730">
<rect width="20" height="20" fill="white"/>
</clipPath>
</defs>
</svg>
