<svg width="21" height="21" viewBox="0 0 21 21" fill="none" xmlns="http://www.w3.org/2000/svg">
<g clip-path="url(#clip0_146_399698)">
<path d="M10.4989 19.5536C15.4991 19.5536 19.5525 15.5002 19.5525 10.5C19.5525 5.49983 15.4991 1.44641 10.4989 1.44641C5.49874 1.44641 1.44531 5.49983 1.44531 10.5C1.44531 15.5002 5.49874 19.5536 10.4989 19.5536Z" stroke="black" stroke-width="1.5" stroke-linecap="round" stroke-linejoin="round"/>
<path d="M4.92578 6.66968L7.01546 14.506C7.09736 14.8132 7.37554 15.0268 7.69342 15.0268C8.02788 15.0268 8.31586 14.7907 8.38145 14.4628L9.8308 7.216C9.89434 6.89834 10.1733 6.66968 10.4972 6.66968C10.8212 6.66968 11.1001 6.89834 11.1636 7.216L12.613 14.4628C12.6786 14.7907 12.9665 15.0268 13.301 15.0268C13.6189 15.0268 13.8971 14.8132 13.979 14.506L16.0686 6.66968" stroke="black" stroke-width="1.5" stroke-linecap="round" stroke-linejoin="round"/>
<path d="M4.57812 10.8481H16.4174" stroke="black" stroke-width="1.5" stroke-linecap="round" stroke-linejoin="round"/>
</g>
<defs>
<clipPath id="clip0_146_399698">
<rect width="21" height="21" fill="white"/>
</clipPath>
</defs>
</svg>
