<svg width="20" height="20" viewBox="0 0 20 20" fill="none" xmlns="http://www.w3.org/2000/svg">
<g id="word-wrap-around-object-7" clip-path="url(#clip0_47_148450)">
<g id="word-wrap-around-object">
<path id="Vector 1067" d="M1.41016 1.41113H18.5888" stroke="black" stroke-width="1.5" stroke-linecap="round" stroke-linejoin="round"/>
<path id="Vector 1068" d="M1.41016 5.70605H3.97769" stroke="black" stroke-width="1.5" stroke-linecap="round" stroke-linejoin="round"/>
<path id="Vector 1070" d="M1.41016 14.2949H3.97769" stroke="black" stroke-width="1.5" stroke-linecap="round" stroke-linejoin="round"/>
<path id="Vector 1072" d="M1.41016 10H2.84171" stroke="black" stroke-width="1.5" stroke-linecap="round" stroke-linejoin="round"/>
<path id="Vector 1074" d="M1.41016 18.5898H18.5888" stroke="black" stroke-width="1.5" stroke-linecap="round" stroke-linejoin="round"/>
<path id="Vector 1075" d="M18.5871 5.70605H16.0195" stroke="black" stroke-width="1.5" stroke-linecap="round" stroke-linejoin="round"/>
<path id="Vector 1076" d="M18.5871 14.2949H16.0195" stroke="black" stroke-width="1.5" stroke-linecap="round" stroke-linejoin="round"/>
<path id="Vector 1077" d="M18.5878 10H17.1562" stroke="black" stroke-width="1.5" stroke-linecap="round" stroke-linejoin="round"/>
<path id="Ellipse 50" d="M6.15234 10.0426C6.15234 10.6871 6.25194 11.3252 6.44546 11.9207C6.63897 12.5161 6.92261 13.0572 7.28017 13.5129C7.63774 13.9686 8.06223 14.3301 8.52941 14.5768C8.99659 14.8234 9.49731 14.9503 10.003 14.9503C10.5087 14.9503 11.0094 14.8234 11.4766 14.5768C11.9437 14.3301 12.3682 13.9686 12.7258 13.5129C13.0834 13.0572 13.367 12.5161 13.5605 11.9207C13.754 11.3252 13.8536 10.6871 13.8536 10.0426C13.8536 9.39805 13.754 8.75986 13.5605 8.16442C13.367 7.56898 13.0834 7.02795 12.7258 6.57222C12.3682 6.11649 11.9437 5.75499 11.4766 5.50835C11.0094 5.26171 10.5087 5.13477 10.003 5.13477C9.49731 5.13477 8.99659 5.26171 8.52941 5.50835C8.06223 5.75499 7.63774 6.11649 7.28017 6.57222C6.92261 7.02795 6.63897 7.56898 6.44546 8.16442C6.25194 8.75986 6.15234 9.39805 6.15234 10.0426Z" stroke="black" stroke-width="1.5" stroke-linecap="round" stroke-linejoin="round"/>
</g>
</g>
<defs>
<clipPath id="clip0_47_148450">
<rect width="20" height="20" fill="white"/>
</clipPath>
</defs>
</svg>
