<svg width="20" height="20" viewBox="0 0 20 20" fill="none" xmlns="http://www.w3.org/2000/svg">
<g id="wrench-square-23" clip-path="url(#clip0_47_147419)">
<g id="wrench-square--crescent-tool-construction-tools-wrench-setting-edit-adjust">
<path id="Vector 1945" d="M1.41016 2.73256V17.2683C1.41016 17.9981 2.00178 18.5897 2.73158 18.5897H17.2673C17.9971 18.5897 18.5887 17.9981 18.5887 17.2683V2.73256C18.5887 2.00276 17.9971 1.41113 17.2673 1.41113H2.73158C2.00178 1.41113 1.41016 2.00276 1.41016 2.73256Z" stroke="black" stroke-width="1.5" stroke-linecap="round" stroke-linejoin="round"/>
<path id="Union" d="M8.17333 18.5899V13.9191C7.34971 13.6128 6.61983 13.0952 6.05774 12.4171C5.45769 11.6931 5.07297 10.8153 4.94735 9.88343C4.82174 8.95157 4.9603 8.00317 5.34725 7.1462C5.7342 6.28921 6.35399 5.55811 7.13606 5.03609C7.26571 4.96649 7.40907 4.92623 7.55601 4.91815C7.70294 4.91008 7.84986 4.93439 7.98635 4.98938V8.67921C7.98635 9.40903 8.57798 10.0006 9.30778 10.0006H10.6641C11.3939 10.0006 11.9855 9.40903 11.9855 8.67921V4.87725C12.1225 4.84444 12.2648 4.84079 12.4032 4.86655C12.5417 4.8923 12.6732 4.94689 12.7891 5.02675C13.5603 5.54888 14.1715 6.27466 14.5549 7.1234C14.9382 7.97216 15.0786 8.9106 14.9604 9.83437C14.8423 10.7581 14.4703 11.631 13.8857 12.356C13.357 13.0116 12.6733 13.523 11.8981 13.8451L11.8432 18.5899" stroke="black" stroke-width="1.5" stroke-linecap="round" stroke-linejoin="round"/>
</g>
</g>
<defs>
<clipPath id="clip0_47_147419">
<rect width="20" height="20" fill="white"/>
</clipPath>
</defs>
</svg>
