<svg width="20" height="20" viewBox="0 0 20 20" fill="none" xmlns="http://www.w3.org/2000/svg">
<g id="wrench-hand-21">
<g id="wrench-hand--crescent-tool-construction-tools-wrench-setting-edit-adjust">
<path id="Vector" d="M9.44831 7.89326C9.18024 7.52094 8.9751 7.10423 8.84371 6.65945C8.61209 5.87538 8.62024 5.03996 8.8671 4.26054C9.11396 3.48114 9.58826 2.79336 10.229 2.2856C10.8698 1.77784 11.6478 1.4733 12.463 1.41113L11.7558 4.05065C11.662 4.40067 11.7111 4.77361 11.8923 5.08743C12.0734 5.40125 12.3719 5.63024 12.7219 5.72404C13.0719 5.81782 13.4449 5.76872 13.7587 5.58753C14.0725 5.40635 14.3015 5.10792 14.3953 4.7579L15.1025 2.11839C15.7774 2.57983 16.299 3.23256 16.6 3.99268C16.901 4.7528 16.9679 5.58559 16.792 6.38401C16.6161 7.18243 16.2054 7.91 15.6127 8.47322C15.0202 9.03644 14.2727 9.40955 13.4663 9.54464L12.987 11.3334" stroke="black" stroke-width="1.5" stroke-linecap="round" stroke-linejoin="round"/>
<path id="Vector 1518" d="M2.46875 13.0439L4.58014 11.8117L7.11125 8.15626C7.53326 7.53735 8.34288 7.30933 9.02972 7.61597C9.76265 7.94318 10.1215 8.77225 9.85601 9.52485L8.92542 11.3216H13.7333C15.2681 11.3216 16.4358 12.689 16.1835 14.1911L15.8953 16.5295C15.6958 17.7179 14.6594 18.5888 13.4452 18.5888H2.46875" stroke="black" stroke-width="1.5" stroke-linecap="round" stroke-linejoin="round"/>
</g>
</g>
</svg>
