<svg width="20" height="20" viewBox="0 0 20 20" fill="none" xmlns="http://www.w3.org/2000/svg">
<g id="zoom-document-16" clip-path="url(#clip0_47_147432)">
<g id="zoom-document--zoom-magnifier-square-area">
<path id="Vector 2125" d="M6.69587 15.9468H2.73158C2.00178 15.9468 1.41016 15.3552 1.41016 14.6254V2.73256C1.41016 2.00276 2.00178 1.41113 2.73158 1.41113H13.303C14.0328 1.41113 14.6244 2.00276 14.6244 2.73256V7.35756" stroke="black" stroke-width="1.5" stroke-linecap="round" stroke-linejoin="round"/>
<path id="Vector 2126" d="M5.375 5.375H9.33929" stroke="black" stroke-width="1.5" stroke-linecap="round" stroke-linejoin="round"/>
<path id="Vector 2127" d="M5.375 8.67871H8.01786" stroke="black" stroke-width="1.5" stroke-linecap="round" stroke-linejoin="round"/>
<path id="vector" d="M13.3041 17.2684C15.4936 17.2684 17.2684 15.4936 17.2684 13.3041C17.2684 11.1147 15.4936 9.33984 13.3041 9.33984C11.1147 9.33984 9.33984 11.1147 9.33984 13.3041C9.33984 15.4936 11.1147 17.2684 13.3041 17.2684Z" stroke="black" stroke-width="1.5" stroke-linecap="round" stroke-linejoin="round"/>
<path id="vector_2" d="M18.5898 18.5898L16.2773 16.2773" stroke="black" stroke-width="1.5" stroke-linecap="round" stroke-linejoin="round"/>
</g>
</g>
<defs>
<clipPath id="clip0_47_147432">
<rect width="20" height="20" fill="white"/>
</clipPath>
</defs>
</svg>
