<svg width="20" height="20" viewBox="0 0 20 20" fill="none" xmlns="http://www.w3.org/2000/svg">
<g id="zoom-in-17">
<g id="zoom-in">
<path id="Vector 107" d="M8.20627 18.09L4.84206 15.5147C4.30939 15.1069 4.17432 14.3608 4.5302 13.7922C4.8289 13.3149 5.40083 13.0841 5.94715 13.2203L8.47249 13.8501L6.46805 6.86808C6.22491 6.02118 6.71437 5.13752 7.56127 4.89438C8.40817 4.65125 9.29183 5.14071 9.53496 5.98761L11.0641 11.3139L13.2777 10.6073C15.1294 10.0162 17.099 11.095 17.5978 12.9737L18.322 15.7006" stroke="black" stroke-width="1.5" stroke-linecap="round" stroke-linejoin="round"/>
<path id="Vector 2508" d="M1.41016 2.73207L2.73158 1.41064L4.05301 2.73207" stroke="black" stroke-width="1.5" stroke-linecap="round" stroke-linejoin="round"/>
<path id="Vector 2509" d="M1.41016 9.33936L2.73158 10.6608L4.05301 9.33936" stroke="black" stroke-width="1.5" stroke-linecap="round" stroke-linejoin="round"/>
<path id="Vector 2510" d="M2.73047 7.35693V10.6605" stroke="black" stroke-width="1.5" stroke-linecap="round" stroke-linejoin="round"/>
<path id="Vector 2607" d="M2.73047 1.41064V4.71422" stroke="black" stroke-width="1.5" stroke-linecap="round"/>
</g>
</g>
</svg>
