<svg xmlns="http://www.w3.org/2000/svg" width="33" height="17" viewBox="0 0 33 17" fill="none">
    <path fill-rule="evenodd" clip-rule="evenodd" d="M32.588 14.719C32.5785 14.5911 32.5796 14.5586 32.5561 14.432C32.5031 14.1473 32.3867 13.8736 32.2156 13.632C32.1292 13.5099 32.0286 13.4032 31.9213 13.2967L18.2369 0.617279C18.1358 0.52979 18.1127 0.505382 18.0022 0.427721C17.8782 0.340549 17.7444 0.265212 17.6037 0.203188C16.9889 -0.0677295 16.2594 -0.0677295 15.6447 0.203188C15.5039 0.265212 15.3702 0.340549 15.2461 0.427721C15.1357 0.505382 15.1126 0.52979 15.0115 0.617279L1.32715 13.2967C1.23273 13.3905 1.20627 13.4119 1.12257 13.5142C0.90259 13.7828 0.754115 14.0998 0.692193 14.432C0.648175 14.6692 0.648175 14.913 0.692193 15.1502C0.727545 15.3398 0.790949 15.5248 0.880125 15.6987C1.21893 16.3588 1.92173 16.8185 2.70653 16.8933C3.01671 16.9228 3.33259 16.8926 3.62977 16.8053C3.87734 16.7325 4.11101 16.6203 4.31787 16.475C4.42837 16.3973 4.4514 16.3729 4.55255 16.2854L16.6242 5.10021L28.6959 16.2854L28.8097 16.3839C28.9169 16.4647 28.9419 16.4877 29.0577 16.5581C29.2749 16.6901 29.5163 16.7873 29.7685 16.8442C29.9704 16.8898 30.1788 16.9096 30.3864 16.9031C31.1749 16.8782 31.9099 16.464 32.2966 15.8268C32.4239 15.6171 32.512 15.3873 32.5561 15.1502C32.5796 15.0236 32.5785 14.991 32.588 14.8632C32.588 14.8151 32.588 14.767 32.588 14.719Z" fill="white"/>
</svg>