<svg width="23" height="12" viewBox="0 0 23 12" fill="none" xmlns="http://www.w3.org/2000/svg">
<path id="Shape" fill-rule="evenodd" clip-rule="evenodd" d="M0.744141 1.78392C0.750662 1.87202 0.749876 1.89444 0.766062 1.98166C0.802599 2.1778 0.882824 2.36644 1.00069 2.53287C1.06025 2.61703 1.12955 2.69049 1.20349 2.76388L10.6325 11.5005C10.7022 11.5607 10.7181 11.5776 10.7942 11.6311C10.8797 11.6911 10.9718 11.743 11.0688 11.7858C11.4924 11.9724 11.995 11.9724 12.4186 11.7858C12.5156 11.743 12.6078 11.6911 12.6933 11.6311C12.7693 11.5776 12.7853 11.5607 12.8549 11.5005L22.2839 2.76388C22.3489 2.6993 22.3672 2.68452 22.4249 2.61404C22.5764 2.42897 22.6787 2.21056 22.7214 1.98166C22.7517 1.81821 22.7517 1.65025 22.7214 1.48681C22.697 1.35612 22.6533 1.22864 22.5919 1.10888C22.3585 0.653993 21.8742 0.337292 21.3334 0.285746C21.1197 0.265433 20.9021 0.286182 20.6973 0.346392C20.5267 0.396555 20.3657 0.473801 20.2232 0.57398C20.147 0.627492 20.1312 0.644309 20.0615 0.704592L11.7437 8.41157L3.4259 0.704592L3.34748 0.636738C3.27362 0.581042 3.25642 0.56517 3.17658 0.516683C3.02698 0.42575 2.86063 0.358768 2.68683 0.319527C2.54775 0.288148 2.40411 0.274461 2.26111 0.278975C1.71776 0.296157 1.21135 0.581553 0.944899 1.02057C0.85721 1.16508 0.796471 1.32343 0.766062 1.48681C0.749876 1.57403 0.750662 1.59645 0.744141 1.68455C0.744141 1.71767 0.744141 1.7508 0.744141 1.78392Z" fill="white"/>
</svg>
