<svg width="25" height="23" viewBox="0 0 25 23" fill="none" xmlns="http://www.w3.org/2000/svg">
<path fill-rule="evenodd" clip-rule="evenodd" d="M23 11.5V10.5591C23 9.93182 22.5818 9.51364 21.9545 9.51364C21.3273 9.51364 20.9091 9.93182 20.9091 10.5591V11.5C20.9091 16.7273 16.7273 20.9091 11.5 20.9091C6.27273 20.9091 2.09091 16.7273 2.09091 11.5C2.09091 6.27273 6.27273 2.09091 11.5 2.09091C12.8591 2.09091 14.1136 2.40455 15.3682 2.92727C15.8909 3.13636 16.5182 2.92727 16.7273 2.40455C16.9364 1.88182 16.7273 1.25455 16.2045 1.04545C14.7409 0.313636 13.0682 0 11.5 0C5.12273 0 0 5.12273 0 11.5C0 17.8773 5.12273 23 11.5 23C17.8773 23 23 17.8773 23 11.5ZM22.2703 1.36051C22.6885 0.94233 23.3158 0.94233 23.734 1.36051C24.1521 1.77869 24.1521 2.40597 23.734 2.82415L12.234 14.3241C12.0249 14.5332 11.7112 14.6378 11.5021 14.6378C11.293 14.6378 10.9794 14.5332 10.7703 14.3241L7.63395 11.1878C7.21577 10.7696 7.21577 10.1423 7.63395 9.72415C8.05213 9.30597 8.6794 9.30597 9.09759 9.72415L11.5021 12.1287L22.2703 1.36051Z" fill="#276F06"/>
</svg>
