<svg width="24" height="25" viewBox="0 0 24 25" fill="none" xmlns="http://www.w3.org/2000/svg">
<path d="M0.5 2.5C0.5 1.39543 1.39543 0.5 2.5 0.5H13.7H15.9861C16.4478 0.5 16.8952 0.659729 17.2525 0.952085L22.5665 5.29984C23.0307 5.6797 23.3 6.24789 23.3 6.84776V22.5C23.3 23.6046 22.4046 24.5 21.3 24.5H2.5C1.39543 24.5 0.5 23.6046 0.5 22.5V2.5Z" fill="#F2F4F7"/>
<path d="M15.2002 0.5H16.1002H16.5327C17.0268 0.5 17.5034 0.682887 17.8707 1.01341L22.6381 5.30414C23.0596 5.68342 23.3002 6.22375 23.3002 6.79072V8.6H17.2002C16.0956 8.6 15.2002 7.70457 15.2002 6.6V0.5Z" fill="#D9D9D9"/>
<rect x="0.5" y="12.5" width="16.5124" height="9" rx="2" fill="#F73B3B"/>
<path d="M11.8057 19.5V14.5H15.0128V15.3929H12.7842V16.5929H14.6414V17.4857H12.7842V19.5H11.8057Z" fill="white"/>
<path d="M6.80371 19.5V14.5H8.40371C8.91323 14.5 9.36323 14.6071 9.75371 14.8214C10.1489 15.0357 10.4561 15.331 10.6751 15.7071C10.8989 16.0786 11.0109 16.5095 11.0109 17C11.0109 17.4857 10.8989 17.9167 10.6751 18.2929C10.4561 18.669 10.1489 18.9643 9.75371 19.1786C9.36323 19.3929 8.91323 19.5 8.40371 19.5H6.80371ZM7.78228 18.5857H8.40371C8.63228 18.5857 8.84419 18.5452 9.03943 18.4643C9.23466 18.3833 9.40371 18.2714 9.54657 18.1286C9.69419 17.9857 9.80847 17.819 9.88942 17.6286C9.97038 17.4333 10.0109 17.2238 10.0109 17C10.0109 16.7762 9.97038 16.569 9.88942 16.3786C9.80847 16.1833 9.69419 16.0143 9.54657 15.8714C9.40371 15.7286 9.23466 15.6167 9.03943 15.5357C8.84419 15.4548 8.63228 15.4143 8.40371 15.4143H7.78228V18.5857Z" fill="white"/>
<path d="M2.5 19.5V14.5H4.35714C4.70952 14.5 5.02143 14.5714 5.29286 14.7143C5.56429 14.8524 5.77619 15.0476 5.92857 15.3C6.08095 15.5476 6.15714 15.8357 6.15714 16.1643C6.15714 16.4881 6.08333 16.7762 5.93571 17.0286C5.78809 17.281 5.58571 17.481 5.32857 17.6286C5.07143 17.7714 4.77381 17.8429 4.43571 17.8429H3.47857V19.5H2.5ZM3.47857 16.9429H4.41429C4.63333 16.9429 4.8119 16.8714 4.95 16.7286C5.09286 16.581 5.16429 16.3929 5.16429 16.1643C5.16429 15.9357 5.08571 15.75 4.92857 15.6071C4.77619 15.4643 4.57857 15.3929 4.33571 15.3929H3.47857V16.9429Z" fill="white"/>
</svg>
