<svg width="24" height="25" viewBox="0 0 24 25" fill="none" xmlns="http://www.w3.org/2000/svg">
<path d="M0.796875 2.95459C0.796875 1.85002 1.69231 0.95459 2.79688 0.95459H14.191H16.5292C16.986 0.95459 17.429 1.11095 17.7846 1.39767L23.1876 5.75419C23.6584 6.13386 23.9322 6.70624 23.9322 7.31111V22.9546C23.9322 24.0592 23.0367 24.9546 21.9322 24.9546H2.79687C1.6923 24.9546 0.796875 24.0592 0.796875 22.9546V2.95459Z" fill="#F2F4F7"/>
<path d="M15.7129 0.95459H16.6261H17.0846C17.5737 0.95459 18.0458 1.1338 18.4117 1.45834L23.2591 5.75777C23.6871 6.13734 23.932 6.68199 23.932 7.25402V9.05459H17.7129C16.6083 9.05459 15.7129 8.15916 15.7129 7.05459V0.95459Z" fill="#D9D9D9"/>
<rect x="1.11914" y="12.9546" width="16.2363" height="9" rx="2" fill="#47A329"/>
<path d="M13.5942 19.9546C13.3502 19.9546 13.1223 19.9247 12.9105 19.8648C12.6987 19.805 12.5099 19.7221 12.3442 19.6162C12.1785 19.5057 12.0403 19.3837 11.9298 19.2502C11.8239 19.1167 11.7549 18.9762 11.7227 18.8289L12.6481 18.5527C12.7079 18.7092 12.8138 18.845 12.9658 18.9601C13.1177 19.0706 13.3088 19.1282 13.539 19.1328C13.783 19.1374 13.9809 19.0844 14.1329 18.9739C14.2894 18.8634 14.3677 18.7207 14.3677 18.5458C14.3677 18.3938 14.3055 18.2672 14.1812 18.1659C14.0615 18.06 13.8958 17.9795 13.684 17.9242L13.0555 17.7585C12.8207 17.6986 12.6135 17.6088 12.434 17.4891C12.2544 17.3648 12.114 17.2129 12.0127 17.0333C11.9114 16.8538 11.8608 16.6443 11.8608 16.4049C11.8608 15.9491 12.0104 15.5946 12.3097 15.3413C12.6135 15.0835 13.0417 14.9546 13.5942 14.9546C13.9027 14.9546 14.172 15.0006 14.4022 15.0927C14.637 15.1802 14.8327 15.3068 14.9892 15.4725C15.1458 15.6383 15.2655 15.834 15.3483 16.0596L14.4298 16.3427C14.3746 16.1862 14.2733 16.0527 14.126 15.9422C13.9786 15.8317 13.7922 15.7764 13.5666 15.7764C13.3364 15.7764 13.1545 15.8294 13.021 15.9353C12.8921 16.0411 12.8276 16.1908 12.8276 16.3841C12.8276 16.5361 12.8783 16.6558 12.9796 16.7433C13.0855 16.8307 13.2282 16.8975 13.4077 16.9435L14.0431 17.1024C14.4575 17.2037 14.7797 17.3855 15.0099 17.648C15.2402 17.9104 15.3553 18.2027 15.3553 18.525C15.3553 18.8105 15.2862 19.0614 15.1481 19.2778C15.01 19.4896 14.8097 19.6553 14.5472 19.775C14.2848 19.8947 13.9671 19.9546 13.5942 19.9546Z" fill="white"/>
<path d="M8.2627 19.8723V15.0381H9.20883V19.0091H11.3359V19.8723H8.2627Z" fill="white"/>
<path d="M3.11914 19.8723L4.99069 17.2273L6.51002 15.0381H7.63572L5.8056 17.5519L4.25864 19.8723H3.11914ZM6.53074 19.8723L4.98378 17.5519L3.15367 15.0381H4.27936L5.7987 17.2204L7.67025 19.8723H6.53074Z" fill="white"/>
</svg>
