<svg width="23" height="25" viewBox="0 0 23 25" fill="none" xmlns="http://www.w3.org/2000/svg">
<path d="M0 2.44141C0 1.33684 0.895431 0.441406 2 0.441406H13.2H15.4861C15.9478 0.441406 16.3952 0.601135 16.7526 0.893492L22.0665 5.24125C22.5307 5.62111 22.8 6.1893 22.8 6.78916V22.4414C22.8 23.546 21.9046 24.4414 20.8 24.4414H2C0.895431 24.4414 0 23.546 0 22.4414V2.44141Z" fill="#F2F4F7"/>
<path d="M14.7002 0.441406H15.6002H16.0327C16.5268 0.441406 17.0034 0.624294 17.3707 0.954818L22.1381 5.24554C22.5596 5.62483 22.8002 6.16516 22.8002 6.73213V8.54141H16.7002C15.5956 8.54141 14.7002 7.64598 14.7002 6.54141V0.441406Z" fill="#D9D9D9"/>
<rect y="12.4414" width="16.8392" height="9.00075" rx="2" fill="#0095FF"/>
<path d="M12.6564 19.4276C12.1651 19.4276 11.7289 19.322 11.3479 19.1108C10.9714 18.895 10.6752 18.6012 10.4594 18.2293C10.2436 17.8528 10.1357 17.4212 10.1357 16.9345C10.1357 16.4478 10.2436 16.0185 10.4594 15.6466C10.6752 15.2701 10.9714 14.9763 11.3479 14.7651C11.7289 14.5493 12.1651 14.4414 12.6564 14.4414C12.9503 14.4414 13.2211 14.485 13.4691 14.5723C13.717 14.6595 13.9351 14.7812 14.1233 14.9373C14.3162 15.0888 14.4769 15.2633 14.6054 15.4607L13.8341 15.9428C13.756 15.8188 13.6527 15.7086 13.5242 15.6122C13.4002 15.5158 13.2625 15.44 13.1109 15.3849C12.9594 15.3298 12.8079 15.3023 12.6564 15.3023C12.3534 15.3023 12.0848 15.3735 11.8506 15.5158C11.6165 15.6535 11.4328 15.8441 11.2997 16.0874C11.1665 16.3308 11.0999 16.6131 11.0999 16.9345C11.0999 17.2513 11.1642 17.5337 11.2928 17.7816C11.4259 18.0296 11.6119 18.2247 11.8506 18.367C12.0894 18.5048 12.3649 18.5736 12.6771 18.5736C12.9204 18.5736 13.1362 18.5254 13.3244 18.429C13.5173 18.3326 13.6688 18.1971 13.779 18.0227C13.8892 17.8482 13.9443 17.6462 13.9443 17.4166L14.8396 17.2789C14.8396 17.7334 14.7455 18.1214 14.5572 18.4428C14.3736 18.7642 14.1165 19.0098 13.7859 19.1797C13.4599 19.345 13.0834 19.4276 12.6564 19.4276ZM12.8148 17.4993V16.7623H14.8396V17.3477L14.33 17.4993H12.8148Z" fill="white"/>
<path d="M6.26855 19.3444V14.5234H8.05919C8.39895 14.5234 8.69968 14.5923 8.96139 14.73C9.2231 14.8632 9.42742 15.0514 9.57434 15.2948C9.72126 15.5335 9.79473 15.8113 9.79473 16.1281C9.79473 16.4403 9.72356 16.7181 9.58123 16.9615C9.43889 17.2048 9.24376 17.3976 8.99583 17.54C8.74789 17.6777 8.46093 17.7466 8.13495 17.7466H7.21208V19.3444H6.26855ZM7.21208 16.8788H8.11428C8.32549 16.8788 8.49766 16.8099 8.63081 16.6722C8.76855 16.5299 8.83743 16.3485 8.83743 16.1281C8.83743 15.9077 8.76167 15.7287 8.61015 15.5909C8.46323 15.4532 8.27269 15.3843 8.03853 15.3843H7.21208V16.8788Z" fill="white"/>
<path d="M3.53581 19.4408C3.30165 19.4408 3.09275 19.4041 2.90909 19.3306C2.73003 19.2525 2.57622 19.1538 2.44766 19.0345C2.32369 18.9151 2.22498 18.7865 2.15152 18.6488C2.07805 18.511 2.02755 18.3779 2 18.2493L2.7989 17.9463C2.87236 18.1483 2.96878 18.3044 3.08815 18.4146C3.21212 18.5248 3.36593 18.5799 3.54959 18.5799C3.68733 18.5799 3.81818 18.5478 3.94215 18.4835C4.06612 18.4192 4.16483 18.3159 4.23829 18.1736C4.31635 18.0312 4.35537 17.8476 4.35537 17.6226V14.5234H5.29201V17.8981C5.29201 18.1368 5.24839 18.3526 5.16116 18.5455C5.07392 18.7337 4.94995 18.8944 4.78926 19.0276C4.63315 19.1607 4.4472 19.264 4.23141 19.3375C4.0202 19.4064 3.78834 19.4408 3.53581 19.4408Z" fill="white"/>
</svg>
