<svg xmlns="http://www.w3.org/2000/svg" width="217" height="154" viewBox="0 0 217 154" fill="none">
    <path d="M8.05324 134.578C4.42978 135.849 0.108057 138.269 0.345291 142.341C0.614053 146.954 6.2403 148.402 10.5582 148.577C37.5452 149.674 64.5323 150.77 91.5193 151.866C127.719 153.337 164.268 154.783 199.895 147.77C205.873 146.594 213.105 143.711 213.636 137.234C213.975 133.107 211.09 129.3 207.603 127.498C204.115 125.696 200.126 125.469 196.257 125.274C182.795 124.594 169.334 123.915 155.872 123.235C143.437 122.607 129.402 123.803 117.253 120.864C95.0712 115.498 71.5038 119.01 49.1116 123.405C35.2027 126.135 21.4999 129.903 8.05324 134.578Z" fill="#EFF1F7"/>
    <path d="M213.681 97.6379C209.505 92.6262 213.017 88.617 213.641 81.0997C214.266 73.5824 209.22 69.5732 203.335 69.5732C197.907 69.5732 192.404 73.5824 193.029 81.0997C193.653 88.617 197.165 92.6262 192.989 97.6379C188.813 102.649 185.69 117.542 203.335 117.542C220.981 117.542 217.857 102.649 213.681 97.6379Z" fill="#ACACB6"/>
    <path d="M203.356 82.9502V133.498" stroke="#6B698B" stroke-width="2" stroke-linecap="round" stroke-linejoin="round"/>
    <path d="M203.33 90.9231C203.33 90.9231 197.769 91.3504 197.769 86.7939" stroke="#6B698B" stroke-width="2" stroke-linecap="round" stroke-linejoin="round"/>
    <path d="M203.269 106.889C203.269 106.889 210.618 107.743 210.618 100.481" stroke="#6B698B" stroke-width="2" stroke-linecap="round" stroke-linejoin="round"/>
    <path d="M77.7563 84.5637C72.7437 78.5358 76.9686 73.7228 77.7282 64.6904C78.4878 55.6579 72.4294 50.8333 65.3574 50.8252C58.8346 50.8178 52.2175 55.628 52.959 64.6622C53.7007 73.6963 57.916 78.5188 52.8915 84.5353C47.867 90.5518 44.0963 108.444 65.3002 108.468C86.5039 108.492 82.7688 90.5916 77.7563 84.5637Z" fill="#C2CEF9"/>
    <path d="M65.2784 66.8203L65.2181 127.562" stroke="#87A0F9" stroke-width="2" stroke-linecap="round" stroke-linejoin="round"/>
    <path d="M65.2794 76.4013C65.2794 76.4013 58.5962 76.907 58.6016 71.4316" stroke="#87A0F9" stroke-width="2" stroke-linecap="round" stroke-linejoin="round"/>
    <path d="M65.2676 95.5763C65.2676 95.5763 74.0981 96.6131 74.1067 87.8867" stroke="#87A0F9" stroke-width="2" stroke-linecap="round" stroke-linejoin="round"/>
    <path d="M156.737 59.7334H109.344C106.025 59.7334 103.335 62.6113 103.335 66.1616V78.5711C103.335 82.1214 106.025 84.9993 109.344 84.9993H145.204L152.682 92.9991C153.25 93.6066 154.22 93.1764 154.22 92.3174V84.9995H156.737C160.055 84.9995 162.746 82.1216 162.746 78.5713V66.1618C162.746 62.6115 160.055 59.7334 156.737 59.7334Z" fill="#87A0F9"/>
    <path d="M124.156 68.1488H110.1C109.635 68.1488 109.258 67.7454 109.258 67.2478C109.258 66.7501 109.635 66.3467 110.1 66.3467H124.156C124.621 66.3467 124.998 66.7501 124.998 67.2478C124.998 67.7454 124.621 68.1488 124.156 68.1488Z" fill="#BDCAF9"/>
    <path d="M137.357 68.1488H128.503C128.038 68.1488 127.661 67.7454 127.661 67.2478C127.661 66.7501 128.038 66.3467 128.503 66.3467H137.357C137.822 66.3467 138.199 66.7501 138.199 67.2478C138.199 67.7454 137.822 68.1488 137.357 68.1488Z" fill="#BDCAF9"/>
    <path d="M123.23 72.9164H110.1C109.635 72.9164 109.258 72.5131 109.258 72.0153C109.258 71.5175 109.635 71.1143 110.1 71.1143H123.23C123.695 71.1143 124.072 71.5175 124.072 72.0153C124.072 72.5131 123.695 72.9164 123.23 72.9164Z" fill="#BDCAF9"/>
    <path d="M152.373 72.9164H127.553C127.088 72.9164 126.711 72.5131 126.711 72.0153C126.711 71.5175 127.088 71.1143 127.553 71.1143H152.373C152.838 71.1143 153.215 71.5175 153.215 72.0153C153.215 72.5131 152.838 72.9164 152.373 72.9164Z" fill="#BDCAF9"/>
    <path d="M131.421 77.9896H110.1C109.635 77.9896 109.258 77.5864 109.258 77.0886C109.258 76.5908 109.635 76.1875 110.1 76.1875H131.421C131.887 76.1875 132.264 76.5908 132.264 77.0886C132.264 77.5864 131.887 77.9896 131.421 77.9896Z" fill="#BDCAF9"/>
    <path d="M148.003 77.9896H135.695C135.229 77.9896 134.853 77.5864 134.853 77.0886C134.853 76.5908 135.229 76.1875 135.695 76.1875H148.003C148.468 76.1875 148.845 76.5908 148.845 77.0886C148.845 77.5864 148.468 77.9896 148.003 77.9896Z" fill="#BDCAF9"/>
    <path d="M159.696 0.0820312H127.325C124.007 0.0820312 121.316 2.95997 121.316 6.51025V18.9198C121.316 22.47 124.007 25.348 127.325 25.348H148.163L155.641 33.3478C156.209 33.9552 157.18 33.5251 157.18 32.666V25.3482H159.696C163.015 25.3482 165.705 22.4702 165.705 18.9199V6.51025C165.705 2.95997 163.015 0.0820312 159.696 0.0820312Z" fill="#87A0F9"/>
    <path d="M136.659 8.50136H128.612C128.146 8.50136 127.77 8.09792 127.77 7.60029C127.77 7.10266 128.146 6.69922 128.612 6.69922H136.659C137.124 6.69922 137.501 7.10266 137.501 7.60029C137.501 8.09792 137.124 8.50136 136.659 8.50136Z" fill="#BDCAF9"/>
    <path d="M149.828 8.50136H140.975C140.51 8.50136 140.133 8.09792 140.133 7.60029C140.133 7.10266 140.51 6.69922 140.975 6.69922H149.828C150.294 6.69922 150.671 7.10266 150.671 7.60029C150.67 8.09792 150.293 8.50136 149.828 8.50136Z" fill="#BDCAF9"/>
    <path d="M135.733 13.2689H128.612C128.146 13.2689 127.77 12.8657 127.77 12.3679C127.77 11.8701 128.146 11.4668 128.612 11.4668H135.733C136.198 11.4668 136.575 11.8701 136.575 12.3679C136.575 12.8657 136.198 13.2689 135.733 13.2689Z" fill="#BDCAF9"/>
    <path d="M155.829 13.2689H140.023C139.558 13.2689 139.181 12.8657 139.181 12.3679C139.181 11.8701 139.558 11.4668 140.023 11.4668H155.829C156.295 11.4668 156.672 11.8701 156.672 12.3679C156.672 12.8657 156.295 13.2689 155.829 13.2689Z" fill="#BDCAF9"/>
    <path d="M143.924 18.3441H128.612C128.146 18.3441 127.77 17.9409 127.77 17.4431C127.77 16.9453 128.146 16.542 128.612 16.542H143.924C144.39 16.542 144.766 16.9453 144.766 17.4431C144.766 17.9409 144.39 18.3441 143.924 18.3441Z" fill="#BDCAF9"/>
    <path d="M151.568 18.3441H148.273C147.808 18.3441 147.431 17.9409 147.431 17.4431C147.431 16.9453 147.808 16.542 148.273 16.542H151.568C152.033 16.542 152.41 16.9453 152.41 17.4431C152.41 17.9409 152.033 18.3441 151.568 18.3441Z" fill="#BDCAF9"/>
    <path d="M73.8155 89.4102H106.186C109.505 89.4102 112.195 92.2881 112.195 95.8384V108.248C112.195 111.798 109.505 114.676 106.186 114.676H85.3483L77.8704 122.676C77.3025 123.283 76.3317 122.853 76.3317 121.994V114.676H73.8155C70.4968 114.676 67.8066 111.798 67.8066 108.248V95.8386C67.8066 92.2883 70.4968 89.4102 73.8155 89.4102Z" fill="#160E83"/>
    <path d="M84.4039 97.6527H76.3569C75.8916 97.6527 75.5146 97.2493 75.5146 96.7517C75.5146 96.254 75.8916 95.8506 76.3569 95.8506H84.4039C84.8693 95.8506 85.2462 96.254 85.2462 96.7517C85.2462 97.2493 84.8691 97.6527 84.4039 97.6527Z" fill="white"/>
    <path d="M97.586 97.6527H88.7329C88.2676 97.6527 87.8906 97.2493 87.8906 96.7517C87.8906 96.254 88.2676 95.8506 88.7329 95.8506H97.586C98.0514 95.8506 98.4283 96.254 98.4283 96.7517C98.4283 97.2493 98.0514 97.6527 97.586 97.6527Z" fill="white"/>
    <path d="M83.4778 102.421H76.3569C75.8916 102.421 75.5146 102.018 75.5146 101.52C75.5146 101.022 75.8916 100.619 76.3569 100.619H83.4779C83.9433 100.619 84.3202 101.022 84.3202 101.52C84.3202 102.018 83.9431 102.421 83.4778 102.421Z" fill="white"/>
    <path d="M103.694 102.421H87.8872C87.4219 102.421 87.0449 102.018 87.0449 101.52C87.0449 101.022 87.4219 100.619 87.8872 100.619H103.694C104.159 100.619 104.536 101.022 104.536 101.52C104.536 102.018 104.159 102.421 103.694 102.421Z" fill="white"/>
    <path d="M91.6693 107.496H76.3569C75.8916 107.496 75.5146 107.092 75.5146 106.594C75.5146 106.097 75.8916 105.693 76.3569 105.693H91.6693C92.1346 105.693 92.5116 106.097 92.5116 106.594C92.5116 107.092 92.1346 107.496 91.6693 107.496Z" fill="white"/>
    <path d="M99.3253 107.496H96.0308C95.5654 107.496 95.1885 107.092 95.1885 106.594C95.1885 106.097 95.5654 105.693 96.0308 105.693H99.3253C99.7907 105.693 100.168 106.097 100.168 106.594C100.168 107.092 99.7905 107.496 99.3253 107.496Z" fill="white"/>
    <path d="M73.8146 28.9766H121.208C124.526 28.9766 127.216 31.8545 127.216 35.4048V47.8143C127.216 51.3646 124.526 54.2425 121.208 54.2425H85.3474L77.8694 62.2423C77.3016 62.8498 76.3308 62.4196 76.3308 61.5606V54.2427H73.8146C70.4959 54.2427 67.8057 51.3648 67.8057 47.8145V35.405C67.8057 31.8545 70.4959 28.9766 73.8146 28.9766Z" fill="#160E83"/>
    <path d="M90.5193 37.223H76.4634C75.998 37.223 75.6211 36.8196 75.6211 36.322C75.6211 35.8243 75.998 35.4209 76.4634 35.4209H90.5193C90.9846 35.4209 91.3616 35.8243 91.3616 36.322C91.3616 36.8196 90.9844 37.223 90.5193 37.223Z" fill="white"/>
    <path d="M103.722 37.223H94.8687C94.4033 37.223 94.0264 36.8196 94.0264 36.322C94.0264 35.8243 94.4033 35.4209 94.8687 35.4209H103.722C104.187 35.4209 104.564 35.8243 104.564 36.322C104.564 36.8196 104.187 37.223 103.722 37.223Z" fill="white"/>
    <path d="M89.5931 41.9906H76.4634C75.998 41.9906 75.6211 41.5874 75.6211 41.0895C75.6211 40.5917 75.998 40.1885 76.4634 40.1885H89.5933C90.0586 40.1885 90.4356 40.5917 90.4356 41.0895C90.4354 41.5874 90.0584 41.9906 89.5931 41.9906Z" fill="white"/>
    <path d="M118.736 41.9906H93.9165C93.4512 41.9906 93.0742 41.5874 93.0742 41.0895C93.0742 40.5917 93.4512 40.1885 93.9165 40.1885H118.736C119.202 40.1885 119.579 40.5917 119.579 41.0895C119.579 41.5874 119.202 41.9906 118.736 41.9906Z" fill="white"/>
    <path d="M97.7846 47.0639H76.4634C75.998 47.0639 75.6211 46.6606 75.6211 46.1628C75.6211 45.665 75.998 45.2617 76.4634 45.2617H97.7846C98.25 45.2617 98.6269 45.665 98.6269 46.1628C98.6269 46.6606 98.25 47.0639 97.7846 47.0639Z" fill="white"/>
    <path d="M114.474 47.0639H102.167C101.701 47.0639 101.324 46.6606 101.324 46.1628C101.324 45.665 101.701 45.2617 102.167 45.2617H114.474C114.94 45.2617 115.317 45.665 115.317 46.1628C115.317 46.6606 114.94 47.0639 114.474 47.0639Z" fill="white"/>
    <path d="M48.0903 135.679C48.0903 135.679 52.4161 138.211 54.4498 138.659C56.4834 139.107 57.0814 140.451 55.0479 141.091C53.0145 141.73 49.0668 140.579 46.794 140.579C44.5212 140.579 43.5044 141.155 42.4876 140.771C41.4708 140.387 42.3501 137.354 42.3501 137.354L48.0903 135.679Z" fill="#666666"/>
    <path d="M26.7071 136.143C26.7071 136.143 28.205 138.723 29.5209 140.003C30.8368 141.283 32.0329 142.563 27.7863 142.882C23.5397 143.202 20.9679 141.862 20.5492 140.964C20.1306 140.067 20.8624 136.143 20.8624 136.143H26.7071Z" fill="#666666"/>
    <path d="M38.1559 48.2171C38.1559 48.2171 36.8729 50.1317 36.1841 46.7919C35.4955 43.4521 32.8301 41.0703 33.886 38.3199C34.9419 35.5695 36.9528 36.0115 36.9528 36.0115C36.9528 36.0115 37.054 32.8189 39.7168 32.8189C42.3796 32.8189 44.3079 33.9978 45.823 33.4574C47.3381 32.9172 49.6796 31.6891 50.2765 32.8189C50.8733 33.9486 49.8634 35.5693 49.2206 35.815C49.2206 35.815 51.2408 34.9357 51.1948 36.4559C51.149 37.976 48.4402 39.7442 45.6395 39.9897C42.8389 40.2352 39.4644 40.3744 39.4644 40.3744L38.1559 48.2171Z" fill="#3D3D3D"/>
    <path d="M50.4916 79.7051C50.4916 79.7051 50.662 81.5286 50.4916 82.8051C50.4916 82.8051 51.6304 85.1681 51.6304 89.2293C51.6304 93.2905 48.8125 128.461 48.0818 135.718C48.0818 135.718 45.577 137.281 42.3415 137.393C42.3415 137.393 40.5674 121.092 40.5674 114.058C40.5674 107.024 39.9411 98.8731 39.9411 98.8731C39.9411 98.8731 36.9689 110.596 33.4976 119.752C30.0262 128.907 26.6863 136.18 26.6863 136.18C26.6863 136.18 24.1815 138.527 20.8418 136.18C20.8418 136.18 23.9729 119.752 24.9122 113.946C25.8514 108.14 29.6498 84.6723 31.8619 82.8941C31.8619 82.8941 31.6905 80.9626 32.1189 79.7051H50.4916V79.7051Z" fill="#3D3D3D"/>
    <path d="M46.9803 38.1605C46.9803 38.1605 48.1096 41.8081 47.7052 45.1608C47.3009 48.5136 46.2899 51.0551 45.0262 51.2173C43.7625 51.3795 39.011 50.5684 38.2023 47.2699C37.3936 43.9712 36.8374 40.943 37.2924 39.1044C37.7474 37.2657 40.6792 36.5088 41.9429 36.5088C43.2064 36.5086 46.9803 38.1605 46.9803 38.1605Z" fill="#FAAEB1"/>
    <path d="M38.8398 46.6656C38.8398 46.6656 38.258 47.7878 37.0878 47.387C35.9177 46.9861 34.5689 45.2943 35.3557 43.8958C36.1425 42.4973 38.1281 43.4192 38.1281 43.4192L38.8398 46.6656Z" fill="#FAAEB1"/>
    <path d="M45.1941 42.5039C45.1941 42.5039 46.6228 44.8239 46.6831 45.8575C46.7093 46.3047 45.0635 46.4444 45.0635 46.4444" stroke="#3D3D3D" stroke-linecap="round" stroke-linejoin="round"/>
    <path d="M46.0279 47.5811C46.0279 47.5811 44.591 48.3914 42.6318 47.8046C42.6318 47.8046 42.8126 50.0297 44.3299 50.0297C45.8472 50.0297 46.0279 47.5811 46.0279 47.5811Z" fill="#160E83"/>
    <path d="M42.4189 42.6582L42.5957 44.5328" stroke="#3D3D3D" stroke-linecap="round" stroke-linejoin="round"/>
    <path d="M46.543 42.1982L46.748 44.0081" stroke="#3D3D3D" stroke-linecap="round" stroke-linejoin="round"/>
    <path d="M43.6355 50.5333C43.6355 50.5333 43.5436 51.5647 43.6355 52.7927C43.7273 54.0206 44.2322 56.6729 41.8449 56.8694C39.4576 57.0659 37.6211 54.8064 37.5751 53.2839C37.5292 51.7613 37.5751 46.5059 37.5751 46.5059H39.9624L43.6355 50.5333Z" fill="#FAAEB1"/>
    <path d="M39.4667 39.583C39.4667 39.583 39.7205 45.1835 38.5376 45.2075C37.3547 45.2314 36.3906 41.302 36.3906 41.302L39.4667 39.583Z" fill="#3D3D3D"/>
    <path d="M43.6105 51.1609C43.6105 51.1609 44.4811 51.5122 45.3668 52.6722C45.3668 52.6722 50.3077 52.8545 55.1649 55.1336C60.0221 57.4126 66.3278 49.3682 66.8391 48.1943L69.6849 49.6281C69.6849 49.6281 69.4597 65.6118 51.7621 66.3522C51.7621 66.3522 52.9719 78.4633 50.602 80.3648C48.232 82.2662 33.7902 81.7117 31.9387 80.3648C30.0872 79.0179 30.6797 74.8188 30.6797 74.8188C30.6797 74.8188 26.8081 82.2922 26.1579 88.6104C26.1579 88.6104 24.7492 89.7697 21.9857 88.6104C21.9857 88.6104 20.5968 76.9523 23.8335 65.9428C27.0702 54.9333 35.1182 52.6249 35.1182 52.6249C35.1182 52.6249 36.1055 50.1555 37.5658 49.5025C37.5658 49.5025 37.709 54.4401 42.056 55.8753C42.0559 55.8753 43.8237 55.3452 43.6105 51.1609Z" fill="#160E83"/>
    <path d="M66.852 48.2814C66.852 48.2814 65.9961 46.9667 65.9961 45.2855C65.9961 43.6042 67.5921 43.9485 67.5921 43.9485C67.5921 43.9485 68.0409 41.2567 68.8389 39.4428C69.637 37.6287 70.4848 37.6287 70.3352 39.1761C70.1857 40.7233 69.3377 42.4733 69.3377 42.4733C69.3377 42.4733 72.9786 43.553 72.9286 44.8859C72.8788 46.2188 72.7511 48.7832 69.6978 49.7153L66.852 48.2814Z" fill="#FAAEB1"/>
    <path d="M68.1219 43.8887C69.4774 44.2038 70.7829 44.5756 69.8211 45.2256C68.8592 45.8759 67.584 45.7902 67.584 45.7902C67.584 45.7902 69.1378 46.419 69.0165 47.8371" stroke="#FAC8CA" stroke-linecap="round" stroke-linejoin="round"/>
    <path d="M51.7661 66.4414C51.7937 61.7392 50.5527 56.9639 50.5527 56.9639" stroke="white" stroke-linecap="round"/>
    <path d="M30.6787 74.8655C32.5135 70.7343 34.6488 65.5707 32.7253 60.3418" stroke="white" stroke-linecap="round"/>
    <path d="M49.9562 82.6279C48.8421 82.9029 44.5999 82.9947 42.6288 82.9947C40.6578 82.9947 33.6736 83.1781 32.7949 82.9947" stroke="#626262" stroke-linecap="round" stroke-linejoin="round"/>
    <path d="M39.9863 98.7879C40.82 95.8278 41.7259 93.3525 41.7259 93.3525C41.7259 93.3525 42.5341 92.9399 42.5341 91.7481C42.5341 90.5562 42.4484 89.2268 42.5341 87.2557C42.6197 85.2845 42.9625 84.7803 42.9625 84.7803" stroke="#626262" stroke-linecap="round" stroke-linejoin="round"/>
    <path d="M44.3425 91.8535C44.3425 91.8535 44.1582 93.0756 39.9093 93.8803C38.2149 94.2012 37.8721 94.1553 37.8721 94.1553" stroke="#626262" stroke-linecap="round" stroke-linejoin="round"/>
    <path d="M49.314 112.152C48.6667 112.472 47.9198 114.177 47.0732 114.709C47.0732 114.709 47.5803 115.46 49.1239 115.407" stroke="#626262" stroke-linecap="round" stroke-linejoin="round"/>
    <path d="M41.3875 108.924C41.3875 108.924 43.6153 111.694 45.2584 111.854C46.9014 112.013 46.4035 113.451 44.0634 114.357C41.7231 115.263 41.1494 116.096 41.1494 116.096" stroke="#626262" stroke-linecap="round" stroke-linejoin="round"/>
    <path d="M36.2945 109.999C35.0203 111.06 31.9702 112.283 30.0638 113.18C28.1575 114.078 27.7001 113.751 30.0638 114.812" stroke="#626262" stroke-linecap="round" stroke-linejoin="round"/>
    <path d="M27.5336 105.388C29.4399 106.04 34.5221 107.019 32.3621 107.835C30.2022 108.651 26.2373 110.935 26.2373 110.935" stroke="#626262" stroke-linecap="round" stroke-linejoin="round"/>
    <path d="M30.0459 90.2311C30.0459 90.2311 34.6934 90.7892 35.9814 84.7803" stroke="#626262" stroke-linecap="round" stroke-linejoin="round"/>
    <path d="M51.0399 89.7531C51.0399 89.7531 49.1053 88.3557 47.9092 84.3203" stroke="#626262" stroke-linecap="round" stroke-linejoin="round"/>
    <path fill-rule="evenodd" clip-rule="evenodd" d="M49.8189 62.959C49.8189 62.959 46.73 63.0891 45.2744 63.1302C45.2744 63.1302 45.4665 66.8278 45.4665 67.4441C45.4665 68.0604 47.8988 68.8328 48.1869 68.7547C48.4749 68.6765 49.8511 67.7522 50.043 67.4441C50.235 67.1359 49.8189 62.959 49.8189 62.959Z" stroke="white" stroke-linecap="round"/>
    <path d="M49.8708 63.8779C49.8708 63.8779 47.5093 64.1822 45.9092 64.0794" stroke="white" stroke-linecap="round"/>
    <path d="M26.1951 88.6769C26.1951 88.6769 27.4454 90.7026 27.412 92.3789C27.3787 94.0552 26.6117 93.6034 26.1951 91.8321C25.7785 90.0607 25.3118 92.969 25.3451 94.1363C25.3783 95.3033 25.8118 96.6942 24.5116 96.6942C23.2114 96.6942 22.1113 94.0909 22.1113 92.5217C22.1113 90.9526 22.2781 88.3135 22.2781 88.3135L26.1951 88.6769Z" fill="#FAAEB1"/>
    <path d="M47.325 39.6053C47.325 39.6053 43.2293 40.441 39.4927 40.3097L36.9813 41.3089L35.7559 38.6913L40.3939 35.1221L46.0499 35.717L47.7526 37.6207L47.325 39.6053Z" fill="#3D3D3D"/>
    <path d="M45.3475 53.2416C45.3475 53.2416 46.177 55.7514 45.1214 58.0554C45.1214 58.0554 43.3035 55.9984 42.0589 55.968C40.603 55.9322 38.1114 59.1397 38.1114 59.1397C38.1114 59.1397 35.7203 58.437 35.1211 53.1133" stroke="white" stroke-linecap="round"/>
    <rect x="168.388" y="44.834" width="1.03404" height="7.07993" fill="#666666"/>
    <rect x="185.403" y="44.834" width="1.03404" height="7.07993" fill="#666666"/>
    <path d="M167.123 81.3335C166.444 81.0941 165.709 81.4898 165.485 82.2186C163.894 87.3928 158.495 100.963 152.201 103.557C152.478 104.398 152.942 105.238 153.289 106.079C161.952 102.296 167.701 83.897 167.951 83.0863C168.175 82.3579 167.804 81.5731 167.123 81.3335Z" fill="#666666"/>
    <path d="M149.572 110.461L148.497 108.029L151.267 106.628C151.53 106.495 151.729 106.261 151.827 105.967C151.925 105.674 151.911 105.357 151.786 105.076C151.662 104.794 151.442 104.581 151.168 104.476C150.894 104.371 150.598 104.386 150.335 104.52L147.565 105.92L146.49 103.488L149.26 102.087C150.13 101.647 151.109 101.595 152.016 101.943C152.923 102.29 153.649 102.994 154.06 103.926C154.472 104.857 154.52 105.904 154.195 106.874C153.87 107.844 153.212 108.621 152.341 109.061L149.572 110.461Z" fill="#87A0F9"/>
    <path d="M173.027 137.371C173.027 135.72 172.448 134.243 171.534 133.233V131.856H168.644C166.223 131.856 164.261 134.325 164.261 137.371C164.261 140.416 166.223 142.885 168.644 142.885H171.534V141.509C172.448 140.498 173.027 139.021 173.027 137.371Z" fill="#666666"/>
    <path d="M171.501 142.885C173.922 142.885 175.884 140.416 175.884 137.371C175.884 134.325 173.922 131.856 171.501 131.856C169.081 131.856 167.118 134.325 167.118 137.371C167.118 140.416 169.081 142.885 171.501 142.885Z" fill="#3D3D3D"/>
    <path d="M190.467 137.371C190.467 135.72 189.888 134.243 188.975 133.233V131.856H186.084C183.663 131.856 181.701 134.325 181.701 137.371C181.701 140.416 183.664 142.885 186.084 142.885H188.975V141.509C189.888 140.498 190.467 139.021 190.467 137.371Z" fill="#666666"/>
    <path d="M188.941 142.885C191.361 142.885 193.324 140.416 193.324 137.371C193.324 134.325 191.361 131.856 188.941 131.856C186.52 131.856 184.558 134.325 184.558 137.371C184.558 140.416 186.52 142.885 188.941 142.885Z" fill="#3D3D3D"/>
    <path d="M160.546 66.4543H163.365V56.5215H160.546C157.982 56.5215 155.903 58.745 155.903 61.4878C155.903 64.2308 157.982 66.4543 160.546 66.4543Z" fill="#0055FE"/>
    <path d="M155.903 61.4434V61.4434C155.903 64.1862 157.982 66.4097 160.546 66.4097" stroke="#C4D1FF" stroke-width="2" stroke-linecap="round" stroke-linejoin="round"/>
    <path d="M188.026 50.5254H168.925C163.779 50.5254 159.607 54.9882 159.607 60.4932V62.5834C159.607 68.0885 163.779 72.5512 168.925 72.5512H188.025C193.711 72.5512 198.32 67.6205 198.32 61.5382C198.32 55.4561 193.711 50.5254 188.026 50.5254Z" fill="#87A0F9"/>
    <path d="M194.189 66.4541H198.253C200.817 66.4541 202.895 64.2306 202.895 61.4878C202.895 58.745 200.817 56.5215 198.253 56.5215H194.189C192.784 56.5215 191.645 57.7403 191.645 59.2439V63.7317C191.645 65.2353 192.784 66.4541 194.189 66.4541Z" fill="#0055FE"/>
    <path d="M184.013 63.0877H167.803C165.671 63.0877 163.943 61.2391 163.943 58.9589C163.943 56.6787 165.671 54.8301 167.803 54.8301H184.013C186.144 54.8301 187.872 56.6787 187.872 58.9589C187.872 61.2391 186.144 63.0877 184.013 63.0877Z" fill="#E3E5EB"/>
    <path d="M168.143 62.023C169.762 62.023 171.074 60.6194 171.074 58.888C171.074 57.1565 169.762 55.7529 168.143 55.7529C166.525 55.7529 165.213 57.1565 165.213 58.888C165.213 60.6194 166.525 62.023 168.143 62.023Z" fill="#3D3D3D"/>
    <path d="M167.39 59.3752C168.008 59.3752 168.509 58.8393 168.509 58.1783C168.509 57.5173 168.008 56.9814 167.39 56.9814C166.772 56.9814 166.271 57.5173 166.271 58.1783C166.271 58.8393 166.772 59.3752 167.39 59.3752Z" fill="#666666"/>
    <path d="M183.999 62.023C185.617 62.023 186.929 60.6194 186.929 58.888C186.929 57.1565 185.617 55.7529 183.999 55.7529C182.38 55.7529 181.068 57.1565 181.068 58.888C181.068 60.6194 182.38 62.023 183.999 62.023Z" fill="#3D3D3D"/>
    <path d="M175.969 71.0871C173.592 71.0871 171.665 69.0259 171.665 66.4832V65.3436C171.665 64.9721 171.947 64.6709 172.294 64.6709H179.643C179.991 64.6709 180.272 64.9721 180.272 65.3436V66.4832C180.272 69.0259 178.345 71.0871 175.969 71.0871Z" fill="#0055FE"/>
    <rect x="172.617" y="72.5117" width="8.52905" height="4.7433" fill="#666666"/>
    <path d="M190.294 76.9746H168.995C167.077 76.9746 165.463 78.5136 165.243 80.5527L159.857 130.61C159.474 134.163 162.071 137.28 165.415 137.28H193.438C196.781 137.28 199.378 134.163 198.996 130.61L193.559 80.0888C193.368 78.3141 191.963 76.9746 190.294 76.9746Z" fill="#87A0F9"/>
    <path d="M198.903 130.61L193.467 80.0888C193.276 78.3141 191.871 76.9746 190.201 76.9746C189.016 76.9746 188.025 77.9404 187.915 79.2032L183.416 131.024C183.124 134.381 185.594 137.28 188.746 137.28H193.345C196.688 137.28 199.285 134.164 198.903 130.61Z" fill="#0055FE"/>
    <path d="M166.452 106.522H182.067C182.705 106.522 183.238 106.005 183.3 105.326L185.329 83.1811C185.4 82.4019 184.828 81.7266 184.096 81.7266H168.48C167.843 81.7266 167.31 82.2439 167.247 82.9225L165.219 105.068C165.148 105.847 165.72 106.522 166.452 106.522Z" fill="#E3E5EB"/>
    <path d="M198.108 92.4637C195.274 86.9989 191.772 83.3448 191.624 83.192C191.109 82.6592 190.287 82.6738 189.789 83.2247C189.29 83.7759 189.304 84.6547 189.819 85.1879C189.948 85.3208 202.209 98.2093 198.239 110.775C199.075 110.907 199.899 111.289 200.663 111.766C202.531 105.954 201.66 99.3144 198.108 92.4637Z" fill="#666666"/>
    <path d="M200.388 118.486L198.113 117.338L199.419 114.374C199.675 113.792 199.441 113.096 198.898 112.822C198.354 112.547 197.703 112.798 197.447 113.379L196.14 116.344L193.865 115.196L195.172 112.232C195.582 111.3 196.307 110.595 197.214 110.247C198.12 109.898 199.099 109.948 199.97 110.388C201.768 111.295 202.541 113.598 201.694 115.521L200.388 118.486Z" fill="#87A0F9"/>
    <path d="M165.86 128.356H164.684L166.306 111.404H167.482L165.86 128.356Z" fill="#6686F9"/>
    <path d="M168.309 119.177H163.979C163.667 119.177 163.414 118.907 163.414 118.573V117.542C163.414 117.209 163.667 116.938 163.979 116.938H168.309C168.621 116.938 168.874 117.209 168.874 117.542V118.573C168.874 118.907 168.621 119.177 168.309 119.177Z" fill="#0055FE"/>
    <path d="M173.537 115.183C174.513 115.183 175.303 114.337 175.303 113.293C175.303 112.25 174.513 111.404 173.537 111.404C172.562 111.404 171.771 112.25 171.771 113.293C171.771 114.337 172.562 115.183 173.537 115.183Z" fill="#160E83"/>
    <path d="M179.553 115.183C180.528 115.183 181.319 114.337 181.319 113.293C181.319 112.25 180.528 111.404 179.553 111.404C178.578 111.404 177.787 112.25 177.787 113.293C177.787 114.337 178.578 115.183 179.553 115.183Z" fill="white"/>
    <path d="M175.934 128.27C178.701 128.27 180.943 125.87 180.943 122.911C180.943 119.951 178.701 117.552 175.934 117.552C173.168 117.552 170.925 119.951 170.925 122.911C170.925 125.87 173.168 128.27 175.934 128.27Z" fill="#6686F9"/>
    <path d="M166.271 93.7484H169.595L170.701 91.3871L171.931 97.0263L173.434 88.1846L174.15 92.6055L174.996 93.4061L175.907 99.1845L177.664 89.9946L178.825 95.6338L179.617 93.6846H184.382" stroke="#0055FE" stroke-width="2" stroke-linecap="round" stroke-linejoin="round"/>
    <path d="M168.868 45.9243C170.419 45.9243 171.677 44.5788 171.677 42.9192C171.677 41.2595 170.419 39.9141 168.868 39.9141C167.316 39.9141 166.059 41.2595 166.059 42.9192C166.059 44.5788 167.316 45.9243 168.868 45.9243Z" fill="#160E83"/>
    <path d="M185.885 45.9243C187.437 45.9243 188.694 44.5788 188.694 42.9192C188.694 41.2595 187.437 39.9141 185.885 39.9141C184.334 39.9141 183.076 41.2595 183.076 42.9192C183.076 44.5788 184.334 45.9243 185.885 45.9243Z" fill="#160E83"/>
    <path d="M183.243 59.3752C183.861 59.3752 184.362 58.8393 184.362 58.1783C184.362 57.5173 183.861 56.9814 183.243 56.9814C182.625 56.9814 182.124 57.5173 182.124 58.1783C182.124 58.8393 182.625 59.3752 183.243 59.3752Z" fill="#666666"/>
    <path d="M159.607 60.3672V62.4574C159.607 67.9624 163.779 72.4252 168.925 72.4252" stroke="#C4D1FF" stroke-width="2" stroke-linecap="round" stroke-linejoin="round"/>
    <path d="M185.49 23.9229C185.49 19.9301 182.464 16.6934 178.732 16.6934C174.999 16.6934 171.974 19.9301 171.974 23.9229C171.974 25.1816 172.306 26.4242 172.901 27.5081C173.201 28.0564 173.568 28.5453 173.975 29.0067C174.364 29.4471 174.883 29.7332 175.253 30.1884C175.571 30.5816 175.609 31.0561 175.764 31.5265C175.952 32.1023 176.46 32.4878 177.03 32.4878H180.438C181.005 32.4878 181.512 32.1056 181.702 31.5331C181.833 31.1391 181.923 30.6368 182.127 30.2833C182.381 29.8432 182.95 29.6174 183.299 29.2606C183.747 28.8028 184.145 28.308 184.47 27.7419C185.126 26.6007 185.49 25.2643 185.49 23.9229Z" fill="#160E83"/>
    <path d="M180.636 19.4005C180.566 19.4005 180.495 19.3856 180.427 19.3543C180.272 19.2831 180.112 19.2205 179.951 19.1679C179.671 19.0765 179.513 18.7593 179.598 18.4597C179.684 18.1598 179.981 17.9912 180.26 18.0824C180.458 18.1469 180.655 18.2241 180.846 18.3117C181.115 18.4355 181.239 18.7693 181.123 19.0572C181.037 19.2719 180.841 19.4005 180.636 19.4005Z" fill="#FFF3E4"/>
    <path d="M183.839 24.4351C183.546 24.4351 183.309 24.1811 183.309 23.8676C183.309 22.4934 182.793 21.2145 181.857 20.2666C181.644 20.0512 181.635 19.6919 181.837 19.4645C182.038 19.2369 182.374 19.2269 182.586 19.4426C183.72 20.5903 184.37 22.2031 184.37 23.8678C184.37 24.1811 184.132 24.4351 183.839 24.4351Z" fill="#FFF3E4"/>
    <path d="M177.193 26.2931C176.956 26.2931 176.719 26.2204 176.515 26.0745L175.909 25.6417C175.777 25.5477 175.742 25.3575 175.829 25.2167C175.917 25.0759 176.095 25.0381 176.227 25.1319L176.833 25.5647C177.055 25.7234 177.351 25.7191 177.569 25.5542L178.018 25.2147C178.445 24.8916 179.017 24.8949 179.441 25.2228L179.86 25.5466C180.078 25.7156 180.376 25.7219 180.6 25.5627L181.257 25.0965C181.389 25.0031 181.567 25.0416 181.654 25.1826C181.742 25.3236 181.706 25.5138 181.574 25.6073L180.917 26.0734C180.494 26.3729 179.935 26.3609 179.524 26.0431L179.105 25.7193C178.88 25.545 178.576 25.5431 178.349 25.7149L177.9 26.0544C177.69 26.2134 177.442 26.2931 177.193 26.2931Z" fill="white"/>
    <path d="M177.174 33.0147C177.037 33.0147 176.915 32.9087 176.892 32.7589L175.68 25.025C175.654 24.8582 175.759 24.7001 175.915 24.6722C176.071 24.6442 176.219 24.7568 176.245 24.9238L177.457 32.6577C177.483 32.8245 177.378 32.9826 177.222 33.0104C177.206 33.0132 177.19 33.0147 177.174 33.0147Z" fill="white"/>
    <path d="M180.178 32.9944C180.162 32.9944 180.146 32.9929 180.129 32.9898C179.973 32.9609 179.869 32.8024 179.896 32.6357L181.142 24.9222C181.169 24.7554 181.317 24.6439 181.473 24.6724C181.629 24.7012 181.734 24.8599 181.707 25.0265L180.46 32.7401C180.436 32.8892 180.315 32.9944 180.178 32.9944Z" fill="white"/>
    <path d="M180.729 35.6304H176.766C176.514 35.6304 176.31 35.4118 176.31 35.1421V33.0195C176.31 32.7498 176.514 32.5312 176.766 32.5312H180.729C180.981 32.5312 181.186 32.7498 181.186 33.0195V35.1421C181.185 35.4118 180.981 35.6304 180.729 35.6304Z" fill="#CFD1D6"/>
    <path d="M178.844 36.8177H178.478C177.748 36.8177 177.156 36.1847 177.156 35.4038V33.9451C177.156 33.1643 177.748 32.5312 178.478 32.5312H178.844C179.573 32.5312 180.165 33.1642 180.165 33.9451V35.4038C180.165 36.1846 179.573 36.8177 178.844 36.8177Z" fill="#CFD1D6"/>
    <path d="M178.735 15.2488C178.564 15.2488 178.426 15.1006 178.426 14.918V12.7205C178.426 12.5378 178.564 12.3896 178.735 12.3896C178.906 12.3896 179.044 12.5378 179.044 12.7205V14.918C179.044 15.1006 178.906 15.2488 178.735 15.2488Z" fill="#87A0F9"/>
    <path d="M183.24 16.7265C183.162 16.7438 183.079 16.7296 183.007 16.6795C182.864 16.5794 182.824 16.3745 182.918 16.2215L184.042 14.3823C184.135 14.2293 184.327 14.1864 184.47 14.2864C184.613 14.3865 184.653 14.5915 184.559 14.7444L183.435 16.5836C183.388 16.6601 183.317 16.7092 183.24 16.7265Z" fill="#87A0F9"/>
    <path d="M187.548 19.1431L185.743 20.1916C185.593 20.2788 185.405 20.2193 185.324 20.0587C185.242 19.8982 185.298 19.6973 185.448 19.6101L187.253 18.5616C187.403 18.4745 187.591 18.534 187.672 18.6945C187.754 18.855 187.698 19.0559 187.548 19.1431Z" fill="#87A0F9"/>
    <path d="M174.401 16.7265C174.479 16.7438 174.562 16.7296 174.634 16.6795C174.777 16.5794 174.817 16.3745 174.723 16.2215L173.599 14.3823C173.506 14.2293 173.314 14.1864 173.171 14.2864C173.028 14.3865 172.988 14.5915 173.082 14.7444L174.206 16.5836C174.252 16.6601 174.324 16.7092 174.401 16.7265Z" fill="#87A0F9"/>
    <path d="M170.02 19.1431L171.825 20.1916C171.975 20.2788 172.163 20.2193 172.245 20.0587C172.326 19.8982 172.271 19.6973 172.12 19.6101L170.315 18.5616C170.165 18.4745 169.977 18.534 169.896 18.6945C169.814 18.855 169.87 19.0559 170.02 19.1431Z" fill="#87A0F9"/>
</svg>