<svg width="72" height="25" viewBox="0 0 72 25" fill="none" xmlns="http://www.w3.org/2000/svg">
<g id="Group 1000003733">
<g id="Bold">
<circle id="Shape" cx="12" cy="12.4951" r="12" fill="#160E83"/>
<g id="Component/icon/ic_Bold">
<g id="iconspace_Bold_25px">
<path id="Path" fill-rule="evenodd" clip-rule="evenodd" d="M6.60684 20.5131C6.27547 20.5131 6.00684 20.2445 6.00684 19.9131V5.51309C6.00684 5.18172 6.27547 4.91309 6.60684 4.91309H13.0068C15.115 4.91309 16.8068 6.80018 16.8068 9.11309C16.8068 10.3534 16.3203 11.4712 15.544 12.2413C17.1947 12.7027 18.4068 14.3554 18.4068 16.3131C18.4068 18.626 16.715 20.5131 14.6068 20.5131H6.60684ZM7.20703 19.3135H14.607C16.0325 19.3135 17.207 17.9777 17.207 16.3135C17.207 14.6493 16.0325 13.3135 14.607 13.3135H7.20703V19.3135ZM7.20703 12.1123H13.007C14.4325 12.1123 15.607 10.7765 15.607 9.1123C15.607 7.44811 14.4325 6.1123 13.007 6.1123H7.20703V12.1123Z" fill="white"/>
</g>
</g>
</g>
<g id="Italic">
<circle id="Shape_2" cx="38" cy="12.4951" r="12" fill="white"/>
<g id="Component/icon/ic_Italic">
<g id="iconspace_Italic_25px">
<path id="Path_2" fill-rule="evenodd" clip-rule="evenodd" d="M37.1891 19.2956H39.5996C39.931 19.2956 40.1996 19.5642 40.1996 19.8956C40.1996 20.2269 39.931 20.4956 39.5996 20.4956H36.4174C36.4059 20.4959 36.3943 20.4959 36.3827 20.4956H33.1996C32.8682 20.4956 32.5996 20.2269 32.5996 19.8956C32.5996 19.5642 32.8682 19.2956 33.1996 19.2956H35.9437L39.6104 6.09556H37.1996C36.8682 6.09556 36.5996 5.82693 36.5996 5.49556C36.5996 5.16419 36.8682 4.89556 37.1996 4.89556H40.3916C40.3968 4.89549 40.402 4.89549 40.4071 4.89556L43.5996 4.89556C43.931 4.89556 44.1996 5.16419 44.1996 5.49556C44.1996 5.82693 43.931 6.09556 43.5996 6.09556H40.8558L37.1891 19.2956Z" fill="#92929D"/>
</g>
</g>
</g>
<g id="Component/icon/ic_underline">
<g id="iconspace_Underline_25px">
<path id="Combined Shape" fill-rule="evenodd" clip-rule="evenodd" d="M67.6 6.09668C67.2686 6.09668 67 6.36531 67 6.69668V13.8967C67 16.6581 64.7614 18.8967 62 18.8967C59.2386 18.8967 57 16.6581 57 13.8967V6.69668C57 6.36531 56.7314 6.09668 56.4 6.09668C56.0686 6.09668 55.8 6.36531 55.8 6.69668V13.8967C55.8 17.3208 58.5758 20.0967 62 20.0967C65.4242 20.0967 68.2 17.3208 68.2 13.8967V6.69668C68.2 6.36531 67.9314 6.09668 67.6 6.09668ZM55 21.8959C55 22.2273 55.2686 22.4959 55.6 22.4959H68.4C68.7314 22.4959 69 22.2273 69 21.8959C69 21.5645 68.7314 21.2959 68.4 21.2959H55.6C55.2686 21.2959 55 21.5645 55 21.8959Z" fill="#92929D"/>
</g>
</g>
</g>
</svg>
