<svg xmlns="http://www.w3.org/2000/svg" width="21" height="22" viewBox="0 0 21 22" fill="none">
    <path fill-rule="evenodd" clip-rule="evenodd" d="M19.9359 7.2168L10.9359 0.224745C10.5359 -0.0749149 10.0359 -0.0749149 9.73594 0.224745L0.735938 7.2168C0.435937 7.41657 0.335938 7.71623 0.335938 8.01589V19.0034C0.335938 20.7015 1.63594 22 3.33594 22H17.3359C19.0359 22 20.3359 20.7015 20.3359 19.0034V8.01589C20.3359 7.71623 20.2359 7.41657 19.9359 7.2168ZM12.3359 12.0114V20.0023H8.33594V12.0114H12.3359ZM17.3359 20.0023C17.9359 20.0023 18.3359 19.6027 18.3359 19.0034V8.51532L10.3359 2.32236L2.33594 8.51532V19.0034C2.33594 19.6027 2.73594 20.0023 3.33594 20.0023H6.33594V11.0125C6.33594 10.4132 6.73594 10.0136 7.33594 10.0136H13.3359C13.9359 10.0136 14.3359 10.4132 14.3359 11.0125V20.0023H17.3359Z" fill="#808191"/>
</svg>