<svg xmlns="http://www.w3.org/2000/svg" width="29" height="32" viewBox="0 0 29 32" fill="none">
    <path fill-rule="evenodd" clip-rule="evenodd" d="M28.3311 10.8117L15.6493 0.959264C15.0856 0.537016 14.3811 0.537016 13.9583 0.959264L1.27653 10.8117C0.8538 11.0932 0.712891 11.5154 0.712891 11.9377V27.4201C0.712891 29.8128 2.54471 31.6426 4.94016 31.6426H24.6674C27.0629 31.6426 28.8947 29.8128 28.8947 27.4201V11.9377C28.8947 11.5154 28.7538 11.0932 28.3311 10.8117ZM17.6231 28.828H11.9867V17.5681H17.6231V28.828ZM24.6667 28.8279C25.5121 28.8279 26.0758 28.2649 26.0758 27.4204V12.6417L14.8031 3.91526L3.53034 12.6417V27.4204C3.53034 28.2649 4.09397 28.8279 4.93943 28.8279H9.1667V16.1604C9.1667 15.3159 9.73034 14.7529 10.5758 14.7529H19.0303C19.8758 14.7529 20.4394 15.3159 20.4394 16.1604V28.8279H24.6667Z" fill="#160E83"/>
</svg>