<svg width="20" height="24" viewBox="0 0 20 24" fill="none" xmlns="http://www.w3.org/2000/svg">
<path fill-rule="evenodd" clip-rule="evenodd" d="M9.53827 6.76926C8.80382 6.76926 8.09945 7.06102 7.58011 7.58036C7.06078 8.09969 6.76902 8.80406 6.76902 9.53851C6.76902 10.273 7.06078 10.9773 7.58011 11.4967C8.09945 12.016 8.80382 12.3078 9.53827 12.3078C10.2727 12.3078 10.9771 12.016 11.4964 11.4967C12.0158 10.9773 12.3075 10.273 12.3075 9.53851C12.3075 8.80406 12.0158 8.09969 11.4964 7.58036C10.9771 7.06102 10.2727 6.76926 9.53827 6.76926ZM6.27468 6.27492C7.14023 5.40936 8.31418 4.9231 9.53827 4.9231C10.7624 4.9231 11.9363 5.40936 12.8019 6.27492C13.6674 7.14048 14.1537 8.31443 14.1537 9.53851C14.1537 10.7626 13.6674 11.9365 12.8019 12.8021C11.9363 13.6677 10.7624 14.1539 9.53827 14.1539C8.31418 14.1539 7.14023 13.6677 6.27468 12.8021C5.40912 11.9365 4.92285 10.7626 4.92285 9.53851C4.92285 8.31443 5.40912 7.14048 6.27468 6.27492Z" fill="#160E83"/>
<path fill-rule="evenodd" clip-rule="evenodd" d="M9.53853 1.84617C8.52835 1.84617 7.52807 2.04514 6.59479 2.43171C5.66151 2.81829 4.81351 3.38491 4.09921 4.09921C3.38491 4.81351 2.81829 5.66151 2.43171 6.59479C2.04514 7.52807 1.84617 8.52835 1.84617 9.53853C1.84617 12.4166 3.79958 15.5792 5.93907 18.1389C6.98697 19.3927 8.03746 20.4528 8.82688 21.1999C9.09967 21.4581 9.34058 21.6782 9.53853 21.8553C9.73648 21.6782 9.97739 21.4581 10.2502 21.1999C11.0396 20.4528 12.0901 19.3927 13.138 18.1389C15.2775 15.5792 17.2309 12.4166 17.2309 9.53853C17.2309 8.52835 17.0319 7.52807 16.6453 6.59479C16.2588 5.66151 15.6922 4.81351 14.9779 4.09921C14.2635 3.38491 13.4156 2.81829 12.4823 2.43171C11.549 2.04514 10.5487 1.84617 9.53853 1.84617ZM9.53853 23.0771C8.95261 23.7904 8.95242 23.7902 8.9522 23.79L8.94979 23.7881L8.94384 23.7831L8.92279 23.7657C8.90475 23.7506 8.87878 23.7289 8.8454 23.7006C8.77866 23.6441 8.68228 23.5616 8.56048 23.4551C8.31696 23.242 7.97143 22.9322 7.55785 22.5408C6.73188 21.759 5.62851 20.6461 4.52254 19.3229C2.35431 16.7288 0 13.1221 0 9.53853C0 8.28591 0.246721 7.04556 0.726077 5.88829C1.20543 4.73102 1.90804 3.6795 2.79377 2.79377C3.6795 1.90804 4.73102 1.20543 5.88829 0.726077C7.04556 0.246721 8.28591 0 9.53853 0C10.7911 0 12.0315 0.246721 13.1888 0.726077C14.346 1.20543 15.3976 1.90804 16.2833 2.79377C17.169 3.6795 17.8716 4.73102 18.351 5.88829C18.8303 7.04556 19.0771 8.28591 19.0771 9.53853C19.0771 13.1221 16.7227 16.7288 14.5545 19.3229C13.4486 20.6461 12.3452 21.759 11.5192 22.5408C11.1056 22.9322 10.7601 23.242 10.5166 23.4551C10.3948 23.5616 10.2984 23.6441 10.2317 23.7006C10.1983 23.7289 10.1723 23.7506 10.1543 23.7657L10.1332 23.7831L10.1273 23.7881L10.1255 23.7895C10.1252 23.7897 10.1244 23.7904 9.53853 23.0771ZM9.53853 23.0771L10.1244 23.7904C9.78392 24.0701 9.29274 24.0698 8.9522 23.79L9.53853 23.0771Z" fill="#160E83"/>
</svg>
