<svg width="33" height="33" viewBox="0 0 33 33" fill="none" xmlns="http://www.w3.org/2000/svg">
<path d="M19.3854 11.0167C20.4657 9.13021 19.8246 6.7179 17.9535 5.62871C16.0824 4.53951 13.6898 5.18589 12.6095 7.07243L4.53111 21.1802C3.45084 23.0667 4.09192 25.479 5.96302 26.5682C7.83411 27.6574 10.2267 27.011 11.3069 25.1245L19.3854 11.0167Z" fill="#F8BB2D"/>
<path d="M11.8263 23.1544C11.8263 25.3334 10.0743 27.0998 7.91313 27.0998C5.75197 27.0998 4 25.3334 4 23.1544C4 20.9754 5.75197 19.209 7.91313 19.209C10.0743 19.209 11.8263 20.9754 11.8263 23.1544Z" fill="#3BA757"/>
<path d="M12.621 11.0167C11.5407 9.13021 12.1818 6.7179 14.0529 5.62871C15.924 4.53951 18.3165 5.18589 19.3968 7.07243L27.4752 21.1802C28.5555 23.0667 27.9144 25.479 26.0433 26.5682C24.1722 27.6574 21.7797 27.011 20.6994 25.1245L12.621 11.0167Z" fill="#4689F2"/>
</svg>
