<svg width="33" height="33" viewBox="0 0 33 33" fill="none" xmlns="http://www.w3.org/2000/svg">
<path d="M16.1634 29.5532C23.4036 29.5532 29.2727 23.7884 29.2727 16.677C29.2727 9.56565 23.4036 3.80078 16.1634 3.80078C8.92341 3.80078 3.0542 9.56565 3.0542 16.677C3.0542 23.7884 8.92341 29.5532 16.1634 29.5532Z" stroke="#0095FF" stroke-width="2" stroke-linecap="round" stroke-linejoin="round"/>
<path d="M3.0542 16.6777H29.2727" stroke="#0095FF" stroke-width="2" stroke-linecap="round" stroke-linejoin="round"/>
<path d="M16.1621 29.5527L16.1621 3.80035" stroke="#0095FF" stroke-width="2" stroke-linecap="round" stroke-linejoin="round"/>
<path d="M23.5513 16.3672C23.1762 20.9383 20.5021 25.3158 15.9155 28.8672C11.329 25.3158 8.65485 20.9383 8.27979 16.3672C8.65485 11.7961 11.329 7.41844 15.9155 3.86719C20.5021 7.41844 23.1762 11.7961 23.5513 16.3672Z" stroke="#0095FF" stroke-width="2" stroke-linecap="round" stroke-linejoin="round"/>
</svg>
