<svg width="24" height="24" viewBox="0 0 24 24" fill="none" xmlns="http://www.w3.org/2000/svg">
<path fill-rule="evenodd" clip-rule="evenodd" d="M12 0C5.34545 0 0 5.34545 0 12C0 18.6545 5.34545 24 12 24C18.6545 24 24 18.6545 24 12C24 5.34545 18.6545 0 12 0ZM11.9961 21.8179C6.54152 21.8179 2.17788 17.4542 2.17788 11.9997C2.17788 6.54513 6.54152 2.18149 11.9961 2.18149C17.4506 2.18149 21.8142 6.54513 21.8142 11.9997C21.8142 17.4542 17.4506 21.8179 11.9961 21.8179ZM13.5279 12.0007L16.037 9.49156C16.4734 9.0552 16.4734 8.40066 16.037 7.96429C15.6007 7.52793 14.9461 7.52793 14.5097 7.96429L12.0007 10.4734L9.49156 7.96429C9.0552 7.52793 8.40066 7.52793 7.96429 7.96429C7.52793 8.40066 7.52793 9.0552 7.96429 9.49156L10.4734 12.0007L7.96429 14.5097C7.52793 14.9461 7.52793 15.6007 7.96429 16.037C8.18247 16.2552 8.40066 16.3643 8.72793 16.3643C9.0552 16.3643 9.27338 16.2552 9.49156 16.037L12.0007 13.5279L14.5097 16.037C14.7279 16.2552 14.9461 16.3643 15.2734 16.3643C15.6007 16.3643 15.8188 16.2552 16.037 16.037C16.4734 15.6007 16.4734 14.9461 16.037 14.5097L13.5279 12.0007Z" fill="#6E767D"/>
</svg>
