<svg width="35" height="32" viewBox="0 0 35 32" fill="none" xmlns="http://www.w3.org/2000/svg">
<path id="Mask" fill-rule="evenodd" clip-rule="evenodd" d="M29.4991 0.775391H4.69907C2.06407 0.775391 0.0490723 2.79039 0.0490723 5.42539V14.7254C0.0490723 24.1804 7.64407 31.7754 17.0991 31.7754C26.5541 31.7754 34.1491 24.1804 34.1491 14.7254V5.42539C34.1491 2.79039 32.1341 0.775391 29.4991 0.775391ZM31.0497 14.7251C31.0497 22.4751 24.8497 28.6751 17.0997 28.6751C9.34966 28.6751 3.14966 22.4751 3.14966 14.7251V5.42512C3.14966 4.49512 3.76966 3.87512 4.69966 3.87512H29.4997C30.4297 3.87512 31.0497 4.49512 31.0497 5.42512V14.7251ZM24.3849 14.2601C25.0049 13.6401 25.0049 12.7101 24.3849 12.0901C23.7649 11.4701 22.8349 11.4701 22.2149 12.0901L17.0999 17.2051L11.9849 12.0901C11.3649 11.4701 10.4349 11.4701 9.81485 12.0901C9.19485 12.7101 9.19485 13.6401 9.81485 14.2601L16.0149 20.4601C16.3249 20.7701 16.6349 20.9251 17.0999 20.9251C17.5649 20.9251 17.8749 20.7701 18.1849 20.4601L24.3849 14.2601Z" fill="#160E83"/>
</svg>
