<svg xmlns="http://www.w3.org/2000/svg" width="25" height="22" viewBox="0 0 25 22" fill="none">
    <path fill-rule="evenodd" clip-rule="evenodd" d="M4.16478 5.5C4.16478 2.42 6.45538 0 9.37069 0C12.286 0 14.5766 2.42 14.5766 5.5C14.5766 8.58 12.286 11 9.37069 11C6.45538 11 4.16478 8.58 4.16478 5.5ZM18.7413 18.7001V20.9001C18.7413 21.5601 18.3248 22.0001 17.7001 22.0001C17.0754 22.0001 16.6589 21.5601 16.6589 20.9001V18.7001C16.6589 16.8301 15.3054 15.4001 13.5354 15.4001H5.20591C3.4359 15.4001 2.08236 16.8301 2.08236 18.7001V20.9001C2.08236 21.5601 1.66589 22.0001 1.04118 22.0001C0.416473 22.0001 0 21.5601 0 20.9001V18.7001C0 15.6201 2.2906 13.2001 5.20591 13.2001H13.5354C16.4507 13.2001 18.7413 15.6201 18.7413 18.7001ZM9.37072 8.8001C7.60071 8.8001 6.24717 7.3701 6.24717 5.5001C6.24717 3.6301 7.60071 2.2001 9.37072 2.2001C11.1407 2.2001 12.4943 3.6301 12.4943 5.5001C12.4943 7.3701 11.1407 8.8001 9.37072 8.8001ZM21.0318 13.4197C20.5112 13.3097 19.8865 13.6397 19.7824 14.1897C19.6783 14.7397 19.9906 15.3997 20.5112 15.5097C21.8648 15.8397 22.8018 17.1597 22.8018 18.6997V20.8997C22.8018 21.5597 23.2183 21.9997 23.843 21.9997C24.4677 21.9997 24.8842 21.5597 24.8842 20.8997V18.6997C24.9883 16.1697 23.4265 13.9697 21.0318 13.4197ZM15.6178 0.990219C15.826 0.330219 16.3466 0.000218687 16.8672 0.220219C19.6784 0.880219 21.3443 3.96022 20.6154 7.04022C20.199 9.02022 18.7413 10.4502 16.8672 11.0002H16.6589C16.1383 11.0002 15.7219 10.6702 15.6178 10.1202C15.4095 9.57022 15.826 8.91022 16.3466 8.80022C17.4919 8.47022 18.3248 7.59022 18.6372 6.38022C19.0537 4.51022 18.0125 2.75022 16.3466 2.31022C15.826 2.20022 15.5136 1.54022 15.6178 0.990219Z" fill="#160E83"/>
</svg>