<svg width="26" height="26" viewBox="0 0 26 26" fill="none" xmlns="http://www.w3.org/2000/svg">
<path opacity="0.1" d="M18.7778 0H7.22222C3.2335 0 0 3.2335 0 7.22222V18.7778C0 22.7665 3.2335 26 7.22222 26H18.7778C22.7665 26 26 22.7665 26 18.7778V7.22222C26 3.2335 22.7665 0 18.7778 0Z" fill="#160E83"/>
<path d="M16.6088 6.5H10.1088C9.6165 6.50057 9.14454 6.69639 8.79644 7.04449C8.44834 7.39259 8.25253 7.86455 8.25195 8.35683V17.6432C8.25253 18.1355 8.44834 18.6074 8.79644 18.9555C9.14454 19.3036 9.6165 19.4994 10.1088 19.5H16.6088C17.1011 19.4994 17.573 19.3036 17.9211 18.9555C18.2692 18.6074 18.465 18.1355 18.4656 17.6432V8.35683C18.465 7.86455 18.2692 7.39259 17.9211 7.04449C17.573 6.69639 17.1011 6.50057 16.6088 6.5V6.5ZM13.3588 14.3932H11.0376C10.9144 14.3932 10.7963 14.3442 10.7092 14.2571C10.6221 14.1701 10.5732 14.0519 10.5732 13.9288C10.5732 13.8056 10.6221 13.6875 10.7092 13.6004C10.7963 13.5133 10.9144 13.4644 11.0376 13.4644H13.3588C13.4819 13.4644 13.6001 13.5133 13.6872 13.6004C13.7743 13.6875 13.8232 13.8056 13.8232 13.9288C13.8232 14.0519 13.7743 14.1701 13.6872 14.2571C13.6001 14.3442 13.4819 14.3932 13.3588 14.3932V14.3932ZM15.68 12.0719H11.0376C10.9144 12.0719 10.7963 12.023 10.7092 11.9359C10.6221 11.8488 10.5732 11.7307 10.5732 11.6076C10.5732 11.4844 10.6221 11.3663 10.7092 11.2792C10.7963 11.1921 10.9144 11.1432 11.0376 11.1432H15.6807C15.8039 11.1432 15.922 11.1921 16.0091 11.2792C16.0962 11.3663 16.1451 11.4844 16.1451 11.6076C16.1451 11.7307 16.0962 11.8488 16.0091 11.9359C15.922 12.023 15.8039 12.0719 15.6807 12.0719H15.68ZM15.68 9.75072H11.0376C10.9144 9.75072 10.7963 9.70179 10.7092 9.6147C10.6221 9.52761 10.5732 9.4095 10.5732 9.28633C10.5732 9.16317 10.6221 9.04505 10.7092 8.95796C10.7963 8.87087 10.9144 8.82194 11.0376 8.82194H15.6807C15.8039 8.82194 15.922 8.87087 16.0091 8.95796C16.0962 9.04505 16.1451 9.16317 16.1451 9.28633C16.1451 9.4095 16.0962 9.52761 16.0091 9.6147C15.922 9.70179 15.8039 9.75072 15.6807 9.75072H15.68Z" fill="#160E83"/>
</svg>
