<svg width="20" height="20" viewBox="0 0 20 20" fill="none" xmlns="http://www.w3.org/2000/svg">
<path d="M14.4444 0H5.55556C2.48731 0 0 2.48731 0 5.55556V14.4444C0 17.5127 2.48731 20 5.55556 20H14.4444C17.5127 20 20 17.5127 20 14.4444V5.55556C20 2.48731 17.5127 0 14.4444 0Z" fill="#160E83"/>
<path fill-rule="evenodd" clip-rule="evenodd" d="M16.8318 6.87273C16.7932 6.83409 16.7739 6.79545 16.7545 6.75682C16.7352 6.71818 16.7159 6.67955 16.6773 6.64091L11.2682 1.23182C11.1909 1.15455 11.1136 1.07727 11.0364 1.07727C10.9591 1 10.8045 1 10.7273 1H5.31818C4.00455 1 3 2.00455 3 3.31818V15.6818C3 16.9955 4.00455 18 5.31818 18H14.5909C15.9045 18 16.9091 16.9955 16.9091 15.6818V7.18182C16.9091 7.10455 16.9091 6.95 16.8318 6.87273ZM11.5 3.6272L14.2818 6.40901H11.5V3.6272ZM5.31823 16.4546H14.591C15.0546 16.4546 15.3637 16.1455 15.3637 15.6819V7.95459H10.7273C10.2637 7.95459 9.95459 7.6455 9.95459 7.18187V2.5455H5.31823C4.85459 2.5455 4.5455 2.85459 4.5455 3.31823V15.6819C4.5455 16.1455 4.85459 16.4546 5.31823 16.4546Z" fill="white"/>
</svg>
