<svg width="21" height="21" viewBox="0 0 21 21" fill="none" xmlns="http://www.w3.org/2000/svg">
<path fill-rule="evenodd" clip-rule="evenodd" d="M17.3359 0.9375H3.33594C1.63594 0.9375 0.335938 2.2375 0.335938 3.9375V17.9375C0.335938 19.6375 1.63594 20.9375 3.33594 20.9375H17.3359C19.0359 20.9375 20.3359 19.6375 20.3359 17.9375V3.9375C20.3359 2.2375 19.0359 0.9375 17.3359 0.9375ZM18.3359 17.9375C18.3359 18.5375 17.9359 18.9375 17.3359 18.9375H3.33594C2.73594 18.9375 2.33594 18.5375 2.33594 17.9375V3.9375C2.33594 3.3375 2.73594 2.9375 3.33594 2.9375H17.3359C17.9359 2.9375 18.3359 3.3375 18.3359 3.9375V17.9375ZM11.7359 10.9375L14.0359 8.6375C14.4359 8.2375 14.4359 7.6375 14.0359 7.2375C13.6359 6.8375 13.0359 6.8375 12.6359 7.2375L10.3359 9.5375L8.03594 7.2375C7.63594 6.8375 7.03594 6.8375 6.63594 7.2375C6.23594 7.6375 6.23594 8.2375 6.63594 8.6375L8.93594 10.9375L6.63594 13.2375C6.23594 13.6375 6.23594 14.2375 6.63594 14.6375C6.83594 14.8375 7.03594 14.9375 7.33594 14.9375C7.63594 14.9375 7.83594 14.8375 8.03594 14.6375L10.3359 12.3375L12.6359 14.6375C12.8359 14.8375 13.0359 14.9375 13.3359 14.9375C13.6359 14.9375 13.8359 14.8375 14.0359 14.6375C14.4359 14.2375 14.4359 13.6375 14.0359 13.2375L11.7359 10.9375Z" fill="#FF0000"/>
</svg>
