<svg width="18" height="27" viewBox="0 0 18 27" fill="none" xmlns="http://www.w3.org/2000/svg">
<path id="Shape" fill-rule="evenodd" clip-rule="evenodd" d="M17.3333 9.10763C17.3333 4.35088 13.4333 0.458984 8.66667 0.458984C3.9 0.458984 0 4.35088 0 9.10763C0 11.9184 1.3 14.4049 3.35833 15.9184L2.16667 25.2157C2.05833 25.6482 2.275 26.0806 2.6 26.2968C2.925 26.513 3.35833 26.513 3.79167 26.2968L8.66667 23.3779L13.5417 26.2968C13.65 26.4049 13.8667 26.4049 14.0833 26.4049C14.3 26.4049 14.5167 26.2968 14.625 26.1887C14.95 25.9725 15.1667 25.5401 15.0583 25.1076L13.8667 15.9184C16.0333 14.4049 17.3333 11.9184 17.3333 9.10763ZM2.16658 9.10761C2.16658 5.54004 5.09158 2.62112 8.66658 2.62112C12.2416 2.62112 15.1666 5.54004 15.1666 9.10761C15.1666 12.6752 12.2416 15.5941 8.66658 15.5941C5.09158 15.5941 2.16658 12.6752 2.16658 9.10761ZM9.20842 21.2157L12.6751 23.2698L11.9168 17.1076C10.9418 17.54 9.85842 17.7563 8.66675 17.7563C7.47508 17.7563 6.39175 17.54 5.41675 17.1076L4.65842 23.2698L8.12508 21.2157C8.45008 20.9995 8.88342 20.9995 9.20842 21.2157Z" fill="#160E83"/>
</svg>
