<svg width="29" height="24" viewBox="0 0 29 24" fill="none" xmlns="http://www.w3.org/2000/svg">
<path fill-rule="evenodd" clip-rule="evenodd" d="M10.204 0C6.84414 0 4.20421 2.63992 4.20421 5.99983C4.20421 9.35973 6.84414 11.9997 10.204 11.9997C13.5639 11.9997 16.2039 9.35973 16.2039 5.99983C16.2039 2.63992 13.5639 0 10.204 0ZM20.3994 22.8V20.4001C20.3994 17.0402 17.7595 14.4002 14.3996 14.4002H5.99983C2.63992 14.4002 0 17.0402 0 20.4001V22.8C0 23.52 0.479986 24 1.19997 24C1.91994 24 2.39993 23.52 2.39993 22.8V20.4001C2.39993 18.3601 3.95989 16.8002 5.99983 16.8002H14.3996C16.4395 16.8002 17.9995 18.3601 17.9995 20.4001V22.8C17.9995 23.52 18.4795 24 19.1994 24C19.9194 24 20.3994 23.52 20.3994 22.8ZM6.60179 6.00029C6.60179 8.04023 8.16175 9.60019 10.2017 9.60019C12.2416 9.60019 13.8016 8.04023 13.8016 6.00029C13.8016 3.96035 12.2416 2.4004 10.2017 2.4004C8.16175 2.4004 6.60179 3.96035 6.60179 6.00029ZM28.437 8.03975L26.2771 10.1997L28.437 12.3596C28.917 12.8396 28.917 13.5596 28.437 14.0396C28.1971 14.2796 27.8371 14.3996 27.5971 14.3996C27.3571 14.3996 26.9971 14.2796 26.7571 14.0396L24.5972 11.8796L22.4372 14.0396C22.1972 14.2796 21.8372 14.3996 21.5972 14.3996C21.3573 14.3996 20.9973 14.2796 20.7573 14.0396C20.2773 13.5596 20.2773 12.8396 20.7573 12.3596L22.9172 10.1997L20.7573 8.03975C20.2773 7.55976 20.2773 6.83978 20.7573 6.3598C21.2373 5.87981 21.9572 5.87981 22.4372 6.3598L24.5972 8.51973L26.7571 6.3598C27.2371 5.87981 27.9571 5.87981 28.437 6.3598C28.917 6.83978 28.917 7.55976 28.437 8.03975Z" fill="#160E83"/>
</svg>
