<svg width="32" height="24" viewBox="0 0 32 24" fill="none" xmlns="http://www.w3.org/2000/svg">
<mask id="mask0_5190_109749" style="mask-type:luminance" maskUnits="userSpaceOnUse" x="0" y="0" width="32" height="24">
<rect width="32" height="24" fill="white"/>
</mask>
<g mask="url(#mask0_5190_109749)">
<path fill-rule="evenodd" clip-rule="evenodd" d="M0 0V24H32V0H0Z" fill="#FFD221"/>
<mask id="mask1_5190_109749" style="mask-type:luminance" maskUnits="userSpaceOnUse" x="0" y="0" width="32" height="24">
<path fill-rule="evenodd" clip-rule="evenodd" d="M0 0V24H32V0H0Z" fill="white"/>
</mask>
<g mask="url(#mask1_5190_109749)">
<path d="M-3.06641 10.6152L-1.05842 6.03613L33.7682 21.3081L31.7603 25.8872L-3.06641 10.6152Z" fill="#313131"/>
<path d="M-3.01562 5.56956L-1.00848 0.990112L35.5501 17.0135L33.543 21.593L-3.01562 5.56956Z" fill="#FAF9F9"/>
<path fill-rule="evenodd" clip-rule="evenodd" d="M7.32911 12.3973C5.91055 10.6565 6.1477 9.47913 6.1477 9.47913C6.1477 9.47913 7.59947 9.53218 7.58327 10.4683C7.58327 10.8639 8.104 11.2383 8.55262 11.5609C8.8921 11.805 9.19028 12.0194 9.19028 12.1908C9.19028 12.5888 9.48989 16.6006 9.48989 16.6006C9.48989 16.6006 9.28063 16.9659 8.27827 16.9659C7.27591 16.9659 7.32911 16.3885 7.32911 16.3885C7.9368 15.6434 7.32911 12.3973 7.32911 12.3973ZM24.6679 12.3973C26.0865 10.6565 25.8494 9.47913 25.8494 9.47913C25.8494 9.47913 24.3976 9.53218 24.4138 10.4683C24.4138 10.8639 23.8931 11.2383 23.4444 11.5609C23.105 11.805 22.8068 12.0194 22.8068 12.1908C22.8068 12.5888 22.5072 16.6006 22.5072 16.6006C22.5072 16.6006 22.7164 16.9659 23.7188 16.9659C24.7211 16.9659 24.6679 16.3885 24.6679 16.3885C24.0603 15.6434 24.6679 12.3973 24.6679 12.3973Z" fill="#CF1225"/>
<path fill-rule="evenodd" clip-rule="evenodd" d="M16.0582 2.87476L17.1851 3.67911L16.4467 3.87639L17.1851 4.5146L16.2657 4.28171V4.92648H17.1851L17.4924 6.43788L17.1367 6.18554L16.7809 6.43788L16.4252 6.18554L16.0694 6.43788L15.7029 6.18554L15.3365 6.43788L14.97 6.18554L14.6036 6.43788L15.0652 4.92648H15.9158V2.87476H16.0582ZM21.0835 7.9514C21.0835 7.9514 20.7401 8.25501 20.0035 7.9514C19.7574 7.84997 19.4877 7.67264 19.2063 7.48764C18.6453 7.11883 18.0379 6.71953 17.4791 6.83027C16.6401 6.99655 16.2672 7.39703 16.2672 7.39703V6.47467H16.1655H16.0079H15.9062V7.39703C15.9062 7.39703 15.5333 6.99655 14.6942 6.83027C14.1354 6.71953 13.528 7.11883 12.9671 7.48764C12.6857 7.67264 12.4159 7.84997 12.1699 7.9514C11.4333 8.25501 11.0898 7.9514 11.0898 7.9514C11.0898 7.9514 11.0898 8.20842 11.6374 8.60425C11.875 8.77598 12.1467 8.76362 12.3781 8.69457C12.2067 8.82389 12.1236 8.97582 12.3968 9.09756C12.9629 9.34986 13.8935 8.68586 13.9955 8.61104C13.8818 8.69555 12.7571 9.54136 13.2726 9.54136C13.8152 9.54136 14.6942 8.83037 14.6942 8.83037C14.6942 8.83037 13.6277 9.85369 14.2014 10.0131C14.5667 10.1146 15.0028 9.58235 15.2077 9.26706C15.2143 9.33407 15.2759 9.37508 15.343 9.41976C15.4289 9.47702 15.5239 9.5403 15.5239 9.67204C15.5239 9.84091 15.5658 9.86989 15.6026 9.8953C15.6313 9.91514 15.6568 9.9328 15.6568 10.0131V10.2464L15.5239 10.4423C15.5239 10.4423 15.5239 10.7471 15.6568 10.9893C15.7574 11.1728 15.7056 11.3271 15.6168 11.5915C15.5884 11.6762 15.5562 11.7722 15.5239 11.884C15.3911 12.3451 15.6568 13.1326 15.6568 13.1326H15.5239C15.5239 13.1326 15.6568 13.2296 15.6568 13.6179C15.6568 13.9341 15.5687 14.1137 15.4024 14.4528C15.3644 14.5302 15.3224 14.6159 15.2764 14.7134C15.0289 15.2382 15.5239 15.9055 15.5239 15.9055C15.5239 15.9055 14.6942 15.5414 14.8605 15.9055C14.9883 16.1852 15.6893 16.4572 16.0079 16.5685V16.621C16.0079 16.621 16.037 16.612 16.0867 16.5954C16.1363 16.612 16.1655 16.621 16.1655 16.621V16.5685C16.484 16.4572 17.1851 16.1852 17.3128 15.9055C17.4791 15.5414 16.6494 15.9055 16.6494 15.9055C16.6494 15.9055 17.1444 15.2382 16.8969 14.7134C16.8509 14.6159 16.8089 14.5302 16.771 14.4528L16.7709 14.4528C16.6046 14.1137 16.5166 13.9341 16.5166 13.6179C16.5166 13.2296 16.6494 13.1326 16.6494 13.1326H16.5166C16.5166 13.1326 16.7822 12.3451 16.6494 11.884C16.6172 11.7722 16.5849 11.6762 16.5565 11.5915C16.4677 11.3271 16.4159 11.1728 16.5166 10.9893C16.6494 10.7471 16.6494 10.4423 16.6494 10.4423L16.5166 10.2464V10.0131C16.5166 9.9328 16.5421 9.91514 16.5708 9.8953C16.6075 9.86989 16.6494 9.84091 16.6494 9.67204C16.6494 9.5403 16.7444 9.47702 16.8304 9.41976C16.8975 9.37508 16.959 9.33407 16.9656 9.26706C17.1706 9.58235 17.6067 10.1146 17.9719 10.0131C18.5457 9.85369 17.4791 8.83037 17.4791 8.83037C17.4791 8.83037 18.3581 9.54136 18.9007 9.54136C19.4162 9.54136 18.2915 8.69554 18.1778 8.61104C18.2798 8.68586 19.2104 9.34986 19.7765 9.09756C20.0497 8.97582 19.9667 8.82389 19.7952 8.69457C20.0267 8.76362 20.2983 8.77598 20.5359 8.60425C21.0835 8.20842 21.0835 7.9514 21.0835 7.9514ZM19.2597 8.41784C19.2597 8.41784 19.4932 8.60447 19.7952 8.69457C19.5905 8.54008 19.2597 8.41784 19.2597 8.41784ZM16.8969 9.09756C16.8069 8.97772 16.8486 9.08702 16.9656 9.26706C16.9699 9.22395 16.9513 9.17009 16.8969 9.09756ZM15.2764 9.09756C15.3664 8.97772 15.3248 9.08702 15.2077 9.26706C15.2035 9.22395 15.222 9.17009 15.2764 9.09756ZM14.0047 8.60425C14.0047 8.60425 14.0015 8.60662 13.9955 8.61104C14.0015 8.60659 14.0047 8.60425 14.0047 8.60425ZM12.9137 8.41784C12.9137 8.41784 12.6801 8.60447 12.3781 8.69457C12.5829 8.54008 12.9137 8.41784 12.9137 8.41784Z" fill="#CF1225"/>
<path fill-rule="evenodd" clip-rule="evenodd" d="M11.2264 9.578C11.2264 9.578 10.0328 11.2016 10.1656 12.9364C10.2985 14.6712 11.7139 18.7074 15.9129 18.7074C15.949 18.7074 15.9849 18.7064 16.0206 18.7064C20.47 18.7064 21.7329 14.2561 21.7329 12.6558C21.7329 11.0416 20.7263 9.578 20.7263 9.578C20.7263 9.578 20.8439 11.744 20.7263 12.6558C20.3715 15.4063 18.6387 16.6768 15.9908 16.6768C13.3265 16.6768 11.6778 15.3583 11.2264 12.6558C11.0805 11.7821 11.2264 9.578 11.2264 9.578Z" fill="#CF1225"/>
<path fill-rule="evenodd" clip-rule="evenodd" d="M9.0625 19.7512C9.0625 19.7512 9.27916 19.1307 9.5455 19.1307C9.81184 19.1307 9.03591 18.5922 9.5455 18.4399C10.0551 18.2876 10.8392 19.0469 10.8392 18.2876C10.8392 17.5282 10.1761 17.1139 10.6634 17.1139C11.1506 17.1139 11.659 16.9685 11.659 16.9685C11.659 16.9685 13.7321 19.1307 15.8077 19.1307C17.8832 19.1307 20.3791 17.1139 20.3791 17.1139C20.3791 17.1139 21.299 16.88 21.299 17.2448C21.299 17.6097 21.0972 18.1605 21.0972 18.1605C21.0972 18.1605 21.7418 18.0334 22.0697 18.1605C22.3976 18.2876 22.0697 18.8955 22.0697 18.8955V19.1307C22.0697 19.1307 22.9229 18.9428 22.9229 19.279C22.9229 19.6152 22.5111 19.4232 21.6764 19.5192C20.8417 19.6152 20.525 20.2678 20.0006 20.2678C19.4763 20.2678 19.3633 19.7512 19.3633 19.7512C19.3633 19.7512 17.7384 20.632 15.8077 20.632C13.8769 20.632 12.7106 19.7512 12.7106 19.7512C12.7106 19.7512 12.8927 20.6554 12.2758 20.4616C11.659 20.2678 11.0279 19.0388 10.2867 19.279C9.5455 19.5192 9.0625 19.7512 9.0625 19.7512Z" fill="#CF1225"/>
<path fill-rule="evenodd" clip-rule="evenodd" d="M12.0594 16.1648C12.0959 16.1308 12.1325 16.093 12.1806 16.0408C12.3168 15.893 12.3537 15.8538 12.3815 15.8359C12.3871 15.8612 12.391 15.9025 12.391 15.9592C12.391 16.3357 12.4043 16.62 12.441 16.8177C12.4671 16.9585 12.5034 17.0497 12.5675 17.0932C12.6611 17.1566 12.7555 17.1014 12.843 16.9698C13.0433 16.6687 13.4203 16.6315 13.4203 16.7464C13.4203 16.7762 13.4085 16.8084 13.3353 16.9878C13.3227 17.0187 13.3127 17.0438 13.3034 17.0681C13.252 17.2035 13.2291 17.3014 13.2403 17.3865C13.2569 17.5136 13.3506 17.5852 13.5022 17.5852C13.6709 17.5852 13.7818 17.476 13.9043 17.261C13.9162 17.24 13.9484 17.1816 13.962 17.1568L13.9621 17.1566L13.9621 17.1566L13.9681 17.1456C13.9906 17.1053 14.007 17.0782 14.0221 17.0572C14.0668 16.9949 14.0765 16.9997 14.1755 17.2336C14.2016 17.2953 14.2551 17.4252 14.3015 17.5377C14.3381 17.6265 14.3702 17.7045 14.3808 17.7294C14.4458 17.8822 14.4914 17.9723 14.5393 18.0353C14.6496 18.1801 14.7811 18.1789 14.9382 18.0445C14.9693 18.0179 15.0041 17.9917 15.0443 17.964C15.0652 17.9496 15.115 17.9176 15.1626 17.887L15.1626 17.887C15.2078 17.8579 15.251 17.8301 15.2656 17.8199C15.3568 17.7562 15.402 17.7061 15.4011 17.6321C15.4 17.5386 15.3219 17.4799 15.1663 17.422C15.1355 17.4105 15.1116 17.3997 15.0942 17.3918L15.0941 17.3917L15.0941 17.3917C15.0814 17.3859 15.0722 17.3818 15.0665 17.3802C15.0704 17.3795 15.076 17.3766 15.0849 17.3721L15.0927 17.3682C15.1904 17.3197 15.3874 17.2842 15.5634 17.2842L15.5644 17.2842C15.5726 17.2842 15.5775 17.2842 15.5804 17.2866C15.5847 17.2903 15.5845 17.2994 15.584 17.322L15.584 17.3246C15.5828 17.3776 15.5713 17.4289 15.5279 17.5918L15.5129 17.6489C15.4637 17.8402 15.45 17.9559 15.4839 18.0557C15.5335 18.2019 15.6745 18.2527 15.8935 18.2093C16.1898 18.1507 16.334 18.033 16.3717 17.8527C16.3812 17.8075 16.383 17.7729 16.3831 17.7024C16.3833 17.5862 16.3839 17.5852 16.4832 17.5852C16.6244 17.5852 16.6804 17.6353 16.7398 17.7743C16.745 17.7865 16.7503 17.7992 16.7609 17.8251C16.83 17.9916 16.8941 18.064 17.0386 18.064C17.1351 18.064 17.2022 18.0235 17.1903 17.9299C17.1873 17.9061 17.1793 17.8851 17.1648 17.8557L17.1532 17.833L17.1531 17.833C17.1454 17.8179 17.1362 17.8 17.1325 17.7924C17.0428 17.609 17.0784 17.4689 17.3868 17.2715C17.4749 17.2151 17.611 17.1197 17.7289 17.037L17.729 17.037L17.729 17.037L17.729 17.037C17.8139 16.9775 17.8894 16.9246 17.9306 16.8977C17.9339 16.9228 17.9363 16.9572 17.9386 17.0073C17.9394 17.0271 17.9417 17.0891 17.9435 17.1391L17.9459 17.2035C17.959 17.5383 18.0286 17.8448 18.1302 17.9692C18.3022 18.1799 18.4684 17.9852 18.5814 17.5215C18.6895 17.0779 18.8438 16.6596 18.9941 16.4057C19.0678 16.2813 19.1369 16.2033 19.1895 16.1796C19.2244 16.1639 19.2489 16.1751 19.285 16.2407C19.4209 16.4874 19.6299 16.7163 19.8067 16.7844C20.069 16.8854 20.2246 16.6726 20.2246 16.1993C20.2246 15.8025 20.289 15.4861 20.3956 15.242C20.4323 15.158 20.4712 15.0893 20.5097 15.0347C20.5318 15.0034 20.548 14.9845 20.5557 14.977L20.4424 14.8554C20.3904 14.9063 20.3174 15.0099 20.246 15.1732C20.1299 15.4392 20.0607 15.7791 20.0607 16.1993C20.0607 16.5735 19.9871 16.6742 19.8643 16.6269C19.731 16.5755 19.5465 16.3735 19.4278 16.1579C19.3532 16.0225 19.2426 15.9719 19.1236 16.0256C19.0326 16.0666 18.9438 16.1669 18.854 16.3184C18.694 16.5887 18.5341 17.022 18.4223 17.4807C18.3737 17.6801 18.3232 17.807 18.2558 17.8611C18.1843 17.7735 18.1214 17.4969 18.1097 17.1967L18.1074 17.134L18.1073 17.1338C18.1055 17.0835 18.1032 17.0203 18.1023 16.9997C18.0995 16.9368 18.0964 16.8953 18.0912 16.8616C18.0746 16.7538 18.02 16.6903 17.922 16.716C17.8835 16.726 17.6985 16.8546 17.5322 16.9703L17.5322 16.9703C17.4395 17.0347 17.3526 17.0951 17.3 17.1288C16.9186 17.373 16.8589 17.608 16.986 17.8679L16.9961 17.888C16.9656 17.8739 16.9444 17.838 16.9118 17.7593C16.9013 17.7339 16.8956 17.72 16.8899 17.7067C16.8069 17.5127 16.7001 17.417 16.4832 17.417C16.2746 17.417 16.2195 17.5046 16.2192 17.7022C16.2191 17.7611 16.2177 17.7874 16.2114 17.8174C16.1891 17.9241 16.0995 17.9972 15.8624 18.0441C15.7143 18.0735 15.6564 18.0526 15.6387 18.0004C15.6196 17.9442 15.6308 17.8499 15.6714 17.6918L15.686 17.6362C15.7341 17.4558 15.7462 17.4016 15.7479 17.3284C15.7507 17.2016 15.6886 17.116 15.5634 17.116C15.3647 17.116 15.1443 17.1557 15.0213 17.2168C14.8194 17.3171 14.8594 17.4868 15.1104 17.5802C15.1597 17.5985 15.1923 17.6142 15.2121 17.6237L15.2121 17.6237C15.2262 17.6305 15.2338 17.6341 15.2363 17.6334C15.2344 17.6338 15.2299 17.6375 15.2221 17.6438C15.2118 17.6521 15.196 17.6651 15.1734 17.6808C15.1615 17.6892 15.1236 17.7135 15.0818 17.7404L15.0817 17.7405L15.0817 17.7405L15.0816 17.7405L15.0815 17.7406C15.032 17.7724 14.977 17.8078 14.9529 17.8243C14.9084 17.855 14.8691 17.8846 14.8333 17.9153C14.7416 17.9937 14.7159 17.994 14.6685 17.9317C14.6316 17.8833 14.5907 17.8023 14.531 17.6621C14.5208 17.638 14.4894 17.5618 14.4533 17.4743C14.4068 17.3613 14.3525 17.2295 14.3259 17.1666C14.185 16.8335 14.0327 16.7587 13.8901 16.9574C13.8704 16.9849 13.8512 17.0167 13.8258 17.0621L13.8183 17.0757C13.8041 17.1017 13.7738 17.1568 13.7628 17.1761C13.6678 17.3429 13.5925 17.417 13.5022 17.417C13.4277 17.417 13.4076 17.4016 13.4027 17.3642C13.3964 17.316 13.4144 17.2391 13.4562 17.1293C13.4649 17.1064 13.4743 17.0826 13.4865 17.0528C13.5778 16.8293 13.5842 16.8116 13.5842 16.7464C13.5842 16.4053 12.9804 16.4649 12.7076 16.8749C12.6844 16.9098 12.6646 16.9326 12.6501 16.9439C12.6361 16.9223 12.6171 16.8673 12.602 16.7862C12.5679 16.6023 12.5549 16.3253 12.5549 15.9592C12.5549 15.7273 12.4852 15.6046 12.3354 15.6714C12.2676 15.7017 12.265 15.7043 12.0615 15.9252C12.016 15.9746 11.982 16.0097 11.9492 16.0403C11.9068 16.0798 11.87 16.1079 11.8384 16.1245C11.7919 16.1491 11.774 16.1338 11.7489 16.0255C11.7228 15.9131 11.7143 15.7545 11.7144 15.4903L11.7147 15.3796L11.715 15.2655C11.715 15.078 11.6648 14.973 11.5424 14.973C11.5005 14.973 11.4584 14.9872 11.4052 15.0143C11.3865 15.0238 11.367 15.0346 11.3408 15.0497L11.3308 15.0555L11.275 15.0878C11.1622 15.1522 11.0872 15.1814 11.0167 15.1814C11.0036 15.1814 10.9959 15.1835 10.9924 15.1844L10.9924 15.1844C10.9911 15.1848 10.9903 15.185 10.9902 15.1848C10.9901 15.1846 10.9906 15.184 10.9917 15.1826C10.9948 15.179 11.002 15.1703 11.0116 15.1515C11.0581 15.06 11.1833 14.9124 11.3847 14.7145L11.2713 14.593C11.0577 14.803 10.9235 14.9612 10.8663 15.0737C10.7871 15.2292 10.8484 15.3496 11.0167 15.3496C11.1231 15.3496 11.219 15.3123 11.3547 15.2348C11.5118 15.1451 11.5196 15.1412 11.5424 15.1412C11.5425 15.1412 11.5511 15.1592 11.5511 15.2655L11.5508 15.3789L11.5504 15.4902C11.5503 15.7679 11.5593 15.9348 11.5894 16.0645C11.6357 16.2641 11.7492 16.3608 11.9134 16.2741C11.9598 16.2497 12.0072 16.2134 12.0594 16.1648ZM12.3988 15.8257C12.4 15.8259 12.4008 15.8259 12.4012 15.8257L12.3988 15.8257ZM15.0615 17.3723C15.0586 17.3703 15.0571 17.3691 15.0571 17.3689C15.0587 17.3758 15.0603 17.38 15.0628 17.3818L15.0615 17.3723ZM17.9628 16.879L17.961 16.8794L17.9622 16.8792L17.9628 16.879Z" fill="#F6E017"/>
<path fill-rule="evenodd" clip-rule="evenodd" d="M13.8327 19.7503C13.76 19.9465 13.6453 20.0115 13.5157 19.9134C13.4763 19.8836 13.438 19.8412 13.3847 19.7726L13.3727 19.7569C13.3443 19.7195 13.2736 19.6266 13.2476 19.5943C13.136 19.4553 13.0398 19.3683 12.9353 19.3238L12.9258 19.3197L12.9257 19.3197C12.7984 19.2654 12.771 19.2538 12.7441 19.241L12.7148 19.2268C12.5616 19.152 12.4742 19.0746 12.39 18.9296C12.3241 18.8162 12.2604 18.6627 12.1523 18.3657L12.3059 18.3069C12.4105 18.5944 12.4717 18.7416 12.5308 18.8435C12.5975 18.9584 12.6601 19.0138 12.7853 19.0749L12.8114 19.0876C12.837 19.0998 12.8631 19.1109 12.9893 19.1646L12.9893 19.1646L12.9982 19.1684C13.1329 19.2259 13.2469 19.3289 13.3741 19.4873C13.4025 19.5226 13.4784 19.6224 13.5042 19.6563L13.5042 19.6563L13.5128 19.6676C13.5576 19.7253 13.5885 19.7595 13.613 19.778C13.6263 19.7881 13.627 19.7888 13.6253 19.7898C13.6367 19.7829 13.6569 19.7513 13.6795 19.6905C13.7298 19.5549 13.6856 19.4498 13.5634 19.3404C13.5589 19.3363 13.5464 19.3263 13.53 19.3132L13.53 19.3132L13.53 19.3132L13.53 19.3132C13.4831 19.2756 13.4046 19.2127 13.3901 19.1911C13.3435 19.1218 13.3834 19.0515 13.4554 19.0324C13.4878 19.0237 13.5356 19.0205 13.6121 19.0205C13.8768 19.0205 13.9496 19.176 13.9987 19.5737L13.9995 19.5802C14.0382 19.8936 14.0773 19.9797 14.2111 19.9797C14.362 19.9797 14.4539 19.9196 14.6144 19.7483L14.6495 19.7107C14.854 19.4931 14.9972 19.4199 15.2377 19.4865C15.4298 19.5397 15.512 19.6341 15.5313 19.7806C15.5334 19.797 15.5345 19.8087 15.5366 19.8366C15.546 19.9601 15.5678 19.9797 15.8068 19.9797C15.9882 19.9797 16.1569 19.9894 16.377 20.0088L16.4036 20.0112C16.4552 20.0159 16.5649 20.0259 16.5979 20.0286C16.6695 20.0345 16.7204 20.0373 16.7606 20.0373C16.7892 20.0373 16.8112 20.0358 16.8263 20.0332C16.8325 19.985 16.8609 19.9511 16.9758 19.821C16.9891 19.806 16.9993 19.7942 17.0088 19.783C17.0625 19.7196 17.0862 19.6772 17.0847 19.6704C17.0845 19.6691 17.0364 19.6518 16.9067 19.6518C16.7876 19.6518 16.728 19.637 16.7172 19.5529C16.7082 19.4826 16.7488 19.4487 16.8389 19.4008C16.942 19.3459 17.13 19.2746 17.3555 19.2028C17.5726 19.1337 17.8018 19.0715 17.9761 19.0349C18.0704 19.0151 18.1471 19.0031 18.203 18.9999C18.3096 18.9939 18.373 19.0087 18.373 19.1047C18.373 19.1447 18.4855 19.2822 18.5977 19.3446C18.7317 19.4191 18.8268 19.3908 18.8925 19.2159C18.9883 18.9605 19.1881 18.6847 19.3828 18.5268C19.4873 18.4421 19.5835 18.3965 19.6666 18.404C19.7789 18.4141 19.8376 18.5105 19.8376 18.6561H19.6736C19.6736 18.5878 19.6644 18.5727 19.6523 18.5716C19.6214 18.5688 19.559 18.5984 19.4845 18.6588C19.3126 18.7982 19.1307 19.0494 19.0455 19.2764C18.9422 19.5516 18.7361 19.6129 18.5196 19.4925C18.3869 19.4187 18.26 19.2785 18.2211 19.1675C18.1657 19.1705 18.096 19.1815 18.009 19.1997C17.8403 19.2351 17.6163 19.2959 17.4041 19.3634C17.2636 19.4082 17.1383 19.4527 17.0424 19.4918C17.1594 19.5086 17.2271 19.5521 17.2448 19.634C17.2625 19.7158 17.2226 19.787 17.1326 19.8933C17.1222 19.9056 17.1112 19.9182 17.0973 19.934C17.0179 20.0238 16.9887 20.0623 16.9887 20.0638C16.9887 20.175 16.9042 20.2056 16.7606 20.2056C16.715 20.2056 16.6604 20.2025 16.5848 20.1963C16.5509 20.1935 16.439 20.1833 16.3881 20.1787L16.3629 20.1764C16.1471 20.1573 15.9826 20.1479 15.8068 20.1479C15.484 20.1479 15.3893 20.0628 15.3732 19.8497C15.3713 19.825 15.3704 19.8153 15.3688 19.8032C15.3584 19.7243 15.3239 19.6846 15.195 19.6489C15.0269 19.6023 14.9348 19.6494 14.7675 19.8275L14.7326 19.8648C14.5437 20.0665 14.4192 20.1479 14.2111 20.1479C13.9757 20.1479 13.8986 20.022 13.8497 19.6964C13.8452 19.714 13.8395 19.732 13.8327 19.7503ZM13.8464 19.6014L13.8454 19.5948C13.8299 19.4916 13.8139 19.4125 13.7935 19.3528C13.8745 19.4552 13.9027 19.5681 13.8621 19.6964C13.8566 19.6664 13.8514 19.6348 13.8464 19.6014ZM16.8453 19.4792L16.8493 19.4804L16.8473 19.4796L16.8453 19.4792ZM16.8421 20.0295L16.838 20.0309L16.8407 20.0303L16.8421 20.0295Z" fill="#F6E017"/>
</g>
</g>
</svg>
