<svg width="32" height="24" viewBox="0 0 32 24" fill="none" xmlns="http://www.w3.org/2000/svg">
<mask id="mask0_5190_109639" style="mask-type:luminance" maskUnits="userSpaceOnUse" x="0" y="0" width="32" height="24">
<rect width="32" height="24" fill="white"/>
</mask>
<g mask="url(#mask0_5190_109639)">
<path fill-rule="evenodd" clip-rule="evenodd" d="M0 0V24H32V0H0Z" fill="#FECA00"/>
<mask id="mask1_5190_109639" style="mask-type:luminance" maskUnits="userSpaceOnUse" x="0" y="0" width="32" height="24">
<path fill-rule="evenodd" clip-rule="evenodd" d="M0 0V24H32V0H0Z" fill="white"/>
</mask>
<g mask="url(#mask1_5190_109639)">
<path fill-rule="evenodd" clip-rule="evenodd" d="M0 0V8H32V0H0Z" fill="#DB501C"/>
<path fill-rule="evenodd" clip-rule="evenodd" d="M0 16V24H32V16H0Z" fill="#5EAA22"/>
<path d="M12.4453 9.95908L12.4817 9.92383L19.7013 16.8686L19.6649 16.9038L12.4453 9.95908Z" fill="#864C26"/>
<path d="M20.2233 16.4173L20.1921 16.4569L11.793 10.2874L11.8241 10.2478L20.2233 16.4173Z" fill="#864C26"/>
<path d="M20.3995 15.8016L20.3742 15.845L11.0312 10.7594L11.0565 10.7161L20.3995 15.8016Z" fill="#A05A2C"/>
<path fill-rule="evenodd" clip-rule="evenodd" d="M11.6018 9.11218L12.3093 9.58026L12.2698 9.60723C12.2859 9.6165 12.3026 9.62645 12.3197 9.63706C12.3396 9.6494 12.3536 9.66427 12.3618 9.68136C12.3761 9.6391 12.3758 9.58778 12.3605 9.5266L12.3233 9.37756L12.4072 9.5082C12.5405 9.71579 12.5604 9.86432 12.4567 9.94836C12.3554 10.0305 12.196 10.009 11.9806 9.89071L11.8931 9.84262L11.9929 9.84413C12.075 9.84537 12.1453 9.83569 12.2041 9.81528L12.1633 9.80434C12.1287 9.79507 12.1031 9.77084 12.0857 9.73289L12.0163 9.78024L11.6018 9.11218ZM10.7533 9.64126L11.5314 9.97936L11.4963 10.0137C11.5144 10.0202 11.5333 10.0274 11.5528 10.0352C11.5745 10.0439 11.5909 10.0561 11.6019 10.0715C11.6086 10.0274 11.5993 9.97705 11.5737 9.91958L11.5112 9.77927L11.6165 9.89335C11.7839 10.0746 11.8292 10.2175 11.7417 10.3182C11.6562 10.4167 11.4955 10.4233 11.2628 10.3441L11.1683 10.312L11.2669 10.2961C11.3481 10.2831 11.4158 10.2612 11.4703 10.2308L11.4278 10.2271C11.3915 10.2239 11.3617 10.2039 11.3378 10.1684L11.2776 10.2272L10.7533 9.64126ZM10.8046 10.453L10 10.184L10.5733 10.722L10.628 10.6584C10.6551 10.6922 10.6867 10.7098 10.7235 10.7098H10.7662C10.7146 10.7449 10.649 10.7726 10.5691 10.7927L10.4723 10.8171L10.5693 10.8409C10.8079 10.8995 10.9674 10.8789 11.044 10.7734C11.1224 10.6654 11.0648 10.527 10.8823 10.361L10.7674 10.2565L10.8419 10.3909C10.8724 10.4458 10.8861 10.4951 10.8833 10.5395C10.8709 10.5252 10.8536 10.5145 10.8312 10.5077C10.8107 10.5016 10.791 10.496 10.772 10.4909L10.8046 10.453ZM10.7166 10.4775L10.7174 10.4766L10.202 10.3042L10.5693 10.6489L10.5995 10.6137C10.5941 10.6033 10.5889 10.592 10.5839 10.5799L10.5873 10.5786L10.5628 10.5522L10.6614 10.4669L10.6738 10.469C10.6875 10.4714 10.7018 10.4743 10.7166 10.4775Z" fill="#E7E7E7"/>
<path fill-rule="evenodd" clip-rule="evenodd" d="M13.4727 16.2132L14.3073 14.7245L15.4783 15.0398L14.6356 16.3986H14.3073V16.5468L13.4727 16.2132Z" fill="#925229"/>
<path fill-rule="evenodd" clip-rule="evenodd" d="M13.1129 10.4886L12.5604 11.0628L12.3594 14.857L14.3502 15.1472C14.3502 15.1472 13.4827 14.3855 13.3548 13.9155C13.2269 13.4454 13.1861 11.6906 13.428 11.4238L13.617 11.5341L13.769 11.0826" fill="#FFE000"/>
<path fill-rule="evenodd" clip-rule="evenodd" d="M11.1905 10.7474C11.1905 10.7474 10.9766 13.71 10.9766 14.2304C10.9766 14.7507 11.4183 15.9897 12.4253 15.9897C13.4323 15.9897 14.8141 15.4353 14.8141 15.2092C14.8141 14.9832 14.4015 14.8212 14.4015 14.8212C14.4015 14.8212 12.5496 14.9478 12.5496 14.2304C12.5496 13.5129 12.6754 11.3892 12.7854 11.1388C12.8953 10.8884 13.2764 10.5108 13.2764 10.5108L12.5496 9.9707L12.4253 10.5108L11.9593 10.3522L11.8172 11.1388L11.1905 10.7474Z" fill="#D52C1E"/>
<path fill-rule="evenodd" clip-rule="evenodd" d="M13.7784 11.0762L13.6445 11.4952L13.3741 11.3811C13.3741 11.3811 12.9697 13.2773 13.3741 14.0716C13.7784 14.8659 14.7968 14.9236 14.7968 14.9236L14.3665 11.4952L13.7784 11.0762Z" fill="#027934"/>
<path fill-rule="evenodd" clip-rule="evenodd" d="M13.7168 13.6383L12.7464 14.4058C12.7464 14.4058 12.4802 14.7873 12.7464 15.0761C13.0125 15.3649 13.7505 15.6594 13.9246 15.3107C14.0987 14.9621 14.6159 14.5537 14.6159 14.5537L13.7168 13.6383Z" fill="#E8A30C"/>
<path fill-rule="evenodd" clip-rule="evenodd" d="M14.4805 10.7425C14.7167 10.5372 14.835 10.2867 14.7449 10.183C14.6548 10.0794 14.3903 10.1617 14.1541 10.367C13.918 10.5722 13.7996 10.8227 13.8898 10.9264C13.9799 11.0301 14.2444 10.9477 14.4805 10.7425Z" fill="#E1E5E8"/>
<path fill-rule="evenodd" clip-rule="evenodd" d="M13.8837 9.30331C13.8837 9.30331 13.7886 9.28385 13.7456 9.27733C13.4386 9.2308 13.2852 9.2934 13.2852 9.46512C13.2852 9.75879 13.4808 10.0759 13.4808 10.2977C13.4808 10.5195 13.4903 10.8648 13.5844 10.6922C13.6785 10.5195 14.1571 10.0007 14.1571 10.0007L13.8837 9.55058C13.8837 9.55058 14.5625 9.62693 14.2644 9.46512" fill="#D52C1E"/>
<path fill-rule="evenodd" clip-rule="evenodd" d="M15.9704 15.3781L15.4613 15.373C15.0833 15.7467 15.0485 16.2496 15.3461 16.8569C15.3461 16.8569 15.4437 16.9981 15.4779 16.9849C15.5258 16.9665 15.5924 16.762 15.5924 16.762C15.5697 16.1689 15.9477 15.7761 15.9704 15.3781Z" fill="#D52C1E"/>
<path fill-rule="evenodd" clip-rule="evenodd" d="M15.3241 15.3936L15.5072 15.3085C15.6876 15.6833 15.5972 16.0714 15.2491 16.4569L15.0977 16.3248C15.2491 15.8827 15.2491 15.6995 15.3241 15.3936Z" fill="#FFE000"/>
<path d="M15.0905 15.3816L15.2815 15.3257C15.3734 15.6396 15.3275 15.9634 15.1471 16.292L14.9727 16.1963C15.1286 15.9122 15.1668 15.6424 15.0905 15.3816Z" fill="#027934"/>
<path d="M19.5547 9.95908L19.5183 9.92383L12.2987 16.8686L12.3351 16.9038L19.5547 9.95908Z" fill="#864C26"/>
<path d="M11.7767 16.4173L11.8079 16.4569L20.207 10.2874L20.1759 10.2478L11.7767 16.4173Z" fill="#864C26"/>
<path d="M11.6005 15.8016L11.6258 15.845L20.9688 10.7594L20.9435 10.7161L11.6005 15.8016Z" fill="#A05A2C"/>
<path fill-rule="evenodd" clip-rule="evenodd" d="M20.3982 9.11218L19.6907 9.58026L19.7302 9.60723C19.7141 9.6165 19.6974 9.62645 19.6803 9.63706C19.6604 9.6494 19.6464 9.66427 19.6382 9.68136C19.6239 9.6391 19.6242 9.58778 19.6395 9.5266L19.6767 9.37756L19.5928 9.5082C19.4595 9.71579 19.4396 9.86432 19.5433 9.94836C19.6446 10.0305 19.804 10.009 20.0194 9.89071L20.1069 9.84262L20.0071 9.84413C19.925 9.84537 19.8547 9.83569 19.7959 9.81528L19.8367 9.80434C19.8713 9.79507 19.8969 9.77084 19.9143 9.73289L19.9837 9.78024L20.3982 9.11218ZM21.2467 9.64126L20.4686 9.97936L20.5037 10.0137C20.4856 10.0202 20.4667 10.0274 20.4472 10.0352C20.4255 10.0439 20.4091 10.0561 20.3981 10.0715C20.3914 10.0274 20.4007 9.97705 20.4263 9.91958L20.4888 9.77927L20.3835 9.89335C20.2161 10.0746 20.1708 10.2175 20.2583 10.3182C20.3438 10.4167 20.5045 10.4233 20.7372 10.3441L20.8317 10.312L20.7331 10.2961C20.6519 10.2831 20.5842 10.2612 20.5297 10.2308L20.5722 10.2271C20.6085 10.2239 20.6383 10.2039 20.6622 10.1684L20.7224 10.2272L21.2467 9.64126ZM21.1954 10.453L22 10.184L21.4267 10.722L21.372 10.6584C21.3449 10.6922 21.3133 10.7098 21.2765 10.7098H21.2338C21.2854 10.7449 21.351 10.7726 21.4309 10.7927L21.5277 10.8171L21.4307 10.8409C21.1921 10.8995 21.0326 10.8789 20.956 10.7734C20.8776 10.6654 20.9352 10.527 21.1177 10.361L21.2326 10.2565L21.1581 10.3909C21.1276 10.4458 21.1139 10.4951 21.1167 10.5395C21.1291 10.5252 21.1464 10.5145 21.1688 10.5077C21.1893 10.5016 21.209 10.496 21.228 10.4909L21.1954 10.453ZM21.2834 10.4775L21.2826 10.4766L21.798 10.3042L21.4307 10.6489L21.4005 10.6137C21.4059 10.6033 21.4111 10.592 21.4161 10.5799L21.4127 10.5786L21.4372 10.5522L21.3386 10.4669L21.3262 10.469C21.3125 10.4714 21.2982 10.4743 21.2834 10.4775Z" fill="#E7E7E7"/>
<path fill-rule="evenodd" clip-rule="evenodd" d="M18.5273 16.2132L17.6927 14.7245L16.5217 15.0398L17.3644 16.3986H17.6927V16.5468L18.5273 16.2132Z" fill="#925229"/>
<path fill-rule="evenodd" clip-rule="evenodd" d="M18.8871 10.4886L19.4396 11.0628L19.6406 14.857L17.6498 15.1472C17.6498 15.1472 18.5173 14.3855 18.6452 13.9155C18.7731 13.4454 18.8139 11.6906 18.572 11.4238L18.383 11.5341L18.231 11.0826" fill="#FFE000"/>
<path fill-rule="evenodd" clip-rule="evenodd" d="M20.8095 10.7474C20.8095 10.7474 21.0234 13.71 21.0234 14.2304C21.0234 14.7507 20.5817 15.9897 19.5747 15.9897C18.5677 15.9897 17.1859 15.4353 17.1859 15.2092C17.1859 14.9832 17.5985 14.8212 17.5985 14.8212C17.5985 14.8212 19.4504 14.9478 19.4504 14.2304C19.4504 13.5129 19.3246 11.3892 19.2146 11.1388C19.1047 10.8884 18.7236 10.5108 18.7236 10.5108L19.4504 9.9707L19.5747 10.5108L20.0407 10.3522L20.1828 11.1388L20.8095 10.7474Z" fill="#D52C1E"/>
<path fill-rule="evenodd" clip-rule="evenodd" d="M18.2216 11.0762L18.3555 11.4952L18.6259 11.3811C18.6259 11.3811 19.0303 13.2773 18.6259 14.0716C18.2216 14.8659 17.2032 14.9236 17.2032 14.9236L17.6335 11.4952L18.2216 11.0762Z" fill="#027934"/>
<path fill-rule="evenodd" clip-rule="evenodd" d="M18.2832 13.6383L19.2536 14.4058C19.2536 14.4058 19.5198 14.7873 19.2536 15.0761C18.9875 15.3649 18.2495 15.6594 18.0754 15.3107C17.9013 14.9621 17.3841 14.5537 17.3841 14.5537L18.2832 13.6383Z" fill="#E8A30C"/>
<path fill-rule="evenodd" clip-rule="evenodd" d="M17.5195 10.7425C17.2833 10.5372 17.165 10.2867 17.2551 10.183C17.3452 10.0794 17.6097 10.1617 17.8459 10.367C18.082 10.5722 18.2004 10.8227 18.1102 10.9264C18.0201 11.0301 17.7556 10.9477 17.5195 10.7425Z" fill="#E1E5E8"/>
<path fill-rule="evenodd" clip-rule="evenodd" d="M16.0296 15.3781L16.5387 15.373C16.9167 15.7467 16.9515 16.2496 16.6539 16.8569C16.6539 16.8569 16.5563 16.9981 16.5221 16.9849C16.4742 16.9665 16.4076 16.762 16.4076 16.762C16.4303 16.1689 16.0523 15.7761 16.0296 15.3781Z" fill="#D52C1E"/>
<path fill-rule="evenodd" clip-rule="evenodd" d="M16.6759 15.3936L16.4928 15.3085C16.3124 15.6833 16.4028 16.0714 16.7509 16.4569L16.9023 16.3248C16.7509 15.8827 16.7509 15.6995 16.6759 15.3936Z" fill="#FFE000"/>
<path d="M16.9095 15.3816L16.7185 15.3257C16.6266 15.6396 16.6725 15.9634 16.8529 16.292L17.0273 16.1963C16.8714 15.9122 16.8332 15.6424 16.9095 15.3816Z" fill="#027934"/>
<path fill-rule="evenodd" clip-rule="evenodd" d="M13.5547 12.8209C13.5547 14.2601 14.6174 15.4577 15.9753 15.4577C17.3332 15.4577 18.3959 14.2601 18.3959 12.8209C18.3959 11.3817 17.3332 10.1841 15.9753 10.1841C14.6174 10.1841 13.5547 11.3817 13.5547 12.8209ZM17.8294 12.8209C17.8294 13.9749 16.9993 14.9104 15.9753 14.9104C14.9513 14.9104 14.1212 13.9749 14.1212 12.8209C14.1212 11.6669 14.9513 10.7313 15.9753 10.7313C16.9993 10.7313 17.8294 11.6669 17.8294 12.8209Z" fill="#00A6DE"/>
<path fill-rule="evenodd" clip-rule="evenodd" d="M15.9752 14.9104C16.9991 14.9104 17.8292 13.9749 17.8292 12.8209C17.8292 11.6668 16.9991 10.7313 15.9752 10.7313C14.9512 10.7313 14.1211 11.6668 14.1211 12.8209C14.1211 13.9749 14.9512 14.9104 15.9752 14.9104Z" fill="#FFC036"/>
<mask id="mask2_5190_109639" style="mask-type:luminance" maskUnits="userSpaceOnUse" x="14" y="10" width="4" height="5">
<path fill-rule="evenodd" clip-rule="evenodd" d="M15.9752 14.9104C16.9991 14.9104 17.8292 13.9749 17.8292 12.8209C17.8292 11.6668 16.9991 10.7313 15.9752 10.7313C14.9512 10.7313 14.1211 11.6668 14.1211 12.8209C14.1211 13.9749 14.9512 14.9104 15.9752 14.9104Z" fill="white"/>
</mask>
<g mask="url(#mask2_5190_109639)">
<path fill-rule="evenodd" clip-rule="evenodd" d="M15.9761 12.4478L15.7354 12.944L15.7414 12.396L15.3017 12.7422L15.5533 12.2511L15.0016 12.3787L15.4489 12.0416L14.8945 11.9254L15.4489 11.8091L15.0016 11.4721L15.5533 11.5997L15.3017 11.1086L15.7414 11.4547L15.7354 10.9068L15.9761 11.403L16.2167 10.9068L16.2107 11.4547L16.6504 11.1086L16.3989 11.5997L16.9505 11.4721L16.5033 11.8091L17.0576 11.9254L16.5033 12.0416L16.9505 12.3787L16.3989 12.2511L16.6504 12.7422L16.2107 12.396L16.2167 12.944L15.9761 12.4478Z" fill="#D52C1E"/>
<path fill-rule="evenodd" clip-rule="evenodd" d="M14.042 12.941C14.042 12.941 15.492 11.92 15.8482 11.92C16.2044 11.92 17.7239 12.9466 18.0348 13.0862C18.3456 13.2259 18.0348 15.9641 18.0348 15.9641H13.9219L14.042 12.941Z" fill="#027934"/>
</g>
<path fill-rule="evenodd" clip-rule="evenodd" d="M14.0332 11.7258L14.1226 11.7752C14.6112 10.9507 15.2328 10.5418 15.991 10.5418C16.8399 10.589 17.4757 11.0524 17.9001 11.9383L17.9935 11.8966C17.5539 10.9788 16.8858 10.4919 15.9939 10.4424C15.1927 10.4423 14.5389 10.8724 14.0332 11.7258ZM13.6732 13.3159L13.8397 13.2039L14.0062 13.3159L13.9475 13.1283L14.1091 13.0099L13.9063 13.0059L13.8397 12.8209L13.7731 13.0059L13.5703 13.0099L13.732 13.1283L13.6732 13.3159ZM14.0457 13.9502L13.8792 14.0621L13.938 13.8746L13.7763 13.7562L13.9791 13.7522L14.0457 13.5671L14.1123 13.7522L14.3151 13.7562L14.1535 13.8746L14.2122 14.0621L14.0457 13.9502ZM14.2912 14.6592L14.4577 14.5472L14.6242 14.6592L14.5655 14.4716L14.7271 14.3532L14.5243 14.3492L14.4577 14.1641L14.3911 14.3492L14.1883 14.3532L14.35 14.4716L14.2912 14.6592ZM15.0758 15.0447L14.9093 15.1567L14.968 14.9691L14.8064 14.8507L15.0092 14.8467L15.0758 14.6617L15.1424 14.8467L15.3452 14.8507L15.1835 14.9691L15.2423 15.1567L15.0758 15.0447ZM15.7848 15.4054L15.9513 15.2935L16.1178 15.4054L16.0591 15.2179L16.2207 15.0995L16.0179 15.0955L15.9513 14.9104L15.8847 15.0955L15.6819 15.0995L15.8435 15.2179L15.7848 15.4054ZM18.1144 13.2039L18.2809 13.3159L18.2221 13.1283L18.3838 13.0099L18.181 13.0059L18.1144 12.8209L18.0478 13.0059L17.845 13.0099L18.0066 13.1283L17.9479 13.3159L18.1144 13.2039ZM18.0749 14.0621L17.9084 13.9502L17.7419 14.0621L17.8006 13.8746L17.639 13.7562L17.8418 13.7522L17.9084 13.5671L17.975 13.7522L18.1778 13.7562L18.0161 13.8746L18.0749 14.0621ZM17.4964 14.5472L17.6629 14.6592L17.6041 14.4716L17.7658 14.3532L17.563 14.3492L17.4964 14.1641L17.4298 14.3492L17.227 14.3532L17.3886 14.4716L17.3299 14.6592L17.4964 14.5472ZM17.0448 15.1567L16.8783 15.0447L16.7118 15.1567L16.7706 14.9691L16.6089 14.8507L16.8117 14.8467L16.8783 14.6617L16.9449 14.8467L17.1477 14.8507L16.9861 14.9691L17.0448 15.1567Z" fill="#FFC036"/>
<path d="M14.683 7.00696L14.8817 7.15158C14.3723 7.60867 14.2766 8.11838 14.3741 8.55628C14.4757 9.01249 14.9275 9.49913 15.7487 9.99886L15.4468 10.4619C14.509 9.89128 13.9689 9.36326 13.8288 8.73444C13.6847 8.08731 14.0385 7.58517 14.683 7.00696Z" fill="#036A2D"/>
<path d="M17.3873 7.00696L17.1886 7.15158C17.698 7.60867 17.7938 8.11838 17.6962 8.55628C17.5946 9.01249 17.1428 9.49913 16.3216 9.99886L16.6235 10.4619C17.5613 9.89128 18.1014 9.36326 18.2415 8.73444C18.3856 8.08731 18.0318 7.58517 17.3873 7.00696Z" fill="#036A2D"/>
<path fill-rule="evenodd" clip-rule="evenodd" d="M12.7756 8.86142C12.7756 8.86142 13.645 8.2603 14.0575 8.2603C14.4701 8.2603 15.0207 8.12261 15.107 8.43887C15.1933 8.75513 15.3565 8.66354 15.676 8.66354C15.9955 8.66354 16.6234 8.66354 16.6234 8.66354C16.6234 8.66354 16.4359 8.2603 16.7834 8.2603C17.131 8.2603 18.5824 8.46566 19.0205 8.66354C19.4586 8.86142 19.4806 8.97841 19.4806 8.97841C19.4806 8.97841 19.0752 8.74444 18.6266 8.86142C18.1781 8.97841 17.3646 9.49347 16.994 9.49347C16.6234 9.49347 16.3268 9.8916 16.3268 9.8916C16.3268 9.8916 16.3513 9.68752 16.0137 9.78956C15.676 9.8916 15.6839 10.3723 15.3955 10.284C15.107 10.1958 15.4786 9.49347 15.3955 9.49347C15.3123 9.49347 14.7234 9.26263 14.7234 9.26263C14.7234 9.26263 14.1519 8.74444 13.3033 8.86142C12.4546 8.97841 12.7756 8.86142 12.7756 8.86142Z" fill="#452C24"/>
<path fill-rule="evenodd" clip-rule="evenodd" d="M15.8715 9.28847C16.0422 9.28847 16.1805 9.16597 16.1805 9.01484C16.1805 8.86372 16.0422 8.74121 15.8715 8.74121C15.7008 8.74121 15.5625 8.86372 15.5625 9.01484C15.5625 9.16597 15.7008 9.28847 15.8715 9.28847Z" fill="#E7E7E7"/>
<path fill-rule="evenodd" clip-rule="evenodd" d="M15.2031 9.00707C15.2031 9.00707 15.303 8.81812 15.5011 8.81812C15.6992 8.81812 16.0705 8.81812 16.0705 8.91259C16.0705 9.00707 16.1003 9.13049 15.8007 9.13049C15.5011 9.13049 15.6931 9.00707 15.5011 9.00707C15.3091 9.00707 15.2031 9.00707 15.2031 9.00707Z" fill="#E8A30C"/>
<path fill-rule="evenodd" clip-rule="evenodd" d="M18.7372 10.2833C18.8523 10.1628 18.9166 9.87037 18.9166 9.87037C18.9166 9.87037 18.4025 9.95267 18.2828 9.87037C18.163 9.78807 18.101 9.54688 18.101 9.54688C18.101 9.54688 17.6377 9.75855 17.8144 9.75855C17.9911 9.75855 18.101 9.9151 18.101 9.9151L18.4605 10.0475C18.4605 10.0475 18.2218 10.2833 18.3411 10.2833C18.4605 10.2833 18.622 10.4039 18.7372 10.2833Z" fill="#E1E5E8"/>
<path d="M17.8304 10.3838L17.7656 10.3064L18.2173 9.95288L18.282 10.0302L17.8304 10.3838Z" fill="#925229"/>
</g>
</g>
</svg>
