<svg width="32" height="24" viewBox="0 0 32 24" fill="none" xmlns="http://www.w3.org/2000/svg">
<mask id="mask0_5190_109156" style="mask-type:luminance" maskUnits="userSpaceOnUse" x="0" y="0" width="32" height="24">
<rect width="32" height="24" fill="white"/>
</mask>
<g mask="url(#mask0_5190_109156)">
<path fill-rule="evenodd" clip-rule="evenodd" d="M0 0H32V24H0V0Z" fill="#E31D1C"/>
<path fill-rule="evenodd" clip-rule="evenodd" d="M15.0155 4.54826L14.0053 5.15809L14.2357 3.96806L13.3945 3.07744L14.5336 3.02928L15.0155 1.91809L15.4974 3.02928H16.6345L15.7953 3.96806L16.0479 5.15809L15.0155 4.54826Z" fill="#FECA00"/>
<path fill-rule="evenodd" clip-rule="evenodd" d="M7.01729 9.60716L4.13646 11.1581L4.79356 8.1316L2.39453 5.86656L5.64295 5.74409L7.01729 2.91809L8.39164 5.74409H11.6345L9.24103 8.1316L9.96161 11.1581L7.01729 9.60716Z" fill="#FECA00"/>
<path fill-rule="evenodd" clip-rule="evenodd" d="M17.0155 8.54826L16.0053 9.15809L16.2357 7.96806L15.3945 7.07744L16.5336 7.02928L17.0155 5.91809L17.4974 7.02928H18.6345L17.7953 7.96806L18.0479 9.15809L17.0155 8.54826Z" fill="#FECA00"/>
<path fill-rule="evenodd" clip-rule="evenodd" d="M16.0155 12.5483L15.0053 13.1581L15.2357 11.9681L14.3945 11.0774L15.5336 11.0293L16.0155 9.91809L16.4974 11.0293H17.6345L16.7953 11.9681L17.0479 13.1581L16.0155 12.5483Z" fill="#FECA00"/>
<path fill-rule="evenodd" clip-rule="evenodd" d="M13.0155 15.5483L12.0053 16.1581L12.2357 14.9681L11.3945 14.0774L12.5336 14.0293L13.0155 12.9181L13.4974 14.0293H14.6345L13.7953 14.9681L14.0479 16.1581L13.0155 15.5483Z" fill="#FECA00"/>
</g>
</svg>
