<svg width="32" height="24" viewBox="0 0 32 24" fill="none" xmlns="http://www.w3.org/2000/svg">
<mask id="mask0_5190_108774" style="mask-type:luminance" maskUnits="userSpaceOnUse" x="0" y="0" width="32" height="24">
<rect width="32" height="24" fill="white"/>
</mask>
<g mask="url(#mask0_5190_108774)">
<path fill-rule="evenodd" clip-rule="evenodd" d="M0 0H32V24H0V0Z" fill="#F7FCFF"/>
<path fill-rule="evenodd" clip-rule="evenodd" d="M0 0V8H32V0H0Z" fill="#272727"/>
<path fill-rule="evenodd" clip-rule="evenodd" d="M0 16V24H32V16H0Z" fill="#5EAA22"/>
<path fill-rule="evenodd" clip-rule="evenodd" d="M0 0L16 12L0 24V0Z" fill="#E31D1C"/>
<path fill-rule="evenodd" clip-rule="evenodd" d="M21.6903 15.4771C21.6903 15.4771 19.4155 14.1023 19.4155 11.8305C19.4155 9.55872 21.6903 8.36357 21.6903 8.36357C20.6721 7.71755 17.1415 8.63953 17.1415 11.9045C17.1415 15.1695 20.639 15.7728 21.6903 15.4771ZM23.5309 11.3125L22.2069 10.0721L22.6641 11.6557L21.383 12.2626L22.9566 12.7748L23.6399 14.489L23.9387 12.9022L25.493 13.2454L24.317 12.097L24.7148 10.8717L23.5309 11.3125Z" fill="#E31D1C"/>
</g>
</svg>
