<svg width="32" height="24" viewBox="0 0 32 24" fill="none" xmlns="http://www.w3.org/2000/svg">
<mask id="mask0_5190_108630" style="mask-type:luminance" maskUnits="userSpaceOnUse" x="0" y="0" width="32" height="24">
<rect width="32" height="24" fill="white"/>
</mask>
<g mask="url(#mask0_5190_108630)">
<path fill-rule="evenodd" clip-rule="evenodd" d="M0 0V24H32V0H0Z" fill="#FFB400"/>
<mask id="mask1_5190_108630" style="mask-type:luminance" maskUnits="userSpaceOnUse" x="0" y="0" width="32" height="24">
<path fill-rule="evenodd" clip-rule="evenodd" d="M0 0V24H32V0H0Z" fill="white"/>
</mask>
<g mask="url(#mask1_5190_108630)">
<path fill-rule="evenodd" clip-rule="evenodd" d="M0 0V6H32V0H0Z" fill="#C51918"/>
<path fill-rule="evenodd" clip-rule="evenodd" d="M0 18V24H32V18H0Z" fill="#C51918"/>
<rect x="5.00781" y="10.272" width="1.12" height="5.824" fill="#F1F9FF"/>
<path fill-rule="evenodd" clip-rule="evenodd" d="M6.57459 9.26392H4.55859V9.82392H4.89459V10.2719H6.23859V9.82392H6.57459V9.26392Z" fill="#C88A02"/>
<path fill-rule="evenodd" clip-rule="evenodd" d="M6.23859 16.4319H6.57459V16.9919H4.55859V16.4319H4.89459V15.9839H6.23859V16.4319Z" fill="#C88A02"/>
<path fill-rule="evenodd" clip-rule="evenodd" d="M5.56525 9.37592C5.80898 9.37592 5.83376 9.28414 5.97755 9.14707C6.08921 9.04063 6.34925 8.90862 6.34925 8.75992C6.34925 8.41971 5.99824 8.14392 5.56525 8.14392C5.13226 8.14392 4.78125 8.41971 4.78125 8.75992C4.78125 8.92559 4.96033 9.03636 5.09573 9.14707C5.23839 9.26371 5.34311 9.37592 5.56525 9.37592Z" fill="#AD1619"/>
<path fill-rule="evenodd" clip-rule="evenodd" d="M4.55859 16.9919H6.57459V17.8879C6.57459 17.8879 6.32259 17.7759 6.07059 17.7759C5.81859 17.7759 5.56659 17.8879 5.56659 17.8879C5.56659 17.8879 5.31459 17.7759 5.06259 17.7759C4.81059 17.7759 4.55859 17.8879 4.55859 17.8879V16.9919Z" fill="#005BBF"/>
<mask id="mask2_5190_108630" style="mask-type:luminance" maskUnits="userSpaceOnUse" x="4" y="16" width="3" height="2">
<path fill-rule="evenodd" clip-rule="evenodd" d="M4.55859 16.9919H6.57459V17.8879C6.57459 17.8879 6.32259 17.7759 6.07059 17.7759C5.81859 17.7759 5.56659 17.8879 5.56659 17.8879C5.56659 17.8879 5.31459 17.7759 5.06259 17.7759C4.81059 17.7759 4.55859 17.8879 4.55859 17.8879V16.9919Z" fill="white"/>
</mask>
<g mask="url(#mask2_5190_108630)">
<path d="M4.5401 17.7119L4.49609 17.6046C4.67767 17.5238 4.8599 17.4833 5.0424 17.4833C5.16031 17.4833 5.22188 17.4997 5.32655 17.5463C5.41849 17.5872 5.46615 17.5999 5.5667 17.5999C5.66725 17.5999 5.71491 17.5872 5.80685 17.5463C5.91152 17.4997 5.9731 17.4833 6.091 17.4833C6.2735 17.4833 6.45573 17.5238 6.63731 17.6046L6.59331 17.7119C6.42535 17.6372 6.25804 17.5999 6.091 17.5999C5.99045 17.5999 5.94279 17.6127 5.85085 17.6536C5.74618 17.7002 5.68461 17.7166 5.5667 17.7166C5.44879 17.7166 5.38722 17.7002 5.28255 17.6536C5.19061 17.6127 5.14295 17.5999 5.0424 17.5999C4.87536 17.5999 4.70805 17.6372 4.5401 17.7119Z" fill="white"/>
<path d="M4.5401 17.3759L4.49609 17.2686C4.67767 17.1878 4.8599 17.1472 5.0424 17.1472C5.16031 17.1472 5.22188 17.1637 5.32655 17.2102C5.41849 17.2512 5.46615 17.2639 5.5667 17.2639C5.66725 17.2639 5.71491 17.2512 5.80685 17.2102C5.91152 17.1637 5.9731 17.1472 6.091 17.1472C6.2735 17.1472 6.45573 17.1878 6.63731 17.2686L6.59331 17.3759C6.42535 17.3011 6.25804 17.2639 6.091 17.2639C5.99045 17.2639 5.94279 17.2766 5.85085 17.3175C5.74618 17.3641 5.68461 17.3806 5.5667 17.3806C5.44879 17.3806 5.38722 17.3641 5.28255 17.3175C5.19061 17.2766 5.14295 17.2639 5.0424 17.2639C4.87536 17.2639 4.70805 17.3011 4.5401 17.3759Z" fill="white"/>
</g>
<rect x="15.9844" y="10.272" width="1.12" height="5.824" fill="#F1F9FF"/>
<path fill-rule="evenodd" clip-rule="evenodd" d="M17.5512 9.26392H15.5352V9.82392H15.8712V10.2719H17.2152V9.82392H17.5512V9.26392Z" fill="#C88A02"/>
<path fill-rule="evenodd" clip-rule="evenodd" d="M17.2152 16.4319H17.5512V16.9919H15.5352V16.4319H15.8712V15.9839H17.2152V16.4319Z" fill="#C88A02"/>
<path fill-rule="evenodd" clip-rule="evenodd" d="M16.5418 9.37592C16.7855 9.37592 16.8103 9.28414 16.9541 9.14707C17.0658 9.04063 17.3258 8.90862 17.3258 8.75992C17.3258 8.41971 16.9748 8.14392 16.5418 8.14392C16.1088 8.14392 15.7578 8.41971 15.7578 8.75992C15.7578 8.92559 15.9369 9.03636 16.0723 9.14707C16.215 9.26371 16.3197 9.37592 16.5418 9.37592Z" fill="#AD1619"/>
<path fill-rule="evenodd" clip-rule="evenodd" d="M15.5352 16.9919H17.5512V17.8879C17.5512 17.8879 17.2992 17.7759 17.0472 17.7759C16.7952 17.7759 16.5432 17.8879 16.5432 17.8879C16.5432 17.8879 16.2912 17.7759 16.0392 17.7759C15.7872 17.7759 15.5352 17.8879 15.5352 17.8879V16.9919Z" fill="#005BBF"/>
<mask id="mask3_5190_108630" style="mask-type:luminance" maskUnits="userSpaceOnUse" x="15" y="16" width="3" height="2">
<path fill-rule="evenodd" clip-rule="evenodd" d="M15.5352 16.9919H17.5512V17.8879C17.5512 17.8879 17.2992 17.7759 17.0472 17.7759C16.7952 17.7759 16.5432 17.8879 16.5432 17.8879C16.5432 17.8879 16.2912 17.7759 16.0392 17.7759C15.7872 17.7759 15.5352 17.8879 15.5352 17.8879V16.9919Z" fill="white"/>
</mask>
<g mask="url(#mask3_5190_108630)">
<path d="M15.5167 17.7119L15.4727 17.6046C15.6542 17.5238 15.8365 17.4833 16.019 17.4833C16.1369 17.4833 16.1984 17.4997 16.3031 17.5463C16.3951 17.5872 16.4427 17.5999 16.5433 17.5999C16.6438 17.5999 16.6915 17.5872 16.7834 17.5463C16.8881 17.4997 16.9497 17.4833 17.0676 17.4833C17.2501 17.4833 17.4323 17.5238 17.6139 17.6046L17.5699 17.7119C17.4019 17.6372 17.2346 17.5999 17.0676 17.5999C16.967 17.5999 16.9194 17.6127 16.8274 17.6536C16.7227 17.7002 16.6612 17.7166 16.5433 17.7166C16.4254 17.7166 16.3638 17.7002 16.2591 17.6536C16.1672 17.6127 16.1195 17.5999 16.019 17.5999C15.8519 17.5999 15.6846 17.6372 15.5167 17.7119Z" fill="white"/>
<path d="M15.5167 17.3759L15.4727 17.2686C15.6542 17.1878 15.8365 17.1472 16.019 17.1472C16.1369 17.1472 16.1984 17.1637 16.3031 17.2102C16.3951 17.2512 16.4427 17.2639 16.5433 17.2639C16.6438 17.2639 16.6915 17.2512 16.7834 17.2102C16.8881 17.1637 16.9497 17.1472 17.0676 17.1472C17.2501 17.1472 17.4323 17.1878 17.6139 17.2686L17.5699 17.3759C17.4019 17.3011 17.2346 17.2639 17.0676 17.2639C16.967 17.2639 16.9194 17.2766 16.8274 17.3175C16.7227 17.3641 16.6612 17.3806 16.5433 17.3806C16.4254 17.3806 16.3638 17.3641 16.2591 17.3175C16.1672 17.2766 16.1195 17.2639 16.019 17.2639C15.8519 17.2639 15.6846 17.3011 15.5167 17.3759Z" fill="white"/>
</g>
<path fill-rule="evenodd" clip-rule="evenodd" d="M4.98678 15.6799C5.18871 15.4351 5.30162 15.2124 5.30162 14.9758C5.30162 14.8267 5.25724 14.6979 5.17948 14.5926L5.19262 14.5867C5.19141 14.5873 5.41414 14.4902 5.49168 14.453C5.63584 14.3839 5.76283 14.3107 5.88666 14.2206C5.96571 14.1631 6.07163 14.1005 6.23309 14.0138C6.26099 13.9988 6.33661 13.9587 6.38484 13.9331L6.42578 13.9114C6.50426 13.8695 6.56269 13.8374 6.61698 13.8059C6.78615 13.7078 6.89794 13.6267 6.98345 13.5182C7.18597 13.2614 7.14392 12.9133 6.86013 12.7201C6.72109 12.6254 6.53346 12.5711 6.25843 12.5284L6.20156 12.5196C6.10761 12.505 5.92708 12.4771 5.86508 12.4674C5.73346 12.4467 5.61603 12.4274 5.51132 12.4091C6.19989 12.2946 7.18313 12.3367 7.61562 12.56L8.02668 11.7638C7.14534 11.3088 5.13721 11.3553 4.38707 11.8718C3.83688 12.2508 3.91071 12.8235 4.48316 13.0702C4.72236 13.1732 5.03419 13.2416 5.61124 13.3343C5.51454 13.3904 5.43437 13.4417 5.35967 13.496C5.28391 13.5511 5.20275 13.5979 5.1043 13.6451C5.05722 13.6676 4.91782 13.7288 4.85391 13.7569L4.85386 13.7569L4.85386 13.7569L4.82174 13.7711C4.35546 13.9831 4.12916 14.2764 4.19678 14.8059L4.23339 15.0925L4.29905 15.1126L4.98678 15.6799ZM4.4104 14.9392L4.40898 14.9433L4.41006 14.9404L4.4104 14.9392ZM16.7048 14.9758C16.7048 15.2124 16.8177 15.4351 17.0196 15.6799L17.7073 15.1126L17.773 15.0925L17.8096 14.8059C17.8772 14.2764 17.6509 13.9831 17.1847 13.7711L17.1525 13.7569C17.0886 13.7289 16.9492 13.6676 16.9021 13.6451C16.8037 13.5979 16.7225 13.5511 16.6467 13.496C16.572 13.4417 16.4919 13.3904 16.3952 13.3343C16.9722 13.2416 17.284 13.1732 17.5232 13.0702C18.0957 12.8235 18.1695 12.2508 17.6193 11.8718C16.8692 11.3553 14.8611 11.3088 13.9797 11.7638L14.3908 12.56C14.8233 12.3367 15.8065 12.2946 16.4951 12.4091C16.3904 12.4274 16.2729 12.4467 16.1413 12.4674C16.0793 12.4771 15.8989 12.505 15.8049 12.5195L15.8046 12.5196L15.748 12.5284C15.4729 12.5711 15.2853 12.6254 15.1463 12.7201C14.8625 12.9133 14.8204 13.2614 15.023 13.5182C15.1085 13.6267 15.2203 13.7078 15.3894 13.8059C15.4437 13.8374 15.5021 13.8695 15.5806 13.9114L15.6214 13.933C15.6696 13.9586 15.7454 13.9988 15.7733 14.0138C15.9348 14.1005 16.0407 14.1631 16.1197 14.2206C16.2436 14.3107 16.3706 14.3839 16.5147 14.453C16.5923 14.4902 16.815 14.5873 16.8138 14.5867L16.8269 14.5926C16.7492 14.6979 16.7048 14.8267 16.7048 14.9758Z" fill="#AD1619"/>
<path d="M5.92317 12.3999L6.25375 12.4683V12.961C5.90166 13.242 5.00781 13.7155 5.00781 13.7155V12.3999H5.92317Z" fill="#F1F9FF"/>
<path d="M16.3151 12.3999L15.9845 12.4683V12.961C16.3366 13.242 17.2305 13.7155 17.2305 13.7155V12.3999H16.3151Z" fill="#F1F9FF"/>
<path fill-rule="evenodd" clip-rule="evenodd" d="M14.7732 7.2059V7.04192C14.1971 6.62847 13.5939 6.42175 12.9634 6.42175C12.359 6.15428 11.7472 6.05045 11.128 6.11027C11.1282 6.10836 11.1283 6.10739 11.1283 6.10739C10.1973 6.0163 9.25905 6.42175 9.25905 6.42175C8.31334 6.42175 7.44922 7.04192 7.44922 7.04192V7.2059L8.57885 8.34043C8.57885 8.34043 8.89682 9.43243 11.1237 9.17578V9.17855C11.1237 9.17855 12.598 9.13831 12.7016 9.10385C12.7427 9.09018 12.7853 9.07774 12.8289 9.06502C13.1177 8.98071 13.4473 8.88446 13.6436 8.34043L14.7732 7.2059ZM11.1237 6.16044C11.0915 6.53816 10.9079 8.81509 11.1237 9.1681V6.16044Z" fill="#AD1619"/>
<path fill-rule="evenodd" clip-rule="evenodd" d="M8.30959 8.14951L8.31034 8.14606L7.51562 7.39837L7.59237 7.3168L8.3381 8.01839L8.35718 7.93062C8.47918 7.95715 8.56835 7.9669 8.62032 7.96138V7.80918L8.78563 7.89864C8.86694 7.94264 8.98338 7.95448 9.13675 7.92952C9.24939 7.91119 9.3254 7.78037 9.35025 7.5016L9.40042 6.93884L9.56872 7.47819C9.64488 7.72225 9.76106 7.82984 9.92646 7.82984C10.088 7.82984 10.1529 7.77061 10.1601 7.62133L10.1804 7.19795L10.3719 7.57611C10.4409 7.71235 10.536 7.77416 10.6713 7.77416C10.8647 7.77416 10.9939 7.61288 10.9939 7.35984H10.9976H11.2179H11.2216C11.2216 7.61288 11.3508 7.77416 11.5443 7.77416C11.6795 7.77416 11.7746 7.71235 11.8436 7.57611L12.0351 7.19795L12.0554 7.62133C12.0626 7.77061 12.1275 7.82984 12.2891 7.82984C12.4545 7.82984 12.5706 7.72225 12.6468 7.47819L12.8151 6.93884L12.8653 7.5016C12.8901 7.78037 12.9661 7.91119 13.0788 7.92952C13.2321 7.95448 13.3486 7.94264 13.4299 7.89864L13.5952 7.80918V7.96138C13.6472 7.9669 13.7363 7.95715 13.8583 7.93062L13.8938 8.09349L14.7193 7.3168L14.796 7.39837L13.7687 8.36488C13.6189 8.64091 13.5434 8.8231 13.5434 8.89878C13.5434 9.01424 13.243 9.08277 12.6567 9.15316C12.1974 9.20831 11.6554 9.24532 11.212 9.25085V9.25157L11.1558 9.25139L11.0996 9.25157V9.25085C10.6563 9.24532 10.1142 9.20831 9.65493 9.15316C9.06867 9.08277 8.76829 9.01424 8.76829 8.89878C8.76829 8.88446 8.76558 8.86634 8.76019 8.84448C8.70107 8.7692 8.65951 8.64603 8.63185 8.53494C8.6059 8.48299 8.57625 8.42625 8.54293 8.36488L8.31533 8.15075L8.30959 8.14951ZM13.815 8.16754C13.6316 8.20001 13.4992 8.19673 13.4289 8.13951C13.319 8.1715 13.19 8.17457 13.0428 8.15061C12.8856 8.12503 12.7761 8.02044 12.7102 7.84694C12.6242 7.95652 12.5154 8.02417 12.3851 8.04605C13.1018 8.14769 13.6039 8.29057 13.6039 8.29057C13.6039 8.29057 13.5915 8.39671 13.5614 8.52151C13.5933 8.45618 13.631 8.38358 13.6746 8.30346L13.6855 8.28946L13.815 8.16754ZM12.0469 8.00347C11.9846 7.9725 11.9348 7.92759 11.8988 7.86971C11.8454 7.9169 11.7846 7.95142 11.7171 7.97271C11.8298 7.98133 11.94 7.99174 12.0469 8.00347ZM11.3217 7.95092C11.2345 7.9106 11.1619 7.84604 11.1078 7.76331C11.054 7.84546 10.9821 7.90969 10.8957 7.95006C10.9468 7.94854 10.9983 7.94746 11.0501 7.94688V7.94637L11.095 7.9465L11.1399 7.94637V7.94688C11.2009 7.94757 11.2615 7.94893 11.3217 7.95092ZM8.61806 8.28179L8.51364 8.18355C8.63899 8.19598 8.73177 8.18419 8.78664 8.13951C8.89657 8.1715 9.02551 8.17457 9.17272 8.15061C9.32996 8.12503 9.43946 8.02044 9.50534 7.84694C9.58887 7.95335 9.69384 8.02022 9.81913 8.04403C9.20119 8.13085 8.74014 8.24897 8.61806 8.28179ZM10.4936 7.97115C10.385 7.97921 10.2788 7.98896 10.1755 7.99997C10.2346 7.96915 10.2821 7.92545 10.3167 7.86971C10.3689 7.91577 10.428 7.94975 10.4936 7.97115ZM13.2489 8.90097C13.3274 8.9377 13.3903 8.90107 13.44 8.83075C13.4357 8.85017 13.433 8.86773 13.4319 8.88345C13.4254 8.88775 13.4153 8.89293 13.4021 8.89849C13.3652 8.914 13.3088 8.93052 13.2355 8.94724C13.0915 8.98011 12.8864 9.01278 12.6434 9.04196C12.1688 9.09894 11.6045 9.13644 11.1558 9.13938C10.7072 9.13644 10.1429 9.09894 9.66829 9.04196C9.42525 9.01278 9.22019 8.98011 9.07612 8.94724C9.01468 8.93323 8.96516 8.91935 8.92901 8.90609C8.93299 8.90458 8.93701 8.90288 8.94107 8.90097C9.18574 8.78649 10.8036 8.67905 11.095 8.66051C11.3863 8.67905 13.0042 8.78649 13.2489 8.90097ZM13.5568 8.88107L13.556 8.88212L13.5568 8.881L13.5574 8.88046L13.5568 8.88107Z" fill="#C88A02"/>
<path fill-rule="evenodd" clip-rule="evenodd" d="M11.1094 5.34705C11.295 5.34705 11.4454 5.19662 11.4454 5.01105C11.4454 4.82548 11.295 4.67505 11.1094 4.67505C10.9239 4.67505 10.7734 4.82548 10.7734 5.01105C10.7734 5.19662 10.9239 5.34705 11.1094 5.34705Z" fill="#005BBF"/>
<path fill-rule="evenodd" clip-rule="evenodd" d="M10.8906 6.99679C10.8977 7.03367 10.9089 7.068 10.9231 7.09859C10.8797 7.08202 10.8282 7.07241 10.7729 7.07241C10.6183 7.07241 10.4929 7.14763 10.4929 7.24041C10.4929 7.3332 10.6183 7.40841 10.7729 7.40841C10.9276 7.40841 11.0529 7.3332 11.0529 7.24041C11.0529 7.3332 11.1783 7.40841 11.3329 7.40841C11.4876 7.40841 11.6129 7.3332 11.6129 7.24041C11.6129 7.14763 11.4876 7.07241 11.3329 7.07241C11.294 7.07241 11.2569 7.07718 11.2232 7.08579C11.2314 7.03986 11.231 6.9872 11.2204 6.93268C11.1909 6.78088 11.0931 6.67217 11.0021 6.68988C10.911 6.70758 10.8611 6.84499 10.8906 6.99679ZM11.0529 7.24041L11.0528 7.23529L11.053 7.23537L11.0529 7.24041ZM9.24309 7.21059C9.22894 7.18 9.21775 7.14567 9.21058 7.10879C9.18107 6.95699 9.23099 6.81958 9.32207 6.80188C9.41315 6.78417 9.5109 6.89288 9.54041 7.04468C9.55101 7.0992 9.55136 7.15186 9.54324 7.19779C9.57692 7.18918 9.61399 7.18441 9.65292 7.18441C9.80756 7.18441 9.93292 7.25963 9.93292 7.35241C9.93292 7.4452 9.80756 7.52041 9.65292 7.52041C9.49828 7.52041 9.37292 7.4452 9.37292 7.35241L9.37304 7.34737L9.37279 7.34729L9.37292 7.35241C9.37292 7.4452 9.24756 7.52041 9.09292 7.52041C8.93828 7.52041 8.81292 7.4452 8.81292 7.35241C8.81292 7.25963 8.93828 7.18441 9.09292 7.18441C9.14818 7.18441 9.1997 7.19402 9.24309 7.21059ZM12.7509 7.31297C12.7379 7.40485 12.6033 7.46189 12.4502 7.44037C12.2971 7.41885 12.1834 7.32692 12.1963 7.23504C12.2092 7.14316 12.3438 7.08612 12.497 7.10764C12.5517 7.11533 12.6014 7.13201 12.642 7.15447C12.6323 7.1222 12.626 7.08664 12.624 7.04913C12.6159 6.8947 12.6845 6.76557 12.7771 6.76072C12.8698 6.75586 12.9514 6.87711 12.9595 7.03154C12.9624 7.08701 12.9555 7.13921 12.941 7.18356C12.9756 7.17972 13.013 7.18016 13.0515 7.18558C13.2046 7.2071 13.3183 7.29903 13.3054 7.39091C13.2925 7.48279 13.1579 7.53983 13.0047 7.51831C12.8516 7.49678 12.7379 7.40485 12.7509 7.31297ZM12.7509 7.31297L12.7514 7.30788L12.7517 7.308L12.7509 7.31297ZM13.8173 7.75723C13.9538 7.82983 14.0998 7.82227 14.1434 7.74034L14.1457 7.73576C14.1591 7.74999 14.175 7.76036 14.1932 7.76591C14.2819 7.79304 14.3905 7.69514 14.4357 7.54726C14.4809 7.39938 14.4457 7.2575 14.3569 7.23038C14.2682 7.20325 14.1596 7.30114 14.1144 7.44902C14.1034 7.48495 14.0972 7.52052 14.0953 7.55418C14.0648 7.51917 14.0238 7.4865 13.975 7.46056C13.8385 7.38796 13.6925 7.39552 13.6489 7.47744C13.6054 7.55936 13.6807 7.68463 13.8173 7.75723ZM8.32174 7.79154C8.1852 7.86414 8.0392 7.85658 7.99564 7.77465C7.99484 7.77314 7.99407 7.77161 7.99335 7.77007C7.9799 7.7843 7.96397 7.79466 7.94581 7.80022C7.85708 7.82734 7.7485 7.72945 7.70329 7.58157C7.65807 7.43369 7.69335 7.29181 7.78208 7.26469C7.87081 7.23756 7.97939 7.33545 8.02461 7.48333C8.03559 7.51926 8.04182 7.55483 8.04369 7.58849C8.07423 7.55347 8.11521 7.52081 8.164 7.49487C8.30053 7.42227 8.44653 7.42983 8.49009 7.51175C8.53365 7.59367 8.45828 7.71894 8.32174 7.79154Z" fill="#C88A02"/>
<path fill-rule="evenodd" clip-rule="evenodd" d="M10.983 4.07654H11.2163V4.22394H11.3687V4.45727H11.2163V4.92394H11.3687V5.15727H10.8281V4.92394H10.983V4.45727H10.8281V4.22394H10.983V4.07654Z" fill="#C88A02"/>
<rect x="10.9414" y="5.34399" width="0.448" height="1.456" fill="#C88A02"/>
<path d="M9.13823 5.58785L9.13628 5.69984C8.14317 5.6825 7.57352 5.82742 7.42892 6.11627C7.27942 6.4149 7.30722 6.77792 7.5167 7.20915L7.41595 7.25809C7.19245 6.79799 7.16193 6.3994 7.32877 6.06614C7.5005 5.7231 8.10312 5.56978 9.13823 5.58785Z" fill="white"/>
<path d="M9.33115 6.58095L9.27373 6.67711C9.05746 6.54798 8.94922 6.3276 8.94922 6.0239C8.94922 5.58742 9.17406 5.33147 9.67142 5.15631C9.98884 5.04452 10.4224 5.09035 10.9735 5.29013L10.9353 5.39542C10.4063 5.20364 9.99703 5.16038 9.70862 5.26195C9.25243 5.42261 9.06122 5.64028 9.06122 6.0239C9.06122 6.29041 9.15112 6.47346 9.33115 6.58095Z" fill="white"/>
<path d="M7.65786 7.03733L7.44652 7.11156C7.22724 6.48721 7.28986 6.0632 7.66455 5.88029C7.99472 5.71912 8.4759 5.65353 9.1105 5.67925L9.10143 5.90306C8.50059 5.87872 8.05359 5.93965 7.76282 6.08159C7.51657 6.20179 7.47153 6.50678 7.65786 7.03733Z" fill="#C88A02"/>
<path d="M10.127 5.4386C9.61483 5.4386 9.40452 5.56333 9.28437 5.93162C9.2078 6.16632 9.28206 6.36664 9.52285 6.55362L9.38546 6.73054C9.07372 6.48846 8.96381 6.19198 9.07141 5.86215C9.22454 5.3928 9.52499 5.2146 10.127 5.2146C10.5215 5.2146 10.8289 5.31826 11.0429 5.52922L11.0763 5.56212V6.64208H10.8523V5.65786C10.6851 5.51268 10.445 5.4386 10.127 5.4386Z" fill="#C88A02"/>
<path d="M13.0454 5.69979L13.0473 5.81177C14.0404 5.79444 14.6101 5.93936 14.7547 6.22821C14.9042 6.52684 14.8764 6.88986 14.6669 7.32109L14.7676 7.37003C14.9911 6.90993 15.0217 6.51134 14.8548 6.17807C14.6831 5.83503 14.0805 5.68172 13.0454 5.69979Z" fill="white"/>
<path d="M12.6962 6.60426L12.7536 6.70043C12.9699 6.57129 13.0781 6.35092 13.0781 6.04722C13.0781 5.61074 12.8533 5.35478 12.3559 5.17962C12.0385 5.06783 11.6049 5.11367 11.0539 5.31345L11.0921 5.41874C11.621 5.22696 12.0303 5.18369 12.3187 5.28526C12.7749 5.44592 12.9661 5.6636 12.9661 6.04722C12.9661 6.31373 12.8762 6.49677 12.6962 6.60426Z" fill="white"/>
<path d="M14.596 7.14939L14.8074 7.22362C15.0267 6.59927 14.964 6.17526 14.5894 5.99235C14.2592 5.83118 13.778 5.76559 13.1434 5.79131L13.1525 6.01513C13.7533 5.99078 14.2003 6.05171 14.4911 6.19365C14.7373 6.31385 14.7824 6.61884 14.596 7.14939Z" fill="#C88A02"/>
<path d="M12.1152 5.45593C12.6274 5.45593 12.8377 5.58067 12.9578 5.94895C13.0344 6.18366 12.9601 6.38397 12.7193 6.57096L12.8567 6.74788C13.1685 6.5058 13.2784 6.20931 13.1708 5.87948C13.0177 5.41013 12.7172 5.23193 12.1152 5.23193C11.7207 5.23193 11.4133 5.33559 11.1993 5.54655L11.1659 5.57945V6.65942H11.3899V5.67519C11.5571 5.53002 11.7971 5.45593 12.1152 5.45593Z" fill="#C88A02"/>
<path opacity="0.3" fill-rule="evenodd" clip-rule="evenodd" d="M7.47266 9.26392H14.7527V15.8047C14.7527 15.8047 14.2119 17.9999 11.1127 17.9999C8.01343 17.9999 7.47266 15.7469 7.47266 15.7469V9.26392Z" fill="#E1E5E8"/>
<mask id="mask4_5190_108630" style="mask-type:luminance" maskUnits="userSpaceOnUse" x="7" y="9" width="8" height="9">
<path fill-rule="evenodd" clip-rule="evenodd" d="M7.47266 9.26392H14.7527V15.8047C14.7527 15.8047 14.2119 17.9999 11.1127 17.9999C8.01343 17.9999 7.47266 15.7469 7.47266 15.7469V9.26392Z" fill="white"/>
</mask>
<g mask="url(#mask4_5190_108630)">
<rect x="7.47266" y="13.2959" width="3.696" height="4.368" fill="#FFC034"/>
<rect x="7.92188" y="13.5199" width="0.448" height="4.144" fill="#AD1619"/>
<rect x="9.48828" y="13.5199" width="0.448" height="4.144" fill="#AD1619"/>
<rect x="8.70312" y="13.5199" width="0.448" height="4.144" fill="#AD1619"/>
<rect x="10.2734" y="13.5199" width="0.448" height="4.144" fill="#AD1619"/>
<rect x="7.47266" y="9.15186" width="3.696" height="4.256" fill="#AD1619"/>
<rect x="11.0586" y="13.184" width="3.696" height="4.256" fill="#AD1619"/>
<rect x="11.0586" y="9.26392" width="3.92" height="4.144" fill="#F1F9FF"/>
<path fill-rule="evenodd" clip-rule="evenodd" d="M9.04181 9.59998H9.37781V10.5292H9.60181V10.0646H9.93781V10.5292H10.2738V11.1099H9.93781V12.1552H10.2738V12.736H8.25781V12.1552H8.59381V11.1099H8.25781V10.5292H8.48181V10.0646H8.81781V10.5292H9.04181V9.59998Z" fill="#C88A02"/>
<path d="M12.9805 9.79497L13.2098 9.54944L13.6914 9.99926L13.462 10.2448L12.9805 9.79497Z" fill="#C88A02"/>
<path fill-rule="evenodd" clip-rule="evenodd" d="M14.3625 16.1399V13.6879H11.5625V16.1194L11.5669 16.1383C11.7087 16.7423 12.1914 17.0479 12.9625 17.0479C13.7329 17.0479 14.2155 16.7502 14.3578 16.1593L14.3625 16.1399ZM12.9625 16.7119C12.3438 16.7119 12.0059 16.5035 11.8985 16.0798V14.0239H14.0265V16.0993C13.9194 16.5091 13.5814 16.7119 12.9625 16.7119Z" fill="#FFC034"/>
<path fill-rule="evenodd" clip-rule="evenodd" d="M13.0759 13.8928H12.8425V15.0045L11.9227 14.0041L11.7578 14.1557L12.5897 15.0604H11.836V15.3964H12.4149H12.608L11.7578 16.3211L11.9227 16.4727L12.8425 15.4723V16.7717H13.0759V15.5892L13.8882 16.4727L14.0531 16.3211L13.2029 15.3964H14.1519V15.0604H13.2212L14.0531 14.1557L13.8882 14.0041L13.0759 14.8876V13.8928Z" fill="#FFC034"/>
<path fill-rule="evenodd" clip-rule="evenodd" d="M13.4851 17.4426C13.4851 17.4426 11.1129 17.6291 11.1129 16.0991C11.1129 16.0991 11.0903 17.4426 8.61328 17.4426V18.6504H13.4851V17.4426Z" fill="#F1F9FF"/>
<path fill-rule="evenodd" clip-rule="evenodd" d="M11.1134 14.1919C11.5774 14.1919 11.9534 13.7907 11.9534 13.2959C11.9534 12.8011 11.5774 12.3999 11.1134 12.3999C10.6495 12.3999 10.2734 12.8011 10.2734 13.2959C10.2734 13.7907 10.6495 14.1919 11.1134 14.1919Z" fill="#005BBF" stroke="#AD1619" stroke-width="1.16667"/>
</g>
</g>
</g>
</svg>
