<svg width="32" height="24" viewBox="0 0 32 24" fill="none" xmlns="http://www.w3.org/2000/svg">
<mask id="mask0_5190_108341" style="mask-type:luminance" maskUnits="userSpaceOnUse" x="0" y="0" width="32" height="24">
<rect width="32" height="24" fill="white"/>
</mask>
<g mask="url(#mask0_5190_108341)">
<path fill-rule="evenodd" clip-rule="evenodd" d="M0 0V24H32V0H0Z" fill="#F7FCFF"/>
<mask id="mask1_5190_108341" style="mask-type:luminance" maskUnits="userSpaceOnUse" x="0" y="0" width="32" height="24">
<path fill-rule="evenodd" clip-rule="evenodd" d="M0 0V24H32V0H0Z" fill="white"/>
</mask>
<g mask="url(#mask1_5190_108341)">
<path fill-rule="evenodd" clip-rule="evenodd" d="M12 0H20V8H32V16H20V24H12V16H0V8H12V0Z" fill="#E31D1C"/>
<path fill-rule="evenodd" clip-rule="evenodd" d="M13.005 3.0459L13.9995 4.80011V9.99995H6.86473V9.94279L5.10547 8.94543V14.9056L6.77012 13.9999H13.9995V19.0509L13.005 20.8052H18.9652L18.008 19.0459H17.9995V13.9999H25.2001L26.8647 14.9056V8.94543L25.1055 9.94279V9.99995H17.9995V4.80516H18.008L18.9652 3.0459H13.005Z" fill="#FECA00"/>
</g>
</g>
</svg>
