<svg width="32" height="24" viewBox="0 0 32 24" fill="none" xmlns="http://www.w3.org/2000/svg">
<mask id="mask0_5190_108045" style="mask-type:luminance" maskUnits="userSpaceOnUse" x="0" y="0" width="32" height="24">
<rect width="32" height="24" fill="white"/>
</mask>
<g mask="url(#mask0_5190_108045)">
<path fill-rule="evenodd" clip-rule="evenodd" d="M22 0H32V24H22V0Z" fill="#58A5FF"/>
<path fill-rule="evenodd" clip-rule="evenodd" d="M0 0H12V24H0V0Z" fill="#58A5FF"/>
<path fill-rule="evenodd" clip-rule="evenodd" d="M10 0H22V24H10V0Z" fill="white"/>
<path fill-rule="evenodd" clip-rule="evenodd" d="M11.7656 15.7185L12.2873 16.4015L14.6567 13.1896V12.621L11.7656 15.7185Z" fill="#6C301F"/>
<path d="M13.4023 12.1357L13.5756 11.8971C15.8193 13.5842 17.409 14.8793 18.2979 15.9585L17.7429 16.4157C16.898 15.3899 15.6044 13.7914 13.4023 12.1357Z" fill="#979797"/>
<path d="M17.0198 10.7256L16.7617 10.4753L18.1765 9.01615L18.4864 9.31728L19.9552 7.94958L20.2002 8.2127L18.4812 9.81343L18.1841 9.5248L17.0198 10.7256Z" fill="#979797"/>
<path fill-rule="evenodd" clip-rule="evenodd" d="M12.5044 8.44546C12.4288 8.11714 12.3437 7.71167 12.3437 7.71167C12.1542 8.14382 12.0946 8.53698 12.1706 8.88855C12.0901 8.99936 12.0172 9.10316 11.9519 9.19999C11.7482 8.93089 11.494 8.42759 11.494 8.42759C11.5028 8.57414 11.4988 8.72364 11.4949 8.86882C11.4857 9.20994 11.4772 9.52714 11.6374 9.72578L11.6354 9.72974C11.6035 9.79555 11.5732 9.86124 11.5446 9.9268C11.3238 9.70667 10.9575 9.30975 10.9575 9.30975C10.9861 9.78573 11.1179 10.1608 11.3572 10.4284C11.3139 10.5679 11.2781 10.7067 11.2498 10.8446C11.0647 10.6531 10.8862 10.4639 10.8862 10.4639C10.9123 10.8982 10.985 11.1852 11.1737 11.4263C11.1699 11.4948 11.168 11.5632 11.1679 11.6312C10.9723 11.4295 10.7734 11.2187 10.7734 11.2187C10.801 11.6771 10.9798 11.9787 11.2152 12.2297C11.2385 12.3749 11.2704 12.5184 11.3107 12.6603L11.3322 12.7352C11.0661 12.6066 10.7751 12.4605 10.7751 12.4605C10.9488 12.861 11.2024 13.0816 11.4908 13.236C11.5525 13.4154 11.6176 13.5889 11.6858 13.7559C11.3735 13.671 10.9073 13.5315 10.9073 13.5315C11.1838 13.9501 11.523 14.1165 11.8875 14.2122C11.9619 14.3678 12.0392 14.5164 12.1192 14.6576C11.8233 14.5746 11.4761 14.4706 11.4761 14.4706C11.7447 14.8772 12.0724 15.0459 12.4249 15.1429C12.6574 15.4735 12.9065 15.7451 13.1662 15.9485C12.8799 16.0785 12.5194 16.234 12.5194 16.234C12.9265 16.355 13.2518 16.3087 13.5487 16.194C13.5604 16.1998 13.572 16.2056 13.5837 16.2112C13.7119 16.2726 13.8553 16.3304 14.0173 16.3869C13.7824 16.4914 13.5589 16.5878 13.5589 16.5878C13.9565 16.706 14.2761 16.6646 14.5675 16.5557L14.5991 16.5643C14.742 16.6032 14.8875 16.6405 15.0791 16.688C14.9524 16.6566 15.4202 16.772 15.5152 16.7962C15.8194 16.8736 15.9926 16.9279 16.0758 16.9748C16.0835 16.9791 16.0892 16.9827 16.0928 16.985L16.0928 16.985C16.0964 16.9873 16.0979 16.9883 16.0971 16.9872L16.3298 16.8182C16.3028 16.781 16.2654 16.7515 16.2169 16.7242C16.1028 16.6599 15.9177 16.6018 15.5861 16.5174C15.4918 16.4934 15.0387 16.3817 15.1413 16.4071C14.9551 16.3609 14.8134 16.3246 14.6747 16.2868C14.6334 16.2755 14.593 16.2643 14.5535 16.2531C14.5867 15.9473 14.5481 15.6303 14.3396 15.2771C14.3396 15.2771 14.2488 15.8288 14.1872 16.1409C14.0033 16.0795 13.8448 16.0173 13.708 15.9518C13.6617 15.9296 13.6156 15.9049 13.5697 15.8776C13.5513 15.5656 13.4596 15.2553 13.1886 14.9386C13.1886 14.9386 13.1926 15.2892 13.1911 15.5931C13.0021 15.4205 12.8184 15.2058 12.6435 14.9538L12.7661 15.0188C12.7796 14.6297 12.7196 14.2462 12.383 13.8528C12.383 13.8528 12.3874 14.232 12.3853 14.5435C12.276 14.3527 12.1712 14.1465 12.072 13.9263C12.1641 13.6238 12.1864 13.2978 12.0383 12.9028C12.0383 12.9028 11.9502 13.1536 11.8579 13.4066C11.8308 13.3347 11.8044 13.2616 11.7784 13.1873C11.967 12.8708 12.088 12.5203 11.9981 12.0377C11.9981 12.0377 11.7838 12.419 11.6203 12.6955C11.6092 12.6578 11.5982 12.6199 11.5874 12.5818C11.553 12.4607 11.5252 12.3382 11.5042 12.2145C11.7729 11.9868 11.9902 11.7031 12.0673 11.2397C12.0673 11.2397 11.7079 11.5484 11.4574 11.7531C11.454 11.6502 11.4551 11.5464 11.4609 11.442C11.7503 11.2663 11.9995 11.0265 12.1498 10.6005C12.1498 10.6005 11.7954 10.8106 11.5188 10.9672C11.5384 10.8625 11.5627 10.7572 11.5917 10.6513L11.592 10.6614C11.9358 10.4786 12.2379 10.2349 12.4103 9.74666C12.4103 9.74666 12.0542 9.95778 11.7772 10.1144C11.8131 10.0284 11.8521 9.94208 11.8942 9.8554C11.9442 9.75235 12.0153 9.62939 12.1072 9.48671C12.4141 9.3895 12.6997 9.22096 12.9426 8.86677C12.9426 8.86677 12.6973 8.93556 12.4428 9.00367C12.5904 8.80271 12.7634 8.57787 12.9619 8.32944L12.7372 8.14993C12.6554 8.2523 12.5778 8.35081 12.5044 8.44546Z" fill="#5AB92D"/>
<path fill-rule="evenodd" clip-rule="evenodd" d="M19.6324 8.44546C19.7079 8.11714 19.793 7.71167 19.793 7.71167C19.9825 8.14382 20.0421 8.53698 19.9661 8.88855C20.0466 8.99936 20.1195 9.10316 20.1848 9.19999C20.3886 8.93089 20.6427 8.42759 20.6427 8.42759C20.6339 8.57414 20.6379 8.72364 20.6418 8.86882C20.651 9.20994 20.6595 9.52714 20.4993 9.72578L20.5013 9.72974C20.5332 9.79555 20.5635 9.86124 20.5921 9.9268C20.8129 9.70667 21.1792 9.30975 21.1792 9.30975C21.1506 9.78573 21.0189 10.1608 20.7795 10.4284C20.8228 10.5679 20.8586 10.7067 20.8869 10.8446C21.072 10.6531 21.2505 10.4639 21.2505 10.4639C21.2244 10.8982 21.1517 11.1852 20.963 11.4263C20.9668 11.4948 20.9687 11.5632 20.9688 11.6312C21.1644 11.4295 21.3633 11.2187 21.3633 11.2187C21.3357 11.6771 21.157 11.9787 20.9216 12.2297C20.8982 12.3749 20.8663 12.5184 20.826 12.6603L20.8045 12.7352C21.0707 12.6066 21.3616 12.4605 21.3616 12.4605C21.1879 12.861 20.9343 13.0816 20.6459 13.236C20.5842 13.4154 20.5191 13.5889 20.4509 13.7559C20.7632 13.671 21.2294 13.5315 21.2294 13.5315C20.9529 13.9501 20.6137 14.1165 20.2492 14.2122C20.1748 14.3678 20.0975 14.5164 20.0175 14.6576C20.3134 14.5746 20.6606 14.4706 20.6606 14.4706C20.3921 14.8772 20.0644 15.0459 19.7118 15.1429C19.4793 15.4735 19.2303 15.7451 18.9705 15.9485C19.2568 16.0785 19.6173 16.234 19.6173 16.234C19.2102 16.355 18.8849 16.3087 18.588 16.194C18.5763 16.1998 18.5647 16.2056 18.553 16.2112C18.4248 16.2726 18.2814 16.3304 18.1195 16.3869C18.3543 16.4914 18.5779 16.5878 18.5779 16.5878C18.1802 16.706 17.8606 16.6646 17.5692 16.5557L17.5376 16.5643C17.3947 16.6032 17.2493 16.6405 17.0576 16.688C17.1843 16.6566 16.7165 16.772 16.6215 16.7962C16.3173 16.8736 16.1441 16.9279 16.061 16.9748C16.0532 16.9791 16.0475 16.9827 16.0439 16.985L16.0439 16.985C16.0403 16.9873 16.0388 16.9883 16.0396 16.9872L15.8069 16.8182C15.8339 16.781 15.8714 16.7515 15.9198 16.7242C16.0339 16.6599 16.219 16.6018 16.5506 16.5174C16.6449 16.4934 17.098 16.3817 16.9954 16.4071C17.1816 16.3609 17.3233 16.3246 17.462 16.2868C17.5034 16.2755 17.5438 16.2643 17.5832 16.2531C17.5501 15.9473 17.5887 15.6303 17.7972 15.2771C17.7972 15.2771 17.8879 15.8288 17.9495 16.1409C18.1334 16.0795 18.2919 16.0173 18.4287 15.9518C18.475 15.9296 18.5211 15.9049 18.567 15.8776C18.5854 15.5656 18.6771 15.2553 18.9482 14.9386C18.9482 14.9386 18.9441 15.2892 18.9456 15.5931C19.1346 15.4205 19.3183 15.2058 19.4932 14.9538L19.3706 15.0188C19.3571 14.6297 19.4171 14.2462 19.7537 13.8528C19.7537 13.8528 19.7494 14.232 19.7514 14.5435C19.8607 14.3527 19.9655 14.1465 20.0647 13.9263C19.9726 13.6238 19.9503 13.2978 20.0985 12.9028C20.0985 12.9028 20.1865 13.1536 20.2788 13.4066C20.3059 13.3347 20.3324 13.2616 20.3583 13.1873C20.1697 12.8708 20.0487 12.5203 20.1386 12.0377C20.1386 12.0377 20.3529 12.419 20.5164 12.6955C20.5275 12.6578 20.5385 12.6199 20.5493 12.5818C20.5837 12.4607 20.6115 12.3382 20.6325 12.2145C20.3638 11.9868 20.1465 11.7031 20.0695 11.2397C20.0695 11.2397 20.4288 11.5484 20.6793 11.7531C20.6827 11.6502 20.6816 11.5464 20.6758 11.442C20.3864 11.2663 20.1373 11.0265 19.9869 10.6005C19.9869 10.6005 20.3413 10.8106 20.6179 10.9672C20.5983 10.8625 20.574 10.7572 20.545 10.6513L20.5447 10.6614C20.201 10.4786 19.8988 10.2349 19.7265 9.74666C19.7265 9.74666 20.0826 9.95778 20.3595 10.1144C20.3236 10.0284 20.2847 9.94208 20.2426 9.8554C20.1925 9.75235 20.1215 9.62939 20.0295 9.48671C19.7227 9.3895 19.437 9.22096 19.1941 8.86677C19.1941 8.86677 19.4394 8.93556 19.6939 9.00367C19.5464 8.80271 19.3733 8.57787 19.1748 8.32944L19.3996 8.14993C19.4813 8.2523 19.5589 8.35081 19.6324 8.44546Z" fill="#5AB92D"/>
<path fill-rule="evenodd" clip-rule="evenodd" d="M13.4141 9.32297L14.6212 12.5222H13.7339C13.7339 12.5222 13.4141 13.5318 14.0176 13.5318C14.6212 13.5318 17.7317 13.5318 17.7317 13.5318C17.7317 13.5318 18.136 13.2787 17.9338 12.5222C17.7317 11.7657 16.7101 9.67747 16.7101 9.67747C16.7101 9.67747 17.1466 9.3309 17.1466 9.07401C17.1466 8.81711 16.7101 8.78882 16.7101 8.78882H13.9545C13.6028 8.84582 13.4141 9.32297 13.4141 9.32297Z" fill="#EFE298"/>
<path d="M14.4414 10.5008L16.3163 10.3844L14.4414 10.5008Z" fill="#C5A042"/>
<path d="M14.4414 10.5008L16.3163 10.3844" stroke="#B47D00" stroke-width="0.5"/>
<path d="M14.8984 11.5211L16.7734 11.4046L14.8984 11.5211Z" fill="#C5A042"/>
<path d="M14.8984 11.5211L16.7734 11.4046" stroke="#B47D00" stroke-width="0.5"/>
<path d="M15.2539 12.5414L17.1288 12.425L15.2539 12.5414Z" fill="#C5A042"/>
<path d="M15.2539 12.5414L17.1288 12.425" stroke="#B47D00" stroke-width="0.5"/>
<path fill-rule="evenodd" clip-rule="evenodd" d="M15.8785 7.58765C15.8785 7.58765 15.5898 7.6463 15.5898 7.82871C15.5898 8.01112 15.5117 8.16665 15.5117 8.16665C15.5117 8.16665 15.5999 8.99862 16.2582 9.19168C16.9165 9.38474 17.3025 9.4311 17.5796 9.81837C17.8567 10.2056 18.7069 11.299 18.366 12.2419C18.025 13.1848 17.7573 13.666 17.7573 13.666C17.7573 13.666 19.0009 12.4946 19.0009 11.9392C19.0009 11.3838 18.8172 10.8457 18.2662 10.1405C17.7153 9.43531 17.459 9.02307 17.0485 8.70534C16.638 8.38761 16.0499 8.09442 16.0499 8.09442C16.0499 8.09442 16.2592 7.87059 16.1546 7.76535C16.0499 7.66011 15.8785 7.58765 15.8785 7.58765Z" fill="#5AB92D"/>
</g>
</svg>
