<svg width="32" height="24" viewBox="0 0 32 24" fill="none" xmlns="http://www.w3.org/2000/svg">
<mask id="mask0_5190_108023" style="mask-type:luminance" maskUnits="userSpaceOnUse" x="0" y="0" width="32" height="24">
<rect width="32" height="24" fill="white"/>
</mask>
<g mask="url(#mask0_5190_108023)">
<path fill-rule="evenodd" clip-rule="evenodd" d="M0 0H32V24H0V0Z" fill="#C51918"/>
<path fill-rule="evenodd" clip-rule="evenodd" d="M4 4H28V20H4V4Z" fill="#4564F9"/>
<path d="M5 5H27V19H5V5Z" stroke="#CBDAFF" stroke-opacity="0.1" stroke-width="2"/>
<mask id="mask1_5190_108023" style="mask-type:luminance" maskUnits="userSpaceOnUse" x="4" y="4" width="24" height="16">
<path fill-rule="evenodd" clip-rule="evenodd" d="M4 4H28V20H4V4Z" fill="white"/>
<path d="M5 5H27V19H5V5Z" stroke="white" stroke-width="2"/>
</mask>
<g mask="url(#mask1_5190_108023)">
<path d="M16.5 5L17.1067 3.68301L16.4859 3.39704L15.8702 3.69393L16.5 5ZM16.5 5C17.1067 3.68301 17.1071 3.68321 17.1075 3.68342L17.1086 3.68388L17.1109 3.68499L17.1172 3.68792L17.1358 3.69664C17.1508 3.70372 17.1709 3.71333 17.1958 3.72546C17.2457 3.7497 17.3149 3.78402 17.4007 3.82825C17.5721 3.91659 17.8109 4.04505 18.0948 4.21215C18.6595 4.54445 19.4188 5.03909 20.1854 5.68626C21.6653 6.93567 23.45 8.9931 23.45 11.753C23.45 14.4844 21.6952 16.659 20.2398 18.0184C19.4831 18.7252 18.7325 19.2817 18.1734 19.661C17.8924 19.8516 17.6563 19.9998 17.4871 20.1021C17.4025 20.1534 17.3344 20.1933 17.2855 20.2214C17.2611 20.2355 17.2415 20.2466 17.227 20.2548L17.2091 20.2648L17.2032 20.2681L17.201 20.2693L17.2 20.2698C17.1996 20.27 17.1992 20.2703 16.5 19M16.5 5C15.8702 3.69393 15.8698 3.69412 15.8693 3.69433L15.8684 3.69479L15.8661 3.69591L15.8599 3.69889L15.8418 3.70784C15.827 3.71511 15.8071 3.72503 15.7825 3.73755C15.7331 3.76257 15.6644 3.79805 15.5792 3.8437C15.4089 3.93489 15.1713 4.06729 14.8887 4.23868C14.3266 4.57957 13.5707 5.08422 12.8077 5.73663C11.3432 6.98884 9.55 9.04671 9.55 11.753C9.55 14.43 11.3123 16.6059 12.7542 17.9683C13.5078 18.6803 14.2553 19.2466 14.8121 19.6343C15.0918 19.8291 15.3268 19.9811 15.4949 20.0862C15.5791 20.1388 15.6467 20.1799 15.6951 20.2087C15.7193 20.2232 15.7387 20.2346 15.7529 20.2429L15.7704 20.2531L15.7762 20.2565L15.7784 20.2577L15.7793 20.2582C15.7797 20.2584 15.78 20.2586 16.5 19M16.5 19L17.1992 20.2703L16.4864 20.6627L15.78 20.2586L16.5 19Z" stroke="#C1C9F1" stroke-opacity="0.1182" stroke-width="2.9"/>
<path d="M16.3984 6.03674L17.085 4.75956L16.3825 4.38195L15.6874 4.77306L16.3984 6.03674ZM16.3984 6.03674C17.085 4.75956 17.0854 4.7598 17.0859 4.76005L17.0869 4.76059L17.0892 4.76183L17.0949 4.76492L17.1106 4.77356C17.123 4.78041 17.1392 4.78943 17.1589 4.80061C17.1983 4.82296 17.2519 4.854 17.3177 4.89356C17.449 4.97258 17.6301 5.08625 17.8443 5.23335C18.2701 5.52577 18.8406 5.95956 19.416 6.52642C20.5398 7.63348 21.8484 9.41696 21.8484 11.7676C21.8484 14.0944 20.5622 15.9719 19.4669 17.1657C18.9024 17.7809 18.3421 18.2658 17.9234 18.5972C17.7129 18.7638 17.5352 18.894 17.4068 18.9847C17.3425 19.0301 17.2903 19.0658 17.2523 19.0914C17.2332 19.1042 17.2177 19.1145 17.2059 19.1222L17.1911 19.1319L17.1858 19.1353L17.1838 19.1366L17.1829 19.1372C17.1825 19.1374 17.1821 19.1377 16.3984 17.9177M16.3984 6.03674C15.6874 4.77306 15.687 4.7733 15.6865 4.77355L15.6856 4.77409L15.6834 4.77533L15.6779 4.77844L15.6626 4.78723C15.6504 4.79422 15.6345 4.80347 15.6151 4.81496C15.5763 4.83792 15.5233 4.86987 15.4582 4.91057C15.3281 4.99185 15.1485 5.10869 14.9358 5.25921C14.513 5.55846 13.9461 6.00016 13.3743 6.57066C12.2643 7.67809 10.9484 9.46135 10.9484 11.7676C10.9484 14.0492 12.241 15.9273 13.3244 17.1218C13.8858 17.7407 14.4429 18.2334 14.8591 18.5715C15.0682 18.7414 15.2446 18.8746 15.3719 18.9675C15.4356 19.014 15.4873 19.0505 15.5248 19.0767C15.5436 19.0898 15.5588 19.1003 15.5704 19.1081L15.5848 19.1179L15.5898 19.1213L15.5918 19.1226L15.5927 19.1232C15.5931 19.1235 15.5934 19.1237 16.3984 17.9177M16.3984 17.9177L17.1821 19.1377L16.3832 19.6509L15.5934 19.1237L16.3984 17.9177Z" fill="#CCE0E5"/>
<path d="M16.3984 6.03674L17.085 4.75956L16.3825 4.38195L15.6874 4.77306L16.3984 6.03674ZM16.3984 6.03674C17.085 4.75956 17.0854 4.7598 17.0859 4.76005L17.0869 4.76059L17.0892 4.76183L17.0949 4.76492L17.1106 4.77356C17.123 4.78041 17.1392 4.78943 17.1589 4.80061C17.1983 4.82296 17.2519 4.854 17.3177 4.89356C17.449 4.97258 17.6301 5.08625 17.8443 5.23335C18.2701 5.52577 18.8406 5.95956 19.416 6.52642C20.5398 7.63348 21.8484 9.41696 21.8484 11.7676C21.8484 14.0944 20.5622 15.9719 19.4669 17.1657C18.9024 17.7809 18.3421 18.2658 17.9234 18.5972C17.7129 18.7638 17.5352 18.894 17.4068 18.9847C17.3425 19.0301 17.2903 19.0658 17.2523 19.0914C17.2332 19.1042 17.2177 19.1145 17.2059 19.1222L17.1911 19.1319L17.1858 19.1353L17.1838 19.1366L17.1829 19.1372C17.1825 19.1374 17.1821 19.1377 16.3984 17.9177M16.3984 6.03674C15.6874 4.77306 15.687 4.7733 15.6865 4.77355L15.6856 4.77409L15.6834 4.77533L15.6779 4.77844L15.6626 4.78723C15.6504 4.79422 15.6345 4.80347 15.6151 4.81496C15.5763 4.83792 15.5233 4.86987 15.4582 4.91057C15.3281 4.99185 15.1485 5.10869 14.9358 5.25921C14.513 5.55846 13.9461 6.00016 13.3743 6.57066C12.2643 7.67809 10.9484 9.46135 10.9484 11.7676C10.9484 14.0492 12.241 15.9273 13.3244 17.1218C13.8858 17.7407 14.4429 18.2334 14.8591 18.5715C15.0682 18.7414 15.2446 18.8746 15.3719 18.9675C15.4356 19.014 15.4873 19.0505 15.5248 19.0767C15.5436 19.0898 15.5588 19.1003 15.5704 19.1081L15.5848 19.1179L15.5898 19.1213L15.5918 19.1226L15.5927 19.1232C15.5931 19.1235 15.5934 19.1237 16.3984 17.9177M16.3984 17.9177L17.1821 19.1377L16.3832 19.6509L15.5934 19.1237L16.3984 17.9177Z" stroke="#C1C9F1" stroke-opacity="0.748217" stroke-width="2.9"/>
<path d="M16.3984 6.03674L17.085 4.75956L16.3825 4.38195L15.6874 4.77306L16.3984 6.03674ZM16.3984 6.03674C17.085 4.75956 17.0854 4.7598 17.0859 4.76005L17.0869 4.76059L17.0892 4.76183L17.0949 4.76492L17.1106 4.77356C17.123 4.78041 17.1392 4.78943 17.1589 4.80061C17.1983 4.82296 17.2519 4.854 17.3177 4.89356C17.449 4.97258 17.6301 5.08625 17.8443 5.23335C18.2701 5.52577 18.8406 5.95956 19.416 6.52642C20.5398 7.63348 21.8484 9.41696 21.8484 11.7676C21.8484 14.0944 20.5622 15.9719 19.4669 17.1657C18.9024 17.7809 18.3421 18.2658 17.9234 18.5972C17.7129 18.7638 17.5352 18.894 17.4068 18.9847C17.3425 19.0301 17.2903 19.0658 17.2523 19.0914C17.2332 19.1042 17.2177 19.1145 17.2059 19.1222L17.1911 19.1319L17.1858 19.1353L17.1838 19.1366L17.1829 19.1372C17.1825 19.1374 17.1821 19.1377 16.3984 17.9177M16.3984 6.03674C15.6874 4.77306 15.687 4.7733 15.6865 4.77355L15.6856 4.77409L15.6834 4.77533L15.6779 4.77844L15.6626 4.78723C15.6504 4.79422 15.6345 4.80347 15.6151 4.81496C15.5763 4.83792 15.5233 4.86987 15.4582 4.91057C15.3281 4.99185 15.1485 5.10869 14.9358 5.25921C14.513 5.55846 13.9461 6.00016 13.3743 6.57066C12.2643 7.67809 10.9484 9.46135 10.9484 11.7676C10.9484 14.0492 12.241 15.9273 13.3244 17.1218C13.8858 17.7407 14.4429 18.2334 14.8591 18.5715C15.0682 18.7414 15.2446 18.8746 15.3719 18.9675C15.4356 19.014 15.4873 19.0505 15.5248 19.0767C15.5436 19.0898 15.5588 19.1003 15.5704 19.1081L15.5848 19.1179L15.5898 19.1213L15.5918 19.1226L15.5927 19.1232C15.5931 19.1235 15.5934 19.1237 16.3984 17.9177M16.3984 17.9177L17.1821 19.1377L16.3832 19.6509L15.5934 19.1237L16.3984 17.9177Z" stroke="#C51918" stroke-width="2.9"/>
<mask id="mask2_5190_108023" style="mask-type:luminance" maskUnits="userSpaceOnUse" x="12" y="6" width="9" height="12">
<path d="M17.33 15.2051C17.0109 15.5529 16.6897 15.8505 16.4104 16.0879C16.1264 15.8416 15.7983 15.5327 15.4725 15.1735C14.5559 14.163 13.8484 12.9661 13.8484 11.7676C13.8484 10.5938 14.5325 9.51159 15.4226 8.62362C15.7684 8.2786 16.1174 7.99143 16.4113 7.77175C16.7003 7.98274 17.0421 8.25867 17.3808 8.59235C18.2571 9.45553 18.9484 10.5375 18.9484 11.7676C18.9484 13.0215 18.2347 14.2191 17.33 15.2051ZM15.7078 7.31171C15.7074 7.31147 15.7079 7.31173 15.7092 7.31248L15.7092 7.31244L15.7078 7.31171Z" fill="white"/>
<path d="M17.33 15.2051C17.0109 15.5529 16.6897 15.8505 16.4104 16.0879C16.1264 15.8416 15.7983 15.5327 15.4725 15.1735C14.5559 14.163 13.8484 12.9661 13.8484 11.7676C13.8484 10.5938 14.5325 9.51159 15.4226 8.62362C15.7684 8.2786 16.1174 7.99143 16.4113 7.77175C16.7003 7.98274 17.0421 8.25867 17.3808 8.59235C18.2571 9.45553 18.9484 10.5375 18.9484 11.7676C18.9484 13.0215 18.2347 14.2191 17.33 15.2051ZM15.7078 7.31171C15.7074 7.31147 15.7079 7.31173 15.7092 7.31248L15.7092 7.31244L15.7078 7.31171Z" stroke="white" stroke-width="2.9"/>
</mask>
<g mask="url(#mask2_5190_108023)">
<rect x="12.9336" y="14" width="7.46667" height="1.5" fill="#91CBCB"/>
<path fill-rule="evenodd" clip-rule="evenodd" d="M13.6016 15.1979C13.6016 15.1979 18.8956 15.1998 19.3822 15.0171C19.8688 14.8344 18.4687 18.5246 16.6799 18.5246C14.891 18.5246 13.6016 15.1979 13.6016 15.1979Z" fill="#FDF9A1"/>
<path d="M18.5932 14.7551L17.6422 15.4869C16.1433 13.539 15.5146 11.524 15.783 9.46741L16.9729 9.62268C16.7481 11.3452 17.2792 13.0474 18.5932 14.7551Z" fill="#A68861"/>
<path fill-rule="evenodd" clip-rule="evenodd" d="M16.3934 9.63664L15.4861 10.6998C15.4521 10.7397 15.3874 10.7069 15.3994 10.6559L15.7115 9.3303H14.2922C14.238 9.3303 14.2225 9.25625 14.2721 9.23451L15.4849 8.70281L14.6241 7.56792C14.5936 7.52772 14.6351 7.4728 14.6821 7.49112L16.0357 8.01881L16.3448 6.77538C16.3574 6.72476 16.4293 6.7248 16.4418 6.77544L16.7493 8.01881L18.0912 7.49633C18.1392 7.47765 18.1807 7.53497 18.1479 7.57472L17.2183 8.70281L18.501 9.23411C18.5516 9.25504 18.5366 9.3303 18.4819 9.3303H17.2183L17.4106 10.6865C17.4176 10.736 17.3556 10.764 17.3231 10.7259L16.3934 9.63664Z" fill="#239E46"/>
<path fill-rule="evenodd" clip-rule="evenodd" d="M15.6016 13H20.4016V14.05H15.6016V13Z" fill="#239E46"/>
<path fill-rule="evenodd" clip-rule="evenodd" d="M14.873 12.3925H14.8681C14.8543 12.444 14.8204 12.4868 14.7666 12.5209C14.7127 12.555 14.6431 12.5721 14.5577 12.5721C14.4895 12.5721 14.4268 12.5597 14.3697 12.5351C14.3127 12.5104 14.2639 12.4742 14.2234 12.4264C14.1828 12.3786 14.1511 12.3193 14.1282 12.2484C14.1052 12.1775 14.0938 12.0959 14.0938 12.0035C14.0938 11.9122 14.1049 11.831 14.1273 11.7602C14.1498 11.6893 14.1817 11.63 14.2234 11.5822C14.265 11.5344 14.3151 11.4979 14.3738 11.4727C14.4324 11.4475 14.4975 11.4349 14.5689 11.4349C14.6692 11.4349 14.7529 11.457 14.8202 11.5011C14.8874 11.5452 14.9391 11.6035 14.9754 11.6759L14.865 11.7421C14.8393 11.6833 14.8012 11.6371 14.7505 11.6035C14.6999 11.5699 14.6394 11.5531 14.5689 11.5531C14.5199 11.5531 14.4751 11.5617 14.4345 11.579C14.394 11.5964 14.3591 11.6208 14.3298 11.6523C14.3004 11.6838 14.2778 11.7216 14.2617 11.7657C14.2457 11.8098 14.2377 11.8591 14.2377 11.9137V12.0917C14.2377 12.1463 14.2457 12.1959 14.2617 12.2405C14.2778 12.2852 14.3004 12.3232 14.3298 12.3547C14.3591 12.3862 14.3951 12.4106 14.4378 12.428C14.4804 12.4453 14.5284 12.454 14.5818 12.454C14.6202 12.454 14.6567 12.449 14.6913 12.439C14.726 12.429 14.7564 12.4141 14.7825 12.3941C14.8087 12.3742 14.8292 12.3492 14.8442 12.3193C14.8591 12.2894 14.8666 12.2539 14.8666 12.213V12.1043H14.6202V11.9878H14.9977V12.5532H14.873V12.3925ZM15.7082 11.4538V12.1342C15.7082 12.2392 15.7279 12.3188 15.7673 12.3728C15.8068 12.4269 15.8761 12.454 15.9754 12.454C16.0746 12.454 16.1439 12.4269 16.1834 12.3728C16.2228 12.3188 16.2425 12.2392 16.2425 12.1342V11.4538H16.377V12.1027C16.377 12.1825 16.3698 12.2518 16.3554 12.3106C16.341 12.3694 16.3178 12.4183 16.2857 12.4571C16.2537 12.496 16.2119 12.5248 16.1602 12.5437C16.1084 12.5626 16.0452 12.5721 15.9706 12.5721C15.8959 12.5721 15.8332 12.5626 15.7825 12.5437C15.7319 12.5248 15.6911 12.496 15.6602 12.4571C15.6292 12.4183 15.6071 12.3694 15.5938 12.3106C15.5804 12.2518 15.5738 12.1825 15.5738 12.1027V11.4538H15.7082ZM17.6649 12.5532L17.5529 12.2287H17.1017L16.9897 12.5532H16.8537L17.2441 11.4538H17.4153L17.8057 12.5532H17.6649ZM17.3305 11.5767H17.3226L17.1337 12.1122H17.5194L17.3305 11.5767ZM19.1817 11.6271H19.1737L19.0793 11.8114L18.8122 12.2902L18.545 11.8114L18.4506 11.6271H18.4425V12.5532H18.3113V11.4538H18.4906L18.8105 12.046H18.8186L19.1402 11.4538H19.313V12.5532H19.1817V11.6271Z" fill="#C51918"/>
</g>
</g>
</g>
</svg>
