<svg width="32" height="24" viewBox="0 0 32 24" fill="none" xmlns="http://www.w3.org/2000/svg">
<mask id="mask0_5190_107986" style="mask-type:luminance" maskUnits="userSpaceOnUse" x="0" y="0" width="32" height="24">
<rect width="32" height="24" fill="white"/>
</mask>
<g mask="url(#mask0_5190_107986)">
<path fill-rule="evenodd" clip-rule="evenodd" d="M0 0V24H32V0H0Z" fill="#EA1A1A"/>
<mask id="mask1_5190_107986" style="mask-type:luminance" maskUnits="userSpaceOnUse" x="0" y="0" width="32" height="24">
<path fill-rule="evenodd" clip-rule="evenodd" d="M0 0V24H32V0H0Z" fill="white"/>
</mask>
<g mask="url(#mask1_5190_107986)">
<path fill-rule="evenodd" clip-rule="evenodd" d="M15.8692 11.5747C15.8692 11.5747 10.0795 6.41145 16.9884 3.40308C16.9884 3.40308 18.9976 5.61969 17.4903 8.10816C16.9958 8.92432 16.5787 9.50713 16.2653 9.94512C15.6231 10.8425 15.416 11.1319 15.8692 11.5747ZM7.32446 7.86746C6.92683 15.3923 14.1338 12.522 14.1338 12.522C13.5353 12.7293 13.369 12.4147 12.8536 11.4395L12.8536 11.4395C12.6019 10.9633 12.267 10.3296 11.7578 9.52226C10.2059 7.0613 7.32446 7.86746 7.32446 7.86746ZM18.2379 11.827C18.2379 11.827 25.6698 14.0519 20.6857 19.7036C20.6857 19.7036 17.9264 18.5464 18.2379 15.6539C18.3401 14.7055 18.4709 14.0011 18.5693 13.4716C18.7709 12.3864 18.8359 12.0363 18.2379 11.827ZM16.2845 13.5617C16.2845 13.5617 17.6168 21.204 10.3334 19.2726C10.3334 19.2726 10.1351 16.2873 12.8616 15.2728C13.7559 14.94 14.4446 14.742 14.9622 14.5932L14.9622 14.5932L14.9623 14.5932L14.9623 14.5932C16.0227 14.2884 16.3647 14.1901 16.2845 13.5617ZM25.4784 10.2753C20.9229 4.27308 17.2735 11.1184 17.2735 11.1184C17.5968 10.5736 17.9269 10.7064 18.95 11.1182C19.4497 11.3193 20.1148 11.5869 21.0252 11.8746C23.7991 12.7513 25.4784 10.2753 25.4784 10.2753Z" fill="white"/>
<path d="M9.94922 10.3421L10.3712 10.074C11.2976 11.5319 12.4998 12.2492 14.0001 12.2492V12.7492C12.3216 12.7492 10.964 11.9391 9.94922 10.3421Z" fill="#EA1A1A"/>
<path fill-rule="evenodd" clip-rule="evenodd" d="M21.75 10.75C22.1642 10.75 22.5 10.4142 22.5 10C22.5 9.58579 22.1642 9.25 21.75 9.25C21.3358 9.25 21 9.58579 21 10C21 10.4142 21.3358 10.75 21.75 10.75Z" fill="#EA1A1A"/>
<path fill-rule="evenodd" clip-rule="evenodd" d="M19.957 15.7281C20.3712 15.7281 20.707 15.3923 20.707 14.9781C20.707 14.5639 20.3712 14.2281 19.957 14.2281C19.5428 14.2281 19.207 14.5639 19.207 14.9781C19.207 15.3923 19.5428 15.7281 19.957 15.7281Z" fill="#EA1A1A"/>
<path fill-rule="evenodd" clip-rule="evenodd" d="M13.957 17.7281C14.3712 17.7281 14.707 17.3923 14.707 16.9781C14.707 16.5639 14.3712 16.2281 13.957 16.2281C13.5428 16.2281 13.207 16.5639 13.207 16.9781C13.207 17.3923 13.5428 17.7281 13.957 17.7281Z" fill="#EA1A1A"/>
<path fill-rule="evenodd" clip-rule="evenodd" d="M9.95703 10.7281C10.3712 10.7281 10.707 10.3923 10.707 9.97809C10.707 9.56387 10.3712 9.22809 9.95703 9.22809C9.54282 9.22809 9.20703 9.56387 9.20703 9.97809C9.20703 10.3923 9.54282 10.7281 9.95703 10.7281Z" fill="#EA1A1A"/>
<path fill-rule="evenodd" clip-rule="evenodd" d="M15.957 7.72803C16.3712 7.72803 16.707 7.39224 16.707 6.97803C16.707 6.56381 16.3712 6.22803 15.957 6.22803C15.5428 6.22803 15.207 6.56381 15.207 6.97803C15.207 7.39224 15.5428 7.72803 15.957 7.72803Z" fill="#EA1A1A"/>
<path d="M15.635 7.05279L16.0746 7.29106C15.242 8.82705 15.1832 10.2438 15.8883 11.5698L15.4468 11.8046C14.6595 10.3239 14.7256 8.73045 15.635 7.05279Z" fill="#EA1A1A"/>
<path d="M22.0143 9.6858L21.9394 10.1802C19.9836 9.88365 18.5196 10.2963 17.5172 11.4096L17.1456 11.075C18.2702 9.82601 19.9032 9.36576 22.0143 9.6858Z" fill="#EA1A1A"/>
<path d="M20.3531 15.3649L19.8629 15.4635C19.4726 13.5243 18.5841 12.2897 17.1951 11.7285L17.3824 11.2649C18.9407 11.8945 19.9317 13.2716 20.3531 15.3649Z" fill="#EA1A1A"/>
<path d="M13.9077 17.15L13.6474 16.7232C15.3362 15.6931 16.1924 14.436 16.2447 12.9388L16.7444 12.9563C16.6858 14.636 15.7307 16.0382 13.9077 17.15Z" fill="#EA1A1A"/>
</g>
</g>
</svg>
