<svg width="32" height="24" viewBox="0 0 32 24" fill="none" xmlns="http://www.w3.org/2000/svg">
<mask id="mask0_5190_107944" style="mask-type:luminance" maskUnits="userSpaceOnUse" x="0" y="0" width="32" height="24">
<rect width="32" height="24" fill="white"/>
</mask>
<g mask="url(#mask0_5190_107944)">
<path fill-rule="evenodd" clip-rule="evenodd" d="M0 0V24H32V0H0Z" fill="#F7FCFF"/>
<mask id="mask1_5190_107944" style="mask-type:luminance" maskUnits="userSpaceOnUse" x="0" y="0" width="32" height="24">
<path fill-rule="evenodd" clip-rule="evenodd" d="M0 0V24H32V0H0Z" fill="white"/>
</mask>
<g mask="url(#mask1_5190_107944)">
<path fill-rule="evenodd" clip-rule="evenodd" d="M0 0V8H32V0H0Z" fill="#4564F9"/>
<path fill-rule="evenodd" clip-rule="evenodd" d="M0 16V24H32V16H0Z" fill="#4564F9"/>
<path fill-rule="evenodd" clip-rule="evenodd" d="M16.4021 12.6708L15.5356 13.118L15.7011 12.1708L15 11.4309H15.9688L16.4021 10.5L16.8354 11.4309H17.8042L17.1032 12.1708L17.2687 13.118L16.4021 12.6708Z" fill="#4564F9"/>
<path fill-rule="evenodd" clip-rule="evenodd" d="M10.3162 10.5027L9.44962 10.9499L9.61512 10.0027L8.91406 9.26281H9.8829L10.3162 8.33191L10.7495 9.26281H11.7183L11.0172 10.0027L11.1827 10.9499L10.3162 10.5027Z" fill="#4564F9"/>
<path fill-rule="evenodd" clip-rule="evenodd" d="M10.3162 14.7027L9.44962 15.15L9.61512 14.2027L8.91406 13.4628H9.8829L10.3162 12.5319L10.7495 13.4628H11.7183L11.0172 14.2027L11.1827 15.15L10.3162 14.7027Z" fill="#4564F9"/>
<path fill-rule="evenodd" clip-rule="evenodd" d="M22.3162 10.5027L21.4496 10.9499L21.6151 10.0027L20.9141 9.26281H21.8829L22.3162 8.33191L22.7495 9.26281H23.7183L23.0172 10.0027L23.1827 10.9499L22.3162 10.5027Z" fill="#4564F9"/>
<path fill-rule="evenodd" clip-rule="evenodd" d="M22.3162 14.7027L21.4496 15.15L21.6151 14.2027L20.9141 13.4628H21.8829L22.3162 12.5319L22.7495 13.4628H23.7183L23.0172 14.2027L23.1827 15.15L22.3162 14.7027Z" fill="#4564F9"/>
</g>
</g>
</svg>
