<svg width="32" height="24" viewBox="0 0 32 24" fill="none" xmlns="http://www.w3.org/2000/svg">
<mask id="mask0_5190_107788" style="mask-type:luminance" maskUnits="userSpaceOnUse" x="0" y="0" width="32" height="24">
<rect width="32" height="24" fill="white"/>
</mask>
<g mask="url(#mask0_5190_107788)">
<path fill-rule="evenodd" clip-rule="evenodd" d="M0 0V24H32V0H0Z" fill="#E31D1C"/>
<mask id="mask1_5190_107788" style="mask-type:luminance" maskUnits="userSpaceOnUse" x="0" y="0" width="32" height="24">
<path fill-rule="evenodd" clip-rule="evenodd" d="M0 0V24H32V0H0Z" fill="white"/>
</mask>
<g mask="url(#mask1_5190_107788)">
<path fill-rule="evenodd" clip-rule="evenodd" d="M6.09163 4.14102C6.08394 4.0485 6.19465 4.00364 6.25727 4.07218C6.7064 4.56384 7.89345 5.78781 8.57993 5.78781C9.43894 5.78781 12.8125 2.94517 13.8097 3.40824C14.8068 3.87131 16.8257 8.71294 16.8257 8.71294L15.5101 10.3632L13.8097 9.43558L13.4883 5.78781C13.4883 5.78781 10.2153 7.47129 8.57993 6.86022L7.66065 7.63269C7.66065 7.63269 6.77536 5.87969 6.42674 5.34351C6.19608 4.98874 6.11803 4.45893 6.09163 4.14102Z" fill="#F7FCFF"/>
<path fill-rule="evenodd" clip-rule="evenodd" d="M8.26097 8.12443L7.70118 8.46359L7.80809 7.74523L7.35521 7.23648L7.98108 7.13168L8.26097 6.47809L8.54087 7.13168L9.16674 7.23648L8.71386 7.74523L8.82077 8.46359L8.26097 8.12443Z" fill="#FECA00"/>
<path fill-rule="evenodd" clip-rule="evenodd" d="M13.0117 3.79203C13.0117 3.59171 13.1741 3.42932 13.3744 3.42932C13.5748 3.42932 13.7371 3.59171 13.7371 3.79203V5.50563C13.7371 5.70595 13.5748 5.86835 13.3744 5.86835C13.1741 5.86835 13.0117 5.70595 13.0117 5.50563L13.0117 3.79203Z" fill="#FECA00"/>
<path fill-rule="evenodd" clip-rule="evenodd" d="M25.2149 5.10343C25.2974 5.14594 25.2768 5.2636 25.1855 5.28038C24.5305 5.40073 22.8635 5.7588 22.4997 6.34097C22.0445 7.06945 22.6675 11.4368 21.7464 12.037C20.8252 12.6373 15.6495 11.7837 15.6495 11.7837L14.9471 9.7935L16.6349 8.84303L19.8987 10.5035C19.8987 10.5035 20.2055 6.83569 21.5903 5.77268L21.4223 4.58374C21.4223 4.58374 23.3781 4.76192 24.0175 4.75041C24.4406 4.74279 24.9313 4.95736 25.2149 5.10343Z" fill="#F7FCFF"/>
<path fill-rule="evenodd" clip-rule="evenodd" d="M20.689 4.83142L20.698 4.17695L21.2506 4.64829L21.922 4.53382L21.6792 5.12013L22.0852 5.70384L21.3826 5.59486L20.962 6.07009L20.7706 5.41643L20.1047 5.12642L20.689 4.83142Z" fill="#FECA00"/>
<path fill-rule="evenodd" clip-rule="evenodd" d="M21.9121 11.2048C22.0917 11.3162 22.1506 11.55 22.0452 11.7332C21.9322 11.9297 21.6764 11.9896 21.4879 11.8637L19.9393 10.8294C19.8003 10.7366 19.7434 10.5605 19.8017 10.4039C19.8811 10.1905 20.136 10.1033 20.3295 10.2233L21.9121 11.2048Z" fill="#FECA00"/>
<path fill-rule="evenodd" clip-rule="evenodd" d="M14.8615 20.9837C14.7834 21.0339 14.6918 20.9572 14.7229 20.8698C14.9462 20.2424 15.4696 18.6197 15.1473 18.0135C14.744 17.2551 10.6503 15.6109 10.5911 14.5131C10.5318 13.4152 13.8589 9.35966 13.8589 9.35966L15.9336 9.74654L15.9129 11.6834L12.843 13.6797C12.843 13.6797 15.866 15.7793 16.0942 17.5101L17.2078 17.9591C17.2078 17.9591 16.0756 19.5637 15.7659 20.1233C15.5609 20.4935 15.1298 20.8111 14.8615 20.9837Z" fill="#F7FCFF"/>
<path fill-rule="evenodd" clip-rule="evenodd" d="M17.3581 17.199L17.9204 17.534L17.2359 17.7769L16.9993 18.4156L16.6129 17.9122L15.9044 17.9719L16.3501 17.4179L16.1488 16.8161L16.8107 16.9771L17.3947 16.5455L17.3581 17.199Z" fill="#FECA00"/>
<path fill-rule="evenodd" clip-rule="evenodd" d="M11.1016 14.9572C10.8785 15.0424 10.6305 14.9178 10.5655 14.688C10.5086 14.4866 10.6139 14.2749 10.8089 14.1988L12.4772 13.5478C12.6625 13.4754 12.8731 13.5455 12.9782 13.7145C13.1154 13.9351 13.0174 14.226 12.7747 14.3186L11.1016 14.9572Z" fill="#FECA00"/>
<path d="M13.6613 9.76495C13.5368 9.72146 13.4704 9.58286 13.5128 9.45537C13.5553 9.32788 13.7547 9.11492 13.8791 9.15841L15.6149 9.76495C15.7045 9.79625 15.7674 9.8789 15.7753 9.97549L15.9305 11.8793C15.9415 12.0136 15.7459 12.1222 15.6149 12.1334C15.4839 12.1446 15.3688 12.0449 15.3578 11.9106L15.2141 10.2734L13.6613 9.76495Z" fill="#FECA00"/>
<path d="M16.6779 8.76755C16.7817 8.68479 16.967 8.78071 17.0477 8.88699C17.1285 8.99328 17.1099 9.14652 17.0062 9.22928L15.8038 10.4617C15.7 10.5445 15.4667 10.383 15.3859 10.2767C15.3051 10.1705 15.2821 9.88094 15.3859 9.79818L16.6779 8.76755Z" fill="#FECA00"/>
</g>
</g>
</svg>
