<svg width="32" height="24" viewBox="0 0 32 24" fill="none" xmlns="http://www.w3.org/2000/svg">
<mask id="mask0_5190_107691" style="mask-type:luminance" maskUnits="userSpaceOnUse" x="0" y="0" width="32" height="24">
<rect width="32" height="24" fill="white"/>
</mask>
<g mask="url(#mask0_5190_107691)">
<path fill-rule="evenodd" clip-rule="evenodd" d="M0 0V24H32V0H0Z" fill="#F7FCFF"/>
<mask id="mask1_5190_107691" style="mask-type:luminance" maskUnits="userSpaceOnUse" x="0" y="0" width="32" height="24">
<path fill-rule="evenodd" clip-rule="evenodd" d="M0 0V24H32V0H0Z" fill="white"/>
</mask>
<g mask="url(#mask1_5190_107691)">
<path fill-rule="evenodd" clip-rule="evenodd" d="M-1.50391 3.29149L-0.0167615 4.70851C1.21126 3.54766 2.36998 3 3.47115 3C4.00317 3 4.22974 3.1285 4.84332 3.70851C5.81655 4.6285 6.47154 5 7.70263 5C8.93372 5 9.58871 4.6285 10.5619 3.70851C11.1755 3.1285 11.4021 3 11.9341 3C12.4661 3 12.6927 3.1285 13.3063 3.70851C14.2795 4.6285 14.9345 5 16.1656 5C17.3967 5 18.0517 4.6285 19.0249 3.70851C19.6385 3.1285 19.865 3 20.3971 3C20.9291 3 21.1557 3.1285 21.7692 3.70851C22.7425 4.6285 23.3975 5 24.6286 5C25.8596 5 26.5146 4.6285 27.4879 3.70851C28.1014 3.1285 28.328 3 28.86 3C29.9612 3 31.1199 3.54766 32.3479 4.70851L33.8351 3.29149C32.2421 1.78567 30.5799 1 28.86 1C27.6289 1 26.974 1.3715 26.0007 2.29149C25.3872 2.8715 25.1606 3 24.6286 3C24.0965 3 23.87 2.8715 23.2564 2.29149C22.2832 1.3715 21.6282 1 20.3971 1C19.166 1 18.511 1.3715 17.5378 2.29149C16.9242 2.8715 16.6976 3 16.1656 3C15.6336 3 15.407 2.8715 14.7934 2.29149C13.8202 1.3715 13.1652 1 11.9341 1C10.703 1 10.048 1.3715 9.0748 2.29149C8.46123 2.8715 8.23466 3 7.70263 3C7.1706 3 6.94403 2.8715 6.33046 2.29149C5.35723 1.3715 4.70224 1 3.47115 1C1.75133 1 0.0890553 1.78567 -1.50391 3.29149ZM-0.0167615 8.70851L-1.50391 7.29149C0.0890553 5.78567 1.75133 5 3.47115 5C4.70224 5 5.35723 5.3715 6.33046 6.29149C6.94403 6.8715 7.1706 7 7.70263 7C8.23466 7 8.46123 6.8715 9.0748 6.29149C10.048 5.3715 10.703 5 11.9341 5C13.1652 5 13.8202 5.3715 14.7934 6.29149C15.407 6.8715 15.6336 7 16.1656 7C16.6976 7 16.9242 6.8715 17.5378 6.29149C18.511 5.3715 19.166 5 20.3971 5C21.6282 5 22.2832 5.3715 23.2564 6.29149C23.87 6.8715 24.0965 7 24.6286 7C25.1606 7 25.3872 6.8715 26.0007 6.29149C26.974 5.3715 27.6289 5 28.86 5C30.5799 5 32.2421 5.78567 33.8351 7.29149L32.3479 8.70851C31.1199 7.54766 29.9612 7 28.86 7C28.328 7 28.1014 7.1285 27.4879 7.70851C26.5146 8.6285 25.8596 9 24.6286 9C23.3975 9 22.7425 8.6285 21.7692 7.70851C21.1557 7.1285 20.9291 7 20.3971 7C19.865 7 19.6385 7.1285 19.0249 7.70851C18.0517 8.6285 17.3967 9 16.1656 9C14.9345 9 14.2795 8.6285 13.3063 7.70851C12.6927 7.1285 12.4661 7 11.9341 7C11.4021 7 11.1755 7.1285 10.5619 7.70851C9.58871 8.6285 8.93372 9 7.70263 9C6.47154 9 5.81655 8.6285 4.84332 7.70851C4.22974 7.1285 4.00317 7 3.47115 7C2.36998 7 1.21126 7.54766 -0.0167615 8.70851ZM-0.0167615 12.7085L-1.50391 11.2915C0.0890553 9.78567 1.75133 9 3.47115 9C4.70224 9 5.35723 9.3715 6.33046 10.2915C6.94403 10.8715 7.1706 11 7.70263 11C8.23466 11 8.46123 10.8715 9.0748 10.2915C10.048 9.3715 10.703 9 11.9341 9C13.1652 9 13.8202 9.3715 14.7934 10.2915C15.407 10.8715 15.6336 11 16.1656 11C16.6976 11 16.9242 10.8715 17.5378 10.2915C18.511 9.3715 19.166 9 20.3971 9C21.6282 9 22.2832 9.3715 23.2564 10.2915C23.87 10.8715 24.0965 11 24.6286 11C25.1606 11 25.3872 10.8715 26.0007 10.2915C26.974 9.3715 27.6289 9 28.86 9C30.5799 9 32.2421 9.78567 33.8351 11.2915L32.3479 12.7085C31.1199 11.5477 29.9612 11 28.86 11C28.328 11 28.1014 11.1285 27.4879 11.7085C26.5146 12.6285 25.8596 13 24.6286 13C23.3975 13 22.7425 12.6285 21.7692 11.7085C21.1557 11.1285 20.9291 11 20.3971 11C19.865 11 19.6385 11.1285 19.0249 11.7085C18.0517 12.6285 17.3967 13 16.1656 13C14.9345 13 14.2795 12.6285 13.3063 11.7085C12.6927 11.1285 12.4661 11 11.9341 11C11.4021 11 11.1755 11.1285 10.5619 11.7085C9.58871 12.6285 8.93372 13 7.70263 13C6.47154 13 5.81655 12.6285 4.84332 11.7085C4.22974 11.1285 4.00317 11 3.47115 11C2.36998 11 1.21126 11.5477 -0.0167615 12.7085ZM-0.0167615 16.7085L-1.50391 15.2915C0.0890553 13.7857 1.75133 13 3.47115 13C4.70224 13 5.35723 13.3715 6.33046 14.2915C6.94403 14.8715 7.1706 15 7.70263 15C8.23466 15 8.46123 14.8715 9.0748 14.2915C10.048 13.3715 10.703 13 11.9341 13C13.1652 13 13.8202 13.3715 14.7934 14.2915C15.407 14.8715 15.6336 15 16.1656 15C16.6976 15 16.9242 14.8715 17.5378 14.2915C18.511 13.3715 19.166 13 20.3971 13C21.6282 13 22.2832 13.3715 23.2564 14.2915C23.87 14.8715 24.0965 15 24.6286 15C25.1606 15 25.3872 14.8715 26.0007 14.2915C26.974 13.3715 27.6289 13 28.86 13C30.5799 13 32.2421 13.7857 33.8351 15.2915L32.3479 16.7085C31.1199 15.5477 29.9612 15 28.86 15C28.328 15 28.1014 15.1285 27.4879 15.7085C26.5146 16.6285 25.8596 17 24.6286 17C23.3975 17 22.7425 16.6285 21.7692 15.7085C21.1557 15.1285 20.9291 15 20.3971 15C19.865 15 19.6385 15.1285 19.0249 15.7085C18.0517 16.6285 17.3967 17 16.1656 17C14.9345 17 14.2795 16.6285 13.3063 15.7085C12.6927 15.1285 12.4661 15 11.9341 15C11.4021 15 11.1755 15.1285 10.5619 15.7085C9.58871 16.6285 8.93372 17 7.70263 17C6.47154 17 5.81655 16.6285 4.84332 15.7085C4.22974 15.1285 4.00317 15 3.47115 15C2.36998 15 1.21126 15.5477 -0.0167615 16.7085ZM-0.0167615 20.7085L-1.50391 19.2915C0.0890553 17.7857 1.75133 17 3.47115 17C4.70224 17 5.35723 17.3715 6.33046 18.2915C6.94403 18.8715 7.1706 19 7.70263 19C8.23466 19 8.46123 18.8715 9.0748 18.2915C10.048 17.3715 10.703 17 11.9341 17C13.1652 17 13.8202 17.3715 14.7934 18.2915C15.407 18.8715 15.6336 19 16.1656 19C16.6976 19 16.9242 18.8715 17.5378 18.2915C18.511 17.3715 19.166 17 20.3971 17C21.6282 17 22.2832 17.3715 23.2564 18.2915C23.87 18.8715 24.0965 19 24.6286 19C25.1606 19 25.3872 18.8715 26.0007 18.2915C26.974 17.3715 27.6289 17 28.86 17C30.5799 17 32.2421 17.7857 33.8351 19.2915L32.3479 20.7085C31.1199 19.5477 29.9612 19 28.86 19C28.328 19 28.1014 19.1285 27.4879 19.7085C26.5146 20.6285 25.8596 21 24.6286 21C23.3975 21 22.7425 20.6285 21.7692 19.7085C21.1557 19.1285 20.9291 19 20.3971 19C19.865 19 19.6385 19.1285 19.0249 19.7085C18.0517 20.6285 17.3967 21 16.1656 21C14.9345 21 14.2795 20.6285 13.3063 19.7085C12.6927 19.1285 12.4661 19 11.9341 19C11.4021 19 11.1755 19.1285 10.5619 19.7085C9.58871 20.6285 8.93372 21 7.70263 21C6.47154 21 5.81655 20.6285 4.84332 19.7085C4.22974 19.1285 4.00317 19 3.47115 19C2.36998 19 1.21126 19.5477 -0.0167615 20.7085ZM-0.0167615 24.7085L-1.50391 23.2915C0.0890553 21.7857 1.75133 21 3.47115 21C4.70224 21 5.35723 21.3715 6.33046 22.2915C6.94403 22.8715 7.1706 23 7.70263 23C8.23466 23 8.46123 22.8715 9.0748 22.2915C10.048 21.3715 10.703 21 11.9341 21C13.1652 21 13.8202 21.3715 14.7934 22.2915C15.407 22.8715 15.6336 23 16.1656 23C16.6976 23 16.9242 22.8715 17.5378 22.2915C18.511 21.3715 19.166 21 20.3971 21C21.6282 21 22.2832 21.3715 23.2564 22.2915C23.87 22.8715 24.0965 23 24.6286 23C25.1606 23 25.3872 22.8715 26.0007 22.2915C26.974 21.3715 27.6289 21 28.86 21C30.5799 21 32.2421 21.7857 33.8351 23.2915L32.3479 24.7085C31.1199 23.5477 29.9612 23 28.86 23C28.328 23 28.1014 23.1285 27.4879 23.7085C26.5146 24.6285 25.8596 25 24.6286 25C23.3975 25 22.7425 24.6285 21.7692 23.7085C21.1557 23.1285 20.9291 23 20.3971 23C19.865 23 19.6385 23.1285 19.0249 23.7085C18.0517 24.6285 17.3967 25 16.1656 25C14.9345 25 14.2795 24.6285 13.3063 23.7085C12.6927 23.1285 12.4661 23 11.9341 23C11.4021 23 11.1755 23.1285 10.5619 23.7085C9.58871 24.6285 8.93372 25 7.70263 25C6.47154 25 5.81655 24.6285 4.84332 23.7085C4.22974 23.1285 4.00317 23 3.47115 23C2.36998 23 1.21126 23.5477 -0.0167615 24.7085Z" fill="#2E42A5"/>
<mask id="mask2_5190_107691" style="mask-type:luminance" maskUnits="userSpaceOnUse" x="0" y="0" width="14" height="10">
<rect width="14" height="10" fill="white"/>
</mask>
<g mask="url(#mask2_5190_107691)">
<rect width="14" height="12" fill="#2E42A5"/>
<path d="M-2.15625 11.3332L1.50001 12.8774L16.3922 1.45669L18.3208 -0.838006L14.4109 -1.35412L8.33678 3.56739L3.4477 6.88333L-2.15625 11.3332Z" fill="white"/>
<path d="M-1.65625 12.4151L0.206447 13.3112L17.6277 -1.0512H15.0123L-1.65625 12.4151Z" fill="#F50100"/>
<path d="M18.1602 11.3332L14.5039 12.8774L-0.388287 1.45669L-2.31688 -0.838006L1.59296 -1.35412L7.66713 3.56739L12.5562 6.88333L18.1602 11.3332Z" fill="white"/>
<path d="M18.0352 12.1096L16.1725 13.0057L8.75431 6.85644L6.55499 6.1694L-2.5027 -0.830188H0.112745L9.16534 6.00326L11.5699 6.8271L18.0352 12.1096Z" fill="#F50100"/>
<mask id="path-11-outside-1_5190_107691" maskUnits="userSpaceOnUse" x="-0.984375" y="-1" width="16" height="12" fill="black">
<rect fill="white" x="-0.984375" y="-1" width="16" height="12"/>
<path fill-rule="evenodd" clip-rule="evenodd" d="M8.00014 0H6.00014V4H0.015625V6H6.00014V10H8.00014V6H14.0156V4H8.00014V0Z"/>
</mask>
<path fill-rule="evenodd" clip-rule="evenodd" d="M8.00014 0H6.00014V4H0.015625V6H6.00014V10H8.00014V6H14.0156V4H8.00014V0Z" fill="#F50100"/>
<path d="M6.00014 0V-1H5.00014V0H6.00014ZM8.00014 0H9.00014V-1H8.00014V0ZM6.00014 4V5H7.00014V4H6.00014ZM0.015625 4V3H-0.984375V4H0.015625ZM0.015625 6H-0.984375V7H0.015625V6ZM6.00014 6H7.00014V5H6.00014V6ZM6.00014 10H5.00014V11H6.00014V10ZM8.00014 10V11H9.00014V10H8.00014ZM8.00014 6V5H7.00014V6H8.00014ZM14.0156 6V7H15.0156V6H14.0156ZM14.0156 4H15.0156V3H14.0156V4ZM8.00014 4H7.00014V5H8.00014V4ZM6.00014 1H8.00014V-1H6.00014V1ZM7.00014 4V0H5.00014V4H7.00014ZM0.015625 5H6.00014V3H0.015625V5ZM1.01562 6V4H-0.984375V6H1.01562ZM6.00014 5H0.015625V7H6.00014V5ZM7.00014 10V6H5.00014V10H7.00014ZM8.00014 9H6.00014V11H8.00014V9ZM7.00014 6V10H9.00014V6H7.00014ZM14.0156 5H8.00014V7H14.0156V5ZM13.0156 4V6H15.0156V4H13.0156ZM8.00014 5H14.0156V3H8.00014V5ZM7.00014 0V4H9.00014V0H7.00014Z" fill="#F7FCFF" mask="url(#path-11-outside-1_5190_107691)"/>
</g>
<rect x="20.3984" y="9.3786" width="1" height="12.6214" rx="0.5" fill="#D86D00"/>
<mask id="path-14-outside-2_5190_107691" maskUnits="userSpaceOnUse" x="14.5117" y="0.0574951" width="12" height="12" fill="black">
<rect fill="white" x="14.5117" y="0.0574951" width="12" height="12"/>
<path fill-rule="evenodd" clip-rule="evenodd" d="M20.4035 2.0575C21.2308 3.192 21.57 4.53268 21.6005 5.8967C22.5343 4.6312 24.0921 3.5974 24.8205 3.1553C24.1521 3.62274 23.8049 4.31572 23.4143 5.09549C23.2226 5.47816 23.0204 5.88174 22.7647 6.28982C24.3562 5.71805 25.9372 5.57125 25.9372 5.57125C24.8766 5.8722 23.8982 6.48665 22.9475 7.0837L22.9475 7.08371L22.9475 7.08376L22.9474 7.08382L22.9472 7.0839C22.6004 7.30169 22.2573 7.51717 21.9153 7.71427C24.987 8.87125 25.4596 10.5444 25.4596 10.5444C25.083 10.212 24.2706 9.85632 22.7365 9.1846L22.7362 9.18445C22.4423 9.05578 22.1219 8.91552 21.7731 8.7616C22.0022 9.60532 22.2801 10.2653 22.5454 10.8954L22.6244 11.0831C22.6244 11.0831 20.4987 10.5092 20.095 8.86129C18.9025 9.81889 17.6141 10.364 17.0097 10.5799C17.0097 10.5799 18.4489 9.01751 19.506 7.98065C18.1181 7.82421 15.5117 7.69612 15.5117 7.69612L15.697 7.65206C16.745 7.40236 18.3664 7.01605 19.8523 7.03627C18.2589 6.14345 17.279 4.93485 16.9779 4.52867C17.2316 4.75286 17.938 5.03355 18.9018 5.41656C19.3086 5.57821 19.7613 5.75809 20.2451 5.95963C20.3372 4.27569 20.4035 2.0575 20.4035 2.0575ZM16.8784 4.38902C16.8885 4.43318 16.9224 4.47957 16.9779 4.52867C16.9118 4.43951 16.8784 4.38902 16.8784 4.38902ZM25.2188 2.92371C25.0739 2.99291 24.9419 3.07039 24.8205 3.1553C25.0672 3.00557 25.2188 2.92371 25.2188 2.92371ZM20.6889 7.01627C20.7508 6.98879 20.8193 6.97353 20.8915 6.97353C20.9294 6.97353 20.9663 6.97774 21.0018 6.98574C21.0122 6.95619 21.0231 6.9267 21.0344 6.89728L20.7032 6.92008L20.6889 7.01627Z"/>
</mask>
<path fill-rule="evenodd" clip-rule="evenodd" d="M20.4035 2.0575C21.2308 3.192 21.57 4.53268 21.6005 5.8967C22.5343 4.6312 24.0921 3.5974 24.8205 3.1553C24.1521 3.62274 23.8049 4.31572 23.4143 5.09549C23.2226 5.47816 23.0204 5.88174 22.7647 6.28982C24.3562 5.71805 25.9372 5.57125 25.9372 5.57125C24.8766 5.8722 23.8982 6.48665 22.9475 7.0837L22.9475 7.08371L22.9475 7.08376L22.9474 7.08382L22.9472 7.0839C22.6004 7.30169 22.2573 7.51717 21.9153 7.71427C24.987 8.87125 25.4596 10.5444 25.4596 10.5444C25.083 10.212 24.2706 9.85632 22.7365 9.1846L22.7362 9.18445C22.4423 9.05578 22.1219 8.91552 21.7731 8.7616C22.0022 9.60532 22.2801 10.2653 22.5454 10.8954L22.6244 11.0831C22.6244 11.0831 20.4987 10.5092 20.095 8.86129C18.9025 9.81889 17.6141 10.364 17.0097 10.5799C17.0097 10.5799 18.4489 9.01751 19.506 7.98065C18.1181 7.82421 15.5117 7.69612 15.5117 7.69612L15.697 7.65206C16.745 7.40236 18.3664 7.01605 19.8523 7.03627C18.2589 6.14345 17.279 4.93485 16.9779 4.52867C17.2316 4.75286 17.938 5.03355 18.9018 5.41656C19.3086 5.57821 19.7613 5.75809 20.2451 5.95963C20.3372 4.27569 20.4035 2.0575 20.4035 2.0575ZM16.8784 4.38902C16.8885 4.43318 16.9224 4.47957 16.9779 4.52867C16.9118 4.43951 16.8784 4.38902 16.8784 4.38902ZM25.2188 2.92371C25.0739 2.99291 24.9419 3.07039 24.8205 3.1553C25.0672 3.00557 25.2188 2.92371 25.2188 2.92371ZM20.6889 7.01627C20.7508 6.98879 20.8193 6.97353 20.8915 6.97353C20.9294 6.97353 20.9663 6.97774 21.0018 6.98574C21.0122 6.95619 21.0231 6.9267 21.0344 6.89728L20.7032 6.92008L20.6889 7.01627Z" fill="#449A01"/>
<path d="M21.6005 5.8967L21.2505 5.90451L21.2734 6.92931L21.8821 6.10452L21.6005 5.8967ZM20.4035 2.0575L20.6863 1.85128L20.0842 1.02554L20.0537 2.04704L20.4035 2.0575ZM23.4143 5.09549L23.1014 4.93872V4.93872L23.4143 5.09549ZM22.7647 6.28982L22.4681 6.10395L21.9308 6.96129L22.883 6.61921L22.7647 6.28982ZM25.9372 5.57125L26.0327 5.90796L25.9048 5.22275L25.9372 5.57125ZM22.9475 7.0837L22.7614 6.78731L22.754 6.79196L22.7468 6.79697L22.9475 7.0837ZM22.9475 7.08371L23.1351 7.37923L23.1418 7.37498L23.1482 7.37044L22.9475 7.08371ZM22.9475 7.08376L23.1348 7.37938L23.135 7.37927L22.9475 7.08376ZM22.9474 7.08382L23.1332 7.38042L23.1347 7.37945L22.9474 7.08382ZM22.9472 7.0839L22.7614 6.7873L22.7611 6.7875L22.9472 7.0839ZM21.9153 7.71427L21.7405 7.411L21.0988 7.78075L21.7919 8.0418L21.9153 7.71427ZM25.4596 10.5444L25.228 10.8068L26.1197 11.594L25.7964 10.4493L25.4596 10.5444ZM22.7365 9.1846L22.8769 8.86398L22.8767 8.86389L22.7365 9.1846ZM22.7362 9.18445L22.5958 9.50507L22.596 9.50516L22.7362 9.18445ZM21.7731 8.7616L21.9144 8.44139L21.2431 8.14517L21.4353 8.85332L21.7731 8.7616ZM22.5454 10.8954L22.8681 10.7598L22.868 10.7596L22.5454 10.8954ZM22.6244 11.0831L22.5331 11.421L23.2246 11.6077L22.947 10.9475L22.6244 11.0831ZM20.095 8.86129L20.4349 8.778L20.3042 8.2444L19.8758 8.5884L20.095 8.86129ZM17.0097 10.5799L16.7522 10.3428L17.1274 10.9095L17.0097 10.5799ZM19.506 7.98065L19.751 8.23051L20.2763 7.71527L19.5452 7.63286L19.506 7.98065ZM15.5117 7.69612L15.4307 7.35562L15.4945 8.0457L15.5117 7.69612ZM15.697 7.65206L15.778 7.99256L15.7781 7.99253L15.697 7.65206ZM19.8523 7.03627L19.8475 7.38624L20.0234 6.73094L19.8523 7.03627ZM18.9018 5.41656L19.0311 5.0913H19.0311L18.9018 5.41656ZM20.2451 5.95963L20.1106 6.28272L20.5676 6.47309L20.5946 5.97874L20.2451 5.95963ZM16.8784 4.38902L17.1704 4.19595L16.5372 4.4669L16.8784 4.38902ZM25.2188 2.92371L25.3851 3.23168L25.0679 2.60791L25.2188 2.92371ZM20.6889 7.01627L20.3427 6.9646L20.2487 7.59452L20.8308 7.33619L20.6889 7.01627ZM21.0018 6.98574L20.9249 7.32719L21.2285 7.39557L21.3319 7.10199L21.0018 6.98574ZM21.0344 6.89728L21.361 7.02324L21.5588 6.51034L21.0104 6.5481L21.0344 6.89728ZM20.7032 6.92008L20.6792 6.57091L20.3986 6.59023L20.3571 6.86841L20.7032 6.92008ZM21.9504 5.88888C21.9188 4.47307 21.5659 3.05758 20.6863 1.85128L20.1207 2.26371C20.8956 3.32641 21.2213 4.59229 21.2505 5.90451L21.9504 5.88888ZM24.6389 2.8561C23.9058 3.30101 22.2963 4.3643 21.3188 5.68887L21.8821 6.10452C22.7723 4.89811 24.2783 3.8938 25.0021 3.45451L24.6389 2.8561ZM23.7272 5.25225C24.1253 4.45757 24.4374 3.85032 25.0211 3.44213L24.6199 2.86848C23.8668 3.39516 23.4845 4.17387 23.1014 4.93872L23.7272 5.25225ZM23.0612 6.47569C23.3271 6.05139 23.5363 5.63335 23.7272 5.25225L23.1014 4.93872C22.9089 5.32298 22.7137 5.71209 22.4681 6.10395L23.0612 6.47569ZM25.9372 5.57125C25.9048 5.22275 25.9048 5.22276 25.9047 5.22276C25.9047 5.22276 25.9046 5.22277 25.9046 5.22277C25.9044 5.22278 25.9043 5.2228 25.9042 5.22281C25.9038 5.22284 25.9034 5.22288 25.9029 5.22293C25.9019 5.22302 25.9005 5.22316 25.8988 5.22333C25.8952 5.22367 25.8902 5.22417 25.8837 5.22483C25.8707 5.22615 25.8519 5.22812 25.8276 5.2308C25.7791 5.23617 25.7088 5.24442 25.6198 5.25609C25.4418 5.27943 25.1887 5.31651 24.8851 5.37178C24.2793 5.48207 23.4661 5.66594 22.6463 5.96043L22.883 6.61921C23.6548 6.34193 24.4279 6.16652 25.0104 6.06046C25.301 6.00756 25.5426 5.97221 25.7108 5.95015C25.7949 5.93913 25.8605 5.93144 25.9046 5.92655C25.9267 5.92411 25.9434 5.92236 25.9544 5.92125C25.9598 5.9207 25.9639 5.9203 25.9664 5.92005C25.9677 5.91993 25.9686 5.91984 25.9691 5.91979C25.9694 5.91977 25.9695 5.91975 25.9696 5.91975C25.9696 5.91974 25.9697 5.91974 25.9696 5.91974C25.9696 5.91974 25.9696 5.91975 25.9696 5.91975C25.9696 5.91975 25.9695 5.91975 25.9372 5.57125ZM23.1337 7.3801C24.093 6.77761 25.0288 6.19282 26.0327 5.90796L25.8416 5.23454C24.7244 5.55158 23.7034 6.19569 22.7614 6.78731L23.1337 7.3801ZM23.1482 7.37044L23.1483 7.37043L22.7468 6.79697L22.7468 6.79698L23.1482 7.37044ZM23.135 7.37927L23.1351 7.37923L22.76 6.7882L22.7599 6.78824L23.135 7.37927ZM23.1347 7.37945L23.1348 7.37938L22.7601 6.78813L22.76 6.7882L23.1347 7.37945ZM23.1331 7.3805L23.1332 7.38042L22.7615 6.78722L22.7614 6.7873L23.1331 7.3805ZM22.09 8.01753C22.4388 7.81653 22.7876 7.59742 23.1334 7.38029L22.7611 6.7875C22.4132 7.00597 22.0758 7.21781 21.7405 7.411L22.09 8.01753ZM25.4596 10.5444C25.7964 10.4493 25.7963 10.4491 25.7963 10.4488C25.7962 10.4487 25.7962 10.4484 25.7961 10.4482C25.796 10.4478 25.7959 10.4474 25.7958 10.447C25.7955 10.4461 25.7952 10.4451 25.7949 10.4441C25.7943 10.4419 25.7935 10.4394 25.7926 10.4364C25.7908 10.4305 25.7884 10.423 25.7853 10.4139C25.7793 10.3958 25.7706 10.3717 25.7589 10.342C25.7355 10.2825 25.6997 10.2009 25.6473 10.1016C25.5424 9.90279 25.3714 9.63388 25.1005 9.33024C24.5575 8.7215 23.6227 7.98336 22.0386 7.38673L21.7919 8.0418C23.2796 8.60216 24.1169 9.2791 24.5781 9.7962C24.8094 10.0555 24.9485 10.2772 25.0282 10.4282C25.0681 10.5039 25.0932 10.562 25.1077 10.5986C25.1149 10.6169 25.1194 10.6298 25.1218 10.6368C25.1229 10.6403 25.1236 10.6423 25.1237 10.6428C25.1238 10.6431 25.1237 10.6429 25.1236 10.6424C25.1235 10.6421 25.1234 10.6417 25.1233 10.6413C25.1232 10.641 25.1231 10.6408 25.123 10.6405C25.123 10.6404 25.1229 10.6401 25.1229 10.6401C25.1228 10.6398 25.1228 10.6396 25.4596 10.5444ZM22.5961 9.50521C23.3658 9.84224 23.945 10.0959 24.3793 10.3066C24.8196 10.5203 25.0786 10.6749 25.228 10.8068L25.6912 10.282C25.4641 10.0815 25.1285 9.89211 24.6849 9.67687C24.2354 9.45873 23.6413 9.19868 22.8769 8.86398L22.5961 9.50521ZM22.596 9.50516L22.5963 9.50531L22.8767 8.86389L22.8763 8.86374L22.596 9.50516ZM21.6318 9.08182C21.9812 9.23596 22.302 9.37641 22.5958 9.50507L22.8765 8.86384C22.5826 8.73515 22.2627 8.59508 21.9144 8.44139L21.6318 9.08182ZM22.868 10.7596C22.6027 10.1294 22.3332 9.48866 22.1109 8.66989L21.4353 8.85332C21.6712 9.72198 21.9576 10.4012 22.2229 11.0313L22.868 10.7596ZM22.947 10.9475L22.8681 10.7598L22.2228 11.0311L22.3017 11.2188L22.947 10.9475ZM19.755 8.94459C19.9893 9.90081 20.7153 10.5205 21.3309 10.8902C21.6432 11.0778 21.9405 11.2094 22.1596 11.2941C22.2695 11.3366 22.3606 11.3678 22.4252 11.3885C22.4576 11.3989 22.4834 11.4067 22.5017 11.4121C22.5108 11.4148 22.5181 11.4168 22.5234 11.4183C22.526 11.4191 22.5281 11.4197 22.5298 11.4201C22.5306 11.4203 22.5313 11.4205 22.5318 11.4207C22.5321 11.4208 22.5324 11.4208 22.5326 11.4209C22.5327 11.4209 22.5328 11.421 22.5329 11.421C22.533 11.421 22.5331 11.421 22.6244 11.0831C22.7156 10.7452 22.7157 10.7453 22.7158 10.7453C22.7158 10.7453 22.7159 10.7453 22.7159 10.7453C22.716 10.7454 22.7161 10.7454 22.7161 10.7454C22.7161 10.7454 22.7161 10.7454 22.7158 10.7453C22.7154 10.7452 22.7145 10.7449 22.7131 10.7445C22.7103 10.7438 22.7056 10.7424 22.6991 10.7405C22.686 10.7367 22.6658 10.7305 22.6392 10.722C22.586 10.7049 22.5079 10.6783 22.4122 10.6413C22.2201 10.567 21.9608 10.452 21.6913 10.2901C21.1432 9.96093 20.6044 9.46969 20.4349 8.778L19.755 8.94459ZM17.1274 10.9095C17.7528 10.6861 19.0805 10.1249 20.3141 9.13419L19.8758 8.5884C18.7246 9.51294 17.4754 10.0419 16.8919 10.2503L17.1274 10.9095ZM19.2609 7.73079C18.7275 8.25394 18.0998 8.90759 17.6071 9.42864C17.3604 9.68954 17.1468 9.91793 16.9949 10.0811C16.9189 10.1627 16.8583 10.2281 16.8167 10.273C16.7959 10.2955 16.7798 10.3129 16.7689 10.3247C16.7635 10.3306 16.7593 10.3351 16.7565 10.3381C16.7551 10.3397 16.7541 10.3408 16.7533 10.3416C16.753 10.342 16.7527 10.3423 16.7525 10.3425C16.7524 10.3426 16.7524 10.3427 16.7523 10.3427C16.7523 10.3427 16.7523 10.3428 16.7523 10.3428C16.7522 10.3428 16.7522 10.3428 17.0097 10.5799C17.2671 10.8171 17.2671 10.8171 17.2671 10.8171C17.2671 10.8171 17.2671 10.817 17.2671 10.817C17.2672 10.817 17.2672 10.8169 17.2673 10.8168C17.2675 10.8166 17.2677 10.8164 17.2681 10.816C17.2687 10.8153 17.2698 10.8142 17.2711 10.8127C17.2738 10.8098 17.2779 10.8054 17.2832 10.7996C17.2939 10.788 17.3098 10.7708 17.3304 10.7485C17.3716 10.704 17.4318 10.6392 17.5072 10.5581C17.6582 10.3959 17.8705 10.1689 18.1157 9.9096C18.6069 9.39022 19.2273 8.74423 19.751 8.23051L19.2609 7.73079ZM15.5117 7.69612C15.4945 8.0457 15.4945 8.0457 15.4946 8.0457C15.4946 8.0457 15.4946 8.0457 15.4946 8.0457C15.4947 8.04571 15.4948 8.04571 15.495 8.04572C15.4953 8.04573 15.4957 8.04576 15.4963 8.04579C15.4976 8.04585 15.4994 8.04594 15.5019 8.04606C15.5068 8.04631 15.5141 8.04667 15.5238 8.04716C15.5431 8.04813 15.5716 8.04957 15.6084 8.05147C15.6821 8.05526 15.789 8.06086 15.9217 8.06806C16.187 8.08248 16.5552 8.10332 16.9665 8.12904C17.7915 8.18061 18.7823 8.2513 19.4667 8.32845L19.5452 7.63286C18.8417 7.55356 17.8354 7.48199 17.0102 7.4304C16.5965 7.40454 16.2264 7.38358 15.9596 7.36909C15.8263 7.36185 15.7187 7.35622 15.6444 7.35239C15.6073 7.35048 15.5785 7.34902 15.5589 7.34804C15.5491 7.34755 15.5416 7.34717 15.5366 7.34692C15.5341 7.3468 15.5322 7.3467 15.5309 7.34664C15.5302 7.34661 15.5298 7.34658 15.5294 7.34657C15.5293 7.34656 15.5291 7.34655 15.529 7.34655C15.529 7.34655 15.529 7.34655 15.5289 7.34654C15.5289 7.34654 15.5289 7.34654 15.5117 7.69612ZM15.616 7.31155L15.4307 7.35562L15.5927 8.03663L15.778 7.99256L15.616 7.31155ZM19.8571 6.6863C18.3205 6.66539 16.6569 7.06357 15.6159 7.31159L15.7781 7.99253C16.8332 7.74116 18.4124 7.36671 19.8475 7.38624L19.8571 6.6863ZM16.6968 4.73711C17.013 5.16376 18.0278 6.41516 19.6812 7.34161L20.0234 6.73094C18.4899 5.87174 17.545 4.70593 17.2591 4.32024L16.6968 4.73711ZM19.0311 5.0913C18.5468 4.89886 18.1367 4.73581 17.8157 4.5932C17.4816 4.4448 17.2904 4.33771 17.2097 4.26641L16.7462 4.79094C16.9192 4.94382 17.2079 5.08917 17.5315 5.23291C17.868 5.38245 18.293 5.55125 18.7726 5.74182L19.0311 5.0913ZM20.3797 5.63654C19.8928 5.43374 19.4376 5.25286 19.0311 5.0913L18.7726 5.74182C19.1796 5.90356 19.6297 6.08244 20.1106 6.28272L20.3797 5.63654ZM20.4035 2.0575C20.0537 2.04704 20.0537 2.04704 20.0537 2.04706C20.0537 2.04707 20.0537 2.0471 20.0537 2.04713C20.0537 2.04719 20.0537 2.04729 20.0537 2.04742C20.0537 2.04768 20.0536 2.04807 20.0536 2.0486C20.0536 2.04966 20.0536 2.05124 20.0535 2.05335C20.0534 2.05756 20.0532 2.06386 20.0529 2.07215C20.0524 2.08873 20.0517 2.1133 20.0507 2.14519C20.0487 2.20898 20.0457 2.30203 20.0419 2.41897C20.0343 2.65287 20.0231 2.98228 20.0091 3.36424C19.981 4.12858 19.9415 5.10167 19.8957 5.94052L20.5946 5.97874C20.6408 5.13365 20.6805 4.15567 20.7086 3.38992C20.7227 3.00684 20.7339 2.67647 20.7415 2.44183C20.7454 2.3245 20.7483 2.2311 20.7503 2.167C20.7513 2.13495 20.7521 2.11022 20.7526 2.09349C20.7528 2.08512 20.753 2.07875 20.7532 2.07447C20.7532 2.07233 20.7533 2.07071 20.7533 2.06962C20.7533 2.06907 20.7533 2.06866 20.7534 2.06838C20.7534 2.06824 20.7534 2.06814 20.7534 2.06807C20.7534 2.06803 20.7534 2.068 20.7534 2.06798C20.7534 2.06796 20.7534 2.06795 20.4035 2.0575ZM16.5372 4.4669C16.5717 4.61806 16.6715 4.725 16.7462 4.79094L17.2097 4.26641C17.1955 4.25383 17.1928 4.2492 17.1956 4.2531C17.1984 4.25696 17.2118 4.27658 17.2197 4.31113L16.5372 4.4669ZM17.2591 4.32024C17.2281 4.27839 17.2051 4.24613 17.1903 4.22492C17.1829 4.21432 17.1775 4.20648 17.1742 4.20159C17.1725 4.19914 17.1714 4.19743 17.1707 4.19649C17.1704 4.19601 17.1702 4.19573 17.1702 4.19564C17.1701 4.1956 17.1701 4.1956 17.1702 4.19565C17.1702 4.19568 17.1702 4.19571 17.1702 4.19577C17.1703 4.19579 17.1703 4.19582 17.1703 4.19585C17.1703 4.19587 17.1703 4.19588 17.1703 4.1959C17.1703 4.19591 17.1703 4.19592 17.1703 4.19592C17.1704 4.19594 17.1704 4.19595 16.8784 4.38902C16.5865 4.58208 16.5865 4.58209 16.5865 4.58211C16.5865 4.58211 16.5865 4.58213 16.5865 4.58214C16.5865 4.58216 16.5866 4.58218 16.5866 4.5822C16.5866 4.58224 16.5866 4.58229 16.5867 4.58234C16.5867 4.58244 16.5868 4.58255 16.5869 4.58268C16.5871 4.58292 16.5873 4.58322 16.5875 4.58357C16.5879 4.58426 16.5885 4.58515 16.5893 4.58623C16.5907 4.5884 16.5927 4.59133 16.5952 4.59501C16.6002 4.60238 16.6073 4.61273 16.6165 4.6259C16.6349 4.65222 16.6617 4.68979 16.6968 4.73711L17.2591 4.32024ZM25.0679 2.60791C24.9059 2.68532 24.7572 2.77247 24.6199 2.86848L25.0211 3.44213C25.1266 3.36831 25.242 3.3005 25.3697 3.23952L25.0679 2.60791ZM25.0021 3.45451C25.1224 3.38145 25.2192 3.32517 25.2855 3.28743C25.3186 3.26856 25.344 3.25433 25.3609 3.24496C25.3694 3.24028 25.3757 3.23681 25.3797 3.23459C25.3818 3.23347 25.3832 3.23267 25.3841 3.23219C25.3846 3.23194 25.3849 3.23178 25.385 3.23169C25.3851 3.23165 25.3852 3.23163 25.3852 3.23163C25.3852 3.23162 25.3852 3.23163 25.3851 3.23164C25.3851 3.23164 25.3851 3.23165 25.3851 3.23165C25.3851 3.23166 25.3851 3.23166 25.3851 3.23166C25.3851 3.23167 25.3851 3.23168 25.2188 2.92371C25.0525 2.61575 25.0524 2.61576 25.0524 2.61577C25.0524 2.61577 25.0524 2.61578 25.0524 2.61578C25.0524 2.61579 25.0523 2.61581 25.0523 2.61582C25.0523 2.61585 25.0522 2.61588 25.0521 2.61592C25.052 2.616 25.0518 2.61609 25.0516 2.61621C25.0512 2.61644 25.0506 2.61676 25.0499 2.61715C25.0484 2.61794 25.0464 2.61904 25.0438 2.62046C25.0386 2.6233 25.0312 2.6274 25.0215 2.63273C25.0023 2.64339 24.9744 2.65898 24.9388 2.67929C24.8676 2.71991 24.7652 2.77943 24.6389 2.8561L25.0021 3.45451ZM20.8915 6.62353C20.7695 6.62353 20.6527 6.64943 20.5469 6.69636L20.8308 7.33619C20.8489 7.32816 20.8692 7.32353 20.8915 7.32353V6.62353ZM21.0787 6.64429C21.0181 6.63065 20.9554 6.62353 20.8915 6.62353V7.32353C20.9033 7.32353 20.9145 7.32484 20.9249 7.32719L21.0787 6.64429ZM21.3319 7.10199C21.3412 7.07575 21.3508 7.0495 21.361 7.02324L20.7079 6.77132C20.6953 6.8039 20.6832 6.83662 20.6717 6.86949L21.3319 7.10199ZM21.0104 6.5481L20.6792 6.57091L20.7273 7.26926L21.0585 7.24645L21.0104 6.5481ZM20.3571 6.86841L20.3427 6.9646L21.035 7.06795L21.0494 6.97176L20.3571 6.86841Z" fill="white" mask="url(#path-14-outside-2_5190_107691)"/>
<path fill-rule="evenodd" clip-rule="evenodd" d="M24.2822 15.8189V15.6384C23.7555 15.1835 23.2039 14.9561 22.6275 14.9561C22.0748 14.6617 21.5155 14.5475 20.9494 14.6133C20.9495 14.6112 20.9496 14.6102 20.9496 14.6102C20.0984 14.5099 19.2406 14.9561 19.2406 14.9561C18.376 14.9561 17.5859 15.6384 17.5859 15.6384V15.8189L18.6187 17.0672C18.6187 17.0672 18.9095 18.2688 20.9454 17.9864V17.9894C20.9454 17.9894 22.2934 17.9451 22.3881 17.9072C22.4257 17.8922 22.4647 17.8785 22.5045 17.8645C22.7685 17.7717 23.0699 17.6658 23.2494 17.0672L24.2822 15.8189ZM20.9454 14.6685C20.916 15.0841 20.7482 17.5895 20.9454 17.9779V14.6685Z" fill="#F50100"/>
<path fill-rule="evenodd" clip-rule="evenodd" d="M19.2645 14.4168C19.3743 14.0115 19.5666 13.8743 20.0349 13.8743C20.3257 13.8743 20.5452 13.9558 20.698 14.1155V15.1985H20.7797V15.3269C20.7148 15.3745 20.6816 15.4783 20.703 15.5887C20.7104 15.6265 20.7234 15.6612 20.7405 15.6913C20.7061 15.6789 20.6672 15.6719 20.6261 15.6719C20.4848 15.6719 20.3701 15.7547 20.3701 15.8568C20.3701 15.9589 20.4848 16.0416 20.6261 16.0416C20.7675 16.0416 20.8821 15.9589 20.8821 15.8568C20.8821 15.9082 20.9112 15.9547 20.9582 15.9882H20.8325H20.8291C20.8291 16.2667 20.711 16.4441 20.5341 16.4441C20.4105 16.4441 20.3235 16.3761 20.2604 16.2262L20.0854 15.8101L20.0668 16.276C20.0602 16.4402 20.0009 16.5054 19.8532 16.5054C19.7098 16.5054 19.6068 16.3989 19.5372 16.1589C19.5579 16.1628 19.5797 16.1649 19.6021 16.1649C19.7435 16.1649 19.8581 16.0821 19.8581 15.98C19.8581 15.8779 19.7435 15.7951 19.6021 15.7951C19.5739 15.7951 19.5467 15.7985 19.5212 15.8046C19.5373 15.757 19.5414 15.7002 19.53 15.6414C19.503 15.5026 19.3999 15.4059 19.2996 15.4254C19.1994 15.4449 19.1401 15.5732 19.167 15.7119C19.1744 15.7498 19.1874 15.7845 19.2045 15.8146C19.1701 15.8021 19.1312 15.7951 19.0901 15.7951C18.9488 15.7951 18.8341 15.8779 18.8341 15.98C18.8341 16.0821 18.9488 16.1649 19.0901 16.1649C19.2048 16.1649 19.3018 16.1105 19.3344 16.0355L19.3264 16.1442C19.3036 16.451 19.2341 16.5949 19.1312 16.6151C18.9909 16.6425 18.8845 16.6295 18.8101 16.5811L18.659 16.4827V16.6501C18.6115 16.6562 18.5299 16.6455 18.4184 16.6163L18.401 16.7129L18.2131 16.5002C18.27 16.5083 18.3368 16.4966 18.3997 16.4632C18.5246 16.3968 18.5869 16.2699 18.539 16.1798C18.4911 16.0896 18.351 16.0704 18.2262 16.1367C18.2 16.1507 18.1765 16.1673 18.1563 16.1856C18.1539 16.1654 18.1496 16.1447 18.1433 16.1241C18.1019 15.9889 17.9893 15.9034 17.8917 15.9333C17.848 15.9467 17.8147 15.9809 17.7949 16.0267L17.7192 15.9409L17.649 16.0306L17.7774 16.1761C17.7799 16.1946 17.784 16.2133 17.7897 16.2322C17.8254 16.3489 17.9143 16.4285 18.0007 16.4289L18.3756 16.8533L18.3749 16.8571L18.3801 16.8585L18.5882 17.0941C18.6187 17.1616 18.6458 17.2241 18.6695 17.2812C18.6948 17.4035 18.7328 17.539 18.7869 17.6218C18.7918 17.6459 18.7943 17.6658 18.7943 17.6816C18.7943 17.8086 19.0689 17.884 19.6049 17.9615C20.0248 18.0221 20.5204 18.0629 20.9258 18.069V18.0698L20.9772 18.0696L21.0286 18.0698V18.069C21.4339 18.0629 21.9295 18.0221 22.3494 17.9615C22.8854 17.884 23.1601 17.8086 23.1601 17.6816C23.1601 17.5983 23.2291 17.3978 23.3661 17.0941L24.3054 16.0306L24.2352 15.9409L24.0012 16.2059L24.0049 16.1944C24.0462 16.0592 24.0006 15.9254 23.9029 15.8955C23.8053 15.8657 23.6927 15.9511 23.6513 16.0863C23.645 16.107 23.6407 16.1276 23.6383 16.1479C23.6181 16.1295 23.5946 16.1129 23.5684 16.099C23.4436 16.0326 23.3036 16.0519 23.2556 16.142C23.2077 16.2322 23.27 16.3591 23.3949 16.4254C23.5197 16.4918 23.6598 16.4725 23.7077 16.3824C23.7105 16.3772 23.7129 16.3719 23.7149 16.3664C23.7266 16.3746 23.7394 16.3809 23.7533 16.3852C23.7836 16.3944 23.8153 16.3926 23.846 16.3816L23.4804 16.7955L23.448 16.6163C23.3365 16.6455 23.255 16.6562 23.2074 16.6501V16.4827L23.0563 16.5811C22.982 16.6295 22.8755 16.6425 22.7353 16.6151C22.6323 16.5949 22.5628 16.451 22.5401 16.1442L22.5383 16.1198C22.5735 16.1408 22.6158 16.156 22.6623 16.1625C22.8023 16.1822 22.9273 16.1162 22.9416 16.0151C22.9558 15.914 22.8538 15.8161 22.7138 15.7964C22.6816 15.7919 22.6502 15.7919 22.6207 15.7958C22.6461 15.7496 22.6599 15.6906 22.6565 15.6269C22.6491 15.4858 22.5605 15.3756 22.4585 15.381C22.3566 15.3863 22.2799 15.5051 22.2873 15.6463C22.2891 15.6795 22.2953 15.7111 22.3052 15.7398C22.2757 15.7258 22.2425 15.7157 22.2068 15.7107C22.0667 15.691 21.9417 15.757 21.9275 15.8581C21.9133 15.9592 22.0153 16.0571 22.1553 16.0768C22.2347 16.0879 22.3092 16.0716 22.3615 16.0369L22.3403 16.1185C22.2707 16.387 22.1645 16.5054 22.0133 16.5054C21.8656 16.5054 21.8062 16.4402 21.7996 16.276L21.7811 15.8101L21.606 16.2262C21.5429 16.3761 21.456 16.4441 21.3323 16.4441C21.1638 16.4441 21.0486 16.283 21.0381 16.027C21.0688 16.0364 21.1026 16.0416 21.1381 16.0416C21.2795 16.0416 21.3941 15.9589 21.3941 15.8568C21.3941 15.7547 21.2795 15.6719 21.1381 15.6719C21.1099 15.6719 21.0827 15.6752 21.0572 15.6813C21.0733 15.6338 21.0774 15.5769 21.066 15.5182C21.0547 15.4604 21.0303 15.41 20.9985 15.3722H21.1893V15.2175V14.1346C21.3422 13.9748 21.5617 13.8933 21.8525 13.8933C22.3207 13.8933 22.513 14.0306 22.6228 14.4358C22.6929 14.6941 22.625 14.9145 22.4048 15.1202L22.5304 15.3149C22.7764 15.085 22.8849 14.8106 22.8468 14.5065C23.3735 14.4855 23.7672 14.5531 24.0257 14.705C24.2509 14.8372 24.292 15.1728 24.1217 15.7566L24.3149 15.8383C24.5154 15.1513 24.4581 14.6847 24.1156 14.4835C23.8137 14.3061 23.3738 14.234 22.7936 14.2623L22.7941 14.28C22.6477 13.8227 22.3737 13.6469 21.8525 13.6469C21.5878 13.6469 21.366 13.7083 21.1893 13.8327V13.7701H20.7797V13.8786C20.5916 13.7106 20.3422 13.6278 20.0349 13.6278C19.5243 13.6278 19.2509 13.7966 19.1023 14.2333L19.1055 14.139C18.5253 14.1107 18.0854 14.1829 17.7835 14.3602C17.4409 14.5615 17.3837 15.028 17.5841 15.715L17.7774 15.6334C17.607 15.0496 17.6482 14.714 17.8733 14.5817C18.133 14.4292 18.5289 14.3617 19.059 14.3836C18.9797 14.7292 19.0833 15.0401 19.3569 15.2958L19.4825 15.1012C19.2624 14.8954 19.1945 14.675 19.2645 14.4168ZM20.8821 15.8568C20.8821 15.8393 20.8855 15.8224 20.8918 15.8063C20.8848 15.8055 20.8778 15.8042 20.8709 15.8024C20.8782 15.8196 20.8821 15.8378 20.8821 15.8568ZM19.3412 15.9437C19.3395 15.9376 19.3374 15.9315 19.3349 15.9256L19.3424 15.9274L19.3412 15.9437ZM23.4084 16.877C23.2407 16.9127 23.1196 16.9091 23.0554 16.8461C22.9549 16.8813 22.837 16.8847 22.7024 16.8583C22.5586 16.8302 22.4585 16.7151 22.3983 16.5242C22.3196 16.6448 22.2202 16.7192 22.1011 16.7433C22.7564 16.8551 23.2154 17.0123 23.2154 17.0123C23.2154 17.0123 23.2041 17.1291 23.1766 17.2665C23.2057 17.1946 23.2402 17.1147 23.2801 17.0265L23.29 17.0111L23.4084 16.877ZM21.7919 16.6964C21.7349 16.6624 21.6894 16.6129 21.6565 16.5493C21.6076 16.6012 21.552 16.6392 21.4903 16.6626C21.5934 16.6721 21.6941 16.6835 21.7919 16.6964ZM21.1288 16.6386C21.0491 16.5943 20.9828 16.5232 20.9332 16.4322C20.884 16.5226 20.8183 16.5933 20.7393 16.6377C20.7861 16.636 20.8332 16.6348 20.8805 16.6342V16.6336L20.9215 16.6338L20.9626 16.6336V16.6342C21.0183 16.6349 21.0738 16.6364 21.1288 16.6386ZM18.6569 17.0027L18.5615 16.8946C18.6761 16.9083 18.7609 16.8953 18.8111 16.8461C18.9116 16.8813 19.0294 16.8847 19.164 16.8583C19.3078 16.8302 19.4079 16.7151 19.4682 16.5242C19.5445 16.6413 19.6405 16.7149 19.755 16.7411C19.1901 16.8366 18.7685 16.9666 18.6569 17.0027ZM20.3717 16.6609C20.2725 16.6697 20.1753 16.6805 20.0809 16.6926C20.1349 16.6587 20.1783 16.6106 20.21 16.5493C20.2577 16.5999 20.3117 16.6373 20.3717 16.6609ZM22.8908 17.684C22.9626 17.7244 23.0201 17.6841 23.0656 17.6067C23.0616 17.6281 23.0592 17.6474 23.0582 17.6647C23.0522 17.6694 23.043 17.6751 23.0309 17.6812C22.9971 17.6983 22.9456 17.7165 22.8786 17.7349C22.7469 17.7711 22.5594 17.807 22.3372 17.8391C21.9033 17.9018 21.3874 17.9431 20.9772 17.9463C20.567 17.9431 20.051 17.9018 19.6171 17.8391C19.3949 17.807 19.2074 17.7711 19.0757 17.7349C19.0196 17.7195 18.9743 17.7042 18.9412 17.6896C18.9449 17.688 18.9485 17.6861 18.9523 17.684C19.1759 17.558 20.6552 17.4398 20.9215 17.4194C21.1879 17.4398 22.6671 17.558 22.8908 17.684ZM23.1882 17.6614C23.1878 17.6617 23.1873 17.6623 23.1867 17.6632L23.1875 17.662L23.1882 17.6614Z" fill="#FECA00"/>
<path d="M19.1303 14.0384L19.1285 14.1616C18.2205 14.1425 17.6997 14.302 17.5675 14.6198C17.4308 14.9484 17.4562 15.3478 17.6477 15.8223L17.5556 15.8762C17.3513 15.3699 17.3234 14.9313 17.4759 14.5646C17.6329 14.1872 18.1839 14.0185 19.1303 14.0384Z" fill="white"/>
<path d="M19.3062 15.1312L19.2537 15.237C19.056 15.0949 18.957 14.8524 18.957 14.5182C18.957 14.038 19.1626 13.7563 19.6173 13.5636C19.9075 13.4406 20.304 13.491 20.8078 13.7108L20.7729 13.8267C20.2892 13.6157 19.915 13.5681 19.6513 13.6798C19.2343 13.8566 19.0594 14.0961 19.0594 14.5182C19.0594 14.8115 19.1416 15.0129 19.3062 15.1312Z" fill="white"/>
<path d="M22.7056 14.1616L22.7074 14.2848C23.6154 14.2657 24.1362 14.4252 24.2684 14.743C24.4051 15.0716 24.3797 15.4711 24.1882 15.9456L24.2803 15.9994C24.4846 15.4931 24.5126 15.0546 24.36 14.6879C24.203 14.3104 23.652 14.1417 22.7056 14.1616Z" fill="white"/>
<path d="M22.3813 15.1568L22.4338 15.2626C22.6315 15.1205 22.7305 14.878 22.7305 14.5439C22.7305 14.0636 22.5249 13.782 22.0702 13.5892C21.78 13.4662 21.3835 13.5167 20.8797 13.7365L20.9146 13.8523C21.3983 13.6413 21.7725 13.5937 22.0362 13.7055C22.4532 13.8822 22.6281 14.1218 22.6281 14.5439C22.6281 14.8371 22.5459 15.0385 22.3813 15.1568Z" fill="white"/>
</g>
</g>
</svg>
