<svg width="32" height="24" viewBox="0 0 32 24" fill="none" xmlns="http://www.w3.org/2000/svg">
<mask id="mask0_5190_107255" style="mask-type:luminance" maskUnits="userSpaceOnUse" x="0" y="0" width="32" height="24">
<rect width="32" height="24" fill="white"/>
</mask>
<g mask="url(#mask0_5190_107255)">
<path fill-rule="evenodd" clip-rule="evenodd" d="M0 0V8H32V0H0Z" fill="#272727"/>
<path fill-rule="evenodd" clip-rule="evenodd" d="M0 16V24H32V16H0Z" fill="#4E8B1D"/>
<path d="M0 7H-1V8V16V17H0H32H33V16V8V7H32H0Z" fill="#E31D1C" stroke="#F7FCFF" stroke-width="2"/>
</g>
<path d="M19.0205 3.92898C19.2108 3.53879 19.7225 3.1127 20.5554 2.65071C20.5841 2.63483 20.6186 2.63392 20.6481 2.64827C20.6978 2.67256 20.7185 2.7326 20.694 2.78226L12.0627 20.479L11.6133 20.2598L19.2217 4.66027C18.8772 4.60415 18.8101 4.36039 19.0205 3.92898Z" fill="white"/>
<path d="M12.9729 3.92898C13.1833 4.36039 13.1162 4.60415 12.7717 4.66027L20.3801 20.2598L19.9307 20.479L11.2994 2.78226C11.2749 2.7326 11.2955 2.67256 11.3453 2.64827C11.3747 2.63392 11.4093 2.63483 11.4379 2.65071C12.2709 3.1127 12.7826 3.53879 12.9729 3.92898Z" fill="white"/>
<path fill-rule="evenodd" clip-rule="evenodd" d="M16 20C16.9967 20 21 16.4183 21 12C21 7.58172 16.9967 4 16 4C15.0033 4 11 7.58172 11 12C11 16.4183 15.0033 20 16 20Z" fill="#E31D1C"/>
<mask id="mask1_5190_107255" style="mask-type:luminance" maskUnits="userSpaceOnUse" x="11" y="4" width="10" height="16">
<path fill-rule="evenodd" clip-rule="evenodd" d="M16 20C16.9967 20 21 16.4183 21 12C21 7.58172 16.9967 4 16 4C15.0033 4 11 7.58172 11 12C11 16.4183 15.0033 20 16 20Z" fill="white"/>
</mask>
<g mask="url(#mask1_5190_107255)">
<path d="M6.5 19C10.366 19 13.5 15.866 13.5 12C13.5 8.13401 10.366 5 6.5 5C2.63401 5 -0.5 8.13401 -0.5 12C-0.5 15.866 2.63401 19 6.5 19Z" fill="#272727"/>
<path d="M25.5 19C29.366 19 32.5 15.866 32.5 12C32.5 8.13401 29.366 5 25.5 5C21.634 5 18.5 8.13401 18.5 12C18.5 15.866 21.634 19 25.5 19Z" fill="#272727"/>
<path fill-rule="evenodd" clip-rule="evenodd" d="M16.2 10.93C16.6564 10.6057 17 9.19327 17 7.49999C17 5.80672 16.6564 4.3943 16.2 4.07001V10.93ZM15.7 10.8398C15.2943 10.3938 15 9.06717 15 7.49999C15 5.93282 15.2943 4.60622 15.7 4.16023V10.8398ZM15.7 13.1602V19.8398C15.2943 19.3938 15 18.0672 15 16.5C15 14.9328 15.2943 13.6062 15.7 13.1602ZM16.2 19.93V13.07C16.6564 13.3943 17 14.8067 17 16.5C17 18.1933 16.6564 19.6057 16.2 19.93Z" fill="#F7FCFF"/>
<path d="M16 11C16.5523 11 17 11.4477 17 12C17 12.5523 16.5523 13 16 13C15.4477 13 15 12.5523 15 12C15 11.4477 15.4477 11 16 11Z" fill="#F7FCFF"/>
</g>
</svg>
