<svg width="32" height="24" viewBox="0 0 32 24" fill="none" xmlns="http://www.w3.org/2000/svg">
<mask id="mask0_5190_107007" style="mask-type:luminance" maskUnits="userSpaceOnUse" x="0" y="0" width="32" height="24">
<rect width="32" height="24" fill="white"/>
</mask>
<g mask="url(#mask0_5190_107007)">
<path fill-rule="evenodd" clip-rule="evenodd" d="M0 0V24H32V0H0Z" fill="#4EC7EE"/>
<mask id="mask1_5190_107007" style="mask-type:luminance" maskUnits="userSpaceOnUse" x="0" y="0" width="32" height="24">
<path fill-rule="evenodd" clip-rule="evenodd" d="M0 0V24H32V0H0Z" fill="white"/>
</mask>
<g mask="url(#mask1_5190_107007)">
<path d="M4.09155 23.2369C4.02808 23.7069 4.32914 24.0417 4.83416 24.2572C5.51308 24.5468 6.19812 24.2756 6.82825 23.5774L6.01165 22.8404C5.73173 23.1505 5.52946 23.27 5.37332 23.268C5.67905 23.0496 6.07076 22.7799 6.54789 22.4595L6.7769 22.1278C6.96083 21.3388 6.3889 20.9113 5.51666 20.9113C5.0029 20.9113 4.59216 21.0129 4.33156 21.2314C3.90343 21.5904 3.97672 22.1635 4.42727 22.4616C4.463 22.4852 4.49928 22.5065 4.53604 22.5255C4.28329 22.7389 4.12904 22.9593 4.09155 23.2369Z" fill="#FFE402"/>
<path d="M4.56641 22.4954C4.56641 22.4954 4.69119 22.2189 4.6288 22.075" stroke="#FFE402" stroke-width="1.1"/>
<path d="M8.57252 23.2369C8.63598 23.7069 8.33493 24.0417 7.8299 24.2572C7.15098 24.5468 6.46594 24.2756 5.83581 23.5774L6.65241 22.8404C6.93233 23.1505 7.1346 23.27 7.29075 23.268C6.98502 23.0496 6.59331 22.7799 6.11617 22.4595L5.88716 22.1278C5.70323 21.3388 6.27516 20.9113 7.14741 20.9113C7.66116 20.9113 8.0719 21.0129 8.3325 21.2314C8.76064 21.5904 8.68734 22.1635 8.2368 22.4616C8.20106 22.4852 8.16478 22.5065 8.12802 22.5255C8.38077 22.7389 8.53503 22.9593 8.57252 23.2369Z" fill="#FFE402"/>
<path d="M8.59766 22.2692L7.59499 22.7216C7.45425 22.4097 7.4122 22.1263 7.52932 21.8562L8.53855 22.2937C8.57248 22.2155 8.57202 22.2124 8.59766 22.2692Z" fill="#FFE402"/>
<path d="M4.09155 0.762999C4.02808 0.293 4.32914 -0.0417682 4.83416 -0.257225C5.51308 -0.546867 6.19812 -0.275644 6.82825 0.422567L6.01165 1.15956C5.73173 0.849401 5.52946 0.729906 5.37332 0.731937C5.67905 0.950357 6.07076 1.22 6.54789 1.54042L6.7769 1.87214C6.96083 2.66114 6.3889 3.08866 5.51666 3.08866C5.0029 3.08866 4.59216 2.98701 4.33156 2.7685C3.90343 2.40953 3.97672 1.83648 4.42727 1.53834C4.463 1.51469 4.49928 1.49341 4.53604 1.47445C4.28329 1.26101 4.12904 1.04065 4.09155 0.762999Z" fill="#FFE402"/>
<path d="M8.57252 0.762999C8.63598 0.293 8.33493 -0.0417682 7.8299 -0.257225C7.15098 -0.546867 6.46594 -0.275644 5.83581 0.422567L6.65241 1.15956C6.93233 0.849401 7.1346 0.729906 7.29075 0.731937C6.98502 0.950357 6.59331 1.22 6.11617 1.54042L5.88716 1.87214C5.70323 2.66114 6.27516 3.08866 7.14741 3.08866C7.66116 3.08866 8.0719 2.98701 8.3325 2.7685C8.76064 2.40953 8.68734 1.83648 8.2368 1.53834C8.20106 1.51469 8.16478 1.49341 8.12802 1.47445C8.38077 1.26101 8.53503 1.04065 8.57252 0.762999Z" fill="#FFE402"/>
<path fill-rule="evenodd" clip-rule="evenodd" d="M5.09384 20.063C4.46282 20.0812 4.0702 20.2113 4.0702 20.8196C4.0702 21.4903 4.72185 21.7002 5.41513 21.7002C6.04316 21.7002 6.75067 21.3104 6.75067 20.6124C6.75067 20.1877 6.21071 19.3307 4.85108 17.473C4.80395 17.4291 4.778 17.4068 4.75722 17.4066C4.83967 17.3607 4.98488 17.307 5.17648 17.307C5.243 17.307 5.32945 17.3406 5.41513 17.3837V18.1123H6.85461V17.5623C6.85461 16.9409 5.93605 16.207 5.17648 16.207C4.51313 16.207 3.98058 16.5225 3.71084 16.9765C3.44426 17.4251 3.6481 17.8558 4.03094 18.1983C4.60063 18.984 5.04295 19.6344 5.32035 20.0617C5.21843 20.0609 5.16247 20.061 5.09384 20.063ZM5.16145 20.5702C5.14149 20.5657 5.12229 20.5609 5.10435 20.5557C5.11771 20.5697 5.1702 20.6323 5.1702 20.8196C5.1702 20.9216 5.16529 20.9933 5.1587 21.0438C4.97312 20.8801 4.92124 20.5947 5.05704 20.375L5.06041 20.3695L5.0397 20.3283C5.04244 20.327 5.04519 20.3255 5.0479 20.3242C5.07988 20.3077 5.10615 20.2942 5.06041 20.3695L5.16145 20.5702ZM5.10435 20.5557L5.08527 20.5498C5.08733 20.5505 5.09002 20.5518 5.09317 20.5538L5.10435 20.5557ZM5.65067 20.6124C5.65067 20.5936 5.64429 20.5824 5.63325 20.5764L5.63965 20.5834C5.64696 20.5985 5.65067 20.6082 5.65067 20.6124Z" fill="#FFE402"/>
<path fill-rule="evenodd" clip-rule="evenodd" d="M7.56632 20.063C8.19734 20.0812 8.58995 20.2113 8.58995 20.8196C8.58995 21.4903 7.93831 21.7002 7.24502 21.7002C6.617 21.7002 5.90949 21.3104 5.90949 20.6124C5.90949 20.1877 6.44945 19.3307 7.80908 17.473C7.8562 17.4291 7.88216 17.4068 7.90294 17.4066C7.82048 17.3607 7.67528 17.307 7.48367 17.307C7.41716 17.307 7.33071 17.3406 7.24502 17.3837V18.1123H5.80555V17.5623C5.80555 16.9409 6.72411 16.207 7.48367 16.207C8.14703 16.207 8.67958 16.5225 8.94932 16.9765C9.2159 17.4251 9.01205 17.8558 8.62922 18.1983C8.05953 18.984 7.61721 19.6344 7.3398 20.0617C7.44172 20.0609 7.49769 20.061 7.56632 20.063ZM7.49871 20.5702C7.51867 20.5657 7.53787 20.5609 7.55581 20.5557C7.54245 20.5697 7.48995 20.6323 7.48995 20.8196C7.48995 20.9216 7.49487 20.9933 7.50145 21.0438C7.68704 20.8801 7.73892 20.5947 7.60311 20.375L7.59975 20.3695L7.62046 20.3283C7.61771 20.327 7.61496 20.3255 7.61226 20.3242C7.58028 20.3077 7.554 20.2942 7.59975 20.3695L7.49871 20.5702ZM7.55581 20.5557L7.57488 20.5498C7.57283 20.5505 7.57014 20.5518 7.56699 20.5538L7.55581 20.5557ZM7.00949 20.6124C7.00949 20.5936 7.01587 20.5824 7.02691 20.5764L7.0205 20.5834C7.01319 20.5985 7.00949 20.6082 7.00949 20.6124Z" fill="#FFE402"/>
<path fill-rule="evenodd" clip-rule="evenodd" d="M5.09384 13.3547C4.46282 13.3366 4.0702 13.2064 4.0702 12.5981C4.0702 11.9274 4.72185 11.7175 5.41513 11.7175C6.04316 11.7175 6.75067 12.1073 6.75067 12.8054C6.75067 13.23 6.21071 14.087 4.85108 15.9447C4.80395 15.9886 4.778 16.011 4.75722 16.0111C4.83967 16.057 4.98488 16.1108 5.17648 16.1108C5.243 16.1108 5.32945 16.0771 5.41513 16.034V15.3055H6.85461V15.8555C6.85461 16.4769 5.93605 17.2108 5.17648 17.2108C4.51313 17.2108 3.98058 16.8952 3.71084 16.4412C3.44426 15.9926 3.6481 15.5619 4.03094 15.2194C4.60063 14.4337 5.04295 13.7833 5.32035 13.356C5.21843 13.3568 5.16247 13.3567 5.09384 13.3547ZM5.16145 12.8475C5.14149 12.852 5.12229 12.8568 5.10435 12.862C5.11771 12.848 5.1702 12.7855 5.1702 12.5981C5.1702 12.4961 5.16529 12.4244 5.1587 12.3739C4.97312 12.5377 4.92124 12.8231 5.05704 13.0428L5.06041 13.0482L5.0397 13.0894C5.04244 13.0908 5.04519 13.0922 5.0479 13.0936C5.07988 13.11 5.10615 13.1236 5.06041 13.0482L5.16145 12.8475ZM5.10435 12.862L5.08527 12.8679C5.08733 12.8672 5.09002 12.8659 5.09317 12.8639L5.10435 12.862ZM5.65067 12.8054C5.65067 12.8242 5.64429 12.8353 5.63325 12.8413L5.63965 12.8343C5.64696 12.8192 5.65067 12.8095 5.65067 12.8054Z" fill="#FFE402"/>
<path fill-rule="evenodd" clip-rule="evenodd" d="M7.56632 13.3547C8.19734 13.3366 8.58995 13.2064 8.58995 12.5981C8.58995 11.9274 7.93831 11.7175 7.24502 11.7175C6.617 11.7175 5.90949 12.1073 5.90949 12.8054C5.90949 13.23 6.44945 14.087 7.80908 15.9447C7.8562 15.9886 7.88216 16.011 7.90294 16.0111C7.82048 16.057 7.67528 16.1108 7.48367 16.1108C7.41716 16.1108 7.33071 16.0771 7.24502 16.034V15.3055H5.80555V15.8555C5.80555 16.4769 6.72411 17.2108 7.48367 17.2108C8.14703 17.2108 8.67958 16.8952 8.94932 16.4412C9.2159 15.9926 9.01205 15.5619 8.62922 15.2194C8.05953 14.4337 7.61721 13.7833 7.3398 13.356C7.44172 13.3568 7.49769 13.3567 7.56632 13.3547ZM7.49871 12.8475C7.51867 12.852 7.53787 12.8568 7.55581 12.862C7.54245 12.848 7.48995 12.7855 7.48995 12.5981C7.48995 12.4961 7.49487 12.4244 7.50145 12.3739C7.68704 12.5377 7.73892 12.8231 7.60311 13.0428L7.59975 13.0482L7.62046 13.0894C7.61771 13.0908 7.61496 13.0922 7.61226 13.0936C7.58028 13.11 7.554 13.1236 7.59975 13.0482L7.49871 12.8475ZM7.55581 12.862L7.57488 12.8679C7.57283 12.8672 7.57014 12.8659 7.56699 12.8639L7.55581 12.862ZM7.00949 12.8054C7.00949 12.8242 7.01587 12.8353 7.02691 12.8413L7.0205 12.8343C7.01319 12.8192 7.00949 12.8095 7.00949 12.8054Z" fill="#FFE402"/>
<path fill-rule="evenodd" clip-rule="evenodd" d="M5.09384 10.6453C4.46282 10.6634 4.0702 10.7936 4.0702 11.4019C4.0702 12.0726 4.72185 12.2825 5.41513 12.2825C6.04316 12.2825 6.75067 11.8927 6.75067 11.1946C6.75067 10.77 6.21071 9.913 4.85108 8.0553C4.80395 8.01141 4.778 7.98905 4.75722 7.9889C4.83967 7.94299 4.98488 7.88923 5.17648 7.88923C5.243 7.88923 5.32945 7.92287 5.41513 7.96597V8.69454H6.85461V8.14454C6.85461 7.52315 5.93605 6.78923 5.17648 6.78923C4.51313 6.78923 3.98058 7.10478 3.71084 7.55875C3.44426 8.0074 3.6481 8.43806 4.03094 8.78062C4.60063 9.56632 5.04295 10.2167 5.32035 10.644C5.21843 10.6432 5.16247 10.6433 5.09384 10.6453ZM5.16145 11.1525C5.14149 11.148 5.12229 11.1432 5.10435 11.138C5.11771 11.152 5.1702 11.2145 5.1702 11.4019C5.1702 11.5039 5.16529 11.5756 5.1587 11.6261C4.97312 11.4623 4.92124 11.1769 5.05704 10.9572L5.06041 10.9518L5.0397 10.9106C5.04244 10.9092 5.04519 10.9078 5.0479 10.9064C5.07988 10.89 5.10615 10.8764 5.06041 10.9518L5.16145 11.1525ZM5.10435 11.138L5.08527 11.1321C5.08733 11.1328 5.09002 11.1341 5.09317 11.1361L5.10435 11.138ZM5.65067 11.1946C5.65067 11.1758 5.64429 11.1647 5.63325 11.1587L5.63965 11.1657C5.64696 11.1808 5.65067 11.1905 5.65067 11.1946Z" fill="#FFE402"/>
<path fill-rule="evenodd" clip-rule="evenodd" d="M7.56632 10.6453C8.19734 10.6634 8.58995 10.7936 8.58995 11.4019C8.58995 12.0726 7.93831 12.2825 7.24502 12.2825C6.617 12.2825 5.90949 11.8927 5.90949 11.1946C5.90949 10.77 6.44945 9.913 7.80908 8.0553C7.8562 8.01141 7.88216 7.98905 7.90294 7.9889C7.82048 7.94299 7.67528 7.88923 7.48367 7.88923C7.41716 7.88923 7.33071 7.92287 7.24502 7.96597V8.69454H5.80555V8.14454C5.80555 7.52315 6.72411 6.78923 7.48367 6.78923C8.14703 6.78923 8.67958 7.10478 8.94932 7.55875C9.2159 8.0074 9.01205 8.43806 8.62922 8.78062C8.05953 9.56632 7.61721 10.2167 7.3398 10.644C7.44172 10.6432 7.49769 10.6433 7.56632 10.6453ZM7.49871 11.1525C7.51867 11.148 7.53787 11.1432 7.55581 11.138C7.54245 11.152 7.48995 11.2145 7.48995 11.4019C7.48995 11.5039 7.49487 11.5756 7.50145 11.6261C7.68704 11.4623 7.73892 11.1769 7.60311 10.9572L7.59975 10.9518L7.62046 10.9106C7.61771 10.9092 7.61496 10.9078 7.61226 10.9064C7.58028 10.89 7.554 10.8764 7.59975 10.9518L7.49871 11.1525ZM7.55581 11.138L7.57488 11.1321C7.57283 11.1328 7.57014 11.1341 7.56699 11.1361L7.55581 11.138ZM7.00949 11.1946C7.00949 11.1758 7.01587 11.1647 7.02691 11.1587L7.0205 11.1657C7.01319 11.1808 7.00949 11.1905 7.00949 11.1946Z" fill="#FFE402"/>
<path fill-rule="evenodd" clip-rule="evenodd" d="M5.09384 3.93701C4.46282 3.91885 4.0702 3.78868 4.0702 3.1804C4.0702 2.50965 4.72185 2.2998 5.41513 2.2998C6.04316 2.2998 6.75067 2.68959 6.75067 3.38765C6.75067 3.81232 6.21071 4.66928 4.85108 6.52697C4.80395 6.57086 4.778 6.59323 4.75722 6.59337C4.83967 6.63928 4.98488 6.69305 5.17648 6.69305C5.243 6.69305 5.32945 6.6594 5.41513 6.6163V5.88774H6.85461V6.43774C6.85461 7.05913 5.93605 7.79305 5.17648 7.79305C4.51313 7.79305 3.98058 7.47749 3.71084 7.02352C3.44426 6.57488 3.6481 6.14421 4.03094 5.80166C4.60063 5.01595 5.04295 4.36559 5.32035 3.93827C5.21843 3.93912 5.16247 3.93898 5.09384 3.93701ZM5.16145 3.42982C5.14149 3.43426 5.12229 3.43911 5.10435 3.44432C5.11771 3.43031 5.1702 3.36773 5.1702 3.1804C5.1702 3.07841 5.16529 3.00666 5.1587 2.95621C4.97312 3.11993 4.92124 3.40534 5.05704 3.62503L5.06041 3.63052L5.0397 3.67165C5.04244 3.67304 5.04519 3.67445 5.0479 3.67585C5.07988 3.69231 5.10615 3.70584 5.06041 3.63052L5.16145 3.42982ZM5.10435 3.44432L5.08527 3.45015C5.08733 3.44949 5.09002 3.44822 5.09317 3.44618L5.10435 3.44432ZM5.65067 3.38765C5.65067 3.40643 5.64429 3.41759 5.63325 3.42357L5.63965 3.41656C5.64696 3.40152 5.65067 3.39181 5.65067 3.38765Z" fill="#FFE402"/>
<path fill-rule="evenodd" clip-rule="evenodd" d="M7.56632 3.93701C8.19734 3.91885 8.58995 3.78868 8.58995 3.1804C8.58995 2.50965 7.93831 2.2998 7.24502 2.2998C6.617 2.2998 5.90949 2.68959 5.90949 3.38765C5.90949 3.81232 6.44945 4.66928 7.80908 6.52697C7.8562 6.57086 7.88216 6.59323 7.90294 6.59337C7.82048 6.63928 7.67528 6.69305 7.48367 6.69305C7.41716 6.69305 7.33071 6.6594 7.24502 6.6163V5.88774H5.80555V6.43774C5.80555 7.05913 6.72411 7.79305 7.48367 7.79305C8.14703 7.79305 8.67958 7.47749 8.94932 7.02352C9.2159 6.57488 9.01205 6.14421 8.62922 5.80166C8.05953 5.01595 7.61721 4.36559 7.3398 3.93827C7.44172 3.93912 7.49769 3.93898 7.56632 3.93701ZM7.49871 3.42982C7.51867 3.43426 7.53787 3.43911 7.55581 3.44432C7.54245 3.43031 7.48995 3.36773 7.48995 3.1804C7.48995 3.07841 7.49487 3.00666 7.50145 2.95621C7.68704 3.11993 7.73892 3.40534 7.60311 3.62503L7.59975 3.63052L7.62046 3.67165C7.61771 3.67304 7.61496 3.67445 7.61226 3.67585C7.58028 3.69231 7.554 3.70584 7.59975 3.63052L7.49871 3.42982ZM7.55581 3.44432L7.57488 3.45015C7.57283 3.44949 7.57014 3.44822 7.56699 3.44618L7.55581 3.44432ZM7.00949 3.38765C7.00949 3.40643 7.01587 3.41759 7.02691 3.42357L7.0205 3.41656C7.01319 3.40152 7.00949 3.39181 7.00949 3.38765Z" fill="#FFE402"/>
<path fill-rule="evenodd" clip-rule="evenodd" d="M18.9844 2.78479L19.3938 4.3125C19.3938 4.3125 19.3987 4.65959 19.0066 4.65959C18.6144 4.65959 18.5947 4.3125 18.5947 4.3125L18.9844 2.78479ZM22.448 8.61997C22.448 10.6082 20.9303 12.22 19.058 12.22C17.1858 12.22 15.668 10.6082 15.668 8.61997C15.668 6.63174 17.1858 5.01997 19.058 5.01997C20.9303 5.01997 22.448 6.63174 22.448 8.61997ZM20.5789 4.62057L20.634 3.0399L19.8147 4.38691C19.8147 4.38691 19.7321 4.72462 20.1071 4.83926C20.482 4.9539 20.5789 4.62057 20.5789 4.62057ZM22.1383 3.78841L21.6235 5.2839C21.6235 5.2839 21.4334 5.57434 21.1083 5.35508C20.7832 5.13581 20.9609 4.83701 20.9609 4.83701L22.1383 3.78841ZM22.4344 6.2436L23.364 4.96398L21.9315 5.62252C21.9315 5.62252 21.6742 5.85632 21.921 6.16104C22.1677 6.46577 22.4344 6.2436 22.4344 6.2436ZM24.2087 6.47758L22.9292 7.40731C22.9292 7.40731 22.6068 7.53619 22.4663 7.17013C22.3258 6.80406 22.6428 6.66122 22.6428 6.66122L24.2087 6.47758ZM23.0855 8.68225L24.5809 8.16723L23.0298 7.88502C23.0298 7.88502 22.6849 7.92896 22.7123 8.32011C22.7396 8.71127 23.0855 8.68225 23.0855 8.68225ZM24.4582 9.89591L22.8775 9.9512C22.8775 9.9512 22.5383 9.87782 22.6265 9.49576C22.7147 9.1137 23.0573 9.17251 23.0573 9.17251L24.4582 9.89591ZM22.3235 11.1011L23.8513 11.5104L22.7231 10.409C22.7231 10.409 22.4126 10.2526 22.2166 10.5922C22.0205 10.9318 22.3235 11.1011 22.3235 11.1011ZM22.814 12.8676L21.4727 12.0296C21.4727 12.0296 21.2324 11.779 21.5192 11.5116C21.806 11.2442 22.0571 11.4846 22.0571 11.4846L22.814 12.8676ZM20.4006 12.6537L21.4383 13.8473L21.1189 12.3034C21.1189 12.3034 20.9489 12.0001 20.5965 12.172C20.2441 12.3439 20.4006 12.6537 20.4006 12.6537ZM19.846 14.3627L19.2026 12.9179C19.2026 12.9179 19.1436 12.5758 19.5309 12.5145C19.9181 12.4531 19.992 12.7928 19.992 12.7928L19.846 14.3627ZM17.9967 12.7928L18.1621 14.3658L18.786 12.9179C18.786 12.9179 18.8208 12.572 18.4335 12.5106C18.0462 12.4493 17.9967 12.7928 17.9967 12.7928ZM16.5681 13.856L16.8698 12.3034C16.8698 12.3034 17.0176 11.9894 17.37 12.1613C17.7224 12.3331 17.588 12.6538 17.588 12.6538L16.5681 13.856ZM15.9315 11.4846L15.189 12.8811L16.5159 12.0296C16.5159 12.0296 16.7382 11.7623 16.4514 11.4949C16.1647 11.2275 15.9315 11.4846 15.9315 11.4846ZM14.1472 11.5275L15.2655 10.4091C15.2655 10.4091 15.5637 10.2314 15.7597 10.5709C15.9558 10.9105 15.6651 11.1012 15.6651 11.1012L14.1472 11.5275ZM14.9313 9.17256L13.5348 9.91518L15.1111 9.95126C15.1111 9.95126 15.4448 9.85392 15.3566 9.47186C15.2684 9.0898 14.9313 9.17256 14.9313 9.17256ZM13.4062 8.18697L14.9588 7.88508C14.9588 7.88508 15.3054 7.90449 15.278 8.29564C15.2507 8.6868 14.9031 8.68231 14.9031 8.68231L13.4062 8.18697ZM15.3458 6.66127L13.7728 6.49604L15.0594 7.40737C15.0594 7.40737 15.3905 7.51329 15.531 7.14723C15.6716 6.78116 15.3458 6.66127 15.3458 6.66127ZM14.6121 4.97935L16.057 5.62257C16.057 5.62257 16.3298 5.83725 16.083 6.14198C15.8363 6.4467 15.5541 6.24364 15.5541 6.24364L14.6121 4.97935ZM17.0276 4.83704L15.8339 3.79947L16.365 5.28393C16.365 5.28393 16.5755 5.56062 16.9006 5.34136C17.2257 5.12209 17.0276 4.83704 17.0276 4.83704ZM17.3356 3.04569L18.1739 4.38693C18.1739 4.38693 18.2799 4.71744 17.905 4.83209C17.53 4.94673 17.4096 4.62059 17.4096 4.62059L17.3356 3.04569Z" fill="#FFE402"/>
<path fill-rule="evenodd" clip-rule="evenodd" d="M12.2195 10.6719C12.2059 10.6194 12.1933 10.5681 12.182 10.5181L12.252 10.659L12.2195 10.6719ZM12.3155 11.002C12.2789 10.8868 12.2469 10.7768 12.2195 10.6719L11.791 10.843L11.8545 11.002H11.8083L11.7904 11.0109C11.7647 10.8803 11.7518 10.7565 11.7518 10.6391V9.65198L12.182 10.5181C12.1275 10.2775 12.1001 10.0658 12.1001 9.88129V8.6507L12.598 9.89761L12.1252 10.0456L12.311 10.6391H12.3018L12.252 10.659L12.4283 11.0138L12.5983 11.557C12.4392 11.265 12.3583 11.0712 12.3583 11.002H12.3155ZM12.8626 12.3886C12.6249 11.861 12.4423 11.4005 12.3155 11.002H11.8545L12.323 12.1753L12.1495 11.9902C11.9678 11.6264 11.8475 11.3017 11.7904 11.0109L11.409 11.2003L11.3331 11.1193V11.238L11.3157 11.2467L11.3331 11.2817V11.416C11.2831 11.2599 11.2583 11.123 11.2583 11.002V8.65844L11.7518 9.65198V7.77832L12.1001 8.6507V6.28259L13.4909 10.7263L13.3931 10.7581C13.2641 10.3727 13.2001 10.0778 13.2001 9.88129H12.6501L12.598 9.89761L12.9935 10.8883L12.898 10.9194C12.8671 10.8096 12.8518 10.7158 12.8518 10.6391H12.311L12.4283 11.0138L13.0425 12.2503L13.017 12.26C12.8436 11.9876 12.7038 11.7507 12.5983 11.557L12.8394 12.3275L13.017 12.26L13.0418 12.2988L12.8626 12.3886ZM13.0533 12.3168L12.8629 12.3892L12.8626 12.3886L12.6315 12.5045L12.323 12.1753L12.47 12.5435C12.4522 12.5288 12.4414 12.5186 12.4364 12.5137C12.3281 12.3307 12.2324 12.1564 12.1495 11.9902L11.409 11.2003L11.3331 11.238V11.2817L11.9434 12.5103H11.8831L11.879 12.5141C11.6076 12.0659 11.4265 11.7074 11.3331 11.416V12.2194L9.14844 10.6631L11.9307 13.9743C12.8198 15.0324 13.9154 15.8455 15.2114 16.4105L12.692 16.357L15.2527 17.0797L13.928 18.0546L16.216 17.3516L16.8399 17.5277C17.6796 17.7647 18.1471 18.0024 18.1777 18.0746L18.2956 18.3532L18.5939 18.4028C19.2478 18.5116 20.454 18.3421 22.0079 17.9977C22.536 17.8806 23.0659 17.7503 23.476 17.6396C23.6478 17.5932 23.7822 17.5546 23.858 17.5297C23.8893 17.5193 23.8893 17.5193 23.9291 17.5041L23.9291 17.504C23.9548 17.4937 23.9548 17.4937 24.0136 17.4618L24.0136 17.4617L24.0137 17.4617C24.0638 17.4548 24.1007 17.4498 24.1254 17.4297C24.1938 17.3742 24.1687 17.2035 24.0742 16.5598L24.0741 16.5598C23.6409 16.4439 23.5804 16.4277 23.5642 16.4476C23.5616 16.4508 23.5601 16.455 23.5584 16.4598C23.4098 16.4906 23.178 16.4871 22.8691 16.4474C25.4549 15.1758 27.1535 13.9018 27.9673 12.591L29.4558 10.1933L28.554 10.8511L28.879 9.8066L27.5937 10.6325C27.7592 10.4131 27.8871 10.1946 27.9774 9.97631L28.9455 7.6366L27.4179 9.06169L28.2466 6.33047L26.2804 8.96445L18.2308 14.8881L18.1053 14.859C16.1237 14.3996 14.7322 12.9998 13.904 10.5917L13.4909 10.7263L13.4963 10.7434L13.3988 10.7752L13.3931 10.7581L12.9935 10.8883L13.0002 10.905L12.903 10.9367L12.898 10.9194L12.8583 10.9324C12.992 11.367 13.138 11.7743 13.2962 12.1539L13.0425 12.2503L13.0616 12.2888L13.0418 12.2988L13.0533 12.3168ZM13.0719 12.3097L13.0533 12.3168L13.0926 12.3777L12.6982 12.5756L12.6315 12.5045L12.5025 12.5692C12.4897 12.5595 12.479 12.5509 12.47 12.5435L12.484 12.5785L12.5025 12.5692C12.525 12.5863 12.5537 12.6068 12.5893 12.6302L12.5258 12.662C12.4951 12.612 12.4653 12.5625 12.4364 12.5137L12.4331 12.5103H11.9434L12.054 12.733L11.9821 12.6818C11.9464 12.6245 11.912 12.5687 11.879 12.5141L11.8219 12.5677L11.3331 12.2194V12.5103C11.3331 13.0309 11.6994 13.4244 12.3286 13.7478L12.0327 14.0684L15.3236 16.4129L15.2114 16.4105C15.3192 16.4575 15.4284 16.5028 15.5389 16.5463L15.8246 16.6589L15.2527 17.0797L16.216 17.3516L16.9841 17.1157L19.7175 18.1925L18.8358 17.5644C18.9434 17.5635 19.0479 17.5622 19.1494 17.5604C19.1064 17.4815 19.0517 17.4068 18.9851 17.3356C18.9041 17.3335 18.8336 17.3276 18.7744 17.3177L18.7442 17.4992L17.8233 16.8431C18.1758 16.7215 18.5181 16.594 18.8502 16.4607C20.2143 16.446 21.0319 16.3729 21.1533 16.2829L21.3638 16.1268L21.6177 16.192C21.8622 16.2547 22.0874 16.3069 22.2923 16.3489L22.4667 16.6419C22.6032 16.5771 22.7373 16.5122 22.8691 16.4474C22.8365 16.4432 22.8029 16.4386 22.7685 16.4335L27.8242 12.7452L27.4011 12.3526C27.9363 12.077 28.2852 11.7154 28.43 11.2498L28.554 10.8511L28.0091 11.2487L27.9048 11.0864L27.3797 10.923C27.3311 11.079 27.173 11.2351 26.8927 11.3785C27.1738 11.1278 27.4075 10.8795 27.5937 10.6325L26.7998 11.1428L27.8444 10.1682L27.1926 9.71629C27.2493 9.58799 27.2967 9.46141 27.3346 9.33645L27.4179 9.06169L27.0498 9.40511L26.5024 9.12847L26.7555 8.61484L26.2804 8.96445L25.1552 10.4719L24.7721 10.1511C23.7444 12.2365 21.8947 13.8923 19.2045 15.1139L18.2308 14.8881L17.9527 15.0928L17.981 14.8448C16.1468 14.8448 14.7947 13.4847 13.9096 10.6088L13.4963 10.7434L13.8892 11.999L13.4966 12.1482L13.4721 12.087L13.8658 11.9374C13.664 11.4895 13.5086 11.1005 13.3988 10.7752L13.0002 10.905L13.4721 12.087L13.4384 12.0998L13.4637 12.0872C13.1711 11.6099 12.9861 11.2211 12.903 10.9367L12.8638 10.9494C13.0082 11.3693 13.1696 11.7643 13.3479 12.1342L13.2962 12.1539L13.3022 12.1681L13.0616 12.2888L13.0719 12.3097ZM13.3218 12.2147L13.0719 12.3097L13.1031 12.3725L13.0926 12.3777L13.1304 12.4358L12.7638 12.6456L12.6982 12.5756L12.5893 12.6302C12.6172 12.6484 12.6493 12.6685 12.6861 12.69L12.3021 12.9097L12.054 12.733L12.1773 12.9812L12.3021 12.9097L12.36 12.951L12.2093 13.0372C12.1284 12.9132 12.0526 12.7948 11.9821 12.6818L11.8219 12.5677L11.4818 12.8864L12.1875 13.6392L12.5887 13.2631L12.6446 13.1537L14.4372 14.4308L15.1 15.1379C14.1976 14.6636 13.423 14.0404 12.7729 13.2666L12.3286 13.7478L12.3387 13.7529L15.1443 15.1851L15.1 15.1379C15.3693 15.2795 15.65 15.4078 15.9421 15.5229L15.4576 16.4157L15.3236 16.4129L15.4214 16.4825L15.4576 16.4157L16.1354 16.4301L15.8246 16.6589L16.9841 17.1157L17.0247 17.1032C17.2965 17.0197 17.5627 16.933 17.8233 16.8431L17.6235 16.7008L17.9479 16.462C18.2706 16.4643 18.5718 16.4637 18.8502 16.4607C19.2566 16.2975 19.6478 16.1256 20.0236 15.9448H22.0518L22.2923 16.3489C22.3384 16.3583 22.3836 16.3673 22.4276 16.3757L22.5548 16.5894L22.7685 16.4335C22.6629 16.4181 22.5492 16.3989 22.4276 16.3757L22.1712 15.9448H22.7883L22.0724 15.7788L21.9947 15.6483C24.1223 14.6375 25.6268 13.6448 26.5067 12.6912C26.8462 12.5967 27.145 12.4845 27.4011 12.3526L27.2172 12.182L28.2022 11.5491L28.0091 11.2487L26.3489 12.4599L26.1414 11.9752C26.4211 11.7744 26.6715 11.5757 26.8927 11.3785C26.7356 11.4588 26.5402 11.535 26.3042 11.605L26.7998 11.1428L25.2948 12.1099C26.2329 11.2441 26.8673 10.4519 27.1926 9.71629L27.1262 9.67028L27.249 9.50577L27.0498 9.40511L25.7842 10.5858L26.5024 9.12847L26.282 9.01708C26.1474 9.46053 25.8133 9.98269 25.2764 10.5734L25.1552 10.4719L24.4769 11.3805L24.6461 11.5329L19.6421 15.2153L19.2045 15.1139C18.7862 15.3038 18.3476 15.4832 17.8887 15.6522L17.9527 15.0928L17.1109 15.7123C15.4967 15.1351 14.2541 13.9647 13.3933 12.227L13.5055 12.1706L13.4966 12.1482L13.3769 12.1937L13.3522 12.143L13.4384 12.0998L13.3479 12.1342L13.3522 12.143L13.3022 12.1681L13.3218 12.2147ZM13.3387 12.2543L13.1031 12.3725L13.1624 12.4918L12.8091 12.694L12.7638 12.6456L12.6861 12.69C12.7064 12.7019 12.7282 12.7142 12.7515 12.727L12.36 12.951L12.6446 13.1537L12.8388 12.7732C12.8076 12.7573 12.7785 12.7419 12.7515 12.727L12.8091 12.694L14.4372 14.4308L16.6805 16.029L16.1354 16.4301L16.9003 16.4464L17.1892 17.0204L17.6235 16.7008L17.2769 16.4538C17.5098 16.4579 17.7336 16.4606 17.9479 16.462L18.6508 15.9448H20.0236C20.3188 15.8028 20.6046 15.6554 20.8809 15.5025L21.9339 15.7467L22.0518 15.9448H22.1712L22.0724 15.7788L21.9339 15.7467L21.9065 15.7008L25.7868 12.8699L26.2754 12.7513C26.3545 12.7321 26.4316 12.7121 26.5067 12.6912C26.5448 12.6498 26.5818 12.6086 26.6176 12.5673L27.2172 12.182L27.0327 12.0108C26.9186 12.1947 26.7802 12.3802 26.6176 12.5673L26.443 12.6796L26.3489 12.4599L25.7868 12.8699L23.7946 13.3535C24.0177 13.1316 24.2287 12.9029 24.4276 12.6672L25.0652 12.2574L25.2827 12.5431C25.5943 12.3516 25.8806 12.1625 26.1414 11.9752L26.0746 11.8193L26.3042 11.605C26.2141 11.6318 26.118 11.6576 26.016 11.6824L26.0746 11.8193L25.37 12.4766L25.1578 12.1979L25.2898 12.1131L25.2905 12.1138L25.2948 12.1099L25.2898 12.1131L25.03 11.879C25.0494 11.8509 25.0686 11.8227 25.0876 11.7944L25.3584 12.0385L27.1262 9.67028L26.961 9.55575C26.7822 9.98791 26.3103 10.4929 25.5432 11.0501C25.6182 10.9143 25.6901 10.7767 25.7588 10.6374L25.7842 10.5858L25.551 10.8034L25.2764 10.5734C25.0643 10.8068 24.8205 11.051 24.5448 11.3052L24.7294 11.4716L24.6461 11.5329L24.7086 11.5893L24.6196 11.6723L24.9084 12.0515C24.7568 12.2617 24.5966 12.467 24.4276 12.6672L23.0956 13.5231L23.7946 13.3535C22.9827 14.1611 22.011 14.8773 20.8809 15.5025L19.6421 15.2153L18.6508 15.9448H17.981C17.7211 15.9448 17.4692 15.9246 17.2254 15.8843C17.2929 15.8618 17.3601 15.8391 17.4268 15.8162C17.5675 15.8586 17.7108 15.8967 17.8568 15.9306L17.8887 15.6522C17.737 15.708 17.583 15.7627 17.4268 15.8162C17.32 15.784 17.2147 15.7494 17.1109 15.7123L16.9513 15.8297C15.4022 15.4681 14.1962 14.258 13.3387 12.2543ZM13.3387 12.2543L13.3933 12.227L13.3769 12.1937L13.3218 12.2147L13.3387 12.2543ZM16.7092 16.0494L16.6805 16.029L16.9513 15.8297C17.0415 15.8508 17.1329 15.869 17.2254 15.8843C17.0559 15.9406 16.8838 15.9957 16.7092 16.0494ZM24.975 11.9579C24.9935 11.9317 25.0118 11.9054 25.03 11.879L24.7188 11.5985C24.749 11.5799 24.7789 11.5614 24.8085 11.5429L25.0876 11.7944C25.2506 11.5527 25.4025 11.3045 25.5432 11.0501C25.3227 11.2102 25.0778 11.3746 24.8085 11.5429L24.783 11.5198L25.2282 11.1045L25.5914 10.8372L25.551 10.8034L25.2282 11.1045L24.7294 11.4716L24.783 11.5198L24.7086 11.5893L24.7188 11.5985L24.7069 11.6058L24.975 11.9579ZM24.975 11.9579L25.1578 12.1979L25.0652 12.2574L24.9084 12.0515C24.9308 12.0204 24.953 11.9892 24.975 11.9579ZM16.7092 16.0494L17.2769 16.4538C17.1863 16.4522 17.0943 16.4505 17.001 16.4485L16.9003 16.4464L16.7017 16.0517L16.7092 16.0494ZM18.7442 17.4992L18.7333 17.5652L18.8358 17.5644L18.7442 17.4992ZM21.8086 17.1664L21.6484 16.9504C21.5679 16.968 21.4884 16.985 21.4099 17.0014L21.3442 17.2574C21.4084 17.2739 21.4716 17.2898 21.5337 17.305C21.6476 17.2642 21.7388 17.2182 21.8086 17.1664Z" fill="#FFE402"/>
</g>
</g>
</svg>
