<svg width="32" height="24" viewBox="0 0 32 24" fill="none" xmlns="http://www.w3.org/2000/svg">
<mask id="mask0_5190_106947" style="mask-type:luminance" maskUnits="userSpaceOnUse" x="0" y="0" width="32" height="24">
<rect width="32" height="24" fill="white"/>
</mask>
<g mask="url(#mask0_5190_106947)">
<path fill-rule="evenodd" clip-rule="evenodd" d="M0 0H32V24H0V0Z" fill="#FECA00"/>
<rect x="2" y="2" width="6" height="20" fill="#1F8A6E"/>
<rect x="8" y="2" width="6" height="20" fill="#F56800"/>
<rect x="14" y="2" width="16" height="20" fill="#B01D00"/>
<rect x="12" y="2" width="2" height="20" fill="#E8AA00"/>
<path fill-rule="evenodd" clip-rule="evenodd" d="M17.0988 6.17346C17.0988 6.17346 15.8251 6.16976 15.8251 8.38757V11.6397C15.8251 11.6397 15.2188 11.7478 15.2188 12.1245C15.2188 12.5011 15.3472 12.8307 15.5862 12.8307C15.8251 12.8307 16.064 13.9356 15.8251 13.9356C15.5862 13.9356 15.3472 14.4097 15.5862 14.4097C15.6433 14.4097 15.6868 14.402 15.7199 14.3961C15.7547 14.3899 15.778 14.3857 15.7936 14.3948C15.8251 14.4132 15.8251 14.4857 15.8251 14.7049C15.8251 15.1354 15.5862 15.3095 15.5862 15.3095C15.5862 15.3095 15.3612 15.2468 15.3612 15.5001C15.3612 15.7535 15.5862 15.8177 15.5862 15.8177C15.5862 15.8177 15.715 15.8733 15.4669 15.9933C15.2188 16.1133 15.2188 16.1713 15.2188 16.1713H15.8251L16.1287 16.7269L16.4185 16.1713H17.017C17.017 16.1713 16.7156 15.9785 16.6803 15.9381C16.645 15.8977 16.6022 15.8387 16.6803 15.7712C16.7031 15.7515 16.7364 15.7364 16.7722 15.7202C16.8592 15.681 16.9607 15.6351 16.9607 15.5001C16.9607 15.3095 16.5786 15.3095 16.5786 15.3095C16.5786 15.3095 16.3455 14.8887 16.4185 14.7049C16.4389 14.6535 16.4505 14.6078 16.4605 14.5685C16.4862 14.4675 16.5009 14.4097 16.6263 14.4097C16.8003 14.4097 16.9001 14.1901 16.6803 13.9356C16.6803 13.9356 16.9323 14.2065 16.8582 14.5581C16.7842 14.9096 16.9352 15.0688 17.017 15.0688C17.0988 15.0688 17.2289 14.9479 17.2289 14.9479C17.2289 14.9479 17.9084 15.5554 18.207 15.5554C18.5056 15.5554 18.9337 15.0688 18.9337 15.0688L19.5484 15.414C19.5484 15.414 19.9983 16.0443 19.932 16.4776C19.8657 16.9109 19.6092 17.1523 19.3074 17.0853C19.0056 17.0183 18.5147 17.1558 18.4773 17.3427C18.4717 17.371 18.4633 17.4055 18.4541 17.4433C18.4024 17.6554 18.325 17.973 18.5616 17.8946C18.8404 17.8023 18.895 17.7315 18.895 17.7315C18.895 17.7315 18.8583 17.8946 19.0829 17.8946C19.3074 17.8946 19.3723 17.7315 19.3723 17.7315C19.3723 17.7315 19.6051 17.8946 19.7686 17.8946C19.932 17.8946 20.1151 17.7689 20.1151 17.7689C20.1151 17.7689 20.2356 17.9557 20.5021 17.8946C20.7686 17.8336 20.97 17.138 20.7762 16.9822C20.7762 16.9822 21.4192 16.8889 21.5842 16.33C21.5842 16.33 20.9622 16.3208 21.0263 15.9381C21.0904 15.5554 21.4189 15.3095 21.4189 15.3095C21.4189 15.3095 22.3646 14.8517 22.7715 14.7049C23.1785 14.5581 23.8548 14.4097 24.0224 14.4097C24.0906 14.4097 24.1393 14.5689 24.2053 14.7847C24.3015 15.0992 24.4345 15.5339 24.7181 15.7712C25.1965 16.1713 24.8703 17.0853 24.8703 17.0853C24.8703 17.0853 23.8059 17.1926 23.8059 17.4808C23.8059 17.7689 23.823 17.8946 24.0224 17.8946C24.2217 17.8946 24.2177 17.7315 24.2177 17.7315C24.2177 17.7315 24.336 17.8946 24.5271 17.8946C24.7181 17.8946 24.8703 17.7315 24.8703 17.7315C24.8703 17.7315 24.9211 17.8946 25.1714 17.8946C25.4217 17.8946 25.4199 17.7315 25.4199 17.7315C25.4199 17.7315 25.465 17.8946 25.6856 17.8946C25.9062 17.8946 26.359 17.7315 26.359 17.7315C26.359 17.7315 26.43 17.8946 26.6591 17.8946C26.8882 17.8946 26.8936 17.7315 26.8936 17.7315C26.8936 17.7315 27.0159 17.8946 27.2143 17.8946C27.4128 17.8946 27.5291 17.7315 27.5291 17.7315C27.5291 17.7315 27.8144 17.8946 28.0112 17.8946C28.208 17.8946 28.1373 17.6001 28.0112 17.3427C27.9793 17.2776 27.9424 17.222 27.9086 17.1712C27.8089 17.0211 27.7371 16.9131 27.906 16.7269C27.9538 16.6741 28.0086 16.6208 28.0635 16.5674L28.0635 16.5674C28.268 16.3685 28.4736 16.1685 28.3231 15.9933C28.2784 15.9413 28.226 15.905 28.1733 15.8684C28.0009 15.7486 27.8254 15.6267 27.906 14.9479C27.9543 14.5414 28.046 14.211 28.1312 13.9042L28.1312 13.9041C28.2317 13.5421 28.3231 13.213 28.3231 12.8307C28.3231 12.1245 27.906 11.3169 27.906 11.3169C27.906 11.3169 28.4676 10.925 28.4676 10.1277C28.4676 9.33042 27.2143 9.24347 27.2143 9.24347C27.2143 9.24347 25.9695 9.56389 25.4199 9.40368C25.2959 9.36753 25.1921 9.34153 25.1057 9.31989L25.1057 9.31989C24.8094 9.24566 24.7181 9.2228 24.7181 9.01739C24.7181 8.75211 24.3181 9.24347 24.3181 9.24347C24.3181 9.24347 24.0045 9.11761 24.2177 8.85718C24.4309 8.59676 24.5271 8.49466 24.5271 8.49466C24.5271 8.49466 24.3393 8.28048 24.0224 8.38757C23.7055 8.49466 23.649 8.67212 23.649 8.67212C23.649 8.67212 23.2876 8.30227 23.5128 8.03373C23.7379 7.76519 24.0224 8.03373 24.0224 8.03373C24.0224 8.03373 24.346 8.20271 24.3721 7.98091C24.3981 7.75911 24.3721 7.58223 24.3721 7.58223C24.3721 7.58223 25.1841 7.81512 24.9546 8.17735C24.7252 8.53958 24.8703 8.67212 24.8703 8.67212C24.8703 8.67212 25.4284 8.70646 25.5292 8.32148C25.5674 8.17587 25.561 8.03467 25.5332 7.9237C25.694 7.99944 25.876 8.08918 25.8252 8.23807C25.7319 8.51161 25.5292 8.85718 25.5292 8.85718C25.5292 8.85718 26.0869 8.82459 26.2531 8.38757C26.4193 7.95055 26.359 8.49466 26.359 8.49466C26.359 8.49466 26.5728 8.48705 26.8936 8.67212C27.2143 8.85718 26.8936 8.38757 26.8936 8.38757C26.8936 8.38757 27.5594 9.21318 28.1892 9.11529C28.819 9.01739 28.7841 8.49466 28.7841 8.49466C28.7841 8.49466 28.6349 8.23807 28.3231 8.23807C28.0112 8.23807 28.1892 8.49466 28.1892 8.49466C28.1892 8.49466 28.4933 8.66784 28.0112 8.49466C27.8716 8.4445 27.6632 8.28258 27.4047 8.08167C26.7706 7.58891 25.8346 6.86159 24.8703 6.97298C23.5128 7.12978 23.0391 7.73643 23.0391 7.73643V7.2313C23.0391 7.2313 22.811 7.58223 22.5983 7.58223C22.3857 7.58223 21.7951 7.2313 21.7951 7.2313L21.4189 7.58223C21.4189 7.58223 21.2764 7.2313 21.0263 7.2313C20.7762 7.2313 20.7762 7.58223 20.7762 7.58223C20.7762 7.58223 20.4616 7.42753 20.1151 7.42753C19.9731 7.42753 19.8524 7.37568 19.7593 7.33571C19.6251 7.27812 19.5484 7.24517 19.5484 7.42753C19.5484 7.46453 19.5493 7.49986 19.5501 7.53346V7.53348C19.5562 7.78036 19.5599 7.93442 19.2007 7.98091C18.7926 8.03373 18.4773 8.03373 18.4773 8.03373C18.4773 8.03373 18.233 7.73643 18.043 7.73643C17.8529 7.73643 17.6327 7.96713 17.6327 8.17735C17.6327 8.38757 17.8789 8.9871 18.043 9.11529C18.0862 9.14905 18.0782 9.14536 18.0429 9.12912C17.9443 9.08371 17.6327 8.94018 17.6327 9.24347C17.6327 9.45257 17.6849 9.50484 17.723 9.54302C17.7599 9.58002 17.7837 9.60378 17.7339 9.74418C17.7132 9.8026 17.6847 9.87018 17.655 9.9407C17.5397 10.2145 17.4057 10.5328 17.6327 10.5328C17.7553 10.5328 17.8712 10.5058 17.9538 10.4866L17.9538 10.4866C18.0635 10.4611 18.1142 10.4493 18.043 10.5328C18.0146 10.5661 17.9764 10.6062 17.9379 10.6467C17.807 10.784 17.6724 10.9254 17.9054 10.8181C18.0279 10.7617 18.1313 10.6799 18.2166 10.6125C18.3414 10.5138 18.4273 10.4459 18.4773 10.5328C18.509 10.5878 18.4836 10.6613 18.4619 10.7243C18.4258 10.8291 18.3996 10.9048 18.6623 10.8181C18.7544 10.7877 18.8083 10.764 18.8383 10.747C18.8395 10.764 18.8536 10.7878 18.895 10.8181C18.9831 10.8828 18.9662 10.9441 18.9533 10.991C18.9387 11.044 18.9292 11.0785 19.0829 11.0785C19.2299 11.0785 19.4375 10.9646 19.5605 10.897C19.6796 10.8316 19.7194 10.8097 19.5484 10.977C19.4406 11.0824 19.2847 11.1526 19.1116 11.2306C18.7264 11.4042 18.2562 11.6161 18.043 12.3387C17.7551 13.3142 17.8841 13.5152 17.9032 13.5382L17.017 12.568C17.017 12.568 17.2289 12.4024 17.2289 12.1245C17.2289 11.8466 16.6803 11.6397 16.6803 11.6397C16.6803 11.6397 16.6995 8.18199 16.8582 7.42753C17.017 6.67306 17.0988 6.17346 17.0988 6.17346ZM17.9032 13.5382L17.9054 13.5406C17.9054 13.5406 17.905 13.5403 17.9044 13.5396C17.9041 13.5392 17.9037 13.5388 17.9032 13.5382ZM18.8659 10.7143C18.8559 10.7143 18.8367 10.7252 18.8383 10.747C18.8767 10.7252 18.8759 10.7143 18.8659 10.7143ZM25.5332 7.9237L25.5214 7.91817C25.3917 7.85714 25.28 7.80464 25.3229 7.73643C25.3832 7.64055 25.4873 7.74125 25.5332 7.9237ZM26.1195 15.4056C26.1195 15.4056 25.6996 15.8175 25.9662 15.908C26.0471 15.9355 26.1455 15.9508 26.2369 15.965C26.447 15.9977 26.6206 16.0247 26.4614 16.1802C26.2329 16.4034 26.0395 16.705 26.0395 16.9796C26.0395 17.2543 26.046 17.4861 26.1195 17.3702C26.1599 17.3066 26.3257 17.24 26.5044 17.1682C26.6512 17.1092 26.8066 17.0467 26.9082 16.9796C27.1001 16.8528 27.0973 16.7156 27.0923 16.4691C27.0915 16.4265 27.0906 16.3806 27.0906 16.3309C27.0906 15.994 26.1195 15.4056 26.1195 15.4056ZM22.8613 9.88958C22.9592 9.81179 22.9655 8.85162 22.9655 8.85162C22.9655 8.85162 23.3088 8.96593 23.3088 9.11592C23.3088 9.20933 23.2829 9.26276 23.2436 9.3434C23.2199 9.39225 23.1913 9.45108 23.1606 9.53482C23.0852 9.74109 23.2905 9.87032 23.4811 9.99035C23.4957 9.99951 23.5101 10.0086 23.5244 10.0177C23.6537 10.1001 23.69 9.92128 23.718 9.78324C23.7336 9.70672 23.7466 9.64273 23.7715 9.64273C23.8412 9.64273 24.3616 9.7607 24.7532 9.95973C25.095 10.1334 25.4303 10.0481 26.1983 9.85287C26.3105 9.82434 26.4319 9.79347 26.564 9.7607C27.5998 9.50372 27.7358 9.88958 27.842 10.1934C27.9482 10.4972 27.144 10.9181 26.564 10.9944C26.3091 11.0279 26.0883 11.0173 25.8852 11.0074C25.6261 10.9949 25.3957 10.9838 25.1599 11.0676C24.7904 11.199 23.6348 11.1859 23.1837 11.1808C23.1214 11.1801 23.0726 11.1796 23.0411 11.1796C22.834 11.1796 22.7948 11.1142 22.7162 10.983C22.6962 10.9497 22.6737 10.9121 22.6452 10.8703C22.5047 10.6638 22.6753 10.5288 22.7858 10.5288C22.8963 10.5288 22.8613 10.2872 22.7858 10.1934C22.7102 10.0995 22.7634 9.96737 22.8613 9.88958Z" fill="#FECA00"/>
<path fill-rule="evenodd" clip-rule="evenodd" d="M14.1696 2.12233V2.48337C14.1696 2.52783 14.1504 2.58846 14.1289 2.65643C14.0608 2.87188 13.9693 3.16101 14.3916 3.24227C14.9471 3.34917 15.3564 3.5921 15.4808 3.82144C15.5605 3.96841 15.5381 3.72351 15.5117 3.43545V3.43545C15.4969 3.27402 15.4808 3.09904 15.4808 2.97188C15.4808 2.61784 15.0842 1.92794 14.8032 2.12233C14.5222 2.31672 14.1696 2.12233 14.1696 2.12233ZM14.1696 21.5073V21.8684C14.1696 21.8684 14.5222 21.674 14.8032 21.8684C15.0842 22.0627 15.4808 21.3728 15.4808 21.0188C15.4808 20.8916 15.4969 20.7167 15.5117 20.5552C15.5381 20.2672 15.5605 20.0223 15.4808 20.1692C15.3564 20.3986 14.9471 20.6415 14.3916 20.7484C13.9693 20.8297 14.0608 21.1188 14.1289 21.3342C14.1504 21.4022 14.1696 21.4629 14.1696 21.5073ZM29.8341 21.5073V21.8684C29.8341 21.8684 29.4815 21.674 29.2005 21.8684C28.9195 22.0627 28.5229 21.3728 28.5229 21.0188C28.5229 20.8917 28.5068 20.7167 28.492 20.5553L28.492 20.5552C28.4656 20.2672 28.4431 20.0223 28.5229 20.1692C28.6473 20.3986 29.0565 20.6415 29.6121 20.7484C30.0344 20.8297 29.9429 21.1188 29.8747 21.3342C29.8532 21.4022 29.8341 21.4629 29.8341 21.5073ZM29.8341 2.48337V2.12233C29.8341 2.12233 29.4815 2.31672 29.2005 2.12233C28.9195 1.92794 28.5229 2.61784 28.5229 2.97188C28.5229 3.09904 28.5068 3.27402 28.492 3.43545C28.4656 3.72351 28.4431 3.96841 28.5229 3.82144C28.6473 3.5921 29.0565 3.34917 29.6121 3.24227C30.0344 3.16101 29.9429 2.87188 29.8747 2.65643C29.8532 2.58846 29.8341 2.52783 29.8341 2.48337Z" fill="#FECA00"/>
</g>
</svg>
