<svg width="32" height="24" viewBox="0 0 32 24" fill="none" xmlns="http://www.w3.org/2000/svg">
<mask id="mask0_5190_106478" style="mask-type:luminance" maskUnits="userSpaceOnUse" x="0" y="0" width="32" height="24">
<rect width="32" height="24" fill="white"/>
</mask>
<g mask="url(#mask0_5190_106478)">
<path fill-rule="evenodd" clip-rule="evenodd" d="M22 0H32V24H22V0Z" fill="#D9071E"/>
<path fill-rule="evenodd" clip-rule="evenodd" d="M0 0H12V24H0V0Z" fill="#006923"/>
<path fill-rule="evenodd" clip-rule="evenodd" d="M10 0H22V24H10V0Z" fill="white"/>
<path fill-rule="evenodd" clip-rule="evenodd" d="M13.054 8.34179C12.9478 8.79695 13.017 8.90439 13.5308 8.90439C13.5575 8.90439 13.5999 8.97982 13.646 9.06188C13.6965 9.1519 13.7515 9.24989 13.7952 9.26503C13.7765 9.28986 13.5811 9.643 13.5802 10.265C13.58 10.3931 13.6396 10.6042 13.6968 10.8069C13.7591 11.0275 13.8185 11.2381 13.7952 11.3213C13.7573 11.4569 13.5875 11.3092 13.4558 11.1948C13.3806 11.1293 13.3178 11.0747 13.2994 11.0902C13.2054 11.1693 13.1568 10.5432 13.1275 10.1649C13.1145 9.99641 13.1052 9.87709 13.0975 9.89102C13.0647 9.81867 13.0513 9.72978 13.038 9.64196C13.0092 9.45098 12.9812 9.26503 12.7559 9.26503H12.1758V9.69213C12.1758 9.69213 12.5114 9.69213 12.5114 10.4867C12.517 10.6055 12.6736 11.6503 13.054 11.6557C12.8311 11.6607 12.8328 11.7052 12.8337 11.7312L12.8339 11.7359C12.8339 12.3751 13.368 12.4442 13.8673 12.2637C14.1674 12.1553 14.4859 11.9436 14.7245 11.6826C15.0611 11.3144 15.1026 10.8376 14.6606 10.5762C14.5033 10.4831 14.3326 10.4471 14.0937 10.4338C14.141 10.2937 14.0963 10.1685 14.0614 10.0709C14.0322 9.98921 14.0099 9.92681 14.054 9.89102C14.5546 9.485 14.5993 9.11078 14.235 8.77511C14.1878 8.73156 14.142 8.67252 14.0949 8.61175L14.0949 8.61175C14.0062 8.49719 13.9127 8.37648 13.7952 8.34179C13.8495 8.23227 13.9227 8.09958 14.0145 7.94671L13.1571 7.43195C13.0017 7.69081 13.0277 7.89328 13.0503 8.06973C13.0628 8.16658 13.0742 8.2556 13.054 8.34179ZM13.9864 11.0079L13.9708 11.0246L13.9814 11.015C13.983 11.0122 13.9847 11.0098 13.9864 11.0079ZM13.5327 11.3213C13.5325 11.3214 13.533 11.3213 13.5342 11.3211L13.5344 11.321L13.5439 11.3192C13.54 11.3198 13.5364 11.3206 13.5344 11.321L13.5327 11.3213ZM13.0975 11.6552C13.0858 11.6552 13.0745 11.6553 13.0638 11.6555L13.0823 11.6551L13.0975 11.6552Z" fill="#A8AC71"/>
<path fill-rule="evenodd" clip-rule="evenodd" d="M14.3833 7.91339C14.3833 7.91339 13.6965 8.44605 13.8249 9.01393C13.9534 9.58181 15.3069 9.01393 15.1432 8.46366C14.9796 7.91339 14.3833 7.91339 14.3833 7.91339Z" fill="#FCCA3D"/>
<path fill-rule="evenodd" clip-rule="evenodd" d="M19.2675 12.4029C19.2675 12.4029 20.1925 9.66155 18.7222 8.24251C17.2518 6.82347 15.5527 6.91843 15.5527 6.91843C15.5527 6.91843 15.0634 7.28197 15.5527 7.55923C16.042 7.83649 15.837 8.10233 15.837 8.10233C15.837 8.10233 15.0175 7.27029 14.4736 7.7564C13.9296 8.24251 14.9814 8.16853 14.87 8.53455C14.7587 8.90057 14.287 10.5256 14.9762 11.3461C15.6655 12.1665 14.3246 11.9885 14.5973 11.9885C14.87 11.9885 15.837 12.1794 15.837 11.9885C15.837 11.7975 16.1731 12.7309 16.4608 12.7309C16.7485 12.7309 16.9706 12.4029 16.9706 12.4029C16.9706 12.4029 17.3738 12.7309 17.6196 12.7309C17.8653 12.7309 18.7222 12.5163 18.7222 12.5163L17.1027 11.1517C17.1027 11.1517 17.2003 10.5499 16.9706 10.4196C16.7408 10.2893 18.8123 11.574 18.9746 11.9885C19.1368 12.4029 19.2675 12.4029 19.2675 12.4029Z" fill="#8F4620"/>
<path d="M11.0664 11.7266C11.0664 11.7266 11.2166 11.248 11.3773 11.2148C11.5166 11.186 11.8094 11.4441 11.8094 11.4441C12.3297 14.334 13.5876 15.4627 15.6749 15.4627C17.7867 15.4627 19.0666 14.605 19.8135 11.9398C19.8135 11.9398 20.2106 11.5343 20.3507 11.5794C20.5032 11.6284 20.6943 12.1649 20.6943 12.1649C19.8375 15.2225 18.2185 16.5839 15.6749 16.5839C13.1067 16.5839 11.6638 15.0448 11.0664 11.7266Z" fill="#9FAB2F"/>
<path fill-rule="evenodd" clip-rule="evenodd" d="M13.3327 13.6564C13.3327 13.6564 16.337 14.2938 17.5229 14.2938C18.7087 14.2938 16.4824 15.2616 15.6137 15.2616C15.2338 15.2616 14.7757 15.0312 14.2397 14.5705C14.1436 14.488 14.2367 14.3032 13.944 14.3007C13.5359 14.2971 13.0289 14.2014 13.0775 14.1431C13.1236 14.0876 13.7173 14.0708 13.6601 14.0102C13.5657 13.9101 13.3327 13.6564 13.3327 13.6564Z" fill="#2FC2DC"/>
<rect x="14.668" y="14.1" width="2" height="1.07143" rx="0.166667" fill="#F9AA51"/>
<path d="M12.1758 12.1359C12.1758 12.1359 12.1758 11.7608 12.4298 11.5615C12.7209 11.3331 12.9944 11.5615 12.9944 11.5615C14.0598 13.0802 15.6532 13.5798 17.8816 13.0583C17.8816 13.0583 18.5479 13.2761 18.5813 13.4191C18.6238 13.6006 18.1094 14.032 18.1094 14.032C15.5044 14.6416 13.4908 14.0102 12.1758 12.1359Z" fill="#259485"/>
<path fill-rule="evenodd" clip-rule="evenodd" d="M16.5899 12.3503C16.5899 12.3503 15.3763 12.9892 15.7808 12.9892C16.1854 12.9892 17.7687 13.3086 17.4606 12.9892C17.1525 12.6697 16.5899 12.3503 16.5899 12.3503Z" fill="#FCCA3D"/>
<path fill-rule="evenodd" clip-rule="evenodd" d="M15.1551 11.5882C15.1551 11.5882 14.9245 10.9222 14.4446 10.9222C13.9647 10.9222 14.1001 11.4686 13.8694 11.4686C13.6386 11.4686 14.0844 11.853 14.2831 11.853C14.4818 11.853 15.1551 11.5882 15.1551 11.5882Z" fill="#FCCA3D"/>
</g>
</svg>
