<svg width="32" height="24" viewBox="0 0 32 24" fill="none" xmlns="http://www.w3.org/2000/svg">
<mask id="mask0_5190_106241" style="mask-type:luminance" maskUnits="userSpaceOnUse" x="0" y="0" width="32" height="24">
<rect width="32" height="24" fill="white"/>
</mask>
<g mask="url(#mask0_5190_106241)">
<path fill-rule="evenodd" clip-rule="evenodd" d="M0 0V24H32V0H0Z" fill="#F50101"/>
<mask id="mask1_5190_106241" style="mask-type:luminance" maskUnits="userSpaceOnUse" x="0" y="0" width="32" height="24">
<path fill-rule="evenodd" clip-rule="evenodd" d="M0 0V24H32V0H0Z" fill="white"/>
</mask>
<g mask="url(#mask1_5190_106241)">
<path fill-rule="evenodd" clip-rule="evenodd" d="M0 0V8H32V0H0Z" fill="#F7FCFF"/>
<path fill-rule="evenodd" clip-rule="evenodd" d="M0 16V24H32V16H0Z" fill="#5EAA22"/>
<rect width="12" height="24" fill="#F50101"/>
<path fill-rule="evenodd" clip-rule="evenodd" d="M10.7706 2.03284C10.78 1.94162 10.6633 1.90652 10.6168 1.98555C10.2539 2.602 9.34436 4.06844 7.84711 5.98613V5.06844C7.70429 4.91322 7.24898 4.49564 7.24898 4.49564V3.57932L8.07266 2.83393L6.94139 1.99998L5.74905 2.83393L6.6503 3.57932V4.49564C6.6503 4.93504 6.1039 5.06844 6.1039 5.06844L6.00387 5.87673C4.61092 4.06794 3.74246 2.6576 3.3747 2.02723C3.32724 1.94588 3.20786 1.9842 3.22188 2.07734C3.33289 2.81449 3.66488 4.4501 4.58197 6.19643H4.33601V6.16391C4.33601 6.11589 4.29707 6.07696 4.24905 6.07696H2.14035C2.09233 6.07696 2.0534 6.11589 2.0534 6.16391V7.49C2.0534 7.53802 2.09233 7.57696 2.14035 7.57696H4.24905C4.29707 7.57696 4.33601 7.53802 4.33601 7.49V6.7938H4.60157C4.69165 7.0015 4.8985 7.14788 5.14041 7.15213C5.3094 7.41285 5.49267 7.67288 5.69139 7.92964C5.23425 7.88443 2.21289 7.62719 2.21289 8.72638C2.21289 9.38248 2.94777 9.72977 3.86941 9.90928C2.94141 10.7496 2.0655 11.5403 1.66249 11.9039C1.5971 11.9629 1.64822 12.0651 1.7337 12.0439C2.45339 11.8655 4.33983 11.3153 6.13567 10.0901L6.1916 10.0902C6.69736 10.0902 7.04913 9.87082 7.29362 9.57385C9.12015 11.0648 11.1865 11.7533 12.0835 12.0001C12.1766 12.0257 12.2269 11.9052 12.1476 11.8502C11.4191 11.3444 9.77616 10.1274 8.09628 8.35954L8.14035 8.30794C8.48309 7.90348 8.78173 7.48745 9.04194 7.0703C9.15083 7.00663 9.23753 6.90978 9.28783 6.7938H9.5534L9.5534 7.49C9.5534 7.53802 9.59233 7.57696 9.64035 7.57696H11.749C11.7971 7.57696 11.836 7.53802 11.836 7.49V6.16391C11.836 6.11589 11.7971 6.07696 11.749 6.07696H9.64035C9.61808 6.07696 9.59777 6.08533 9.58239 6.09909C10.4447 4.35359 10.6979 2.73399 10.7706 2.03284ZM9.5534 6.19643L9.5534 6.16391L9.55368 6.15679L9.53373 6.19643H9.5534ZM5.64035 6.56083C5.64035 6.82806 5.42136 7.0447 5.15122 7.0447C4.88108 7.0447 4.66209 6.82806 4.66209 6.56083C4.66209 6.29359 4.88108 6.07696 5.15122 6.07696C5.42136 6.07696 5.64035 6.29359 5.64035 6.56083ZM8.24905 6.56083C8.24905 6.82806 8.46804 7.0447 8.73818 7.0447C9.00832 7.0447 9.22731 6.82806 9.22731 6.56083C9.22731 6.29359 9.00832 6.07696 8.73818 6.07696C8.46804 6.07696 8.24905 6.29359 8.24905 6.56083Z" fill="#F7FCFF"/>
</g>
</g>
</svg>
