<svg width="32" height="24" viewBox="0 0 32 24" fill="none" xmlns="http://www.w3.org/2000/svg">
<mask id="mask0_5190_106187" style="mask-type:luminance" maskUnits="userSpaceOnUse" x="0" y="0" width="32" height="24">
<rect width="32" height="24" fill="white"/>
</mask>
<g mask="url(#mask0_5190_106187)">
<path fill-rule="evenodd" clip-rule="evenodd" d="M8 0H25V24H8V0Z" fill="#F7FCFF"/>
<path fill-rule="evenodd" clip-rule="evenodd" d="M24 0H32V24H24V0Z" fill="#F50101"/>
<path fill-rule="evenodd" clip-rule="evenodd" d="M0 0H8V24H0V0Z" fill="#F50101"/>
<path d="M15.7426 8.74515L15.7761 9.10709C14.7777 9.20807 14.2383 8.72021 14.2383 7.70768C14.2383 6.70297 14.766 6.16892 15.7583 6.1626L15.7605 6.52623C14.9565 6.53135 14.5861 6.90614 14.5861 7.70768C14.5861 8.5014 14.9448 8.82584 15.7426 8.74515Z" fill="#A2BB6A"/>
<path d="M16.1831 8.74515L16.1496 9.10709C17.1481 9.20807 17.6875 8.72021 17.6875 7.70768C17.6875 6.70297 17.1597 6.16892 16.1674 6.1626L16.1653 6.52623C16.9693 6.53135 17.3397 6.90614 17.3397 7.70768C17.3397 8.5014 16.981 8.82584 16.1831 8.74515Z" fill="#A2BB6A"/>
<path fill-rule="evenodd" clip-rule="evenodd" d="M15.1398 17.1228C14.8527 17.2257 12.9062 17.1228 12.9062 17.1228V17.665H14.1967C14.6273 17.665 14.7901 17.742 14.9394 17.8127C15.0659 17.8727 15.1828 17.928 15.4448 17.928C15.9552 17.928 15.9458 17.5484 15.938 17.2324C15.9371 17.1947 15.9362 17.158 15.9362 17.1228C15.9362 16.9886 15.9572 16.9137 15.9735 16.8554C15.9972 16.7706 16.0111 16.721 15.9362 16.575C15.8098 16.3288 14.6076 16.3616 14.6076 16.575C14.6076 16.6757 14.7899 16.7804 14.9524 16.8737C15.1343 16.9782 15.2915 17.0685 15.1398 17.1228ZM16.8892 17.1228C17.1763 17.2257 19.1228 17.1228 19.1228 17.1228V17.665H17.8323C17.4018 17.665 17.239 17.742 17.0896 17.8127C16.9631 17.8727 16.8462 17.928 16.5842 17.928C16.0739 17.928 16.0832 17.5484 16.091 17.2324C16.092 17.1947 16.0929 17.158 16.0929 17.1228C16.0929 16.9886 16.0719 16.9137 16.0556 16.8554C16.0318 16.7706 16.0179 16.721 16.0929 16.575C16.2193 16.3288 17.4214 16.3616 17.4214 16.575C17.4214 16.6757 17.2392 16.7804 17.0767 16.8737C16.8947 16.9782 16.7376 17.0685 16.8892 17.1228Z" fill="#E31D1C"/>
<path fill-rule="evenodd" clip-rule="evenodd" d="M16.4062 17.1747C16.4062 17.1747 17.9252 17.0238 18.2687 16.476C18.6122 15.9282 19.1845 14.9931 19.3857 14.7667C19.5869 14.5402 19.5999 15.09 19.5999 15.09C19.5999 15.09 19.9318 15.5609 19.9318 14.9588C19.9318 14.3568 19.6957 14.7774 19.3857 13.8716C19.0756 12.9658 18.9012 12.0773 18.9884 11.9428C19.0756 11.8083 19.2821 12.0773 19.2821 11.9428C19.2821 11.8083 19.2821 11.5451 19.2821 11.5451L19.5999 11.9428L19.9318 11.8168C19.9318 11.8168 20.2051 12.402 20.3734 12.5832C20.5417 12.7644 20.6402 12.3405 20.591 11.9428C20.5417 11.5451 19.9318 11.5451 19.9318 11.5451C19.9318 11.5451 19.1518 11.1246 19.1518 10.9484C19.1518 10.7722 19.4891 10.8247 19.4891 10.8247L19.3857 10.2791C19.3857 10.2791 19.6644 10.6105 19.7981 10.4448C19.9318 10.2791 19.5999 9.98836 19.5999 9.98836H20.1291V9.73285L20.3734 9.8696L20.1291 9.31165C20.1291 9.31165 19.4125 9.41956 19.2821 9.31165C19.1518 9.20374 18.7414 8.78313 18.7414 8.78313V8.58346H18.505L18.7414 8.18295V7.54518L19.5999 7.71633V7.24475C19.5999 7.24475 20.8085 7.83391 20.591 8.30852C20.3734 8.78313 20.3734 9.31165 20.3734 9.31165V9.73285C20.3734 9.73285 20.4096 9.60391 20.591 9.60391C20.7723 9.60391 20.9786 9.69761 20.9786 9.98836C20.9786 10.2791 21.3479 9.8696 21.3479 9.8696V11.0792C21.3479 11.0792 21.4347 11.21 21.6245 11.0792C21.8143 10.9484 21.7311 11.0504 21.161 11.8168C20.591 12.5832 20.7963 12.5853 20.9786 12.3975C21.161 12.2097 21.9011 11.6759 21.6245 11.9428C21.3479 12.2097 21.3296 12.7689 21.6245 12.5832C21.9194 12.3975 21.8625 12.2654 21.8625 12.5832C21.8625 12.901 21.3434 13.9829 21.161 14.1523C20.9786 14.3218 20.8085 14.426 20.591 14.5963C20.3734 14.7667 20.1291 14.9679 20.1291 15.09C20.1291 15.2122 20.591 14.9588 20.591 14.9588L20.3734 15.7354H20.7962C20.7962 15.7354 20.4597 16.7666 19.7981 16.7666C19.1366 16.7666 18.6379 16.7666 18.505 16.7666C18.372 16.7666 17.7714 17.0499 17.7714 17.0499L17.332 17.1747C17.332 17.1747 18.0325 17.2416 18.2687 17.452C18.505 17.6623 18.2687 17.809 18.2687 17.809C18.2687 17.809 17.6204 17.7447 17.1364 17.5983C16.6524 17.452 16.4062 17.7293 16.4062 17.452C16.4062 17.1747 16.4062 17.1747 16.4062 17.1747Z" fill="#00A854"/>
<path fill-rule="evenodd" clip-rule="evenodd" d="M20.7819 8.90908C20.7819 9.0095 20.7041 9.0909 20.608 9.0909C20.512 9.0909 20.4341 9.0095 20.4341 8.90908C20.4341 8.80867 20.512 8.72726 20.608 8.72726C20.7041 8.72726 20.7819 8.80867 20.7819 8.90908ZM19.9124 9.63636C19.9124 9.73677 19.8345 9.81817 19.7385 9.81817C19.6424 9.81817 19.5645 9.73677 19.5645 9.63636C19.5645 9.53594 19.6424 9.45454 19.7385 9.45454C19.8345 9.45454 19.9124 9.53594 19.9124 9.63636ZM20.7819 9.45454C20.878 9.45454 20.9558 9.37313 20.9558 9.27272C20.9558 9.1723 20.878 9.0909 20.7819 9.0909C20.6859 9.0909 20.608 9.1723 20.608 9.27272C20.608 9.37313 20.6859 9.45454 20.7819 9.45454ZM20.4341 12.1818C20.4341 12.2822 20.3562 12.3636 20.2602 12.3636C20.1641 12.3636 20.0863 12.2822 20.0863 12.1818C20.0863 12.0814 20.1641 12 20.2602 12C20.3562 12 20.4341 12.0814 20.4341 12.1818ZM19.5645 14.5454C19.6606 14.5454 19.7385 14.464 19.7385 14.3636C19.7385 14.2632 19.6606 14.1818 19.5645 14.1818C19.4685 14.1818 19.3906 14.2632 19.3906 14.3636C19.3906 14.464 19.4685 14.5454 19.5645 14.5454ZM20.9558 14.9091C20.9558 15.0095 20.878 15.0909 20.7819 15.0909C20.6859 15.0909 20.608 15.0095 20.608 14.9091C20.608 14.8087 20.6859 14.7273 20.7819 14.7273C20.878 14.7273 20.9558 14.8087 20.9558 14.9091ZM21.1298 14.7273C21.2258 14.7273 21.3037 14.6459 21.3037 14.5454C21.3037 14.445 21.2258 14.3636 21.1298 14.3636C21.0337 14.3636 20.9558 14.445 20.9558 14.5454C20.9558 14.6459 21.0337 14.7273 21.1298 14.7273ZM21.1298 12C21.1298 12.1004 21.0519 12.1818 20.9558 12.1818C20.8598 12.1818 20.7819 12.1004 20.7819 12C20.7819 11.8996 20.8598 11.8182 20.9558 11.8182C21.0519 11.8182 21.1298 11.8996 21.1298 12Z" fill="#C51918"/>
<path fill-rule="evenodd" clip-rule="evenodd" d="M15.6855 16.8546C15.6855 16.8546 12.9219 16.3084 12.7707 15.2512C12.6196 14.1939 12.6217 13.0684 12.6217 13.0684L12.3654 13.7562C12.3654 13.7562 12.3525 12.8199 12.8781 12.152C13.4038 11.484 12.2211 12.5945 12.2211 12.5945C12.2211 12.5945 12.8199 11.6503 13.0692 11.5604C13.3186 11.4705 12.0675 12.152 12.0675 12.152C12.0675 12.152 12.4259 11.3596 12.7045 11.1355C12.9831 10.9114 12.0675 11.5604 12.0675 11.5604C12.0675 11.5604 12.2746 10.7745 12.5224 10.5871C12.7702 10.3996 11.7127 11.5604 11.7127 11.5604C11.7127 11.5604 12.2706 9.76474 12.5849 9.59716C12.8992 9.42958 12.0675 9.92639 12.0675 9.92639C12.0675 9.92639 12.5769 9.1584 13.0333 8.77662C13.4896 8.39483 12.2085 8.93942 12.3654 8.93942C12.3654 8.93942 12.8287 8.41625 13.0949 8.26858C13.361 8.12091 12.0675 8.77662 12.0675 8.77662C12.0675 8.77662 12.996 7.75195 13.2744 7.6011C13.5527 7.45024 11.9079 8.41483 11.9079 8.41483C11.9079 8.41483 12.004 7.96802 12.0455 7.6487C12.0869 7.32938 11.2834 8.52383 11.3925 9.59716C11.5016 10.6705 10.9554 8.77662 10.9554 8.77662C10.9554 8.77662 10.7356 9.18777 11.2696 10.2647L10.6908 9.45365C10.6908 9.45365 10.77 10.1897 10.9554 10.5871C11.1408 10.9844 10.4291 9.92639 10.4291 9.92639C10.4291 9.92639 10.2929 10.5871 10.4291 10.5871C10.4291 10.5871 11.2418 11.6729 11.2719 11.9894C11.3021 12.306 10.3592 10.8591 10.233 10.8591C10.1068 10.8591 10.0369 11.3238 10.233 11.3238C10.4291 11.3238 10.8005 11.9894 10.8005 11.9894C10.8005 11.9894 10.3178 11.6406 10.2143 11.6199C10.1108 11.5993 10.2955 11.8269 10.4291 11.9894C10.4291 11.9894 10.0515 12.2973 10.0802 12.5306C10.1088 12.7638 11.1094 12.8132 11.5454 13.9204C11.5454 13.9204 10.6439 13.4437 10.4291 13.4437C10.2143 13.4437 10.775 13.9414 10.9554 14.1057C11.1358 14.27 10.6774 13.9414 10.5532 14.1057C10.4291 14.27 11.2397 14.9718 11.3925 14.9718C11.5454 14.9718 10.8005 14.9718 10.8005 14.9718C10.8005 14.9718 10.9985 15.2512 11.2719 15.2512C11.5454 15.2512 12.5224 15.6903 12.5224 15.8326C12.5224 15.9748 11.6982 15.6505 11.5454 15.6505C11.3925 15.6505 12.6215 16.8103 13.2744 16.8546C13.9273 16.8988 14.3399 17.0741 14.6214 17.0741C14.9029 17.0741 15.1007 17.0741 15.1007 17.0741L13.7709 17.7517C13.7709 17.7517 13.6366 17.7517 14.2135 17.7517C14.7905 17.7517 15.2317 17.912 15.4586 17.5805C15.6855 17.2491 15.6855 16.8546 15.6855 16.8546Z" fill="#00A854"/>
<mask id="path-11-outside-1_5190_106187" maskUnits="userSpaceOnUse" x="11.1758" y="6.8815" width="9" height="11" fill="black">
<rect fill="white" x="11.1758" y="6.8815" width="9" height="11"/>
<path fill-rule="evenodd" clip-rule="evenodd" d="M16.0856 8.90544C16.1122 8.89036 16.1271 8.8815 16.1271 8.8815V8.92863C16.3196 9.03484 16.8043 9.28372 17.1195 9.28372C17.5202 9.28372 18.0648 8.8815 18.0648 8.8815L18.9761 10.1682C18.9761 10.1682 18.3624 11.4545 18.832 13.0263C19.3016 14.5982 18.8071 15.8101 16.7188 15.9447C16.7188 15.9447 16.3073 16.0229 16.1271 16.1475V16.2626C16.1271 16.234 16.1117 16.2067 16.0856 16.1811C16.0595 16.2067 16.0441 16.234 16.0441 16.2626V16.1475C15.8638 16.0229 15.4524 15.9447 15.4524 15.9447C13.364 15.8101 12.8696 14.5982 13.3392 13.0263C13.8088 11.4545 13.1951 10.1682 13.1951 10.1682L14.1064 8.8815C14.1064 8.8815 14.651 9.28372 15.0517 9.28372C15.3669 9.28372 15.8516 9.03484 16.0441 8.92863V8.8815C16.0441 8.8815 16.059 8.89036 16.0856 8.90544Z"/>
</mask>
<path fill-rule="evenodd" clip-rule="evenodd" d="M16.0856 8.90544C16.1122 8.89036 16.1271 8.8815 16.1271 8.8815V8.92863C16.3196 9.03484 16.8043 9.28372 17.1195 9.28372C17.5202 9.28372 18.0648 8.8815 18.0648 8.8815L18.9761 10.1682C18.9761 10.1682 18.3624 11.4545 18.832 13.0263C19.3016 14.5982 18.8071 15.8101 16.7188 15.9447C16.7188 15.9447 16.3073 16.0229 16.1271 16.1475V16.2626C16.1271 16.234 16.1117 16.2067 16.0856 16.1811C16.0595 16.2067 16.0441 16.234 16.0441 16.2626V16.1475C15.8638 16.0229 15.4524 15.9447 15.4524 15.9447C13.364 15.8101 12.8696 14.5982 13.3392 13.0263C13.8088 11.4545 13.1951 10.1682 13.1951 10.1682L14.1064 8.8815C14.1064 8.8815 14.651 9.28372 15.0517 9.28372C15.3669 9.28372 15.8516 9.03484 16.0441 8.92863V8.8815C16.0441 8.8815 16.059 8.89036 16.0856 8.90544Z" fill="#E8AA00"/>
<path d="M16.1271 8.8815H17.1271V7.12114L15.615 8.02255L16.1271 8.8815ZM16.0856 8.90544L15.5925 9.77541L16.0856 10.0549L16.5787 9.77541L16.0856 8.90544ZM16.1271 8.92863H15.1271V9.51901L15.644 9.80421L16.1271 8.92863ZM18.0648 8.8815L18.8809 8.30355L18.2913 7.47108L17.4707 8.07709L18.0648 8.8815ZM18.9761 10.1682L19.8786 10.5989L20.1313 10.0692L19.7922 9.59028L18.9761 10.1682ZM18.832 13.0263L17.8738 13.3126L18.832 13.0263ZM16.7188 15.9447L16.6545 14.9468L16.5928 14.9507L16.5321 14.9623L16.7188 15.9447ZM16.1271 16.1475L15.5585 15.3249L15.1271 15.6231V16.1475H16.1271ZM16.0856 16.1811L16.7858 15.4672L16.0856 14.7804L15.3854 15.4672L16.0856 16.1811ZM16.0441 16.1475H17.0441V15.6231L16.6127 15.3249L16.0441 16.1475ZM15.4524 15.9447L15.639 14.9623L15.5783 14.9507L15.5167 14.9468L15.4524 15.9447ZM13.1951 10.1682L12.379 9.59028L12.0398 10.0692L12.2925 10.5989L13.1951 10.1682ZM14.1064 8.8815L14.7004 8.07709L13.8799 7.47108L13.2903 8.30355L14.1064 8.8815ZM16.0441 8.92863L16.5272 9.80421L17.0441 9.51901V8.92863H16.0441ZM16.0441 8.8815L16.5562 8.02255L15.0441 7.12114V8.8815H16.0441ZM16.1271 8.8815C15.615 8.02255 15.615 8.02254 15.615 8.02253C15.615 8.02253 15.615 8.02252 15.6151 8.02251C15.6151 8.0225 15.6151 8.02249 15.6151 8.02247C15.6152 8.02245 15.6152 8.02243 15.6152 8.0224C15.6153 8.02235 15.6154 8.02231 15.6155 8.02227C15.6156 8.02218 15.6157 8.0221 15.6159 8.02203C15.6161 8.02189 15.6163 8.02178 15.6164 8.0217C15.6167 8.02155 15.6167 8.02153 15.6165 8.02163C15.6162 8.02182 15.615 8.02251 15.6131 8.02364C15.6092 8.02592 15.6022 8.02997 15.5925 8.03548L16.5787 9.77541C16.5956 9.76583 16.6093 9.75791 16.6195 9.75199C16.6246 9.74902 16.6288 9.74655 16.6321 9.74461C16.6337 9.74365 16.6351 9.74281 16.6363 9.74212C16.6369 9.74177 16.6374 9.74146 16.6379 9.74118C16.6381 9.74104 16.6383 9.74091 16.6385 9.74079C16.6386 9.74073 16.6387 9.74067 16.6388 9.74061C16.6389 9.74058 16.6389 9.74056 16.639 9.74053C16.639 9.74052 16.639 9.7405 16.639 9.74049C16.6391 9.74048 16.6391 9.74047 16.6391 9.74047C16.6391 9.74046 16.6391 9.74045 16.1271 8.8815ZM17.1271 8.92863V8.8815H15.1271V8.92863H17.1271ZM15.644 9.80421C15.7575 9.86682 15.9643 9.97572 16.1988 10.0716C16.4015 10.1545 16.7548 10.2837 17.1195 10.2837V8.28372C17.1614 8.28372 17.1656 8.29024 17.1186 8.2776C17.0778 8.2666 17.0226 8.24775 16.9557 8.22039C16.821 8.1653 16.6892 8.09665 16.6101 8.05304L15.644 9.80421ZM17.1195 10.2837C17.5874 10.2837 18.0136 10.0726 18.2175 9.96255C18.3422 9.89519 18.4482 9.82901 18.523 9.77978C18.5609 9.75485 18.5921 9.73346 18.615 9.71738C18.6265 9.70932 18.636 9.70253 18.6433 9.69723C18.647 9.69457 18.6502 9.69229 18.6528 9.69039C18.6541 9.68945 18.6552 9.6886 18.6562 9.68785C18.6568 9.68748 18.6572 9.68713 18.6577 9.6868C18.6579 9.68664 18.6581 9.68649 18.6583 9.68634C18.6584 9.68626 18.6585 9.68616 18.6586 9.68612C18.6587 9.68601 18.6589 9.68591 18.0648 8.8815C17.4707 8.07709 17.4709 8.07699 17.471 8.07689C17.471 8.07686 17.4712 8.07676 17.4713 8.0767C17.4714 8.07658 17.4716 8.07646 17.4717 8.07634C17.472 8.07612 17.4723 8.07592 17.4726 8.07573C17.4731 8.07537 17.4734 8.0751 17.4737 8.07491C17.4742 8.07454 17.4742 8.07452 17.4738 8.07481C17.473 8.0754 17.4704 8.07725 17.4663 8.08019C17.4578 8.0861 17.4433 8.09614 17.4239 8.10892C17.3841 8.1351 17.3288 8.16947 17.2673 8.20267C17.2038 8.23695 17.1478 8.2623 17.105 8.27734C17.0549 8.29491 17.0645 8.28372 17.1195 8.28372V10.2837ZM17.2487 9.45946L18.16 10.7462L19.7922 9.59028L18.8809 8.30355L17.2487 9.45946ZM18.9761 10.1682C18.0736 9.73762 18.0734 9.73796 18.0732 9.73831C18.0732 9.73844 18.073 9.73879 18.0729 9.73904C18.0726 9.73954 18.0724 9.74005 18.0721 9.74059C18.0716 9.74166 18.0711 9.74282 18.0705 9.74406C18.0694 9.74653 18.068 9.74934 18.0666 9.75248C18.0637 9.75874 18.0602 9.76632 18.0563 9.77517C18.0484 9.79286 18.0385 9.81569 18.027 9.8434C18.004 9.89877 17.9746 9.97397 17.9425 10.0669C17.8783 10.2523 17.8021 10.5117 17.7442 10.828C17.629 11.4585 17.5829 12.3387 17.8738 13.3126L19.7901 12.7401C19.6115 12.1421 19.6375 11.5933 19.7116 11.1877C19.7485 10.986 19.7963 10.8255 19.8326 10.7206C19.8507 10.6684 19.8656 10.6309 19.8743 10.6098C19.8787 10.5992 19.8815 10.5929 19.8823 10.591C19.8828 10.59 19.8827 10.5902 19.8821 10.5915C19.8818 10.5921 19.8814 10.5931 19.8808 10.5943C19.8805 10.5949 19.8802 10.5956 19.8798 10.5964C19.8796 10.5967 19.8794 10.5971 19.8793 10.5975C19.8792 10.5978 19.879 10.5981 19.8789 10.5982C19.8788 10.5985 19.8786 10.5989 18.9761 10.1682ZM17.8738 13.3126C18.0714 13.9738 17.9925 14.3267 17.889 14.4906C17.8027 14.6273 17.5335 14.8901 16.6545 14.9468L16.7831 16.9426C17.9924 16.8647 19.0146 16.4542 19.5802 15.5583C20.1286 14.6897 20.0622 13.6507 19.7901 12.7401L17.8738 13.3126ZM16.7188 15.9447C16.5321 14.9623 16.532 14.9623 16.5319 14.9623C16.5319 14.9623 16.5318 14.9623 16.5317 14.9624C16.5316 14.9624 16.5314 14.9624 16.5312 14.9625C16.5309 14.9625 16.5306 14.9626 16.5302 14.9627C16.5294 14.9628 16.5286 14.963 16.5276 14.9631C16.5257 14.9635 16.5234 14.964 16.5206 14.9645C16.5152 14.9656 16.5082 14.967 16.4997 14.9687C16.4829 14.9722 16.4602 14.977 16.433 14.9831C16.3793 14.9951 16.3046 15.013 16.2208 15.0364C16.0954 15.0716 15.8001 15.1579 15.5585 15.3249L16.6956 16.9701C16.648 17.003 16.6253 17.008 16.6579 16.9953C16.6818 16.986 16.7169 16.9744 16.7602 16.9623C16.8019 16.9506 16.8413 16.9412 16.8704 16.9347C16.8846 16.9315 16.8954 16.9292 16.9018 16.9279C16.905 16.9272 16.907 16.9268 16.9076 16.9267C16.908 16.9266 16.908 16.9266 16.9076 16.9267C16.9075 16.9267 16.9072 16.9268 16.9068 16.9269C16.9067 16.9269 16.9065 16.9269 16.9062 16.927C16.9061 16.927 16.906 16.927 16.9059 16.927C16.9058 16.9271 16.9057 16.9271 16.9057 16.9271C16.9056 16.9271 16.9055 16.9271 16.7188 15.9447ZM17.1271 16.2626V16.1475H15.1271V16.2626H17.1271ZM15.3854 16.8951C15.3154 16.8264 15.1271 16.6121 15.1271 16.2626H17.1271C17.1271 15.8559 16.908 15.587 16.7858 15.4672L15.3854 16.8951ZM15.3854 15.4672C15.2632 15.587 15.0441 15.8559 15.0441 16.2626H17.0441C17.0441 16.6121 16.8558 16.8264 16.7858 16.8951L15.3854 15.4672ZM17.0441 16.2626V16.1475H15.0441V16.2626H17.0441ZM15.4524 15.9447C15.2657 16.9271 15.2656 16.9271 15.2655 16.9271C15.2654 16.9271 15.2653 16.9271 15.2653 16.927C15.2652 16.927 15.265 16.927 15.2649 16.927C15.2647 16.9269 15.2645 16.9269 15.2643 16.9269C15.264 16.9268 15.2637 16.9267 15.2635 16.9267C15.2632 16.9266 15.2632 16.9266 15.2635 16.9267C15.2642 16.9268 15.2662 16.9272 15.2694 16.9279C15.2757 16.9292 15.2866 16.9315 15.3008 16.9347C15.3298 16.9412 15.3693 16.9506 15.4109 16.9623C15.4542 16.9744 15.4894 16.986 15.5132 16.9953C15.5459 17.008 15.5231 17.003 15.4755 16.9701L16.6127 15.3249C16.3711 15.1579 16.0757 15.0716 15.9503 15.0364C15.8666 15.013 15.7919 14.9951 15.7382 14.9831C15.711 14.977 15.6883 14.9722 15.6714 14.9687C15.663 14.967 15.656 14.9656 15.6505 14.9645C15.6478 14.964 15.6455 14.9635 15.6435 14.9631C15.6426 14.963 15.6417 14.9628 15.641 14.9627C15.6406 14.9626 15.6402 14.9625 15.6399 14.9625C15.6398 14.9624 15.6396 14.9624 15.6395 14.9624C15.6394 14.9623 15.6393 14.9623 15.6392 14.9623C15.6391 14.9623 15.639 14.9623 15.4524 15.9447ZM12.381 12.7401C12.109 13.6507 12.0426 14.6897 12.591 15.5583C13.1566 16.4542 14.1787 16.8647 15.388 16.9426L15.5167 14.9468C14.6377 14.8901 14.3684 14.6273 14.2821 14.4906C14.1786 14.3267 14.0998 13.9738 14.2973 13.3126L12.381 12.7401ZM13.1951 10.1682C12.2925 10.5989 12.2924 10.5985 12.2922 10.5982C12.2922 10.5981 12.292 10.5978 12.2919 10.5975C12.2917 10.5971 12.2915 10.5967 12.2913 10.5964C12.291 10.5956 12.2907 10.5949 12.2904 10.5943C12.2898 10.5931 12.2894 10.5921 12.2891 10.5915C12.2885 10.5902 12.2884 10.59 12.2888 10.591C12.2897 10.5929 12.2925 10.5992 12.2968 10.6098C12.3056 10.6309 12.3205 10.6684 12.3385 10.7206C12.3748 10.8255 12.4226 10.986 12.4595 11.1877C12.5337 11.5933 12.5597 12.1421 12.381 12.7401L14.2973 13.3126C14.5883 12.3387 14.5422 11.4585 14.4269 10.828C14.3691 10.5117 14.2928 10.2523 14.2287 10.0669C14.1965 9.97397 14.1672 9.89878 14.1442 9.8434C14.1327 9.81569 14.1228 9.79286 14.1149 9.77517C14.1109 9.76632 14.1075 9.75874 14.1046 9.75248C14.1031 9.74934 14.1018 9.74654 14.1006 9.74406C14.1001 9.74282 14.0995 9.74166 14.099 9.74059C14.0988 9.74005 14.0985 9.73954 14.0983 9.73904C14.0982 9.73879 14.098 9.73844 14.0979 9.73831C14.0978 9.73796 14.0976 9.73762 13.1951 10.1682ZM13.2903 8.30355L12.379 9.59028L14.0111 10.7462L14.9224 9.45946L13.2903 8.30355ZM15.0517 8.28372C15.1067 8.28372 15.1162 8.29491 15.0662 8.27734C15.0234 8.2623 14.9673 8.23695 14.9038 8.20267C14.8424 8.16947 14.7871 8.1351 14.7473 8.10892C14.7279 8.09614 14.7133 8.0861 14.7049 8.08019C14.7007 8.07725 14.6981 8.0754 14.6973 8.07481C14.6969 8.07452 14.697 8.07454 14.6975 8.07491C14.6977 8.0751 14.6981 8.07537 14.6986 8.07573C14.6988 8.07592 14.6991 8.07612 14.6994 8.07634C14.6996 8.07646 14.6997 8.07658 14.6999 8.0767C14.7 8.07676 14.7001 8.07686 14.7002 8.07689C14.7003 8.07699 14.7004 8.07709 14.1064 8.8815C13.5123 9.68591 13.5124 9.68601 13.5126 9.68612C13.5126 9.68616 13.5128 9.68626 13.5129 9.68634C13.5131 9.68649 13.5133 9.68664 13.5135 9.6868C13.5139 9.68713 13.5144 9.68747 13.5149 9.68785C13.5159 9.6886 13.5171 9.68945 13.5184 9.69039C13.521 9.69229 13.5241 9.69457 13.5278 9.69723C13.5352 9.70253 13.5447 9.70932 13.5562 9.71738C13.5791 9.73346 13.6102 9.75485 13.6481 9.77978C13.723 9.82901 13.8289 9.89519 13.9537 9.96255C14.1575 10.0726 14.5838 10.2837 15.0517 10.2837V8.28372ZM15.561 8.05304C15.482 8.09665 15.3502 8.1653 15.2154 8.22039C15.1485 8.24775 15.0933 8.2666 15.0525 8.2776C15.0056 8.29024 15.0098 8.28372 15.0517 8.28372V10.2837C15.4163 10.2837 15.7696 10.1545 15.9723 10.0716C16.2069 9.97572 16.4137 9.86682 16.5272 9.80421L15.561 8.05304ZM17.0441 8.92863V8.8815H15.0441V8.92863H17.0441ZM16.0441 8.8815C15.532 9.74045 15.5321 9.74046 15.5321 9.74047C15.5321 9.74047 15.5321 9.74048 15.5321 9.74049C15.5321 9.7405 15.5322 9.74052 15.5322 9.74053C15.5322 9.74056 15.5323 9.74058 15.5323 9.74061C15.5324 9.74067 15.5325 9.74073 15.5326 9.74079C15.5328 9.74091 15.533 9.74104 15.5333 9.74118C15.5337 9.74146 15.5343 9.74177 15.5349 9.74212C15.536 9.74281 15.5374 9.74365 15.5391 9.74461C15.5424 9.74655 15.5466 9.74902 15.5517 9.75199C15.5618 9.75791 15.5756 9.76583 15.5925 9.77541L16.5787 8.03548C16.569 8.02997 16.562 8.02592 16.5581 8.02364C16.5561 8.02251 16.5549 8.02182 16.5546 8.02163C16.5544 8.02153 16.5545 8.02155 16.5547 8.0217C16.5549 8.02178 16.5551 8.02189 16.5553 8.02203C16.5554 8.0221 16.5555 8.02218 16.5557 8.02227C16.5558 8.02231 16.5558 8.02235 16.5559 8.0224C16.556 8.02243 16.556 8.02245 16.556 8.02247C16.5561 8.02249 16.5561 8.0225 16.5561 8.02251C16.5561 8.02252 16.5561 8.02253 16.5561 8.02253C16.5562 8.02254 16.5562 8.02255 16.0441 8.8815Z" fill="#E8AA00" mask="url(#path-11-outside-1_5190_106187)"/>
<mask id="mask1_5190_106187" style="mask-type:luminance" maskUnits="userSpaceOnUse" x="12" y="7" width="9" height="11">
<mask id="path-13-outside-2_5190_106187" maskUnits="userSpaceOnUse" x="11.1758" y="6.8815" width="9" height="11" fill="black">
<rect fill="white" x="11.1758" y="6.8815" width="9" height="11"/>
<path fill-rule="evenodd" clip-rule="evenodd" d="M16.0856 8.90544C16.1122 8.89036 16.1271 8.8815 16.1271 8.8815V8.92863C16.3196 9.03484 16.8043 9.28372 17.1195 9.28372C17.5202 9.28372 18.0648 8.8815 18.0648 8.8815L18.9761 10.1682C18.9761 10.1682 18.3624 11.4545 18.832 13.0263C19.3016 14.5982 18.8071 15.8101 16.7188 15.9447C16.7188 15.9447 16.3073 16.0229 16.1271 16.1475V16.2626C16.1271 16.234 16.1117 16.2067 16.0856 16.1811C16.0595 16.2067 16.0441 16.234 16.0441 16.2626V16.1475C15.8638 16.0229 15.4524 15.9447 15.4524 15.9447C13.364 15.8101 12.8696 14.5982 13.3392 13.0263C13.8088 11.4545 13.1951 10.1682 13.1951 10.1682L14.1064 8.8815C14.1064 8.8815 14.651 9.28372 15.0517 9.28372C15.3669 9.28372 15.8516 9.03484 16.0441 8.92863V8.8815C16.0441 8.8815 16.059 8.89036 16.0856 8.90544Z"/>
</mask>
<path fill-rule="evenodd" clip-rule="evenodd" d="M16.0856 8.90544C16.1122 8.89036 16.1271 8.8815 16.1271 8.8815V8.92863C16.3196 9.03484 16.8043 9.28372 17.1195 9.28372C17.5202 9.28372 18.0648 8.8815 18.0648 8.8815L18.9761 10.1682C18.9761 10.1682 18.3624 11.4545 18.832 13.0263C19.3016 14.5982 18.8071 15.8101 16.7188 15.9447C16.7188 15.9447 16.3073 16.0229 16.1271 16.1475V16.2626C16.1271 16.234 16.1117 16.2067 16.0856 16.1811C16.0595 16.2067 16.0441 16.234 16.0441 16.2626V16.1475C15.8638 16.0229 15.4524 15.9447 15.4524 15.9447C13.364 15.8101 12.8696 14.5982 13.3392 13.0263C13.8088 11.4545 13.1951 10.1682 13.1951 10.1682L14.1064 8.8815C14.1064 8.8815 14.651 9.28372 15.0517 9.28372C15.3669 9.28372 15.8516 9.03484 16.0441 8.92863V8.8815C16.0441 8.8815 16.059 8.89036 16.0856 8.90544Z" fill="white"/>
<path d="M16.1271 8.8815H17.1271V7.12114L15.615 8.02255L16.1271 8.8815ZM16.0856 8.90544L15.5925 9.77541L16.0856 10.0549L16.5787 9.77541L16.0856 8.90544ZM16.1271 8.92863H15.1271V9.51901L15.644 9.80421L16.1271 8.92863ZM18.0648 8.8815L18.8809 8.30355L18.2913 7.47108L17.4707 8.07709L18.0648 8.8815ZM18.9761 10.1682L19.8786 10.5989L20.1313 10.0692L19.7922 9.59028L18.9761 10.1682ZM18.832 13.0263L17.8738 13.3126L18.832 13.0263ZM16.7188 15.9447L16.6545 14.9468L16.5928 14.9507L16.5321 14.9623L16.7188 15.9447ZM16.1271 16.1475L15.5585 15.3249L15.1271 15.6231V16.1475H16.1271ZM16.0856 16.1811L16.7858 15.4672L16.0856 14.7804L15.3854 15.4672L16.0856 16.1811ZM16.0441 16.1475H17.0441V15.6231L16.6127 15.3249L16.0441 16.1475ZM15.4524 15.9447L15.639 14.9623L15.5783 14.9507L15.5167 14.9468L15.4524 15.9447ZM13.1951 10.1682L12.379 9.59028L12.0398 10.0692L12.2925 10.5989L13.1951 10.1682ZM14.1064 8.8815L14.7004 8.07709L13.8799 7.47108L13.2903 8.30355L14.1064 8.8815ZM16.0441 8.92863L16.5272 9.80421L17.0441 9.51901V8.92863H16.0441ZM16.0441 8.8815L16.5562 8.02255L15.0441 7.12114V8.8815H16.0441ZM16.1271 8.8815C15.615 8.02255 15.615 8.02254 15.615 8.02253C15.615 8.02253 15.615 8.02252 15.6151 8.02251C15.6151 8.0225 15.6151 8.02249 15.6151 8.02247C15.6152 8.02245 15.6152 8.02243 15.6152 8.0224C15.6153 8.02235 15.6154 8.02231 15.6155 8.02227C15.6156 8.02218 15.6157 8.0221 15.6159 8.02203C15.6161 8.02189 15.6163 8.02178 15.6164 8.0217C15.6167 8.02155 15.6167 8.02153 15.6165 8.02163C15.6162 8.02182 15.615 8.02251 15.6131 8.02364C15.6092 8.02592 15.6022 8.02997 15.5925 8.03548L16.5787 9.77541C16.5956 9.76583 16.6093 9.75791 16.6195 9.75199C16.6246 9.74902 16.6288 9.74655 16.6321 9.74461C16.6337 9.74365 16.6351 9.74281 16.6363 9.74212C16.6369 9.74177 16.6374 9.74146 16.6379 9.74118C16.6381 9.74104 16.6383 9.74091 16.6385 9.74079C16.6386 9.74073 16.6387 9.74067 16.6388 9.74061C16.6389 9.74058 16.6389 9.74056 16.639 9.74053C16.639 9.74052 16.639 9.7405 16.639 9.74049C16.6391 9.74048 16.6391 9.74047 16.6391 9.74047C16.6391 9.74046 16.6391 9.74045 16.1271 8.8815ZM17.1271 8.92863V8.8815H15.1271V8.92863H17.1271ZM15.644 9.80421C15.7575 9.86682 15.9643 9.97572 16.1988 10.0716C16.4015 10.1545 16.7548 10.2837 17.1195 10.2837V8.28372C17.1614 8.28372 17.1656 8.29024 17.1186 8.2776C17.0778 8.2666 17.0226 8.24775 16.9557 8.22039C16.821 8.1653 16.6892 8.09665 16.6101 8.05304L15.644 9.80421ZM17.1195 10.2837C17.5874 10.2837 18.0136 10.0726 18.2175 9.96255C18.3422 9.89519 18.4482 9.82901 18.523 9.77978C18.5609 9.75485 18.5921 9.73346 18.615 9.71738C18.6265 9.70932 18.636 9.70253 18.6433 9.69723C18.647 9.69457 18.6502 9.69229 18.6528 9.69039C18.6541 9.68945 18.6552 9.6886 18.6562 9.68785C18.6568 9.68748 18.6572 9.68713 18.6577 9.6868C18.6579 9.68664 18.6581 9.68649 18.6583 9.68634C18.6584 9.68626 18.6585 9.68616 18.6586 9.68612C18.6587 9.68601 18.6589 9.68591 18.0648 8.8815C17.4707 8.07709 17.4709 8.07699 17.471 8.07689C17.471 8.07686 17.4712 8.07676 17.4713 8.0767C17.4714 8.07658 17.4716 8.07646 17.4717 8.07634C17.472 8.07612 17.4723 8.07592 17.4726 8.07573C17.4731 8.07537 17.4734 8.0751 17.4737 8.07491C17.4742 8.07454 17.4742 8.07452 17.4738 8.07481C17.473 8.0754 17.4704 8.07725 17.4663 8.08019C17.4578 8.0861 17.4433 8.09614 17.4239 8.10892C17.3841 8.1351 17.3288 8.16947 17.2673 8.20267C17.2038 8.23695 17.1478 8.2623 17.105 8.27734C17.0549 8.29491 17.0645 8.28372 17.1195 8.28372V10.2837ZM17.2487 9.45946L18.16 10.7462L19.7922 9.59028L18.8809 8.30355L17.2487 9.45946ZM18.9761 10.1682C18.0736 9.73762 18.0734 9.73796 18.0732 9.73831C18.0732 9.73844 18.073 9.73879 18.0729 9.73904C18.0726 9.73954 18.0724 9.74005 18.0721 9.74059C18.0716 9.74166 18.0711 9.74282 18.0705 9.74406C18.0694 9.74653 18.068 9.74934 18.0666 9.75248C18.0637 9.75874 18.0602 9.76632 18.0563 9.77517C18.0484 9.79286 18.0385 9.81569 18.027 9.8434C18.004 9.89877 17.9746 9.97397 17.9425 10.0669C17.8783 10.2523 17.8021 10.5117 17.7442 10.828C17.629 11.4585 17.5829 12.3387 17.8738 13.3126L19.7901 12.7401C19.6115 12.1421 19.6375 11.5933 19.7116 11.1877C19.7485 10.986 19.7963 10.8255 19.8326 10.7206C19.8507 10.6684 19.8656 10.6309 19.8743 10.6098C19.8787 10.5992 19.8815 10.5929 19.8823 10.591C19.8828 10.59 19.8827 10.5902 19.8821 10.5915C19.8818 10.5921 19.8814 10.5931 19.8808 10.5943C19.8805 10.5949 19.8802 10.5956 19.8798 10.5964C19.8796 10.5967 19.8794 10.5971 19.8793 10.5975C19.8792 10.5978 19.879 10.5981 19.8789 10.5982C19.8788 10.5985 19.8786 10.5989 18.9761 10.1682ZM17.8738 13.3126C18.0714 13.9738 17.9925 14.3267 17.889 14.4906C17.8027 14.6273 17.5335 14.8901 16.6545 14.9468L16.7831 16.9426C17.9924 16.8647 19.0146 16.4542 19.5802 15.5583C20.1286 14.6897 20.0622 13.6507 19.7901 12.7401L17.8738 13.3126ZM16.7188 15.9447C16.5321 14.9623 16.532 14.9623 16.5319 14.9623C16.5319 14.9623 16.5318 14.9623 16.5317 14.9624C16.5316 14.9624 16.5314 14.9624 16.5312 14.9625C16.5309 14.9625 16.5306 14.9626 16.5302 14.9627C16.5294 14.9628 16.5286 14.963 16.5276 14.9631C16.5257 14.9635 16.5234 14.964 16.5206 14.9645C16.5152 14.9656 16.5082 14.967 16.4997 14.9687C16.4829 14.9722 16.4602 14.977 16.433 14.9831C16.3793 14.9951 16.3046 15.013 16.2208 15.0364C16.0954 15.0716 15.8001 15.1579 15.5585 15.3249L16.6956 16.9701C16.648 17.003 16.6253 17.008 16.6579 16.9953C16.6818 16.986 16.7169 16.9744 16.7602 16.9623C16.8019 16.9506 16.8413 16.9412 16.8704 16.9347C16.8846 16.9315 16.8954 16.9292 16.9018 16.9279C16.905 16.9272 16.907 16.9268 16.9076 16.9267C16.908 16.9266 16.908 16.9266 16.9076 16.9267C16.9075 16.9267 16.9072 16.9268 16.9068 16.9269C16.9067 16.9269 16.9065 16.9269 16.9062 16.927C16.9061 16.927 16.906 16.927 16.9059 16.927C16.9058 16.9271 16.9057 16.9271 16.9057 16.9271C16.9056 16.9271 16.9055 16.9271 16.7188 15.9447ZM17.1271 16.2626V16.1475H15.1271V16.2626H17.1271ZM15.3854 16.8951C15.3154 16.8264 15.1271 16.6121 15.1271 16.2626H17.1271C17.1271 15.8559 16.908 15.587 16.7858 15.4672L15.3854 16.8951ZM15.3854 15.4672C15.2632 15.587 15.0441 15.8559 15.0441 16.2626H17.0441C17.0441 16.6121 16.8558 16.8264 16.7858 16.8951L15.3854 15.4672ZM17.0441 16.2626V16.1475H15.0441V16.2626H17.0441ZM15.4524 15.9447C15.2657 16.9271 15.2656 16.9271 15.2655 16.9271C15.2654 16.9271 15.2653 16.9271 15.2653 16.927C15.2652 16.927 15.265 16.927 15.2649 16.927C15.2647 16.9269 15.2645 16.9269 15.2643 16.9269C15.264 16.9268 15.2637 16.9267 15.2635 16.9267C15.2632 16.9266 15.2632 16.9266 15.2635 16.9267C15.2642 16.9268 15.2662 16.9272 15.2694 16.9279C15.2757 16.9292 15.2866 16.9315 15.3008 16.9347C15.3298 16.9412 15.3693 16.9506 15.4109 16.9623C15.4542 16.9744 15.4894 16.986 15.5132 16.9953C15.5459 17.008 15.5231 17.003 15.4755 16.9701L16.6127 15.3249C16.3711 15.1579 16.0757 15.0716 15.9503 15.0364C15.8666 15.013 15.7919 14.9951 15.7382 14.9831C15.711 14.977 15.6883 14.9722 15.6714 14.9687C15.663 14.967 15.656 14.9656 15.6505 14.9645C15.6478 14.964 15.6455 14.9635 15.6435 14.9631C15.6426 14.963 15.6417 14.9628 15.641 14.9627C15.6406 14.9626 15.6402 14.9625 15.6399 14.9625C15.6398 14.9624 15.6396 14.9624 15.6395 14.9624C15.6394 14.9623 15.6393 14.9623 15.6392 14.9623C15.6391 14.9623 15.639 14.9623 15.4524 15.9447ZM12.381 12.7401C12.109 13.6507 12.0426 14.6897 12.591 15.5583C13.1566 16.4542 14.1787 16.8647 15.388 16.9426L15.5167 14.9468C14.6377 14.8901 14.3684 14.6273 14.2821 14.4906C14.1786 14.3267 14.0998 13.9738 14.2973 13.3126L12.381 12.7401ZM13.1951 10.1682C12.2925 10.5989 12.2924 10.5985 12.2922 10.5982C12.2922 10.5981 12.292 10.5978 12.2919 10.5975C12.2917 10.5971 12.2915 10.5967 12.2913 10.5964C12.291 10.5956 12.2907 10.5949 12.2904 10.5943C12.2898 10.5931 12.2894 10.5921 12.2891 10.5915C12.2885 10.5902 12.2884 10.59 12.2888 10.591C12.2897 10.5929 12.2925 10.5992 12.2968 10.6098C12.3056 10.6309 12.3205 10.6684 12.3385 10.7206C12.3748 10.8255 12.4226 10.986 12.4595 11.1877C12.5337 11.5933 12.5597 12.1421 12.381 12.7401L14.2973 13.3126C14.5883 12.3387 14.5422 11.4585 14.4269 10.828C14.3691 10.5117 14.2928 10.2523 14.2287 10.0669C14.1965 9.97397 14.1672 9.89878 14.1442 9.8434C14.1327 9.81569 14.1228 9.79286 14.1149 9.77517C14.1109 9.76632 14.1075 9.75874 14.1046 9.75248C14.1031 9.74934 14.1018 9.74654 14.1006 9.74406C14.1001 9.74282 14.0995 9.74166 14.099 9.74059C14.0988 9.74005 14.0985 9.73954 14.0983 9.73904C14.0982 9.73879 14.098 9.73844 14.0979 9.73831C14.0978 9.73796 14.0976 9.73762 13.1951 10.1682ZM13.2903 8.30355L12.379 9.59028L14.0111 10.7462L14.9224 9.45946L13.2903 8.30355ZM15.0517 8.28372C15.1067 8.28372 15.1162 8.29491 15.0662 8.27734C15.0234 8.2623 14.9673 8.23695 14.9038 8.20267C14.8424 8.16947 14.7871 8.1351 14.7473 8.10892C14.7279 8.09614 14.7133 8.0861 14.7049 8.08019C14.7007 8.07725 14.6981 8.0754 14.6973 8.07481C14.6969 8.07452 14.697 8.07454 14.6975 8.07491C14.6977 8.0751 14.6981 8.07537 14.6986 8.07573C14.6988 8.07592 14.6991 8.07612 14.6994 8.07634C14.6996 8.07646 14.6997 8.07658 14.6999 8.0767C14.7 8.07676 14.7001 8.07686 14.7002 8.07689C14.7003 8.07699 14.7004 8.07709 14.1064 8.8815C13.5123 9.68591 13.5124 9.68601 13.5126 9.68612C13.5126 9.68616 13.5128 9.68626 13.5129 9.68634C13.5131 9.68649 13.5133 9.68664 13.5135 9.6868C13.5139 9.68713 13.5144 9.68747 13.5149 9.68785C13.5159 9.6886 13.5171 9.68945 13.5184 9.69039C13.521 9.69229 13.5241 9.69457 13.5278 9.69723C13.5352 9.70253 13.5447 9.70932 13.5562 9.71738C13.5791 9.73346 13.6102 9.75485 13.6481 9.77978C13.723 9.82901 13.8289 9.89519 13.9537 9.96255C14.1575 10.0726 14.5838 10.2837 15.0517 10.2837V8.28372ZM15.561 8.05304C15.482 8.09665 15.3502 8.1653 15.2154 8.22039C15.1485 8.24775 15.0933 8.2666 15.0525 8.2776C15.0056 8.29024 15.0098 8.28372 15.0517 8.28372V10.2837C15.4163 10.2837 15.7696 10.1545 15.9723 10.0716C16.2069 9.97572 16.4137 9.86682 16.5272 9.80421L15.561 8.05304ZM17.0441 8.92863V8.8815H15.0441V8.92863H17.0441ZM16.0441 8.8815C15.532 9.74045 15.5321 9.74046 15.5321 9.74047C15.5321 9.74047 15.5321 9.74048 15.5321 9.74049C15.5321 9.7405 15.5322 9.74052 15.5322 9.74053C15.5322 9.74056 15.5323 9.74058 15.5323 9.74061C15.5324 9.74067 15.5325 9.74073 15.5326 9.74079C15.5328 9.74091 15.533 9.74104 15.5333 9.74118C15.5337 9.74146 15.5343 9.74177 15.5349 9.74212C15.536 9.74281 15.5374 9.74365 15.5391 9.74461C15.5424 9.74655 15.5466 9.74902 15.5517 9.75199C15.5618 9.75791 15.5756 9.76583 15.5925 9.77541L16.5787 8.03548C16.569 8.02997 16.562 8.02592 16.5581 8.02364C16.5561 8.02251 16.5549 8.02182 16.5546 8.02163C16.5544 8.02153 16.5545 8.02155 16.5547 8.0217C16.5549 8.02178 16.5551 8.02189 16.5553 8.02203C16.5554 8.0221 16.5555 8.02218 16.5557 8.02227C16.5558 8.02231 16.5558 8.02235 16.5559 8.0224C16.556 8.02243 16.556 8.02245 16.556 8.02247C16.5561 8.02249 16.5561 8.0225 16.5561 8.02251C16.5561 8.02252 16.5561 8.02253 16.5561 8.02253C16.5562 8.02254 16.5562 8.02255 16.0441 8.8815Z" fill="white" mask="url(#path-13-outside-2_5190_106187)"/>
</mask>
<g mask="url(#mask1_5190_106187)">
<rect x="13.3047" y="8.72729" width="2.78261" height="3.81818" fill="#67BAFF"/>
<rect x="16.0859" y="8.72729" width="2.78261" height="3.81818" fill="white"/>
<rect x="12.957" y="12.9091" width="6.95652" height="4.36364" fill="#C51918"/>
<path d="M17.4338 12.275H17.0859V9.66028H17.4338V12.275Z" fill="#C9A951"/>
<path d="M17.2934 11.0856L17.1238 11.3893L16.5234 11.0541L16.693 10.7504L17.2934 11.0856Z" fill="#C9A951"/>
<path d="M17.2934 10.3583L17.1238 10.662L16.5234 10.3268L16.693 10.0231L17.2934 10.3583Z" fill="#C9A951"/>
<path d="M17.2183 11.0856L17.3879 11.3893L17.9883 11.0541L17.8187 10.7504L17.2183 11.0856Z" fill="#C9A951"/>
<path d="M17.2183 10.3583L17.3879 10.662L17.9883 10.3268L17.8187 10.0231L17.2183 10.3583Z" fill="#C9A951"/>
<path fill-rule="evenodd" clip-rule="evenodd" d="M17.7292 13.705C17.7292 13.705 17.9711 13.4283 17.9711 13.5666C17.9711 13.705 17.9711 13.9376 17.8501 13.9376C17.7292 13.9376 17.1656 13.8269 16.9509 13.5666C16.7362 13.3064 16.282 12.8533 15.6973 12.9599C15.1126 13.0666 14.4191 13.8246 14.2482 13.8246C14.0773 13.8246 13.7026 14.4088 13.9754 14.8651C14.2482 15.3213 14.7122 15.1798 14.7122 15.3121C14.7122 15.4445 14.8282 15.4597 15.2628 15.4597C15.6973 15.4597 15.8562 15.613 16.2323 15.613C16.6085 15.613 16.1082 15.6074 16.714 15.4597C17.3199 15.3121 17.7788 14.8651 17.4257 14.8651C17.0727 14.8651 16.9586 14.8651 16.714 14.8651C16.4694 14.8651 15.925 15.0413 15.925 14.8651C15.925 14.6888 16.0459 14.3114 16.38 14.5001C16.714 14.6888 17.6422 14.8327 17.9711 14.5001C18.3001 14.1675 18.4151 13.967 18.3576 13.5666C18.3001 13.1663 17.8501 13.2815 17.8501 13.2815L17.7292 13.705Z" fill="#FBCD17"/>
<path fill-rule="evenodd" clip-rule="evenodd" d="M15.3737 9.56992C15.164 9.7533 15.2993 10.4235 14.9557 10.4235C14.6122 10.4235 14.1287 9.92164 14.0069 10.2528C13.8852 10.5839 14.0069 10.4726 14.0069 10.7547C14.0069 11.0367 13.7153 11.8204 13.8611 11.9529C14.0069 12.0854 14.1563 12.4345 14.1304 12.2711C14.1046 12.1077 13.9943 11.8677 14.0403 11.607C13.9959 11.3377 14.286 11.0786 14.286 11.0786C14.286 11.0786 14.2545 11.3582 14.2316 11.4625C14.2316 11.4625 14.136 11.6729 14.1748 11.8127C14.1748 11.8127 14.2731 12.2066 14.3136 12.2338C14.3136 12.2338 14.3399 11.3011 14.3698 11.1474C14.3997 10.9937 14.6129 11.3208 14.6838 11.2837C14.6838 11.2837 14.7082 11.9215 14.6713 11.9975C14.6713 11.9975 14.5965 12.1483 14.6243 12.1965C14.6243 12.1965 14.6937 12.3711 14.7529 12.3203C14.7529 12.3203 14.755 12.3166 14.785 12.1467C14.785 12.1467 14.7501 12.0441 14.8046 11.8104C14.8046 11.8104 14.8621 11.2959 14.8859 11.4075C14.8859 11.4075 14.8752 11.6504 14.9026 11.7756C14.9026 11.7756 14.9464 12.0865 14.9551 12.1206C14.9551 12.1206 15.165 12.4196 15.1706 12.2933C15.1706 12.2933 14.9694 12.0534 15.0125 11.8708C15.0125 11.8708 14.8973 11.3536 15.0581 11.2383C15.0581 11.2383 15.4847 11.0409 15.5104 10.7031C15.5104 10.7031 15.5722 10.3182 15.5833 10.1417C15.5833 10.1417 15.4897 10.0898 15.6832 9.99874C15.6832 9.99874 15.9946 9.87921 15.8005 9.713" fill="#D18219"/>
</g>
</g>
</svg>
