<svg width="32" height="24" viewBox="0 0 32 24" fill="none" xmlns="http://www.w3.org/2000/svg">
<mask id="mask0_5190_106086" style="mask-type:luminance" maskUnits="userSpaceOnUse" x="0" y="0" width="32" height="24">
<rect width="32" height="24" fill="white"/>
</mask>
<g mask="url(#mask0_5190_106086)">
<path fill-rule="evenodd" clip-rule="evenodd" d="M0 0V24H32V0H0Z" fill="#BF2714"/>
<mask id="mask1_5190_106086" style="mask-type:luminance" maskUnits="userSpaceOnUse" x="0" y="0" width="32" height="24">
<path fill-rule="evenodd" clip-rule="evenodd" d="M0 0V24H32V0H0Z" fill="white"/>
</mask>
<g mask="url(#mask1_5190_106086)">
<path fill-rule="evenodd" clip-rule="evenodd" d="M0 -2V12H32V-2H0Z" fill="#3D58DB"/>
</g>
<path fill-rule="evenodd" clip-rule="evenodd" d="M0 0V24L18 12L0 0Z" fill="#F7FCFF"/>
<mask id="mask2_5190_106086" style="mask-type:luminance" maskUnits="userSpaceOnUse" x="0" y="0" width="18" height="24">
<path fill-rule="evenodd" clip-rule="evenodd" d="M0 0V24L18 12L0 0Z" fill="white"/>
</mask>
<g mask="url(#mask2_5190_106086)">
<path fill-rule="evenodd" clip-rule="evenodd" d="M13.6056 10.9201L14.8815 11.4122L15.6406 10.5188L15.6608 11.7136L16.835 12.0955L15.599 12.5151L15.6805 13.613L14.8664 12.772L13.5868 13.0154L14.3423 12.0467L13.6056 10.9201Z" fill="#FECA00"/>
<path fill-rule="evenodd" clip-rule="evenodd" d="M1.60563 16.9201L2.7784 17.4386L3.64062 16.5188L3.55764 17.7401L4.83502 18.0955L3.4959 18.5416L3.68047 19.613L2.74811 18.8474L1.58677 19.0154L2.23915 18.0732L1.60563 16.9201Z" fill="#FECA00"/>
<path fill-rule="evenodd" clip-rule="evenodd" d="M1.60563 4.92014L2.90339 5.39836L3.64062 4.51883L3.68263 5.69979L4.83502 6.09554L3.62089 6.50128L3.68047 7.61298L2.8731 6.80711L1.58677 7.01536L2.36413 6.0329L1.60563 4.92014Z" fill="#FECA00"/>
<path fill-rule="evenodd" clip-rule="evenodd" d="M8.12109 14.5328C9.50181 14.5328 10.6211 13.4135 10.6211 12.0328C10.6211 10.6521 9.50181 9.53284 8.12109 9.53284C6.74038 9.53284 5.62109 10.6521 5.62109 12.0328C5.62109 13.4135 6.74038 14.5328 8.12109 14.5328Z" fill="#FECA00"/>
<path fill-rule="evenodd" clip-rule="evenodd" d="M7.82645 8.23971L7.96079 9.84571C7.97363 9.94324 8.04866 10.0209 8.14568 10.0372C8.26755 10.0576 8.38289 9.97531 8.40329 9.85344L8.5806 8.25288C8.58371 8.23426 8.58544 8.21545 8.58577 8.19658C8.58945 7.98601 8.42173 7.81233 8.21116 7.80866C8.19229 7.80833 8.17343 7.8094 8.15472 7.81186C7.94592 7.83936 7.79895 8.03092 7.82645 8.23971ZM7.40834 9.01588L7.61596 9.71451C7.63523 9.77936 7.7 9.81952 7.77324 9.8066C7.83329 9.79242 7.87046 9.73224 7.85627 9.6722L7.69058 8.97104C7.67152 8.89041 7.5934 8.8382 7.51161 8.85143C7.50614 8.85232 7.50074 8.85355 7.49544 8.85513C7.427 8.87547 7.388 8.94744 7.40834 9.01588ZM8.53116 9.74362C8.51489 9.80313 8.54994 9.86457 8.61598 9.88242C8.6822 9.89631 8.74833 9.85844 8.76985 9.7943L9.00172 9.10334C9.02444 9.03565 8.98798 8.96236 8.92029 8.93965C8.91504 8.93789 8.90969 8.93646 8.90426 8.93539C8.82298 8.91931 8.74308 8.96876 8.72122 9.04868L8.53116 9.74362ZM10.6083 9.04146L9.49057 10.2757C9.43069 10.3537 9.42881 10.4617 9.48592 10.5418C9.55768 10.6424 9.6974 10.6658 9.798 10.594L11.1322 9.58403C11.1476 9.57307 11.1621 9.56099 11.1757 9.54788C11.3272 9.40159 11.3314 9.16018 11.1851 9.00869C11.172 8.99511 11.1579 8.98253 11.1429 8.97104C10.9758 8.84285 10.7365 8.87437 10.6083 9.04146ZM10.2683 11.6614L11.9372 11.5322C12.146 11.5047 12.3376 11.6517 12.3651 11.8605C12.3675 11.8792 12.3686 11.8981 12.3683 11.9169C12.3646 12.1275 12.1909 12.2952 11.9804 12.2916C11.9615 12.2912 11.9427 12.2895 11.9241 12.2864L10.2605 12.1039C10.1387 12.0835 10.0564 11.9682 10.0768 11.8463C10.093 11.7493 10.1707 11.6742 10.2683 11.6614ZM11.1344 14.3196L9.83831 13.1912C9.76027 13.1313 9.65228 13.1294 9.57219 13.1865C9.47159 13.2583 9.4482 13.398 9.51995 13.4986L10.5919 14.8435C10.6028 14.8589 10.6149 14.8734 10.628 14.887C10.7743 15.0385 11.0157 15.0427 11.1672 14.8964C11.1808 14.8833 11.1934 14.8692 11.2049 14.8542C11.333 14.6872 11.3015 14.4478 11.1344 14.3196ZM8.45257 13.9689L8.55153 15.6539C8.57903 15.8627 8.43206 16.0543 8.22326 16.0818C8.20455 16.0842 8.18569 16.0853 8.16682 16.085C7.95625 16.0813 7.78853 15.9076 7.79221 15.697C7.79253 15.6782 7.79426 15.6593 7.79738 15.6407L8.01007 13.9612C8.03047 13.8393 8.14581 13.757 8.26768 13.7774C8.3647 13.7937 8.43973 13.8714 8.45257 13.9689ZM5.8215 14.8792L6.9228 13.5389C6.98267 13.4609 6.98456 13.3529 6.92744 13.2728C6.85569 13.1722 6.71597 13.1488 6.61536 13.2206L5.29754 14.3366C5.28218 14.3476 5.26765 14.3597 5.25408 14.3728C5.10258 14.5191 5.09837 14.7605 5.24466 14.912C5.25777 14.9255 5.27187 14.9381 5.28685 14.9496C5.45393 15.0778 5.6933 15.0463 5.8215 14.8792ZM6.1451 12.1532L4.46589 12.2916C4.2571 12.3191 4.06554 12.1721 4.03804 11.9633C4.03558 11.9446 4.03451 11.9257 4.03484 11.9068C4.03851 11.6963 4.21219 11.5286 4.42276 11.5322C4.44163 11.5326 4.46044 11.5343 4.47906 11.5374L6.15283 11.7107C6.2747 11.7311 6.35696 11.8464 6.33656 11.9683C6.32032 12.0653 6.24262 12.1403 6.1451 12.1532ZM5.15082 9.52211L6.57505 10.6234C6.65309 10.6833 6.76109 10.6852 6.84117 10.6281C6.94178 10.5563 6.96516 10.4166 6.89341 10.316L5.6934 8.99816C5.68244 8.98279 5.67035 8.96826 5.65724 8.95469C5.51095 8.8032 5.26955 8.79898 5.11805 8.94528C5.10448 8.95839 5.09189 8.97248 5.08041 8.98746C4.95221 9.15454 4.98374 9.39392 5.15082 9.52211ZM9.33951 9.93906L9.68671 9.29824C9.72072 9.23547 9.79919 9.21215 9.86196 9.24616C9.86683 9.2488 9.87152 9.25175 9.87601 9.25498C9.94321 9.30346 9.96153 9.39562 9.91799 9.46611L9.53936 10.0791C9.50693 10.1316 9.4381 10.1478 9.38561 10.1154C9.32468 10.0727 9.30728 9.99854 9.33951 9.93906ZM11.0981 11.109L10.3995 11.3166C10.3346 11.3358 10.2945 11.4006 10.3074 11.4739C10.3216 11.5339 10.3817 11.5711 10.4418 11.5569L11.1429 11.3912C11.2236 11.3721 11.2758 11.294 11.2625 11.2122C11.2617 11.2068 11.2604 11.2014 11.2588 11.196C11.2385 11.1276 11.1665 11.0886 11.0981 11.109ZM10.1749 13.0401L10.8157 13.3873C10.8785 13.4213 10.9018 13.4998 10.8678 13.5626C10.8652 13.5674 10.8622 13.5721 10.859 13.5766C10.8105 13.6438 10.7184 13.6621 10.6479 13.6186L10.0349 13.24C9.98243 13.2075 9.96616 13.1387 9.99858 13.0862C10.0412 13.0253 10.1154 13.0079 10.1749 13.0401ZM9.00502 14.7987L8.79741 14.1001C8.77813 14.0352 8.71337 13.9951 8.64012 14.008C8.58008 14.0222 8.54291 14.0824 8.5571 14.1424L8.72279 14.8435C8.74184 14.9242 8.81996 14.9764 8.90176 14.9632C8.90722 14.9623 8.91262 14.961 8.91793 14.9595C8.98637 14.9391 9.02536 14.8672 9.00502 14.7987ZM7.07386 13.8755L6.72665 14.5163C6.69264 14.5791 6.61418 14.6024 6.5514 14.5684C6.54654 14.5658 6.54184 14.5628 6.53735 14.5596C6.47016 14.5111 6.45184 14.419 6.49538 14.3485L6.87401 13.7355C6.90643 13.683 6.97527 13.6668 7.02776 13.6992C7.08869 13.7419 7.10609 13.816 7.07386 13.8755ZM5.31527 12.7056L6.0139 12.498C6.07875 12.4787 6.11891 12.414 6.10599 12.3407C6.0918 12.2807 6.03163 12.2435 5.97158 12.2577L5.27043 12.4234C5.18979 12.4425 5.13758 12.5206 5.15082 12.6024C5.15171 12.6078 5.15294 12.6132 5.15452 12.6185C5.17486 12.687 5.24683 12.726 5.31527 12.7056ZM6.23844 10.7745L5.59763 10.4273C5.53485 10.3933 5.51154 10.3148 5.54555 10.252C5.54819 10.2471 5.55113 10.2425 5.55437 10.238C5.60285 10.1708 5.69501 10.1524 5.7655 10.196L6.37845 10.5746C6.43094 10.607 6.44721 10.6759 6.41478 10.7284C6.37212 10.7893 6.29793 10.8067 6.23844 10.7745ZM9.96607 10.6068C9.91248 10.6374 9.89382 10.7056 9.9279 10.7649C9.9649 10.8216 10.0384 10.8415 10.099 10.8114L10.7516 10.4868C10.8155 10.455 10.8415 10.3774 10.8097 10.3134C10.8073 10.3085 10.8045 10.3037 10.8014 10.2991C10.7553 10.2303 10.6638 10.2087 10.5919 10.2498L9.96607 10.6068ZM10.2316 12.3166C10.2494 12.2505 10.3108 12.2155 10.3704 12.2318L11.0653 12.4218C11.1452 12.4437 11.1947 12.5236 11.1786 12.6049C11.1775 12.6103 11.1761 12.6157 11.1743 12.6209C11.1516 12.6886 11.0783 12.725 11.0106 12.7023L10.3197 12.4705C10.2555 12.4489 10.2177 12.3828 10.2316 12.3166ZM9.50719 13.6667C9.47661 13.6131 9.40839 13.5944 9.34906 13.6285C9.29242 13.6655 9.27244 13.7391 9.30258 13.7996L9.6272 14.4522C9.659 14.5161 9.7366 14.5421 9.80053 14.5103C9.80549 14.5079 9.81028 14.5051 9.81488 14.502C9.88372 14.4559 9.90525 14.3644 9.86419 14.2925L9.50719 13.6667ZM7.79738 13.9322C7.86343 13.95 7.89848 14.0115 7.8822 14.071L7.69214 14.7659C7.67028 14.8458 7.59039 14.8953 7.50911 14.8792C7.50368 14.8781 7.49832 14.8767 7.49307 14.8749C7.42539 14.8522 7.38893 14.7789 7.41164 14.7113L7.64351 14.0203C7.66504 13.9562 7.73117 13.9183 7.79738 13.9322ZM6.44729 13.2078C6.50088 13.1772 6.51954 13.109 6.48546 13.0497C6.44846 12.993 6.37492 12.9731 6.31435 13.0032L5.66181 13.3278C5.59788 13.3596 5.57184 13.4372 5.60364 13.5011C5.60611 13.5061 5.60889 13.5109 5.61197 13.5155C5.65807 13.5843 5.74953 13.6059 5.8215 13.5648L6.44729 13.2078ZM6.18181 11.498C6.16396 11.564 6.10252 11.5991 6.04301 11.5828L5.34807 11.3928C5.26814 11.3709 5.21869 11.291 5.23478 11.2097C5.23585 11.2043 5.23727 11.1989 5.23904 11.1937C5.26175 11.126 5.33504 11.0895 5.40272 11.1123L6.09369 11.3441C6.15783 11.3656 6.1957 11.4318 6.18181 11.498ZM6.90618 10.1479C6.93675 10.2015 7.00498 10.2202 7.0643 10.1861C7.12094 10.1491 7.14092 10.0755 7.11079 10.015L6.78616 9.36242C6.75436 9.29849 6.67676 9.27245 6.61284 9.30425C6.60788 9.30672 6.60309 9.3095 6.59849 9.31258C6.52964 9.35868 6.50811 9.45014 6.54917 9.52211L6.90618 10.1479Z" fill="#FECA00"/>
</g>
</g>
</svg>
