<svg width="32" height="24" viewBox="0 0 32 24" fill="none" xmlns="http://www.w3.org/2000/svg">
<mask id="mask0_5190_105564" style="mask-type:luminance" maskUnits="userSpaceOnUse" x="0" y="0" width="32" height="24">
<rect width="32" height="24" fill="white"/>
</mask>
<g mask="url(#mask0_5190_105564)">
<path fill-rule="evenodd" clip-rule="evenodd" d="M0 0V24H32V0H0Z" fill="#4857A1"/>
<mask id="mask1_5190_105564" style="mask-type:luminance" maskUnits="userSpaceOnUse" x="0" y="0" width="32" height="24">
<path fill-rule="evenodd" clip-rule="evenodd" d="M0 0V24H32V0H0Z" fill="white"/>
</mask>
<g mask="url(#mask1_5190_105564)">
<path fill-rule="evenodd" clip-rule="evenodd" d="M0 0V8H32V0H0Z" fill="#C51918"/>
<path fill-rule="evenodd" clip-rule="evenodd" d="M0 16V24H32V16H0Z" fill="#F7FCFF"/>
<path fill-rule="evenodd" clip-rule="evenodd" d="M11.456 3.8032L11.3428 3.34973C11.4393 3.37936 11.5441 3.40976 11.6546 3.44102L11.6536 3.43522C12.9736 3.55496 15.0142 4.23825 15.394 4.96399C15.5408 5.2445 15.3948 5.48363 15.2035 5.797C15.1749 5.84383 15.1453 5.89231 15.1155 5.94284C15.0193 6.10601 14.9321 6.262 14.8499 6.40901C14.5534 6.93939 14.3222 7.35288 13.9703 7.56527L13.9773 8.76626L8.08178 8.71557L8.07414 7.50246C7.77276 7.27677 7.55718 6.89119 7.28759 6.40901C7.20539 6.262 7.11818 6.10601 7.02199 5.94284C6.9922 5.89231 6.96259 5.84383 6.934 5.797C6.74268 5.48363 6.59668 5.2445 6.7435 4.96399C7.02909 4.41834 8.32296 3.88767 9.50855 3.60701C9.74183 3.52406 9.98563 3.44654 10.2273 3.37231L10.3352 3.4504C10.429 3.43761 10.5198 3.42718 10.6069 3.41927L10.7427 3.72216H11.2228C11.2228 3.72216 11.5126 4.58271 11.5126 5.06062C11.5126 5.53853 11.2228 5.93373 11.2228 5.93373V6.26363C11.2731 6.26782 11.3259 6.27294 11.3808 6.27886C11.3812 6.25024 11.384 6.2201 11.3894 6.18926C11.4172 6.03161 11.5036 5.91507 11.5825 5.92897C11.6613 5.94287 11.7027 6.08194 11.6749 6.23959C11.6703 6.26522 11.6643 6.28977 11.6569 6.31284C11.968 6.35514 12.3165 6.41419 12.6466 6.47493C12.7724 6.23124 12.9256 5.99048 13.072 5.76059C13.4503 5.16639 13.7823 4.64489 13.4725 4.33359C13.4137 4.27455 13.3074 4.21963 13.1702 4.16876C12.7169 4.05597 12.2233 3.96896 11.7436 3.92545L11.7292 3.84664C11.6335 3.83109 11.5416 3.81661 11.456 3.8032ZM13.6962 6.68268C13.8638 6.71799 13.9655 6.74045 13.9655 6.74045L13.9665 6.91231C14.5506 6.46213 14.9638 5.46463 15.0011 5.13787C15.0235 4.94087 14.7111 4.71374 14.2213 4.50796C14.4531 4.94762 14.1427 5.38392 13.753 5.93147C13.6066 6.13725 13.449 6.35874 13.3048 6.60203L13.4478 6.63108C13.4466 6.5859 13.4525 6.5351 13.4665 6.48287C13.5079 6.32825 13.6042 6.21969 13.6815 6.24041C13.7588 6.26112 13.7879 6.40327 13.7465 6.55789C13.734 6.60441 13.7166 6.64676 13.6962 6.68268ZM10.6837 6.26586V5.89846C10.6837 5.89846 10.4328 5.61797 10.3939 5.03383C10.366 4.61597 10.4522 4.12475 10.5035 3.87894C10.129 3.92642 9.73429 4.00017 9.35207 4.09074C9.09846 4.16214 8.89635 4.24302 8.80621 4.33359C8.49635 4.64489 8.82836 5.16639 9.20666 5.76059L9.20666 5.76059L9.20667 5.7606L9.20668 5.76061C9.34804 5.98266 9.49587 6.21485 9.61908 6.45002C9.83217 6.40388 10.0463 6.36118 10.2462 6.3272C10.2376 6.29629 10.2314 6.26256 10.2283 6.22706C10.2144 6.06758 10.2677 5.93265 10.3475 5.92567C10.4272 5.9187 10.5031 6.04232 10.5171 6.20179C10.5196 6.2307 10.5199 6.2588 10.5183 6.28547C10.5757 6.27778 10.631 6.27118 10.6837 6.26586ZM8.52564 5.93148L8.52564 5.93147L8.52564 5.93147C8.12719 5.37154 7.81153 4.92795 8.07389 4.47814C7.50039 4.70021 7.11402 4.94139 7.13642 5.13787C7.17162 5.44661 7.54247 6.35409 8.07594 6.833C8.1131 6.82264 8.31938 6.76541 8.61053 6.69056C8.58819 6.65567 8.56846 6.61413 8.55352 6.56814C8.50405 6.41589 8.52566 6.27242 8.60178 6.24768C8.6779 6.22295 8.77972 6.32632 8.82918 6.47856C8.84626 6.53111 8.85486 6.58261 8.85569 6.62854L8.97253 6.59971C8.82869 6.35734 8.67162 6.13661 8.52565 5.93149L8.52565 5.93149L8.52564 5.93148Z" fill="#F6C540"/>
<path fill-rule="evenodd" clip-rule="evenodd" d="M11.6544 3.50597C11.6544 3.85745 11.3625 4.14238 11.0023 4.14238C10.6421 4.14238 10.3501 3.85745 10.3501 3.50597C10.3501 3.1545 10.6421 2.86957 11.0023 2.86957C11.3625 2.86957 11.6544 3.1545 11.6544 3.50597ZM11.0023 8.23189C11.2824 8.23189 11.5095 8.10211 11.5095 7.94203C11.5095 7.78195 11.2824 7.65218 11.0023 7.65218C10.7221 7.65218 10.495 7.78195 10.495 7.94203C10.495 8.10211 10.7221 8.23189 11.0023 8.23189ZM8.46603 8.15942C8.46603 8.27949 8.3687 8.37681 8.24864 8.37681C8.12858 8.37681 8.03125 8.27949 8.03125 8.15942C8.03125 8.03936 8.12858 7.94203 8.24864 7.94203C8.3687 7.94203 8.46603 8.03936 8.46603 8.15942ZM14.2631 8.15942C14.2631 8.27949 14.1658 8.37681 14.0457 8.37681C13.9257 8.37681 13.8284 8.27949 13.8284 8.15942C13.8284 8.03936 13.9257 7.94203 14.0457 7.94203C14.1658 7.94203 14.2631 8.03936 14.2631 8.15942Z" fill="#2E42A5"/>
<path fill-rule="evenodd" clip-rule="evenodd" d="M9.91214 8.01451C9.91214 8.13457 9.74992 8.2319 9.54982 8.2319C9.34972 8.2319 9.1875 8.13457 9.1875 8.01451C9.1875 7.89445 9.34972 7.79712 9.54982 7.79712C9.74992 7.79712 9.91214 7.89445 9.91214 8.01451ZM12.9556 8.01451C12.9556 8.13457 12.7934 8.2319 12.5933 8.2319C12.3932 8.2319 12.231 8.13457 12.231 8.01451C12.231 7.89445 12.3932 7.79712 12.5933 7.79712C12.7934 7.79712 12.9556 7.89445 12.9556 8.01451Z" fill="#C5363C"/>
<path fill-rule="evenodd" clip-rule="evenodd" d="M12.2336 6.20291C12.2336 6.36299 12.1688 6.49277 12.0887 6.49277C12.0087 6.49277 11.9438 6.36299 11.9438 6.20291C11.9438 6.04283 12.0087 5.91306 12.0887 5.91306C12.1688 5.91306 12.2336 6.04283 12.2336 6.20291ZM10.0526 6.15813C10.1021 6.31037 10.0805 6.45384 10.0044 6.47858C9.92825 6.50331 9.82644 6.39994 9.77697 6.2477C9.7275 6.09545 9.74911 5.95198 9.82523 5.92724C9.90136 5.90251 10.0032 6.00588 10.0526 6.15813ZM8.34772 6.94396C8.42384 6.91923 8.44545 6.77575 8.39598 6.62351C8.34652 6.47126 8.2447 6.36789 8.16858 6.39262C8.09246 6.41736 8.07085 6.56083 8.12032 6.71308C8.16978 6.86532 8.2716 6.96869 8.34772 6.94396ZM14.0823 6.74725C13.9975 6.88301 13.8737 6.95868 13.8058 6.91626C13.7379 6.87384 13.7517 6.72941 13.8365 6.59365C13.9214 6.45789 14.0451 6.38222 14.113 6.42464C14.1809 6.46705 14.1672 6.61149 14.0823 6.74725Z" fill="#F7FCFF"/>
<path fill-rule="evenodd" clip-rule="evenodd" d="M9.7698 3.79235C9.81022 3.82177 9.85998 3.83913 9.9138 3.83913C10.0491 3.83913 10.1587 3.72947 10.1587 3.5942C10.1587 3.45893 10.0491 3.34927 9.9138 3.34927C9.81787 3.34927 9.73482 3.40442 9.69463 3.48475C9.65422 3.45532 9.60445 3.43796 9.55063 3.43796C9.46433 3.43796 9.38846 3.48259 9.34484 3.55003C9.30252 3.51515 9.24829 3.4942 9.18916 3.4942C9.05389 3.4942 8.94424 3.60386 8.94424 3.73913C8.94424 3.74667 8.94458 3.75413 8.94524 3.7615C8.90035 3.70575 8.83153 3.67008 8.75438 3.67008C8.63178 3.67008 8.53022 3.76016 8.51227 3.87775C8.46743 3.8207 8.39779 3.78406 8.3196 3.78406C8.20205 3.78406 8.10385 3.86686 8.08013 3.97732C8.03991 3.94837 7.99055 3.93132 7.93722 3.93132C7.82868 3.93132 7.73663 4.00192 7.70449 4.0997C7.67153 4.0832 7.63433 4.07391 7.59496 4.07391C7.47411 4.07391 7.3737 4.16144 7.35367 4.27656C7.33797 4.2734 7.32173 4.27175 7.30511 4.27175C7.17113 4.27175 7.06227 4.37932 7.06021 4.51281C7.04564 4.51011 7.03061 4.50869 7.01525 4.50869C6.87998 4.50869 6.77032 4.61835 6.77032 4.75362C6.77032 4.77077 6.77209 4.78751 6.77544 4.80367C6.75929 4.80031 6.74255 4.79855 6.7254 4.79855C6.59013 4.79855 6.48047 4.90821 6.48047 5.04348C6.48047 5.14625 6.54377 5.23424 6.63351 5.27058C6.62822 5.29061 6.6254 5.31164 6.6254 5.33333C6.6254 5.43611 6.6887 5.52409 6.77844 5.56044C6.77314 5.58047 6.77032 5.6015 6.77032 5.62319C6.77032 5.75524 6.87483 5.86289 7.00565 5.86793C6.95049 5.91284 6.91525 5.98129 6.91525 6.05797C6.91525 6.19324 7.02491 6.3029 7.16018 6.3029C7.29545 6.3029 7.40511 6.19324 7.40511 6.05797C7.40511 5.92591 7.3006 5.81827 7.16978 5.81323C7.22494 5.76832 7.26018 5.69987 7.26018 5.62319C7.26018 5.52041 7.19688 5.43242 7.10714 5.39608C7.11243 5.37605 7.11525 5.35502 7.11525 5.33333C7.11525 5.23056 7.05195 5.14257 6.96221 5.10622C6.9675 5.0862 6.97032 5.06517 6.97032 5.04348C6.97032 5.02633 6.96856 5.00959 6.96521 4.99343C6.98136 4.99679 6.9981 4.99855 7.01525 4.99855C7.14923 4.99855 7.25808 4.89097 7.26015 4.75749C7.27472 4.76019 7.28975 4.7616 7.30511 4.7616C7.42596 4.7616 7.52637 4.67407 7.5464 4.55895C7.5621 4.56211 7.57833 4.56377 7.59496 4.56377C7.7035 4.56377 7.79555 4.49317 7.82769 4.39538C7.86065 4.41189 7.89785 4.42117 7.93722 4.42117C7.99095 4.42117 8.04065 4.40387 8.08103 4.37453C8.08865 4.40728 8.10284 4.43752 8.12213 4.46377C8.0923 4.50435 8.07467 4.55446 8.07467 4.60869C8.07467 4.74075 8.17918 4.8484 8.31 4.85344C8.25484 4.89835 8.2196 4.9668 8.2196 5.04348C8.2196 5.14625 8.2829 5.23424 8.37264 5.27058C8.36735 5.29061 8.36453 5.31164 8.36453 5.33333C8.36453 5.43611 8.42783 5.52409 8.51757 5.56044C8.51227 5.58047 8.50945 5.6015 8.50945 5.62319C8.50945 5.75846 8.61911 5.86811 8.75438 5.86811C8.88965 5.86811 8.99931 5.75846 8.99931 5.62319C8.99931 5.52041 8.93601 5.43242 8.84627 5.39608C8.85156 5.37605 8.85438 5.35502 8.85438 5.33333C8.85438 5.23056 8.79108 5.14257 8.70134 5.10622C8.70663 5.0862 8.70945 5.06517 8.70945 5.04348C8.70945 4.91142 8.60495 4.80377 8.47412 4.79873C8.52929 4.75382 8.56453 4.68537 8.56453 4.60869C8.56453 4.55446 8.5469 4.50435 8.51707 4.46377C8.5469 4.42318 8.56453 4.37307 8.56453 4.31884C8.56453 4.26461 8.5469 4.21449 8.51707 4.17391C8.53993 4.14281 8.55563 4.10611 8.56171 4.06624C8.60655 4.12329 8.67619 4.15993 8.75438 4.15993C8.88965 4.15993 8.99931 4.05028 8.99931 3.91501C8.99931 3.90747 8.99897 3.9 8.9983 3.89264C9.0432 3.94839 9.11201 3.98406 9.18916 3.98406C9.27546 3.98406 9.35133 3.93943 9.39496 3.87199C9.43728 3.90687 9.49151 3.92782 9.55063 3.92782C9.64656 3.92782 9.72961 3.87267 9.7698 3.79235ZM8.3196 4.27391C8.40064 4.27391 8.47248 4.23455 8.51707 4.17391C8.47248 4.11327 8.40064 4.07391 8.3196 4.07391C8.34441 4.07391 8.36453 4.0538 8.36453 4.02898C8.36453 4.00417 8.34441 3.98406 8.3196 3.98406C8.29479 3.98406 8.27467 4.00417 8.27467 4.02898C8.27467 4.0538 8.29479 4.07391 8.3196 4.07391C8.26586 4.07391 8.21617 4.09122 8.17578 4.12056C8.16215 4.06193 8.12747 4.01138 8.08013 3.97732C8.07655 3.99397 8.07467 4.01126 8.07467 4.02898C8.07467 4.08321 8.0923 4.13333 8.12213 4.17391C8.0923 4.21449 8.07467 4.26461 8.07467 4.31884C8.07467 4.338 8.07687 4.35664 8.08103 4.37453C8.12898 4.33969 8.16381 4.28788 8.17668 4.22791C8.2169 4.25686 8.26626 4.27391 8.3196 4.27391ZM8.3196 4.36377C8.23856 4.36377 8.16671 4.40312 8.12213 4.46377C8.16671 4.52441 8.23856 4.56377 8.3196 4.56377C8.29479 4.56377 8.27467 4.58388 8.27467 4.60869C8.27467 4.63351 8.29479 4.65362 8.3196 4.65362C8.34441 4.65362 8.36453 4.63351 8.36453 4.60869C8.36453 4.58388 8.34441 4.56377 8.3196 4.56377C8.40064 4.56377 8.47248 4.52441 8.51707 4.46377C8.47248 4.40312 8.40064 4.36377 8.3196 4.36377ZM8.3196 4.36377C8.34441 4.36377 8.36453 4.34365 8.36453 4.31884C8.36453 4.29403 8.34441 4.27391 8.3196 4.27391C8.29479 4.27391 8.27467 4.29403 8.27467 4.31884C8.27467 4.34365 8.29479 4.36377 8.3196 4.36377ZM8.17668 4.22791C8.15579 4.21288 8.13737 4.19464 8.12213 4.17391C8.13715 4.15348 8.15527 4.13547 8.17578 4.12056C8.17994 4.13845 8.18214 4.15709 8.18214 4.17625C8.18214 4.19397 8.18026 4.21126 8.17668 4.22791ZM8.84627 5.39608C8.8179 5.38459 8.78688 5.37826 8.75438 5.37826C8.6408 5.37826 8.54528 5.45557 8.51757 5.56044C8.54594 5.57193 8.57696 5.57826 8.60945 5.57826C8.72303 5.57826 8.81856 5.50095 8.84627 5.39608ZM8.70134 5.10622C8.67297 5.09473 8.64195 5.0884 8.60945 5.0884C8.49587 5.0884 8.40035 5.16571 8.37264 5.27058C8.40101 5.28208 8.43203 5.2884 8.46453 5.2884C8.57811 5.2884 8.67363 5.21109 8.70134 5.10622ZM8.47412 4.79873L8.46453 4.79855C8.40594 4.79855 8.35215 4.81912 8.31 4.85344L8.3196 4.85362C8.37819 4.85362 8.43197 4.83305 8.47412 4.79873ZM7.16978 5.81323L7.16018 5.81304C7.10159 5.81304 7.0478 5.83361 7.00565 5.86793L7.01525 5.86811C7.07384 5.86811 7.12763 5.84754 7.16978 5.81323ZM7.10714 5.39608C7.07943 5.50095 6.9839 5.57826 6.87032 5.57826C6.83783 5.57826 6.80681 5.57193 6.77844 5.56044C6.80615 5.45557 6.90167 5.37826 7.01525 5.37826C7.04775 5.37826 7.07877 5.38459 7.10714 5.39608ZM6.96221 5.10622C6.9345 5.21109 6.83898 5.2884 6.7254 5.2884C6.6929 5.2884 6.66188 5.28208 6.63351 5.27058C6.66122 5.16571 6.75674 5.0884 6.87032 5.0884C6.90282 5.0884 6.93384 5.09473 6.96221 5.10622ZM6.77544 4.80367C6.79519 4.89878 6.87009 4.97369 6.96521 4.99343C6.94546 4.89832 6.87055 4.82341 6.77544 4.80367ZM7.26015 4.75749C7.14635 4.73637 7.06018 4.63659 7.06018 4.51668L7.06021 4.51281C7.17401 4.53392 7.26018 4.63371 7.26018 4.75362L7.26015 4.75749ZM7.5464 4.55895C7.43439 4.53642 7.35003 4.43748 7.35003 4.31884C7.35003 4.30442 7.35128 4.2903 7.35367 4.27656C7.46568 4.29909 7.55003 4.39803 7.55003 4.51668C7.55003 4.53109 7.54879 4.54522 7.5464 4.55895ZM7.82769 4.39538C7.74741 4.35518 7.69229 4.27215 7.69229 4.17625C7.69229 4.14952 7.69657 4.12379 7.70449 4.0997C7.78477 4.13991 7.83989 4.22294 7.83989 4.31884C7.83989 4.34557 7.83561 4.3713 7.82769 4.39538ZM8.56171 4.06624C8.52898 4.0246 8.50945 3.97208 8.50945 3.91501C8.50945 3.90234 8.51042 3.8899 8.51227 3.87775C8.545 3.91939 8.56453 3.97191 8.56453 4.02898C8.56453 4.04165 8.56356 4.05409 8.56171 4.06624ZM8.94524 3.7615C8.94972 3.81091 8.96887 3.85609 8.9983 3.89264C8.99383 3.84322 8.97468 3.79805 8.94524 3.7615ZM9.39496 3.87199C9.34045 3.82707 9.3057 3.75904 9.3057 3.68289C9.3057 3.63392 9.32008 3.5883 9.34484 3.55003C9.39934 3.59495 9.43409 3.66298 9.43409 3.73913C9.43409 3.7881 9.41972 3.83372 9.39496 3.87199ZM9.7698 3.79235C9.70863 3.74782 9.66887 3.67565 9.66887 3.5942C9.66887 3.55486 9.67815 3.51769 9.69463 3.48475C9.7558 3.52928 9.79556 3.60144 9.79556 3.68289C9.79556 3.72223 9.78628 3.75941 9.7698 3.79235ZM7.30511 4.5616C7.32992 4.5616 7.35003 4.54149 7.35003 4.51668C7.35003 4.49186 7.32992 4.47175 7.30511 4.47175C7.28029 4.47175 7.26018 4.49186 7.26018 4.51668C7.26018 4.54149 7.28029 4.5616 7.30511 4.5616ZM7.01525 4.79855C7.04006 4.79855 7.06018 4.77843 7.06018 4.75362C7.06018 4.72881 7.04006 4.70869 7.01525 4.70869C6.99044 4.70869 6.97032 4.72881 6.97032 4.75362C6.97032 4.77843 6.99044 4.79855 7.01525 4.79855ZM6.7254 5.0884C6.75021 5.0884 6.77032 5.06829 6.77032 5.04348C6.77032 5.01866 6.75021 4.99855 6.7254 4.99855C6.70058 4.99855 6.68047 5.01866 6.68047 5.04348C6.68047 5.06829 6.70058 5.0884 6.7254 5.0884ZM6.87032 5.37826C6.89514 5.37826 6.91525 5.35814 6.91525 5.33333C6.91525 5.30852 6.89514 5.2884 6.87032 5.2884C6.84551 5.2884 6.8254 5.30852 6.8254 5.33333C6.8254 5.35814 6.84551 5.37826 6.87032 5.37826ZM7.01525 5.66811C7.04006 5.66811 7.06018 5.648 7.06018 5.62319C7.06018 5.59837 7.04006 5.57826 7.01525 5.57826C6.99044 5.57826 6.97032 5.59837 6.97032 5.62319C6.97032 5.648 6.99044 5.66811 7.01525 5.66811ZM7.20511 6.05797C7.20511 6.08278 7.18499 6.1029 7.16018 6.1029C7.13537 6.1029 7.11525 6.08278 7.11525 6.05797C7.11525 6.03316 7.13537 6.01304 7.16018 6.01304C7.18499 6.01304 7.20511 6.03316 7.20511 6.05797ZM7.59496 4.36377C7.61977 4.36377 7.63989 4.34365 7.63989 4.31884C7.63989 4.29403 7.61977 4.27391 7.59496 4.27391C7.57015 4.27391 7.55003 4.29403 7.55003 4.31884C7.55003 4.34365 7.57015 4.36377 7.59496 4.36377ZM7.93722 4.22117C7.96203 4.22117 7.98214 4.20106 7.98214 4.17625C7.98214 4.15143 7.96203 4.13132 7.93722 4.13132C7.9124 4.13132 7.89229 4.15143 7.89229 4.17625C7.89229 4.20106 7.9124 4.22117 7.93722 4.22117ZM8.75438 3.95993C8.77919 3.95993 8.79931 3.93982 8.79931 3.91501C8.79931 3.89019 8.77919 3.87008 8.75438 3.87008C8.72957 3.87008 8.70945 3.89019 8.70945 3.91501C8.70945 3.93982 8.72957 3.95993 8.75438 3.95993ZM9.18916 3.78406C9.21398 3.78406 9.23409 3.76394 9.23409 3.73913C9.23409 3.71432 9.21398 3.6942 9.18916 3.6942C9.16435 3.6942 9.14424 3.71432 9.14424 3.73913C9.14424 3.76394 9.16435 3.78406 9.18916 3.78406ZM9.55063 3.72782C9.57544 3.72782 9.59556 3.7077 9.59556 3.68289C9.59556 3.65808 9.57544 3.63796 9.55063 3.63796C9.52582 3.63796 9.5057 3.65808 9.5057 3.68289C9.5057 3.7077 9.52582 3.72782 9.55063 3.72782ZM9.9138 3.63913C9.93861 3.63913 9.95873 3.61901 9.95873 3.5942C9.95873 3.56939 9.93861 3.54927 9.9138 3.54927C9.88899 3.54927 9.86887 3.56939 9.86887 3.5942C9.86887 3.61901 9.88899 3.63913 9.9138 3.63913ZM8.46453 5.0884C8.48934 5.0884 8.50945 5.06829 8.50945 5.04348C8.50945 5.01866 8.48934 4.99855 8.46453 4.99855C8.43971 4.99855 8.4196 5.01866 8.4196 5.04348C8.4196 5.06829 8.43971 5.0884 8.46453 5.0884ZM8.60945 5.37826C8.63427 5.37826 8.65438 5.35814 8.65438 5.33333C8.65438 5.30852 8.63427 5.2884 8.60945 5.2884C8.58464 5.2884 8.56453 5.30852 8.56453 5.33333C8.56453 5.35814 8.58464 5.37826 8.60945 5.37826ZM8.75438 5.66811C8.77919 5.66811 8.79931 5.648 8.79931 5.62319C8.79931 5.59837 8.77919 5.57826 8.75438 5.57826C8.72957 5.57826 8.70945 5.59837 8.70945 5.62319C8.70945 5.648 8.72957 5.66811 8.75438 5.66811ZM15.1312 6.1029C15.156 6.1029 15.1761 6.08278 15.1761 6.05797C15.1761 6.03316 15.156 6.01304 15.1312 6.01304C15.1064 6.01304 15.0863 6.03316 15.0863 6.05797C15.0863 6.08278 15.1064 6.1029 15.1312 6.1029ZM14.8863 6.05797C14.8863 6.19324 14.9959 6.3029 15.1312 6.3029C15.2665 6.3029 15.3761 6.19324 15.3761 6.05797C15.3761 5.98129 15.3409 5.91284 15.2857 5.86793C15.4165 5.86289 15.521 5.75524 15.521 5.62319C15.521 5.6015 15.5182 5.58046 15.5129 5.56044C15.6027 5.52409 15.666 5.43611 15.666 5.33333C15.666 5.31164 15.6632 5.29061 15.6579 5.27058C15.7476 5.23424 15.8109 5.14625 15.8109 5.04348C15.8109 4.90821 15.7012 4.79855 15.566 4.79855C15.5488 4.79855 15.5321 4.80031 15.5159 4.80367C15.5193 4.78751 15.521 4.77077 15.521 4.75362C15.521 4.61835 15.4114 4.50869 15.2761 4.50869C15.2608 4.50869 15.2457 4.51011 15.2312 4.51281C15.2291 4.37932 15.1202 4.27175 14.9863 4.27175C14.9696 4.27175 14.9534 4.2734 14.9377 4.27656C14.9177 4.16144 14.8173 4.07391 14.6964 4.07391C14.657 4.07391 14.6198 4.0832 14.5869 4.09971C14.5547 4.00192 14.4627 3.93132 14.3542 3.93132C14.3008 3.93132 14.2515 3.94837 14.2112 3.97732C14.1875 3.86686 14.0893 3.78406 13.9718 3.78406C13.8936 3.78406 13.8239 3.8207 13.7791 3.87775C13.7612 3.76016 13.6596 3.67008 13.537 3.67008C13.4598 3.67008 13.391 3.70575 13.3461 3.7615C13.3468 3.75413 13.3471 3.74667 13.3471 3.73913C13.3471 3.60386 13.2375 3.4942 13.1022 3.4942C13.0431 3.4942 12.9889 3.51515 12.9465 3.55003C12.9029 3.48259 12.827 3.43796 12.7407 3.43796C12.6869 3.43796 12.6372 3.45532 12.5967 3.48475C12.5565 3.40442 12.4735 3.34927 12.3776 3.34927C12.2423 3.34927 12.1326 3.45893 12.1326 3.5942C12.1326 3.72947 12.2423 3.83913 12.3776 3.83913C12.4314 3.83913 12.4812 3.82177 12.5216 3.79234C12.5618 3.87267 12.6448 3.92782 12.7407 3.92782C12.7999 3.92782 12.8541 3.90687 12.8964 3.87199C12.94 3.93943 13.0159 3.98406 13.1022 3.98406C13.1794 3.98406 13.2482 3.94839 13.2931 3.89264C13.2924 3.9 13.2921 3.90747 13.2921 3.91501C13.2921 4.05028 13.4017 4.15993 13.537 4.15993C13.6152 4.15993 13.6848 4.12329 13.7297 4.06624C13.7357 4.10611 13.7514 4.14281 13.7743 4.17391C13.7445 4.21449 13.7268 4.26461 13.7268 4.31884C13.7268 4.37307 13.7445 4.42318 13.7743 4.46377C13.7445 4.50435 13.7268 4.55446 13.7268 4.60869C13.7268 4.68537 13.7621 4.75382 13.8172 4.79873C13.6864 4.80377 13.5819 4.91142 13.5819 5.04348C13.5819 5.06517 13.5847 5.0862 13.59 5.10622C13.5003 5.14257 13.437 5.23056 13.437 5.33333C13.437 5.35502 13.4398 5.37605 13.4451 5.39608C13.3554 5.43242 13.2921 5.52041 13.2921 5.62319C13.2921 5.75846 13.4017 5.86811 13.537 5.86811C13.6723 5.86811 13.7819 5.75846 13.7819 5.62319C13.7819 5.6015 13.7791 5.58047 13.7738 5.56044C13.8635 5.52409 13.9268 5.43611 13.9268 5.33333C13.9268 5.31164 13.924 5.29061 13.9187 5.27058C14.0085 5.23424 14.0718 5.14625 14.0718 5.04348C14.0718 4.9668 14.0365 4.89835 13.9814 4.85344C14.1122 4.8484 14.2167 4.74075 14.2167 4.60869C14.2167 4.55446 14.1991 4.50435 14.1692 4.46377C14.1885 4.43752 14.2027 4.40728 14.2103 4.37453C14.2507 4.40387 14.3004 4.42117 14.3542 4.42117C14.3935 4.42117 14.4307 4.41189 14.4637 4.39538C14.4958 4.49317 14.5879 4.56377 14.6964 4.56377C14.713 4.56377 14.7293 4.56211 14.745 4.55895C14.765 4.67407 14.8654 4.7616 14.9863 4.7616C15.0016 4.7616 15.0166 4.76019 15.0312 4.75748C15.0333 4.89097 15.1421 4.99855 15.2761 4.99855C15.2933 4.99855 15.31 4.99678 15.3262 4.99343C15.3228 5.00959 15.321 5.02632 15.321 5.04348C15.321 5.06517 15.3239 5.08619 15.3292 5.10622C15.2394 5.14257 15.1761 5.23056 15.1761 5.33333C15.1761 5.35502 15.1789 5.37605 15.1842 5.39608C15.0945 5.43242 15.0312 5.52041 15.0312 5.62319C15.0312 5.69987 15.0664 5.76832 15.1216 5.81323C14.9908 5.81826 14.8863 5.92591 14.8863 6.05797ZM14.1147 4.22791C14.1276 4.28788 14.1624 4.33969 14.2103 4.37453C14.2145 4.35664 14.2167 4.338 14.2167 4.31884C14.2167 4.26461 14.1991 4.21449 14.1692 4.17391C14.1991 4.13333 14.2167 4.08321 14.2167 4.02898C14.2167 4.01126 14.2148 3.99397 14.2112 3.97732C14.1639 4.01138 14.1292 4.06193 14.1156 4.12056C14.0752 4.09122 14.0255 4.07391 13.9718 4.07391C13.9966 4.07391 14.0167 4.0538 14.0167 4.02898C14.0167 4.00417 13.9966 3.98406 13.9718 3.98406C13.947 3.98406 13.9268 4.00417 13.9268 4.02898C13.9268 4.0538 13.947 4.07391 13.9718 4.07391C13.8907 4.07391 13.8189 4.11327 13.7743 4.17391C13.8189 4.23455 13.8907 4.27391 13.9718 4.27391C13.947 4.27391 13.9268 4.29403 13.9268 4.31884C13.9268 4.34365 13.947 4.36377 13.9718 4.36377C13.8907 4.36377 13.8189 4.40312 13.7743 4.46377C13.8189 4.52441 13.8907 4.56377 13.9718 4.56377C13.947 4.56377 13.9268 4.58388 13.9268 4.60869C13.9268 4.63351 13.947 4.65362 13.9718 4.65362C13.9966 4.65362 14.0167 4.63351 14.0167 4.60869C14.0167 4.58388 13.9966 4.56377 13.9718 4.56377C14.0528 4.56377 14.1247 4.52441 14.1692 4.46377C14.1247 4.40312 14.0528 4.36377 13.9718 4.36377C13.9966 4.36377 14.0167 4.34365 14.0167 4.31884C14.0167 4.29403 13.9966 4.27391 13.9718 4.27391C14.0251 4.27391 14.0745 4.25686 14.1147 4.22791ZM14.1147 4.22791C14.1356 4.21288 14.154 4.19464 14.1692 4.17391C14.1542 4.15348 14.1361 4.13547 14.1156 4.12056C14.1114 4.13845 14.1092 4.15709 14.1092 4.17625C14.1092 4.19397 14.1111 4.21126 14.1147 4.22791ZM13.7738 5.56044C13.7461 5.45557 13.6506 5.37826 13.537 5.37826C13.5045 5.37826 13.4735 5.38459 13.4451 5.39608C13.4728 5.50095 13.5683 5.57826 13.6819 5.57826C13.7144 5.57826 13.7454 5.57193 13.7738 5.56044ZM13.9187 5.27058C13.891 5.16571 13.7955 5.0884 13.6819 5.0884C13.6494 5.0884 13.6184 5.09473 13.59 5.10622C13.6177 5.21109 13.7133 5.2884 13.8268 5.2884C13.8593 5.2884 13.8904 5.28208 13.9187 5.27058ZM13.9814 4.85344C13.9392 4.81912 13.8854 4.79855 13.8268 4.79855L13.8172 4.79873C13.8594 4.83305 13.9132 4.85362 13.9718 4.85362L13.9814 4.85344ZM12.5216 3.79234C12.5827 3.74781 12.6225 3.67565 12.6225 3.5942C12.6225 3.55486 12.6132 3.51769 12.5967 3.48475C12.5356 3.52928 12.4958 3.60144 12.4958 3.68289C12.4958 3.72223 12.5051 3.7594 12.5216 3.79234ZM12.8964 3.87199C12.9509 3.82707 12.9857 3.75904 12.9857 3.68289C12.9857 3.63392 12.9713 3.5883 12.9465 3.55003C12.892 3.59495 12.8573 3.66298 12.8573 3.73913C12.8573 3.7881 12.8717 3.83372 12.8964 3.87199ZM13.3461 3.7615C13.3417 3.81091 13.3225 3.85609 13.2931 3.89264C13.2975 3.84322 13.3167 3.79805 13.3461 3.7615ZM13.7297 4.06624C13.7624 4.0246 13.7819 3.97208 13.7819 3.91501C13.7819 3.90234 13.781 3.8899 13.7791 3.87775C13.7464 3.91939 13.7268 3.97191 13.7268 4.02898C13.7268 4.04165 13.7278 4.05409 13.7297 4.06624ZM14.4637 4.39538C14.544 4.35518 14.5991 4.27215 14.5991 4.17625C14.5991 4.14952 14.5948 4.12379 14.5869 4.09971C14.5066 4.13991 14.4515 4.22294 14.4515 4.31884C14.4515 4.34557 14.4558 4.3713 14.4637 4.39538ZM14.745 4.55895C14.857 4.53642 14.9413 4.43748 14.9413 4.31884C14.9413 4.30442 14.9401 4.2903 14.9377 4.27656C14.8257 4.29909 14.7413 4.39803 14.7413 4.51668C14.7413 4.53109 14.7426 4.54522 14.745 4.55895ZM15.3262 4.99343C15.4213 4.97368 15.4962 4.89878 15.5159 4.80367C15.4208 4.82341 15.3459 4.89832 15.3262 4.99343ZM15.2312 4.51281L15.2312 4.51668C15.2312 4.63659 15.145 4.73637 15.0312 4.75748L15.0312 4.75362C15.0312 4.63371 15.1174 4.53392 15.2312 4.51281ZM15.3292 5.10622C15.3575 5.09473 15.3886 5.0884 15.421 5.0884C15.5346 5.0884 15.6301 5.16571 15.6579 5.27058C15.6295 5.28207 15.5985 5.2884 15.566 5.2884C15.4524 5.2884 15.3569 5.21109 15.3292 5.10622ZM15.1842 5.39608C15.2126 5.38459 15.2436 5.37826 15.2761 5.37826C15.3897 5.37826 15.4852 5.45557 15.5129 5.56044C15.4846 5.57193 15.4535 5.57826 15.421 5.57826C15.3075 5.57826 15.212 5.50094 15.1842 5.39608ZM15.2761 5.86811C15.2175 5.86811 15.1638 5.84754 15.1216 5.81323L15.1312 5.81304C15.1898 5.81304 15.2436 5.83361 15.2857 5.86793L15.2761 5.86811ZM15.2761 5.66811C15.3009 5.66811 15.321 5.648 15.321 5.62319C15.321 5.59837 15.3009 5.57826 15.2761 5.57826C15.2513 5.57826 15.2312 5.59837 15.2312 5.62319C15.2312 5.648 15.2513 5.66811 15.2761 5.66811ZM15.421 5.37826C15.4459 5.37826 15.466 5.35814 15.466 5.33333C15.466 5.30852 15.4459 5.2884 15.421 5.2884C15.3962 5.2884 15.3761 5.30852 15.3761 5.33333C15.3761 5.35814 15.3962 5.37826 15.421 5.37826ZM15.566 5.0884C15.5908 5.0884 15.6109 5.06829 15.6109 5.04348C15.6109 5.01866 15.5908 4.99855 15.566 4.99855C15.5412 4.99855 15.521 5.01866 15.521 5.04348C15.521 5.06829 15.5412 5.0884 15.566 5.0884ZM15.2761 4.79855C15.3009 4.79855 15.321 4.77843 15.321 4.75362C15.321 4.72881 15.3009 4.70869 15.2761 4.70869C15.2513 4.70869 15.2312 4.72881 15.2312 4.75362C15.2312 4.77843 15.2513 4.79855 15.2761 4.79855ZM14.9863 4.5616C15.0111 4.5616 15.0312 4.54149 15.0312 4.51668C15.0312 4.49186 15.0111 4.47175 14.9863 4.47175C14.9615 4.47175 14.9413 4.49186 14.9413 4.51668C14.9413 4.54149 14.9615 4.5616 14.9863 4.5616ZM14.6964 4.36377C14.7212 4.36377 14.7413 4.34365 14.7413 4.31884C14.7413 4.29403 14.7212 4.27391 14.6964 4.27391C14.6716 4.27391 14.6515 4.29403 14.6515 4.31884C14.6515 4.34365 14.6716 4.36377 14.6964 4.36377ZM14.3542 4.22117C14.379 4.22117 14.3991 4.20106 14.3991 4.17625C14.3991 4.15143 14.379 4.13132 14.3542 4.13132C14.3293 4.13132 14.3092 4.15143 14.3092 4.17625C14.3092 4.20106 14.3293 4.22117 14.3542 4.22117ZM13.537 3.95993C13.5618 3.95993 13.5819 3.93982 13.5819 3.91501C13.5819 3.89019 13.5618 3.87008 13.537 3.87008C13.5122 3.87008 13.4921 3.89019 13.4921 3.91501C13.4921 3.93982 13.5122 3.95993 13.537 3.95993ZM13.1022 3.78406C13.127 3.78406 13.1471 3.76394 13.1471 3.73913C13.1471 3.71432 13.127 3.6942 13.1022 3.6942C13.0774 3.6942 13.0573 3.71432 13.0573 3.73913C13.0573 3.76394 13.0774 3.78406 13.1022 3.78406ZM12.7407 3.72782C12.7656 3.72782 12.7857 3.7077 12.7857 3.68289C12.7857 3.65808 12.7656 3.63796 12.7407 3.63796C12.7159 3.63796 12.6958 3.65808 12.6958 3.68289C12.6958 3.7077 12.7159 3.72782 12.7407 3.72782ZM12.3776 3.63913C12.4024 3.63913 12.4225 3.61901 12.4225 3.5942C12.4225 3.56939 12.4024 3.54927 12.3776 3.54927C12.3528 3.54927 12.3326 3.56939 12.3326 3.5942C12.3326 3.61901 12.3528 3.63913 12.3776 3.63913ZM13.8268 5.0884C13.8517 5.0884 13.8718 5.06829 13.8718 5.04348C13.8718 5.01866 13.8517 4.99855 13.8268 4.99855C13.802 4.99855 13.7819 5.01866 13.7819 5.04348C13.7819 5.06829 13.802 5.0884 13.8268 5.0884ZM13.6819 5.37826C13.7067 5.37826 13.7268 5.35814 13.7268 5.33333C13.7268 5.30852 13.7067 5.2884 13.6819 5.2884C13.6571 5.2884 13.637 5.30852 13.637 5.33333C13.637 5.35814 13.6571 5.37826 13.6819 5.37826ZM13.537 5.66811C13.5618 5.66811 13.5819 5.648 13.5819 5.62319C13.5819 5.59837 13.5618 5.57826 13.537 5.57826C13.5122 5.57826 13.4921 5.59837 13.4921 5.62319C13.4921 5.648 13.5122 5.66811 13.537 5.66811Z" fill="white"/>
<path fill-rule="evenodd" clip-rule="evenodd" d="M11.1032 2.15411L10.8884 2.15763L10.8888 2.51075L10.4922 2.51053L10.497 2.72491L10.889 2.72513L10.8894 3.1276L11.1043 3.12409L11.1038 2.72525L11.4939 2.72547L11.4892 2.51109L11.1036 2.51087L11.1032 2.15411Z" fill="#F6C540"/>
<path fill-rule="evenodd" clip-rule="evenodd" d="M5.78516 8.73416H16.1852V17.5676C16.1852 17.5676 15.8707 21.9677 10.9852 21.9677C6.09966 21.9677 5.78516 17.5676 5.78516 17.5676V8.73416Z" fill="#C51918"/>
<path fill-rule="evenodd" clip-rule="evenodd" d="M8.9211 9.03983C8.82573 9.03983 8.67893 9.10832 8.48434 9.18588C8.28975 9.26343 8.0854 9.43088 8.28487 9.5986C8.48434 9.76632 8.7699 10.1344 8.7699 9.9968C8.7699 9.85917 9.11102 9.72572 9.11102 9.79244C9.11102 9.85917 9.00541 9.9968 9.28244 9.9968C9.55947 9.9968 9.7022 10.0786 9.40661 10.0786C9.11102 10.0786 9.0789 10.2139 8.8868 10.2139C8.6947 10.2139 8.28487 10.0776 8.28487 9.9968C8.28487 9.91597 8.52221 10.3942 8.7699 10.3942C9.01759 10.3942 9.15827 10.6269 9.28244 10.5105C9.40661 10.3942 9.39191 10.3942 9.59251 10.3942C9.79311 10.3942 9.7199 9.92434 9.7199 9.92434C9.7199 9.92434 9.01646 9.03983 8.9211 9.03983Z" fill="#E8AA00"/>
<path fill-rule="evenodd" clip-rule="evenodd" d="M12.9344 9.03983C13.0297 9.03983 13.1765 9.10832 13.3711 9.18588C13.5657 9.26343 13.7701 9.43088 13.5706 9.5986C13.3711 9.76632 13.0856 10.1344 13.0856 9.9968C13.0856 9.85917 12.7444 9.72572 12.7444 9.79244C12.7444 9.85917 12.8501 9.9968 12.573 9.9968C12.296 9.9968 12.1533 10.0786 12.4489 10.0786C12.7444 10.0786 12.7766 10.2139 12.9687 10.2139C13.1608 10.2139 13.5706 10.0776 13.5706 9.9968C13.5706 9.91597 13.3333 10.3942 13.0856 10.3942C12.8379 10.3942 12.6972 10.6269 12.573 10.5105C12.4489 10.3942 12.4636 10.3942 12.263 10.3942C12.0624 10.3942 12.1356 9.92434 12.1356 9.92434C12.1356 9.92434 12.839 9.03983 12.9344 9.03983Z" fill="#E8AA00"/>
<path fill-rule="evenodd" clip-rule="evenodd" d="M14.2104 10.0002C14.4098 10.4651 12.8818 12.1922 12.8818 12.1922H12.7108C12.6389 12.1922 12.5052 12.0153 12.3437 11.8017C12.233 11.6553 12.1094 11.4917 11.9836 11.3559C11.7471 11.1006 11.8724 10.8861 11.9893 10.6862C12.0252 10.6247 12.0603 10.5647 12.0839 10.5052C12.1349 10.3765 12.1422 10.3251 12.1505 10.2664C12.1585 10.2098 12.1674 10.1464 12.2175 10.0002C12.2912 9.78533 12.5479 9.50812 12.7259 9.31591C12.7947 9.24168 12.8517 9.18014 12.8818 9.13974C12.9772 9.01224 12.9048 9.01298 12.7059 9.01501C12.6786 9.01529 12.6489 9.0156 12.617 9.0156C12.3521 9.0156 11.846 9.13974 11.6948 9.28474C11.5435 9.42974 11.3849 9.46067 11.1519 9.46067C10.9188 9.46067 11.0626 9.61761 11.2748 9.72359C11.0463 9.76728 10.8998 10.1482 10.8137 10.4864C10.7668 10.1482 10.6632 9.76728 10.4347 9.72359C10.6469 9.61761 10.7906 9.46067 10.5576 9.46067C10.3246 9.46067 10.166 9.42974 10.0147 9.28474C9.86345 9.13974 9.35743 9.0156 9.09254 9.0156C9.06058 9.0156 9.0309 9.01529 9.0036 9.01501C8.80465 9.01298 8.73234 9.01224 8.82764 9.13974C8.85784 9.18014 8.91484 9.24168 8.98358 9.31591C9.16159 9.50812 9.41833 9.78533 9.49196 10.0002C9.54207 10.1464 9.55103 10.2098 9.55904 10.2664C9.56733 10.3251 9.57459 10.3765 9.62562 10.5052C9.64918 10.5647 9.68428 10.6247 9.72018 10.6862C9.83705 10.8861 9.96241 11.1006 9.72587 11.3559C9.60013 11.4917 9.47644 11.6553 9.36579 11.8017C9.20434 12.0153 9.07062 12.1922 8.99873 12.1922H8.82764C8.82764 12.1922 7.29972 10.4651 7.49908 10.0002C7.57614 9.82047 7.70043 9.65114 7.80329 9.51101C7.96654 9.2886 8.0758 9.13974 7.85652 9.13974C7.49908 9.13974 6.07422 10.0432 6.07422 12.0805C6.07422 14.1177 6.20584 15.2763 6.51135 16.0881C6.71984 16.642 6.52887 17.18 6.38655 17.5809C6.32031 17.7675 6.26461 17.9244 6.26461 18.0394C6.26461 18.4016 6.82562 18.0842 6.82562 17.8574C6.82562 17.7495 6.90244 17.9102 6.983 18.0787C7.07184 18.2644 7.16523 18.4597 7.16523 18.3151C7.16523 18.1609 7.25467 17.9979 7.33346 17.8544C7.39549 17.7414 7.45093 17.6404 7.45093 17.5651C7.45093 17.4898 7.52963 17.4926 7.61769 17.4957C7.72955 17.4997 7.85652 17.5042 7.85652 17.3499C7.85652 17.2458 7.89692 17.225 7.94721 17.1991C8.03015 17.1564 8.14001 17.0999 8.14001 16.6331C8.14001 16.2872 8.20927 16.4097 8.28872 16.5503C8.36185 16.6797 8.4436 16.8244 8.48792 16.6331C8.49224 16.6145 8.53814 16.5343 8.59488 16.4351C8.67745 16.2908 8.783 16.1063 8.81675 16.0132C8.71268 16.4207 8.46298 16.8453 8.30441 17.0475C8.14001 17.2572 7.85652 17.7125 7.85652 17.7125C7.85652 17.7125 8.1209 17.8599 8.30441 17.7125C8.40691 17.6302 8.41383 17.7076 8.42137 17.7921C8.42734 17.8588 8.43369 17.9299 8.48792 17.9299C8.52198 17.9299 8.55404 17.9355 8.5826 17.9405C8.60372 17.9441 8.62293 17.9475 8.63961 17.948C8.57835 18.104 8.52339 18.3535 8.7077 18.1868C8.83932 18.0677 8.93161 18.0194 8.99274 17.9874C9.0635 17.9504 9.09254 17.9352 9.09254 17.8574C9.09254 17.7798 9.12129 17.8061 9.16632 17.8473C9.20541 17.883 9.25676 17.9299 9.31223 17.9299C9.38371 17.9299 9.39859 17.8304 9.42024 17.6856C9.43475 17.5886 9.45229 17.4712 9.49196 17.3499C9.50121 17.3216 9.50989 17.2944 9.51812 17.2687C9.59792 17.0189 9.63514 16.9024 9.72587 17.2175C9.76827 17.3647 9.84316 17.469 9.90838 17.5598C9.99711 17.6833 10.0679 17.7819 10.0147 17.9299C9.99386 17.9879 9.96772 18.0534 9.93973 18.1235C9.84368 18.3641 9.72587 18.6593 9.72587 18.8916C9.72587 19.0298 9.60011 19.2181 9.48192 19.395C9.34338 19.6025 9.21524 19.7943 9.31223 19.8716C9.49196 20.0148 9.27447 20.4971 9.09254 20.7445C8.9106 20.992 8.94069 21.294 9.21633 21.294C9.36717 21.294 9.44902 21.3488 9.52314 21.3983C9.58445 21.4393 9.64047 21.4768 9.72587 21.4768C9.91451 21.4768 10.0147 21.3838 10.0147 21.3838C10.0147 21.3838 10.1311 21.5598 10.3246 21.5598C10.518 21.5598 10.5576 21.3838 10.5576 21.3838L10.7008 21.5598L10.7119 20.789V21.5598L11.1519 21.3838C11.1519 21.3838 11.1915 21.5598 11.3849 21.5598C11.5783 21.5598 11.6948 21.3838 11.6948 21.3838C11.6948 21.3838 11.795 21.4768 11.9836 21.4768C12.069 21.4768 12.125 21.4393 12.1864 21.3983C12.2605 21.3488 12.3423 21.294 12.4932 21.294C12.7688 21.294 12.7989 20.992 12.617 20.7445C12.435 20.4971 12.2175 20.0148 12.3973 19.8716C12.4942 19.7943 12.3661 19.6025 12.2276 19.395C12.1094 19.2181 11.9836 19.0298 11.9836 18.8916C11.9836 18.6593 11.8658 18.3641 11.7698 18.1235C11.7418 18.0534 11.7156 17.9879 11.6948 17.9299C11.6416 17.7819 11.7124 17.6833 11.8011 17.5598C11.8663 17.469 11.9412 17.3647 11.9836 17.2175C12.0743 16.9024 12.1116 17.0189 12.1914 17.2687C12.1996 17.2944 12.2083 17.3216 12.2175 17.3499C12.2572 17.4712 12.2747 17.5886 12.2893 17.6856C12.3109 17.8304 12.3258 17.9299 12.3973 17.9299C12.4527 17.9299 12.5041 17.883 12.5432 17.8473C12.5882 17.8061 12.617 17.7798 12.617 17.8574C12.617 17.9352 12.646 17.9504 12.7167 17.9874C12.7779 18.0194 12.8702 18.0677 13.0018 18.1868C13.1861 18.3535 13.1311 18.104 13.0699 17.948C13.0866 17.9475 13.1058 17.9441 13.1269 17.9405C13.1554 17.9355 13.1875 17.9299 13.2216 17.9299C13.2758 17.9299 13.2822 17.8588 13.2881 17.7921C13.2957 17.7076 13.3026 17.6302 13.4051 17.7125C13.5886 17.8599 13.853 17.7125 13.853 17.7125C13.853 17.7125 13.5695 17.2572 13.4051 17.0475C13.2465 16.8453 12.9968 16.4207 12.8927 16.0132C12.9265 16.1063 13.032 16.2908 13.1146 16.4351C13.1714 16.5343 13.2173 16.6145 13.2216 16.6331C13.2659 16.8244 13.3476 16.6797 13.4208 16.5503C13.5002 16.4097 13.5695 16.2872 13.5695 16.6331C13.5695 17.0999 13.6793 17.1564 13.7623 17.1991C13.8126 17.225 13.853 17.2458 13.853 17.3499C13.853 17.5042 13.9799 17.4997 14.0918 17.4957C14.1799 17.4926 14.2586 17.4898 14.2586 17.5651C14.2586 17.6404 14.314 17.7414 14.376 17.8544C14.4548 17.9979 14.5443 18.1609 14.5443 18.3151C14.5443 18.4597 14.6377 18.2644 14.7265 18.0787C14.8071 17.9102 14.8839 17.7495 14.8839 17.8574C14.8839 18.0842 15.4449 18.4016 15.4449 18.0394C15.4449 17.9244 15.3892 17.7675 15.3229 17.5809C15.1806 17.18 14.9896 16.642 15.1981 16.0881C15.5037 15.2763 15.6353 14.1177 15.6353 12.0805C15.6353 10.0432 14.2104 9.13974 13.853 9.13974C13.6337 9.13974 13.743 9.2886 13.9062 9.51101C14.0091 9.65114 14.1333 9.82048 14.2104 10.0002ZM12.8818 15.9683C12.8853 15.9832 12.8889 15.9982 12.8927 16.0132C12.8858 15.9939 12.8818 15.9786 12.8818 15.9683ZM13.0018 17.8574C13.0018 17.8066 13.0368 17.8636 13.0699 17.948C13.0278 17.9492 13.0018 17.9324 13.0018 17.8574ZM8.63961 17.948C8.68172 17.9492 8.7077 17.9324 8.7077 17.8574C8.7077 17.8066 8.67273 17.8636 8.63961 17.948ZM8.81675 16.0132C8.82373 15.9939 8.82764 15.9786 8.82764 15.9683C8.82422 15.9832 8.82058 15.9982 8.81675 16.0132Z" fill="#F7FCFF"/>
<path fill-rule="evenodd" clip-rule="evenodd" d="M8.18822 19.2019C8.18822 19.0614 8.54776 18.7354 8.54776 18.7354V18.7631C8.59819 18.8039 8.91951 19.0688 8.91951 19.1983C8.91951 19.2787 8.87791 19.3952 8.84229 19.4949C8.81564 19.5696 8.79234 19.6348 8.79234 19.6685C8.79234 19.6911 8.80175 19.6749 8.81966 19.644C8.86404 19.5674 8.96059 19.4008 9.09544 19.5121C9.27407 19.6597 9.27299 19.8773 9.2723 20.0152C9.27226 20.0234 9.27222 20.0314 9.27222 20.039C9.27222 20.082 9.27214 20.0817 9.26641 20.0612C9.25408 20.0171 9.21559 19.8795 9.09544 19.8795C8.91951 19.8795 8.79234 20.039 8.79234 20.039V20.3111C8.79234 20.3111 8.81465 20.5357 8.91951 20.4234C9.02437 20.3111 9.04668 20.562 8.91951 20.562C8.85459 20.562 8.78782 20.6309 8.72244 20.6983C8.65976 20.763 8.59836 20.8264 8.54113 20.8264V20.8038C8.48691 20.7995 8.44224 20.7437 8.39666 20.6868C8.34722 20.625 8.29671 20.562 8.23179 20.562C8.10462 20.562 8.12693 20.3111 8.23179 20.4234C8.33664 20.5357 8.35896 20.3111 8.35896 20.3111V20.039C8.35896 20.039 8.23179 19.8795 8.05586 19.8795C7.93571 19.8795 7.89722 20.0171 7.88489 20.0612C7.87916 20.0817 7.87908 20.082 7.87908 20.039C7.87908 20.0314 7.87904 20.0234 7.879 20.0152C7.87831 19.8773 7.87723 19.6597 8.05586 19.5121C8.19071 19.4008 8.28726 19.5674 8.33164 19.644C8.34955 19.6749 8.35896 19.6911 8.35896 19.6685C8.35896 19.6348 8.32768 19.5702 8.2919 19.4964C8.24408 19.3976 8.18822 19.2823 8.18822 19.2019Z" fill="#E8AA00"/>
<path fill-rule="evenodd" clip-rule="evenodd" d="M12.9695 19.2019C12.9695 19.0614 13.329 18.7354 13.329 18.7354V18.7631C13.3794 18.8039 13.7008 19.0688 13.7008 19.1983C13.7008 19.2787 13.6592 19.3952 13.6235 19.4949C13.5969 19.5696 13.5736 19.6348 13.5736 19.6685C13.5736 19.6911 13.583 19.6749 13.6009 19.644C13.6453 19.5674 13.7418 19.4008 13.8767 19.5121C14.0553 19.6597 14.0542 19.8773 14.0536 20.0152C14.0535 20.0234 14.0535 20.0314 14.0535 20.039C14.0535 20.082 14.0534 20.0817 14.0477 20.0612C14.0353 20.0171 13.9968 19.8795 13.8767 19.8795C13.7008 19.8795 13.5736 20.039 13.5736 20.039V20.3111C13.5736 20.3111 13.5959 20.5357 13.7008 20.4234C13.8056 20.3111 13.8279 20.562 13.7008 20.562C13.6358 20.562 13.5691 20.6309 13.5037 20.6983C13.441 20.763 13.3796 20.8264 13.3224 20.8264V20.8038C13.2682 20.7995 13.2235 20.7437 13.1779 20.6868C13.1285 20.625 13.078 20.562 13.013 20.562C12.8859 20.562 12.9082 20.3111 13.013 20.4234C13.1179 20.5357 13.1402 20.3111 13.1402 20.3111V20.039C13.1402 20.039 13.013 19.8795 12.8371 19.8795C12.717 19.8795 12.6785 20.0171 12.6661 20.0612C12.6604 20.0817 12.6603 20.082 12.6603 20.039C12.6603 20.0314 12.6603 20.0234 12.6602 20.0152C12.6596 19.8773 12.6585 19.6597 12.8371 19.5121C12.972 19.4008 13.0685 19.5674 13.1129 19.644C13.1308 19.6749 13.1402 19.6911 13.1402 19.6685C13.1402 19.6348 13.1089 19.5702 13.0732 19.4964C13.0253 19.3976 12.9695 19.2823 12.9695 19.2019Z" fill="#E8AA00"/>
<path fill-rule="evenodd" clip-rule="evenodd" d="M7.83025 18.3593C8.15073 18.3593 8.21552 17.7498 8.21552 17.7498C8.21552 17.7498 8.4844 17.4711 8.4844 17.6766C8.4844 17.7862 8.40795 17.9243 8.3498 18.0293C8.2989 18.1212 8.26202 18.1878 8.30273 18.1878H8.74651C9.11242 18.1878 8.68226 18.3593 8.4844 18.4357C8.39464 18.4704 8.33098 18.4885 8.26991 18.5059C8.19637 18.5269 8.12659 18.5467 8.01948 18.5931C7.82344 18.6781 7.73934 19.2374 7.83025 19.4169C7.92117 19.5965 7.73934 19.5207 7.6642 19.4169C7.62245 19.3593 7.59197 19.4387 7.54947 19.5494C7.51547 19.6379 7.47377 19.7466 7.41245 19.8211C7.29399 19.9652 7.29526 19.8379 7.29799 19.5639C7.29844 19.5187 7.29894 19.4695 7.29894 19.4169C7.29894 19.1741 7.3474 19.172 7.41948 19.1687C7.45772 19.167 7.50261 19.165 7.55043 19.1266C7.65372 19.0437 7.66612 19.001 7.69734 18.8936C7.70783 18.8575 7.72044 18.8141 7.73934 18.7594C7.81448 18.5419 7.41245 18.8857 7.29894 19.0486C7.22982 19.1477 7.18167 19.1585 7.10966 19.1747C7.06341 19.1851 7.00732 19.1977 6.92949 19.2374C6.803 19.3018 6.83732 19.1752 6.87912 19.021C6.90308 18.9326 6.92949 18.8351 6.92949 18.7594C6.92949 18.6288 7.00805 18.6623 7.10873 18.7053C7.16829 18.7307 7.23558 18.7594 7.29894 18.7594C7.46083 18.7594 7.54444 18.691 7.64765 18.6067C7.6531 18.6022 7.65861 18.5977 7.6642 18.5931C7.74701 18.5257 7.56662 18.5461 7.35182 18.5703C7.27835 18.5786 7.20085 18.5873 7.12848 18.5931C6.9633 18.6065 6.95227 18.5965 6.91102 18.5594C6.88137 18.5327 6.83609 18.492 6.70663 18.4357C6.39715 18.3012 6.90557 18.3593 7.12848 18.4357C7.25243 18.4782 7.35644 18.4498 7.47945 18.4162C7.57766 18.3894 7.68798 18.3593 7.83025 18.3593ZM14.0451 18.3593C13.7247 18.3593 13.6599 17.7498 13.6599 17.7498C13.6599 17.7498 13.391 17.4711 13.391 17.6766C13.391 17.7862 13.4675 17.9243 13.5256 18.0293C13.5765 18.1212 13.6134 18.1878 13.5727 18.1878H13.1289C12.763 18.1878 13.1931 18.3593 13.391 18.4357C13.4808 18.4704 13.5444 18.4885 13.6055 18.5059C13.679 18.5269 13.7488 18.5467 13.8559 18.5931C14.052 18.6781 14.1361 19.2374 14.0451 19.4169C13.9542 19.5965 14.1361 19.5207 14.2112 19.4169C14.253 19.3593 14.2834 19.4387 14.3259 19.5494C14.3599 19.6379 14.4016 19.7466 14.463 19.8211C14.5814 19.9652 14.5801 19.8379 14.5774 19.5639C14.577 19.5187 14.5765 19.4695 14.5765 19.4169C14.5765 19.1741 14.528 19.172 14.4559 19.1687C14.4177 19.167 14.3728 19.165 14.325 19.1266C14.2217 19.0437 14.2093 19.001 14.1781 18.8936C14.1676 18.8575 14.155 18.8141 14.1361 18.7594C14.0609 18.5419 14.463 18.8857 14.5765 19.0486C14.6456 19.1477 14.6937 19.1585 14.7657 19.1747C14.812 19.1851 14.8681 19.1977 14.9459 19.2374C15.0724 19.3018 15.0381 19.1752 14.9963 19.021C14.9723 18.9326 14.9459 18.8351 14.9459 18.7594C14.9459 18.6288 14.8674 18.6623 14.7667 18.7053C14.7071 18.7307 14.6398 18.7594 14.5765 18.7594C14.4146 18.7594 14.331 18.691 14.2278 18.6067C14.2223 18.6022 14.2168 18.5977 14.2112 18.5931C14.1284 18.5257 14.3088 18.5461 14.5236 18.5703C14.5971 18.5786 14.6746 18.5873 14.7469 18.5931C14.9121 18.6065 14.9231 18.5965 14.9644 18.5594C14.994 18.5327 15.0393 18.492 15.1688 18.4357C15.4782 18.3012 14.9698 18.3593 14.7469 18.4357C14.623 18.4782 14.519 18.4498 14.396 18.4162C14.2977 18.3894 14.1874 18.3593 14.0451 18.3593Z" fill="#E8AA00"/>
<path fill-rule="evenodd" clip-rule="evenodd" d="M9.04688 12.3412H12.9224V15.8755C12.9224 15.8755 12.5063 17.6361 10.9846 17.6361C9.46292 17.6361 9.04688 15.8755 9.04688 15.8755V12.3412Z" fill="#C51918"/>
<path fill-rule="evenodd" clip-rule="evenodd" d="M11.5067 12.2899H10.4922V14.3189H9.04297V15.0435H10.4922V17.6522H11.5067V15.0435H12.956V14.3189H11.5067V12.2899Z" fill="#F7FCFF"/>
<path fill-rule="evenodd" clip-rule="evenodd" d="M9.69953 13.3089C9.79681 13.3089 9.84322 13.2268 9.79176 13.1546C9.76472 13.1166 9.70867 13.1056 9.66659 13.13C9.66281 13.1322 9.65928 13.1346 9.65599 13.1372C9.6405 13.1333 9.62156 13.128 9.59973 13.1214C9.58014 13.1154 9.55887 13.1156 9.53945 13.122C9.51592 13.1298 9.50257 13.1057 9.51391 12.9558C9.52474 12.914 9.58205 12.8882 9.71557 12.8882C9.95954 12.8882 10.0598 12.9143 10.0598 12.9372V13.2957L9.94137 13.4026C9.88431 13.454 9.92472 13.5421 10.0054 13.5421H10.0598V13.8166C9.98533 13.8746 9.91878 13.9018 9.86049 13.9018C9.64225 13.9018 9.51963 13.8204 9.51625 13.7244C9.51718 13.6962 9.51845 13.6754 9.51938 13.6613C9.525 13.663 9.53127 13.6651 9.53818 13.6675C9.55815 13.6744 9.58019 13.6747 9.6004 13.6683L9.6087 13.6656C9.61651 13.663 9.62104 13.6614 9.62357 13.6631C9.62708 13.6653 9.62674 13.6736 9.62593 13.6933L9.62593 13.6933L9.62593 13.6933C9.62563 13.7006 9.62527 13.7095 9.62501 13.7201C9.62392 13.7653 9.66358 13.8027 9.71359 13.8037C9.76361 13.8046 9.80503 13.7688 9.80612 13.7237C9.80995 13.5654 9.72114 13.4743 9.57372 13.5053C9.48673 13.4792 9.42587 13.4822 9.37841 13.5359C9.34354 13.5753 9.33887 13.6076 9.33517 13.7244C9.34188 13.925 9.55338 14.0653 9.86049 14.0653C9.97888 14.0653 10.0962 14.0123 10.2129 13.9119C10.2308 13.8964 10.2409 13.8751 10.2409 13.8527V13.4604C10.2409 13.4339 10.227 13.4104 10.2054 13.3955L10.2144 13.3874C10.2314 13.372 10.2409 13.3512 10.2409 13.3296V12.9372C10.2409 12.7697 10.0681 12.7247 9.71557 12.7247C9.50779 12.7247 9.37186 12.786 9.33538 12.9311C9.31483 13.179 9.38827 13.3269 9.56983 13.2846C9.62599 13.3007 9.66758 13.3089 9.69953 13.3089ZM12.245 13.1546C12.1935 13.2268 12.2399 13.3089 12.3372 13.3089C12.3692 13.3089 12.4107 13.3007 12.4669 13.2846C12.6485 13.3269 12.7219 13.179 12.7013 12.9311C12.6649 12.786 12.5289 12.7247 12.3212 12.7247C11.9686 12.7247 11.7958 12.7697 11.7958 12.9372V13.3296C11.7958 13.3512 11.8053 13.372 11.8223 13.3874L11.8313 13.3955C11.8097 13.4104 11.7958 13.4339 11.7958 13.4604V13.8527C11.7958 13.8751 11.8059 13.8964 11.8239 13.9119C11.9406 14.0123 12.0578 14.0653 12.1762 14.0653C12.4834 14.0653 12.6948 13.925 12.7016 13.7244C12.6979 13.6076 12.6932 13.5753 12.6583 13.5359C12.6109 13.4822 12.55 13.4792 12.463 13.5053C12.3156 13.4743 12.2268 13.5654 12.2306 13.7237C12.2317 13.7688 12.2731 13.8046 12.3231 13.8037C12.3732 13.8027 12.4128 13.7653 12.4117 13.7201C12.4115 13.7095 12.4111 13.7006 12.4108 13.6933C12.41 13.6736 12.4096 13.6653 12.4132 13.6631C12.4157 13.6614 12.4202 13.663 12.428 13.6656L12.4363 13.6683C12.4565 13.6747 12.4786 13.6744 12.4985 13.6675C12.5055 13.6651 12.5117 13.663 12.5174 13.6613C12.5183 13.6754 12.5195 13.6962 12.5205 13.7244C12.5171 13.8204 12.3945 13.9018 12.1762 13.9018C12.1179 13.9018 12.0514 13.8746 11.977 13.8166V13.5421H12.0313C12.112 13.5421 12.1524 13.454 12.0954 13.4026L11.977 13.2957V12.9372C11.977 12.9143 12.0772 12.8882 12.3212 12.8882C12.4547 12.8882 12.512 12.914 12.5228 12.9558C12.5342 13.1057 12.5208 13.1298 12.4973 13.122C12.4779 13.1156 12.4566 13.1154 12.437 13.1214C12.4152 13.128 12.3962 13.1333 12.3807 13.1372C12.3775 13.1346 12.3739 13.1322 12.3701 13.13C12.3281 13.1056 12.272 13.1166 12.245 13.1546ZM12.5502 13.654L12.5463 13.6539L12.5489 13.6541L12.5502 13.654ZM12.3372 15.9176C12.2399 15.9176 12.1935 15.8355 12.245 15.7633C12.272 15.7253 12.3281 15.7143 12.3701 15.7387C12.3739 15.7409 12.3775 15.7433 12.3807 15.7459C12.3962 15.742 12.4152 15.7367 12.437 15.7301C12.4566 15.7241 12.4779 15.7243 12.4973 15.7307C12.5208 15.7385 12.5342 15.7144 12.5228 15.5645C12.512 15.5227 12.4547 15.4969 12.3212 15.4969C12.0772 15.4969 11.977 15.523 11.977 15.5459V15.9044L12.0954 16.0112C12.1524 16.0627 12.112 16.1508 12.0313 16.1508H11.977V16.4253C12.0514 16.4833 12.1179 16.5105 12.1762 16.5105C12.3945 16.5105 12.5171 16.4291 12.5205 16.3331C12.5195 16.3049 12.5183 16.2841 12.5174 16.27C12.5117 16.2717 12.5055 16.2738 12.4985 16.2762C12.4786 16.2831 12.4565 16.2834 12.4363 16.277L12.428 16.2743C12.4202 16.2717 12.4157 16.2701 12.4132 16.2718C12.4096 16.274 12.41 16.2823 12.4108 16.302C12.4111 16.3093 12.4115 16.3182 12.4117 16.3288C12.4128 16.374 12.3732 16.4114 12.3231 16.4123C12.2731 16.4133 12.2317 16.3775 12.2306 16.3324C12.2268 16.1741 12.3156 16.083 12.463 16.114C12.55 16.0879 12.6109 16.0909 12.6583 16.1446C12.6932 16.184 12.6979 16.2163 12.7016 16.3331C12.6948 16.5337 12.4834 16.6739 12.1762 16.6739C12.0578 16.6739 11.9406 16.621 11.8239 16.5206C11.8059 16.5051 11.7958 16.4838 11.7958 16.4614V16.0691C11.7958 16.0426 11.8097 16.0191 11.8313 16.0042L11.8223 15.9961C11.8053 15.9807 11.7958 15.9599 11.7958 15.9383V15.5459C11.7958 15.3784 11.9686 15.3334 12.3212 15.3334C12.5289 15.3334 12.6649 15.3947 12.7013 15.5398C12.7219 15.7877 12.6485 15.9356 12.4669 15.8933C12.4107 15.9094 12.3692 15.9176 12.3372 15.9176ZM9.69953 15.9176C9.79681 15.9176 9.84322 15.8355 9.79176 15.7633C9.76472 15.7253 9.70867 15.7143 9.66659 15.7387C9.66281 15.7409 9.65928 15.7433 9.65599 15.7459C9.6405 15.742 9.62156 15.7367 9.59973 15.7301C9.58014 15.7241 9.55887 15.7243 9.53945 15.7307C9.51592 15.7385 9.50257 15.7144 9.51391 15.5645C9.52474 15.5227 9.58205 15.4969 9.71557 15.4969C9.95954 15.4969 10.0598 15.523 10.0598 15.5459V15.9044L9.94137 16.0112C9.88431 16.0627 9.92472 16.1508 10.0054 16.1508H10.0598V16.4253C9.98533 16.4833 9.91878 16.5105 9.86049 16.5105C9.64225 16.5105 9.51963 16.4291 9.51625 16.3331C9.51718 16.3049 9.51845 16.2841 9.51938 16.27C9.525 16.2717 9.53127 16.2738 9.53818 16.2762C9.55815 16.2831 9.58019 16.2834 9.6004 16.277C9.60351 16.2761 9.60626 16.2751 9.6087 16.2743C9.61651 16.2717 9.62104 16.2701 9.62357 16.2718C9.62708 16.274 9.62674 16.2823 9.62593 16.302C9.62563 16.3093 9.62527 16.3182 9.62501 16.3288C9.62392 16.374 9.66358 16.4114 9.71359 16.4123C9.76361 16.4133 9.80503 16.3775 9.80612 16.3324C9.80995 16.1741 9.72114 16.083 9.57372 16.114C9.48673 16.0879 9.42587 16.0909 9.37841 16.1446C9.34354 16.184 9.33887 16.2163 9.33517 16.3331C9.34188 16.5337 9.55338 16.6739 9.86049 16.6739C9.97888 16.6739 10.0962 16.621 10.2129 16.5206C10.2308 16.5051 10.2409 16.4838 10.2409 16.4614V16.0691C10.2409 16.0426 10.227 16.0191 10.2054 16.0042L10.2144 15.9961C10.2314 15.9807 10.2409 15.9599 10.2409 15.9383V15.5459C10.2409 15.3784 10.0681 15.3334 9.71557 15.3334C9.50779 15.3334 9.37186 15.3947 9.33538 15.5398C9.31483 15.7877 9.38827 15.9356 9.56983 15.8933C9.62599 15.9094 9.66758 15.9176 9.69953 15.9176Z" fill="#F7FCFF"/>
</g>
</g>
</svg>
