<svg width="32" height="24" viewBox="0 0 32 24" fill="none" xmlns="http://www.w3.org/2000/svg">
<mask id="mask0_5190_105358" style="mask-type:luminance" maskUnits="userSpaceOnUse" x="0" y="0" width="32" height="24">
<rect width="32" height="24" fill="white"/>
</mask>
<g mask="url(#mask0_5190_105358)">
<path fill-rule="evenodd" clip-rule="evenodd" d="M0 0V24H32V0H0Z" fill="#2E42A5"/>
<mask id="mask1_5190_105358" style="mask-type:luminance" maskUnits="userSpaceOnUse" x="0" y="0" width="32" height="24">
<path fill-rule="evenodd" clip-rule="evenodd" d="M0 0V24H32V0H0Z" fill="white"/>
</mask>
<g mask="url(#mask1_5190_105358)">
<path fill-rule="evenodd" clip-rule="evenodd" d="M0 0V8H32V0H0Z" fill="#F7FCFF"/>
<path fill-rule="evenodd" clip-rule="evenodd" d="M0 16V24H32V16H0Z" fill="#C51918"/>
<path fill-rule="evenodd" clip-rule="evenodd" d="M13.742 5.03626C13.742 5.03626 11.6372 4.04233 9.01941 4.04233C6.40161 4.04233 4.29688 5.03626 4.29688 5.03626C4.29688 5.03626 4.5311 9.03098 4.9013 11.1472C5.05937 12.0507 5.8191 13.3686 6.5069 13.9923C7.29087 14.7033 9.01941 15.5456 9.01941 15.5456C9.51962 15.2009 10.4549 15.0459 11.6503 13.9923C12.8458 12.9388 13.1429 11.1472 13.1429 11.1472L13.742 5.03626Z" fill="#2E42A5"/>
<path d="M13.4618 4.9057L14.3383 5.34342L13.7366 11.366C13.5259 12.6407 12.9985 13.6459 12.1553 14.3891C11.6978 14.7923 11.2513 15.0935 10.7725 15.3438C10.5023 15.4851 9.37197 16.0673 9.38182 16.0626C9.26857 16.1172 9.18268 16.165 9.11292 16.213L9.00359 16.2884L8.88556 16.2309C7.7148 15.6604 6.62249 14.8926 6.07968 14.4004C5.3387 13.7284 4.55742 12.3533 4.39085 11.4012C4.1418 9.97754 3.91846 8.01664 3.76172 5.34342L4.54912 4.93149C4.70468 7.58456 4.89246 9.69948 5.13702 11.0974C5.2817 11.9245 6.00215 13.1925 6.65939 13.7885C7.14512 14.229 7.92765 14.7175 9.00359 15.2487C9.06778 15.2111 9.1389 15.1738 9.22027 15.1346C9.22256 15.1335 9.95447 14.8085 10.2088 14.6755C10.655 14.4422 11.0697 14.1625 11.4966 13.7862C12.2452 13.1265 12.7124 12.238 12.9014 11.1093L13.4618 4.9057Z" fill="#C51918"/>
<path fill-rule="evenodd" clip-rule="evenodd" d="M5.54297 11.0242C5.54297 11.0242 5.73375 11.6079 6.08645 12.2634C6.6044 12.4 6.92132 12.3928 7.0215 12.2807C7.31128 11.9563 8.34232 11.8177 8.5347 12.0948C8.65339 12.2657 9.07057 12.3839 9.52673 12.2275L9.47587 12.2365C9.5551 12.2077 9.74069 12.1342 9.85508 12.0888C9.9029 12.0699 9.93827 12.0559 9.94823 12.0521C10.12 11.9873 10.2462 11.9533 10.3747 11.9437C10.5358 11.9318 10.6904 11.9618 10.8541 12.0397C11.214 12.2111 11.6581 12.291 11.9605 12.239C12.3302 11.5952 12.5937 11.0242 12.5937 11.0242L10.8384 9.33963L10.1408 10.0967L8.98161 8.44412L8.01116 10.0967L7.26701 9.33963L5.54297 11.0242ZM6.55773 13.0145C6.4767 12.9053 6.40012 12.7924 6.32814 12.6785C6.77741 12.7604 7.08246 12.7173 7.25217 12.5274C7.33233 12.4376 7.57017 12.3506 7.84078 12.3143C7.96694 12.2973 8.08798 12.2931 8.18078 12.3019C8.22336 12.306 8.25768 12.3127 8.28078 12.3206C8.28826 12.3232 8.28803 12.3229 8.28027 12.3118L8.27885 12.3097C8.48575 12.6056 9.04754 12.7642 9.57759 12.5715L9.52673 12.5805C9.67008 12.5364 9.92827 12.4349 10.0211 12.3984L10.0211 12.3984L10.0534 12.3858C10.2006 12.3302 10.302 12.3029 10.3966 12.2959C10.5057 12.2878 10.6086 12.3077 10.7254 12.3633C11.0441 12.5151 11.4146 12.6054 11.7411 12.6077C11.6715 12.7203 11.5996 12.8323 11.5263 12.9411C11.2724 13 10.8797 12.9225 10.563 12.7495C10.4149 12.6687 10.2735 12.6372 10.126 12.6497C10.0095 12.6597 9.89642 12.6946 9.7437 12.7607C9.73479 12.7646 9.70342 12.7788 9.66118 12.798C9.56129 12.8434 9.4006 12.9165 9.33219 12.945L9.38963 12.9334C8.99318 13.0863 8.64617 12.9736 8.54709 12.81C8.37029 12.5179 7.44367 12.6608 7.18297 12.9954C7.11347 13.0846 6.90372 13.1009 6.55773 13.0145ZM6.90273 13.4235C6.92226 13.4435 6.94198 13.4633 6.96189 13.4827C7.86508 14.3634 8.98161 14.795 8.98161 14.795C8.98161 14.795 10.3115 14.3926 11.0663 13.5454C11.1307 13.4731 11.1952 13.3948 11.2594 13.312C10.9841 13.2984 10.6816 13.2087 10.4189 13.0653C10.3224 13.0126 10.2393 12.9941 10.1511 13.0016C10.0731 13.0083 9.9877 13.0347 9.86234 13.0889C9.85896 13.0904 9.85077 13.0941 9.83872 13.0995C9.76196 13.1341 9.52885 13.239 9.38963 13.2864L9.44706 13.2748C8.97986 13.4696 8.4838 13.3158 8.29032 13.024C8.27317 13.0173 8.24627 13.0113 8.21217 13.0076C8.13455 12.9991 8.03205 13.0032 7.92489 13.0197C7.69529 13.0551 7.49478 13.1393 7.42847 13.2244C7.31699 13.3675 7.14217 13.4307 6.90273 13.4235Z" fill="white"/>
<path fill-rule="evenodd" clip-rule="evenodd" d="M7.14843 5.88619H6.44531L6.99065 5.37531L6.44531 4.83546H7.14843L7.44531 4.31143L7.74339 4.83546H8.44531L7.92724 5.34289L8.38726 5.88619H7.74339L7.44531 6.43919L7.14843 5.88619Z" fill="#FECA00"/>
<path fill-rule="evenodd" clip-rule="evenodd" d="M10.4609 5.88619H9.75781L10.3032 5.37531L9.75781 4.83546H10.4609L10.7578 4.31143L11.0559 4.83546H11.7578L11.2397 5.34289L11.6998 5.88619H11.0559L10.7578 6.43919L10.4609 5.88619Z" fill="#FECA00"/>
<path fill-rule="evenodd" clip-rule="evenodd" d="M8.60156 7.5675H7.89844L8.44378 7.05662L7.89844 6.51676H8.60156L8.89844 5.99274L9.19651 6.51676H9.89844L9.38036 7.02419L9.84038 7.5675H9.19651L8.89844 8.1205L8.60156 7.5675Z" fill="#FECA00"/>
</g>
</g>
</svg>
