<svg width="32" height="24" viewBox="0 0 32 24" fill="none" xmlns="http://www.w3.org/2000/svg">
<mask id="mask0_5190_105337" style="mask-type:luminance" maskUnits="userSpaceOnUse" x="0" y="0" width="32" height="24">
<rect width="32" height="24" fill="white"/>
</mask>
<g mask="url(#mask0_5190_105337)">
<path fill-rule="evenodd" clip-rule="evenodd" d="M0 0V24H32V0H0Z" fill="#3D58DB"/>
<mask id="mask1_5190_105337" style="mask-type:luminance" maskUnits="userSpaceOnUse" x="0" y="0" width="32" height="24">
<path fill-rule="evenodd" clip-rule="evenodd" d="M0 0V24H32V0H0Z" fill="white"/>
</mask>
<g mask="url(#mask1_5190_105337)">
<path fill-rule="evenodd" clip-rule="evenodd" d="M0 0V8H32V0H0Z" fill="#F7FCFF"/>
<path fill-rule="evenodd" clip-rule="evenodd" d="M0 16V24H32V16H0Z" fill="#E31D1C"/>
<path d="M15.6053 6.03036L16.1025 5.97747L16.0549 5.53036H15.6053H6.34617H5.87875L5.8473 5.99673L6.34617 6.03036L5.8473 5.99682L5.84728 5.99703L5.84723 5.99783L5.84702 6.0009L5.84623 6.01282L5.84318 6.05908L5.83184 6.23527C5.82219 6.38765 5.80864 6.6069 5.79305 6.87485C5.76189 7.4106 5.7225 8.14182 5.68968 8.92299C5.625 10.4626 5.58211 12.265 5.69413 13.1067C5.9127 14.7492 6.91284 18.4363 10.7812 20.1073L10.9829 20.1944L11.1835 20.1047C14.8577 18.4618 16.0866 15.1532 16.3701 13.1094C16.5131 12.078 16.4404 10.2732 16.34 8.77335C16.2891 8.01333 16.2298 7.31498 16.1832 6.80679C16.1599 6.55259 16.1398 6.34572 16.1254 6.2022C16.1183 6.13043 16.1125 6.07449 16.1086 6.03637L16.1041 5.9928L16.1029 5.98151L16.1026 5.97857L16.1025 5.97779L16.1025 5.97757C16.1025 5.97751 16.1025 5.97747 15.6053 6.03036Z" fill="#E31D1C" stroke="white"/>
<mask id="mask2_5190_105337" style="mask-type:luminance" maskUnits="userSpaceOnUse" x="5" y="5" width="12" height="16">
<path d="M15.6053 6.03036L16.1025 5.97747L16.0549 5.53036H15.6053H6.34617H5.87875L5.8473 5.99673L6.34617 6.03036L5.8473 5.99682L5.84728 5.99703L5.84723 5.99783L5.84702 6.0009L5.84623 6.01282L5.84318 6.05908L5.83184 6.23527C5.82219 6.38765 5.80864 6.6069 5.79305 6.87485C5.76189 7.4106 5.7225 8.14182 5.68968 8.92299C5.625 10.4626 5.58211 12.265 5.69413 13.1067C5.9127 14.7492 6.91284 18.4363 10.7812 20.1073L10.9829 20.1944L11.1835 20.1047C14.8577 18.4618 16.0866 15.1532 16.3701 13.1094C16.5131 12.078 16.4404 10.2732 16.34 8.77335C16.2891 8.01333 16.2298 7.31498 16.1832 6.80679C16.1599 6.55259 16.1398 6.34572 16.1254 6.2022C16.1183 6.13043 16.1125 6.07449 16.1086 6.03637L16.1041 5.9928L16.1029 5.98151L16.1026 5.97857L16.1025 5.97779L16.1025 5.97757C16.1025 5.97751 16.1025 5.97747 15.6053 6.03036Z" fill="white" stroke="white"/>
</mask>
<g mask="url(#mask2_5190_105337)">
<path fill-rule="evenodd" clip-rule="evenodd" d="M10.2603 6.58978C10.2603 6.58978 10.4668 6.9044 10.5592 7.38549C10.6517 7.86657 10.6676 8.70949 10.6676 8.70949L8.70872 8.4683V9.95359L10.7114 9.69855L10.6788 11.1083C10.6788 11.1083 10.0797 11.1704 9.58831 11.1083C9.09693 11.0462 8.12891 10.786 8.12891 10.786V12.4864C8.12891 12.4864 9.11241 12.1717 9.58831 12.0995C10.0642 12.0273 10.6788 12.0995 10.6788 12.0995V14.1878H11.4918V12.0995C11.4918 12.0995 12.3806 12.0223 12.9108 12.1059C13.441 12.1895 13.9439 12.4864 13.9439 12.4864V10.786C13.9439 10.786 13.4344 11.0398 12.9538 11.103C12.4733 11.1662 11.4918 11.1083 11.4918 11.1083L11.5244 9.69855C11.5244 9.69855 12.1896 9.62968 12.5628 9.68034C12.9361 9.731 13.4032 9.95359 13.4032 9.95359V8.4683C13.4032 8.4683 12.9479 8.71605 12.5897 8.76099C12.2314 8.80593 11.4806 8.70949 11.4806 8.70949C11.4806 8.70949 11.4939 7.83962 11.571 7.41606C11.648 6.9925 11.8661 6.58978 11.8661 6.58978H10.2603Z" fill="#F7FCFF"/>
<path fill-rule="evenodd" clip-rule="evenodd" d="M6.89844 16.2453C6.89844 16.2453 7.33793 15.302 8.05307 15.1227C8.7682 14.9433 9.51808 15.684 9.51808 15.684C9.51808 15.684 9.97598 14.1876 11.0921 14.1876C12.2082 14.1876 12.5999 15.684 12.5999 15.684C12.5999 15.684 13.0761 15.1227 13.7609 15.1227C14.4456 15.1227 15.0801 16.2453 15.0801 16.2453C15.0801 16.2453 13.0347 19.9587 10.9893 19.9587C8.94384 19.9587 6.89844 16.2453 6.89844 16.2453Z" fill="#2E42A5"/>
</g>
</g>
</g>
</svg>
