<svg width="32" height="24" viewBox="0 0 32 24" fill="none" xmlns="http://www.w3.org/2000/svg">
<mask id="mask0_5190_105241" style="mask-type:luminance" maskUnits="userSpaceOnUse" x="0" y="0" width="32" height="24">
<rect width="32" height="24" fill="white"/>
</mask>
<g mask="url(#mask0_5190_105241)">
<path fill-rule="evenodd" clip-rule="evenodd" d="M0 0V24H32V0H0Z" fill="#F7FCFF"/>
<mask id="mask1_5190_105241" style="mask-type:luminance" maskUnits="userSpaceOnUse" x="0" y="0" width="32" height="24">
<path fill-rule="evenodd" clip-rule="evenodd" d="M0 0V24H32V0H0Z" fill="white"/>
</mask>
<g mask="url(#mask1_5190_105241)">
<path fill-rule="evenodd" clip-rule="evenodd" d="M0 12V24H32V12H0Z" fill="#56C6F5"/>
<path fill-rule="evenodd" clip-rule="evenodd" d="M10.2537 9.02848C10.2463 8.94397 10.2286 8.87092 10.198 8.81396C9.94115 8.33521 10.0241 7.73614 10.0241 7.73614C10.0241 7.73614 9.71741 8.4377 9.53744 9.09821C9.34825 8.79062 9.28211 8.48247 9.28211 8.48247C9.28211 8.48247 9.15967 10.42 9.53401 10.8791C9.90835 11.3382 10.1579 11.5399 10.1579 11.5399C10.1579 11.5399 10.1863 10.7354 10.0773 10.1062C10.1541 9.84367 10.2234 9.55612 10.2482 9.30854C10.2973 9.27216 10.4268 9.17494 10.5888 9.04273C10.5205 9.41951 10.5172 9.62423 10.5172 9.62423C10.5172 9.62423 11.9277 8.60003 11.9636 8.0579C11.9994 7.51577 12.3873 7.05171 12.3873 7.05171C12.3873 7.05171 12.0666 7.27116 11.7004 7.56544C11.7972 7.11037 12.097 6.75171 12.097 6.75171C12.097 6.75171 10.4947 7.84811 10.3634 8.42574C10.3063 8.67699 10.2731 8.87966 10.2537 9.02848ZM10.3223 12.3589C10.1687 12.0688 9.50014 10.8529 9.03382 10.7471C8.50398 10.6269 8.1063 10.1712 8.1063 10.1712C8.1063 10.1712 8.93857 11.9252 9.48854 12.1453C9.93021 12.322 10.221 12.3925 10.3185 12.4134C10.3024 12.6499 10.2996 12.8132 10.2996 12.8132C10.2996 12.8132 10.5594 12.6249 10.9572 12.186C11.3551 11.7471 11.3342 9.8058 11.3342 9.8058C11.3342 9.8058 11.1766 10.3897 10.753 10.73C10.4689 10.9583 10.3619 11.8178 10.3223 12.3589ZM9.07089 12.1754C9.6762 12.1718 10.6074 13.6561 10.6074 13.6561C10.6074 13.6561 10.2466 13.6759 9.61642 13.5763C8.98619 13.4767 8.00391 11.7854 8.00391 11.7854C8.00391 11.7854 8.46557 12.1789 9.07089 12.1754ZM12.0215 15.6323C12.0215 15.6323 12.3807 13.7408 11.8414 13.2999C11.302 12.8589 11.2068 12.2 11.2068 12.2C11.2068 12.2 10.7277 14.2975 11.2068 14.8407C11.686 15.3838 12.0215 15.6323 12.0215 15.6323ZM9.84522 15.1216C10.1975 15.5392 11.3197 15.1216 11.3197 15.1216C11.3197 15.1216 11.5669 15.3462 10.6769 14.5328C9.78697 13.7194 7.97605 14.2331 8.46341 14.2331C8.95078 14.2331 9.49299 14.704 9.84522 15.1216ZM10.6769 17.342C11.3299 17.8949 12.7407 16.5801 12.7407 16.5801C12.7407 16.5801 12.3775 16.1403 11.7044 15.8161C11.0312 15.4919 8.54823 15.8161 8.54823 15.8161L9.65323 16.3079C9.65323 16.3079 8.42322 16.789 8.74971 16.7622C9.0762 16.7353 10.024 16.789 10.6769 17.342Z" fill="#006923"/>
<path fill-rule="evenodd" clip-rule="evenodd" d="M19.2143 16.1964C19.2143 16.1964 18.6529 15.253 19.2143 14.7973C19.7756 14.3415 19.9978 14.6447 19.9978 14.1207C19.9978 13.5967 20.0546 13.7527 20.3304 13.4926C20.6063 13.2325 20.4109 12.6007 20.7803 12.9166C21.1497 13.2325 21.2186 12.6267 21.2186 13.8851C21.2186 15.1436 21.2186 12.7437 21.2186 12.0369C21.2186 11.3301 20.7803 11.4974 20.7803 11.0234C20.7803 10.5494 20.3419 9.8414 20.7803 9.8414C21.2186 9.8414 21.4763 10.3681 21.4763 10.3681C21.4763 10.3681 21.9071 11.1023 21.9071 10.3681C21.9071 9.63397 21.1402 9.85223 20.7803 9.04209C20.4203 8.23195 20.4772 9.13295 19.9978 8.08903C19.5184 7.04511 18.9477 6.71385 19.4727 6.71385C19.9978 6.71385 19.8806 6.71385 20.3304 6.71385C20.7803 6.71385 21.4763 6.34022 21.4763 6.71385C21.4763 7.08747 21.4763 6.91626 21.4763 7.50264C21.4763 8.08903 21.9071 8.08903 21.9071 8.08903C21.9071 8.08903 22.1413 6.91626 22.4354 7.50264C22.7296 8.08903 22.5293 9.04209 22.7446 9.04209C22.9599 9.04209 22.7817 8.05718 23.2518 8.81154C23.722 9.56591 23.2518 10.0771 23.2518 10.3681C23.2518 10.6591 22.7446 11.3721 22.7446 11.3721C22.7446 11.3721 22.8436 11.7208 23.2518 11.3721C23.66 11.0234 24.0472 10.6747 24.0472 11.0234C24.0472 11.3721 24.8427 11.4804 24.0472 12.0369C23.2518 12.5934 23.759 13.1505 23.2518 13.1505C22.7446 13.1505 22.1469 13.8851 21.9071 13.8851C21.6672 13.8851 20.7701 14.4476 21.2186 14.4476C21.6672 14.4476 22.1263 13.3227 22.4354 13.8851C22.7446 14.4476 22.7405 13.7938 22.9962 14.1207C23.2518 14.4476 23.5075 16.2213 23.2518 15.5093C22.9962 14.7973 22.5955 14.7973 21.9071 14.7973C21.2186 14.7973 19.8806 14.8487 20.3304 15.179C20.7803 15.5093 21.2855 14.8487 21.4763 15.179C21.6672 15.5093 21.6117 15.8396 21.9071 15.5093C22.2024 15.179 22.493 15.5093 22.7446 15.5093C22.9962 15.5093 22.493 15.879 22.7446 16.1964C22.9962 16.5138 23.5569 16.9365 22.9962 16.9365C22.4354 16.9365 22.1469 16.4882 21.9071 16.9365C21.6672 17.3849 21.657 18.1635 21.2186 17.55C20.7803 16.9365 19.9978 17.2479 19.9978 16.9365C19.9978 16.6252 20.169 16.5749 19.6916 16.5749C19.2143 16.5749 19.2143 16.1964 19.2143 16.1964Z" fill="#009933"/>
<path fill-rule="evenodd" clip-rule="evenodd" d="M21.517 9.45001C21.517 9.58808 21.4087 9.70001 21.2751 9.70001C21.1415 9.70001 21.0331 9.58808 21.0331 9.45001C21.0331 9.31194 21.1415 9.20001 21.2751 9.20001C21.4087 9.20001 21.517 9.31194 21.517 9.45001ZM10.3396 10C10.4732 10 10.5815 9.88808 10.5815 9.75001C10.5815 9.61194 10.4732 9.50001 10.3396 9.50001C10.206 9.50001 10.0977 9.61194 10.0977 9.75001C10.0977 9.88808 10.206 10 10.3396 10ZM10.5815 11.05C10.5815 11.1881 10.4732 11.3 10.3396 11.3C10.206 11.3 10.0977 11.1881 10.0977 11.05C10.0977 10.9119 10.206 10.8 10.3396 10.8C10.4732 10.8 10.5815 10.9119 10.5815 11.05ZM10.7267 13.6C10.8603 13.6 10.9686 13.4881 10.9686 13.35C10.9686 13.2119 10.8603 13.1 10.7267 13.1C10.5931 13.1 10.4848 13.2119 10.4848 13.35C10.4848 13.4881 10.5931 13.6 10.7267 13.6ZM12.6622 16.1C12.7958 16.1 12.9041 15.9881 12.9041 15.85C12.9041 15.7119 12.7958 15.6 12.6622 15.6C12.5286 15.6 12.4202 15.7119 12.4202 15.85C12.4202 15.9881 12.5286 16.1 12.6622 16.1ZM21.9525 12.3C22.0861 12.3 22.1944 12.1881 22.1944 12.05C22.1944 11.9119 22.0861 11.8 21.9525 11.8C21.8189 11.8 21.7106 11.9119 21.7106 12.05C21.7106 12.1881 21.8189 12.3 21.9525 12.3ZM21.4202 14.05C21.4202 14.1881 21.3119 14.3 21.1783 14.3C21.0447 14.3 20.9364 14.1881 20.9364 14.05C20.9364 13.9119 21.0447 13.8 21.1783 13.8C21.3119 13.8 21.4202 13.9119 21.4202 14.05ZM19.146 16.5C19.2797 16.5 19.388 16.3881 19.388 16.25C19.388 16.1119 19.2797 16 19.146 16C19.0124 16 18.9041 16.1119 18.9041 16.25C18.9041 16.3881 19.0124 16.5 19.146 16.5ZM13.0009 16.55C13.0009 16.6881 12.8926 16.8 12.7589 16.8C12.6253 16.8 12.517 16.6881 12.517 16.55C12.517 16.4119 12.6253 16.3 12.7589 16.3C12.8926 16.3 13.0009 16.4119 13.0009 16.55Z" fill="#C51918"/>
<path fill-rule="evenodd" clip-rule="evenodd" d="M18.0391 19.8199C18.0391 19.615 14.9386 17.4782 14.1064 17.0069C13.2742 16.5356 9.21041 13.9416 10.3171 10.0002H10.1496C10.1496 10.0002 9.40067 14.8567 14.5607 17.8755C16.9102 19.4516 17.0271 19.8199 17.0271 19.8199C17.0271 19.8199 18.0391 20.0247 18.0391 19.8199Z" fill="#FECA00"/>
<path fill-rule="evenodd" clip-rule="evenodd" d="M13.9257 19.8199C13.9257 19.615 17.0262 17.4782 17.8584 17.0069C18.6906 16.5356 22.7544 13.9416 21.6478 10.0002H21.8152C21.8152 10.0002 22.5642 14.8567 17.4041 17.8755C15.0547 19.4516 14.9377 19.8199 14.9377 19.8199C14.9377 19.8199 13.9257 20.0247 13.9257 19.8199Z" fill="#FECA00"/>
<path fill-rule="evenodd" clip-rule="evenodd" d="M16.0483 16.8857C18.2129 16.8857 19.9676 14.0838 19.9676 11.35C19.9676 8.6162 18.2129 7.20001 16.0483 7.20001C13.8837 7.20001 12.1289 8.6162 12.1289 11.35C12.1289 14.0838 13.8837 16.8857 16.0483 16.8857Z" fill="#56C6F5"/>
<path fill-rule="evenodd" clip-rule="evenodd" d="M14.3146 9.53886C14.3146 9.53886 14.9182 9.00647 14.6164 9.00647C14.5579 9.00647 14.4866 8.99504 14.4098 8.98272C14.0904 8.93148 13.6745 8.86476 13.6745 9.53886V10.6973L13.6743 10.7H13.5853C13.53 10.7 13.4853 10.7448 13.4853 10.8C13.4853 10.8552 13.53 10.9 13.5853 10.9H13.6635C13.6501 11.1474 13.6265 11.5874 13.6032 12.0272L13.4888 12.0372C13.4296 12.0424 13.3859 12.0946 13.391 12.1537L13.3984 12.2384C13.4036 12.2975 13.4558 12.3413 13.5149 12.3361L13.5873 12.3298C13.5604 12.8436 13.5378 13.2933 13.5378 13.3483C13.5378 13.4835 14.4561 13.4312 14.4561 13.4312C14.4561 13.4312 14.4275 12.8891 14.396 12.259L14.4576 12.2536C14.5167 12.2485 14.5605 12.1963 14.5553 12.1371L14.5479 12.0525C14.5427 11.9934 14.4906 11.9496 14.4314 11.9548L14.3812 11.9592C14.3627 11.5818 14.3445 11.1987 14.3319 10.9H14.4498C14.505 10.9 14.5498 10.8552 14.5498 10.8C14.5498 10.7448 14.505 10.7 14.4498 10.7H14.3237C14.318 10.5507 14.3146 10.4386 14.3146 10.382V9.53886Z" fill="white"/>
<path fill-rule="evenodd" clip-rule="evenodd" d="M13.8711 11H14.1937V11.4301H13.8711V11Z" fill="black"/>
<path fill-rule="evenodd" clip-rule="evenodd" d="M13.7773 12.5H14.315V13.5H13.7773V12.5Z" fill="black"/>
<path fill-rule="evenodd" clip-rule="evenodd" d="M16.3458 9.53886C16.3458 9.53886 16.9495 9.00647 16.6476 9.00647C16.5891 9.00647 16.5179 8.99504 16.441 8.98272C16.1216 8.93148 15.7057 8.86476 15.7057 9.53886V10.6973L15.7056 10.7H15.6165C15.5613 10.7 15.5165 10.7448 15.5165 10.8C15.5165 10.8552 15.5613 10.9 15.6165 10.9H15.6948C15.6814 11.1474 15.6577 11.5874 15.6345 12.0272L15.52 12.0372C15.4609 12.0424 15.4171 12.0946 15.4223 12.1537L15.4297 12.2384C15.4349 12.2975 15.487 12.3413 15.5462 12.3361L15.6186 12.3298C15.5917 12.8436 15.569 13.2933 15.569 13.3483C15.569 13.4835 16.4873 13.4312 16.4873 13.4312C16.4873 13.4312 16.4587 12.8891 16.4273 12.259L16.4888 12.2536C16.548 12.2485 16.5917 12.1963 16.5866 12.1371L16.5792 12.0525C16.574 11.9934 16.5218 11.9496 16.4627 11.9548L16.4124 11.9592C16.3939 11.5818 16.3758 11.1987 16.3631 10.9H16.481C16.5363 10.9 16.581 10.8552 16.581 10.8C16.581 10.7448 16.5363 10.7 16.481 10.7H16.355C16.3492 10.5507 16.3458 10.4386 16.3458 10.382V9.53886Z" fill="white"/>
<path fill-rule="evenodd" clip-rule="evenodd" d="M15.9023 11H16.2249V11.4301H15.9023V11Z" fill="black"/>
<path fill-rule="evenodd" clip-rule="evenodd" d="M15.8086 12.5H16.3462V13.5H15.8086V12.5Z" fill="black"/>
<path fill-rule="evenodd" clip-rule="evenodd" d="M18.2794 9.53886C18.2794 9.53886 18.883 9.00647 18.5812 9.00647C18.5227 9.00647 18.4514 8.99504 18.3746 8.98272C18.0552 8.93148 17.6393 8.86476 17.6393 9.53886V10.6973L17.6392 10.7H17.5501C17.4949 10.7 17.4501 10.7448 17.4501 10.8C17.4501 10.8552 17.4949 10.9 17.5501 10.9H17.6283C17.615 11.1474 17.5913 11.5874 17.5681 12.0272L17.4536 12.0372C17.3945 12.0424 17.3507 12.0946 17.3559 12.1537L17.3633 12.2384C17.3685 12.2975 17.4206 12.3413 17.4798 12.3361L17.5522 12.3298C17.5253 12.8436 17.5026 13.2933 17.5026 13.3483C17.5026 13.4835 18.4209 13.4312 18.4209 13.4312C18.4209 13.4312 18.3923 12.8891 18.3609 12.259L18.4224 12.2536C18.4816 12.2485 18.5253 12.1963 18.5202 12.1371L18.5128 12.0525C18.5076 11.9934 18.4554 11.9496 18.3963 11.9548L18.346 11.9592C18.3275 11.5818 18.3094 11.1987 18.2967 10.9H18.4146C18.4699 10.9 18.5146 10.8552 18.5146 10.8C18.5146 10.7448 18.4699 10.7 18.4146 10.7H18.2886C18.2828 10.5507 18.2794 10.4386 18.2794 10.382V9.53886Z" fill="white"/>
<path fill-rule="evenodd" clip-rule="evenodd" d="M17.8359 11H18.1585V11.4301H17.8359V11Z" fill="black"/>
<path fill-rule="evenodd" clip-rule="evenodd" d="M17.7422 12.5H18.2798V13.5H17.7422V12.5Z" fill="black"/>
<path fill-rule="evenodd" clip-rule="evenodd" d="M18.5153 6.39999H13.3863V7.16563L13.3519 7.16871C13.3519 7.16871 10.839 9.12143 11.5364 12.0466C12.2338 14.9718 15.0039 17.1411 15.0039 17.1411L15.1436 16.6363C15.1436 16.6363 12.504 13.0471 12.504 11.613C12.504 10.1788 13.002 8.83267 13.5293 8.62337C13.8464 8.49748 13.9011 8.52302 13.9876 8.56338C14.0448 8.59012 14.116 8.62337 14.2867 8.62337C14.715 8.62337 15.1436 8.31679 15.1436 8.31679C15.1436 8.31679 15.4416 8.62337 15.7183 8.62337C15.9951 8.62337 15.999 8.31679 15.999 8.31679V7.29999H16.03V8.31679C16.03 8.31679 16.0339 8.62337 16.3107 8.62337C16.5875 8.62337 16.8855 8.31679 16.8855 8.31679C16.8855 8.31679 17.314 8.62337 17.7423 8.62337C17.913 8.62337 17.9842 8.59012 18.0415 8.56338C18.1279 8.52302 18.1826 8.49748 18.4998 8.62337C19.0271 8.83267 19.5251 10.1788 19.5251 11.613C19.5251 13.0471 16.8855 16.6363 16.8855 16.6363L17.0251 17.1411C17.0251 17.1411 19.7953 14.9718 20.4927 12.0466C21.1901 9.12143 18.6772 7.16871 18.6772 7.16871L18.5153 7.15423V6.39999Z" fill="#E8AA00"/>
<path d="M13.3863 6.39999V5.89999H12.8863V6.39999H13.3863ZM18.5153 6.39999H19.0153V5.89999H18.5153V6.39999ZM13.3863 7.16563L13.4308 7.66365L13.8863 7.62292V7.16563H13.3863ZM13.3519 7.16871L13.3073 6.67069L13.161 6.68377L13.0451 6.7739L13.3519 7.16871ZM11.5364 12.0466L11.05 12.1626L11.5364 12.0466ZM15.0039 17.1411L14.6957 17.5348L15.2859 17.997L15.4858 17.2744L15.0039 17.1411ZM15.1436 16.6363L15.6255 16.7696L15.6902 16.5356L15.5464 16.3401L15.1436 16.6363ZM13.5293 8.62337L13.3448 8.15864L13.3448 8.15864L13.5293 8.62337ZM13.9876 8.56338L13.776 9.01642L13.776 9.01642L13.9876 8.56338ZM15.1436 8.31679L15.5021 7.9683L15.2024 7.65995L14.8527 7.91013L15.1436 8.31679ZM15.999 8.31679L16.499 8.32312V8.31679H15.999ZM15.999 7.29999V6.79999H15.499V7.29999H15.999ZM16.03 7.29999H16.53V6.79999H16.03V7.29999ZM16.03 8.31679H15.53L15.5301 8.32312L16.03 8.31679ZM16.8855 8.31679L17.1764 7.91013L16.8266 7.65995L16.5269 7.9683L16.8855 8.31679ZM18.0415 8.56338L18.253 9.01642L18.253 9.01642L18.0415 8.56338ZM18.4998 8.62337L18.3153 9.08809L18.4998 8.62337ZM16.8855 16.6363L16.4827 16.3401L16.3388 16.5356L16.4036 16.7696L16.8855 16.6363ZM17.0251 17.1411L16.5432 17.2744L16.7431 17.997L17.3334 17.5348L17.0251 17.1411ZM18.6772 7.16871L18.984 6.7739L18.868 6.68377L18.7217 6.67069L18.6772 7.16871ZM18.5153 7.15423H18.0153V7.61152L18.4708 7.65225L18.5153 7.15423ZM13.3863 6.89999H18.5153V5.89999H13.3863V6.89999ZM13.8863 7.16563V6.39999H12.8863V7.16563H13.8863ZM13.3964 7.66672L13.4308 7.66365L13.3417 6.66762L13.3073 6.67069L13.3964 7.66672ZM12.0227 11.9307C11.7149 10.6397 12.1104 9.55882 12.6049 8.77835C12.8523 8.38795 13.1206 8.07985 13.3268 7.86988C13.4296 7.76526 13.5159 7.68602 13.575 7.63413C13.6046 7.60821 13.6272 7.58919 13.6416 7.57732C13.6489 7.57139 13.654 7.56725 13.6569 7.56494C13.6583 7.56378 13.6592 7.56308 13.6595 7.56285C13.6597 7.56273 13.6597 7.56272 13.6595 7.56283C13.6595 7.56289 13.6593 7.56297 13.6592 7.56309C13.6591 7.56315 13.659 7.56325 13.659 7.56328C13.6588 7.5634 13.6587 7.56352 13.3519 7.16871C13.0451 6.7739 13.0449 6.77403 13.0447 6.77418C13.0446 6.77424 13.0444 6.77439 13.0443 6.77451C13.044 6.77474 13.0436 6.775 13.0433 6.7753C13.0425 6.77588 13.0416 6.77659 13.0406 6.77742C13.0384 6.77908 13.0357 6.78123 13.0325 6.78386C13.0259 6.78911 13.017 6.7963 13.006 6.80538C12.9839 6.82355 12.9532 6.84934 12.9154 6.88253C12.8399 6.94885 12.7353 7.04502 12.6134 7.16917C12.3702 7.41676 12.0539 7.77966 11.7602 8.24309C11.1727 9.17028 10.6604 10.5283 11.05 12.1626L12.0227 11.9307ZM15.0039 17.1411C15.3122 16.7475 15.3123 16.7475 15.3124 16.7476C15.3124 16.7476 15.3125 16.7477 15.3125 16.7477C15.3125 16.7477 15.3125 16.7477 15.3125 16.7477C15.3125 16.7477 15.3122 16.7475 15.3118 16.7472C15.3111 16.7466 15.3096 16.7454 15.3076 16.7438C15.3034 16.7405 15.2968 16.7351 15.2877 16.7278C15.2696 16.7131 15.2419 16.6904 15.2059 16.66C15.1338 16.5992 15.0283 16.5078 14.8988 16.3886C14.6395 16.1499 14.2856 15.8013 13.911 15.3651C13.1556 14.4855 12.3452 13.2831 12.0227 11.9307L11.05 12.1626C11.4249 13.7353 12.3483 15.0802 13.1523 16.0166C13.5574 16.4883 13.9397 16.8649 14.2216 17.1243C14.3627 17.2542 14.4791 17.3552 14.5612 17.4244C14.6023 17.4591 14.6348 17.4858 14.6576 17.5043C14.669 17.5135 14.678 17.5207 14.6844 17.5258C14.6875 17.5284 14.6901 17.5304 14.692 17.5319C14.6929 17.5326 14.6937 17.5333 14.6943 17.5337C14.6946 17.534 14.6949 17.5342 14.6951 17.5344C14.6952 17.5344 14.6954 17.5346 14.6954 17.5346C14.6955 17.5347 14.6957 17.5348 15.0039 17.1411ZM14.6617 16.503L14.522 17.0078L15.4858 17.2744L15.6255 16.7696L14.6617 16.503ZM12.004 11.613C12.004 12.089 12.2123 12.6684 12.4621 13.2118C12.7213 13.7753 13.0625 14.3773 13.3975 14.9238C13.7335 15.4719 14.0687 15.9732 14.3195 16.3369C14.4451 16.519 14.5498 16.6672 14.6234 16.7701C14.6602 16.8216 14.6893 16.8618 14.7093 16.8893C14.7193 16.9031 14.727 16.9137 14.7323 16.921C14.735 16.9246 14.737 16.9274 14.7384 16.9293C14.7391 16.9303 14.7397 16.931 14.7401 16.9316C14.7403 16.9319 14.7404 16.9321 14.7406 16.9322C14.7406 16.9323 14.7407 16.9324 14.7407 16.9324C14.7407 16.9325 14.7408 16.9325 15.1436 16.6363C15.5464 16.3401 15.5464 16.3401 15.5464 16.3401C15.5464 16.3401 15.5464 16.3401 15.5464 16.3401C15.5463 16.34 15.5462 16.3399 15.5461 16.3397C15.5459 16.3394 15.5455 16.3388 15.5449 16.3381C15.5438 16.3365 15.5421 16.3342 15.5397 16.331C15.535 16.3246 15.5279 16.3148 15.5186 16.302C15.4999 16.2762 15.4722 16.2379 15.4369 16.1885C15.3661 16.0895 15.2647 15.9461 15.1428 15.7693C14.8986 15.4152 14.5739 14.9295 14.2501 14.4011C13.9251 13.8711 13.6065 13.3068 13.3707 12.794C13.1256 12.261 13.004 11.854 13.004 11.613H12.004ZM13.3448 8.15864C13.078 8.26453 12.8779 8.48271 12.7329 8.69631C12.5811 8.9199 12.4521 9.19444 12.3471 9.49309C12.137 10.0912 12.004 10.8426 12.004 11.613H13.004C13.004 10.9492 13.1199 10.3104 13.2906 9.82458C13.3761 9.58126 13.4704 9.3904 13.5603 9.2579C13.657 9.11543 13.7169 9.08686 13.7137 9.08809L13.3448 8.15864ZM14.1991 8.11034C14.1394 8.08246 14.0075 8.01899 13.8115 8.03215C13.664 8.04205 13.5091 8.09343 13.3448 8.15864L13.7137 9.08809C13.7844 9.06005 13.8308 9.04433 13.8606 9.03576C13.891 9.02703 13.8934 9.0289 13.8784 9.02991C13.8699 9.03048 13.8567 9.03072 13.8402 9.02912C13.8233 9.02749 13.8068 9.02434 13.7918 9.0202C13.7773 9.01622 13.7673 9.01222 13.7642 9.01095C13.7629 9.01041 13.7634 9.01052 13.776 9.01642L14.1991 8.11034ZM14.2867 8.12337C14.2602 8.12337 14.2425 8.12207 14.2316 8.12086C14.2211 8.11968 14.2167 8.11854 14.2167 8.11853C14.2165 8.1185 14.2169 8.11858 14.2175 8.11879C14.2182 8.119 14.2185 8.11914 14.2183 8.11906C14.2168 8.11846 14.2144 8.11747 14.1991 8.11034L13.776 9.01642C13.8085 9.03158 13.877 9.06423 13.9725 9.08827C14.0661 9.11182 14.1685 9.12337 14.2867 9.12337V8.12337ZM15.1436 8.31679C14.8527 7.91013 14.8528 7.91006 14.8529 7.91C14.8529 7.90998 14.853 7.90991 14.853 7.90987C14.8532 7.90979 14.8533 7.90971 14.8534 7.90964C14.8536 7.9095 14.8537 7.90937 14.8539 7.90927C14.8542 7.90905 14.8544 7.9089 14.8545 7.90882C14.8547 7.90866 14.8546 7.90877 14.8541 7.90913C14.853 7.90985 14.8505 7.91157 14.8467 7.91413C14.839 7.91928 14.826 7.92775 14.8086 7.93845C14.7733 7.96007 14.7219 7.98951 14.6605 8.01879C14.528 8.08197 14.3927 8.12337 14.2867 8.12337V9.12337C14.609 9.12337 14.9021 9.01148 15.091 8.92137C15.1903 8.87401 15.2728 8.8268 15.3313 8.79094C15.3607 8.7729 15.3846 8.75742 15.402 8.7458C15.4107 8.73999 15.4178 8.73511 15.4233 8.73134C15.426 8.72946 15.4283 8.72784 15.4302 8.72653C15.4311 8.72587 15.4319 8.72528 15.4326 8.72477C15.433 8.72451 15.4333 8.72428 15.4336 8.72406C15.4338 8.72395 15.4339 8.72384 15.4341 8.72375C15.4341 8.7237 15.4342 8.72362 15.4343 8.7236C15.4344 8.72353 15.4345 8.72346 15.1436 8.31679ZM15.7183 8.12337C15.7385 8.12337 15.7371 8.12807 15.7092 8.11611C15.6833 8.10495 15.6506 8.08626 15.6146 8.06095C15.5796 8.03636 15.5489 8.01084 15.5271 7.99137C15.5164 7.98188 15.5086 7.97445 15.5041 7.97014C15.5019 7.968 15.5005 7.96668 15.5002 7.96632C15.5 7.96614 15.5001 7.9662 15.5004 7.96653C15.5005 7.96669 15.5008 7.96692 15.5011 7.96721C15.5012 7.96736 15.5014 7.96752 15.5015 7.96771C15.5016 7.9678 15.5017 7.96789 15.5018 7.96799C15.5019 7.96804 15.5019 7.96812 15.502 7.96814C15.502 7.96822 15.5021 7.9683 15.1436 8.31679C14.785 8.66528 14.7851 8.66537 14.7852 8.66545C14.7852 8.66548 14.7853 8.66557 14.7854 8.66562C14.7855 8.66574 14.7856 8.66587 14.7857 8.66599C14.786 8.66625 14.7862 8.66653 14.7865 8.66682C14.7871 8.66741 14.7878 8.66808 14.7885 8.66882C14.79 8.6703 14.7917 8.67209 14.7938 8.67415C14.7979 8.67828 14.8033 8.68355 14.8098 8.68979C14.8227 8.70225 14.8402 8.71877 14.8619 8.73802C14.9045 8.77603 14.9656 8.82716 15.0397 8.87921C15.167 8.96863 15.4184 9.12337 15.7183 9.12337V8.12337ZM15.999 8.31679C15.4991 8.31047 15.4991 8.31025 15.4991 8.31003C15.4991 8.30996 15.4991 8.30974 15.4991 8.3096C15.4991 8.30931 15.4991 8.30903 15.4991 8.30875C15.4991 8.30819 15.4991 8.30764 15.4991 8.30711C15.4991 8.30605 15.4992 8.30503 15.4992 8.30407C15.4992 8.30215 15.4993 8.30043 15.4994 8.29888C15.4995 8.29581 15.4996 8.29339 15.4998 8.29151C15.5001 8.28791 15.5004 8.2857 15.5006 8.2842C15.5007 8.28365 15.5019 8.27486 15.5089 8.2596C15.5163 8.2437 15.5372 8.20594 15.5838 8.17192C15.636 8.13372 15.6889 8.12337 15.7183 8.12337V9.12337C15.8862 9.12337 16.0434 9.07469 16.1742 8.97901C16.2993 8.8875 16.3731 8.7731 16.416 8.68056C16.4587 8.58866 16.4781 8.50322 16.4876 8.4452C16.4925 8.41495 16.4953 8.38879 16.4968 8.36842C16.4976 8.35816 16.4981 8.34915 16.4985 8.34159C16.4986 8.3378 16.4987 8.33435 16.4988 8.33127C16.4989 8.32973 16.4989 8.32828 16.4989 8.32692C16.4989 8.32624 16.4989 8.32558 16.499 8.32495C16.499 8.32463 16.499 8.32432 16.499 8.32402C16.499 8.32386 16.499 8.32364 16.499 8.32356C16.499 8.32334 16.499 8.32312 15.999 8.31679ZM15.499 7.29999V8.31679H16.499V7.29999H15.499ZM16.03 6.79999H15.999V7.79999H16.03V6.79999ZM15.53 7.29999V8.31679H16.53V7.29999H15.53ZM16.03 8.31679C15.5301 8.32312 15.5301 8.32334 15.5301 8.32356C15.5301 8.32364 15.5301 8.32386 15.5301 8.32402C15.5301 8.32432 15.5301 8.32463 15.5301 8.32495C15.5301 8.32558 15.5301 8.32624 15.5301 8.32692C15.5301 8.32828 15.5302 8.32973 15.5302 8.33127C15.5303 8.33435 15.5304 8.3378 15.5306 8.34159C15.5309 8.34915 15.5314 8.35816 15.5322 8.36842C15.5338 8.38879 15.5365 8.41495 15.5415 8.4452C15.5509 8.50322 15.5704 8.58866 15.613 8.68056C15.656 8.7731 15.7298 8.8875 15.8548 8.97901C15.9856 9.07469 16.1428 9.12337 16.3107 9.12337V8.12337C16.3402 8.12337 16.3931 8.13372 16.4453 8.17192C16.4918 8.20594 16.5127 8.2437 16.5201 8.2596C16.5272 8.27486 16.5283 8.28365 16.5284 8.2842C16.5287 8.2857 16.529 8.28791 16.5292 8.29151C16.5294 8.29339 16.5295 8.29581 16.5297 8.29888C16.5297 8.30043 16.5298 8.30215 16.5299 8.30407C16.5299 8.30503 16.5299 8.30605 16.5299 8.30711C16.5299 8.30764 16.5299 8.30819 16.53 8.30875C16.53 8.30903 16.53 8.30931 16.53 8.3096C16.53 8.30974 16.53 8.30996 16.53 8.31003C16.53 8.31025 16.53 8.31047 16.03 8.31679ZM16.3107 9.12337C16.6106 9.12337 16.862 8.96863 16.9893 8.87921C17.0634 8.82716 17.1245 8.77603 17.1672 8.73802C17.1888 8.71877 17.2064 8.70225 17.2193 8.68979C17.2258 8.68355 17.2311 8.67828 17.2352 8.67415C17.2373 8.67209 17.2391 8.6703 17.2405 8.66882C17.2413 8.66808 17.2419 8.66741 17.2425 8.66682C17.2428 8.66653 17.2431 8.66625 17.2433 8.66599C17.2434 8.66587 17.2436 8.66574 17.2437 8.66562C17.2437 8.66557 17.2438 8.66548 17.2438 8.66545C17.2439 8.66537 17.244 8.66528 16.8855 8.31679C16.5269 7.9683 16.527 7.96822 16.5271 7.96814C16.5271 7.96812 16.5272 7.96804 16.5272 7.96799C16.5273 7.96789 16.5274 7.9678 16.5275 7.96771C16.5277 7.96752 16.5278 7.96736 16.528 7.96721C16.5283 7.96692 16.5285 7.96669 16.5286 7.96653C16.529 7.9662 16.529 7.96614 16.5289 7.96632C16.5285 7.96668 16.5272 7.968 16.5249 7.97014C16.5205 7.97445 16.5126 7.98188 16.502 7.99137C16.4801 8.01084 16.4494 8.03636 16.4144 8.06095C16.3784 8.08626 16.3458 8.10495 16.3198 8.11611C16.292 8.12807 16.2905 8.12337 16.3107 8.12337V9.12337ZM16.8855 8.31679C16.5946 8.72346 16.5947 8.72353 16.5948 8.7236C16.5948 8.72362 16.5949 8.7237 16.595 8.72375C16.5951 8.72384 16.5952 8.72395 16.5954 8.72406C16.5957 8.72428 16.596 8.72451 16.5964 8.72477C16.5971 8.72528 16.5979 8.72587 16.5989 8.72653C16.6008 8.72784 16.6031 8.72946 16.6058 8.73134C16.6112 8.73511 16.6184 8.73999 16.6271 8.7458C16.6445 8.75742 16.6683 8.7729 16.6977 8.79094C16.7562 8.8268 16.8387 8.87401 16.938 8.92137C17.1269 9.01148 17.42 9.12337 17.7423 9.12337V8.12337C17.6363 8.12337 17.501 8.08197 17.3685 8.01879C17.3072 7.98951 17.2557 7.96007 17.2205 7.93845C17.203 7.92775 17.1901 7.91928 17.1823 7.91413C17.1785 7.91157 17.176 7.90985 17.175 7.90913C17.1744 7.90877 17.1743 7.90866 17.1745 7.90882C17.1746 7.9089 17.1748 7.90905 17.1751 7.90927C17.1753 7.90937 17.1755 7.9095 17.1757 7.90964C17.1758 7.90971 17.1759 7.90979 17.176 7.90987C17.1761 7.90991 17.1761 7.90998 17.1762 7.91C17.1763 7.91006 17.1764 7.91013 16.8855 8.31679ZM17.7423 9.12337C17.8605 9.12337 17.963 9.11182 18.0565 9.08827C18.152 9.06423 18.2206 9.03158 18.253 9.01642L17.8299 8.11034C17.8147 8.11747 17.8122 8.11846 17.8107 8.11906C17.8105 8.11914 17.8109 8.119 17.8115 8.11879C17.8122 8.11858 17.8125 8.1185 17.8124 8.11853C17.8123 8.11854 17.8079 8.11968 17.7974 8.12086C17.7866 8.12207 17.7689 8.12337 17.7423 8.12337V9.12337ZM18.253 9.01642C18.2657 9.01052 18.2661 9.01041 18.2648 9.01095C18.2617 9.01222 18.2518 9.01622 18.2373 9.0202C18.2222 9.02434 18.2058 9.02749 18.1889 9.02912C18.1723 9.03072 18.1592 9.03048 18.1506 9.02991C18.1356 9.0289 18.138 9.02703 18.1684 9.03576C18.1982 9.04433 18.2446 9.06005 18.3153 9.08809L18.6842 8.15864C18.5199 8.09343 18.365 8.04205 18.2176 8.03215C18.0215 8.01899 17.8896 8.08246 17.8299 8.11034L18.253 9.01642ZM18.3153 9.08809C18.3122 9.08686 18.372 9.11543 18.4687 9.2579C18.5586 9.3904 18.6529 9.58126 18.7384 9.82458C18.9091 10.3104 19.0251 10.9492 19.0251 11.613H20.0251C20.0251 10.8426 19.892 10.0912 19.6819 9.49309C19.577 9.19444 19.4479 8.9199 19.2961 8.69631C19.1512 8.48271 18.951 8.26453 18.6842 8.15864L18.3153 9.08809ZM19.0251 11.613C19.0251 11.854 18.9034 12.261 18.6584 12.794C18.4226 13.3068 18.1039 13.8711 17.779 14.4011C17.4551 14.9295 17.1304 15.4152 16.8863 15.7693C16.7644 15.9461 16.6629 16.0895 16.5922 16.1885C16.5568 16.2379 16.5291 16.2762 16.5104 16.302C16.5011 16.3148 16.494 16.3246 16.4893 16.331C16.487 16.3342 16.4852 16.3365 16.4841 16.3381C16.4836 16.3388 16.4832 16.3394 16.4829 16.3397C16.4828 16.3399 16.4827 16.34 16.4827 16.3401C16.4826 16.3401 16.4826 16.3401 16.4826 16.3401C16.4826 16.3401 16.4827 16.3401 16.8855 16.6363C17.2883 16.9325 17.2883 16.9325 17.2883 16.9324C17.2884 16.9324 17.2884 16.9323 17.2885 16.9322C17.2886 16.9321 17.2888 16.9319 17.289 16.9316C17.2894 16.931 17.2899 16.9303 17.2906 16.9293C17.292 16.9274 17.2941 16.9246 17.2967 16.921C17.302 16.9137 17.3098 16.9031 17.3198 16.8893C17.3397 16.8618 17.3688 16.8216 17.4056 16.7701C17.4792 16.6672 17.584 16.519 17.7095 16.3369C17.9603 15.9732 18.2955 15.4719 18.6316 14.9238C18.9665 14.3773 19.3078 13.7753 19.5669 13.2118C19.8168 12.6684 20.0251 12.089 20.0251 11.613H19.0251ZM16.4036 16.7696L16.5432 17.2744L17.507 17.0078L17.3674 16.503L16.4036 16.7696ZM17.0251 17.1411C17.3334 17.5348 17.3335 17.5347 17.3336 17.5346C17.3337 17.5346 17.3338 17.5344 17.3339 17.5344C17.3341 17.5342 17.3344 17.534 17.3347 17.5337C17.3353 17.5333 17.3361 17.5326 17.337 17.5319C17.3389 17.5304 17.3415 17.5284 17.3447 17.5258C17.3511 17.5207 17.36 17.5135 17.3714 17.5043C17.3942 17.4858 17.4268 17.4591 17.4678 17.4244C17.55 17.3552 17.6664 17.2542 17.8075 17.1243C18.0893 16.8649 18.4716 16.4883 18.8767 16.0166C19.6808 15.0802 20.6041 13.7353 20.979 12.1626L20.0063 11.9307C19.6839 13.2831 18.8734 14.4855 18.118 15.3651C17.7434 15.8013 17.3896 16.1499 17.1302 16.3886C17.0007 16.5078 16.8953 16.5992 16.8232 16.66C16.7871 16.6904 16.7595 16.7131 16.7413 16.7278C16.7323 16.7351 16.7256 16.7405 16.7215 16.7438C16.7194 16.7454 16.718 16.7466 16.7172 16.7472C16.7168 16.7475 16.7166 16.7477 16.7165 16.7477C16.7165 16.7477 16.7165 16.7477 16.7166 16.7477C16.7166 16.7477 16.7167 16.7476 16.7167 16.7476C16.7167 16.7475 16.7168 16.7475 17.0251 17.1411ZM20.979 12.1626C21.3687 10.5283 20.8563 9.17028 20.2688 8.24309C19.9751 7.77966 19.6588 7.41675 19.4157 7.16917C19.2937 7.04502 19.1892 6.94885 19.1136 6.88253C19.0758 6.84934 19.0451 6.82355 19.0231 6.80538C19.012 6.7963 19.0032 6.78911 18.9966 6.78386C18.9933 6.78123 18.9906 6.77908 18.9885 6.77742C18.9874 6.77659 18.9865 6.77588 18.9858 6.7753C18.9854 6.775 18.9851 6.77474 18.9848 6.77451C18.9846 6.77439 18.9844 6.77424 18.9843 6.77418C18.9842 6.77403 18.984 6.7739 18.6772 7.16871C18.3704 7.56352 18.3702 7.5634 18.3701 7.56328C18.37 7.56325 18.3699 7.56315 18.3698 7.56309C18.3697 7.56297 18.3696 7.56289 18.3695 7.56283C18.3694 7.56272 18.3694 7.56273 18.3695 7.56285C18.3698 7.56308 18.3707 7.56378 18.3722 7.56494C18.3751 7.56725 18.3802 7.57139 18.3874 7.57732C18.4018 7.58919 18.4245 7.60821 18.454 7.63413C18.5131 7.68602 18.5994 7.76526 18.7022 7.86988C18.9084 8.07985 19.1767 8.38795 19.4241 8.77835C19.9187 9.55882 20.3141 10.6397 20.0063 11.9307L20.979 12.1626ZM18.7217 6.67069L18.5598 6.65622L18.4708 7.65225L18.6327 7.66672L18.7217 6.67069ZM18.0153 6.39999V7.15423H19.0153V6.39999H18.0153Z" fill="#FFD018"/>
<path fill-rule="evenodd" clip-rule="evenodd" d="M13.1016 13.7849C13.1016 13.7849 13.416 12.9405 13.966 13.2219C14.5159 13.5034 14.4679 14.4833 14.9683 14.1341C15.4686 13.7849 15.1849 13.2219 15.9264 13.2219C16.6678 13.2219 16.5586 14.1341 17.0033 14.1341C17.4479 14.1341 17.4864 13.2219 17.9835 13.2219C18.4806 13.2219 18.9847 13.7849 18.9847 13.7849L16.0431 17.7874L13.1016 13.7849Z" fill="#8FC753"/>
<path fill-rule="evenodd" clip-rule="evenodd" d="M7.92888 18.4574L7.6125 18.031C7.6125 18.031 8.92457 18.031 9.10257 18.3396C9.15274 18.4265 9.17463 18.4929 9.19129 18.5435C9.23375 18.6723 9.24225 18.6981 9.59816 18.6981C10.0937 18.6981 9.59816 18.2064 9.3918 18.031C9.18545 17.8557 9.31111 17.55 9.59816 17.55C9.70878 17.55 9.90134 17.5246 10.138 17.4935C10.5155 17.4437 11.0052 17.3792 11.4539 17.3792C12.184 17.3792 11.5788 18.031 11.5788 18.031C11.5788 18.031 12.524 18.031 12.2894 17.7598C12.0547 17.4885 13.0773 17.1584 13.5191 17.1584C13.931 17.1584 15.7851 17.2509 16.0345 17.2634C16.2953 17.2509 18.2336 17.1584 18.6454 17.1584C19.0872 17.1584 20.1098 17.4885 19.8751 17.7598C19.6405 18.031 20.5857 18.031 20.5857 18.031C20.5857 18.031 19.9805 17.3792 20.7106 17.3792C21.1593 17.3792 21.649 17.4437 22.0265 17.4935C22.2632 17.5246 22.4557 17.55 22.5664 17.55C22.8534 17.55 22.9791 17.8557 22.7727 18.031C22.5664 18.2064 22.0708 18.6981 22.5664 18.6981C22.9223 18.6981 22.9308 18.6723 22.9732 18.5435C22.9899 18.4929 23.0118 18.4265 23.0619 18.3396C23.2336 18.042 24.4605 18.0314 24.5472 18.0311C24.5274 17.9948 24.5161 17.953 24.5161 17.9084C24.5161 17.7704 24.6244 17.6584 24.7581 17.6584C24.8917 17.6584 25 17.7704 25 17.9084C25 18.0465 24.8917 18.1584 24.7581 18.1584C24.669 18.1584 24.5913 18.1088 24.5492 18.0348L24.2356 18.4574L24.5622 18.8617C24.6062 18.7991 24.6775 18.7584 24.7581 18.7584C24.8917 18.7584 25 18.8704 25 19.0084C25 19.1465 24.8917 19.2584 24.7581 19.2584C24.6244 19.2584 24.5161 19.1465 24.5161 19.0084C24.5161 18.9799 24.5208 18.9525 24.5293 18.927C24.3443 18.8371 24.0247 18.6981 23.8174 18.6981H23.2399C23.3852 18.6981 24.1848 19.2257 23.9427 19.4543L23.9016 19.4932C23.6641 19.719 23.3543 20.0136 23.0619 19.8529C22.7525 19.6829 22.5664 19.4543 22.5664 19.4543L22.3239 18.6981C22.3239 18.6981 20.8947 18.3292 20.8947 18.5846C20.8947 18.8399 20.8907 18.965 20.3839 18.965C20.1003 18.965 19.8262 18.9168 19.5849 18.8745C19.395 18.8411 19.2254 18.8113 19.0872 18.8113C18.8896 18.8113 18.5842 18.8723 18.3583 18.9174C18.2256 18.9439 18.1202 18.965 18.0802 18.965C17.972 18.965 17.3933 18.9389 17.7899 18.6981C18.1865 18.4574 18.2779 18.2064 18.2779 18.2064C18.2779 18.2064 16.6904 18.4422 16.0623 18.4567V18.4574L16.0339 18.4572L16.0055 18.4574V18.4567C15.3827 18.4421 13.8866 18.2064 13.8866 18.2064C13.8866 18.2064 13.978 18.4574 14.3746 18.6981C14.7712 18.9389 14.1925 18.965 14.0843 18.965C14.0443 18.965 13.9389 18.9439 13.8062 18.9174C13.5803 18.8723 13.2749 18.8113 13.0773 18.8113C12.9391 18.8113 12.7695 18.8411 12.5796 18.8745C12.3383 18.9168 12.0642 18.965 11.7806 18.965C11.2738 18.965 11.2698 18.8399 11.2698 18.5846C11.2698 18.3292 9.84061 18.6981 9.84061 18.6981L9.59816 19.4543C9.59816 19.4543 9.41203 19.6829 9.10257 19.8529C8.81025 20.0136 8.50041 19.719 8.26287 19.4932L8.22186 19.4543C7.97969 19.2257 8.77935 18.6981 8.92457 18.6981H8.34716C8.04078 18.6981 7.48932 19.0016 7.48932 19.0016L7.92888 18.4574ZM7.24194 18.1584C7.37555 18.1584 7.48387 18.0465 7.48387 17.9084C7.48387 17.7704 7.37555 17.6584 7.24194 17.6584C7.10832 17.6584 7 17.7704 7 17.9084C7 18.0465 7.10832 18.1584 7.24194 18.1584ZM7.24194 19.2584C7.37555 19.2584 7.48387 19.1465 7.48387 19.0084C7.48387 18.8704 7.37555 18.7584 7.24194 18.7584C7.10832 18.7584 7 18.8704 7 19.0084C7 19.1465 7.10832 19.2584 7.24194 19.2584Z" fill="white"/>
<path fill-rule="evenodd" clip-rule="evenodd" d="M15.893 2.02948H16.093V2.24384H16.3387V2.44384H16.093V2.80789C16.3688 2.85448 16.5793 3.10184 16.5793 3.4C16.5793 3.73137 16.3193 4 15.9986 4C15.6779 4 15.418 3.73137 15.418 3.4C15.418 3.10589 15.6228 2.86121 15.893 2.8099V2.44384H15.6673V2.24384H15.893V2.02948Z" fill="#FFD018"/>
<path fill-rule="evenodd" clip-rule="evenodd" d="M13.7453 5.22586C13.4653 5.22586 12.875 5.52523 12.875 5.52523L13.334 6.54318L16.1027 6.4393L18.8713 6.54318L19.3304 5.52523C19.3304 5.52523 18.74 5.22586 18.4601 5.22586C18.3371 5.22586 18.3215 5.15352 18.304 5.07238C18.2817 4.96874 18.2562 4.85073 18 4.85073C17.8188 4.85073 17.6907 4.8808 17.5871 4.90515C17.4295 4.94215 17.3282 4.96593 17.1822 4.85073C17.1761 4.84592 17.17 4.84111 17.1639 4.83629C16.9276 4.64961 16.6821 4.45572 16.2851 4.45572C16.2058 4.45572 16.1466 4.53062 16.1027 4.65129C16.0587 4.53062 15.9995 4.45572 15.9203 4.45572C15.5232 4.45572 15.2778 4.64961 15.0414 4.83629C15.0353 4.84111 15.0292 4.84592 15.0231 4.85073C14.8772 4.96593 14.7759 4.94215 14.6183 4.90515C14.5146 4.8808 14.3866 4.85073 14.2053 4.85073C13.9492 4.85073 13.9237 4.96874 13.9013 5.07238C13.8838 5.15352 13.8682 5.22586 13.7453 5.22586Z" fill="#E31D1C"/>
<path fill-rule="evenodd" clip-rule="evenodd" d="M15.6093 3.56848L15.415 3.6359C14.9014 3.81406 14.4567 3.87282 14.081 3.81493C13.3076 3.69574 12.2984 4.09816 12.4249 4.68748C12.4803 4.94574 12.642 5.43351 12.8103 5.8469C13.0437 6.42053 13.207 6.70988 13.3981 6.70988C13.4229 6.70988 13.6823 6.72404 13.7688 6.72877C13.7843 6.72962 13.7943 6.73016 13.7963 6.73026C14.0773 6.74449 14.3251 6.75201 14.5634 6.7509C15.2525 6.74768 15.6796 6.68003 15.8322 6.47328L15.8771 6.41243L15.8557 6.33916C15.6748 5.71689 15.591 4.86322 15.6063 3.78029L15.6093 3.56848ZM12.7083 4.62254C12.6463 4.33357 13.4357 4.01879 14.0382 4.11165C14.4136 4.16949 14.8389 4.12595 15.3143 3.98291C15.3118 4.94548 15.3903 5.72736 15.5511 6.33005C15.4133 6.40214 15.0512 6.44862 14.5621 6.4509C14.3298 6.45199 14.0868 6.44461 13.8105 6.43062C13.8129 6.43074 13.5258 6.41483 13.4275 6.4108C13.4243 6.40748 13.4204 6.40331 13.4161 6.39832C13.3902 6.36812 13.3578 6.3193 13.3213 6.25465C13.2494 6.1272 13.1653 5.94555 13.0779 5.73062C12.9159 5.33243 12.7594 4.86065 12.7083 4.62254Z" fill="#FFD018"/>
<path fill-rule="evenodd" clip-rule="evenodd" d="M16.4532 3.56848L16.6475 3.6359C17.1611 3.81406 17.6058 3.87282 17.9815 3.81493C18.7549 3.69574 19.7641 4.09816 19.6376 4.68748C19.5822 4.94574 19.4205 5.43351 19.2522 5.8469C19.0188 6.42053 18.8555 6.70988 18.6644 6.70988C18.6396 6.70988 18.3802 6.72404 18.2937 6.72877C18.2782 6.72962 18.2682 6.73016 18.2662 6.73026C17.9852 6.74449 17.7374 6.75201 17.4991 6.7509C16.81 6.74768 16.3829 6.68003 16.2303 6.47328L16.1854 6.41243L16.2068 6.33916C16.3877 5.71689 16.4715 4.86322 16.4562 3.78029L16.4532 3.56848ZM19.3542 4.62254C19.4162 4.33357 18.6268 4.01879 18.0243 4.11165C17.6489 4.16949 17.2236 4.12595 16.7482 3.98291C16.7507 4.94548 16.6722 5.72736 16.5114 6.33005C16.6492 6.40214 17.0113 6.44862 17.5004 6.4509C17.7327 6.45199 17.9757 6.44461 18.252 6.43062C18.2496 6.43074 18.5367 6.41483 18.635 6.4108C18.6382 6.40748 18.6421 6.40331 18.6464 6.39832C18.6723 6.36812 18.7047 6.3193 18.7412 6.25465C18.8131 6.1272 18.8972 5.94555 18.9846 5.73062C19.1466 5.33243 19.3031 4.86065 19.3542 4.62254Z" fill="#FFD018"/>
<path fill-rule="evenodd" clip-rule="evenodd" d="M12.838 6.47105C12.8383 6.41555 12.8063 6.31532 12.7364 6.12918C12.6401 5.87274 12.5743 5.79503 12.4343 5.70953C12.3635 5.66626 12.3358 5.62876 12.3024 5.49964C12.2757 5.39634 12.2486 5.31574 12.2176 5.24145C12.2113 5.22634 12.1978 5.19628 12.1848 5.16734L12.1848 5.16733C12.1714 5.13761 12.1586 5.10907 12.1547 5.09911C12.1331 5.04476 12.1241 4.99644 12.1241 4.91809C12.1241 4.82876 12.1475 4.75721 12.2092 4.62711C12.246 4.5494 12.2507 4.53908 12.2638 4.50631C12.2904 4.43983 12.3041 4.38234 12.3041 4.32364V3.9385C12.3041 3.7136 12.313 3.6999 12.4234 3.71482C12.4344 3.71631 12.4452 3.71802 12.4564 3.72005C12.4523 3.71931 12.5095 3.73045 12.523 3.73205C12.5493 3.73516 12.5709 3.73306 12.5927 3.72321C12.6324 3.70533 12.6614 3.67025 12.7311 3.56604C12.7639 3.51696 12.7992 3.52176 12.9246 3.58285C12.9424 3.59153 12.9529 3.59657 12.9644 3.60183C13.0927 3.66073 13.1817 3.66244 13.2575 3.56991C13.3739 3.42774 13.4508 3.4368 13.5919 3.57404C13.6616 3.64182 13.6968 3.66747 13.7414 3.67403L13.7451 3.67458C13.7921 3.68155 13.795 3.68197 13.9275 3.60081C13.9365 3.61959 13.9561 3.62684 13.9879 3.63425C14.0303 3.64415 14.0934 3.6475 14.1357 3.6409C14.1709 3.6354 14.1958 3.62454 14.2123 3.59021C14.2683 3.58853 14.3345 3.58762 14.4111 3.58762V3.48762C14.313 3.48762 14.2313 3.48908 14.1653 3.49184C14.1602 3.48752 14.1539 3.48197 14.1468 3.47576L14.1468 3.47575C14.1105 3.44378 14.0541 3.39413 14.0274 3.40202C14.0238 3.40307 14.0133 3.41244 13.9987 3.42535L13.9987 3.42535C13.9755 3.44591 13.9422 3.47544 13.911 3.49463C13.7796 3.57528 13.7745 3.57789 13.755 3.57502C13.7377 3.57248 13.7129 3.55441 13.6582 3.50121C13.481 3.32893 13.3415 3.31247 13.1836 3.50533C13.1436 3.55424 13.0971 3.55334 13.0037 3.51045C12.9931 3.50557 12.9831 3.50078 12.9659 3.4924C12.7985 3.41086 12.724 3.40071 12.6515 3.50921C12.594 3.5952 12.5697 3.62448 12.554 3.63157L12.5518 3.63271L12.5506 3.63336C12.5471 3.63495 12.5426 3.63413 12.4993 3.62628L12.473 3.62154C12.4605 3.61928 12.4484 3.61735 12.4359 3.61566C12.2531 3.59096 12.2073 3.66148 12.2073 3.9385V4.32364C12.2073 4.36743 12.1965 4.41277 12.1744 4.46816C12.1624 4.49805 12.1579 4.50794 12.1222 4.58312C12.0545 4.72611 12.0273 4.80917 12.0273 4.91809C12.0273 5.00927 12.0387 5.07051 12.0651 5.1371C12.07 5.14929 12.0845 5.18171 12.0988 5.21349C12.1112 5.24101 12.1233 5.26805 12.1287 5.28108C12.1579 5.35089 12.1834 5.42687 12.2089 5.52543C12.2488 5.67996 12.2925 5.73906 12.3851 5.79562C12.5068 5.86996 12.5579 5.93036 12.6462 6.16535C12.692 6.28744 12.7205 6.3731 12.7341 6.42668C12.7369 6.43775 12.7389 6.44703 12.7403 6.4545C12.7263 6.46574 12.728 6.47369 12.7326 6.49585C12.7359 6.50345 12.737 6.50579 12.7383 6.5079L12.7405 6.51102L12.7405 6.51102C12.7461 6.51779 12.7461 6.51779 12.7528 6.52335C12.7556 6.52543 12.7585 6.52731 12.7615 6.52894C12.7597 6.52866 12.7583 6.52808 12.7565 6.52685C12.7623 6.53366 12.7701 6.54336 12.7798 6.55608C12.8747 6.67999 12.9939 6.67999 13.108 6.56014L13.0391 6.49C12.9641 6.56869 12.9129 6.56869 12.8558 6.49405L12.838 6.47105ZM14.0002 3.53441L13.9984 3.53352L13.9992 3.53386L14.0002 3.53441ZM19.1166 6.47105C19.1162 6.41555 19.1483 6.31532 19.2181 6.12918C19.3144 5.87274 19.3803 5.79503 19.5202 5.70953C19.5911 5.66626 19.6188 5.62876 19.6521 5.49964C19.6788 5.39634 19.7059 5.31574 19.7369 5.24145C19.7433 5.22634 19.7568 5.19628 19.7698 5.16734C19.7831 5.13761 19.7959 5.10907 19.7999 5.09911C19.8215 5.04476 19.8304 4.99644 19.8304 4.91809C19.8304 4.82876 19.807 4.75721 19.7454 4.62711C19.7086 4.5494 19.7038 4.53908 19.6907 4.50631C19.6642 4.43983 19.6505 4.38234 19.6505 4.32364V3.9385C19.6505 3.7136 19.6416 3.6999 19.5312 3.71482C19.5201 3.71631 19.5094 3.71802 19.4981 3.72005C19.5022 3.71931 19.445 3.73045 19.4315 3.73205C19.4052 3.73516 19.3836 3.73306 19.3618 3.72321C19.3222 3.70533 19.2931 3.67025 19.2234 3.56604C19.1906 3.51696 19.1553 3.52176 19.0299 3.58285C19.0121 3.59153 19.0016 3.59657 18.9901 3.60183C18.8618 3.66073 18.7728 3.66244 18.6971 3.56991C18.5807 3.42774 18.5038 3.4368 18.3626 3.57404C18.2929 3.64182 18.2577 3.66747 18.2131 3.67403L18.2094 3.67458C18.1624 3.68155 18.1595 3.68197 18.0271 3.60081C18.018 3.61959 17.9984 3.62684 17.9666 3.63425C17.9242 3.64415 17.8611 3.6475 17.8188 3.6409C17.7837 3.6354 17.7587 3.62454 17.7422 3.59021C17.6862 3.58853 17.62 3.58762 17.5435 3.58762V3.48762C17.6415 3.48762 17.7232 3.48908 17.7892 3.49184C17.7944 3.48752 17.8007 3.48197 17.8077 3.47575C17.844 3.44378 17.9004 3.39413 17.9271 3.40202C17.9307 3.40307 17.9413 3.41243 17.9558 3.42534L17.9558 3.42535L17.9558 3.42535C17.9781 3.44509 18.0097 3.4731 18.0398 3.49228L18.0436 3.49463C18.175 3.57528 18.18 3.57789 18.1995 3.57502C18.2168 3.57248 18.2416 3.55441 18.2963 3.50121C18.4735 3.32893 18.6131 3.31247 18.7709 3.50533C18.811 3.55424 18.8574 3.55334 18.9508 3.51045C18.9615 3.50557 18.9715 3.50078 18.9887 3.4924C19.156 3.41086 19.2305 3.40071 19.3031 3.50921C19.3605 3.5952 19.3848 3.62448 19.4005 3.63157L19.4027 3.63271L19.4039 3.63336C19.4074 3.63495 19.412 3.63413 19.4553 3.62628L19.4815 3.62154C19.4941 3.61928 19.5061 3.61735 19.5186 3.61566C19.7015 3.59096 19.7473 3.66148 19.7473 3.9385V4.32364C19.7473 4.36743 19.758 4.41277 19.7802 4.46816C19.7921 4.49805 19.7967 4.50794 19.8323 4.58312C19.9001 4.72611 19.9272 4.80917 19.9272 4.91809C19.9272 5.00927 19.9159 5.07051 19.8894 5.1371C19.8846 5.14929 19.87 5.18171 19.8557 5.21349C19.8434 5.241 19.8312 5.26804 19.8258 5.28108C19.7966 5.35089 19.7711 5.42687 19.7456 5.52543C19.7057 5.67996 19.6621 5.73906 19.5695 5.79562C19.4478 5.86996 19.3966 5.93036 19.3084 6.16535C19.2625 6.28744 19.2341 6.3731 19.2205 6.42668C19.2177 6.43775 19.2156 6.44703 19.2142 6.4545C19.2282 6.46574 19.2265 6.47369 19.2219 6.49585C19.2186 6.50345 19.2176 6.50579 19.2162 6.5079L19.214 6.51102C19.2084 6.51779 19.2084 6.51779 19.2017 6.52335C19.199 6.52543 19.1961 6.52731 19.193 6.52894C19.1948 6.52866 19.1963 6.52808 19.198 6.52685C19.1922 6.53366 19.1844 6.54336 19.1747 6.55608C19.0799 6.67999 18.9606 6.67999 18.8465 6.56014L18.9155 6.49C18.9904 6.56869 19.0417 6.56869 19.0988 6.49405L19.1166 6.47105Z" fill="#5E5E5E"/>
<path d="M13.7734 17.8851L13.8342 17.3888C14.9088 17.5203 15.6262 17.5861 15.9878 17.5863C16.533 17.6108 17.1828 17.5713 17.9362 17.4672L18.0046 17.9625C17.223 18.0705 16.5436 18.1118 15.9765 18.0861C15.5991 18.0861 14.8682 18.0191 13.7734 17.8851Z" fill="#272727"/>
</g>
</g>
</svg>
