<svg width="32" height="24" viewBox="0 0 32 24" fill="none" xmlns="http://www.w3.org/2000/svg">
<mask id="mask0_5190_105150" style="mask-type:luminance" maskUnits="userSpaceOnUse" x="0" y="0" width="32" height="24">
<rect width="32" height="24" fill="white"/>
</mask>
<g mask="url(#mask0_5190_105150)">
<path fill-rule="evenodd" clip-rule="evenodd" d="M0 0V24H32V0H0Z" fill="#E31D1C"/>
<mask id="mask1_5190_105150" style="mask-type:luminance" maskUnits="userSpaceOnUse" x="0" y="0" width="32" height="24">
<path fill-rule="evenodd" clip-rule="evenodd" d="M0 0V24H32V0H0Z" fill="white"/>
</mask>
<g mask="url(#mask1_5190_105150)">
<path fill-rule="evenodd" clip-rule="evenodd" d="M0 12V24H32V12H0Z" fill="#2E42A5"/>
</g>
<path fill-rule="evenodd" clip-rule="evenodd" d="M0 -2V26L20 12L0 -2Z" fill="#F7FCFF"/>
<mask id="mask2_5190_105150" style="mask-type:luminance" maskUnits="userSpaceOnUse" x="0" y="-2" width="20" height="28">
<path fill-rule="evenodd" clip-rule="evenodd" d="M0 -2V26L20 12L0 -2Z" fill="white"/>
</mask>
<g mask="url(#mask2_5190_105150)">
<path fill-rule="evenodd" clip-rule="evenodd" d="M8.12874 10.1888C9.56546 10.1888 10.7301 9.25111 10.7301 8.09441C10.7301 6.9377 9.56546 6 8.12874 6C6.69203 6 5.52734 6.9377 5.52734 8.09441C5.52734 9.25111 6.69203 10.1888 8.12874 10.1888Z" fill="#FBCD17"/>
<path fill-rule="evenodd" clip-rule="evenodd" d="M8.35451 6.38535C8.14214 6.38535 7.99125 6.52216 7.99125 6.7281L7.99144 6.75081C7.98003 6.78512 7.97363 6.82337 7.97248 6.86618C7.96953 6.97574 8.01033 7.06713 8.09595 7.15095C8.10121 7.17515 8.10396 7.1952 8.10318 7.20658C8.09798 7.1887 8.07731 7.17372 8.03796 7.14519C7.982 7.10462 7.88828 7.03668 7.74753 6.89411C7.54482 6.68878 7.39184 6.60841 7.20168 6.64035C7.14402 6.65003 7.08759 6.67034 7.01983 6.69748C6.9118 6.73638 6.81237 6.74541 6.62876 6.71036C6.11856 6.61297 5.55895 6.70853 4.95312 6.98926L5.16335 7.44292C5.68039 7.20333 6.13656 7.12544 6.53502 7.20149C6.80874 7.25374 6.9988 7.23648 7.18924 7.1679C7.27129 7.13703 7.27847 7.13445 7.28449 7.13344C7.27845 7.13446 7.28232 7.13817 7.30768 7.16255C7.32476 7.17896 7.3516 7.20475 7.39172 7.24539C7.44887 7.30328 7.50861 7.35568 7.56963 7.40334C7.45234 7.43486 7.45841 7.45649 7.47994 7.53324C7.48871 7.56452 7.50005 7.60495 7.50665 7.65893C7.52123 7.7781 7.49701 7.83956 7.5179 7.86899C7.54122 7.90183 7.62069 7.8948 7.87286 7.88356C7.94073 7.88053 8.03253 7.87352 8.13845 7.86351C8.34617 7.84386 8.58126 7.81523 8.72572 7.79155C8.86604 7.76855 8.90333 7.76015 8.96219 7.71732L8.9622 7.7173C8.98254 7.69235 8.99995 7.67101 9.01438 7.652C9.49421 7.5815 9.92087 7.53142 10.3006 7.49687C10.4367 7.48448 10.5461 7.47598 10.652 7.4682C10.6645 7.46809 10.6645 7.46809 10.7261 7.45522L10.7261 7.45522C10.753 7.44377 10.7641 7.43905 10.7679 7.43747L10.7678 7.43757C10.7695 7.4368 10.7705 7.43635 10.7679 7.43747L10.8904 7.14718L10.7638 6.99407C10.6884 6.97036 10.6801 6.96774 10.6716 6.96738C10.6706 6.96733 10.6695 6.96732 10.6683 6.96731C10.6584 6.96673 10.6548 6.96651 10.6512 6.9664C10.6492 6.96633 10.6471 6.9663 10.6439 6.96625C10.6298 6.96616 10.6207 6.96611 10.6116 6.96607C10.5946 6.96601 10.5777 6.96604 10.5292 6.96609C10.4462 6.96609 10.3806 6.95907 10.2858 6.94222L10.1976 6.92602C9.80783 6.8545 9.44628 6.8545 8.67949 6.96883C8.66505 6.95765 8.65068 6.94662 8.63665 6.93609C8.76014 6.91462 8.91053 6.90006 9.06946 6.89159L9.06947 6.89158C9.16554 6.88711 9.16555 6.88711 9.21919 6.88568L9.24265 6.88513L9.23972 6.38538L9.20179 6.38535H8.35451ZM7.94033 7.83288C7.95493 7.82974 7.97087 7.82643 7.98815 7.82294L8.03524 7.81289C8.02662 7.81472 8.01705 7.81672 8.00647 7.81892C7.98773 7.82283 7.96582 7.8274 7.94033 7.83288Z" fill="#DA610A"/>
<path d="M7.92647 8.58073L8.00737 8.594L8.08826 8.58073C9.08129 8.41793 9.73516 8.43693 10.114 8.56401C10.5505 8.7104 11.0329 8.66896 11.5402 8.49811C11.3792 9.21589 11.2968 9.89428 11.2968 10.5318C11.2968 11.2587 11.4374 11.8458 11.5649 12.3609C11.5684 12.3748 11.5718 12.3885 11.5752 12.4022C11.7002 12.9067 11.8038 13.3247 11.8038 13.8044C11.8038 14.235 11.661 14.4612 11.4613 14.6025C11.2302 14.7662 10.8447 14.8705 10.273 14.8705C9.46702 14.8705 8.71299 15.0875 8.0187 15.5122L8.00737 15.5041L7.99603 15.5122C7.30174 15.0875 6.54772 14.8705 5.7417 14.8705C5.17003 14.8705 4.78454 14.7662 4.55339 14.6025C4.35376 14.4612 4.21094 14.235 4.21094 13.8044C4.21094 13.3247 4.31455 12.9067 4.43957 12.4022C4.44296 12.3885 4.44637 12.3748 4.44979 12.3609C4.57738 11.8458 4.71797 11.2587 4.71797 10.5318C4.71797 9.89428 4.63554 9.21589 4.47451 8.49811C4.98183 8.66896 5.46427 8.7104 5.9007 8.56401C6.27957 8.43693 6.93345 8.41793 7.92647 8.58073Z" fill="#56C6F5" stroke="#E31D1C"/>
<path fill-rule="evenodd" clip-rule="evenodd" d="M8.78583 10.6242L8.0144 9.93848L7.24297 10.6242H7.47154V11.0195L6.27154 11.767V13.5956H6.04297V13.9385H6.27154H9.75725H10.043V13.5956H9.75725V11.767L8.50011 10.9839V10.6242H8.78583Z" fill="#F7FCFF"/>
<path d="M8.0144 9.93848L8.09744 9.84505L8.0144 9.77123L7.93135 9.84505L8.0144 9.93848ZM8.78583 10.6242V10.7492H9.1146L8.86887 10.5308L8.78583 10.6242ZM7.24297 10.6242L7.15992 10.5308L6.91419 10.7492H7.24297V10.6242ZM7.47154 10.6242H7.59654V10.4992H7.47154V10.6242ZM7.47154 11.0195L7.53763 11.1256L7.59654 11.0889V11.0195H7.47154ZM6.27154 11.767L6.20545 11.661L6.14654 11.6976V11.767H6.27154ZM6.27154 13.5956V13.7206H6.39654V13.5956H6.27154ZM6.04297 13.5956V13.4706H5.91797V13.5956H6.04297ZM6.04297 13.9385H5.91797V14.0635H6.04297V13.9385ZM10.043 13.9385V14.0635H10.168V13.9385H10.043ZM10.043 13.5956H10.168V13.4706H10.043V13.5956ZM9.75725 13.5956H9.63225V13.7206H9.75725V13.5956ZM9.75725 11.767H9.88225V11.6976L9.82335 11.661L9.75725 11.767ZM8.50011 10.9839H8.37511V11.0533L8.43402 11.09L8.50011 10.9839ZM8.50011 10.6242V10.4992H8.37511V10.6242H8.50011ZM7.93135 10.0319L8.70278 10.7176L8.86887 10.5308L8.09744 9.84505L7.93135 10.0319ZM7.32601 10.7176L8.09744 10.0319L7.93135 9.84505L7.15992 10.5308L7.32601 10.7176ZM7.47154 10.4992H7.24297V10.7492H7.47154V10.4992ZM7.34654 10.6242V11.0195H7.59654V10.6242H7.34654ZM7.40545 10.9134L6.20545 11.661L6.33763 11.8731L7.53763 11.1256L7.40545 10.9134ZM6.14654 11.767V13.5956H6.39654V11.767H6.14654ZM6.27154 13.4706H6.04297V13.7206H6.27154V13.4706ZM5.91797 13.5956V13.9385H6.16797V13.5956H5.91797ZM6.04297 14.0635H6.27154V13.8135H6.04297V14.0635ZM6.27154 14.0635H9.75725V13.8135H6.27154V14.0635ZM9.75725 14.0635H10.043V13.8135H9.75725V14.0635ZM10.168 13.9385V13.5956H9.91797V13.9385H10.168ZM10.043 13.4706H9.75725V13.7206H10.043V13.4706ZM9.88225 13.5956V11.767H9.63225V13.5956H9.88225ZM9.82335 11.661L8.56621 10.8778L8.43402 11.09L9.69116 11.8731L9.82335 11.661ZM8.62511 10.9839V10.6242H8.37511V10.9839H8.62511ZM8.78583 10.4992H8.50011V10.7492H8.78583V10.4992Z" fill="#3B3B3B"/>
<path d="M7.95142 17.0204C9.01246 17.0204 9.74291 16.9045 10.119 16.7071C10.2177 16.5394 10.3906 16.4447 10.5746 16.4516C11.4011 16.4821 12.0411 16.134 12.5443 15.3687C13.088 14.5419 13.1973 13.3675 12.8429 11.8259L13.7425 11.6191C14.1485 13.3854 14.016 14.8109 13.3156 15.8759C12.688 16.8303 11.8324 17.34 10.7881 17.3746C10.2547 17.7695 9.32007 17.9434 7.95142 17.9434C6.62736 17.9434 5.64565 17.6864 5.01602 17.1401C3.58613 16.8023 2.67747 16.232 2.32018 15.3867C1.93932 14.4855 1.93932 13.2346 2.29459 11.6231L3.19602 11.8218C2.87814 13.2637 2.87814 14.3357 3.17043 15.0273C3.3744 15.5099 3.96704 15.9037 4.97108 16.1767L5.90389 16.3762L5.85911 16.6118C6.31417 16.8777 7.00966 17.0204 7.95142 17.0204Z" fill="#FBCD17"/>
<path fill-rule="evenodd" clip-rule="evenodd" d="M4.76673 9.17619C4.66367 9.43238 4.7878 9.72361 5.04399 9.82667L5.05987 9.83306L5.03569 9.88333C4.86048 10.2476 5.16032 10.6235 5.51415 10.6013L5.50263 10.6579C5.39998 11.1621 5.9819 11.4142 6.30369 11.1576C6.50931 11.1526 6.71145 11.0296 6.77221 10.7725L6.82904 10.532L6.85198 10.5389C7.32354 10.6811 7.64252 10.161 7.43447 9.80946C7.4973 9.69517 7.51564 9.55658 7.47441 9.42204C7.39351 9.15801 7.1139 9.00956 6.84987 9.09046L6.33397 9.24853C6.26519 9.22924 6.19145 9.22454 6.11707 9.23771C6.06723 9.18109 6.00366 9.13486 5.92857 9.10465L5.41722 8.89893C5.16103 8.79587 4.8698 8.92 4.76673 9.17619ZM6.82904 10.532L6.95125 10.0148L6.32028 10.3786L6.82904 10.532Z" fill="#73BE4A"/>
<path fill-rule="evenodd" clip-rule="evenodd" d="M6.20312 10.476C6.47927 10.476 6.70312 10.2521 6.70312 9.97595C6.70312 9.69981 6.47927 9.47595 6.20312 9.47595C5.92698 9.47595 5.70312 9.69981 5.70312 9.97595C5.70312 10.2521 5.92698 10.476 6.20312 10.476Z" fill="#FBCD17"/>
<path fill-rule="evenodd" clip-rule="evenodd" d="M10.2397 10.0733C10.2315 9.73704 10.1942 8.96924 10.0236 8.96924C9.85194 8.96924 9.82584 9.74605 9.82254 10.0792C9.52709 10.1757 9.30469 10.43 9.30469 10.43H10.7762C10.7762 10.43 10.5444 10.165 10.2397 10.0733Z" fill="#F7FCFF"/>
<path d="M2.54862 12.5685L2.79492 12.6114C2.59555 13.7574 2.59555 14.5792 2.78812 15.0693C3.01225 15.6397 4.33451 16.405 4.70856 16.405V16.655C4.23813 16.655 2.82009 15.8343 2.55543 15.1607C2.34205 14.6176 2.34205 13.756 2.54862 12.5685Z" fill="#73BE4A"/>
<path d="M13.3818 12.5088L13.1352 12.5502C13.3156 13.6255 13.2752 14.4645 13.0189 15.066C12.7099 15.7911 11.5166 16.7148 11.2037 16.7148V16.9648C11.625 16.9648 12.9031 15.9754 13.2488 15.164C13.5268 14.5119 13.5694 13.6272 13.3818 12.5088Z" fill="#73BE4A"/>
<path d="M6.39453 17.4239L6.44163 17.1783C7.2382 17.3311 7.78236 17.4075 8.06745 17.4075C8.35195 17.4075 8.86665 17.3313 9.60547 17.1787L9.65604 17.4235C8.90137 17.5794 8.37387 17.6575 8.06745 17.6575C7.76163 17.6575 7.20621 17.5796 6.39453 17.4239Z" fill="#73BE4A"/>
</g>
</g>
</svg>
