<svg width="32" height="24" viewBox="0 0 32 24" fill="none" xmlns="http://www.w3.org/2000/svg">
<mask id="mask0_5190_105053" style="mask-type:luminance" maskUnits="userSpaceOnUse" x="0" y="0" width="32" height="24">
<rect width="32" height="24" fill="white"/>
</mask>
<g mask="url(#mask0_5190_105053)">
<path fill-rule="evenodd" clip-rule="evenodd" d="M0 0V24H32V0H0Z" fill="#2E42A5"/>
<mask id="mask1_5190_105053" style="mask-type:luminance" maskUnits="userSpaceOnUse" x="0" y="0" width="32" height="24">
<path fill-rule="evenodd" clip-rule="evenodd" d="M0 0V24H32V0H0Z" fill="white"/>
</mask>
<g mask="url(#mask1_5190_105053)">
<path fill-rule="evenodd" clip-rule="evenodd" d="M21.0469 10.0327C21.0469 10.0327 21.9329 21.964 25.9288 21.964C29.9248 21.964 30.9076 10.0327 30.9076 10.0327H21.0469Z" fill="#FECA00" stroke="#F7FCFF" stroke-width="0.5"/>
<path fill-rule="evenodd" clip-rule="evenodd" d="M25.9099 10.6218L26.0563 10.4566L26.7502 10.8986C26.8507 10.7424 27.0297 10.6697 27.2803 10.6817L27.0272 10.2962L27.2334 10.1864L27.7138 10.7648C27.7295 10.7695 27.7453 10.7745 27.7613 10.7797L27.6395 10.0281L27.881 10L28.0388 10.9739C28.0427 10.9737 28.0465 10.9736 28.0503 10.9736C28.1182 10.9736 28.1948 11.0064 28.2736 11.0585L28.4451 10L28.6866 10.0281L28.5649 10.7797C28.5808 10.7745 28.5966 10.7695 28.6123 10.7648L29.0928 10.1864L29.2989 10.2962L29.0458 10.6817C29.2964 10.6697 29.4754 10.7424 29.5759 10.8986L30.2698 10.4566L30.4162 10.6218L29.6549 11.1069C29.6653 11.1617 29.6705 11.2218 29.6705 11.2871V11.3996L30.7213 11.1693L30.7988 11.3647L29.6705 11.7645V11.901L30.7402 11.8143L30.7724 12.0191L29.6705 12.1794V12.4153L30.7751 12.5977L30.7306 12.801L29.6705 12.6425V14.9406H29.508V12.6182L28.7968 12.5119C28.7172 13.0742 28.6273 13.7822 28.6399 14.0381C28.6524 14.291 28.8412 14.3994 28.9737 14.4755C29.0768 14.5347 29.1459 14.5743 29.0714 14.6472C28.9012 14.8139 28.4758 14.9736 28.0503 14.9736C27.6247 14.9736 27.205 14.8139 27.114 14.6472C27.0978 14.6175 27.0999 14.6199 27.1145 14.6366C27.1816 14.7136 27.5136 15.0944 27.5395 14.0381C27.5538 13.4586 27.4687 12.9354 27.371 12.5356L26.8181 12.6182V14.9406H26.6556V12.6425L25.5955 12.801L25.551 12.5977L26.6556 12.4153V12.1794L25.5537 12.0191L25.5859 11.8143L26.6556 11.901V11.7645L25.5273 11.3647L25.6048 11.1693L26.6556 11.3996V11.2871C26.6556 11.2218 26.6609 11.1617 26.6712 11.1069L25.9099 10.6218ZM27.3006 12.2733C27.3038 12.2844 27.3071 12.2957 27.3104 12.3071L26.8181 12.3884V12.2031L27.3006 12.2733ZM27.3108 11.5143C27.3034 11.5225 27.2962 11.5305 27.2891 11.5384L26.8181 11.4352V11.2871C26.8181 11.2575 26.8193 11.2294 26.8216 11.2026L27.3108 11.5143ZM27.6238 11.2048C27.5692 11.2519 27.5153 11.3026 27.4642 11.3535L26.8827 10.983C26.9643 10.8412 27.1252 10.7896 27.3756 10.8267L27.6238 11.2048ZM28.6932 11.461L29.4434 10.983C29.3618 10.8412 29.2009 10.7896 28.9505 10.8267L28.6025 11.3568C28.6343 11.3919 28.6647 11.427 28.6932 11.461ZM28.9462 11.5583L29.5046 11.2026C29.5068 11.2294 29.508 11.2575 29.508 11.2871V11.4352L28.9462 11.5583ZM29.1711 11.9414L29.508 11.8221V11.9141L29.1711 11.9414ZM28.9116 12.2899L29.508 12.2031V12.3884L28.9116 12.2899ZM26.8181 11.8221V11.9141L27.155 11.9414L26.8181 11.8221Z" fill="#CF6900"/>
<path fill-rule="evenodd" clip-rule="evenodd" d="M24.8801 15.8428C24.8801 15.8428 23.5664 18.0429 23.5664 19.3764C23.5664 19.3764 24.4616 20.0864 26.0013 20.0864C27.541 20.0864 28.3332 19.3764 28.3332 19.3764C27.8997 17.7956 27.1618 15.8428 27.1618 15.8428H24.8801Z" fill="#00A727"/>
<path fill-rule="evenodd" clip-rule="evenodd" d="M24.9414 15.2351C24.9414 14.6293 25.4326 14.1381 26.0384 14.1381C26.6443 14.1381 27.1355 14.6293 27.1355 15.2351V15.9856H24.9414V15.2351Z" fill="#E31D1C"/>
<path fill-rule="evenodd" clip-rule="evenodd" d="M21.5195 12.8335C21.5195 12.8335 23.2534 13.1907 23.2534 13.7539C23.2534 14.3172 23.9516 14.5203 24.1231 14.368C24.2946 14.2157 25.5028 14.1092 25.5028 13.3751C25.5028 12.6409 25.6037 12.441 25.3102 11.9748C25.0167 11.5086 24.4048 9.93266 24.2639 10.5641C24.1231 11.1955 23.9111 11.6632 23.5195 11.2868C23.128 10.9105 22.625 10.1137 22.4485 10.5641C22.272 11.0145 23.008 11.4666 22.4485 11.4666C21.889 11.4666 22.2833 11.4961 22.2833 11.8775C22.2833 12.2589 22.3497 12.6183 21.9346 12.6183C21.5195 12.6183 21.5195 12.8335 21.5195 12.8335Z" fill="#FF927F"/>
<rect width="18" height="14" fill="#2B409A"/>
<mask id="mask2_5190_105053" style="mask-type:luminance" maskUnits="userSpaceOnUse" x="0" y="0" width="18" height="14">
<rect width="18" height="14" fill="white"/>
</mask>
<g mask="url(#mask2_5190_105053)">
<path d="M-2.00391 12.9998L1.95704 14.737L18.0902 1.88875L20.1796 -0.69278L15.9439 -1.2734L9.36354 4.26329L4.06704 7.99372L-2.00391 12.9998Z" fill="#F7FCFF"/>
<path d="M-1.46094 14.217L0.556984 15.2251L19.43 -0.932632H16.5966L-1.46094 14.217Z" fill="#F50100"/>
<path d="M20.0039 12.9998L16.043 14.737L-0.0902405 1.88875L-2.17955 -0.69278L2.05612 -1.2734L8.63646 4.26329L13.933 7.99372L20.0039 12.9998Z" fill="#F7FCFF"/>
<path d="M19.8672 13.8733L17.8493 14.8815L9.81294 7.96351L7.43034 7.19059L-2.38215 -0.683947H0.451241L10.2582 7.00368L12.8632 7.9305L19.8672 13.8733Z" fill="#F50100"/>
<mask id="path-15-outside-1_5190_105053" maskUnits="userSpaceOnUse" x="-2" y="-2" width="22" height="18" fill="black">
<rect fill="white" x="-2" y="-2" width="22" height="18"/>
<path fill-rule="evenodd" clip-rule="evenodd" d="M9.98451 0H7.98451V6H0V8H7.98451V14H9.98451V8H18V6H9.98451V0Z"/>
</mask>
<path fill-rule="evenodd" clip-rule="evenodd" d="M9.98451 0H7.98451V6H0V8H7.98451V14H9.98451V8H18V6H9.98451V0Z" fill="#F50100"/>
<path d="M7.98451 0V-1.5H6.48451V0H7.98451ZM9.98451 0H11.4845V-1.5H9.98451V0ZM7.98451 6V7.5H9.48451V6H7.98451ZM0 6V4.5H-1.5V6H0ZM0 8H-1.5V9.5H0V8ZM7.98451 8H9.48451V6.5H7.98451V8ZM7.98451 14H6.48451V15.5H7.98451V14ZM9.98451 14V15.5H11.4845V14H9.98451ZM9.98451 8V6.5H8.48451V8H9.98451ZM18 8V9.5H19.5V8H18ZM18 6H19.5V4.5H18V6ZM9.98451 6H8.48451V7.5H9.98451V6ZM7.98451 1.5H9.98451V-1.5H7.98451V1.5ZM9.48451 6V0H6.48451V6H9.48451ZM0 7.5H7.98451V4.5H0V7.5ZM1.5 8V6H-1.5V8H1.5ZM7.98451 6.5H0V9.5H7.98451V6.5ZM9.48451 14V8H6.48451V14H9.48451ZM9.98451 12.5H7.98451V15.5H9.98451V12.5ZM8.48451 8V14H11.4845V8H8.48451ZM18 6.5H9.98451V9.5H18V6.5ZM16.5 6V8H19.5V6H16.5ZM9.98451 7.5H18V4.5H9.98451V7.5ZM8.48451 0V6H11.4845V0H8.48451Z" fill="#F7FCFF" mask="url(#path-15-outside-1_5190_105053)"/>
</g>
</g>
</g>
</svg>
