<svg width="32" height="24" viewBox="0 0 32 24" fill="none" xmlns="http://www.w3.org/2000/svg">
<mask id="mask0_5190_104610" style="mask-type:luminance" maskUnits="userSpaceOnUse" x="0" y="0" width="32" height="24">
<rect width="32" height="24" fill="white"/>
</mask>
<g mask="url(#mask0_5190_104610)">
<path fill-rule="evenodd" clip-rule="evenodd" d="M0 0V24H32V0H0Z" fill="#EF0000"/>
<mask id="mask1_5190_104610" style="mask-type:luminance" maskUnits="userSpaceOnUse" x="0" y="0" width="32" height="24">
<path fill-rule="evenodd" clip-rule="evenodd" d="M0 0V24H32V0H0Z" fill="white"/>
</mask>
<g mask="url(#mask1_5190_104610)">
<path fill-rule="evenodd" clip-rule="evenodd" d="M0 0V14H18V0H0Z" fill="#2E42A5"/>
<path fill-rule="evenodd" clip-rule="evenodd" d="M8.72885 10.8108L7.24719 12.6593L6.88829 10.3176L4.68088 11.1776L5.54091 8.97019L3.19922 8.61129L5.04773 7.12964L3.19922 5.64798L5.54091 5.28908L4.68088 3.08167L6.88829 3.94169L7.24719 1.60001L8.72885 3.44852L10.2105 1.60001L10.5694 3.94169L12.7768 3.08167L11.9168 5.28908L14.2585 5.64798L12.41 7.12964L14.2585 8.61129L11.9168 8.97019L12.7768 11.1776L10.5694 10.3176L10.2105 12.6593L8.72885 10.8108ZM8.72885 9.99198C10.3097 9.99198 11.5912 8.71047 11.5912 7.12963C11.5912 5.5488 10.3097 4.26729 8.72885 4.26729C7.14802 4.26729 5.8665 5.5488 5.8665 7.12963C5.8665 8.71047 7.14802 9.99198 8.72885 9.99198ZM11.0187 7.12963C11.0187 8.3943 9.99351 9.41951 8.72885 9.41951C7.46418 9.41951 6.43897 8.3943 6.43897 7.12963C6.43897 5.86497 7.46418 4.83976 8.72885 4.83976C9.99351 4.83976 11.0187 5.86497 11.0187 7.12963Z" fill="#FEFFFF"/>
</g>
</g>
</svg>
