<svg width="32" height="24" viewBox="0 0 32 24" fill="none" xmlns="http://www.w3.org/2000/svg">
<mask id="mask0_5190_104574" style="mask-type:luminance" maskUnits="userSpaceOnUse" x="0" y="0" width="32" height="24">
<rect width="32" height="24" fill="white"/>
</mask>
<g mask="url(#mask0_5190_104574)">
<path fill-rule="evenodd" clip-rule="evenodd" d="M0 0V24H32V0H0Z" fill="#FECA00"/>
<mask id="mask1_5190_104574" style="mask-type:luminance" maskUnits="userSpaceOnUse" x="0" y="0" width="32" height="24">
<path fill-rule="evenodd" clip-rule="evenodd" d="M0 0V24H32V0H0Z" fill="white"/>
</mask>
<g mask="url(#mask1_5190_104574)">
<rect width="32" height="4" fill="#272727"/>
<rect y="8" width="32" height="4" fill="#D74800"/>
<rect y="12" width="32" height="4" fill="#272727"/>
<rect y="20" width="32" height="4" fill="#D74800"/>
<path fill-rule="evenodd" clip-rule="evenodd" d="M16 18C19.3137 18 22 15.3137 22 12C22 8.68629 19.3137 6 16 6C12.6863 6 10 8.68629 10 12C10 15.3137 12.6863 18 16 18Z" fill="#F7FCFF"/>
<path fill-rule="evenodd" clip-rule="evenodd" d="M13.6783 8.32864L12.6203 8.67579L13.6783 8.76637C13.6783 8.76637 13.8493 9.18472 13.6783 9.5113C13.6349 9.59421 13.5229 9.70043 13.3799 9.83601C12.9597 10.2345 12.272 10.8867 12.272 11.9462C12.272 13.3663 15.0125 14.0102 15.0125 14.0102V14.6849C15.0125 14.6849 15.3306 14.8824 13.5158 14.8824C11.942 14.8824 12.0404 15.4799 12.0943 15.8069C12.1025 15.857 12.1097 15.9008 12.1097 15.935C12.1097 16.1933 12.8662 15.6768 13.2203 15.1626C13.4067 14.892 14.1872 14.9063 14.9884 14.9805C15.0516 14.9864 15.6357 16.2237 15.1286 16.8629C14.9156 17.1314 14.1799 17.1664 13.7203 17.1883C13.4859 17.1994 13.3233 17.2071 13.3384 17.2407C13.3497 17.2658 13.4883 17.2576 13.6898 17.2455C13.9413 17.2305 14.2906 17.2097 14.6126 17.2407C14.6615 17.2454 14.472 17.4099 14.2804 17.5762C14.083 17.7475 13.8835 17.9207 13.9397 17.9234C14.0029 17.9263 14.3725 17.7216 14.7082 17.5356C14.986 17.3817 15.2406 17.2407 15.2795 17.2407C15.5328 17.2407 15.7616 17.2719 15.9623 17.2994C16.2977 17.3452 16.5545 17.3803 16.7162 17.2407C16.766 17.1977 16.4773 17.1285 16.183 17.058C15.8797 16.9854 15.5705 16.9113 15.6192 16.8629C15.898 16.5863 15.7815 16.0064 15.6898 15.5498C15.6487 15.3449 15.6125 15.1648 15.6192 15.048C15.6431 14.6332 16.0818 14.8508 16.4266 15.0218C16.5776 15.0967 16.7106 15.1626 16.7829 15.1626C17.4358 15.1626 16.625 14.3367 16.18 13.8834C16.141 13.8437 16.1048 13.8068 16.0727 13.7736C15.8463 13.5399 16.0051 13.5713 16.3639 13.6423C16.6378 13.6964 17.0281 13.7736 17.4527 13.7736C18.4336 13.7736 19.1496 13.4549 18.9009 12.592C18.7368 12.0227 17.8384 11.829 16.8997 11.6266C16.4156 11.5222 15.9207 11.4155 15.5105 11.2538C14.501 10.8559 14.5525 10.2758 14.596 9.78534C14.6045 9.68994 14.6126 9.59793 14.6126 9.5113C14.6126 8.97929 15.5105 8.32864 15.5105 8.32864C15.5105 8.32864 15.1007 7.64209 14.4212 7.64209C13.7418 7.64209 13.6783 8.32864 13.6783 8.32864ZM15.5265 14.5765V14.0747C15.5265 14.0747 15.946 14.0609 16.0932 14.4138C16.2403 14.7668 15.5265 14.5765 15.5265 14.5765Z" fill="#272727"/>
<path fill-rule="evenodd" clip-rule="evenodd" d="M13.0742 6.71125L14.0878 7.91319L14.6127 7.78973L14.361 6.57639L13.0742 6.71125Z" fill="#D74800"/>
<path fill-rule="evenodd" clip-rule="evenodd" d="M14.3921 6.42062L14.4574 8.22768L15.3229 8.01472L15.6914 6.8312L14.3921 6.42062Z" fill="#FFD018"/>
<path fill-rule="evenodd" clip-rule="evenodd" d="M13.5766 9.43889C13.7678 9.43889 13.9228 9.28778 13.9228 9.10139C13.9228 8.91499 13.7678 8.76389 13.5766 8.76389C13.3854 8.76389 13.2305 8.91499 13.2305 9.10139C13.2305 9.28778 13.3854 9.43889 13.5766 9.43889Z" fill="#D74800"/>
<path fill-rule="evenodd" clip-rule="evenodd" d="M15.7734 6.75918L14.7658 7.96606L14.9785 8.46155L16.1297 8.00295L15.7734 6.75918Z" fill="#D74800"/>
<path fill-rule="evenodd" clip-rule="evenodd" d="M18.1163 15.8931C18.1163 15.8931 19.8887 15.1013 19.8887 13.994C19.8887 12.8867 17.0107 11.6806 17.0107 11.6806C17.0107 11.6806 15.3178 12.068 16.0808 12.5865C16.8439 13.105 17.8662 13.3042 17.8662 13.994C17.8662 14.6838 18.1463 15.3416 17.5785 15.3416C17.0107 15.3416 18.1163 15.8931 18.1163 15.8931Z" fill="#D74800"/>
<path fill-rule="evenodd" clip-rule="evenodd" d="M15.5594 11.4781C15.5594 11.4781 14.9325 11.5883 14.9623 11.6901C15.0446 11.9716 15.9017 12.3382 16.2753 12.592C17.0383 13.1105 17.7618 13.0523 18.3 12.7148C18.8382 12.3774 15.5594 11.4781 15.5594 11.4781Z" fill="#FFFDFF"/>
</g>
</g>
</svg>
