<svg width="32" height="24" viewBox="0 0 32 24" fill="none" xmlns="http://www.w3.org/2000/svg">
<mask id="mask0_5190_104500" style="mask-type:luminance" maskUnits="userSpaceOnUse" x="0" y="0" width="32" height="24">
<rect width="32" height="24" fill="white"/>
</mask>
<g mask="url(#mask0_5190_104500)">
<path fill-rule="evenodd" clip-rule="evenodd" d="M0 0H32V24H0V0Z" fill="#F7FCFF"/>
<path fill-rule="evenodd" clip-rule="evenodd" d="M0 14.6667V16.6667H32V14.6667H0Z" fill="#E31D1C"/>
<path fill-rule="evenodd" clip-rule="evenodd" d="M0 18.3333V20.3333H32V18.3333H0Z" fill="#E31D1C"/>
<path fill-rule="evenodd" clip-rule="evenodd" d="M0 7.33333V9.33333H32V7.33333H0Z" fill="#E31D1C"/>
<path fill-rule="evenodd" clip-rule="evenodd" d="M0 22V24H32V22H0Z" fill="#E31D1C"/>
<path fill-rule="evenodd" clip-rule="evenodd" d="M0 11V13H32V11H0Z" fill="#E31D1C"/>
<path fill-rule="evenodd" clip-rule="evenodd" d="M0 0V2H32V0H0Z" fill="#E31D1C"/>
<path fill-rule="evenodd" clip-rule="evenodd" d="M0 3.66667V5.66667H32V3.66667H0Z" fill="#E31D1C"/>
<rect width="20" height="13" fill="#2E42A5"/>
<path fill-rule="evenodd" clip-rule="evenodd" d="M1.72319 2.93868L0.997308 3.44756L1.24237 2.54195L0.597656 1.96804H1.43974L1.72217 1.22897L2.05334 1.96804H2.7712L2.20716 2.54195L2.42553 3.44756L1.72319 2.93868ZM5.72319 2.93868L4.99731 3.44756L5.24237 2.54195L4.59766 1.96804H5.43974L5.72217 1.22897L6.05334 1.96804H6.7712L6.20716 2.54195L6.42553 3.44756L5.72319 2.93868ZM8.99731 3.44756L9.72319 2.93868L10.4255 3.44756L10.2072 2.54195L10.7712 1.96804H10.0533L9.72217 1.22897L9.43974 1.96804H8.59766L9.24237 2.54195L8.99731 3.44756ZM13.7232 2.93868L12.9973 3.44756L13.2424 2.54195L12.5977 1.96804H13.4397L13.7222 1.22897L14.0533 1.96804H14.7712L14.2072 2.54195L14.4255 3.44756L13.7232 2.93868ZM0.997308 7.44756L1.72319 6.93867L2.42553 7.44756L2.20716 6.54195L2.7712 5.96804H2.05334L1.72217 5.22897L1.43974 5.96804H0.597656L1.24237 6.54195L0.997308 7.44756ZM5.72319 6.93867L4.99731 7.44756L5.24237 6.54195L4.59766 5.96804H5.43974L5.72217 5.22897L6.05334 5.96804H6.7712L6.20716 6.54195L6.42553 7.44756L5.72319 6.93867ZM8.99731 7.44756L9.72319 6.93867L10.4255 7.44756L10.2072 6.54195L10.7712 5.96804H10.0533L9.72217 5.22897L9.43974 5.96804H8.59766L9.24237 6.54195L8.99731 7.44756ZM13.7232 6.93867L12.9973 7.44756L13.2424 6.54195L12.5977 5.96804H13.4397L13.7222 5.22897L14.0533 5.96804H14.7712L14.2072 6.54195L14.4255 7.44756L13.7232 6.93867ZM0.997308 11.4476L1.72319 10.9387L2.42553 11.4476L2.20716 10.542L2.7712 9.96804H2.05334L1.72217 9.22897L1.43974 9.96804H0.597656L1.24237 10.542L0.997308 11.4476ZM5.72319 10.9387L4.99731 11.4476L5.24237 10.542L4.59766 9.96804H5.43974L5.72217 9.22897L6.05334 9.96804H6.7712L6.20716 10.542L6.42553 11.4476L5.72319 10.9387ZM8.99731 11.4476L9.72319 10.9387L10.4255 11.4476L10.2072 10.542L10.7712 9.96804H10.0533L9.72217 9.22897L9.43974 9.96804H8.59766L9.24237 10.542L8.99731 11.4476ZM13.7232 10.9387L12.9973 11.4476L13.2424 10.542L12.5977 9.96804H13.4397L13.7222 9.22897L14.0533 9.96804H14.7712L14.2072 10.542L14.4255 11.4476L13.7232 10.9387ZM16.9973 3.44756L17.7232 2.93868L18.4255 3.44756L18.2072 2.54195L18.7712 1.96804H18.0533L17.7222 1.22897L17.4397 1.96804H16.5977L17.2424 2.54195L16.9973 3.44756ZM17.7232 6.93867L16.9973 7.44756L17.2424 6.54195L16.5977 5.96804H17.4397L17.7222 5.22897L18.0533 5.96804H18.7712L18.2072 6.54195L18.4255 7.44756L17.7232 6.93867ZM16.9973 11.4476L17.7232 10.9387L18.4255 11.4476L18.2072 10.542L18.7712 9.96804H18.0533L17.7222 9.22897L17.4397 9.96804H16.5977L17.2424 10.542L16.9973 11.4476ZM3.72319 4.93867L2.99731 5.44756L3.24237 4.54195L2.59766 3.96804H3.43974L3.72217 3.22897L4.05334 3.96804H4.7712L4.20716 4.54195L4.42553 5.44756L3.72319 4.93867ZM6.99731 5.44756L7.72319 4.93867L8.42553 5.44756L8.20716 4.54195L8.7712 3.96804H8.05334L7.72217 3.22897L7.43974 3.96804H6.59766L7.24237 4.54195L6.99731 5.44756ZM11.7232 4.93867L10.9973 5.44756L11.2424 4.54195L10.5977 3.96804H11.4397L11.7222 3.22897L12.0533 3.96804H12.7712L12.2072 4.54195L12.4255 5.44756L11.7232 4.93867ZM2.99731 9.44756L3.72319 8.93867L4.42553 9.44756L4.20716 8.54195L4.7712 7.96804H4.05334L3.72217 7.22897L3.43974 7.96804H2.59766L3.24237 8.54195L2.99731 9.44756ZM7.72319 8.93867L6.99731 9.44756L7.24237 8.54195L6.59766 7.96804H7.43974L7.72217 7.22897L8.05334 7.96804H8.7712L8.20716 8.54195L8.42553 9.44756L7.72319 8.93867ZM10.9973 9.44756L11.7232 8.93867L12.4255 9.44756L12.2072 8.54195L12.7712 7.96804H12.0533L11.7222 7.22897L11.4397 7.96804H10.5977L11.2424 8.54195L10.9973 9.44756ZM15.7232 4.93867L14.9973 5.44756L15.2424 4.54195L14.5977 3.96804H15.4397L15.7222 3.22897L16.0533 3.96804H16.7712L16.2072 4.54195L16.4255 5.44756L15.7232 4.93867ZM14.9973 9.44756L15.7232 8.93867L16.4255 9.44756L16.2072 8.54195L16.7712 7.96804H16.0533L15.7222 7.22897L15.4397 7.96804H14.5977L15.2424 8.54195L14.9973 9.44756Z" fill="#F7FCFF"/>
</g>
</svg>
