<svg width="32" height="24" viewBox="0 0 32 24" fill="none" xmlns="http://www.w3.org/2000/svg">
<mask id="mask0_5190_104457" style="mask-type:luminance" maskUnits="userSpaceOnUse" x="0" y="0" width="32" height="24">
<rect width="32" height="24" fill="white"/>
</mask>
<g mask="url(#mask0_5190_104457)">
<path fill-rule="evenodd" clip-rule="evenodd" d="M0 0V24H32V0H0Z" fill="#F7FCFF"/>
<mask id="mask1_5190_104457" style="mask-type:luminance" maskUnits="userSpaceOnUse" x="0" y="0" width="32" height="24">
<path fill-rule="evenodd" clip-rule="evenodd" d="M0 0V24H32V0H0Z" fill="white"/>
</mask>
<g mask="url(#mask1_5190_104457)">
<rect y="2" width="32" height="3" fill="#2E42A5"/>
<rect y="8" width="32" height="3" fill="#2E42A5"/>
<rect y="14" width="32" height="3" fill="#2E42A5"/>
<rect y="19" width="32" height="3" fill="#2E42A5"/>
<rect width="14" height="14" fill="#F7FCFF"/>
<path fill-rule="evenodd" clip-rule="evenodd" d="M4.78312 2.58223C4.70983 2.57731 4.64585 2.63221 4.64021 2.70485C4.61279 3.05799 4.92364 3.37903 5.09573 3.55677L5.1127 3.57431C5.13988 3.60245 5.16772 3.63025 5.2026 3.66431C5.20258 3.66429 5.28398 3.74331 5.30626 3.76534C5.45571 3.91314 5.48811 4.05157 5.52448 4.207L5.53348 4.24523C5.54921 4.31109 5.56538 4.39071 5.58314 4.47814L5.58315 4.47815C5.66186 4.86562 5.77174 5.40643 6.01173 5.58273C6.07051 5.6259 6.48232 5.3694 6.52645 5.31078C6.54202 5.2901 6.58805 5.25588 6.63853 5.21834L6.63854 5.21834C6.73116 5.14948 6.83877 5.06947 6.80073 5.04152C6.54942 4.85692 6.35851 4.40952 6.11047 3.76534C5.97804 3.46204 5.63126 3.26924 5.34349 3.10925C5.09769 2.97259 4.89495 2.85987 4.9056 2.72266C4.91124 2.65002 4.8564 2.58715 4.78312 2.58223ZM8.83042 2.68166C8.79463 2.61752 8.71374 2.59376 8.64974 2.62859C8.33864 2.79793 8.23869 3.23348 8.18336 3.47461L8.17789 3.4984C8.16909 3.53652 8.16094 3.57501 8.15137 3.62281C8.15138 3.62279 8.12944 3.73409 8.1231 3.76477C8.08054 3.97061 7.98209 4.07317 7.87154 4.18833L7.84438 4.2167C7.79771 4.26576 7.73974 4.32269 7.67609 4.38521C7.39401 4.66226 7.00028 5.04895 6.98314 5.34625C6.97894 5.41906 7.41835 5.62473 7.49155 5.62982C7.51737 5.63161 7.57115 5.65157 7.63012 5.67347C7.73832 5.71365 7.86403 5.76032 7.86675 5.7132C7.8847 5.40189 8.15594 4.99811 8.5611 4.43923C8.74335 4.16298 8.71617 3.76714 8.69362 3.43866C8.67436 3.15809 8.65848 2.92666 8.77935 2.86087C8.84334 2.82603 8.8662 2.7458 8.83042 2.68166ZM11.4167 5.03056C11.4872 5.04873 11.5302 5.12127 11.5126 5.19259C11.4951 5.26391 11.4236 5.30699 11.3531 5.28882C11.2198 5.25451 11.0736 5.4346 10.8963 5.65293C10.6888 5.90855 10.4387 6.21658 10.117 6.29433C9.43954 6.42674 8.96579 6.53706 8.74035 6.7525C8.70622 6.78511 8.64612 6.66524 8.59438 6.56207L8.59438 6.56206L8.59438 6.56206C8.56618 6.50582 8.54047 6.45455 8.52281 6.43563C8.47274 6.38199 8.29165 5.93189 8.34437 5.88151C8.55966 5.67577 9.11134 5.66148 9.5066 5.65124L9.50661 5.65124C9.59579 5.64893 9.67701 5.64683 9.7446 5.64278L9.78381 5.64054C9.94319 5.63172 10.0851 5.62386 10.2567 5.50234C10.2818 5.48452 10.3712 5.41996 10.3741 5.41785L10.3741 5.4178C10.4137 5.38936 10.446 5.36677 10.4784 5.34489L10.4986 5.33123C10.7035 5.19261 11.0737 4.94223 11.4167 5.03056ZM2.32341 5.47382C2.26811 5.52217 2.26169 5.60623 2.30907 5.66158C2.53939 5.93068 2.9862 5.93788 3.23357 5.94187C3.24194 5.94201 3.25008 5.94214 3.25797 5.94228C3.29709 5.94296 3.33644 5.94293 3.38518 5.94235C3.38516 5.94235 3.49859 5.94066 3.52991 5.94049C3.74011 5.93932 3.8609 6.0143 3.99652 6.09849C4.00754 6.10533 4.01865 6.11223 4.02992 6.11915C4.08761 6.15461 4.15535 6.19947 4.22973 6.24873C4.55938 6.46705 5.01948 6.77178 5.31385 6.72673C5.38594 6.7157 5.49576 6.24313 5.48551 6.17047C5.4819 6.14484 5.49025 6.08809 5.4994 6.02586C5.51621 5.91166 5.53572 5.779 5.48906 5.78614C5.18082 5.8333 4.72947 5.65194 4.09858 5.37183C3.79047 5.251 3.40893 5.35988 3.09231 5.45023C2.82188 5.52741 2.59881 5.59107 2.50932 5.48651C2.46195 5.43116 2.37871 5.42548 2.32341 5.47382Z" fill="#FFC125"/>
<path d="M4.64021 2.70485L4.56543 2.69904V2.69904L4.64021 2.70485ZM4.78312 2.58223L4.77809 2.65706L4.78312 2.58223ZM5.09573 3.55677L5.14964 3.50462L5.14961 3.5046L5.09573 3.55677ZM5.1127 3.57431L5.16665 3.52221L5.16661 3.52216L5.1127 3.57431ZM5.2026 3.66431L5.1502 3.71797L5.25529 3.61094L5.2026 3.66431ZM5.30626 3.76534L5.25352 3.81867L5.25352 3.81867L5.30626 3.76534ZM5.52448 4.207L5.45145 4.22409L5.45147 4.2242L5.52448 4.207ZM5.53348 4.24523L5.46048 4.26243L5.46053 4.26265L5.53348 4.24523ZM5.58314 4.47814L5.50951 4.4931L5.51068 4.49747L5.58314 4.47814ZM5.58315 4.47815L5.65678 4.46319L5.65561 4.45882L5.58315 4.47815ZM6.01173 5.58273L5.96733 5.64317H5.96733L6.01173 5.58273ZM6.52645 5.31078L6.58637 5.35589V5.35589L6.52645 5.31078ZM6.63853 5.21834L6.59687 5.15586L6.59378 5.15816L6.63853 5.21834ZM6.63854 5.21834L6.68019 5.28083L6.68328 5.27853L6.63854 5.21834ZM6.80073 5.04152L6.75633 5.10197L6.80073 5.04152ZM6.11047 3.76534L6.18053 3.73836L6.1792 3.73533L6.11047 3.76534ZM5.34349 3.10925L5.30705 3.1748L5.34349 3.10925ZM4.9056 2.72266L4.83083 2.71686V2.71686L4.9056 2.72266ZM8.64974 2.62859L8.61389 2.56271V2.56271L8.64974 2.62859ZM8.83042 2.68166L8.89591 2.64511V2.64511L8.83042 2.68166ZM8.18336 3.47461L8.25645 3.49142L8.25646 3.49139L8.18336 3.47461ZM8.17789 3.4984L8.25097 3.51527L8.25098 3.5152L8.17789 3.4984ZM8.15137 3.62281L8.07783 3.60809L8.22485 3.63785L8.15137 3.62281ZM8.1231 3.76477L8.19655 3.77995L8.19655 3.77995L8.1231 3.76477ZM7.87154 4.18833L7.81743 4.13639L7.81736 4.13647L7.87154 4.18833ZM7.84438 4.2167L7.7902 4.16484L7.79005 4.16501L7.84438 4.2167ZM7.67609 4.38521L7.62354 4.3317L7.67609 4.38521ZM6.98314 5.34625L7.05801 5.35056V5.35056L6.98314 5.34625ZM7.49155 5.62982L7.48635 5.70463L7.49155 5.62982ZM7.63012 5.67347L7.65623 5.60316L7.63012 5.67347ZM7.86675 5.7132L7.79188 5.70888V5.70888L7.86675 5.7132ZM8.5611 4.43923L8.62188 4.4833L8.62371 4.48053L8.5611 4.43923ZM8.69362 3.43866L8.76845 3.43352V3.43352L8.69362 3.43866ZM8.77935 2.86087L8.74349 2.79499V2.79499L8.77935 2.86087ZM11.4167 5.03056L11.4354 4.95793L11.4167 5.03056ZM11.3531 5.28882L11.3344 5.36145L11.3531 5.28882ZM10.8963 5.65293L10.8381 5.60566L10.8963 5.65293ZM10.117 6.29433L10.1314 6.36801L10.1346 6.36723L10.117 6.29433ZM8.74035 6.7525L8.68853 6.69827H8.68853L8.74035 6.7525ZM8.59438 6.56207L8.5245 6.59002L8.52734 6.59568L8.59438 6.56207ZM8.59438 6.56206L8.66426 6.53411L8.66146 6.52852L8.59438 6.56206ZM8.59438 6.56206L8.66146 6.52852L8.66142 6.52844L8.59438 6.56206ZM8.52281 6.43563L8.46798 6.4868V6.4868L8.52281 6.43563ZM8.34437 5.88151L8.39619 5.93573L8.34437 5.88151ZM9.5066 5.65124L9.50854 5.72622L9.50948 5.72618L9.5066 5.65124ZM9.50661 5.65124L9.50467 5.57626L9.50373 5.57629L9.50661 5.65124ZM9.7446 5.64278L9.74034 5.5679L9.74011 5.56791L9.7446 5.64278ZM9.78381 5.64054L9.77966 5.56566L9.77955 5.56567L9.78381 5.64054ZM10.2567 5.50234L10.2133 5.44114L10.2567 5.50234ZM10.3741 5.41785L10.3302 5.35701L10.3302 5.35706L10.3741 5.41785ZM10.3741 5.4178L10.3304 5.35688L10.3303 5.35696L10.3741 5.4178ZM10.4784 5.34489L10.5203 5.40707L10.5204 5.40703L10.4784 5.34489ZM10.4986 5.33123L10.5406 5.39337L10.5406 5.39335L10.4986 5.33123ZM2.30907 5.66158L2.36605 5.61281H2.36605L2.30907 5.66158ZM2.32341 5.47382L2.37278 5.53029L2.37278 5.53029L2.32341 5.47382ZM3.23357 5.94187L3.23236 6.01686H3.23236L3.23357 5.94187ZM3.25797 5.94228L3.25928 5.86729H3.25928L3.25797 5.94228ZM3.38518 5.94235L3.38607 6.01734L3.3845 5.86735L3.38518 5.94235ZM3.52991 5.94049L3.53033 6.01549H3.53033L3.52991 5.94049ZM3.99652 6.09849L4.03608 6.03477H4.03608L3.99652 6.09849ZM4.02992 6.11915L3.99065 6.18305H3.99065L4.02992 6.11915ZM4.22973 6.24873L4.18832 6.31126L4.22973 6.24873ZM5.31385 6.72673L5.32519 6.80087H5.32519L5.31385 6.72673ZM5.48551 6.17047L5.55978 6.16V6.16L5.48551 6.17047ZM5.4994 6.02586L5.57361 6.03677H5.57361L5.4994 6.02586ZM5.48906 5.78614L5.47772 5.712L5.48906 5.78614ZM4.09858 5.37183L4.12904 5.30322L4.12596 5.30201L4.09858 5.37183ZM3.09231 5.45023L3.1129 5.52235H3.1129L3.09231 5.45023ZM2.50932 5.48651L2.5663 5.43774H2.5663L2.50932 5.48651ZM4.71498 2.71066C4.7174 2.67957 4.74527 2.65486 4.77809 2.65706L4.78814 2.5074C4.67439 2.49977 4.5743 2.58485 4.56543 2.69904L4.71498 2.71066ZM5.14961 3.5046C5.06313 3.41528 4.94728 3.29536 4.85594 3.15557C4.76431 3.01532 4.70311 2.86361 4.71498 2.71066L4.56543 2.69904C4.54989 2.89924 4.6304 3.08461 4.73037 3.23761C4.83062 3.39106 4.95624 3.52052 5.04185 3.60894L5.14961 3.5046ZM5.16661 3.52216L5.14964 3.50462L5.04183 3.60892L5.0588 3.62646L5.16661 3.52216ZM5.255 3.61065C5.22045 3.57691 5.19316 3.54966 5.16665 3.52221L5.05875 3.62641C5.0866 3.65525 5.115 3.68359 5.1502 3.71797L5.255 3.61065ZM5.359 3.71201C5.34759 3.70073 5.32142 3.67523 5.29837 3.6528C5.28679 3.64153 5.27591 3.63096 5.26792 3.6232C5.26393 3.61932 5.26066 3.61614 5.25839 3.61394C5.25725 3.61284 5.25636 3.61198 5.25576 3.61139C5.25546 3.6111 5.25523 3.61087 5.25508 3.61072C5.255 3.61065 5.25494 3.61059 5.2549 3.61055C5.25488 3.61053 5.25486 3.61052 5.25485 3.61051C5.25484 3.6105 5.25484 3.61049 5.25483 3.61049C5.25483 3.61048 5.25482 3.61048 5.25481 3.61047C5.2548 3.61046 5.14898 3.61188 5.14991 3.71769L5.25529 3.61094C5.25623 3.71675 5.15041 3.71817 5.15039 3.71815C5.15039 3.71815 5.15038 3.71814 5.15038 3.71814C5.15038 3.71814 5.15038 3.71814 5.15038 3.71815C5.15039 3.71815 5.1504 3.71817 5.15042 3.71819C5.15046 3.71822 5.15052 3.71828 5.15059 3.71835C5.15075 3.7185 5.15098 3.71872 5.15127 3.71901C5.15187 3.71959 5.15276 3.72045 5.15389 3.72155C5.15615 3.72375 5.15941 3.72692 5.1634 3.73079C5.17136 3.73853 5.18222 3.74908 5.19377 3.76031C5.21699 3.7829 5.24265 3.80792 5.25352 3.81867L5.359 3.71201ZM5.5975 4.18992C5.56078 4.03296 5.52472 3.8759 5.35899 3.71201L5.25352 3.81867C5.38671 3.95038 5.41543 4.07018 5.45145 4.22409L5.5975 4.18992ZM5.60648 4.22803L5.59748 4.1898L5.45147 4.2242L5.46048 4.26243L5.60648 4.22803ZM5.65664 4.46321C5.63896 4.37618 5.62252 4.29518 5.60643 4.22781L5.46053 4.26265C5.4759 4.32701 5.4918 4.40524 5.50965 4.49307L5.65664 4.46321ZM5.65561 4.45882L5.65561 4.45882L5.51068 4.49747L5.51068 4.49747L5.65561 4.45882ZM6.05613 5.52228C5.95698 5.44944 5.87532 5.29127 5.80824 5.0863C5.74252 4.88548 5.69617 4.65777 5.65664 4.46321L5.50965 4.49308C5.54884 4.68599 5.59678 4.92242 5.66568 5.13295C5.73322 5.33933 5.82649 5.53971 5.96733 5.64317L6.05613 5.52228ZM6.46653 5.26567C6.4672 5.26478 6.46262 5.27012 6.44708 5.28261C6.43335 5.29365 6.41498 5.3072 6.39302 5.32238C6.34919 5.35269 6.29358 5.38775 6.23743 5.41978C6.18087 5.45203 6.12595 5.47995 6.08306 5.49699C6.06129 5.50564 6.0456 5.51027 6.03588 5.51198C6.03103 5.51284 6.03028 5.51249 6.03244 5.51265C6.03411 5.51278 6.04445 5.5137 6.05613 5.52228L5.96733 5.64317C5.98636 5.65715 6.0068 5.66113 6.02099 5.66221C6.03566 5.66334 6.04983 5.66184 6.06195 5.6597C6.08617 5.65542 6.11265 5.64664 6.13843 5.6364C6.19067 5.61565 6.25248 5.58388 6.31174 5.55008C6.3714 5.51605 6.43069 5.47869 6.47832 5.44577C6.5021 5.42933 6.5236 5.41356 6.54106 5.39952C6.55673 5.38693 6.57467 5.37143 6.58637 5.35589L6.46653 5.26567ZM6.59378 5.15816C6.56887 5.17668 6.54355 5.19549 6.52251 5.21235C6.50338 5.22767 6.48076 5.24677 6.46653 5.26567L6.58637 5.35589C6.58623 5.35608 6.58816 5.35364 6.59418 5.34811C6.59975 5.343 6.6071 5.33678 6.61629 5.32942C6.63478 5.31461 6.65771 5.29754 6.68328 5.27853L6.59378 5.15816ZM6.59693 5.15594L6.59693 5.15594L6.68013 5.28075L6.68014 5.28075L6.59693 5.15594ZM6.75633 5.10197C6.74573 5.09418 6.73575 5.08011 6.73388 5.06204C6.73237 5.04748 6.73705 5.03838 6.73724 5.038C6.73725 5.03798 6.73277 5.04518 6.71692 5.06026C6.68724 5.08852 6.64142 5.12274 6.59379 5.15815L6.68328 5.27853C6.72828 5.24508 6.78258 5.20486 6.82034 5.16891C6.83822 5.15189 6.8593 5.12954 6.87169 5.10451C6.87806 5.09162 6.88563 5.07115 6.88308 5.04659C6.88018 5.01854 6.86524 4.99585 6.84513 4.98108L6.75633 5.10197ZM6.04048 3.79229C6.16441 4.11415 6.27542 4.3905 6.38759 4.60991C6.49913 4.82808 6.61618 4.99902 6.75633 5.10197L6.84513 4.98108C6.73397 4.89942 6.62991 4.75436 6.52115 4.54163C6.41303 4.33015 6.30457 4.06072 6.18046 3.73839L6.04048 3.79229ZM5.30705 3.1748C5.45175 3.25525 5.60557 3.34091 5.73977 3.4432C5.87392 3.54545 5.98269 3.66012 6.04173 3.79535L6.1792 3.73533C6.10581 3.56725 5.97498 3.43387 5.83069 3.3239C5.68646 3.21396 5.523 3.12324 5.37994 3.0437L5.30705 3.1748ZM4.83083 2.71686C4.82228 2.82687 4.90021 2.91136 4.98227 2.97531C5.06796 3.0421 5.18598 3.10749 5.30705 3.1748L5.37994 3.0437C5.2552 2.97435 5.14896 2.91505 5.07448 2.857C4.99638 2.79613 4.97826 2.75566 4.98038 2.72847L4.83083 2.71686ZM4.77809 2.65706C4.81033 2.65923 4.83319 2.6864 4.83083 2.71686L4.98038 2.72847C4.98929 2.61365 4.90248 2.51507 4.78814 2.5074L4.77809 2.65706ZM8.6856 2.69446C8.71299 2.67955 8.74889 2.68947 8.76492 2.7182L8.89591 2.64511C8.84036 2.54556 8.71449 2.50796 8.61389 2.56271L8.6856 2.69446ZM8.25646 3.49139C8.28427 3.37021 8.32174 3.20773 8.38924 3.05499C8.45695 2.90176 8.55086 2.7678 8.6856 2.69446L8.61389 2.56271C8.43753 2.65871 8.32591 2.8272 8.25204 2.99436C8.17795 3.16202 8.13779 3.33788 8.11026 3.45784L8.25646 3.49139ZM8.25098 3.5152L8.25645 3.49142L8.11027 3.4578L8.1048 3.48159L8.25098 3.5152ZM8.22491 3.63753C8.23439 3.59018 8.24239 3.55245 8.25097 3.51527L8.10481 3.48153C8.0958 3.52059 8.08749 3.55984 8.07783 3.60809L8.22491 3.63753ZM8.19655 3.77995C8.19979 3.76424 8.20693 3.7284 8.21318 3.69686C8.21633 3.68101 8.21927 3.66612 8.22143 3.6552C8.22251 3.64974 8.22339 3.64527 8.224 3.64216C8.22431 3.64061 8.22455 3.6394 8.22471 3.63857C8.22479 3.63816 8.22485 3.63785 8.2249 3.63763C8.22492 3.63753 8.22493 3.63745 8.22494 3.63739C8.22495 3.63736 8.22495 3.63734 8.22496 3.63733C8.22496 3.63732 8.22496 3.63731 8.22496 3.6373C8.22496 3.6373 8.22496 3.63729 8.22496 3.63728C8.22497 3.63726 8.16611 3.54927 8.0779 3.60777L8.22485 3.63785C8.13664 3.69635 8.07778 3.60836 8.07778 3.60834C8.07778 3.60834 8.07778 3.60833 8.07779 3.60833C8.07779 3.60833 8.07779 3.60833 8.07778 3.60834C8.07778 3.60835 8.07778 3.60836 8.07777 3.60839C8.07776 3.60844 8.07775 3.60852 8.07773 3.60863C8.07769 3.60883 8.07762 3.60915 8.07754 3.60956C8.07738 3.61038 8.07714 3.61158 8.07684 3.61313C8.07623 3.61623 8.07535 3.62069 8.07427 3.62613C8.07212 3.63703 8.06918 3.65188 8.06605 3.66769C8.05975 3.69947 8.05275 3.73461 8.04965 3.74959L8.19655 3.77995ZM7.92564 4.24027C8.03727 4.12398 8.14936 4.0082 8.19655 3.77995L8.04965 3.74958C8.01173 3.93302 7.9269 4.02236 7.81743 4.13639L7.92564 4.24027ZM7.89857 4.26856L7.92572 4.24018L7.81736 4.13647L7.7902 4.16484L7.89857 4.26856ZM7.72865 4.43872C7.792 4.37649 7.85098 4.31858 7.89872 4.26839L7.79005 4.16501C7.74444 4.21295 7.68748 4.2689 7.62354 4.3317L7.72865 4.43872ZM7.05801 5.35056C7.0651 5.22774 7.15328 5.0731 7.28865 4.90521C7.42128 4.74072 7.587 4.57783 7.72865 4.43872L7.62354 4.3317C7.4831 4.46964 7.31092 4.63862 7.17188 4.81106C7.03558 4.9801 6.91832 5.16746 6.90826 5.34193L7.05801 5.35056ZM7.49675 5.555C7.49786 5.55507 7.49088 5.55414 7.47195 5.54791C7.45521 5.54241 7.43384 5.53438 7.40915 5.52423C7.35986 5.50397 7.30017 5.47644 7.24272 5.44678C7.18487 5.41692 7.13154 5.38607 7.09389 5.35937C7.07478 5.34582 7.06236 5.33519 7.05562 5.32797C7.05226 5.32437 7.05215 5.32355 7.05319 5.32545C7.05399 5.32692 7.05885 5.3361 7.05801 5.35056L6.90826 5.34193C6.9069 5.3655 6.9147 5.38481 6.92152 5.3973C6.92857 5.41022 6.93754 5.42129 6.94594 5.43029C6.96271 5.44827 6.9845 5.46569 7.00713 5.48174C7.05298 5.51425 7.11329 5.54878 7.17392 5.58007C7.23495 5.61158 7.29857 5.64096 7.35213 5.66297C7.37886 5.67396 7.4038 5.6834 7.42508 5.6904C7.44417 5.69668 7.46694 5.70329 7.48635 5.70463L7.49675 5.555ZM7.65623 5.60316C7.62712 5.59236 7.59755 5.58137 7.57196 5.5729C7.54869 5.5652 7.52034 5.55663 7.49675 5.555L7.48635 5.70463C7.48611 5.70462 7.48921 5.70492 7.49713 5.70695C7.50445 5.70884 7.51368 5.71161 7.52485 5.71531C7.54734 5.72275 7.57414 5.73269 7.60401 5.74378L7.65623 5.60316ZM7.79188 5.70888C7.79263 5.69576 7.799 5.67972 7.81313 5.66831C7.82452 5.65911 7.8347 5.65808 7.83512 5.65803C7.83515 5.65803 7.82667 5.65819 7.80539 5.65312C7.76552 5.64361 7.71187 5.62382 7.65623 5.60316L7.60401 5.74378C7.65657 5.7633 7.71988 5.78693 7.7706 5.79903C7.79461 5.80475 7.82483 5.81026 7.85257 5.80701C7.86685 5.80534 7.88814 5.80053 7.90735 5.78503C7.9293 5.76731 7.94019 5.74242 7.94163 5.71751L7.79188 5.70888ZM8.50038 4.39521C8.29795 4.67444 8.12664 4.91806 8.00372 5.13164C7.88149 5.34401 7.80189 5.53527 7.79188 5.70888L7.94163 5.71751C7.94957 5.57981 8.01455 5.41353 8.13372 5.20646C8.2522 5.00061 8.41909 4.7629 8.62182 4.48326L8.50038 4.39521ZM8.6188 3.4438C8.63014 3.60897 8.64207 3.78463 8.62937 3.95289C8.61668 4.12109 8.57975 4.27476 8.4985 4.39793L8.62371 4.48053C8.7247 4.32745 8.7653 4.14507 8.77895 3.96417C8.79259 3.78333 8.77966 3.59683 8.76845 3.43352L8.6188 3.4438ZM8.74349 2.79499C8.64657 2.84775 8.61816 2.95912 8.60921 3.06277C8.59987 3.171 8.60931 3.3056 8.6188 3.4438L8.76845 3.43352C8.75867 3.29114 8.75054 3.16974 8.75866 3.07567C8.76717 2.97701 8.79125 2.93978 8.81521 2.92674L8.74349 2.79499ZM8.76492 2.7182C8.78066 2.74641 8.77032 2.78039 8.74349 2.79499L8.81521 2.92674C8.91636 2.87168 8.95175 2.74519 8.89591 2.64511L8.76492 2.7182ZM11.5855 5.21053C11.6127 5.09984 11.5463 4.98649 11.4354 4.95793L11.398 5.10319C11.4282 5.11096 11.4477 5.1427 11.4398 5.17465L11.5855 5.21053ZM11.3344 5.36145C11.4459 5.39017 11.558 5.3218 11.5855 5.21053L11.4398 5.17465C11.4321 5.20601 11.4014 5.22381 11.3718 5.21619L11.3344 5.36145ZM10.9545 5.70021C11.0445 5.58941 11.1213 5.49508 11.1914 5.43181C11.2649 5.36547 11.308 5.35466 11.3344 5.36145L11.3718 5.21619C11.2649 5.18868 11.1682 5.25075 11.0909 5.32046C11.0103 5.39324 10.9254 5.49812 10.8381 5.60566L10.9545 5.70021ZM10.1346 6.36723C10.3129 6.32414 10.467 6.21845 10.6003 6.09546C10.7336 5.9725 10.8514 5.82729 10.9545 5.70021L10.8381 5.60566C10.7337 5.73419 10.6227 5.8708 10.4986 5.9852C10.3746 6.09956 10.2428 6.18676 10.0994 6.22143L10.1346 6.36723ZM8.79216 6.80672C8.89188 6.71143 9.05281 6.63413 9.28119 6.56397C9.50823 6.49422 9.79241 6.43419 10.1314 6.36793L10.1026 6.22072C9.76413 6.28688 9.4727 6.34822 9.23714 6.42059C9.00292 6.49254 8.81425 6.57813 8.68853 6.69827L8.79216 6.80672ZM8.52734 6.59568C8.55247 6.6458 8.58265 6.70626 8.61149 6.74969C8.62515 6.77026 8.64349 6.7949 8.666 6.81144C8.67758 6.81995 8.69643 6.83096 8.72105 6.83272C8.74919 6.83473 8.77413 6.82396 8.79216 6.80672L8.68853 6.69827C8.69804 6.68919 8.71363 6.68181 8.73175 6.6831C8.74635 6.68414 8.7545 6.69033 8.75484 6.69058C8.75486 6.69059 8.74855 6.68494 8.73644 6.66671C8.71377 6.63257 8.68803 6.58151 8.66142 6.52845L8.52734 6.59568ZM8.52474 6.58992L8.52474 6.58992L8.66402 6.53421L8.66401 6.53421L8.52474 6.58992ZM8.52729 6.5956L8.5273 6.5956L8.66146 6.52852L8.66146 6.52852L8.52729 6.5956ZM8.46798 6.4868C8.46782 6.48663 8.46988 6.48896 8.47428 6.49585C8.47835 6.50222 8.4832 6.51054 8.48885 6.52087C8.50023 6.54164 8.51305 6.56719 8.52733 6.59567L8.66142 6.52844C8.6475 6.50069 8.63337 6.47248 8.62043 6.44884C8.60866 6.42734 8.59378 6.40175 8.57764 6.38445L8.46798 6.4868ZM8.29256 5.82728C8.27549 5.84359 8.26802 5.86303 8.26449 5.87682C8.26083 5.89107 8.25985 5.90529 8.25985 5.9176C8.25985 5.94219 8.26391 5.96979 8.26952 5.99696C8.28088 6.05201 8.30143 6.11839 8.32443 6.18263C8.34758 6.24729 8.37407 6.31217 8.39823 6.36479C8.41029 6.39106 8.42209 6.41498 8.43288 6.43461C8.44256 6.45222 8.4547 6.47258 8.46798 6.4868L8.57764 6.38445C8.5784 6.38527 8.57393 6.37983 8.56433 6.36236C8.55584 6.34692 8.54569 6.32647 8.53455 6.30221C8.51232 6.25378 8.48744 6.19293 8.46565 6.13207C8.44371 6.07077 8.42575 6.01184 8.41642 5.96664C8.41168 5.94369 8.40985 5.92744 8.40985 5.91757C8.40985 5.91264 8.41033 5.91197 8.40979 5.91406C8.40937 5.9157 8.40666 5.92572 8.39619 5.93573L8.29256 5.82728ZM9.50465 5.57627C9.30787 5.58136 9.0667 5.58752 8.8474 5.61881C8.63243 5.64949 8.4189 5.70655 8.29256 5.82728L8.39619 5.93573C8.48514 5.85073 8.65509 5.79777 8.86859 5.76731C9.07777 5.73746 9.31007 5.73136 9.50854 5.72621L9.50465 5.57627ZM9.50373 5.57629L9.50371 5.5763L9.50948 5.72618L9.5095 5.72618L9.50373 5.57629ZM9.74011 5.56791C9.67406 5.57187 9.59426 5.57394 9.50467 5.57626L9.50856 5.72621C9.59732 5.72391 9.67995 5.72178 9.74908 5.71764L9.74011 5.56791ZM9.77955 5.56567L9.74034 5.5679L9.74886 5.71765L9.78807 5.71542L9.77955 5.56567ZM10.2133 5.44114C10.0605 5.54943 9.93749 5.55692 9.77966 5.56566L9.78796 5.71543C9.9489 5.70652 10.1098 5.69828 10.3 5.56353L10.2133 5.44114ZM10.3302 5.35706C10.327 5.35931 10.2381 5.42359 10.2133 5.44114L10.3 5.56353C10.3255 5.54546 10.4153 5.4806 10.418 5.47865L10.3302 5.35706ZM10.3303 5.35696L10.3302 5.35701L10.4179 5.47869L10.418 5.47864L10.3303 5.35696ZM10.4364 5.28272C10.4032 5.30513 10.3704 5.32818 10.3304 5.35688L10.4179 5.47872C10.4571 5.45055 10.4887 5.42841 10.5203 5.40707L10.4364 5.28272ZM10.4566 5.26909L10.4364 5.28275L10.5204 5.40703L10.5406 5.39337L10.4566 5.26909ZM11.4354 4.95793C11.2409 4.90785 11.0444 4.95496 10.8764 5.02683C10.7078 5.09892 10.5585 5.20015 10.4566 5.2691L10.5406 5.39335C10.6436 5.32369 10.7818 5.23042 10.9354 5.16474C11.0894 5.09886 11.2494 5.06493 11.398 5.10319L11.4354 4.95793ZM2.36605 5.61281C2.34577 5.58912 2.34801 5.55194 2.37278 5.53029L2.27405 5.41736C2.18822 5.49239 2.17761 5.62333 2.25209 5.71035L2.36605 5.61281ZM3.23478 5.86688C3.11047 5.86488 2.94375 5.862 2.78031 5.82774C2.61635 5.79336 2.4658 5.72936 2.36605 5.61281L2.25209 5.71035C2.38265 5.8629 2.57067 5.93705 2.74953 5.97455C2.92893 6.01216 3.1093 6.01488 3.23236 6.01686L3.23478 5.86688ZM3.25928 5.86729C3.25133 5.86715 3.24314 5.86702 3.23478 5.86688L3.23236 6.01686C3.24074 6.017 3.24883 6.01713 3.25667 6.01727L3.25928 5.86729ZM3.38429 5.86735C3.336 5.86793 3.29743 5.86795 3.25928 5.86729L3.25667 6.01727C3.29675 6.01797 3.33687 6.01793 3.38607 6.01734L3.38429 5.86735ZM3.5295 5.86549C3.51346 5.86558 3.47691 5.86605 3.44476 5.86649C3.4286 5.86671 3.41343 5.86693 3.4023 5.86709C3.39673 5.86717 3.39217 5.86724 3.38901 5.86728C3.38743 5.86731 3.38619 5.86733 3.38535 5.86734C3.38493 5.86734 3.38461 5.86735 3.38439 5.86735C3.38429 5.86735 3.3842 5.86735 3.38415 5.86736C3.38412 5.86736 3.3841 5.86736 3.38408 5.86736C3.38408 5.86736 3.38407 5.86736 3.38406 5.86736C3.38406 5.86736 3.38405 5.86736 3.38404 5.86736C3.38403 5.86736 3.31019 5.94328 3.38586 6.01735L3.3845 5.86735C3.46018 5.94142 3.38634 6.01734 3.38632 6.01734C3.38632 6.01734 3.38631 6.01734 3.38631 6.01734C3.38631 6.01734 3.38631 6.01734 3.38632 6.01734C3.38633 6.01734 3.38635 6.01734 3.38638 6.01734C3.38643 6.01734 3.38651 6.01734 3.38662 6.01734C3.38683 6.01733 3.38715 6.01733 3.38757 6.01732C3.3884 6.01731 3.38963 6.01729 3.39121 6.01727C3.39436 6.01722 3.39891 6.01716 3.40446 6.01708C3.41557 6.01691 3.43071 6.0167 3.44682 6.01648C3.47921 6.01603 3.51505 6.01557 3.53033 6.01549L3.5295 5.86549ZM4.03608 6.03477C3.89913 5.94976 3.76257 5.86419 3.5295 5.86549L3.53033 6.01549C3.71764 6.01444 3.82267 6.07884 3.95697 6.16221L4.03608 6.03477ZM4.06919 6.05525C4.05809 6.04843 4.04712 6.04162 4.03608 6.03477L3.95697 6.16221C3.96796 6.16904 3.97922 6.17602 3.99065 6.18305L4.06919 6.05525ZM4.27115 6.1862C4.19711 6.13717 4.1282 6.09152 4.06919 6.05525L3.99065 6.18305C4.04703 6.2177 4.1136 6.26177 4.18832 6.31126L4.27115 6.1862ZM5.3025 6.6526C5.18088 6.67121 5.0113 6.6171 4.81893 6.5196C4.63046 6.42407 4.43667 6.29583 4.27115 6.1862L4.18832 6.31126C4.35244 6.41996 4.55353 6.55324 4.75111 6.65339C4.9448 6.75157 5.15245 6.8273 5.32519 6.80087L5.3025 6.6526ZM5.41125 6.18094C5.41109 6.17984 5.41163 6.18686 5.40947 6.20668C5.40757 6.2242 5.40416 6.24677 5.39937 6.27303C5.3898 6.32545 5.37528 6.38956 5.35821 6.45192C5.34103 6.51472 5.32194 6.5733 5.30366 6.61567C5.29438 6.63718 5.28656 6.65155 5.2809 6.65964C5.27807 6.66367 5.27729 6.66395 5.27894 6.66254C5.28021 6.66144 5.28818 6.65479 5.3025 6.6526L5.32519 6.80087C5.34853 6.7973 5.3658 6.78566 5.3766 6.77639C5.38776 6.76681 5.39673 6.75574 5.40379 6.74565C5.41789 6.7255 5.4304 6.70057 5.44139 6.67509C5.46365 6.62349 5.48489 6.55731 5.5029 6.49151C5.52102 6.42526 5.53654 6.35692 5.54693 6.29996C5.55212 6.27152 5.55617 6.24516 5.55859 6.22289C5.56077 6.20291 5.56249 6.17927 5.55978 6.16L5.41125 6.18094ZM5.4252 6.01494C5.42068 6.04565 5.41608 6.07686 5.41312 6.10366C5.41043 6.12802 5.40794 6.15752 5.41125 6.18095L5.55978 6.16C5.55981 6.16024 5.55946 6.15715 5.5598 6.14898C5.56012 6.14142 5.56092 6.13182 5.56222 6.12013C5.56482 6.09658 5.56897 6.0683 5.57361 6.03677L5.4252 6.01494ZM5.50041 5.86027C5.48741 5.86226 5.4704 5.85937 5.4563 5.84792C5.44494 5.83869 5.44181 5.82895 5.44168 5.82855C5.44167 5.82852 5.44359 5.83678 5.44305 5.85865C5.44204 5.89962 5.43384 5.95621 5.4252 6.01494L5.57361 6.03677C5.58177 5.98131 5.59172 5.91447 5.59301 5.86234C5.59362 5.83767 5.59272 5.80696 5.58377 5.7805C5.57917 5.76688 5.57004 5.74705 5.55088 5.73149C5.52899 5.7137 5.50238 5.70823 5.47772 5.712L5.50041 5.86027ZM4.06814 5.44038C4.38336 5.58033 4.65727 5.69725 4.89174 5.77307C5.12488 5.84847 5.32851 5.88658 5.50041 5.86027L5.47772 5.712C5.34138 5.73286 5.16522 5.70387 4.9379 5.63035C4.7119 5.55727 4.44469 5.44344 4.12901 5.30328L4.06814 5.44038ZM3.1129 5.52235C3.2721 5.47692 3.44144 5.42873 3.60866 5.40617C3.77583 5.38361 3.93382 5.38778 4.0712 5.44165L4.12596 5.30201C3.95522 5.23505 3.76839 5.23325 3.5886 5.25751C3.40887 5.28177 3.22914 5.33319 3.07173 5.37811L3.1129 5.52235ZM2.45234 5.53528C2.5241 5.61912 2.63894 5.62375 2.74219 5.61095C2.85 5.59758 2.97969 5.56037 3.1129 5.52235L3.07173 5.37811C2.9345 5.41728 2.81744 5.45047 2.72373 5.46209C2.62546 5.47427 2.58403 5.45846 2.5663 5.43774L2.45234 5.53528ZM2.37278 5.53029C2.3971 5.50903 2.43248 5.51207 2.45234 5.53528L2.5663 5.43774C2.49141 5.35025 2.36033 5.34193 2.27405 5.41736L2.37278 5.53029Z" fill="#984111"/>
<path fill-rule="evenodd" clip-rule="evenodd" d="M4.75577 11.2454C4.68249 11.2503 4.6185 11.1954 4.61286 11.1228C4.58544 10.7696 4.89629 10.4486 5.06839 10.2709L5.08536 10.2533C5.11254 10.2252 5.14038 10.1974 5.17526 10.1633C5.17524 10.1633 5.25664 10.0843 5.27891 10.0623C5.42837 9.91448 5.46076 9.77605 5.49713 9.62062L5.50614 9.58239C5.52186 9.51653 5.53804 9.43691 5.5558 9.34948L5.5558 9.34947C5.63452 8.96201 5.74439 8.42119 5.98439 8.24489C6.04317 8.20172 6.45497 8.45822 6.49911 8.51684C6.51468 8.53752 6.56071 8.57174 6.61119 8.60928L6.61119 8.60928C6.70382 8.67814 6.81143 8.75815 6.77339 8.7861C6.52208 8.97071 6.33116 9.4181 6.08312 10.0623C5.95069 10.3656 5.60392 10.5584 5.31615 10.7184C5.07035 10.855 4.8676 10.9678 4.87826 11.105C4.8839 11.1776 4.82906 11.2405 4.75577 11.2454ZM8.80307 11.146C8.76728 11.2101 8.68639 11.2339 8.6224 11.199C8.3113 11.0297 8.21135 10.5941 8.15602 10.353L8.15055 10.3292C8.14175 10.2911 8.1336 10.2526 8.12403 10.2048C8.12403 10.2048 8.1021 10.0935 8.09576 10.0629C8.0532 9.85701 7.95474 9.75445 7.8442 9.63929L7.81704 9.61092C7.77027 9.56176 7.71145 9.50402 7.64662 9.44037L7.64659 9.44035L7.64658 9.44034C7.35995 9.15897 6.9558 8.76224 6.9558 8.48137C6.9558 8.3538 7.39101 8.20289 7.46421 8.19781C7.49003 8.19601 7.5438 8.17605 7.60278 8.15415C7.71098 8.11398 7.83669 8.0673 7.83941 8.11443C7.85736 8.42573 8.12859 8.82951 8.53376 9.38839C8.716 9.66464 8.68883 10.0605 8.66628 10.389C8.64702 10.6695 8.63113 10.901 8.75201 10.9668C8.816 11.0016 8.83886 11.0818 8.80307 11.146ZM11.3893 8.79706C11.4599 8.7789 11.5029 8.70635 11.4853 8.63503C11.4677 8.56372 11.3963 8.52063 11.3257 8.5388C11.1925 8.57311 11.0462 8.39302 10.869 8.17469C10.6614 7.91907 10.4114 7.61105 10.0897 7.53329C9.41219 7.40088 8.93844 7.29056 8.713 7.07512C8.67888 7.04251 8.61877 7.16238 8.56704 7.26556L8.56703 7.26556L8.56703 7.26557C8.53884 7.3218 8.51313 7.37307 8.49546 7.39199C8.4454 7.44563 8.2643 7.89573 8.31703 7.94612C8.53232 8.15185 9.084 8.16614 9.47925 8.17638L9.47927 8.17638C9.56845 8.17869 9.64966 8.1808 9.71725 8.18485L9.75646 8.18708C9.91585 8.1959 10.0578 8.20376 10.2293 8.32529C10.2544 8.3431 10.3438 8.40766 10.3467 8.40977L10.3468 8.40982C10.3864 8.43826 10.4186 8.46085 10.451 8.48273L10.4713 8.4964C10.6762 8.63501 11.0463 8.88539 11.3893 8.79706ZM2.29607 8.3538C2.24077 8.30546 2.23435 8.22139 2.28172 8.16604C2.51204 7.89694 2.95886 7.88974 3.20622 7.88575C3.21459 7.88561 3.22273 7.88548 3.23063 7.88534C3.26975 7.88466 3.30909 7.88469 3.35784 7.88527C3.35781 7.88527 3.47125 7.88696 3.50257 7.88713C3.71276 7.8883 3.83355 7.81332 3.96918 7.72913C3.98019 7.72229 3.99131 7.71539 4.00258 7.70847C4.06027 7.67302 4.12801 7.62815 4.20239 7.57889C4.53204 7.36057 4.99214 7.05585 5.2865 7.10089C5.3586 7.11192 5.46841 7.58449 5.45817 7.65715C5.45455 7.68278 5.4629 7.73953 5.47206 7.80177C5.48886 7.91596 5.50838 8.04863 5.46172 8.04149C5.15348 7.99432 4.70213 8.17568 4.07123 8.45579C3.76312 8.57662 3.38158 8.46774 3.06497 8.37739C2.79453 8.30021 2.57146 8.23656 2.48198 8.34111C2.4346 8.39646 2.35137 8.40214 2.29607 8.3538Z" fill="#FFC125"/>
<path d="M4.61286 11.1228L4.53809 11.1286V11.1286L4.61286 11.1228ZM4.75577 11.2454L4.75075 11.1706L4.75577 11.2454ZM5.06839 10.2709L5.12229 10.323L5.12227 10.323L5.06839 10.2709ZM5.08536 10.2533L5.13931 10.3054L5.13926 10.3055L5.08536 10.2533ZM5.17526 10.1633L5.12286 10.1096L5.22795 10.2167L5.17526 10.1633ZM5.27891 10.0623L5.22618 10.009L5.22618 10.009L5.27891 10.0623ZM5.49713 9.62062L5.4241 9.60353L5.42413 9.60342L5.49713 9.62062ZM5.50614 9.58239L5.43314 9.56519L5.43319 9.56497L5.50614 9.58239ZM5.5558 9.34948L5.48217 9.33452L5.48333 9.33016L5.5558 9.34948ZM5.5558 9.34947L5.62943 9.36443L5.62827 9.3688L5.5558 9.34947ZM5.98439 8.24489L5.93999 8.18445H5.93999L5.98439 8.24489ZM6.49911 8.51684L6.55903 8.47173V8.47173L6.49911 8.51684ZM6.61119 8.60928L6.56953 8.67176L6.56644 8.66946L6.61119 8.60928ZM6.61119 8.60928L6.65285 8.54679L6.65594 8.54909L6.61119 8.60928ZM6.77339 8.7861L6.72899 8.72566L6.77339 8.7861ZM6.08312 10.0623L6.15318 10.0893L6.15186 10.0923L6.08312 10.0623ZM5.31615 10.7184L5.2797 10.6528L5.31615 10.7184ZM4.87826 11.105L4.80348 11.1108V11.1108L4.87826 11.105ZM8.6224 11.199L8.58654 11.2649V11.2649L8.6224 11.199ZM8.80307 11.146L8.86857 11.1825V11.1825L8.80307 11.146ZM8.15602 10.353L8.22911 10.3362L8.22912 10.3362L8.15602 10.353ZM8.15055 10.3292L8.22362 10.3124L8.22364 10.3124L8.15055 10.3292ZM8.12403 10.2048L8.05049 10.2195L8.19751 10.1898L8.12403 10.2048ZM8.09576 10.0629L8.1692 10.0477L8.1692 10.0477L8.09576 10.0629ZM7.8442 9.63929L7.79009 9.69123L7.79001 9.69115L7.8442 9.63929ZM7.81704 9.61092L7.76286 9.66278L7.7627 9.66261L7.81704 9.61092ZM7.64662 9.44037L7.59408 9.49389L7.59403 9.49385L7.64662 9.44037ZM7.64659 9.44035L7.69866 9.38636L7.69918 9.38687L7.64659 9.44035ZM7.64658 9.44034L7.59452 9.49433L7.59404 9.49386L7.64658 9.44034ZM7.46421 8.19781L7.45901 8.12299L7.46421 8.19781ZM7.60278 8.15415L7.62888 8.22446L7.60278 8.15415ZM7.83941 8.11443L7.76453 8.11874V8.11874L7.83941 8.11443ZM8.53376 9.38839L8.59454 9.34432L8.59636 9.34709L8.53376 9.38839ZM8.66628 10.389L8.74111 10.3941V10.3941L8.66628 10.389ZM8.75201 10.9668L8.71615 11.0326V11.0326L8.75201 10.9668ZM11.3893 8.79706L11.408 8.8697L11.3893 8.79706ZM11.3257 8.5388L11.307 8.46617L11.3257 8.5388ZM10.869 8.17469L10.8107 8.22196L10.869 8.17469ZM10.0897 7.53329L10.1041 7.45962L10.1073 7.46039L10.0897 7.53329ZM8.713 7.07512L8.66119 7.12935H8.66119L8.713 7.07512ZM8.56704 7.26556L8.49715 7.2376L8.49999 7.23194L8.56704 7.26556ZM8.56703 7.26556L8.63691 7.29351L8.63412 7.2991L8.56703 7.26556ZM8.56703 7.26557L8.63411 7.29911L8.63408 7.29918L8.56703 7.26557ZM8.49546 7.39199L8.44064 7.34082V7.34082L8.49546 7.39199ZM8.31703 7.94612L8.36885 7.89189L8.31703 7.94612ZM9.47925 8.17638L9.48119 8.1014L9.48213 8.10144L9.47925 8.17638ZM9.47927 8.17638L9.47733 8.25136L9.47639 8.25133L9.47927 8.17638ZM9.71725 8.18485L9.71299 8.25973L9.71277 8.25971L9.71725 8.18485ZM9.75646 8.18708L9.75232 8.26196L9.7522 8.26196L9.75646 8.18708ZM10.2293 8.32529L10.1859 8.38648L10.2293 8.32529ZM10.3467 8.40977L10.3029 8.47061L10.3028 8.47056L10.3467 8.40977ZM10.3468 8.40982L10.3031 8.47074L10.3029 8.47067L10.3468 8.40982ZM10.451 8.48273L10.493 8.42055L10.493 8.42059L10.451 8.48273ZM10.4713 8.4964L10.5133 8.43426L10.5133 8.43427L10.4713 8.4964ZM2.28172 8.16604L2.3387 8.21481H2.3387L2.28172 8.16604ZM2.29607 8.3538L2.34543 8.29733L2.34543 8.29733L2.29607 8.3538ZM3.20622 7.88575L3.20501 7.81076H3.20502L3.20622 7.88575ZM3.23063 7.88534L3.23194 7.96033H3.23194L3.23063 7.88534ZM3.35784 7.88527L3.35873 7.81028L3.35716 7.96027L3.35784 7.88527ZM3.50257 7.88713L3.50299 7.81213H3.50299L3.50257 7.88713ZM3.96918 7.72913L4.00873 7.79285H4.00873L3.96918 7.72913ZM4.00258 7.70847L3.96331 7.64457H3.96331L4.00258 7.70847ZM4.20239 7.57889L4.16098 7.51636L4.20239 7.57889ZM5.2865 7.10089L5.29785 7.02675H5.29785L5.2865 7.10089ZM5.45817 7.65715L5.53243 7.66762V7.66762L5.45817 7.65715ZM5.47206 7.80177L5.54626 7.79085H5.54626L5.47206 7.80177ZM5.46172 8.04149L5.45037 8.11562L5.46172 8.04149ZM4.07123 8.45579L4.1017 8.52441L4.09861 8.52562L4.07123 8.45579ZM3.06497 8.37739L3.08555 8.30527H3.08555L3.06497 8.37739ZM2.48198 8.34111L2.53896 8.38988H2.53896L2.48198 8.34111ZM4.68764 11.117C4.69005 11.1481 4.71792 11.1728 4.75075 11.1706L4.7608 11.3202C4.64705 11.3279 4.54696 11.2428 4.53809 11.1286L4.68764 11.117ZM5.12227 10.323C5.03579 10.4123 4.91993 10.5323 4.82859 10.6721C4.73696 10.8123 4.67576 10.964 4.68764 11.117L4.53809 11.1286C4.52255 10.9284 4.60306 10.743 4.70302 10.59C4.80328 10.4366 4.9289 10.3071 5.01451 10.2187L5.12227 10.323ZM5.13926 10.3055L5.12229 10.323L5.01448 10.2187L5.03146 10.2012L5.13926 10.3055ZM5.22766 10.217C5.19311 10.2507 5.16582 10.278 5.13931 10.3054L5.03141 10.2012C5.05926 10.1724 5.08766 10.144 5.12286 10.1096L5.22766 10.217ZM5.33165 10.1156C5.32025 10.1269 5.29407 10.1524 5.27103 10.1748C5.25944 10.1861 5.24856 10.1967 5.24058 10.2044C5.23658 10.2083 5.23331 10.2115 5.23104 10.2137C5.22991 10.2148 5.22902 10.2156 5.22842 10.2162C5.22812 10.2165 5.22789 10.2167 5.22773 10.2169C5.22765 10.217 5.22759 10.217 5.22755 10.2171C5.22753 10.2171 5.22752 10.2171 5.22751 10.2171C5.2275 10.2171 5.22749 10.2171 5.22749 10.2171C5.22748 10.2171 5.22748 10.2171 5.22747 10.2172C5.22745 10.2172 5.12163 10.2157 5.12257 10.1099L5.22795 10.2167C5.22888 10.1109 5.12306 10.1095 5.12305 10.1095C5.12304 10.1095 5.12304 10.1095 5.12304 10.1095C5.12303 10.1095 5.12303 10.1095 5.12304 10.1095C5.12305 10.1095 5.12306 10.1095 5.12308 10.1094C5.12312 10.1094 5.12317 10.1093 5.12325 10.1093C5.1234 10.1091 5.12363 10.1089 5.12393 10.1086C5.12453 10.108 5.12541 10.1072 5.12654 10.1061C5.12881 10.1039 5.13207 10.1007 5.13605 10.0968C5.14402 10.0891 5.15488 10.0785 5.16643 10.0673C5.18964 10.0447 5.21531 10.0197 5.22618 10.009L5.33165 10.1156ZM5.57016 9.6377C5.53343 9.79466 5.49738 9.95172 5.33165 10.1156L5.22618 10.009C5.35936 9.87724 5.38809 9.75744 5.4241 9.60353L5.57016 9.6377ZM5.57914 9.59959L5.57013 9.63782L5.42413 9.60342L5.43314 9.56519L5.57914 9.59959ZM5.6293 9.36441C5.61162 9.45144 5.59517 9.53244 5.57909 9.59981L5.43319 9.56497C5.44856 9.50061 5.46446 9.42238 5.4823 9.33455L5.6293 9.36441ZM5.62827 9.3688L5.62827 9.3688L5.48333 9.33016L5.48333 9.33015L5.62827 9.3688ZM6.02879 8.30534C5.92963 8.37818 5.84797 8.53635 5.7809 8.74132C5.71518 8.94214 5.66883 9.16985 5.6293 9.36441L5.4823 9.33454C5.5215 9.14163 5.56944 8.9052 5.63834 8.69467C5.70587 8.48829 5.79915 8.28791 5.93999 8.18445L6.02879 8.30534ZM6.43919 8.56195C6.43986 8.56284 6.43528 8.5575 6.41974 8.54501C6.40601 8.53397 6.38764 8.52042 6.36568 8.50524C6.32185 8.47494 6.26624 8.43987 6.21008 8.40784C6.15353 8.37559 6.09861 8.34767 6.05572 8.33063C6.03394 8.32198 6.01826 8.31735 6.00853 8.31564C6.00368 8.31478 6.00294 8.31514 6.00509 8.31497C6.00677 8.31484 6.01711 8.31392 6.02879 8.30534L5.93999 8.18445C5.95901 8.17048 5.97946 8.16649 5.99365 8.16541C6.00831 8.16429 6.02248 8.16578 6.03461 8.16792C6.05883 8.1722 6.0853 8.18098 6.11109 8.19122C6.16332 8.21197 6.22513 8.24374 6.2844 8.27755C6.34406 8.31157 6.40335 8.34893 6.45098 8.38186C6.47476 8.39829 6.49626 8.41406 6.51372 8.4281C6.52938 8.44069 6.54732 8.45619 6.55903 8.47173L6.43919 8.56195ZM6.56644 8.66946C6.54153 8.65094 6.5162 8.63213 6.49516 8.61527C6.47604 8.59995 6.45342 8.58085 6.43919 8.56195L6.55903 8.47173C6.55888 8.47154 6.56082 8.47398 6.56684 8.47951C6.57241 8.48463 6.57976 8.49085 6.58895 8.4982C6.60743 8.51301 6.63037 8.53008 6.65594 8.54909L6.56644 8.66946ZM6.56959 8.67168L6.56958 8.67168L6.65279 8.54687L6.65279 8.54688L6.56959 8.67168ZM6.72899 8.72566C6.71839 8.73344 6.70841 8.74751 6.70654 8.76558C6.70503 8.78014 6.70971 8.78924 6.70989 8.78962C6.7099 8.78964 6.70543 8.78244 6.68958 8.76736C6.65989 8.7391 6.61408 8.70488 6.56644 8.66947L6.65594 8.54909C6.70093 8.58254 6.75523 8.62276 6.793 8.65871C6.81088 8.67573 6.83196 8.69808 6.84434 8.72311C6.85072 8.736 6.85828 8.75647 6.85574 8.78103C6.85283 8.80909 6.83789 8.83178 6.81779 8.84654L6.72899 8.72566ZM6.01313 10.0353C6.13706 9.71348 6.24808 9.43712 6.36025 9.21771C6.47179 8.99954 6.58884 8.82861 6.72899 8.72566L6.81779 8.84654C6.70663 8.9282 6.60256 9.07326 6.49381 9.28599C6.38569 9.49747 6.27723 9.7669 6.15311 10.0892L6.01313 10.0353ZM5.2797 10.6528C5.4244 10.5724 5.57822 10.4867 5.71242 10.3844C5.84658 10.2822 5.95534 10.1675 6.01439 10.0323L6.15186 10.0923C6.07847 10.2604 5.94763 10.3938 5.80335 10.5037C5.65911 10.6137 5.49566 10.7044 5.35259 10.7839L5.2797 10.6528ZM4.80348 11.1108C4.79494 11.0007 4.87287 10.9163 4.95493 10.8523C5.04061 10.7855 5.15864 10.7201 5.2797 10.6528L5.35259 10.7839C5.22786 10.8533 5.12161 10.9126 5.04714 10.9706C4.96904 11.0315 4.95092 11.072 4.95303 11.0992L4.80348 11.1108ZM4.75075 11.1706C4.78298 11.1684 4.80585 11.1412 4.80348 11.1108L4.95303 11.0992C4.96195 11.214 4.87513 11.3125 4.7608 11.3202L4.75075 11.1706ZM8.65826 11.1332C8.68564 11.1481 8.72155 11.1382 8.73758 11.1094L8.86857 11.1825C8.81302 11.2821 8.68714 11.3197 8.58654 11.2649L8.65826 11.1332ZM8.22912 10.3362C8.25692 10.4574 8.2944 10.6199 8.36189 10.7726C8.42961 10.9259 8.52351 11.0598 8.65826 11.1332L8.58654 11.2649C8.41018 11.1689 8.29856 11.0004 8.22469 10.8333C8.15061 10.6656 8.11044 10.4897 8.08292 10.3698L8.22912 10.3362ZM8.22364 10.3124L8.22911 10.3362L8.08292 10.3698L8.07745 10.346L8.22364 10.3124ZM8.19757 10.1901C8.20705 10.2374 8.21504 10.2752 8.22362 10.3124L8.07747 10.3461C8.06845 10.307 8.06015 10.2678 8.05049 10.2195L8.19757 10.1901ZM8.1692 10.0477C8.17245 10.0634 8.17959 10.0992 8.18584 10.1308C8.18898 10.1466 8.19193 10.1615 8.19408 10.1724C8.19516 10.1779 8.19605 10.1824 8.19666 10.1855C8.19696 10.187 8.1972 10.1882 8.19737 10.189C8.19745 10.1895 8.19751 10.1898 8.19755 10.19C8.19757 10.1901 8.19759 10.1902 8.1976 10.1902C8.1976 10.1903 8.19761 10.1903 8.19761 10.1903C8.19761 10.1903 8.19761 10.1903 8.19762 10.1903C8.19762 10.1903 8.19762 10.1903 8.19762 10.1903C8.19762 10.1904 8.13876 10.2783 8.05055 10.2198L8.19751 10.1898C8.1093 10.1313 8.05043 10.2193 8.05044 10.2193C8.05044 10.2193 8.05044 10.2193 8.05044 10.2193C8.05044 10.2193 8.05044 10.2193 8.05044 10.2193C8.05044 10.2193 8.05043 10.2193 8.05043 10.2192C8.05042 10.2192 8.0504 10.2191 8.05038 10.219C8.05034 10.2188 8.05028 10.2185 8.0502 10.2181C8.05004 10.2172 8.0498 10.216 8.04949 10.2145C8.04888 10.2114 8.048 10.2069 8.04693 10.2015C8.04477 10.1906 8.04184 10.1757 8.0387 10.1599C8.03241 10.1282 8.0254 10.093 8.02231 10.078L8.1692 10.0477ZM7.8983 9.58735C8.00993 9.70364 8.12202 9.81942 8.1692 10.0477L8.02231 10.078C7.98439 9.8946 7.89956 9.80526 7.79009 9.69123L7.8983 9.58735ZM7.87122 9.55906L7.89838 9.58744L7.79001 9.69115L7.76286 9.66278L7.87122 9.55906ZM7.69915 9.38685C7.76369 9.4502 7.82354 9.50894 7.87138 9.55923L7.7627 9.66261C7.71701 9.61458 7.65922 9.55784 7.59408 9.49389L7.69915 9.38685ZM7.69918 9.38687L7.6992 9.3869L7.59403 9.49385L7.59401 9.49383L7.69918 9.38687ZM7.69864 9.38635L7.69865 9.38636L7.59453 9.49434L7.59452 9.49433L7.69864 9.38635ZM7.0308 8.48137C7.0308 8.53457 7.05029 8.59959 7.0899 8.6754C7.12912 8.75047 7.18531 8.83091 7.25205 8.91354C7.38572 9.07904 7.55518 9.24552 7.69912 9.38682L7.59404 9.49386C7.45136 9.3538 7.27543 9.18122 7.13536 9.00779C7.06523 8.92096 7.00246 8.83197 6.95695 8.74487C6.91182 8.6585 6.8808 8.56861 6.8808 8.48137H7.0308ZM7.4694 8.27263C7.46954 8.27262 7.46889 8.27266 7.46726 8.2729C7.46569 8.27313 7.46358 8.27349 7.46089 8.27402C7.45546 8.27509 7.44849 8.27668 7.44002 8.27885C7.4231 8.28321 7.40174 8.28951 7.37738 8.29754C7.32863 8.31363 7.27003 8.33595 7.21392 8.36178C7.15714 8.38792 7.10616 8.41619 7.07058 8.44348C7.05277 8.45714 7.04138 8.46862 7.03502 8.47726C7.02848 8.48613 7.0308 8.48706 7.0308 8.48137H6.8808C6.8808 8.44379 6.89671 8.4121 6.91426 8.38828C6.93198 8.36423 6.95517 8.34295 6.9793 8.32445C7.02761 8.2874 7.09 8.2537 7.15118 8.22553C7.21302 8.19706 7.27695 8.17272 7.33039 8.15509C7.38062 8.13852 7.43002 8.125 7.45901 8.12299L7.4694 8.27263ZM7.62888 8.22446C7.59978 8.23527 7.57021 8.24626 7.54461 8.25472C7.52134 8.26242 7.493 8.27099 7.4694 8.27263L7.45901 8.12299C7.45877 8.123 7.46187 8.1227 7.46979 8.12067C7.47711 8.11879 7.48633 8.11601 7.49751 8.11231C7.52 8.10487 7.5468 8.09493 7.57667 8.08384L7.62888 8.22446ZM7.76453 8.11874C7.76529 8.13187 7.77166 8.14791 7.78579 8.15931C7.79718 8.16851 7.80736 8.16954 7.80778 8.16959C7.8078 8.16959 7.79933 8.16943 7.77805 8.1745C7.73818 8.18401 7.68453 8.2038 7.62888 8.22446L7.57667 8.08384C7.62923 8.06433 7.69253 8.04069 7.74325 8.02859C7.76726 8.02287 7.79749 8.01736 7.82523 8.02061C7.83951 8.02228 7.8608 8.02709 7.88001 8.0426C7.90196 8.06031 7.91285 8.0852 7.91428 8.11011L7.76453 8.11874ZM8.47304 9.43241C8.2706 9.15318 8.0993 8.90956 7.97637 8.69598C7.85415 8.48361 7.77454 8.29235 7.76453 8.11874L7.91428 8.11011C7.92222 8.24781 7.98721 8.41409 8.10638 8.62116C8.22486 8.82702 8.39175 9.06472 8.59448 9.34437L8.47304 9.43241ZM8.59146 10.3838C8.6028 10.2187 8.61472 10.043 8.60203 9.87473C8.58934 9.70653 8.55241 9.55286 8.47115 9.42969L8.59636 9.34709C8.69735 9.50017 8.73796 9.68255 8.75161 9.86345C8.76525 10.0443 8.75232 10.2308 8.74111 10.3941L8.59146 10.3838ZM8.71615 11.0326C8.61923 10.9799 8.59082 10.8685 8.58187 10.7648C8.57253 10.6566 8.58197 10.522 8.59146 10.3838L8.74111 10.3941C8.73133 10.5365 8.7232 10.6579 8.73132 10.752C8.73983 10.8506 8.76391 10.8878 8.78786 10.9009L8.71615 11.0326ZM8.73758 11.1094C8.75332 11.0812 8.74298 11.0472 8.71615 11.0326L8.78786 10.9009C8.88901 10.9559 8.9244 11.0824 8.86857 11.1825L8.73758 11.1094ZM11.5581 8.61709C11.5854 8.72779 11.519 8.84113 11.408 8.8697L11.3706 8.72443C11.4008 8.71666 11.4203 8.68492 11.4125 8.65297L11.5581 8.61709ZM11.307 8.46617C11.4185 8.43745 11.5307 8.50582 11.5581 8.61709L11.4125 8.65297C11.4047 8.62161 11.374 8.60381 11.3444 8.61143L11.307 8.46617ZM10.9272 8.12741C11.0171 8.23821 11.094 8.33255 11.1641 8.39581C11.2376 8.46216 11.2806 8.47297 11.307 8.46617L11.3444 8.61143C11.2376 8.63894 11.1408 8.57687 11.0636 8.50716C10.9829 8.43438 10.8981 8.3295 10.8107 8.22196L10.9272 8.12741ZM10.1073 7.46039C10.2855 7.50348 10.4396 7.60917 10.573 7.73216C10.7063 7.85512 10.824 8.00033 10.9272 8.12741L10.8107 8.22196C10.7064 8.09343 10.5953 7.95682 10.4713 7.84242C10.3473 7.72806 10.2155 7.64086 10.072 7.6062L10.1073 7.46039ZM8.76482 7.0209C8.86454 7.11619 9.02547 7.19349 9.25385 7.26365C9.48089 7.3334 9.76506 7.39343 10.104 7.45969L10.0753 7.6069C9.73679 7.54074 9.44535 7.47941 9.2098 7.40704C8.97557 7.33508 8.78691 7.24949 8.66119 7.12935L8.76482 7.0209ZM8.49999 7.23194C8.52512 7.18182 8.5553 7.12136 8.58415 7.07793C8.5978 7.05737 8.61615 7.03272 8.63865 7.01618C8.65024 7.00767 8.66909 6.99666 8.69371 6.9949C8.72184 6.99289 8.74678 7.00367 8.76482 7.0209L8.66119 7.12935C8.67069 7.13843 8.68629 7.14582 8.7044 7.14452C8.719 7.14348 8.72715 7.13729 8.72749 7.13704C8.72752 7.13703 8.7212 7.14269 8.7091 7.16091C8.68643 7.19505 8.66069 7.24611 8.63408 7.29917L8.49999 7.23194ZM8.4974 7.23771L8.4974 7.2377L8.63667 7.29341L8.63667 7.29341L8.4974 7.23771ZM8.49995 7.23202L8.49995 7.23202L8.63412 7.2991L8.63411 7.29911L8.49995 7.23202ZM8.44064 7.34082C8.44047 7.34099 8.44254 7.33866 8.44694 7.33177C8.45101 7.3254 8.45586 7.31708 8.46151 7.30676C8.47288 7.28598 8.48571 7.26043 8.49999 7.23195L8.63408 7.29918C8.62016 7.32693 8.60603 7.35514 8.59308 7.37878C8.58132 7.40028 8.56643 7.42588 8.55029 7.44317L8.44064 7.34082ZM8.26521 8.00034C8.24815 7.98403 8.24068 7.96459 8.23714 7.9508C8.23349 7.93655 8.2325 7.92234 8.2325 7.91002C8.23251 7.88543 8.23656 7.85783 8.24217 7.83066C8.25353 7.77562 8.27409 7.70923 8.29709 7.64499C8.32024 7.58033 8.34673 7.51545 8.37089 7.46283C8.38294 7.43656 8.39474 7.41265 8.40553 7.39301C8.41521 7.3754 8.42736 7.35504 8.44064 7.34082L8.55029 7.44317C8.55105 7.44235 8.54659 7.44779 8.53699 7.46526C8.5285 7.48071 8.51834 7.50115 8.50721 7.52541C8.48498 7.57384 8.4601 7.63469 8.43831 7.69555C8.41637 7.75685 8.39841 7.81578 8.38908 7.86098C8.38434 7.88393 8.38251 7.90018 8.3825 7.91005C8.3825 7.91498 8.38298 7.91565 8.38245 7.91356C8.38203 7.91193 8.37932 7.9019 8.36885 7.89189L8.26521 8.00034ZM9.47731 8.25136C9.28052 8.24626 9.03936 8.2401 8.82006 8.20881C8.60509 8.17813 8.39156 8.12107 8.26521 8.00034L8.36885 7.89189C8.45779 7.97689 8.62775 8.02985 8.84125 8.06031C9.05043 8.09016 9.28273 8.09627 9.48119 8.10141L9.47731 8.25136ZM9.47639 8.25133L9.47637 8.25133L9.48213 8.10144L9.48215 8.10144L9.47639 8.25133ZM9.71277 8.25971C9.64672 8.25575 9.56692 8.25368 9.47733 8.25136L9.48121 8.10141C9.56998 8.10371 9.65261 8.10584 9.72174 8.10998L9.71277 8.25971ZM9.7522 8.26196L9.71299 8.25973L9.72151 8.10997L9.76073 8.1122L9.7522 8.26196ZM10.1859 8.38648C10.0331 8.27819 9.91015 8.2707 9.75232 8.26196L9.76061 8.11219C9.92156 8.1211 10.0825 8.12934 10.2727 8.26409L10.1859 8.38648ZM10.3028 8.47056C10.2997 8.46831 10.2107 8.40403 10.1859 8.38648L10.2727 8.26409C10.2982 8.28216 10.3879 8.34702 10.3907 8.34898L10.3028 8.47056ZM10.3029 8.47067L10.3029 8.47061L10.3906 8.34893L10.3907 8.34898L10.3029 8.47067ZM10.4091 8.54491C10.3759 8.52249 10.343 8.49944 10.3031 8.47074L10.3905 8.3489C10.4298 8.37707 10.4614 8.39921 10.493 8.42055L10.4091 8.54491ZM10.4293 8.55854L10.4091 8.54487L10.493 8.42059L10.5133 8.43426L10.4293 8.55854ZM11.408 8.8697C11.2136 8.91977 11.0171 8.87267 10.849 8.80079C10.6805 8.7287 10.5312 8.62747 10.4292 8.55852L10.5133 8.43427C10.6163 8.50393 10.7545 8.5972 10.908 8.66288C11.062 8.72876 11.2221 8.76269 11.3706 8.72443L11.408 8.8697ZM2.3387 8.21481C2.31843 8.2385 2.32066 8.27568 2.34543 8.29733L2.24671 8.41026C2.16088 8.33523 2.15027 8.20429 2.22474 8.11727L2.3387 8.21481ZM3.20743 7.96074C3.08312 7.96274 2.91641 7.96562 2.75297 7.99988C2.58901 8.03426 2.43846 8.09826 2.3387 8.21481L2.22474 8.11727C2.35531 7.96472 2.54332 7.89058 2.72219 7.85307C2.90158 7.81546 3.08196 7.81274 3.20501 7.81076L3.20743 7.96074ZM3.23194 7.96033C3.22398 7.96047 3.21579 7.9606 3.20743 7.96074L3.20502 7.81076C3.21339 7.81062 3.22148 7.81049 3.22932 7.81035L3.23194 7.96033ZM3.35695 7.96027C3.30866 7.95969 3.27009 7.95967 3.23194 7.96033L3.22932 7.81035C3.2694 7.80966 3.30953 7.80969 3.35873 7.81028L3.35695 7.96027ZM3.50215 7.96213C3.48611 7.96204 3.44957 7.96157 3.41742 7.96113C3.40126 7.96091 3.38609 7.96069 3.37495 7.96053C3.36939 7.96045 3.36483 7.96038 3.36166 7.96034C3.36008 7.96031 3.35885 7.9603 3.35801 7.96028C3.35759 7.96028 3.35727 7.96027 3.35705 7.96027C3.35694 7.96027 3.35686 7.96027 3.3568 7.96027C3.35678 7.96027 3.35675 7.96026 3.35674 7.96026C3.35673 7.96026 3.35672 7.96026 3.35672 7.96026C3.35671 7.96026 3.3567 7.96026 3.3567 7.96026C3.35668 7.96026 3.28284 7.88435 3.35852 7.81028L3.35716 7.96027C3.43283 7.8862 3.35899 7.81028 3.35898 7.81028C3.35898 7.81028 3.35897 7.81028 3.35897 7.81028C3.35897 7.81028 3.35897 7.81028 3.35898 7.81028C3.35899 7.81028 3.35901 7.81028 3.35903 7.81028C3.35909 7.81028 3.35917 7.81028 3.35927 7.81029C3.35949 7.81029 3.35981 7.81029 3.36022 7.8103C3.36106 7.81031 3.36229 7.81033 3.36386 7.81035C3.36702 7.8104 3.37157 7.81047 3.37712 7.81055C3.38823 7.81071 3.40336 7.81092 3.41948 7.81114C3.45187 7.81159 3.4877 7.81205 3.50299 7.81213L3.50215 7.96213ZM4.00873 7.79285C3.87178 7.87787 3.73523 7.96343 3.50215 7.96213L3.50299 7.81213C3.6903 7.81318 3.79532 7.74878 3.92962 7.66541L4.00873 7.79285ZM4.04184 7.77237C4.03074 7.77919 4.01977 7.786 4.00873 7.79285L3.92962 7.66541C3.94062 7.65859 3.95187 7.6516 3.96331 7.64457L4.04184 7.77237ZM4.2438 7.64142C4.16976 7.69045 4.10085 7.73611 4.04184 7.77237L3.96331 7.64457C4.01969 7.60992 4.08625 7.56585 4.16098 7.51636L4.2438 7.64142ZM5.27516 7.17503C5.15354 7.15642 4.98395 7.21052 4.79159 7.30803C4.60312 7.40356 4.40933 7.5318 4.2438 7.64142L4.16098 7.51636C4.3251 7.40766 4.52618 7.27438 4.72377 7.17423C4.91746 7.07606 5.1251 7.00032 5.29785 7.02675L5.27516 7.17503ZM5.3839 7.64668C5.38375 7.64778 5.38428 7.64076 5.38213 7.62094C5.38023 7.60342 5.37682 7.58085 5.37202 7.5546C5.36246 7.50217 5.34793 7.43806 5.33087 7.3757C5.31369 7.31291 5.2946 7.25433 5.27632 7.21195C5.26703 7.19044 5.25921 7.17607 5.25355 7.16798C5.25073 7.16395 5.24995 7.16367 5.25159 7.16508C5.25287 7.16618 5.26083 7.17283 5.27516 7.17503L5.29785 7.02675C5.32118 7.03032 5.33845 7.04197 5.34925 7.05123C5.36042 7.06081 5.36938 7.07189 5.37644 7.08197C5.39054 7.10212 5.40305 7.12705 5.41404 7.15253C5.43631 7.20414 5.45755 7.27031 5.47555 7.33612C5.49368 7.40236 5.50919 7.4707 5.51959 7.52767C5.52478 7.5561 5.52883 7.58246 5.53125 7.60473C5.53342 7.62471 5.53515 7.64835 5.53243 7.66762L5.3839 7.64668ZM5.39786 7.81268C5.39334 7.78197 5.38874 7.75076 5.38578 7.72396C5.38309 7.6996 5.3806 7.6701 5.3839 7.64668L5.53243 7.66762C5.53247 7.66738 5.53212 7.67048 5.53246 7.67864C5.53278 7.6862 5.53358 7.6958 5.53487 7.7075C5.53747 7.73104 5.54162 7.75932 5.54626 7.79085L5.39786 7.81268ZM5.47306 7.96735C5.46007 7.96536 5.44306 7.96826 5.42896 7.97971C5.4176 7.98894 5.41447 7.99868 5.41433 7.99908C5.41433 7.9991 5.41625 7.99084 5.41571 7.96897C5.4147 7.928 5.4065 7.87141 5.39786 7.81268L5.54626 7.79085C5.55442 7.84632 5.56438 7.91315 5.56567 7.96528C5.56627 7.98995 5.56538 8.02066 5.55643 8.04712C5.55183 8.06074 5.5427 8.08057 5.52354 8.09613C5.50164 8.11392 5.47503 8.1194 5.45037 8.11562L5.47306 7.96735ZM4.0408 8.38725C4.35602 8.24729 4.62993 8.13038 4.86439 8.05455C5.09753 7.97915 5.30117 7.94104 5.47306 7.96735L5.45037 8.11562C5.31403 8.09476 5.13787 8.12375 4.91055 8.19727C4.68456 8.27036 4.41735 8.38418 4.10167 8.52434L4.0408 8.38725ZM3.08555 8.30527C3.24476 8.3507 3.4141 8.39889 3.58132 8.42146C3.74849 8.44401 3.90648 8.43984 4.04385 8.38597L4.09861 8.52562C3.92787 8.59257 3.74104 8.59437 3.56126 8.57011C3.38153 8.54585 3.2018 8.49443 3.04439 8.44951L3.08555 8.30527ZM2.425 8.29234C2.49675 8.20851 2.6116 8.20387 2.71485 8.21667C2.82266 8.23004 2.95235 8.26726 3.08555 8.30527L3.04439 8.44951C2.90715 8.41035 2.7901 8.37715 2.69639 8.36553C2.59812 8.35335 2.55669 8.36916 2.53896 8.38988L2.425 8.29234ZM2.34543 8.29733C2.36975 8.3186 2.40514 8.31555 2.425 8.29234L2.53896 8.38988C2.46407 8.47737 2.33298 8.48569 2.24671 8.41026L2.34543 8.29733Z" fill="#984111"/>
<path fill-rule="evenodd" clip-rule="evenodd" d="M6.99941 2.05917C6.87197 2.05917 6.76398 2.15303 6.74622 2.27923L6.33275 5.21707H7.66608L7.25261 2.27923C7.23485 2.15303 7.12686 2.05917 6.99941 2.05917ZM10.4931 3.50631C10.403 3.41619 10.2603 3.4062 10.1585 3.48287L7.78873 5.26787L8.73154 6.21068L10.5165 3.84094C10.5932 3.73915 10.5832 3.59642 10.4931 3.50631ZM11.7202 6.7468C11.8464 6.76456 11.9402 6.87255 11.9402 6.99999C11.9402 7.12744 11.8464 7.23543 11.7202 7.25319L8.78234 7.66666V6.33333L11.7202 6.7468ZM10.4931 10.4937C10.5832 10.4036 10.5932 10.2608 10.5165 10.159L8.73154 7.78931L7.78873 8.73212L10.1585 10.5171C10.2603 10.5938 10.403 10.5838 10.4931 10.4937ZM7.25261 11.7208C7.23485 11.847 7.12686 11.9408 6.99941 11.9408C6.87197 11.9408 6.76398 11.847 6.74622 11.7208L6.33275 8.78292H7.66608L7.25261 11.7208ZM3.50573 10.4937C3.59584 10.5838 3.73857 10.5938 3.84036 10.5171L6.2101 8.73212L5.26729 7.78931L3.48229 10.159C3.40562 10.2608 3.41561 10.4036 3.50573 10.4937ZM2.27865 7.25319C2.15245 7.23542 2.05859 7.12744 2.05859 6.99999C2.05859 6.87255 2.15245 6.76456 2.27865 6.7468L5.21649 6.33333V7.66666L2.27865 7.25319ZM3.50573 3.50631C3.41561 3.59642 3.40562 3.73915 3.48229 3.84094L5.26729 6.21068L6.2101 5.26787L3.84036 3.48287C3.73857 3.4062 3.59584 3.41619 3.50573 3.50631Z" fill="#FFC125"/>
<path d="M6.74622 2.27923L6.67195 2.26877V2.26877L6.74622 2.27923ZM6.33275 5.21707L6.25848 5.20662L6.24645 5.29207H6.33275V5.21707ZM7.66608 5.21707V5.29207H7.75238L7.74035 5.20662L7.66608 5.21707ZM7.25261 2.27923L7.32688 2.26877V2.26877L7.25261 2.27923ZM10.1585 3.48287L10.1133 3.42297V3.42297L10.1585 3.48287ZM7.78873 5.26787L7.7436 5.20796L7.67468 5.25988L7.7357 5.3209L7.78873 5.26787ZM8.73154 6.21068L8.6785 6.26371L8.73952 6.32473L8.79144 6.2558L8.73154 6.21068ZM10.5165 3.84094L10.4566 3.79582L10.5165 3.84094ZM11.7202 6.7468L11.7097 6.82107L11.7202 6.7468ZM11.7202 7.25319L11.7306 7.32746L11.7202 7.25319ZM8.78234 7.66666H8.70734V7.75296L8.79279 7.74093L8.78234 7.66666ZM8.78234 6.33333L8.79279 6.25906L8.70734 6.24703V6.33333H8.78234ZM10.5165 10.159L10.5764 10.1139L10.5165 10.159ZM10.4931 10.4937L10.5461 10.5467L10.4931 10.4937ZM8.73154 7.78931L8.79144 7.74418L8.73952 7.67526L8.67851 7.73628L8.73154 7.78931ZM7.78873 8.73212L7.7357 8.67908L7.67468 8.7401L7.7436 8.79202L7.78873 8.73212ZM10.1585 10.5171L10.2036 10.4572L10.2036 10.4572L10.1585 10.5171ZM7.25261 11.7208L7.17834 11.7103L7.25261 11.7208ZM6.74622 11.7208L6.67195 11.7312L6.74622 11.7208ZM6.33275 8.78292V8.70792H6.24645L6.25848 8.79337L6.33275 8.78292ZM7.66608 8.78292L7.74035 8.79337L7.75238 8.70792H7.66608V8.78292ZM3.84036 10.5171L3.79524 10.4572V10.4572L3.84036 10.5171ZM3.50573 10.4937L3.45269 10.5467H3.45269L3.50573 10.4937ZM6.2101 8.73212L6.25522 8.79202L6.32415 8.7401L6.26313 8.67909L6.2101 8.73212ZM5.26729 7.78931L5.32032 7.73628L5.2593 7.67526L5.20738 7.74418L5.26729 7.78931ZM3.48229 10.159L3.5422 10.2042L3.5422 10.2042L3.48229 10.159ZM2.27865 7.25319L2.26819 7.32745H2.26819L2.27865 7.25319ZM2.27865 6.7468L2.26819 6.67253H2.26819L2.27865 6.7468ZM5.21649 6.33333H5.29149V6.24703L5.20604 6.25906L5.21649 6.33333ZM5.21649 7.66666L5.20604 7.74093L5.29149 7.75296V7.66666H5.21649ZM3.48229 3.84094L3.5422 3.79582L3.48229 3.84094ZM3.50573 3.50631L3.45269 3.45327L3.50573 3.50631ZM5.26729 6.21068L5.20738 6.2558L5.2593 6.32473L5.32032 6.26371L5.26729 6.21068ZM6.2101 5.26787L6.26313 5.3209L6.32415 5.25988L6.25522 5.20796L6.2101 5.26787ZM3.84036 3.48287L3.79524 3.54278L3.84036 3.48287ZM6.82049 2.28968C6.83304 2.2005 6.90935 2.13417 6.99941 2.13417V1.98417C6.83459 1.98417 6.69493 2.10556 6.67195 2.26877L6.82049 2.28968ZM6.40702 5.22752L6.82049 2.28968L6.67195 2.26877L6.25848 5.20662L6.40702 5.22752ZM7.66608 5.14207H6.33275V5.29207H7.66608V5.14207ZM7.17834 2.28968L7.59181 5.22752L7.74035 5.20662L7.32688 2.26877L7.17834 2.28968ZM6.99941 2.13417C7.08948 2.13417 7.16579 2.2005 7.17834 2.28968L7.32688 2.26877C7.3039 2.10556 7.16424 1.98417 6.99941 1.98417V2.13417ZM10.2036 3.54278C10.2755 3.48859 10.3764 3.49566 10.4401 3.55934L10.5461 3.45327C10.4296 3.33672 10.245 3.3238 10.1133 3.42297L10.2036 3.54278ZM7.83385 5.32778L10.2036 3.54278L10.1133 3.42297L7.7436 5.20796L7.83385 5.32778ZM8.78457 6.15765L7.84176 5.21484L7.7357 5.3209L8.6785 6.26371L8.78457 6.15765ZM10.4566 3.79582L8.67163 6.16556L8.79144 6.2558L10.5764 3.88607L10.4566 3.79582ZM10.4401 3.55934C10.5038 3.62302 10.5108 3.72388 10.4566 3.79582L10.5764 3.88607C10.6756 3.75441 10.6627 3.56982 10.5461 3.45327L10.4401 3.55934ZM12.0152 6.99999C12.0152 6.83517 11.8939 6.69551 11.7306 6.67253L11.7097 6.82107C11.7989 6.83362 11.8652 6.90993 11.8652 6.99999H12.0152ZM11.7306 7.32746C11.8939 7.30448 12.0152 7.16482 12.0152 6.99999H11.8652C11.8652 7.09006 11.7989 7.16637 11.7097 7.17892L11.7306 7.32746ZM8.79279 7.74093L11.7306 7.32746L11.7097 7.17892L8.77189 7.59239L8.79279 7.74093ZM8.70734 6.33333V7.66666H8.85734V6.33333H8.70734ZM11.7306 6.67253L8.79279 6.25906L8.77189 6.4076L11.7097 6.82107L11.7306 6.67253ZM10.4566 10.2042C10.5108 10.2761 10.5038 10.377 10.4401 10.4406L10.5461 10.5467C10.6627 10.4302 10.6756 10.2456 10.5764 10.1139L10.4566 10.2042ZM8.67163 7.83443L10.4566 10.2042L10.5764 10.1139L8.79144 7.74418L8.67163 7.83443ZM7.84176 8.78515L8.78457 7.84234L8.67851 7.73628L7.7357 8.67908L7.84176 8.78515ZM10.2036 10.4572L7.83385 8.67221L7.7436 8.79202L10.1133 10.577L10.2036 10.4572ZM10.4401 10.4406C10.3764 10.5043 10.2755 10.5114 10.2036 10.4572L10.1133 10.577C10.245 10.6762 10.4296 10.6633 10.5461 10.5467L10.4401 10.4406ZM6.99941 12.0158C7.16424 12.0158 7.3039 11.8944 7.32687 11.7312L7.17834 11.7103C7.16579 11.7995 7.08948 11.8658 6.99941 11.8658V12.0158ZM6.67195 11.7312C6.69493 11.8944 6.83459 12.0158 6.99941 12.0158V11.8658C6.90935 11.8658 6.83304 11.7995 6.82049 11.7103L6.67195 11.7312ZM6.25848 8.79337L6.67195 11.7312L6.82049 11.7103L6.40702 8.77247L6.25848 8.79337ZM7.66608 8.70792H6.33275V8.85792H7.66608V8.70792ZM7.32687 11.7312L7.74035 8.79337L7.59181 8.77247L7.17834 11.7103L7.32687 11.7312ZM3.79524 10.4572C3.7233 10.5114 3.62244 10.5043 3.55876 10.4406L3.45269 10.5467C3.56924 10.6633 3.75383 10.6762 3.88549 10.577L3.79524 10.4572ZM6.16498 8.67221L3.79524 10.4572L3.88549 10.577L6.25522 8.79202L6.16498 8.67221ZM5.21426 7.84234L6.15707 8.78515L6.26313 8.67909L5.32032 7.73628L5.21426 7.84234ZM3.5422 10.2042L5.3272 7.83443L5.20738 7.74418L3.42239 10.1139L3.5422 10.2042ZM3.55876 10.4406C3.49508 10.377 3.48801 10.2761 3.5422 10.2042L3.42239 10.1139C3.32322 10.2456 3.33614 10.4302 3.45269 10.5467L3.55876 10.4406ZM1.98359 6.99999C1.98359 7.16482 2.10498 7.30448 2.26819 7.32745L2.2891 7.17892C2.19992 7.16637 2.13359 7.09006 2.13359 6.99999H1.98359ZM2.26819 6.67253C2.10498 6.69551 1.98359 6.83517 1.98359 6.99999H2.13359C2.13359 6.90993 2.19992 6.83362 2.2891 6.82107L2.26819 6.67253ZM5.20604 6.25906L2.26819 6.67253L2.2891 6.82107L5.22694 6.4076L5.20604 6.25906ZM5.29149 7.66666V6.33333H5.14149V7.66666H5.29149ZM2.26819 7.32745L5.20604 7.74093L5.22694 7.59239L2.2891 7.17892L2.26819 7.32745ZM3.5422 3.79582C3.48801 3.72388 3.49508 3.62302 3.55876 3.55934L3.45269 3.45327C3.33614 3.56982 3.32322 3.75441 3.42239 3.88607L3.5422 3.79582ZM5.3272 6.16556L3.5422 3.79582L3.42239 3.88607L5.20738 6.2558L5.3272 6.16556ZM6.15707 5.21484L5.21426 6.15765L5.32032 6.26371L6.26313 5.3209L6.15707 5.21484ZM3.79524 3.54278L6.16498 5.32778L6.25522 5.20796L3.88549 3.42297L3.79524 3.54278ZM3.55876 3.55934C3.62244 3.49566 3.7233 3.48859 3.79524 3.54278L3.88549 3.42297C3.75383 3.3238 3.56924 3.33672 3.45269 3.45327L3.55876 3.55934Z" fill="#984111"/>
<path fill-rule="evenodd" clip-rule="evenodd" d="M6.99974 8.8421C8.06749 8.8421 8.93307 7.9879 8.93307 6.9342C8.93307 5.8805 8.06749 5.02631 6.99974 5.02631C5.93199 5.02631 5.06641 5.8805 5.06641 6.9342C5.06641 7.9879 5.93199 8.8421 6.99974 8.8421Z" fill="#FFC125" stroke="#984111" stroke-width="0.15"/>
<path d="M6.81212 6.43647C6.79218 6.42411 6.70763 6.36831 6.68685 6.35516C6.61369 6.30886 6.55532 6.27867 6.50112 6.26175C6.47142 6.25248 6.4443 6.24781 6.41978 6.24781C6.30212 6.24781 6.1359 6.32124 5.92566 6.4709L5.84766 6.36419C6.07857 6.19981 6.26776 6.11623 6.41978 6.11623C6.45894 6.11623 6.49935 6.1232 6.54133 6.1363C6.60911 6.15745 6.67661 6.19237 6.75883 6.2444C6.78127 6.25861 6.86509 6.31393 6.88301 6.32503C6.91215 6.34308 6.93101 6.35176 6.93078 6.35176C7.08998 6.35176 7.09962 6.92132 6.98703 7.09596C6.9566 7.14316 6.91925 7.18132 6.8703 7.21972C6.85147 7.23449 6.79237 7.27707 6.78366 7.28378C6.74443 7.31402 6.73199 7.33163 6.73199 7.35319C6.73199 7.35692 6.77991 7.36879 6.88675 7.36377C6.90792 7.36278 6.92894 7.36138 6.9599 7.35903C7.03583 7.35326 7.04565 7.35262 7.07014 7.35262V7.4842C7.05082 7.4842 7.04061 7.48487 6.97013 7.49022C6.93797 7.49266 6.91585 7.49414 6.89309 7.4952C6.70523 7.50402 6.59866 7.47762 6.59866 7.35319C6.59866 7.28172 6.63321 7.23279 6.70158 7.18009C6.71274 7.17148 6.77123 7.12935 6.78732 7.11673C6.82559 7.0867 6.85306 7.05864 6.87453 7.02533C6.90902 6.97184 6.93042 6.83266 6.92793 6.6851C6.92678 6.61736 6.9206 6.55519 6.91083 6.51157C6.90789 6.49848 6.90476 6.4877 6.9018 6.4798C6.87651 6.47368 6.84928 6.45949 6.81212 6.43647Z" fill="#984111"/>
<path fill-rule="evenodd" clip-rule="evenodd" d="M7.34893 6.3903C7.31994 6.40925 7.28883 6.42959 7.27773 6.43647C7.24056 6.45949 7.21334 6.47368 7.18805 6.4798C7.18508 6.4877 7.18195 6.49848 7.17902 6.51157C7.16925 6.55519 7.16306 6.61736 7.16192 6.6851C7.15942 6.83266 7.18083 6.97184 7.21531 7.02533C7.23679 7.05864 7.26425 7.0867 7.30253 7.11673C7.31189 7.12408 7.33562 7.14142 7.35602 7.15633C7.37067 7.16704 7.3836 7.17649 7.38826 7.18009C7.45663 7.23279 7.49118 7.28172 7.49118 7.35319C7.49118 7.47762 7.38461 7.50402 7.19676 7.4952C7.174 7.49414 7.15187 7.49266 7.11971 7.49022C7.04923 7.48487 7.03902 7.4842 7.0197 7.4842V7.35262C7.0442 7.35262 7.05401 7.35326 7.12994 7.35903C7.16091 7.36138 7.18193 7.36278 7.20309 7.36377C7.30994 7.36879 7.35785 7.35692 7.35785 7.35319C7.35785 7.33163 7.34541 7.31402 7.30619 7.28378C7.30296 7.2813 7.29284 7.2739 7.28041 7.26482C7.25925 7.24937 7.23141 7.22903 7.21955 7.21972C7.1706 7.18132 7.13324 7.14316 7.10281 7.09596C6.99022 6.92132 6.99987 6.35176 7.15906 6.35176C7.15903 6.35176 7.15941 6.35157 7.16018 6.35119C7.16464 6.34899 7.182 6.34041 7.20683 6.32503C7.2164 6.3191 7.24473 6.30058 7.27249 6.28244C7.29674 6.26659 7.32055 6.25103 7.33101 6.2444C7.41323 6.19237 7.48073 6.15745 7.54852 6.1363C7.5905 6.1232 7.6309 6.11623 7.67007 6.11623C7.82208 6.11623 8.01127 6.19981 8.24219 6.36419L8.16418 6.4709C7.95395 6.32124 7.78772 6.24781 7.67007 6.24781C7.64554 6.24781 7.61842 6.25248 7.58872 6.26175C7.53452 6.27867 7.47616 6.30886 7.40299 6.35516C7.39378 6.36099 7.37203 6.37521 7.34893 6.3903ZM7.19222 6.47035L7.19063 6.47353L7.1916 6.47135L7.19222 6.47035Z" fill="#984111"/>
<path d="M6.66261 7.72273L6.69613 7.78983L6.66261 7.72273ZM7.33944 7.72402L7.37806 7.65973L7.33944 7.72402ZM7.40812 7.76528L7.46973 7.80806L7.51543 7.74225L7.44675 7.70099L7.40812 7.76528ZM7.36243 7.83109L7.30082 7.78832L7.36243 7.83109ZM6.63917 7.83862L6.69613 7.78983L6.63917 7.83862ZM6.57666 7.76566L6.54315 7.69856L6.4572 7.74149L6.51971 7.81445L6.57666 7.76566ZM6.82814 7.8171L6.80583 7.7455L6.67637 7.78583L6.77934 7.87406L6.82814 7.8171ZM7.18259 7.81551L7.23653 7.86762L7.31828 7.78301L7.20707 7.74461L7.18259 7.81551ZM6.60865 7.77301L6.56991 7.70879L6.49852 7.75186L6.54888 7.81831L6.60865 7.77301ZM7.37983 7.77276L7.44388 7.81178L7.47927 7.75367L7.42488 7.7128L7.37983 7.77276ZM6.52094 7.65082L6.56041 7.7146L6.52094 7.65082ZM7.47838 7.65928L7.43246 7.71858V7.71858L7.47838 7.65928ZM7.52429 7.69484L7.57022 7.63555L7.57022 7.63555L7.52429 7.69484ZM7.57685 7.73555L7.64123 7.77402L7.67533 7.71696L7.62278 7.67625L7.57685 7.73555ZM7.54275 7.79261L7.47837 7.75414L7.47837 7.75414L7.54275 7.79261ZM7.5131 7.84223L7.57748 7.8807L7.57748 7.8807L7.5131 7.84223ZM6.48196 7.85409L6.42181 7.89889H6.42181L6.48196 7.85409ZM6.43945 7.79702L6.4996 7.75222L6.4996 7.75222L6.43945 7.79702ZM6.39062 7.73146L6.35116 7.66769L6.28165 7.7107L6.33047 7.77626L6.39062 7.73146ZM6.46014 7.68845L6.42067 7.62467H6.42067L6.46014 7.68845ZM7.01337 7.56412C6.87917 7.56412 6.75076 7.59487 6.6291 7.65563L6.69613 7.78983C6.79744 7.73923 6.90295 7.71412 7.01337 7.71412V7.56412ZM7.37806 7.65973C7.26934 7.59442 7.14656 7.56412 7.01337 7.56412V7.71412C7.12312 7.71412 7.21846 7.73884 7.30082 7.78832L7.37806 7.65973ZM7.44675 7.70099L7.37806 7.65973L7.30082 7.78832L7.3695 7.82957L7.44675 7.70099ZM7.42403 7.87387L7.46973 7.80806L7.34652 7.7225L7.30082 7.78832L7.42403 7.87387ZM7.01337 8.12376C7.18529 8.12376 7.32081 8.02252 7.42403 7.87387L7.30082 7.78832C7.2133 7.91436 7.11789 7.97376 7.01337 7.97376V8.12376ZM6.58221 7.88741C6.70284 8.02823 6.8465 8.12376 7.01337 8.12376V7.97376C6.90847 7.97376 6.8027 7.91423 6.69613 7.78983L6.58221 7.88741ZM6.51971 7.81445L6.58221 7.88741L6.69613 7.78983L6.63362 7.71686L6.51971 7.81445ZM6.6291 7.65563L6.54315 7.69856L6.61018 7.83275L6.69613 7.78983L6.6291 7.65563ZM7.01337 7.82376C6.98108 7.82376 6.93598 7.81074 6.87694 7.76015L6.77934 7.87406C6.85769 7.94118 6.93612 7.97376 7.01337 7.97376V7.82376ZM7.12865 7.7634C7.08108 7.81264 7.04321 7.82376 7.01337 7.82376V7.97376C7.09145 7.97376 7.16641 7.94019 7.23653 7.86762L7.12865 7.7634ZM7.01337 7.86412C7.06891 7.86412 7.11658 7.87206 7.15811 7.8864L7.20707 7.74461C7.14785 7.72417 7.0834 7.71412 7.01337 7.71412V7.86412ZM6.85045 7.88871C6.90327 7.87226 6.95734 7.86412 7.01337 7.86412V7.71412C6.94248 7.71412 6.87334 7.72447 6.80583 7.7455L6.85045 7.88871ZM7.01337 7.95534C6.91295 7.95534 6.79719 7.8976 6.66843 7.72771L6.54888 7.81831C6.69207 8.00725 6.84694 8.10533 7.01337 8.10533V7.95534ZM7.31578 7.73375C7.21424 7.90044 7.11127 7.95534 7.01337 7.95534V8.10533C7.18226 8.10533 7.32648 8.00451 7.44388 7.81178L7.31578 7.73375ZM7.01337 7.73254C7.14226 7.73254 7.24777 7.76735 7.33478 7.83272L7.42488 7.7128C7.30926 7.62593 7.17131 7.58254 7.01337 7.58254V7.73254ZM6.6474 7.83722C6.76429 7.7667 6.88589 7.73254 7.01337 7.73254V7.58254C6.85734 7.58254 6.7091 7.62481 6.56991 7.70879L6.6474 7.83722ZM7.01337 7.43254C6.82446 7.43254 6.64588 7.4853 6.48148 7.58704L6.56041 7.7146C6.70231 7.62678 6.85374 7.58254 7.01337 7.58254V7.43254ZM7.5243 7.59999C7.37831 7.48692 7.20464 7.43254 7.01337 7.43254V7.58254C7.17486 7.58254 7.31538 7.62791 7.43246 7.71858L7.5243 7.59999ZM7.57022 7.63555L7.5243 7.59999L7.43246 7.71858L7.47837 7.75414L7.57022 7.63555ZM7.62278 7.67625L7.57022 7.63555L7.47837 7.75414L7.53093 7.79484L7.62278 7.67625ZM7.60713 7.83108L7.64123 7.77402L7.51247 7.69707L7.47837 7.75414L7.60713 7.83108ZM7.57748 7.8807L7.60713 7.83108L7.47837 7.75414L7.44872 7.80375L7.57748 7.8807ZM7.01337 8.25533C7.25731 8.25533 7.44416 8.10381 7.57748 7.8807L7.44872 7.80375C7.33046 8.00164 7.1847 8.10533 7.01337 8.10533V8.25533ZM6.42181 7.89889C6.58069 8.11222 6.77693 8.25533 7.01337 8.25533V8.10533C6.84429 8.10533 6.68723 8.00414 6.54211 7.8093L6.42181 7.89889ZM6.3793 7.84182L6.42181 7.89889L6.54211 7.8093L6.4996 7.75222L6.3793 7.84182ZM6.33047 7.77626L6.3793 7.84182L6.4996 7.75222L6.45078 7.68666L6.33047 7.77626ZM6.42067 7.62467L6.35116 7.66769L6.43009 7.79524L6.4996 7.75222L6.42067 7.62467ZM6.48148 7.58704L6.42067 7.62467L6.4996 7.75222L6.56041 7.7146L6.48148 7.58704Z" fill="#984111"/>
<path d="M6.06205 6.45293L6.09451 6.52054L6.06205 6.45293ZM6.06205 6.81443L6.0296 6.88205L6.0296 6.88205L6.06205 6.81443ZM6.59837 6.81443L6.63082 6.88205V6.88205L6.59837 6.81443ZM6.59837 6.45293L6.56591 6.52054H6.56591L6.59837 6.45293ZM6.07264 6.63085L6.00365 6.60144L6.00365 6.60144L6.07264 6.63085ZM6.07934 6.62099L6.13561 6.67057L6.13561 6.67057L6.07934 6.62099ZM6.12696 6.58816L6.09451 6.52054L6.09451 6.52054L6.12696 6.58816ZM6.53346 6.58816L6.56591 6.52054L6.56591 6.52054L6.53346 6.58816ZM6.58108 6.62099L6.52481 6.67057L6.52481 6.67057L6.58108 6.62099ZM6.58778 6.63085L6.51879 6.66026L6.51879 6.66026L6.58778 6.63085ZM6.58778 6.63652L6.51879 6.6071L6.51879 6.6071L6.58778 6.63652ZM6.58108 6.64638L6.52481 6.59679L6.52481 6.59679L6.58108 6.64638ZM6.53346 6.6792L6.56591 6.74682H6.56591L6.53346 6.6792ZM6.12696 6.6792L6.09451 6.74682H6.09451L6.12696 6.6792ZM6.07934 6.64638L6.02307 6.69596H6.02307L6.07934 6.64638ZM6.07264 6.63652L6.00365 6.66593L6.00365 6.66593L6.07264 6.63652ZM7.39538 6.45293L7.36293 6.38532V6.38532L7.39538 6.45293ZM7.39538 6.81443L7.36293 6.88205V6.88205L7.39538 6.81443ZM7.9317 6.81443L7.89924 6.74682V6.74682L7.9317 6.81443ZM7.9317 6.45293L7.89924 6.52054V6.52054L7.9317 6.45293ZM7.40597 6.63085L7.33698 6.60144L7.33698 6.60144L7.40597 6.63085ZM7.41267 6.62099L7.3564 6.5714L7.3564 6.5714L7.41267 6.62099ZM7.46029 6.58816L7.49275 6.65577L7.46029 6.58816ZM7.86679 6.58816L7.83433 6.65577L7.86679 6.58816ZM7.91441 6.62099L7.85814 6.67057L7.85814 6.67057L7.91441 6.62099ZM7.92111 6.63085L7.85212 6.66026L7.85212 6.66026L7.92111 6.63085ZM7.92111 6.63652L7.85212 6.6071L7.85212 6.6071L7.92111 6.63652ZM7.91441 6.64638L7.85814 6.59679L7.85814 6.59679L7.91441 6.64638ZM7.86679 6.6792L7.83433 6.61159L7.86679 6.6792ZM7.46029 6.6792L7.49275 6.61159L7.46029 6.6792ZM7.41267 6.64638L7.3564 6.69596L7.3564 6.69596L7.41267 6.64638ZM7.40597 6.63652L7.33698 6.66592L7.33698 6.66593L7.40597 6.63652ZM6.09451 6.52054C6.15482 6.49159 6.23816 6.47368 6.33021 6.47368V6.32368C6.22075 6.32368 6.11429 6.34466 6.0296 6.38532L6.09451 6.52054ZM5.99688 6.63368C5.99688 6.58989 6.03358 6.54979 6.09451 6.52054L6.0296 6.38532C5.95632 6.42049 5.84687 6.49845 5.84687 6.63368H5.99688ZM6.09451 6.74682C6.03358 6.71757 5.99688 6.67747 5.99688 6.63368H5.84687C5.84687 6.76891 5.95632 6.84687 6.0296 6.88205L6.09451 6.74682ZM6.33021 6.79368C6.23816 6.79368 6.15482 6.77577 6.09451 6.74682L6.0296 6.88205C6.11429 6.9227 6.22075 6.94368 6.33021 6.94368V6.79368ZM6.56591 6.74682C6.50559 6.77577 6.42226 6.79368 6.33021 6.79368V6.94368C6.43966 6.94368 6.54612 6.9227 6.63082 6.88205L6.56591 6.74682ZM6.66354 6.63368C6.66354 6.67747 6.62684 6.71757 6.56591 6.74682L6.63082 6.88205C6.7041 6.84687 6.81354 6.76891 6.81354 6.63368H6.66354ZM6.56591 6.52054C6.62684 6.54979 6.66354 6.58989 6.66354 6.63368H6.81354C6.81354 6.49845 6.7041 6.42049 6.63082 6.38532L6.56591 6.52054ZM6.33021 6.47368C6.42226 6.47368 6.50559 6.49159 6.56591 6.52054L6.63082 6.38532C6.54612 6.34466 6.43966 6.32368 6.33021 6.32368V6.47368ZM6.00365 6.60144C5.99916 6.61196 5.99688 6.62275 5.99688 6.63368H6.14688C6.14688 6.63451 6.14687 6.63694 6.14659 6.64003C6.14634 6.64292 6.14591 6.64568 6.14536 6.64829C6.14429 6.65341 6.14283 6.65746 6.14163 6.66026L6.00365 6.60144ZM6.02307 6.5714C6.01462 6.58099 6.00808 6.59103 6.00365 6.60144L6.14163 6.66026C6.13886 6.66676 6.13606 6.67007 6.13561 6.67057L6.02307 6.5714ZM6.09451 6.52054C6.06434 6.53502 6.03993 6.55226 6.02307 6.5714L6.13561 6.67057C6.1354 6.67081 6.14141 6.66441 6.15942 6.65577L6.09451 6.52054ZM6.33021 6.47368C6.23816 6.47368 6.15482 6.49159 6.09451 6.52054L6.15942 6.65577C6.19537 6.63851 6.25558 6.62368 6.33021 6.62368V6.47368ZM6.56591 6.52054C6.50559 6.49159 6.42226 6.47368 6.33021 6.47368V6.62368C6.40484 6.62368 6.46505 6.63851 6.501 6.65577L6.56591 6.52054ZM6.63735 6.5714C6.62048 6.55226 6.59608 6.53502 6.56591 6.52054L6.501 6.65577C6.519 6.66441 6.52501 6.67081 6.52481 6.67057L6.63735 6.5714ZM6.65677 6.60144C6.65234 6.59103 6.64579 6.58099 6.63735 6.5714L6.52481 6.67057C6.52436 6.67007 6.52155 6.66676 6.51879 6.66026L6.65677 6.60144ZM6.66354 6.63368C6.66354 6.62275 6.66126 6.61196 6.65677 6.60144L6.51879 6.66026C6.51759 6.65746 6.51613 6.65341 6.51505 6.64829C6.5145 6.64568 6.51408 6.64292 6.51382 6.64003C6.51355 6.63694 6.51354 6.63451 6.51354 6.63368H6.66354ZM6.65677 6.66593C6.66126 6.6554 6.66354 6.64462 6.66354 6.63368H6.51354C6.51354 6.63285 6.51355 6.63042 6.51382 6.62734C6.51408 6.62444 6.5145 6.62168 6.51505 6.61907C6.51613 6.61395 6.51759 6.60991 6.51879 6.6071L6.65677 6.66593ZM6.63735 6.69596C6.64579 6.68638 6.65234 6.67633 6.65677 6.66593L6.51879 6.6071C6.52155 6.60061 6.52436 6.5973 6.52481 6.59679L6.63735 6.69596ZM6.56591 6.74682C6.59608 6.73234 6.62048 6.7151 6.63735 6.69596L6.52481 6.59679C6.52501 6.59656 6.519 6.60295 6.501 6.61159L6.56591 6.74682ZM6.33021 6.79368C6.42226 6.79368 6.50559 6.77577 6.56591 6.74682L6.501 6.61159C6.46505 6.62885 6.40484 6.64368 6.33021 6.64368V6.79368ZM6.09451 6.74682C6.15482 6.77577 6.23816 6.79368 6.33021 6.79368V6.64368C6.25558 6.64368 6.19537 6.62885 6.15942 6.61159L6.09451 6.74682ZM6.02307 6.69596C6.03993 6.7151 6.06434 6.73234 6.09451 6.74682L6.15942 6.61159C6.14141 6.60295 6.1354 6.59656 6.13561 6.59679L6.02307 6.69596ZM6.00365 6.66593C6.00808 6.67633 6.01462 6.68638 6.02307 6.69596L6.13561 6.59679C6.13606 6.5973 6.13886 6.60061 6.14163 6.6071L6.00365 6.66593ZM5.99688 6.63368C5.99688 6.64462 5.99916 6.6554 6.00365 6.66593L6.14163 6.6071C6.14283 6.60991 6.14429 6.61395 6.14536 6.61907C6.14591 6.62168 6.14634 6.62444 6.14659 6.62734C6.14687 6.63042 6.14688 6.63285 6.14688 6.63368H5.99688ZM7.42784 6.52054C7.48816 6.49159 7.57149 6.47368 7.66354 6.47368V6.32368C7.55409 6.32368 7.44763 6.34466 7.36293 6.38532L7.42784 6.52054ZM7.33021 6.63368C7.33021 6.58989 7.36691 6.54979 7.42784 6.52054L7.36293 6.38532C7.28965 6.42049 7.18021 6.49845 7.18021 6.63368H7.33021ZM7.42784 6.74682C7.36691 6.71757 7.33021 6.67747 7.33021 6.63368H7.18021C7.18021 6.76891 7.28965 6.84687 7.36293 6.88205L7.42784 6.74682ZM7.66354 6.79368C7.57149 6.79368 7.48816 6.77577 7.42784 6.74682L7.36293 6.88205C7.44763 6.9227 7.55409 6.94368 7.66354 6.94368V6.79368ZM7.89924 6.74682C7.83893 6.77577 7.75559 6.79368 7.66354 6.79368V6.94368C7.773 6.94368 7.87946 6.9227 7.96415 6.88205L7.89924 6.74682ZM7.99688 6.63368C7.99688 6.67747 7.96017 6.71757 7.89924 6.74682L7.96415 6.88205C8.03743 6.84687 8.14688 6.76891 8.14688 6.63368H7.99688ZM7.89924 6.52054C7.96017 6.54979 7.99688 6.58989 7.99688 6.63368H8.14688C8.14688 6.49845 8.03743 6.42049 7.96415 6.38532L7.89924 6.52054ZM7.66354 6.47368C7.75559 6.47368 7.83893 6.49159 7.89924 6.52054L7.96415 6.38532C7.87946 6.34466 7.773 6.32368 7.66354 6.32368V6.47368ZM7.33698 6.60144C7.33249 6.61196 7.33021 6.62275 7.33021 6.63368H7.48021C7.48021 6.63451 7.4802 6.63694 7.47993 6.64003C7.47967 6.64292 7.47925 6.64568 7.4787 6.64829C7.47762 6.65341 7.47616 6.65745 7.47497 6.66026L7.33698 6.60144ZM7.3564 6.5714C7.34796 6.58099 7.34141 6.59103 7.33698 6.60144L7.47496 6.66026C7.4722 6.66676 7.46939 6.67007 7.46894 6.67057L7.3564 6.5714ZM7.42784 6.52054C7.39767 6.53502 7.37327 6.55226 7.3564 6.5714L7.46894 6.67057C7.46874 6.67081 7.47475 6.66441 7.49275 6.65577L7.42784 6.52054ZM7.66354 6.47368C7.57149 6.47368 7.48816 6.49159 7.42784 6.52054L7.49275 6.65577C7.5287 6.63851 7.58891 6.62368 7.66354 6.62368V6.47368ZM7.89924 6.52054C7.83893 6.49159 7.75559 6.47368 7.66354 6.47368V6.62368C7.73817 6.62368 7.79838 6.63851 7.83433 6.65577L7.89924 6.52054ZM7.97068 6.5714C7.95382 6.55226 7.92941 6.53502 7.89924 6.52054L7.83433 6.65577C7.85234 6.66441 7.85835 6.67081 7.85814 6.67057L7.97068 6.5714ZM7.9901 6.60144C7.98567 6.59103 7.97913 6.58099 7.97068 6.5714L7.85814 6.67057C7.85769 6.67007 7.85489 6.66676 7.85212 6.66026L7.9901 6.60144ZM7.99688 6.63368C7.99688 6.62275 7.99459 6.61197 7.9901 6.60144L7.85212 6.66026C7.85092 6.65746 7.84946 6.65341 7.84838 6.64828C7.84784 6.64568 7.84741 6.64292 7.84716 6.64002C7.84688 6.63694 7.84687 6.63451 7.84687 6.63368H7.99688ZM7.9901 6.66593C7.99459 6.6554 7.99688 6.64461 7.99688 6.63368H7.84687C7.84687 6.63286 7.84688 6.63042 7.84716 6.62734C7.84741 6.62445 7.84784 6.62168 7.84838 6.61908C7.84946 6.61396 7.85092 6.60991 7.85212 6.6071L7.9901 6.66593ZM7.97068 6.69596C7.97913 6.68638 7.98567 6.67633 7.9901 6.66593L7.85212 6.6071C7.85489 6.60061 7.85769 6.5973 7.85814 6.59679L7.97068 6.69596ZM7.89924 6.74682C7.92941 6.73234 7.95382 6.7151 7.97068 6.69596L7.85814 6.59679C7.85835 6.59656 7.85234 6.60295 7.83433 6.61159L7.89924 6.74682ZM7.66354 6.79368C7.75559 6.79368 7.83893 6.77577 7.89924 6.74682L7.83433 6.61159C7.79838 6.62885 7.73817 6.64368 7.66354 6.64368V6.79368ZM7.42784 6.74682C7.48816 6.77577 7.57149 6.79368 7.66354 6.79368V6.64368C7.58891 6.64368 7.5287 6.62885 7.49275 6.61159L7.42784 6.74682ZM7.3564 6.69596C7.37327 6.7151 7.39767 6.73234 7.42784 6.74682L7.49275 6.61159C7.47475 6.60295 7.46874 6.59656 7.46894 6.59679L7.3564 6.69596ZM7.33698 6.66593C7.34141 6.67633 7.34796 6.68638 7.3564 6.69596L7.46894 6.59679C7.46939 6.5973 7.4722 6.60061 7.47496 6.6071L7.33698 6.66593ZM7.33021 6.63368C7.33021 6.64461 7.33249 6.6554 7.33698 6.66592L7.47497 6.60711C7.47616 6.60991 7.47762 6.61396 7.4787 6.61908C7.47925 6.62168 7.47967 6.62444 7.47993 6.62734C7.4802 6.63042 7.48021 6.63285 7.48021 6.63368H7.33021Z" fill="#984111"/>
</g>
</g>
</svg>
