<svg width="32" height="24" viewBox="0 0 32 24" fill="none" xmlns="http://www.w3.org/2000/svg">
<mask id="mask0_5190_104352" style="mask-type:luminance" maskUnits="userSpaceOnUse" x="0" y="0" width="32" height="24">
<rect width="32" height="24" fill="white"/>
</mask>
<g mask="url(#mask0_5190_104352)">
<path fill-rule="evenodd" clip-rule="evenodd" d="M0 0H32V24H0V0Z" fill="#F7FCFF"/>
<path fill-rule="evenodd" clip-rule="evenodd" d="M0 0H14V24H0V0Z" fill="#FFDC17"/>
<path d="M22.7827 12.7512L22.4375 12.7736C22.52 13.9594 22.7747 14.8754 23.207 15.5218C23.9042 16.5642 24.8243 17.3702 25.44 17.3702C25.5798 17.3702 25.6123 17.4221 25.5662 17.5504C25.5006 17.7327 25.2932 17.9119 25.0264 17.9808C24.5826 18.0952 23.5733 18.1544 22.0156 18.1544V18.4893C23.6045 18.4893 24.6321 18.429 25.1155 18.3044C25.4909 18.2075 25.7888 17.95 25.8929 17.6605C26.0134 17.3256 25.8316 17.0353 25.44 17.0353C24.9827 17.0353 24.1344 16.2922 23.4974 15.3398C23.1015 14.7478 22.8615 13.8849 22.7827 12.7512Z" fill="#AF0100"/>
<path d="M21.147 12.7512L21.4921 12.7736C21.4097 13.9594 21.155 14.8754 20.7226 15.5218C20.0255 16.5642 19.1054 17.3702 18.4897 17.3702C18.3499 17.3702 18.3174 17.4221 18.3635 17.5504C18.4291 17.7327 18.6365 17.9119 18.9033 17.9808C19.3471 18.0952 20.3564 18.1544 21.914 18.1544V18.4893C20.3252 18.4893 19.2976 18.429 18.8142 18.3044C18.4388 18.2075 18.1409 17.95 18.0368 17.6605C17.9163 17.3256 18.0981 17.0353 18.4897 17.0353C18.947 17.0353 19.7952 16.2922 20.4322 15.3398C20.8282 14.7478 21.0682 13.8849 21.147 12.7512Z" fill="#AF0100"/>
<path fill-rule="evenodd" clip-rule="evenodd" d="M28.0672 6.79814L18.9258 13.9241C18.6057 13.8199 18.2563 13.7628 17.8923 13.7628C16.4092 13.7628 15.168 14.7101 15.168 15.9395C15.168 17.1689 16.4092 18.1163 17.8923 18.1163C18.0624 18.1163 18.2293 18.1038 18.3915 18.0799C18.2415 17.9627 18.1294 17.8162 18.0734 17.6605C18.0059 17.4731 18.0332 17.2996 18.1389 17.1832C18.0585 17.1912 17.9762 17.1954 17.8923 17.1954C16.8916 17.1954 16.1193 16.6059 16.1193 15.9395C16.1193 15.2732 16.8916 14.6837 17.8923 14.6837C18.893 14.6837 19.6653 15.2732 19.6653 15.9395C19.6653 16.1434 19.593 16.3401 19.464 16.5149C19.4883 16.4932 19.5126 16.471 19.5371 16.4482C19.8539 16.1532 19.142 17.3702 18.5263 17.3702C18.3865 17.3702 18.3539 17.4221 18.4001 17.5504C18.4615 17.7211 18.6473 17.8892 18.8899 17.9664C19.8927 17.6528 20.6166 16.8785 20.6166 15.9395C20.6166 15.5555 20.4955 15.1989 20.2837 14.8902L25.1965 10.7206L25.5254 11.0603L25.7621 10.8457L26.5828 11.4539L26.2396 11.7184L26.94 12.5698L28.353 11.4804L28.377 11.4681L28.3728 11.4652L28.4604 11.3977L27.76 10.5463L27.4213 10.8074L26.5038 10.173L26.6113 10.0754L26.3161 9.77042L26.76 9.39365L26.9957 9.63709L27.2487 9.40761L28.0443 10.0374L27.7099 10.2951L28.4103 11.1465L29.6207 10.2134L29.7594 10.1375L29.7392 10.122L29.9307 9.97442L29.2303 9.12305L28.8347 9.42802L27.9633 8.75949L28.0816 8.65217L27.8796 8.44347L28.784 7.67585L28.0672 6.79814Z" fill="#F4B300"/>
<path fill-rule="evenodd" clip-rule="evenodd" d="M15.6866 14.7256C15.9493 14.7256 16.1623 14.5569 16.1623 14.3488C16.1623 14.1408 15.9493 13.9721 15.6866 13.9721C15.4239 13.9721 15.2109 14.1408 15.2109 14.3488C15.2109 14.5569 15.4239 14.7256 15.6866 14.7256ZM15.8596 18.1581C16.1223 18.1581 16.3353 17.9895 16.3353 17.7814C16.3353 17.5733 16.1223 17.4047 15.8596 17.4047C15.5969 17.4047 15.3839 17.5733 15.3839 17.7814C15.3839 17.9895 15.5969 18.1581 15.8596 18.1581ZM20.5731 17.7814C20.5731 17.9895 20.3601 18.1581 20.0974 18.1581C19.8347 18.1581 19.6217 17.9895 19.6217 17.7814C19.6217 17.5733 19.8347 17.4047 20.0974 17.4047C20.3601 17.4047 20.5731 17.5733 20.5731 17.7814Z" fill="#BFBFBF"/>
<path fill-rule="evenodd" clip-rule="evenodd" d="M23.3834 15.9395C23.3834 15.387 23.6341 14.8914 24.0449 14.5132L18.7954 10.4478L18.7355 10.4939L18.8885 10.6327L18.4746 11.0604L18.2567 10.8627L17.4531 11.4815L17.7604 11.7184L17.06 12.5698L15.662 11.4921L15.623 11.4681L15.6272 11.4652L15.5396 11.3977L16.24 10.5463L16.5787 10.8074L17.4962 10.173L17.3887 10.0754L17.7853 9.66563L17.3232 9.30771L17.0043 9.6371L16.7608 9.41622L15.9754 10.0525L16.2901 10.2951L15.5897 11.1465L14.4178 10.243L14.2406 10.1375L14.2608 10.122L14.0693 9.97443L14.7697 9.12305L15.1653 9.42803L16.0367 8.75949L15.9184 8.65218L16.1576 8.40507L15.216 7.67585L15.8103 6.95673L24.892 13.9898C25.2598 13.844 25.6734 13.7628 26.1077 13.7628C27.5908 13.7628 28.832 14.7101 28.832 15.9395C28.832 17.1689 27.5908 18.1163 26.1077 18.1163C25.9376 18.1163 25.7707 18.1038 25.6085 18.0799C25.7585 17.9627 25.8706 17.8162 25.9266 17.6605C25.9941 17.4731 25.9668 17.2996 25.8611 17.1832C25.9415 17.1912 26.0238 17.1954 26.1077 17.1954C27.1084 17.1954 27.8807 16.6059 27.8807 15.9395C27.8807 15.2732 27.1084 14.6837 26.1077 14.6837C25.107 14.6837 24.3347 15.2732 24.3347 15.9395C24.3347 16.1434 24.407 16.3401 24.536 16.5149C24.5117 16.4932 24.4874 16.471 24.4629 16.4482C24.1461 16.1533 24.858 17.3702 25.4737 17.3702C25.6135 17.3702 25.6461 17.4221 25.5999 17.5504C25.5385 17.7211 25.3527 17.8892 25.1101 17.9664C24.1073 17.6529 23.3834 16.8785 23.3834 15.9395Z" fill="#BFBFBF"/>
<path fill-rule="evenodd" clip-rule="evenodd" d="M28.3134 14.7256C28.0507 14.7256 27.8377 14.5569 27.8377 14.3488C27.8377 14.1408 28.0507 13.9721 28.3134 13.9721C28.5761 13.9721 28.7891 14.1408 28.7891 14.3488C28.7891 14.5569 28.5761 14.7256 28.3134 14.7256ZM28.1404 18.1581C27.8777 18.1581 27.6647 17.9895 27.6647 17.7814C27.6647 17.5733 27.8777 17.4047 28.1404 17.4047C28.4031 17.4047 28.6161 17.5733 28.6161 17.7814C28.6161 17.9895 28.4031 18.1581 28.1404 18.1581ZM23.4269 17.7814C23.4269 17.9895 23.6399 18.1581 23.9026 18.1581C24.1653 18.1581 24.3783 17.9895 24.3783 17.7814C24.3783 17.5733 24.1653 17.4047 23.9026 17.4047C23.6399 17.4047 23.4269 17.5733 23.4269 17.7814Z" fill="#F4B300"/>
<path fill-rule="evenodd" clip-rule="evenodd" d="M21.7429 11.7953C21.6713 11.7953 21.6132 11.8534 21.6132 11.9251V12.4651H21.1334C21.064 12.4651 21.0078 12.5213 21.0078 12.5907C21.0078 12.6601 21.064 12.7163 21.1334 12.7163H21.6132V19.8703C21.6132 19.9419 21.6713 20 21.7429 20H22.0024C22.0741 20 22.1321 19.9419 22.1321 19.8703V12.7163H22.8714C22.9408 12.7163 22.997 12.6601 22.997 12.5907C22.997 12.5213 22.9408 12.4651 22.8714 12.4651H22.1321V11.9251C22.1321 11.8534 22.0741 11.7953 22.0024 11.7953H21.7429Z" fill="#AF0100"/>
<path fill-rule="evenodd" clip-rule="evenodd" d="M16.7539 7.5937L16.9656 7.73895C17.4589 7.06531 17.9028 6.93 18.3544 7.28355C19.134 7.89393 19.2015 9.38315 18.3678 9.88176C17.3735 10.4764 16.8695 11.6361 17.3104 12.2673C17.7172 12.8497 18.698 12.6293 19.6664 11.8978C19.8383 11.7679 20.0022 11.6292 20.1562 11.4836L19.9517 11.3256C19.8114 11.4568 19.6626 11.5821 19.5068 11.6998C18.6431 12.3523 17.8132 12.5387 17.5253 12.1266C17.1816 11.6346 17.621 10.6236 18.5042 10.0954C19.5032 9.49794 19.4262 7.7997 18.5176 7.08827C17.9315 6.6294 17.3246 6.81436 16.7539 7.5937ZM20.5618 10.645L20.7729 10.7914C21.1402 10.2958 21.391 9.75913 21.4743 9.23055L21.2178 9.19269C21.1411 9.67951 20.9065 10.1798 20.5618 10.645Z" fill="#979797"/>
<path fill-rule="evenodd" clip-rule="evenodd" d="M27.2695 7.5937L27.0579 7.73895C26.5645 7.06531 26.1206 6.93 25.669 7.28355C24.8895 7.89393 24.8219 9.38315 25.6556 9.88176C26.65 10.4764 27.154 11.6361 26.7131 12.2673C26.3062 12.8497 25.3254 12.6293 24.357 11.8978C24.1851 11.7679 24.0213 11.6292 23.8672 11.4836L24.0718 11.3256C24.2121 11.4568 24.3609 11.5821 24.5167 11.6998C25.3804 12.3523 26.2102 12.5387 26.4981 12.1266C26.8418 11.6346 26.4025 10.6236 25.5193 10.0954C24.5202 9.49794 24.5972 7.7997 25.5059 7.08827C26.0919 6.6294 26.6988 6.81436 27.2695 7.5937ZM23.4616 10.645L23.2505 10.7914C22.8833 10.2958 22.6324 9.75913 22.5492 9.23055L22.8057 9.19269C22.8823 9.67951 23.1169 10.1798 23.4616 10.645Z" fill="#979797"/>
<path fill-rule="evenodd" clip-rule="evenodd" d="M21.8705 20.0166C22.1571 20.0166 22.3894 19.9004 22.3894 19.7571C22.3894 19.6138 22.1571 19.4977 21.8705 19.4977C21.5839 19.4977 21.3516 19.6138 21.3516 19.7571C21.3516 19.9004 21.5839 20.0166 21.8705 20.0166Z" fill="#AF0100"/>
<path fill-rule="evenodd" clip-rule="evenodd" d="M21.785 9.21937C22.788 9.21937 23.6012 9.08384 23.6012 8.91666C23.6012 8.74948 22.788 8.61396 21.785 8.61396C20.7819 8.61396 19.9688 8.74948 19.9688 8.91666C19.9688 9.08384 20.7819 9.21937 21.785 9.21937Z" fill="#AF0100"/>
<path fill-rule="evenodd" clip-rule="evenodd" d="M21.8859 2.03838H21.6264V2.3375H21.3807V2.58867H21.6264V3.32166H21.8859V2.58867H22.1853V2.3375H21.8859V2.03838ZM19.9349 5.65669L19.8191 5.46161C19.8825 5.43501 19.9473 5.4099 20.0134 5.38629L19.6758 4.64607L19.9131 4.54464L20.2607 5.30668C20.3343 5.28545 20.4095 5.26591 20.4861 5.24806C20.4328 5.18768 20.3999 5.10507 20.3999 5.01396C20.3999 4.82901 20.5354 4.67907 20.7026 4.67907C20.8697 4.67907 21.0053 4.82901 21.0053 5.01396C21.0053 5.06615 20.9945 5.11556 20.9752 5.15959C21.1807 5.13234 21.3954 5.11547 21.6192 5.10894V4.82515H21.2942V4.62314H21.6192V4.38256H21.9623V4.62314H22.3583V4.82515H21.9623V5.10696C22.2172 5.11139 22.4561 5.12913 22.6789 5.16026C22.6594 5.11606 22.6485 5.06642 22.6485 5.01396C22.6485 4.82901 22.784 4.67907 22.9512 4.67907C23.1184 4.67907 23.2539 4.82901 23.2539 5.01396C23.2539 5.10868 23.2184 5.19421 23.1612 5.25513C23.258 5.28035 23.3509 5.30878 23.4399 5.34043L23.6883 4.7958L23.9256 4.89723L23.6792 5.43752C23.6987 5.44649 23.718 5.45564 23.7371 5.46498L23.6064 5.65332L23.5854 5.6432L23.5456 5.73063L23.3082 5.62919L23.347 5.54416C22.9685 5.40831 22.5071 5.33492 21.9623 5.32503V5.41468H21.6192V5.3271C20.9724 5.34681 20.4113 5.45694 19.9349 5.65669ZM19.8191 5.88021L19.8796 5.9822L19.6758 6.06933L20.0134 6.80955C19.9473 6.83316 19.8825 6.85826 19.8191 6.88486L19.9349 7.07995C20.4113 6.88019 20.9724 6.77007 21.6192 6.75036V6.83794H21.9623V6.74829C22.5071 6.75818 22.9685 6.83156 23.347 6.96741L23.3082 7.05245L23.5456 7.15388L23.5854 7.06646L23.6064 7.07657L23.7371 6.88824C23.718 6.8789 23.6987 6.86974 23.6792 6.86077L23.9256 6.32049L23.6883 6.21905L23.4399 6.76368C23.3509 6.73203 23.258 6.7036 23.1612 6.67838C23.2184 6.61747 23.2539 6.53193 23.2539 6.43721C23.2539 6.25226 23.1184 6.10233 22.9512 6.10233C22.784 6.10233 22.6485 6.25226 22.6485 6.43721C22.6485 6.48967 22.6594 6.53931 22.6789 6.58352C22.4561 6.55238 22.2172 6.53464 21.9623 6.53022V6.24841H22.3583V6.0464H21.9623V5.80582H21.6192V6.0464H21.2942V6.24841H21.6192V6.5322C21.3954 6.53872 21.1807 6.5556 20.9752 6.58285C20.9945 6.53881 21.0053 6.48941 21.0053 6.43721C21.0053 6.25226 20.8697 6.10233 20.7026 6.10233C20.5354 6.10233 20.3999 6.25226 20.3999 6.43721C20.3999 6.52832 20.4328 6.61094 20.4861 6.67131C20.4095 6.68917 20.3343 6.70871 20.2607 6.72994L19.9578 6.06581C20.4814 5.8506 21.1063 5.74248 21.8336 5.74248C22.5693 5.74248 23.1598 5.85309 23.6064 6.07192L23.7371 5.88359C23.2469 5.64338 22.6121 5.52446 21.8336 5.52446C21.0575 5.52446 20.3855 5.64269 19.8191 5.88021ZM19.8191 7.30347L19.8796 7.40546L19.6758 7.49258L20.0134 8.23281C19.9473 8.25642 19.8825 8.28152 19.8191 8.30812L19.9349 8.50321C20.4113 8.30345 20.9724 8.19333 21.6192 8.17361V8.2612H21.9623V8.17155C22.5071 8.18143 22.9685 8.25482 23.347 8.39067L23.3082 8.4757L23.5456 8.57714L23.5854 8.48971L23.6064 8.49983L23.7371 8.3115C23.718 8.30216 23.6987 8.293 23.6792 8.28403L23.9256 7.74374L23.6883 7.64231L23.4399 8.18694C23.3509 8.15529 23.258 8.12686 23.1612 8.10164C23.2184 8.04072 23.2539 7.95519 23.2539 7.86047C23.2539 7.67552 23.1184 7.52559 22.9512 7.52559C22.784 7.52559 22.6485 7.67552 22.6485 7.86047C22.6485 7.91293 22.6594 7.96257 22.6789 8.00677C22.4561 7.97564 22.2172 7.9579 21.9623 7.95347V7.67166H22.3583V7.46966H21.9623V7.22907H21.6192V7.46966H21.2942V7.67166H21.6192V7.95545C21.3954 7.96198 21.1807 7.97885 20.9752 8.0061C20.9945 7.96207 21.0053 7.91266 21.0053 7.86047C21.0053 7.67552 20.8697 7.52559 20.7026 7.52559C20.5354 7.52559 20.3999 7.67552 20.3999 7.86047C20.3999 7.95158 20.4328 8.03419 20.4861 8.09457C20.4095 8.11242 20.3343 8.13197 20.2607 8.15319L19.9578 7.48906C20.4814 7.27385 21.1063 7.16574 21.8336 7.16574C22.5693 7.16574 23.1598 7.27635 23.6064 7.49518L23.7371 7.30684C23.2469 7.06663 22.6121 6.94771 21.8336 6.94771C21.0575 6.94771 20.3855 7.06595 19.8191 7.30347ZM19.8191 8.72672L19.9349 8.92181C20.4632 8.70029 21.0957 8.589 21.8336 8.589C22.5693 8.589 23.1598 8.6996 23.6064 8.91843L23.7371 8.7301C23.2469 8.48989 22.6121 8.37097 21.8336 8.37097C21.0575 8.37097 20.3855 8.4892 19.8191 8.72672Z" fill="#F4B300"/>
</g>
</svg>
