<svg width="32" height="24" viewBox="0 0 32 24" fill="none" xmlns="http://www.w3.org/2000/svg">
<mask id="mask0_5190_104134" style="mask-type:luminance" maskUnits="userSpaceOnUse" x="0" y="0" width="32" height="24">
<rect width="32" height="24" fill="white"/>
</mask>
<g mask="url(#mask0_5190_104134)">
<path fill-rule="evenodd" clip-rule="evenodd" d="M0 0H32V24H0V0Z" fill="#F7FCFF"/>
<path fill-rule="evenodd" clip-rule="evenodd" d="M0 0V8H32V0H0Z" fill="#C51918"/>
<path fill-rule="evenodd" clip-rule="evenodd" d="M0 16V24H32V16H0Z" fill="#5EAA22"/>
<path fill-rule="evenodd" clip-rule="evenodd" d="M0 -2L16.6696 12L0 26V-2Z" fill="#272727"/>
<mask id="path-6-outside-1_5190_104134" maskUnits="userSpaceOnUse" x="-2" y="-8.35495" width="36" height="40" fill="black">
<rect fill="white" x="-2" y="-8.35495" width="36" height="40"/>
<path fill-rule="evenodd" clip-rule="evenodd" d="M0 -3.35495L17.4083 10H32V14H17.1694L0 26.8115V22.3402L14 12L0 1.5345V-3.35495Z"/>
</mask>
<path fill-rule="evenodd" clip-rule="evenodd" d="M0 -3.35495L17.4083 10H32V14H17.1694L0 26.8115V22.3402L14 12L0 1.5345V-3.35495Z" fill="#FFD018"/>
<path d="M17.4083 10L16.1909 11.5868L16.7295 12H17.4083V10ZM0 -3.35495L1.21736 -4.94178L-2 -7.41001V-3.35495H0ZM32 10H34V8H32V10ZM32 14V16H34V14H32ZM17.1694 14V12H16.5054L15.9733 12.3971L17.1694 14ZM0 26.8115H-2V30.7993L1.19608 28.4144L0 26.8115ZM0 22.3402L-1.18821 20.7314L-2 21.331V22.3402H0ZM14 12L15.1882 13.6088L17.3533 12.0097L15.1975 10.3981L14 12ZM0 1.5345H-2V2.53648L-1.19747 3.13639L0 1.5345ZM18.6257 8.41316L1.21736 -4.94178L-1.21736 -1.76812L16.1909 11.5868L18.6257 8.41316ZM32 8H17.4083V12H32V8ZM34 14V10H30V14H34ZM17.1694 16H32V12H17.1694V16ZM1.19608 28.4144L18.3655 15.6029L15.9733 12.3971L-1.19608 25.2086L1.19608 28.4144ZM-2 22.3402V26.8115H2V22.3402H-2ZM12.8118 10.3912L-1.18821 20.7314L1.18821 23.949L15.1882 13.6088L12.8118 10.3912ZM-1.19747 3.13639L12.8025 13.6019L15.1975 10.3981L1.19747 -0.0673912L-1.19747 3.13639ZM-2 -3.35495V1.5345H2V-3.35495H-2Z" fill="#272727" mask="url(#path-6-outside-1_5190_104134)"/>
<path d="M4.8724 16.7681L4.8744 15.1877C6.28273 14.877 7.21568 14.4729 7.66979 13.9869C8.78803 12.6087 8.04467 9.37986 5.7473 9.40097C4.60912 9.40097 3.43213 9.94335 3.43213 11.2199C3.43213 12.8053 3.75839 13.4831 4.8744 13.4831C5.98345 13.4831 6.39006 13.5424 7.1206 12.5466L7.91339 12.7916C7.13054 13.8586 6.07529 14.7015 4.8724 14.7015C2.89086 14.7015 1.8125 13.2074 1.8125 11.4795C1.8125 9.34638 3.54418 7.85244 5.63212 7.85244C7.19003 7.85244 9.65418 9.76064 9.65418 11.4795C9.65418 13.1983 9.65418 13.9869 8.30301 15.1877C7.75878 15.6714 6.41033 16.5352 4.8724 16.7681Z" fill="#FFD018"/>
<path fill-rule="evenodd" clip-rule="evenodd" d="M4.99022 9.87983C4.91393 9.85969 4.83577 9.9052 4.81562 9.98149L4.76101 10.1883C4.75828 10.1848 4.75554 10.1812 4.7528 10.1777C4.70457 10.1152 4.61486 10.1037 4.55241 10.1519C4.48997 10.2001 4.47844 10.2899 4.52667 10.3523C4.55976 10.3952 4.59242 10.4375 4.62464 10.4794L4.46001 10.6314C4.40204 10.6849 4.39844 10.7753 4.45197 10.8333C4.50549 10.8912 4.59587 10.8948 4.65384 10.8413L4.79931 10.707C4.88616 10.8205 4.9694 10.9298 5.04892 11.0349L4.77506 11.1819C4.70555 11.2192 4.67945 11.3058 4.71677 11.3753C4.75409 11.4449 4.84069 11.471 4.91021 11.4336L5.22298 11.2657C5.29802 11.3657 5.36917 11.4611 5.43634 11.5517L5.06078 11.7533C4.99126 11.7907 4.96516 11.8773 5.00248 11.9468C5.0398 12.0163 5.12641 12.0424 5.19592 12.0051L5.60745 11.7841C5.71691 11.9339 5.81286 12.0674 5.89478 12.1838L5.63221 12.3248C5.56269 12.3621 5.53659 12.4487 5.57391 12.5182C5.61123 12.5877 5.69784 12.6138 5.76735 12.5765L6.05797 12.4205C6.17884 12.6006 6.24142 12.7086 6.24142 12.7371C6.24142 12.816 6.30538 12.8799 6.38428 12.8799C6.46318 12.8799 6.52713 12.816 6.52713 12.7371C6.52713 12.6648 6.45192 12.5127 6.29473 12.269C6.29701 12.265 6.2991 12.2609 6.30099 12.2568L6.51239 11.7913C6.54501 11.7195 6.51323 11.6348 6.44139 11.6022C6.36956 11.5695 6.28487 11.6013 6.25225 11.6732L6.10783 11.9911C6.01761 11.8613 5.91229 11.7143 5.79137 11.5493L5.94096 11.2199C5.97359 11.1481 5.9418 11.0634 5.86996 11.0307C5.79813 10.9981 5.71344 11.0299 5.68082 11.1017L5.59696 11.2864C5.55074 11.2244 5.50272 11.1603 5.45286 11.0941L5.65524 10.6485C5.68787 10.5766 5.65608 10.4919 5.58425 10.4593C5.51241 10.4267 5.42773 10.4585 5.3951 10.5303L5.25677 10.8349C5.16964 10.7203 5.07776 10.6 4.98106 10.4741L5.09187 10.0544C5.11201 9.97815 5.0665 9.89998 4.99022 9.87983Z" fill="#FFD018"/>
<path fill-rule="evenodd" clip-rule="evenodd" d="M5.95119 9.87983C6.02747 9.85969 6.10564 9.9052 6.12578 9.98149L6.1804 10.1883C6.18313 10.1848 6.18587 10.1812 6.18861 10.1777C6.23683 10.1152 6.32655 10.1037 6.38899 10.1519C6.45144 10.2001 6.46296 10.2899 6.41474 10.3523C6.38164 10.3952 6.34898 10.4375 6.31677 10.4794L6.4814 10.6314C6.53937 10.6849 6.54297 10.7753 6.48944 10.8333C6.43592 10.8912 6.34554 10.8948 6.28757 10.8413L6.1421 10.707C6.05524 10.8205 5.97201 10.9298 5.89248 11.0349L6.16634 11.1819C6.23586 11.2192 6.26196 11.3058 6.22464 11.3753C6.18732 11.4449 6.10071 11.471 6.0312 11.4336L5.71842 11.2657C5.64339 11.3657 5.57224 11.4611 5.50506 11.5517L5.88063 11.7533C5.95014 11.7907 5.97624 11.8773 5.93892 11.9468C5.9016 12.0163 5.815 12.0424 5.74549 12.0051L5.33395 11.7841C5.2245 11.9339 5.12855 12.0674 5.04662 12.1838L5.3092 12.3248C5.37871 12.3621 5.40481 12.4487 5.36749 12.5182C5.33018 12.5877 5.24357 12.6138 5.17406 12.5765L4.88344 12.4205C4.76257 12.6006 4.69999 12.7086 4.69999 12.7371C4.69999 12.816 4.63603 12.8799 4.55713 12.8799C4.47823 12.8799 4.41427 12.816 4.41427 12.7371C4.41427 12.6648 4.48949 12.5127 4.64667 12.269C4.6444 12.265 4.64231 12.2609 4.64041 12.2568L4.42902 11.7913C4.39639 11.7195 4.42818 11.6348 4.50001 11.6022C4.57185 11.5695 4.65653 11.6013 4.68916 11.6732L4.83358 11.9911C4.9238 11.8613 5.02912 11.7143 5.15004 11.5493L5.00045 11.2199C4.96782 11.1481 4.99961 11.0634 5.07144 11.0307C5.14328 10.9981 5.22796 11.0299 5.26059 11.1017L5.34445 11.2864C5.39066 11.2244 5.43869 11.1603 5.48855 11.0941L5.28616 10.6485C5.25354 10.5766 5.28532 10.4919 5.35716 10.4593C5.42899 10.4267 5.51368 10.4585 5.5463 10.5303L5.68464 10.8349C5.77177 10.7203 5.86364 10.6 5.96035 10.4741L5.84954 10.0544C5.82939 9.97815 5.87491 9.89998 5.95119 9.87983Z" fill="#FFD018"/>
</g>
</svg>
