<svg width="128" height="21" viewBox="0 0 128 21" fill="none" xmlns="http://www.w3.org/2000/svg">
<path d="M39.5903 12.5135C39.6739 12.476 39.7552 12.436 39.8365 12.3935C40.8739 11.8611 41.6937 11.1112 42.2937 10.1463C42.8937 9.18142 43.1925 8.08155 43.1925 6.84671C43.1925 5.61186 42.9056 4.492 42.3319 3.54712C41.7583 2.60224 40.9623 1.85733 39.9416 1.3149C38.9234 0.772466 37.7497 0.5 36.4255 0.5H29.4434V20.16H33.1221V13.1934H35.9426L39.7839 20.16H43.9478L39.5926 12.5135H39.5903ZM33.1221 4.00956H36.2653C37.1784 4.00956 37.9266 4.27203 38.5074 4.79696C39.0883 5.3219 39.3799 6.00431 39.3799 6.84671C39.3799 7.38914 39.2508 7.87658 38.9903 8.30652C38.7297 8.73647 38.3808 9.07393 37.9433 9.3164C37.5035 9.55887 37.0087 9.68135 36.4518 9.68135H33.1221V4.01206V4.00956Z" fill="black"/>
<path d="M47.4374 4.76947C46.8996 4.76947 46.4263 4.55949 46.0151 4.13705C45.604 3.7146 45.3984 3.21466 45.3984 2.63473C45.3984 2.05481 45.604 1.55237 46.0151 1.13242C46.4263 0.712473 46.8996 0.5 47.4374 0.5C47.9752 0.5 48.4724 0.709974 48.874 1.13242C49.2779 1.55487 49.4787 2.05481 49.4787 2.63473C49.4787 3.21466 49.2779 3.7171 48.874 4.13705C48.47 4.55949 47.9919 4.76947 47.4374 4.76947ZM45.6638 20.16V6.1168H49.2086V20.16H45.6638Z" fill="black"/>
<path d="M58.1543 20.4973C56.7583 20.4973 55.513 20.1824 54.4206 19.5575C53.3282 18.93 52.4773 18.0601 51.8701 16.9453C51.2606 15.8304 50.957 14.5631 50.957 13.1408C50.957 11.7184 51.2606 10.4261 51.8701 9.32124C52.4797 8.21638 53.3211 7.35148 54.3943 6.72406C55.4676 6.09664 56.7034 5.78418 58.1017 5.78418C59.5 5.78418 60.6713 6.13164 61.7804 6.82405C62.8895 7.51646 63.695 8.51884 64.197 9.82867L60.8673 11.0635C60.6163 10.5211 60.2267 10.0861 59.6984 9.75868C59.1702 9.43122 58.5845 9.26624 57.9391 9.26624C57.2938 9.26624 56.6938 9.43122 56.1942 9.75868C55.6922 10.0861 55.2978 10.5411 55.0134 11.121C54.7266 11.7009 54.5831 12.3759 54.5831 13.1433C54.5831 13.9107 54.7266 14.5806 55.0134 15.1505C55.3002 15.7229 55.7018 16.1754 56.2229 16.5128C56.7416 16.8503 57.332 17.0178 57.9965 17.0178C58.661 17.0178 59.2275 16.8403 59.7558 16.4828C60.284 16.1279 60.6737 15.6604 60.9247 15.078L64.2807 16.3129C63.762 17.6427 62.9516 18.6726 61.8497 19.4025C60.7478 20.1324 59.5168 20.4973 58.1567 20.4973H58.1543Z" fill="black"/>
<path d="M78.0295 12.2135V20.1625H74.4847V12.9734C74.4847 12.0186 74.3771 11.2787 74.162 10.7537C73.9469 10.2288 73.6528 9.85133 73.2752 9.61636C72.8975 9.38139 72.4601 9.2664 71.9581 9.2664C71.045 9.24891 70.3423 9.53887 69.8499 10.1363C69.3575 10.7362 69.1112 11.6236 69.1112 12.8035V20.1625H65.5664V0.5H69.1112V7.92157C69.4507 7.38914 69.8594 6.95169 70.3327 6.60924C71.0928 6.05681 71.9844 5.78184 73.0051 5.78184C74.0783 5.78184 74.989 6.00681 75.73 6.45676C76.4734 6.9067 77.0423 7.60411 77.4343 8.54899C77.8287 9.49388 78.0247 10.7162 78.0247 12.2135H78.0295Z" fill="black"/>
<path d="M89.416 12.5615V13.7189C89.4327 13.5314 89.4423 13.3389 89.4423 13.1415C89.4423 12.944 89.4327 12.7515 89.416 12.564V12.5615ZM89.416 12.5615V13.7189C89.4327 13.5314 89.4423 13.3389 89.4423 13.1415C89.4423 12.944 89.4327 12.7515 89.416 12.564V12.5615ZM89.416 12.5615V13.7189C89.4327 13.5314 89.4423 13.3389 89.4423 13.1415C89.4423 12.944 89.4327 12.7515 89.416 12.564V12.5615Z" fill="black"/>
<path d="M89.4159 0.5V7.63411C89.0885 7.12167 88.6988 6.68923 88.2471 6.34177C87.4678 5.74185 86.5141 5.44188 85.3859 5.44188C84.1501 5.44188 83.0816 5.74185 82.1757 6.34177C81.2721 6.9417 80.5694 7.78909 80.0674 8.88395C79.5654 9.97882 79.3145 11.2862 79.3145 12.801C79.3145 14.3158 79.5654 15.6006 80.0674 16.7055C80.5694 17.8103 81.2721 18.6627 82.1757 19.2602C83.0792 19.8576 84.1501 20.16 85.3859 20.16C86.5141 20.16 87.4678 19.8601 88.2471 19.2602C88.7227 18.8952 89.1291 18.4353 89.4637 17.8828L89.6024 20.1575H92.9584V0.5H89.4135H89.4159ZM87.9244 16.2555C87.4487 16.593 86.9085 16.7605 86.299 16.7605C85.6536 16.7605 85.0847 16.593 84.5947 16.2555C84.1023 15.9181 83.7126 15.4506 83.4258 14.8507C83.139 14.2508 82.9955 13.5684 82.9955 12.801C82.9955 12.0336 83.139 11.3486 83.4258 10.7512C83.7126 10.1513 84.0975 9.68885 84.5803 9.36139C85.0632 9.03393 85.6273 8.86895 86.2727 8.86895C86.918 8.86895 87.4487 9.03393 87.9244 9.36139C88.4 9.68885 88.7705 10.1513 89.0383 10.7512C89.2367 11.1962 89.3633 11.6861 89.4135 12.2235C89.4303 12.411 89.4398 12.6035 89.4398 12.801C89.4398 12.9984 89.4303 13.1909 89.4135 13.3784C89.361 13.9158 89.2367 14.4058 89.0383 14.8507C88.7705 15.4506 88.3977 15.9181 87.9244 16.2555Z" fill="black"/>
<path d="M106.081 8.54699C105.641 7.56462 104.972 6.80221 104.066 6.25728C103.16 5.71235 102.029 5.44238 100.669 5.44238C99.541 5.44238 98.5872 5.62486 97.808 5.98981C97.0288 6.35477 96.3977 6.82221 95.9149 7.39464C95.432 7.96457 95.0639 8.55199 94.8129 9.14942L97.9275 10.2718C98.2502 9.72935 98.6446 9.3269 99.1083 9.06443C99.5721 8.80196 100.093 8.67198 100.667 8.67198C101.293 8.67198 101.79 8.83696 102.158 9.16442C102.526 9.49188 102.794 9.95432 102.964 10.5542C103.033 10.7942 103.086 11.0567 103.126 11.3416H99.9688C98.2311 11.3416 96.8853 11.7216 95.9268 12.479C94.9683 13.2364 94.4902 14.3663 94.4902 15.8636C94.4902 17.2309 94.9324 18.2883 95.8193 19.0382C96.7061 19.7881 97.9538 20.1605 99.5649 20.1605C101.176 20.1605 102.354 19.6281 103.043 18.5607C103.122 18.4383 103.196 18.3133 103.263 18.1808L103.325 20.1605H106.628L106.71 12.0441C106.726 10.6967 106.516 9.52937 106.078 8.54699H106.081ZM102.818 15.5136C102.55 15.9736 102.187 16.346 101.731 16.636C101.274 16.9259 100.75 17.0709 100.16 17.0709C99.5147 17.0709 99.0151 16.9534 98.6566 16.721C98.298 16.4885 98.1187 16.1635 98.1187 15.7511C98.1187 15.2262 98.3434 14.8187 98.7904 14.5287C99.2374 14.2388 100.043 14.0938 101.207 14.0938H103.222C103.222 14.5812 103.088 15.0537 102.818 15.5111V15.5136Z" fill="black"/>
<path d="M108.725 20.16V0.5H112.269V20.16H108.725Z" fill="black"/>
<path d="M120.596 20.1604C119.272 20.1604 118.099 19.8455 117.078 19.2205C116.057 18.5931 115.256 17.7282 114.673 16.6234C114.09 15.5185 113.801 14.2462 113.801 12.8038C113.801 11.3615 114.1 10.0892 114.7 8.98432C115.3 7.87946 116.122 7.01457 117.171 6.38715C118.218 5.75973 119.423 5.44727 120.783 5.44727C121.964 5.44727 123.051 5.76973 124.046 6.41714C125.04 7.06206 125.836 8.00945 126.436 9.25429C127.036 10.4991 127.335 12.0114 127.335 13.7912H117.157L117.479 13.4538C117.479 14.1462 117.644 14.7511 117.977 15.266C118.309 15.781 118.737 16.1734 119.265 16.4459C119.793 16.7184 120.362 16.8533 120.969 16.8533C121.703 16.8533 122.303 16.6909 122.769 16.3609C123.235 16.0334 123.592 15.6085 123.842 15.0836L127.012 16.3759C126.637 17.1633 126.147 17.8407 125.549 18.4131C124.949 18.9856 124.237 19.4205 123.415 19.718C122.59 20.0179 121.651 20.1679 120.594 20.1679L120.596 20.1604ZM117.668 11.369L117.346 11.0316H123.819L123.522 11.369C123.522 10.6941 123.369 10.1567 123.066 9.75423C122.762 9.35178 122.389 9.05681 121.952 8.86934C121.512 8.68186 121.089 8.58937 120.675 8.58937C120.262 8.58937 119.824 8.68436 119.358 8.86934C118.892 9.05681 118.495 9.35178 118.163 9.75423C117.831 10.1567 117.666 10.6941 117.666 11.369H117.668Z" fill="black"/>
<path d="M16.2916 20.5H15.8492C14.1018 20.5 13.4205 19.752 12.7593 19.0288C12.5933 18.8474 12.4249 18.661 12.2087 18.4498L12.1483 18.3877L3.48711 8.77535H6.90635C8.35952 8.77535 9.53614 7.61233 9.53614 6.17594V5.75845C9.53614 4.50348 8.50786 3.48708 7.23821 3.48708H3.02451V17.5104H6.74544C7.51728 17.5104 8.20867 18.0596 8.3017 18.8176C8.41232 19.7271 7.6983 20.5 6.80075 20.5H0V0.5H7.23821C10.1772 0.5 12.5581 2.85587 12.5581 5.76093V6.11382C12.5581 8.22117 11.3991 10.0626 9.69202 11.0194L14.4085 16.3598C14.66 16.6133 14.8611 16.8395 15.0245 17.0234C15.3162 17.3497 15.5944 17.5129 15.8592 17.5129H16.2891C16.6688 17.5129 16.9755 17.2097 16.9755 16.8345V5.19433C16.9755 4.68241 16.8523 3.48956 15.7159 3.48956H14.1697C13.3979 3.48956 12.7065 2.94036 12.6135 2.18241C12.5028 1.27286 13.2168 0.5 14.1144 0.5H15.7184C18.2401 0.5 20 2.43091 20 5.19433V16.8345C20 18.8598 18.3382 20.5 16.2916 20.5Z" fill="#003366"/>
</svg>
