<svg width="13" height="16" viewBox="0 0 13 16" fill="none" xmlns="http://www.w3.org/2000/svg">
<path fill-rule="evenodd" clip-rule="evenodd" d="M12.1364 5.57955L12.1364 5.57955C12.1193 5.54545 12.1023 5.51136 12.0682 5.47727L7.29545 0.704545C7.22727 0.636364 7.15909 0.568182 7.09091 0.568182C7.02273 0.5 6.88636 0.5 6.81818 0.5H2.04545C0.886364 0.5 0 1.38636 0 2.54545V13.4545C0 14.6136 0.886364 15.5 2.04545 15.5H10.2273C11.3864 15.5 12.2727 14.6136 12.2727 13.4545V5.95455C12.2727 5.88636 12.2727 5.75 12.2045 5.68182C12.1705 5.64773 12.1534 5.61364 12.1364 5.57955ZM7.5 2.81812L9.95454 5.27266H7.5V2.81812ZM2.04542 14.1363H10.2272C10.6363 14.1363 10.9091 13.8636 10.9091 13.4545V6.63632H6.81814C6.40905 6.63632 6.13632 6.3636 6.13632 5.95451V1.8636H2.04542C1.63632 1.8636 1.3636 2.13632 1.3636 2.54542V13.4545C1.3636 13.8636 1.63632 14.1363 2.04542 14.1363Z" fill="#160E83"/>
</svg>
