<svg width="100" height="25" viewBox="0 0 100 25" fill="none" xmlns="http://www.w3.org/2000/svg">
<g id="Group 1000003734">
<g id="Alighment left">
<circle id="Shape" cx="12" cy="12.4951" r="12" fill="white"/>
<rect id="Shape_2" x="27" y="0.495117" width="24" height="24" rx="2" fill="#F1F1F5"/>
<g id="Component/icon/alighment left">
<g id="iconspace_Allignment Left_25px">
<path id="Path" fill-rule="evenodd" clip-rule="evenodd" d="M11.9996 5.26682H4.18566C3.83355 5.26682 3.59961 5.00364 3.59961 4.68077C3.59961 4.35791 3.83355 4.09473 4.18566 4.09473H11.9996C12.3517 4.09473 12.5857 4.35791 12.5857 4.68077C12.5857 5.00364 12.3517 5.26682 11.9996 5.26682ZM19.8136 9.17307H4.18566C3.83355 9.17307 3.59961 8.90989 3.59961 8.58702C3.59961 8.26416 3.83355 8.00098 4.18566 8.00098H19.8136C20.1657 8.00098 20.3996 8.26416 20.3996 8.58702C20.3996 8.90989 20.1657 9.17307 19.8136 9.17307ZM4.18566 13.0813C3.83355 13.0813 3.59961 12.8181 3.59961 12.4952C3.59961 12.1724 3.83355 11.9092 4.18566 11.9092H11.9996C12.3517 11.9092 12.5857 12.1724 12.5857 12.4952C12.5857 12.8181 12.3517 13.0813 11.9996 13.0813H4.18566ZM19.8136 16.9878H4.18566C3.83355 16.9878 3.59961 16.7246 3.59961 16.4017C3.59961 16.0788 3.83355 15.8157 4.18566 15.8157H19.8136C20.1657 15.8157 20.3996 16.0788 20.3996 16.4017C20.3996 16.7246 20.1657 16.9878 19.8136 16.9878ZM11.9996 20.8938H4.18566C3.83355 20.8938 3.59961 20.6306 3.59961 20.3077C3.59961 19.9849 3.83355 19.7217 4.18566 19.7217H11.9996C12.3517 19.7217 12.5857 19.9849 12.5857 20.3077C12.5857 20.6306 12.3517 20.8938 11.9996 20.8938Z" fill="#92929D"/>
</g>
</g>
</g>
<g id="Component/icon/alighment center">
<g id="iconspace_Allignment Center_25px">
<path id="Path_2" fill-rule="evenodd" clip-rule="evenodd" d="M41.9076 5.27588H34.0938C33.7417 5.27588 33.5078 5.01286 33.5078 4.69019C33.5078 4.36751 33.7417 4.10449 34.0938 4.10449H41.9076C42.2597 4.10449 42.4936 4.36751 42.4936 4.69019C42.4936 5.01286 42.2597 5.27588 41.9076 5.27588ZM45.8141 9.18018H30.1866C29.8345 9.18018 29.6006 8.91715 29.6006 8.59448C29.6006 8.27181 29.8345 8.00879 30.1866 8.00879H45.8141C46.1662 8.00879 46.4001 8.27181 46.4001 8.59448C46.4001 8.91715 46.1662 9.18018 45.8141 9.18018ZM34.0938 13.0845C33.7417 13.0845 33.5078 12.8215 33.5078 12.4988C33.5078 12.1761 33.7417 11.9131 34.0938 11.9131H41.9076C42.2597 11.9131 42.4936 12.1761 42.4936 12.4988C42.4936 12.8215 42.2597 13.0845 41.9076 13.0845H34.0938ZM45.8141 16.9888H30.1866C29.8345 16.9888 29.6006 16.7257 29.6006 16.4031C29.6006 16.0804 29.8345 15.8174 30.1866 15.8174H45.8141C46.1662 15.8174 46.4001 16.0804 46.4001 16.4031C46.4001 16.7257 46.1662 16.9888 45.8141 16.9888ZM41.9076 20.895H34.0938C33.7417 20.895 33.5078 20.632 33.5078 20.3093C33.5078 19.9867 33.7417 19.7236 34.0938 19.7236H41.9076C42.2597 19.7236 42.4936 19.9867 42.4936 20.3093C42.4936 20.632 42.2597 20.895 41.9076 20.895Z" fill="#92929D"/>
</g>
</g>
<g id="Component/icon/alighment right">
<g id="iconspace_Allignment Right_25px">
<path id="Path_3" fill-rule="evenodd" clip-rule="evenodd" d="M61.9991 5.26682C61.647 5.26682 61.4131 5.00364 61.4131 4.68077C61.4131 4.35791 61.647 4.09473 61.9991 4.09473H69.8131C70.1652 4.09473 70.3991 4.35791 70.3991 4.68077C70.3991 5.00364 70.1652 5.26682 69.8131 5.26682H61.9991ZM54.1857 9.17307C53.8335 9.17307 53.5996 8.90989 53.5996 8.58702C53.5996 8.26416 53.8335 8.00098 54.1857 8.00098H69.8136C70.1657 8.00098 70.3996 8.26416 70.3996 8.58702C70.3996 8.90989 70.1657 9.17307 69.8136 9.17307H54.1857ZM69.8141 13.0813H62.0001C61.648 13.0813 61.4141 12.8181 61.4141 12.4952C61.4141 12.1724 61.648 11.9092 62.0001 11.9092H69.8141C70.1662 11.9092 70.4001 12.1724 70.4001 12.4952C70.4001 12.8181 70.1662 13.0813 69.8141 13.0813ZM54.1857 16.9878C53.8335 16.9878 53.5996 16.7246 53.5996 16.4017C53.5996 16.0788 53.8335 15.8157 54.1857 15.8157H69.8136C70.1657 15.8157 70.3996 16.0788 70.3996 16.4017C70.3996 16.7246 70.1657 16.9878 69.8136 16.9878H54.1857ZM62.0001 20.8938C61.648 20.8938 61.4141 20.6306 61.4141 20.3077C61.4141 19.9849 61.648 19.7217 62.0001 19.7217H69.8141C70.1662 19.7217 70.4001 19.9849 70.4001 20.3077C70.4001 20.6306 70.1662 20.8938 69.8141 20.8938H62.0001Z" fill="#92929D"/>
</g>
</g>
<g id="Justify left">
<circle id="Shape_3" cx="88" cy="12.4951" r="12" fill="white"/>
<g id="Component/icon/justify left">
<g id="iconspace_Allignment Justify Left_25px">
<path id="Path_4" fill-rule="evenodd" clip-rule="evenodd" d="M95.8145 5.28495H80.1895C79.8374 5.28495 79.6035 5.02209 79.6035 4.69961C79.6035 4.37712 79.8374 4.11426 80.1895 4.11426H95.8145C96.1665 4.11426 96.4004 4.37712 96.4004 4.69961C96.4004 5.02209 96.1665 5.28495 95.8145 5.28495ZM95.8145 9.18727H80.1895C79.8374 9.18728 79.6035 8.92441 79.6035 8.60193C79.6035 8.27945 79.8374 8.01658 80.1895 8.01658H95.8145C96.1665 8.01658 96.4004 8.27945 96.4004 8.60193C96.4004 8.92441 96.1665 9.18727 95.8145 9.18727ZM95.8145 13.0896H80.1895C79.8374 13.0896 79.6035 12.8267 79.6035 12.5042C79.6035 12.1818 79.8374 11.9189 80.1895 11.9189H95.8145C96.1665 11.9189 96.4004 12.1818 96.4004 12.5042C96.4004 12.8267 96.1665 13.0896 95.8145 13.0896ZM95.8145 16.9919H80.1895C79.8374 16.9919 79.6035 16.7291 79.6035 16.4066C79.6035 16.0841 79.8374 15.8212 80.1895 15.8212H95.8145C96.1665 15.8212 96.4004 16.0841 96.4004 16.4066C96.4004 16.7291 96.1665 16.9919 95.8145 16.9919ZM88.002 20.8942H80.1895C79.8374 20.8942 79.6035 20.6314 79.6035 20.3089C79.6035 19.9864 79.8374 19.7235 80.1895 19.7235H88.002C88.354 19.7235 88.5879 19.9864 88.5879 20.3089C88.5879 20.6314 88.354 20.8942 88.002 20.8942Z" fill="#92929D"/>
</g>
</g>
</g>
</g>
</svg>
