<svg width="23" height="21" viewBox="0 0 23 21" fill="none" xmlns="http://www.w3.org/2000/svg">
<path fill-rule="evenodd" clip-rule="evenodd" d="M18.3359 10.9375C18.3359 10.3375 18.7359 9.9375 19.3359 9.9375C19.9359 9.9375 20.3359 10.3375 20.3359 10.9375V17.9375C20.3359 19.6375 19.0359 20.9375 17.3359 20.9375H3.33594C1.63594 20.9375 0.335938 19.6375 0.335938 17.9375V3.9375C0.335938 2.2375 1.63594 0.9375 3.33594 0.9375H14.3359C14.9359 0.9375 15.3359 1.3375 15.3359 1.9375C15.3359 2.5375 14.9359 2.9375 14.3359 2.9375H3.33594C2.73594 2.9375 2.33594 3.3375 2.33594 3.9375V17.9375C2.33594 18.5375 2.73594 18.9375 3.33594 18.9375H17.3359C17.9359 18.9375 18.3359 18.5375 18.3359 17.9375V10.9375ZM11.0359 13.6375L22.0359 2.6375C22.4359 2.2375 22.4359 1.6375 22.0359 1.2375C21.6359 0.8375 21.0359 0.8375 20.6359 1.2375L10.3359 11.5375L8.03594 9.2375C7.63594 8.8375 7.03594 8.8375 6.63594 9.2375C6.23594 9.6375 6.23594 10.2375 6.63594 10.6375L9.63594 13.6375C9.83594 13.8375 10.0359 13.9375 10.3359 13.9375C10.6359 13.9375 10.8359 13.8375 11.0359 13.6375Z" fill="#276F06"/>
</svg>
