<svg width="23" height="21" viewBox="0 0 23 21" fill="none" xmlns="http://www.w3.org/2000/svg">
<path id="Mask" fill-rule="evenodd" clip-rule="evenodd" d="M18.1914 10.9375C18.1914 10.3375 18.5914 9.9375 19.1914 9.9375C19.7914 9.9375 20.1914 10.3375 20.1914 10.9375V17.9375C20.1914 19.6375 18.8914 20.9375 17.1914 20.9375H3.19141C1.49141 20.9375 0.191406 19.6375 0.191406 17.9375V3.9375C0.191406 2.2375 1.49141 0.9375 3.19141 0.9375H14.1914C14.7914 0.9375 15.1914 1.3375 15.1914 1.9375C15.1914 2.5375 14.7914 2.9375 14.1914 2.9375H3.19141C2.59141 2.9375 2.19141 3.3375 2.19141 3.9375V17.9375C2.19141 18.5375 2.59141 18.9375 3.19141 18.9375H17.1914C17.7914 18.9375 18.1914 18.5375 18.1914 17.9375V10.9375ZM10.8914 13.6375L21.8914 2.6375C22.2914 2.2375 22.2914 1.6375 21.8914 1.2375C21.4914 0.8375 20.8914 0.8375 20.4914 1.2375L10.1914 11.5375L7.89141 9.2375C7.49141 8.8375 6.89141 8.8375 6.49141 9.2375C6.09141 9.6375 6.09141 10.2375 6.49141 10.6375L9.49141 13.6375C9.69141 13.8375 9.89141 13.9375 10.1914 13.9375C10.4914 13.9375 10.6914 13.8375 10.8914 13.6375Z" fill="#276F06"/>
</svg>
