<svg width="27" height="24" viewBox="0 0 27 24" fill="none" xmlns="http://www.w3.org/2000/svg">
<path d="M25.7763 0.31304C25.3589 -0.104347 24.7328 -0.104347 24.3154 0.31304L20.872 3.75648L19.5155 2.39997C19.0981 1.98258 18.472 1.98258 18.0546 2.39997C17.6372 2.81736 17.6372 3.44344 18.0546 3.86082L20.1415 5.94775C20.3502 6.15645 20.6633 6.26079 20.872 6.26079C21.0807 6.26079 21.3937 6.15645 21.6024 5.94775L25.7763 1.77389C26.1937 1.35651 26.1937 0.730426 25.7763 0.31304Z" fill="#160E83"/>
<path fill-rule="evenodd" clip-rule="evenodd" d="M20.4547 8.57204L11.0622 1.27507C10.6448 0.962346 10.123 0.962346 9.80991 1.27507L0.417443 8.57204C0.104361 8.78052 0 9.09325 0 9.40597V20.8726C0 22.6447 1.35669 23.9999 3.13082 23.9999H17.7413C19.5155 23.9999 20.8722 22.6447 20.8722 20.8726V9.40597C20.8722 9.09325 20.7678 8.78052 20.4547 8.57204ZM12.5215 21.9116H8.34765V13.5734H12.5215V21.9116ZM17.739 21.9083C18.3652 21.9083 18.7826 21.4913 18.7826 20.8659V9.92054L10.4338 3.45756L2.08504 9.92054V20.8659C2.08504 21.4913 2.50248 21.9083 3.12864 21.9083H6.25944V12.5266C6.25944 11.9011 6.67688 11.4842 7.30304 11.4842H13.5646C14.1908 11.4842 14.6082 11.9011 14.6082 12.5266V21.9083H17.739Z" fill="#160E83"/>
</svg>
