<svg width="40" height="39" viewBox="0 0 40 39" fill="none" xmlns="http://www.w3.org/2000/svg">
<g id="Group 55">
<path id="Path 640" d="M25.686 13.4063H12.686V10.1563H25.686V13.4063ZM25.686 19.9063H12.686V16.6563H25.686V19.9063ZM15.936 36.1563H28.936C29.7972 36.1537 30.6223 35.8105 31.2313 35.2015C31.8402 34.5926 32.1835 33.7674 32.186 32.9063V6.90625C32.186 6.04711 31.8459 5.22288 31.2399 4.61385C30.6339 4.00483 29.8114 3.66055 28.9523 3.65625H9.43603C8.57487 3.65882 7.74971 4.00204 7.14078 4.61098C6.53184 5.21991 6.18861 6.04509 6.18604 6.90625V26.4063L15.936 36.1563ZM9.43603 6.90625H28.936V32.9063H17.561V24.7813H9.43603V6.90625Z" fill="#160E83"/>
</g>
</svg>
