<svg xmlns="http://www.w3.org/2000/svg" width="26" height="27" viewBox="0 0 26 27" fill="none">
    <path d="M12.8141 14.4746C13.3538 14.4746 13.7913 14.0269 13.7913 13.4746C13.7913 12.9223 13.3538 12.4746 12.8141 12.4746C12.2744 12.4746 11.8369 12.9223 11.8369 13.4746C11.8369 14.0269 12.2744 14.4746 12.8141 14.4746Z" stroke="black" stroke-miterlimit="10"/>
    <path d="M12.8141 19.4746C13.3538 19.4746 13.7913 19.0269 13.7913 18.4746C13.7913 17.9223 13.3538 17.4746 12.8141 17.4746C12.2744 17.4746 11.8369 17.9223 11.8369 18.4746C11.8369 19.0269 12.2744 19.4746 12.8141 19.4746Z" stroke="black" stroke-miterlimit="10"/>
    <path d="M12.8141 9.47461C13.3538 9.47461 13.7913 9.02689 13.7913 8.47461C13.7913 7.92232 13.3538 7.47461 12.8141 7.47461C12.2744 7.47461 11.8369 7.92232 11.8369 8.47461C11.8369 9.02689 12.2744 9.47461 12.8141 9.47461Z" stroke="black" stroke-miterlimit="10"/>
</svg>