<svg width="200" height="240" viewBox="0 0 200 240" fill="none" xmlns="http://www.w3.org/2000/svg">
<g opacity="0.3">
<path opacity="0.3" d="M140.1 49.25C134.633 49.2447 129.391 47.0704 125.525 43.2046C121.66 39.3387 119.485 34.097 119.48 28.6299V0H27.3401C20.2031 0 13.3584 2.83523 8.31177 7.88184C3.26516 12.9284 0.429932 19.7729 0.429932 26.9099V189.13C0.429932 196.267 3.26516 203.112 8.31177 208.158C13.3584 213.205 20.2031 216.04 27.3401 216.04H137.94C145.077 216.04 151.922 213.205 156.968 208.158C162.015 203.112 164.85 196.267 164.85 189.13V49.25H140.1Z" fill="#00C650"/>
</g>
<path d="M164.85 49.25H140.1C134.633 49.2447 129.391 47.0704 125.525 43.2046C121.66 39.3387 119.485 34.097 119.48 28.6299V0L164.85 49.25Z" fill="#00C650"/>
<path d="M183.37 170.61H58.3301C49.4604 170.61 42.27 177.8 42.27 186.67V223.95C42.27 232.82 49.4604 240.01 58.3301 240.01H183.37C192.24 240.01 199.43 232.82 199.43 223.95V186.67C199.43 177.8 192.24 170.61 183.37 170.61Z" fill="#00C650"/>
<path d="M86.8601 213.38V220.65H79.3301V213.38H86.8601Z" fill="white"/>
<path d="M108.89 220.65L102.56 211.29L97.1101 220.65H88.78L98.3899 205.17L88.48 190.58H97.1101L103.28 199.64L108.6 190.58H116.89L107.41 205.72L117.53 220.65H108.89Z" fill="white"/>
<path d="M166.73 216.57C165.867 217.951 164.629 219.057 163.16 219.76C161.372 220.597 159.413 221.005 157.44 220.95C154.463 221.075 151.529 220.206 149.1 218.48C148.026 217.673 147.147 216.635 146.529 215.443C145.911 214.25 145.569 212.933 145.53 211.59H153.27C153.325 212.603 153.757 213.559 154.48 214.27C155.2 214.941 156.156 215.301 157.14 215.27C157.541 215.293 157.943 215.238 158.322 215.105C158.701 214.973 159.051 214.767 159.35 214.5C159.617 214.241 159.827 213.93 159.966 213.585C160.106 213.241 160.172 212.871 160.16 212.5C160.17 212.147 160.109 211.797 159.98 211.468C159.851 211.14 159.657 210.842 159.41 210.59C158.881 210.054 158.252 209.626 157.56 209.33C156.833 209.01 155.813 208.62 154.5 208.16C152.906 207.634 151.35 207.003 149.84 206.27C148.6 205.631 147.535 204.697 146.74 203.55C145.817 202.162 145.362 200.515 145.44 198.85C145.404 197.2 145.879 195.579 146.8 194.21C147.746 192.872 149.054 191.831 150.57 191.21C152.318 190.499 154.194 190.159 156.08 190.21C158.944 190.052 161.773 190.897 164.08 192.6C165.062 193.399 165.867 194.394 166.442 195.522C167.017 196.65 167.35 197.886 167.42 199.15H159.55C159.462 198.265 159.082 197.435 158.47 196.79C158.157 196.49 157.787 196.258 157.381 196.106C156.975 195.955 156.543 195.888 156.11 195.91C155.36 195.876 154.624 196.118 154.04 196.59C153.771 196.845 153.561 197.157 153.426 197.503C153.291 197.848 153.235 198.22 153.26 198.59C153.245 199.262 153.496 199.913 153.96 200.4C154.458 200.919 155.057 201.332 155.72 201.61C156.43 201.92 157.45 202.32 158.78 202.8C160.403 203.329 161.984 203.977 163.51 204.74C164.757 205.412 165.831 206.364 166.65 207.52C167.583 208.93 168.045 210.6 167.97 212.29C167.957 213.803 167.528 215.284 166.73 216.57Z" fill="white"/>
<path d="M131.26 215.08H141V220.65H124V190.58H131.28L131.26 215.08Z" fill="white"/>
<path d="M119.32 150.84H46C39.65 150.84 34.48 144.52 34.48 136.74V83.55C34.48 75.78 39.65 69.46 46 69.46H119.35C125.69 69.46 130.86 75.78 130.86 83.55V136.74C130.83 144.52 125.66 150.84 119.32 150.84ZM46 76.6599C42.89 76.6599 40.3701 79.75 40.3701 83.55V136.74C40.3701 140.54 42.89 143.63 46 143.63H119.35C122.45 143.63 124.97 140.54 124.97 136.74V83.55C124.97 79.75 122.45 76.6599 119.35 76.6599H46Z" fill="#00C650"/>
<path d="M127.89 118.81H37.3999V126.02H127.89V118.81Z" fill="#00C650"/>
<path d="M127.89 94.09H37.3999V101.3H127.89V94.09Z" fill="#00C650"/>
<path d="M104.71 73.06H97.5V147.23H104.71V73.06Z" fill="#00C650"/>
<path d="M67.78 73.06H60.5701V147.23H67.78V73.06Z" fill="#00C650"/>
</svg>
