<svg width="26" height="25" viewBox="0 0 26 25" fill="none" xmlns="http://www.w3.org/2000/svg">
<path d="M14.2637 22.8672H11.2637" stroke="#3FC6EB" stroke-width="1.5" stroke-linecap="round" stroke-linejoin="round"/>
<path d="M15.2637 20.9492H10.2637" stroke="#3FC6EB" stroke-width="1.5" stroke-linecap="round" stroke-linejoin="round"/>
<path d="M12.7637 0.789062V3.66906" stroke="#3FC6EB" stroke-width="1.5" stroke-linecap="round" stroke-linejoin="round"/>
<path d="M4.27734 4.16406L6.39934 6.20022" stroke="#3FC6EB" stroke-width="1.5" stroke-linecap="round" stroke-linejoin="round"/>
<path d="M21.2489 4.16406L19.1279 6.20022" stroke="#3FC6EB" stroke-width="1.5" stroke-linecap="round" stroke-linejoin="round"/>
<path d="M1.26367 12.3086H4.26367" stroke="#3FC6EB" stroke-width="1.5" stroke-linecap="round" stroke-linejoin="round"/>
<path d="M24.2637 12.3086H21.2637" stroke="#3FC6EB" stroke-width="1.5" stroke-linecap="round" stroke-linejoin="round"/>
<path fill-rule="evenodd" clip-rule="evenodd" d="M18.7633 12.3099C18.7664 9.57506 16.7659 7.21515 13.9759 6.66241C11.1859 6.10968 8.37572 7.51652 7.25083 10.0291C6.12594 12.5417 6.99654 15.4673 9.33426 17.0302C9.60303 17.2097 9.76327 17.5041 9.76326 17.8184V18.5499C9.76326 18.815 9.98711 19.0299 10.2633 19.0299H15.2633C15.5394 19.0299 15.7633 18.815 15.7633 18.5499V17.8174C15.7632 17.5031 15.9235 17.2087 16.1923 17.0292C17.8035 15.956 18.7642 14.1926 18.7633 12.3099V12.3099Z" stroke="#3FC6EB" stroke-width="1.5" stroke-linecap="round" stroke-linejoin="round"/>
</svg>
