<svg width="27" height="13" viewBox="0 0 27 13" fill="none" xmlns="http://www.w3.org/2000/svg">
<rect x="0.0476074" width="26" height="13" rx="3" fill="#701B45"/>
<rect x="8.04761" width="9" height="13" fill="white"/>
<path d="M7.54839 4.25447H3.18359V6.04647H6.66519V7.74887H3.18359V11.0001H0.981995V2.55207H7.54839V4.25447Z" fill="white"/>
<path d="M16.3075 8.58087C16.1454 9.16967 15.8851 9.65607 15.5267 10.0401C15.1683 10.4155 14.7416 10.6929 14.2467 10.8721C13.7518 11.0427 13.2056 11.1281 12.6083 11.1281C11.755 11.1281 11.0168 10.9574 10.3939 10.6161C9.77096 10.2662 9.29309 9.76701 8.96029 9.11847C8.62749 8.46994 8.46109 7.68914 8.46109 6.77607C8.46109 5.86301 8.62749 5.08221 8.96029 4.43367C9.29309 3.78514 9.77096 3.29021 10.3939 2.94887C11.0168 2.59901 11.7507 2.42407 12.5955 2.42407C13.1843 2.42407 13.7262 2.50941 14.2211 2.68007C14.716 2.84221 15.1342 3.09394 15.4755 3.43527C15.8168 3.77661 16.06 4.21607 16.2051 4.75367L14.2723 5.53447C14.1528 5.00541 13.9566 4.64274 13.6835 4.44647C13.419 4.25021 13.0819 4.15207 12.6723 4.15207C12.2712 4.15207 11.9214 4.25021 11.6227 4.44647C11.3326 4.64274 11.1064 4.93714 10.9443 5.32967C10.7907 5.71367 10.7139 6.19581 10.7139 6.77607C10.7139 7.34781 10.7864 7.82994 10.9315 8.22247C11.0766 8.61501 11.2942 8.90941 11.5843 9.10567C11.883 9.30194 12.2499 9.40007 12.6851 9.40007C13.0947 9.40007 13.4403 9.28914 13.7219 9.06727C14.012 8.83687 14.2083 8.48701 14.3107 8.01767L16.3075 8.58087Z" fill="#701B45"/>
<path d="M25.212 11.0001H22.9464L22.3576 9.09287H19.4648L18.8632 11.0001H16.6488L19.6184 2.55207H22.2552L25.212 11.0001ZM19.8744 7.59527H21.948L20.9112 4.17767L19.8744 7.59527Z" fill="white"/>
</svg>
