<svg width="34" height="30" viewBox="0 0 34 30" fill="none" xmlns="http://www.w3.org/2000/svg">
<path id="Mask" fill-rule="evenodd" clip-rule="evenodd" d="M16.0859 4.5H28.8359C31.3859 4.5 33.3359 6.45 33.3359 9V25.5C33.3359 28.05 31.3859 30 28.8359 30H4.83594C2.28594 30 0.335938 28.05 0.335938 25.5V4.5C0.335938 1.95 2.28594 0 4.83594 0H12.3359C12.7859 0 13.2359 0.3 13.5359 0.6L16.0859 4.5ZM28.8359 27C29.7359 27 30.3359 26.4 30.3359 25.5V9C30.3359 8.1 29.7359 7.5 28.8359 7.5H15.3359C14.8859 7.5 14.4359 7.2 14.1359 6.9L11.5859 3H4.83594C3.93594 3 3.33594 3.6 3.33594 4.5V25.5C3.33594 26.4 3.93594 27 4.83594 27H28.8359Z" fill="#160E83"/>
</svg>
