<svg width="33" height="33" viewBox="0 0 33 33" fill="none" xmlns="http://www.w3.org/2000/svg">
<rect x="2.03613" y="2.40039" width="28.5068" height="28" rx="14" fill="#1275B1"/>
<path d="M12.8471 10.0925C12.8471 11.0271 12.0224 11.7847 11.0051 11.7847C9.98779 11.7847 9.16309 11.0271 9.16309 10.0925C9.16309 9.15799 9.98779 8.40039 11.0051 8.40039C12.0224 8.40039 12.8471 9.15799 12.8471 10.0925Z" fill="white"/>
<path d="M9.41499 13.0285H12.5637V22.4004H9.41499V13.0285Z" fill="white"/>
<path d="M17.6333 13.0285H14.4845V22.4004H17.6333C17.6333 22.4004 17.6333 19.45 17.6333 17.6052C17.6333 16.498 18.0182 15.3859 19.554 15.3859C21.2897 15.3859 21.2792 16.8349 21.2711 17.9575C21.2606 19.4248 21.2858 20.9222 21.2858 22.4004H24.4346V17.4541C24.4079 14.2958 23.57 12.8405 20.8135 12.8405C19.1765 12.8405 18.1618 13.5705 17.6333 14.2309V13.0285Z" fill="white"/>
</svg>
