<svg width="33" height="33" viewBox="0 0 33 33" fill="none" xmlns="http://www.w3.org/2000/svg">
<rect x="2.03613" y="2.59961" width="28.5068" height="28" rx="6" fill="url(#paint0_radial_826_199414)"/>
<rect x="2.03613" y="2.59961" width="28.5068" height="28" rx="6" fill="url(#paint1_radial_826_199414)"/>
<rect x="2.03613" y="2.59961" width="28.5068" height="28" rx="6" fill="url(#paint2_radial_826_199414)"/>
<path d="M23.4161 11.0996C23.4161 11.928 22.7324 12.5996 21.8889 12.5996C21.0455 12.5996 20.3618 11.928 20.3618 11.0996C20.3618 10.2712 21.0455 9.59961 21.8889 9.59961C22.7324 9.59961 23.4161 10.2712 23.4161 11.0996Z" fill="white"/>
<path fill-rule="evenodd" clip-rule="evenodd" d="M16.2894 21.5996C19.1008 21.5996 21.3799 19.361 21.3799 16.5996C21.3799 13.8382 19.1008 11.5996 16.2894 11.5996C13.478 11.5996 11.1989 13.8382 11.1989 16.5996C11.1989 19.361 13.478 21.5996 16.2894 21.5996ZM16.2894 19.5996C17.9762 19.5996 19.3437 18.2565 19.3437 16.5996C19.3437 14.9428 17.9762 13.5996 16.2894 13.5996C14.6026 13.5996 13.2351 14.9428 13.2351 16.5996C13.2351 18.2565 14.6026 19.5996 16.2894 19.5996Z" fill="white"/>
<path fill-rule="evenodd" clip-rule="evenodd" d="M6.1084 16.1996C6.1084 12.8393 6.1084 11.1591 6.7742 9.87567C7.35985 8.74669 8.29434 7.82881 9.44375 7.25357C10.7505 6.59961 12.461 6.59961 15.8822 6.59961H16.6966C20.1178 6.59961 21.8283 6.59961 23.135 7.25357C24.2844 7.82881 25.2189 8.74669 25.8046 9.87567C26.4704 11.1591 26.4704 12.8393 26.4704 16.1996V16.9996C26.4704 20.3599 26.4704 22.0401 25.8046 23.3236C25.2189 24.4525 24.2844 25.3704 23.135 25.9456C21.8283 26.5996 20.1178 26.5996 16.6966 26.5996H15.8822C12.461 26.5996 10.7505 26.5996 9.44375 25.9456C8.29434 25.3704 7.35985 24.4525 6.7742 23.3236C6.1084 22.0401 6.1084 20.3599 6.1084 16.9996V16.1996ZM15.8822 8.59961H16.6966C18.4408 8.59961 19.6265 8.60116 20.5429 8.67471C21.4356 8.74635 21.8922 8.8762 22.2106 9.03558C22.9769 9.41908 23.5999 10.031 23.9903 10.7836C24.1526 11.0964 24.2848 11.5449 24.3577 12.4217C24.4326 13.3219 24.4342 14.4865 24.4342 16.1996V16.9996C24.4342 18.7128 24.4326 19.8774 24.3577 20.7775C24.2848 21.6544 24.1526 22.1028 23.9903 22.4156C23.5999 23.1682 22.9769 23.7801 22.2106 24.1636C21.8922 24.323 21.4356 24.4529 20.5429 24.5245C19.6265 24.5981 18.4408 24.5996 16.6966 24.5996H15.8822C14.138 24.5996 12.9523 24.5981 12.0359 24.5245C11.1431 24.4529 10.6866 24.323 10.3682 24.1636C9.60189 23.7801 8.9789 23.1682 8.58846 22.4156C8.4262 22.1028 8.294 21.6544 8.22106 20.7775C8.14618 19.8774 8.1446 18.7128 8.1446 16.9996V16.1996C8.1446 14.4865 8.14618 13.3219 8.22106 12.4217C8.294 11.5449 8.4262 11.0964 8.58846 10.7836C8.9789 10.031 9.60189 9.41908 10.3682 9.03558C10.6866 8.8762 11.1431 8.74635 12.0359 8.67471C12.9523 8.60116 14.138 8.59961 15.8822 8.59961Z" fill="white"/>
<defs>
<radialGradient id="paint0_radial_826_199414" cx="0" cy="0" r="1" gradientUnits="userSpaceOnUse" gradientTransform="translate(12.2171 23.5996) rotate(-54.8938) scale(25.6696 25.8296)">
<stop stop-color="#B13589"/>
<stop offset="0.79309" stop-color="#C62F94"/>
<stop offset="1" stop-color="#8A3AC8"/>
</radialGradient>
<radialGradient id="paint1_radial_826_199414" cx="0" cy="0" r="1" gradientUnits="userSpaceOnUse" gradientTransform="translate(11.199 31.5996) rotate(-64.742) scale(22.6671 22.9293)">
<stop stop-color="#E0E8B7"/>
<stop offset="0.444662" stop-color="#FB8A2E"/>
<stop offset="0.71474" stop-color="#E2425C"/>
<stop offset="1" stop-color="#E2425C" stop-opacity="0"/>
</radialGradient>
<radialGradient id="paint2_radial_826_199414" cx="0" cy="0" r="1" gradientUnits="userSpaceOnUse" gradientTransform="translate(0.508985 3.59961) rotate(-7.98745) scale(39.5808 8.32129)">
<stop offset="0.156701" stop-color="#406ADC"/>
<stop offset="0.467799" stop-color="#6A45BE"/>
<stop offset="1" stop-color="#6A45BE" stop-opacity="0"/>
</radialGradient>
</defs>
</svg>
