<svg width="33" height="33" viewBox="0 0 33 33" fill="none" xmlns="http://www.w3.org/2000/svg">
<path d="M12.002 28.1992C8.70846 28.1992 5.63831 27.2583 3.0542 25.6348C5.2482 25.7743 9.12011 25.4403 11.5284 23.184C7.90552 23.0207 6.27166 20.2915 6.05855 19.1252C6.36638 19.2418 7.83448 19.3818 8.66325 19.0552C4.49572 18.0288 3.85639 14.4365 3.99846 13.3402C4.77987 13.8767 6.10591 14.0633 6.62685 14.0167C2.74347 11.2875 4.14054 7.18198 4.82723 6.29557C7.61409 10.0879 11.7907 12.2178 16.9578 12.3363C16.8603 11.9166 16.8089 11.4796 16.8089 11.0309C16.8089 7.81013 19.4593 5.19922 22.7287 5.19922C24.4369 5.19922 25.9761 5.91197 27.0566 7.05206C28.1981 6.78932 29.916 6.17429 30.7559 5.64242C30.3326 7.13532 29.0147 8.38071 28.2174 8.8423C28.211 8.82652 28.2241 8.858 28.2174 8.8423C28.9177 8.73825 30.8125 8.38059 31.561 7.88177C31.1908 8.72047 29.7936 10.1149 28.6469 10.8956C28.8602 20.1373 21.6615 28.1992 12.002 28.1992Z" fill="#47ACDF"/>
</svg>
