<svg xmlns="http://www.w3.org/2000/svg" width="15" height="13" viewBox="0 0 15 13" fill="none">
    <path fill-rule="evenodd" clip-rule="evenodd" d="M2.62773 0.382031L7.62773 5.38203C8.02773 5.78203 8.02773 6.38203 7.62773 6.78203L2.62773 11.782C2.42773 11.982 2.22773 12.082 1.92773 12.082C1.62773 12.082 1.42773 11.982 1.22773 11.782C0.827734 11.382 0.827734 10.782 1.22773 10.382L5.52773 6.08203L1.22773 1.78203C0.827734 1.38203 0.827734 0.782031 1.22773 0.382031C1.62773 -0.0179688 2.22773 -0.0179688 2.62773 0.382031ZM9.62773 11.782L14.6277 6.78203C15.0277 6.38203 15.0277 5.78203 14.6277 5.38203L9.62773 0.382031C9.22773 -0.0179688 8.62773 -0.0179688 8.22773 0.382031C7.82773 0.782031 7.82773 1.38203 8.22773 1.78203L12.5277 6.08203L8.22773 10.382C7.82773 10.782 7.82773 11.382 8.22773 11.782C8.42773 11.982 8.62773 12.082 8.92773 12.082C9.22773 12.082 9.42773 11.982 9.62773 11.782Z" fill="white"/>
</svg>