<svg xmlns="http://www.w3.org/2000/svg" width="15" height="15" viewBox="0 0 15 15" fill="none">
    <g clip-path="url(#clip0_271_43924)">
        <path d="M1.97711 9.10441L1.23822 12.2933C1.21273 12.4099 1.2136 12.5307 1.24077 12.6469C1.26795 12.763 1.32073 12.8717 1.39527 12.9649C1.46982 13.0581 1.56423 13.1334 1.67162 13.1854C1.77902 13.2374 1.89667 13.2648 2.01599 13.2655C2.07159 13.2711 2.12762 13.2711 2.18322 13.2655L5.39155 12.5266L11.5515 6.38996L8.11377 2.95996L1.97711 9.10441Z" fill="white"/>
        <path d="M13.4878 3.31785L11.1933 1.0234C11.0425 0.873316 10.8384 0.789062 10.6256 0.789062C10.4128 0.789063 10.2086 0.873316 10.0578 1.0234L8.78223 2.29896L12.2161 5.73285L13.4917 4.45729C13.5663 4.38227 13.6254 4.29326 13.6656 4.19536C13.7059 4.09746 13.7264 3.9926 13.726 3.88676C13.7256 3.78093 13.7044 3.6762 13.6635 3.57858C13.6227 3.48096 13.5629 3.39236 13.4878 3.31785Z" fill="white"/>
    </g>
    <defs>
        <clipPath id="clip0_271_43924">
            <rect width="14" height="14" fill="white" transform="translate(0.335938 0.0820312)"/>
        </clipPath>
    </defs>
</svg>