<svg width="21" height="21" viewBox="0 0 21 21" fill="none" xmlns="http://www.w3.org/2000/svg">
<path fill-rule="evenodd" clip-rule="evenodd" d="M17.3359 0.9375H3.33594C1.63594 0.9375 0.335938 2.2375 0.335938 3.9375V17.9375C0.335938 19.6375 1.63594 20.9375 3.33594 20.9375H17.3359C19.0359 20.9375 20.3359 19.6375 20.3359 17.9375V3.9375C20.3359 2.2375 19.0359 0.9375 17.3359 0.9375ZM18.3359 17.9375C18.3359 18.5375 17.9359 18.9375 17.3359 18.9375H3.33594C2.73594 18.9375 2.33594 18.5375 2.33594 17.9375V3.9375C2.33594 3.3375 2.73594 2.9375 3.33594 2.9375H17.3359C17.9359 2.9375 18.3359 3.3375 18.3359 3.9375V17.9375ZM14.3359 11.9375C14.9359 11.9375 15.3359 11.5375 15.3359 10.9375C15.3359 10.3375 14.9359 9.9375 14.3359 9.9375H6.33594C5.73594 9.9375 5.33594 10.3375 5.33594 10.9375C5.33594 11.5375 5.73594 11.9375 6.33594 11.9375H14.3359Z" fill="#FC9011"/>
</svg>
