<svg xmlns="http://www.w3.org/2000/svg" width="26" height="22" viewBox="0 0 26 22" fill="none">
    <path fill-rule="evenodd" clip-rule="evenodd" d="M4.50072 5.5C4.50072 2.42 6.79132 0 9.70663 0C12.6219 0 14.9125 2.42 14.9125 5.5C14.9125 8.58 12.6219 11 9.70663 11C6.79132 11 4.50072 8.58 4.50072 5.5ZM19.0772 18.7001V20.9001C19.0772 21.5601 18.6607 22.0001 18.036 22.0001C17.4113 22.0001 16.9949 21.5601 16.9949 20.9001V18.7001C16.9949 16.8301 15.6413 15.4001 13.8713 15.4001H5.54185C3.77184 15.4001 2.4183 16.8301 2.4183 18.7001V20.9001C2.4183 21.5601 2.00183 22.0001 1.37712 22.0001C0.75241 22.0001 0.335938 21.5601 0.335938 20.9001V18.7001C0.335938 15.6201 2.62654 13.2001 5.54185 13.2001H13.8713C16.7866 13.2001 19.0772 15.6201 19.0772 18.7001ZM9.70666 8.8001C7.93665 8.8001 6.58311 7.3701 6.58311 5.5001C6.58311 3.6301 7.93665 2.2001 9.70666 2.2001C11.4767 2.2001 12.8302 3.6301 12.8302 5.5001C12.8302 7.3701 11.4767 8.8001 9.70666 8.8001ZM21.3678 13.4197C20.8472 13.3097 20.2225 13.6397 20.1183 14.1897C20.0142 14.7397 20.3266 15.3997 20.8472 15.5097C22.2007 15.8397 23.1378 17.1597 23.1378 18.6997V20.8997C23.1378 21.5597 23.5542 21.9997 24.179 21.9997C24.8037 21.9997 25.2201 21.5597 25.2201 20.8997V18.6997C25.3243 16.1697 23.7625 13.9697 21.3678 13.4197ZM15.9537 0.990219C16.1619 0.330219 16.6825 0.000218687 17.2031 0.220219C20.0143 0.880219 21.6802 3.96022 20.9514 7.04022C20.5349 9.02022 19.0772 10.4502 17.2031 11.0002H16.9949C16.4743 11.0002 16.0578 10.6702 15.9537 10.1202C15.7455 9.57022 16.1619 8.91022 16.6825 8.80022C17.8278 8.47022 18.6608 7.59022 18.9731 6.38022C19.3896 4.51022 18.3484 2.75022 16.6825 2.31022C16.1619 2.20022 15.8496 1.54022 15.9537 0.990219Z" fill="#767676"/>
</svg>