<svg width="21" height="20" viewBox="0 0 21 20" fill="none" xmlns="http://www.w3.org/2000/svg">
<g id="phone 1">
<g id="x32 7 Phone">
<path id="Vector" d="M16.6395 13.3375L14.6149 11.923C14.3502 11.7384 14.0408 11.6411 13.7199 11.6411C13.2096 11.6411 12.7306 11.8913 12.4389 12.31L11.9689 12.9835C11.1813 12.4553 10.3023 11.7177 9.46449 10.8799C8.62678 10.0422 7.88932 9.16333 7.36122 8.37567L8.03444 7.9057C8.37761 7.66675 8.60679 7.30878 8.67958 6.89801C8.75221 6.48755 8.66066 6.07281 8.4214 5.72949L7.00721 3.70496C6.7115 3.28198 6.23436 3.0293 5.73066 3.0293C5.5561 3.0293 5.3849 3.06012 5.22194 3.12024C5.03685 3.1886 4.86442 3.27252 4.69535 3.37872L4.41581 3.57556C4.34593 3.62988 4.28093 3.68939 4.21867 3.75165C3.87764 4.09253 3.63563 4.52405 3.49907 5.0343C2.91633 7.21875 4.35997 10.522 7.09129 13.2533C9.38499 15.547 12.1406 16.9719 14.2825 16.9722H14.2826C14.6494 16.9722 14.9952 16.9294 15.3104 16.8452C15.8207 16.7088 16.2522 16.4668 16.5934 16.1256C16.6553 16.0637 16.7146 15.9987 16.778 15.9166L16.975 15.6355C17.0713 15.4817 17.1551 15.3093 17.2243 15.1228C17.4625 14.4789 17.2221 13.7446 16.6395 13.3375Z" fill="#160E83"/>
</g>
</g>
</svg>
