<svg width="27" height="27" viewBox="0 0 27 27" fill="none" xmlns="http://www.w3.org/2000/svg">
<g id="Group 288">
<path id="Rectangle 7" opacity="0.1" d="M19.5219 0.109375H7.96636C3.97764 0.109375 0.744141 3.34287 0.744141 7.3316V18.8872C0.744141 22.8759 3.97764 26.1094 7.96636 26.1094H19.5219C23.5106 26.1094 26.7441 22.8759 26.7441 18.8872V7.3316C26.7441 3.34287 23.5106 0.109375 19.5219 0.109375Z" fill="#160E83"/>
<path id="reader" d="M17.3529 6.60938H10.8529C10.3606 6.60995 9.88868 6.80576 9.54058 7.15386C9.19248 7.50196 8.99667 7.97392 8.99609 8.46621V17.7525C8.99667 18.2448 9.19248 18.7168 9.54058 19.0649C9.88868 19.413 10.3606 19.6088 10.8529 19.6094H17.3529C17.8452 19.6088 18.3172 19.413 18.6653 19.0649C19.0134 18.7168 19.2092 18.2448 19.2098 17.7525V8.46621C19.2092 7.97392 19.0134 7.50196 18.6653 7.15386C18.3172 6.80576 17.8452 6.60995 17.3529 6.60938ZM14.1029 14.5025H11.7817C11.6585 14.5025 11.5404 14.4536 11.4533 14.3665C11.3662 14.2794 11.3173 14.1613 11.3173 14.0382C11.3173 13.915 11.3662 13.7969 11.4533 13.7098C11.5404 13.6227 11.6585 13.5738 11.7817 13.5738H14.1029C14.2261 13.5738 14.3442 13.6227 14.4313 13.7098C14.5184 13.7969 14.5673 13.915 14.5673 14.0382C14.5673 14.1613 14.5184 14.2794 14.4313 14.3665C14.3442 14.4536 14.2261 14.5025 14.1029 14.5025ZM16.4242 12.1813H11.7817C11.6585 12.1813 11.5404 12.1324 11.4533 12.0453C11.3662 11.9582 11.3173 11.8401 11.3173 11.7169C11.3173 11.5938 11.3662 11.4756 11.4533 11.3886C11.5404 11.3015 11.6585 11.2525 11.7817 11.2525H16.4249C16.548 11.2525 16.6662 11.3015 16.7532 11.3886C16.8403 11.4756 16.8893 11.5938 16.8893 11.7169C16.8893 11.8401 16.8403 11.9582 16.7532 12.0453C16.6662 12.1324 16.548 12.1813 16.4249 12.1813H16.4242ZM16.4242 9.8601H11.7817C11.6585 9.8601 11.5404 9.81117 11.4533 9.72408C11.3662 9.63699 11.3173 9.51887 11.3173 9.39571C11.3173 9.27255 11.3662 9.15443 11.4533 9.06734C11.5404 8.98025 11.6585 8.93132 11.7817 8.93132H16.4249C16.548 8.93132 16.6662 8.98025 16.7532 9.06734C16.8403 9.15443 16.8893 9.27255 16.8893 9.39571C16.8893 9.51887 16.8403 9.63699 16.7532 9.72408C16.6662 9.81117 16.548 9.8601 16.4249 9.8601H16.4242Z" fill="#160E83"/>
</g>
</svg>
