<svg xmlns="http://www.w3.org/2000/svg" width="36" height="36" viewBox="0 0 36 36" fill="none">
    <circle cx="18.0391" cy="18.3857" r="17.5" fill="#384455"/>
    <path fill-rule="evenodd" clip-rule="evenodd" d="M12.6716 25.8798C10.4882 25.9615 8.6496 24.2628 8.55865 22.0797L8.55859 18.1288C8.6496 15.9458 10.4882 14.2471 12.6716 14.3288H13.4905C13.7953 14.3048 14.0878 14.4538 14.2476 14.7145C14.4074 14.9752 14.4074 15.3034 14.2476 15.5641C14.0879 15.8248 13.7953 15.9738 13.4905 15.9498H12.6716C11.4215 15.9024 10.3681 16.874 10.3145 18.1238L10.3146 22.0858C10.3687 23.3354 11.4215 24.307 12.6715 24.2607L22.4386 24.2608C23.6886 24.307 24.7415 23.3354 24.7956 22.0857V18.1268C24.7421 16.8819 23.6929 15.914 22.4476 15.9608H21.6205C21.3157 15.9848 21.0233 15.8358 20.8635 15.5751C20.7037 15.3144 20.7037 14.9862 20.8635 14.7255C21.0232 14.4648 21.3157 14.3158 21.6205 14.3398H22.4476C24.6227 14.2608 26.4539 15.9522 26.5475 18.1268V22.0858C26.4566 24.2687 24.618 25.9674 22.4346 25.8857L12.6716 25.8798ZM16.6786 20.2098V11.6098L15.6206 12.5918C15.2635 12.8987 14.7358 12.8987 14.3787 12.5918C14.2148 12.4467 14.121 12.2383 14.121 12.0194C14.121 11.8004 14.2148 11.592 14.3786 11.4468L16.9376 9.0748C17.2998 8.77975 17.8195 8.77975 18.1816 9.0748L20.7416 11.4468C20.9046 11.5925 20.9977 11.8008 20.9977 12.0193C20.9977 12.2379 20.9046 12.4461 20.7416 12.5918C20.3881 12.9084 19.8531 12.9084 19.4996 12.5918L18.4396 11.6098V20.2098H16.6786Z" fill="white"/>
</svg>