<svg width="21" height="15" viewBox="0 0 21 15" fill="none" xmlns="http://www.w3.org/2000/svg">
<g id="user-identifier-card">
<path id="Rectangle 56" d="M2.44007 0.737305H18.5601C18.5601 0.737305 19.7858 0.737305 19.7858 1.96302V13.0373C19.7858 13.0373 19.7858 14.263 18.5601 14.263H2.44007C2.44007 14.263 1.21436 14.263 1.21436 13.0373V1.96302C1.21436 1.96302 1.21436 0.737305 2.44007 0.737305Z" stroke="#637083" stroke-width="1.42857" stroke-linecap="round" stroke-linejoin="round"/>
<path id="Rectangle 433" d="M13.8706 5.89941H16.7089" stroke="#637083" stroke-width="1.42857" stroke-linecap="round" stroke-linejoin="round"/>
<path id="Rectangle 434" d="M13.8706 8.71191H16.7089" stroke="#637083" stroke-width="1.42857" stroke-linecap="round" stroke-linejoin="round"/>
<path id="Vector" d="M5.51074 6.36841C5.51074 7.66297 6.56019 8.71241 7.85474 8.71241C8.18201 8.71241 8.49361 8.64534 8.77656 8.5242C9.61283 8.16613 10.1987 7.3357 10.1987 6.36841C10.1987 5.07386 9.1493 4.02441 7.85474 4.02441C6.56019 4.02441 5.51074 5.07386 5.51074 6.36841Z" stroke="#637083" stroke-width="1.42857" stroke-linecap="round" stroke-linejoin="round"/>
<path id="Vector_2" d="M4.29102 11.0337C4.66347 10.3253 5.18694 9.73981 5.8111 9.33354C6.43526 8.92725 7.13912 8.71387 7.855 8.71387C8.5709 8.71387 9.27476 8.92725 9.89892 9.33354C10.5231 9.73981 11.0465 10.3253 11.419 11.0337" stroke="#637083" stroke-width="1.42857" stroke-linecap="round" stroke-linejoin="round"/>
</g>
</svg>
