<svg width="29" height="24" viewBox="0 0 29 24" fill="none" xmlns="http://www.w3.org/2000/svg">
<path fill-rule="evenodd" clip-rule="evenodd" d="M10.2046 0C6.84474 0 4.20483 2.63991 4.20483 5.99979C4.20483 9.35967 6.84474 11.9996 10.2046 11.9996C13.5645 11.9996 16.2044 9.35967 16.2044 5.99979C16.2044 2.63991 13.5645 0 10.2046 0ZM20.3993 22.8V20.4001C20.3993 17.0402 17.7594 14.4003 14.3995 14.4003H5.99979C2.63991 14.4003 0 17.0402 0 20.4001V22.8C0 23.52 0.479983 24 1.19996 24C1.91993 24 2.39992 23.52 2.39992 22.8V20.4001C2.39992 18.3602 3.95986 16.8002 5.99979 16.8002H14.3995C16.4394 16.8002 17.9994 18.3602 17.9994 20.4001V22.8C17.9994 23.52 18.4793 24 19.1993 24C19.9193 24 20.3993 23.52 20.3993 22.8ZM6.60239 6.00046C6.60239 8.04039 8.16233 9.60034 10.2023 9.60034C12.2422 9.60034 13.8021 8.04039 13.8021 6.00046C13.8021 3.96054 12.2422 2.40059 10.2023 2.40059C8.16233 2.40059 6.60239 3.96054 6.60239 6.00046ZM26.7645 7.55872C27.2444 7.07874 27.9644 7.07874 28.4444 7.55872C28.9244 8.03871 28.9244 8.75868 28.4444 9.23866L23.6446 14.0385C23.4046 14.2785 23.0446 14.3985 22.8046 14.3985C22.5646 14.3985 22.2046 14.2785 21.9646 14.0385L19.5647 11.6386C19.0847 11.1586 19.0847 10.4386 19.5647 9.95864C20.0447 9.47865 20.7647 9.47865 21.2447 9.95864L22.8046 11.5186L26.7645 7.55872Z" fill="#160E83"/>
</svg>
