<svg width="31" height="33" viewBox="0 0 31 33" fill="none" xmlns="http://www.w3.org/2000/svg">
<path d="M29.8316 9.24315C29.7463 7.92594 29.2854 6.72248 28.5601 5.73047" stroke="#003366" stroke-width="2" stroke-linecap="round" stroke-linejoin="round"/>
<path d="M7.4082 3.71495C8.14061 2.61679 9.14147 1.80501 10.2657 1.30859" stroke="#003366" stroke-width="2" stroke-linecap="round" stroke-linejoin="round"/>
<path d="M6.82944 28.0472L6.02385 27.1307C4.90585 25.8585 4.02841 24.3937 3.43428 22.8077L1.83338 18.5342C1.43698 17.476 1.77159 16.283 2.66044 15.5853C3.99363 14.5388 5.95593 15.0319 6.63605 16.5843L7.98808 19.6705C9.00125 19.942 11.3243 20.9988 12.511 23.0542" stroke="#003366" stroke-width="2" stroke-linecap="round" stroke-linejoin="round"/>
<path d="M7.98877 19.6737L11.3822 7.00916C11.7571 5.61027 13.195 4.78011 14.5938 5.15494C15.9927 5.52977 16.8229 6.96766 16.4481 8.36653L14.412 15.9653L17.2625 5.32704C17.6373 3.92814 19.0752 3.09798 20.4741 3.47282C21.873 3.84765 22.7032 5.28553 22.3283 6.68443L19.2064 18.3358L20.971 11.7503C21.3458 10.3514 22.7837 9.52122 24.1826 9.89605C25.5815 10.2709 26.4116 11.7087 26.0368 13.1076L22.0568 27.961C21.737 29.1544 20.9563 30.1718 19.8864 30.7898L18.9881 31.3082" stroke="#003366" stroke-width="2" stroke-linecap="round" stroke-linejoin="round"/>
</svg>
