<svg width="20" height="20" viewBox="0 0 20 20" fill="none" xmlns="http://www.w3.org/2000/svg">
<g id="3d-rotate-x-axis-17" clip-path="url(#clip0_47_141577)">
<g id="3d-rotate-x-axis">
<path id="Vector 857" d="M1.41016 9.99878H18.5884" stroke="black" stroke-width="1.5" stroke-linecap="round" stroke-linejoin="round"/>
<path id="Vector 858" d="M7.13281 13.5791C7.20064 13.986 7.31188 14.5489 7.47505 15.1511" stroke="black" stroke-width="1.5" stroke-linecap="round" stroke-linejoin="round"/>
<path id="Vector 862" d="M12.543 15.1506C12.6788 14.6502 12.7933 14.1203 12.8867 13.5787C12.924 13.3623 12.958 13.1439 12.9886 12.9249" stroke="black" stroke-width="1.5" stroke-linecap="round" stroke-linejoin="round"/>
<path id="Vector 861" d="M8.62109 17.7738C8.99716 18.266 9.45168 18.5897 9.99597 18.5897C10.5249 18.5897 10.9876 18.2856 11.3845 17.7738" stroke="black" stroke-width="1.5" stroke-linecap="round" stroke-linejoin="round"/>
<path id="Vector 860" d="M7.13281 6.4211C7.37902 4.94384 8.19738 1.41077 9.99586 1.41077C12.1431 1.41077 13.1975 6.4211 13.1975 9.99989" stroke="black" stroke-width="1.5" stroke-linecap="round" stroke-linejoin="round"/>
<path id="Vector 859" d="M5.28906 4.28784L7.1324 6.42124L9.73176 5.37121" stroke="black" stroke-width="1.5" stroke-linecap="round" stroke-linejoin="round"/>
</g>
</g>
<defs>
<clipPath id="clip0_47_141577">
<rect width="20" height="20" fill="white"/>
</clipPath>
</defs>
</svg>
