<svg width="21" height="21" viewBox="0 0 21 21" fill="none" xmlns="http://www.w3.org/2000/svg">
<g clip-path="url(#clip0_146_402955)">
<path d="M5.47656 10.7739C6.09264 12.9918 8.55692 14.3471 10.7748 13.7311C12.1301 13.2382 13.2391 12.1293 13.6087 10.7739" stroke="black" stroke-width="1.5" stroke-linecap="round" stroke-linejoin="round"/>
<path d="M6.77287 7.69443C6.60275 7.69443 6.46484 7.55652 6.46484 7.3864C6.46484 7.21628 6.60275 7.07837 6.77287 7.07837" stroke="black" stroke-width="1.5" stroke-linecap="round" stroke-linejoin="round"/>
<path d="M6.77344 7.69443C6.94356 7.69443 7.08147 7.55652 7.08147 7.3864C7.08147 7.21628 6.94356 7.07837 6.77344 7.07837" stroke="black" stroke-width="1.5" stroke-linecap="round" stroke-linejoin="round"/>
<path d="M12.3197 7.69443C12.1496 7.69443 12.0117 7.55652 12.0117 7.3864C12.0117 7.21628 12.1496 7.07837 12.3197 7.07837" stroke="black" stroke-width="1.5" stroke-linecap="round" stroke-linejoin="round"/>
<path d="M12.3203 7.69443C12.4904 7.69443 12.6283 7.55652 12.6283 7.3864C12.6283 7.21628 12.4904 7.07837 12.3203 7.07837" stroke="black" stroke-width="1.5" stroke-linecap="round" stroke-linejoin="round"/>
<path d="M17.553 9.54238C17.553 5.11916 13.9673 1.53345 9.54408 1.53345C5.12087 1.53345 1.53516 5.11916 1.53516 9.54238C1.53516 13.9656 5.12087 17.5513 9.54408 17.5513" stroke="black" stroke-width="1.5" stroke-linecap="round" stroke-linejoin="round"/>
<path d="M16.5938 13.8801V19.4516" stroke="black" stroke-width="1.5" stroke-linecap="round" stroke-linejoin="round"/>
<path d="M13.8945 16.5869H19.4659" stroke="black" stroke-width="1.5" stroke-linecap="round" stroke-linejoin="round"/>
</g>
<defs>
<clipPath id="clip0_146_402955">
<rect width="21" height="21" fill="white"/>
</clipPath>
</defs>
</svg>
