<svg width="21" height="21" viewBox="0 0 21 21" fill="none" xmlns="http://www.w3.org/2000/svg">
<g clip-path="url(#clip0_146_402190)">
<path d="M7.75781 7.71438L7.49321 5.90625C7.3287 4.78215 7.63439 3.63991 8.33836 2.74823C9.44102 1.3515 11.559 1.3515 12.6616 2.74823C13.3656 3.63991 13.6713 4.78215 13.5068 5.90625L13.2422 7.71438L18.5818 10.4223C19.0445 10.6569 19.336 11.1316 19.336 11.6504C19.336 12.5332 18.5169 13.1879 17.6557 12.9935L12.5893 11.8494L12.2846 14.6787L14.9305 16.9203C15.24 17.1826 15.4185 17.5677 15.4185 17.9733C15.4185 18.9666 14.4008 19.6346 13.4894 19.2394L10.5 17.9432L7.51055 19.2394C6.59926 19.6346 5.58147 18.9666 5.58147 17.9733C5.58147 17.5677 5.75994 17.1826 6.06943 16.9203L8.7154 14.6787L8.41071 11.8494L3.34427 12.9935C2.48313 13.1879 1.66406 12.5332 1.66406 11.6504C1.66406 11.1316 1.95558 10.6569 2.4182 10.4223L7.75781 7.71438Z" stroke="black" stroke-width="1.5" stroke-linecap="round" stroke-linejoin="round"/>
</g>
<defs>
<clipPath id="clip0_146_402190">
<rect width="21" height="21" fill="white"/>
</clipPath>
</defs>
</svg>
