<svg width="21" height="21" viewBox="0 0 21 21" fill="none" xmlns="http://www.w3.org/2000/svg">
<path fill-rule="evenodd" clip-rule="evenodd" d="M15.418 16.4502V12.7002C15.418 10.5135 14.1031 8.54126 12.0846 7.70022C12.0846 6.54962 11.1519 5.61688 10.0013 5.61688C8.85071 5.61688 7.91797 6.54962 7.91797 7.70022C5.89946 8.54126 4.58464 10.5135 4.58464 12.7002V16.4502C4.58464 17.3707 3.83844 18.1169 2.91797 18.1169H17.0846C16.1642 18.1169 15.418 17.3707 15.418 16.4502Z" stroke="black" stroke-linecap="round" stroke-linejoin="round"/>
<path d="M11.6654 18.1169C11.6654 19.0374 10.9192 19.7835 9.9987 19.7835C9.07822 19.7835 8.33203 19.0374 8.33203 18.1169" stroke="black" stroke-linecap="round" stroke-linejoin="round"/>
<path d="M1.25 3.95105H3.75L1.25 6.45105H3.75" stroke="black" stroke-linecap="round" stroke-linejoin="round"/>
<path d="M15.418 0.617706H19.5846L15.418 4.78437H19.5846" stroke="black" stroke-linecap="round" stroke-linejoin="round"/>
</svg>
