<svg width="20" height="20" viewBox="0 0 20 20" fill="none" xmlns="http://www.w3.org/2000/svg">
<g id="align-back-2-39">
<g id="align-back-2--back-design-layer-layers-pile-stack-arrange-rectangle">
<path id="Rectangle 1684" d="M5.375 15.9464C5.375 16.6763 5.96663 17.2679 6.69643 17.2679H17.2679C17.9977 17.2679 18.5893 16.6763 18.5893 15.9464V8.01787C18.5893 7.28807 17.9977 6.69644 17.2679 6.69644" stroke="black" stroke-width="1.5" stroke-linecap="round" stroke-linejoin="round"/>
<path id="Rectangle 1685" d="M2.73158 13.3036C2.00178 13.3036 1.41016 12.7119 1.41016 11.9821" stroke="black" stroke-width="1.5" stroke-linecap="round" stroke-linejoin="round"/>
<path id="Rectangle 1688" d="M13.3047 13.3036C14.0345 13.3036 14.6261 12.7119 14.6261 11.9821" stroke="black" stroke-width="1.5" stroke-linecap="round" stroke-linejoin="round"/>
<path id="Rectangle 1687" d="M13.3047 2.73215C14.0345 2.73215 14.6261 3.32378 14.6261 4.05358" stroke="black" stroke-width="1.5" stroke-linecap="round" stroke-linejoin="round"/>
<path id="Rectangle 1686" d="M2.73158 2.73215C2.00178 2.73215 1.41016 3.32378 1.41016 4.05358" stroke="black" stroke-width="1.5" stroke-linecap="round" stroke-linejoin="round"/>
<path id="Vector 1948" d="M5.375 2.73215H6.69643" stroke="black" stroke-width="1.5" stroke-linecap="round" stroke-linejoin="round"/>
<path id="Vector 1950" d="M1.41016 7.35715V8.67858" stroke="black" stroke-width="1.5" stroke-linecap="round" stroke-linejoin="round"/>
<path id="Vector 1951" d="M14.625 7.35715V8.67858" stroke="black" stroke-width="1.5" stroke-linecap="round" stroke-linejoin="round"/>
<path id="Vector 1949" d="M9.33984 2.73215H10.6613" stroke="black" stroke-width="1.5" stroke-linecap="round" stroke-linejoin="round"/>
<path id="Vector 1952" d="M9.33984 13.3036H10.6613" stroke="black" stroke-width="1.5" stroke-linecap="round" stroke-linejoin="round"/>
<path id="Vector 1953" d="M5.375 13.3036H6.69643" stroke="black" stroke-width="1.5" stroke-linecap="round" stroke-linejoin="round"/>
</g>
</g>
</svg>
