<svg width="20" height="20" viewBox="0 0 20 20" fill="none" xmlns="http://www.w3.org/2000/svg">
<g id="align-object-vertical-14" clip-path="url(#clip0_47_141992)">
<g id="align-object-vertical">
<path id="Rectangle 53" d="M18.9648 2.21793V17.7821C18.9648 17.7821 18.9648 18.9655 17.7814 18.9655H2.21726C2.21726 18.9655 1.03381 18.9655 1.03381 17.7821V2.21793C1.03381 2.21793 1.03381 1.03448 2.21726 1.03448L17.7814 1.03448C17.7814 1.03448 18.9648 1.03448 18.9648 2.21793Z" stroke="black" stroke-width="1.3" stroke-linecap="round" stroke-linejoin="round"/>
<path id="Rectangle 54" d="M12.1641 5.40691V14.5945C12.1641 14.5945 12.1641 15.2842 11.4744 15.2842H8.53096C8.53096 15.2842 7.8413 15.2842 7.8413 14.5945L7.8413 5.40691C7.8413 5.40691 7.8413 4.71725 8.53096 4.71725H11.4744C11.4744 4.71725 12.1641 4.71725 12.1641 5.40691Z" stroke="black" stroke-width="1.3" stroke-linecap="round" stroke-linejoin="round"/>
</g>
</g>
<defs>
<clipPath id="clip0_47_141992">
<rect width="20" height="20" fill="white"/>
</clipPath>
</defs>
</svg>
