<svg width="20" height="20" viewBox="0 0 20 20" fill="none" xmlns="http://www.w3.org/2000/svg">
<g id="align-key-object-45" clip-path="url(#clip0_47_141927)">
<g id="align-key-object">
<path id="Ellipse 43" d="M12.6445 14.4059L15.11 11.9404L16.8592 10.1913L18.2584 11.5906" stroke="black" stroke-width="1.5" stroke-linecap="round" stroke-linejoin="round"/>
<path id="Ellipse 44" d="M13.24 15.9256C13.24 17.1536 12.2445 18.149 11.0165 18.149C9.78845 18.149 8.79297 17.1536 8.79297 15.9256C8.79297 14.6975 9.78845 13.702 11.0165 13.702C12.2445 13.702 13.24 14.6975 13.24 15.9256Z" stroke="black" stroke-width="1.5" stroke-linecap="round" stroke-linejoin="round"/>
<path id="Vector 1116" d="M14.7227 12.3264L16.1026 13.7018" stroke="black" stroke-width="1.5" stroke-linecap="round" stroke-linejoin="round"/>
<path id="Rectangle 68" d="M4.35547 2.88538H8.72648" stroke="black" stroke-width="1.5" stroke-linecap="round" stroke-linejoin="round"/>
<path id="Rectangle 61" d="M11.6836 2.88538H15.6323" stroke="black" stroke-width="1.5" stroke-linecap="round" stroke-linejoin="round"/>
<path id="Rectangle 62" d="M17.1133 4.36038V7.23215" stroke="black" stroke-width="1.5" stroke-linecap="round" stroke-linejoin="round"/>
<path id="Rectangle 65" d="M6.00251 17.1143H4.35547" stroke="black" stroke-width="1.5" stroke-linecap="round" stroke-linejoin="round"/>
<path id="Rectangle 66" d="M2.88672 15.64V11.4763" stroke="black" stroke-width="1.5" stroke-linecap="round" stroke-linejoin="round"/>
<path id="Rectangle 67" d="M2.88672 8.52023V4.36038" stroke="black" stroke-width="1.5" stroke-linecap="round" stroke-linejoin="round"/>
<path id="Rectangle 53" d="M1.41016 1.41071H4.35958V4.36013H1.41016V1.41071Z" stroke="black" stroke-width="1.5" stroke-linecap="round" stroke-linejoin="round"/>
<path id="Rectangle 59" d="M1.41016 8.52527H4.35958V11.4747H1.41016V8.52527Z" stroke="black" stroke-width="1.5" stroke-linecap="round" stroke-linejoin="round"/>
<path id="Rectangle 56" d="M1.41016 15.6399H4.35958V18.5893H1.41016V15.6399Z" stroke="black" stroke-width="1.5" stroke-linecap="round" stroke-linejoin="round"/>
<path id="Rectangle 55" d="M8.72656 1.41071H11.676V4.36013H8.72656V1.41071Z" stroke="black" stroke-width="1.5" stroke-linecap="round" stroke-linejoin="round"/>
<path id="Rectangle 54" d="M15.6406 1.41071H18.5901V4.36013H15.6406V1.41071Z" stroke="black" stroke-width="1.5" stroke-linecap="round" stroke-linejoin="round"/>
</g>
</g>
<defs>
<clipPath id="clip0_47_141927">
<rect width="20" height="20" fill="white"/>
</clipPath>
</defs>
</svg>
