<svg width="20" height="20" viewBox="0 0 20 20" fill="none" xmlns="http://www.w3.org/2000/svg">
<g id="align-margins-horizontal-20">
<g id="align-margins-horizontal">
<path id="Vector 382" d="M5.37501 2.73215L5.375 17.2679" stroke="black" stroke-width="1.5" stroke-linecap="round" stroke-linejoin="round"/>
<path id="Vector 383" d="M5.375 10H10C10.3649 10 10.6607 10.2958 10.6607 10.6607V13.3036C10.6607 13.6685 10.3649 13.9643 10 13.9643H5.375" stroke="black" stroke-width="1.5" stroke-linecap="round" stroke-linejoin="round"/>
<path id="Vector" d="M18.5887 15.9464C18.5887 16.2969 18.4494 16.633 18.2017 16.8808C17.9539 17.1286 17.6177 17.2679 17.2673 17.2679H2.73158C2.38112 17.2679 2.04501 17.1286 1.79719 16.8808C1.54938 16.633 1.41016 16.2969 1.41016 15.9464V4.05358C1.41016 3.70311 1.54938 3.367 1.79719 3.11918C2.04501 2.87137 2.38112 2.73215 2.73158 2.73215H14.6244L18.5887 6.69643V15.9464Z" stroke="black" stroke-width="1.5" stroke-linecap="round" stroke-linejoin="round"/>
<path id="Vector_2" d="M13.9649 2.73215L13.9648 7.35715H18.5899" stroke="black" stroke-width="1.5" stroke-linecap="round" stroke-linejoin="round"/>
</g>
</g>
</svg>
