<svg width="20" height="20" viewBox="0 0 20 20" fill="none" xmlns="http://www.w3.org/2000/svg">
<g id="align-object-right-38" clip-path="url(#clip0_47_141984)">
<g id="align-object-right">
<path id="Rectangle 53" d="M18.9648 2.21793V17.7821C18.9648 17.7821 18.9648 18.9655 17.7814 18.9655H2.21726C2.21726 18.9655 1.03381 18.9655 1.03381 17.7821V2.21793C1.03381 2.21793 1.03381 1.03448 2.21726 1.03448L17.7814 1.03448C17.7814 1.03448 18.9648 1.03448 18.9648 2.21793Z" stroke="black" stroke-width="1.3" stroke-linecap="round" stroke-linejoin="round"/>
<path id="Rectangle 54" d="M15.2852 5.40691V14.5945C15.2852 14.5945 15.2852 15.2842 14.5955 15.2842H11.6521C11.6521 15.2842 10.9624 15.2842 10.9624 14.5945V5.40691C10.9624 5.40691 10.9624 4.71725 11.6521 4.71725H14.5955C14.5955 4.71725 15.2852 4.71725 15.2852 5.40691Z" stroke="black" stroke-width="1.3" stroke-linecap="round" stroke-linejoin="round"/>
</g>
</g>
<defs>
<clipPath id="clip0_47_141984">
<rect width="20" height="20" fill="white"/>
</clipPath>
</defs>
</svg>
