<svg width="20" height="20" viewBox="0 0 20 20" fill="none" xmlns="http://www.w3.org/2000/svg">
<g id="align-selection-11" clip-path="url(#clip0_47_142018)">
<g id="align-selection">
<path id="Rectangle 53" d="M4.35547 2.88539H8.72657" stroke="black" stroke-width="1.3" stroke-linecap="round" stroke-linejoin="round"/>
<path id="Rectangle 61" d="M11.6836 2.88539H15.6323" stroke="black" stroke-width="1.3" stroke-linecap="round" stroke-linejoin="round"/>
<path id="Rectangle 62" d="M17.1133 4.36006V8.52" stroke="black" stroke-width="1.3" stroke-linecap="round" stroke-linejoin="round"/>
<path id="Rectangle 63" d="M17.1133 11.4763V15.64" stroke="black" stroke-width="1.3" stroke-linecap="round" stroke-linejoin="round"/>
<path id="Rectangle 64" d="M15.6323 17.1143H11.6836" stroke="black" stroke-width="1.3" stroke-linecap="round" stroke-linejoin="round"/>
<path id="Rectangle 65" d="M8.72657 17.1143H4.35547" stroke="black" stroke-width="1.3" stroke-linecap="round" stroke-linejoin="round"/>
<path id="Rectangle 66" d="M2.88672 15.64V11.4763" stroke="black" stroke-width="1.3" stroke-linecap="round" stroke-linejoin="round"/>
<path id="Rectangle 67" d="M2.88672 8.52V4.36006" stroke="black" stroke-width="1.3" stroke-linecap="round" stroke-linejoin="round"/>
<path id="Rectangle 53_2" d="M1.41016 1.41072H4.35958V4.36015H1.41016V1.41072Z" stroke="black" stroke-width="1.3" stroke-linecap="round" stroke-linejoin="round"/>
<path id="Rectangle 59" d="M1.41016 8.5253H4.35958V11.4747H1.41016V8.5253Z" stroke="black" stroke-width="1.3" stroke-linecap="round" stroke-linejoin="round"/>
<path id="Rectangle 60" d="M15.6406 8.5253H18.5901V11.4747H15.6406V8.5253Z" stroke="black" stroke-width="1.3" stroke-linecap="round" stroke-linejoin="round"/>
<path id="Rectangle 56" d="M1.41016 15.6399H4.35958V18.5893H1.41016V15.6399Z" stroke="black" stroke-width="1.3" stroke-linecap="round" stroke-linejoin="round"/>
<path id="Rectangle 55" d="M8.72656 1.41072H11.676V4.36015H8.72656V1.41072Z" stroke="black" stroke-width="1.3" stroke-linecap="round" stroke-linejoin="round"/>
<path id="Rectangle 57" d="M8.72656 15.6399H11.676V18.5893H8.72656V15.6399Z" stroke="black" stroke-width="1.3" stroke-linecap="round" stroke-linejoin="round"/>
<path id="Rectangle 54" d="M15.6406 1.41072H18.5901V4.36015H15.6406V1.41072Z" stroke="black" stroke-width="1.3" stroke-linecap="round" stroke-linejoin="round"/>
<path id="Rectangle 58" d="M15.6406 15.6399H18.5901V18.5893H15.6406V15.6399Z" stroke="black" stroke-width="1.3" stroke-linecap="round" stroke-linejoin="round"/>
</g>
</g>
<defs>
<clipPath id="clip0_47_142018">
<rect width="20" height="20" fill="white"/>
</clipPath>
</defs>
</svg>
