<svg width="20" height="20" viewBox="0 0 20 20" fill="none" xmlns="http://www.w3.org/2000/svg">
<g id="ampersand-26">
<g id="ampersand">
<path id="Vector 742" d="M17.6036 18.3657C16.4851 17.407 14.5659 15.8685 12.533 14.1222M12.533 14.1222C10.6182 12.4774 8.6025 10.6483 7.06011 8.94594M12.533 14.1222L8.90045 17.541C7.24469 19.0994 4.60716 18.8951 3.21119 17.1002C1.94941 15.478 2.18096 13.1513 3.73772 11.8095L7.06011 8.94594M12.533 14.1222L14.7674 12.0193M7.06011 8.94594C5.50181 7.22603 4.4266 5.63549 4.4266 4.49506C4.4266 1.80271 6.41212 1.41113 7.57473 1.41113C9.27562 1.41113 10.6683 2.41459 10.6683 4.49516C10.6683 5.88223 7.68031 8.41139 7.68031 8.41139L7.06011 8.94594Z" stroke="black" stroke-width="1.5" stroke-linecap="round" stroke-linejoin="round"/>
</g>
</g>
</svg>
