<svg width="21" height="21" viewBox="0 0 21 21" fill="none" xmlns="http://www.w3.org/2000/svg">
<path d="M10.75 5.96875L16.1232 15.2752" stroke="black" stroke-width="1.5" stroke-linecap="round" stroke-linejoin="round"/>
<path d="M15.8437 14.7864L2.59835 17.8619L1.75 16.3925L11.0362 6.45947" stroke="black" stroke-width="1.5" stroke-linecap="round" stroke-linejoin="round"/>
<path d="M5.48047 17.1921L6.20981 18.4553C6.4744 18.9088 6.90829 19.2387 7.41604 19.3722C7.92378 19.5057 8.46379 19.4321 8.91726 19.1675C9.37075 18.903 9.70055 18.4691 9.83411 17.9613C9.96767 17.4536 9.89407 16.9136 9.62948 16.4601L9.51268 16.2578" stroke="black" stroke-width="1.5" stroke-linecap="round" stroke-linejoin="round"/>
<path d="M11.1172 3.30867V1.56274" stroke="black" stroke-width="1.5" stroke-linecap="round" stroke-linejoin="round"/>
<path d="M17.8047 9.99805H19.5506" stroke="black" stroke-width="1.5" stroke-linecap="round" stroke-linejoin="round"/>
<path d="M2.68359 9.99805H4.42953" stroke="black" stroke-width="1.5" stroke-linecap="round" stroke-linejoin="round"/>
<path d="M5.15234 4.03345L6.3869 5.26801" stroke="black" stroke-width="1.5" stroke-linecap="round" stroke-linejoin="round"/>
<path d="M15.8477 5.26776L17.0823 4.0332" stroke="black" stroke-width="1.5" stroke-linecap="round" stroke-linejoin="round"/>
</svg>
