<svg width="21" height="21" viewBox="0 0 21 21" fill="none" xmlns="http://www.w3.org/2000/svg">
<path d="M3.26562 18.2772C3.35315 18.6183 3.57226 18.9254 3.90102 19.1161C4.55109 19.4931 5.38369 19.2718 5.76069 18.6216L6.05188 18.1196" stroke="black" stroke-width="1.5" stroke-linecap="round" stroke-linejoin="round"/>
<path d="M10.3867 13.8931H8.5031L10.5151 10.4238L13.2142 5.76971C13.5911 5.11964 13.3698 4.28703 12.7197 3.91004C12.0696 3.53304 11.237 3.7544 10.86 4.40448L10.5151 4.99932L10.1701 4.40448C9.79308 3.7544 8.96049 3.53304 8.31042 3.91004C7.66034 4.28703 7.43897 5.11964 7.81598 5.76971L8.94213 7.71157L5.35724 13.8931H2.98176C2.23029 13.8931 1.62109 14.5023 1.62109 15.2537C1.62109 16.0052 2.23029 16.6144 2.98176 16.6144H11.5452" stroke="black" stroke-width="1.5" stroke-linecap="round" stroke-linejoin="round"/>
<path d="M13.2015 9.55847L15.6741 13.8944H17.8412C18.5926 13.8944 19.2018 14.5036 19.2018 15.2552C19.2018 16.0066 18.5926 16.6158 17.8412 16.6158H17.2523L17.6253 17.2589C18.0023 17.9091 17.781 18.7416 17.1308 19.1187C16.4808 19.4957 15.6482 19.2743 15.2712 18.6242L11.8086 12.6924" stroke="black" stroke-width="1.5" stroke-linecap="round" stroke-linejoin="round"/>
</svg>
