<svg width="20" height="20" viewBox="0 0 20 20" fill="none" xmlns="http://www.w3.org/2000/svg">
<g id="application-widget-14">
<g id="application-widget">
<path id="Vector 2116" d="M1.41016 9.33929V6.69643C1.41016 5.96663 2.00178 5.375 2.73158 5.375H5.37444C6.10424 5.375 6.69587 5.96663 6.69587 6.69643V9.33929C6.69587 10.0691 6.10424 10.6607 5.37444 10.6607H2.73158C2.00178 10.6607 1.41016 10.0691 1.41016 9.33929Z" stroke="black" stroke-width="1.5" stroke-linecap="round" stroke-linejoin="round"/>
<path id="Vector 2117" d="M1.41016 17.268V14.6251C1.41016 13.8953 2.00178 13.3037 2.73158 13.3037H5.37444C6.10424 13.3037 6.69587 13.8953 6.69587 14.6251V17.268C6.69587 17.9978 6.10424 18.5894 5.37444 18.5894H2.73158C2.00178 18.5894 1.41016 17.9978 1.41016 17.268Z" stroke="black" stroke-width="1.5" stroke-linecap="round" stroke-linejoin="round"/>
<path id="Vector 2118" d="M10 17.268V14.6251C10 13.8953 10.5916 13.3037 11.3214 13.3037H13.9643C14.6941 13.3037 15.2857 13.8953 15.2857 14.6251V17.268C15.2857 17.9978 14.6941 18.5894 13.9643 18.5894H11.3214C10.5916 18.5894 10 17.9978 10 17.268Z" stroke="black" stroke-width="1.5" stroke-linecap="round" stroke-linejoin="round"/>
<path id="Vector 2119" d="M10 9.33915V3.39272C10 2.66292 10.5916 2.07129 11.3214 2.07129H17.2679C17.9977 2.07129 18.5893 2.66292 18.5893 3.39272V9.33915C18.5893 10.0689 17.9977 10.6606 17.2679 10.6606H11.3214C10.5916 10.6606 10 10.0689 10 9.33915Z" stroke="black" stroke-width="1.5" stroke-linecap="round" stroke-linejoin="round"/>
</g>
</g>
</svg>
