<svg width="20" height="20" viewBox="0 0 20 20" fill="none" xmlns="http://www.w3.org/2000/svg">
<g id="application-drawer-9" clip-path="url(#clip0_47_147142)">
<g id="application-drawer">
<path id="Vector 2116" d="M14.625 4.05399V2.73256C14.625 2.00276 15.2166 1.41113 15.9464 1.41113H17.2679C17.9977 1.41113 18.5893 2.00276 18.5893 2.73256V4.05399C18.5893 4.78379 17.9977 5.37542 17.2679 5.37542H15.9464C15.2166 5.37542 14.625 4.78379 14.625 4.05399Z" stroke="black" stroke-width="1.5" stroke-linecap="round" stroke-linejoin="round"/>
<path id="Vector 2119" d="M14.625 10.6614V9.33998C14.625 8.61018 15.2166 8.01855 15.9464 8.01855H17.2679C17.9977 8.01855 18.5893 8.61018 18.5893 9.33998V10.6614C18.5893 11.3912 17.9977 11.9828 17.2679 11.9828H15.9464C15.2166 11.9828 14.625 11.3912 14.625 10.6614Z" stroke="black" stroke-width="1.5" stroke-linecap="round" stroke-linejoin="round"/>
<path id="Vector 2122" d="M14.625 17.2679V15.9464C14.625 15.2166 15.2166 14.625 15.9464 14.625H17.2679C17.9977 14.625 18.5893 15.2166 18.5893 15.9464V17.2679C18.5893 17.9977 17.9977 18.5893 17.2679 18.5893H15.9464C15.2166 18.5893 14.625 17.9977 14.625 17.2679Z" stroke="black" stroke-width="1.5" stroke-linecap="round" stroke-linejoin="round"/>
<path id="Vector 2117" d="M8.01562 4.05399V2.73256C8.01562 2.00276 8.60726 1.41113 9.33705 1.41113H10.6585C11.3883 1.41113 11.9799 2.00276 11.9799 2.73256V4.05399C11.9799 4.78379 11.3883 5.37542 10.6585 5.37542H9.33705C8.60726 5.37542 8.01562 4.78379 8.01562 4.05399Z" stroke="black" stroke-width="1.5" stroke-linecap="round" stroke-linejoin="round"/>
<path id="Vector 2120" d="M8.01562 10.6614V9.33998C8.01562 8.61018 8.60726 8.01855 9.33705 8.01855H10.6585C11.3883 8.01855 11.9799 8.61018 11.9799 9.33998V10.6614C11.9799 11.3912 11.3883 11.9828 10.6585 11.9828H9.33705C8.60726 11.9828 8.01562 11.3912 8.01562 10.6614Z" stroke="black" stroke-width="1.5" stroke-linecap="round" stroke-linejoin="round"/>
<path id="Vector 2123" d="M8.01562 17.2679V15.9464C8.01562 15.2166 8.60726 14.625 9.33705 14.625H10.6585C11.3883 14.625 11.9799 15.2166 11.9799 15.9464V17.2679C11.9799 17.9977 11.3883 18.5893 10.6585 18.5893H9.33705C8.60726 18.5893 8.01562 17.9977 8.01562 17.2679Z" stroke="black" stroke-width="1.5" stroke-linecap="round" stroke-linejoin="round"/>
<path id="Vector 2118" d="M1.41016 4.05399V2.73256C1.41016 2.00276 2.00178 1.41113 2.73158 1.41113H4.05301C4.78281 1.41113 5.37444 2.00276 5.37444 2.73256V4.05399C5.37444 4.78379 4.78281 5.37542 4.05301 5.37542H2.73158C2.00178 5.37542 1.41016 4.78379 1.41016 4.05399Z" stroke="black" stroke-width="1.5" stroke-linecap="round" stroke-linejoin="round"/>
<path id="Vector 2121" d="M1.41016 10.6614V9.33998C1.41016 8.61018 2.00178 8.01855 2.73158 8.01855H4.05301C4.78281 8.01855 5.37444 8.61018 5.37444 9.33998V10.6614C5.37444 11.3912 4.78281 11.9828 4.05301 11.9828H2.73158C2.00178 11.9828 1.41016 11.3912 1.41016 10.6614Z" stroke="black" stroke-width="1.5" stroke-linecap="round" stroke-linejoin="round"/>
<path id="Vector 2124" d="M1.41016 17.2679V15.9464C1.41016 15.2166 2.00178 14.625 2.73158 14.625H4.05301C4.78281 14.625 5.37444 15.2166 5.37444 15.9464V17.2679C5.37444 17.9977 4.78281 18.5893 4.05301 18.5893H2.73158C2.00178 18.5893 1.41016 17.9977 1.41016 17.2679Z" stroke="black" stroke-width="1.5" stroke-linecap="round" stroke-linejoin="round"/>
</g>
</g>
<defs>
<clipPath id="clip0_47_147142">
<rect width="20" height="20" fill="white"/>
</clipPath>
</defs>
</svg>
