<svg width="20" height="20" viewBox="0 0 20 20" fill="none" xmlns="http://www.w3.org/2000/svg">
<g id="archive-drawer-38" clip-path="url(#clip0_47_143689)">
<g id="archive-drawer--locker-content-archive-file-cabinet">
<path id="Vector" d="M2.73158 1.41064H17.2673C17.6177 1.41064 17.9539 1.54987 18.2017 1.79768C18.4494 2.0455 18.5887 2.3816 18.5887 2.73207V15.9464C18.5887 16.6472 18.3103 17.3195 17.8146 17.8151C17.319 18.3108 16.6468 18.5892 15.9459 18.5892H4.05301C3.35209 18.5892 2.67986 18.3108 2.18424 17.8151C1.6886 17.3195 1.41016 16.6472 1.41016 15.9464V2.73207C1.41016 2.3816 1.54938 2.0455 1.79719 1.79768C2.04501 1.54987 2.38112 1.41064 2.73158 1.41064Z" stroke="black" stroke-width="1.5" stroke-linecap="round" stroke-linejoin="round"/>
<path id="Vector_2" d="M1.41016 10H18.5887" stroke="black" stroke-width="1.5" stroke-linecap="round" stroke-linejoin="round"/>
<g id="Group 2605">
<path id="Ellipse 1111" d="M9.99833 14.2945C9.81588 14.2945 9.66797 14.1466 9.66797 13.9641C9.66797 13.7817 9.81588 13.6338 9.99833 13.6338" stroke="black" stroke-width="1.5" stroke-linecap="round" stroke-linejoin="round"/>
<path id="Ellipse 1112" d="M10 14.2945C10.1824 14.2945 10.3304 14.1466 10.3304 13.9641C10.3304 13.7817 10.1824 13.6338 10 13.6338" stroke="black" stroke-width="1.5" stroke-linecap="round" stroke-linejoin="round"/>
</g>
<g id="Group 2653">
<path id="Ellipse 1111_2" d="M9.99833 5.70539C9.81588 5.70539 9.66797 5.55748 9.66797 5.37503C9.66797 5.19259 9.81588 5.04468 9.99833 5.04468" stroke="black" stroke-width="1.5" stroke-linecap="round" stroke-linejoin="round"/>
<path id="Ellipse 1112_2" d="M10 5.70539C10.1824 5.70539 10.3304 5.55748 10.3304 5.37503C10.3304 5.19259 10.1824 5.04468 10 5.04468" stroke="black" stroke-width="1.5" stroke-linecap="round" stroke-linejoin="round"/>
</g>
</g>
</g>
<defs>
<clipPath id="clip0_47_143689">
<rect width="20" height="20" fill="white"/>
</clipPath>
</defs>
</svg>
