<svg width="20" height="20" viewBox="0 0 20 20" fill="none" xmlns="http://www.w3.org/2000/svg">
<g id="ascending-number-order-8">
<g id="ascending-number-order">
<path id="Vector 2" d="M15.5039 1.41016V8.0173" stroke="black" stroke-width="1.5" stroke-linecap="round" stroke-linejoin="round"/>
<path id="Vector 3" d="M13.3008 3.06194H13.8514C14.7636 3.06194 15.5032 2.32242 15.5032 1.41016" stroke="black" stroke-width="1.5" stroke-linecap="round" stroke-linejoin="round"/>
<path id="Vector 1" d="M17.7056 8.01758H13.3008" stroke="black" stroke-width="1.5" stroke-linecap="round" stroke-linejoin="round"/>
<path id="Vector 2_2" d="M14.5195 15.4092H15.3866C16.4244 15.4092 17.2656 14.568 17.2656 13.5303C17.2656 12.4926 16.4244 11.6514 15.3866 11.6514L14.5195 11.6514C13.4818 11.6514 12.6406 12.4926 12.6406 13.5303C12.6406 14.568 13.4818 15.4092 14.5195 15.4092Z" stroke="black" stroke-width="1.5" stroke-linecap="round" stroke-linejoin="round"/>
<path id="Vector 3_2" d="M17.2685 13.3857V16.8545C17.2685 17.8124 16.492 18.5889 15.5341 18.5889H14.3779C13.6227 18.5889 12.9803 18.1063 12.7422 17.4326" stroke="black" stroke-width="1.5" stroke-linecap="round" stroke-linejoin="round"/>
<path id="Vector 348" d="M8.67745 15.2861L5.37388 18.5897L2.07031 15.2861" stroke="black" stroke-width="1.5" stroke-linecap="round" stroke-linejoin="round"/>
<path id="Vector 349" d="M5.375 1.41113V18.5897" stroke="black" stroke-width="1.5" stroke-linecap="round" stroke-linejoin="round"/>
</g>
</g>
</svg>
