<svg width="20" height="20" viewBox="0 0 20 20" fill="none" xmlns="http://www.w3.org/2000/svg">
<g id="attribution-37" clip-path="url(#clip0_47_143699)">
<g id="attribution">
<path id="Ellipse 50" d="M1.41016 9.99993C1.41016 11.1279 1.63232 12.2448 2.06398 13.2869C2.49563 14.329 3.12831 15.2759 3.9259 16.0735C4.72349 16.8711 5.67036 17.5037 6.71246 17.9354C7.75457 18.367 8.87148 18.5892 9.99944 18.5892C11.1274 18.5892 12.2443 18.367 13.2864 17.9354C14.3285 17.5037 15.2754 16.8711 16.073 16.0735C16.8706 15.2759 17.5033 14.329 17.9349 13.2869C18.3666 12.2448 18.5887 11.1279 18.5887 9.99993C18.5887 8.87197 18.3666 7.75505 17.9349 6.71295C17.5033 5.67085 16.8706 4.72398 16.073 3.92639C15.2754 3.1288 14.3285 2.49612 13.2864 2.06447C12.2443 1.63281 11.1274 1.41064 9.99944 1.41064C8.87148 1.41064 7.75457 1.63281 6.71246 2.06447C5.67036 2.49612 4.72349 3.1288 3.9259 3.92639C3.12831 4.72398 2.49563 5.67085 2.06398 6.71295C1.63232 7.75505 1.41016 8.87197 1.41016 9.99993Z" stroke="black" stroke-width="1.5" stroke-linecap="round" stroke-linejoin="round"/>
<path id="Ellipse 235" d="M7.97266 6.13202C7.97266 6.66613 8.18483 7.17836 8.5625 7.55603C8.94017 7.9337 9.45241 8.14588 9.98651 8.14588C10.5206 8.14588 11.0329 7.9337 11.4105 7.55603C11.7882 7.17836 12.0004 6.66613 12.0004 6.13202C12.0004 5.59791 11.7882 5.08568 11.4105 4.70801C11.0329 4.33034 10.5206 4.11816 9.98651 4.11816C9.45241 4.11816 8.94017 4.33034 8.5625 4.70801C8.18483 5.08568 7.97266 5.59791 7.97266 6.13202Z" stroke="black" stroke-width="1.5" stroke-linecap="round" stroke-linejoin="round"/>
<path id="Ellipse 236" d="M11.7202 12.4442L11.2904 15.8826H8.71117L8.28137 12.4442H7.42198C7.18461 12.4442 6.99219 12.2518 6.99219 12.0144V11.1548C6.99219 9.49321 8.33907 8.14624 10.0007 8.14624C11.6623 8.14624 13.0094 9.49321 13.0094 11.1548V12.0144C13.0094 12.2518 12.8169 12.4442 12.5796 12.4442H11.7202Z" stroke="black" stroke-width="1.5" stroke-linecap="round" stroke-linejoin="round"/>
</g>
</g>
<defs>
<clipPath id="clip0_47_143699">
<rect width="20" height="20" fill="white"/>
</clipPath>
</defs>
</svg>
