<svg width="21" height="21" viewBox="0 0 21 21" fill="none" xmlns="http://www.w3.org/2000/svg">
<path d="M5.27734 7.71436V13.2858" stroke="black" stroke-width="1.5" stroke-linecap="round" stroke-linejoin="round"/>
<path d="M9.45312 7.71436V13.2858" stroke="black" stroke-width="1.5" stroke-linecap="round" stroke-linejoin="round"/>
<path d="M13.6328 7.71436V13.2858" stroke="black" stroke-width="1.5" stroke-linecap="round" stroke-linejoin="round"/>
<path d="M19.5525 8.41075C19.5525 8.22604 19.4791 8.0489 19.3485 7.9183C19.2179 7.7877 19.0407 7.71432 18.856 7.71432H18.1596V5.62503C18.1596 5.25562 18.0128 4.90135 17.7516 4.64013C17.4905 4.37893 17.1361 4.23218 16.7667 4.23218H2.83817C2.46876 4.23218 2.11448 4.37893 1.85327 4.64013C1.59206 4.90135 1.44531 5.25562 1.44531 5.62503V15.375C1.44531 15.7444 1.59206 16.0988 1.85327 16.3599C2.11448 16.6211 2.46876 16.7679 2.83817 16.7679H16.7667C17.1361 16.7679 17.4905 16.6211 17.7516 16.3599C18.0128 16.0988 18.1596 15.7444 18.1596 15.375V13.2857H18.856C19.0407 13.2857 19.2179 13.2124 19.3485 13.0818C19.4791 12.9512 19.5525 12.774 19.5525 12.5893V8.41075Z" stroke="black" stroke-width="1.5" stroke-linecap="round" stroke-linejoin="round"/>
</svg>
