<svg width="21" height="21" viewBox="0 0 21 21" fill="none" xmlns="http://www.w3.org/2000/svg">
<g clip-path="url(#clip0_146_399055)">
<path d="M18.1596 15.375H2.83817C2.06892 15.375 1.44531 15.9986 1.44531 16.7679V18.1607C1.44531 18.93 2.06892 19.5536 2.83817 19.5536H18.1596C18.9289 19.5536 19.5525 18.93 19.5525 18.1607V16.7679C19.5525 15.9986 18.9289 15.375 18.1596 15.375Z" stroke="black" stroke-width="1.5" stroke-linecap="round" stroke-linejoin="round"/>
<path d="M2.83984 15.3752V11.1966C2.83984 9.16486 3.64695 7.21632 5.08361 5.77966C6.52027 4.34299 8.46881 3.53589 10.5006 3.53589C12.5323 3.53589 14.4808 4.34299 15.9175 5.77966C17.3541 7.21632 18.1613 9.16486 18.1613 11.1966V15.3752" stroke="black" stroke-width="1.5" stroke-linecap="round" stroke-linejoin="round"/>
<path d="M10.5 3.53582V1.44653" stroke="black" stroke-width="1.5" stroke-linecap="round" stroke-linejoin="round"/>
</g>
<defs>
<clipPath id="clip0_146_399055">
<rect width="21" height="21" fill="white"/>
</clipPath>
</defs>
</svg>
