<svg width="21" height="21" viewBox="0 0 21 21" fill="none" xmlns="http://www.w3.org/2000/svg">
<path d="M15.5759 9.28967C13.5234 9.28967 11.8594 10.9537 11.8594 13.0063H19.2927C19.2927 10.9537 17.6286 9.28967 15.5759 9.28967Z" stroke="black" stroke-width="1.5" stroke-linecap="round" stroke-linejoin="round"/>
<path d="M11.8594 13.0062C11.8594 15.0589 13.5234 16.7229 15.5759 16.7229C16.6579 16.7229 17.6314 16.2595 18.3107 15.5216C18.4184 15.4046 18.5186 15.2806 18.6108 15.1505" stroke="black" stroke-width="1.5" stroke-linecap="round" stroke-linejoin="round"/>
<path d="M13.0938 5.5769H18.0493" stroke="black" stroke-width="1.5" stroke-linecap="round" stroke-linejoin="round"/>
<path d="M1.94531 10.53H6.10311M1.94531 10.53V16.7243H6.10311C8.01669 16.7243 9.56794 15.3377 9.56794 13.6272C9.56794 11.9166 8.01669 10.53 6.10311 10.53M1.94531 10.53V4.33557H6.10311C8.01669 4.33557 9.56794 5.72223 9.56794 7.43277C9.56794 9.14331 8.01669 10.53 6.10311 10.53" stroke="black" stroke-width="1.5" stroke-linecap="round" stroke-linejoin="round"/>
</svg>
