<svg width="21" height="21" viewBox="0 0 21 21" fill="none" xmlns="http://www.w3.org/2000/svg">
<g clip-path="url(#clip0_146_399060)">
<path d="M10.5006 10.8483C10.3082 10.8483 10.1523 10.6924 10.1523 10.5001C10.1523 10.3078 10.3082 10.1519 10.5006 10.1519" stroke="black" stroke-width="1.5" stroke-linecap="round" stroke-linejoin="round"/>
<path d="M10.5 10.8483C10.6923 10.8483 10.8482 10.6924 10.8482 10.5001C10.8482 10.3078 10.6923 10.1519 10.5 10.1519" stroke="black" stroke-width="1.5" stroke-linecap="round" stroke-linejoin="round"/>
<path d="M6.04353 10.8483C5.85121 10.8483 5.69531 10.6924 5.69531 10.5001C5.69531 10.3078 5.85121 10.1519 6.04353 10.1519" stroke="black" stroke-width="1.5" stroke-linecap="round" stroke-linejoin="round"/>
<path d="M6.04297 10.8483C6.23529 10.8483 6.39118 10.6924 6.39118 10.5001C6.39118 10.3078 6.23529 10.1519 6.04297 10.1519" stroke="black" stroke-width="1.5" stroke-linecap="round" stroke-linejoin="round"/>
<path d="M14.9576 10.8483C14.7652 10.8483 14.6094 10.6924 14.6094 10.5001C14.6094 10.3078 14.7652 10.1519 14.9576 10.1519" stroke="black" stroke-width="1.5" stroke-linecap="round" stroke-linejoin="round"/>
<path d="M14.957 10.8483C15.1494 10.8483 15.3052 10.6924 15.3052 10.5001C15.3052 10.3078 15.1494 10.1519 14.957 10.1519" stroke="black" stroke-width="1.5" stroke-linecap="round" stroke-linejoin="round"/>
<path d="M10.4989 19.5537C15.4991 19.5537 19.5525 15.5003 19.5525 10.5001C19.5525 5.49996 15.4991 1.44653 10.4989 1.44653C5.49874 1.44653 1.44531 5.49996 1.44531 10.5001C1.44531 15.5003 5.49874 19.5537 10.4989 19.5537Z" stroke="black" stroke-width="1.5" stroke-linecap="round" stroke-linejoin="round"/>
<path d="M7.01562 7.71443L10.4978 4.92871L13.9799 7.71443" stroke="black" stroke-width="1.5" stroke-linecap="round" stroke-linejoin="round"/>
<path d="M7.01562 13.2859L10.4978 16.0716L13.9799 13.2859" stroke="black" stroke-width="1.5" stroke-linecap="round" stroke-linejoin="round"/>
</g>
<defs>
<clipPath id="clip0_146_399060">
<rect width="21" height="21" fill="white"/>
</clipPath>
</defs>
</svg>
