<svg width="20" height="20" viewBox="0 0 20 20" fill="none" xmlns="http://www.w3.org/2000/svg">
<g id="binder-clip-36" clip-path="url(#clip0_47_140990)">
<g id="binder-clip--binder-clip-clipper-company-office-supplies-work">
<path id="Vector" d="M15.8908 8.68511H17.2014C17.3887 8.68351 17.5743 8.72215 17.7455 8.79839C17.9168 8.87464 18.0697 8.98672 18.1939 9.12708C18.3181 9.26745 18.4107 9.43282 18.4656 9.61206C18.5204 9.79129 18.5363 9.9802 18.5118 10.166L17.5551 17.3741C17.5136 17.6914 17.3573 17.9825 17.1159 18.1925C16.8744 18.4026 16.5646 18.517 16.2447 18.5143H3.74185C3.42187 18.517 3.11195 18.4026 2.87053 18.1925C2.62911 17.9825 2.47288 17.6914 2.43128 17.3741L1.48768 10.166C1.46346 9.9813 1.47891 9.79351 1.533 9.61521C1.58709 9.43691 1.67858 9.27218 1.80137 9.13204C1.92415 8.99189 2.07541 8.87953 2.24505 8.80246C2.41469 8.7254 2.59881 8.68538 2.78514 8.68511H4.0957" stroke="black" stroke-width="1.5" stroke-linecap="round" stroke-linejoin="round"/>
<path id="Vector_2" d="M14.5277 18.5139L13.132 12.2887L11.7363 6.06353H12.2867C12.895 6.06353 13.4783 5.82189 13.9084 5.39178C14.3386 4.96167 14.5802 4.37831 14.5802 3.77004C14.5802 3.16177 14.3386 2.57842 13.9084 2.1483C13.4783 1.7182 12.895 1.47656 12.2867 1.47656H7.69973C7.09147 1.47656 6.50811 1.7182 6.078 2.1483C5.64789 2.57842 5.40625 3.16177 5.40625 3.77004C5.40625 4.37831 5.64789 4.96167 6.078 5.39178C6.50811 5.82189 7.09147 6.06353 7.69973 6.06353H8.23707L6.84786 12.2887L5.45867 18.5139" stroke="black" stroke-width="1.5" stroke-linecap="round" stroke-linejoin="round"/>
</g>
</g>
<defs>
<clipPath id="clip0_47_140990">
<rect width="20" height="20" fill="white"/>
</clipPath>
</defs>
</svg>
