<svg width="20" height="20" viewBox="0 0 20 20" fill="none" xmlns="http://www.w3.org/2000/svg">
<g id="binoculars-6" clip-path="url(#clip0_47_140994)">
<g id="binoculars--binocular-binoculars-view-zoom">
<path id="Vector" d="M4.71373 18.5892C6.53824 18.5892 8.0173 17.1101 8.0173 15.2856C8.0173 13.4611 6.53824 11.9821 4.71373 11.9821C2.88922 11.9821 1.41016 13.4611 1.41016 15.2856C1.41016 17.1101 2.88922 18.5892 4.71373 18.5892Z" stroke="black" stroke-width="1.5" stroke-linecap="round" stroke-linejoin="round"/>
<path id="Vector_2" d="M8.01764 4.71444V2.7323C8.01764 2.38183 7.87841 2.04572 7.6306 1.7979C7.38278 1.55008 7.04668 1.41086 6.69621 1.41086H5.13692C4.82591 1.40521 4.52287 1.50945 4.28115 1.70524C4.03943 1.90103 3.87455 2.17582 3.81549 2.48123L1.47656 14.6252" stroke="black" stroke-width="1.5" stroke-linecap="round" stroke-linejoin="round"/>
<path id="Vector_3" d="M6.69531 8.01782H13.3025" stroke="black" stroke-width="1.5" stroke-linecap="round" stroke-linejoin="round"/>
<path id="Vector_4" d="M8.01562 11.3214V15.2857" stroke="black" stroke-width="1.5" stroke-linecap="round" stroke-linejoin="round"/>
<path id="Vector_5" d="M15.284 18.5892C17.1085 18.5892 18.5876 17.1101 18.5876 15.2856C18.5876 13.4611 17.1085 11.9821 15.284 11.9821C13.4595 11.9821 11.9805 13.4611 11.9805 15.2856C11.9805 17.1101 13.4595 18.5892 15.284 18.5892Z" stroke="black" stroke-width="1.5" stroke-linecap="round" stroke-linejoin="round"/>
<path id="Vector_6" d="M11.9805 4.71444V2.7323C11.9805 2.38183 12.1197 2.04572 12.3675 1.7979C12.6153 1.55008 12.9514 1.41086 13.3019 1.41086H14.8612C15.1722 1.40521 15.4753 1.50945 15.7169 1.70524C15.9586 1.90103 16.1235 2.17582 16.1826 2.48123L18.548 14.6252" stroke="black" stroke-width="1.5" stroke-linecap="round" stroke-linejoin="round"/>
<path id="Vector_7" d="M11.9805 11.3214V15.2857" stroke="black" stroke-width="1.5" stroke-linecap="round" stroke-linejoin="round"/>
</g>
</g>
<defs>
<clipPath id="clip0_47_140994">
<rect width="20" height="20" fill="white"/>
</clipPath>
</defs>
</svg>
