<svg width="20" height="20" viewBox="0 0 20 20" fill="none" xmlns="http://www.w3.org/2000/svg">
<g id="block-bell-notification-54" clip-path="url(#clip0_47_141663)">
<g id="block-bell-notification--notification-alarm-alert-bell-block">
<path id="Vector" d="M7.35547 18.5893H9.99833" stroke="black" stroke-width="1.5" stroke-linecap="round" stroke-linejoin="round"/>
<path id="Vector_2" d="M6.66944 3.78937C5.70002 4.18762 4.87087 4.86508 4.28736 5.73565C3.70383 6.60622 3.39229 7.63062 3.3923 8.67865V13.3037C3.3923 13.8293 3.18346 14.3335 2.81174 14.7052C2.44002 15.0769 1.93585 15.2857 1.41016 15.2857H15.9459C15.4202 15.2857 14.9159 15.0769 14.5442 14.7052C14.1725 14.3335 13.9637 13.8293 13.9637 13.3037" stroke="black" stroke-width="1.5" stroke-linecap="round" stroke-linejoin="round"/>
<path id="Vector_3" d="M14.2946 9.99999C11.9228 9.99999 10 8.07722 10 5.70535C10 3.33348 11.9228 1.41071 14.2946 1.41071C16.6665 1.41071 18.5893 3.33348 18.5893 5.70535C18.5893 8.07722 16.6665 9.99999 14.2946 9.99999Z" stroke="black" stroke-width="1.5" stroke-linecap="round" stroke-linejoin="round"/>
<path id="Vector_4" d="M17.3325 8.74459L11.2539 2.66602" stroke="black" stroke-width="1.5" stroke-linecap="round" stroke-linejoin="round"/>
</g>
</g>
<defs>
<clipPath id="clip0_47_141663">
<rect width="20" height="20" fill="white"/>
</clipPath>
</defs>
</svg>
