<svg width="20" height="20" viewBox="0 0 20 20" fill="none" xmlns="http://www.w3.org/2000/svg">
<g id="border-top-13" clip-path="url(#clip0_47_145707)">
<g id="border-top--border-cell-format-formatting-top">
<path id="Vector" d="M18.5882 15.9473V17.2687C18.5882 17.6191 18.4489 17.9553 18.2011 18.2031C17.9534 18.4508 17.6172 18.5901 17.2667 18.5901H15.9453" stroke="black" stroke-width="1.5" stroke-linecap="round" stroke-linejoin="round"/>
<path id="Vector_2" d="M18.5898 8.01855V11.9828" stroke="black" stroke-width="1.5" stroke-linecap="round" stroke-linejoin="round"/>
<path id="Vector_3" d="M11.9799 18.5898H8.01562" stroke="black" stroke-width="1.5" stroke-linecap="round" stroke-linejoin="round"/>
<path id="Vector_4" d="M18.5887 1.41113H1.41016" stroke="black" stroke-width="1.5" stroke-linecap="round" stroke-linejoin="round"/>
<path id="Vector_5" d="M11.9799 10H8.01562" stroke="black" stroke-width="1.5" stroke-linecap="round" stroke-linejoin="round"/>
<path id="Vector_6" d="M10 11.9828V8.01855" stroke="black" stroke-width="1.5" stroke-linecap="round" stroke-linejoin="round"/>
<path id="Vector_7" d="M10 18.5901V15.9473" stroke="black" stroke-width="1.5" stroke-linecap="round" stroke-linejoin="round"/>
<path id="Vector_8" d="M1.41016 15.9473V17.2687C1.41016 17.6191 1.54938 17.9553 1.79719 18.2031C2.04501 18.4508 2.38112 18.5901 2.73158 18.5901H4.05301" stroke="black" stroke-width="1.5" stroke-linecap="round" stroke-linejoin="round"/>
<path id="Vector_9" d="M1.41016 8.01855V11.9828" stroke="black" stroke-width="1.5" stroke-linecap="round" stroke-linejoin="round"/>
<path id="Vector_10" d="M18.5882 10H15.9453" stroke="black" stroke-width="1.5" stroke-linecap="round" stroke-linejoin="round"/>
<path id="Vector_11" d="M4.05301 10H1.41016" stroke="black" stroke-width="1.5" stroke-linecap="round" stroke-linejoin="round"/>
</g>
</g>
<defs>
<clipPath id="clip0_47_145707">
<rect width="20" height="20" fill="white"/>
</clipPath>
</defs>
</svg>
