<svg width="20" height="20" viewBox="0 0 20 20" fill="none" xmlns="http://www.w3.org/2000/svg">
<g id="border-left-23" clip-path="url(#clip0_47_145665)">
<g id="border-left--border-cell-format-formatting-left">
<path id="Vector" d="M15.9453 1.41113H17.2667C17.6172 1.41113 17.9534 1.55035 18.2011 1.79817C18.4489 2.04599 18.5882 2.38209 18.5882 2.73256V4.05399" stroke="black" stroke-width="1.5" stroke-linecap="round" stroke-linejoin="round"/>
<path id="Vector_2" d="M8.01562 1.41113H11.9799" stroke="black" stroke-width="1.5" stroke-linecap="round" stroke-linejoin="round"/>
<path id="Vector_3" d="M18.5898 8.01855V11.9828" stroke="black" stroke-width="1.5" stroke-linecap="round" stroke-linejoin="round"/>
<path id="Vector_4" d="M1.41016 1.41113V18.5897" stroke="black" stroke-width="1.5" stroke-linecap="round" stroke-linejoin="round"/>
<path id="Vector_5" d="M10 8.01855V11.9828" stroke="black" stroke-width="1.5" stroke-linecap="round" stroke-linejoin="round"/>
<path id="Vector_6" d="M11.9799 10H8.01562" stroke="black" stroke-width="1.5" stroke-linecap="round" stroke-linejoin="round"/>
<path id="Vector_7" d="M18.5882 10H15.9453" stroke="black" stroke-width="1.5" stroke-linecap="round" stroke-linejoin="round"/>
<path id="Vector_8" d="M15.9453 18.5901H17.2667C17.6172 18.5901 17.9534 18.4508 18.2011 18.2031C18.4489 17.9553 18.5882 17.6191 18.5882 17.2687V15.9473" stroke="black" stroke-width="1.5" stroke-linecap="round" stroke-linejoin="round"/>
<path id="Vector_9" d="M8.01562 18.5898H11.9799" stroke="black" stroke-width="1.5" stroke-linecap="round" stroke-linejoin="round"/>
<path id="Vector_10" d="M10 1.41113V4.05399" stroke="black" stroke-width="1.5" stroke-linecap="round" stroke-linejoin="round"/>
<path id="Vector_11" d="M10 15.9473V18.5901" stroke="black" stroke-width="1.5" stroke-linecap="round" stroke-linejoin="round"/>
</g>
</g>
<defs>
<clipPath id="clip0_47_145665">
<rect width="20" height="20" fill="white"/>
</clipPath>
</defs>
</svg>
