<svg width="21" height="21" viewBox="0 0 21 21" fill="none" xmlns="http://www.w3.org/2000/svg">
<path d="M10.5006 13.2855C12.0391 13.2855 13.2863 12.0383 13.2863 10.4998C13.2863 8.96132 12.0391 7.71411 10.5006 7.71411C8.96205 7.71411 7.71484 8.96132 7.71484 10.4998C7.71484 12.0383 8.96205 13.2855 10.5006 13.2855Z" stroke="black" stroke-width="1.5" stroke-linecap="round" stroke-linejoin="round"/>
<path d="M9.80317 13.202L3.1871 14.9152C2.97761 14.9695 2.75837 14.9741 2.54677 14.9288C2.33517 14.8835 2.13703 14.7895 1.96806 14.6544C1.79909 14.5192 1.66394 14.3466 1.57332 14.1501C1.48271 13.9535 1.43912 13.7386 1.44602 13.5224V7.42164C1.43912 7.20538 1.48271 6.99046 1.57332 6.79395C1.66394 6.59746 1.79909 6.42478 1.96806 6.2896C2.13703 6.15442 2.33517 6.06048 2.54677 6.01521C2.75837 5.96993 2.97761 5.97458 3.1871 6.02879L9.80317 7.79772" stroke="black" stroke-width="1.5" stroke-linecap="round" stroke-linejoin="round"/>
<path d="M11.1953 13.202L17.8114 14.9152C18.0209 14.9695 18.2401 14.9741 18.4517 14.9288C18.6633 14.8835 18.8615 14.7895 19.0304 14.6544C19.1994 14.5192 19.3345 14.3466 19.4251 14.1501C19.5158 13.9535 19.5594 13.7386 19.5525 13.5224V7.42164C19.5594 7.20538 19.5158 6.99046 19.4251 6.79395C19.3345 6.59746 19.1994 6.42478 19.0304 6.2896C18.8615 6.15442 18.6633 6.06048 18.4517 6.01521C18.2401 5.96993 18.0209 5.97458 17.8114 6.02879L11.1953 7.79772" stroke="black" stroke-width="1.5" stroke-linecap="round" stroke-linejoin="round"/>
</svg>
