<svg width="20" height="20" viewBox="0 0 20 20" fill="none" xmlns="http://www.w3.org/2000/svg">
<g id="broken-link-1-2" clip-path="url(#clip0_47_146028)">
<g id="broken-link-1--break-broken-hyperlink-link-remove-unlink-chain">
<path id="Vector" d="M4.90635 10.1641L2.43761 12.6328C1.7846 13.2885 1.41797 14.1761 1.41797 15.1015C1.41797 16.0269 1.7846 16.9147 2.43761 17.5704C3.09329 18.2233 3.98097 18.59 4.90635 18.59C5.83173 18.59 6.71943 18.2233 7.37511 17.5704L8.84051 16.1049" stroke="black" stroke-width="1.5" stroke-linecap="round" stroke-linejoin="round"/>
<path id="Vector_2" d="M12.643 13.2929H15.0986C16.0229 13.2929 16.9095 12.9257 17.5631 12.272C18.2166 11.6184 18.5839 10.7319 18.5839 9.80756C18.5839 8.88321 18.2166 7.99671 17.5631 7.34308C16.9095 6.68946 16.0229 6.32227 15.0986 6.32227H11.6133" stroke="black" stroke-width="1.5" stroke-linecap="round" stroke-linejoin="round"/>
<path id="Vector_3" d="M10.0038 1.41113L9.34375 4.05151" stroke="black" stroke-width="1.5" stroke-linecap="round" stroke-linejoin="round"/>
<path id="Vector_4" d="M1.42188 5.37109L4.06226 6.69128" stroke="black" stroke-width="1.5" stroke-linecap="round" stroke-linejoin="round"/>
<path id="Vector_5" d="M4.72266 1.41113L6.04284 4.05151" stroke="black" stroke-width="1.5" stroke-linecap="round" stroke-linejoin="round"/>
</g>
</g>
<defs>
<clipPath id="clip0_47_146028">
<rect width="20" height="20" fill="white"/>
</clipPath>
</defs>
</svg>
