<svg width="21" height="21" viewBox="0 0 21 21" fill="none" xmlns="http://www.w3.org/2000/svg">
<g clip-path="url(#clip0_146_400006)">
<path d="M4.92578 7.71439V2.83939C4.92578 2.46998 5.07253 2.1157 5.33374 1.85449C5.59495 1.59328 5.94923 1.44653 6.31864 1.44653H18.1579C18.5273 1.44653 18.8817 1.59328 19.1428 1.85449C19.404 2.1157 19.5508 2.46998 19.5508 2.83939V13.9822C19.5508 14.3517 19.404 14.706 19.1428 14.9671C18.8817 15.2283 18.5273 15.3751 18.1579 15.3751H16.0686" stroke="black" stroke-width="1.5" stroke-linecap="round" stroke-linejoin="round"/>
<path d="M4.92578 5.625H19.5508" stroke="black" stroke-width="1.5" stroke-linecap="round" stroke-linejoin="round"/>
<path d="M11.1953 11.1965H2.83817C2.06892 11.1965 1.44531 11.8201 1.44531 12.5894V18.1608C1.44531 18.9301 2.06892 19.5537 2.83817 19.5537H11.1953C11.9646 19.5537 12.5882 18.9301 12.5882 18.1608V12.5894C12.5882 11.8201 11.9646 11.1965 11.1953 11.1965Z" stroke="black" stroke-width="1.5" stroke-linecap="round" stroke-linejoin="round"/>
<path d="M1.44531 14.6787H12.5882" stroke="black" stroke-width="1.5" stroke-linecap="round" stroke-linejoin="round"/>
</g>
<defs>
<clipPath id="clip0_146_400006">
<rect width="21" height="21" fill="white"/>
</clipPath>
</defs>
</svg>
