<svg width="21" height="21" viewBox="0 0 21 21" fill="none" xmlns="http://www.w3.org/2000/svg">
<g clip-path="url(#clip0_146_399958)">
<path d="M11.0941 7.73586C11.3041 7.64652 11.4941 7.85498 11.4041 8.00388C11.0886 8.54947 10.8784 9.14867 10.7841 9.77074C10.7242 10.1755 10.7242 10.5869 10.7841 10.9917C10.808 11.136 10.8414 11.2786 10.8841 11.4185C10.9796 11.7472 11.1393 12.0542 11.3541 12.3218C11.3758 12.3487 11.4031 12.3707 11.4342 12.3861C11.4653 12.4015 11.4993 12.41 11.5341 12.4111C11.5697 12.4127 11.6052 12.4064 11.6381 12.3927C11.6709 12.379 11.7003 12.3581 11.724 12.3317L12.004 12.0438C12.0861 11.9523 12.1629 11.8562 12.234 11.756C12.3064 11.6663 12.3701 11.5699 12.424 11.4681C12.474 11.3689 12.6539 11.21 12.9139 11.4681C13.5145 11.9591 13.9225 12.7821 13.8438 13.5725C13.8329 14.166 13.6526 14.7442 13.3239 15.2401C12.9941 15.6786 12.5671 16.0357 12.076 16.284C11.5848 16.5323 11.0426 16.6649 10.4915 16.6715C9.94032 16.6784 9.39503 16.559 8.89785 16.3228C8.40067 16.0865 7.96495 15.7399 7.62448 15.3096C7.31475 14.782 7.14931 14.1831 7.14453 13.5725C7.14461 12.425 7.49307 11.3043 8.14442 10.3564C8.85876 9.22398 9.88143 8.31546 11.0941 7.73586Z" stroke="black" stroke-width="1.5" stroke-linecap="round" stroke-linejoin="round"/>
<path d="M1.44531 5.61621H19.5525" stroke="black" stroke-width="1.5" stroke-linecap="round" stroke-linejoin="round"/>
<path d="M18.1596 1.44653H2.83817C2.06892 1.44653 1.44531 2.07014 1.44531 2.83939V18.1608C1.44531 18.9301 2.06892 19.5537 2.83817 19.5537H18.1596C18.9289 19.5537 19.5525 18.9301 19.5525 18.1608V2.83939C19.5525 2.07014 18.9289 1.44653 18.1596 1.44653Z" stroke="black" stroke-width="1.5" stroke-linecap="round" stroke-linejoin="round"/>
</g>
<defs>
<clipPath id="clip0_146_399958">
<rect width="21" height="21" fill="white"/>
</clipPath>
</defs>
</svg>
