<svg width="21" height="21" viewBox="0 0 21 21" fill="none" xmlns="http://www.w3.org/2000/svg">
<g clip-path="url(#clip0_146_399986)">
<path d="M1.44531 5.61621H19.5525" stroke="black" stroke-width="1.5" stroke-linecap="round" stroke-linejoin="round"/>
<path d="M8.03914 16.1047C9.34871 16.1047 10.4103 15.0431 10.4103 13.7335C10.4103 12.4239 9.34871 11.3623 8.03914 11.3623C6.72958 11.3623 5.66797 12.4239 5.66797 13.7335C5.66797 15.0431 6.72958 16.1047 8.03914 16.1047Z" stroke="black" stroke-width="1.5" stroke-linecap="round" stroke-linejoin="round"/>
<path d="M9.75391 12.0942L13.0094 8.77464C13.0568 8.72621 13.113 8.68776 13.1749 8.66155C13.2369 8.63532 13.3033 8.62183 13.3703 8.62183C13.4374 8.62183 13.5038 8.63532 13.5657 8.66155C13.6277 8.68776 13.6839 8.72621 13.7313 8.77464L15.3306 10.4343" stroke="black" stroke-width="1.5" stroke-linecap="round" stroke-linejoin="round"/>
<path d="M11.4414 10.3733L12.9019 11.8338" stroke="black" stroke-width="1.5" stroke-linecap="round" stroke-linejoin="round"/>
<path d="M18.1596 1.44653H2.83817C2.06892 1.44653 1.44531 2.07014 1.44531 2.83939V18.1608C1.44531 18.9301 2.06892 19.5537 2.83817 19.5537H18.1596C18.9289 19.5537 19.5525 18.9301 19.5525 18.1608V2.83939C19.5525 2.07014 18.9289 1.44653 18.1596 1.44653Z" stroke="black" stroke-width="1.5" stroke-linecap="round" stroke-linejoin="round"/>
</g>
<defs>
<clipPath id="clip0_146_399986">
<rect width="21" height="21" fill="white"/>
</clipPath>
</defs>
</svg>
