<svg width="21" height="21" viewBox="0 0 21 21" fill="none" xmlns="http://www.w3.org/2000/svg">
<g clip-path="url(#clip0_146_399939)">
<path d="M1.44531 5.61621H19.5525" stroke="black" stroke-width="1.5" stroke-linecap="round" stroke-linejoin="round"/>
<path d="M18.1596 1.44653H2.83817C2.06892 1.44653 1.44531 2.07014 1.44531 2.83939V18.1608C1.44531 18.9301 2.06892 19.5537 2.83817 19.5537H18.1596C18.9289 19.5537 19.5525 18.9301 19.5525 18.1608V2.83939C19.5525 2.07014 18.9289 1.44653 18.1596 1.44653Z" stroke="black" stroke-width="1.5" stroke-linecap="round" stroke-linejoin="round"/>
<path d="M7.09766 14.0818C7.76113 14.7565 8.93295 15.3751 10.5007 15.3751C12.0684 15.3751 13.2402 14.7565 13.9037 14.0818" stroke="black" stroke-width="1.5" stroke-linecap="round" stroke-linejoin="round"/>
<path d="M8.06336 10.5008C7.87089 10.5008 7.71484 10.3447 7.71484 10.1522C7.71484 9.95975 7.87089 9.80371 8.06336 9.80371" stroke="black" stroke-width="1.5" stroke-linecap="round" stroke-linejoin="round"/>
<path d="M8.0625 10.5005C8.25498 10.5005 8.41102 10.3445 8.41102 10.152C8.41102 9.95951 8.25498 9.80347 8.0625 9.80347" stroke="black" stroke-width="1.5" stroke-linecap="round" stroke-linejoin="round"/>
<path d="M12.9381 10.5001C12.7457 10.5001 12.5898 10.3442 12.5898 10.1519C12.5898 9.95961 12.7457 9.80371 12.9381 9.80371" stroke="black" stroke-width="1.5" stroke-linecap="round" stroke-linejoin="round"/>
<path d="M12.9375 10.4999C13.1298 10.4999 13.2857 10.344 13.2857 10.1517C13.2857 9.95937 13.1298 9.80347 12.9375 9.80347" stroke="black" stroke-width="1.5" stroke-linecap="round" stroke-linejoin="round"/>
</g>
<defs>
<clipPath id="clip0_146_399939">
<rect width="21" height="21" fill="white"/>
</clipPath>
</defs>
</svg>
