<svg width="21" height="21" viewBox="0 0 21 21" fill="none" xmlns="http://www.w3.org/2000/svg">
<g clip-path="url(#clip0_146_400040)">
<path d="M10.7167 16.2946C10.5765 16.3453 10.4229 16.3453 10.2826 16.2946C9.21778 15.8727 8.30408 15.1409 7.65984 14.1939C7.01561 13.2469 6.6705 12.1283 6.6692 10.9829V9.31029C6.66401 9.22938 6.67526 9.14826 6.7023 9.07183C6.72932 8.99539 6.77155 8.92524 6.82644 8.86557C6.88133 8.8059 6.94775 8.75798 7.02166 8.72469C7.09558 8.6914 7.17548 8.67344 7.25654 8.67188H13.7428C13.8239 8.67344 13.9038 8.6914 13.9777 8.72469C14.0516 8.75798 14.118 8.8059 14.1729 8.86557C14.2278 8.92524 14.2701 8.99539 14.2971 9.07183C14.3241 9.14826 14.3354 9.22938 14.3302 9.31029V10.9829C14.3289 12.1283 13.9838 13.2469 13.3395 14.1939C12.6953 15.1409 11.7816 15.8727 10.7167 16.2946Z" stroke="black" stroke-width="1.5" stroke-linecap="round" stroke-linejoin="round"/>
<path d="M1.44531 5.61621H19.5525" stroke="black" stroke-width="1.5" stroke-linecap="round" stroke-linejoin="round"/>
<path d="M18.1596 1.44653H2.83817C2.06892 1.44653 1.44531 2.07014 1.44531 2.83939V18.1608C1.44531 18.9301 2.06892 19.5537 2.83817 19.5537H18.1596C18.9289 19.5537 19.5525 18.9301 19.5525 18.1608V2.83939C19.5525 2.07014 18.9289 1.44653 18.1596 1.44653Z" stroke="black" stroke-width="1.5" stroke-linecap="round" stroke-linejoin="round"/>
</g>
<defs>
<clipPath id="clip0_146_400040">
<rect width="21" height="21" fill="white"/>
</clipPath>
</defs>
</svg>
