<svg width="21" height="21" viewBox="0 0 21 21" fill="none" xmlns="http://www.w3.org/2000/svg">
<g clip-path="url(#clip0_146_399968)">
<path d="M1.44531 5.61621H19.5525" stroke="black" stroke-width="1.5" stroke-linecap="round" stroke-linejoin="round"/>
<path d="M18.1596 1.44653H2.83817C2.06892 1.44653 1.44531 2.07014 1.44531 2.83939V18.1608C1.44531 18.9301 2.06892 19.5537 2.83817 19.5537H18.1596C18.9289 19.5537 19.5525 18.9301 19.5525 18.1608V2.83939C19.5525 2.07014 18.9289 1.44653 18.1596 1.44653Z" stroke="black" stroke-width="1.5" stroke-linecap="round" stroke-linejoin="round"/>
<path d="M10.8049 8.51237L11.8404 10.5954C11.8635 10.6481 11.9003 10.6937 11.9468 10.7276C11.9933 10.7614 12.048 10.7823 12.1053 10.7881L14.4051 11.1373C14.4709 11.1458 14.5328 11.173 14.5837 11.2154C14.6346 11.2579 14.6724 11.314 14.6926 11.3771C14.7128 11.4403 14.7146 11.5079 14.6979 11.572C14.6811 11.6362 14.6463 11.6942 14.5978 11.7393L12.9 13.3528C12.8747 13.4011 12.8615 13.4548 12.8615 13.5094C12.8615 13.5639 12.8747 13.6176 12.9 13.6659L13.2251 15.9537C13.239 16.0198 13.2334 16.0885 13.2089 16.1516C13.1845 16.2145 13.1424 16.2691 13.0876 16.3086C13.0327 16.3481 12.9676 16.3708 12.9002 16.3742C12.8327 16.3774 12.7657 16.3609 12.7073 16.3269L10.6604 15.2433C10.6074 15.2193 10.5499 15.2069 10.4918 15.2069C10.4337 15.2069 10.3762 15.2193 10.3232 15.2433L8.27627 16.3269C8.21792 16.3609 8.15094 16.3774 8.08344 16.3742C8.01595 16.3708 7.95087 16.3481 7.89606 16.3086C7.84125 16.2691 7.79907 16.2145 7.77467 16.1516C7.75025 16.0885 7.74464 16.0198 7.75851 15.9537L8.14382 13.6659C8.16039 13.6128 8.16356 13.5564 8.15305 13.5018C8.14255 13.4472 8.11869 13.396 8.08362 13.3528L6.38584 11.7273C6.34081 11.6817 6.3092 11.6245 6.29448 11.5622C6.27977 11.4998 6.2825 11.4345 6.30241 11.3736C6.3223 11.3127 6.35859 11.2584 6.40729 11.2167C6.45598 11.175 6.51522 11.1475 6.5785 11.1373L8.87831 10.8001C8.93557 10.7943 8.99026 10.7735 9.03681 10.7396C9.08334 10.7058 9.12006 10.6602 9.14322 10.6075L10.1787 8.52441C10.2064 8.46545 10.2501 8.4154 10.3048 8.37996C10.3594 8.34449 10.4229 8.32505 10.4881 8.3238C10.5532 8.32254 10.6174 8.33953 10.6734 8.37287C10.7294 8.40618 10.7749 8.45451 10.8049 8.51237Z" stroke="black" stroke-width="1.5" stroke-linecap="round" stroke-linejoin="round"/>
</g>
<defs>
<clipPath id="clip0_146_399968">
<rect width="21" height="21" fill="white"/>
</clipPath>
</defs>
</svg>
