<svg width="21" height="21" viewBox="0 0 21 21" fill="none" xmlns="http://www.w3.org/2000/svg">
<g clip-path="url(#clip0_146_400086)">
<path d="M11.0003 19.4143C10.6776 19.5388 10.3202 19.5388 9.99746 19.4143C7.48176 18.4444 5.3185 16.7358 3.79208 14.5133C2.26565 12.2908 1.44755 9.65839 1.44531 6.9622V2.89506C1.44531 2.52564 1.59206 2.17137 1.85327 1.91016C2.11448 1.64894 2.46876 1.5022 2.83817 1.5022H18.1596C18.529 1.5022 18.8833 1.64894 19.1445 1.91016C19.4056 2.17137 19.5525 2.52564 19.5525 2.89506V6.9622C19.5502 9.65839 18.7321 12.2908 17.2056 14.5133C15.6793 16.7358 13.516 18.4444 11.0003 19.4143Z" stroke="black" stroke-width="1.5" stroke-linecap="round" stroke-linejoin="round"/>
<path d="M13.2863 10.5V7.7143C13.2863 6.1758 12.0391 4.92859 10.5006 4.92859C8.96205 4.92859 7.71484 6.1758 7.71484 7.7143V10.5C7.71484 12.0385 8.96205 13.2857 10.5006 13.2857C12.0391 13.2857 13.2863 12.0385 13.2863 10.5Z" stroke="black" stroke-width="1.5" stroke-linecap="round" stroke-linejoin="round"/>
<path d="M5.625 9.10718H7.71429" stroke="black" stroke-width="1.5" stroke-linecap="round" stroke-linejoin="round"/>
<path d="M13.2852 9.10718H15.3744" stroke="black" stroke-width="1.5" stroke-linecap="round" stroke-linejoin="round"/>
<path d="M7.71484 8.41077H13.2863" stroke="black" stroke-width="1.5" stroke-linecap="round" stroke-linejoin="round"/>
<path d="M13.0234 6.58261L14.6775 4.92859" stroke="black" stroke-width="1.5" stroke-linecap="round" stroke-linejoin="round"/>
<path d="M13.0234 11.6317L14.6775 13.2857" stroke="black" stroke-width="1.5" stroke-linecap="round" stroke-linejoin="round"/>
<path d="M7.97433 11.6317L6.32031 13.2857" stroke="black" stroke-width="1.5" stroke-linecap="round" stroke-linejoin="round"/>
<path d="M7.97433 6.58261L6.32031 4.92859" stroke="black" stroke-width="1.5" stroke-linecap="round" stroke-linejoin="round"/>
</g>
<defs>
<clipPath id="clip0_146_400086">
<rect width="21" height="21" fill="white"/>
</clipPath>
</defs>
</svg>
