<svg width="21" height="21" viewBox="0 0 21 21" fill="none" xmlns="http://www.w3.org/2000/svg">
<g clip-path="url(#clip0_146_400135)">
<path d="M19.5525 14.6785V15.3749C19.5525 15.5596 19.4791 15.7368 19.3485 15.8674C19.2179 15.998 19.0407 16.0714 18.856 16.0714H2.14174C1.95704 16.0714 1.7799 15.998 1.64929 15.8674C1.51869 15.7368 1.44531 15.5596 1.44531 15.3749V4.23207C1.44531 4.04737 1.51869 3.87022 1.64929 3.73963C1.7799 3.60902 1.95704 3.53564 2.14174 3.53564H5.62388" stroke="black" stroke-width="1.5" stroke-linecap="round" stroke-linejoin="round"/>
<path d="M9.1077 16.0714L7.71484 19.5536" stroke="black" stroke-width="1.5" stroke-linecap="round" stroke-linejoin="round"/>
<path d="M11.8906 16.0714L13.2835 19.5536" stroke="black" stroke-width="1.5" stroke-linecap="round" stroke-linejoin="round"/>
<path d="M6.32031 19.5536H14.6775" stroke="black" stroke-width="1.5" stroke-linecap="round" stroke-linejoin="round"/>
<path d="M9.10547 1.44641L10.9162 3.25713" stroke="black" stroke-width="1.5" stroke-linecap="round" stroke-linejoin="round"/>
<path d="M9.10547 11.1963L10.9162 9.38562" stroke="black" stroke-width="1.5" stroke-linecap="round" stroke-linejoin="round"/>
<path d="M10.4994 6.32141H8.41016" stroke="black" stroke-width="1.5" stroke-linecap="round" stroke-linejoin="round"/>
<path d="M18.8576 1.44641L17.0469 3.25713" stroke="black" stroke-width="1.5" stroke-linecap="round" stroke-linejoin="round"/>
<path d="M18.8576 11.1963L17.0469 9.38562" stroke="black" stroke-width="1.5" stroke-linecap="round" stroke-linejoin="round"/>
<path d="M10.5 4.92855C10.5 4.00503 10.8669 3.11933 11.5199 2.4663C12.1729 1.81328 13.0586 1.44641 13.9821 1.44641C14.9056 1.44641 15.7913 1.81328 16.4444 2.4663C17.0974 3.11933 17.4643 4.00503 17.4643 4.92855V7.71427C17.4643 8.63779 17.0974 9.52349 16.4444 10.1765C15.7913 10.8295 14.9056 11.1964 13.9821 11.1964C13.0586 11.1964 12.1729 10.8295 11.5199 10.1765C10.8669 9.52349 10.5 8.63779 10.5 7.71427V4.92855Z" stroke="black" stroke-width="1.5" stroke-linecap="round" stroke-linejoin="round"/>
<path d="M17.4648 6.32141H19.5541" stroke="black" stroke-width="1.5" stroke-linecap="round" stroke-linejoin="round"/>
<path d="M10.5 5.625H17.4643" stroke="black" stroke-width="1.5" stroke-linecap="round" stroke-linejoin="round"/>
</g>
<defs>
<clipPath id="clip0_146_400135">
<rect width="21" height="21" fill="white"/>
</clipPath>
</defs>
</svg>
