<svg width="20" height="20" viewBox="0 0 20 20" fill="none" xmlns="http://www.w3.org/2000/svg">
<g id="bullet-list-17">
<g id="bullet-list--points-bullet-unordered-list-lists-bullets">
<path id="Vector" d="M2.07087 4.71401C2.43577 4.71401 2.73158 4.41819 2.73158 4.05329C2.73158 3.68839 2.43577 3.39258 2.07087 3.39258C1.70597 3.39258 1.41016 3.68839 1.41016 4.05329C1.41016 4.41819 1.70597 4.71401 2.07087 4.71401Z" stroke="black" stroke-width="1.5" stroke-linecap="round" stroke-linejoin="round"/>
<path id="Vector_2" d="M6.69531 4.05371H18.5882" stroke="black" stroke-width="1.5" stroke-linecap="round" stroke-linejoin="round"/>
<path id="Vector_3" d="M2.07087 10.6603C2.43577 10.6603 2.73158 10.3645 2.73158 9.99958C2.73158 9.63468 2.43577 9.33887 2.07087 9.33887C1.70597 9.33887 1.41016 9.63468 1.41016 9.99958C1.41016 10.3645 1.70597 10.6603 2.07087 10.6603Z" stroke="black" stroke-width="1.5" stroke-linecap="round" stroke-linejoin="round"/>
<path id="Vector_4" d="M6.69531 10H18.5882" stroke="black" stroke-width="1.5" stroke-linecap="round" stroke-linejoin="round"/>
<path id="Vector_5" d="M2.07087 16.6066C2.43577 16.6066 2.73158 16.3107 2.73158 15.9459C2.73158 15.581 2.43577 15.2852 2.07087 15.2852C1.70597 15.2852 1.41016 15.581 1.41016 15.9459C1.41016 16.3107 1.70597 16.6066 2.07087 16.6066Z" stroke="black" stroke-width="1.5" stroke-linecap="round" stroke-linejoin="round"/>
<path id="Vector_6" d="M6.69531 15.9463H18.5882" stroke="black" stroke-width="1.5" stroke-linecap="round" stroke-linejoin="round"/>
</g>
</g>
</svg>
