<svg width="21" height="21" viewBox="0 0 21 21" fill="none" xmlns="http://www.w3.org/2000/svg">
<g clip-path="url(#clip0_146_398320)">
<path d="M1.44531 9.10732V6.3216C1.44531 4.78309 2.69252 3.53589 4.23103 3.53589H7.71317" stroke="black" stroke-width="1.5" stroke-linecap="round" stroke-linejoin="round"/>
<path d="M5.625 1.44653L7.71429 3.53582L5.625 5.6251" stroke="black" stroke-width="1.5" stroke-linecap="round" stroke-linejoin="round"/>
<path d="M19.553 11.8931V14.6788C19.553 16.2173 18.3058 17.4645 16.7673 17.4645H13.2852" stroke="black" stroke-width="1.5" stroke-linecap="round" stroke-linejoin="round"/>
<path d="M15.3744 15.375L13.2852 17.4643L15.3744 19.5536" stroke="black" stroke-width="1.5" stroke-linecap="round" stroke-linejoin="round"/>
<path d="M11.1953 5.62503V8.41075C11.1953 9.18 11.8189 9.80361 12.5882 9.80361H18.1596C18.9289 9.80361 19.5525 9.18 19.5525 8.41075V5.62503C19.5525 4.85579 18.9289 4.23218 18.1596 4.23218H12.5882C11.8189 4.23218 11.1953 4.85579 11.1953 5.62503Z" stroke="black" stroke-width="1.5" stroke-linecap="round" stroke-linejoin="round"/>
<path d="M13.6328 4.23225V2.83939C13.6328 2.07014 14.2564 1.44653 15.0257 1.44653H15.7221C16.4914 1.44653 17.115 2.07014 17.115 2.83939V4.23225" stroke="black" stroke-width="1.5" stroke-linecap="round" stroke-linejoin="round"/>
<path d="M1.44531 15.375V18.1608C1.44531 18.93 2.06892 19.5536 2.83817 19.5536H8.4096C9.17884 19.5536 9.80246 18.93 9.80246 18.1608V15.375C9.80246 14.6058 9.17884 13.9822 8.4096 13.9822H2.83817C2.06892 13.9822 1.44531 14.6058 1.44531 15.375Z" stroke="black" stroke-width="1.5" stroke-linecap="round" stroke-linejoin="round"/>
<path d="M3.88281 13.9822V12.5894C3.88281 11.8201 4.50642 11.1965 5.27567 11.1965H5.9721C6.74135 11.1965 7.36496 11.8201 7.36496 12.5894V13.9822" stroke="black" stroke-width="1.5" stroke-linecap="round" stroke-linejoin="round"/>
</g>
<defs>
<clipPath id="clip0_146_398320">
<rect width="21" height="21" fill="white"/>
</clipPath>
</defs>
</svg>
