<svg width="21" height="21" viewBox="0 0 21 21" fill="none" xmlns="http://www.w3.org/2000/svg">
<path d="M6.45703 5.83497C6.45703 6.71989 7.17439 7.43727 8.05932 7.43727C8.28304 7.43727 8.49603 7.39142 8.68946 7.30861C9.26112 7.06384 9.66162 6.49618 9.66162 5.83497C9.66162 4.95004 8.94424 4.23267 8.05932 4.23267C7.17439 4.23267 6.45703 4.95004 6.45703 5.83497Z" stroke="black" stroke-width="1.5" stroke-linecap="round" stroke-linejoin="round"/>
<path d="M5.625 9.0238C5.8796 8.53954 6.23744 8.13931 6.6641 7.86158C7.09076 7.58386 7.57189 7.43799 8.06126 7.43799C8.55063 7.43799 9.03176 7.58386 9.45842 7.86158C9.88508 8.13931 10.2429 8.53954 10.4975 9.0238" stroke="black" stroke-width="1.5" stroke-linecap="round" stroke-linejoin="round"/>
<path d="M18.1613 18.1608C18.1613 18.5302 18.0145 18.8845 17.7533 19.1457C17.4921 19.4069 17.1378 19.5537 16.7684 19.5537H4.2327C3.86329 19.5537 3.50901 19.4069 3.2478 19.1457C2.9866 18.8845 2.83984 18.5302 2.83984 18.1608V2.83939C2.83984 2.46998 2.9866 2.1157 3.2478 1.85449C3.50901 1.59328 3.86329 1.44653 4.2327 1.44653H13.2863L18.1613 6.32153V18.1608Z" stroke="black" stroke-width="1.5" stroke-linecap="round" stroke-linejoin="round"/>
<path d="M5.625 12.5894H15.375" stroke="black" stroke-width="1.5" stroke-linecap="round"/>
<path d="M5.625 16.0715H11.1964" stroke="black" stroke-width="1.5" stroke-linecap="round"/>
</svg>
