<svg width="21" height="21" viewBox="0 0 21 21" fill="none" xmlns="http://www.w3.org/2000/svg">
<path d="M1.51172 5.04663L4.56822 6.69157L7.2965 6.21919C8.21748 6.05974 9.16132 6.32338 9.86634 6.93703" stroke="black" stroke-width="1.5" stroke-linecap="round" stroke-linejoin="round"/>
<path d="M16.4628 13.679L12.1414 16.748C11.1914 17.4227 9.922 17.4348 8.95928 16.7785L1.51172 11.7017" stroke="black" stroke-width="1.5" stroke-linecap="round" stroke-linejoin="round"/>
<path d="M19.4178 11.6692L16.36 13.7586L11.6157 9.92782L9.87059 11.1979C9.161 11.7144 8.16971 11.5752 7.62973 10.8834C7.09099 10.1931 7.19492 9.20031 7.86494 8.63657L9.68204 7.1077C10.5529 6.37493 11.6851 6.02913 12.8168 6.15022L15.6488 6.45322L19.4178 4.41602" stroke="black" stroke-width="1.5" stroke-linecap="round" stroke-linejoin="round"/>
<path d="M11.6133 9.93803C12.7549 10.9551 14.3739 10.4362 14.9758 9.60596" stroke="black" stroke-width="1.5" stroke-linecap="round" stroke-linejoin="round"/>
</svg>
