<svg width="21" height="21" viewBox="0 0 21 21" fill="none" xmlns="http://www.w3.org/2000/svg">
<path d="M16.7684 1.44653H4.2327C3.46345 1.44653 2.83984 2.07014 2.83984 2.83939V18.1608C2.83984 18.9301 3.46345 19.5537 4.2327 19.5537H16.7684C17.5377 19.5537 18.1613 18.9301 18.1613 18.1608V2.83939C18.1613 2.07014 17.5377 1.44653 16.7684 1.44653Z" stroke="black" stroke-width="1.5" stroke-linecap="round" stroke-linejoin="round"/>
<path d="M2.83984 8.41089H18.1613" stroke="black" stroke-width="1.5" stroke-linecap="round" stroke-linejoin="round"/>
<path d="M6.66853 12.5895C6.47621 12.5895 6.32031 12.4336 6.32031 12.2413C6.32031 12.049 6.47621 11.8931 6.66853 11.8931" stroke="black" stroke-width="1.5" stroke-linecap="round" stroke-linejoin="round"/>
<path d="M6.66797 12.5895C6.86028 12.5895 7.01618 12.4336 7.01618 12.2413C7.01618 12.049 6.86028 11.8931 6.66797 11.8931" stroke="black" stroke-width="1.5" stroke-linecap="round" stroke-linejoin="round"/>
<path d="M10.5006 12.5895C10.3082 12.5895 10.1523 12.4336 10.1523 12.2413C10.1523 12.049 10.3082 11.8931 10.5006 11.8931" stroke="black" stroke-width="1.5" stroke-linecap="round" stroke-linejoin="round"/>
<path d="M10.5 12.5895C10.6923 12.5895 10.8482 12.4336 10.8482 12.2413C10.8482 12.049 10.6923 11.8931 10.5 11.8931" stroke="black" stroke-width="1.5" stroke-linecap="round" stroke-linejoin="round"/>
<path d="M14.3326 12.5895C14.1403 12.5895 13.9844 12.4336 13.9844 12.2413C13.9844 12.049 14.1403 11.8931 14.3326 11.8931" stroke="black" stroke-width="1.5" stroke-linecap="round" stroke-linejoin="round"/>
<path d="M14.332 12.5895C14.5243 12.5895 14.6802 12.4336 14.6802 12.2413C14.6802 12.049 14.5243 11.8931 14.332 11.8931" stroke="black" stroke-width="1.5" stroke-linecap="round" stroke-linejoin="round"/>
<path d="M6.66853 16.0714C6.47621 16.0714 6.32031 15.9156 6.32031 15.7232C6.32031 15.5309 6.47621 15.375 6.66853 15.375" stroke="black" stroke-width="1.5" stroke-linecap="round" stroke-linejoin="round"/>
<path d="M6.66797 16.0714C6.86028 16.0714 7.01618 15.9156 7.01618 15.7232C7.01618 15.5309 6.86028 15.375 6.66797 15.375" stroke="black" stroke-width="1.5" stroke-linecap="round" stroke-linejoin="round"/>
<path d="M10.5006 16.0714C10.3082 16.0714 10.1523 15.9156 10.1523 15.7232C10.1523 15.5309 10.3082 15.375 10.5006 15.375" stroke="black" stroke-width="1.5" stroke-linecap="round" stroke-linejoin="round"/>
<path d="M10.5 16.0714C10.6923 16.0714 10.8482 15.9156 10.8482 15.7232C10.8482 15.5309 10.6923 15.375 10.5 15.375" stroke="black" stroke-width="1.5" stroke-linecap="round" stroke-linejoin="round"/>
<path d="M14.3326 16.0714C14.1403 16.0714 13.9844 15.9156 13.9844 15.7232C13.9844 15.5309 14.1403 15.375 14.3326 15.375" stroke="black" stroke-width="1.5" stroke-linecap="round" stroke-linejoin="round"/>
<path d="M14.332 16.0714C14.5243 16.0714 14.6802 15.9156 14.6802 15.7232C14.6802 15.5309 14.5243 15.375 14.332 15.375" stroke="black" stroke-width="1.5" stroke-linecap="round" stroke-linejoin="round"/>
<path d="M14.678 4.92871H13.2852" stroke="black" stroke-width="1.5" stroke-linecap="round" stroke-linejoin="round"/>
</svg>
