<svg width="20" height="20" viewBox="0 0 20 20" fill="none" xmlns="http://www.w3.org/2000/svg">
<g id="calendar-warning-21" clip-path="url(#clip0_47_143528)">
<g id="calendar-warning--alter-calendar-caution-date-day-month-notification-warning">
<path id="Vector" d="M2.73158 3.39282C2.38112 3.39282 2.04501 3.53205 1.79719 3.77986C1.54938 4.02768 1.41016 4.36378 1.41016 4.71425V17.2678C1.41016 17.6183 1.54938 17.9544 1.79719 18.2022C2.04501 18.45 2.38112 18.5893 2.73158 18.5893H17.2673C17.6177 18.5893 17.9539 18.45 18.2017 18.2022C18.4494 17.9544 18.5887 17.6183 18.5887 17.2678V4.71425C18.5887 4.36378 18.4494 4.02768 18.2017 3.77986C17.9539 3.53205 17.6177 3.39282 17.2673 3.39282H14.6244" stroke="black" stroke-width="1.5" stroke-linecap="round" stroke-linejoin="round"/>
<path id="Vector_2" d="M5.375 1.41064V5.37493" stroke="black" stroke-width="1.5" stroke-linecap="round" stroke-linejoin="round"/>
<path id="Vector_3" d="M14.625 1.41064V5.37493" stroke="black" stroke-width="1.5" stroke-linecap="round" stroke-linejoin="round"/>
<path id="Vector_4" d="M5.375 3.39282H11.9821" stroke="black" stroke-width="1.5" stroke-linecap="round" stroke-linejoin="round"/>
<path id="Vector_5" d="M10 6.69629V11.3213" stroke="black" stroke-width="1.5" stroke-linecap="round" stroke-linejoin="round"/>
<g id="Group 2567">
<path id="Vector_6" d="M9.99833 14.9554C9.81588 14.9554 9.66797 14.8075 9.66797 14.625C9.66797 14.4425 9.81588 14.2947 9.99833 14.2947" stroke="black" stroke-width="1.5" stroke-linecap="round" stroke-linejoin="round"/>
<path id="Vector_7" d="M10 14.9554C10.1824 14.9554 10.3304 14.8075 10.3304 14.625C10.3304 14.4425 10.1824 14.2947 10 14.2947" stroke="black" stroke-width="1.5" stroke-linecap="round" stroke-linejoin="round"/>
</g>
</g>
</g>
<defs>
<clipPath id="clip0_47_143528">
<rect width="20" height="20" fill="white"/>
</clipPath>
</defs>
</svg>
