<svg width="20" height="20" viewBox="0 0 20 20" fill="none" xmlns="http://www.w3.org/2000/svg">
<g id="calendar-flight-16" clip-path="url(#clip0_47_143390)">
<g id="calendar-flight--calendar-date-day-month-plane-flight-trip-schedule">
<path id="Vector" d="M2.73158 3.39282C2.38112 3.39282 2.04501 3.53205 1.79719 3.77986C1.54938 4.02768 1.41016 4.36378 1.41016 4.71425V17.2678C1.41016 17.6183 1.54938 17.9544 1.79719 18.2022C2.04501 18.45 2.38112 18.5893 2.73158 18.5893H17.2673C17.6177 18.5893 17.9539 18.45 18.2017 18.2022C18.4494 17.9544 18.5887 17.6183 18.5887 17.2678V4.71425C18.5887 4.36378 18.4494 4.02768 18.2017 3.77986C17.9539 3.53205 17.6177 3.39282 17.2673 3.39282H14.6244" stroke="black" stroke-width="1.5" stroke-linecap="round" stroke-linejoin="round"/>
<path id="Vector_2" d="M5.375 1.41064V5.37493" stroke="black" stroke-width="1.5" stroke-linecap="round" stroke-linejoin="round"/>
<path id="Vector_3" d="M14.625 1.41064V5.37493" stroke="black" stroke-width="1.5" stroke-linecap="round" stroke-linejoin="round"/>
<path id="Vector_4" d="M5.375 3.39282H11.9821" stroke="black" stroke-width="1.5" stroke-linecap="round" stroke-linejoin="round"/>
<path id="Vector_5" d="M4.94025 10.29L5.99877 9.93006C6.07318 9.90478 6.1538 9.90455 6.22834 9.92939C6.30288 9.95425 6.36725 10.0028 6.4116 10.0677L7.18433 11.2638L11.4184 9.14674C11.7531 8.94953 12.1272 8.82871 12.5139 8.79294C12.9007 8.75717 13.2906 8.80733 13.6558 8.93983C14.0209 9.07233 14.3523 9.28389 14.6261 9.55938C14.8999 9.83487 15.1095 10.1675 15.2398 10.5334C15.2756 10.6283 15.291 10.7298 15.285 10.8311C15.2789 10.9324 15.2515 11.0313 15.2045 11.1213C15.1576 11.2112 15.092 11.2902 15.0123 11.3531C14.9327 11.416 14.8407 11.4613 14.7422 11.4861L12.3054 12.2556L12.0302 12.3508L11.5115 14.1291C11.4949 14.1911 11.4628 14.2478 11.4184 14.294C11.374 14.3403 11.3187 14.3747 11.2575 14.3938L9.68245 14.9158C9.61868 14.9365 9.55065 14.9405 9.48487 14.9275C9.41909 14.9145 9.35776 14.8847 9.30677 14.8411C9.25577 14.7975 9.21682 14.7416 9.19363 14.6787C9.17045 14.6158 9.1638 14.5479 9.17436 14.4817L9.44957 13.1586H9.26962L6.57038 14.0372C6.39348 14.0981 6.19967 14.0867 6.03113 14.0054C5.86261 13.9241 5.73303 13.7795 5.67063 13.6031L4.71796 10.671C4.70747 10.5918 4.72363 10.5114 4.76387 10.4424C4.80412 10.3734 4.86616 10.3198 4.94025 10.29Z" stroke="black" stroke-width="1.5" stroke-linecap="round" stroke-linejoin="round"/>
</g>
</g>
<defs>
<clipPath id="clip0_47_143390">
<rect width="20" height="20" fill="white"/>
</clipPath>
</defs>
</svg>
