<svg width="20" height="20" viewBox="0 0 20 20" fill="none" xmlns="http://www.w3.org/2000/svg">
<g id="call-me-hand-21">
<g id="call-me-hand">
<path id="Vector 2032" d="M1.69141 14.653L2.9454 13.0167L2.2378 11.2655C1.98495 10.6398 1.85497 9.97115 1.85497 9.29622V5.55487C1.85497 4.84095 2.36005 4.22681 3.06053 4.08896C3.87577 3.92852 4.66528 4.46404 4.81768 5.28083L5.30078 7.86997L6.27785 6.28471" stroke="black" stroke-width="1.5" stroke-linecap="round" stroke-linejoin="round"/>
<path id="Vector 837" d="M12.7509 10.4568L13.5289 9.16771C14.0805 8.25388 13.7828 7.06572 12.8655 6.5199C11.9597 5.9809 10.7889 6.27101 10.2395 7.17056L9.45474 8.45556C8.89991 9.36405 9.18634 10.5503 10.0946 11.1055C11.0068 11.6631 12.1984 11.3721 12.7509 10.4568Z" stroke="black" stroke-width="1.5" stroke-linecap="round" stroke-linejoin="round"/>
<path id="Vector 2034" d="M9.47743 8.44117L10.2555 7.15209C10.8071 6.23826 10.5094 5.0501 9.5921 4.50427C8.6863 3.96528 7.51546 4.25539 6.96609 5.15494L6.18131 6.43994C5.62647 7.34843 5.91291 8.53468 6.82118 9.08989C7.73333 9.64747 8.92499 9.35643 9.47743 8.44117Z" stroke="black" stroke-width="1.5" stroke-linecap="round" stroke-linejoin="round"/>
<path id="Vector 2033" d="M9.35547 18.3511L10.4024 17.0084L11.7582 16.5164C12.9618 16.0797 13.9659 15.2209 14.5841 14.0997L18.3042 7.35193C18.7309 6.57791 18.458 5.60469 17.6909 5.16547C16.9165 4.72201 15.9293 4.98889 15.4837 5.76215L13.2726 9.59981" stroke="black" stroke-width="1.5" stroke-linecap="round" stroke-linejoin="round"/>
</g>
</g>
</svg>
