<svg width="21" height="21" viewBox="0 0 21 21" fill="none" xmlns="http://www.w3.org/2000/svg">
<path d="M19.5525 7.71422C19.5525 7.3448 19.4056 6.99053 19.1445 6.72931C18.8833 6.46811 18.529 6.32136 18.1596 6.32136H15.3739L13.2846 3.53564H7.71317L5.62388 6.32136H2.83817C2.46876 6.32136 2.11448 6.46811 1.85327 6.72931C1.59206 6.99053 1.44531 7.3448 1.44531 7.71422V16.0714C1.44531 16.4407 1.59206 16.7951 1.85327 17.0562C2.11448 17.3174 2.46876 17.4642 2.83817 17.4642H18.1596C18.529 17.4642 18.8833 17.3174 19.1445 17.0562C19.4056 16.7951 19.5525 16.4407 19.5525 16.0714V7.71422Z" stroke="black" stroke-width="1.5" stroke-linecap="round" stroke-linejoin="round"/>
<path d="M6.72712 11.8927C6.53481 11.8927 6.37891 11.7368 6.37891 11.5445C6.37891 11.3522 6.53481 11.1963 6.72712 11.1963" stroke="black" stroke-width="1.5" stroke-linecap="round" stroke-linejoin="round"/>
<path d="M6.72656 11.8927C6.91887 11.8927 7.07478 11.7368 7.07478 11.5445C7.07478 11.3522 6.91887 11.1963 6.72656 11.1963" stroke="black" stroke-width="1.5" stroke-linecap="round" stroke-linejoin="round"/>
<path d="M10.3443 11.8927C10.152 11.8927 9.99609 11.7368 9.99609 11.5445C9.99609 11.3522 10.152 11.1963 10.3443 11.1963" stroke="black" stroke-width="1.5" stroke-linecap="round" stroke-linejoin="round"/>
<path d="M10.3438 11.8927C10.5361 11.8927 10.692 11.7368 10.692 11.5445C10.692 11.3522 10.5361 11.1963 10.3438 11.1963" stroke="black" stroke-width="1.5" stroke-linecap="round" stroke-linejoin="round"/>
<path d="M14.3287 11.8927C14.1364 11.8927 13.9805 11.7368 13.9805 11.5445C13.9805 11.3522 14.1364 11.1963 14.3287 11.1963" stroke="black" stroke-width="1.5" stroke-linecap="round" stroke-linejoin="round"/>
<path d="M14.3281 11.8927C14.5205 11.8927 14.6763 11.7368 14.6763 11.5445C14.6763 11.3522 14.5205 11.1963 14.3281 11.1963" stroke="black" stroke-width="1.5" stroke-linecap="round" stroke-linejoin="round"/>
</svg>
