<svg width="21" height="21" viewBox="0 0 21 21" fill="none" xmlns="http://www.w3.org/2000/svg">
<path d="M10.5 12.5894V19.5536" stroke="black" stroke-width="1.5" stroke-linecap="round" stroke-linejoin="round"/>
<path d="M10.5022 12.5894L4.23438 19.5536" stroke="black" stroke-width="1.5" stroke-linecap="round" stroke-linejoin="round"/>
<path d="M10.5 12.5894L16.7679 19.5536" stroke="black" stroke-width="1.5" stroke-linecap="round" stroke-linejoin="round"/>
<path d="M16.7684 1.44653H4.2327C3.46345 1.44653 2.83984 2.07014 2.83984 2.83939V11.1965C2.83984 11.9658 3.46345 12.5894 4.2327 12.5894H16.7684C17.5377 12.5894 18.1613 11.9658 18.1613 11.1965V2.83939C18.1613 2.07014 17.5377 1.44653 16.7684 1.44653Z" stroke="black" stroke-width="1.5" stroke-linecap="round" stroke-linejoin="round"/>
<path d="M10.4994 9.10728C11.6533 9.10728 12.5887 8.17188 12.5887 7.018C12.5887 5.86411 11.6533 4.92871 10.4994 4.92871C9.34556 4.92871 8.41016 5.86411 8.41016 7.018C8.41016 8.17188 9.34556 9.10728 10.4994 9.10728Z" stroke="black" stroke-width="1.5" stroke-linecap="round" stroke-linejoin="round"/>
</svg>
