<svg width="21" height="21" viewBox="0 0 21 21" fill="none" xmlns="http://www.w3.org/2000/svg">
<path d="M16.0709 1.44653H4.92801C4.15877 1.44653 3.53516 2.07014 3.53516 2.83939V13.9822C3.53516 14.7515 4.15877 15.3751 4.92801 15.3751H16.0709C16.8401 15.3751 17.4637 14.7515 17.4637 13.9822V2.83939C17.4637 2.07014 16.8401 1.44653 16.0709 1.44653Z" stroke="black" stroke-width="1.5" stroke-linecap="round" stroke-linejoin="round"/>
<path d="M10.4978 11.893C12.4209 11.893 13.9799 10.334 13.9799 8.41085C13.9799 6.48772 12.4209 4.92871 10.4978 4.92871C8.57464 4.92871 7.01562 6.48772 7.01562 8.41085C7.01562 10.334 8.57464 11.893 10.4978 11.893Z" stroke="black" stroke-width="1.5" stroke-linecap="round" stroke-linejoin="round"/>
<path d="M12.5898 15.375V19.5536" stroke="black" stroke-width="1.5" stroke-linecap="round" stroke-linejoin="round"/>
<path d="M8.41016 15.375V19.5536" stroke="black" stroke-width="1.5" stroke-linecap="round" stroke-linejoin="round"/>
<path d="M6.32031 19.5537H14.6775" stroke="black" stroke-width="1.5" stroke-linecap="round" stroke-linejoin="round"/>
</svg>
