<svg width="21" height="21" viewBox="0 0 21 21" fill="none" xmlns="http://www.w3.org/2000/svg">
<g clip-path="url(#clip0_146_398613)">
<path d="M2.83817 6.32153C2.46876 6.32153 2.11448 6.46828 1.85327 6.72949C1.59206 6.9907 1.44531 7.34498 1.44531 7.71439V16.0715C1.44531 16.4409 1.59206 16.7953 1.85327 17.0564C2.11448 17.3176 2.46876 17.4644 2.83817 17.4644H14.2857" stroke="black" stroke-width="1.5" stroke-linecap="round" stroke-linejoin="round"/>
<path d="M8.66016 8.65956C9.17693 8.28401 9.8129 8.0625 10.5006 8.0625C12.2314 8.0625 13.6345 9.46561 13.6345 11.1964C13.6345 11.8841 13.413 12.5201 13.0375 13.0369" stroke="black" stroke-width="1.5" stroke-linecap="round" stroke-linejoin="round"/>
<path d="M5.92188 5.92365L7.7127 3.53589H13.2841L15.3734 6.3216H18.1591C18.5285 6.3216 18.8829 6.46835 19.144 6.72956C19.4052 6.99077 19.552 7.34505 19.552 7.71446V16.0716C19.552 16.441 19.4052 16.7953 19.144 17.0565C18.8829 17.3177 18.5285 17.4645 18.1591 17.4645H17.4627" stroke="black" stroke-width="1.5" stroke-linecap="round" stroke-linejoin="round"/>
<path d="M7.40206 10.7021C7.37654 10.8632 7.36328 11.0283 7.36328 11.1966C7.36328 12.9274 8.76639 14.3305 10.4972 14.3305C10.6654 14.3305 10.8306 14.3172 10.9916 14.2917" stroke="black" stroke-width="1.5" stroke-linecap="round" stroke-linejoin="round"/>
<path d="M19.5525 19.5537L1.44531 1.44653" stroke="black" stroke-width="1.5" stroke-linecap="round" stroke-linejoin="round"/>
</g>
<defs>
<clipPath id="clip0_146_398613">
<rect width="21" height="21" fill="white"/>
</clipPath>
</defs>
</svg>
