<svg width="21" height="21" viewBox="0 0 21 21" fill="none" xmlns="http://www.w3.org/2000/svg">
<g clip-path="url(#clip0_146_398669)">
<path d="M19.5525 5.6251C19.5525 5.25569 19.4056 4.90142 19.1445 4.6402C18.8833 4.379 18.529 4.23225 18.1596 4.23225H15.3739L13.2846 1.44653H7.71317L5.62388 4.23225H2.83817C2.46876 4.23225 2.11448 4.379 1.85327 4.6402C1.59206 4.90142 1.44531 5.25569 1.44531 5.6251V12.5894C1.44531 12.9588 1.59206 13.3131 1.85327 13.5743C2.11448 13.8355 2.46876 13.9822 2.83817 13.9822H7.01674L10.4989 19.5537L13.981 13.9822H18.1596C18.529 13.9822 18.8833 13.8355 19.1445 13.5743C19.4056 13.3131 19.5525 12.9588 19.5525 12.5894V5.6251Z" stroke="black" stroke-width="1.5" stroke-linecap="round" stroke-linejoin="round"/>
<path d="M10.5006 11.1964C12.0391 11.1964 13.2863 9.94922 13.2863 8.41071C13.2863 6.87221 12.0391 5.625 10.5006 5.625C8.96205 5.625 7.71484 6.87221 7.71484 8.41071C7.71484 9.94922 8.96205 11.1964 10.5006 11.1964Z" stroke="black" stroke-width="1.5" stroke-linecap="round" stroke-linejoin="round"/>
</g>
<defs>
<clipPath id="clip0_146_398669">
<rect width="21" height="21" fill="white"/>
</clipPath>
</defs>
</svg>
