<svg width="20" height="20" viewBox="0 0 20 20" fill="none" xmlns="http://www.w3.org/2000/svg">
<g id="candle-3">
<g id="candle--lighting-light-incandescent-candle">
<path id="Vector" d="M9.3263 1.50656C9.27856 1.47736 9.2237 1.46191 9.16773 1.46191C9.11177 1.46191 9.0569 1.47736 9.00916 1.50656C8.97808 1.54613 8.96119 1.59499 8.96119 1.64531C8.96119 1.69563 8.97808 1.74449 9.00916 1.78406C10.0002 3.46228 10.1456 5.88049 8.81095 7.17549C8.29764 6.72975 7.89118 6.17425 7.62166 5.55014C7.12825 5.83953 6.72111 6.25548 6.44233 6.75496C6.16354 7.25444 6.02325 7.81933 6.03595 8.39121C6.04936 8.89395 6.16332 9.3889 6.37113 9.84688C6.57892 10.3049 6.87635 10.7166 7.24585 11.0577C7.61535 11.3989 8.04943 11.6626 8.52249 11.8333C8.99556 12.004 9.49802 12.0782 10.0002 12.0516C10.5059 12.0937 11.0147 12.0302 11.4945 11.8653C11.9743 11.7003 12.4145 11.4373 12.7873 11.0931C13.1601 10.749 13.4572 10.331 13.6599 9.8659C13.8625 9.40075 13.9663 8.89857 13.9645 8.39121C13.9215 6.92251 13.4628 5.49613 12.6419 4.27756C11.8209 3.05898 10.6713 2.09816 9.3263 1.50656Z" stroke="black" stroke-width="1.5" stroke-linecap="round" stroke-linejoin="round"/>
<path id="Vector_2" d="M14.625 18.5372V15.3347C14.625 14.9326 14.2689 14.6238 13.8708 14.6806L5.94228 15.8132C5.61677 15.8597 5.375 16.1385 5.375 16.4673V18.5372" stroke="black" stroke-width="1.5" stroke-linecap="round" stroke-linejoin="round"/>
</g>
</g>
</svg>
