<svg width="20" height="20" viewBox="0 0 20 20" fill="none" xmlns="http://www.w3.org/2000/svg">
<g id="carousel-horizontal-52">
<g id="carousel-horizontal">
<path id="Rectangle 578" d="M6.32031 5.80714C6.32031 5.41207 6.64057 5.0918 7.03564 5.0918H12.9672C13.3623 5.0918 13.6826 5.41207 13.6826 5.80714V14.1928C13.6826 14.5879 13.3623 14.9081 12.9672 14.9081H7.03564C6.64057 14.9081 6.32031 14.5879 6.32031 14.1928V5.80714Z" stroke="black" stroke-width="1.5" stroke-linecap="round" stroke-linejoin="round"/>
<path id="Vector 988" d="M1.41016 6.31909H1.92186C2.31693 6.31909 2.6372 6.63935 2.6372 7.03442V12.966C2.6372 13.3611 2.31693 13.6813 1.92186 13.6813H1.41016" stroke="black" stroke-width="1.5" stroke-linecap="round" stroke-linejoin="round"/>
<path id="Vector 989" d="M18.5904 6.31909H18.0787C17.6836 6.31909 17.3633 6.63935 17.3633 7.03442V12.966C17.3633 13.3611 17.6836 13.6813 18.0787 13.6813H18.5904" stroke="black" stroke-width="1.5" stroke-linecap="round" stroke-linejoin="round"/>
</g>
</g>
</svg>
