<svg width="20" height="20" viewBox="0 0 20 20" fill="none" xmlns="http://www.w3.org/2000/svg">
<g id="carousel-vertical-26">
<g id="carousel-vertical">
<path id="Rectangle 578" d="M14.1909 6.31885C14.586 6.31885 14.9063 6.63911 14.9063 7.03418V12.9658C14.9063 13.3609 14.586 13.6811 14.1909 13.6811H5.80519C5.41012 13.6811 5.08984 13.3609 5.08984 12.9658V7.03418C5.08984 6.63911 5.41012 6.31885 5.80519 6.31885H14.1909Z" stroke="black" stroke-width="1.5" stroke-linecap="round" stroke-linejoin="round"/>
<path id="Vector 988" d="M13.6787 1.41064V1.92236C13.6787 2.31742 13.3584 2.6377 12.9634 2.6377H7.03173C6.63667 2.6377 6.31641 2.31742 6.31641 1.92235V1.41064" stroke="black" stroke-width="1.5" stroke-linecap="round" stroke-linejoin="round"/>
<path id="Vector 989" d="M13.6787 18.5891V18.0773C13.6787 17.6824 13.3584 17.3621 12.9634 17.3621H7.03173C6.63667 17.3621 6.31641 17.6824 6.31641 18.0773V18.5891" stroke="black" stroke-width="1.5" stroke-linecap="round" stroke-linejoin="round"/>
</g>
</g>
</svg>
