<svg width="21" height="21" viewBox="0 0 21 21" fill="none" xmlns="http://www.w3.org/2000/svg">
<g clip-path="url(#clip0_146_399179)">
<path d="M9.80078 16.0715H11.1936" stroke="black" stroke-width="1.5" stroke-linecap="round" stroke-linejoin="round"/>
<path d="M14.6758 7.71443V4.92871" stroke="black" stroke-width="1.5" stroke-linecap="round" stroke-linejoin="round"/>
<path d="M17.4621 3.1876C17.4621 3.41624 17.4171 3.64265 17.3295 3.85388C17.242 4.06512 17.1138 4.25705 16.9521 4.41872C16.7904 4.58041 16.5985 4.70865 16.3873 4.79615C16.176 4.88364 15.9497 4.92868 15.721 4.92868H13.6317C13.1699 4.92868 12.7271 4.74524 12.4006 4.41872C12.0741 4.09221 11.8906 3.64936 11.8906 3.1876C11.8906 2.72584 12.0741 2.283 12.4006 1.95648C12.7271 1.62997 13.1699 1.44653 13.6317 1.44653H15.721C15.9497 1.44653 16.176 1.49157 16.3873 1.57906C16.5985 1.66656 16.7904 1.79481 16.9521 1.95648C17.1138 2.11815 17.242 2.31009 17.3295 2.52133C17.4171 2.73256 17.4621 2.95897 17.4621 3.1876Z" stroke="black" stroke-width="1.5" stroke-linecap="round" stroke-linejoin="round"/>
<path d="M8.40904 7.71436V2.83936H4.23047V7.71436" stroke="black" stroke-width="1.5" stroke-linecap="round" stroke-linejoin="round"/>
<path d="M18.1596 12.5894H2.83817C2.06892 12.5894 1.44531 13.213 1.44531 13.9822V18.1608C1.44531 18.9301 2.06892 19.5536 2.83817 19.5536H18.1596C18.9289 19.5536 19.5525 18.9301 19.5525 18.1608V13.9822C19.5525 13.213 18.9289 12.5894 18.1596 12.5894Z" stroke="black" stroke-width="1.5" stroke-linecap="round" stroke-linejoin="round"/>
<path d="M18.1613 12.5894V9.10721C18.1613 8.7378 18.0145 8.38353 17.7533 8.12231C17.4921 7.86111 17.1378 7.71436 16.7684 7.71436H4.2327C3.86329 7.71436 3.50901 7.86111 3.2478 8.12231C2.9866 8.38353 2.83984 8.7378 2.83984 9.10721V12.5894" stroke="black" stroke-width="1.5" stroke-linecap="round" stroke-linejoin="round"/>
</g>
<defs>
<clipPath id="clip0_146_399179">
<rect width="21" height="21" fill="white"/>
</clipPath>
</defs>
</svg>
