<svg width="21" height="21" viewBox="0 0 21 21" fill="none" xmlns="http://www.w3.org/2000/svg">
<path d="M9.14769 11.9304V19.2055M6.72266 11.9304H11.5727" stroke="black" stroke-width="1.5" stroke-linecap="round" stroke-linejoin="round"/>
<path d="M18.522 11.9304H13.6719V19.2055H18.522M13.6719 15.2648H17.9157" stroke="black" stroke-width="1.5" stroke-linecap="round" stroke-linejoin="round"/>
<path d="M2.48047 11.9304V19.2055H6.72428" stroke="black" stroke-width="1.5" stroke-linecap="round" stroke-linejoin="round"/>
<path d="M14.0211 7.49933C12.945 6.73766 11.7474 6.31245 10.5233 6.25732C9.30212 6.31592 8.10806 6.7428 7.03516 7.50432" stroke="black" stroke-width="1.5" stroke-linecap="round" stroke-linejoin="round"/>
<path d="M3.67188 4.68946C4.2586 4.19171 4.8978 3.75511 5.57995 3.3881C7.09652 2.5722 8.78317 2.12304 10.5047 2.07666C12.2279 2.12365 13.9161 2.5749 15.433 3.39402C16.1104 3.75983 16.7452 4.19443 17.328 4.68946" stroke="black" stroke-width="1.5" stroke-linecap="round" stroke-linejoin="round"/>
</svg>
