<svg width="21" height="21" viewBox="0 0 21 21" fill="none" xmlns="http://www.w3.org/2000/svg">
<path d="M14.107 7.49933C13.0309 6.73766 11.8334 6.31245 10.6092 6.25732C9.38804 6.31592 8.194 6.7428 7.12109 7.50432" stroke="black" stroke-width="1.5" stroke-linecap="round" stroke-linejoin="round"/>
<path d="M3.75781 4.68946C4.34453 4.19171 4.98374 3.75511 5.66589 3.3881C7.18244 2.5722 8.86911 2.12304 10.5906 2.07666C12.3139 2.12365 14.002 2.5749 15.5189 3.39402C16.1964 3.75983 16.8311 4.19443 17.414 4.68946" stroke="black" stroke-width="1.5" stroke-linecap="round" stroke-linejoin="round"/>
<path d="M14.879 16.4577H16.6978V17.6702C16.6978 18.6747 15.8835 19.489 14.879 19.489H13.6664C12.6619 19.489 11.8477 18.6747 11.8477 17.6702V14.0326C11.8477 13.0282 12.6619 12.2139 13.6664 12.2139H14.879C15.6708 12.2139 16.3445 12.72 16.5943 13.4264" stroke="black" stroke-width="1.5" stroke-linecap="round" stroke-linejoin="round"/>
<path d="M9.07154 12.2185H5.13324L4.52734 15.8539L4.97154 15.6317C5.47633 15.3793 6.03295 15.248 6.59732 15.248H7.55681C8.56068 15.248 9.37449 16.0618 9.37449 17.0656V17.6715C9.37449 18.6754 8.56068 19.4892 7.55681 19.4892H6.34502C5.55359 19.4892 4.88029 18.9835 4.63078 18.2774" stroke="black" stroke-width="1.5" stroke-linecap="round" stroke-linejoin="round"/>
</svg>
