<svg width="20" height="20" viewBox="0 0 20 20" fill="none" xmlns="http://www.w3.org/2000/svg">
<g id="certified-diploma-1" clip-path="url(#clip0_47_148643)">
<g id="certified-diploma--certified-diploma-certificate-education-award">
<path id="Vector" d="M9.53125 7.39772L13.0694 2.09044C13.532 1.39662 14.5136 1.29941 15.1034 1.88905L18.1095 4.89522C18.6991 5.48486 18.6019 6.46655 17.9081 6.92911L12.6008 10.4673" stroke="black" stroke-width="1.5" stroke-linecap="round" stroke-linejoin="round"/>
<path id="Vector_2" d="M10.4693 12.6008L6.93107 17.9081C6.4685 18.6019 5.48682 18.6991 4.89718 18.1095L1.89101 15.1033C1.30136 14.5137 1.39857 13.532 2.0924 13.0694L7.3997 9.53125" stroke="black" stroke-width="1.5" stroke-linecap="round" stroke-linejoin="round"/>
<path id="Vector_3" d="M13.0327 10.1797L18.5888 14.6245L15.2852 15.2852L14.6245 18.5888L10.1797 13.0328" stroke="black" stroke-width="1.5" stroke-linecap="round" stroke-linejoin="round"/>
<path id="Ellipse 1517" d="M7.35938 9.99833C7.35938 10.6993 7.63782 11.3715 8.13345 11.8671C8.62908 12.3627 9.3013 12.6412 10.0022 12.6412C10.7032 12.6412 11.3754 12.3627 11.871 11.8671C12.3666 11.3715 12.6451 10.6993 12.6451 9.99833C12.6451 9.2974 12.3666 8.62518 11.871 8.12954C11.3754 7.63391 10.7032 7.35547 10.0022 7.35547C9.3013 7.35547 8.62908 7.63391 8.13345 8.12954C7.63782 8.62518 7.35938 9.2974 7.35938 9.99833Z" stroke="black" stroke-width="1.5" stroke-linecap="round" stroke-linejoin="round"/>
</g>
</g>
<defs>
<clipPath id="clip0_47_148643">
<rect width="20" height="20" fill="white"/>
</clipPath>
</defs>
</svg>
