<svg width="21" height="21" viewBox="0 0 21 21" fill="none" xmlns="http://www.w3.org/2000/svg">
<g clip-path="url(#clip0_146_402972)">
<path d="M1.44531 1.44653L19.5525 19.5537" stroke="black" stroke-width="1.5" stroke-linecap="round" stroke-linejoin="round"/>
<path d="M15.916 15.917C17.3023 14.5307 18.1597 12.6155 18.1597 10.5001C18.1597 6.26917 14.7299 2.83936 10.499 2.83936C8.38352 2.83936 6.46834 3.69681 5.08203 5.08312" stroke="black" stroke-width="1.5" stroke-linecap="round" stroke-linejoin="round"/>
<path d="M13.4106 17.5886C12.5134 17.9572 11.5307 18.1606 10.5006 18.1606C9.29326 18.1606 8.15117 17.8813 7.13542 17.3839M7.13542 17.3839L2.83984 18.1606L4.12326 14.746M7.13542 17.3839L7.14163 17.3827M4.12326 14.746C3.31247 13.5307 2.83984 12.0705 2.83984 10.4999C2.83984 9.46976 3.04319 8.48708 3.41192 7.58984M4.12326 14.746L4.12449 14.7428" stroke="black" stroke-width="1.5" stroke-linecap="round" stroke-linejoin="round"/>
</g>
<defs>
<clipPath id="clip0_146_402972">
<rect width="21" height="21" fill="white"/>
</clipPath>
</defs>
</svg>
