<svg width="21" height="21" viewBox="0 0 21 21" fill="none" xmlns="http://www.w3.org/2000/svg">
<g clip-path="url(#clip0_146_403205)">
<path d="M6.52189 18.6355C7.72235 19.2234 9.07207 19.5536 10.4989 19.5536C15.4991 19.5536 19.5525 15.5002 19.5525 10.5C19.5525 5.49983 15.4991 1.44641 10.4989 1.44641C5.49874 1.44641 1.44531 5.49983 1.44531 10.5C1.44531 12.3561 2.00388 14.0818 2.96208 15.518M6.52189 18.6355L1.44531 19.5536L2.96208 15.518M6.52189 18.6355L6.52924 18.6343M2.96208 15.518L2.96353 15.5143" stroke="black" stroke-width="1.5" stroke-linecap="round" stroke-linejoin="round"/>
<path d="M14.8639 8.06179L12.7482 8.99958V7.87424C12.7482 7.67527 12.6692 7.48445 12.5285 7.34375C12.3878 7.20305 12.197 7.12402 11.998 7.12402H6.37131C6.17234 7.12402 5.98152 7.20305 5.84083 7.34375C5.70014 7.48445 5.62109 7.67527 5.62109 7.87424V13.1258C5.62109 13.3248 5.70014 13.5156 5.84083 13.6563C5.98152 13.797 6.17234 13.876 6.37131 13.876H11.998C12.197 13.876 12.3878 13.797 12.5285 13.6563C12.6692 13.5156 12.7482 13.3248 12.7482 13.1258V12.0005L14.8639 12.9382C14.9208 12.9602 14.9824 12.968 15.0431 12.9608C15.1039 12.9536 15.1618 12.9316 15.2122 12.8969C15.2625 12.8621 15.3035 12.8156 15.3317 12.7613C15.3599 12.7071 15.3744 12.6468 15.3739 12.5856V8.41439C15.3744 8.35326 15.3599 8.29295 15.3317 8.23871C15.3035 8.18446 15.2625 8.13794 15.2122 8.10317C15.1618 8.06841 15.1039 8.04647 15.0431 8.03926C14.9824 8.03206 14.9208 8.03979 14.8639 8.06179Z" stroke="black" stroke-width="1.5" stroke-linecap="round" stroke-linejoin="round"/>
</g>
<defs>
<clipPath id="clip0_146_403205">
<rect width="21" height="21" fill="white"/>
</clipPath>
</defs>
</svg>
