<svg width="21" height="21" viewBox="0 0 21 21" fill="none" xmlns="http://www.w3.org/2000/svg">
<g clip-path="url(#clip0_146_403217)">
<path d="M3.5346 14.8457L1.44531 15.375L2.83817 11.1964V2.83927C2.83817 2.46985 2.98492 2.11558 3.24612 1.85437C3.50734 1.59316 3.86161 1.44641 4.23103 1.44641H15.3739C15.7433 1.44641 16.0976 1.59316 16.3588 1.85437C16.6199 2.11558 16.7667 2.46985 16.7667 2.83927V4.92855" stroke="black" stroke-width="1.5" stroke-linecap="round" stroke-linejoin="round"/>
<path d="M14.6763 18.1606L19.5513 19.5535L18.8549 15.3749V9.8035C18.8549 9.43409 18.7081 9.07982 18.4469 8.8186C18.1858 8.5574 17.8314 8.41064 17.4621 8.41064H8.40848C8.03907 8.41064 7.6848 8.5574 7.42358 8.8186C7.16238 9.07982 7.01562 9.43409 7.01562 9.8035V16.7678C7.01562 17.1372 7.16238 17.4915 7.42358 17.7527C7.6848 18.0138 8.03907 18.1606 8.40848 18.1606H14.6763Z" stroke="black" stroke-width="1.5" stroke-linecap="round" stroke-linejoin="round"/>
</g>
<defs>
<clipPath id="clip0_146_403217">
<rect width="21" height="21" fill="white"/>
</clipPath>
</defs>
</svg>
