<svg width="21" height="21" viewBox="0 0 21 21" fill="none" xmlns="http://www.w3.org/2000/svg">
<g clip-path="url(#clip0_146_403120)">
<path d="M11.6433 14.3355C11.4903 14.3908 11.3228 14.3908 11.1698 14.3355C10.0082 13.8753 9.01143 13.077 8.30865 12.0439C7.60589 11.0109 7.22941 9.79063 7.22799 8.54118V6.71653C7.22183 6.62348 7.23564 6.5302 7.26845 6.44291C7.30127 6.35562 7.35236 6.27635 7.41831 6.21041C7.48425 6.14447 7.56352 6.09338 7.65079 6.06057C7.73808 6.02774 7.83138 6.01395 7.92442 6.02011H14.8888C14.9818 6.01395 15.075 6.02774 15.1623 6.06057C15.2496 6.09338 15.3289 6.14447 15.3948 6.21041C15.4608 6.27635 15.5118 6.35562 15.5447 6.44291C15.5775 6.5302 15.5913 6.62348 15.5852 6.71653V8.54118C15.5837 9.79063 15.2073 11.0109 14.5045 12.0439C13.8017 13.077 12.805 13.8753 11.6433 14.3355Z" stroke="black" stroke-width="1.5" stroke-linecap="round" stroke-linejoin="round"/>
<path d="M7.01674 18.1607L1.44531 19.5536L2.83817 15.375V2.83927C2.83817 2.46985 2.98492 2.11558 3.24612 1.85437C3.50734 1.59316 3.86161 1.44641 4.23103 1.44641H18.1596C18.529 1.44641 18.8833 1.59316 19.1445 1.85437C19.4056 2.11558 19.5525 2.46985 19.5525 2.83927V16.7678C19.5525 17.1372 19.4056 17.4916 19.1445 17.7527C18.8833 18.0139 18.529 18.1607 18.1596 18.1607H7.01674Z" stroke="black" stroke-width="1.5" stroke-linecap="round" stroke-linejoin="round"/>
</g>
<defs>
<clipPath id="clip0_146_403120">
<rect width="21" height="21" fill="white"/>
</clipPath>
</defs>
</svg>
