<svg width="21" height="21" viewBox="0 0 21 21" fill="none" xmlns="http://www.w3.org/2000/svg">
<g clip-path="url(#clip0_146_403124)">
<path d="M7.01674 18.1607L1.44531 19.5536L2.83817 15.375V2.83927C2.83817 2.46985 2.98492 2.11558 3.24612 1.85437C3.50734 1.59316 3.86161 1.44641 4.23103 1.44641H18.1596C18.529 1.44641 18.8833 1.59316 19.1445 1.85437C19.4056 2.11558 19.5525 2.46985 19.5525 2.83927V16.7678C19.5525 17.1372 19.4056 17.4916 19.1445 17.7527C18.8833 18.0139 18.529 18.1607 18.1596 18.1607H7.01674Z" stroke="black" stroke-width="1.5" stroke-linecap="round" stroke-linejoin="round"/>
<path d="M9.10547 7.71429C9.10547 7.30107 9.228 6.89713 9.45758 6.55355C9.68715 6.20996 10.0135 5.94217 10.3952 5.78404C10.777 5.62591 11.1971 5.58453 11.6024 5.66515C12.0076 5.74576 12.3799 5.94475 12.6721 6.23694C12.9643 6.52914 13.1633 6.9014 13.2439 7.3067C13.3245 7.71198 13.2831 8.13206 13.125 8.51383C12.9669 8.89559 12.6991 9.22189 12.3555 9.45146C12.0119 9.68105 11.608 9.80358 11.1948 9.80358V11.1964" stroke="black" stroke-width="1.5" stroke-linecap="round" stroke-linejoin="round"/>
<path d="M11.1959 14.6786C11.0036 14.6786 10.8477 14.5227 10.8477 14.3304C10.8477 14.1381 11.0036 13.9822 11.1959 13.9822" stroke="black" stroke-width="1.5" stroke-linecap="round" stroke-linejoin="round"/>
<path d="M11.1953 14.6786C11.3876 14.6786 11.5435 14.5227 11.5435 14.3304C11.5435 14.1381 11.3876 13.9822 11.1953 13.9822" stroke="black" stroke-width="1.5" stroke-linecap="round" stroke-linejoin="round"/>
</g>
<defs>
<clipPath id="clip0_146_403124">
<rect width="21" height="21" fill="white"/>
</clipPath>
</defs>
</svg>
