<svg width="21" height="21" viewBox="0 0 21 21" fill="none" xmlns="http://www.w3.org/2000/svg">
<g clip-path="url(#clip0_146_403209)">
<path d="M7.01674 18.1607L1.44531 19.5536L2.83817 15.375V2.83927C2.83817 2.46985 2.98492 2.11558 3.24612 1.85437C3.50734 1.59316 3.86161 1.44641 4.23103 1.44641H18.1596C18.529 1.44641 18.8833 1.59316 19.1445 1.85437C19.4056 2.11558 19.5525 2.46985 19.5525 2.83927V16.7678C19.5525 17.1372 19.4056 17.4916 19.1445 17.7527C18.8833 18.0139 18.529 18.1607 18.1596 18.1607H7.01674Z" stroke="black" stroke-width="1.5" stroke-linecap="round" stroke-linejoin="round"/>
<path d="M15.5631 7.36538L13.4474 8.30316V7.17783C13.4474 6.97886 13.3684 6.78804 13.2277 6.64734C13.087 6.50664 12.8962 6.42761 12.6972 6.42761H7.07053C6.87156 6.42761 6.68074 6.50664 6.54005 6.64734C6.39936 6.78804 6.32031 6.97886 6.32031 7.17783V12.4294C6.32031 12.6283 6.39936 12.8192 6.54005 12.9599C6.68074 13.1006 6.87156 13.1796 7.07053 13.1796H12.6972C12.8962 13.1796 13.087 13.1006 13.2277 12.9599C13.3684 12.8192 13.4474 12.6283 13.4474 12.4294V11.304L15.5631 12.2418C15.6201 12.2638 15.6816 12.2716 15.7423 12.2644C15.8031 12.2572 15.861 12.2352 15.9114 12.2004C15.9617 12.1657 16.0027 12.1192 16.031 12.0649C16.0591 12.0107 16.0736 11.9504 16.0732 11.8892V7.71798C16.0736 7.65685 16.0591 7.59654 16.031 7.5423C16.0027 7.48805 15.9617 7.44153 15.9114 7.40676C15.861 7.372 15.8031 7.35006 15.7423 7.34284C15.6816 7.33564 15.6201 7.34337 15.5631 7.36538Z" stroke="black" stroke-width="1.5" stroke-linecap="round" stroke-linejoin="round"/>
</g>
<defs>
<clipPath id="clip0_146_403209">
<rect width="21" height="21" fill="white"/>
</clipPath>
</defs>
</svg>
