<svg width="21" height="21" viewBox="0 0 21 21" fill="none" xmlns="http://www.w3.org/2000/svg">
<g clip-path="url(#clip0_146_403112)">
<path d="M16.072 8.4107C17.9951 8.4107 19.5541 6.85169 19.5541 4.92855C19.5541 3.00542 17.9951 1.44641 16.072 1.44641C14.1489 1.44641 12.5898 3.00542 12.5898 4.92855C12.5898 6.85169 14.1489 8.4107 16.072 8.4107Z" stroke="black" stroke-width="1.5" stroke-linecap="round" stroke-linejoin="round"/>
<path d="M19.5525 11.8928V16.7678C19.5525 17.1372 19.4056 17.4916 19.1445 17.7527C18.8833 18.0139 18.529 18.1607 18.1596 18.1607H7.01674L1.44531 19.5536L2.83817 15.375V2.83927C2.83817 2.46985 2.98492 2.11558 3.24612 1.85437C3.50734 1.59316 3.86161 1.44641 4.23103 1.44641H8.4096" stroke="black" stroke-width="1.5" stroke-linecap="round" stroke-linejoin="round"/>
</g>
<defs>
<clipPath id="clip0_146_403112">
<rect width="21" height="21" fill="white"/>
</clipPath>
</defs>
</svg>
