<svg width="21" height="21" viewBox="0 0 21 21" fill="none" xmlns="http://www.w3.org/2000/svg">
<g clip-path="url(#clip0_146_403012)">
<path d="M10.4967 1.53052C8.87428 1.53102 7.28237 1.97159 5.89052 2.8053C4.49868 3.639 3.35903 4.83462 2.59296 6.2648C1.82688 7.69499 1.46308 9.30619 1.5403 10.9268C1.61752 12.5474 2.13286 14.1167 3.03144 15.4675L1.52734 19.4693L6.56399 18.5585C7.77681 19.1512 9.10774 19.4625 10.4576 19.4692C11.8075 19.4759 13.1414 19.1778 14.36 18.5971C15.5787 18.0166 16.6505 17.1683 17.4957 16.1157C18.3409 15.0633 18.9376 13.8336 19.2414 12.5183C19.5452 11.2031 19.5481 9.8362 19.25 8.51965C18.9521 7.20307 18.3607 5.97076 17.5201 4.91456C16.6795 3.85834 15.6115 3.00548 14.3953 2.41956C13.1792 1.83362 11.8466 1.52972 10.4967 1.53052Z" stroke="black" stroke-width="1.5" stroke-linecap="round" stroke-linejoin="round"/>
<path d="M10.8796 6.0122L12.0495 8.36558C12.0757 8.4251 12.1172 8.47662 12.1698 8.51485C12.2223 8.55309 12.2841 8.5767 12.3488 8.58324L14.9471 8.97774C15.0213 8.98741 15.0914 9.01802 15.1489 9.06601C15.2064 9.11399 15.249 9.17735 15.2719 9.24871C15.2947 9.32005 15.2967 9.39642 15.2777 9.46888C15.2588 9.54135 15.2195 9.60691 15.1646 9.6579L13.2466 11.4808C13.218 11.5353 13.2031 11.596 13.2031 11.6576C13.2031 11.7192 13.218 11.7799 13.2466 11.8344L13.6139 14.4191C13.6296 14.4938 13.6232 14.5714 13.5957 14.6426C13.5681 14.7138 13.5204 14.7755 13.4585 14.8201C13.3966 14.8648 13.3231 14.8904 13.2468 14.8942C13.1706 14.8978 13.0949 14.8792 13.029 14.8408L10.7164 13.6165C10.6565 13.5895 10.5916 13.5755 10.5259 13.5755C10.4603 13.5755 10.3953 13.5895 10.3355 13.6165L8.02292 14.8408C7.957 14.8792 7.88133 14.8978 7.80508 14.8942C7.72884 14.8904 7.65529 14.8648 7.59337 14.8201C7.53145 14.7755 7.4838 14.7138 7.45623 14.6426C7.42865 14.5714 7.42231 14.4938 7.43798 14.4191L7.87329 11.8344C7.89201 11.7745 7.89559 11.7108 7.88372 11.6491C7.87185 11.5873 7.8449 11.5295 7.80526 11.4808L5.88719 9.64431C5.83632 9.59276 5.80061 9.52821 5.78397 9.45773C5.76734 9.38724 5.77045 9.31355 5.79293 9.2447C5.8154 9.17586 5.8564 9.11453 5.91142 9.06744C5.96644 9.02035 6.03335 8.98932 6.10485 8.97774L8.70308 8.59684C8.76777 8.59029 8.82957 8.5667 8.88213 8.52846C8.93472 8.49021 8.97621 8.43871 9.00237 8.37919L10.1723 6.0258C10.2036 5.95918 10.2529 5.90265 10.3146 5.86259C10.3764 5.82254 10.4481 5.80057 10.5217 5.79914C10.5953 5.79774 10.6678 5.81693 10.7311 5.85458C10.7943 5.89223 10.8458 5.94683 10.8796 6.0122Z" stroke="black" stroke-width="1.5" stroke-linecap="round" stroke-linejoin="round"/>
</g>
<defs>
<clipPath id="clip0_146_403012">
<rect width="21" height="21" fill="white"/>
</clipPath>
</defs>
</svg>
