<svg width="21" height="21" viewBox="0 0 21 21" fill="none" xmlns="http://www.w3.org/2000/svg">
<g clip-path="url(#clip0_146_403131)">
<path d="M7.01674 18.1607L1.44531 19.5536L2.83817 15.375V2.83927C2.83817 2.46985 2.98492 2.11558 3.24612 1.85437C3.50734 1.59316 3.86161 1.44641 4.23103 1.44641H18.1596C18.529 1.44641 18.8833 1.59316 19.1445 1.85437C19.4056 2.11558 19.5525 2.46985 19.5525 2.83927V16.7678C19.5525 17.1372 19.4056 17.4916 19.1445 17.7527C18.8833 18.0139 18.529 18.1607 18.1596 18.1607H7.01674Z" stroke="black" stroke-width="1.5" stroke-linecap="round" stroke-linejoin="round"/>
<path d="M7.71205 12.5893C8.86594 12.5893 9.80134 11.6538 9.80134 10.5V9.80354M9.80134 9.80354V8.41068C9.80134 7.64143 9.17773 7.01782 8.40848 7.01782C7.63923 7.01782 7.01562 7.64143 7.01562 8.41068C7.01562 9.17993 7.63923 9.80354 8.40848 9.80354H9.80134Z" stroke="black" stroke-width="1.5" stroke-linecap="round" stroke-linejoin="round"/>
<path d="M13.2863 12.5893C14.4402 12.5893 15.3756 11.6538 15.3756 10.5V9.80354M15.3756 9.80354V8.41068C15.3756 7.64143 14.752 7.01782 13.9827 7.01782C13.2135 7.01782 12.5898 7.64143 12.5898 8.41068C12.5898 9.17993 13.2135 9.80354 13.9827 9.80354H15.3756Z" stroke="black" stroke-width="1.5" stroke-linecap="round" stroke-linejoin="round"/>
</g>
<defs>
<clipPath id="clip0_146_403131">
<rect width="21" height="21" fill="white"/>
</clipPath>
</defs>
</svg>
