<svg width="21" height="21" viewBox="0 0 21 21" fill="none" xmlns="http://www.w3.org/2000/svg">
<g clip-path="url(#clip0_146_403171)">
<path d="M6.32031 8.41077H14.6775" stroke="black" stroke-width="1.5" stroke-linecap="round" stroke-linejoin="round"/>
<path d="M6.32031 12.5894H11.8917" stroke="black" stroke-width="1.5" stroke-linecap="round" stroke-linejoin="round"/>
<path d="M10.4967 1.53064C8.87428 1.53115 7.28237 1.97171 5.89052 2.80542C4.49868 3.63911 3.35903 4.83474 2.59296 6.26493C1.82688 7.69511 1.46308 9.30631 1.5403 10.9269C1.61752 12.5475 2.13286 14.1168 3.03144 15.4677L1.52734 19.4694L6.56399 18.5587C7.77681 19.1514 9.10774 19.4627 10.4576 19.4694C11.8075 19.476 13.1414 19.178 14.36 18.5973C15.5787 18.0166 16.6505 17.1685 17.4957 16.1159C18.3409 15.0635 18.9376 13.8337 19.2414 12.5184C19.5452 11.2032 19.5481 9.83632 19.25 8.51977C18.9521 7.2032 18.3607 5.97088 17.5201 4.91468C16.6795 3.85846 15.6115 3.0056 14.3953 2.41967C13.1792 1.83374 11.8466 1.52984 10.4967 1.53064Z" stroke="black" stroke-width="1.5" stroke-linecap="round" stroke-linejoin="round"/>
</g>
<defs>
<clipPath id="clip0_146_403171">
<rect width="21" height="21" fill="white"/>
</clipPath>
</defs>
</svg>
