<svg width="21" height="21" viewBox="0 0 21 21" fill="none" xmlns="http://www.w3.org/2000/svg">
<g clip-path="url(#clip0_146_403213)">
<path d="M13.6345 7.71436C15.2045 7.71436 16.7102 8.33804 17.8203 9.44819C18.9304 10.5583 19.5541 12.064 19.5541 13.634C19.5579 14.7993 19.2134 15.939 18.5652 16.9072L19.5541 19.5536L16.2252 18.9547C15.4246 19.3451 14.5463 19.5499 13.6556 19.5536C12.7649 19.5574 11.8848 19.36 11.081 18.9764C10.2771 18.5928 9.57018 18.0326 9.01287 17.3379C8.45556 16.6431 8.06221 15.8315 7.86217 14.9635C7.66213 14.0956 7.66051 13.1937 7.85748 12.325C8.05444 11.4564 8.44489 10.6433 8.99972 9.94655C9.55455 9.24976 10.2595 8.68717 11.062 8.30068C11.8644 7.91419 12.7438 7.71377 13.6345 7.71436Z" stroke="black" stroke-width="1.5" stroke-linecap="round" stroke-linejoin="round"/>
<path d="M14.4825 4.24609C13.5445 3.05251 12.2577 2.18111 10.8012 1.75322C9.34468 1.32532 7.791 1.36223 6.35647 1.8588C4.92194 2.35537 3.67795 3.28689 2.79768 4.52366C1.91742 5.76042 1.4447 7.2409 1.44534 8.75895C1.44103 10.202 1.86784 11.6134 2.67106 12.8122L1.44534 16.0715L4.3982 15.5422" stroke="black" stroke-width="1.5" stroke-linecap="round" stroke-linejoin="round"/>
</g>
<defs>
<clipPath id="clip0_146_403213">
<rect width="21" height="21" fill="white"/>
</clipPath>
</defs>
</svg>
