<svg width="20" height="20" viewBox="0 0 20 20" fill="none" xmlns="http://www.w3.org/2000/svg">
<g id="check-double-thick-1">
<g id="check-double-thick--check-double-thick-form-validation-checkmark-success-tick">
<path id="Vector 2352 (Stroke)" d="M14.1097 4.5377C13.4782 3.98056 12.5147 4.04077 11.9576 4.67221L8.42188 8.67931" stroke="black" stroke-width="1.5" stroke-linecap="round" stroke-linejoin="round"/>
<path id="Vector 2352 (Stroke)_2" d="M4.30479 15.2983L1.76359 12.2489C1.22451 11.602 1.31191 10.6406 1.95881 10.1015C2.60572 9.56239 3.56715 9.64981 4.10624 10.2967" stroke="black" stroke-width="1.5" stroke-linecap="round" stroke-linejoin="round"/>
<path id="Vector 2352 (Stroke)_3" fill-rule="evenodd" clip-rule="evenodd" d="M18.0734 5.85996C18.7048 6.4171 18.765 7.38062 18.2078 8.01204L10.5842 16.6521C10.2898 16.9857 9.86436 17.1742 9.41943 17.1679C8.97449 17.1616 8.5545 16.9613 8.26963 16.6194L5.72843 13.57C5.18935 12.9231 5.27675 11.9617 5.92366 11.4226C6.57056 10.8835 7.53199 10.9709 8.07108 11.6178L9.47403 13.3013L15.9213 5.99447C16.4784 5.36304 17.4419 5.30282 18.0734 5.85996Z" stroke="black" stroke-width="1.5" stroke-linecap="round" stroke-linejoin="round"/>
</g>
</g>
</svg>
