<svg width="21" height="21" viewBox="0 0 21 21" fill="none" xmlns="http://www.w3.org/2000/svg">
<path d="M1.94922 10.5655C1.94922 12.851 2.85714 15.0429 4.47326 16.6591C6.08937 18.2752 8.28129 19.1831 10.5668 19.1831C12.8524 19.1831 15.0443 18.2752 16.6604 16.6591C18.2765 15.0429 19.1844 12.851 19.1844 10.5655C19.1844 8.27995 18.2765 6.08803 16.6604 4.47191C15.0443 2.8558 12.8524 1.94788 10.5668 1.94788C8.28129 1.94788 6.08937 2.8558 4.47326 4.47191C2.85714 6.08803 1.94922 8.27995 1.94922 10.5655Z" stroke="black" stroke-width="1.5" stroke-linecap="round" stroke-linejoin="round"/>
<path d="M10.5664 7.17859H18.4939" stroke="black" stroke-width="1.5" stroke-linecap="round" stroke-linejoin="round"/>
<path d="M7.17969 10.5641C7.17969 11.0088 7.26727 11.4491 7.43743 11.8599C7.6076 12.2707 7.85701 12.644 8.17143 12.9584C8.48586 13.2728 8.85913 13.5223 9.26994 13.6924C9.68076 13.8626 10.1211 13.9502 10.5657 13.9502C11.0104 13.9502 11.4507 13.8626 11.8615 13.6924C12.2723 13.5223 12.6456 13.2728 12.96 12.9584C13.2744 12.644 13.5238 12.2707 13.694 11.8599C13.8642 11.4491 13.9518 11.0088 13.9518 10.5641C13.9518 10.1195 13.8642 9.67917 13.694 9.26836C13.5238 8.85754 13.2744 8.48427 12.96 8.16985C12.6456 7.85543 12.2723 7.60601 11.8615 7.43585C11.4507 7.26568 11.0104 7.1781 10.5657 7.1781C10.1211 7.1781 9.68076 7.26568 9.26994 7.43585C8.85913 7.60601 8.48586 7.85543 8.17143 8.16985C7.85701 8.48427 7.6076 8.85754 7.43743 9.26836C7.26727 9.67917 7.17969 10.1195 7.17969 10.5641Z" stroke="black" stroke-width="1.5" stroke-linecap="round" stroke-linejoin="round"/>
<path d="M7.62392 12.2609L3.66016 5.39551" stroke="black" stroke-width="1.5" stroke-linecap="round" stroke-linejoin="round"/>
<path d="M13.495 12.2532L9.53125 19.1186" stroke="black" stroke-width="1.5" stroke-linecap="round" stroke-linejoin="round"/>
</svg>
