<svg width="20" height="20" viewBox="0 0 20 20" fill="none" xmlns="http://www.w3.org/2000/svg">
<g id="clapping-27" clip-path="url(#clip0_47_144782)">
<g id="clapping">
<path id="Vector 2007" d="M5.375 1.43604V2.70491" stroke="black" stroke-width="1.5" stroke-linecap="round" stroke-linejoin="round"/>
<path id="Vector 2008" d="M8.01562 3.3653L8.67634 2.70459" stroke="black" stroke-width="1.5" stroke-linecap="round" stroke-linejoin="round"/>
<path id="Vector 2009" d="M2.73103 3.3653L2.07031 2.70459" stroke="black" stroke-width="1.5" stroke-linecap="round" stroke-linejoin="round"/>
<path id="Vector" d="M18.3099 13.8923L18.4618 13.1333C18.6188 12.3481 18.6317 11.541 18.5001 10.7512L18.0842 8.25668C17.9867 7.67162 17.5216 7.2171 16.9343 7.13322C16.0537 7.00742 15.2911 7.74657 15.3893 8.63076L15.5848 10.3885L10.7181 5.52229C10.1806 4.98476 9.30909 4.98476 8.77156 5.52229C8.23404 6.05981 8.23404 6.93131 8.77156 7.46885L7.60362 6.30091C7.06609 5.76338 6.19459 5.76338 5.65705 6.30091C5.11952 6.83844 5.11952 7.70994 5.65705 8.24747L7.60362 10.194C7.06609 9.65651 6.19459 9.65651 5.65705 10.194C5.11954 10.7316 5.11954 11.6031 5.65705 12.1406L11.4357 17.9192C11.8487 18.3323 12.4089 18.5642 12.9929 18.5642H13.638" stroke="black" stroke-width="1.5" stroke-linecap="round" stroke-linejoin="round"/>
<path id="Vector_2" d="M7.60156 10.1943L10.1321 12.7249" stroke="black" stroke-width="1.5" stroke-linecap="round" stroke-linejoin="round"/>
<path id="Vector_3" d="M8.76953 7.46875L11.6894 10.3886" stroke="black" stroke-width="1.5" stroke-linecap="round" stroke-linejoin="round"/>
<path id="Vector_4" d="M3.94812 8.89596L3.37278 8.32062C2.9238 7.87164 2.19587 7.87164 1.74689 8.32062C1.29791 8.76959 1.29791 9.49753 1.74689 9.94651L3.37277 11.5724C2.9238 11.1234 2.19587 11.1234 1.74689 11.5724C1.29791 12.0214 1.29791 12.7493 1.74689 13.1983L6.57355 18.025C6.91852 18.3699 7.3864 18.5637 7.87426 18.5637H8.41303" stroke="black" stroke-width="1.5" stroke-linecap="round" stroke-linejoin="round"/>
</g>
</g>
<defs>
<clipPath id="clip0_47_144782">
<rect width="20" height="20" fill="white"/>
</clipPath>
</defs>
</svg>
