<svg width="21" height="21" viewBox="0 0 21 21" fill="none" xmlns="http://www.w3.org/2000/svg">
<g clip-path="url(#clip0_146_400220)">
<path d="M6.51562 6.51025L6.60772 6.41815C7.01577 5.84477 7.53511 5.35277 8.1402 4.97427C9.18498 4.32076 10.4222 4.04517 11.6456 4.19345C12.869 4.34175 14.0045 4.90495 14.8629 5.78915C15.7213 6.67335 16.2506 7.8251 16.3626 9.05234C16.3719 9.11695 16.3997 9.17754 16.4423 9.22696C16.4849 9.27638 16.5409 9.31255 16.6034 9.33121C17.5093 9.54463 18.3054 10.0828 18.8411 10.8438C19.3768 11.6048 19.6149 12.5358 19.5102 13.4605C19.4056 14.3853 18.9654 15.2395 18.2732 15.8616C17.8447 16.2467 17.338 16.5262 16.7934 16.6846H16.6807" stroke="black" stroke-width="1.5" stroke-linecap="round" stroke-linejoin="round"/>
<path d="M4.35108 8.23486C4.2109 8.2874 4.0732 8.34709 3.93855 8.41375C3.41522 8.67286 2.94805 9.03252 2.56371 9.47218C1.78751 10.3601 1.39583 11.52 1.47484 12.6968C1.55385 13.8735 2.09707 14.9706 2.985 15.7468C3.87295 16.5229 5.03285 16.9148 6.20958 16.8356H12.9516" stroke="black" stroke-width="1.5" stroke-linecap="round" stroke-linejoin="round"/>
<path d="M19.5525 19.5536L1.44531 1.44641" stroke="black" stroke-width="1.5" stroke-linecap="round" stroke-linejoin="round"/>
</g>
<defs>
<clipPath id="clip0_146_400220">
<rect width="21" height="21" fill="white"/>
</clipPath>
</defs>
</svg>
