<svg width="21" height="21" viewBox="0 0 21 21" fill="none" xmlns="http://www.w3.org/2000/svg">
<path d="M15.375 2.47528C13.8322 1.82405 12.1746 1.48853 10.5 1.48853C8.82541 1.48853 7.16778 1.82405 5.625 2.47528" stroke="black" stroke-width="1.5" stroke-linecap="round" stroke-linejoin="round"/>
<path d="M13.565 5.39966C11.596 4.73104 9.46126 4.73104 7.49219 5.39966" stroke="black" stroke-width="1.5" stroke-linecap="round" stroke-linejoin="round"/>
<path d="M15.8899 12.8769C15.8347 12.8604 15.7853 12.8285 15.7477 12.7848C15.7099 12.7412 15.6856 12.6877 15.6774 12.6307C15.5785 11.5472 15.1112 10.5303 14.3533 9.74965C13.5954 8.96901 12.5928 8.47176 11.5127 8.34085C10.4326 8.20992 9.3403 8.45324 8.41788 9.03022C7.49548 9.60719 6.79874 10.483 6.44387 11.5115C6.42039 11.5594 6.38367 11.5997 6.33807 11.6274C6.29245 11.6552 6.23984 11.6693 6.18646 11.6681C5.67205 11.7027 5.16946 11.8382 4.70742 12.067C4.24538 12.2958 3.83293 12.6133 3.4936 13.0015C2.80832 13.7854 2.4625 14.8095 2.53227 15.8484C2.60202 16.8873 3.08162 17.8559 3.86557 18.5412C4.64951 19.2265 5.67358 19.5723 6.71248 19.5026H15.1401C15.9618 19.4977 16.7531 19.1917 17.3641 18.6425C17.9753 18.0933 18.3639 17.339 18.4562 16.5227C18.5487 15.7062 18.3386 14.8843 17.8655 14.2123C17.3927 13.5404 16.6897 13.0653 15.8899 12.8769Z" stroke="black" stroke-width="1.5" stroke-linecap="round" stroke-linejoin="round"/>
</svg>
