<svg width="21" height="21" viewBox="0 0 21 21" fill="none" xmlns="http://www.w3.org/2000/svg">
<g clip-path="url(#clip0_146_400204)">
<path d="M10.5 19.5118V11.1547" stroke="black" stroke-width="1.5" stroke-linecap="round" stroke-linejoin="round"/>
<path d="M7.71484 16.7261L10.5006 19.5118L13.2863 16.7261" stroke="black" stroke-width="1.5" stroke-linecap="round" stroke-linejoin="round"/>
<path d="M6.20958 14.2423C5.03285 14.3213 3.87295 13.9296 2.985 13.1534C2.09707 12.3772 1.55385 11.2801 1.47484 10.1034C1.39583 8.92665 1.78751 7.76673 2.56371 6.8788C2.94805 6.43913 3.41522 6.07948 3.93855 5.82037C4.46188 5.56125 5.03112 5.40775 5.61377 5.36862C5.67425 5.36995 5.73382 5.35394 5.7855 5.32249C5.83716 5.29105 5.87873 5.24548 5.90534 5.19116C6.30727 4.02621 7.09644 3.03428 8.14121 2.38076C9.18598 1.72725 10.4232 1.45166 11.6466 1.59995C12.87 1.74824 14.0055 2.31144 14.864 3.19564C15.7222 4.07984 16.2517 5.23159 16.3636 6.45883C16.373 6.52344 16.4006 6.58403 16.4433 6.63345C16.4859 6.68287 16.5419 6.71904 16.6045 6.7377C17.5102 6.95112 18.3064 7.48929 18.8421 8.25029C19.3778 9.01129 19.6158 9.94231 19.5112 10.867C19.4066 11.7918 18.9665 12.646 18.2742 13.2681C17.582 13.8901 16.6857 14.2367 15.7551 14.2423" stroke="black" stroke-width="1.5" stroke-linecap="round" stroke-linejoin="round"/>
</g>
<defs>
<clipPath id="clip0_146_400204">
<rect width="21" height="21" fill="white"/>
</clipPath>
</defs>
</svg>
