<svg width="21" height="21" viewBox="0 0 21 21" fill="none" xmlns="http://www.w3.org/2000/svg">
<path d="M16.6044 9.33121C16.5419 9.31255 16.4859 9.27638 16.4433 9.22696C16.4007 9.17754 16.3729 9.11695 16.3636 9.05234C16.2516 7.8251 15.7223 6.67335 14.8639 5.78915C14.0055 4.90495 12.87 4.34175 11.6466 4.19345C10.4232 4.04517 9.18598 4.32076 8.14121 4.97427C7.09644 5.62779 6.30728 6.61973 5.90534 7.78467C5.87875 7.83899 5.83716 7.88457 5.7855 7.916C5.73382 7.94745 5.67425 7.96346 5.61377 7.96213C5.03113 8.00126 4.46188 8.15477 3.93855 8.41388C3.41522 8.67299 2.94805 9.03264 2.56371 9.47231C1.78751 10.3602 1.39583 11.5202 1.47484 12.6969C1.55385 13.8736 2.09707 14.9707 2.985 15.7469C3.87295 16.5232 5.03285 16.9148 6.20958 16.8359H15.7551C16.6858 16.8303 17.5821 16.4836 18.2742 15.8616C18.9664 15.2395 19.4066 14.3853 19.5112 13.4605C19.6159 12.5358 19.3779 11.6048 18.8422 10.8438C18.3065 10.0828 17.5103 9.54463 16.6044 9.33121Z" stroke="black" stroke-width="1.5" stroke-linecap="round" stroke-linejoin="round"/>
</svg>
