<svg width="21" height="21" viewBox="0 0 21 21" fill="none" xmlns="http://www.w3.org/2000/svg">
<path d="M14.4052 12.6587L9.93975 17.6824L7.70703 16.0077" stroke="black" stroke-width="1.5" stroke-linecap="round" stroke-linejoin="round"/>
<path d="M15.7551 16.0614C16.6858 16.0558 17.5821 15.7091 18.2742 15.0872C18.9664 14.4651 19.4066 13.6109 19.5112 12.6861C19.6159 11.7614 19.3779 10.8304 18.8422 10.0694C18.3065 9.30839 17.5103 8.77023 16.6044 8.5568C16.5419 8.53814 16.4859 8.50196 16.4433 8.45254C16.4007 8.40313 16.3729 8.34254 16.3636 8.27792C16.2516 7.05069 15.7223 5.89894 14.8639 5.01474C14.0055 4.13054 12.87 3.56734 11.6466 3.41904C10.4232 3.27075 9.18598 3.54634 8.14121 4.19986C7.09644 4.85337 6.30728 5.84531 5.90534 7.01026C5.87875 7.06458 5.83716 7.11015 5.7855 7.1416C5.73382 7.17304 5.67425 7.18906 5.61377 7.18772C5.03113 7.22684 4.46188 7.38035 3.93855 7.63946C3.41522 7.89858 2.94805 8.25823 2.56371 8.6979C1.78751 9.58583 1.39583 10.7457 1.47484 11.9225C1.55385 13.0992 2.09707 14.1963 2.985 14.9725C3.63119 15.5374 4.4214 15.8986 5.25731 16.023" stroke="black" stroke-width="1.5" stroke-linecap="round" stroke-linejoin="round"/>
</svg>
