<svg width="20" height="20" viewBox="0 0 20 20" fill="none" xmlns="http://www.w3.org/2000/svg">
<g id="cog-automation-36">
<g id="cog-automation">
<path id="Vector" d="M7.57313 3.77633L8.19555 2.28252C8.44451 1.78459 8.81796 1.41113 9.44037 1.41113H10.5607C11.0586 1.41113 11.5566 1.78459 11.8055 2.28252L12.4279 3.77633L14.2952 4.89663L15.9135 4.64764C16.4114 4.52316 17.0338 4.77213 17.2828 5.27006L17.7807 6.14145C18.0297 6.63938 18.0297 7.13733 17.6562 7.63526L16.6604 8.88008V11.1208L17.6562 12.3656C18.0297 12.739 18.0297 13.3615 17.7807 13.8594L17.2828 14.7307C17.0338 15.2287 16.5359 15.4776 15.9135 15.3531L14.2952 15.1042L12.4279 16.2246L11.8055 17.7184C11.5566 18.2163 11.1831 18.5897 10.5607 18.5897H9.44037C8.94243 18.5897 8.44451 18.2163 8.19555 17.7184L7.57313 16.2246L5.7059 15.1042L4.08764 15.3531C3.58971 15.4776 2.96729 15.2287 2.71832 14.7307L2.22041 13.8594C1.97143 13.3615 1.9714 12.8635 2.34486 12.3656L3.34074 11.1208V8.88008L2.34486 7.63526C1.9714 7.26181 1.97143 6.63938 2.22041 6.14145L2.71832 5.27006C2.96729 4.77213 3.46522 4.52316 4.08764 4.64764L5.7059 4.89663L7.57313 3.77633Z" stroke="black" stroke-width="1.5" stroke-miterlimit="10" stroke-linecap="round" stroke-linejoin="round"/>
<path id="Vector 382" d="M12.5808 8.86963L9.45739 7.19945C8.6562 6.77102 7.6875 7.35152 7.6875 8.26007V11.6897C7.6875 12.6099 8.67878 13.1892 9.48053 12.7376L12.6039 10.9782C13.4308 10.5124 13.4177 9.31717 12.5808 8.86963Z" stroke="black" stroke-width="1.5" stroke-linecap="round" stroke-linejoin="round"/>
</g>
</g>
</svg>
