<svg width="20" height="20" viewBox="0 0 20 20" fill="none" xmlns="http://www.w3.org/2000/svg">
<g id="cog-7">
<g id="cog--work-loading-cog-gear-settings-machine">
<path id="Vector" d="M7.66055 3.72363L8.22877 2.25685C8.3246 2.0085 8.4932 1.79489 8.71248 1.64398C8.93176 1.49308 9.19151 1.41192 9.4577 1.41113H10.5413C10.8075 1.41192 11.0672 1.49308 11.2865 1.64398C11.5058 1.79489 11.6744 2.0085 11.7702 2.25685L12.3384 3.72363L14.2677 4.83363L15.827 4.59578C16.0867 4.56053 16.3508 4.60327 16.5862 4.71856C16.8215 4.83386 17.0172 5.01649 17.1484 5.24328L17.677 6.16828C17.8125 6.39867 17.8748 6.66471 17.8559 6.93129C17.837 7.19788 17.7378 7.45248 17.5713 7.66149L16.6067 8.89042V11.1104L17.5977 12.3393C17.7642 12.5484 17.8635 12.803 17.8824 13.0695C17.9013 13.3361 17.8389 13.6022 17.7034 13.8326L17.1749 14.7576C17.0436 14.9843 16.8479 15.1669 16.6126 15.2823C16.3773 15.3975 16.1131 15.4403 15.8534 15.4051L14.2942 15.1672L12.3648 16.2772L11.7966 17.744C11.7008 17.9923 11.5322 18.206 11.3129 18.3569C11.0936 18.5078 10.8339 18.5889 10.5677 18.5897H9.4577C9.19151 18.5889 8.93176 18.5078 8.71248 18.3569C8.4932 18.206 8.3246 17.9923 8.22877 17.744L7.66055 16.2772L5.73127 15.1672L4.17198 15.4051C3.91235 15.4403 3.64809 15.3975 3.4128 15.2823C3.17752 15.1669 2.9818 14.9843 2.85055 14.7576L2.32198 13.8326C2.18654 13.6022 2.12414 13.3361 2.14301 13.0695C2.16188 12.803 2.26114 12.5484 2.4277 12.3393L3.39234 11.1104V8.89042L2.40127 7.66149C2.23472 7.45248 2.13545 7.19788 2.11658 6.93129C2.09771 6.66471 2.16011 6.39867 2.29555 6.16828L2.82413 5.24328C2.95537 5.01649 3.15109 4.83386 3.38637 4.71856C3.62166 4.60327 3.88592 4.56053 4.14555 4.59578L5.70484 4.83363L7.66055 3.72363ZM7.35663 10.0004C7.35663 10.5231 7.51163 11.0341 7.80203 11.4687C8.09242 11.9033 8.50519 12.2421 8.9881 12.4421C9.47103 12.6421 10.0024 12.6945 10.5151 12.5925C11.0277 12.4905 11.4987 12.2388 11.8683 11.8692C12.2379 11.4996 12.4896 11.0287 12.5916 10.516C12.6935 10.0034 12.6412 9.47197 12.4412 8.98904C12.2411 8.50612 11.9024 8.09336 11.4678 7.80296C11.0332 7.51257 10.5222 7.35756 9.99948 7.35756C9.29856 7.35756 8.62633 7.636 8.13071 8.13164C7.63506 8.62727 7.35663 9.29949 7.35663 10.0004Z" stroke="black" stroke-width="1.5" stroke-linecap="round" stroke-linejoin="round"/>
</g>
</g>
</svg>
