<svg width="20" height="20" viewBox="0 0 20 20" fill="none" xmlns="http://www.w3.org/2000/svg">
<g id="color-palette-5">
<g id="color-palette--color-palette-company-office-supplies-work">
<path id="Vector" d="M6.69587 17.9286C9.61509 17.9286 11.9816 15.5621 11.9816 12.6429C11.9816 9.72367 9.61509 7.35718 6.69587 7.35718C3.77665 7.35718 1.41016 9.72367 1.41016 12.6429C1.41016 15.5621 3.77665 17.9286 6.69587 17.9286Z" stroke="black" stroke-width="1.5" stroke-linecap="round" stroke-linejoin="round"/>
<path id="Vector_2" d="M13.3013 17.9286C16.2205 17.9286 18.5871 15.5621 18.5871 12.6429C18.5871 9.72367 16.2205 7.35718 13.3013 7.35718C10.3821 7.35718 8.01562 9.72367 8.01562 12.6429C8.01562 15.5621 10.3821 17.9286 13.3013 17.9286Z" stroke="black" stroke-width="1.5" stroke-linecap="round" stroke-linejoin="round"/>
<path id="Vector_3" d="M10.0006 12.643C12.9198 12.643 15.2863 10.2765 15.2863 7.35725C15.2863 4.43803 12.9198 2.07153 10.0006 2.07153C7.08134 2.07153 4.71484 4.43803 4.71484 7.35725C4.71484 10.2765 7.08134 12.643 10.0006 12.643Z" stroke="black" stroke-width="1.5" stroke-linecap="round" stroke-linejoin="round"/>
</g>
</g>
</svg>
