<svg width="20" height="20" viewBox="0 0 20 20" fill="none" xmlns="http://www.w3.org/2000/svg">
<g id="color-swatches" clip-path="url(#clip0_47_143573)">
<g id="color-swatches--color-colors-design-painting-palette-sample-swatch">
<path id="Vector" d="M2.73158 1.41064H6.69587C7.04634 1.41064 7.38245 1.54987 7.63027 1.79768C7.87807 2.0455 8.0173 2.3816 8.0173 2.73207V15.2856C8.0173 16.1618 7.66925 17.002 7.04971 17.6217C6.43017 18.2412 5.58989 18.5892 4.71373 18.5892C4.2799 18.5892 3.85032 18.5037 3.4495 18.3377C3.0487 18.1718 2.68452 17.9284 2.37775 17.6217C1.75821 17.002 1.41016 16.1618 1.41016 15.2856V2.73207C1.41016 2.3816 1.54938 2.0455 1.79719 1.79768C2.04501 1.54987 2.38112 1.41064 2.73158 1.41064Z" stroke="black" stroke-width="1.5" stroke-linecap="round" stroke-linejoin="round"/>
<path id="Vector_2" d="M8.01542 7.35748L12.6404 2.70605C12.888 2.45992 13.2229 2.32178 13.572 2.32178C13.9211 2.32178 14.2561 2.45992 14.5036 2.70605L17.2918 5.50748C17.538 5.75506 17.6761 6.08998 17.6761 6.43908C17.6761 6.78818 17.538 7.1231 17.2918 7.37069L7.05078 17.6249" stroke="black" stroke-width="1.5" stroke-linecap="round" stroke-linejoin="round"/>
<path id="Vector_3" d="M12.6434 11.9822H17.2684C17.6189 11.9822 17.955 12.1214 18.2028 12.3692C18.4506 12.617 18.5898 12.9531 18.5898 13.3036V17.2679C18.5898 17.6183 18.4506 17.9545 18.2028 18.2023C17.955 18.45 17.6189 18.5893 17.2684 18.5893H4.71484" stroke="black" stroke-width="1.5" stroke-linecap="round" stroke-linejoin="round"/>
<path id="Vector_4" d="M1.41016 6.69629H8.0173" stroke="black" stroke-width="1.5" stroke-linecap="round" stroke-linejoin="round"/>
<path id="Vector_5" d="M1.41016 11.9822H8.0173" stroke="black" stroke-width="1.5" stroke-linecap="round" stroke-linejoin="round"/>
</g>
</g>
<defs>
<clipPath id="clip0_47_143573">
<rect width="20" height="20" fill="white"/>
</clipPath>
</defs>
</svg>
