<svg width="20" height="20" viewBox="0 0 20 20" fill="none" xmlns="http://www.w3.org/2000/svg">
<g id="color-picker-10" clip-path="url(#clip0_47_143569)">
<g id="color-picker--color-colors-design-dropper-eye-eyedrop-eyedropper-painting-picker">
<path id="Vector" d="M17.1569 2.84262C16.7278 2.40979 16.2174 2.06621 15.6548 1.83175C15.0923 1.59728 14.489 1.47656 13.8795 1.47656C13.27 1.47656 12.6666 1.59728 12.1041 1.83175C11.5416 2.06621 11.031 2.40979 10.602 2.84262L4.58463 8.86002C3.98843 9.45526 3.59914 10.2262 3.47405 11.0593C3.34896 11.8925 3.4947 12.7437 3.88981 13.4878L1.85779 15.5198C1.61361 15.7654 1.47656 16.0978 1.47656 16.4441C1.47656 16.7903 1.61361 17.1227 1.85779 17.3683L2.63127 18.1418C2.8769 18.386 3.20917 18.523 3.5555 18.523C3.90185 18.523 4.23412 18.386 4.47975 18.1418L6.51176 16.1098C7.25583 16.5049 8.10711 16.6507 8.94023 16.5255C9.77335 16.4004 10.5443 16.0111 11.1395 15.415L17.1569 9.39753C17.5898 8.9685 17.9334 8.45798 18.1678 7.89545C18.4022 7.33292 18.523 6.72951 18.523 6.12008C18.523 5.51064 18.4022 4.90724 18.1678 4.3447C17.9334 3.78217 17.5898 3.27165 17.1569 2.84262Z" stroke="black" stroke-width="1.5" stroke-linecap="round" stroke-linejoin="round"/>
<path id="Vector_2" d="M6.72266 2.79028L17.2105 13.2781" stroke="black" stroke-width="1.5" stroke-linecap="round" stroke-linejoin="round"/>
</g>
</g>
<defs>
<clipPath id="clip0_47_143569">
<rect width="20" height="20" fill="white"/>
</clipPath>
</defs>
</svg>
