<svg width="21" height="21" viewBox="0 0 21 21" fill="none" xmlns="http://www.w3.org/2000/svg">
<path d="M5.74472 2.71972L2.4913 5.97314C1.91436 6.55008 1.91436 7.48549 2.4913 8.06243C3.06823 8.63937 4.00365 8.63937 4.58058 8.06243L6.72961 5.9134C7.27356 5.36945 8.15546 5.36945 8.69942 5.9134L15.0868 12.3007C15.6307 12.8447 15.6307 13.7266 15.0868 14.2705L12.9377 16.4196C12.3608 16.9965 12.3608 17.9319 12.9377 18.5089C13.5147 19.0858 14.4501 19.0858 15.027 18.5089L18.2804 15.2554C19.3683 14.1676 19.3683 12.4037 18.2804 11.3159L9.68431 2.71972C8.59641 1.63184 6.83261 1.63184 5.74472 2.71972Z" stroke="black" stroke-width="1.5" stroke-linecap="round" stroke-linejoin="round"/>
<path d="M6.32031 10.5L9.80246 7.01782" stroke="black" stroke-width="1.5" stroke-linecap="round" stroke-linejoin="round"/>
<path d="M10.5 14.6784L13.9821 11.1963" stroke="black" stroke-width="1.5" stroke-linecap="round" stroke-linejoin="round"/>
<path d="M8.41016 12.5893L11.8923 9.10718" stroke="black" stroke-width="1.5" stroke-linecap="round" stroke-linejoin="round"/>
</svg>
