<svg width="21" height="21" viewBox="0 0 21 21" fill="none" xmlns="http://www.w3.org/2000/svg">
<g clip-path="url(#clip0_146_401442)">
<path d="M17.115 14.6786C17.597 14.6786 18.0684 14.8215 18.4691 15.0893C18.87 15.3572 19.1824 15.7378 19.3669 16.1833C19.5513 16.6287 19.5997 17.1187 19.5057 17.5916C19.4116 18.0645 19.1794 18.4987 18.8385 18.8396C18.4976 19.1805 18.0634 19.4127 17.5905 19.5068C17.1176 19.6008 16.6276 19.5524 16.1822 19.368C15.7367 19.1835 15.3561 18.8711 15.0882 18.4702C14.8204 18.0695 14.6775 17.5981 14.6775 17.1161V3.88391C14.6775 3.40182 14.8204 2.93056 15.0882 2.52971C15.3561 2.12887 15.7367 1.81644 16.1822 1.63196C16.6276 1.44747 17.1176 1.3992 17.5905 1.49325C18.0634 1.5873 18.4976 1.81945 18.8385 2.16033C19.1794 2.50124 19.4116 2.93556 19.5057 3.40838C19.5997 3.88121 19.5513 4.37131 19.3669 4.81671C19.1824 5.2621 18.87 5.64278 18.4691 5.91062C18.0684 6.17846 17.597 6.32141 17.115 6.32141H3.88281C3.40072 6.32141 2.92946 6.17846 2.52861 5.91062C2.12777 5.64278 1.81535 5.2621 1.63086 4.81671C1.44637 4.37131 1.3981 3.88121 1.49215 3.40838C1.5862 2.93556 1.81835 2.50124 2.15924 2.16033C2.50014 1.81945 2.93446 1.5873 3.40728 1.49325C3.88011 1.3992 4.37021 1.44747 4.81561 1.63196C5.261 1.81644 5.64168 2.12887 5.90952 2.52971C6.17736 2.93056 6.32031 3.40182 6.32031 3.88391V17.1161C6.32031 17.5981 6.17736 18.0695 5.90952 18.4702C5.64168 18.8711 5.261 19.1835 4.81561 19.368C4.37021 19.5524 3.88011 19.6008 3.40728 19.5068C2.93446 19.4127 2.50014 19.1805 2.15924 18.8396C1.81835 18.4987 1.5862 18.0645 1.49215 17.5916C1.3981 17.1187 1.44637 16.6287 1.63086 16.1833C1.81535 15.7378 2.12777 15.3572 2.52861 15.0893C2.92946 14.8215 3.40072 14.6786 3.88281 14.6786H17.115Z" stroke="black" stroke-width="1.5" stroke-linecap="round" stroke-linejoin="round"/>
</g>
<defs>
<clipPath id="clip0_146_401442">
<rect width="21" height="21" fill="white"/>
</clipPath>
</defs>
</svg>
