<svg width="21" height="21" viewBox="0 0 21 21" fill="none" xmlns="http://www.w3.org/2000/svg">
<g clip-path="url(#clip0_146_400778)">
<path d="M12.5887 13.6341H8.41016V12.7437C8.41016 12.1211 8.77869 11.5577 9.34905 11.3081L11.6742 10.2909C12.2297 10.0478 12.5887 9.49893 12.5887 8.89253C12.5887 8.04956 11.9054 7.36621 11.0624 7.36621H9.97712C9.29486 7.36621 8.71443 7.80224 8.49931 8.41085" stroke="black" stroke-width="1.5" stroke-linecap="round" stroke-linejoin="round"/>
<path d="M15.3733 4.23218H5.62333C4.85408 4.23218 4.23047 4.85579 4.23047 5.62503V15.375C4.23047 16.1443 4.85408 16.7679 5.62333 16.7679H15.3733C16.1426 16.7679 16.7662 16.1443 16.7662 15.375V5.62503C16.7662 4.85579 16.1426 4.23218 15.3733 4.23218Z" stroke="black" stroke-width="1.5" stroke-linecap="round" stroke-linejoin="round"/>
<path d="M7.71484 4.23225V1.44653" stroke="black" stroke-width="1.5" stroke-linecap="round" stroke-linejoin="round"/>
<path d="M13.2852 4.23225V1.44653" stroke="black" stroke-width="1.5" stroke-linecap="round" stroke-linejoin="round"/>
<path d="M4.23103 13.2859H1.44531" stroke="black" stroke-width="1.5" stroke-linecap="round" stroke-linejoin="round"/>
<path d="M4.23103 7.71436H1.44531" stroke="black" stroke-width="1.5" stroke-linecap="round" stroke-linejoin="round"/>
<path d="M13.2852 16.7681V19.5538" stroke="black" stroke-width="1.5" stroke-linecap="round" stroke-linejoin="round"/>
<path d="M7.71484 16.7681V19.5538" stroke="black" stroke-width="1.5" stroke-linecap="round" stroke-linejoin="round"/>
<path d="M16.7656 7.71436H19.5513" stroke="black" stroke-width="1.5" stroke-linecap="round" stroke-linejoin="round"/>
<path d="M16.7656 13.2859H19.5513" stroke="black" stroke-width="1.5" stroke-linecap="round" stroke-linejoin="round"/>
</g>
<defs>
<clipPath id="clip0_146_400778">
<rect width="21" height="21" fill="white"/>
</clipPath>
</defs>
</svg>
