<svg width="21" height="21" viewBox="0 0 21 21" fill="none" xmlns="http://www.w3.org/2000/svg">
<g clip-path="url(#clip0_146_400740)">
<path d="M12.7026 12.1022H7.75139C7.53704 12.1022 7.36328 11.9285 7.36328 11.7141C7.36328 11.6201 7.39741 11.5293 7.4593 11.4586L10.991 7.42229C11.0608 7.34259 11.1615 7.29688 11.2674 7.29688C11.4703 7.29688 11.6347 7.4613 11.6347 7.66414V13.704" stroke="black" stroke-width="1.5" stroke-linecap="round" stroke-linejoin="round"/>
<path d="M15.3733 4.23218H5.62333C4.85408 4.23218 4.23047 4.85579 4.23047 5.62503V15.375C4.23047 16.1443 4.85408 16.7679 5.62333 16.7679H15.3733C16.1426 16.7679 16.7662 16.1443 16.7662 15.375V5.62503C16.7662 4.85579 16.1426 4.23218 15.3733 4.23218Z" stroke="black" stroke-width="1.5" stroke-linecap="round" stroke-linejoin="round"/>
<path d="M7.71484 4.23225V1.44653" stroke="black" stroke-width="1.5" stroke-linecap="round" stroke-linejoin="round"/>
<path d="M13.2852 4.23225V1.44653" stroke="black" stroke-width="1.5" stroke-linecap="round" stroke-linejoin="round"/>
<path d="M4.23103 13.2859H1.44531" stroke="black" stroke-width="1.5" stroke-linecap="round" stroke-linejoin="round"/>
<path d="M4.23103 7.71436H1.44531" stroke="black" stroke-width="1.5" stroke-linecap="round" stroke-linejoin="round"/>
<path d="M13.2852 16.7681V19.5538" stroke="black" stroke-width="1.5" stroke-linecap="round" stroke-linejoin="round"/>
<path d="M7.71484 16.7681V19.5538" stroke="black" stroke-width="1.5" stroke-linecap="round" stroke-linejoin="round"/>
<path d="M16.7656 7.71436H19.5513" stroke="black" stroke-width="1.5" stroke-linecap="round" stroke-linejoin="round"/>
<path d="M16.7656 13.2859H19.5513" stroke="black" stroke-width="1.5" stroke-linecap="round" stroke-linejoin="round"/>
</g>
<defs>
<clipPath id="clip0_146_400740">
<rect width="21" height="21" fill="white"/>
</clipPath>
</defs>
</svg>
