<svg width="21" height="21" viewBox="0 0 21 21" fill="none" xmlns="http://www.w3.org/2000/svg">
<path d="M16.3338 2.40761C16.3852 2.30615 16.4121 2.19401 16.4121 2.08028C16.4121 1.96655 16.3852 1.85442 16.3338 1.75296C16.2715 1.65856 16.1867 1.58113 16.087 1.52764C15.9873 1.47415 15.876 1.44628 15.7627 1.44653H5.27456C5.16143 1.44628 5.05002 1.47415 4.95033 1.52764C4.85066 1.58113 4.76584 1.65856 4.70349 1.75296C4.64099 1.84882 4.6021 1.95812 4.59 2.07192C4.5779 2.18571 4.59293 2.30075 4.63385 2.40761C5.7361 4.96317 6.30466 7.71697 6.30466 10.5001C6.30466 13.2832 5.7361 16.037 4.63385 18.5926C4.59293 18.6994 4.5779 18.8145 4.59 18.9283C4.6021 19.0421 4.64099 19.1514 4.70349 19.2472C4.76584 19.3417 4.85066 19.4191 4.95035 19.4726C5.05002 19.5261 5.16143 19.554 5.27456 19.5537H15.6931C15.8063 19.554 15.9176 19.5261 16.0173 19.4726C16.1171 19.4191 16.2019 19.3417 16.2642 19.2472C16.3156 19.1458 16.3424 19.0337 16.3424 18.9199C16.3424 18.8061 16.3156 18.694 16.2642 18.5926C15.173 16.0323 14.6162 13.2761 14.6282 10.4929C14.6402 7.70978 15.2206 4.95842 16.3338 2.40761Z" stroke="black" stroke-width="1.5" stroke-linecap="round" stroke-linejoin="round"/>
</svg>
