<svg width="20" height="20" viewBox="0 0 20 20" fill="none" xmlns="http://www.w3.org/2000/svg">
<g id="compare-ab-55" clip-path="url(#clip0_47_141018)">
<g id="compare-ab">
<path id="Vector 1" d="M3.73047 10.5271L5.18412 6.16611C5.25865 5.94255 5.46786 5.79175 5.70352 5.79175C5.93918 5.79175 6.14839 5.94255 6.22292 6.16611L7.67657 10.5271M4.25661 8.94864H7.15043" stroke="black" stroke-width="1.5" stroke-linecap="round" stroke-linejoin="round"/>
<path id="Vector 1_2" d="M12.7539 9.52759V11.6474H14.3919C14.9773 11.6474 15.4519 11.1728 15.4519 10.5875C15.4519 10.0021 14.9773 9.52759 14.3919 9.52759H12.7539Z" stroke="black" stroke-width="1.5" stroke-linecap="round" stroke-linejoin="round"/>
<path id="Vector 2" d="M12.7539 11.6478V14.153H14.5846C15.2764 14.153 15.8372 13.5922 15.8372 12.9004C15.8372 12.2086 15.2764 11.6478 14.5846 11.6478H12.7539Z" stroke="black" stroke-width="1.5" stroke-linecap="round" stroke-linejoin="round"/>
<path id="Rectangle 585" d="M1.41016 2.73207C1.41016 2.00227 2.00178 1.41064 2.73158 1.41064H8.67803C9.40783 1.41064 9.99946 2.00227 9.99946 2.73207V13.5867C9.99946 14.3165 9.40783 14.9081 8.67803 14.9081H2.73158C2.00178 14.9081 1.41016 14.3165 1.41016 13.5867V2.73207Z" stroke="black" stroke-width="1.5" stroke-linecap="round" stroke-linejoin="round"/>
<path id="Rectangle 586" d="M18.5893 17.2677V6.4131C18.5893 5.6833 17.9977 5.09167 17.2679 5.09167H11.3214C10.5916 5.09167 10 5.6833 10 6.4131V17.2677C10 17.9975 10.5916 18.5891 11.3214 18.5891H17.2679C17.9977 18.5891 18.5893 17.9975 18.5893 17.2677Z" stroke="black" stroke-width="1.5" stroke-linecap="round" stroke-linejoin="round"/>
</g>
</g>
<defs>
<clipPath id="clip0_47_141018">
<rect width="20" height="20" fill="white"/>
</clipPath>
</defs>
</svg>
