<svg width="21" height="21" viewBox="0 0 21 21" fill="none" xmlns="http://www.w3.org/2000/svg">
<path d="M4.53125 14.2135H6.83251" stroke="black" stroke-width="1.5" stroke-linecap="round" stroke-linejoin="round"/>
<path d="M5.68359 13.0626V15.3638" stroke="black" stroke-width="1.5" stroke-linecap="round" stroke-linejoin="round"/>
<path d="M15.1127 9.88171H6.01562V9.88822C5.93637 9.8839 5.85656 9.88171 5.77623 9.88171C3.38432 9.88171 1.44531 11.8207 1.44531 14.2126C1.44531 16.6045 3.38432 18.5435 5.77623 18.5435C7.21646 18.5435 8.4925 17.8406 9.2799 16.759H11.6082C12.3957 17.8415 13.6725 18.5454 15.1136 18.5454C17.5059 18.5454 19.4453 16.6059 19.4453 14.2135C19.4453 11.8211 17.5051 9.88171 15.1127 9.88171ZM15.1127 9.88171C15.1124 9.88171 15.113 9.88171 15.1127 9.88171Z" stroke="black" stroke-width="1.5" stroke-linecap="round" stroke-linejoin="round"/>
<path d="M13.7974 15.7119C13.6051 15.7119 13.4492 15.5561 13.4492 15.3637C13.4492 15.1715 13.6051 15.0155 13.7974 15.0155" stroke="black" stroke-width="1.5" stroke-linecap="round" stroke-linejoin="round"/>
<path d="M13.7969 15.7119C13.9892 15.7119 14.1451 15.5561 14.1451 15.3637C14.1451 15.1715 13.9892 15.0155 13.7969 15.0155" stroke="black" stroke-width="1.5" stroke-linecap="round" stroke-linejoin="round"/>
<path d="M16.1451 13.2744C15.9527 13.2744 15.7969 13.1185 15.7969 12.9262C15.7969 12.7339 15.9527 12.578 16.1451 12.578" stroke="black" stroke-width="1.5" stroke-linecap="round" stroke-linejoin="round"/>
<path d="M16.1445 13.2744C16.3369 13.2744 16.4927 13.1185 16.4927 12.9262C16.4927 12.7339 16.3369 12.578 16.1445 12.578" stroke="black" stroke-width="1.5" stroke-linecap="round" stroke-linejoin="round"/>
<path d="M5.19922 2.77089C5.86147 2.3294 7.8482 1.44641 10.4972 1.44641C13.1461 1.44641 15.1328 2.3294 15.7951 2.77089" stroke="black" stroke-width="1.5" stroke-linecap="round" stroke-linejoin="round"/>
<path d="M7.85156 6.08217C8.29307 5.86142 9.44095 5.41992 10.5005 5.41992C11.5601 5.41992 12.708 5.86142 13.1495 6.08217" stroke="black" stroke-width="1.5" stroke-linecap="round" stroke-linejoin="round"/>
</svg>
