<svg width="21" height="21" viewBox="0 0 21 21" fill="none" xmlns="http://www.w3.org/2000/svg">
<path d="M18.0514 19.4474H5.05584C4.51163 19.4474 3.98971 19.2313 3.6049 18.8464C3.22009 18.4617 3.00391 17.9398 3.00391 17.3955C3.00391 16.8513 3.22009 16.3294 3.6049 15.9445C3.98971 15.5598 4.51163 15.3437 5.05584 15.3437H16.6834C17.0463 15.3437 17.3942 15.1995 17.6508 14.9429C17.9073 14.6864 18.0514 14.3385 18.0514 13.9757V3.03202C18.0514 2.66922 17.9073 2.32127 17.6508 2.06473C17.3942 1.80819 17.0463 1.66406 16.6834 1.66406H5.05584C4.52098 1.66387 4.00718 1.87253 3.62391 2.24558C3.24064 2.61864 3.01817 3.1266 3.00391 3.66128V17.3409" stroke="black" stroke-width="1.5" stroke-linecap="round" stroke-linejoin="round"/>
<path d="M16.6836 15.3438V19.4475" stroke="black" stroke-width="1.5" stroke-linecap="round" stroke-linejoin="round"/>
<path d="M11.2268 12.2215C11.6905 12.4177 12.2047 12.4611 12.6947 12.3456C13.1848 12.23 13.6254 11.9615 13.9526 11.5789L14.2961 11.2354C14.4456 11.1154 14.5428 10.9424 14.5676 10.7524C14.5924 10.5624 14.5428 10.3702 14.4291 10.216L13.321 9.1079C13.1668 8.99424 12.9746 8.94461 12.7846 8.96939C12.5946 8.99417 12.4216 9.09145 12.3016 9.24087C12.1817 9.3903 12.0087 9.48758 11.8187 9.51236C11.6287 9.53714 11.4365 9.48751 11.2822 9.37384L9.50933 7.60095C9.39567 7.44671 9.34604 7.25449 9.37082 7.06451C9.3956 6.87452 9.49288 6.70147 9.6423 6.58155C9.79173 6.46162 9.88901 6.28856 9.91378 6.09857C9.93856 5.90859 9.88894 5.71637 9.77526 5.56213L8.66721 4.45408C8.51297 4.34041 8.32076 4.29078 8.13077 4.31556C7.94077 4.34034 7.76773 4.43762 7.6478 4.58705L7.30431 4.93054C6.92308 5.25883 6.65558 5.69938 6.54014 6.18904C6.42469 6.6787 6.46722 7.19234 6.66163 7.65636C7.78521 9.53002 9.35315 11.098 11.2268 12.2215Z" stroke="black" stroke-width="1.5" stroke-linecap="round" stroke-linejoin="round"/>
</svg>
