<svg width="21" height="21" viewBox="0 0 21 21" fill="none" xmlns="http://www.w3.org/2000/svg">
<path d="M6.87891 10.5V13.7188" stroke="black" stroke-width="1.5" stroke-linecap="round" stroke-linejoin="round"/>
<path d="M8.48828 12.1095H5.26953" stroke="black" stroke-width="1.5" stroke-linecap="round" stroke-linejoin="round"/>
<path d="M2.5002 10.7683L1.92608 15.9354C1.71679 17.819 3.19122 19.4663 5.0864 19.4663C6.2908 19.4663 7.39184 18.7858 7.93047 17.7086L8.43107 16.7074H12.5695L13.0701 17.7086C13.6087 18.7858 14.7098 19.4663 15.9142 19.4663C17.8093 19.4663 19.2838 17.819 19.0744 15.9354L18.5003 10.7683C18.2652 8.6521 16.4765 7.05115 14.3473 7.05115H6.65321C4.52403 7.05115 2.73533 8.6521 2.5002 10.7683Z" stroke="black" stroke-width="1.5" stroke-linecap="round" stroke-linejoin="round"/>
<path d="M10.5 7.05131V5.68523C10.5 4.91597 11.1236 4.29238 11.8929 4.29238H13.9353C14.7045 4.29238 15.3281 3.66877 15.3281 2.89952V1.53345" stroke="black" stroke-width="1.5" stroke-linecap="round" stroke-linejoin="round"/>
<path d="M15.3291 11.1897C15.1387 11.1897 14.9844 11.0353 14.9844 10.8449C14.9844 10.6544 15.1387 10.5 15.3291 10.5" stroke="black" stroke-width="1.5" stroke-linecap="round" stroke-linejoin="round"/>
<path d="M15.3281 11.1897C15.5187 11.1897 15.673 11.0353 15.673 10.8449C15.673 10.6544 15.5187 10.5 15.3281 10.5" stroke="black" stroke-width="1.5" stroke-linecap="round" stroke-linejoin="round"/>
<path d="M12.9141 12.9141C12.9141 12.7236 13.0685 12.5692 13.2589 12.5692C13.4494 12.5692 13.6038 12.7236 13.6038 12.9141" stroke="black" stroke-width="1.5" stroke-linecap="round" stroke-linejoin="round"/>
<path d="M12.9141 12.9139C12.9141 13.1044 13.0685 13.2588 13.2589 13.2588C13.4494 13.2588 13.6038 13.1044 13.6038 12.9139" stroke="black" stroke-width="1.5" stroke-linecap="round" stroke-linejoin="round"/>
</svg>
