<svg width="20" height="20" viewBox="0 0 20 20" fill="none" xmlns="http://www.w3.org/2000/svg">
<g id="convert-pdf-1-30" clip-path="url(#clip0_47_144267)">
<g id="convert-PDF-1--essential-files-folder-PDF-converter">
<path id="Rectangle 603" d="M11.3203 11.3214C11.3203 10.5916 11.9119 10 12.6417 10H15.9453L18.5882 12.6429V17.2679C18.5882 17.9977 17.9966 18.5893 17.2667 18.5893H12.6417C11.9119 18.5893 11.3203 17.9977 11.3203 17.2679V11.3214Z" stroke="black" stroke-width="1.5" stroke-linecap="round" stroke-linejoin="round"/>
<path id="Rectangle 604" d="M1.41016 2.73207C1.41016 2.00227 2.00178 1.41064 2.73158 1.41064H6.03516L8.67801 4.0535V8.6785C8.67801 9.4083 8.08638 9.99993 7.35659 9.99993H2.73158C2.00178 9.99993 1.41016 9.4083 1.41016 8.6785V2.73207Z" stroke="black" stroke-width="1.5" stroke-linecap="round" stroke-linejoin="round"/>
<path id="Vector 3205" d="M18.5871 7.35686V6.03544C18.5871 4.57582 17.4038 3.39258 15.9442 3.39258H12.6406" stroke="black" stroke-width="1.5" stroke-linecap="round" stroke-linejoin="round"/>
<path id="Vector 3212" d="M14.6228 1.41064L12.6406 3.39279L14.6228 5.37493" stroke="black" stroke-width="1.5" stroke-linecap="round" stroke-linejoin="round"/>
<path id="Vector 3206" d="M1.41016 13.3037V13.9644C1.41016 15.4241 2.5934 16.6073 4.05301 16.6073H7.35659" stroke="black" stroke-width="1.5" stroke-linecap="round" stroke-linejoin="round"/>
<path id="Vector 3211" d="M5.375 14.625L7.35714 16.6071L5.375 18.5893" stroke="black" stroke-width="1.5" stroke-linecap="round" stroke-linejoin="round"/>
</g>
</g>
<defs>
<clipPath id="clip0_47_144267">
<rect width="20" height="20" fill="white"/>
</clipPath>
</defs>
</svg>
