<svg width="20" height="20" viewBox="0 0 20 20" fill="none" xmlns="http://www.w3.org/2000/svg">
<g id="convert-pdf-2-49">
<g id="convert-PDF-2--essential-files-folder-convert-to-PDF">
<path id="Vector" d="M17.2662 17.2678C17.2662 17.6182 17.1269 17.9544 16.8791 18.2022C16.6314 18.4499 16.2952 18.5892 15.9448 18.5892H4.0519C3.70143 18.5892 3.36532 18.4499 3.1175 18.2022C2.86969 17.9544 2.73047 17.6182 2.73047 17.2678V2.73207C2.73047 2.3816 2.86969 2.0455 3.1175 1.79768C3.36532 1.54987 3.70143 1.41064 4.0519 1.41064H12.6412L17.2662 6.03564V17.2678Z" stroke="black" stroke-width="1.5" stroke-linecap="round" stroke-linejoin="round"/>
<path id="Vector 1238" d="M7.74962 5.39687C6.03999 5.9034 13.1682 14.4932 13.9284 12.5275C14.6886 10.562 4.56541 13.0958 6.23266 14.4932C7.8999 15.8904 9.45924 4.89034 7.74962 5.39687Z" stroke="black" stroke-width="1.5" stroke-linecap="round" stroke-linejoin="round"/>
</g>
</g>
</svg>
