<svg width="20" height="20" viewBox="0 0 20 20" fill="none" xmlns="http://www.w3.org/2000/svg">
<g id="copy-link-5" clip-path="url(#clip0_47_146042)">
<g id="copy-link">
<path id="Vector 1007" d="M13.0703 3.33798L14.1804 2.22781C15.1887 1.21963 16.8233 1.21964 17.8314 2.22781C18.8397 3.236 18.8397 4.87059 17.8314 5.87877L16.7213 6.98893" stroke="black" stroke-width="1.5" stroke-linecap="round" stroke-linejoin="round"/>
<path id="Vector 1008" d="M14.9511 5.11035L12.7578 7.30358" stroke="black" stroke-width="1.5" stroke-linecap="round" stroke-linejoin="round"/>
<path id="Vector 1009" d="M11.0304 5.37891L9.9202 6.48906C8.91202 7.49725 8.91202 9.13183 9.9202 10.14C10.9284 11.1482 12.563 11.1482 13.5711 10.14L14.6813 9.02985" stroke="black" stroke-width="1.5" stroke-linecap="round" stroke-linejoin="round"/>
<path id="Vector 1010" d="M6.88659 3.9248H3.84412C2.49989 3.9248 1.41016 5.01453 1.41016 6.35878V16.0947C1.41016 17.4389 2.49989 18.5287 3.84412 18.5287H13.58C14.9243 18.5287 16.0139 17.4389 16.0139 16.0947V13.0522" stroke="black" stroke-width="1.5" stroke-linecap="round" stroke-linejoin="round"/>
</g>
</g>
<defs>
<clipPath id="clip0_47_146042">
<rect width="20" height="20" fill="white"/>
</clipPath>
</defs>
</svg>
