<svg width="20" height="20" viewBox="0 0 20 20" fill="none" xmlns="http://www.w3.org/2000/svg">
<g id="creative-commons-13" clip-path="url(#clip0_47_143740)">
<g id="creative-commons">
<path id="Ellipse 50" d="M1.41016 9.99993C1.41016 11.1279 1.63232 12.2448 2.06398 13.2869C2.49563 14.329 3.12831 15.2759 3.9259 16.0735C4.72349 16.8711 5.67036 17.5037 6.71246 17.9354C7.75457 18.367 8.87148 18.5892 9.99944 18.5892C11.1274 18.5892 12.2443 18.367 13.2864 17.9354C14.3285 17.5037 15.2754 16.8711 16.073 16.0735C16.8706 15.2759 17.5033 14.329 17.9349 13.2869C18.3666 12.2448 18.5887 11.1279 18.5887 9.99993C18.5887 8.87197 18.3666 7.75505 17.9349 6.71295C17.5033 5.67085 16.8706 4.72398 16.073 3.92639C15.2754 3.1288 14.3285 2.49612 13.2864 2.06447C12.2443 1.63281 11.1274 1.41064 9.99944 1.41064C8.87148 1.41064 7.75457 1.63281 6.71246 2.06447C5.67036 2.49612 4.72349 3.1288 3.9259 3.92639C3.12831 4.72398 2.49563 5.67085 2.06398 6.71295C1.63232 7.75505 1.41016 8.87197 1.41016 9.99993Z" stroke="black" stroke-width="1.5" stroke-linecap="round" stroke-linejoin="round"/>
<path id="Vector 220" d="M8.73825 8.14987C8.54776 7.61096 8.03382 7.22485 7.42969 7.22485H6.50469C5.73839 7.22485 5.11719 7.84606 5.11719 8.61235V11.3874C5.11719 12.1537 5.73839 12.7749 6.50469 12.7749H7.42969C8.03381 12.7749 8.54776 12.3888 8.73823 11.8499" stroke="black" stroke-width="1.5" stroke-linecap="round" stroke-linejoin="round"/>
<path id="Vector 221" d="M14.8789 8.14987C14.6883 7.61096 14.1744 7.22485 13.5703 7.22485H12.6453C11.879 7.22485 11.2578 7.84606 11.2578 8.61235V11.3874C11.2578 12.1537 11.879 12.7749 12.6453 12.7749H13.5703C14.1744 12.7749 14.6883 12.3888 14.8789 11.8499" stroke="black" stroke-width="1.5" stroke-linecap="round" stroke-linejoin="round"/>
</g>
</g>
<defs>
<clipPath id="clip0_47_143740">
<rect width="20" height="20" fill="white"/>
</clipPath>
</defs>
</svg>
