<svg width="21" height="21" viewBox="0 0 21 21" fill="none" xmlns="http://www.w3.org/2000/svg">
<path d="M13.9827 19.5535V16.0714H16.7684C17.1378 16.0714 17.4921 15.9246 17.7533 15.6634C18.0145 15.4021 18.1613 15.0479 18.1613 14.6785V9.10705C18.161 7.74556 17.7979 6.40875 17.1094 5.23421C16.4209 4.05967 15.4317 3.08985 14.2439 2.42458C13.056 1.75932 11.7123 1.42264 10.351 1.44921C8.98984 1.47578 7.66029 1.86464 6.49927 2.57576C5.33827 3.28687 4.38775 4.29456 3.74556 5.49507C3.10339 6.69559 2.79275 8.04556 2.84562 9.406C2.89851 10.7665 3.313 12.0882 4.04642 13.2353C4.77984 14.3823 5.80571 15.3131 7.01841 15.9321V19.5535" stroke="black" stroke-width="1.5" stroke-linecap="round" stroke-linejoin="round"/>
<path d="M6.32031 7.36597L10.4989 4.92847L14.6775 7.36597V11.5445L10.4989 13.982L6.32031 11.5445V7.36597Z" stroke="black" stroke-width="1.5" stroke-linecap="round" stroke-linejoin="round"/>
<path d="M9.80469 9.45522C9.80469 9.63992 9.87806 9.81706 10.0087 9.94767C10.1393 10.0783 10.3164 10.1516 10.5011 10.1516C10.6858 10.1516 10.863 10.0783 10.9936 9.94767C11.1242 9.81706 11.1975 9.63992 11.1975 9.45522C11.1975 9.27051 11.1242 9.09337 10.9936 8.96277C10.863 8.83216 10.6858 8.75879 10.5011 8.75879C10.3164 8.75879 10.1393 8.83216 10.0087 8.96277C9.87806 9.09337 9.80469 9.27051 9.80469 9.45522Z" stroke="black" stroke-width="1.5" stroke-linecap="round" stroke-linejoin="round"/>
</svg>
