<svg width="20" height="20" viewBox="0 0 20 20" fill="none" xmlns="http://www.w3.org/2000/svg">
<g id="cube-shape-13">
<g id="cube-shape">
<path id="union" d="M10.5776 2.17877L17.0153 5.2999C17.4705 5.52065 17.7598 5.98203 17.7602 6.48804L17.765 13.5274C17.765 14.0348 17.4746 14.4973 17.0175 14.7177L10.5757 17.8239C10.2131 17.9987 9.7905 17.9987 9.42784 17.8239L2.98601 14.7177C2.52901 14.4973 2.23853 14.0348 2.23853 13.5274L2.23828 6.48656C2.23827 5.97995 2.52789 5.51793 2.98386 5.29716L9.42524 2.17845C9.78916 2.00226 10.2137 2.00237 10.5776 2.17877Z" stroke="black" stroke-width="1.5" stroke-linecap="round" stroke-linejoin="round"/>
<path id="rectangle 631" d="M17.5179 5.72132L10.0021 9.34227L2.48438 5.71729" stroke="black" stroke-width="1.5" stroke-linecap="round" stroke-linejoin="round"/>
<path id="rectangle 630" d="M10 9.34229V17.7633" stroke="black" stroke-width="1.5" stroke-linecap="round" stroke-linejoin="round"/>
</g>
</g>
</svg>
