<svg width="20" height="20" viewBox="0 0 20 20" fill="none" xmlns="http://www.w3.org/2000/svg">
<g id="curves-levels-graph-72" clip-path="url(#clip0_47_141045)">
<g id="curves-levels-graph">
<path id="vector 2592" d="M1.42969 1.43005V3.4122" stroke="black" stroke-width="1.5" stroke-linecap="round" stroke-linejoin="round"/>
<path id="vector 2593" d="M1.42969 6.48218V8.46432" stroke="black" stroke-width="1.5" stroke-linecap="round" stroke-linejoin="round"/>
<path id="vector 2594" d="M1.42969 11.5343V13.5164" stroke="black" stroke-width="1.5" stroke-linecap="round" stroke-linejoin="round"/>
<path id="vector 2595" d="M1.42969 16.5865V18.5687H3.41182" stroke="black" stroke-width="1.5" stroke-linecap="round" stroke-linejoin="round"/>
<path id="vector 2596" d="M18.5681 18.5699H16.5859" stroke="black" stroke-width="1.5" stroke-linecap="round" stroke-linejoin="round"/>
<path id="vector 2597" d="M13.5173 18.5686H11.5352" stroke="black" stroke-width="1.5" stroke-linecap="round" stroke-linejoin="round"/>
<path id="vector 2598" d="M8.46261 18.5686H6.48047" stroke="black" stroke-width="1.5" stroke-linecap="round" stroke-linejoin="round"/>
<path id="ellipse 1469" d="M15.8421 5.88989C15.8421 10.3599 12.1999 13.9836 7.70703 13.9836" stroke="black" stroke-width="1.5" stroke-linecap="round"/>
<path id="ellipse 1470" d="M14.1055 4.15532C14.1055 4.61548 14.2883 5.0568 14.6136 5.38218C14.939 5.70756 15.3803 5.89036 15.8405 5.89036C16.3007 5.89036 16.742 5.70756 17.0674 5.38218C17.3927 5.0568 17.5755 4.61548 17.5755 4.15532C17.5755 3.69516 17.3927 3.25385 17.0674 2.92847C16.742 2.60309 16.3007 2.42029 15.8405 2.42029C15.3803 2.42029 14.939 2.60309 14.6136 2.92847C14.2883 3.25385 14.1055 3.69516 14.1055 4.15532Z" stroke="black" stroke-width="1.5"/>
<path id="ellipse 1471" d="M4.24219 13.9841C4.24219 14.2119 4.28707 14.4375 4.37426 14.648C4.46145 14.8585 4.58925 15.0498 4.75037 15.2109C4.91148 15.372 5.10275 15.4998 5.31325 15.587C5.52376 15.6742 5.74938 15.7191 5.97722 15.7191C6.20507 15.7191 6.43069 15.6742 6.64119 15.587C6.8517 15.4998 7.04297 15.372 7.20408 15.2109C7.36519 15.0498 7.49299 14.8585 7.58019 14.648C7.66738 14.4375 7.71226 14.2119 7.71226 13.9841C7.71226 13.7562 7.66738 13.5306 7.58019 13.3201C7.49299 13.1096 7.36519 12.9183 7.20408 12.7572C7.04297 12.5961 6.8517 12.4683 6.64119 12.3811C6.43069 12.2939 6.20507 12.249 5.97722 12.249C5.74938 12.249 5.52376 12.2939 5.31325 12.3811C5.10275 12.4683 4.91148 12.5961 4.75037 12.7572C4.58925 12.9183 4.46145 13.1096 4.37426 13.3201C4.28707 13.5306 4.24219 13.7562 4.24219 13.9841Z" stroke="black" stroke-width="1.5"/>
</g>
</g>
<defs>
<clipPath id="clip0_47_141045">
<rect width="20" height="20" fill="white"/>
</clipPath>
</defs>
</svg>
