<svg width="20" height="20" viewBox="0 0 20 20" fill="none" xmlns="http://www.w3.org/2000/svg">
<g id="customer-support-3-9">
<g id="customer-support-3--customer-headset-help-microphone-phone-support">
<path id="Vector" d="M4.71484 10.0003V6.52492C4.72516 5.84178 4.87018 5.16739 5.14159 4.5404C5.41298 3.91341 5.80545 3.34612 6.29646 2.87107C6.78748 2.396 7.36741 2.0225 8.00303 1.77195C8.63864 1.52141 9.31746 1.39874 10.0006 1.41099C10.6837 1.39874 11.3625 1.52141 11.9981 1.77195C12.6337 2.0225 13.2136 2.396 13.7047 2.87107C14.1957 3.34612 14.5882 3.91341 14.8596 4.5404C15.1309 5.16739 15.276 5.84178 15.2863 6.52492V10.0003" stroke="black" stroke-width="1.5" stroke-linecap="round" stroke-linejoin="round"/>
<path id="Vector_2" d="M2.73158 8.01807H4.05301C4.22825 8.01807 4.39631 8.08768 4.5202 8.21159C4.64411 8.3355 4.71373 8.50356 4.71373 8.67878V12.6431C4.71373 12.8183 4.64411 12.9864 4.5202 13.1103C4.39631 13.2342 4.22825 13.3038 4.05301 13.3038H2.73158C2.38112 13.3038 2.04501 13.1646 1.79719 12.9167C1.54938 12.6689 1.41016 12.3328 1.41016 11.9824V9.33949C1.41016 8.98904 1.54938 8.65292 1.79719 8.40511C2.04501 8.15729 2.38112 8.01807 2.73158 8.01807Z" stroke="black" stroke-width="1.5" stroke-linecap="round" stroke-linejoin="round"/>
<path id="Vector_3" d="M17.2673 13.3038H15.9459C15.7706 13.3038 15.6026 13.2342 15.4786 13.1103C15.3548 12.9864 15.2852 12.8183 15.2852 12.6431V8.67878C15.2852 8.50356 15.3548 8.3355 15.4786 8.21159C15.6026 8.08768 15.7706 8.01807 15.9459 8.01807H17.2673C17.6177 8.01807 17.9539 8.15729 18.2017 8.40511C18.4494 8.65292 18.5887 8.98904 18.5887 9.33949V11.9824C18.5887 12.3328 18.4494 12.6689 18.2017 12.9167C17.9539 13.1646 17.6177 13.3038 17.2673 13.3038Z" stroke="black" stroke-width="1.5" stroke-linecap="round" stroke-linejoin="round"/>
<path id="Vector_4" d="M15.2852 11.3213V14.2945C15.2852 14.9955 15.0067 15.6677 14.5111 16.1633C14.0155 16.6589 13.3433 16.9373 12.6423 16.9373H10.6602" stroke="black" stroke-width="1.5" stroke-linecap="round" stroke-linejoin="round"/>
</g>
</g>
</svg>
