<svg width="20" height="20" viewBox="0 0 20 20" fill="none" xmlns="http://www.w3.org/2000/svg">
<g id="customer-support-5-1" clip-path="url(#clip0_47_145005)">
<g id="customer-support-5--customer-headset-help-phone-support">
<path id="Vector" d="M6.69754 10.6606H5.37612C4.64632 10.6606 4.05469 11.2523 4.05469 11.9821V17.2678C4.05469 17.9976 4.64632 18.5892 5.37612 18.5892H6.69754C7.42734 18.5892 8.01897 17.9976 8.01897 17.2678V11.9821C8.01897 11.2523 7.42734 10.6606 6.69754 10.6606Z" stroke="black" stroke-width="1.5" stroke-linecap="round" stroke-linejoin="round"/>
<path id="Vector_2" d="M14.6233 10.6606H13.3019C12.5721 10.6606 11.9805 11.2523 11.9805 11.9821V17.2678C11.9805 17.9976 12.5721 18.5892 13.3019 18.5892H14.6233C15.3532 18.5892 15.9448 17.9976 15.9448 17.2678V11.9821C15.9448 11.2523 15.3532 10.6606 14.6233 10.6606Z" stroke="black" stroke-width="1.5" stroke-linecap="round" stroke-linejoin="round"/>
<path id="Vector_3" d="M1.41016 13.3035V9.99993C1.41016 7.72191 2.3151 5.53719 3.92591 3.92639C5.5367 2.31559 7.72142 1.41064 9.99944 1.41064C12.2775 1.41064 14.4622 2.31559 16.073 3.92639C17.6838 5.53719 18.5887 7.72191 18.5887 9.99993V13.3035" stroke="black" stroke-width="1.5" stroke-linecap="round" stroke-linejoin="round"/>
</g>
</g>
<defs>
<clipPath id="clip0_47_145005">
<rect width="20" height="20" fill="white"/>
</clipPath>
</defs>
</svg>
