<svg width="20" height="20" viewBox="0 0 20 20" fill="none" xmlns="http://www.w3.org/2000/svg">
<g id="customer-support-1-2" clip-path="url(#clip0_47_144975)">
<g id="customer-support-1--customer-headset-help-microphone-phone-support">
<path id="Vector" d="M4.71484 9.99979V6.52443C4.72516 5.84129 4.87018 5.1669 5.14159 4.53991C5.41298 3.91292 5.80545 3.34564 6.29646 2.87058C6.78748 2.39551 7.36741 2.02201 8.00303 1.77147C8.63864 1.52092 9.31746 1.39826 10.0006 1.4105C10.6837 1.39826 11.3625 1.52092 11.9981 1.77147C12.6337 2.02201 13.2136 2.39551 13.7047 2.87058C14.1957 3.34564 14.5882 3.91292 14.8596 4.53991C15.1309 5.1669 15.276 5.84129 15.2863 6.52443V9.99979" stroke="black" stroke-width="1.5" stroke-linecap="round" stroke-linejoin="round"/>
<path id="Vector_2" d="M2.73158 8.01758H4.05301C4.22825 8.01758 4.39631 8.08719 4.5202 8.2111C4.64411 8.335 4.71373 8.50306 4.71373 8.67829V12.6426C4.71373 12.8178 4.64411 12.9859 4.5202 13.1098C4.39631 13.2337 4.22825 13.3033 4.05301 13.3033H2.73158C2.38112 13.3033 2.04501 13.1641 1.79719 12.9163C1.54938 12.6684 1.41016 12.3323 1.41016 11.9819V9.33901C1.41016 8.98854 1.54938 8.65243 1.79719 8.40461C2.04501 8.1568 2.38112 8.01758 2.73158 8.01758Z" stroke="black" stroke-width="1.5" stroke-linecap="round" stroke-linejoin="round"/>
<path id="Vector_3" d="M17.2673 13.3033H15.9459C15.7706 13.3033 15.6026 13.2337 15.4786 13.1098C15.3548 12.9859 15.2852 12.8178 15.2852 12.6426V8.67829C15.2852 8.50306 15.3548 8.335 15.4786 8.2111C15.6026 8.08719 15.7706 8.01758 15.9459 8.01758H17.2673C17.6177 8.01758 17.9539 8.1568 18.2017 8.40461C18.4494 8.65243 18.5887 8.98854 18.5887 9.33901V11.9819C18.5887 12.3323 18.4494 12.6684 18.2017 12.9163C17.9539 13.1641 17.6177 13.3033 17.2673 13.3033Z" stroke="black" stroke-width="1.5" stroke-linecap="round" stroke-linejoin="round"/>
<path id="Vector_4" d="M12.6406 16.9374C13.3416 16.9374 14.0137 16.6589 14.5094 16.1633C15.0051 15.6676 15.2835 14.9954 15.2835 14.2945V11.3213" stroke="black" stroke-width="1.5" stroke-linecap="round" stroke-linejoin="round"/>
<path id="Vector_5" d="M12.6412 16.9374C12.6412 17.3755 12.4672 17.7957 12.1574 18.1054C11.8476 18.4152 11.4275 18.5892 10.9894 18.5892H9.00725C8.56917 18.5892 8.14904 18.4152 7.83927 18.1054C7.5295 17.7957 7.35547 17.3755 7.35547 16.9374C7.35547 16.4994 7.5295 16.0792 7.83927 15.7694C8.14904 15.4597 8.56917 15.2856 9.00725 15.2856H10.9894C11.4275 15.2856 11.8476 15.4597 12.1574 15.7694C12.4672 16.0792 12.6412 16.4994 12.6412 16.9374Z" stroke="black" stroke-width="1.5" stroke-linecap="round" stroke-linejoin="round"/>
</g>
</g>
<defs>
<clipPath id="clip0_47_144975">
<rect width="20" height="20" fill="white"/>
</clipPath>
</defs>
</svg>
