<svg width="20" height="20" viewBox="0 0 20 20" fill="none" xmlns="http://www.w3.org/2000/svg">
<g id="customer-support-6-7">
<g id="customer-support-6--customer-headphones-help-headset-person-profile-support">
<path id="Vector" d="M10.0028 13.3034C11.8273 13.3034 13.3064 11.8244 13.3064 9.99986C13.3064 8.17535 11.8273 6.69629 10.0028 6.69629C8.17828 6.69629 6.69922 8.17535 6.69922 9.99986C6.69922 11.8244 8.17828 13.3034 10.0028 13.3034Z" stroke="black" stroke-width="1.5" stroke-linecap="round" stroke-linejoin="round"/>
<path id="Vector_2" d="M10 6.69636V1.41064" stroke="black" stroke-width="1.5" stroke-linecap="round" stroke-linejoin="round"/>
<path id="Vector_3" d="M13.3047 18.5892V16.607H15.9475C16.298 16.607 16.6342 16.4678 16.8819 16.22C17.1297 15.9722 17.269 15.6361 17.269 15.2856V9.9999C17.2692 8.66008 16.8991 7.34628 16.1995 6.20361C15.5 5.06094 14.4981 4.13391 13.3047 3.5249" stroke="black" stroke-width="1.5" stroke-linecap="round" stroke-linejoin="round"/>
<path id="Vector_4" d="M6.6974 3.5249C5.5035 4.13354 4.50112 5.06043 3.80105 6.20312C3.10097 7.34581 2.73047 8.65982 2.73047 9.9999C2.73047 11.34 3.10097 12.654 3.80105 13.7967C4.50112 14.9394 5.5035 15.8663 6.6974 16.4749V18.5892" stroke="black" stroke-width="1.5" stroke-linecap="round" stroke-linejoin="round"/>
</g>
</g>
</svg>
