<svg width="20" height="20" viewBox="0 0 20 20" fill="none" xmlns="http://www.w3.org/2000/svg">
<g id="customer-support-4-6" clip-path="url(#clip0_47_145002)">
<g id="customer-support-4--customer-headset-help-phone-support">
<path id="Vector" d="M4.05301 10.6606H5.37444C5.72491 10.6606 6.06102 10.7999 6.30884 11.0477C6.55664 11.2955 6.69587 11.6316 6.69587 11.9821V17.2678C6.69587 17.6182 6.55664 17.9544 6.30884 18.2022C6.06102 18.4499 5.72491 18.5892 5.37444 18.5892H2.73158C2.38112 18.5892 2.04501 18.4499 1.79719 18.2022C1.54938 17.9544 1.41016 17.6182 1.41016 17.2678V9.99993C1.41016 7.72191 2.3151 5.53719 3.92591 3.92639C5.5367 2.31559 7.72142 1.41064 9.99944 1.41064C12.2775 1.41064 14.4622 2.31559 16.073 3.92639C17.6838 5.53719 18.5887 7.72191 18.5887 9.99993V17.2678C18.5887 17.6182 18.4494 17.9544 18.2017 18.2022C17.9539 18.4499 17.6177 18.5892 17.2673 18.5892H14.6244C14.274 18.5892 13.9379 18.4499 13.69 18.2022C13.4422 17.9544 13.303 17.6182 13.303 17.2678V11.9821C13.303 11.6316 13.4422 11.2955 13.69 11.0477C13.9379 10.7999 14.274 10.6606 14.6244 10.6606H15.9459" stroke="black" stroke-width="1.5" stroke-linecap="round" stroke-linejoin="round"/>
</g>
</g>
<defs>
<clipPath id="clip0_47_145002">
<rect width="20" height="20" fill="white"/>
</clipPath>
</defs>
</svg>
