<svg width="20" height="20" viewBox="0 0 20 20" fill="none" xmlns="http://www.w3.org/2000/svg">
<g id="customer-support-setting-3" clip-path="url(#clip0_47_145024)">
<g id="customer-support-setting--customer-phone-help-microphone-phone-support">
<path id="Vector" d="M4.15305 13.3848C3.40436 13.5624 2.73776 13.988 2.26175 14.5926C1.78572 15.1971 1.52827 15.945 1.53128 16.7145V17.383C1.53128 17.6855 1.65143 17.9756 1.86531 18.1895C2.07919 18.4033 2.36928 18.5235 2.67175 18.5235H5.45084C5.75332 18.5235 6.0434 18.4033 6.25728 18.1895C6.47116 17.9756 6.59131 17.6855 6.59131 17.383C6.5913 17.2338 6.62089 17.0862 6.67837 16.9485C6.73584 16.8108 6.82005 16.686 6.92614 16.5812C7.03221 16.4763 7.15805 16.3935 7.29634 16.3376C7.43464 16.2817 7.58264 16.2539 7.73179 16.2557H12.2675C12.4166 16.2539 12.5646 16.2817 12.7029 16.3376C12.8412 16.3935 12.967 16.4763 13.0731 16.5812C13.1792 16.686 13.2634 16.8108 13.3209 16.9485C13.3784 17.0862 13.408 17.2338 13.4079 17.383C13.4079 17.6855 13.5281 17.9756 13.742 18.1895C13.9559 18.4033 14.246 18.5235 14.5484 18.5235H17.38C17.6825 18.5235 17.9725 18.4033 18.1863 18.1895C18.4003 17.9756 18.5204 17.6855 18.5204 17.383V16.7145C18.5234 15.945 18.266 15.1971 17.7899 14.5926C17.3139 13.988 16.6474 13.5624 15.8987 13.3848C12.0197 12.6308 8.03195 12.6308 4.15305 13.3848Z" stroke="black" stroke-width="1.5" stroke-linecap="round" stroke-linejoin="round"/>
<path id="Vector_2" d="M2.31943 11.0514C2.07308 10.9564 1.86116 10.7891 1.71146 10.5716C1.56176 10.3541 1.48125 10.0964 1.48047 9.83233V8.7705C1.48125 8.50643 1.56176 8.24877 1.71146 8.03123C1.86116 7.81369 2.07308 7.64643 2.31943 7.55138L3.77452 6.97458L4.87567 5.0738L4.63972 3.52694C4.5877 3.25723 4.62173 2.978 4.73699 2.72867C4.85224 2.47934 5.0429 2.27251 5.28205 2.1374L6.19968 1.65237C6.42951 1.51981 6.69417 1.46012 6.95866 1.48119C7.22315 1.50225 7.47501 1.60308 7.68098 1.77035L8.90011 2.75351H11.1024L12.3215 1.77035C12.5275 1.60308 12.7794 1.50225 13.0439 1.48119C13.3083 1.46012 13.573 1.51981 13.8028 1.65237L14.7204 2.18983C14.9455 2.32003 15.1267 2.51418 15.241 2.74759C15.3554 2.98101 15.3978 3.24315 15.3628 3.50073L15.1268 5.04758L16.2279 6.94836L17.6831 7.52515C17.9294 7.62021 18.1414 7.78747 18.2911 8.005C18.4408 8.22255 18.5213 8.48021 18.5221 8.74429V9.80611C18.5213 10.0702 18.4408 10.3278 18.2911 10.5454C18.1414 10.7629 17.9294 10.9302 17.6831 11.0252" stroke="black" stroke-width="1.5" stroke-linecap="round" stroke-linejoin="round"/>
<path id="Vector_3" d="M12.6225 10.0031C12.6225 9.30778 12.3462 8.64092 11.8546 8.14924C11.3629 7.65757 10.696 7.38135 10.0007 7.38135C9.30535 7.38135 8.63849 7.65757 8.1468 8.14924C7.65512 8.64092 7.37891 9.30778 7.37891 10.0031" stroke="black" stroke-width="1.5" stroke-linecap="round" stroke-linejoin="round"/>
</g>
</g>
<defs>
<clipPath id="clip0_47_145024">
<rect width="20" height="20" fill="white"/>
</clipPath>
</defs>
</svg>
