<svg width="20" height="20" viewBox="0 0 20 20" fill="none" xmlns="http://www.w3.org/2000/svg">
<g id="dark-dislay-mode-10" clip-path="url(#clip0_47_145973)">
<g id="dark-dislay-mode">
<path id="Vector" d="M9.99944 18.5897C14.7432 18.5897 18.5887 14.7442 18.5887 10.0004C18.5887 5.25669 14.7432 1.41113 9.99944 1.41113C5.25571 1.41113 1.41016 5.25669 1.41016 10.0004C1.41016 14.7442 5.25571 18.5897 9.99944 18.5897Z" stroke="black" stroke-width="1.5" stroke-linecap="round" stroke-linejoin="round"/>
<path id="Subtract" d="M13.2489 6.72631C11.4542 6.72631 9.99934 8.1812 9.99934 9.9759C9.99934 11.7706 11.4542 13.2255 13.2489 13.2255C13.5797 13.2255 13.8323 13.6231 13.5898 13.8481C12.6476 14.7221 11.3859 15.2565 9.99934 15.2565C7.08294 15.2565 4.71875 12.8923 4.71875 9.9759C4.71875 7.05952 7.08294 4.69531 9.99934 4.69531C11.3859 4.69531 12.6476 5.2297 13.5898 6.10374C13.8323 6.32869 13.5797 6.72631 13.2489 6.72631Z" stroke="black" stroke-width="1.5" stroke-linecap="round" stroke-linejoin="round"/>
</g>
</g>
<defs>
<clipPath id="clip0_47_145973">
<rect width="20" height="20" fill="white"/>
</clipPath>
</defs>
</svg>
