<svg width="20" height="20" viewBox="0 0 20 20" fill="none" xmlns="http://www.w3.org/2000/svg">
<g id="dashboard-4-1" clip-path="url(#clip0_47_144201)">
<g id="dashboard-4--app-application-dashboard-home-layout-horizontal">
<path id="Vector" d="M9.33984 17.9284V12.6426C9.33984 12.2777 9.63566 11.9819 10.0006 11.9819H17.9291C18.294 11.9819 18.5898 12.2777 18.5898 12.6426V17.9284C18.5898 18.2932 18.294 18.5891 17.9291 18.5891H10.0006C9.63566 18.5891 9.33984 18.2932 9.33984 17.9284Z" stroke="black" stroke-width="1.5" stroke-linecap="round" stroke-linejoin="round"/>
<path id="Vector_2" d="M1.41016 17.9284V12.6426C1.41016 12.2777 1.70597 11.9819 2.07087 11.9819H4.72694C5.09184 11.9819 5.38766 12.2777 5.38766 12.6426V17.9284C5.38766 18.2932 5.09184 18.5891 4.72694 18.5891H2.07087C1.70597 18.5891 1.41016 18.2932 1.41016 17.9284Z" stroke="black" stroke-width="1.5" stroke-linecap="round" stroke-linejoin="round"/>
<path id="Vector_3" d="M1.41016 7.35707V2.07136C1.41016 1.70646 1.70597 1.41064 2.07087 1.41064H9.99944C10.3643 1.41064 10.6602 1.70646 10.6602 2.07136V7.35707C10.6602 7.72197 10.3643 8.01779 9.99944 8.01779H2.07087C1.70597 8.01779 1.41016 7.72197 1.41016 7.35707Z" stroke="black" stroke-width="1.5" stroke-linecap="round" stroke-linejoin="round"/>
<path id="Vector_4" d="M14.6094 7.35707V2.07136C14.6094 1.70646 14.9051 1.41064 15.2701 1.41064H17.9262C18.291 1.41064 18.5869 1.70646 18.5869 2.07136V7.35707C18.5869 7.72197 18.291 8.01779 17.9262 8.01779H15.2701C14.9051 8.01779 14.6094 7.72197 14.6094 7.35707Z" stroke="black" stroke-width="1.5" stroke-linecap="round" stroke-linejoin="round"/>
</g>
</g>
<defs>
<clipPath id="clip0_47_144201">
<rect width="20" height="20" fill="white"/>
</clipPath>
</defs>
</svg>
