<svg width="20" height="20" viewBox="0 0 20 20" fill="none" xmlns="http://www.w3.org/2000/svg">
<g id="dashboard-3-5" clip-path="url(#clip0_47_144195)">
<g id="dashboard-3--app-application-dashboard-home-layout-vertical">
<path id="Vector" d="M17.9269 9.33936H12.6412C12.2763 9.33936 11.9805 9.63517 11.9805 10.0001V17.9286C11.9805 18.2935 12.2763 18.5894 12.6412 18.5894H17.9269C18.2917 18.5894 18.5876 18.2935 18.5876 17.9286V10.0001C18.5876 9.63517 18.2917 9.33936 17.9269 9.33936Z" stroke="black" stroke-width="1.5" stroke-linecap="round" stroke-linejoin="round"/>
<path id="Vector_2" d="M17.9269 1.41064H12.6412C12.2763 1.41064 11.9805 1.70646 11.9805 2.07136V4.72743C11.9805 5.09233 12.2763 5.38814 12.6412 5.38814H17.9269C18.2917 5.38814 18.5876 5.09233 18.5876 4.72743V2.07136C18.5876 1.70646 18.2917 1.41064 17.9269 1.41064Z" stroke="black" stroke-width="1.5" stroke-linecap="round" stroke-linejoin="round"/>
<path id="Vector_3" d="M7.35659 1.41064H2.07087C1.70597 1.41064 1.41016 1.70646 1.41016 2.07136V9.99993C1.41016 10.3648 1.70597 10.6606 2.07087 10.6606H7.35659C7.72148 10.6606 8.0173 10.3648 8.0173 9.99993V2.07136C8.0173 1.70646 7.72148 1.41064 7.35659 1.41064Z" stroke="black" stroke-width="1.5" stroke-linecap="round" stroke-linejoin="round"/>
<path id="Vector_4" d="M7.35659 14.6118H2.07087C1.70597 14.6118 1.41016 14.9076 1.41016 15.2725V17.9286C1.41016 18.2934 1.70597 18.5893 2.07087 18.5893H7.35659C7.72148 18.5893 8.0173 18.2934 8.0173 17.9286V15.2725C8.0173 14.9076 7.72148 14.6118 7.35659 14.6118Z" stroke="black" stroke-width="1.5" stroke-linecap="round" stroke-linejoin="round"/>
</g>
</g>
<defs>
<clipPath id="clip0_47_144195">
<rect width="20" height="20" fill="white"/>
</clipPath>
</defs>
</svg>
