<svg width="21" height="21" viewBox="0 0 21 21" fill="none" xmlns="http://www.w3.org/2000/svg">
<g clip-path="url(#clip0_146_401559)">
<path d="M8.56535 14.7321H1.47266V16.6665C1.47266 18.0908 2.62738 19.2456 4.05181 19.2456H7.92056" stroke="black" stroke-width="1.5" stroke-linecap="round" stroke-linejoin="round"/>
<path d="M7.04688 4.30627V7.28533" stroke="black" stroke-width="1.5" stroke-linecap="round" stroke-linejoin="round"/>
<path d="M7.04688 9.44678V12.4258" stroke="black" stroke-width="1.5" stroke-linecap="round" stroke-linejoin="round"/>
<path d="M10.1328 9.44543V11.8928" stroke="black" stroke-width="1.5" stroke-linecap="round" stroke-linejoin="round"/>
<path d="M4.05078 14.732L4.05153 4.02558C4.05153 2.60115 5.20627 1.44641 6.6307 1.44641H16.9473C15.5229 1.44641 14.3682 2.60115 14.3682 4.02556V5.31516" stroke="black" stroke-width="1.5" stroke-linecap="round" stroke-linejoin="round"/>
<path d="M9.51953 5.42358C9.51953 4.80652 10.0198 4.30627 10.6368 4.30627C11.2539 4.30627 11.7541 4.80652 11.7541 5.42358V6.16802C11.7541 6.7851 11.2539 7.28533 10.6368 7.28533C10.0198 7.28533 9.51953 6.7851 9.51953 6.16802V5.42358Z" stroke="black" stroke-width="1.5" stroke-linecap="round" stroke-linejoin="round"/>
<path d="M11.8917 13.9822H18.856C19.2739 13.9822 19.5525 14.2607 19.5525 14.6786V18.8572C19.5525 19.275 19.2739 19.5536 18.856 19.5536H11.8917C11.4739 19.5536 11.1953 19.275 11.1953 18.8572V14.6786C11.1953 14.2607 11.4739 13.9822 11.8917 13.9822Z" stroke="black" stroke-width="1.5" stroke-linecap="round" stroke-linejoin="round"/>
<path d="M12.5859 13.9822V12.5893C12.5859 11.0572 13.8395 9.80359 15.3717 9.80359C16.9038 9.80359 18.1574 11.0572 18.1574 12.5893V13.9822" stroke="black" stroke-width="1.5" stroke-linecap="round" stroke-linejoin="round"/>
</g>
<defs>
<clipPath id="clip0_146_401559">
<rect width="21" height="21" fill="white"/>
</clipPath>
</defs>
</svg>
