<svg width="21" height="21" viewBox="0 0 21 21" fill="none" xmlns="http://www.w3.org/2000/svg">
<g clip-path="url(#clip0_146_401595)">
<path d="M9.10603 7.35213C13.3369 7.35213 16.7667 6.03008 16.7667 4.39927C16.7667 2.76846 13.3369 1.44641 9.10603 1.44641C4.87512 1.44641 1.44531 2.76846 1.44531 4.39927C1.44531 6.03008 4.87512 7.35213 9.10603 7.35213Z" stroke="black" stroke-width="1.5" stroke-linecap="round" stroke-linejoin="round"/>
<path d="M16.7656 8.41072V4.39929" stroke="black" stroke-width="1.5" stroke-linecap="round" stroke-linejoin="round"/>
<path d="M1.44531 4.39929V13.815C1.44531 15.375 4.56531 16.6007 8.52103 16.7539" stroke="black" stroke-width="1.5" stroke-linecap="round" stroke-linejoin="round"/>
<path d="M1.44531 9.10718C1.44531 10.6703 4.64887 11.9514 8.59779 12.0043" stroke="black" stroke-width="1.5" stroke-linecap="round" stroke-linejoin="round"/>
<path d="M14.6775 18.1607C16.6006 18.1607 18.1596 16.6017 18.1596 14.6786C18.1596 12.7554 16.6006 11.1964 14.6775 11.1964C12.7543 11.1964 11.1953 12.7554 11.1953 14.6786C11.1953 16.6017 12.7543 18.1607 14.6775 18.1607Z" stroke="black" stroke-width="1.5" stroke-linecap="round" stroke-linejoin="round"/>
<path d="M19.5542 19.5536L17.1445 17.1439" stroke="black" stroke-width="1.5" stroke-linecap="round" stroke-linejoin="round"/>
</g>
<defs>
<clipPath id="clip0_146_401595">
<rect width="21" height="21" fill="white"/>
</clipPath>
</defs>
</svg>
