<svg width="21" height="21" viewBox="0 0 21 21" fill="none" xmlns="http://www.w3.org/2000/svg">
<g clip-path="url(#clip0_146_401569)">
<path d="M9.10603 7.35213C13.3369 7.35213 16.7667 6.03008 16.7667 4.39927C16.7667 2.76846 13.3369 1.44641 9.10603 1.44641C4.87512 1.44641 1.44531 2.76846 1.44531 4.39927C1.44531 6.03008 4.87512 7.35213 9.10603 7.35213Z" stroke="black" stroke-width="1.5" stroke-linecap="round" stroke-linejoin="round"/>
<path d="M16.7656 7.01786V4.39929" stroke="black" stroke-width="1.5" stroke-linecap="round" stroke-linejoin="round"/>
<path d="M1.44531 4.39929V13.815C1.44531 15.375 4.56531 16.6007 8.52103 16.7539" stroke="black" stroke-width="1.5" stroke-linecap="round" stroke-linejoin="round"/>
<path d="M9.10603 12.0043C4.92745 12.06 1.44531 10.7368 1.44531 9.10718" stroke="black" stroke-width="1.5" stroke-linecap="round" stroke-linejoin="round"/>
<path d="M11.8917 13.9822H18.856C19.2739 13.9822 19.5525 14.2607 19.5525 14.6786V18.8572C19.5525 19.275 19.2739 19.5536 18.856 19.5536H11.8917C11.4739 19.5536 11.1953 19.275 11.1953 18.8572V14.6786C11.1953 14.2607 11.4739 13.9822 11.8917 13.9822Z" stroke="black" stroke-width="1.5" stroke-linecap="round" stroke-linejoin="round"/>
<path d="M12.5898 13.9822V12.5893C12.5898 11.0572 13.8434 9.80359 15.3756 9.80359C16.9077 9.80359 18.1613 11.0572 18.1613 12.5893V13.9822" stroke="black" stroke-width="1.5" stroke-linecap="round" stroke-linejoin="round"/>
</g>
<defs>
<clipPath id="clip0_146_401569">
<rect width="21" height="21" fill="white"/>
</clipPath>
</defs>
</svg>
