<svg width="21" height="21" viewBox="0 0 21 21" fill="none" xmlns="http://www.w3.org/2000/svg">
<path d="M5.24219 11.7466L7.51387 8.60631L10.8327 10.0094L12.9707 6.46826" stroke="black" stroke-width="1.5" stroke-linecap="round" stroke-linejoin="round"/>
<path d="M1.44531 9.10725C1.44531 11.139 2.25242 13.0875 3.68908 14.5242C5.12575 15.9609 7.07428 16.768 9.10603 16.768C11.1378 16.768 13.0863 15.9609 14.523 14.5242C15.9596 13.0875 16.7667 11.139 16.7667 9.10725C16.7667 7.0755 15.9596 5.12697 14.523 3.6903C13.0863 2.25364 11.1378 1.44653 9.10603 1.44653C7.07428 1.44653 5.12575 2.25364 3.68908 3.6903C2.25242 5.12697 1.44531 7.0755 1.44531 9.10725Z" stroke="black" stroke-width="1.5" stroke-linecap="round" stroke-linejoin="round"/>
<path d="M14.6719 14.672L18.8574 18.8575" stroke="black" stroke-width="1.5" stroke-linecap="round" stroke-linejoin="round"/>
</svg>
