<svg width="21" height="21" viewBox="0 0 21 21" fill="none" xmlns="http://www.w3.org/2000/svg">
<g clip-path="url(#clip0_146_401647)">
<path d="M9.10603 7.35213C13.3369 7.35213 16.7667 6.03008 16.7667 4.39927C16.7667 2.76846 13.3369 1.44641 9.10603 1.44641C4.87512 1.44641 1.44531 2.76846 1.44531 4.39927C1.44531 6.03008 4.87512 7.35213 9.10603 7.35213Z" stroke="black" stroke-width="1.5" stroke-linecap="round" stroke-linejoin="round"/>
<path d="M16.7656 7.71429V4.39929" stroke="black" stroke-width="1.5" stroke-linecap="round" stroke-linejoin="round"/>
<path d="M1.44531 4.39929V13.815C1.44531 15.375 4.56531 16.6007 8.52103 16.7539" stroke="black" stroke-width="1.5" stroke-linecap="round" stroke-linejoin="round"/>
<path d="M1.44531 9.10718C1.44531 10.5885 4.32234 11.8166 7.98429 11.9861" stroke="black" stroke-width="1.5" stroke-linecap="round" stroke-linejoin="round"/>
<path d="M15.6081 19.512C15.4552 19.5673 15.2876 19.5673 15.1345 19.512C13.9729 19.0518 12.9762 18.2536 12.2734 17.2205C11.5706 16.1874 11.1942 14.9671 11.1927 13.7177V11.8931C11.1871 11.8048 11.1994 11.7163 11.2289 11.633C11.2583 11.5496 11.3044 11.473 11.3643 11.408C11.4242 11.3429 11.4966 11.2906 11.5772 11.2543C11.6579 11.218 11.745 11.1984 11.8335 11.1967H18.9092C18.9976 11.1984 19.0848 11.218 19.1654 11.2543C19.2461 11.2906 19.3185 11.3429 19.3784 11.408C19.4383 11.473 19.4843 11.5496 19.5138 11.633C19.5433 11.7163 19.5556 11.8048 19.5499 11.8931V13.7177C19.5485 14.9671 19.172 16.1874 18.4692 17.2205C17.7665 18.2536 16.7697 19.0518 15.6081 19.512Z" stroke="black" stroke-width="1.5" stroke-linecap="round" stroke-linejoin="round"/>
</g>
<defs>
<clipPath id="clip0_146_401647">
<rect width="21" height="21" fill="white"/>
</clipPath>
</defs>
</svg>
