<svg width="21" height="21" viewBox="0 0 21 21" fill="none" xmlns="http://www.w3.org/2000/svg">
<path d="M18.1596 4.92859H2.83817C2.06892 4.92859 1.44531 5.5522 1.44531 6.32145V11.8929C1.44531 12.6621 2.06892 13.2857 2.83817 13.2857H18.1596C18.9289 13.2857 19.5525 12.6621 19.5525 11.8929V6.32145C19.5525 5.5522 18.9289 4.92859 18.1596 4.92859Z" stroke="black" stroke-width="1.5" stroke-linecap="round" stroke-linejoin="round"/>
<path d="M11.1953 9.10718H16.0703" stroke="black" stroke-width="1.5" stroke-linecap="round" stroke-linejoin="round"/>
<path d="M10.5 13.2858V19.5536" stroke="black" stroke-width="1.5" stroke-linecap="round" stroke-linejoin="round"/>
<path d="M3.53516 19.5536H17.4637" stroke="black" stroke-width="1.5" stroke-linecap="round" stroke-linejoin="round"/>
<path d="M5.62556 9.45534C5.43325 9.45534 5.27734 9.29944 5.27734 9.10713C5.27734 8.91481 5.43325 8.75891 5.62556 8.75891" stroke="black" stroke-width="1.5" stroke-linecap="round" stroke-linejoin="round"/>
<path d="M5.625 9.45534C5.81731 9.45534 5.97321 9.29944 5.97321 9.10713C5.97321 8.91481 5.81731 8.75891 5.625 8.75891" stroke="black" stroke-width="1.5" stroke-linecap="round" stroke-linejoin="round"/>
</svg>
