<svg width="20" height="20" viewBox="0 0 20 20" fill="none" xmlns="http://www.w3.org/2000/svg">
<g id="delete-pdf-3" clip-path="url(#clip0_47_144302)">
<g id="delete-PDF--essential-files-folder-delete-PDF-page">
<path id="Vector" d="M15.9459 6.69636V6.03564L11.3209 1.41064H2.73158C2.38112 1.41064 2.04501 1.54987 1.79719 1.79768C1.54938 2.0455 1.41016 2.3816 1.41016 2.73207V17.2678C1.41016 17.6182 1.54938 17.9544 1.79719 18.2022C2.04501 18.4499 2.38112 18.5892 2.73158 18.5892H8.0173" stroke="black" stroke-width="1.5" stroke-linecap="round" stroke-linejoin="round"/>
<path id="Rectangle 609" d="M10.6602 11.9819H17.2673V17.2676C17.2673 17.9975 16.6757 18.5891 15.9459 18.5891H11.9816C11.2518 18.5891 10.6602 17.9975 10.6602 17.2676V11.9819Z" stroke="black" stroke-width="1.5" stroke-linecap="round" stroke-linejoin="round"/>
<path id="Vector 1264" d="M18.5898 11.9819H9.33984" stroke="black" stroke-width="1.5" stroke-linecap="round" stroke-linejoin="round"/>
<path id="Vector 1265" d="M11.9805 11.9822V11.3215C11.9805 10.2268 12.8679 9.33936 13.9626 9.33936C15.0573 9.33936 15.9448 10.2268 15.9448 11.3215V11.9822" stroke="black" stroke-width="1.5" stroke-linecap="round" stroke-linejoin="round"/>
</g>
</g>
<defs>
<clipPath id="clip0_47_144302">
<rect width="20" height="20" fill="white"/>
</clipPath>
</defs>
</svg>
