<svg width="20" height="20" viewBox="0 0 20 20" fill="none" xmlns="http://www.w3.org/2000/svg">
<g id="descending-number-order-22">
<g id="descending-number-order">
<path id="Vector 2" d="M15.5039 11.9814V18.5886" stroke="black" stroke-width="1.5" stroke-linecap="round" stroke-linejoin="round"/>
<path id="Vector 3" d="M13.3008 13.6332H13.8514C14.7636 13.6332 15.5032 12.8937 15.5032 11.9814" stroke="black" stroke-width="1.5" stroke-linecap="round" stroke-linejoin="round"/>
<path id="Vector 1" d="M17.7056 18.5889H13.3008" stroke="black" stroke-width="1.5" stroke-linecap="round" stroke-linejoin="round"/>
<path id="Vector 2_2" d="M14.5195 5.16992L15.3866 5.16991C16.4244 5.16991 17.2656 4.3287 17.2656 3.29101C17.2656 2.25332 16.4244 1.4121 15.3866 1.41211L14.5195 1.41212C13.4818 1.41213 12.6406 2.25333 12.6406 3.29101C12.6406 4.3287 13.4818 5.16992 14.5195 5.16992Z" stroke="black" stroke-width="1.5" stroke-linecap="round" stroke-linejoin="round"/>
<path id="Vector 3_2" d="M17.2685 3.14648V6.61523C17.2685 7.5731 16.492 8.34961 15.5341 8.34961H14.3779C13.6227 8.34961 12.9803 7.86698 12.7422 7.19336" stroke="black" stroke-width="1.5" stroke-linecap="round" stroke-linejoin="round"/>
<path id="Vector 348" d="M8.67745 15.2861L5.37388 18.5897L2.07031 15.2861" stroke="black" stroke-width="1.5" stroke-linecap="round" stroke-linejoin="round"/>
<path id="Vector 349" d="M5.375 1.41113V18.5897" stroke="black" stroke-width="1.5" stroke-linecap="round" stroke-linejoin="round"/>
</g>
</g>
</svg>
