<svg width="20" height="20" viewBox="0 0 20 20" fill="none" xmlns="http://www.w3.org/2000/svg">
<g id="description-61">
<g id="description">
<path id="vector" d="M7.68359 7.2627C8.17211 7.82338 8.43074 8.46859 8.43074 9.12668C8.43074 9.78477 8.17211 10.43 7.68359 10.9907" stroke="black" stroke-width="1.5" stroke-linecap="round" stroke-linejoin="round"/>
<path id="vector_2" d="M7.19196 8.35951C7.55686 8.35951 7.85268 8.0637 7.85268 7.6988C7.85268 7.3339 7.55686 7.03809 7.19196 7.03809C6.82706 7.03809 6.53125 7.3339 6.53125 7.6988C6.53125 8.0637 6.82706 8.35951 7.19196 8.35951Z" stroke="black" stroke-width="1.5" stroke-linecap="round" stroke-linejoin="round"/>
<path id="vector_3" d="M11.8945 7.2627C12.3831 7.82338 12.6417 8.46859 12.6417 9.12668C12.6417 9.78477 12.3831 10.43 11.8945 10.9907" stroke="black" stroke-width="1.5" stroke-linecap="round" stroke-linejoin="round"/>
<path id="vector_4" d="M11.4068 8.35951C11.7717 8.35951 12.0675 8.0637 12.0675 7.6988C12.0675 7.3339 11.7717 7.03809 11.4068 7.03809C11.0419 7.03809 10.7461 7.3339 10.7461 7.6988C10.7461 8.0637 11.0419 8.35951 11.4068 8.35951Z" stroke="black" stroke-width="1.5" stroke-linecap="round" stroke-linejoin="round"/>
<path id="rectangle 630" d="M15.9877 3.08301C16.7175 3.08301 17.3092 3.67462 17.3092 4.40444V13.5512C17.3092 14.281 16.7175 14.8726 15.9878 14.8726H9.66965L6.7631 17.4495C6.33682 17.8275 5.66407 17.5249 5.66407 16.9552V14.8726H3.37221C2.64241 14.8726 2.05078 14.281 2.05078 13.5512V4.40444C2.05078 3.67462 2.64241 3.08301 3.37221 3.08301H15.9877Z" stroke="black" stroke-width="1.5" stroke-linecap="round" stroke-linejoin="round"/>
</g>
</g>
</svg>
