<svg width="21" height="21" viewBox="0 0 21 21" fill="none" xmlns="http://www.w3.org/2000/svg">
<path d="M19.5525 15.3751V4.2322C19.5525 3.84757 19.2406 3.53577 18.856 3.53577H2.14174C1.77233 3.53577 1.44531 3.86278 1.44531 4.2322V15.3751C1.44531 15.7444 1.77233 16.0715 2.14174 16.0715H18.856C19.2254 16.0715 19.5525 15.7444 19.5525 15.3751Z" stroke="black" stroke-width="1.5" stroke-linecap="round" stroke-linejoin="round"/>
<path d="M9.1077 16.0715L7.71484 19.5537" stroke="black" stroke-width="1.5" stroke-linecap="round" stroke-linejoin="round"/>
<path d="M11.8906 16.0715L13.2835 19.5537" stroke="black" stroke-width="1.5" stroke-linecap="round" stroke-linejoin="round"/>
<path d="M6.32031 19.5536H14.6775" stroke="black" stroke-width="1.5" stroke-linecap="round" stroke-linejoin="round"/>
<path d="M7.09766 11.296C7.76113 11.9708 8.93295 12.5894 10.5007 12.5894C12.0684 12.5894 13.2402 11.9708 13.9037 11.296" stroke="black" stroke-width="1.5" stroke-linecap="round" stroke-linejoin="round"/>
<path d="M8.06336 7.71486C7.87089 7.71486 7.71484 7.55882 7.71484 7.36634C7.71484 7.17386 7.87089 7.01782 8.06336 7.01782" stroke="black" stroke-width="1.5" stroke-linecap="round" stroke-linejoin="round"/>
<path d="M8.0625 7.71474C8.25498 7.71474 8.41102 7.5587 8.41102 7.36622C8.41102 7.17374 8.25498 7.0177 8.0625 7.0177" stroke="black" stroke-width="1.5" stroke-linecap="round" stroke-linejoin="round"/>
<path d="M12.9381 7.71425C12.7457 7.71425 12.5898 7.55835 12.5898 7.36604C12.5898 7.17372 12.7457 7.01782 12.9381 7.01782" stroke="black" stroke-width="1.5" stroke-linecap="round" stroke-linejoin="round"/>
<path d="M12.9375 7.71413C13.1298 7.71413 13.2857 7.55823 13.2857 7.36591C13.2857 7.1736 13.1298 7.0177 12.9375 7.0177" stroke="black" stroke-width="1.5" stroke-linecap="round" stroke-linejoin="round"/>
</svg>
