<svg width="21" height="21" viewBox="0 0 21 21" fill="none" xmlns="http://www.w3.org/2000/svg">
<g clip-path="url(#clip0_146_400984)">
<path d="M19.5525 12.214V15.3751C19.5525 15.5597 19.4791 15.7369 19.3485 15.8676C19.2179 15.9981 19.0407 16.0715 18.856 16.0715H2.14174C1.95704 16.0715 1.7799 15.9981 1.64929 15.8676C1.51869 15.7369 1.44531 15.5597 1.44531 15.3751V4.2322C1.44531 4.04749 1.51869 3.87034 1.64929 3.73975C1.7799 3.60914 1.95704 3.53577 2.14174 3.53577H8.02858" stroke="black" stroke-width="1.5" stroke-linecap="round" stroke-linejoin="round"/>
<path d="M9.1077 16.0714L7.71484 19.5536" stroke="black" stroke-width="1.5" stroke-linecap="round" stroke-linejoin="round"/>
<path d="M11.8906 16.0714L13.2835 19.5536" stroke="black" stroke-width="1.5" stroke-linecap="round" stroke-linejoin="round"/>
<path d="M6.32031 19.5536H14.6775" stroke="black" stroke-width="1.5" stroke-linecap="round" stroke-linejoin="round"/>
<path d="M15.332 1.51904V3.60832" stroke="black" stroke-width="1.5" stroke-linecap="round" stroke-linejoin="round"/>
<path d="M11.1133 3.95654L12.924 5.00119" stroke="black" stroke-width="1.5" stroke-linecap="round" stroke-linejoin="round"/>
<path d="M11.1133 8.83151L12.924 7.78687" stroke="black" stroke-width="1.5" stroke-linecap="round" stroke-linejoin="round"/>
<path d="M15.332 11.2691V9.17981" stroke="black" stroke-width="1.5" stroke-linecap="round" stroke-linejoin="round"/>
<path d="M19.5529 8.83151L17.7422 7.78687" stroke="black" stroke-width="1.5" stroke-linecap="round" stroke-linejoin="round"/>
<path d="M19.5529 3.95654L17.7422 5.00119" stroke="black" stroke-width="1.5" stroke-linecap="round" stroke-linejoin="round"/>
<path d="M15.3325 9.17971C16.8711 9.17971 18.1183 7.9325 18.1183 6.39399C18.1183 4.85548 16.8711 3.60828 15.3325 3.60828C13.7941 3.60828 12.5469 4.85548 12.5469 6.39399C12.5469 7.9325 13.7941 9.17971 15.3325 9.17971Z" stroke="black" stroke-width="1.5" stroke-linecap="round" stroke-linejoin="round"/>
</g>
<defs>
<clipPath id="clip0_146_400984">
<rect width="21" height="21" fill="white"/>
</clipPath>
</defs>
</svg>
