<svg width="21" height="21" viewBox="0 0 21 21" fill="none" xmlns="http://www.w3.org/2000/svg">
<g clip-path="url(#clip0_146_400976)">
<path d="M19.5525 13.2856V15.3749C19.5525 15.7443 19.2254 16.0714 18.856 16.0714H2.14174C1.77233 16.0714 1.44531 15.7443 1.44531 15.3749V4.23207C1.44531 3.86266 1.77233 3.53564 2.14174 3.53564H7.71317" stroke="black" stroke-width="1.5" stroke-linecap="round" stroke-linejoin="round"/>
<path d="M9.1077 16.0714L7.71484 19.5536" stroke="black" stroke-width="1.5" stroke-linecap="round" stroke-linejoin="round"/>
<path d="M11.8906 16.0714L13.2835 19.5536" stroke="black" stroke-width="1.5" stroke-linecap="round" stroke-linejoin="round"/>
<path d="M6.32031 19.5536H14.6775" stroke="black" stroke-width="1.5" stroke-linecap="round" stroke-linejoin="round"/>
<path d="M14.6775 8.4107C16.6006 8.4107 18.1596 6.85169 18.1596 4.92855C18.1596 3.00542 16.6006 1.44641 14.6775 1.44641C12.7543 1.44641 11.1953 3.00542 11.1953 4.92855C11.1953 6.85169 12.7543 8.4107 14.6775 8.4107Z" stroke="black" stroke-width="1.5" stroke-linecap="round" stroke-linejoin="round"/>
<path d="M19.5542 9.80356L17.1445 7.39392" stroke="black" stroke-width="1.5" stroke-linecap="round" stroke-linejoin="round"/>
</g>
<defs>
<clipPath id="clip0_146_400976">
<rect width="21" height="21" fill="white"/>
</clipPath>
</defs>
</svg>
