<svg width="21" height="21" viewBox="0 0 21 21" fill="none" xmlns="http://www.w3.org/2000/svg">
<g clip-path="url(#clip0_146_400907)">
<path d="M19.5525 12.5543V15.3751C19.5525 15.5597 19.4791 15.7369 19.3485 15.8676C19.2179 15.9981 19.0407 16.0715 18.856 16.0715H2.14174C1.95704 16.0715 1.7799 15.9981 1.64929 15.8676C1.51869 15.7369 1.44531 15.5597 1.44531 15.3751V4.2322C1.44531 4.04749 1.51869 3.87034 1.64929 3.73975C1.7799 3.60914 1.95704 3.53577 2.14174 3.53577H7.07381" stroke="black" stroke-width="1.5" stroke-linecap="round" stroke-linejoin="round"/>
<path d="M9.1077 16.0714L7.71484 19.5536" stroke="black" stroke-width="1.5" stroke-linecap="round" stroke-linejoin="round"/>
<path d="M11.8906 16.0714L13.2835 19.5536" stroke="black" stroke-width="1.5" stroke-linecap="round" stroke-linejoin="round"/>
<path d="M6.32031 19.5536H14.6775" stroke="black" stroke-width="1.5" stroke-linecap="round" stroke-linejoin="round"/>
<path d="M15.0584 1.6601L16.2226 4.00225C16.2487 4.06147 16.2899 4.11274 16.3423 4.1508C16.3947 4.18886 16.4561 4.21235 16.5204 4.21885L19.1063 4.61147C19.1802 4.6211 19.2499 4.65156 19.3071 4.69932C19.3644 4.74707 19.4069 4.81013 19.4296 4.88114C19.4523 4.95215 19.4544 5.02814 19.4354 5.10027C19.4166 5.17239 19.3776 5.23764 19.323 5.28839L17.4141 7.10253C17.3855 7.15683 17.3706 7.21723 17.3706 7.27853C17.3706 7.33984 17.3855 7.40024 17.4141 7.45453L17.7796 10.0268C17.7952 10.1012 17.7889 10.1785 17.7615 10.2493C17.7339 10.3201 17.6865 10.3815 17.625 10.4259C17.5633 10.4703 17.4901 10.4959 17.4142 10.4996C17.3383 10.5032 17.263 10.4848 17.1974 10.4465L14.896 9.22805C14.8363 9.20114 14.7717 9.18723 14.7064 9.18723C14.641 9.18723 14.5764 9.20114 14.5168 9.22805L12.2153 10.4465C12.1497 10.4848 12.0744 10.5032 11.9985 10.4996C11.9226 10.4959 11.8494 10.4703 11.7878 10.4259C11.7262 10.3815 11.6788 10.3201 11.6513 10.2493C11.6239 10.1785 11.6176 10.1012 11.6331 10.0268L12.0664 7.45453C12.085 7.39483 12.0886 7.33144 12.0768 7.27003C12.065 7.20861 12.0381 7.15107 11.9987 7.10253L10.0898 5.27485C10.0391 5.22356 10.0036 5.15932 9.98705 5.08916C9.9705 5.01902 9.97358 4.94567 9.99597 4.87716C10.0183 4.80864 10.0591 4.74761 10.1139 4.70075C10.1686 4.65388 10.2352 4.623 10.3064 4.61147L12.8922 4.23239C12.9566 4.22589 13.0181 4.2024 13.0704 4.16434C13.1227 4.12628 13.164 4.07501 13.1901 4.01579L14.3544 1.67364C14.3855 1.60734 14.4346 1.55108 14.4961 1.51121C14.5575 1.47135 14.6289 1.44948 14.7022 1.44807C14.7753 1.44666 14.8476 1.46577 14.9106 1.50324C14.9735 1.54071 15.0247 1.59505 15.0584 1.6601Z" stroke="black" stroke-width="1.5" stroke-linecap="round" stroke-linejoin="round"/>
</g>
<defs>
<clipPath id="clip0_146_400907">
<rect width="21" height="21" fill="white"/>
</clipPath>
</defs>
</svg>
