<svg width="21" height="21" viewBox="0 0 21 21" fill="none" xmlns="http://www.w3.org/2000/svg">
<path d="M16.7783 1.44653H4.26181C3.49374 1.44653 2.87109 2.06918 2.87109 2.83725V11.1815C2.87109 11.9496 3.49374 12.5722 4.26181 12.5722H16.7783C17.5463 12.5722 18.1689 11.9496 18.1689 11.1815V2.83725C18.1689 2.06918 17.5463 1.44653 16.7783 1.44653Z" stroke="black" stroke-width="1.5" stroke-linecap="round" stroke-linejoin="round"/>
<path d="M17.863 16.1185C17.7463 15.887 17.5673 15.6927 17.3463 15.5576C17.1251 15.4225 16.8705 15.3517 16.6114 15.3535H4.42869C4.1695 15.3517 3.91497 15.4225 3.69381 15.5576C3.47266 15.6927 3.29367 15.887 3.17704 16.1185L2.48168 17.5093C2.37002 17.7267 2.31766 17.9698 2.32986 18.2139C2.34207 18.4581 2.41842 18.6947 2.55121 18.8999C2.67649 19.1003 2.85076 19.2655 3.05759 19.3799C3.26441 19.4942 3.49698 19.554 3.73333 19.5536H17.3067C17.5431 19.554 17.7756 19.4942 17.9824 19.3799C18.1892 19.2655 18.3635 19.1003 18.4888 18.8999C18.6109 18.6885 18.6751 18.4488 18.6751 18.2046C18.6751 17.9604 18.6109 17.7206 18.4888 17.5093L17.863 16.1185Z" stroke="black" stroke-width="1.5" stroke-linecap="round" stroke-linejoin="round"/>
<path d="M2.87109 9.09546H18.1689" stroke="black" stroke-width="1.5" stroke-linecap="round" stroke-linejoin="round"/>
</svg>
