<svg width="21" height="21" viewBox="0 0 21 21" fill="none" xmlns="http://www.w3.org/2000/svg">
<g clip-path="url(#clip0_146_400928)">
<path d="M19.5525 9.90994V15.3749C19.5525 15.5596 19.4791 15.7368 19.3485 15.8674C19.2179 15.998 19.0407 16.0714 18.856 16.0714H2.14174C1.95704 16.0714 1.7799 15.998 1.64929 15.8674C1.51869 15.7368 1.44531 15.5596 1.44531 15.3749V4.23207C1.44531 4.04737 1.51869 3.87022 1.64929 3.73963C1.7799 3.60902 1.95704 3.53564 2.14174 3.53564H10.7303" stroke="black" stroke-width="1.5" stroke-linecap="round" stroke-linejoin="round"/>
<path d="M9.1077 16.0714L7.71484 19.5536" stroke="black" stroke-width="1.5" stroke-linecap="round" stroke-linejoin="round"/>
<path d="M11.8906 16.0714L13.2835 19.5536" stroke="black" stroke-width="1.5" stroke-linecap="round" stroke-linejoin="round"/>
<path d="M6.32031 19.5536H14.6775" stroke="black" stroke-width="1.5" stroke-linecap="round" stroke-linejoin="round"/>
<path d="M13.9805 3.5357C13.9805 3.12248 14.103 2.71854 14.3326 2.37496C14.5622 2.03137 14.8885 1.76358 15.2703 1.60545C15.652 1.44732 16.0721 1.40594 16.4773 1.48656C16.8826 1.56717 17.2549 1.76616 17.5472 2.05835C17.8392 2.35054 18.0383 2.72281 18.1189 3.12811C18.1996 3.53338 18.1582 3.95347 18 4.33524C17.8419 4.71699 17.574 5.0433 17.2306 5.27287C16.8869 5.50245 16.483 5.62498 16.0698 5.62498V7.01784" stroke="black" stroke-width="1.5" stroke-linecap="round" stroke-linejoin="round"/>
<path d="M16.0709 10.5C15.8785 10.5 15.7227 10.3441 15.7227 10.1518C15.7227 9.95949 15.8785 9.80359 16.0709 9.80359" stroke="black" stroke-width="1.5" stroke-linecap="round" stroke-linejoin="round"/>
<path d="M16.0703 10.5C16.2627 10.5 16.4185 10.3441 16.4185 10.1518C16.4185 9.95949 16.2627 9.80359 16.0703 9.80359" stroke="black" stroke-width="1.5" stroke-linecap="round" stroke-linejoin="round"/>
</g>
<defs>
<clipPath id="clip0_146_400928">
<rect width="21" height="21" fill="white"/>
</clipPath>
</defs>
</svg>
