<svg width="21" height="21" viewBox="0 0 21 21" fill="none" xmlns="http://www.w3.org/2000/svg">
<path d="M19.5525 12.5891V15.3748C19.5525 15.5595 19.4791 15.7367 19.3485 15.8673C19.2179 15.9979 19.0407 16.0713 18.856 16.0713H2.14174C1.95704 16.0713 1.7799 15.9979 1.64929 15.8673C1.51869 15.7367 1.44531 15.5595 1.44531 15.3748V12.5891" stroke="black" stroke-width="1.5" stroke-linecap="round" stroke-linejoin="round"/>
<path d="M1.44531 7.01779V4.23207C1.44531 4.04737 1.51869 3.87022 1.64929 3.73963C1.7799 3.60902 1.95704 3.53564 2.14174 3.53564H18.856C19.0407 3.53564 19.2179 3.60902 19.3485 3.73963C19.4791 3.87022 19.5525 4.04737 19.5525 4.23207V7.01779" stroke="black" stroke-width="1.5" stroke-linecap="round" stroke-linejoin="round"/>
<path d="M9.1077 16.0713L7.71484 19.5534" stroke="black" stroke-width="1.5" stroke-linecap="round" stroke-linejoin="round"/>
<path d="M11.8906 16.0713L13.2835 19.5534" stroke="black" stroke-width="1.5" stroke-linecap="round" stroke-linejoin="round"/>
<path d="M6.32031 19.5535H14.6775" stroke="black" stroke-width="1.5" stroke-linecap="round" stroke-linejoin="round"/>
<path d="M12.5887 7.01782H8.41016V12.5893H12.5887V7.01782Z" stroke="black" stroke-width="1.5" stroke-linecap="round" stroke-linejoin="round"/>
<path d="M4.92913 7.71411L2.83984 9.8034L4.92913 11.8927" stroke="black" stroke-width="1.5" stroke-linecap="round" stroke-linejoin="round"/>
<path d="M16.0703 7.71411L18.1596 9.8034L16.0703 11.8927" stroke="black" stroke-width="1.5" stroke-linecap="round" stroke-linejoin="round"/>
</svg>
