<svg width="21" height="21" viewBox="0 0 21 21" fill="none" xmlns="http://www.w3.org/2000/svg">
<g clip-path="url(#clip0_146_402245)">
<path d="M6.32031 3.53589H2.14174C1.95704 3.53589 1.7799 3.60926 1.64929 3.73987C1.51869 3.87047 1.44531 4.04761 1.44531 4.23232V15.3752C1.44531 15.5599 1.51869 15.737 1.64929 15.8677C1.7799 15.9982 1.95704 16.0716 2.14174 16.0716H18.856C19.0407 16.0716 19.2179 15.9982 19.3485 15.8677C19.4791 15.737 19.5525 15.5599 19.5525 15.3752V11.893" stroke="black" stroke-width="1.5" stroke-linecap="round" stroke-linejoin="round"/>
<path d="M11.8906 16.0715L13.2835 19.5537" stroke="black" stroke-width="1.5" stroke-linecap="round" stroke-linejoin="round"/>
<path d="M9.1077 16.0715L7.71484 19.5537" stroke="black" stroke-width="1.5" stroke-linecap="round" stroke-linejoin="round"/>
<path d="M14.6775 19.5537H6.32031" stroke="black" stroke-width="1.5" stroke-linecap="round" stroke-linejoin="round"/>
<path d="M10.4972 5.58993C10.0664 5.15029 9.80078 4.54819 9.80078 3.88403C9.80078 2.53784 10.8921 1.44653 12.2383 1.44653H14.3276C15.6738 1.44653 16.7651 2.53784 16.7651 3.88403C16.7651 4.85639 16.1957 5.69576 15.3722 6.08696" stroke="black" stroke-width="1.5" stroke-linecap="round" stroke-linejoin="round"/>
<path d="M18.8577 4.61568C19.2885 5.05532 19.5541 5.65743 19.5541 6.32158C19.5541 7.66778 18.4628 8.75908 17.1166 8.75908H15.0273C13.6811 8.75908 12.5898 7.66778 12.5898 6.32158C12.5898 5.34923 13.1592 4.50985 13.9827 4.11865" stroke="black" stroke-width="1.5" stroke-linecap="round" stroke-linejoin="round"/>
</g>
<defs>
<clipPath id="clip0_146_402245">
<rect width="21" height="21" fill="white"/>
</clipPath>
</defs>
</svg>
