<svg width="21" height="21" viewBox="0 0 21 21" fill="none" xmlns="http://www.w3.org/2000/svg">
<g clip-path="url(#clip0_146_400954)">
<path d="M8.80706 3.53564H2.14174C1.95704 3.53564 1.7799 3.60902 1.64929 3.73963C1.51869 3.87022 1.44531 4.04737 1.44531 4.23207V15.3749C1.44531 15.5596 1.51869 15.7368 1.64929 15.8674C1.7799 15.998 1.95704 16.0714 2.14174 16.0714H18.856C19.0407 16.0714 19.2179 15.998 19.3485 15.8674C19.4791 15.7368 19.5525 15.5596 19.5525 15.3749V10.1477" stroke="black" stroke-width="1.5" stroke-linecap="round" stroke-linejoin="round"/>
<path d="M11.8906 16.0714L13.2835 19.5536" stroke="black" stroke-width="1.5" stroke-linecap="round" stroke-linejoin="round"/>
<path d="M9.1077 16.0714L7.71484 19.5536" stroke="black" stroke-width="1.5" stroke-linecap="round" stroke-linejoin="round"/>
<path d="M14.6775 19.5536H6.32031" stroke="black" stroke-width="1.5" stroke-linecap="round" stroke-linejoin="round"/>
<path d="M18.7853 4.23213C18.4627 2.64271 17.0574 1.44641 15.3728 1.44641C13.4496 1.44641 11.8906 3.00542 11.8906 4.92855C11.8906 6.85169 13.4496 8.4107 15.3728 8.4107C16.232 8.4107 17.0186 8.0995 17.6259 7.58367" stroke="black" stroke-width="1.5" stroke-linecap="round" stroke-linejoin="round"/>
<path d="M19.5513 2.14282L18.7853 4.23211L16.7656 3.88389" stroke="black" stroke-width="1.5" stroke-linecap="round" stroke-linejoin="round"/>
</g>
<defs>
<clipPath id="clip0_146_400954">
<rect width="21" height="21" fill="white"/>
</clipPath>
</defs>
</svg>
