<svg width="21" height="21" viewBox="0 0 21 21" fill="none" xmlns="http://www.w3.org/2000/svg">
<g clip-path="url(#clip0_146_401041)">
<path d="M15.0565 3.53564L2.14174 3.53569C1.95704 3.53569 1.7799 3.60906 1.64929 3.73967C1.51869 3.87026 1.44531 4.04741 1.44531 4.23211V15.3749C1.44531 15.5596 1.51869 15.7368 1.64929 15.8674C1.7799 15.9981 1.95704 16.0714 2.14174 16.0714H18.856C19.0407 16.0714 19.2179 15.9981 19.3485 15.8674C19.4791 15.7368 19.5525 15.5596 19.5525 15.3749V13.9013" stroke="black" stroke-width="1.5" stroke-linecap="round" stroke-linejoin="round"/>
<path d="M9.1077 16.0714L7.71484 19.5536" stroke="black" stroke-width="1.5" stroke-linecap="round" stroke-linejoin="round"/>
<path d="M11.8906 16.0714L13.2835 19.5536" stroke="black" stroke-width="1.5" stroke-linecap="round" stroke-linejoin="round"/>
<path d="M6.32031 19.5535H14.6775" stroke="black" stroke-width="1.5" stroke-linecap="round" stroke-linejoin="round"/>
<path d="M18.5234 1.56335V6.43835" stroke="black" stroke-width="1.5" stroke-linecap="round" stroke-linejoin="round"/>
<path d="M18.524 10.2687C18.3316 10.2687 18.1758 10.1128 18.1758 9.92048C18.1758 9.72817 18.3316 9.57227 18.524 9.57227" stroke="black" stroke-width="1.5" stroke-linecap="round" stroke-linejoin="round"/>
<path d="M18.5234 10.2687C18.7158 10.2687 18.8717 10.1128 18.8717 9.92048C18.8717 9.72817 18.7158 9.57227 18.5234 9.57227" stroke="black" stroke-width="1.5" stroke-linecap="round" stroke-linejoin="round"/>
</g>
<defs>
<clipPath id="clip0_146_401041">
<rect width="21" height="21" fill="white"/>
</clipPath>
</defs>
</svg>
