<svg width="21" height="21" viewBox="0 0 21 21" fill="none" xmlns="http://www.w3.org/2000/svg">
<g clip-path="url(#clip0_146_401689)">
<path d="M1.65234 8.2804V12.6668" stroke="black" stroke-width="1.5" stroke-linecap="round" stroke-linejoin="round"/>
<path d="M1.65234 1.44641V5.8328" stroke="black" stroke-width="1.5" stroke-linecap="round" stroke-linejoin="round"/>
<path d="M1.65234 15.1144V19.5008" stroke="black" stroke-width="1.5" stroke-linecap="round" stroke-linejoin="round"/>
<path d="M10.1914 1.44641V5.8328" stroke="black" stroke-width="1.5" stroke-linecap="round" stroke-linejoin="round"/>
<path d="M12.8047 1.44641V5.8328" stroke="black" stroke-width="1.5" stroke-linecap="round" stroke-linejoin="round"/>
<path d="M4.40234 8.2804V12.6668" stroke="black" stroke-width="1.5" stroke-linecap="round" stroke-linejoin="round"/>
<path d="M4.42578 3.0822C4.42578 2.17878 5.15815 1.44641 6.06157 1.44641C6.96499 1.44641 7.69735 2.17878 7.69735 3.0822V4.17209C7.69735 5.0755 6.96499 5.80788 6.06157 5.80788C5.15815 5.80788 4.42578 5.0755 4.42578 4.17209V3.0822Z" stroke="black" stroke-width="1.5" stroke-linecap="round" stroke-linejoin="round"/>
<path d="M6.90234 9.91618C6.90234 9.01276 7.63471 8.2804 8.53813 8.2804C9.44155 8.2804 10.1739 9.01276 10.1739 9.91618V11.0061C10.1739 11.9095 9.44155 12.6419 8.53813 12.6419C7.63471 12.6419 6.90234 11.9095 6.90234 11.0061V9.91618Z" stroke="black" stroke-width="1.5" stroke-linecap="round" stroke-linejoin="round"/>
<path d="M4.42578 16.7751C4.42578 15.8717 5.15815 15.1392 6.06157 15.1392C6.96499 15.1392 7.69735 15.8717 7.69735 16.7751V17.8648C7.69735 18.7684 6.96499 19.5008 6.06157 19.5008C5.15815 19.5008 4.42578 18.7684 4.42578 17.8648V16.7751Z" stroke="black" stroke-width="1.5" stroke-linecap="round" stroke-linejoin="round"/>
<path d="M11.8956 13.9822H18.8599C19.2778 13.9822 19.5564 14.2607 19.5564 14.6786V18.8572C19.5564 19.275 19.2778 19.5536 18.8599 19.5536H11.8956C11.4778 19.5536 11.1992 19.275 11.1992 18.8572V14.6786C11.1992 14.2607 11.4778 13.9822 11.8956 13.9822Z" stroke="black" stroke-width="1.5" stroke-linecap="round" stroke-linejoin="round"/>
<path d="M12.5898 13.9822V12.5893C12.5898 11.0572 13.8434 9.80359 15.3756 9.80359C16.9077 9.80359 18.1613 11.0572 18.1613 12.5893V13.9822" stroke="black" stroke-width="1.5" stroke-linecap="round" stroke-linejoin="round"/>
</g>
<defs>
<clipPath id="clip0_146_401689">
<rect width="21" height="21" fill="white"/>
</clipPath>
</defs>
</svg>
