<svg width="20" height="20" viewBox="0 0 20 20" fill="none" xmlns="http://www.w3.org/2000/svg">
<g id="diagonal-scroll-1-57" clip-path="url(#clip0_47_142955)">
<g id="diagonal-scroll-1--move-scroll">
<path id="Vector" d="M9.99777 11.9822C11.0925 11.9822 11.9799 11.0948 11.9799 10.0001C11.9799 8.90538 11.0925 8.01794 9.99777 8.01794C8.90306 8.01794 8.01562 8.90538 8.01562 10.0001C8.01562 11.0948 8.90306 11.9822 9.99777 11.9822Z" stroke="black" stroke-width="1.5" stroke-linecap="round" stroke-linejoin="round"/>
<path id="Vector_2" d="M12.6406 1.41077H17.9263C18.1016 1.41077 18.2696 1.48038 18.3936 1.60429C18.5174 1.72819 18.5871 1.89625 18.5871 2.07148V7.3572" stroke="black" stroke-width="1.5" stroke-linecap="round" stroke-linejoin="round"/>
<path id="Vector_3" d="M7.35659 18.5894H2.07087C1.89564 18.5894 1.72758 18.5197 1.60368 18.3959C1.47977 18.272 1.41016 18.1039 1.41016 17.9287V12.6429" stroke="black" stroke-width="1.5" stroke-linecap="round" stroke-linejoin="round"/>
</g>
</g>
<defs>
<clipPath id="clip0_47_142955">
<rect width="20" height="20" fill="white"/>
</clipPath>
</defs>
</svg>
