<svg width="20" height="20" viewBox="0 0 20 20" fill="none" xmlns="http://www.w3.org/2000/svg">
<g id="dial-pad-finger-1-8" clip-path="url(#clip0_47_146203)">
<g id="dial-pad-finger-1--dial-pad-dot-finger-login-password">
<path id="Vector" d="M10.6602 18.5893V11.6518C10.6602 11.2137 10.8342 10.7936 11.144 10.4838C11.4537 10.174 11.8739 10 12.3119 10C12.75 10 13.1702 10.174 13.4799 10.4838C13.7897 10.7936 13.9637 11.2137 13.9637 11.6518V15.2857H15.9459C16.6467 15.2857 17.3191 15.5641 17.8146 16.0598C18.3103 16.5555 18.5887 17.2277 18.5887 17.9286V18.5893" stroke="black" stroke-width="1.5" stroke-linecap="round" stroke-linejoin="round"/>
<path id="Vector_2" d="M2.07087 2.73256C2.43577 2.73256 2.73158 2.43675 2.73158 2.07185C2.73158 1.70695 2.43577 1.41113 2.07087 1.41113C1.70597 1.41113 1.41016 1.70695 1.41016 2.07185C1.41016 2.43675 1.70597 2.73256 2.07087 2.73256Z" stroke="black" stroke-width="1.5" stroke-linecap="round" stroke-linejoin="round"/>
<path id="Vector_3" d="M7.35603 2.73256C7.72093 2.73256 8.01674 2.43675 8.01674 2.07185C8.01674 1.70695 7.72093 1.41113 7.35603 1.41113C6.99113 1.41113 6.69531 1.70695 6.69531 2.07185C6.69531 2.43675 6.99113 2.73256 7.35603 2.73256Z" stroke="black" stroke-width="1.5" stroke-linecap="round" stroke-linejoin="round"/>
<path id="Vector_4" d="M12.6412 2.73256C13.0061 2.73256 13.3019 2.43675 13.3019 2.07185C13.3019 1.70695 13.0061 1.41113 12.6412 1.41113C12.2763 1.41113 11.9805 1.70695 11.9805 2.07185C11.9805 2.43675 12.2763 2.73256 12.6412 2.73256Z" stroke="black" stroke-width="1.5" stroke-linecap="round" stroke-linejoin="round"/>
<path id="Vector_5" d="M2.07087 7.35756C2.43577 7.35756 2.73158 7.06175 2.73158 6.69685C2.73158 6.33195 2.43577 6.03613 2.07087 6.03613C1.70597 6.03613 1.41016 6.33195 1.41016 6.69685C1.41016 7.06175 1.70597 7.35756 2.07087 7.35756Z" stroke="black" stroke-width="1.5" stroke-linecap="round" stroke-linejoin="round"/>
<path id="Vector_6" d="M7.35603 7.35756C7.72093 7.35756 8.01674 7.06175 8.01674 6.69685C8.01674 6.33195 7.72093 6.03613 7.35603 6.03613C6.99113 6.03613 6.69531 6.33195 6.69531 6.69685C6.69531 7.06175 6.99113 7.35756 7.35603 7.35756Z" stroke="black" stroke-width="1.5" stroke-linecap="round" stroke-linejoin="round"/>
<path id="Vector_7" d="M7.35603 11.9826C7.72093 11.9826 8.01674 11.6867 8.01674 11.3218C8.01674 10.9569 7.72093 10.6611 7.35603 10.6611C6.99113 10.6611 6.69531 10.9569 6.69531 11.3218C6.69531 11.6867 6.99113 11.9826 7.35603 11.9826Z" stroke="black" stroke-width="1.5" stroke-linecap="round" stroke-linejoin="round"/>
<path id="Vector_8" d="M12.6412 7.35756C13.0061 7.35756 13.3019 7.06175 13.3019 6.69685C13.3019 6.33195 13.0061 6.03613 12.6412 6.03613C12.2763 6.03613 11.9805 6.33195 11.9805 6.69685C11.9805 7.06175 12.2763 7.35756 12.6412 7.35756Z" stroke="black" stroke-width="1.5" stroke-linecap="round" stroke-linejoin="round"/>
<path id="Vector_9" d="M2.07087 11.9826C2.43577 11.9826 2.73158 11.6867 2.73158 11.3218C2.73158 10.9569 2.43577 10.6611 2.07087 10.6611C1.70597 10.6611 1.41016 10.9569 1.41016 11.3218C1.41016 11.6867 1.70597 11.9826 2.07087 11.9826Z" stroke="black" stroke-width="1.5" stroke-linecap="round" stroke-linejoin="round"/>
</g>
</g>
<defs>
<clipPath id="clip0_47_146203">
<rect width="20" height="20" fill="white"/>
</clipPath>
</defs>
</svg>
