<svg width="21" height="21" viewBox="0 0 21 21" fill="none" xmlns="http://www.w3.org/2000/svg">
<path d="M15.5667 2.89502H5.43114C5.19747 2.90144 4.9686 2.96278 4.76301 3.07409C4.55743 3.18539 4.38093 3.34353 4.24774 3.53573L1.71387 7.04573C1.52572 7.31173 1.43176 7.63298 1.44689 7.95849C1.46203 8.28401 1.58539 8.59513 1.79741 8.84252L9.39901 17.6035C9.52916 17.7714 9.69592 17.9072 9.88654 18.0005C10.0772 18.094 10.2866 18.1424 10.4989 18.1424C10.7111 18.1424 10.9206 18.094 11.1112 18.0005C11.3019 17.9072 11.4686 17.7714 11.5988 17.6035L19.2003 8.84252C19.4123 8.59513 19.5357 8.28401 19.5509 7.95849C19.566 7.63298 19.4721 7.31173 19.2839 7.04573L16.75 3.53573C16.6169 3.34353 16.4404 3.18539 16.2348 3.07409C16.0292 2.96278 15.8002 2.90144 15.5667 2.89502Z" stroke="black" stroke-width="1.5" stroke-linecap="round" stroke-linejoin="round"/>
<path d="M9.77357 2.8811L6.375 8.1461L10.4979 18.105" stroke="black" stroke-width="1.5" stroke-linecap="round" stroke-linejoin="round"/>
<path d="M11.2661 2.8811L14.6507 8.1461L10.5 18.105" stroke="black" stroke-width="1.5" stroke-linecap="round" stroke-linejoin="round"/>
<path d="M1.47266 8.14612H19.5241" stroke="black" stroke-width="1.5" stroke-linecap="round" stroke-linejoin="round"/>
</svg>
