<svg width="20" height="20" viewBox="0 0 20 20" fill="none" xmlns="http://www.w3.org/2000/svg">
<g id="disable-alarm-9" clip-path="url(#clip0_47_148501)">
<g id="disable-alarm--time-tock-stopwatch-measure-clock-tick-disabled-off">
<path id="Vector" d="M18.5887 4.05399C17.6607 2.97603 16.5405 2.07988 15.2852 1.41113" stroke="black" stroke-width="1.5" stroke-linecap="round" stroke-linejoin="round"/>
<path id="Vector_2" d="M18.5887 18.5897L1.41016 1.41113" stroke="black" stroke-width="1.5" stroke-linecap="round" stroke-linejoin="round"/>
<path id="Vector_3" d="M4.71527 1.41113C4.01178 1.78589 3.35075 2.23206 2.74219 2.74161" stroke="black" stroke-width="1.5" stroke-linecap="round" stroke-linejoin="round"/>
<path id="Vector_4" d="M15.756 15.7576C16.7031 14.5303 17.2664 12.9917 17.2664 11.3216C17.2664 7.30764 14.0125 4.05371 9.99854 4.05371C8.3284 4.05371 6.78983 4.61706 5.5625 5.5641" stroke="black" stroke-width="1.5" stroke-linecap="round" stroke-linejoin="round"/>
<path id="Vector_5" d="M3.80996 7.50879C3.12546 8.61728 2.73047 9.92351 2.73047 11.322C2.73047 15.336 5.98439 18.5899 9.99833 18.5899C11.3968 18.5899 12.703 18.1949 13.8115 17.5104" stroke="black" stroke-width="1.5" stroke-linecap="round" stroke-linejoin="round"/>
</g>
</g>
<defs>
<clipPath id="clip0_47_148501">
<rect width="20" height="20" fill="white"/>
</clipPath>
</defs>
</svg>
