<svg width="21" height="21" viewBox="0 0 21 21" fill="none" xmlns="http://www.w3.org/2000/svg">
<path d="M3.60696 10.3694V3.97303C3.60696 3.66081 3.73098 3.36137 3.95176 3.14059C4.17254 2.91981 4.47199 2.79578 4.78421 2.79578H16.2322C16.5444 2.79578 16.8439 2.91981 17.0647 3.14059C17.2854 3.36137 17.4094 3.66081 17.4094 3.97303V4.71095M3.60696 13.3293V14.6725L2.42969 18.2042L7.13874 17.0269H16.2322C16.5444 17.0269 16.8439 16.903 17.0647 16.6822C17.2854 16.4614 17.4094 16.162 17.4094 15.8497V7.5402" stroke="black" stroke-width="1.5" stroke-linecap="round" stroke-linejoin="round"/>
<path d="M1.65625 8.56677L3.58944 10.5L5.52263 8.56677" stroke="black" stroke-width="1.5" stroke-linecap="round" stroke-linejoin="round"/>
<path d="M15.4805 9.45296L17.4136 7.51978L19.3469 9.45296" stroke="black" stroke-width="1.5" stroke-linecap="round" stroke-linejoin="round"/>
</svg>
