<svg width="21" height="21" viewBox="0 0 21 21" fill="none" xmlns="http://www.w3.org/2000/svg">
<path d="M6.47656 9.80361C6.47656 9.98831 6.54994 10.1655 6.68054 10.2961C6.81115 10.4267 6.98829 10.5 7.17299 10.5C7.3577 10.5 7.53483 10.4267 7.66544 10.2961C7.79605 10.1655 7.86942 9.98831 7.86942 9.80361C7.86942 9.6189 7.79605 9.44176 7.66544 9.31116C7.53483 9.18055 7.3577 9.10718 7.17299 9.10718C6.98829 9.10718 6.81115 9.18055 6.68054 9.31116C6.54994 9.44176 6.47656 9.6189 6.47656 9.80361Z" stroke="black" stroke-width="1.5"/>
<path d="M12.7461 9.80361C12.7461 9.98831 12.8195 10.1655 12.9501 10.2961C13.0807 10.4267 13.2578 10.5 13.4425 10.5C13.6272 10.5 13.8044 10.4267 13.935 10.2961C14.0656 10.1655 14.139 9.98831 14.139 9.80361C14.139 9.6189 14.0656 9.44176 13.935 9.31116C13.8044 9.18055 13.6272 9.10718 13.4425 9.10718C13.2578 9.10718 13.0807 9.18055 12.9501 9.31116C12.8195 9.44176 12.7461 9.6189 12.7461 9.80361Z" stroke="black" stroke-width="1.5"/>
<path d="M1.94531 14.4898C1.94531 11.1449 3.13993 6.72479 4.33454 4.93287C4.33454 4.93287 5.52915 4.33557 10.3076 4.33557C15.086 4.33557 16.2807 4.93287 16.2807 4.93287C17.4753 6.72479 18.6699 11.1449 18.6699 14.4898C18.2716 15.0871 16.8779 16.4012 14.4887 16.8791L12.3873 14.2522C11.7637 14.3987 11.0538 14.4898 10.3076 14.4898C9.56137 14.4898 8.85155 14.3987 8.22791 14.2522L6.12646 16.8791C3.73724 16.4012 2.34352 15.0871 1.94531 14.4898Z" stroke="black" stroke-width="1.5" stroke-linecap="round" stroke-linejoin="round"/>
<path d="M6.125 13.2952C6.48911 13.6593 7.25273 14.0234 8.22645 14.2522C8.85008 14.3987 9.5599 14.4898 10.3061 14.4898C11.0524 14.4898 11.7622 14.3987 12.3858 14.2522C13.3596 14.0234 14.1232 13.6593 14.4873 13.2952" stroke="black" stroke-width="1.5" stroke-linecap="round" stroke-linejoin="round"/>
</svg>
