<svg width="20" height="20" viewBox="0 0 20 20" fill="none" xmlns="http://www.w3.org/2000/svg">
<g id="dislike-1-13">
<g id="dislike-1--reward-down-thumb-hand-social-media-dislike-rating">
<path id="Vector" d="M2.13206 3.17493H5.23911V11.4473H2.13206C1.95821 11.4473 1.79148 11.3782 1.66855 11.2553C1.54562 11.1324 1.47656 10.9656 1.47656 10.7918V3.83042C1.47656 3.65657 1.54562 3.48985 1.66855 3.36692C1.79148 3.244 1.95821 3.17493 2.13206 3.17493Z" stroke="black" stroke-width="1.5" stroke-linecap="round" stroke-linejoin="round"/>
<path id="Vector_2" d="M5.23828 11.4471L8.56819 16.7698C8.69724 16.9801 8.87858 17.1535 9.09454 17.273C9.3105 17.3924 9.55372 17.454 9.80053 17.4515C9.9949 17.4585 10.1887 17.4265 10.3705 17.3573C10.5523 17.2882 10.7183 17.1832 10.8589 17.0488C10.9994 16.9143 11.1116 16.7531 11.1888 16.5746C11.2659 16.3961 11.3065 16.2039 11.3082 16.0094V12.1944H17.0635C17.2761 12.1875 17.4849 12.1357 17.6761 12.0423C17.8673 11.949 18.0366 11.8162 18.1727 11.6527C18.3089 11.4893 18.4091 11.2988 18.4664 11.0939C18.5238 10.889 18.537 10.6743 18.5055 10.4639L17.4567 3.69919C17.4119 3.33768 17.2367 3.00494 16.964 2.76353C16.6911 2.52212 16.3396 2.38864 15.9753 2.3882H7.37519C6.9658 2.3866 6.5617 2.48089 6.1953 2.66351L5.25139 3.13547" stroke="black" stroke-width="1.5" stroke-linecap="round" stroke-linejoin="round"/>
<path id="Vector_3" d="M5.23828 11.4475V3.17517" stroke="black" stroke-width="1.5" stroke-linecap="round" stroke-linejoin="round"/>
</g>
</g>
</svg>
