<svg width="20" height="20" viewBox="0 0 20 20" fill="none" xmlns="http://www.w3.org/2000/svg">
<g id="distribute-top-40">
<g id="distribute-top">
<path id="Vector 734" d="M18.5887 11.9821H1.41016" stroke="black" stroke-width="1.5" stroke-linecap="round" stroke-linejoin="round"/>
<path id="Vector 735" d="M13.9637 4.05358V6.69643C13.9637 7.42623 13.3721 8.01786 12.6423 8.01786H7.35659C6.62679 8.01786 6.03516 7.42624 6.03516 6.69643V4.05358C6.03516 3.32378 6.62677 2.73215 7.35659 2.73215H12.6423C13.3721 2.73215 13.9637 3.32378 13.9637 4.05358Z" stroke="black" stroke-width="1.5" stroke-linecap="round" stroke-linejoin="round"/>
<path id="Vector 736" d="M18.5887 2.73215H1.41016" stroke="black" stroke-width="1.5" stroke-linecap="round" stroke-linejoin="round"/>
<path id="Vector 737" d="M16.6049 13.3036V15.9464C16.6049 16.6763 16.0133 17.2679 15.2835 17.2679H4.71205C3.98224 17.2679 3.39062 16.6763 3.39062 15.9464V13.3036C3.39062 12.5738 3.98225 11.9821 4.71205 11.9821H15.2835C16.0133 11.9821 16.6049 12.5738 16.6049 13.3036Z" stroke="black" stroke-width="1.5" stroke-linecap="round" stroke-linejoin="round"/>
</g>
</g>
</svg>
