<svg width="21" height="21" viewBox="0 0 21 21" fill="none" xmlns="http://www.w3.org/2000/svg">
<path d="M13.3437 16.2021C15.1905 16.2021 16.6875 14.7049 16.6875 12.8583C16.6875 11.0116 15.1905 9.51453 13.3437 9.51453C11.497 9.51453 10 11.0116 10 12.8583C10 14.7049 11.497 16.2021 13.3437 16.2021Z" stroke="black" stroke-width="1.5" stroke-linecap="round" stroke-linejoin="round"/>
<path d="M5.625 5.6604H14.1562" stroke="black" stroke-width="1.5" stroke-linecap="round" stroke-linejoin="round"/>
<path d="M5.625 8.50427H8.0625" stroke="black" stroke-width="1.5" stroke-linecap="round" stroke-linejoin="round"/>
<path d="M8.04799 16.2021H2.95536C2.1861 16.2021 1.5625 15.5784 1.5625 14.8093V3.40519C1.5625 2.63594 2.1861 2.01233 2.95536 2.01233H18.1027C18.8719 2.01233 19.4955 2.63594 19.4955 3.40519V14.8093C19.4955 15.5784 18.8719 16.2021 18.1027 16.2021H17.798" stroke="black" stroke-width="1.5" stroke-linecap="round" stroke-linejoin="round"/>
<path d="M11.7344 15.8049V19.5102L13.3449 18.5525L14.9554 19.5102V15.8049" stroke="black" stroke-width="1.5" stroke-linecap="round" stroke-linejoin="round"/>
<path d="M13.3443 13.2066C13.152 13.2066 12.9961 13.0507 12.9961 12.8583C12.9961 12.666 13.152 12.5101 13.3443 12.5101" stroke="black" stroke-width="1.5" stroke-linecap="round" stroke-linejoin="round"/>
<path d="M13.3438 13.2066C13.5361 13.2066 13.692 13.0507 13.692 12.8583C13.692 12.666 13.5361 12.5101 13.3438 12.5101" stroke="black" stroke-width="1.5" stroke-linecap="round" stroke-linejoin="round"/>
</svg>
