<svg width="21" height="21" viewBox="0 0 21 21" fill="none" xmlns="http://www.w3.org/2000/svg">
<g clip-path="url(#clip0_146_399233)">
<path d="M10.4989 19.5537C15.4991 19.5537 19.5525 15.5003 19.5525 10.5001C19.5525 5.49996 15.4991 1.44653 10.4989 1.44653C5.49874 1.44653 1.44531 5.49996 1.44531 10.5001C1.44531 15.5003 5.49874 19.5537 10.4989 19.5537Z" stroke="black" stroke-width="1.5" stroke-linecap="round" stroke-linejoin="round"/>
<path d="M7.71484 6.32153H10.5006C11.6088 6.32153 12.6716 6.76177 13.4553 7.54541C14.2389 8.32904 14.6791 9.39188 14.6791 10.5001C14.6791 11.6083 14.2389 12.6712 13.4553 13.4548C12.6716 14.2384 11.6088 14.6787 10.5006 14.6787H7.71484" stroke="black" stroke-width="1.5" stroke-linecap="round" stroke-linejoin="round"/>
<path d="M9.10547 6.32153V14.6787" stroke="black" stroke-width="1.5" stroke-linecap="round" stroke-linejoin="round"/>
</g>
<defs>
<clipPath id="clip0_146_399233">
<rect width="21" height="21" fill="white"/>
</clipPath>
</defs>
</svg>
