<svg width="21" height="21" viewBox="0 0 21 21" fill="none" xmlns="http://www.w3.org/2000/svg">
<g clip-path="url(#clip0_146_399250)">
<path d="M19.5541 11.8931L13.9827 17.4645L11.8934 15.3752L7.71484 19.5538" stroke="black" stroke-width="1.5" stroke-linecap="round" stroke-linejoin="round"/>
<path d="M15.375 11.8931H19.5536V16.0716" stroke="black" stroke-width="1.5" stroke-linecap="round" stroke-linejoin="round"/>
<path d="M13.8257 9.10725C13.9274 8.65929 13.981 8.1931 13.981 7.71439C13.981 4.25275 11.1748 1.44653 7.71317 1.44653C4.25153 1.44653 1.44531 4.25275 1.44531 7.71439C1.44531 11.176 4.25153 13.9822 7.71317 13.9822C8.19188 13.9822 8.65807 13.9286 9.10603 13.8269" stroke="black" stroke-width="1.5" stroke-linecap="round" stroke-linejoin="round"/>
<path d="M9.49052 5.85729C9.42936 5.68428 9.33501 5.52697 9.21511 5.39301C8.96006 5.10804 8.58942 4.92871 8.1769 4.92871H7.09879C6.41212 4.92871 5.85547 5.48537 5.85547 6.17203C5.85547 6.75631 6.26231 7.26176 6.83309 7.38662L8.47456 7.7457C9.114 7.88557 9.56977 8.45224 9.56977 9.10679C9.56977 9.87606 8.94616 10.5002 8.1769 10.5002H7.24833C6.64186 10.5002 6.12593 10.1126 5.93472 9.57159" stroke="black" stroke-width="1.5" stroke-linecap="round" stroke-linejoin="round"/>
<path d="M7.71094 4.92869V3.88403" stroke="black" stroke-width="1.5" stroke-linecap="round" stroke-linejoin="round"/>
<path d="M7.71094 11.5446V10.5" stroke="black" stroke-width="1.5" stroke-linecap="round" stroke-linejoin="round"/>
</g>
<defs>
<clipPath id="clip0_146_399250">
<rect width="21" height="21" fill="white"/>
</clipPath>
</defs>
</svg>
