<svg width="20" height="20" viewBox="0 0 20 20" fill="none" xmlns="http://www.w3.org/2000/svg">
<g id="download-laptop-7" clip-path="url(#clip0_47_148751)">
<g id="download-laptop--arrow-computer-down-download-internet-laptop-network-server-upload">
<path id="Vector" d="M4.78213 6.20703C4.05977 6.20703 3.47357 6.79159 3.47298 7.51396C3.47158 9.20563 3.47521 11.5526 3.47521 13.2442H16.5799C16.5799 11.5525 16.5834 9.20563 16.5821 7.51396C16.5815 6.79159 15.9953 6.20703 15.2728 6.20703" stroke="black" stroke-width="1.5" stroke-linecap="round" stroke-linejoin="round"/>
<path id="Vector_2" d="M3.35573 13.2441L1.65213 16.5858C1.53711 16.7851 1.47656 17.011 1.47656 17.2411C1.47656 17.471 1.53711 17.6971 1.65213 17.8963C1.77248 18.0889 1.94085 18.2471 2.14073 18.3551C2.34061 18.463 2.56512 18.5172 2.79223 18.5122H17.2073C17.4345 18.5172 17.659 18.463 17.8588 18.3551C18.0587 18.2471 18.2271 18.0889 18.3474 17.8963C18.4624 17.6971 18.5229 17.471 18.5229 17.2411C18.5229 17.011 18.4624 16.7851 18.3474 16.5858L16.6962 13.2441H3.35573Z" stroke="black" stroke-width="1.5" stroke-linecap="round" stroke-linejoin="round"/>
<path id="Vector_3" d="M7.37891 6.71875L9.99983 9.33967L12.6208 6.71875" stroke="black" stroke-width="1.5" stroke-linecap="round" stroke-linejoin="round"/>
<path id="Vector_4" d="M10 9.33933V1.47656" stroke="black" stroke-width="1.5" stroke-linecap="round" stroke-linejoin="round"/>
</g>
</g>
<defs>
<clipPath id="clip0_47_148751">
<rect width="20" height="20" fill="white"/>
</clipPath>
</defs>
</svg>
