<svg width="20" height="20" viewBox="0 0 20 20" fill="none" xmlns="http://www.w3.org/2000/svg">
<g id="download-box-2-19">
<g id="download-box-2--arrow-button-down-download-internet-network-server-upload">
<path id="Vector" d="M14.6267 7.02539H15.9481C16.1233 7.02539 16.2914 7.095 16.4154 7.21891C16.5392 7.34281 16.6088 7.51087 16.6088 7.6861V17.5968C16.6088 17.772 16.5392 17.9401 16.4154 18.0641C16.2914 18.1879 16.1233 18.2575 15.9481 18.2575H4.05525C3.88001 18.2575 3.71195 18.1879 3.58805 18.0641C3.46414 17.9401 3.39453 17.772 3.39453 17.5968V7.6861C3.39453 7.51087 3.46414 7.34281 3.58805 7.21891C3.71195 7.095 3.88001 7.02539 4.05525 7.02539H5.37667" stroke="black" stroke-width="1.5" stroke-linecap="round" stroke-linejoin="round"/>
<path id="Vector_2" d="M10 1.74023V12.3117" stroke="black" stroke-width="1.5" stroke-linecap="round" stroke-linejoin="round"/>
<path id="Vector_3" d="M7.35938 9.66797L10.0022 12.3108L12.6451 9.66797" stroke="black" stroke-width="1.5" stroke-linecap="round" stroke-linejoin="round"/>
</g>
</g>
</svg>
