<svg width="21" height="21" viewBox="0 0 21 21" fill="none" xmlns="http://www.w3.org/2000/svg">
<path d="M10.4981 1.83765C8.65767 1.83765 6.95133 2.4116 5.54827 3.39026C3.62449 4.73214 2.27087 6.83491 1.92366 9.26232C1.86585 9.66647 1.83594 10.0796 1.83594 10.4998C1.83594 13.6507 3.51835 16.4088 6.03387 17.9245C7.33757 18.71 8.86504 19.1619 10.4981 19.1619C12.1311 19.1619 13.6585 18.71 14.9622 17.9245C17.1423 16.6109 18.6967 14.3641 19.0725 11.7372C19.1303 11.3331 19.1601 10.9199 19.1601 10.4998C19.1601 8.076 18.1646 5.88474 16.5602 4.31254C14.998 2.78158 12.8583 1.83765 10.4981 1.83765Z" stroke="black" stroke-width="1.5" stroke-linecap="round" stroke-linejoin="round"/>
<path d="M1.92188 9.26216C3.54256 9.67464 7.52641 10.2521 10.4963 9.26216C13.4662 8.2722 15.7752 5.54982 16.5586 4.31238" stroke="black" stroke-width="1.5" stroke-linecap="round" stroke-linejoin="round"/>
<path d="M5.54688 3.39014C6.78432 4.11005 9.75418 6.29234 11.7341 9.2622C13.714 12.2321 14.7102 16.2743 14.9609 17.9243" stroke="black" stroke-width="1.5" stroke-linecap="round" stroke-linejoin="round"/>
<path d="M6.03516 17.9243C6.86012 16.6869 9.77411 13.9645 12.3555 12.9745C14.9369 11.9846 17.7037 11.7371 19.0738 11.7371" stroke="black" stroke-width="1.5" stroke-linecap="round" stroke-linejoin="round"/>
</svg>
