<svg width="21" height="21" viewBox="0 0 21 21" fill="none" xmlns="http://www.w3.org/2000/svg">
<g clip-path="url(#clip0_146_398696)">
<path d="M19.5506 12.5895L12.9902 19.1498L10.0234 19.5537L10.4413 16.5869L16.9877 10.0266L19.5506 12.5895Z" stroke="black" stroke-width="1.5" stroke-linecap="round" stroke-linejoin="round"/>
<path d="M7.71317 15.3751H2.83817C2.46876 15.3751 2.11448 15.2283 1.85327 14.9671C1.59206 14.706 1.44531 14.3517 1.44531 13.9822V2.83939C1.44531 2.46998 1.59206 2.1157 1.85327 1.85449C2.11448 1.59328 2.46876 1.44653 2.83817 1.44653H13.981C14.3504 1.44653 14.7048 1.59328 14.9659 1.85449C15.2271 2.1157 15.3739 2.46998 15.3739 2.83939V7.71439" stroke="black" stroke-width="1.5" stroke-linecap="round" stroke-linejoin="round"/>
<path d="M9.45592 7.36618C10.4175 7.36618 11.197 6.58668 11.197 5.6251C11.197 4.66353 10.4175 3.88403 9.45592 3.88403C8.49434 3.88403 7.71484 4.66353 7.71484 5.6251C7.71484 6.58668 8.49434 7.36618 9.45592 7.36618Z" stroke="black" stroke-width="1.5" stroke-linecap="round" stroke-linejoin="round"/>
<path d="M1.44531 9.94843C1.97127 9.85335 2.51302 9.80371 3.06638 9.80371C5.2644 9.80371 7.27948 10.587 8.84771 11.8897" stroke="black" stroke-width="1.5" stroke-linecap="round" stroke-linejoin="round"/>
</g>
<defs>
<clipPath id="clip0_146_398696">
<rect width="21" height="21" fill="white"/>
</clipPath>
</defs>
</svg>
