<svg width="21" height="21" viewBox="0 0 21 21" fill="none" xmlns="http://www.w3.org/2000/svg">
<g clip-path="url(#clip0_146_403230)">
<path d="M9.10603 15.375H2.83817C2.46876 15.375 2.11448 15.2282 1.85327 14.967C1.59206 14.7059 1.44531 14.3515 1.44531 13.9821V2.83927C1.44531 2.46985 1.59206 2.11558 1.85327 1.85437C2.11448 1.59316 2.46876 1.44641 2.83817 1.44641H13.981C14.3504 1.44641 14.7048 1.59316 14.9659 1.85437C15.2271 2.11558 15.3739 2.46985 15.3739 2.83927V6.32141" stroke="black" stroke-width="1.5" stroke-linecap="round" stroke-linejoin="round"/>
<path d="M10.1512 8.41073C11.1128 8.41073 11.8923 7.63123 11.8923 6.66966C11.8923 5.70809 11.1128 4.92859 10.1512 4.92859C9.18966 4.92859 8.41016 5.70809 8.41016 6.66966C8.41016 7.63123 9.18966 8.41073 10.1512 8.41073Z" stroke="black" stroke-width="1.5" stroke-linecap="round" stroke-linejoin="round"/>
<path d="M8.82746 11.4053C7.2301 10.0474 5.19934 9.30621 3.10281 9.31601C2.54681 9.31671 1.99202 9.36798 1.44531 9.46923" stroke="black" stroke-width="1.5" stroke-linecap="round" stroke-linejoin="round"/>
<path d="M16.072 13.9822V17.8125C16.072 18.2742 15.8885 18.7172 15.5621 19.0437C15.2356 19.3701 14.7926 19.5536 14.3309 19.5536C13.8692 19.5536 13.4263 19.3701 13.0998 19.0437C12.7733 18.7172 12.5898 18.2742 12.5898 17.8125V13.2857C12.5898 12.3622 12.9567 11.4765 13.6097 10.8235C14.2628 10.1705 15.1485 9.80359 16.072 9.80359C16.9955 9.80359 17.8812 10.1705 18.5343 10.8235C19.1873 11.4765 19.5541 12.3622 19.5541 13.2857V18.1607" stroke="black" stroke-width="1.5" stroke-linecap="round" stroke-linejoin="round"/>
</g>
<defs>
<clipPath id="clip0_146_403230">
<rect width="21" height="21" fill="white"/>
</clipPath>
</defs>
</svg>
