<svg width="20" height="20" viewBox="0 0 20 20" fill="none" xmlns="http://www.w3.org/2000/svg">
<g id="empty-recycle-bin-2-14" clip-path="url(#clip0_47_141704)">
<g id="empty-recycle-bin-2--remove-delete-empty-bin-trash-garbage-undo-put-back">
<path id="Vector" d="M10.3298 18.5893H5.04408L3.72266 8.01782" stroke="black" stroke-width="1.5" stroke-linecap="round" stroke-linejoin="round"/>
<path id="Vector_2" d="M15.6183 8.01782L15.3672 9.98675" stroke="black" stroke-width="1.5" stroke-linecap="round" stroke-linejoin="round"/>
<path id="Vector_3" d="M1.74219 5.375H17.5993" stroke="black" stroke-width="1.5" stroke-linecap="round" stroke-linejoin="round"/>
<path id="Vector_4" d="M6.36719 5.37499V2.73213C6.36719 2.38166 6.50641 2.04556 6.75422 1.79774C7.00204 1.54993 7.33815 1.41071 7.68862 1.41071H11.6529C12.0034 1.41071 12.3395 1.54993 12.5873 1.79774C12.8351 2.04556 12.9743 2.38166 12.9743 2.73213V5.37499" stroke="black" stroke-width="1.5" stroke-linecap="round" stroke-linejoin="round"/>
<path id="Vector_5" d="M10.332 13.3036H15.6177C16.3186 13.3036 16.9908 13.582 17.4865 14.0777C17.9822 14.5733 18.2606 15.2456 18.2606 15.9464C18.2606 16.6473 17.9822 17.3195 17.4865 17.8152C16.9908 18.3109 16.3186 18.5893 15.6177 18.5893H13.6356" stroke="black" stroke-width="1.5" stroke-linecap="round" stroke-linejoin="round"/>
<path id="Vector_6" d="M11.6546 15.9464L9.01172 13.3036L11.6546 10.6607" stroke="black" stroke-width="1.5" stroke-linecap="round" stroke-linejoin="round"/>
</g>
</g>
<defs>
<clipPath id="clip0_47_141704">
<rect width="20" height="20" fill="white"/>
</clipPath>
</defs>
</svg>
