<svg width="21" height="21" viewBox="0 0 21 21" fill="none" xmlns="http://www.w3.org/2000/svg">
<g clip-path="url(#clip0_146_399284)">
<path d="M12.5862 14.4C12.145 14.5842 11.6715 14.679 11.1934 14.6786C10.1316 14.6315 9.13192 14.1651 8.41376 13.3817C7.6956 12.5982 7.3177 11.5618 7.36303 10.5C7.3177 9.43815 7.6956 8.40174 8.41376 7.61829C9.13192 6.83485 10.1316 6.36842 11.1934 6.32141C11.581 6.32383 11.9661 6.38488 12.3355 6.50248" stroke="black" stroke-width="1.5" stroke-linecap="round" stroke-linejoin="round"/>
<path d="M5.625 9.10718H9.80357" stroke="black" stroke-width="1.5" stroke-linecap="round" stroke-linejoin="round"/>
<path d="M5.625 11.8928H9.80357" stroke="black" stroke-width="1.5" stroke-linecap="round" stroke-linejoin="round"/>
<path d="M10.4989 19.5536C15.4991 19.5536 19.5525 15.5002 19.5525 10.5C19.5525 5.49983 15.4991 1.44641 10.4989 1.44641C5.49874 1.44641 1.44531 5.49983 1.44531 10.5C1.44531 15.5002 5.49874 19.5536 10.4989 19.5536Z" stroke="black" stroke-width="1.5" stroke-linecap="round" stroke-linejoin="round"/>
</g>
<defs>
<clipPath id="clip0_146_399284">
<rect width="21" height="21" fill="white"/>
</clipPath>
</defs>
</svg>
