<svg width="20" height="20" viewBox="0 0 20 20" fill="none" xmlns="http://www.w3.org/2000/svg">
<g id="expand-vertical-3-7">
<g id="expand-vertical-3--move-expand-vertical">
<path id="Vector" d="M3.72266 7.48933L9.65587 1.55611C9.70027 1.50974 9.7536 1.47284 9.81266 1.44763C9.8717 1.42242 9.93523 1.40942 9.99944 1.40942C10.0637 1.40942 10.1272 1.42242 10.1862 1.44763C10.2453 1.47284 10.2986 1.50974 10.343 1.55611L16.2762 7.48933" stroke="black" stroke-width="1.5" stroke-linecap="round" stroke-linejoin="round"/>
<path id="Vector_2" d="M3.72266 12.5106L9.65587 18.4438C9.70027 18.4902 9.7536 18.5271 9.81266 18.5523C9.8717 18.5776 9.93523 18.5905 9.99944 18.5905C10.0637 18.5905 10.1272 18.5776 10.1862 18.5523C10.2453 18.5271 10.2986 18.4902 10.343 18.4438L16.2762 12.5106" stroke="black" stroke-width="1.5" stroke-linecap="round" stroke-linejoin="round"/>
</g>
</g>
</svg>
