<svg width="20" height="20" viewBox="0 0 20 20" fill="none" xmlns="http://www.w3.org/2000/svg">
<g id="expand-vertical-1-29" clip-path="url(#clip0_47_142991)">
<g id="expand-vertical-1--expand-resize-bigger-vertical-smaller-size-arrow-arrows-big">
<path id="Vector" d="M14.1354 5.34861L10.3429 1.55611C10.2985 1.50974 10.2452 1.47284 10.1861 1.44763C10.1271 1.42242 10.0635 1.40942 9.99935 1.40942C9.93514 1.40942 9.87161 1.42242 9.81256 1.44763C9.75351 1.47284 9.70018 1.50974 9.65578 1.55611L5.86328 5.34861" stroke="black" stroke-width="1.5" stroke-linecap="round" stroke-linejoin="round"/>
<path id="Vector_2" d="M14.1354 14.6515L10.3429 18.444C10.2985 18.4904 10.2452 18.5272 10.1861 18.5525C10.1271 18.5777 10.0635 18.5907 9.99935 18.5907C9.93514 18.5907 9.87161 18.5777 9.81256 18.5525C9.75351 18.5272 9.70018 18.4904 9.65578 18.444L5.86328 14.6515" stroke="black" stroke-width="1.5" stroke-linecap="round" stroke-linejoin="round"/>
<path id="Vector_3" d="M1.41016 10H18.5887" stroke="black" stroke-width="1.5" stroke-linecap="round" stroke-linejoin="round"/>
</g>
</g>
<defs>
<clipPath id="clip0_47_142991">
<rect width="20" height="20" fill="white"/>
</clipPath>
</defs>
</svg>
