<svg width="21" height="21" viewBox="0 0 21 21" fill="none" xmlns="http://www.w3.org/2000/svg">
<g id="Eye">
<g id="Vector">
<path d="M2.72077 10.9943C2.59829 10.6763 2.59829 10.3237 2.72077 10.0057C3.92364 6.88268 6.95302 4.66669 10.5 4.66669C14.0469 4.66669 17.0763 6.88268 18.2792 10.0057C18.4017 10.3237 18.4017 10.6763 18.2792 10.9943C17.0763 14.1174 14.0469 16.3334 10.5 16.3334C6.95302 16.3334 3.92364 14.1174 2.72077 10.9943Z" stroke="#637083" stroke-width="1.5" stroke-linecap="round" stroke-linejoin="round"/>
<path d="M13 10.5C13 11.8807 11.8807 13 10.5 13C9.11929 13 8 11.8807 8 10.5C8 9.11931 9.11929 8.00002 10.5 8.00002C11.8807 8.00002 13 9.11931 13 10.5Z" stroke="#637083" stroke-width="1.5" stroke-linecap="round" stroke-linejoin="round"/>
</g>
</g>
</svg>
