<svg width="20" height="20" viewBox="0 0 20 20" fill="none" xmlns="http://www.w3.org/2000/svg">
<g id="face-scan-2-14" clip-path="url(#clip0_47_145262)">
<g id="face-scan-2--identification-angle-secure-human-id-person-face-security-brackets">
<path id="Ellipse 592" d="M12.1489 11.6782C12.1489 11.6782 11.6029 12.7525 10.0002 12.7525C8.39755 12.7525 7.85156 11.6782 7.85156 11.6782" stroke="black" stroke-width="1.5" stroke-linecap="round" stroke-linejoin="round"/>
<g id="Group 11">
<path id="Vector" d="M7.49051 8.84382C7.30806 8.84382 7.16016 8.69591 7.16016 8.51346C7.16016 8.33101 7.30806 8.18311 7.49051 8.18311" stroke="black" stroke-width="1.5" stroke-linecap="round" stroke-linejoin="round"/>
<path id="Vector_2" d="M7.49219 8.84382C7.67464 8.84382 7.82254 8.69591 7.82254 8.51346C7.82254 8.33101 7.67464 8.18311 7.49219 8.18311" stroke="black" stroke-width="1.5" stroke-linecap="round" stroke-linejoin="round"/>
</g>
<g id="Group 10">
<path id="Vector_3" d="M12.5061 8.84382C12.3237 8.84382 12.1758 8.69591 12.1758 8.51346C12.1758 8.33101 12.3237 8.18311 12.5061 8.18311" stroke="black" stroke-width="1.5" stroke-linecap="round" stroke-linejoin="round"/>
<path id="Vector_4" d="M12.5078 8.84382C12.6903 8.84382 12.8382 8.69591 12.8382 8.51346C12.8382 8.33101 12.6903 8.18311 12.5078 8.18311" stroke="black" stroke-width="1.5" stroke-linecap="round" stroke-linejoin="round"/>
</g>
<path id="Ellipse 593" d="M15.8077 10.0269C15.8077 13.2346 13.2073 15.835 9.99956 15.835C6.79181 15.835 4.19141 13.2346 4.19141 10.0269C4.19141 6.81915 6.79181 4.21875 9.99956 4.21875C13.2073 4.21875 15.8077 6.81915 15.8077 10.0269Z" stroke="black" stroke-width="1.5" stroke-linecap="round" stroke-linejoin="round"/>
<path id="Vector_5" d="M18.5893 14.625V17.2679C18.5893 17.6183 18.45 17.9545 18.2022 18.2022C17.9545 18.45 17.6183 18.5893 17.2679 18.5893H14.625" stroke="black" stroke-width="1.5" stroke-linecap="round" stroke-linejoin="round"/>
<path id="Vector_6" d="M14.625 1.41064H17.2679C17.6183 1.41064 17.9545 1.54987 18.2022 1.79768C18.45 2.0455 18.5893 2.3816 18.5893 2.73207V5.37493" stroke="black" stroke-width="1.5" stroke-linecap="round" stroke-linejoin="round"/>
<path id="Vector_7" d="M1.41016 5.37493V2.73207C1.41016 2.3816 1.54938 2.0455 1.79719 1.79768C2.04501 1.54987 2.38112 1.41064 2.73158 1.41064H5.37444" stroke="black" stroke-width="1.5" stroke-linecap="round" stroke-linejoin="round"/>
<path id="Vector_8" d="M5.37444 18.5893H2.73158C2.38112 18.5893 2.04501 18.45 1.79719 18.2022C1.54938 17.9545 1.41016 17.6183 1.41016 17.2679V14.625" stroke="black" stroke-width="1.5" stroke-linecap="round" stroke-linejoin="round"/>
</g>
</g>
<defs>
<clipPath id="clip0_47_145262">
<rect width="20" height="20" fill="white"/>
</clipPath>
</defs>
</svg>
