<svg width="20" height="20" viewBox="0 0 20 20" fill="none" xmlns="http://www.w3.org/2000/svg">
<g id="face-scan-1-3" clip-path="url(#clip0_47_145248)">
<g id="face-scan-1--identification-angle-secure-human-id-person-face-security-brackets">
<path id="Vector" d="M18.5893 14.625V17.2679C18.5893 17.6183 18.45 17.9545 18.2022 18.2022C17.9545 18.45 17.6183 18.5893 17.2679 18.5893H14.625" stroke="black" stroke-width="1.5" stroke-linecap="round" stroke-linejoin="round"/>
<path id="Vector_2" d="M14.625 1.41064H17.2679C17.6183 1.41064 17.9545 1.54987 18.2022 1.79768C18.45 2.0455 18.5893 2.3816 18.5893 2.73207V5.37493" stroke="black" stroke-width="1.5" stroke-linecap="round" stroke-linejoin="round"/>
<path id="Vector_3" d="M1.41016 5.37493V2.73207C1.41016 2.3816 1.54938 2.0455 1.79719 1.79768C2.04501 1.54987 2.38112 1.41064 2.73158 1.41064H5.37444" stroke="black" stroke-width="1.5" stroke-linecap="round" stroke-linejoin="round"/>
<path id="Vector_4" d="M5.37444 18.5893H2.73158C2.38112 18.5893 2.04501 18.45 1.79719 18.2022C1.54938 17.9545 1.41016 17.6183 1.41016 17.2679V14.625" stroke="black" stroke-width="1.5" stroke-linecap="round" stroke-linejoin="round"/>
<path id="Vector_5" d="M9.99777 6.69629V11.3213H8.01562" stroke="black" stroke-width="1.5" stroke-linecap="round" stroke-linejoin="round"/>
<path id="Vector_6" d="M6.69531 13.9644C7.58677 14.8111 8.76936 15.2833 9.99888 15.2833C11.2284 15.2833 12.411 14.8111 13.3025 13.9644" stroke="black" stroke-width="1.5" stroke-linecap="round" stroke-linejoin="round"/>
<g id="Group 8">
<path id="Vector_7" d="M6.03348 7.02693C5.85103 7.02693 5.70312 6.87902 5.70312 6.69657C5.70312 6.51412 5.85103 6.36621 6.03348 6.36621" stroke="black" stroke-width="1.5" stroke-linecap="round" stroke-linejoin="round"/>
<path id="Vector_8" d="M6.03516 7.02693C6.21761 7.02693 6.36551 6.87902 6.36551 6.69657C6.36551 6.51412 6.21761 6.36621 6.03516 6.36621" stroke="black" stroke-width="1.5" stroke-linecap="round" stroke-linejoin="round"/>
</g>
<g id="Group 2656">
<path id="Vector_9" d="M13.9632 7.02693C13.7807 7.02693 13.6328 6.87902 13.6328 6.69657C13.6328 6.51412 13.7807 6.36621 13.9632 6.36621" stroke="black" stroke-width="1.5" stroke-linecap="round" stroke-linejoin="round"/>
<path id="Vector_10" d="M13.9648 7.02693C14.1473 7.02693 14.2952 6.87902 14.2952 6.69657C14.2952 6.51412 14.1473 6.36621 13.9648 6.36621" stroke="black" stroke-width="1.5" stroke-linecap="round" stroke-linejoin="round"/>
</g>
</g>
</g>
<defs>
<clipPath id="clip0_47_145248">
<rect width="20" height="20" fill="white"/>
</clipPath>
</defs>
</svg>
