<svg width="20" height="20" viewBox="0 0 20 20" fill="none" xmlns="http://www.w3.org/2000/svg">
<g id="file-block-59" clip-path="url(#clip0_47_144344)">
<g id="file-block--file-common-block">
<path id="Vector" d="M4.05469 6.03564V2.73207C4.05469 2.3816 4.19391 2.0455 4.44172 1.79768C4.68954 1.54987 5.02565 1.41064 5.37612 1.41064H13.9654L18.5904 6.03564V17.2678C18.5904 17.6182 18.4511 17.9544 18.2034 18.2022C17.9556 18.4499 17.6194 18.5892 17.269 18.5892H13.3047" stroke="black" stroke-width="1.5" stroke-linecap="round" stroke-linejoin="round"/>
<path id="Vector_2" d="M5.7048 18.5893C3.33293 18.5893 1.41016 16.6665 1.41016 14.2946C1.41016 11.9228 3.33293 10 5.7048 10C8.07667 10 9.99944 11.9228 9.99944 14.2946C9.99944 16.6665 8.07667 18.5893 5.7048 18.5893Z" stroke="black" stroke-width="1.5" stroke-linecap="round" stroke-linejoin="round"/>
<path id="Vector_3" d="M8.74263 17.334L2.66406 11.2554" stroke="black" stroke-width="1.5" stroke-linecap="round" stroke-linejoin="round"/>
</g>
</g>
<defs>
<clipPath id="clip0_47_144344">
<rect width="20" height="20" fill="white"/>
</clipPath>
</defs>
</svg>
