<svg width="20" height="20" viewBox="0 0 20 20" fill="none" xmlns="http://www.w3.org/2000/svg">
<g id="file-search" clip-path="url(#clip0_47_144394)">
<g id="file-search_2">
<path id="Vector" d="M15.9459 6.69636V6.03564L11.3209 1.41064H2.73158C2.38112 1.41064 2.04501 1.54987 1.79719 1.79768C1.54938 2.0455 1.41016 2.3816 1.41016 2.73207V17.2678C1.41016 17.6182 1.54938 17.9544 1.79719 18.2022C2.04501 18.4499 2.38112 18.5892 2.73158 18.5892H9.33873" stroke="black" stroke-width="1.5" stroke-linecap="round" stroke-linejoin="round"/>
<path id="vector" d="M13.3041 17.2679C15.4936 17.2679 17.2684 15.4931 17.2684 13.3036C17.2684 11.1142 15.4936 9.33936 13.3041 9.33936C11.1147 9.33936 9.33984 11.1142 9.33984 13.3036C9.33984 15.4931 11.1147 17.2679 13.3041 17.2679Z" stroke="black" stroke-width="1.5" stroke-linecap="round" stroke-linejoin="round"/>
<path id="vector_2" d="M18.5898 18.5894L16.2773 16.2769" stroke="black" stroke-width="1.5" stroke-linecap="round" stroke-linejoin="round"/>
</g>
</g>
<defs>
<clipPath id="clip0_47_144394">
<rect width="20" height="20" fill="white"/>
</clipPath>
</defs>
</svg>
