<svg width="20" height="20" viewBox="0 0 20 20" fill="none" xmlns="http://www.w3.org/2000/svg">
<g id="file-report-8">
<g id="file-report">
<path id="vector 2061" d="M7.35938 8.6785L9.34152 6.69636L11.3237 8.6785L13.9665 6.03564" stroke="black" stroke-width="1.5" stroke-linecap="round" stroke-linejoin="round"/>
<path id="vector 2062" d="M7.35938 11.9819H13.9665" stroke="black" stroke-width="1.5" stroke-linecap="round" stroke-linejoin="round"/>
<path id="vector 2063" d="M7.35938 15.2856H13.9665" stroke="black" stroke-width="1.5" stroke-linecap="round" stroke-linejoin="round"/>
<path id="Vector" d="M17.9302 17.2678C17.9302 17.6182 17.791 17.9544 17.5432 18.2022C17.2954 18.4499 16.9593 18.5892 16.6088 18.5892H4.71596C4.36549 18.5892 4.02939 18.4499 3.78156 18.2022C3.53376 17.9544 3.39453 17.6182 3.39453 17.2678V2.73207C3.39453 2.3816 3.53376 2.0455 3.78156 1.79768C4.02939 1.54987 4.36549 1.41064 4.71596 1.41064H13.3052L17.9302 6.03564V17.2678Z" stroke="black" stroke-width="1.5" stroke-linecap="round" stroke-linejoin="round"/>
</g>
</g>
</svg>
