<svg width="21" height="21" viewBox="0 0 21 21" fill="none" xmlns="http://www.w3.org/2000/svg">
<path d="M1.79297 9.10704C1.79297 10.8617 2.49002 12.5446 3.73077 13.7853C4.97153 15.0261 6.65435 15.7231 8.40904 15.7231C10.1637 15.7231 11.8466 15.0261 13.0873 13.7853C14.3281 12.5446 15.0251 10.8617 15.0251 9.10704C15.0251 7.35235 14.3281 5.66952 13.0873 4.42877C11.8466 3.18801 10.1637 2.49097 8.40904 2.49097C6.65435 2.49097 4.97153 3.18801 3.73077 4.42877C2.49002 5.66952 1.79297 7.35235 1.79297 9.10704Z" stroke="black" stroke-width="1.5" stroke-linecap="round" stroke-linejoin="round"/>
<path d="M15.0234 9.45532V16.4196C15.0234 17.5734 15.9589 18.5089 17.1127 18.5089C18.2666 18.5089 19.202 17.5734 19.202 16.4196" stroke="black" stroke-width="1.5" stroke-linecap="round" stroke-linejoin="round"/>
<path d="M8.41071 6.24501C8.2184 6.24501 8.0625 6.08911 8.0625 5.8968C8.0625 5.70449 8.2184 5.54858 8.41071 5.54858" stroke="black" stroke-width="1.5" stroke-linecap="round" stroke-linejoin="round"/>
<path d="M8.41016 6.24501C8.60247 6.24501 8.75837 6.08911 8.75837 5.8968C8.75837 5.70449 8.60247 5.54858 8.41016 5.54858" stroke="black" stroke-width="1.5" stroke-linecap="round" stroke-linejoin="round"/>
<path d="M8.41071 12.6654C8.2184 12.6654 8.0625 12.5095 8.0625 12.3172C8.0625 12.1249 8.2184 11.969 8.41071 11.969" stroke="black" stroke-width="1.5" stroke-linecap="round" stroke-linejoin="round"/>
<path d="M8.41016 12.6654C8.60247 12.6654 8.75837 12.5095 8.75837 12.3172C8.75837 12.1249 8.60247 11.969 8.41016 11.969" stroke="black" stroke-width="1.5" stroke-linecap="round" stroke-linejoin="round"/>
<path d="M5.19978 9.45522C5.00747 9.45522 4.85156 9.29931 4.85156 9.107C4.85156 8.91469 5.00747 8.75879 5.19978 8.75879" stroke="black" stroke-width="1.5" stroke-linecap="round" stroke-linejoin="round"/>
<path d="M5.19922 9.45522C5.39153 9.45522 5.54743 9.29931 5.54743 9.107C5.54743 8.91469 5.39153 8.75879 5.19922 8.75879" stroke="black" stroke-width="1.5" stroke-linecap="round" stroke-linejoin="round"/>
<path d="M11.6177 9.45522C11.4254 9.45522 11.2695 9.29931 11.2695 9.107C11.2695 8.91469 11.4254 8.75879 11.6177 8.75879" stroke="black" stroke-width="1.5" stroke-linecap="round" stroke-linejoin="round"/>
<path d="M11.6172 9.45522C11.8095 9.45522 11.9654 9.29931 11.9654 9.107C11.9654 8.91469 11.8095 8.75879 11.6172 8.75879" stroke="black" stroke-width="1.5" stroke-linecap="round" stroke-linejoin="round"/>
</svg>
