<svg width="20" height="20" viewBox="0 0 20 20" fill="none" xmlns="http://www.w3.org/2000/svg">
<g id="fingerprint-scan-2-10" clip-path="url(#clip0_47_145326)">
<g id="fingerprint-scan-2--identification-touch-id-secure-security-fingerprint-scan-finger-security">
<path id="Vector" d="M10 16.4165C10.6933 16.4165 11.3798 16.28 12.0203 16.0147C12.6608 15.7493 13.2428 15.3604 13.733 14.8703C14.2233 14.38 14.612 13.7981 14.8774 13.1575C15.1427 12.517 15.2792 11.8305 15.2792 11.1372V8.86267C15.2794 8.03609 15.0854 7.22794 14.7212 6.5" stroke="black" stroke-width="1.5" stroke-linecap="round" stroke-linejoin="round"/>
<path id="Vector_2" d="M4.71875 10.0347V11.1372C4.71841 12.1765 5.02479 13.1928 5.59955 14.0586C6.0241 14.6982 6.58112 15.2348 7.22932 15.634" stroke="black" stroke-width="1.5" stroke-linecap="round" stroke-linejoin="round"/>
<path id="Vector_3" d="M12.6407 4.29077C11.4282 3.59073 9.98722 3.40102 8.63482 3.76337C7.28241 4.12574 6.12934 5.01049 5.42923 6.22299C5.25836 6.5181 5.11731 6.82885 5.00781 7.15062" stroke="black" stroke-width="1.5" stroke-linecap="round" stroke-linejoin="round"/>
<path id="Vector_4" d="M9.44922 6.64517C9.83756 6.56455 10.2391 6.57212 10.6241 6.66733C11.0091 6.76253 11.3679 6.94294 11.6739 7.19526C11.9799 7.44757 12.2254 7.76535 12.3922 8.12517C12.5591 8.48498 12.643 8.87767 12.6379 9.27426V10.3135" stroke="black" stroke-width="1.5" stroke-linecap="round" stroke-linejoin="round"/>
<path id="Vector_5" d="M11.9632 12.5306C11.604 12.9308 11.1311 13.2117 10.6078 13.3357C10.0845 13.4597 9.53587 13.421 9.03522 13.2246C8.53458 13.0283 8.10586 12.6837 7.80642 12.237C7.50698 11.7903 7.35113 11.2628 7.35971 10.7251V9.27411C7.3577 8.91147 7.42956 8.55223 7.57089 8.21826" stroke="black" stroke-width="1.5" stroke-linecap="round" stroke-linejoin="round"/>
<path id="Vector_6" d="M10 9.39062V10.4932" stroke="black" stroke-width="1.5" stroke-linecap="round" stroke-linejoin="round"/>
<path id="Vector_7" d="M18.5893 14.625V17.2679C18.5893 17.6183 18.45 17.9545 18.2022 18.2022C17.9545 18.45 17.6183 18.5893 17.2679 18.5893H14.625" stroke="black" stroke-width="1.5" stroke-linecap="round" stroke-linejoin="round"/>
<path id="Vector_8" d="M14.625 1.41064H17.2679C17.6183 1.41064 17.9545 1.54987 18.2022 1.79768C18.45 2.0455 18.5893 2.3816 18.5893 2.73207V5.37493" stroke="black" stroke-width="1.5" stroke-linecap="round" stroke-linejoin="round"/>
<path id="Vector_9" d="M1.41016 5.37493V2.73207C1.41016 2.3816 1.54938 2.0455 1.79719 1.79768C2.04501 1.54987 2.38112 1.41064 2.73158 1.41064H5.37444" stroke="black" stroke-width="1.5" stroke-linecap="round" stroke-linejoin="round"/>
<path id="Vector_10" d="M5.37444 18.5893H2.73158C2.38112 18.5893 2.04501 18.45 1.79719 18.2022C1.54938 17.9545 1.41016 17.6183 1.41016 17.2679V14.625" stroke="black" stroke-width="1.5" stroke-linecap="round" stroke-linejoin="round"/>
</g>
</g>
<defs>
<clipPath id="clip0_47_145326">
<rect width="20" height="20" fill="white"/>
</clipPath>
</defs>
</svg>
