<svg width="20" height="20" viewBox="0 0 20 20" fill="none" xmlns="http://www.w3.org/2000/svg">
<g id="fingers-cross-25">
<g id="fingers-cross">
<path id="Vector 107" d="M10.2344 8.52832C13.1221 8.90094 16.9364 10.2406 16.5222 12.7668C16.282 14.2322 16.1496 16.6792 14.1933 18.5888" stroke="black" stroke-width="1.5" stroke-linecap="round" stroke-linejoin="round"/>
<path id="Vector 536" d="M5.74114 18.5869C3.09573 17.532 2.68575 14.8545 2.80809 12.9848C2.88462 11.8152 3.94646 11.0005 5.11858 11.0005L9.3924 11.0005C10.1623 11.0005 10.7864 11.6246 10.7864 12.3945C10.7864 13.0392 10.3444 13.5998 9.71743 13.7501L7.30277 14.3291C8.06357 14.2045 9.8014 14.9723 9.86547 16.6473" stroke="black" stroke-width="1.5" stroke-linecap="round" stroke-linejoin="round"/>
<path id="Vector 543" d="M7.60037 4.68199L6.42344 2.35208C5.99174 1.49746 4.94354 1.16233 4.09611 1.60797C3.28294 2.03559 2.95166 3.0284 3.3451 3.85866L5.89072 9.23053" stroke="black" stroke-width="1.5" stroke-linecap="round" stroke-linejoin="round"/>
<path id="Vector 544" d="M5.25391 10.9688L7.96981 3.87455C8.34393 2.8973 9.42838 2.43323 10.3937 2.83727C11.3606 3.24198 11.842 4.36435 11.4688 5.34385L9.32569 10.9688" stroke="black" stroke-width="1.5" stroke-linecap="round" stroke-linejoin="round"/>
</g>
</g>
</svg>
