<svg width="20" height="20" viewBox="0 0 20 20" fill="none" xmlns="http://www.w3.org/2000/svg">
<g id="fingerprint-delete-cross" clip-path="url(#clip0_47_145301)">
<g id="fingerprint-delete-cross--fingerprint-delete-cross-deny-indentification-password-touch-id-secure">
<path id="Vector" d="M14.6235 10.5152V8.16305C14.6236 6.53992 14.0262 4.97355 12.9453 3.7627" stroke="black" stroke-width="1.5" stroke-linecap="round" stroke-linejoin="round"/>
<path id="Vector_2" d="M8.01562 18.4439C8.88329 18.4439 9.74245 18.273 10.5441 17.9409" stroke="black" stroke-width="1.5" stroke-linecap="round" stroke-linejoin="round"/>
<path id="Vector_3" d="M1.41016 9.63037V11.8372C1.40971 13.1378 1.79318 14.4097 2.51249 15.4934C3.2318 16.577 4.25495 17.4243 5.45373 17.9289" stroke="black" stroke-width="1.5" stroke-linecap="round" stroke-linejoin="round"/>
<path id="Vector_4" d="M11.3215 2.44181C9.80402 1.56569 8.00062 1.32827 6.30805 1.78177C4.61548 2.23527 3.17237 3.34255 2.29619 4.86003C1.9354 5.48312 1.68085 6.16192 1.54297 6.8686" stroke="black" stroke-width="1.5" stroke-linecap="round" stroke-linejoin="round"/>
<path id="Vector_5" d="M7.33203 5.38809C7.81805 5.2872 8.32051 5.29667 8.80238 5.41581C9.28426 5.53496 9.73324 5.76076 10.1162 6.07652C10.4992 6.39231 10.8064 6.79002 11.0153 7.24033C11.2241 7.69066 11.3292 8.1821 11.3227 8.67844V10.8059" stroke="black" stroke-width="1.5" stroke-linecap="round" stroke-linejoin="round"/>
<path id="Vector_6" d="M10.4767 13.5814C10.0271 14.0822 9.43522 14.4337 8.78034 14.5889C8.12545 14.7442 7.43877 14.6957 6.8122 14.4499C6.18564 14.2041 5.64908 13.7729 5.27432 13.2139C4.89958 12.6548 4.70452 11.9947 4.71526 11.3217V8.67885C4.71275 8.22501 4.80268 7.77539 4.97955 7.35742" stroke="black" stroke-width="1.5" stroke-linecap="round" stroke-linejoin="round"/>
<path id="Vector_7" d="M8.01562 8.82373V11.0305" stroke="black" stroke-width="1.5" stroke-linecap="round" stroke-linejoin="round"/>
<path id="Vector_8" d="M18.5872 12.9863L12.9844 18.5892" stroke="black" stroke-width="1.5" stroke-linecap="round" stroke-linejoin="round"/>
<path id="Vector_9" d="M12.9844 12.9863L18.5872 18.5892" stroke="black" stroke-width="1.5" stroke-linecap="round" stroke-linejoin="round"/>
</g>
</g>
<defs>
<clipPath id="clip0_47_145301">
<rect width="20" height="20" fill="white"/>
</clipPath>
</defs>
</svg>
