<svg width="20" height="20" viewBox="0 0 20 20" fill="none" xmlns="http://www.w3.org/2000/svg">
<g id="fingerprint-2-4">
<g id="fingerprint-2--identification-password-touch-id-secure-fingerprint-finger-security">
<path id="Vector" d="M10 18.4437C10.8677 18.4437 11.7268 18.2729 12.5284 17.9408C13.3301 17.6088 14.0584 17.1222 14.6719 16.5086C15.2854 15.8951 15.7721 15.1667 16.1042 14.365C16.4363 13.5635 16.6071 12.7043 16.6071 11.8366V8.16305C16.6073 6.53992 16.0099 4.97355 14.9289 3.7627" stroke="black" stroke-width="1.5" stroke-linecap="round" stroke-linejoin="round"/>
<path id="Vector_2" d="M3.39453 9.62988V11.8367C3.3941 13.1373 3.77755 14.4093 4.49687 15.4928C5.21617 16.5765 6.23933 17.4238 7.4381 17.9285" stroke="black" stroke-width="1.5" stroke-linecap="round" stroke-linejoin="round"/>
<path id="Vector_3" d="M13.3059 2.44133C11.7884 1.56521 9.98499 1.32778 8.29241 1.78128C6.59985 2.23478 5.15674 3.34205 4.28056 4.85954C3.91977 5.48264 3.66522 6.16144 3.52734 6.86811" stroke="black" stroke-width="1.5" stroke-linecap="round" stroke-linejoin="round"/>
<path id="Vector_4" d="M9.31641 5.38809C9.80243 5.2872 10.3049 5.29667 10.7868 5.41581C11.2686 5.53496 11.7176 5.76076 12.1006 6.07652C12.4836 6.39231 12.7908 6.79002 12.9996 7.24033C13.2084 7.69066 13.3135 8.18212 13.3071 8.67844V10.8059" stroke="black" stroke-width="1.5" stroke-linecap="round" stroke-linejoin="round"/>
<path id="Vector_5" d="M12.4611 13.5809C12.0115 14.0817 11.4196 14.4332 10.7647 14.5885C10.1098 14.7437 9.42314 14.6952 8.79659 14.4494C8.17002 14.2037 7.63345 13.7724 7.25871 13.2134C6.88395 12.6543 6.6889 11.9942 6.69964 11.3212V8.67836C6.69713 8.22452 6.78705 7.7749 6.96393 7.35693" stroke="black" stroke-width="1.5" stroke-linecap="round" stroke-linejoin="round"/>
<path id="Vector_6" d="M10 8.82373V11.0305" stroke="black" stroke-width="1.5" stroke-linecap="round" stroke-linejoin="round"/>
</g>
</g>
</svg>
