<svg width="20" height="20" viewBox="0 0 20 20" fill="none" xmlns="http://www.w3.org/2000/svg">
<g id="fingerprint-scan-1-13">
<g id="fingerprint-scan-1--touch-id-identification-hand-finger-circle-fingerprint">
<path id="Vector" d="M8.01953 18.5893V11.6518C8.01953 11.2137 8.19356 10.7936 8.50333 10.4838C8.8131 10.174 9.23324 10 9.67132 10C10.1094 10 10.5295 10.174 10.8393 10.4838C11.1491 10.7936 11.3231 11.2137 11.3231 11.6518V15.2857H13.966C14.6668 15.2857 15.3391 15.5641 15.8347 16.0598C16.3304 16.5555 16.6088 17.2277 16.6088 17.9286V18.5893" stroke="black" stroke-width="1.5" stroke-linecap="round" stroke-linejoin="round"/>
<path id="Vector_2" d="M5.23132 12.1276C4.35395 11.2496 3.75661 10.1311 3.51481 8.91368C3.27298 7.69622 3.39756 6.43442 3.87277 5.28775C4.34798 4.14109 5.15249 3.16107 6.18461 2.47157C7.21672 1.78207 8.43008 1.41406 9.67132 1.41406C10.9125 1.41406 12.1259 1.78207 13.158 2.47157C14.1902 3.16107 14.9947 4.14109 15.4699 5.28775C15.9451 6.43442 16.0697 7.69622 15.8279 8.91368C15.586 10.1311 14.9886 11.2496 14.1113 12.1276" stroke="black" stroke-width="1.5" stroke-linecap="round" stroke-linejoin="round"/>
</g>
</g>
</svg>
