<svg width="21" height="21" viewBox="0 0 21 21" fill="none" xmlns="http://www.w3.org/2000/svg">
<g clip-path="url(#clip0_146_398777)">
<path d="M7.74944 1.44641V7.17743H11.7612L5.45703 16.3471V10.616H1.44531L7.74944 1.44641Z" stroke="black" stroke-width="1.5" stroke-linecap="round" stroke-linejoin="round"/>
<path d="M19.4419 18.314C19.5103 18.4402 19.546 18.5815 19.546 18.7249C19.546 18.8685 19.5103 19.0096 19.4419 19.1358C19.3778 19.2617 19.2801 19.3673 19.1596 19.441C19.0392 19.5148 18.9006 19.5538 18.7594 19.5537H10.5834C10.4422 19.5538 10.3037 19.5148 10.1832 19.441C10.0628 19.3673 9.96509 19.2617 9.90089 19.1358C9.83263 19.0096 9.79688 18.8685 9.79688 18.7249C9.79688 18.5815 9.83263 18.4402 9.90089 18.314L14.0098 10.9041C14.0663 10.7657 14.1627 10.6473 14.2867 10.5639C14.4107 10.4806 14.5568 10.436 14.7062 10.436C14.8556 10.436 15.0018 10.4806 15.1259 10.5639C15.2498 10.6473 15.3462 10.7657 15.4026 10.9041L19.4419 18.314Z" stroke="black" stroke-width="1.5" stroke-linecap="round" stroke-linejoin="round"/>
<path d="M14.6758 15.375V13.9822" stroke="black" stroke-width="1.5" stroke-linecap="round" stroke-linejoin="round"/>
<path d="M14.6703 17.6388C14.5741 17.6388 14.4961 17.5608 14.4961 17.4645C14.4961 17.3683 14.5741 17.2903 14.6703 17.2903" stroke="black" stroke-width="1.5" stroke-linecap="round" stroke-linejoin="round"/>
<path d="M14.6719 17.6387C14.7681 17.6387 14.8461 17.5607 14.8461 17.4644C14.8461 17.3682 14.7681 17.2902 14.6719 17.2902" stroke="black" stroke-width="1.5" stroke-linecap="round" stroke-linejoin="round"/>
</g>
<defs>
<clipPath id="clip0_146_398777">
<rect width="21" height="21" fill="white"/>
</clipPath>
</defs>
</svg>
