<svg width="21" height="21" viewBox="0 0 21 21" fill="none" xmlns="http://www.w3.org/2000/svg">
<path d="M8.05413 1.52844V7.25947H12.0658L5.76172 16.4292V10.6981H1.75L8.05413 1.52844Z" stroke="black" stroke-width="1.5" stroke-linecap="round" stroke-linejoin="round"/>
<path d="M14.8154 16.2442C15.5613 16.2442 16.1659 15.6396 16.1659 14.8937C16.1659 14.1479 15.5613 13.5432 14.8154 13.5432C14.0695 13.5432 13.4648 14.1479 13.4648 14.8937C13.4648 15.6396 14.0695 16.2442 14.8154 16.2442Z" stroke="black" stroke-width="1.5" stroke-linecap="round" stroke-linejoin="round"/>
<path d="M14.8164 10.5V11.176" stroke="black" stroke-width="1.5" stroke-linecap="round" stroke-linejoin="round"/>
<path d="M14.8164 18.6113V19.2873" stroke="black" stroke-width="1.5" stroke-linecap="round" stroke-linejoin="round"/>
<path d="M19.2111 14.8937H18.5352" stroke="black" stroke-width="1.5" stroke-linecap="round" stroke-linejoin="round"/>
<path d="M11.0978 14.8937H10.4219" stroke="black" stroke-width="1.5" stroke-linecap="round" stroke-linejoin="round"/>
<path d="M17.9252 11.7843L17.4453 12.2642" stroke="black" stroke-width="1.5" stroke-linecap="round" stroke-linejoin="round"/>
<path d="M12.187 17.5231L11.707 18.003" stroke="black" stroke-width="1.5" stroke-linecap="round" stroke-linejoin="round"/>
<path d="M17.9252 18.003L17.4453 17.5231" stroke="black" stroke-width="1.5" stroke-linecap="round" stroke-linejoin="round"/>
<path d="M12.187 12.2642L11.707 11.7843" stroke="black" stroke-width="1.5" stroke-linecap="round" stroke-linejoin="round"/>
</svg>
