<svg width="21" height="21" viewBox="0 0 21 21" fill="none" xmlns="http://www.w3.org/2000/svg">
<path d="M6.67054 1.44653L3.53661 8.8426C3.49327 8.94811 3.47651 9.06265 3.48779 9.17615C3.49907 9.28966 3.53806 9.39866 3.60134 9.49357C3.6646 9.58847 3.75022 9.66638 3.85066 9.72045C3.95108 9.77454 4.06326 9.80311 4.17733 9.80368H8.0634L5.27768 19.5537L17.2423 8.21582C17.3418 8.12005 17.4104 7.99692 17.4397 7.86203C17.4689 7.72716 17.4575 7.58662 17.4067 7.45827C17.356 7.32992 17.2682 7.21955 17.1547 7.14115C17.0411 7.06276 16.9068 7.01987 16.7688 7.01796H11.5455L14.3313 1.44653H6.67054Z" stroke="black" stroke-width="1.5" stroke-linecap="round" stroke-linejoin="round"/>
</svg>
