<svg width="20" height="20" viewBox="0 0 20 20" fill="none" xmlns="http://www.w3.org/2000/svg">
<g id="flip-vertical-circle-2-6" clip-path="url(#clip0_47_144695)">
<g id="flip-vertical-circle-2--flip-top-object-work">
<path id="Vector" d="M18.5887 9.99993H1.41016C1.41016 7.72191 2.3151 5.53719 3.92591 3.92639C5.5367 2.31559 7.72142 1.41064 9.99944 1.41064C12.2775 1.41064 14.4622 2.31559 16.073 3.92639C17.6838 5.53719 18.5887 7.72191 18.5887 9.99993Z" stroke="black" stroke-width="1.5" stroke-linecap="round" stroke-linejoin="round"/>
<path id="Vector_2" d="M2.13672 13.4487C2.3996 14.0605 2.73691 14.6374 3.141 15.1666C3.52377 15.6967 3.96727 16.18 4.46243 16.607" stroke="black" stroke-width="1.5" stroke-linecap="round" stroke-linejoin="round"/>
<path id="Vector_3" d="M17.9273 13.4487C17.6643 14.0605 17.3271 14.6374 16.923 15.1666C16.5402 15.6967 16.0967 16.18 15.6016 16.607" stroke="black" stroke-width="1.5" stroke-linecap="round" stroke-linejoin="round"/>
<path id="Vector_4" d="M8.01562 18.3647C9.32007 18.6643 10.6755 18.6643 11.9799 18.3647" stroke="black" stroke-width="1.5" stroke-linecap="round" stroke-linejoin="round"/>
</g>
</g>
<defs>
<clipPath id="clip0_47_144695">
<rect width="20" height="20" fill="white"/>
</clipPath>
</defs>
</svg>
