<svg width="20" height="20" viewBox="0 0 20 20" fill="none" xmlns="http://www.w3.org/2000/svg">
<g id="flip-vertical-circle-1-9" clip-path="url(#clip0_47_144689)">
<g id="flip-vertical-circle-1--flip-bottom-object-work">
<path id="Vector" d="M1.41016 10H18.5887C18.5887 12.278 17.6838 14.4627 16.073 16.0736C14.4622 17.6844 12.2775 18.5893 9.99944 18.5893C7.72142 18.5893 5.5367 17.6844 3.92591 16.0736C2.3151 14.4627 1.41016 12.278 1.41016 10Z" stroke="black" stroke-width="1.5" stroke-linecap="round" stroke-linejoin="round"/>
<path id="Vector_2" d="M17.9273 6.55079C17.6643 5.93908 17.3271 5.3621 16.923 4.83294C16.5402 4.3029 16.0967 3.81949 15.6016 3.39258" stroke="black" stroke-width="1.5" stroke-linecap="round" stroke-linejoin="round"/>
<path id="Vector_3" d="M2.13672 6.55079C2.3996 5.93908 2.73691 5.3621 3.141 4.83294C3.54022 4.2999 4.00157 3.81637 4.51529 3.39258" stroke="black" stroke-width="1.5" stroke-linecap="round" stroke-linejoin="round"/>
<path id="Vector_4" d="M11.9799 1.63538C10.6755 1.33573 9.32007 1.33573 8.01562 1.63538" stroke="black" stroke-width="1.5" stroke-linecap="round" stroke-linejoin="round"/>
</g>
</g>
<defs>
<clipPath id="clip0_47_144689">
<rect width="20" height="20" fill="white"/>
</clipPath>
</defs>
</svg>
