<svg width="20" height="20" viewBox="0 0 20 20" fill="none" xmlns="http://www.w3.org/2000/svg">
<g id="flip-vertical-square-1-7" clip-path="url(#clip0_47_144701)">
<g id="flip-vertical-square-1--design-down-flip-reflect-vertical">
<path id="Vector" d="M18.5882 15.9463V17.2677C18.5882 17.6182 18.4489 17.9543 18.2011 18.2021C17.9534 18.4499 17.6172 18.5891 17.2667 18.5891H15.9453" stroke="black" stroke-width="1.5" stroke-linecap="round" stroke-linejoin="round"/>
<path id="Vector_2" d="M11.9799 18.5894H8.01562" stroke="black" stroke-width="1.5" stroke-linecap="round" stroke-linejoin="round"/>
<path id="Vector_3" d="M1.41016 15.9463V17.2677C1.41016 17.6182 1.54938 17.9543 1.79719 18.2021C2.04501 18.4499 2.38112 18.5891 2.73158 18.5891H4.05301" stroke="black" stroke-width="1.5" stroke-linecap="round" stroke-linejoin="round"/>
<path id="Vector_4" d="M1.41016 6.69636V2.73207C1.41016 2.3816 1.54938 2.0455 1.79719 1.79768C2.04501 1.54987 2.38112 1.41064 2.73158 1.41064H17.2673C17.6177 1.41064 17.9539 1.54987 18.2017 1.79768C18.4494 2.0455 18.5887 2.3816 18.5887 2.73207V6.69636" stroke="black" stroke-width="1.5" stroke-linecap="round" stroke-linejoin="round"/>
<path id="Vector_5" d="M1.41016 11.9821V10H18.5887V11.9821" stroke="black" stroke-width="1.5" stroke-linecap="round" stroke-linejoin="round"/>
</g>
</g>
<defs>
<clipPath id="clip0_47_144701">
<rect width="20" height="20" fill="white"/>
</clipPath>
</defs>
</svg>
