<svg width="21" height="21" viewBox="0 0 21 21" fill="none" xmlns="http://www.w3.org/2000/svg">
<g clip-path="url(#clip0_146_398785)">
<path d="M2.83817 19.5536H18.1596C18.9289 19.5536 19.5525 18.93 19.5525 18.1607V2.83927C19.5525 2.07001 18.9289 1.44641 18.1596 1.44641H2.83817C2.06892 1.44641 1.44531 2.07001 1.44531 2.83927V18.1607C1.44531 18.93 2.06892 19.5536 2.83817 19.5536Z" stroke="black" stroke-width="1.5" stroke-linecap="round" stroke-linejoin="round"/>
<path d="M14.6775 9.80348C14.6775 10.9117 14.2372 11.9745 13.4536 12.7582C12.6699 13.5418 11.6071 13.9821 10.4989 13.9821C9.39066 13.9821 8.32782 13.5418 7.54419 12.7582C6.76055 11.9745 6.32031 10.9117 6.32031 9.80348V6.75312C6.32008 6.63477 6.35001 6.51831 6.40728 6.41473C6.46454 6.31115 6.54727 6.22389 6.64763 6.16116C6.748 6.09844 6.86269 6.06232 6.98089 6.05622C7.09909 6.05013 7.2169 6.07426 7.32317 6.12634L10.4989 7.71419L13.6746 6.12634C13.7809 6.07426 13.8987 6.05013 14.0169 6.05622C14.1351 6.06232 14.2498 6.09844 14.3501 6.16116C14.4505 6.22389 14.5332 6.31115 14.5905 6.41473C14.6478 6.51831 14.6777 6.63477 14.6775 6.75312V9.80348Z" stroke="black" stroke-width="1.5" stroke-linecap="round" stroke-linejoin="round"/>
<path d="M10.5 13.9822V19.5536" stroke="black" stroke-width="1.5" stroke-linecap="round" stroke-linejoin="round"/>
<path d="M10.5 19.5536L13.9821 16.0714" stroke="black" stroke-width="1.5" stroke-linecap="round" stroke-linejoin="round"/>
<path d="M10.4978 19.5536L7.01562 16.0714" stroke="black" stroke-width="1.5" stroke-linecap="round" stroke-linejoin="round"/>
</g>
<defs>
<clipPath id="clip0_146_398785">
<rect width="21" height="21" fill="white"/>
</clipPath>
</defs>
</svg>
