<svg width="21" height="21" viewBox="0 0 21 21" fill="none" xmlns="http://www.w3.org/2000/svg">
<path d="M4.23103 2.83923H2.83817C2.46876 2.83923 2.11448 2.98598 1.85327 3.24719C1.59206 3.5084 1.44531 3.86268 1.44531 4.23209V5.62495" stroke="black" stroke-width="1.5" stroke-linecap="round" stroke-linejoin="round"/>
<path d="M19.5513 5.62495V4.23209C19.5513 3.86268 19.4045 3.5084 19.1434 3.24719C18.8822 2.98598 18.5279 2.83923 18.1585 2.83923H16.7656" stroke="black" stroke-width="1.5" stroke-linecap="round" stroke-linejoin="round"/>
<path d="M16.7656 18.1607H18.1585C18.5279 18.1607 18.8822 18.0139 19.1434 17.7527C19.4045 17.4916 19.5513 17.1372 19.5513 16.7679V15.375" stroke="black" stroke-width="1.5" stroke-linecap="round" stroke-linejoin="round"/>
<path d="M1.44531 15.375V16.7679C1.44531 17.1372 1.59206 17.4916 1.85327 17.7527C2.11448 18.0139 2.46876 18.1607 2.83817 18.1607H4.23103" stroke="black" stroke-width="1.5" stroke-linecap="round" stroke-linejoin="round"/>
<path d="M10.4972 11.1963C10.8818 11.1963 11.1936 10.8845 11.1936 10.4999C11.1936 10.1153 10.8818 9.80347 10.4972 9.80347C10.1126 9.80347 9.80078 10.1153 9.80078 10.4999C9.80078 10.8845 10.1126 11.1963 10.4972 11.1963Z" stroke="black" stroke-width="1.5" stroke-linecap="round" stroke-linejoin="round"/>
<path d="M4.9269 11.1963C5.31152 11.1963 5.62333 10.8845 5.62333 10.4999C5.62333 10.1153 5.31152 9.80347 4.9269 9.80347C4.54227 9.80347 4.23047 10.1153 4.23047 10.4999C4.23047 10.8845 4.54227 11.1963 4.9269 11.1963Z" stroke="black" stroke-width="1.5" stroke-linecap="round" stroke-linejoin="round"/>
<path d="M16.0714 11.1963C16.456 11.1963 16.7679 10.8845 16.7679 10.4999C16.7679 10.1153 16.456 9.80347 16.0714 9.80347C15.6869 9.80347 15.375 10.1153 15.375 10.4999C15.375 10.8845 15.6869 11.1963 16.0714 11.1963Z" stroke="black" stroke-width="1.5" stroke-linecap="round" stroke-linejoin="round"/>
<path d="M10.4972 16.7679C10.8818 16.7679 11.1936 16.456 11.1936 16.0714C11.1936 15.6869 10.8818 15.375 10.4972 15.375C10.1126 15.375 9.80078 15.6869 9.80078 16.0714C9.80078 16.456 10.1126 16.7679 10.4972 16.7679Z" stroke="black" stroke-width="1.5" stroke-linecap="round" stroke-linejoin="round"/>
<path d="M10.4972 5.62491C10.8818 5.62491 11.1936 5.31311 11.1936 4.92848C11.1936 4.54386 10.8818 4.23206 10.4972 4.23206C10.1126 4.23206 9.80078 4.54386 9.80078 4.92848C9.80078 5.31311 10.1126 5.62491 10.4972 5.62491Z" stroke="black" stroke-width="1.5" stroke-linecap="round" stroke-linejoin="round"/>
</svg>
