<svg width="20" height="20" viewBox="0 0 20 20" fill="none" xmlns="http://www.w3.org/2000/svg">
<g id="folder-lock-36" clip-path="url(#clip0_47_144422)">
<g id="folder-lock">
<path id="Vector" d="M18.5887 8.01779V5.37549C18.5887 5.02503 18.4494 4.68891 18.2017 4.4411C17.9539 4.19328 17.6177 4.05406 17.2673 4.05406H9.33873L8.92908 2.41549C8.85674 2.1223 8.68614 1.86273 8.44572 1.68C8.20529 1.49727 7.90951 1.40241 7.60766 1.41121H2.73158C2.38112 1.41121 2.04501 1.55043 1.79719 1.79824C1.54938 2.04606 1.41016 2.38217 1.41016 2.73263V16.6076C1.41016 16.958 1.54938 17.2942 1.79719 17.542C2.04501 17.7899 2.38112 17.929 2.73158 17.929L6.69587 17.9285" stroke="black" stroke-width="1.5" stroke-linecap="round" stroke-linejoin="round"/>
<path id="Vector_2" d="M11.3209 13.3037H17.928C18.3244 13.3037 18.5887 13.568 18.5887 13.9644V17.9287C18.5887 18.3251 18.3244 18.5894 17.928 18.5894H11.3209C10.9244 18.5894 10.6602 18.3251 10.6602 17.9287V13.9644C10.6602 13.568 10.9244 13.3037 11.3209 13.3037Z" stroke="black" stroke-width="1.5" stroke-linecap="round" stroke-linejoin="round"/>
<path id="Vector_3" d="M11.9805 13.3036V11.9822C11.9805 10.5286 13.1698 9.33936 14.6233 9.33936C16.0769 9.33936 17.2662 10.5286 17.2662 11.9822V13.3036" stroke="black" stroke-width="1.5" stroke-linecap="round" stroke-linejoin="round"/>
</g>
</g>
<defs>
<clipPath id="clip0_47_144422">
<rect width="20" height="20" fill="white"/>
</clipPath>
</defs>
</svg>
