<svg width="20" height="20" viewBox="0 0 20 20" fill="none" xmlns="http://www.w3.org/2000/svg">
<g id="followers-23">
<g id="followers">
<path id="vector" d="M7.1634 7.68034C8.82638 7.68034 10.1745 6.33224 10.1745 4.66928C10.1745 3.0063 8.82638 1.6582 7.1634 1.6582C5.50044 1.6582 4.15234 3.0063 4.15234 4.66928C4.15234 6.33224 5.50044 7.68034 7.1634 7.68034Z" stroke="black" stroke-width="1.5" stroke-linecap="round" stroke-linejoin="round"/>
<path id="vector_2" d="M8.01897 16.1122H1.74219V15.4591C1.75178 14.5412 1.99389 13.6406 2.4459 12.8415C2.89792 12.0424 3.54509 11.3709 4.32698 10.8898C5.10886 10.4086 5.99994 10.1335 6.91698 10.09C6.99875 10.0862 7.08047 10.0842 7.16211 10.084C7.24374 10.0842 7.32547 10.0862 7.40723 10.09C8.32428 10.1335 9.21535 10.4086 9.99724 10.8898" stroke="black" stroke-width="1.5" stroke-linecap="round" stroke-linejoin="round"/>
<path id="vector 1240" d="M17.9301 15.0781H11.2266" stroke="black" stroke-width="1.5" stroke-linecap="round" stroke-linejoin="round"/>
<path id="vector 1262" d="M13.7455 17.5985L11.2266 15.0796L13.7455 12.5605" stroke="black" stroke-width="1.5" stroke-linecap="round" stroke-linejoin="round"/>
</g>
</g>
</svg>
