<svg width="20" height="20" viewBox="0 0 20 20" fill="none" xmlns="http://www.w3.org/2000/svg">
<g id="front-camera-17">
<g id="front-camera">
<g id="Group 2605">
<path id="Ellipse 1111" d="M7.30301 9.33894C7.12056 9.33894 6.97266 9.19103 6.97266 9.00858C6.97266 8.82613 7.12056 8.67822 7.30301 8.67822" stroke="black" stroke-width="1.5" stroke-linecap="round" stroke-linejoin="round"/>
<path id="Ellipse 1112" d="M7.30469 9.33894C7.48714 9.33894 7.63504 9.19103 7.63504 9.00858C7.63504 8.82613 7.48714 8.67822 7.30469 8.67822" stroke="black" stroke-width="1.5" stroke-linecap="round" stroke-linejoin="round"/>
</g>
<g id="Group 2628">
<path id="Ellipse 1111_2" d="M12.6975 9.33894C12.5151 9.33894 12.3672 9.19103 12.3672 9.00858C12.3672 8.82613 12.5151 8.67822 12.6975 8.67822" stroke="black" stroke-width="1.5" stroke-linecap="round" stroke-linejoin="round"/>
<path id="Ellipse 1112_2" d="M12.6992 9.33894C12.8817 9.33894 13.0296 9.19103 13.0296 9.00858C13.0296 8.82613 12.8817 8.67822 12.6992 8.67822" stroke="black" stroke-width="1.5" stroke-linecap="round" stroke-linejoin="round"/>
</g>
<path id="Vector 500" d="M6.76953 12.4536C7.39898 13.0938 8.51071 13.6807 9.99802 13.6807C11.4853 13.6807 12.5971 13.0938 13.2265 12.4536" stroke="black" stroke-width="1.5" stroke-linecap="round" stroke-linejoin="round"/>
<path id="Vector" d="M18.5887 6.69622C18.5887 6.34575 18.4494 6.00964 18.2017 5.76182C17.9539 5.51402 17.6177 5.37479 17.2673 5.37479H14.6244L12.6423 2.73193H7.35659L5.37444 5.37479H2.73158C2.38112 5.37479 2.04501 5.51402 1.79719 5.76182C1.54938 6.00964 1.41016 6.34575 1.41016 6.69622V15.9462C1.41016 16.2967 1.54938 16.6328 1.79719 16.8806C2.04501 17.1284 2.38112 17.2676 2.73158 17.2676H17.2673C17.6177 17.2676 17.9539 17.1284 18.2017 16.8806C18.4494 16.6328 18.5887 16.2967 18.5887 15.9462V6.69622Z" stroke="black" stroke-width="1.5" stroke-linecap="round" stroke-linejoin="round"/>
</g>
</g>
</svg>
