<svg width="20" height="20" viewBox="0 0 20 20" fill="none" xmlns="http://www.w3.org/2000/svg">
<g id="gallery-57" clip-path="url(#clip0_47_147785)">
<g id="gallery">
<path id="Rectangle 53" d="M2.73158 1.41113H17.2673C17.2673 1.41113 18.5887 1.41113 18.5887 2.73256V17.2683C18.5887 17.2683 18.5887 18.5897 17.2673 18.5897H2.73158C2.73158 18.5897 1.41016 18.5897 1.41016 17.2683V2.73256C1.41016 2.73256 1.41016 1.41113 2.73158 1.41113Z" stroke="black" stroke-width="1.5" stroke-linecap="round" stroke-linejoin="round"/>
<path id="Vector 2502" d="M8.01897 4.05371H4.7154C4.3505 4.05371 4.05469 4.34953 4.05469 4.71443V8.018C4.05469 8.3829 4.3505 8.67871 4.7154 8.67871H8.01897C8.38387 8.67871 8.67969 8.3829 8.67969 8.018V4.71443C8.67969 4.34953 8.38387 4.05371 8.01897 4.05371Z" stroke="black" stroke-width="1.5" stroke-linecap="round" stroke-linejoin="round"/>
<path id="Vector 2503" d="M15.2846 4.05371H11.981C11.6161 4.05371 11.3203 4.34953 11.3203 4.71443V8.018C11.3203 8.3829 11.6161 8.67871 11.981 8.67871H15.2846C15.6494 8.67871 15.9453 8.3829 15.9453 8.018V4.71443C15.9453 4.34953 15.6494 4.05371 15.2846 4.05371Z" stroke="black" stroke-width="1.5" stroke-linecap="round" stroke-linejoin="round"/>
<path id="Vector 2504" d="M8.01897 11.3223H4.7154C4.3505 11.3223 4.05469 11.6181 4.05469 11.983V15.2866C4.05469 15.6514 4.3505 15.9473 4.7154 15.9473H8.01897C8.38387 15.9473 8.67969 15.6514 8.67969 15.2866V11.983C8.67969 11.6181 8.38387 11.3223 8.01897 11.3223Z" stroke="black" stroke-width="1.5" stroke-linecap="round" stroke-linejoin="round"/>
<path id="Vector 2505" d="M15.2846 11.3223H11.981C11.6161 11.3223 11.3203 11.6181 11.3203 11.983V15.2866C11.3203 15.6514 11.6161 15.9473 11.981 15.9473H15.2846C15.6494 15.9473 15.9453 15.6514 15.9453 15.2866V11.983C15.9453 11.6181 15.6494 11.3223 15.2846 11.3223Z" stroke="black" stroke-width="1.5" stroke-linecap="round" stroke-linejoin="round"/>
</g>
</g>
<defs>
<clipPath id="clip0_47_147785">
<rect width="20" height="20" fill="white"/>
</clipPath>
</defs>
</svg>
