<svg width="21" height="21" viewBox="0 0 21 21" fill="none" xmlns="http://www.w3.org/2000/svg">
<path d="M7.548 19.249L18.3025 19.2488C18.8424 19.2488 19.2801 18.8112 19.2801 18.2712V7.51674C19.2801 6.97678 18.8424 6.53906 18.3025 6.53906H7.548C7.00805 6.53906 6.57031 6.97678 6.57031 7.51674V18.2712C6.57031 18.8112 7.00805 19.249 7.548 19.249Z" stroke="black" stroke-width="1.5" stroke-linecap="round" stroke-linejoin="round"/>
<path d="M15.1172 12.4052C16.0621 12.4052 16.8282 11.6391 16.8282 10.6942C16.8282 9.74929 16.0621 8.98328 15.1172 8.98328C14.1723 8.98328 13.4062 9.74929 13.4062 10.6942C13.4062 11.6391 14.1723 12.4052 15.1172 12.4052Z" stroke="black" stroke-width="1.5" stroke-linecap="round" stroke-linejoin="round"/>
<path d="M15.2638 19.249C14.9491 17.5721 14.0487 16.0618 12.7236 14.9874C11.3984 13.9129 9.73459 13.3443 8.02901 13.3828C7.53693 13.3815 7.04584 13.4273 6.5625 13.5197" stroke="black" stroke-width="1.5" stroke-linecap="round" stroke-linejoin="round"/>
<path d="M19.2739 15.739C18.4864 15.4731 17.6609 15.3376 16.8296 15.3382C15.7776 15.3358 14.7363 15.5488 13.7695 15.9638" stroke="black" stroke-width="1.5" stroke-linecap="round" stroke-linejoin="round"/>
<path d="M14.4403 3.92744V2.72877C14.4403 2.18882 14.0026 1.7511 13.4626 1.7511H2.70815C2.1682 1.7511 1.73047 2.18882 1.73047 2.72877V13.4832C1.73047 14.0232 2.1682 14.4609 2.70815 14.4609H3.71094" stroke="black" stroke-width="1.5" stroke-linecap="round" stroke-linejoin="round"/>
</svg>
