<svg width="21" height="21" viewBox="0 0 21 21" fill="none" xmlns="http://www.w3.org/2000/svg">
<path d="M6.31864 18.1607H18.1579C18.9272 18.1607 19.5508 17.5371 19.5508 16.7678V7.71427C19.5508 6.94501 18.9272 6.32141 18.1579 6.32141H6.31864C5.54938 6.32141 4.92578 6.94501 4.92578 7.71427V16.7678C4.92578 17.5371 5.54938 18.1607 6.31864 18.1607Z" stroke="black" stroke-width="1.5" stroke-linecap="round" stroke-linejoin="round"/>
<path d="M1.44531 14.6785V4.23209C1.44531 3.86268 1.59206 3.5084 1.85327 3.24719C2.11448 2.98598 2.46876 2.83923 2.83817 2.83923H15.3739" stroke="black" stroke-width="1.5" stroke-linecap="round" stroke-linejoin="round"/>
<path d="M5.76172 18.0493L11.2356 12.2689C11.3651 12.1266 11.5226 12.0127 11.6983 11.9343C11.874 11.8559 12.064 11.8148 12.2563 11.8135C12.4487 11.8122 12.6392 11.8507 12.816 11.9267C12.9927 12.0027 13.1518 12.1145 13.2831 12.255L18.7849 18.0214" stroke="black" stroke-width="1.5" stroke-linecap="round" stroke-linejoin="round"/>
</svg>
