<svg width="21" height="21" viewBox="0 0 21 21" fill="none" xmlns="http://www.w3.org/2000/svg">
<path d="M17.8451 17.7909V9.65393H3.14844V17.7909C3.14844 18.5602 3.77205 19.1837 4.54129 19.1837H16.4523C17.2216 19.1837 17.8451 18.5602 17.8451 17.7909Z" stroke="black" stroke-width="1.5" stroke-linecap="round" stroke-linejoin="round"/>
<path d="M10.5 19.1837V9.65125" stroke="black" stroke-width="1.5" stroke-linecap="round" stroke-linejoin="round"/>
<path d="M19.0477 7.42423V8.26107C19.0477 9.03032 18.4241 9.65393 17.6549 9.65393H3.34207C2.57283 9.65393 1.94922 9.03032 1.94922 8.26107V7.42423C1.94922 6.65498 2.57283 6.03137 3.34207 6.03137H17.6549C18.4241 6.03137 19.0477 6.65498 19.0477 7.42423Z" stroke="black" stroke-width="1.5" stroke-linecap="round" stroke-linejoin="round"/>
<path d="M10.4987 6.03125C10.4987 4.8125 9.07683 1.96875 6.94402 1.96875C3.47426 1.96875 4.73821 6.03125 6.39893 6.03125" stroke="black" stroke-width="1.5" stroke-linecap="round" stroke-linejoin="round"/>
<path d="M10.5 6.03125C10.5 4.8125 11.9219 1.96875 14.0547 1.96875C17.5245 1.96875 16.2604 6.03125 14.5998 6.03125" stroke="black" stroke-width="1.5" stroke-linecap="round" stroke-linejoin="round"/>
</svg>
