<svg width="20" height="20" viewBox="0 0 20 20" fill="none" xmlns="http://www.w3.org/2000/svg">
<g id="give-star-3" clip-path="url(#clip0_47_148667)">
<g id="give-star--reward-social-rating-media-hand-star">
<path id="Vector 294" d="M1.42188 15.2676L4.65109 17.9587C5.12605 18.3544 5.72475 18.5711 6.34301 18.5711H14.8565C15.4646 18.5711 15.9576 18.0781 15.9576 17.47C15.9576 16.2536 14.9716 15.2676 13.7552 15.2676H7.83647" stroke="black" stroke-width="1.5" stroke-linecap="round" stroke-linejoin="round"/>
<path id="Vector 295" d="M5.38616 13.9461L6.37723 14.9372C6.92458 15.4845 7.81203 15.4845 8.35938 14.9372C8.90672 14.3899 8.90672 13.5024 8.35938 12.9551L6.82094 11.4166C6.32531 10.921 5.65309 10.6426 4.95217 10.6426H1.42188" stroke="black" stroke-width="1.5" stroke-linecap="round" stroke-linejoin="round"/>
<path id="Vector" d="M14.2922 1.63476L15.4286 3.92083C15.4539 3.97866 15.4943 4.02868 15.5454 4.06583C15.5964 4.10298 15.6565 4.1259 15.7193 4.13226L18.2432 4.51547C18.3154 4.52487 18.3834 4.5546 18.4393 4.60122C18.4951 4.64783 18.5366 4.70939 18.5588 4.77869C18.581 4.848 18.583 4.92218 18.5645 4.99257C18.5461 5.06297 18.508 5.12666 18.4547 5.17619L16.5914 6.9469C16.5637 6.9999 16.5492 7.05885 16.5492 7.11869C16.5492 7.17853 16.5637 7.23748 16.5914 7.29047L16.9482 9.80119C16.9634 9.87376 16.9573 9.94919 16.9305 10.0183C16.9037 10.0875 16.8574 10.1473 16.7973 10.1907C16.7372 10.2341 16.6657 10.2591 16.5917 10.2626C16.5176 10.2662 16.4441 10.2482 16.38 10.2108L14.1336 9.02154C14.0754 8.99527 14.0124 8.98169 13.9486 8.98169C13.8848 8.98169 13.8217 8.99527 13.7636 9.02154L11.5172 10.2108C11.4531 10.2482 11.3796 10.2662 11.3055 10.2626C11.2315 10.2591 11.16 10.2341 11.0999 10.1907C11.0398 10.1473 10.9935 10.0875 10.9667 10.0183C10.9399 9.94919 10.9337 9.87376 10.9489 9.80119L11.3718 7.29047C11.39 7.2322 11.3935 7.17033 11.382 7.11039C11.3704 7.05043 11.3442 6.99427 11.3057 6.9469L9.44252 5.16297C9.3931 5.11292 9.35842 5.05021 9.34226 4.98174C9.32612 4.91328 9.32913 4.84168 9.35096 4.7748C9.37279 4.70794 9.41262 4.64836 9.46607 4.60262C9.51951 4.55687 9.58451 4.52673 9.65395 4.51547L12.1779 4.14547C12.2407 4.13912 12.3007 4.11619 12.3518 4.07904C12.4029 4.0419 12.4432 3.99187 12.4686 3.93404L13.605 1.64798C13.6354 1.58326 13.6833 1.52834 13.7433 1.48944C13.8033 1.45053 13.873 1.42918 13.9445 1.42781C14.016 1.42643 14.0864 1.44508 14.1479 1.48166C14.2093 1.51823 14.2592 1.57126 14.2922 1.63476Z" stroke="black" stroke-width="1.5" stroke-linecap="round" stroke-linejoin="round"/>
</g>
</g>
<defs>
<clipPath id="clip0_47_148667">
<rect width="20" height="20" fill="white"/>
</clipPath>
</defs>
</svg>
