<svg width="20" height="20" viewBox="0 0 20 20" fill="none" xmlns="http://www.w3.org/2000/svg">
<g id="give-gift-5" clip-path="url(#clip0_47_148660)">
<g id="give-gift--reward-social-rating-media-queen-vip-gift">
<path id="Vector" d="M18.5898 4.05273H9.33984V10.6599H18.5898V4.05273Z" stroke="black" stroke-width="1.5" stroke-linecap="round" stroke-linejoin="round"/>
<path id="Vector_2" d="M13.9648 4.05273V10.6599" stroke="black" stroke-width="1.5" stroke-linecap="round" stroke-linejoin="round"/>
<path id="Vector_3" d="M11.9805 1.41016L13.9626 4.05301L15.9448 1.41016" stroke="black" stroke-width="1.5" stroke-linecap="round" stroke-linejoin="round"/>
<path id="Vector 294" d="M1.41016 15.2852L4.63937 17.9762C5.11433 18.372 5.71302 18.5887 6.33129 18.5887H14.8446C15.4529 18.5887 15.9459 18.0957 15.9459 17.4876C15.9459 16.2712 14.9599 15.2852 13.7435 15.2852H7.82476" stroke="black" stroke-width="1.5" stroke-linecap="round" stroke-linejoin="round"/>
<path id="Vector 295" d="M5.37444 13.9637L6.36552 14.9548C6.91287 15.5021 7.8003 15.5021 8.34766 14.9548C8.89501 14.4075 8.89501 13.52 8.34766 12.9727L6.80923 11.4342C6.3136 10.9386 5.64137 10.6602 4.94045 10.6602H1.41016" stroke="black" stroke-width="1.5" stroke-linecap="round" stroke-linejoin="round"/>
</g>
</g>
<defs>
<clipPath id="clip0_47_148660">
<rect width="20" height="20" fill="white"/>
</clipPath>
</defs>
</svg>
