<svg width="21" height="21" viewBox="0 0 21 21" fill="none" xmlns="http://www.w3.org/2000/svg">
<path d="M8.63246 13.7034C8.56734 13.3841 8.3923 13.0977 8.1378 12.8941C7.88329 12.6905 7.56546 12.5826 7.2396 12.5892H3.98031C3.65445 12.5826 3.33662 12.6905 3.08211 12.8941C2.82761 13.0977 2.65257 13.3841 2.58746 13.7034L1.44531 19.5535H9.80246L8.63246 13.7034Z" stroke="black" stroke-width="1.5" stroke-linecap="round" stroke-linejoin="round"/>
<path d="M18.3825 13.7034C18.3173 13.3841 18.1423 13.0977 17.8879 12.8941C17.6332 12.6905 17.3154 12.5826 16.9896 12.5892H13.7303C13.4045 12.5826 13.0866 12.6905 12.8321 12.8941C12.5776 13.0977 12.4026 13.3841 12.3375 13.7034L11.1953 19.5535H19.5525L18.3825 13.7034Z" stroke="black" stroke-width="1.5" stroke-linecap="round" stroke-linejoin="round"/>
<path d="M14.6775 12.5892L13.5075 6.7392C13.4423 6.41985 13.2673 6.13345 13.0128 5.92986C12.7583 5.72625 12.4405 5.61834 12.1146 5.62492H8.85531C8.52945 5.61834 8.21162 5.72625 7.95711 5.92986C7.70261 6.13345 7.52757 6.41985 7.46246 6.7392L6.32031 12.5892" stroke="black" stroke-width="1.5" stroke-linecap="round" stroke-linejoin="round"/>
<path d="M7.26562 12.5892H13.7285" stroke="black" stroke-width="1.5" stroke-linecap="round" stroke-linejoin="round"/>
</svg>
