<svg width="20" height="20" viewBox="0 0 20 20" fill="none" xmlns="http://www.w3.org/2000/svg">
<g id="gradient-color-6" clip-path="url(#clip0_47_143584)">
<g id="gradient-color">
<path id="Vector 1345" d="M18.5586 1.41064V18.5892" stroke="black" stroke-width="1.5" stroke-linecap="round" stroke-linejoin="round"/>
<path id="Vector 1945" d="M2.76674 1.41064H6.07031C6.80012 1.41064 7.39174 2.00227 7.39174 2.73207V17.2678C7.39174 17.9976 6.80011 18.5892 6.07031 18.5892H2.76674C2.03694 18.5892 1.44531 17.9976 1.44531 17.2678L1.44531 2.73207C1.44531 2.00227 2.03694 1.41064 2.76674 1.41064Z" stroke="black" stroke-width="1.5" stroke-linecap="round" stroke-linejoin="round"/>
<path id="Vector 1946" d="M12.0167 1.41064H13.9989C14.7287 1.41064 15.3203 2.00227 15.3203 2.73207V17.2678C15.3203 17.9976 14.7287 18.5892 13.9989 18.5892H12.0167C11.2869 18.5892 10.6953 17.9976 10.6953 17.2678V2.73207C10.6953 2.00227 11.2869 1.41064 12.0167 1.41064Z" stroke="black" stroke-width="1.5" stroke-linecap="round" stroke-linejoin="round"/>
</g>
</g>
<defs>
<clipPath id="clip0_47_143584">
<rect width="20" height="20" fill="white"/>
</clipPath>
</defs>
</svg>
