<svg width="21" height="21" viewBox="0 0 21 21" fill="none" xmlns="http://www.w3.org/2000/svg">
<path d="M2.47656 9.85923L18.4944 2.57458" stroke="black" stroke-width="1.5" stroke-linecap="round" stroke-linejoin="round"/>
<path d="M15.5 1.44641L18.4946 2.57463L17.3804 5.56927" stroke="black" stroke-width="1.5" stroke-linecap="round" stroke-linejoin="round"/>
<path d="M19.2048 19.5536H15.7227V9.80361C15.7227 9.6189 15.7961 9.44176 15.9266 9.31116C16.0572 9.18055 16.2344 9.10718 16.4191 9.10718H18.5084C18.6931 9.10718 18.8702 9.18055 19.0009 9.31116C19.1314 9.44176 19.2048 9.6189 19.2048 9.80361V19.5536Z" stroke="black" stroke-width="1.5" stroke-linecap="round" stroke-linejoin="round"/>
<path d="M12.24 19.5536H8.75781V11.8928C8.75781 11.7081 8.83119 11.531 8.9618 11.4004C9.09239 11.2698 9.26953 11.1964 9.45424 11.1964H11.5435C11.7282 11.1964 11.9054 11.2698 12.036 11.4004C12.1666 11.531 12.24 11.7081 12.24 11.8928V19.5536Z" stroke="black" stroke-width="1.5" stroke-linecap="round" stroke-linejoin="round"/>
<path d="M5.27511 19.5535H1.79297V13.9821C1.79297 13.7974 1.86634 13.6202 1.99695 13.4896C2.12755 13.359 2.30469 13.2856 2.4894 13.2856H4.57868C4.76339 13.2856 4.94053 13.359 5.07113 13.4896C5.20174 13.6202 5.27511 13.7974 5.27511 13.9821V19.5535Z" stroke="black" stroke-width="1.5" stroke-linecap="round" stroke-linejoin="round"/>
</svg>
