<svg width="20" height="20" viewBox="0 0 20 20" fill="none" xmlns="http://www.w3.org/2000/svg">
<g id="half-star-2-9" clip-path="url(#clip0_47_148683)">
<g id="half-star-2--reward-rating-rate-social-star-media-favorite-like-stars-half">
<path id="Vector" d="M10.002 1.43945C9.86522 1.44025 9.73155 1.48046 9.61699 1.55528C9.50244 1.63009 9.41187 1.73633 9.35613 1.86128L7.26019 6.29045C7.21322 6.39954 7.13872 6.49458 7.04397 6.56621C6.94923 6.63785 6.83749 6.68364 6.71972 6.69908L2.05328 7.37137C1.91147 7.39418 1.77895 7.45649 1.67091 7.55113C1.56287 7.64578 1.48367 7.76895 1.4424 7.90653C1.40113 8.04411 1.39944 8.19053 1.43754 8.32901C1.47564 8.46751 1.55198 8.59247 1.65782 8.68958L5.03242 12.1565C5.11692 12.242 5.18007 12.3462 5.21672 12.4608C5.25336 12.5753 5.26248 12.6968 5.24333 12.8156L4.39968 17.6929C4.37571 17.8275 4.38954 17.966 4.43965 18.0931C4.48977 18.2202 4.57418 18.331 4.68351 18.413C4.79283 18.495 4.92276 18.545 5.05885 18.5575C5.19493 18.57 5.3318 18.5445 5.45424 18.4839L9.67249 16.1901C9.7781 16.1334 9.88222 16.1019 10.002 16.0979V1.43945Z" stroke="black" stroke-width="1.5" stroke-linecap="round" stroke-linejoin="round"/>
<path id="Vector_2" d="M9.99609 1.43945C10.1329 1.44025 10.2666 1.48046 10.3811 1.55528C10.4957 1.63009 10.5863 1.73633 10.642 1.86128L11.9982 4.72723" stroke="black" stroke-width="1.5" stroke-linecap="round" stroke-linejoin="round"/>
<path id="Vector_3" d="M14.543 6.88086L17.9439 7.37082C18.0857 7.39364 18.2183 7.45595 18.3264 7.55059C18.4343 7.64524 18.5136 7.76841 18.5548 7.90598C18.5961 8.04356 18.5978 8.18999 18.5597 8.32847C18.5215 8.46697 18.4453 8.59192 18.3394 8.68902L15.7808 11.3177" stroke="black" stroke-width="1.5" stroke-linecap="round" stroke-linejoin="round"/>
<path id="Vector_4" d="M9.99609 16.0974C10.1159 16.1012 10.22 16.1328 10.3256 16.1897L11.625 16.8961L14.5439 18.4833C14.6663 18.544 14.8032 18.5695 14.9393 18.557C15.0754 18.5444 15.2053 18.4945 15.3146 18.4124C15.424 18.3305 15.5083 18.2198 15.5585 18.0926C15.6086 17.9655 15.6225 17.8269 15.5984 17.6924L15.1193 14.9219" stroke="black" stroke-width="1.5" stroke-linecap="round" stroke-linejoin="round"/>
</g>
</g>
<defs>
<clipPath id="clip0_47_148683">
<rect width="20" height="20" fill="white"/>
</clipPath>
</defs>
</svg>
