<svg width="20" height="20" viewBox="0 0 20 20" fill="none" xmlns="http://www.w3.org/2000/svg">
<g id="hamburger-menu-4-44">
<g id="hamburger-menu-4--button-parallel-horizontal-lines-menu-navigation-staggered-thick">
<path id="Vector" d="M11.9816 2.73242H2.73158C2.00178 2.73242 1.41016 3.32405 1.41016 4.05385V6.69671C1.41016 7.42651 2.00178 8.01814 2.73158 8.01814H11.9816C12.7114 8.01814 13.303 7.42651 13.303 6.69671V4.05385C13.303 3.32405 12.7114 2.73242 11.9816 2.73242Z" stroke="black" stroke-width="1.5" stroke-linecap="round" stroke-linejoin="round"/>
<path id="Vector_2" d="M17.2667 11.9824H8.01674C7.28694 11.9824 6.69531 12.5741 6.69531 13.3039V15.9467C6.69531 16.6765 7.28694 17.2681 8.01674 17.2681H17.2667C17.9966 17.2681 18.5882 16.6765 18.5882 15.9467V13.3039C18.5882 12.5741 17.9966 11.9824 17.2667 11.9824Z" stroke="black" stroke-width="1.5" stroke-linecap="round" stroke-linejoin="round"/>
</g>
</g>
</svg>
