<svg width="20" height="20" viewBox="0 0 20 20" fill="none" xmlns="http://www.w3.org/2000/svg">
<g id="hammer-1" clip-path="url(#clip0_47_147220)">
<g id="hammer--construction-hammer-mallet-tool-tools-setting-edit-adjust">
<path id="Vector" d="M2.01953 15.3585C1.67187 15.7062 1.47656 16.1778 1.47656 16.6694C1.47656 17.1611 1.67187 17.6325 2.01953 17.9802C2.36718 18.3279 2.83871 18.5232 3.33037 18.5232C3.82203 18.5232 4.29355 18.3279 4.64121 17.9802L10.658 11.9635L8.03628 9.3418L2.01953 15.3585Z" stroke="black" stroke-width="1.5" stroke-linecap="round" stroke-linejoin="round"/>
<path id="Vector_2" d="M9.18655 1.8605L5.79409 5.25297C5.28218 5.76488 5.28218 6.59485 5.79409 7.10678L12.8942 14.2068C13.4061 14.7187 14.2361 14.7187 14.748 14.2068L18.1404 10.8144C18.6523 10.3025 18.6523 9.47249 18.1404 8.96058L11.0404 1.8605C10.5284 1.34858 9.69847 1.34858 9.18655 1.8605Z" stroke="black" stroke-width="1.5" stroke-linecap="round" stroke-linejoin="round"/>
</g>
</g>
<defs>
<clipPath id="clip0_47_147220">
<rect width="20" height="20" fill="white"/>
</clipPath>
</defs>
</svg>
