<svg width="21" height="21" viewBox="0 0 21 21" fill="none" xmlns="http://www.w3.org/2000/svg">
<path d="M4.34318 5.60595C3.5463 5.77784 2.8329 6.21886 2.32295 6.85488C1.813 7.49089 1.53758 8.28309 1.54302 9.09829L1.53516 9.79832C1.5387 10.1122 1.66497 10.4123 1.88695 10.6342C2.10892 10.8562 2.40897 10.9825 2.72287 10.986L5.7118 10.9703C6.02387 10.9676 6.3224 10.8424 6.54307 10.6217C6.76375 10.4011 6.88893 10.1025 6.89165 9.79045C6.89518 9.47656 7.02146 9.17651 7.24344 8.95454C7.46541 8.73256 7.76546 8.60629 8.07935 8.60275H12.7987C12.955 8.60161 13.11 8.63154 13.2546 8.69082C13.3992 8.7501 13.5306 8.83754 13.6411 8.94807C13.7516 9.05859 13.8391 9.18998 13.8984 9.33458C13.9576 9.4792 13.9876 9.63416 13.9864 9.79045C13.9891 10.1025 14.1143 10.4011 14.335 10.6217C14.5557 10.8424 14.8543 10.9676 15.1663 10.9703H18.1552C18.4691 10.9667 18.7692 10.8405 18.9912 10.6185C19.2131 10.3965 19.3394 10.0965 19.3429 9.78258L19.3351 9.08255C19.3405 8.26736 19.065 7.47516 18.5551 6.83914C18.0452 6.20313 17.3317 5.7621 16.5349 5.59021C12.5071 4.81884 8.36898 4.82418 4.34318 5.60595Z" stroke="black" stroke-width="1.5" stroke-linecap="round" stroke-linejoin="round"/>
<path d="M10.5 11.8074V18.3783" stroke="black" stroke-width="1.5" stroke-linecap="round" stroke-linejoin="round"/>
<path d="M7.89453 15.7712L10.5015 18.3783L13.1085 15.7712" stroke="black" stroke-width="1.5" stroke-linecap="round" stroke-linejoin="round"/>
</svg>
