<svg width="21" height="21" viewBox="0 0 21 21" fill="none" xmlns="http://www.w3.org/2000/svg">
<g clip-path="url(#clip0_146_403257)">
<path d="M19.5525 10.5C19.5525 12.9011 18.5986 15.2039 16.9007 16.9018C15.2028 18.5997 12.9 19.5536 10.4989 19.5536C8.09772 19.5536 5.79491 18.5997 4.09705 16.9018C2.39917 15.2039 1.44531 12.9011 1.44531 10.5V1.44641H19.5525V10.5Z" stroke="black" stroke-width="1.5" stroke-linecap="round" stroke-linejoin="round"/>
<path d="M7.7115 7.71427C7.7115 7.34485 7.56474 6.99058 7.30354 6.72936C7.04233 6.46816 6.68805 6.32141 6.31864 6.32141C5.94923 6.32141 5.59495 6.46816 5.33374 6.72936C5.07253 6.99058 4.92578 7.34485 4.92578 7.71427" stroke="black" stroke-width="1.5" stroke-linecap="round" stroke-linejoin="round"/>
<path d="M16.0709 7.71427C16.0709 7.34485 15.9241 6.99058 15.6629 6.72936C15.4017 6.46816 15.0474 6.32141 14.678 6.32141C14.3086 6.32141 13.9543 6.46816 13.6931 6.72936C13.4319 6.99058 13.2852 7.34485 13.2852 7.71427" stroke="black" stroke-width="1.5" stroke-linecap="round" stroke-linejoin="round"/>
<path d="M5.90234 11.8928C6.59877 14.4 9.38449 15.9321 11.8916 15.2357C13.4238 14.6785 14.6773 13.425 15.0953 11.8928" stroke="black" stroke-width="1.5" stroke-linecap="round" stroke-linejoin="round"/>
</g>
<defs>
<clipPath id="clip0_146_403257">
<rect width="21" height="21" fill="white"/>
</clipPath>
</defs>
</svg>
