<svg width="20" height="20" viewBox="0 0 20 20" fill="none" xmlns="http://www.w3.org/2000/svg">
<g id="heatmap-2-64">
<g id="heatmap-2">
<path id="vector 2087" d="M2.0552 12.14C-0.226664 3.7519 6.90595 0.739913 11.9273 2.60268C16.9486 4.46544 18.4241 9.96306 18.4241 13.6076C18.4241 17.8595 13.1574 18.7035 10.3059 18.3154C5.52759 18.0725 2.81304 14.9258 2.0552 12.14Z" stroke="black" stroke-width="1.5" stroke-linecap="round"/>
<path id="vector 2088" d="M5.37359 9.81578C3.91269 5.08704 8.06153 3.77566 10.7432 4.77047C13.4248 5.76529 14.1862 8.16678 14.1862 10.1131C14.1862 12.3839 11.3027 13.321 9.77988 13.1137C7.22802 12.984 5.82871 11.2889 5.37359 9.81578Z" stroke="black" stroke-width="1.5" stroke-linecap="round"/>
<path id="ellipse 55" d="M7.61328 8.12507C7.61328 8.55088 7.788 8.95926 8.09901 9.26035C8.41002 9.56145 8.83184 9.7306 9.27167 9.7306C9.71151 9.7306 10.1333 9.56145 10.4443 9.26035C10.7553 8.95926 10.9301 8.55088 10.9301 8.12507C10.9301 7.69925 10.7553 7.29088 10.4443 6.98978C10.1333 6.68869 9.71151 6.51953 9.27167 6.51953C8.83184 6.51953 8.41002 6.68869 8.09901 6.98978C7.788 7.29088 7.61328 7.69925 7.61328 8.12507Z" stroke="black" stroke-width="1.5"/>
</g>
</g>
</svg>
