<svg width="20" height="20" viewBox="0 0 20 20" fill="none" xmlns="http://www.w3.org/2000/svg">
<g id="heatmap-1-44">
<g id="heatmap-1">
<path id="ellipse 54" d="M3.81641 5.7441C3.81641 6.01238 3.86925 6.27804 3.97192 6.5259C4.07458 6.77376 4.22506 6.99897 4.41477 7.18867C4.60447 7.37837 4.82968 7.52885 5.07754 7.63152C5.3254 7.73419 5.59105 7.78703 5.85933 7.78703C6.12762 7.78703 6.39327 7.73419 6.64113 7.63152C6.88899 7.52885 7.1142 7.37837 7.3039 7.18867C7.49361 6.99897 7.64409 6.77376 7.74675 6.5259C7.84942 6.27804 7.90226 6.01238 7.90226 5.7441C7.90226 5.47582 7.84942 5.21017 7.74675 4.96231C7.64409 4.71445 7.49361 4.48924 7.3039 4.29953C7.1142 4.10983 6.88899 3.95935 6.64113 3.85668C6.39327 3.75401 6.12762 3.70117 5.85933 3.70117C5.59105 3.70117 5.3254 3.75401 5.07754 3.85668C4.82968 3.95935 4.60447 4.10983 4.41477 4.29953C4.22506 4.48924 4.07458 4.71445 3.97192 4.96231C3.86925 5.21017 3.81641 5.47582 3.81641 5.7441Z" stroke="black" stroke-width="1.5"/>
<path id="ellipse 55" d="M11.9258 14.8443C11.9258 15.194 11.9947 15.5402 12.1285 15.8633C12.2623 16.1863 12.4584 16.4799 12.7057 16.7271C12.9529 16.9744 13.2464 17.1705 13.5695 17.3043C13.8925 17.4381 14.2388 17.507 14.5885 17.507C14.9381 17.507 15.2844 17.4381 15.6074 17.3043C15.9305 17.1705 16.224 16.9744 16.4713 16.7271C16.7185 16.4799 16.9146 16.1863 17.0485 15.8633C17.1823 15.5402 17.2511 15.194 17.2511 14.8443C17.2511 14.1381 16.9706 13.4609 16.4713 12.9615C15.9719 12.4622 15.2946 12.1816 14.5885 12.1816C13.8823 12.1816 13.205 12.4622 12.7057 12.9615C12.2063 13.4609 11.9258 14.1381 11.9258 14.8443Z" stroke="black" stroke-width="1.5"/>
<path id="ellipse 56" d="M10.8125 5.53446C10.8125 6.53608 11.2104 7.49669 11.9187 8.20495C12.6269 8.9132 13.5875 9.3111 14.5891 9.3111C15.5908 9.3111 16.5514 8.9132 17.2596 8.20495C17.9679 7.49669 18.3658 6.53608 18.3658 5.53446C18.3658 4.53283 17.9679 3.57222 17.2596 2.86397C16.5514 2.15571 15.5908 1.75781 14.5891 1.75781C13.5875 1.75781 12.6269 2.15571 11.9187 2.86397C11.2104 3.57222 10.8125 4.53283 10.8125 5.53446Z" stroke="black" stroke-width="1.5"/>
<path id="ellipse 57" d="M1.63281 14.468C1.63281 15.4697 2.03071 16.4303 2.73897 17.1385C3.44722 17.8468 4.40783 18.2447 5.40946 18.2447C6.41108 18.2447 7.37169 17.8468 8.07995 17.1385C8.7882 16.4303 9.1861 15.4697 9.1861 14.468C9.1861 13.4664 8.7882 12.5058 8.07995 11.7976C7.37169 11.0893 6.41108 10.6914 5.40946 10.6914C4.40783 10.6914 3.44722 11.0893 2.73897 11.7976C2.03071 12.5058 1.63281 13.4664 1.63281 14.468Z" stroke="black" stroke-width="1.5"/>
</g>
</g>
</svg>
