<svg width="20" height="20" viewBox="0 0 20 20" fill="none" xmlns="http://www.w3.org/2000/svg">
<g id="help-question-2" clip-path="url(#clip0_47_145050)">
<g id="help-question-2--frame-help-mark-query-question-square">
<path id="Vector" d="M17.2673 1.41064H2.73158C2.00178 1.41064 1.41016 2.00227 1.41016 2.73207V17.2678C1.41016 17.9976 2.00178 18.5892 2.73158 18.5892H17.2673C17.9971 18.5892 18.5887 17.9976 18.5887 17.2678V2.73207C18.5887 2.00227 17.9971 1.41064 17.2673 1.41064Z" stroke="black" stroke-width="1.5" stroke-linecap="round" stroke-linejoin="round"/>
<path id="Vector_2" d="M7.6875 7.687C7.6875 7.22963 7.82325 6.78254 8.07759 6.40226C8.33191 6.02197 8.69341 5.72557 9.11635 5.55055C9.53928 5.37551 10.0047 5.32972 10.4537 5.41894C10.9027 5.50818 11.3151 5.72842 11.6388 6.05183C11.9625 6.37524 12.1829 6.78728 12.2722 7.23586C12.3615 7.68444 12.3157 8.1494 12.1405 8.57195C11.9653 8.99451 11.6687 9.35567 11.288 9.60976C10.9074 9.86387 10.4599 9.99949 10.0021 9.99949V11.5411" stroke="black" stroke-width="1.5" stroke-linecap="round" stroke-linejoin="round"/>
<g id="Group 2567">
<path id="Vector_3" d="M10.0022 14.5699C9.81978 14.5699 9.67188 14.422 9.67188 14.2395C9.67188 14.057 9.81978 13.9092 10.0022 13.9092" stroke="black" stroke-width="1.5" stroke-linecap="round" stroke-linejoin="round"/>
<path id="Vector_4" d="M10.0039 14.5699C10.1864 14.5699 10.3343 14.422 10.3343 14.2395C10.3343 14.057 10.1864 13.9092 10.0039 13.9092" stroke="black" stroke-width="1.5" stroke-linecap="round" stroke-linejoin="round"/>
</g>
</g>
</g>
<defs>
<clipPath id="clip0_47_145050">
<rect width="20" height="20" fill="white"/>
</clipPath>
</defs>
</svg>
