<svg width="20" height="20" viewBox="0 0 20 20" fill="none" xmlns="http://www.w3.org/2000/svg">
<g id="hide-layer-73" clip-path="url(#clip0_47_141180)">
<g id="hide-layer--show-layer-work">
<path id="Vector" d="M13.3041 13.3036V6.03578C13.3041 5.68531 13.1649 5.34921 12.9171 5.10139C12.6693 4.85358 12.3332 4.71436 11.9827 4.71436H4.71484" stroke="black" stroke-width="1.5" stroke-linecap="round" stroke-linejoin="round"/>
<path id="Vector_2" d="M3.39062 8.01794V17.2679C3.39062 17.6184 3.52985 17.9546 3.77766 18.2023C4.02548 18.4501 4.36158 18.5894 4.71205 18.5894H11.9799C12.3304 18.5894 12.6665 18.4501 12.9143 18.2023C13.1621 17.9546 13.3013 17.6184 13.3013 17.2679" stroke="black" stroke-width="1.5" stroke-linecap="round" stroke-linejoin="round"/>
<path id="Vector_3" d="M15.2846 15.2858C15.635 15.2858 15.9712 15.1465 16.219 14.8987C16.4667 14.651 16.606 14.3148 16.606 13.9643V2.7322C16.606 2.38173 16.4667 2.04562 16.219 1.7978C15.9712 1.54999 15.635 1.41077 15.2846 1.41077H8.01674C7.66627 1.41077 7.33017 1.54999 7.08235 1.7978C6.83454 2.04562 6.69531 2.38173 6.69531 2.7322V4.71434" stroke="black" stroke-width="1.5" stroke-linecap="round" stroke-linejoin="round"/>
<path id="Vector_4" d="M18.5887 18.5893L1.41016 1.41077" stroke="black" stroke-width="1.5" stroke-linecap="round" stroke-linejoin="round"/>
</g>
</g>
<defs>
<clipPath id="clip0_47_141180">
<rect width="20" height="20" fill="white"/>
</clipPath>
</defs>
</svg>
