<svg width="20" height="20" viewBox="0 0 20 20" fill="none" xmlns="http://www.w3.org/2000/svg">
<g id="hierarchy-1-15" clip-path="url(#clip0_47_145057)">
<g id="hierarchy-1--node-organization-links-structure-link-nodes-network-hierarchy">
<path id="Vector 2518" d="M5.37444 7.35693H2.73158C2.00178 7.35693 1.41016 7.94856 1.41016 8.67836V11.3212C1.41016 12.051 2.00178 12.6426 2.73158 12.6426H5.37444C6.10424 12.6426 6.69587 12.051 6.69587 11.3212V8.67836C6.69587 7.94856 6.10424 7.35693 5.37444 7.35693Z" stroke="black" stroke-width="1.5" stroke-linecap="round" stroke-linejoin="round"/>
<path id="Vector 2519" d="M17.269 1.41064H14.6261C13.8963 1.41064 13.3047 2.00227 13.3047 2.73207V5.37493C13.3047 6.10473 13.8963 6.69636 14.6261 6.69636H17.269C17.9988 6.69636 18.5904 6.10473 18.5904 5.37493V2.73207C18.5904 2.00227 17.9988 1.41064 17.269 1.41064Z" stroke="black" stroke-width="1.5" stroke-linecap="round" stroke-linejoin="round"/>
<path id="Vector 2520" d="M17.269 13.3037H14.6261C13.8963 13.3037 13.3047 13.8953 13.3047 14.6251V17.268C13.3047 17.9978 13.8963 18.5894 14.6261 18.5894H17.269C17.9988 18.5894 18.5904 17.9978 18.5904 17.268V14.6251C18.5904 13.8953 17.9988 13.3037 17.269 13.3037Z" stroke="black" stroke-width="1.5" stroke-linecap="round" stroke-linejoin="round"/>
<path id="Vector" d="M6.69531 8.67857L13.3025 5.375" stroke="black" stroke-width="1.5" stroke-linecap="round" stroke-linejoin="round"/>
<path id="Vector_2" d="M6.69531 11.3213L13.3025 14.6249" stroke="black" stroke-width="1.5" stroke-linecap="round" stroke-linejoin="round"/>
</g>
</g>
<defs>
<clipPath id="clip0_47_145057">
<rect width="20" height="20" fill="white"/>
</clipPath>
</defs>
</svg>
