<svg width="20" height="20" viewBox="0 0 20 20" fill="none" xmlns="http://www.w3.org/2000/svg">
<g id="hierarchy-6-19">
<g id="hierarchy-6--node-organization-links-structure-link-nodes-network-hierarchy">
<path id="Vector" d="M6.03906 13.3034V6.69629" stroke="black" stroke-width="1.5" stroke-linecap="round" stroke-linejoin="round"/>
<path id="Vector_2" d="M13.9676 8.01758V8.67829C13.9676 9.37922 13.6892 10.0514 13.1936 10.5471C12.6979 11.0427 12.0257 11.3211 11.3248 11.3211H8.02121C7.49551 11.3211 6.99134 11.53 6.61962 11.9017C6.2479 12.2734 6.03906 12.7776 6.03906 13.3033" stroke="black" stroke-width="1.5" stroke-linecap="round" stroke-linejoin="round"/>
<path id="Vector 2519" d="M7.35882 1.41064H4.71596C3.98616 1.41064 3.39453 2.00227 3.39453 2.73207V5.37493C3.39453 6.10473 3.98616 6.69636 4.71596 6.69636H7.35882C8.08862 6.69636 8.68025 6.10473 8.68025 5.37493V2.73207C8.68025 2.00227 8.08862 1.41064 7.35882 1.41064Z" stroke="black" stroke-width="1.5" stroke-linecap="round" stroke-linejoin="round"/>
<path id="Vector 2520" d="M7.35882 13.3037H4.71596C3.98616 13.3037 3.39453 13.8953 3.39453 14.6251V17.268C3.39453 17.9978 3.98616 18.5894 4.71596 18.5894H7.35882C8.08862 18.5894 8.68025 17.9978 8.68025 17.268V14.6251C8.68025 13.8953 8.08862 13.3037 7.35882 13.3037Z" stroke="black" stroke-width="1.5" stroke-linecap="round" stroke-linejoin="round"/>
<path id="Vector 2521" d="M15.2885 2.73193H12.6456C11.9158 2.73193 11.3242 3.32356 11.3242 4.05336V6.69622C11.3242 7.42602 11.9158 8.01765 12.6456 8.01765H15.2885C16.0183 8.01765 16.6099 7.42602 16.6099 6.69622V4.05336C16.6099 3.32356 16.0183 2.73193 15.2885 2.73193Z" stroke="black" stroke-width="1.5" stroke-linecap="round" stroke-linejoin="round"/>
</g>
</g>
</svg>
