<svg width="20" height="20" viewBox="0 0 20 20" fill="none" xmlns="http://www.w3.org/2000/svg">
<g id="hierarchy-18-5" clip-path="url(#clip0_47_145185)">
<g id="hierarchy-18--hierarchy-nodes-organization-links-structure-network">
<path id="Vector 2519" d="M5.37444 1.41064H2.73158C2.00178 1.41064 1.41016 2.00227 1.41016 2.73207V5.37493C1.41016 6.10473 2.00178 6.69636 2.73158 6.69636H5.37444C6.10424 6.69636 6.69587 6.10473 6.69587 5.37493V2.73207C6.69587 2.00227 6.10424 1.41064 5.37444 1.41064Z" stroke="black" stroke-width="1.5" stroke-linecap="round" stroke-linejoin="round"/>
<path id="Vector 2520" d="M5.37444 13.3037H2.73158C2.00178 13.3037 1.41016 13.8953 1.41016 14.6251V17.268C1.41016 17.9978 2.00178 18.5894 2.73158 18.5894H5.37444C6.10424 18.5894 6.69587 17.9978 6.69587 17.268V14.6251C6.69587 13.8953 6.10424 13.3037 5.37444 13.3037Z" stroke="black" stroke-width="1.5" stroke-linecap="round" stroke-linejoin="round"/>
<path id="Vector" d="M4.05469 13.3034V6.69629" stroke="black" stroke-width="1.5" stroke-linecap="round" stroke-linejoin="round"/>
<path id="Vector 2521" d="M17.269 13.3037H14.6261C13.8963 13.3037 13.3047 13.8953 13.3047 14.6251V17.268C13.3047 17.9978 13.8963 18.5894 14.6261 18.5894H17.269C17.9988 18.5894 18.5904 17.9978 18.5904 17.268V14.6251C18.5904 13.8953 17.9988 13.3037 17.269 13.3037Z" stroke="black" stroke-width="1.5" stroke-linecap="round" stroke-linejoin="round"/>
<path id="Ellipse 1513" d="M15.2852 9.33943C15.2852 9.51466 15.3548 9.68271 15.4787 9.80662C15.6026 9.93053 15.7706 10.0001 15.9459 10.0001C16.1211 10.0001 16.2892 9.93053 16.4131 9.80662C16.537 9.68271 16.6066 9.51466 16.6066 9.33943C16.6066 9.16419 16.537 8.99614 16.4131 8.87223C16.2892 8.74832 16.1211 8.67871 15.9459 8.67871C15.7706 8.67871 15.6026 8.74832 15.4787 8.87223C15.3548 8.99614 15.2852 9.16419 15.2852 9.33943Z" stroke="black" stroke-width="1.5" stroke-linecap="round" stroke-linejoin="round"/>
<path id="Ellipse 1514" d="M15.2852 4.05329C15.2852 4.22852 15.3548 4.39658 15.4787 4.52049C15.6026 4.6444 15.7706 4.71401 15.9459 4.71401C16.1211 4.71401 16.2892 4.6444 16.4131 4.52049C16.537 4.39658 16.6066 4.22852 16.6066 4.05329C16.6066 3.87806 16.537 3.71 16.4131 3.5861C16.2892 3.46219 16.1211 3.39258 15.9459 3.39258C15.7706 3.39258 15.6026 3.46219 15.4787 3.5861C15.3548 3.71 15.2852 3.87806 15.2852 4.05329Z" stroke="black" stroke-width="1.5" stroke-linecap="round" stroke-linejoin="round"/>
</g>
</g>
<defs>
<clipPath id="clip0_47_145185">
<rect width="20" height="20" fill="white"/>
</clipPath>
</defs>
</svg>
