<svg width="20" height="20" viewBox="0 0 20 20" fill="none" xmlns="http://www.w3.org/2000/svg">
<g id="hierarchy-16-20" clip-path="url(#clip0_47_145169)">
<g id="hierarchy-16">
<path id="Vector 2255" d="M7.35659 6.69636H2.73158C2.00178 6.69636 1.41016 6.10473 1.41016 5.37493V2.73207C1.41016 2.00227 2.00178 1.41064 2.73158 1.41064H7.35659C8.08638 1.41064 8.67801 2.00227 8.67801 2.73207V5.37493C8.67801 6.10473 8.08638 6.69636 7.35659 6.69636Z" stroke="black" stroke-width="1.5" stroke-linecap="round" stroke-linejoin="round"/>
<path id="Vector 2256" d="M17.2684 11.9267H10.6613C9.93147 11.9267 9.33984 11.3351 9.33984 10.6053V9.28383C9.33984 8.55403 9.93147 7.9624 10.6613 7.9624H17.2684C17.9982 7.9624 18.5898 8.55403 18.5898 9.28383V10.6053C18.5898 11.3351 17.9982 11.9267 17.2684 11.9267Z" stroke="black" stroke-width="1.5" stroke-linecap="round" stroke-linejoin="round"/>
<path id="Vector 2257" d="M17.2684 18.5893H10.6613C9.93147 18.5893 9.33984 17.9977 9.33984 17.2679V15.9464C9.33984 15.2166 9.93147 14.625 10.6613 14.625H17.2684C17.9982 14.625 18.5898 15.2166 18.5898 15.9464V17.2679C18.5898 17.9977 17.9982 18.5893 17.2684 18.5893Z" stroke="black" stroke-width="1.5" stroke-linecap="round" stroke-linejoin="round"/>
<path id="Vector 2264" d="M5.375 6.69629V15.2856C5.375 16.0154 5.96663 16.607 6.69643 16.607H9.33929" stroke="black" stroke-width="1.5" stroke-linecap="round" stroke-linejoin="round"/>
<path id="Vector 2265" d="M5.375 10H9.33929" stroke="black" stroke-width="1.5" stroke-linecap="round" stroke-linejoin="round"/>
</g>
</g>
<defs>
<clipPath id="clip0_47_145169">
<rect width="20" height="20" fill="white"/>
</clipPath>
</defs>
</svg>
