<svg width="20" height="20" viewBox="0 0 20 20" fill="none" xmlns="http://www.w3.org/2000/svg">
<g id="hierarchy-15-14" clip-path="url(#clip0_47_145161)">
<g id="hierarchy-15--node-organization-links-structure-link-nodes-network-hierarchy">
<path id="Vector 2255" d="M8.0173 14.2944H2.73158C2.00178 14.2944 1.41016 13.7027 1.41016 12.9729V7.02651C1.41016 6.29671 2.00178 5.70508 2.73158 5.70508H8.0173C8.7471 5.70508 9.33873 6.29671 9.33873 7.02651V12.9729C9.33873 13.7027 8.7471 14.2944 8.0173 14.2944Z" stroke="black" stroke-width="1.5" stroke-linecap="round" stroke-linejoin="round"/>
<path id="Vector 2256" d="M9.33984 10H14.6256" stroke="black" stroke-width="1.5" stroke-linecap="round" stroke-linejoin="round"/>
<path id="Vector 2257" d="M14.6233 16.6069H13.3019C12.5721 16.6069 11.9805 16.0153 11.9805 15.2854V4.71401C11.9805 3.98421 12.5721 3.39258 13.3019 3.39258H14.6233" stroke="black" stroke-width="1.5" stroke-linecap="round" stroke-linejoin="round"/>
<path id="Vector 2258" d="M17.2679 18.5893H15.9464C15.2166 18.5893 14.625 17.9977 14.625 17.2679V15.9464C14.625 15.2166 15.2166 14.625 15.9464 14.625H17.2679C17.9977 14.625 18.5893 15.2166 18.5893 15.9464V17.2679C18.5893 17.9977 17.9977 18.5893 17.2679 18.5893Z" stroke="black" stroke-width="1.5" stroke-linecap="round" stroke-linejoin="round"/>
<path id="Vector 2259" d="M17.2679 11.9819H15.9464C15.2166 11.9819 14.625 11.3902 14.625 10.6604V9.33901C14.625 8.60921 15.2166 8.01758 15.9464 8.01758H17.2679C17.9977 8.01758 18.5893 8.60921 18.5893 9.33901V10.6604C18.5893 11.3902 17.9977 11.9819 17.2679 11.9819Z" stroke="black" stroke-width="1.5" stroke-linecap="round" stroke-linejoin="round"/>
<path id="Vector 2260" d="M17.2679 5.37493H15.9464C15.2166 5.37493 14.625 4.7833 14.625 4.0535V2.73207C14.625 2.00227 15.2166 1.41064 15.9464 1.41064H17.2679C17.9977 1.41064 18.5893 2.00227 18.5893 2.73207V4.0535C18.5893 4.7833 17.9977 5.37493 17.2679 5.37493Z" stroke="black" stroke-width="1.5" stroke-linecap="round" stroke-linejoin="round"/>
</g>
</g>
<defs>
<clipPath id="clip0_47_145161">
<rect width="20" height="20" fill="white"/>
</clipPath>
</defs>
</svg>
