<svg width="20" height="20" viewBox="0 0 20 20" fill="none" xmlns="http://www.w3.org/2000/svg">
<g id="hierarchy-5-13" clip-path="url(#clip0_47_145087)">
<g id="hierarchy-5--node-organization-links-structure-link-nodes-network-hierarchy">
<path id="Vector" d="M10.0011 6.69629V7.02665C10.0011 7.8152 9.68787 8.57144 9.13028 9.12903C8.57269 9.68662 7.81645 9.99986 7.0279 9.99986C6.23935 9.99986 5.48311 10.3131 4.92552 10.8707C4.36793 11.4283 4.05469 12.1845 4.05469 12.9731V13.3034" stroke="black" stroke-width="1.5" stroke-linecap="round" stroke-linejoin="round"/>
<path id="Vector_2" d="M10 6.69629V7.02665C10 7.8152 10.3132 8.57144 10.8708 9.12903C11.4284 9.68662 12.1847 9.99986 12.9732 9.99986C13.7618 9.99986 14.518 10.3131 15.0756 10.8707C15.6331 11.4283 15.9464 12.1845 15.9464 12.9731V13.3034" stroke="black" stroke-width="1.5" stroke-linecap="round" stroke-linejoin="round"/>
<path id="Vector 2519" d="M11.3198 1.41064H8.6769C7.9471 1.41064 7.35547 2.00227 7.35547 2.73207V5.37493C7.35547 6.10473 7.9471 6.69636 8.6769 6.69636H11.3198C12.0496 6.69636 12.6412 6.10473 12.6412 5.37493V2.73207C12.6412 2.00227 12.0496 1.41064 11.3198 1.41064Z" stroke="black" stroke-width="1.5" stroke-linecap="round" stroke-linejoin="round"/>
<path id="Vector 2520" d="M5.37444 13.3037H2.73158C2.00178 13.3037 1.41016 13.8953 1.41016 14.6251V17.268C1.41016 17.9978 2.00178 18.5894 2.73158 18.5894H5.37444C6.10424 18.5894 6.69587 17.9978 6.69587 17.268V14.6251C6.69587 13.8953 6.10424 13.3037 5.37444 13.3037Z" stroke="black" stroke-width="1.5" stroke-linecap="round" stroke-linejoin="round"/>
<path id="Vector 2521" d="M17.269 13.3037H14.6261C13.8963 13.3037 13.3047 13.8953 13.3047 14.6251V17.268C13.3047 17.9978 13.8963 18.5894 14.6261 18.5894H17.269C17.9988 18.5894 18.5904 17.9978 18.5904 17.268V14.6251C18.5904 13.8953 17.9988 13.3037 17.269 13.3037Z" stroke="black" stroke-width="1.5" stroke-linecap="round" stroke-linejoin="round"/>
</g>
</g>
<defs>
<clipPath id="clip0_47_145087">
<rect width="20" height="20" fill="white"/>
</clipPath>
</defs>
</svg>
