<svg width="20" height="20" viewBox="0 0 20 20" fill="none" xmlns="http://www.w3.org/2000/svg">
<g id="hierarchy-4-21">
<g id="hierarchy-4--node-organization-links-structure-link-nodes-network-hierarchy">
<path id="Vector 2519" d="M7.35882 1.41064H4.71596C3.98616 1.41064 3.39453 2.00227 3.39453 2.73207V5.37493C3.39453 6.10473 3.98616 6.69636 4.71596 6.69636H7.35882C8.08862 6.69636 8.68025 6.10473 8.68025 5.37493V2.73207C8.68025 2.00227 8.08862 1.41064 7.35882 1.41064Z" stroke="black" stroke-width="1.5" stroke-linecap="round" stroke-linejoin="round"/>
<path id="Vector 2520" d="M7.35882 13.3037H4.71596C3.98616 13.3037 3.39453 13.8953 3.39453 14.6251V17.268C3.39453 17.9978 3.98616 18.5894 4.71596 18.5894H7.35882C8.08862 18.5894 8.68025 17.9978 8.68025 17.268V14.6251C8.68025 13.8953 8.08862 13.3037 7.35882 13.3037Z" stroke="black" stroke-width="1.5" stroke-linecap="round" stroke-linejoin="round"/>
<path id="Vector 2521" d="M15.2885 8.01758H12.6456C11.9158 8.01758 11.3242 8.60921 11.3242 9.33901V11.9819C11.3242 12.7117 11.9158 13.3033 12.6456 13.3033H15.2885C16.0183 13.3033 16.6099 12.7117 16.6099 11.9819V9.33901C16.6099 8.60921 16.0183 8.01758 15.2885 8.01758Z" stroke="black" stroke-width="1.5" stroke-linecap="round" stroke-linejoin="round"/>
<path id="Vector" d="M6.03906 6.69629V13.3034" stroke="black" stroke-width="1.5" stroke-linecap="round" stroke-linejoin="round"/>
<path id="Vector_2" d="M11.3248 10.6606H10.0033C8.95195 10.6606 7.94362 10.2429 7.20018 9.49946C6.45673 8.75601 6.03906 7.74768 6.03906 6.69629" stroke="black" stroke-width="1.5" stroke-linecap="round" stroke-linejoin="round"/>
</g>
</g>
</svg>
