<svg width="20" height="20" viewBox="0 0 20 20" fill="none" xmlns="http://www.w3.org/2000/svg">
<g id="hierarchy-10-11">
<g id="hierarchy-10--node-organization-links-structure-link-nodes-network-hierarchy">
<path id="Vector" d="M5.375 13.3034V6.69629" stroke="black" stroke-width="1.5" stroke-linecap="round" stroke-linejoin="round"/>
<path id="Vector 2519" d="M15.9448 6.03564H13.3019C12.5721 6.03564 11.9805 6.62727 11.9805 7.35707V9.99993C11.9805 10.7297 12.5721 11.3214 13.3019 11.3214H15.9448C16.6746 11.3214 17.2662 10.7297 17.2662 9.99993V7.35707C17.2662 6.62727 16.6746 6.03564 15.9448 6.03564Z" stroke="black" stroke-width="1.5" stroke-linecap="round" stroke-linejoin="round"/>
<path id="Vector 2520" d="M6.69475 1.41064H4.0519C3.3221 1.41064 2.73047 2.00227 2.73047 2.73207V5.37493C2.73047 6.10473 3.3221 6.69636 4.0519 6.69636H6.69475C7.42455 6.69636 8.01618 6.10473 8.01618 5.37493V2.73207C8.01618 2.00227 7.42455 1.41064 6.69475 1.41064Z" stroke="black" stroke-width="1.5" stroke-linecap="round" stroke-linejoin="round"/>
<path id="Vector 2521" d="M6.69475 13.3037H4.0519C3.3221 13.3037 2.73047 13.8953 2.73047 14.6251V17.268C2.73047 17.9978 3.3221 18.5894 4.0519 18.5894H6.69475C7.42455 18.5894 8.01618 17.9978 8.01618 17.268V14.6251C8.01618 13.8953 7.42455 13.3037 6.69475 13.3037Z" stroke="black" stroke-width="1.5" stroke-linecap="round" stroke-linejoin="round"/>
<path id="Vector_2" d="M11.9821 8.67871H9.33929C8.28789 8.67871 7.27956 9.09638 6.53611 9.83982C5.79266 10.5833 5.375 11.5916 5.375 12.643" stroke="black" stroke-width="1.5" stroke-linecap="round" stroke-linejoin="round"/>
</g>
</g>
</svg>
