<svg width="20" height="20" viewBox="0 0 20 20" fill="none" xmlns="http://www.w3.org/2000/svg">
<g id="hierarchy-14-6" clip-path="url(#clip0_47_145153)">
<g id="hierarchy-14--node-organization-links-structure-link-nodes-network-hierarchy">
<path id="Vector 2255" d="M5.70312 8.01779V2.73207C5.70312 2.00227 6.29476 1.41064 7.02455 1.41064H12.971C13.7008 1.41064 14.2924 2.00227 14.2924 2.73207V8.01779C14.2924 8.74759 13.7008 9.33922 12.971 9.33922H7.02455C6.29476 9.33922 5.70312 8.74759 5.70312 8.01779Z" stroke="black" stroke-width="1.5" stroke-linecap="round" stroke-linejoin="round"/>
<path id="Vector 2256" d="M10 9.33936V14.6251" stroke="black" stroke-width="1.5" stroke-linecap="round" stroke-linejoin="round"/>
<path id="Vector 2257" d="M3.39062 14.6248V13.3034C3.39062 12.5736 3.98225 11.9819 4.71205 11.9819H15.2835C16.0133 11.9819 16.6049 12.5736 16.6049 13.3034V14.6248" stroke="black" stroke-width="1.5" stroke-linecap="round" stroke-linejoin="round"/>
<path id="Vector 2258" d="M1.41016 17.2679V15.9464C1.41016 15.2166 2.00178 14.625 2.73158 14.625H4.05301C4.78281 14.625 5.37444 15.2166 5.37444 15.9464V17.2679C5.37444 17.9977 4.78281 18.5893 4.05301 18.5893H2.73158C2.00178 18.5893 1.41016 17.9977 1.41016 17.2679Z" stroke="black" stroke-width="1.5" stroke-linecap="round" stroke-linejoin="round"/>
<path id="Vector 2259" d="M8.01562 17.2679V15.9464C8.01562 15.2166 8.60726 14.625 9.33705 14.625H10.6585C11.3883 14.625 11.9799 15.2166 11.9799 15.9464V17.2679C11.9799 17.9977 11.3883 18.5893 10.6585 18.5893H9.33705C8.60726 18.5893 8.01562 17.9977 8.01562 17.2679Z" stroke="black" stroke-width="1.5" stroke-linecap="round" stroke-linejoin="round"/>
<path id="Vector 2260" d="M14.625 17.2679V15.9464C14.625 15.2166 15.2166 14.625 15.9464 14.625H17.2679C17.9977 14.625 18.5893 15.2166 18.5893 15.9464V17.2679C18.5893 17.9977 17.9977 18.5893 17.2679 18.5893H15.9464C15.2166 18.5893 14.625 17.9977 14.625 17.2679Z" stroke="black" stroke-width="1.5" stroke-linecap="round" stroke-linejoin="round"/>
</g>
</g>
<defs>
<clipPath id="clip0_47_145153">
<rect width="20" height="20" fill="white"/>
</clipPath>
</defs>
</svg>
