<svg width="20" height="20" viewBox="0 0 20 20" fill="none" xmlns="http://www.w3.org/2000/svg">
<g id="highlighter-62">
<g id="highlighter">
<path id="rectangle 644" d="M17.3704 17.6014H2.55469" stroke="black" stroke-width="1.5" stroke-linecap="round" stroke-linejoin="round"/>
<path id="rectangle 645" d="M10.6448 2.43547L4.41797 8.92653L11.3196 14.2711L16.0415 6.62451C16.3989 6.04592 16.2588 5.29063 15.7177 4.87874L12.4094 2.30698C11.8751 1.89161 11.1133 1.94708 10.6448 2.43547Z" stroke="black" stroke-width="1.5" stroke-linecap="round" stroke-linejoin="round"/>
<path id="rectangle 646" d="M11.3136 14.2644L4.41903 8.92383L4.97991 12.0093C5.04697 12.3782 4.95415 12.7583 4.72458 13.0547L3.69922 14.3788L6.21365 16.3265L7.23926 15.0021C7.46884 14.7056 7.81359 14.5206 8.18757 14.4933L11.3136 14.2644Z" stroke="black" stroke-width="1.5" stroke-linecap="round" stroke-linejoin="round"/>
<path id="rectangle 647" d="M5.94346 16.1199L4.7858 17.5899L1.75781 17.5944L4.06506 14.6653L5.94346 16.1199Z" stroke="black" stroke-width="1.5" stroke-linecap="round" stroke-linejoin="round"/>
</g>
</g>
</svg>
