<svg width="20" height="20" viewBox="0 0 20 20" fill="none" xmlns="http://www.w3.org/2000/svg">
<g id="high-five-32" clip-path="url(#clip0_47_144821)">
<g id="high five">
<path id="vector 1996" d="M4.86414 16.5439L4.58635 16.3636C3.86901 15.8978 3.2423 15.3057 2.73677 14.6159L1.69198 13.1902C1.40503 12.7986 1.40473 12.2663 1.69124 11.8744C2.12098 11.2866 2.98988 11.2625 3.45162 11.8255L4.36957 12.9447C4.74718 12.9401 5.56936 13.0567 6.25527 13.5137" stroke="black" stroke-width="1.5" stroke-linecap="round" stroke-linejoin="round"/>
<path id="vector 1997" d="M4.36959 12.9473L4.30087 7.31497C4.29328 6.69283 4.79146 6.18234 5.4136 6.17475C6.03573 6.16717 6.54623 6.66534 6.55382 7.28747L6.59505 10.6669L6.53732 5.93572C6.52973 5.31358 7.02791 4.80308 7.65005 4.7955C8.27218 4.7879 8.78268 5.28609 8.79026 5.90822L8.80402 7.0347" stroke="black" stroke-width="1.5" stroke-linecap="round" stroke-linejoin="round"/>
<path id="vector 1997_2" d="M9.63483 18.2198L9.50922 18.0911C9.01967 17.5895 8.74945 16.9139 8.75801 16.2131L8.83537 9.87293C8.84296 9.25079 9.35345 8.75261 9.97559 8.7602C10.5977 8.7678 11.0959 9.27829 11.0883 9.90042L11.0526 12.8292L11.1158 7.64748C11.1234 7.02535 11.6339 6.52716 12.256 6.53475C12.8782 6.54234 13.3763 7.05283 13.3688 7.67496L13.311 12.4062L13.3522 9.02673C13.3598 8.4046 13.8703 7.90641 14.4925 7.91401C15.1146 7.92159 15.6128 8.43209 15.6052 9.05423L15.5364 14.6865L16.4544 13.5674C16.9161 13.0044 17.785 13.0285 18.2147 13.6163C18.5013 14.0083 18.5009 14.5405 18.214 14.9321L17.0552 16.5134C16.625 17.1004 16.0918 17.6041 15.4816 18.0003L15.0418 18.2858" stroke="black" stroke-width="1.5" stroke-linecap="round" stroke-linejoin="round"/>
<path id="vector 2065" d="M10.5156 1.67383L10.7266 3.43692" stroke="black" stroke-width="1.5" stroke-linecap="round" stroke-linejoin="round"/>
<path id="vector 2066" d="M13.4573 2.21582L12.8945 3.89994" stroke="black" stroke-width="1.5" stroke-linecap="round" stroke-linejoin="round"/>
<path id="vector 2067" d="M15.9441 3.771L14.7227 5.05985" stroke="black" stroke-width="1.5" stroke-linecap="round" stroke-linejoin="round"/>
</g>
</g>
<defs>
<clipPath id="clip0_47_144821">
<rect width="20" height="20" fill="white"/>
</clipPath>
</defs>
</svg>
