<svg width="20" height="20" viewBox="0 0 20 20" fill="none" xmlns="http://www.w3.org/2000/svg">
<g id="home-1" clip-path="url(#clip0_47_145221)">
<g id="home-1--home-house-roof-shelter">
<path id="Vector" d="M18.5887 9.92064C18.59 9.73723 18.553 9.55556 18.4802 9.38721C18.4074 9.21886 18.3004 9.0675 18.1659 8.94279L9.99947 1.41064L1.83304 8.94279C1.69856 9.0675 1.5915 9.21886 1.5187 9.38721C1.4459 9.55556 1.40895 9.73723 1.41019 9.92064V17.2678C1.41019 17.6182 1.54941 17.9544 1.79722 18.2022C2.04504 18.4499 2.38116 18.5892 2.73161 18.5892H17.2673C17.6177 18.5892 17.9539 18.4499 18.2017 18.2022C18.4496 17.9544 18.5887 17.6182 18.5887 17.2678V9.92064Z" stroke="black" stroke-width="1.5" stroke-linecap="round" stroke-linejoin="round"/>
</g>
</g>
<defs>
<clipPath id="clip0_47_145221">
<rect width="20" height="20" fill="white"/>
</clipPath>
</defs>
</svg>
