<svg width="20" height="20" viewBox="0 0 20 20" fill="none" xmlns="http://www.w3.org/2000/svg">
<g id="horizontal-toggle-button-single-left-27">
<g id="horizontal-toggle-button-single-left">
<path id="Vector 3959" d="M13.303 15.2853H6.69587C3.77665 15.2853 1.41016 12.9188 1.41016 9.99958C1.41016 7.08036 3.77665 4.71387 6.69587 4.71387H13.303C16.2222 4.71387 18.5887 7.08036 18.5887 9.99958C18.5887 12.9188 16.2222 15.2853 13.303 15.2853Z" stroke="black" stroke-width="1.5" stroke-linecap="round" stroke-linejoin="round"/>
<path id="Ellipse 1804" d="M4.05469 9.9993C4.05469 10.7002 4.33313 11.3725 4.82876 11.8681C5.32439 12.3637 5.99662 12.6422 6.69754 12.6422C7.39847 12.6422 8.0707 12.3637 8.56633 11.8681C9.06196 11.3725 9.3404 10.7002 9.3404 9.9993C9.3404 9.29837 9.06196 8.62615 8.56633 8.13052C8.0707 7.63489 7.39847 7.35645 6.69754 7.35645C5.99662 7.35645 5.32439 7.63489 4.82876 8.13052C4.33313 8.62615 4.05469 9.29837 4.05469 9.9993Z" stroke="black" stroke-width="1.5"/>
</g>
</g>
</svg>
