<svg width="20" height="20" viewBox="0 0 20 20" fill="none" xmlns="http://www.w3.org/2000/svg">
<g id="horizontal-menu-41">
<g id="horizontal-menu--navigation-dots-three-circle-button-horizontal-menu">
<path id="Vector" d="M16.6071 11.9819C17.7018 11.9819 18.5893 11.0944 18.5893 9.99972C18.5893 8.90501 17.7018 8.01758 16.6071 8.01758C15.5125 8.01758 14.625 8.90501 14.625 9.99972C14.625 11.0944 15.5125 11.9819 16.6071 11.9819Z" stroke="black" stroke-width="1.5" stroke-linecap="round" stroke-linejoin="round"/>
<path id="Vector_2" d="M9.99777 11.9819C11.0925 11.9819 11.9799 11.0944 11.9799 9.99972C11.9799 8.90501 11.0925 8.01758 9.99777 8.01758C8.90306 8.01758 8.01562 8.90501 8.01562 9.99972C8.01562 11.0944 8.90306 11.9819 9.99777 11.9819Z" stroke="black" stroke-width="1.5" stroke-linecap="round" stroke-linejoin="round"/>
<path id="Vector_3" d="M3.3923 11.9819C4.48701 11.9819 5.37444 11.0944 5.37444 9.99972C5.37444 8.90501 4.48701 8.01758 3.3923 8.01758C2.29759 8.01758 1.41016 8.90501 1.41016 9.99972C1.41016 11.0944 2.29759 11.9819 3.3923 11.9819Z" stroke="black" stroke-width="1.5" stroke-linecap="round" stroke-linejoin="round"/>
</g>
</g>
</svg>
