<svg width="20" height="20" viewBox="0 0 20 20" fill="none" xmlns="http://www.w3.org/2000/svg">
<g id="horizontal-slider-2-19" clip-path="url(#clip0_47_147258)">
<g id="horizontal-slider-2--adjustment-adjust-controls-fader-horizontal-settings-slider">
<path id="Vector" d="M3.3923 5.37542C4.48701 5.37542 5.37444 4.48799 5.37444 3.39328C5.37444 2.29856 4.48701 1.41113 3.3923 1.41113C2.29759 1.41113 1.41016 2.29856 1.41016 3.39328C1.41016 4.48799 2.29759 5.37542 3.3923 5.37542Z" stroke="black" stroke-width="1.5" stroke-linecap="round" stroke-linejoin="round"/>
<path id="Vector_2" d="M5.375 3.39355H18.5893" stroke="black" stroke-width="1.5" stroke-linecap="round" stroke-linejoin="round"/>
<path id="Vector_3" d="M9.99777 11.9828C11.0925 11.9828 11.9799 11.0954 11.9799 10.0007C11.9799 8.90599 11.0925 8.01855 9.99777 8.01855C8.90306 8.01855 8.01562 8.90599 8.01562 10.0007C8.01562 11.0954 8.90306 11.9828 9.99777 11.9828Z" stroke="black" stroke-width="1.5" stroke-linecap="round" stroke-linejoin="round"/>
<path id="Vector_4" d="M1.41016 10H8.0173" stroke="black" stroke-width="1.5" stroke-linecap="round" stroke-linejoin="round"/>
<path id="Vector_5" d="M11.9805 10H18.5876" stroke="black" stroke-width="1.5" stroke-linecap="round" stroke-linejoin="round"/>
<path id="Vector_6" d="M16.6071 18.5893C17.7018 18.5893 18.5893 17.7018 18.5893 16.6071C18.5893 15.5125 17.7018 14.625 16.6071 14.625C15.5125 14.625 14.625 15.5125 14.625 16.6071C14.625 17.7018 15.5125 18.5893 16.6071 18.5893Z" stroke="black" stroke-width="1.5" stroke-linecap="round" stroke-linejoin="round"/>
<path id="Vector_7" d="M14.6244 16.6074H1.41016" stroke="black" stroke-width="1.5" stroke-linecap="round" stroke-linejoin="round"/>
</g>
</g>
<defs>
<clipPath id="clip0_47_147258">
<rect width="20" height="20" fill="white"/>
</clipPath>
</defs>
</svg>
