<svg width="20" height="20" viewBox="0 0 20 20" fill="none" xmlns="http://www.w3.org/2000/svg">
<g id="horizonal-scroll-26">
<g id="horizonal-scroll--move-scroll-horizonal">
<path id="Vector" d="M5.34934 5.86414L1.55684 9.65664C1.51047 9.70104 1.47357 9.75437 1.44836 9.81342C1.42315 9.87246 1.41016 9.936 1.41016 10.0002C1.41016 10.0644 1.42315 10.1279 1.44836 10.187C1.47357 10.246 1.51047 10.2994 1.55684 10.3438L5.34934 14.1363" stroke="black" stroke-width="1.5" stroke-linecap="round" stroke-linejoin="round"/>
<path id="Vector_2" d="M14.6523 5.86414L18.4448 9.65664C18.4912 9.70104 18.5281 9.75437 18.5533 9.81342C18.5786 9.87246 18.5915 9.936 18.5915 10.0002C18.5915 10.0644 18.5786 10.1279 18.5533 10.187C18.5281 10.246 18.4912 10.2994 18.4448 10.3438L14.6523 14.1363" stroke="black" stroke-width="1.5" stroke-linecap="round" stroke-linejoin="round"/>
<path id="Vector_3" d="M9.99944 11.6518C10.9117 11.6518 11.6512 10.9123 11.6512 10.0001C11.6512 9.08779 10.9117 8.34827 9.99944 8.34827C9.08718 8.34827 8.34766 9.08779 8.34766 10.0001C8.34766 10.9123 9.08718 11.6518 9.99944 11.6518Z" stroke="black" stroke-width="1.5" stroke-linecap="round" stroke-linejoin="round"/>
</g>
</g>
</svg>
