<svg width="20" height="20" viewBox="0 0 20 20" fill="none" xmlns="http://www.w3.org/2000/svg">
<g id="horizontal-scroll-15">
<g id="horizontal-scroll--move-scroll-horizontal">
<path id="Vector" d="M12.6445 3.72363L18.4456 9.65685C18.492 9.70125 18.5289 9.75458 18.5541 9.81363C18.5793 9.87268 18.5923 9.93621 18.5923 10.0004C18.5923 10.0646 18.5793 10.1282 18.5541 10.1872C18.5289 10.2463 18.492 10.2996 18.4456 10.344L12.6445 16.2772" stroke="black" stroke-width="1.5" stroke-linecap="round" stroke-linejoin="round"/>
<path id="Vector_2" d="M7.3579 3.72363L1.55684 9.65685C1.51047 9.70125 1.47357 9.75458 1.44836 9.81363C1.42315 9.87268 1.41016 9.93621 1.41016 10.0004C1.41016 10.0646 1.42315 10.1282 1.44836 10.1872C1.47357 10.2463 1.51047 10.2996 1.55684 10.344L7.3579 16.2772" stroke="black" stroke-width="1.5" stroke-linecap="round" stroke-linejoin="round"/>
</g>
</g>
</svg>
