<svg width="20" height="20" viewBox="0 0 20 20" fill="none" xmlns="http://www.w3.org/2000/svg">
<g id="horizontal-toggle-button-single-right-26">
<g id="horizontal-toggle-button-single-right">
<path id="Vector 3959" d="M13.303 15.2853H6.69587C3.77665 15.2853 1.41016 12.9188 1.41016 9.99958C1.41016 7.08036 3.77665 4.71387 6.69587 4.71387H13.303C16.2222 4.71387 18.5887 7.08036 18.5887 9.99958C18.5887 12.9188 16.2222 15.2853 13.303 15.2853Z" stroke="black" stroke-width="1.5" stroke-linecap="round" stroke-linejoin="round"/>
<path id="Ellipse 1804" d="M10.6602 9.9993C10.6602 10.3464 10.7285 10.69 10.8613 11.0107C10.9941 11.3313 11.1888 11.6227 11.4342 11.8681C11.6796 12.1135 11.971 12.3082 12.2916 12.441C12.6123 12.5738 12.9559 12.6422 13.303 12.6422C13.6501 12.6422 13.9937 12.5738 14.3144 12.441C14.635 12.3082 14.9264 12.1135 15.1718 11.8681C15.4172 11.6227 15.6119 11.3313 15.7447 11.0107C15.8775 10.69 15.9459 10.3464 15.9459 9.9993C15.9459 9.65224 15.8775 9.30857 15.7447 8.98793C15.6119 8.66728 15.4172 8.37593 15.1718 8.13052C14.9264 7.88511 14.635 7.69044 14.3144 7.55762C13.9937 7.4248 13.6501 7.35645 13.303 7.35645C12.9559 7.35645 12.6123 7.4248 12.2916 7.55762C11.971 7.69044 11.6796 7.88511 11.4342 8.13052C11.1888 8.37593 10.9941 8.66728 10.8613 8.98793C10.7285 9.30857 10.6602 9.65224 10.6602 9.9993Z" stroke="black" stroke-width="1.5"/>
</g>
</g>
</svg>
