<svg width="20" height="20" viewBox="0 0 20 20" fill="none" xmlns="http://www.w3.org/2000/svg">
<g id="horizontal-slider-square-46" clip-path="url(#clip0_47_147278)">
<g id="horizontal-slider-square--adjust-controls-fader-horizontal-settings-slider-square">
<path id="Vector" d="M17.2673 1.41113H2.73158C2.00178 1.41113 1.41016 2.00276 1.41016 2.73256V17.2683C1.41016 17.9981 2.00178 18.5897 2.73158 18.5897H17.2673C17.9971 18.5897 18.5887 17.9981 18.5887 17.2683V2.73256C18.5887 2.00276 17.9971 1.41113 17.2673 1.41113Z" stroke="black" stroke-width="1.5" stroke-linecap="round" stroke-linejoin="round"/>
<path id="Vector_2" d="M4.71484 6.69727H11.322" stroke="black" stroke-width="1.5" stroke-linecap="round" stroke-linejoin="round"/>
<path id="Vector_3" d="M13.3025 8.67913C14.3971 8.67913 15.2846 7.7917 15.2846 6.69699C15.2846 5.60228 14.3971 4.71484 13.3025 4.71484C12.2077 4.71484 11.3203 5.60228 11.3203 6.69699C11.3203 7.7917 12.2077 8.67913 13.3025 8.67913Z" stroke="black" stroke-width="1.5" stroke-linecap="round" stroke-linejoin="round"/>
<path id="Vector_4" d="M15.2846 13.3037H11.3203" stroke="black" stroke-width="1.5" stroke-linecap="round" stroke-linejoin="round"/>
<path id="Vector_5" d="M7.3577 13.3037H4.71484" stroke="black" stroke-width="1.5" stroke-linecap="round" stroke-linejoin="round"/>
<path id="Vector_6" d="M9.33761 15.2866C10.4323 15.2866 11.3198 14.3991 11.3198 13.3044C11.3198 12.2097 10.4323 11.3223 9.33761 11.3223C8.2429 11.3223 7.35547 12.2097 7.35547 13.3044C7.35547 14.3991 8.2429 15.2866 9.33761 15.2866Z" stroke="black" stroke-width="1.5" stroke-linecap="round" stroke-linejoin="round"/>
</g>
</g>
<defs>
<clipPath id="clip0_47_147278">
<rect width="20" height="20" fill="white"/>
</clipPath>
</defs>
</svg>
