<svg width="20" height="20" viewBox="0 0 20 20" fill="none" xmlns="http://www.w3.org/2000/svg">
<g id="hurricane-29">
<g id="hurricane--twister-tornado-hurricane-cyclone-disaster-natural-weather">
<path id="Vector" d="M9.99888 8.0173C14.3777 8.0173 17.9275 6.53824 17.9275 4.71373C17.9275 2.88922 14.3777 1.41016 9.99888 1.41016C5.62005 1.41016 2.07031 2.88922 2.07031 4.71373C2.07031 6.53824 5.62005 8.0173 9.99888 8.0173Z" stroke="black" stroke-width="1.5" stroke-linecap="round" stroke-linejoin="round"/>
<path id="Vector_2" d="M16.4359 9.64258C15.2863 10.6865 12.8284 11.4133 9.90806 11.4133C8.13288 11.4511 6.36781 11.1367 4.71484 10.4883" stroke="black" stroke-width="1.5" stroke-linecap="round" stroke-linejoin="round"/>
<path id="Vector_3" d="M15.099 13.752C13.7253 14.4463 12.197 14.7784 10.659 14.7166C9.54093 14.7283 8.42737 14.5724 7.35547 14.2541" stroke="black" stroke-width="1.5" stroke-linecap="round" stroke-linejoin="round"/>
<path id="Vector_4" d="M14.4515 18.5089C13.1961 18.7864 12.0332 18.2975 11.8086 17.4121" stroke="black" stroke-width="1.5" stroke-linecap="round" stroke-linejoin="round"/>
</g>
</g>
</svg>
