<svg width="20" height="20" viewBox="0 0 20 20" fill="none" xmlns="http://www.w3.org/2000/svg">
<g id="image-highlights-8" clip-path="url(#clip0_47_141243)">
<g id="image-highlights">
<path id="Ellipse 1113" d="M1.41016 10.0001C1.41016 11.128 1.63232 12.2449 2.06398 13.287C2.49563 14.3291 3.12831 15.276 3.9259 16.0736C4.72349 16.8712 5.67036 17.5039 6.71246 17.9355C7.75457 18.3672 8.87148 18.5893 9.99944 18.5893C11.1274 18.5893 12.2443 18.3672 13.2864 17.9355C14.3285 17.5039 15.2754 16.8712 16.073 16.0736C16.8706 15.276 17.5033 14.3291 17.9349 13.287C18.3666 12.2449 18.5887 11.128 18.5887 10.0001C18.5887 8.87209 18.3666 7.75518 17.9349 6.71308C17.5033 5.67097 16.8706 4.7241 16.073 3.92651C15.2754 3.12892 14.3285 2.49624 13.2864 2.06459C12.2443 1.63294 11.1274 1.41077 9.99944 1.41077C8.87148 1.41077 7.75457 1.63294 6.71246 2.06459C5.67036 2.49624 4.72349 3.12892 3.9259 3.92651C3.12831 4.7241 2.49563 5.67097 2.06398 6.71308C1.63232 7.75518 1.41016 8.87209 1.41016 10.0001Z" stroke="black" stroke-width="1.5" stroke-linejoin="round"/>
<path id="Ellipse 1114" d="M4.05469 10C4.05469 13.2841 6.717 15.9464 10.0011 15.9464V4.05359C6.717 4.05359 4.05469 6.7159 4.05469 10Z" stroke="black" stroke-width="1.5" stroke-linejoin="round"/>
</g>
</g>
<defs>
<clipPath id="clip0_47_141243">
<rect width="20" height="20" fill="white"/>
</clipPath>
</defs>
</svg>
