<svg width="20" height="20" viewBox="0 0 20 20" fill="none" xmlns="http://www.w3.org/2000/svg">
<g id="image-blur-1" clip-path="url(#clip0_47_141197)">
<g id="image-blur">
<path id="Vector" d="M9.99944 18.5893C14.7432 18.5893 18.5887 14.7438 18.5887 10.0001C18.5887 5.25632 14.7432 1.41077 9.99944 1.41077C5.25571 1.41077 1.41016 5.25632 1.41016 10.0001C1.41016 14.7438 5.25571 18.5893 9.99944 18.5893Z" stroke="black" stroke-width="1.5" stroke-linecap="round" stroke-linejoin="round"/>
<g id="Group 2626">
<path id="Vector_2" d="M8.07143 4.57621C7.98021 4.57621 7.90625 4.50225 7.90625 4.41103C7.90625 4.3198 7.98021 4.24585 8.07143 4.24585" stroke="black" stroke-width="1.5" stroke-linecap="round" stroke-linejoin="round"/>
<path id="Vector_3" d="M8.07031 4.57621C8.16154 4.57621 8.23549 4.50225 8.23549 4.41103C8.23549 4.3198 8.16154 4.24585 8.07031 4.24585" stroke="black" stroke-width="1.5" stroke-linecap="round" stroke-linejoin="round"/>
</g>
<g id="Group 2636">
<path id="Vector_4" d="M11.9269 4.57621C11.8357 4.57621 11.7617 4.50225 11.7617 4.41103C11.7617 4.3198 11.8357 4.24585 11.9269 4.24585" stroke="black" stroke-width="1.5" stroke-linecap="round" stroke-linejoin="round"/>
<path id="Vector_5" d="M11.9258 4.57621C12.017 4.57621 12.091 4.50225 12.091 4.41103C12.091 4.3198 12.017 4.24585 11.9258 4.24585" stroke="black" stroke-width="1.5" stroke-linecap="round" stroke-linejoin="round"/>
</g>
<g id="Group 2637">
<path id="Vector_6" d="M8.07143 15.7536C7.98021 15.7536 7.90625 15.6796 7.90625 15.5884C7.90625 15.4972 7.98021 15.4232 8.07143 15.4232" stroke="black" stroke-width="1.5" stroke-linecap="round" stroke-linejoin="round"/>
<path id="Vector_7" d="M8.07031 15.7536C8.16154 15.7536 8.23549 15.6796 8.23549 15.5884C8.23549 15.4972 8.16154 15.4232 8.07031 15.4232" stroke="black" stroke-width="1.5" stroke-linecap="round" stroke-linejoin="round"/>
</g>
<g id="Group 2639">
<path id="Vector_8" d="M4.41127 8.23856C4.32004 8.23856 4.24609 8.16461 4.24609 8.07338C4.24609 7.98216 4.32004 7.9082 4.41127 7.9082" stroke="black" stroke-width="1.5" stroke-linecap="round" stroke-linejoin="round"/>
<path id="Vector_9" d="M4.41016 8.23856C4.50137 8.23856 4.57533 8.16461 4.57533 8.07338C4.57533 7.98216 4.50137 7.9082 4.41016 7.9082" stroke="black" stroke-width="1.5" stroke-linecap="round" stroke-linejoin="round"/>
</g>
<g id="Group 2640">
<path id="Vector_10" d="M4.41127 12.0918C4.32004 12.0918 4.24609 12.0179 4.24609 11.9267C4.24609 11.8354 4.32004 11.7615 4.41127 11.7615" stroke="black" stroke-width="1.5" stroke-linecap="round" stroke-linejoin="round"/>
<path id="Vector_11" d="M4.41016 12.0918C4.50137 12.0918 4.57533 12.0179 4.57533 11.9267C4.57533 11.8354 4.50137 11.7615 4.41016 11.7615" stroke="black" stroke-width="1.5" stroke-linecap="round" stroke-linejoin="round"/>
</g>
<g id="Group 2641">
<path id="Vector_12" d="M15.5871 8.23856C15.4959 8.23856 15.4219 8.16461 15.4219 8.07338C15.4219 7.98216 15.4959 7.9082 15.5871 7.9082" stroke="black" stroke-width="1.5" stroke-linecap="round" stroke-linejoin="round"/>
<path id="Vector_13" d="M15.5859 8.23856C15.6771 8.23856 15.7511 8.16461 15.7511 8.07338C15.7511 7.98216 15.6771 7.9082 15.5859 7.9082" stroke="black" stroke-width="1.5" stroke-linecap="round" stroke-linejoin="round"/>
</g>
<g id="Group 2642">
<path id="Vector_14" d="M15.5871 12.0918C15.4959 12.0918 15.4219 12.0179 15.4219 11.9267C15.4219 11.8354 15.4959 11.7615 15.5871 11.7615" stroke="black" stroke-width="1.5" stroke-linecap="round" stroke-linejoin="round"/>
<path id="Vector_15" d="M15.5859 12.0918C15.6771 12.0918 15.7511 12.0179 15.7511 11.9267C15.7511 11.8354 15.6771 11.7615 15.5859 11.7615" stroke="black" stroke-width="1.5" stroke-linecap="round" stroke-linejoin="round"/>
</g>
<g id="Group 2638">
<path id="Vector_16" d="M11.9269 15.7536C11.8357 15.7536 11.7617 15.6796 11.7617 15.5884C11.7617 15.4972 11.8357 15.4232 11.9269 15.4232" stroke="black" stroke-width="1.5" stroke-linecap="round" stroke-linejoin="round"/>
<path id="Vector_17" d="M11.9258 15.7536C12.017 15.7536 12.091 15.6796 12.091 15.5884C12.091 15.4972 12.017 15.4232 11.9258 15.4232" stroke="black" stroke-width="1.5" stroke-linecap="round" stroke-linejoin="round"/>
</g>
<g id="Group 2649">
<path id="Vector_18" d="M8.01786 8.40376C7.83541 8.40376 7.6875 8.25585 7.6875 8.0734C7.6875 7.89095 7.83541 7.74304 8.01786 7.74304" stroke="black" stroke-width="1.5" stroke-linecap="round" stroke-linejoin="round"/>
<path id="Vector_19" d="M8.01953 8.40376C8.20198 8.40376 8.34989 8.25585 8.34989 8.0734C8.34989 7.89095 8.20198 7.74304 8.01953 7.74304" stroke="black" stroke-width="1.5" stroke-linecap="round" stroke-linejoin="round"/>
</g>
<g id="Group 2650">
<path id="Vector_20" d="M12.01 8.40376C11.8276 8.40376 11.6797 8.25585 11.6797 8.0734C11.6797 7.89095 11.8276 7.74304 12.01 7.74304" stroke="black" stroke-width="1.5" stroke-linecap="round" stroke-linejoin="round"/>
<path id="Vector_21" d="M12.0117 8.40376C12.1942 8.40376 12.3421 8.25585 12.3421 8.0734C12.3421 7.89095 12.1942 7.74304 12.0117 7.74304" stroke="black" stroke-width="1.5" stroke-linecap="round" stroke-linejoin="round"/>
</g>
<g id="Group 2651">
<path id="Vector_22" d="M8.01786 12.257C7.83541 12.257 7.6875 12.1091 7.6875 11.9267C7.6875 11.7442 7.83541 11.5963 8.01786 11.5963" stroke="black" stroke-width="1.5" stroke-linecap="round" stroke-linejoin="round"/>
<path id="Vector_23" d="M8.01953 12.257C8.20198 12.257 8.34989 12.1091 8.34989 11.9267C8.34989 11.7442 8.20198 11.5963 8.01953 11.5963" stroke="black" stroke-width="1.5" stroke-linecap="round" stroke-linejoin="round"/>
</g>
<g id="Group 2652">
<path id="Vector_24" d="M12.01 12.257C11.8276 12.257 11.6797 12.1091 11.6797 11.9267C11.6797 11.7442 11.8276 11.5963 12.01 11.5963" stroke="black" stroke-width="1.5" stroke-linecap="round" stroke-linejoin="round"/>
<path id="Vector_25" d="M12.0117 12.257C12.1942 12.257 12.3421 12.1091 12.3421 11.9267C12.3421 11.7442 12.1942 11.5963 12.0117 11.5963" stroke="black" stroke-width="1.5" stroke-linecap="round" stroke-linejoin="round"/>
</g>
</g>
</g>
<defs>
<clipPath id="clip0_47_141197">
<rect width="20" height="20" fill="white"/>
</clipPath>
</defs>
</svg>
