<svg width="21" height="21" viewBox="0 0 21 21" fill="none" xmlns="http://www.w3.org/2000/svg">
<g clip-path="url(#clip0_146_398834)">
<path d="M19.5525 12.5892C19.5525 14.9014 15.3739 19.5535 15.3739 19.5535C15.3739 19.5535 11.1953 14.9014 11.1953 12.5892C11.1953 11.481 11.6356 10.4182 12.4192 9.63452C13.2028 8.85089 14.2657 8.41064 15.3739 8.41064C16.482 8.41064 17.5449 8.85089 18.3286 9.63452C19.1122 10.4182 19.5525 11.481 19.5525 12.5892Z" stroke="black" stroke-width="1.5" stroke-linecap="round" stroke-linejoin="round"/>
<path d="M15.3722 13.2857C15.7568 13.2857 16.0686 12.9739 16.0686 12.5893C16.0686 12.2046 15.7568 11.8928 15.3722 11.8928C14.9876 11.8928 14.6758 12.2046 14.6758 12.5893C14.6758 12.9739 14.9876 13.2857 15.3722 13.2857Z" stroke="black" stroke-width="1.5" stroke-linecap="round" stroke-linejoin="round"/>
<path d="M9.10603 15.375H2.83817C2.46876 15.375 2.11448 15.2282 1.85327 14.967C1.59206 14.7059 1.44531 14.3515 1.44531 13.9821V2.83927C1.44531 2.46985 1.59206 2.11558 1.85327 1.85437C2.11448 1.59316 2.46876 1.44641 2.83817 1.44641H13.981C14.3504 1.44641 14.7048 1.59316 14.9659 1.85437C15.2271 2.11558 15.3739 2.46985 15.3739 2.83927V4.92855" stroke="black" stroke-width="1.5" stroke-linecap="round" stroke-linejoin="round"/>
<path d="M9.45592 7.36605C10.4175 7.36605 11.197 6.58656 11.197 5.62498C11.197 4.66341 10.4175 3.88391 9.45592 3.88391C8.49434 3.88391 7.71484 4.66341 7.71484 5.62498C7.71484 6.58656 8.49434 7.36605 9.45592 7.36605Z" stroke="black" stroke-width="1.5" stroke-linecap="round" stroke-linejoin="round"/>
<path d="M1.44531 9.94831C1.97127 9.85323 2.51302 9.80359 3.06638 9.80359C5.2644 9.80359 7.27948 10.5869 8.84771 11.8895" stroke="black" stroke-width="1.5" stroke-linecap="round" stroke-linejoin="round"/>
</g>
<defs>
<clipPath id="clip0_146_398834">
<rect width="21" height="21" fill="white"/>
</clipPath>
</defs>
</svg>
