<svg width="21" height="21" viewBox="0 0 21 21" fill="none" xmlns="http://www.w3.org/2000/svg">
<g clip-path="url(#clip0_146_400322)">
<path d="M18.1596 1.44641H7.71317C6.94392 1.44641 6.32031 2.07001 6.32031 2.83927V7.01784C6.32031 7.78709 6.94392 8.4107 7.71317 8.4107H18.1596C18.9289 8.4107 19.5525 7.78709 19.5525 7.01784V2.83927C19.5525 2.07001 18.9289 1.44641 18.1596 1.44641Z" stroke="black" stroke-width="1.5" stroke-linecap="round" stroke-linejoin="round"/>
<path d="M18.1596 12.5892H7.71317C6.94392 12.5892 6.32031 13.2128 6.32031 13.9821V18.1607C6.32031 18.9299 6.94392 19.5535 7.71317 19.5535H18.1596C18.9289 19.5535 19.5525 18.9299 19.5525 18.1607V13.9821C19.5525 13.2128 18.9289 12.5892 18.1596 12.5892Z" stroke="black" stroke-width="1.5" stroke-linecap="round" stroke-linejoin="round"/>
<path d="M2.14174 2.83927C2.52636 2.83927 2.83817 2.52746 2.83817 2.14284C2.83817 1.75821 2.52636 1.44641 2.14174 1.44641C1.75711 1.44641 1.44531 1.75821 1.44531 2.14284C1.44531 2.52746 1.75711 2.83927 2.14174 2.83927Z" stroke="black" stroke-width="1.5" stroke-linecap="round" stroke-linejoin="round"/>
<path d="M2.14174 13.9821C2.52636 13.9821 2.83817 13.6703 2.83817 13.2857C2.83817 12.901 2.52636 12.5892 2.14174 12.5892C1.75711 12.5892 1.44531 12.901 1.44531 13.2857C1.44531 13.6703 1.75711 13.9821 2.14174 13.9821Z" stroke="black" stroke-width="1.5" stroke-linecap="round" stroke-linejoin="round"/>
</g>
<defs>
<clipPath id="clip0_146_400322">
<rect width="21" height="21" fill="white"/>
</clipPath>
</defs>
</svg>
