<svg width="21" height="21" viewBox="0 0 21 21" fill="none" xmlns="http://www.w3.org/2000/svg">
<g clip-path="url(#clip0_146_403289)">
<path d="M8.4096 13.9821H2.83817C2.46876 13.9821 2.11448 13.8354 1.85327 13.5742C1.59206 13.313 1.44531 12.9587 1.44531 12.5893V2.83927C1.44531 2.46985 1.59206 2.11558 1.85327 1.85437C2.11448 1.59316 2.46876 1.44641 2.83817 1.44641H16.7667C17.1361 1.44641 17.4905 1.59316 17.7516 1.85437C18.0128 2.11558 18.1596 2.46985 18.1596 2.83927V7.71427" stroke="black" stroke-width="1.5" stroke-linecap="round" stroke-linejoin="round"/>
<path d="M1.44531 3.20142L9.80246 9.10713L18.1596 3.20142" stroke="black" stroke-width="1.5" stroke-linecap="round" stroke-linejoin="round"/>
<path d="M11.8917 13.9822H18.856C19.2739 13.9822 19.5525 14.2607 19.5525 14.6786V18.8572C19.5525 19.275 19.2739 19.5536 18.856 19.5536H11.8917C11.4739 19.5536 11.1953 19.275 11.1953 18.8572V14.6786C11.1953 14.2607 11.4739 13.9822 11.8917 13.9822Z" stroke="black" stroke-width="1.5" stroke-linecap="round" stroke-linejoin="round"/>
<path d="M12.5898 13.9822V12.5893C12.5898 11.0572 13.8434 9.80359 15.3756 9.80359C16.9077 9.80359 18.1613 11.0572 18.1613 12.5893V13.9822" stroke="black" stroke-width="1.5" stroke-linecap="round" stroke-linejoin="round"/>
</g>
<defs>
<clipPath id="clip0_146_403289">
<rect width="21" height="21" fill="white"/>
</clipPath>
</defs>
</svg>
