<svg width="21" height="21" viewBox="0 0 21 21" fill="none" xmlns="http://www.w3.org/2000/svg">
<g clip-path="url(#clip0_146_403273)">
<path d="M18.1596 1.44641H2.83817C2.06892 1.44641 1.44531 2.07001 1.44531 2.83927V18.1607C1.44531 18.93 2.06892 19.5536 2.83817 19.5536H18.1596C18.9289 19.5536 19.5525 18.93 19.5525 18.1607V2.83927C19.5525 2.07001 18.9289 1.44641 18.1596 1.44641Z" stroke="black" stroke-width="1.5" stroke-linecap="round" stroke-linejoin="round"/>
<path d="M1.44531 12.5892H6.32031C6.68973 12.5892 7.044 12.736 7.30522 12.9972C7.56642 13.2584 7.71317 13.6127 7.71317 13.9821C7.71317 14.7209 8.00666 15.4294 8.52909 15.9519C9.05151 16.4743 9.76007 16.7678 10.4989 16.7678C11.2377 16.7678 11.9463 16.4743 12.4687 15.9519C12.9911 15.4294 13.2846 14.7209 13.2846 13.9821C13.2846 13.6127 13.4314 13.2584 13.6926 12.9972C13.9538 12.736 14.308 12.5892 14.6775 12.5892H19.5525" stroke="black" stroke-width="1.5" stroke-linecap="round" stroke-linejoin="round"/>
<path d="M6.32031 5.625H14.6775" stroke="black" stroke-width="1.5" stroke-linecap="round" stroke-linejoin="round"/>
<path d="M6.32031 9.10718H14.6775" stroke="black" stroke-width="1.5" stroke-linecap="round" stroke-linejoin="round"/>
</g>
<defs>
<clipPath id="clip0_146_403273">
<rect width="21" height="21" fill="white"/>
</clipPath>
</defs>
</svg>
