<svg width="21" height="21" viewBox="0 0 21 21" fill="none" xmlns="http://www.w3.org/2000/svg">
<g clip-path="url(#clip0_146_403318)">
<path d="M19.5525 11.8928H14.6775C14.308 11.8928 13.9538 12.0396 13.6926 12.3008C13.4314 12.562 13.2846 12.9163 13.2846 13.2857C13.2846 14.0245 12.9911 14.733 12.4687 15.2555C11.9463 15.7779 11.2377 16.0714 10.4989 16.0714C9.76007 16.0714 9.05151 15.7779 8.52909 15.2555C8.00666 14.733 7.71317 14.0245 7.71317 13.2857C7.71317 12.9163 7.56642 12.562 7.30522 12.3008C7.044 12.0396 6.68973 11.8928 6.32031 11.8928H1.44531V18.1607C1.44531 18.5301 1.59206 18.8844 1.85327 19.1456C2.11448 19.4067 2.46876 19.5535 2.83817 19.5535H18.1596C18.529 19.5535 18.8833 19.4067 19.1445 19.1456C19.4056 18.8844 19.5525 18.5301 19.5525 18.1607V11.8928Z" stroke="black" stroke-width="1.5" stroke-linecap="round" stroke-linejoin="round"/>
<path d="M7.01562 4.92855L10.4978 1.44641L13.9799 4.92855" stroke="black" stroke-width="1.5" stroke-linecap="round" stroke-linejoin="round"/>
<path d="M10.5 9.80355V1.44641" stroke="black" stroke-width="1.5" stroke-linecap="round" stroke-linejoin="round"/>
</g>
<defs>
<clipPath id="clip0_146_403318">
<rect width="21" height="21" fill="white"/>
</clipPath>
</defs>
</svg>
