<svg width="21" height="21" viewBox="0 0 21 21" fill="none" xmlns="http://www.w3.org/2000/svg">
<g clip-path="url(#clip0_146_403323)">
<path d="M7.01674 13.9821H2.83817C2.46876 13.9821 2.11448 13.8354 1.85327 13.5742C1.59206 13.313 1.44531 12.9587 1.44531 12.5893V2.83927C1.44531 2.46985 1.59206 2.11558 1.85327 1.85437C2.11448 1.59316 2.46876 1.44641 2.83817 1.44641H16.7667C17.1361 1.44641 17.4905 1.59316 17.7516 1.85437C18.0128 2.11558 18.1596 2.46985 18.1596 2.83927V7.71427" stroke="black" stroke-width="1.5" stroke-linecap="round" stroke-linejoin="round"/>
<path d="M1.44531 3.20142L9.80246 9.10713L18.1596 3.20142" stroke="black" stroke-width="1.5" stroke-linecap="round" stroke-linejoin="round"/>
<path d="M15.0268 19.5536C17.5268 19.5536 19.5536 17.5268 19.5536 15.0268C19.5536 12.5267 17.5268 10.5 15.0268 10.5C12.5267 10.5 10.5 12.5267 10.5 15.0268C10.5 17.5268 12.5267 19.5536 15.0268 19.5536Z" stroke="black" stroke-width="1.5" stroke-linecap="round" stroke-linejoin="round"/>
<path d="M15.024 17.4643C14.8316 17.4643 14.6758 17.3084 14.6758 17.116C14.6758 16.9237 14.8316 16.7678 15.024 16.7678" stroke="black" stroke-width="1.5" stroke-linecap="round" stroke-linejoin="round"/>
<path d="M15.0234 17.4643C15.2158 17.4643 15.3717 17.3084 15.3717 17.116C15.3717 16.9237 15.2158 16.7678 15.0234 16.7678" stroke="black" stroke-width="1.5" stroke-linecap="round" stroke-linejoin="round"/>
<path d="M15.0273 12.5892V14.6785" stroke="black" stroke-width="1.5" stroke-linecap="round" stroke-linejoin="round"/>
</g>
<defs>
<clipPath id="clip0_146_403323">
<rect width="21" height="21" fill="white"/>
</clipPath>
</defs>
</svg>
