<svg width="20" height="20" viewBox="0 0 20 20" fill="none" xmlns="http://www.w3.org/2000/svg">
<g id="information-circle-18" clip-path="url(#clip0_47_141717)">
<g id="information-circle--information-frame-info-more-help-point-circle">
<path id="Vector" d="M9.99944 18.5893C14.7432 18.5893 18.5887 14.7438 18.5887 9.99999C18.5887 5.25626 14.7432 1.41071 9.99944 1.41071C5.25571 1.41071 1.41016 5.25626 1.41016 9.99999C1.41016 14.7438 5.25571 18.5893 9.99944 18.5893Z" stroke="black" stroke-width="1.5" stroke-linecap="round" stroke-linejoin="round"/>
<path id="Vector_2" d="M8.01562 13.9643H11.9799" stroke="black" stroke-width="1.5" stroke-linecap="round" stroke-linejoin="round"/>
<path id="Vector_3" d="M10.0011 13.9643V9.33929H8.67969" stroke="black" stroke-width="1.5" stroke-linecap="round" stroke-linejoin="round"/>
<g id="Group 2605">
<path id="Ellipse 1111" d="M9.99833 6.36604C9.81588 6.36604 9.66797 6.21813 9.66797 6.03568C9.66797 5.85323 9.81588 5.70532 9.99833 5.70532" stroke="black" stroke-width="1.5" stroke-linecap="round" stroke-linejoin="round"/>
<path id="Ellipse 1112" d="M10 6.36604C10.1824 6.36604 10.3304 6.21813 10.3304 6.03568C10.3304 5.85323 10.1824 5.70532 10 5.70532" stroke="black" stroke-width="1.5" stroke-linecap="round" stroke-linejoin="round"/>
</g>
</g>
</g>
<defs>
<clipPath id="clip0_47_141717">
<rect width="20" height="20" fill="white"/>
</clipPath>
</defs>
</svg>
