<svg width="20" height="20" viewBox="0 0 20 20" fill="none" xmlns="http://www.w3.org/2000/svg">
<g id="input-box-82">
<g id="input-box--cursor-text-formatting-type-format">
<path id="Vector" d="M10.6602 7.35742H17.928C18.1032 7.35742 18.2713 7.42703 18.3953 7.55094C18.5191 7.67484 18.5887 7.8429 18.5887 8.01814V11.9824C18.5887 12.1577 18.5191 12.3257 18.3953 12.4496C18.2713 12.5735 18.1032 12.6431 17.928 12.6431H10.6602" stroke="black" stroke-width="1.5" stroke-linecap="round" stroke-linejoin="round"/>
<path id="Vector_2" d="M4.05301 12.6431H2.07087C1.89564 12.6431 1.72758 12.5735 1.60368 12.4496C1.47977 12.3257 1.41016 12.1577 1.41016 11.9824V8.01814C1.41016 7.8429 1.47977 7.67484 1.60368 7.55094C1.72758 7.42703 1.89564 7.35742 2.07087 7.35742H4.05301" stroke="black" stroke-width="1.5" stroke-linecap="round" stroke-linejoin="round"/>
<path id="Vector_3" d="M6.03516 4.05371H8.67801" stroke="black" stroke-width="1.5" stroke-linecap="round" stroke-linejoin="round"/>
<path id="Vector_4" d="M6.03516 15.9463H8.67801" stroke="black" stroke-width="1.5" stroke-linecap="round" stroke-linejoin="round"/>
<path id="Vector_5" d="M7.35547 4.05371V15.9466" stroke="black" stroke-width="1.5" stroke-linecap="round" stroke-linejoin="round"/>
</g>
</g>
</svg>
