<svg width="20" height="20" viewBox="0 0 20 20" fill="none" xmlns="http://www.w3.org/2000/svg">
<g id="insert-column-4" clip-path="url(#clip0_47_143644)">
<g id="insert-column">
<path id="Rectangle 580" d="M1.41016 7.64026C1.41016 6.91046 2.00178 6.31885 2.73158 6.31885H5.61042C6.34022 6.31885 6.93185 6.91046 6.93185 7.64028V17.2679C6.93185 17.9977 6.34022 18.5893 5.61042 18.5893H2.73158C2.00178 18.5893 1.41016 17.9977 1.41016 17.2679V7.64026Z" stroke="black" stroke-width="1.5" stroke-linecap="round" stroke-linejoin="round"/>
<path id="Rectangle 581" d="M13.0664 7.64026C13.0664 6.91046 13.658 6.31885 14.3878 6.31885H17.2667C17.9965 6.31885 18.5881 6.91046 18.5881 7.64028V17.2679C18.5881 17.9977 17.9965 18.5893 17.2667 18.5893H14.3878C13.658 18.5893 13.0664 17.9977 13.0664 17.2679V7.64026Z" stroke="black" stroke-width="1.5" stroke-linecap="round" stroke-linejoin="round"/>
<path id="Vector 990" d="M7.54688 1.41064L10.001 3.86474L12.455 1.41064" stroke="black" stroke-width="1.5" stroke-linecap="round" stroke-linejoin="round"/>
</g>
</g>
<defs>
<clipPath id="clip0_47_143644">
<rect width="20" height="20" fill="white"/>
</clipPath>
</defs>
</svg>
