<svg width="20" height="20" viewBox="0 0 20 20" fill="none" xmlns="http://www.w3.org/2000/svg">
<g id="invisible-1-3" clip-path="url(#clip0_47_149411)">
<g id="invisible-1--disable-eye-eyeball-hide-off-view">
<path id="Vector" d="M5.54442 5.53855C6.85626 4.6861 8.37633 4.05273 9.99874 4.05273C13.6855 4.05273 16.8438 7.32331 18.2313 9.0032C18.4504 9.27637 18.5717 9.63126 18.5717 9.99924C18.5717 10.3672 18.4504 10.7221 18.2313 10.9953C17.4664 11.9213 16.1635 13.3306 14.5307 14.409M11.9809 15.6413C11.3434 15.8341 10.6801 15.9457 9.99874 15.9457C6.31195 15.9457 3.15374 12.6752 1.76623 10.9953C1.54709 10.7221 1.42578 10.3672 1.42578 9.99924C1.42578 9.63126 1.54709 9.27637 1.76623 9.0032C2.20584 8.47096 2.82318 7.77904 3.57877 7.08207" stroke="black" stroke-width="1.5" stroke-linecap="round" stroke-linejoin="round"/>
<path id="Vector_2" d="M11.8665 11.8671C12.8986 10.835 12.8986 9.16165 11.8665 8.12955C10.8344 7.09744 9.16101 7.09744 8.12891 8.12955" stroke="black" stroke-width="1.5" stroke-linecap="round" stroke-linejoin="round"/>
<path id="Vector_3" d="M18.5887 18.5887L1.41016 1.41016" stroke="black" stroke-width="1.5" stroke-linecap="round" stroke-linejoin="round"/>
</g>
</g>
<defs>
<clipPath id="clip0_47_149411">
<rect width="20" height="20" fill="white"/>
</clipPath>
</defs>
</svg>
