<svg width="21" height="21" viewBox="0 0 21 21" fill="none" xmlns="http://www.w3.org/2000/svg">
<path d="M15.3733 1.44653H5.62333C4.85408 1.44653 4.23047 2.07014 4.23047 2.83939V18.1608C4.23047 18.9301 4.85408 19.5537 5.62333 19.5537H15.3733C16.1426 19.5537 16.7662 18.9301 16.7662 18.1608V2.83939C16.7662 2.07014 16.1426 1.44653 15.3733 1.44653Z" stroke="black" stroke-width="1.5" stroke-linecap="round" stroke-linejoin="round"/>
<path d="M14.8438 1.44653L14.2448 3.8701C14.1686 4.17915 13.9888 4.45275 13.7354 4.64535C13.4819 4.83796 13.1702 4.93795 12.852 4.92868H8.10234C7.78417 4.93795 7.47242 4.83796 7.21899 4.64535C6.96556 4.45275 6.78576 4.17915 6.70949 3.8701L6.15234 1.44653" stroke="black" stroke-width="1.5" stroke-linecap="round" stroke-linejoin="round"/>
</svg>
