<svg width="20" height="20" viewBox="0 0 20 20" fill="none" xmlns="http://www.w3.org/2000/svg">
<g id="iris-scan-1" clip-path="url(#clip0_47_145338)">
<g id="iris-scan--identification-retina-secure-security-iris-scan-eye-brackets">
<path id="Vector" d="M18.5893 14.625V17.2679C18.5893 17.6183 18.45 17.9545 18.2022 18.2022C17.9545 18.45 17.6183 18.5893 17.2679 18.5893H14.625" stroke="black" stroke-width="1.5" stroke-linecap="round" stroke-linejoin="round"/>
<path id="Vector_2" d="M14.625 1.41064H17.2679C17.6183 1.41064 17.9545 1.54987 18.2022 1.79768C18.45 2.0455 18.5893 2.3816 18.5893 2.73207V5.37493" stroke="black" stroke-width="1.5" stroke-linecap="round" stroke-linejoin="round"/>
<path id="Vector_3" d="M1.41016 5.37493V2.73207C1.41016 2.3816 1.54938 2.0455 1.79719 1.79768C2.04501 1.54987 2.38112 1.41064 2.73158 1.41064H5.37444" stroke="black" stroke-width="1.5" stroke-linecap="round" stroke-linejoin="round"/>
<path id="Vector_4" d="M5.37444 18.5893H2.73158C2.38112 18.5893 2.04501 18.45 1.79719 18.2022C1.54938 17.9545 1.41016 17.6183 1.41016 17.2679V14.625" stroke="black" stroke-width="1.5" stroke-linecap="round" stroke-linejoin="round"/>
<path id="Vector_5" d="M15.9475 9.99993C15.9475 9.99993 13.3047 13.9642 10.0011 13.9642C6.69754 13.9642 4.05469 9.99993 4.05469 9.99993C4.05469 9.99993 6.69754 6.03564 10.0011 6.03564C13.3047 6.03564 15.9475 9.99993 15.9475 9.99993Z" stroke="black" stroke-width="1.5" stroke-linecap="round" stroke-linejoin="round"/>
<path id="Vector_6" d="M10.0006 10.6608C10.3655 10.6608 10.6613 10.365 10.6613 10.0001C10.6613 9.63517 10.3655 9.33936 10.0006 9.33936C9.63566 9.33936 9.33984 9.63517 9.33984 10.0001C9.33984 10.365 9.63566 10.6608 10.0006 10.6608Z" stroke="black" stroke-width="1.5" stroke-linecap="round" stroke-linejoin="round"/>
</g>
</g>
<defs>
<clipPath id="clip0_47_145338">
<rect width="20" height="20" fill="white"/>
</clipPath>
</defs>
</svg>
