<svg width="21" height="21" viewBox="0 0 21 21" fill="none" xmlns="http://www.w3.org/2000/svg">
<g clip-path="url(#clip0_146_399792)">
<path d="M12.5898 16.0715L16.072 7.46362L19.5541 16.0715M12.5898 16.0715C12.5898 16.995 12.9567 17.8807 13.6097 18.5337C14.2628 19.1868 15.1485 19.5537 16.072 19.5537C16.9955 19.5537 17.8812 19.1868 18.5343 18.5337C19.1873 17.8807 19.5541 16.995 19.5541 16.0715M12.5898 16.0715H19.5541" stroke="black" stroke-width="1.5" stroke-linecap="round" stroke-linejoin="round"/>
<path d="M1.44531 10.4999L4.92746 2.39343L8.4096 10.4999M1.44531 10.4999C1.44531 11.4234 1.81218 12.3091 2.4652 12.9621C3.11823 13.6151 4.00394 13.982 4.92746 13.982C5.85098 13.982 6.73668 13.6151 7.38971 12.9621C8.04273 12.3091 8.4096 11.4234 8.4096 10.4999M1.44531 10.4999H8.4096" stroke="black" stroke-width="1.5" stroke-linecap="round" stroke-linejoin="round"/>
<path d="M18.1613 8.4107L2.83984 1.44641" stroke="black" stroke-width="1.5" stroke-linecap="round" stroke-linejoin="round"/>
<path d="M10.5 4.92855V1.44641" stroke="black" stroke-width="1.5" stroke-linecap="round" stroke-linejoin="round"/>
</g>
<defs>
<clipPath id="clip0_146_399792">
<rect width="21" height="21" fill="white"/>
</clipPath>
</defs>
</svg>
