<svg width="21" height="21" viewBox="0 0 21 21" fill="none" xmlns="http://www.w3.org/2000/svg">
<path d="M7.01562 18.8572H13.9799" stroke="black" stroke-width="1.5" stroke-linecap="round" stroke-linejoin="round"/>
<path d="M1.79353 19.2053C1.60121 19.2053 1.44531 19.0495 1.44531 18.8571C1.44531 18.6648 1.60121 18.5089 1.79353 18.5089" stroke="black" stroke-width="1.5" stroke-linecap="round" stroke-linejoin="round"/>
<path d="M1.79297 19.2053C1.98528 19.2053 2.14118 19.0495 2.14118 18.8571C2.14118 18.6648 1.98528 18.5089 1.79297 18.5089" stroke="black" stroke-width="1.5" stroke-linecap="round" stroke-linejoin="round"/>
<path d="M19.2037 19.2053C19.0113 19.2053 18.8555 19.0495 18.8555 18.8571C18.8555 18.6648 19.0113 18.5089 19.2037 18.5089" stroke="black" stroke-width="1.5" stroke-linecap="round" stroke-linejoin="round"/>
<path d="M19.2031 19.2053C19.3955 19.2053 19.5513 19.0495 19.5513 18.8571C19.5513 18.6648 19.3955 18.5089 19.2031 18.5089" stroke="black" stroke-width="1.5" stroke-linecap="round" stroke-linejoin="round"/>
<path d="M10.8488 10.1519C10.8488 10.3442 10.6929 10.5001 10.5006 10.5001C10.3082 10.5001 10.1523 10.3442 10.1523 10.1519" stroke="black" stroke-width="1.5" stroke-linecap="round" stroke-linejoin="round"/>
<path d="M10.8488 10.1518C10.8488 9.95949 10.6929 9.80359 10.5006 9.80359C10.3082 9.80359 10.1523 9.95949 10.1523 10.1518" stroke="black" stroke-width="1.5" stroke-linecap="round" stroke-linejoin="round"/>
<path d="M16.899 12.9478C16.7631 13.0838 16.5426 13.0838 16.4066 12.9478C16.2707 12.8118 16.2707 12.5913 16.4066 12.4553" stroke="black" stroke-width="1.5" stroke-linecap="round" stroke-linejoin="round"/>
<path d="M16.8986 12.9478C17.0347 12.8118 17.0347 12.5914 16.8986 12.4554C16.7627 12.3194 16.5422 12.3194 16.4062 12.4554" stroke="black" stroke-width="1.5" stroke-linecap="round" stroke-linejoin="round"/>
<path d="M4.5901 12.4552C4.72609 12.5912 4.72609 12.8117 4.5901 12.9477C4.45412 13.0836 4.23364 13.0836 4.09766 12.9477" stroke="black" stroke-width="1.5" stroke-linecap="round" stroke-linejoin="round"/>
<path d="M4.59053 12.4553C4.45454 12.3193 4.23407 12.3193 4.09808 12.4553C3.9621 12.5912 3.9621 12.8117 4.09808 12.9477" stroke="black" stroke-width="1.5" stroke-linecap="round" stroke-linejoin="round"/>
</svg>
