<svg width="20" height="20" viewBox="0 0 20 20" fill="none" xmlns="http://www.w3.org/2000/svg">
<g id="keyhole-lock-square" clip-path="url(#clip0_47_146100)">
<g id="keyhole-lock-square--square-frame-key-keyhole-lock-locked-secure-security">
<path id="Vector" d="M17.2673 1.41113H2.73158C2.00178 1.41113 1.41016 2.00276 1.41016 2.73256V17.2683C1.41016 17.9981 2.00178 18.5897 2.73158 18.5897H17.2673C17.9971 18.5897 18.5887 17.9981 18.5887 17.2683V2.73256C18.5887 2.00276 17.9971 1.41113 17.2673 1.41113Z" stroke="black" stroke-width="1.5" stroke-linecap="round" stroke-linejoin="round"/>
<path id="Vector_2" d="M9.99777 10.6616C11.0925 10.6616 11.9799 9.77412 11.9799 8.67941C11.9799 7.5847 11.0925 6.69727 9.99777 6.69727C8.90306 6.69727 8.01562 7.5847 8.01562 8.67941C8.01562 9.77412 8.90306 10.6616 9.99777 10.6616Z" stroke="black" stroke-width="1.5" stroke-linecap="round" stroke-linejoin="round"/>
<path id="Vector_3" d="M10 10.6611V13.304" stroke="black" stroke-width="1.5" stroke-linecap="round" stroke-linejoin="round"/>
</g>
</g>
<defs>
<clipPath id="clip0_47_146100">
<rect width="20" height="20" fill="white"/>
</clipPath>
</defs>
</svg>
