<svg width="21" height="21" viewBox="0 0 21 21" fill="none" xmlns="http://www.w3.org/2000/svg">
<g clip-path="url(#clip0_146_398852)">
<path d="M2.83817 19.5536H18.1596C18.9289 19.5536 19.5525 18.93 19.5525 18.1607V7.01786C19.5525 6.2486 18.9289 5.625 18.1596 5.625H2.83817C2.06892 5.625 1.44531 6.2486 1.44531 7.01786V18.1607C1.44531 18.93 2.06892 19.5536 2.83817 19.5536Z" stroke="black" stroke-width="1.5" stroke-linecap="round" stroke-linejoin="round"/>
<path d="M6.09766 19.5536L13.3544 12.7564C13.4796 12.6522 13.6373 12.5951 13.8002 12.5951C13.963 12.5951 14.1207 12.6522 14.2459 12.7564L19.5527 16.5728" stroke="black" stroke-width="1.5" stroke-linecap="round" stroke-linejoin="round"/>
<path d="M7.01507 13.2857C8.16895 13.2857 9.10435 12.3503 9.10435 11.1965C9.10435 10.0426 8.16895 9.10718 7.01507 9.10718C5.86118 9.10718 4.92578 10.0426 4.92578 11.1965C4.92578 12.3503 5.86118 13.2857 7.01507 13.2857Z" stroke="black" stroke-width="1.5" stroke-linecap="round" stroke-linejoin="round"/>
<path d="M6.32031 5.62498L10.4989 1.44641L14.6775 5.62498" stroke="black" stroke-width="1.5" stroke-linecap="round" stroke-linejoin="round"/>
</g>
<defs>
<clipPath id="clip0_146_398852">
<rect width="21" height="21" fill="white"/>
</clipPath>
</defs>
</svg>
