<svg width="21" height="21" viewBox="0 0 21 21" fill="none" xmlns="http://www.w3.org/2000/svg">
<path d="M2.83817 17.4643H18.1596C18.9289 17.4643 19.5525 16.8408 19.5525 16.0715V4.92862C19.5525 4.15936 18.9289 3.53577 18.1596 3.53577H2.83817C2.06892 3.53577 1.44531 4.15936 1.44531 4.92862V16.0715C1.44531 16.8408 2.06892 17.4643 2.83817 17.4643Z" stroke="black" stroke-width="1.5" stroke-linecap="round" stroke-linejoin="round"/>
<path d="M10.4994 8.70872C11.2909 8.70872 11.9325 8.06713 11.9325 7.27569C11.9325 6.48424 11.2909 5.84265 10.4994 5.84265C9.708 5.84265 9.06641 6.48424 9.06641 7.27569C9.06641 8.06713 9.708 8.70872 10.4994 8.70872Z" stroke="black" stroke-width="1.5" stroke-linecap="round" stroke-linejoin="round"/>
<path d="M13.0078 11.2166C13.0078 10.5514 12.7436 9.91356 12.2733 9.44326C11.803 8.97295 11.1651 8.70874 10.5 8.70874C9.8349 8.70874 9.19702 8.97295 8.72671 9.44326C8.25641 9.91356 7.99219 10.5514 7.99219 11.2166V12.2913H9.06697L9.42523 15.1573H11.5748L11.933 12.2913H13.0078V11.2166Z" stroke="black" stroke-width="1.5" stroke-linecap="round" stroke-linejoin="round"/>
</svg>
