<svg width="21" height="21" viewBox="0 0 21 21" fill="none" xmlns="http://www.w3.org/2000/svg">
<g clip-path="url(#clip0_146_401181)">
<path d="M19.553 4.58034C19.553 6.31445 16.4191 10.5 16.4191 10.5C16.4191 10.5 13.2852 6.31445 13.2852 4.58034C13.2852 3.74917 13.6153 2.95205 14.2031 2.36432C14.7908 1.77659 15.588 1.44641 16.4191 1.44641C17.2502 1.44641 18.0473 1.77659 18.6351 2.36432C19.2228 2.95205 19.553 3.74917 19.553 4.58034Z" stroke="black" stroke-width="1.5" stroke-linecap="round" stroke-linejoin="round"/>
<path d="M16.4188 4.92873C16.2263 4.92873 16.0703 4.77269 16.0703 4.58021C16.0703 4.38772 16.2263 4.23169 16.4188 4.23169" stroke="black" stroke-width="1.5" stroke-linecap="round" stroke-linejoin="round"/>
<path d="M16.418 4.92861C16.6105 4.92861 16.7665 4.77258 16.7665 4.58009C16.7665 4.38761 16.6105 4.23157 16.418 4.23157" stroke="black" stroke-width="1.5" stroke-linecap="round" stroke-linejoin="round"/>
<path d="M4.19653 13.8429L1.6894 17.4643C1.41083 17.8822 1.41083 18.4393 1.6894 18.8572C1.96797 19.275 2.38582 19.5536 2.80368 19.5536H17.8465C18.6822 19.5536 19.2394 18.9964 19.2394 18.1607C19.2394 17.8822 19.2394 17.7429 19.1001 17.4643L16.5929 13.8429H4.19653Z" stroke="black" stroke-width="1.5" stroke-linecap="round" stroke-linejoin="round"/>
<path d="M10.4632 5.48572H5.58817C4.75246 5.48572 4.19531 6.04286 4.19531 6.87857V13.8429" stroke="black" stroke-width="1.5" stroke-linecap="round" stroke-linejoin="round"/>
</g>
<defs>
<clipPath id="clip0_146_401181">
<rect width="21" height="21" fill="white"/>
</clipPath>
</defs>
</svg>
