<svg width="21" height="21" viewBox="0 0 21 21" fill="none" xmlns="http://www.w3.org/2000/svg">
<g clip-path="url(#clip0_146_401160)">
<path d="M4.19654 13.8427L1.6894 17.4641C1.41083 17.8819 1.41083 18.4391 1.6894 18.8569C1.96797 19.2748 2.38582 19.5534 2.80368 19.5534H17.8465C18.6823 19.5534 19.2394 18.9962 19.2394 18.1605C19.2394 17.8819 19.2394 17.7427 19.1001 17.4641L16.593 13.8427H4.19654Z" stroke="black" stroke-width="1.5" stroke-linecap="round" stroke-linejoin="round"/>
<path d="M16.5938 13.8428V12.5892" stroke="black" stroke-width="1.5" stroke-linecap="round" stroke-linejoin="round"/>
<path d="M7.71214 5.4856H5.58817C4.75246 5.4856 4.19531 6.04274 4.19531 6.87845V13.8427" stroke="black" stroke-width="1.5" stroke-linecap="round" stroke-linejoin="round"/>
<path d="M11.1953 3.88391L15.3739 1.44641L19.5525 3.88391V8.06248L15.3739 10.5L11.1953 8.06248V3.88391Z" stroke="black" stroke-width="1.5" stroke-linecap="round" stroke-linejoin="round"/>
<path d="M14.6797 5.97316C14.6797 6.15787 14.7531 6.33501 14.8837 6.46561C15.0143 6.59622 15.1914 6.66959 15.3761 6.66959C15.5608 6.66959 15.738 6.59622 15.8686 6.46561C15.9992 6.33501 16.0725 6.15787 16.0725 5.97316C16.0725 5.78846 15.9992 5.61132 15.8686 5.48071C15.738 5.35011 15.5608 5.27673 15.3761 5.27673C15.1914 5.27673 15.0143 5.35011 14.8837 5.48071C14.7531 5.61132 14.6797 5.78846 14.6797 5.97316Z" stroke="black" stroke-width="1.5" stroke-linecap="round" stroke-linejoin="round"/>
</g>
<defs>
<clipPath id="clip0_146_401160">
<rect width="21" height="21" fill="white"/>
</clipPath>
</defs>
</svg>
