<svg width="21" height="21" viewBox="0 0 21 21" fill="none" xmlns="http://www.w3.org/2000/svg">
<path d="M4.19654 13.8428L1.6894 17.4642C1.41083 17.8821 1.41083 18.4392 1.6894 18.8571C1.96797 19.2749 2.38582 19.5535 2.80368 19.5535H17.8465C18.6823 19.5535 19.2394 18.9963 19.2394 18.1606C19.2394 17.8821 19.2394 17.7428 19.1001 17.4642L16.593 13.8428H4.19654Z" stroke="black" stroke-width="1.5" stroke-linecap="round" stroke-linejoin="round"/>
<path d="M16.5938 13.8428V12.5892" stroke="black" stroke-width="1.5" stroke-linecap="round" stroke-linejoin="round"/>
<path d="M6.31928 5.4856H5.58817C4.75246 5.4856 4.19531 6.04274 4.19531 6.87845V13.8427" stroke="black" stroke-width="1.5" stroke-linecap="round" stroke-linejoin="round"/>
<path d="M14.592 10.5185L10.4134 6.64637C8.07344 4.36208 11.4442 -0.0672059 14.592 3.49851C17.7399 -0.0672059 21.1106 4.36208 18.7706 6.64637L14.592 10.5185Z" stroke="black" stroke-width="1.5" stroke-linecap="round" stroke-linejoin="round"/>
</svg>
