<svg width="21" height="21" viewBox="0 0 21 21" fill="none" xmlns="http://www.w3.org/2000/svg">
<g clip-path="url(#clip0_146_398886)">
<path d="M19.5508 4.92855C19.5508 4.55914 19.404 4.20487 19.1428 3.94365C18.8817 3.68245 18.5273 3.5357 18.1579 3.5357H17.4615L16.0686 1.44641H13.2829L11.8901 3.5357H11.1936C10.8242 3.5357 10.47 3.68245 10.2087 3.94365C9.94753 4.20487 9.80078 4.55914 9.80078 4.92855V8.4107C9.80078 8.78011 9.94753 9.13438 10.2087 9.3956C10.47 9.6568 10.8242 9.80355 11.1936 9.80355H18.1579C18.5273 9.80355 18.8817 9.6568 19.1428 9.3956C19.404 9.13438 19.5508 8.78011 19.5508 8.4107V4.92855Z" stroke="black" stroke-width="1.5" stroke-linecap="round" stroke-linejoin="round"/>
<path d="M3.53429 13.9822L1.59822 17.534C1.49137 17.746 1.4405 17.9818 1.45044 18.2191C1.46038 18.4563 1.53079 18.687 1.655 18.8894C1.7792 19.0917 1.95307 19.259 2.16009 19.3752C2.36713 19.4915 2.60043 19.5529 2.83786 19.5536H16.7664C17.0039 19.5529 17.2372 19.4915 17.4442 19.3752C17.6512 19.259 17.8251 19.0917 17.9492 18.8894C18.0735 18.687 18.144 18.4563 18.1539 18.2191C18.1637 17.9818 18.1129 17.746 18.0061 17.534L16.07 13.9822H3.53429Z" stroke="black" stroke-width="1.5" stroke-linecap="round" stroke-linejoin="round"/>
<path d="M6.32087 5.625H4.92801C4.5586 5.625 4.20433 5.77175 3.94311 6.03295C3.68191 6.29417 3.53516 6.64844 3.53516 7.01786V13.9821" stroke="black" stroke-width="1.5" stroke-linecap="round" stroke-linejoin="round"/>
<path d="M14.6786 6.84372C14.3901 6.84372 14.1562 6.60987 14.1562 6.32139C14.1562 6.03292 14.3901 5.79907 14.6786 5.79907" stroke="black" stroke-width="1.5" stroke-linecap="round" stroke-linejoin="round"/>
<path d="M14.6797 6.84372C14.9683 6.84372 15.202 6.60987 15.202 6.32139C15.202 6.03292 14.9683 5.79907 14.6797 5.79907" stroke="black" stroke-width="1.5" stroke-linecap="round" stroke-linejoin="round"/>
</g>
<defs>
<clipPath id="clip0_146_398886">
<rect width="21" height="21" fill="white"/>
</clipPath>
</defs>
</svg>
