<svg width="21" height="21" viewBox="0 0 21 21" fill="none" xmlns="http://www.w3.org/2000/svg">
<g clip-path="url(#clip0_146_401198)">
<path d="M4.19654 13.8427L1.6894 17.4641C1.41083 17.8819 1.41083 18.4391 1.6894 18.8569C1.96797 19.2748 2.38582 19.5534 2.80368 19.5534H17.8465C18.6823 19.5534 19.2394 18.9962 19.2394 18.1605C19.2394 17.8819 19.2394 17.7427 19.1001 17.4641L16.593 13.8427H4.19654Z" stroke="black" stroke-width="1.5" stroke-linecap="round" stroke-linejoin="round"/>
<path d="M16.5938 13.8428V13.2856" stroke="black" stroke-width="1.5" stroke-linecap="round" stroke-linejoin="round"/>
<path d="M8.40857 5.4856H5.58817C4.75246 5.4856 4.19531 6.04274 4.19531 6.87845V13.8427" stroke="black" stroke-width="1.5" stroke-linecap="round" stroke-linejoin="round"/>
<path d="M19.4419 9.32447C19.5103 9.45066 19.546 9.59188 19.546 9.73536C19.546 9.87884 19.5103 10.0201 19.4419 10.1463C19.3778 10.272 19.2801 10.3776 19.1596 10.4514C19.0392 10.5251 18.9006 10.5641 18.7594 10.5641H10.5834C10.4422 10.5641 10.3037 10.5251 10.1832 10.4514C10.0628 10.3776 9.96509 10.272 9.90089 10.1463C9.83263 10.0201 9.79688 9.87884 9.79688 9.73536C9.79688 9.59188 9.83263 9.45066 9.90089 9.32447L14.0098 1.91447C14.0663 1.77609 14.1627 1.65766 14.2867 1.5743C14.4107 1.49093 14.5568 1.44641 14.7062 1.44641C14.8556 1.44641 15.0018 1.49093 15.1259 1.5743C15.2498 1.65766 15.3462 1.77609 15.4026 1.91447L19.4419 9.32447Z" stroke="black" stroke-width="1.5" stroke-linecap="round" stroke-linejoin="round"/>
<path d="M14.6797 6.38529V4.99243" stroke="black" stroke-width="1.5" stroke-linecap="round" stroke-linejoin="round"/>
<path d="M14.6703 8.64911C14.5741 8.64911 14.4961 8.57111 14.4961 8.47489C14.4961 8.37866 14.5741 8.30066 14.6703 8.30066" stroke="black" stroke-width="1.5" stroke-linecap="round" stroke-linejoin="round"/>
<path d="M14.6719 8.64899C14.7681 8.64899 14.8461 8.57099 14.8461 8.47476C14.8461 8.37854 14.7681 8.30054 14.6719 8.30054" stroke="black" stroke-width="1.5" stroke-linecap="round" stroke-linejoin="round"/>
</g>
<defs>
<clipPath id="clip0_146_401198">
<rect width="21" height="21" fill="white"/>
</clipPath>
</defs>
</svg>
