<svg width="21" height="21" viewBox="0 0 21 21" fill="none" xmlns="http://www.w3.org/2000/svg">
<g clip-path="url(#clip0_146_401167)">
<path d="M4.19654 13.8427L1.6894 17.4641C1.41083 17.8819 1.41083 18.4391 1.6894 18.8569C1.96797 19.2748 2.38582 19.5534 2.80368 19.5534H17.8465C18.6823 19.5534 19.2394 18.9962 19.2394 18.1605C19.2394 17.8819 19.2394 17.7427 19.1001 17.4641L16.593 13.8427H4.19654Z" stroke="black" stroke-width="1.5" stroke-linecap="round" stroke-linejoin="round"/>
<path d="M16.5938 13.8428V13.2856" stroke="black" stroke-width="1.5" stroke-linecap="round" stroke-linejoin="round"/>
<path d="M8.40857 5.4856H5.58817C4.75246 5.4856 4.19531 6.04274 4.19531 6.87845V13.8427" stroke="black" stroke-width="1.5" stroke-linecap="round" stroke-linejoin="round"/>
<path d="M14.1346 2.67171L14.4356 1.89452C14.4864 1.76293 14.5758 1.64975 14.6919 1.56979C14.8081 1.48983 14.9457 1.44683 15.0868 1.44641H15.6609C15.802 1.44683 15.9397 1.48983 16.0558 1.56979C16.172 1.64975 16.2613 1.76293 16.3121 1.89452L16.6132 2.67171L17.6355 3.25986L18.4616 3.13382C18.5992 3.11515 18.7392 3.1378 18.8638 3.19888C18.9886 3.25997 19.0922 3.35674 19.1618 3.4769L19.4419 3.96702C19.5136 4.08909 19.5467 4.23006 19.5367 4.37131C19.5267 4.51256 19.4742 4.64748 19.3859 4.75822L18.8747 5.40937V6.58566L19.3998 7.23682C19.4881 7.34756 19.5407 7.48247 19.5506 7.62372C19.5607 7.76497 19.5277 7.90594 19.4559 8.02801L19.1758 8.51813C19.1063 8.63829 19.0025 8.73506 18.8779 8.79616C18.7532 8.85723 18.6132 8.87988 18.4756 8.86122L17.6494 8.73518L16.6272 9.32332L16.3262 10.1005C16.2753 10.2321 16.1861 10.3453 16.0697 10.4252C15.9536 10.5052 15.816 10.5482 15.675 10.5486H15.0868C14.9457 10.5482 14.8081 10.5052 14.6919 10.4252C14.5758 10.3453 14.4864 10.2321 14.4356 10.1005L14.1346 9.32332L13.1123 8.73518L12.2861 8.86122C12.1485 8.87988 12.0085 8.85723 11.8839 8.79616C11.7592 8.73506 11.6555 8.63829 11.586 8.51813L11.3059 8.02801C11.2341 7.90594 11.2011 7.76497 11.2111 7.62372C11.2211 7.48247 11.2737 7.34756 11.3619 7.23682L11.873 6.58566V5.40937L11.3479 4.75822C11.2597 4.64748 11.207 4.51256 11.1971 4.37131C11.1871 4.23006 11.2201 4.08909 11.2919 3.96702L11.5719 3.4769C11.6415 3.35674 11.7452 3.25997 11.8699 3.19888C11.9945 3.1378 12.1346 3.11515 12.2721 3.13382L13.0983 3.25986L14.1346 2.67171Z" stroke="black" stroke-width="1.5" stroke-linecap="round" stroke-linejoin="round"/>
<path d="M14.6797 5.99831C14.6797 6.18301 14.7531 6.36015 14.8837 6.49076C15.0143 6.62136 15.1914 6.69474 15.3761 6.69474C15.5608 6.69474 15.738 6.62136 15.8686 6.49076C15.9992 6.36015 16.0725 6.18301 16.0725 5.99831C16.0725 5.8136 15.9992 5.63647 15.8686 5.50586C15.738 5.37525 15.5608 5.30188 15.3761 5.30188C15.1914 5.30188 15.0143 5.37525 14.8837 5.50586C14.7531 5.63647 14.6797 5.8136 14.6797 5.99831Z" stroke="black" stroke-width="1.5" stroke-linecap="round" stroke-linejoin="round"/>
</g>
<defs>
<clipPath id="clip0_146_401167">
<rect width="21" height="21" fill="white"/>
</clipPath>
</defs>
</svg>
