<svg width="21" height="21" viewBox="0 0 21 21" fill="none" xmlns="http://www.w3.org/2000/svg">
<g clip-path="url(#clip0_146_402277)">
<path d="M4.19654 13.8428L1.6894 17.4642C1.41083 17.8821 1.41083 18.4392 1.6894 18.8571C1.96797 19.2749 2.38582 19.5535 2.80368 19.5535H17.8465C18.6823 19.5535 19.2394 18.9963 19.2394 18.1606C19.2394 17.8821 19.2394 17.7428 19.1001 17.4642L16.593 13.8428H4.19654Z" stroke="black" stroke-width="1.5" stroke-linecap="round" stroke-linejoin="round"/>
<path d="M16.5938 13.8431V11.8931" stroke="black" stroke-width="1.5" stroke-linecap="round" stroke-linejoin="round"/>
<path d="M6.98103 5.4856H5.58817C4.75246 5.4856 4.19531 6.04274 4.19531 6.87845V13.8427" stroke="black" stroke-width="1.5" stroke-linecap="round" stroke-linejoin="round"/>
<path d="M10.5011 5.58993C10.0703 5.15029 9.80469 4.54819 9.80469 3.88403C9.80469 2.53784 10.896 1.44653 12.2422 1.44653H14.3315C15.6777 1.44653 16.769 2.53784 16.769 3.88403C16.769 4.85639 16.1996 5.69576 15.3761 6.08696" stroke="black" stroke-width="1.5" stroke-linecap="round" stroke-linejoin="round"/>
<path d="M18.8577 4.61568C19.2885 5.05532 19.5541 5.65743 19.5541 6.32158C19.5541 7.66778 18.4628 8.75908 17.1166 8.75908H15.0273C13.6811 8.75908 12.5898 7.66778 12.5898 6.32158C12.5898 5.34923 13.1592 4.50985 13.9827 4.11865" stroke="black" stroke-width="1.5" stroke-linecap="round" stroke-linejoin="round"/>
</g>
<defs>
<clipPath id="clip0_146_402277">
<rect width="21" height="21" fill="white"/>
</clipPath>
</defs>
</svg>
