<svg width="21" height="21" viewBox="0 0 21 21" fill="none" xmlns="http://www.w3.org/2000/svg">
<g clip-path="url(#clip0_146_401142)">
<path d="M16.9678 13.0863H18.2611C18.9753 13.0863 19.5543 12.5073 19.5543 11.793V2.74016C19.5543 2.02591 18.9753 1.4469 18.2611 1.4469H5.32842C4.61417 1.4469 4.03516 2.02591 4.03516 2.74016V4.68006" stroke="black" stroke-width="1.5" stroke-linecap="round" stroke-linejoin="round"/>
<path d="M2.74439 15.0266L1.62153 17.6182C1.12886 18.4802 1.7514 19.553 2.74439 19.553H13.0886C14.0816 19.553 14.7042 18.4802 14.2115 17.6182L13.0886 15.0266" stroke="black" stroke-width="1.5" stroke-linecap="round" stroke-linejoin="round"/>
<path d="M2.74219 15.0271V9.85392C2.74219 9.13968 3.3212 8.56067 4.03544 8.56067H11.795C12.5093 8.56067 13.0883 9.13968 13.0883 9.85392V15.0271H2.74219Z" stroke="black" stroke-width="1.5" stroke-linecap="round" stroke-linejoin="round"/>
</g>
<defs>
<clipPath id="clip0_146_401142">
<rect width="21" height="21" fill="white"/>
</clipPath>
</defs>
</svg>
