<svg width="20" height="20" viewBox="0 0 20 20" fill="none" xmlns="http://www.w3.org/2000/svg">
<g id="layers-2">
<g id="layers-2--design-layer-layers-pile-stack-align">
<path id="Vector" d="M17.2656 2.73214H9.33705C8.60726 2.73214 8.01562 3.32377 8.01562 4.05357V9.33928C8.01562 10.0691 8.60726 10.6607 9.33705 10.6607H17.2656C17.9955 10.6607 18.5871 10.0691 18.5871 9.33928V4.05357C18.5871 3.32377 17.9955 2.73214 17.2656 2.73214Z" stroke="black" stroke-width="1.5" stroke-linecap="round" stroke-linejoin="round"/>
<path id="Vector_2" d="M15.2863 13.9643H6.03627C5.6858 13.9643 5.3497 13.8251 5.10188 13.5773C4.85407 13.3294 4.71484 12.9933 4.71484 12.6429V6.03571" stroke="black" stroke-width="1.5" stroke-linecap="round" stroke-linejoin="round"/>
<path id="Vector_3" d="M12.6423 17.2679H2.73158C2.38112 17.2679 2.04501 17.1286 1.79719 16.8808C1.54938 16.633 1.41016 16.2969 1.41016 15.9464V8.67857" stroke="black" stroke-width="1.5" stroke-linecap="round" stroke-linejoin="round"/>
</g>
</g>
</svg>
