<svg width="20" height="20" viewBox="0 0 20 20" fill="none" xmlns="http://www.w3.org/2000/svg">
<g id="layers-1-29" clip-path="url(#clip0_47_142113)">
<g id="layers-1--design-layer-layers-pile-stack-align">
<path id="Vector" d="M10.6224 9.86796C10.4264 9.95308 10.215 9.99699 10.0014 9.99699C9.78769 9.99699 9.5763 9.95308 9.3803 9.86796L1.84815 6.37939C1.72585 6.31771 1.62306 6.22328 1.55124 6.10662C1.47943 5.98997 1.44141 5.85567 1.44141 5.71868C1.44141 5.5817 1.47943 5.4474 1.55124 5.33075C1.62306 5.21409 1.72585 5.11966 1.84815 5.05796L9.3803 1.54297C9.5763 1.45786 9.78769 1.41394 10.0014 1.41394C10.215 1.41394 10.4264 1.45786 10.6224 1.54297L18.1545 5.03153C18.2769 5.09323 18.3797 5.18766 18.4515 5.30432C18.5234 5.42097 18.5613 5.55527 18.5613 5.69225C18.5613 5.82924 18.5234 5.96354 18.4515 6.08019C18.3797 6.19685 18.2769 6.29128 18.1545 6.35296L10.6224 9.86796Z" stroke="black" stroke-width="1.5" stroke-linecap="round" stroke-linejoin="round"/>
<path id="Vector_2" d="M18.5887 10.4626L10.528 14.1758C10.3559 14.2543 10.1688 14.295 9.97962 14.295C9.79041 14.295 9.60338 14.2543 9.43123 14.1758L1.41016 10.4626" stroke="black" stroke-width="1.5" stroke-linecap="round" stroke-linejoin="round"/>
<path id="Vector_3" d="M18.5887 14.7573L10.528 18.4705C10.3559 18.549 10.1688 18.5897 9.97962 18.5897C9.79041 18.5897 9.60338 18.549 9.43123 18.4705L1.41016 14.7573" stroke="black" stroke-width="1.5" stroke-linecap="round" stroke-linejoin="round"/>
</g>
</g>
<defs>
<clipPath id="clip0_47_142113">
<rect width="20" height="20" fill="white"/>
</clipPath>
</defs>
</svg>
