<svg width="20" height="20" viewBox="0 0 20 20" fill="none" xmlns="http://www.w3.org/2000/svg">
<g id="light-display-mode-2" clip-path="url(#clip0_47_145981)">
<g id="light-display-mode">
<path id="Ellipse 18" d="M6.91797 10.0009C6.91797 10.8185 7.24277 11.6026 7.82093 12.1808C8.39908 12.759 9.18323 13.0838 10.0009 13.0838C10.8185 13.0838 11.6026 12.759 12.1808 12.1808C12.759 11.6026 13.0838 10.8185 13.0838 10.0009C13.0838 9.18323 12.759 8.39908 12.1808 7.82093C11.6026 7.24277 10.8185 6.91797 10.0009 6.91797C9.18323 6.91797 8.39908 7.24277 7.82093 7.82093C7.24277 8.39908 6.91797 9.18323 6.91797 10.0009Z" stroke="black" stroke-width="1.5" stroke-linecap="round" stroke-linejoin="round"/>
<path id="Vector 1088" d="M10 4.21875V4.98958" stroke="black" stroke-width="1.5" stroke-linecap="round" stroke-linejoin="round"/>
<path id="Vector 1092" d="M14.088 5.91211L13.543 6.45717" stroke="black" stroke-width="1.5" stroke-linecap="round" stroke-linejoin="round"/>
<path id="Vector 1090" d="M15.7825 10H15.0117" stroke="black" stroke-width="1.5" stroke-linecap="round" stroke-linejoin="round"/>
<path id="Vector 1093" d="M14.088 14.088L13.543 13.543" stroke="black" stroke-width="1.5" stroke-linecap="round" stroke-linejoin="round"/>
<path id="Vector 1089" d="M10 15.7815V15.0107" stroke="black" stroke-width="1.5" stroke-linecap="round" stroke-linejoin="round"/>
<path id="Vector 1094" d="M5.91016 14.088L6.45522 13.543" stroke="black" stroke-width="1.5" stroke-linecap="round" stroke-linejoin="round"/>
<path id="Vector 1091" d="M4.21875 10H4.98958" stroke="black" stroke-width="1.5" stroke-linecap="round" stroke-linejoin="round"/>
<path id="Vector 1095" d="M5.91016 5.91211L6.45522 6.45717" stroke="black" stroke-width="1.5" stroke-linecap="round" stroke-linejoin="round"/>
<path id="Vector" d="M9.99944 18.5897C14.7432 18.5897 18.5887 14.7442 18.5887 10.0004C18.5887 5.25669 14.7432 1.41113 9.99944 1.41113C5.25571 1.41113 1.41016 5.25669 1.41016 10.0004C1.41016 14.7442 5.25571 18.5897 9.99944 18.5897Z" stroke="black" stroke-width="1.5" stroke-linecap="round" stroke-linejoin="round"/>
</g>
</g>
<defs>
<clipPath id="clip0_47_145981">
<rect width="20" height="20" fill="white"/>
</clipPath>
</defs>
</svg>
