<svg width="20" height="20" viewBox="0 0 20 20" fill="none" xmlns="http://www.w3.org/2000/svg">
<g id="lightbulb-on-8">
<g id="lightbulb-on--lighting-light-shine-incandescent-bulb-lights">
<path id="Vector" d="M14.625 11.321C14.628 10.4964 14.4105 9.68585 13.9951 8.9735C13.5796 8.26114 12.9812 7.67283 12.2619 7.26953C11.5425 6.86621 10.7284 6.66258 9.90396 6.67971C9.07946 6.69682 8.27454 6.9341 7.57257 7.36692C6.87062 7.79975 6.29716 8.4124 5.91159 9.1414C5.52604 9.87039 5.34241 10.6892 5.37974 11.513C5.41707 12.3369 5.67398 13.1357 6.12389 13.8269C6.5738 14.5181 7.20031 15.0763 7.93854 15.4439V17.7167C7.94198 17.8511 7.9978 17.9788 8.09407 18.0726C8.19035 18.1664 8.31947 18.2189 8.4539 18.2189H11.546C11.6805 18.2189 11.8096 18.1664 11.9059 18.0726C12.0021 17.9788 12.058 17.8511 12.0614 17.7167V15.4042C12.8229 15.0251 13.465 14.4434 13.9173 13.7231C14.3696 13.0027 14.6144 12.1716 14.625 11.321Z" stroke="black" stroke-width="1.5" stroke-linecap="round" stroke-linejoin="round"/>
<path id="Vector_2" d="M10 1.82031V3.80246" stroke="black" stroke-width="1.5" stroke-linecap="round" stroke-linejoin="round"/>
<path id="Vector_3" d="M15.2874 3.70996L13.8867 5.12389" stroke="black" stroke-width="1.5" stroke-linecap="round" stroke-linejoin="round"/>
<path id="Vector_4" d="M18.2985 7.80664H16.3164" stroke="black" stroke-width="1.5" stroke-linecap="round" stroke-linejoin="round"/>
<path id="Vector_5" d="M4.71484 3.70996L6.11556 5.12389" stroke="black" stroke-width="1.5" stroke-linecap="round" stroke-linejoin="round"/>
<path id="Vector_6" d="M1.70312 7.80664H3.68527" stroke="black" stroke-width="1.5" stroke-linecap="round" stroke-linejoin="round"/>
</g>
</g>
</svg>
