<svg width="20" height="20" viewBox="0 0 20 20" fill="none" xmlns="http://www.w3.org/2000/svg">
<g id="lightning-cloud-20" clip-path="url(#clip0_47_149580)">
<g id="lightning-cloud--cloud-bolt-storm-weather-thunder-meteorology-lightning">
<path id="Vector" d="M16.2676 13.1224C16.7173 12.9723 17.129 12.7265 17.4745 12.4019C17.82 12.0772 18.0909 11.6815 18.2686 11.2421C18.4464 10.8026 18.5267 10.3298 18.5041 9.85628C18.4814 9.38277 18.3564 8.9198 18.1374 8.49931C17.9186 8.0788 17.6111 7.71078 17.2362 7.42062C16.8613 7.13045 16.428 6.92505 15.966 6.81855C15.5041 6.71207 15.0245 6.70704 14.5604 6.80382C14.0964 6.90059 13.6588 7.09686 13.2779 7.3791C13.2786 6.28254 12.9738 5.20747 12.3975 4.2745C11.8213 3.34154 10.9965 2.58762 10.0156 2.09731C9.03477 1.60701 7.9367 1.39972 6.8446 1.4987C5.75251 1.59769 4.70961 1.99903 3.8329 2.65771C2.9562 3.31637 2.28038 4.20631 1.88127 5.22769C1.48216 6.24904 1.37555 7.36141 1.57341 8.43999C1.77127 9.51855 2.26576 10.5207 3.00141 11.3338C3.73705 12.147 4.68476 12.7392 5.73817 13.0438" stroke="black" stroke-width="1.5" stroke-linecap="round" stroke-linejoin="round"/>
<path id="Vector_2" d="M11.31 11.3125L8.6875 14.5906H12.6213L9.99877 18.5245" stroke="black" stroke-width="1.5" stroke-linecap="round" stroke-linejoin="round"/>
</g>
</g>
<defs>
<clipPath id="clip0_47_149580">
<rect width="20" height="20" fill="white"/>
</clipPath>
</defs>
</svg>
