<svg width="20" height="20" viewBox="0 0 20 20" fill="none" xmlns="http://www.w3.org/2000/svg">
<g id="lightbulb-11">
<g id="lightbulb--lighting-light-incandescent-bulb-lights">
<path id="Vector" d="M15.9474 7.39863C15.9548 6.33721 15.6778 5.29317 15.1454 4.3749C14.613 3.45664 13.8445 2.69762 12.9197 2.17665C11.9949 1.65568 10.9475 1.39174 9.88627 1.41224C8.82501 1.43274 7.78859 1.73693 6.8846 2.29324C5.98061 2.84953 5.24201 3.63767 4.74546 4.57581C4.24892 5.51396 4.01253 6.5679 4.06085 7.62826C4.10917 8.6886 4.44043 9.71668 5.02024 10.6058C5.60005 11.4949 6.40728 12.2126 7.35812 12.6843V14.6665C7.35812 14.8417 7.42772 15.0098 7.55163 15.1336C7.67554 15.2576 7.8436 15.3272 8.01884 15.3272H11.9831C12.1583 15.3272 12.3264 15.2576 12.4503 15.1336C12.5742 15.0098 12.6438 14.8417 12.6438 14.6665V12.6843C13.6316 12.1977 14.4641 11.4452 15.0476 10.5115C15.6312 9.57773 15.9428 8.49972 15.9474 7.39863Z" stroke="black" stroke-width="1.5" stroke-linecap="round" stroke-linejoin="round"/>
<path id="Vector_2" d="M7.35938 18.5898H12.6451" stroke="black" stroke-width="1.5" stroke-linecap="round" stroke-linejoin="round"/>
</g>
</g>
</svg>
