<svg width="21" height="21" viewBox="0 0 21 21" fill="none" xmlns="http://www.w3.org/2000/svg">
<g clip-path="url(#clip0_146_398902)">
<path d="M10.4972 16.0714C13.5742 16.0714 16.0686 13.577 16.0686 10.5C16.0686 7.423 13.5742 4.92859 10.4972 4.92859C7.42019 4.92859 4.92578 7.423 4.92578 10.5C4.92578 13.577 7.42019 16.0714 10.4972 16.0714Z" stroke="black" stroke-width="1.5" stroke-linecap="round" stroke-linejoin="round"/>
<path d="M15.7735 12.294C15.2105 12.4854 14.6071 12.5892 13.9794 12.5892C10.9023 12.5892 8.40792 10.0948 8.40792 7.01774C8.40792 6.39011 8.51171 5.78669 8.70306 5.22375C6.50628 5.97054 4.92578 8.0507 4.92578 10.5C4.92578 13.577 7.42019 16.0714 10.4972 16.0714C12.9466 16.0714 15.0268 14.4908 15.7735 12.294Z" stroke="black" stroke-width="1.5" stroke-linecap="round" stroke-linejoin="round"/>
<path d="M14.4375 14.4396L16.8997 16.9018" stroke="black" stroke-width="1.5" stroke-linecap="round" stroke-linejoin="round"/>
<path d="M16.0703 10.5H19.5525" stroke="black" stroke-width="1.5" stroke-linecap="round" stroke-linejoin="round"/>
<path d="M16.8997 4.09814L14.4375 6.5604" stroke="black" stroke-width="1.5" stroke-linecap="round" stroke-linejoin="round"/>
<path d="M10.5 1.44641V4.92855" stroke="black" stroke-width="1.5" stroke-linecap="round" stroke-linejoin="round"/>
<path d="M6.55991 6.5604L4.09766 4.09814" stroke="black" stroke-width="1.5" stroke-linecap="round" stroke-linejoin="round"/>
<path d="M4.92746 10.5H1.44531" stroke="black" stroke-width="1.5" stroke-linecap="round" stroke-linejoin="round"/>
<path d="M6.55991 14.4398L4.09766 16.9021" stroke="black" stroke-width="1.5" stroke-linecap="round" stroke-linejoin="round"/>
<path d="M10.5 16.0714V19.5536" stroke="black" stroke-width="1.5" stroke-linecap="round" stroke-linejoin="round"/>
</g>
<defs>
<clipPath id="clip0_146_398902">
<rect width="21" height="21" fill="white"/>
</clipPath>
</defs>
</svg>
