<svg width="20" height="20" viewBox="0 0 20 20" fill="none" xmlns="http://www.w3.org/2000/svg">
<g id="like-circle-6" clip-path="url(#clip0_47_143247)">
<g id="like-circle--reward-social-up-rating-media-like-thumb-hand">
<path id="Vector" d="M6.28516 8.67864L8.4523 5.16364C8.5375 5.02652 8.65621 4.91332 8.79722 4.83472C8.93824 4.75613 9.09693 4.7147 9.25837 4.71436C9.51071 4.71436 9.7527 4.8146 9.93114 4.99302C10.1096 5.17145 10.2098 5.41344 10.2098 5.66578V8.1765H13.9627C14.1051 8.17845 14.2454 8.21109 14.374 8.27217C14.5027 8.33325 14.6166 8.42133 14.7082 8.53044C14.7998 8.63954 14.8668 8.76708 14.9046 8.90439C14.9424 9.04172 14.9502 9.18555 14.9273 9.32614L14.2534 13.7794C14.2186 14.014 14.1007 14.2284 13.9213 14.3836C13.7419 14.5388 13.5127 14.6244 13.2755 14.6251H6.6948" stroke="black" stroke-width="1.5" stroke-linecap="round" stroke-linejoin="round"/>
<path id="Vector_2" d="M9.99944 1.41077C14.7432 1.41077 18.5887 5.25632 18.5887 10.0001C18.5887 14.7438 14.7432 18.5893 9.99944 18.5893C5.25571 18.5893 1.41016 14.7438 1.41016 10.0001C1.41016 5.25632 5.25571 1.41077 9.99944 1.41077Z" stroke="black" stroke-width="1.5" stroke-linecap="round" stroke-linejoin="round"/>
</g>
</g>
<defs>
<clipPath id="clip0_47_143247">
<rect width="20" height="20" fill="white"/>
</clipPath>
</defs>
</svg>
