<svg width="20" height="20" viewBox="0 0 20 20" fill="none" xmlns="http://www.w3.org/2000/svg">
<g id="like-square-20" clip-path="url(#clip0_47_143251)">
<g id="like-square--reward-social-up-rating-media-like-thumb-hand">
<path id="Vector" d="M17.2673 18.5893H2.73158C2.00178 18.5893 1.41016 17.9977 1.41016 17.2679V2.7322C1.41016 2.00239 2.00178 1.41077 2.73158 1.41077H17.2673C17.9971 1.41077 18.5887 2.00239 18.5887 2.7322V17.2679C18.5887 17.9977 17.9971 18.5893 17.2673 18.5893Z" stroke="black" stroke-width="1.5" stroke-linecap="round" stroke-linejoin="round"/>
<path id="Vector_2" d="M6.03516 8.67864L8.2023 5.16364C8.2875 5.02652 8.4062 4.91332 8.54722 4.83472C8.68823 4.75613 8.84693 4.7147 9.00837 4.71436C9.26071 4.71436 9.5027 4.8146 9.68114 4.99302C9.85956 5.17145 9.9598 5.41344 9.9598 5.66578V8.1765H13.7127C13.8551 8.17845 13.9953 8.21109 14.124 8.27217C14.2527 8.33325 14.3666 8.42133 14.4582 8.53044C14.5498 8.63954 14.6168 8.76708 14.6546 8.90439C14.6924 9.04172 14.7002 9.18555 14.6773 9.32614L14.0034 13.7794C13.9686 14.014 13.8508 14.2284 13.6713 14.3836C13.4919 14.5388 13.2627 14.6244 13.0255 14.6251H6.4448" stroke="black" stroke-width="1.5" stroke-linecap="round" stroke-linejoin="round"/>
</g>
</g>
<defs>
<clipPath id="clip0_47_143251">
<rect width="20" height="20" fill="white"/>
</clipPath>
</defs>
</svg>
