<svg width="20" height="20" viewBox="0 0 20 20" fill="none" xmlns="http://www.w3.org/2000/svg">
<g id="like-2-9">
<g id="like-2--reward-social-up-rating-media-like-thumb-hand">
<path id="Vector" d="M4.62946 8.47377H5.95089L9.18839 3.26734C9.32036 3.05704 9.50355 2.88368 9.7208 2.7635C9.93805 2.64331 10.1823 2.58025 10.4305 2.5802C10.8173 2.58019 11.1884 2.7329 11.4631 3.00513C11.7378 3.27736 11.8938 3.64706 11.8973 4.03377V7.81306H16.9848C17.2043 7.81447 17.4209 7.86299 17.62 7.95534C17.819 8.04768 17.996 8.18168 18.1388 8.34832C18.2816 8.51493 18.387 8.71028 18.4477 8.92114C18.5085 9.13201 18.5235 9.35347 18.4912 9.57056L17.4341 16.0984C17.389 16.4629 17.2123 16.7982 16.9374 17.0415C16.6625 17.2848 16.3081 17.4194 15.9409 17.4198H3.96875" stroke="black" stroke-width="1.5" stroke-linecap="round" stroke-linejoin="round"/>
<path id="Vector_2" d="M1.49219 8.47375V17.4199" stroke="black" stroke-width="1.5" stroke-linecap="round" stroke-linejoin="round"/>
</g>
</g>
</svg>
