<svg width="20" height="20" viewBox="0 0 20 20" fill="none" xmlns="http://www.w3.org/2000/svg">
<g id="link-share-1-8" clip-path="url(#clip0_47_146079)">
<g id="link-share-1--create-hyperlink-link-make-unlink-circle">
<path id="Vector" d="M13.9648 1.41113H18.5898V6.03613" stroke="black" stroke-width="1.5" stroke-linecap="round" stroke-linejoin="round"/>
<path id="Vector_2" d="M18.5882 1.41113L11.3203 8.67899" stroke="black" stroke-width="1.5" stroke-linecap="round" stroke-linejoin="round"/>
<path id="Vector_3" d="M8.0173 5.375C6.71054 5.375 5.43311 5.7625 4.34657 6.4885C3.26004 7.21451 2.41317 8.2464 1.9131 9.4537C1.41302 10.661 1.28218 11.9895 1.53711 13.2711C1.79205 14.5529 2.42133 15.7301 3.34535 16.6541C4.26937 17.5781 5.44666 18.2074 6.72831 18.4623C8.00998 18.7173 9.33845 18.5864 10.5457 18.0863C11.753 17.5863 12.7849 16.7394 13.5109 15.6529C14.237 14.5663 14.6244 13.2889 14.6244 11.9821" stroke="black" stroke-width="1.5" stroke-linecap="round" stroke-linejoin="round"/>
</g>
</g>
<defs>
<clipPath id="clip0_47_146079">
<rect width="20" height="20" fill="white"/>
</clipPath>
</defs>
</svg>
