<svg width="21" height="21" viewBox="0 0 21 21" fill="none" xmlns="http://www.w3.org/2000/svg">
<path d="M2.54566 14.2747C2.28624 14.5356 2.14062 14.8886 2.14062 15.2566C2.14062 15.6246 2.28624 15.9776 2.54566 16.2386L5.45673 19.1497C5.7177 19.4092 6.07071 19.5547 6.43869 19.5547C6.80667 19.5547 7.15969 19.4092 7.42066 19.1497L12.5882 13.9822L7.71316 9.10718L2.54566 14.2747Z" stroke="black" stroke-width="1.5" stroke-linecap="round" stroke-linejoin="round"/>
<path d="M8.46484 9.85919L16.4738 1.85025C16.6696 1.65699 16.9184 1.52606 17.1886 1.47401C17.4588 1.42195 17.7383 1.45109 17.992 1.55775C18.2463 1.66225 18.464 1.83969 18.6178 2.06773C18.7714 2.29577 18.8542 2.5642 18.8556 2.83919V5.86169C18.8567 6.04499 18.8214 6.2267 18.7522 6.39641C18.6828 6.56611 18.5807 6.72047 18.4516 6.85062L11.8913 13.2856" stroke="black" stroke-width="1.5" stroke-linecap="round" stroke-linejoin="round"/>
<path d="M11.9492 6.3772L15.4314 9.85934" stroke="black" stroke-width="1.5" stroke-linecap="round" stroke-linejoin="round"/>
</svg>
