<svg width="20" height="20" viewBox="0 0 20 20" fill="none" xmlns="http://www.w3.org/2000/svg">
<g id="liquid-glue-5">
<g id="liquid-glue--glue-company-office-supplies-work">
<path id="Vector" d="M15.9475 11.3215V17.2679C15.9475 17.6184 15.8083 17.9546 15.5605 18.2023C15.3127 18.4501 14.9766 18.5894 14.6261 18.5894H5.37612C5.02565 18.5894 4.68954 18.4501 4.44172 18.2023C4.19391 17.9546 4.05469 17.6184 4.05469 17.2679V11.3215C4.05469 10.4454 4.40274 9.60507 5.02228 8.98553C5.64182 8.366 6.4821 8.01794 7.35826 8.01794H12.644C13.5201 8.01794 14.3604 8.366 14.98 8.98553C15.5995 9.60507 15.9475 10.4454 15.9475 11.3215Z" stroke="black" stroke-width="1.5" stroke-linecap="round" stroke-linejoin="round"/>
<path id="Vector_2" d="M10.6629 1.41077H9.34152L7.35938 8.01791H12.6451L10.6629 1.41077Z" stroke="black" stroke-width="1.5" stroke-linecap="round" stroke-linejoin="round"/>
<path id="Vector_3" d="M4.05469 11.9822H15.9475" stroke="black" stroke-width="1.5" stroke-linecap="round" stroke-linejoin="round"/>
</g>
</g>
</svg>
