<svg width="20" height="20" viewBox="0 0 20 20" fill="none" xmlns="http://www.w3.org/2000/svg">
<g id="loading-horizontal-2-3">
<g id="loading-horizontal-2--progress-loading-dot-load-wait-waiting">
<path id="Vector" d="M9.99777 11.9819C11.0925 11.9819 11.9799 11.0944 11.9799 9.99972C11.9799 8.90501 11.0925 8.01758 9.99777 8.01758C8.90306 8.01758 8.01562 8.90501 8.01562 9.99972C8.01562 11.0944 8.90306 11.9819 9.99777 11.9819Z" stroke="black" stroke-width="1.5" stroke-linecap="round" stroke-linejoin="round"/>
<path id="Vector_2" d="M16.9369 11.6512C17.8493 11.6512 18.5887 10.9117 18.5887 9.99944C18.5887 9.08718 17.8493 8.34766 16.9369 8.34766C16.0246 8.34766 15.2852 9.08718 15.2852 9.99944C15.2852 10.9117 16.0246 11.6512 16.9369 11.6512Z" stroke="black" stroke-width="1.5" stroke-linecap="round" stroke-linejoin="round"/>
<path id="Vector_3" d="M3.06194 11.6512C3.9742 11.6512 4.71373 10.9117 4.71373 9.99944C4.71373 9.08718 3.9742 8.34766 3.06194 8.34766C2.14968 8.34766 1.41016 9.08718 1.41016 9.99944C1.41016 10.9117 2.14968 11.6512 3.06194 11.6512Z" stroke="black" stroke-width="1.5" stroke-linecap="round" stroke-linejoin="round"/>
</g>
</g>
</svg>
