<svg width="21" height="21" viewBox="0 0 21 21" fill="none" xmlns="http://www.w3.org/2000/svg">
<g clip-path="url(#clip0_146_401208)">
<path d="M8.85657 3.47046H2.14174C1.75711 3.47046 1.44531 3.78226 1.44531 4.16689V15.3097C1.44531 15.6944 1.75711 16.0061 2.14174 16.0061H18.856C19.2406 16.0061 19.5525 15.6944 19.5525 15.3097V10.8265" stroke="black" stroke-width="1.5" stroke-linecap="round" stroke-linejoin="round"/>
<path d="M9.1077 16.0061L7.71484 19.4882" stroke="black" stroke-width="1.5" stroke-linecap="round" stroke-linejoin="round"/>
<path d="M11.8906 16.0061L13.2835 19.4882" stroke="black" stroke-width="1.5" stroke-linecap="round" stroke-linejoin="round"/>
<path d="M6.32031 19.4883H14.6775" stroke="black" stroke-width="1.5" stroke-linecap="round" stroke-linejoin="round"/>
<path d="M19.4557 7.87044C19.4557 8.20488 19.1847 8.476 18.8502 8.476H12.2071C12.0465 8.476 11.8925 8.4122 11.7789 8.29863C11.6654 8.18507 11.6016 8.03105 11.6016 7.87044V2.11754C11.6016 1.95694 11.6654 1.80291 11.7789 1.68934C11.8925 1.57578 12.0465 1.51198 12.2071 1.51198H14.4417C14.58 1.50794 14.7155 1.55142 14.8257 1.63516C14.9359 1.71889 15.014 1.83785 15.0472 1.97221L15.2168 2.72311H18.8502C19.0108 2.72311 19.1649 2.78691 19.2784 2.90047C19.3919 3.01405 19.4557 3.16807 19.4557 3.32868V7.87044Z" stroke="black" stroke-width="1.5" stroke-linecap="round" stroke-linejoin="round"/>
</g>
<defs>
<clipPath id="clip0_146_401208">
<rect width="21" height="21" fill="white"/>
</clipPath>
</defs>
</svg>
