<svg width="20" height="20" viewBox="0 0 20 20" fill="none" xmlns="http://www.w3.org/2000/svg">
<path d="M2.81641 8.7351C2.81641 13.5441 7.59333 17.1995 9.35729 18.3853C9.75025 18.6495 10.2531 18.6495 10.6461 18.3853C12.41 17.1995 17.1869 13.5441 17.1869 8.7351C17.1869 4.68991 13.9699 1.41064 10.0017 1.41064C6.03336 1.41064 2.81641 4.68991 2.81641 8.7351Z" stroke="black" stroke-width="1.5" stroke-linecap="round" stroke-linejoin="round"/>
<path d="M10 4.71411V9.33911" stroke="black" stroke-width="1.5" stroke-linecap="round" stroke-linejoin="round"/>
<path d="M10.0022 12.9732C9.81978 12.9732 9.67188 12.8253 9.67188 12.6429C9.67188 12.4604 9.81978 12.3125 10.0022 12.3125" stroke="black" stroke-width="1.5" stroke-linecap="round" stroke-linejoin="round"/>
<path d="M10.0039 12.9732C10.1864 12.9732 10.3343 12.8253 10.3343 12.6429C10.3343 12.4604 10.1864 12.3125 10.0039 12.3125" stroke="black" stroke-width="1.5" stroke-linecap="round" stroke-linejoin="round"/>
</svg>
