<svg width="20" height="20" viewBox="0 0 20 20" fill="none" xmlns="http://www.w3.org/2000/svg">
<path d="M15.9436 7.35707C15.9436 11.3214 9.99721 15.9464 9.99721 15.9464C9.99721 15.9464 4.05078 11.3214 4.05078 7.35707C4.05078 4.11825 6.75839 1.41064 9.99721 1.41064C13.236 1.41064 15.9436 4.11825 15.9436 7.35707Z" stroke="black" stroke-width="1.5" stroke-linecap="round" stroke-linejoin="round"/>
<path d="M9.99777 9.33929C11.0925 9.33929 11.9799 8.45185 11.9799 7.35714C11.9799 6.26243 11.0925 5.375 9.99777 5.375C8.90306 5.375 8.01562 6.26243 8.01562 7.35714C8.01562 8.45185 8.90306 9.33929 9.99777 9.33929Z" stroke="black" stroke-width="1.5" stroke-linecap="round" stroke-linejoin="round"/>
<path d="M4.71317 13.9766C3.09112 14.4605 2.07031 15.1637 2.07031 15.9464C2.07031 17.4061 5.62005 18.5893 9.99888 18.5893C14.3777 18.5893 17.9275 17.4061 17.9275 15.9464C17.9275 15.1637 16.9067 14.4605 15.2846 13.9766" stroke="black" stroke-width="1.5" stroke-linecap="round" stroke-linejoin="round"/>
</svg>
