<svg width="20" height="20" viewBox="0 0 20 20" fill="none" xmlns="http://www.w3.org/2000/svg">
<path d="M2.81641 8.7351C2.81641 13.5441 7.59333 17.1995 9.35729 18.3853C9.75025 18.6495 10.2531 18.6495 10.6461 18.3853C12.41 17.1995 17.1869 13.5441 17.1869 8.7351C17.1869 4.68991 13.9699 1.41064 10.0017 1.41064C6.03336 1.41064 2.81641 4.68991 2.81641 8.7351Z" stroke="black" stroke-width="1.5" stroke-linecap="round" stroke-linejoin="round"/>
<path d="M10 6.03554V4.71411" stroke="black" stroke-width="1.5" stroke-linecap="round" stroke-linejoin="round"/>
<path d="M10 11.9821V13.3035" stroke="black" stroke-width="1.5" stroke-linecap="round" stroke-linejoin="round"/>
<path d="M11.8992 7.02672C11.834 6.84207 11.7333 6.67417 11.6053 6.53118C11.3331 6.22704 10.9375 6.03564 10.4972 6.03564H9.34652C8.61365 6.03564 8.01953 6.62976 8.01953 7.36264C8.01953 7.98625 8.45375 8.52572 9.06294 8.65898L10.8149 9.04221C11.4974 9.19151 11.9838 9.79631 11.9838 10.4949C11.9838 11.316 11.3182 11.9821 10.4972 11.9821H9.50614C8.85886 11.9821 8.3082 11.5684 8.10412 10.991" stroke="black" stroke-width="1.5" stroke-linecap="round" stroke-linejoin="round"/>
</svg>
