<svg width="20" height="20" viewBox="0 0 20 20" fill="none" xmlns="http://www.w3.org/2000/svg">
<g clip-path="url(#clip0_48_150655)">
<path d="M15.9475 7.35707C15.9475 11.3214 10.0011 15.9464 10.0011 15.9464C10.0011 15.9464 4.05469 11.3214 4.05469 7.35707C4.05469 4.11825 6.76229 1.41064 10.0011 1.41064C13.2399 1.41064 15.9475 4.11825 15.9475 7.35707Z" stroke="black" stroke-width="1.5" stroke-linecap="round" stroke-linejoin="round"/>
<path d="M9.99777 9.33929C11.0925 9.33929 11.9799 8.45185 11.9799 7.35714C11.9799 6.26243 11.0925 5.375 9.99777 5.375C8.90306 5.375 8.01562 6.26243 8.01562 7.35714C8.01562 8.45185 8.90306 9.33929 9.99777 9.33929Z" stroke="black" stroke-width="1.5" stroke-linecap="round" stroke-linejoin="round"/>
<path d="M15.3873 13.9641H16.6066L18.5887 18.5891H1.41016L3.3923 13.9641H4.61158" stroke="black" stroke-width="1.5" stroke-linecap="round" stroke-linejoin="round"/>
</g>
<defs>
<clipPath id="clip0_48_150655">
<rect width="20" height="20" fill="white"/>
</clipPath>
</defs>
</svg>
