<svg width="20" height="20" viewBox="0 0 20 20" fill="none" xmlns="http://www.w3.org/2000/svg">
<path d="M2.81641 8.7351C2.81641 13.5441 7.59333 17.1995 9.35729 18.3853C9.75025 18.6495 10.2531 18.6495 10.6461 18.3853C12.41 17.1995 17.1869 13.5441 17.1869 8.7351C17.1869 4.68991 13.9699 1.41064 10.0017 1.41064C6.03336 1.41064 2.81641 4.68991 2.81641 8.7351Z" stroke="black" stroke-width="1.5" stroke-linecap="round" stroke-linejoin="round"/>
<path d="M8.01953 7.35715C8.01953 6.96512 8.13578 6.58189 8.35359 6.25593C8.57139 5.92996 8.88096 5.67591 9.24313 5.52588C9.60533 5.37586 10.0039 5.3366 10.3884 5.41309C10.7729 5.48957 11.1261 5.67835 11.4033 5.95556C11.6805 6.23277 11.8692 6.58595 11.9457 6.97046C12.0222 7.35495 11.983 7.7535 11.8329 8.11569C11.6829 8.47788 11.4289 8.78743 11.1029 9.00525C10.7769 9.22304 10.3937 9.33929 10.0017 9.33929V10.6607" stroke="black" stroke-width="1.5" stroke-linecap="round" stroke-linejoin="round"/>
<path d="M10.0061 13.9642C9.82369 13.9642 9.67578 13.8163 9.67578 13.6338C9.67578 13.4514 9.82369 13.3035 10.0061 13.3035" stroke="black" stroke-width="1.5" stroke-linecap="round" stroke-linejoin="round"/>
<path d="M10.0078 13.9642C10.1903 13.9642 10.3382 13.8163 10.3382 13.6338C10.3382 13.4514 10.1903 13.3035 10.0078 13.3035" stroke="black" stroke-width="1.5" stroke-linecap="round" stroke-linejoin="round"/>
</svg>
