<svg width="20" height="20" viewBox="0 0 20 20" fill="none" xmlns="http://www.w3.org/2000/svg">
<path d="M2.64844 8.7351C2.64844 13.5441 7.42536 17.1995 9.18932 18.3853C9.58228 18.6495 10.0851 18.6495 10.4781 18.3853C12.242 17.1995 17.019 13.5441 17.019 8.7351C17.019 4.68991 13.802 1.41064 9.83371 1.41064C5.86539 1.41064 2.64844 4.68991 2.64844 8.7351Z" stroke="black" stroke-width="1.5" stroke-linecap="round" stroke-linejoin="round"/>
<path d="M10 10.6606V12.6428" stroke="black" stroke-width="1.5" stroke-linecap="round" stroke-linejoin="round"/>
<path d="M12.6417 12.6427H7.35603C6.99113 12.6427 6.69531 12.3469 6.69531 11.982V6.03554C6.69531 5.30574 7.28694 4.71411 8.01674 4.71411H11.981C12.7108 4.71411 13.3025 5.30574 13.3025 6.03554V11.982C13.3025 12.3469 13.0066 12.6427 12.6417 12.6427Z" stroke="black" stroke-width="1.5" stroke-linecap="round" stroke-linejoin="round"/>
</svg>
