<svg width="20" height="20" viewBox="0 0 20 20" fill="none" xmlns="http://www.w3.org/2000/svg">
<g clip-path="url(#clip0_48_150726)">
<path d="M10 3.92148V1.41077" stroke="black" stroke-width="1.5" stroke-linecap="round" stroke-linejoin="round"/>
<path d="M10 18.5894V15.9465" stroke="black" stroke-width="1.5" stroke-linecap="round" stroke-linejoin="round"/>
<path d="M16.0781 10H18.5888" stroke="black" stroke-width="1.5" stroke-linecap="round" stroke-linejoin="round"/>
<path d="M1.41016 10H4.05301" stroke="black" stroke-width="1.5" stroke-linecap="round" stroke-linejoin="round"/>
<path d="M5.76953 5.77156C8.01596 3.39299 11.8481 3.26084 14.2267 5.50727C16.6053 7.7537 16.7374 11.4537 14.491 13.9644C14.3588 14.0965 14.3588 14.2286 14.2267 14.2286" stroke="black" stroke-width="1.5" stroke-linecap="round" stroke-linejoin="round"/>
<path d="M11.3225 15.8143C8.15112 16.4751 4.97969 14.4929 4.18683 11.3215C4.05469 10.925 4.05469 10.3965 4.05469 10C4.05469 9.33931 4.18683 8.6786 4.31897 8.15002" stroke="black" stroke-width="1.5" stroke-linecap="round" stroke-linejoin="round"/>
<path d="M1.41406 1.41394L18.5861 18.586" stroke="black" stroke-width="1.5" stroke-linecap="round" stroke-linejoin="round"/>
</g>
<defs>
<clipPath id="clip0_48_150726">
<rect width="20" height="20" fill="white"/>
</clipPath>
</defs>
</svg>
