<svg width="21" height="21" viewBox="0 0 21 21" fill="none" xmlns="http://www.w3.org/2000/svg">
<g clip-path="url(#clip0_146_403332)">
<path d="M8.7606 16.3125H6.49051L1.53516 17.5513L2.77399 13.8348V2.68525C2.77399 2.35668 2.90452 2.04159 3.13684 1.80926C3.36917 1.57693 3.68428 1.44641 4.01284 1.44641H16.4013C16.7298 1.44641 17.0449 1.57693 17.2772 1.80926C17.5096 2.04159 17.6401 2.35668 17.6401 2.68525V8.06248" stroke="black" stroke-width="1.5" stroke-linecap="round" stroke-linejoin="round"/>
<path d="M6.49219 7.02051H13.9252" stroke="black" stroke-width="1.5" stroke-linecap="round" stroke-linejoin="round"/>
<path d="M6.49219 10.738H9.93625" stroke="black" stroke-width="1.5" stroke-linecap="round" stroke-linejoin="round"/>
<path d="M12.8391 14.778H18.8085C19.1666 14.778 19.4055 15.0167 19.4055 15.3749V18.9565C19.4055 19.3148 19.1666 19.5535 18.8085 19.5535H12.8391C12.481 19.5535 12.2422 19.3148 12.2422 18.9565V15.3749C12.2422 15.0167 12.481 14.778 12.8391 14.778Z" stroke="black" stroke-width="1.5" stroke-linecap="round" stroke-linejoin="round"/>
<path d="M13.4375 14.778V13.5842C13.4375 12.2709 14.512 11.1964 15.8253 11.1964C17.1385 11.1964 18.2129 12.2709 18.2129 13.5842V14.778" stroke="black" stroke-width="1.5" stroke-linecap="round" stroke-linejoin="round"/>
</g>
<defs>
<clipPath id="clip0_146_403332">
<rect width="21" height="21" fill="white"/>
</clipPath>
</defs>
</svg>
