<svg width="20" height="20" viewBox="0 0 20 20" fill="none" xmlns="http://www.w3.org/2000/svg">
<g id="login-2-20" clip-path="url(#clip0_47_146254)">
<g id="login-2--arrow-enter-left-login-point-circle">
<path id="Vector" d="M18.591 10H8.01953" stroke="black" stroke-width="1.5" stroke-linecap="round" stroke-linejoin="round"/>
<path id="Vector_2" d="M10.6624 7.35742L8.01953 10.0003L10.6624 12.6431" stroke="black" stroke-width="1.5" stroke-linecap="round" stroke-linejoin="round"/>
<path id="Vector_3" d="M17.2411 14.6254C16.2408 16.1908 14.76 17.3897 13.0206 18.0424C11.2813 18.6949 9.37727 18.766 7.59414 18.2449C5.81099 17.7238 4.24485 16.6387 3.1306 15.1523C2.01635 13.6658 1.41406 11.8581 1.41406 10.0004C1.41406 8.1427 2.01635 6.33507 3.1306 4.8486C4.24485 3.36214 5.81099 2.27701 7.59414 1.75594C9.37727 1.23486 11.2813 1.30595 13.0206 1.95853C14.76 2.61111 16.2408 3.81001 17.2411 5.37542" stroke="black" stroke-width="1.5" stroke-linecap="round" stroke-linejoin="round"/>
</g>
</g>
<defs>
<clipPath id="clip0_47_146254">
<rect width="20" height="20" fill="white"/>
</clipPath>
</defs>
</svg>
