<svg width="20" height="20" viewBox="0 0 20 20" fill="none" xmlns="http://www.w3.org/2000/svg">
<g id="logout-2-11" clip-path="url(#clip0_47_146269)">
<g id="logout-2--arrow-enter-right-logout-point-circle">
<path id="Vector" d="M9.33203 10.0137H18.582" stroke="black" stroke-width="1.5" stroke-linecap="round" stroke-linejoin="round"/>
<path id="Vector_2" d="M15.9414 7.37109L18.5843 10.014L15.9414 12.6568" stroke="black" stroke-width="1.5" stroke-linecap="round" stroke-linejoin="round"/>
<path id="Vector_3" d="M16.2053 15.9468C15.0187 17.1837 13.4892 18.0372 11.8136 18.3976C10.138 18.7581 8.39285 18.609 6.80264 17.9696C5.21245 17.33 3.84992 16.2295 2.89034 14.8094C1.93074 13.3891 1.41797 11.7144 1.41797 10.0004C1.41797 8.28646 1.93074 6.61169 2.89034 5.19154C3.84992 3.77139 5.21245 2.6708 6.80264 2.03134C8.39285 1.39187 10.138 1.24277 11.8136 1.60323C13.4892 1.96368 15.0187 2.8172 16.2053 4.05399" stroke="black" stroke-width="1.5" stroke-linecap="round" stroke-linejoin="round"/>
</g>
</g>
<defs>
<clipPath id="clip0_47_146269">
<rect width="20" height="20" fill="white"/>
</clipPath>
</defs>
</svg>
