<svg width="20" height="20" viewBox="0 0 20 20" fill="none" xmlns="http://www.w3.org/2000/svg">
<g id="loop-1">
<g id="loop-1--multimedia-multi-button-repeat-media-loop-infinity-controls">
<path id="Vector" d="M14.6244 13.9647C15.1578 14.0159 15.6957 13.9484 16.2 13.7673C16.7042 13.5862 17.1621 13.2958 17.541 12.917C17.9198 12.5381 18.2101 12.0802 18.3913 11.576C18.5725 11.0718 18.5887 10.0004 18.5887 10.0004C18.5887 10.0004 18.5725 8.92907 18.3913 8.42487C18.2101 7.92065 17.9198 7.46272 17.541 7.08388C17.1621 6.70504 16.7042 6.41466 16.2 6.23353C15.6957 6.05239 15.1578 5.98498 14.6244 6.03613C10.9905 6.03613 9.00837 13.9647 5.37444 13.9647C4.84113 14.0159 4.30309 13.9484 3.79889 13.7673C3.29467 13.5862 2.83674 13.2958 2.4579 12.917C2.07906 12.5381 1.78868 12.0802 1.60754 11.576C1.42641 11.0718 1.41016 10.0004 1.41016 10.0004C1.41016 10.0004 1.42641 8.92907 1.60754 8.42487C1.78868 7.92065 2.07906 7.46272 2.4579 7.08388C2.83674 6.70504 3.29467 6.41466 3.79889 6.23353C4.30309 6.05239 4.84113 5.98498 5.37444 6.03613C9.00837 6.03613 10.9905 13.9647 14.6244 13.9647Z" stroke="black" stroke-width="1.5" stroke-linecap="round" stroke-linejoin="round"/>
</g>
</g>
</svg>
