<svg width="20" height="20" viewBox="0 0 20 20" fill="none" xmlns="http://www.w3.org/2000/svg">
<g id="love-hand-10">
<g id="love-hand">
<path id="Vector 2004" d="M4.44308 18.5892L3.51808 17.3559C2.83188 16.441 2.46094 15.3281 2.46094 14.1845V5.70529C2.46094 4.79303 3.20047 4.0535 4.11272 4.0535C5.02498 4.0535 5.76451 4.79303 5.76451 5.70529V9.33922C7.7356 8.45414 8.22215 8.36608 10.3895 8.6785V3.06243C10.3895 2.15017 11.129 1.41064 12.0413 1.41064C12.9536 1.41064 13.6931 2.15017 13.6931 3.06243V12.6253" stroke="black" stroke-width="1.5" stroke-linecap="round" stroke-linejoin="round"/>
<path id="Vector 2005" d="M13.0374 18.5888C14.1045 17.8773 15.1067 16.4847 15.8642 15.4241L17.6281 12.9544C18.0419 12.3752 18.0328 11.5948 17.6057 11.0253C16.9652 10.1712 15.6908 10.1514 15.0239 10.985L13.6981 12.6424C13.0374 12.6424 11.4517 12.9067 10.3945 13.9638" stroke="black" stroke-width="1.5" stroke-linecap="round" stroke-linejoin="round"/>
</g>
</g>
</svg>
