<svg width="20" height="20" viewBox="0 0 20 20" fill="none" xmlns="http://www.w3.org/2000/svg">
<g id="magnet-21" clip-path="url(#clip0_47_141282)">
<g id="magnet--design-magnet-snap-supplies-to-tool">
<path id="Vector" d="M12.3923 16.6997C11.7953 17.2966 11.0867 17.7702 10.3067 18.0933C9.52675 18.4164 8.6908 18.5826 7.84658 18.5826C6.1416 18.5826 4.50647 17.9052 3.30086 16.6997C2.09527 15.4942 1.41797 13.859 1.41797 12.154C1.41797 10.449 2.09527 8.81386 3.30086 7.60827L9.49836 1.41077L12.3923 4.3047L6.71015 10.0001C6.34491 10.4491 6.15915 11.0177 6.18883 11.5958C6.21851 12.1739 6.4615 12.7204 6.87081 13.1298C7.28012 13.5391 7.82668 13.782 8.40478 13.8117C8.98287 13.8414 9.55143 13.6557 10.0005 13.2904L15.6826 7.60827L18.5898 10.5022L12.3923 16.6997Z" stroke="black" stroke-width="1.5" stroke-linecap="round" stroke-linejoin="round"/>
<path id="Vector_2" d="M12.8945 10.4098L15.7884 13.3037" stroke="black" stroke-width="1.5" stroke-linecap="round" stroke-linejoin="round"/>
<path id="Vector_3" d="M6.69531 4.2124L9.58924 7.10633" stroke="black" stroke-width="1.5" stroke-linecap="round" stroke-linejoin="round"/>
</g>
</g>
<defs>
<clipPath id="clip0_47_141282">
<rect width="20" height="20" fill="white"/>
</clipPath>
</defs>
</svg>
