<svg width="20" height="20" viewBox="0 0 20 20" fill="none" xmlns="http://www.w3.org/2000/svg">
<g id="magnifying-glass-square-13" clip-path="url(#clip0_47_146909)">
<g id="magnifying-glass-square--glass-search-square-magnifying">
<path id="Vector" d="M9.33873 12.6433C11.1632 12.6433 12.6423 11.1642 12.6423 9.3397C12.6423 7.51519 11.1632 6.03613 9.33873 6.03613C7.51422 6.03613 6.03516 7.51519 6.03516 9.3397C6.03516 11.1642 7.51422 12.6433 9.33873 12.6433Z" stroke="black" stroke-width="1.5" stroke-linecap="round" stroke-linejoin="round"/>
<path id="Vector_2" d="M13.9618 13.9648L11.6758 11.6787" stroke="black" stroke-width="1.5" stroke-linecap="round" stroke-linejoin="round"/>
<path id="Vector_3" d="M17.2673 1.41113H2.73158C2.00178 1.41113 1.41016 2.00276 1.41016 2.73256V17.2683C1.41016 17.9981 2.00178 18.5897 2.73158 18.5897H17.2673C17.9971 18.5897 18.5887 17.9981 18.5887 17.2683V2.73256C18.5887 2.00276 17.9971 1.41113 17.2673 1.41113Z" stroke="black" stroke-width="1.5" stroke-linecap="round" stroke-linejoin="round"/>
</g>
</g>
<defs>
<clipPath id="clip0_47_146909">
<rect width="20" height="20" fill="white"/>
</clipPath>
</defs>
</svg>
