<svg width="21" height="21" viewBox="0 0 21 21" fill="none" xmlns="http://www.w3.org/2000/svg">
<path d="M7.01953 6.32141L10.5017 9.80355L13.9838 6.32141" stroke="black" stroke-width="1.5" stroke-linecap="round" stroke-linejoin="round"/>
<path d="M10.5 1.44641V9.80355" stroke="black" stroke-width="1.5" stroke-linecap="round" stroke-linejoin="round"/>
<path d="M17.466 7.01782C17.8353 7.01782 18.1897 7.16457 18.4508 7.42578C18.712 7.68699 18.8588 8.04127 18.8588 8.41068V18.1607C18.8588 18.5301 18.712 18.8844 18.4508 19.1456C18.1897 19.4067 17.8353 19.5535 17.466 19.5535H3.53739C3.16797 19.5535 2.8137 19.4067 2.55249 19.1456C2.29128 18.8844 2.14453 18.5301 2.14453 18.1607V8.41068C2.14453 8.04127 2.29128 7.68699 2.55249 7.42578C2.8137 7.16457 3.16797 7.01782 3.53739 7.01782" stroke="black" stroke-width="1.5" stroke-linecap="round" stroke-linejoin="round"/>
<path d="M2.14453 8.77283L10.5017 14.6785L18.8588 8.77283" stroke="black" stroke-width="1.5" stroke-linecap="round" stroke-linejoin="round"/>
</svg>
