<svg width="21" height="21" viewBox="0 0 21 21" fill="none" xmlns="http://www.w3.org/2000/svg">
<g clip-path="url(#clip0_146_403356)">
<path d="M7.71317 13.9821H2.83817C2.46876 13.9821 2.11448 13.8354 1.85327 13.5742C1.59206 13.313 1.44531 12.9587 1.44531 12.5893V2.83927C1.44531 2.46985 1.59206 2.11558 1.85327 1.85437C2.11448 1.59316 2.46876 1.44641 2.83817 1.44641H16.7667C17.1361 1.44641 17.4905 1.59316 17.7516 1.85437C18.0128 2.11558 18.1596 2.46985 18.1596 2.83927V9.10712" stroke="black" stroke-width="1.5" stroke-linecap="round" stroke-linejoin="round"/>
<path d="M1.44531 3.20142L9.80246 9.10713L18.1596 3.20142" stroke="black" stroke-width="1.5" stroke-linecap="round" stroke-linejoin="round"/>
<path d="M19.4123 16.5846L18.2409 17.4699L17.3555 16.2985" stroke="black" stroke-width="1.5" stroke-linecap="round" stroke-linejoin="round"/>
<path d="M18.1782 17.382C18.3715 17.0105 18.5027 16.5985 18.5565 16.1582C18.7966 14.1888 17.3947 12.3975 15.4252 12.1573C14.8019 12.0813 14.1964 12.1697 13.6523 12.3886" stroke="black" stroke-width="1.5" stroke-linecap="round" stroke-linejoin="round"/>
<path d="M10.5625 14.9161L11.7339 14.0306L12.6193 15.202" stroke="black" stroke-width="1.5" stroke-linecap="round" stroke-linejoin="round"/>
<path d="M11.7957 14.1191C11.6023 14.4907 11.4711 14.9026 11.4174 15.3429C11.1772 17.3124 12.5791 19.1036 14.5486 19.3439C15.172 19.4198 15.7774 19.3314 16.3215 19.1125" stroke="black" stroke-width="1.5" stroke-linecap="round" stroke-linejoin="round"/>
</g>
<defs>
<clipPath id="clip0_146_403356">
<rect width="21" height="21" fill="white"/>
</clipPath>
</defs>
</svg>
