<svg width="20" height="20" viewBox="0 0 20 20" fill="none" xmlns="http://www.w3.org/2000/svg">
<g clip-path="url(#clip0_48_150749)">
<path d="M6.6918 16.0481L3.02893 16.8941C2.20086 17.0853 1.41016 16.4564 1.41016 15.6065V3.68158C1.41016 3.06633 1.83476 2.53249 2.43424 2.39404L6.6918 1.41077V16.0481Z" stroke="black" stroke-width="1.5" stroke-linecap="round" stroke-linejoin="round"/>
<path d="M6.69141 16.0481V1.41077L11.9852 2.63055V6.69648" stroke="black" stroke-width="1.5" stroke-linecap="round" stroke-linejoin="round"/>
<path d="M11.9844 2.63052L15.6472 1.78458C16.4754 1.59334 17.266 2.22223 17.266 3.07212V8.01788" stroke="black" stroke-width="1.5" stroke-linecap="round" stroke-linejoin="round"/>
<path d="M13.3041 17.2679C15.4936 17.2679 17.2684 15.4931 17.2684 13.3036C17.2684 11.1142 15.4936 9.33936 13.3041 9.33936C11.1147 9.33936 9.33984 11.1142 9.33984 13.3036C9.33984 15.4931 11.1147 17.2679 13.3041 17.2679Z" stroke="black" stroke-width="1.5" stroke-linecap="round" stroke-linejoin="round"/>
<path d="M18.5898 18.5894L16.2773 16.2769" stroke="black" stroke-width="1.5" stroke-linecap="round" stroke-linejoin="round"/>
</g>
<defs>
<clipPath id="clip0_48_150749">
<rect width="20" height="20" fill="white"/>
</clipPath>
</defs>
</svg>
