<svg width="20" height="20" viewBox="0 0 20 20" fill="none" xmlns="http://www.w3.org/2000/svg">
<g clip-path="url(#clip0_48_150740)">
<path d="M18.5882 12.2181C18.5882 14.3418 14.8882 18.5893 14.8882 18.5893C14.8882 18.5893 11.3203 14.3418 11.3203 12.2181C11.4525 10.236 13.0382 8.67859 15.0203 8.67859C16.8703 8.67859 18.456 10.236 18.5882 12.2181Z" stroke="black" stroke-width="1.5" stroke-linecap="round" stroke-linejoin="round"/>
<path d="M14.9554 12.2655C14.773 12.2655 14.625 12.1175 14.625 11.9351C14.625 11.7526 14.773 11.6047 14.9554 11.6047" stroke="black" stroke-width="1.5" stroke-linecap="round" stroke-linejoin="round"/>
<path d="M14.957 12.2655C15.1395 12.2655 15.2874 12.1175 15.2874 11.9351C15.2874 11.7526 15.1395 11.6047 14.957 11.6047" stroke="black" stroke-width="1.5" stroke-linecap="round" stroke-linejoin="round"/>
<path d="M6.69184 16.0482L3.02893 16.8942C2.20085 17.0854 1.41016 16.4566 1.41016 15.6066V3.68159C1.41016 3.06633 1.83476 2.53249 2.43424 2.39404L6.69184 1.41077V16.0482Z" stroke="black" stroke-width="1.5" stroke-linecap="round" stroke-linejoin="round"/>
<path d="M11.9853 6.69648V2.63055L6.69141 1.41077V16.0482L9.99885 16.8103" stroke="black" stroke-width="1.5" stroke-linecap="round" stroke-linejoin="round"/>
<path d="M17.2661 6.03573V3.07212C17.2661 2.22223 16.4753 1.59334 15.6473 1.78458L11.9844 2.63052" stroke="black" stroke-width="1.5" stroke-linecap="round" stroke-linejoin="round"/>
</g>
<defs>
<clipPath id="clip0_48_150740">
<rect width="20" height="20" fill="white"/>
</clipPath>
</defs>
</svg>
