<svg width="21" height="21" viewBox="0 0 21 21" fill="none" xmlns="http://www.w3.org/2000/svg">
<path d="M18.1613 18.1607C18.1613 18.5301 18.0145 18.8844 17.7533 19.1456C17.4921 19.4067 17.1378 19.5536 16.7684 19.5536H4.2327C3.86329 19.5536 3.50901 19.4067 3.2478 19.1456C2.9866 18.8844 2.83984 18.5301 2.83984 18.1607V2.83927C2.83984 2.46985 2.9866 2.11558 3.2478 1.85437C3.50901 1.59316 3.86329 1.44641 4.2327 1.44641H12.5898L18.1613 7.01784V18.1607Z" stroke="black" stroke-width="1.5" stroke-linecap="round" stroke-linejoin="round"/>
<path d="M5.625 15.3748V10.1418C5.625 9.95495 5.77649 9.80347 5.96335 9.80347C6.09651 9.80347 6.21728 9.88156 6.27191 10.003L7.32121 12.3351C7.39077 12.4897 7.54455 12.5892 7.7141 12.5892C7.88363 12.5892 8.0374 12.4898 8.10697 12.3352L9.1566 10.003C9.21126 9.88155 9.33202 9.80347 9.46516 9.80347C9.65204 9.80347 9.80354 9.95495 9.80354 10.1418V15.3748" stroke="black" stroke-width="1.5" stroke-linecap="round" stroke-linejoin="round"/>
<path d="M13.9844 9.80359V15.3749" stroke="black" stroke-width="1.5" stroke-linecap="round" stroke-linejoin="round"/>
<path d="M12.5898 13.9821L13.9827 15.3749L15.3756 13.9821" stroke="black" stroke-width="1.5" stroke-linecap="round" stroke-linejoin="round"/>
</svg>
