<svg width="20" height="20" viewBox="0 0 20 20" fill="none" xmlns="http://www.w3.org/2000/svg">
<g id="maximize-1-11" clip-path="url(#clip0_47_146914)">
<g id="maximize-1">
<path id="Vector 1023" d="M1.41016 17.324V12.295C1.41016 11.5965 1.97639 11.0303 2.67486 11.0303H7.70389C8.40237 11.0303 8.9686 11.5965 8.9686 12.295V17.324C8.9686 18.0225 8.40237 18.5887 7.70389 18.5887H2.67486C1.97639 18.5887 1.41016 18.0225 1.41016 17.324Z" stroke="black" stroke-width="1.5" stroke-linecap="round" stroke-linejoin="round"/>
<path id="Vector 1051" d="M11.375 8.62337L18.5877 1.41113" stroke="black" stroke-width="1.5" stroke-linecap="round" stroke-linejoin="round"/>
<path id="Vector 1052" d="M15.1523 1.41113H18.5879V4.84679" stroke="black" stroke-width="1.5" stroke-linecap="round" stroke-linejoin="round"/>
<path id="Vector 1026" d="M1.41016 7.59203V6.21777" stroke="black" stroke-width="1.5" stroke-linecap="round" stroke-linejoin="round"/>
<path id="Vector 1028" d="M7.24927 1.41113H5.875" stroke="black" stroke-width="1.5" stroke-linecap="round" stroke-linejoin="round"/>
<path id="Vector 1029" d="M12.0618 1.41113H10.6875" stroke="black" stroke-width="1.5" stroke-linecap="round" stroke-linejoin="round"/>
<path id="Vector 1030" d="M12.4062 18.5889H13.7805" stroke="black" stroke-width="1.5" stroke-linecap="round" stroke-linejoin="round"/>
<path id="Vector 1031" d="M18.5859 12.748V14.1223" stroke="black" stroke-width="1.5" stroke-linecap="round" stroke-linejoin="round"/>
<path id="Vector 1032" d="M18.5859 7.9375V9.31177" stroke="black" stroke-width="1.5" stroke-linecap="round" stroke-linejoin="round"/>
<path id="Vector" d="M17.2148 18.59C17.9739 18.59 18.5891 17.9747 18.5891 17.2158" stroke="black" stroke-width="1.5" stroke-linecap="round" stroke-linejoin="round"/>
<path id="Vector_2" d="M1.41016 2.78539C1.41016 2.02641 2.02543 1.41113 2.78442 1.41113" stroke="black" stroke-width="1.5" stroke-linecap="round" stroke-linejoin="round"/>
</g>
</g>
<defs>
<clipPath id="clip0_47_146914">
<rect width="20" height="20" fill="white"/>
</clipPath>
</defs>
</svg>
