<svg width="20" height="20" viewBox="0 0 20 20" fill="none" xmlns="http://www.w3.org/2000/svg">
<g id="maximize-2-8" clip-path="url(#clip0_47_146927)">
<g id="maximize-2">
<path id="Vector 2076" d="M1.41016 17.2681V13.3039C1.41016 12.5741 2.00178 11.9824 2.73158 11.9824H6.69587C7.42567 11.9824 8.0173 12.5741 8.0173 13.3039V17.2681C8.0173 17.998 7.42567 18.5896 6.69587 18.5896H2.73158C2.00178 18.5896 1.41016 17.998 1.41016 17.2681Z" stroke="black" stroke-width="1.5" stroke-linecap="round" stroke-linejoin="round"/>
<path id="Vector 2087" d="M4.71484 9.3397V2.73256C4.71484 2.00276 5.30647 1.41113 6.03627 1.41113H17.2684C17.9982 1.41113 18.5898 2.00276 18.5898 2.73256V13.304C18.5898 14.0338 17.9982 14.6254 17.2684 14.6254H10.6613" stroke="black" stroke-width="1.5" stroke-linecap="round" stroke-linejoin="round"/>
<path id="Vector 2089" d="M10 10.0001L15.9464 4.05371" stroke="black" stroke-width="1.5" stroke-linecap="round" stroke-linejoin="round"/>
<path id="Vector 2090" d="M11.9805 4.05371H15.9448V8.018" stroke="black" stroke-width="1.5" stroke-linecap="round" stroke-linejoin="round"/>
</g>
</g>
<defs>
<clipPath id="clip0_47_146927">
<rect width="20" height="20" fill="white"/>
</clipPath>
</defs>
</svg>
