<svg width="20" height="20" viewBox="0 0 20 20" fill="none" xmlns="http://www.w3.org/2000/svg">
<g id="megaphone-2-9">
<g id="megaphone-2--bullhorn-loud-megaphone-share-speaker-transmit">
<path id="Vector" d="M6.69531 12.7218L16.8439 16.1046C17.0426 16.1702 17.2541 16.1876 17.4609 16.1554C17.6675 16.1233 17.8638 16.0424 18.0332 15.9196C18.2039 15.7981 18.3433 15.6376 18.4399 15.4515C18.5364 15.2654 18.5872 15.059 18.5882 14.8493V3.97395C18.5872 3.76431 18.5364 3.5579 18.4399 3.37179C18.3433 3.18568 18.2039 3.0252 18.0332 2.9036C17.8626 2.783 17.6659 2.70456 17.4591 2.6747C17.2525 2.64485 17.0416 2.66442 16.8439 2.73181L6.69531 6.11467V12.7218Z" stroke="black" stroke-width="1.5" stroke-linecap="round" stroke-linejoin="round"/>
<path id="Vector_2" d="M1.41016 9.41783C1.41016 9.85165 1.49561 10.2812 1.66163 10.6821C1.82765 11.0829 2.07099 11.447 2.37775 11.7538C2.99728 12.3733 3.83757 12.7214 4.71373 12.7214H6.69587V6.11426H4.71373C4.2799 6.11426 3.85032 6.1997 3.4495 6.36573C3.0487 6.53175 2.68452 6.77509 2.37775 7.08185C1.75821 7.70139 1.41016 8.54167 1.41016 9.41783Z" stroke="black" stroke-width="1.5" stroke-linecap="round" stroke-linejoin="round"/>
<path id="Vector_3" d="M4.71484 12.7217V14.0432C4.71484 14.477 4.80029 14.9066 4.96631 15.3074C5.13234 15.7082 5.37568 16.0723 5.68243 16.3791C5.9892 16.6859 6.35339 16.9292 6.75419 17.0953C7.15501 17.2612 7.58459 17.3467 8.01842 17.3467" stroke="black" stroke-width="1.5" stroke-linecap="round" stroke-linejoin="round"/>
</g>
</g>
</svg>
