<svg width="20" height="20" viewBox="0 0 20 20" fill="none" xmlns="http://www.w3.org/2000/svg">
<g id="merge-pdf-70" clip-path="url(#clip0_47_144466)">
<g id="merge-PDF--essential-files-folder-merge-PDF">
<path id="Vector 1284" d="M6.69587 15.9464H2.73158C2.00178 15.9464 1.41016 15.3548 1.41016 14.6249V2.73207C1.41016 2.00227 2.00178 1.41064 2.73158 1.41064H8.13066C8.48112 1.41064 8.81724 1.54987 9.06505 1.79768L11.3209 4.0535" stroke="black" stroke-width="1.5" stroke-linecap="round" stroke-linejoin="round"/>
<path id="Vector 1285" d="M13.4158 4.05371H8.01674C7.28694 4.05371 6.69531 4.64534 6.69531 5.37514V17.268C6.69531 17.9978 7.28694 18.5894 8.01674 18.5894H17.2667C17.9966 18.5894 18.5882 17.9978 18.5882 17.268V9.22606C18.5882 8.8756 18.4489 8.53948 18.2011 8.29168L14.3502 4.44074C14.1024 4.19294 13.7663 4.05371 13.4158 4.05371Z" stroke="black" stroke-width="1.5" stroke-linecap="round" stroke-linejoin="round"/>
<path id="Vector 1294" d="M12.6406 9.33936V14.6251" stroke="black" stroke-width="1.5" stroke-linecap="round" stroke-linejoin="round"/>
<path id="Vector 1295" d="M10 11.9819H15.2857" stroke="black" stroke-width="1.5" stroke-linecap="round" stroke-linejoin="round"/>
</g>
</g>
<defs>
<clipPath id="clip0_47_144466">
<rect width="20" height="20" fill="white"/>
</clipPath>
</defs>
</svg>
