<svg width="21" height="21" viewBox="0 0 21 21" fill="none" xmlns="http://www.w3.org/2000/svg">
<path d="M9.30397 18.4331C8.56133 18.9123 7.67635 19.1211 6.79786 19.0244C5.91939 18.9277 5.10096 18.5316 4.4802 17.9026L3.93753 17.3719C3.69962 17.1286 3.56641 16.8018 3.56641 16.4614C3.56641 16.1211 3.69962 15.7944 3.93753 15.5509L6.24089 13.2717C6.4822 13.0346 6.807 12.9017 7.14534 12.9017C7.48368 12.9017 7.80849 13.0346 8.0498 13.2717C8.29315 13.5096 8.61996 13.6428 8.96029 13.6428C9.30062 13.6428 9.62742 13.5096 9.87077 13.2717L13.4886 9.65389C13.6093 9.53495 13.7051 9.3932 13.7705 9.23689C13.836 9.08059 13.8696 8.91285 13.8696 8.74339C13.8696 8.57395 13.836 8.40619 13.7705 8.24989C13.7051 8.09358 13.6093 7.95184 13.4886 7.83291C13.2515 7.5916 13.1186 7.2668 13.1186 6.92846C13.1186 6.5901 13.2515 6.2653 13.4886 6.02399L15.7799 3.7327C16.0232 3.49479 16.35 3.36157 16.6904 3.36157C17.0307 3.36157 17.3576 3.49479 17.6009 3.7327L18.1315 4.27537C18.7606 4.89612 19.1567 5.71455 19.2534 6.59304C19.3501 7.47153 19.1413 8.3565 18.6621 9.09915C16.1657 12.7782 12.9894 15.9463 9.30397 18.4331Z" stroke="black" stroke-width="1.5" stroke-linecap="round" stroke-linejoin="round"/>
<path d="M10.4082 2.36157L5.86139 6.9083C5.31744 7.45224 4.43554 7.45224 3.8916 6.9083L1.88672 4.90341" stroke="black" stroke-width="1.5" stroke-linecap="round" stroke-linejoin="round"/>
<path d="M7.18359 2.36157H10.4066V5.58462" stroke="black" stroke-width="1.5" stroke-linecap="round" stroke-linejoin="round"/>
</svg>
