<svg width="21" height="21" viewBox="0 0 21 21" fill="none" xmlns="http://www.w3.org/2000/svg">
<path d="M18.1318 11.5059C18.0503 11.2752 17.9245 11.0655 17.7646 10.8869C17.4246 10.5069 16.9305 10.2678 16.3804 10.2678H14.9429C14.0274 10.2678 13.2852 11.01 13.2852 11.9256C13.2852 12.7046 13.8276 13.3785 14.5886 13.545L16.7772 14.0238C17.6298 14.2103 18.2375 14.9658 18.2375 15.8386C18.2375 16.8643 17.4061 17.6964 16.3804 17.6964H15.1423C14.3337 17.6964 13.6458 17.1796 13.3908 16.4583" stroke="black" stroke-width="1.5" stroke-linecap="round" stroke-linejoin="round"/>
<path d="M15.7617 10.2678V8.41064" stroke="black" stroke-width="1.5" stroke-linecap="round" stroke-linejoin="round"/>
<path d="M15.7617 19.5535V17.6963" stroke="black" stroke-width="1.5" stroke-linecap="round" stroke-linejoin="round"/>
<path d="M13.2292 6.84372V2.81759C13.2292 2.10838 12.6543 1.53345 11.945 1.53345H2.95603C2.24681 1.53345 1.67188 2.10838 1.67188 2.81759V16.9432C1.67188 17.6524 2.24681 18.2274 2.95603 18.2274H10.4432" stroke="black" stroke-width="1.5" stroke-linecap="round" stroke-linejoin="round"/>
<path d="M6.80859 15.0168H8.09274" stroke="black" stroke-width="1.5" stroke-linecap="round" stroke-linejoin="round"/>
</svg>
