<svg width="21" height="21" viewBox="0 0 21 21" fill="none" xmlns="http://www.w3.org/2000/svg">
<g clip-path="url(#clip0_146_400387)">
<path d="M8.06138 12.2411H2.14174C1.75711 12.2411 1.44531 12.5529 1.44531 12.9375V18.8572C1.44531 19.2417 1.75711 19.5536 2.14174 19.5536H8.06138C8.44601 19.5536 8.75781 19.2417 8.75781 18.8572V12.9375C8.75781 12.5529 8.44601 12.2411 8.06138 12.2411Z" stroke="black" stroke-width="1.5" stroke-linecap="round" stroke-linejoin="round"/>
<path d="M18.8544 12.2411H12.9347C12.5501 12.2411 12.2383 12.5529 12.2383 12.9375V18.8572C12.2383 19.2417 12.5501 19.5536 12.9347 19.5536H18.8544C19.2389 19.5536 19.5508 19.2417 19.5508 18.8572V12.9375C19.5508 12.5529 19.2389 12.2411 18.8544 12.2411Z" stroke="black" stroke-width="1.5" stroke-linecap="round" stroke-linejoin="round"/>
<path d="M13.4637 1.44641H7.54409C7.15946 1.44641 6.84766 1.75821 6.84766 2.14284V8.06248C6.84766 8.44711 7.15946 8.75891 7.54409 8.75891H13.4637C13.8484 8.75891 14.1602 8.44711 14.1602 8.06248V2.14284C14.1602 1.75821 13.8484 1.44641 13.4637 1.44641Z" stroke="black" stroke-width="1.5" stroke-linecap="round" stroke-linejoin="round"/>
</g>
<defs>
<clipPath id="clip0_146_400387">
<rect width="21" height="21" fill="white"/>
</clipPath>
</defs>
</svg>
