<svg width="20" height="20" viewBox="0 0 20 20" fill="none" xmlns="http://www.w3.org/2000/svg">
<g id="money-shield-1">
<g id="money-shield--shield-pay-product-secure-money-cash-currency-security-business">
<path id="Vector" d="M17.9275 9.92113C17.915 11.2969 17.522 12.6424 16.7921 13.8085C16.062 14.9747 15.0235 15.9161 13.7914 16.5283L9.99889 18.5897L6.20639 16.6076C4.9623 15.9893 3.91576 15.0356 3.18492 13.8541C2.45409 12.6726 2.06803 11.3104 2.07032 9.92113V2.73256C2.07032 2.38209 2.20954 2.04599 2.45736 1.79817C2.70518 1.55035 3.04128 1.41113 3.39175 1.41113H16.606C16.9565 1.41113 17.2926 1.55035 17.5404 1.79817C17.7883 2.04599 17.9275 2.38209 17.9275 2.73256V9.92113Z" stroke="black" stroke-width="1.5" stroke-linecap="round" stroke-linejoin="round"/>
<path id="Vector 2491" d="M12.2466 6.99101C12.1692 6.77217 12.0499 6.57318 11.8982 6.40372C11.5756 6.04326 11.1068 5.81641 10.5849 5.81641H9.22118C8.35257 5.81641 7.64844 6.52054 7.64844 7.38914C7.64844 8.12823 8.16307 8.76761 8.88508 8.92554L10.9615 9.37976C11.7703 9.5567 12.3468 10.2735 12.3468 11.1015C12.3468 12.0746 11.558 12.864 10.5849 12.864H9.41034C8.6432 12.864 7.99057 12.3737 7.74869 11.6894" stroke="black" stroke-width="1.5" stroke-linecap="round" stroke-linejoin="round"/>
<path id="Vector 2492" d="M10 5.81561V4.05371" stroke="black" stroke-width="1.5" stroke-linecap="round" stroke-linejoin="round"/>
<path id="Vector 2493" d="M10 14.6252V12.8633" stroke="black" stroke-width="1.5" stroke-linecap="round" stroke-linejoin="round"/>
</g>
</g>
</svg>
