<svg width="21" height="21" viewBox="0 0 21 21" fill="none" xmlns="http://www.w3.org/2000/svg">
<path d="M16.7667 4.92847H2.83817C2.06892 4.92847 1.44531 5.55208 1.44531 6.32132V14.6785" stroke="black" stroke-width="1.5" stroke-linecap="round" stroke-linejoin="round"/>
<path d="M19.5519 6.32141V14.6786C19.5519 15.4478 18.9283 16.0714 18.159 16.0714H4.23047" stroke="black" stroke-width="1.5" stroke-linecap="round" stroke-linejoin="round"/>
<path d="M10.5 12.9375C11.8462 12.9375 12.9375 11.8462 12.9375 10.5C12.9375 9.1538 11.8462 8.0625 10.5 8.0625C9.1538 8.0625 8.0625 9.1538 8.0625 10.5C8.0625 11.8462 9.1538 12.9375 10.5 12.9375Z" stroke="black" stroke-width="1.5" stroke-linecap="round" stroke-linejoin="round"/>
<path d="M4.61384 10.8482C4.42153 10.8482 4.26562 10.6923 4.26562 10.4999C4.26562 10.3076 4.42153 10.1517 4.61384 10.1517" stroke="black" stroke-width="1.5" stroke-linecap="round" stroke-linejoin="round"/>
<path d="M4.61328 10.8482C4.80559 10.8482 4.9615 10.6923 4.9615 10.4999C4.9615 10.3076 4.80559 10.1517 4.61328 10.1517" stroke="black" stroke-width="1.5" stroke-linecap="round" stroke-linejoin="round"/>
<path d="M16.3834 10.8482C16.191 10.8482 16.0352 10.6923 16.0352 10.4999C16.0352 10.3076 16.191 10.1517 16.3834 10.1517" stroke="black" stroke-width="1.5" stroke-linecap="round" stroke-linejoin="round"/>
<path d="M16.3828 10.8482C16.5752 10.8482 16.731 10.6923 16.731 10.4999C16.731 10.3076 16.5752 10.1517 16.3828 10.1517" stroke="black" stroke-width="1.5" stroke-linecap="round" stroke-linejoin="round"/>
<path d="M14.6758 2.83923L16.7651 4.92852L14.6758 7.01781" stroke="black" stroke-width="1.5" stroke-linecap="round" stroke-linejoin="round"/>
<path d="M6.31975 13.9821L4.23047 16.0713L6.31975 18.1606" stroke="black" stroke-width="1.5" stroke-linecap="round" stroke-linejoin="round"/>
</svg>
