<svg width="19" height="19" viewBox="0 0 19 19" fill="none" xmlns="http://www.w3.org/2000/svg">
<path d="M2 5H17M2 5V14M2 5L2 8C2.79565 8 3.55871 7.68393 4.12132 7.12132C4.68393 6.55871 5 5.79565 5 5L2 5ZM17 5V14M17 5H14C14 5.39397 14.0776 5.78407 14.2284 6.14805C14.3791 6.51203 14.6001 6.84274 14.8787 7.12132C15.1573 7.3999 15.488 7.62087 15.852 7.77164C16.2159 7.9224 16.606 8 17 8V5ZM17 14H2M17 14V11C16.2044 11 15.4413 11.3161 14.8787 11.8787C14.3161 12.4413 14 13.2044 14 14H17ZM2 14L5 14C5 13.2043 4.68393 12.4413 4.12132 11.8787C3.55871 11.3161 2.79565 11 2 11L2 14ZM11 9.5C11 10.3284 10.3284 11 9.5 11C8.67157 11 8 10.3284 8 9.5C8 8.67157 8.67157 8 9.5 8C10.3284 8 11 8.67157 11 9.5Z" stroke="#003366" stroke-linecap="round" stroke-linejoin="round"/>
</svg>
