<svg width="21" height="21" viewBox="0 0 21 21" fill="none" xmlns="http://www.w3.org/2000/svg">
<g clip-path="url(#clip0_146_401258)">
<path d="M19.5525 9.45788V15.3751C19.5525 15.7929 19.2739 16.0715 18.856 16.0715H2.14174C1.72388 16.0715 1.44531 15.7929 1.44531 15.3751V4.2322C1.44531 3.81434 1.72388 3.53577 2.14174 3.53577H6.39291" stroke="black" stroke-width="1.5" stroke-linecap="round" stroke-linejoin="round"/>
<path d="M9.1077 16.0714L7.71484 19.5536" stroke="black" stroke-width="1.5" stroke-linecap="round" stroke-linejoin="round"/>
<path d="M11.8906 16.0714L13.2835 19.5536" stroke="black" stroke-width="1.5" stroke-linecap="round" stroke-linejoin="round"/>
<path d="M6.32031 19.5536H14.6775" stroke="black" stroke-width="1.5" stroke-linecap="round" stroke-linejoin="round"/>
<path d="M9.94141 3.53572C12.5878 0.889297 16.9057 0.889297 19.5521 3.53572" stroke="black" stroke-width="1.5" stroke-linecap="round" stroke-linejoin="round"/>
<path d="M12.457 5.67064C13.653 4.47469 15.7032 4.47469 16.8991 5.67064" stroke="black" stroke-width="1.5" stroke-linecap="round" stroke-linejoin="round"/>
<path d="M14.6763 8.92922C14.484 8.92922 14.3281 8.77331 14.3281 8.581C14.3281 8.38869 14.484 8.23279 14.6763 8.23279" stroke="black" stroke-width="1.5" stroke-linecap="round" stroke-linejoin="round"/>
<path d="M14.6758 8.92922C14.8681 8.92922 15.024 8.77331 15.024 8.581C15.024 8.38869 14.8681 8.23279 14.6758 8.23279" stroke="black" stroke-width="1.5" stroke-linecap="round" stroke-linejoin="round"/>
</g>
<defs>
<clipPath id="clip0_146_401258">
<rect width="21" height="21" fill="white"/>
</clipPath>
</defs>
</svg>
