<svg width="21" height="21" viewBox="0 0 21 21" fill="none" xmlns="http://www.w3.org/2000/svg">
<g clip-path="url(#clip0_146_401230)">
<path d="M19.5525 9.88294V15.375C19.5525 15.5597 19.4791 15.7369 19.3485 15.8674C19.2179 15.998 19.0407 16.0715 18.856 16.0715H2.14174C1.95704 16.0715 1.7799 15.998 1.64929 15.8674C1.51869 15.7369 1.44531 15.5597 1.44531 15.375V3.89345C1.44531 3.50883 1.75711 3.19702 2.14174 3.19702H4.22596" stroke="black" stroke-width="1.5" stroke-linecap="round" stroke-linejoin="round"/>
<path d="M9.1077 16.0714L7.71484 19.5536" stroke="black" stroke-width="1.5" stroke-linecap="round" stroke-linejoin="round"/>
<path d="M11.8906 16.0714L13.2835 19.5536" stroke="black" stroke-width="1.5" stroke-linecap="round" stroke-linejoin="round"/>
<path d="M6.32031 19.5536H14.6775" stroke="black" stroke-width="1.5" stroke-linecap="round" stroke-linejoin="round"/>
<path d="M13.2852 1.44641V6.32141" stroke="black" stroke-width="1.5" stroke-linecap="round" stroke-linejoin="round"/>
<path d="M9.42578 6.55821C9.7259 6.25875 10.0575 5.99257 10.4147 5.76428" stroke="black" stroke-width="1.5" stroke-linecap="round" stroke-linejoin="round"/>
<path d="M7.01562 4.09282C7.8228 3.26567 8.78313 2.60338 9.84312 2.14282" stroke="black" stroke-width="1.5" stroke-linecap="round" stroke-linejoin="round"/>
<path d="M17.1413 6.55821C16.8411 6.25875 16.5096 5.99257 16.1523 5.76428" stroke="black" stroke-width="1.5" stroke-linecap="round" stroke-linejoin="round"/>
<path d="M19.5541 4.09282C18.7469 3.26567 17.7865 2.60338 16.7266 2.14282" stroke="black" stroke-width="1.5" stroke-linecap="round" stroke-linejoin="round"/>
<path d="M13.2857 10.1518C13.0934 10.1518 12.9375 9.99585 12.9375 9.80354C12.9375 9.61122 13.0934 9.45532 13.2857 9.45532" stroke="black" stroke-width="1.5" stroke-linecap="round" stroke-linejoin="round"/>
<path d="M13.2852 10.1518C13.4775 10.1518 13.6334 9.99585 13.6334 9.80354C13.6334 9.61122 13.4775 9.45532 13.2852 9.45532" stroke="black" stroke-width="1.5" stroke-linecap="round" stroke-linejoin="round"/>
</g>
<defs>
<clipPath id="clip0_146_401230">
<rect width="21" height="21" fill="white"/>
</clipPath>
</defs>
</svg>
