<svg width="20" height="20" viewBox="0 0 20 20" fill="none" xmlns="http://www.w3.org/2000/svg">
<g id="moon-stars-36" clip-path="url(#clip0_47_149588)">
<g id="moon-stars--night-time">
<path id="Vector" d="M13.9648 4.05301V1.41016" stroke="black" stroke-width="1.5" stroke-linecap="round" stroke-linejoin="round"/>
<path id="Vector_2" d="M15.2874 2.73242H12.6445" stroke="black" stroke-width="1.5" stroke-linecap="round" stroke-linejoin="round"/>
<path id="Subtract" d="M10.0167 5.30467C7.95538 6.49476 7.28557 9.19366 8.52063 11.3328C9.75568 13.472 12.4279 14.2414 14.4892 13.0513C14.8691 12.832 15.4328 13.1384 15.3091 13.5673C14.8285 15.2339 13.7471 16.7076 12.1546 17.627C8.80495 19.5609 4.46259 18.3106 2.45563 14.8344C0.448664 11.3583 1.53709 6.97259 4.8867 5.03869C6.47919 4.11925 8.29609 3.91954 9.97973 4.33659C10.413 4.44391 10.3966 5.08535 10.0167 5.30467Z" stroke="black" stroke-width="1.5" stroke-linecap="round" stroke-linejoin="round"/>
<path id="Vector_3" d="M17.2695 9.33817V6.69531" stroke="black" stroke-width="1.5" stroke-linecap="round" stroke-linejoin="round"/>
<path id="Vector_4" d="M18.5882 8.01758H15.9453" stroke="black" stroke-width="1.5" stroke-linecap="round" stroke-linejoin="round"/>
</g>
</g>
<defs>
<clipPath id="clip0_47_149588">
<rect width="20" height="20" fill="white"/>
</clipPath>
</defs>
</svg>
