<svg width="21" height="21" viewBox="0 0 21 21" fill="none" xmlns="http://www.w3.org/2000/svg">
<path d="M10.4989 12.3245C11.0483 13.2389 11.8825 13.9477 12.8735 14.3425C13.8645 14.7372 14.9576 14.796 15.9852 14.5099C17.0129 14.2237 17.9182 13.6084 18.5626 12.7583C19.2069 11.9082 19.5547 10.8702 19.5525 9.80347C18.6801 10.2203 17.7327 10.4571 16.7668 10.4999C15.3739 10.4999 15.9589 7.12918 13.981 6.47454C13.3434 6.30431 12.669 6.33168 12.0473 6.55303C11.4255 6.77438 10.8855 7.17928 10.4989 7.71418C10.1123 7.17928 9.57232 6.77438 8.95054 6.55303C8.32875 6.33168 7.65443 6.30431 7.01675 6.47454C5.03889 7.12918 5.62389 10.4999 4.23104 10.4999C3.26513 10.4571 2.31773 10.2203 1.44532 9.80347C1.44312 10.8702 1.79085 11.9082 2.4352 12.7583C3.07955 13.6084 3.98495 14.2237 5.01257 14.5099C6.04019 14.796 7.13329 14.7372 8.1243 14.3425C9.11529 13.9477 9.94945 13.2389 10.4989 12.3245Z" stroke="black" stroke-width="1.5" stroke-linecap="round" stroke-linejoin="round"/>
</svg>
