<svg width="20" height="20" viewBox="0 0 20 20" fill="none" xmlns="http://www.w3.org/2000/svg">
<g id="multiple-file-1-66">
<g id="multiple-file-1--file-common-double">
<path id="Vector" d="M17.2673 13.9642C17.2673 14.3147 17.128 14.6508 16.8803 14.8986C16.6325 15.1464 16.2963 15.2856 15.9459 15.2856H7.35659C7.00612 15.2856 6.67001 15.1464 6.42219 14.8986C6.17438 14.6508 6.03516 14.3147 6.03516 13.9642V2.73207C6.03516 2.3816 6.17438 2.0455 6.42219 1.79768C6.67001 1.54987 7.00612 1.41064 7.35659 1.41064H13.303L17.2673 5.37493V13.9642Z" stroke="black" stroke-width="1.5" stroke-linecap="round" stroke-linejoin="round"/>
<path id="Vector_2" d="M13.3019 18.5893H4.0519C3.70143 18.5893 3.36532 18.45 3.1175 18.2022C2.86969 17.9545 2.73047 17.6183 2.73047 17.2679V5.375" stroke="black" stroke-width="1.5" stroke-linecap="round" stroke-linejoin="round"/>
</g>
</g>
</svg>
