<svg width="21" height="21" viewBox="0 0 21 21" fill="none" xmlns="http://www.w3.org/2000/svg">
<path d="M13.2863 14.6785L10.5006 12.5892L7.71484 14.6785V17.4642L10.5006 19.5535L13.2863 17.4642V14.6785Z" stroke="black" stroke-width="1.5" stroke-linecap="round" stroke-linejoin="round"/>
<path d="M13.2852 14.7936C14.7516 14.1536 15.9529 13.0282 16.6871 11.6066C17.4214 10.1851 17.6437 8.55405 17.3168 6.98782C16.9899 5.4216 16.1337 4.01569 14.8921 3.00651C13.6506 1.99732 12.0994 1.44641 10.4994 1.44641C8.89947 1.44641 7.34829 1.99732 6.10673 3.00651C4.86516 4.01569 4.00896 5.4216 3.68207 6.98782C3.35518 8.55405 3.57755 10.1851 4.31178 11.6066C5.04601 13.0282 6.24733 14.1536 7.71373 14.7936" stroke="black" stroke-width="1.5" stroke-linecap="round" stroke-linejoin="round"/>
</svg>
