<svg width="48" height="48" viewBox="0 0 48 48" fill="none" xmlns="http://www.w3.org/2000/svg">
<path d="M30.4297 7.93214C30.4297 9.63711 31.107 11.2722 32.3126 12.4778C33.5182 13.6834 35.1533 14.3607 36.8583 14.3607C38.5632 14.3607 40.1984 13.6834 41.4039 12.4778C42.6095 11.2722 43.2868 9.63711 43.2868 7.93214C43.2868 6.22718 42.6095 4.59205 41.4039 3.38646C40.1984 2.18086 38.5632 1.50357 36.8583 1.50357C35.1533 1.50357 33.5182 2.18086 32.3126 3.38646C31.107 4.59205 30.4297 6.22718 30.4297 7.93214Z" stroke="#414E62" stroke-width="3" stroke-linecap="round" stroke-linejoin="round"/>
<path d="M46.5001 30.4332V27.2189C46.5001 21.8932 42.1826 17.5758 36.8569 17.5758C33.2254 17.5758 30.0626 19.5834 28.418 22.5492" stroke="#414E62" stroke-width="3" stroke-linecap="round" stroke-linejoin="round"/>
<path d="M4.71484 7.93214C4.71484 8.77635 4.88112 9.6123 5.20419 10.3923C5.52726 11.1722 6.00078 11.8809 6.59773 12.4778C7.19468 13.0748 7.90336 13.5483 8.68331 13.8714C9.46326 14.1944 10.2992 14.3607 11.1434 14.3607C11.9876 14.3607 12.8236 14.1944 13.6035 13.8714C14.3835 13.5483 15.0922 13.0748 15.6891 12.4778C16.2861 11.8809 16.7596 11.1722 17.0826 10.3923C17.4057 9.6123 17.572 8.77635 17.572 7.93214C17.572 6.22718 16.8947 4.59205 15.6891 3.38646C14.4835 2.18086 12.8484 1.50357 11.1434 1.50357C9.43845 1.50357 7.80332 2.18086 6.59773 3.38646C5.39214 4.59205 4.71484 6.22718 4.71484 7.93214Z" stroke="#414E62" stroke-width="3" stroke-linecap="round" stroke-linejoin="round"/>
<path d="M1.5 30.4332V27.2189C1.5 21.8932 5.81736 17.5758 11.1431 17.5758C14.7747 17.5758 17.9374 19.5834 19.582 22.5492" stroke="#414E62" stroke-width="3" stroke-linecap="round" stroke-linejoin="round"/>
<path d="M17.5742 27.2107C17.5742 28.0549 17.7405 28.8909 18.0636 29.6708C18.3866 30.4508 18.8602 31.1595 19.4571 31.7564C20.0541 32.3533 20.7627 32.8269 21.5427 33.1499C22.3226 33.473 23.1586 33.6393 24.0028 33.6393C24.847 33.6393 25.6829 33.473 26.4629 33.1499C27.2428 32.8269 27.9515 32.3533 28.5485 31.7564C29.1454 31.1595 29.619 30.4508 29.942 29.6708C30.2651 28.8909 30.4314 28.0549 30.4314 27.2107C30.4314 26.3665 30.2651 25.5306 29.942 24.7506C29.619 23.9707 29.1454 23.262 28.5485 22.665C27.9515 22.0681 27.2428 21.5946 26.4629 21.2715C25.6829 20.9484 24.847 20.7821 24.0028 20.7821C23.1586 20.7821 22.3226 20.9484 21.5427 21.2715C20.7627 21.5946 20.0541 22.0681 19.4571 22.665C18.8602 23.262 18.3866 23.9707 18.0636 24.7506C17.7405 25.5306 17.5742 26.3665 17.5742 27.2107Z" stroke="#414E62" stroke-width="3" stroke-linecap="round" stroke-linejoin="round"/>
<path d="M33.6455 46.4961C33.6455 41.1704 29.3281 36.8529 24.0024 36.8529C18.6767 36.8529 14.3594 41.1704 14.3594 46.4961" stroke="#414E62" stroke-width="3" stroke-linecap="round" stroke-linejoin="round"/>
</svg>
