<svg width="20" height="20" viewBox="0 0 20 20" fill="none" xmlns="http://www.w3.org/2000/svg">
<g id="non-commercial-8" clip-path="url(#clip0_47_143781)">
<g id="non-commercial">
<path id="Ellipse 50" d="M1.41016 9.99993C1.41016 11.1279 1.63232 12.2448 2.06398 13.2869C2.49563 14.329 3.12831 15.2759 3.9259 16.0735C4.72349 16.8711 5.67036 17.5037 6.71246 17.9354C7.75457 18.367 8.87148 18.5892 9.99944 18.5892C11.1274 18.5892 12.2443 18.367 13.2864 17.9354C14.3285 17.5037 15.2754 16.8711 16.073 16.0735C16.8706 15.2759 17.5033 14.329 17.9349 13.2869C18.3666 12.2448 18.5887 11.1279 18.5887 9.99993C18.5887 8.87197 18.3666 7.75505 17.9349 6.71295C17.5033 5.67085 16.8706 4.72398 16.073 3.92639C15.2754 3.1288 14.3285 2.49612 13.2864 2.06447C12.2443 1.63281 11.1274 1.41064 9.99944 1.41064C8.87148 1.41064 7.75457 1.63281 6.71246 2.06447C5.67036 2.49612 4.72349 3.1288 3.9259 3.92639C3.12831 4.72398 2.49563 5.67085 2.06398 6.71295C1.63232 7.75505 1.41016 8.87197 1.41016 9.99993Z" stroke="black" stroke-width="1.5" stroke-linecap="round" stroke-linejoin="round"/>
<path id="Vector 613" d="M12.9275 11.3689V8.6261C12.9275 7.0076 11.6155 5.69556 9.99695 5.69556C8.37845 5.69556 7.06641 7.0076 7.06641 8.6261V11.3689C7.06641 12.9874 8.37845 14.2995 9.99695 14.2995C11.6155 14.2995 12.9275 12.9874 12.9275 11.3689Z" stroke="black" stroke-width="1.5" stroke-linecap="round" stroke-linejoin="round"/>
<path id="Vector 598" d="M12.6047 7.31763L7.33594 12.5864" stroke="black" stroke-width="1.5" stroke-linecap="round" stroke-linejoin="round"/>
</g>
</g>
<defs>
<clipPath id="clip0_47_143781">
<rect width="20" height="20" fill="white"/>
</clipPath>
</defs>
</svg>
