<svg width="20" height="20" viewBox="0 0 20 20" fill="none" xmlns="http://www.w3.org/2000/svg">
<g id="notebook-19" clip-path="url(#clip0_47_143823)">
<g id="notebook--pencil-content-write-notebook-book-edit-composition-creation">
<path id="Vector" d="M11.3209 18.5892H2.73158C2.38112 18.5892 2.04501 18.4499 1.79719 18.2022C1.54938 17.9544 1.41016 17.6182 1.41016 17.2678V2.73207C1.41016 2.3816 1.54938 2.0455 1.79719 1.79768C2.04501 1.54987 2.38112 1.41064 2.73158 1.41064H12.6423" stroke="black" stroke-width="1.5" stroke-linecap="round" stroke-linejoin="round"/>
<path id="Vector_2" d="M14.625 5.37493L16.6071 1.41064L18.5893 5.37493V16.6071C18.5893 17.1327 18.3805 17.637 18.0088 18.0087C17.6371 18.3804 17.1328 18.5892 16.6071 18.5892C16.0815 18.5892 15.5772 18.3804 15.2055 18.0087C14.8338 17.637 14.625 17.1327 14.625 16.6071V5.37493Z" stroke="black" stroke-width="1.5" stroke-linecap="round" stroke-linejoin="round"/>
<path id="Vector_3" d="M5.375 1.41064V18.5892" stroke="black" stroke-width="1.5" stroke-linecap="round" stroke-linejoin="round"/>
<path id="Vector_4" d="M8.67969 6.03564H11.3225" stroke="black" stroke-width="1.5" stroke-linecap="round" stroke-linejoin="round"/>
</g>
</g>
<defs>
<clipPath id="clip0_47_143823">
<rect width="20" height="20" fill="white"/>
</clipPath>
</defs>
</svg>
