<svg width="20" height="20" viewBox="0 0 20 20" fill="none" xmlns="http://www.w3.org/2000/svg">
<g id="notepad-sketchpad-50" clip-path="url(#clip0_47_141287)">
<g id="notepad-sketchpad">
<path id="vector" d="M6.03516 5.37505V1.41077" stroke="black" stroke-width="1.5" stroke-linecap="round" stroke-linejoin="round"/>
<path id="vector_2" d="M10 5.37505V1.41077" stroke="black" stroke-width="1.5" stroke-linecap="round" stroke-linejoin="round"/>
<path id="vector_3" d="M13.9648 5.37505V1.41077" stroke="black" stroke-width="1.5" stroke-linecap="round" stroke-linejoin="round"/>
<path id="vector_4" d="M17.2673 3.39294H2.73158C2.00178 3.39294 1.41016 3.98457 1.41016 4.71437V17.2679C1.41016 17.9978 2.00178 18.5894 2.73158 18.5894H17.2673C17.9971 18.5894 18.5887 17.9978 18.5887 17.2679V4.71437C18.5887 3.98457 17.9971 3.39294 17.2673 3.39294Z" stroke="black" stroke-width="1.5" stroke-linecap="round" stroke-linejoin="round"/>
<path id="vector 2056" d="M5.77795 8.71997C5.47437 10.3897 4.47147 14.221 5.09489 14.6398C5.99521 15.2446 9.07938 9.74455 9.64859 9.85839C10.2178 9.97224 9.19323 13.8429 9.64859 14.6398C10.104 15.4367 12.6965 10.9968 13.4623 10.9968C14.1454 10.9968 13.5762 14.0137 14.9422 14.6398" stroke="black" stroke-width="1.5" stroke-linecap="round" stroke-linejoin="round"/>
</g>
</g>
<defs>
<clipPath id="clip0_47_141287">
<rect width="20" height="20" fill="white"/>
</clipPath>
</defs>
</svg>
