<svg width="21" height="21" viewBox="0 0 21 21" fill="none" xmlns="http://www.w3.org/2000/svg">
<path d="M14.5836 13.2857V14.0174C14.5836 14.5621 14.8 15.0846 15.1853 15.4699C15.5704 15.855 16.222 16.0714 16.7667 16.0714H1.44531C1.99009 16.0714 2.64161 15.855 3.02683 15.4699C3.41204 15.0846 3.62846 14.5621 3.62846 14.0174L3.62845 9.00175C3.62845 7.54901 4.20555 6.15576 5.2328 5.12852C6.26004 4.10127 7.65329 3.52417 9.10603 3.52417C9.58021 3.52417 10.048 3.58565 10.4989 3.7042" stroke="black" stroke-width="1.5" stroke-linecap="round" stroke-linejoin="round"/>
<path d="M14.7031 1.44653V5.6251" stroke="black" stroke-width="1.5" stroke-linecap="round" stroke-linejoin="round"/>
<path d="M7.71484 19.5537H10.5006" stroke="black" stroke-width="1.5" stroke-linecap="round" stroke-linejoin="round"/>
<path d="M14.7038 8.75893C14.5114 8.75893 14.3555 8.60303 14.3555 8.41071C14.3555 8.2184 14.5114 8.0625 14.7038 8.0625" stroke="black" stroke-width="1.5" stroke-linecap="round" stroke-linejoin="round"/>
<path d="M14.7031 8.75893C14.8953 8.75893 15.0513 8.60303 15.0513 8.41071C15.0513 8.2184 14.8953 8.0625 14.7031 8.0625" stroke="black" stroke-width="1.5" stroke-linecap="round" stroke-linejoin="round"/>
</svg>
