<svg width="21" height="21" viewBox="0 0 21 21" fill="none" xmlns="http://www.w3.org/2000/svg">
<path d="M9.80246 4.23218H4.23103C3.49221 4.23218 2.78365 4.52567 2.26123 5.0481C1.73881 5.57052 1.44531 6.27908 1.44531 7.01789V16.7679C1.44531 17.5067 1.73881 18.2152 2.26123 18.7377C2.78365 19.2601 3.49221 19.5536 4.23103 19.5536H13.981C14.7198 19.5536 15.4283 19.2601 15.9508 18.7377C16.4733 18.2152 16.7667 17.5067 16.7667 16.7679V12.5893" stroke="black" stroke-width="1.5" stroke-linecap="round" stroke-linejoin="round"/>
<path d="M13.9805 1.44653V5.6251" stroke="black" stroke-width="1.5" stroke-linecap="round" stroke-linejoin="round"/>
<path d="M13.981 9.45546C13.7887 9.45546 13.6328 9.29956 13.6328 9.10725C13.6328 8.91494 13.7887 8.75903 13.981 8.75903" stroke="black" stroke-width="1.5" stroke-linecap="round" stroke-linejoin="round"/>
<path d="M13.9805 9.45546C14.1728 9.45546 14.3287 9.29956 14.3287 9.10725C14.3287 8.91494 14.1728 8.75903 13.9805 8.75903" stroke="black" stroke-width="1.5" stroke-linecap="round" stroke-linejoin="round"/>
</svg>
