<svg width="20" height="20" viewBox="0 0 20 20" fill="none" xmlns="http://www.w3.org/2000/svg">
<g id="number-eight-square-54" clip-path="url(#clip0_47_146414)">
<g id="number-eight-square--number-eight-square-mathematics-equation-text">
<path id="Vector 2" d="M9.50446 9.67006H10.4955C11.499 9.67006 12.3125 8.85658 12.3125 7.8531C12.3125 6.8496 11.499 6.03612 10.4955 6.03613L9.50444 6.03615C8.50097 6.03615 7.6875 6.84963 7.6875 7.8531C7.6875 8.85658 8.50098 9.67006 9.50446 9.67006Z" stroke="black" stroke-width="1.5" stroke-linecap="round" stroke-linejoin="round"/>
<path id="Vector 2_2" d="M12.6412 11.9824V11.6521C12.6412 10.5574 11.7538 9.66992 10.659 9.66992H9.33763C8.24291 9.66992 7.35547 10.5574 7.35547 11.6521V11.9824C7.35547 13.0771 8.24291 13.9646 9.33763 13.9646H10.659C11.7538 13.9645 12.6412 13.0771 12.6412 11.9824Z" stroke="black" stroke-width="1.5" stroke-linecap="round" stroke-linejoin="round"/>
<path id="Vector" d="M17.2673 1.41113H2.73158C2.00178 1.41113 1.41016 2.00276 1.41016 2.73256V17.2683C1.41016 17.9981 2.00178 18.5897 2.73158 18.5897H17.2673C17.9971 18.5897 18.5887 17.9981 18.5887 17.2683V2.73256C18.5887 2.00276 17.9971 1.41113 17.2673 1.41113Z" stroke="black" stroke-width="1.5" stroke-linecap="round" stroke-linejoin="round"/>
</g>
</g>
<defs>
<clipPath id="clip0_47_146414">
<rect width="20" height="20" fill="white"/>
</clipPath>
</defs>
</svg>
