<svg width="20" height="20" viewBox="0 0 20 20" fill="none" xmlns="http://www.w3.org/2000/svg">
<g id="number-four-square-25" clip-path="url(#clip0_47_146437)">
<g id="number-four-square--number-four-square-mathematics-equation-text">
<path id="Vector 7" d="M13.3025 11.9826H7.17557C6.91034 11.9826 6.69531 11.7675 6.69531 11.5023C6.69531 11.386 6.73753 11.2736 6.81414 11.186L11.1845 6.19133C11.2708 6.0927 11.3955 6.03613 11.5265 6.03613C11.7776 6.03613 11.981 6.23961 11.981 6.49061V13.9647" stroke="black" stroke-width="1.5" stroke-linecap="round" stroke-linejoin="round"/>
<path id="Vector" d="M17.2673 1.41113H2.73158C2.00178 1.41113 1.41016 2.00276 1.41016 2.73256V17.2683C1.41016 17.9981 2.00178 18.5897 2.73158 18.5897H17.2673C17.9971 18.5897 18.5887 17.9981 18.5887 17.2683V2.73256C18.5887 2.00276 17.9971 1.41113 17.2673 1.41113Z" stroke="black" stroke-width="1.5" stroke-linecap="round" stroke-linejoin="round"/>
</g>
</g>
<defs>
<clipPath id="clip0_47_146437">
<rect width="20" height="20" fill="white"/>
</clipPath>
</defs>
</svg>
