<svg width="20" height="20" viewBox="0 0 20 20" fill="none" xmlns="http://www.w3.org/2000/svg">
<g id="number-nine-square-41" clip-path="url(#clip0_47_146450)">
<g id="number-nine-square--number-nine-square-mathematics-equation-text">
<path id="Vector 2" d="M12.6412 8.34865L12.6412 8.01828C12.6412 6.92356 11.7537 6.03612 10.659 6.03613H9.3376C8.2429 6.03615 7.35547 6.92358 7.35547 8.01828V8.34865C7.35547 9.44336 8.24291 10.3308 9.33763 10.3308H10.659C11.7537 10.3308 12.6412 9.44334 12.6412 8.34865Z" stroke="black" stroke-width="1.5" stroke-linecap="round" stroke-linejoin="round"/>
<path id="Vector 3" d="M12.6417 8.01855V11.9829C12.6417 13.0776 11.7542 13.965 10.6595 13.965H9.33811C8.47507 13.965 7.74086 13.4134 7.46875 12.6436" stroke="black" stroke-width="1.5" stroke-linecap="round" stroke-linejoin="round"/>
<path id="Vector" d="M17.2673 1.41113H2.73158C2.00178 1.41113 1.41016 2.00276 1.41016 2.73256V17.2683C1.41016 17.9981 2.00178 18.5897 2.73158 18.5897H17.2673C17.9971 18.5897 18.5887 17.9981 18.5887 17.2683V2.73256C18.5887 2.00276 17.9971 1.41113 17.2673 1.41113Z" stroke="black" stroke-width="1.5" stroke-linecap="round" stroke-linejoin="round"/>
</g>
</g>
<defs>
<clipPath id="clip0_47_146450">
<rect width="20" height="20" fill="white"/>
</clipPath>
</defs>
</svg>
