<svg width="20" height="20" viewBox="0 0 20 20" fill="none" xmlns="http://www.w3.org/2000/svg">
<g id="number-six-square-49" clip-path="url(#clip0_47_146488)">
<g id="number-six-square--number-six-square-mathematics-equation-text">
<path id="Vector" d="M7.35548 11.9826V11.6522C7.35548 10.5575 8.24291 9.67007 9.33761 9.67007L10.659 9.67006C11.7538 9.67006 12.6412 10.5575 12.6412 11.6522V11.9826C12.6412 13.0773 11.7538 13.9647 10.6591 13.9647H9.33764C8.24293 13.9647 7.35548 13.0773 7.35548 11.9826ZM7.35548 11.9826L7.35547 8.01828C7.35547 6.92356 8.2429 6.03613 9.33761 6.03613H10.659C11.5221 6.03613 12.2563 6.5877 12.5284 7.35756" stroke="black" stroke-width="1.5" stroke-linecap="round" stroke-linejoin="round"/>
<path id="Vector_2" d="M17.2673 1.41113H2.73158C2.00178 1.41113 1.41016 2.00276 1.41016 2.73256V17.2683C1.41016 17.9981 2.00178 18.5897 2.73158 18.5897H17.2673C17.9971 18.5897 18.5887 17.9981 18.5887 17.2683V2.73256C18.5887 2.00276 17.9971 1.41113 17.2673 1.41113Z" stroke="black" stroke-width="1.5" stroke-linecap="round" stroke-linejoin="round"/>
</g>
</g>
<defs>
<clipPath id="clip0_47_146488">
<rect width="20" height="20" fill="white"/>
</clipPath>
</defs>
</svg>
