<svg width="20" height="20" viewBox="0 0 20 20" fill="none" xmlns="http://www.w3.org/2000/svg">
<g id="number-five-circle-1" clip-path="url(#clip0_47_146422)">
<g id="number-five-circle--number-five-circle-mathematics-equation-text">
<path id="Vector 3" d="M12.3108 6.03613H8.01618L7.35547 10.0004L7.83985 9.75823C8.39032 9.483 8.9973 9.3397 9.61273 9.3397H10.659C11.7538 9.3397 12.6412 10.2271 12.6412 11.3218V11.9826C12.6412 13.0773 11.7538 13.9647 10.659 13.9647H9.33761C8.47457 13.9647 7.74036 13.4131 7.46825 12.6433" stroke="black" stroke-width="1.5" stroke-linecap="round" stroke-linejoin="round"/>
<path id="Ellipse 1518" d="M1.41016 10.0004C1.41016 11.1284 1.63232 12.2453 2.06398 13.2874C2.49563 14.3295 3.12831 15.2764 3.9259 16.074C4.72349 16.8716 5.67036 17.5042 6.71246 17.9359C7.75457 18.3675 8.87148 18.5897 9.99944 18.5897C11.1274 18.5897 12.2443 18.3675 13.2864 17.9359C14.3285 17.5042 15.2754 16.8716 16.073 16.074C16.8706 15.2764 17.5033 14.3295 17.9349 13.2874C18.3666 12.2453 18.5887 11.1284 18.5887 10.0004C18.5887 8.87246 18.3666 7.75554 17.9349 6.71344C17.5033 5.67134 16.8706 4.72447 16.073 3.92688C15.2754 3.12929 14.3285 2.49661 13.2864 2.06495C12.2443 1.6333 11.1274 1.41113 9.99944 1.41113C8.87148 1.41113 7.75457 1.6333 6.71246 2.06495C5.67036 2.49661 4.72349 3.12929 3.9259 3.92688C3.12831 4.72447 2.49563 5.67134 2.06398 6.71344C1.63232 7.75554 1.41016 8.87246 1.41016 10.0004Z" stroke="black" stroke-width="1.5" stroke-linecap="round" stroke-linejoin="round"/>
</g>
</g>
<defs>
<clipPath id="clip0_47_146422">
<rect width="20" height="20" fill="white"/>
</clipPath>
</defs>
</svg>
