<svg width="20" height="20" viewBox="0 0 20 20" fill="none" xmlns="http://www.w3.org/2000/svg">
<g id="number-three-square-38" clip-path="url(#clip0_47_146499)">
<g id="number-three-square--number-three-square-mathematics-equation-text">
<path id="Vector" d="M7.41406 12.6433C7.68616 13.4132 8.42038 13.9647 9.28343 13.9647H10.6049C11.6995 13.9647 12.587 13.0773 12.587 11.9826V11.6522C12.587 10.5575 11.6995 9.67006 10.6048 9.67006H9.94414H10.4397C11.4432 9.67006 12.2566 8.85658 12.2566 7.8531C12.2566 6.8496 11.4432 6.03612 10.4397 6.03613L9.44859 6.03615C8.61691 6.03615 7.91574 6.59494 7.70003 7.35756" stroke="black" stroke-width="1.5" stroke-linecap="round" stroke-linejoin="round"/>
<path id="Vector_2" d="M17.2673 1.41113H2.73158C2.00178 1.41113 1.41016 2.00276 1.41016 2.73256V17.2683C1.41016 17.9981 2.00178 18.5897 2.73158 18.5897H17.2673C17.9971 18.5897 18.5887 17.9981 18.5887 17.2683V2.73256C18.5887 2.00276 17.9971 1.41113 17.2673 1.41113Z" stroke="black" stroke-width="1.5" stroke-linecap="round" stroke-linejoin="round"/>
</g>
</g>
<defs>
<clipPath id="clip0_47_146499">
<rect width="20" height="20" fill="white"/>
</clipPath>
</defs>
</svg>
