<svg width="20" height="20" viewBox="0 0 20 20" fill="none" xmlns="http://www.w3.org/2000/svg">
<g id="number-two-square-44" clip-path="url(#clip0_47_146510)">
<g id="number-two-square--number-two-square-mathematics-equation-text">
<path id="Vector 3" d="M12.6412 13.9647H7.35547V12.8384C7.35547 12.0509 7.82166 11.3381 8.54313 11.0225L11.4843 9.7357C12.1871 9.42824 12.6412 8.73392 12.6412 7.96686C12.6412 6.90055 11.7768 6.03613 10.7105 6.03613H9.33761C8.47457 6.03613 7.74036 6.5877 7.46825 7.35756" stroke="black" stroke-width="1.5" stroke-linecap="round" stroke-linejoin="round"/>
<path id="Vector" d="M17.2673 1.41113H2.73158C2.00178 1.41113 1.41016 2.00276 1.41016 2.73256V17.2683C1.41016 17.9981 2.00178 18.5897 2.73158 18.5897H17.2673C17.9971 18.5897 18.5887 17.9981 18.5887 17.2683V2.73256C18.5887 2.00276 17.9971 1.41113 17.2673 1.41113Z" stroke="black" stroke-width="1.5" stroke-linecap="round" stroke-linejoin="round"/>
</g>
</g>
<defs>
<clipPath id="clip0_47_146510">
<rect width="20" height="20" fill="white"/>
</clipPath>
</defs>
</svg>
