<svg width="20" height="20" viewBox="0 0 20 20" fill="none" xmlns="http://www.w3.org/2000/svg">
<g id="number-zero-square-20" clip-path="url(#clip0_47_146521)">
<g id="number-zero-square--number-zero-square-mathematics-equation-text">
<path id="Vector 2" d="M7.35547 7.96321V12.0376C7.35547 13.1019 8.21826 13.9647 9.28255 13.9647H10.7141C11.7784 13.9647 12.6412 13.1019 12.6412 12.0376V7.96321C12.6412 6.89892 11.7784 6.03613 10.7141 6.03613H9.28255C8.21826 6.03613 7.35547 6.89892 7.35547 7.96321Z" stroke="black" stroke-width="1.5" stroke-linecap="round" stroke-linejoin="round"/>
<path id="Vector" d="M17.2673 1.41113H2.73158C2.00178 1.41113 1.41016 2.00276 1.41016 2.73256V17.2683C1.41016 17.9981 2.00178 18.5897 2.73158 18.5897H17.2673C17.9971 18.5897 18.5887 17.9981 18.5887 17.2683V2.73256C18.5887 2.00276 17.9971 1.41113 17.2673 1.41113Z" stroke="black" stroke-width="1.5" stroke-linecap="round" stroke-linejoin="round"/>
</g>
</g>
<defs>
<clipPath id="clip0_47_146521">
<rect width="20" height="20" fill="white"/>
</clipPath>
</defs>
</svg>
