<svg width="20" height="20" viewBox="0 0 20 20" fill="none" xmlns="http://www.w3.org/2000/svg">
<g id="octagram-shape-17" clip-path="url(#clip0_47_144741)">
<g id="octagram-shape">
<path id="Union" d="M1.77629 9.116C1.28811 9.60419 1.28811 10.3957 1.77629 10.8839L3.55851 12.6661V15.1885C3.55851 15.8788 4.11817 16.4386 4.80857 16.4386H7.33098L9.11551 18.223C9.6037 18.7113 10.3952 18.7113 10.8834 18.223L12.6679 16.4386H15.1878C15.8782 16.4386 16.4378 15.8788 16.4378 15.1885V12.6686L18.2226 10.8839C18.7108 10.3957 18.7108 9.60419 18.2226 9.116L16.4378 7.33128V4.80925C16.4378 4.11886 15.8782 3.5592 15.1878 3.5592H12.6658L10.8834 1.77678C10.3952 1.2886 9.6037 1.2886 9.11551 1.77678L7.3331 3.5592H4.80857C4.11819 3.5592 3.55851 4.11886 3.55851 4.80925V7.33379L1.77629 9.116Z" stroke="black" stroke-width="1.5" stroke-linecap="round" stroke-linejoin="round"/>
</g>
</g>
<defs>
<clipPath id="clip0_47_144741">
<rect width="20" height="20" fill="white"/>
</clipPath>
</defs>
</svg>
