<svg width="21" height="21" viewBox="0 0 21 21" fill="none" xmlns="http://www.w3.org/2000/svg">
<g clip-path="url(#clip0_146_398374)">
<path d="M6.36384 7.01796C7.90235 7.01796 9.14955 5.77076 9.14955 4.23225C9.14955 2.69374 7.90235 1.44653 6.36384 1.44653C4.82533 1.44653 3.57812 2.69374 3.57812 4.23225C3.57812 5.77076 4.82533 7.01796 6.36384 7.01796Z" stroke="black" stroke-width="1.5" stroke-linecap="round" stroke-linejoin="round"/>
<path d="M8.71217 15.4093L8.19413 19.5538H4.54875L3.85233 13.9824H1.48828V11.8931C1.48828 10.6001 2.0019 9.36016 2.91613 8.44593C3.83037 7.53168 5.07035 7.01807 6.36329 7.01807C7.65621 7.01807 8.89618 7.53168 9.81043 8.44593C10.5136 9.14911 10.9798 10.045 11.1576 11.0095" stroke="black" stroke-width="1.5" stroke-linecap="round" stroke-linejoin="round"/>
<path d="M10.9102 14.6376C10.9102 13.9588 11.4604 13.4086 12.1392 13.4086H18.2842C18.9629 13.4086 19.5131 13.9588 19.5131 14.6376V18.3246C19.5131 19.0034 18.9629 19.5535 18.2842 19.5535H12.1392C11.4604 19.5535 10.9102 19.0034 10.9102 18.3246V14.6376Z" stroke="black" stroke-width="1.5" stroke-linecap="round" stroke-linejoin="round"/>
<path d="M13.5312 13.4086V12.502C13.5312 11.7327 14.1549 11.1091 14.9241 11.1091H15.4988C16.268 11.1091 16.8917 11.7327 16.8917 12.502V13.4086" stroke="black" stroke-width="1.5" stroke-linecap="round" stroke-linejoin="round"/>
</g>
<defs>
<clipPath id="clip0_146_398374">
<rect width="21" height="21" fill="white"/>
</clipPath>
</defs>
</svg>
