<svg width="19" height="19" viewBox="0 0 19 19" fill="none" xmlns="http://www.w3.org/2000/svg">
<path d="M5.375 5.375V1.625C5.375 1.21079 5.71079 0.875 6.125 0.875H13.625L18.125 5.375V17.375C18.125 17.7892 17.7892 18.125 17.375 18.125H12.125" stroke="#003366" stroke-width="1.3" stroke-linecap="round" stroke-linejoin="round"/>
<path d="M13.625 0.875V4.625C13.625 5.03921 13.9608 5.375 14.375 5.375H18.125" stroke="#003366" stroke-width="1.3" stroke-linecap="round" stroke-linejoin="round"/>
<path fill-rule="evenodd" clip-rule="evenodd" d="M1.625 15.875H10.625V17.375C10.625 17.7892 10.2892 18.125 9.875 18.125H2.375C1.96079 18.125 1.625 17.7892 1.625 17.375V15.875Z" stroke="#003366" stroke-width="1.3" stroke-linecap="round" stroke-linejoin="round"/>
<path fill-rule="evenodd" clip-rule="evenodd" d="M8.375 13.625C7.56298 13.6253 6.89814 12.9794 6.875 12.1678V12.1678C6.86126 11.6806 7.085 11.2172 7.475 10.925C8.24977 10.3439 8.56579 9.33226 8.25954 8.41349C7.95328 7.49472 7.09347 6.875 6.125 6.875C5.15653 6.875 4.29672 7.49472 3.99046 8.41349C3.68421 9.33226 4.00023 10.3439 4.775 10.925C5.16368 11.2179 5.38711 11.6804 5.375 12.167V12.167C5.35226 12.979 4.6873 13.6253 3.875 13.625H2.375C1.54657 13.625 0.875 14.2966 0.875 15.125C0.875 15.5392 1.21079 15.875 1.625 15.875H10.625C11.0392 15.875 11.375 15.5392 11.375 15.125C11.375 14.2966 10.7034 13.625 9.875 13.625H8.375Z" stroke="#003366" stroke-width="1.3" stroke-linecap="round" stroke-linejoin="round"/>
<path d="M16.25 8.37427H10.25" stroke="#003366" stroke-width="1.3" stroke-linecap="round" stroke-linejoin="round"/>
<path d="M16.25 14.3743H13.25" stroke="#003366" stroke-width="1.3" stroke-linecap="round" stroke-linejoin="round"/>
<path d="M16.25 11.3743H11.375" stroke="#003366" stroke-width="1.3" stroke-linecap="round" stroke-linejoin="round"/>
</svg>
