<svg width="20" height="20" viewBox="0 0 20 20" fill="none" xmlns="http://www.w3.org/2000/svg">
<g id="ok-hand-24">
<g id="ok-hand">
<path id="Ellipse 305 (Stroke)" d="M12.5807 18.3364C13.1947 18.1521 13.7834 17.8467 14.3112 17.4167C15.0238 16.8362 15.539 16.097 15.8428 15.2905C16.1697 14.4229 15.7312 13.4545 14.8636 13.1276C14.6156 13.0342 14.3593 13.0033 14.1122 13.0271C14.3545 12.9712 14.5879 12.8604 14.7937 12.6927C15.5126 12.1071 15.5675 10.7739 14.9819 10.055C13.9228 8.75502 12.3493 8.12095 10.7941 8.20721L12.5385 4.20776C12.9561 3.25033 12.5081 2.13646 11.5439 1.73471C10.7531 1.40522 9.84214 1.65487 9.36595 2.36701C8.05633 4.32556 5.64809 8.29729 5.49809 11.2215C5.29142 15.2507 5.49813 18.3364 5.49813 18.3364" stroke="black" stroke-width="1.5" stroke-linecap="round" stroke-linejoin="round"/>
<path id="Ellipse 305 (Stroke)_2" fill-rule="evenodd" clip-rule="evenodd" d="M10.2123 12.1669C9.49342 12.7525 9.38544 13.81 9.97107 14.5289C10.5567 15.2477 11.6142 15.3557 12.333 14.77C12.5734 14.5742 12.7428 14.3299 12.8431 14.0635C13.0489 13.5171 13.5091 13.1409 14.0383 13.0189C13.4981 13.0709 12.9427 12.8604 12.5742 12.4081C11.9886 11.6892 10.9311 11.5812 10.2123 12.1669Z" stroke="black" stroke-width="1.5" stroke-linecap="round" stroke-linejoin="round"/>
<path id="Vector 529" d="M10.8085 8.21094C10.4709 8.25092 9.66784 8.40018 9.15625 8.67728" stroke="black" stroke-width="1.5" stroke-linecap="round" stroke-linejoin="round"/>
<path id="Ellipse 305 (Stroke)_3" d="M5.42665 12.6411C4.24406 9.99708 4.297 5.65402 4.42192 3.40532C4.46943 2.54996 5.12659 1.87146 5.97499 1.75268C7.00944 1.60784 7.96189 2.33874 8.08965 3.37544V4.43064" stroke="black" stroke-width="1.5" stroke-linecap="round" stroke-linejoin="round"/>
</g>
</g>
</svg>
