<svg width="21" height="21" viewBox="0 0 21 21" fill="none" xmlns="http://www.w3.org/2000/svg">
<g clip-path="url(#clip0_146_401888)">
<path d="M15.1586 6.62615V2.76901C15.1586 2.06263 14.6057 1.48999 13.9239 1.48999H2.8127C2.13086 1.48999 1.57812 2.06263 1.57812 2.76901V16.8382C1.57812 17.5445 2.13086 18.1173 2.8127 18.1173H8.3683" stroke="black" stroke-width="1.5" stroke-linecap="round" stroke-linejoin="round"/>
<path d="M13.635 19.51L12.1909 16.7917L9.80575 14.3646C9.31462 13.8648 9.33974 13.0563 9.86094 12.588C10.2196 12.2657 10.7335 12.1827 11.1754 12.3758L14.1724 13.6858C14.6324 13.8868 15.1476 13.5498 15.1476 13.0476L15.1479 5.65733C15.1479 4.9183 15.7471 4.31921 16.486 4.31921C17.1305 4.31921 17.6833 4.77849 17.8016 5.41197L19.2997 13.4425C19.3822 13.8849 19.3807 14.3389 19.2953 14.7807L18.38 19.51" stroke="black" stroke-width="1.5" stroke-linecap="round" stroke-linejoin="round"/>
</g>
<defs>
<clipPath id="clip0_146_401888">
<rect width="21" height="21" fill="white"/>
</clipPath>
</defs>
</svg>
