<svg width="20" height="20" viewBox="0 0 20 20" fill="none" xmlns="http://www.w3.org/2000/svg">
<g id="one-finger-double-tap-16">
<g id="one-finger-double-tap">
<path id="Vector 107" d="M17.4043 18.5892V15.0489C17.4043 13.1711 15.882 11.6488 14.0041 11.6488H11.2321V6.2884C11.2321 5.43607 10.5411 4.74512 9.68877 4.74512C8.83645 4.74512 8.1455 5.43607 8.1455 6.2884V13.3151L7.72837 13.3936C6.11768 13.6968 5.35117 15.5564 6.28048 16.9064L6.43178 17.1263L7.43759 18.5892" stroke="black" stroke-width="1.5" stroke-linecap="round" stroke-linejoin="round"/>
<path id="Ellipse 306" d="M5.19871 7.59117C5.11983 7.25209 5.07812 6.89877 5.07812 6.53569C5.07812 3.97299 7.15561 1.89551 9.71831 1.89551C12.281 1.89551 14.3584 3.97299 14.3584 6.53569C14.3584 6.89877 14.3168 7.25209 14.2379 7.59117" stroke="black" stroke-width="1.5" stroke-linecap="round" stroke-linejoin="round"/>
<path id="Ellipse 307" d="M2.59375 4.1933C2.81062 3.1695 3.30929 2.27776 3.99141 1.58203" stroke="black" stroke-width="1.5" stroke-linecap="round" stroke-linejoin="round"/>
<path id="Ellipse 308" d="M16.8468 4.1933C16.6299 3.1695 16.1313 2.27776 15.4492 1.58203" stroke="black" stroke-width="1.5" stroke-linecap="round" stroke-linejoin="round"/>
</g>
</g>
</svg>
