<svg width="20" height="20" viewBox="0 0 20 20" fill="none" xmlns="http://www.w3.org/2000/svg">
<g id="one-finger-tap-12">
<g id="one-finger-tap">
<path id="Vector 107" d="M16.7414 18.589V14.8452C16.7414 12.9673 15.2193 11.4451 13.3415 11.4451H10.3883V5.92741C10.3883 5.05007 9.67711 4.33887 8.79979 4.33887C7.92245 4.33887 7.21125 5.05007 7.21125 5.92741V13.1602L6.6815 13.2599C5.0708 13.563 4.30429 15.4228 5.23361 16.7727L5.44726 17.0831L6.48256 18.589" stroke="black" stroke-width="1.5" stroke-linecap="round" stroke-linejoin="round"/>
<path id="Ellipse 302" d="M4.18258 7.26769C4.10147 6.91902 4.05859 6.55568 4.05859 6.18231C4.05859 3.547 6.19495 1.41064 8.83026 1.41064C11.4656 1.41064 13.6019 3.547 13.6019 6.18231C13.6019 6.55568 13.559 6.91902 13.4779 7.26769" stroke="black" stroke-width="1.5" stroke-linecap="round" stroke-linejoin="round"/>
</g>
</g>
</svg>
