<svg width="20" height="20" viewBox="0 0 20 20" fill="none" xmlns="http://www.w3.org/2000/svg">
<g id="online-status-active-account-14" clip-path="url(#clip0_47_148859)">
<g id="online-status-active-account">
<path id="vector" d="M7.35826 8.0173C9.18277 8.0173 10.6618 6.53824 10.6618 4.71373C10.6618 2.88922 9.18277 1.41016 7.35826 1.41016C5.53375 1.41016 4.05469 2.88922 4.05469 4.71373C4.05469 6.53824 5.53375 8.0173 7.35826 8.0173Z" stroke="black" stroke-width="1.5" stroke-linecap="round" stroke-linejoin="round"/>
<path id="vector_2" d="M10.6602 17.268H1.41016V16.5517C1.42068 15.5445 1.6863 14.5563 2.18223 13.6797C2.67816 12.803 3.3882 12.0662 4.24603 11.5383C5.10388 11.0104 6.08153 10.7086 7.08765 10.6609C7.17735 10.6567 7.26702 10.6545 7.35659 10.6543C7.44615 10.6545 7.53582 10.6567 7.62552 10.6609C8.63164 10.7086 9.60929 11.0104 10.4671 11.5383C10.6081 11.6251 10.7451 11.7175 10.8778 11.8152" stroke="black" stroke-width="1.5" stroke-linecap="round" stroke-linejoin="round"/>
<path id="vector_3" d="M15.6138 18.589C13.9718 18.589 12.6406 17.2578 12.6406 15.6158C12.6406 13.9738 13.9718 12.6426 15.6138 12.6426C17.2558 12.6426 18.5871 13.9738 18.5871 15.6158C18.5871 17.2578 17.2558 18.589 15.6138 18.589Z" stroke="black" stroke-width="1.5" stroke-linecap="round" stroke-linejoin="round"/>
</g>
</g>
<defs>
<clipPath id="clip0_47_148859">
<rect width="20" height="20" fill="white"/>
</clipPath>
</defs>
</svg>
