<svg width="20" height="20" viewBox="0 0 20 20" fill="none" xmlns="http://www.w3.org/2000/svg">
<g id="open-hand-5">
<g id="open-hand">
<path id="Vector 1996" d="M7.35587 18.5897L6.58293 18.0743C5.78345 17.5414 5.08752 16.8676 4.52906 16.0857L2.76511 13.616C2.35141 13.0368 2.36049 12.2564 2.78756 11.6869C3.42813 10.8329 4.70247 10.813 5.36937 11.6467L6.69516 13.304C7.35587 13.304 8.94159 13.5683 9.99873 14.6254" stroke="black" stroke-width="1.5" stroke-linecap="round" stroke-linejoin="round"/>
<path id="Vector 1997" d="M6.69531 13.3038V5.04485C6.69531 4.13259 7.43485 3.39307 8.3471 3.39307C9.25936 3.39307 9.99888 4.13259 9.99888 5.04485V10.0002C9.99888 9.08795 10.7384 8.34842 11.6507 8.34842C12.5629 8.34842 13.3025 9.08795 13.3025 10.0002V17.5984V6.36628C13.3025 5.45402 14.042 4.71449 14.9542 4.71449C15.8665 4.71449 16.606 5.45402 16.606 6.36628V16.1734C16.606 16.8743 16.3276 17.5465 15.8319 18.0422L15.2846 18.5895" stroke="black" stroke-width="1.5" stroke-linecap="round" stroke-linejoin="round"/>
</g>
</g>
</svg>
