<svg width="20" height="20" viewBox="0 0 20 20" fill="none" xmlns="http://www.w3.org/2000/svg">
<g id="open-book-25" clip-path="url(#clip0_47_143877)">
<g id="open-book--content-books-book-open">
<path id="Vector" d="M9.99947 18.5891C8.06389 16.458 5.43894 15.0778 2.58625 14.6909C2.26155 14.6549 1.96167 14.4999 1.74448 14.256C1.52729 14.0119 1.4082 13.6961 1.41018 13.3694V2.73191C1.41017 2.54105 1.4515 2.35244 1.53135 2.17907C1.61118 2.00571 1.72763 1.85169 1.87268 1.72763C2.01517 1.60582 2.18195 1.51572 2.36194 1.46332C2.54192 1.41092 2.731 1.39741 2.91661 1.4237C5.64442 1.87643 8.13985 3.23588 9.99947 5.28227V18.5891Z" stroke="black" stroke-width="1.5" stroke-linecap="round" stroke-linejoin="round"/>
<path id="Vector_2" d="M10 18.5891C11.9356 16.458 14.5605 15.0778 17.4132 14.6909C17.7379 14.6549 18.0379 14.4999 18.255 14.256C18.4722 14.0119 18.5913 13.6961 18.5893 13.3694V2.73191C18.5893 2.54105 18.5479 2.35244 18.4681 2.17907C18.3883 2.00571 18.2719 1.85169 18.1268 1.72763C17.9843 1.60582 17.8176 1.51572 17.6376 1.46332C17.4575 1.41092 17.2685 1.39741 17.0829 1.4237C14.355 1.87643 11.8596 3.23588 10 5.28227V18.5891Z" stroke="black" stroke-width="1.5" stroke-linecap="round" stroke-linejoin="round"/>
</g>
</g>
<defs>
<clipPath id="clip0_47_143877">
<rect width="20" height="20" fill="white"/>
</clipPath>
</defs>
</svg>
