<svg width="21" height="21" viewBox="0 0 21 21" fill="none" xmlns="http://www.w3.org/2000/svg">
<path d="M17.4637 18.1607V2.83927C17.4637 2.07001 16.8401 1.44641 16.0709 1.44641H4.92801C4.15875 1.44641 3.53516 2.07001 3.53516 2.83927V18.1607C3.53516 18.93 4.15875 19.5536 4.92801 19.5536H16.0709C16.8401 19.5536 17.4637 18.93 17.4637 18.1607Z" stroke="black" stroke-width="1.5" stroke-linecap="round" stroke-linejoin="round"/>
<path d="M12.6524 8.39392C13.5973 8.39392 14.3633 7.6279 14.3633 6.68299C14.3633 5.73806 13.5973 4.97205 12.6524 4.97205C11.7074 4.97205 10.9414 5.73806 10.9414 6.68299C10.9414 7.6279 11.7074 8.39392 12.6524 8.39392Z" stroke="black" stroke-width="1.5" stroke-linecap="round" stroke-linejoin="round"/>
<path d="M3.53516 11.6245C4.01851 11.5423 4.50959 11.5016 5.00167 11.5027C6.70726 11.4684 8.37106 11.9742 9.69622 12.9299C11.8429 14.478 12.654 17.1613 12.654 19.5535" stroke="black" stroke-width="1.5" stroke-linecap="round" stroke-linejoin="round"/>
<path d="M17.4654 13.8023C16.522 13.5189 15.533 13.3746 14.5372 13.3751C13.2768 13.3727 12.0292 13.5996 10.8711 14.0419" stroke="black" stroke-width="1.5" stroke-linecap="round" stroke-linejoin="round"/>
</svg>
