<svg width="21" height="21" viewBox="0 0 21 21" fill="none" xmlns="http://www.w3.org/2000/svg">
<path d="M9.84355 18.6109C9.1215 19.0758 8.26206 19.2796 7.40811 19.1884C6.55418 19.0971 5.75718 18.7163 5.14962 18.1095L4.62034 17.5802C4.38557 17.3428 4.25391 17.0225 4.25391 16.6887C4.25391 16.3549 4.38557 16.0345 4.62034 15.7973L6.84891 13.5826C7.08384 13.3487 7.40186 13.2174 7.73338 13.2174C8.06489 13.2174 8.38291 13.3487 8.61784 13.5826C8.85514 13.8174 9.17547 13.9491 9.50927 13.9491C9.84307 13.9491 10.1634 13.8174 10.4007 13.5826L13.9525 10.0308C14.1872 9.79354 14.3189 9.47321 14.3189 9.13939C14.3189 8.8056 14.1872 8.48527 13.9525 8.24797C13.7186 8.01305 13.5873 7.69503 13.5873 7.3635C13.5873 7.03199 13.7186 6.71397 13.9525 6.47904L16.0976 4.25047C16.3348 4.01571 16.6551 3.88403 16.989 3.88403C17.3227 3.88403 17.6431 4.01571 17.8804 4.25047L18.4097 4.77975C19.0274 5.37874 19.4212 6.17149 19.5252 7.02575C19.6291 7.87999 19.4369 8.74403 18.9808 9.47368C16.5519 13.0795 13.4494 16.182 9.84355 18.6109Z" stroke="black" stroke-width="1.5" stroke-linecap="round" stroke-linejoin="round"/>
<path d="M6.32031 1.44653H1.44531V6.32153" stroke="black" stroke-width="1.5" stroke-linecap="round" stroke-linejoin="round"/>
<path d="M1.44531 1.44653L8.40956 8.41078" stroke="black" stroke-width="1.5" stroke-linecap="round" stroke-linejoin="round"/>
</svg>
