<svg width="20" height="20" viewBox="0 0 20 20" fill="none" xmlns="http://www.w3.org/2000/svg">
<g id="padlock-square-1-9">
<g id="padlock-square-1--combination-combo-lock-locked-padlock-secure-security-shield-keyhole">
<path id="Vector" d="M15.2874 8.01855H4.71596C3.98616 8.01855 3.39453 8.61018 3.39453 9.33998V17.2686C3.39453 17.9984 3.98616 18.59 4.71596 18.59H15.2874C16.0172 18.59 16.6088 17.9984 16.6088 17.2686V9.33998C16.6088 8.61018 16.0172 8.01855 15.2874 8.01855Z" stroke="black" stroke-width="1.5" stroke-linecap="round" stroke-linejoin="round"/>
<path id="Vector_2" d="M14.625 8.01828V6.03613C14.625 4.8095 14.1378 3.63311 13.2704 2.76577C12.403 1.89841 11.2266 1.41113 10 1.41113C8.77337 1.41113 7.59698 1.89841 6.72964 2.76577C5.86228 3.63311 5.375 4.8095 5.375 6.03613V8.01828" stroke="black" stroke-width="1.5" stroke-linecap="round" stroke-linejoin="round"/>
<path id="Vector_3" d="M10.0006 13.965C10.3655 13.965 10.6613 13.6692 10.6613 13.3043C10.6613 12.9394 10.3655 12.6436 10.0006 12.6436C9.63566 12.6436 9.33984 12.9394 9.33984 13.3043C9.33984 13.6692 9.63566 13.965 10.0006 13.965Z" stroke="black" stroke-width="1.5" stroke-linecap="round" stroke-linejoin="round"/>
</g>
</g>
</svg>
