<svg width="20" height="20" viewBox="0 0 20 20" fill="none" xmlns="http://www.w3.org/2000/svg">
<g id="padlock-square-2-1">
<g id="padlock-square-2--combination-combo-key-keyhole-lock-secure-security-square-unlock-unlocked">
<path id="Vector" d="M15.2874 8.01855H4.71596C3.98616 8.01855 3.39453 8.61018 3.39453 9.33998V17.2686C3.39453 17.9984 3.98616 18.59 4.71596 18.59H15.2874C16.0172 18.59 16.6088 17.9984 16.6088 17.2686V9.33998C16.6088 8.61018 16.0172 8.01855 15.2874 8.01855Z" stroke="black" stroke-width="1.5" stroke-linecap="round" stroke-linejoin="round"/>
<path id="Vector_2" d="M13.2639 2.77224C12.8384 2.33883 12.3303 1.99508 11.7697 1.76131C11.2091 1.52753 10.6074 1.40848 10 1.41118C8.77337 1.41118 7.59698 1.89845 6.72964 2.76581C5.86228 3.63317 5.375 4.80956 5.375 6.03617V8.01831" stroke="black" stroke-width="1.5" stroke-linecap="round" stroke-linejoin="round"/>
<path id="Vector_3" d="M10.0006 13.965C10.3655 13.965 10.6613 13.6692 10.6613 13.3043C10.6613 12.9394 10.3655 12.6436 10.0006 12.6436C9.63566 12.6436 9.33984 12.9394 9.33984 13.3043C9.33984 13.6692 9.63566 13.965 10.0006 13.965Z" stroke="black" stroke-width="1.5" stroke-linecap="round" stroke-linejoin="round"/>
</g>
</g>
</svg>
