<svg width="20" height="20" viewBox="0 0 20 20" fill="none" xmlns="http://www.w3.org/2000/svg">
<g id="paint-palette-4" clip-path="url(#clip0_47_143600)">
<g id="paint-palette--color-colors-design-paint-painting-palette">
<path id="Vector" d="M11.9816 7.35697C12.7114 7.35697 13.303 6.76534 13.303 6.03554C13.303 5.30574 12.7114 4.71411 11.9816 4.71411C11.2518 4.71411 10.6602 5.30574 10.6602 6.03554C10.6602 6.76534 11.2518 7.35697 11.9816 7.35697Z" stroke="black" stroke-width="1.5" stroke-linecap="round" stroke-linejoin="round"/>
<path id="Vector_2" d="M6.69587 13.9643C7.06077 13.9643 7.35659 13.6684 7.35659 13.3035C7.35659 12.9386 7.06077 12.6428 6.69587 12.6428C6.33097 12.6428 6.03516 12.9386 6.03516 13.3035C6.03516 13.6684 6.33097 13.9643 6.69587 13.9643Z" stroke="black" stroke-width="1.5" stroke-linecap="round" stroke-linejoin="round"/>
<path id="Vector_3" d="M6.69643 9.33915C7.42623 9.33915 8.01786 8.74752 8.01786 8.01772C8.01786 7.28792 7.42623 6.69629 6.69643 6.69629C5.96663 6.69629 5.375 7.28792 5.375 8.01772C5.375 8.74752 5.96663 9.33915 6.69643 9.33915Z" stroke="black" stroke-width="1.5" stroke-linecap="round" stroke-linejoin="round"/>
<path id="Vector_4" d="M13.3296 16.9771C13.3149 16.7207 13.2258 16.4743 13.0732 16.2677C12.9207 16.0613 12.7113 15.9037 12.4707 15.8142C11.873 15.6177 11.365 15.2146 11.038 14.6771C10.711 14.1396 10.5865 13.5031 10.6868 12.882C10.7871 12.261 11.1057 11.696 11.5853 11.2889C12.0649 10.8817 12.674 10.6589 13.3032 10.6606H15.7742C16.198 10.6618 16.616 10.5611 16.9927 10.3669C17.3693 10.1726 17.6938 9.89067 17.9387 9.54475C18.1836 9.19881 18.3416 8.79907 18.3996 8.37924C18.4576 7.95939 18.4138 7.53177 18.2717 7.13243C17.7462 5.64843 16.8228 4.33741 15.6025 3.34264C14.3823 2.34785 12.9122 1.70758 11.3528 1.49175C9.79329 1.27592 8.2045 1.49284 6.75997 2.11883C5.31544 2.74481 4.07075 3.75576 3.16187 5.04124C2.25299 6.32672 1.7149 7.83727 1.60637 9.40785C1.49785 10.9784 1.82307 12.5486 2.54652 13.9469C3.26995 15.3451 4.36377 16.5177 5.70848 17.3364C7.05318 18.1551 8.59704 18.5886 10.1714 18.5892C10.9488 18.5913 11.7228 18.4847 12.4707 18.2721C12.7453 18.1952 12.9832 18.0219 13.1409 17.7842C13.2985 17.5465 13.3655 17.2601 13.3296 16.9771Z" stroke="black" stroke-width="1.5" stroke-linecap="round" stroke-linejoin="round"/>
</g>
</g>
<defs>
<clipPath id="clip0_47_143600">
<rect width="20" height="20" fill="white"/>
</clipPath>
</defs>
</svg>
