<svg width="20" height="20" viewBox="0 0 20 20" fill="none" xmlns="http://www.w3.org/2000/svg">
<g id="paintbrush-2-1" clip-path="url(#clip0_47_143611)">
<g id="paintbrush-2--brush-color-colors-design-paint-painting">
<path id="Vector" d="M8.8537 16.6811C6.83192 18.7161 3.3962 19.39 1.41406 17.355C4.05692 14.6196 1.41406 13.2983 3.3962 11.3161C3.74426 10.9284 4.16769 10.6158 4.64067 10.3972C5.11364 10.1787 5.62621 10.059 6.14702 10.0453C6.66785 10.0316 7.18601 10.1242 7.66981 10.3175C8.15362 10.5109 8.59293 10.8008 8.96089 11.1697C9.32884 11.5385 9.61772 11.9785 9.80986 12.4628C10.002 12.9471 10.0934 13.4655 10.0784 13.9863C10.0634 14.5071 9.9424 15.0194 9.72274 15.4918C9.50308 15.9642 9.1894 16.3869 8.80085 16.7339L8.8537 16.6811Z" stroke="black" stroke-width="1.5" stroke-linecap="round" stroke-linejoin="round"/>
<path id="Vector_2" d="M6.95703 10.1084L13.9671 2.29042C14.9635 1.17026 16.7622 1.11481 17.8257 2.17149C18.883 3.23505 18.8272 5.03375 17.7068 6.03007L9.9676 12.9601" stroke="black" stroke-width="1.5" stroke-linecap="round" stroke-linejoin="round"/>
</g>
</g>
<defs>
<clipPath id="clip0_47_143611">
<rect width="20" height="20" fill="white"/>
</clipPath>
</defs>
</svg>
