<svg width="20" height="20" viewBox="0 0 20 20" fill="none" xmlns="http://www.w3.org/2000/svg">
<g id="paintbrush-1-7">
<g id="paintbrush-1--brush-color-colors-design-paint-painting">
<path id="Vector" d="M15.9455 11.9822H4.05266L3.04837 17.0036C3.01054 17.1956 3.01581 17.3936 3.06381 17.5832C3.1118 17.7728 3.2013 17.9495 3.32587 18.1004C3.44883 18.252 3.60385 18.3745 3.77978 18.459C3.95571 18.5435 4.14819 18.588 4.34337 18.5893H15.6548C15.85 18.588 16.0425 18.5435 16.2184 18.459C16.3943 18.3745 16.5493 18.252 16.6723 18.1004C16.7969 17.9495 16.8864 17.7728 16.9343 17.5832C16.9823 17.3936 16.9876 17.1956 16.9498 17.0036L15.9455 11.9822Z" stroke="black" stroke-width="1.5" stroke-linecap="round" stroke-linejoin="round"/>
<path id="Vector_2" d="M15.9448 8.01779C16.2952 8.01779 16.6314 8.15701 16.8791 8.40482C17.1269 8.65264 17.2662 8.98875 17.2662 9.33922V11.9821H2.73047V9.33922C2.73047 8.98875 2.86969 8.65264 3.1175 8.40482C3.36532 8.15701 3.70143 8.01779 4.0519 8.01779H6.03404C6.38451 8.01779 6.72061 7.87856 6.96844 7.63075C7.21624 7.38293 7.35547 7.04683 7.35547 6.69636V4.0535C7.35547 3.35258 7.63391 2.68035 8.12955 2.18472C8.62518 1.68909 9.2974 1.41064 9.99833 1.41064C10.6993 1.41064 11.3715 1.68909 11.8671 2.18472C12.3627 2.68035 12.6412 3.35258 12.6412 4.0535V6.69636C12.6412 7.04683 12.7804 7.38293 13.0282 7.63075C13.276 7.87856 13.6121 8.01779 13.9626 8.01779H15.9448Z" stroke="black" stroke-width="1.5" stroke-linecap="round" stroke-linejoin="round"/>
<path id="Vector_3" d="M11.9805 18.5892V15.2856" stroke="black" stroke-width="1.5" stroke-linecap="round" stroke-linejoin="round"/>
</g>
</g>
</svg>
