<svg width="20" height="20" viewBox="0 0 20 20" fill="none" xmlns="http://www.w3.org/2000/svg">
<g id="paint-bucket-11" clip-path="url(#clip0_47_143596)">
<g id="paint-bucket--bucket-color-colors-design-paint-painting">
<path id="Vector" d="M17.2689 9.86779L8.8117 1.41064L1.67599 10.9249C1.4872 11.1782 1.3954 11.4908 1.41722 11.8059C1.43904 12.121 1.57303 12.4179 1.79491 12.6428L6.0367 16.8846C6.26075 17.103 6.55505 17.2349 6.86722 17.2567C7.17938 17.2784 7.48913 17.1888 7.74134 17.0035L17.2689 9.86779Z" stroke="black" stroke-width="1.5" stroke-linecap="round" stroke-linejoin="round"/>
<path id="Vector_2" d="M15.6887 18.0171C15.1772 17.4251 15.3425 16.5391 15.6397 15.8154C15.8537 15.2939 16.1227 14.812 16.4434 14.2616C16.4903 14.171 16.5615 14.0951 16.649 14.0427C16.7365 13.9901 16.8369 13.963 16.939 13.9642C17.0397 13.9624 17.1388 13.9896 17.2247 14.0422C17.3106 14.0949 17.3796 14.171 17.4236 14.2616C17.75 14.8125 18.023 15.2957 18.2392 15.8197C18.5365 16.5403 18.7002 17.4226 18.1921 18.0138C18.1652 18.0453 18.1368 18.0758 18.1073 18.1053C17.7974 18.4152 17.3772 18.5893 16.939 18.5893C16.5007 18.5893 16.0805 18.4152 15.7706 18.1053C15.7422 18.0769 15.7149 18.0474 15.6887 18.0171Z" stroke="black" stroke-width="1.5" stroke-linecap="round" stroke-linejoin="round"/>
</g>
</g>
<defs>
<clipPath id="clip0_47_143596">
<rect width="20" height="20" fill="white"/>
</clipPath>
</defs>
</svg>
