<svg width="20" height="20" viewBox="0 0 20 20" fill="none" xmlns="http://www.w3.org/2000/svg">
<g id="panel-expansion-11" clip-path="url(#clip0_47_146637)">
<g id="panel-expansion">
<path id="Rectangle 583" d="M1.41016 2.73256C1.41016 2.00276 2.00178 1.41113 2.73158 1.41113H6.69587C7.42567 1.41113 8.0173 2.00276 8.0173 2.73256V6.69684C8.0173 7.42666 7.42567 8.01827 6.69587 8.01827H2.73158C2.00178 8.01827 1.41016 7.42666 1.41016 6.69684V2.73256Z" stroke="black" stroke-width="1.5" stroke-linecap="round" stroke-linejoin="round"/>
<path id="Rectangle 584" d="M11.9805 2.73256C11.9805 2.00276 12.5721 1.41113 13.3019 1.41113H17.2662C17.996 1.41113 18.5876 2.00276 18.5876 2.73256V17.2681C18.5876 17.9979 17.996 18.5895 17.2662 18.5895H13.3019C12.5721 18.5895 11.9805 17.9979 11.9805 17.2681V2.73256Z" stroke="black" stroke-width="1.5" stroke-linecap="round" stroke-linejoin="round"/>
</g>
</g>
<defs>
<clipPath id="clip0_47_146637">
<rect width="20" height="20" fill="white"/>
</clipPath>
</defs>
</svg>
