<svg width="20" height="20" viewBox="0 0 20 20" fill="none" xmlns="http://www.w3.org/2000/svg">
<g id="panoramic-screen-10">
<g id="panoramic-screen">
<path id="rectangle 629" d="M7.26172 14.1357L7.26173 5.86426" stroke="black" stroke-width="1.5" stroke-linecap="round" stroke-linejoin="round"/>
<path id="rectangle 632" d="M12.7344 5.86426V14.1357" stroke="black" stroke-width="1.5" stroke-linecap="round" stroke-linejoin="round"/>
<path id="rectangle 631" d="M2.61856 14.9983C3.73992 14.7304 5.77066 14.2786 7.26256 14.1359C9.39038 13.9323 10.6082 13.9323 12.7361 14.1359C14.2279 14.2786 16.2587 14.7304 17.3801 14.9983C17.8007 15.0987 18.2095 14.781 18.2095 14.3487V5.65167C18.2095 5.21923 17.8007 4.9016 17.3801 5.00207C16.2587 5.26991 14.2279 5.72167 12.7361 5.86441C10.6082 6.068 9.39038 6.068 7.26256 5.86441C5.77066 5.72167 3.73992 5.26991 2.61855 5.00207C2.19795 4.9016 1.78906 5.21925 1.78906 5.65168L1.78906 14.3487C1.78906 14.781 2.19795 15.0987 2.61856 14.9983Z" stroke="black" stroke-width="1.5" stroke-linecap="round" stroke-linejoin="round"/>
</g>
</g>
</svg>
