<svg width="20" height="20" viewBox="0 0 20 20" fill="none" xmlns="http://www.w3.org/2000/svg">
<g id="paperclip-2-65">
<g id="paperclip-2--attachment-link-paperclip-unlink">
<path id="Vector" d="M14.9537 15.9465V4.71434C14.9537 3.83818 14.6056 2.99789 13.9861 2.37836C13.3666 1.75882 12.5263 1.41077 11.6501 1.41077H8.34654C7.47038 1.41077 6.6301 1.75882 6.01056 2.37836C5.39102 2.99789 5.04297 3.83818 5.04297 4.71434V15.9465C5.04297 16.6474 5.32141 17.3196 5.81705 17.8152C6.31268 18.3109 6.9849 18.5893 7.68583 18.5893H9.00725C9.70818 18.5893 10.3804 18.3109 10.876 17.8152C11.3717 17.3196 11.6501 16.6474 11.6501 15.9465V6.03577C11.6501 5.6853 11.5109 5.34919 11.2631 5.10137C11.0153 4.85356 10.6792 4.71434 10.3287 4.71434H9.66797C9.3175 4.71434 8.98139 4.85356 8.73357 5.10137C8.48577 5.34919 8.34654 5.6853 8.34654 6.03577V13.3036" stroke="black" stroke-width="1.5" stroke-linecap="round" stroke-linejoin="round"/>
</g>
</g>
</svg>
