<svg width="20" height="20" viewBox="0 0 20 20" fill="none" xmlns="http://www.w3.org/2000/svg">
<g id="paperclip-1-49">
<g id="paperclip-1--attachment-link-paperclip-unlink">
<path id="Vector" d="M17.74 9.71817L9.97052 17.5529C9.66906 17.86 9.3094 18.1041 8.91256 18.2706C8.51572 18.4372 8.08965 18.523 7.65928 18.523C7.22889 18.523 6.80283 18.4372 6.40598 18.2706C6.00914 18.1041 5.64948 17.86 5.34803 17.5529L3.02372 15.1894C2.41525 14.5714 2.07422 13.7389 2.07422 12.8717C2.07422 12.0044 2.41525 11.1719 3.02372 10.5539L11.3024 2.24906C11.5452 2.00428 11.8341 1.81 12.1523 1.67741C12.4705 1.54482 12.8119 1.47656 13.1566 1.47656C13.5014 1.47656 13.8428 1.54482 14.161 1.67741C14.4792 1.81 14.7681 2.00428 15.0108 2.24906L15.9379 3.17618C16.1828 3.41895 16.3771 3.7078 16.5096 4.02604C16.6423 4.34428 16.7105 4.68563 16.7105 5.03039C16.7105 5.37515 16.6423 5.7165 16.5096 6.03474C16.3771 6.353 16.1828 6.64183 15.9379 6.88461L8.59945 14.2492C8.47805 14.3717 8.33363 14.4688 8.1745 14.535C8.01539 14.6014 7.84471 14.6355 7.67233 14.6355C7.49995 14.6355 7.32928 14.6014 7.17015 14.535C7.01104 14.4688 6.8666 14.3717 6.74522 14.2492L6.28819 13.7792C6.1658 13.6578 6.06866 13.5134 6.00236 13.3542C5.93608 13.1951 5.90195 13.0245 5.90195 12.8521C5.90195 12.6797 5.93608 12.509 6.00236 12.3499C6.06866 12.1908 6.1658 12.0463 6.28819 11.925L11.211 7.0413" stroke="black" stroke-width="1.5" stroke-linecap="round" stroke-linejoin="round"/>
</g>
</g>
</svg>
