<svg width="20" height="20" viewBox="0 0 20 20" fill="none" xmlns="http://www.w3.org/2000/svg">
<g id="password-block-7" clip-path="url(#clip0_47_146279)">
<g id="password-block--login-password-false-textbox-touch-type-block">
<path id="Vector" d="M7.35659 10.6611H2.73158C2.38112 10.6611 2.04501 10.5219 1.79719 10.2741C1.54938 10.0263 1.41016 9.69017 1.41016 9.3397V2.73256C1.41016 2.38209 1.54938 2.04599 1.79719 1.79817C2.04501 1.55035 2.38112 1.41113 2.73158 1.41113H14.6244C14.9749 1.41113 15.3111 1.55035 15.5588 1.79817C15.8066 2.04599 15.9459 2.38209 15.9459 2.73256V6.69685" stroke="black" stroke-width="1.5" stroke-linecap="round" stroke-linejoin="round"/>
<path id="Vector_2" d="M14.2946 18.5893C11.9228 18.5893 10 16.6665 10 14.2946C10 11.9228 11.9228 10 14.2946 10C16.6665 10 18.5893 11.9228 18.5893 14.2946C18.5893 16.6665 16.6665 18.5893 14.2946 18.5893Z" stroke="black" stroke-width="1.5" stroke-linecap="round" stroke-linejoin="round"/>
<path id="Vector_3" d="M17.3324 17.3345L11.2539 11.2559" stroke="black" stroke-width="1.5" stroke-linecap="round" stroke-linejoin="round"/>
<g id="Group 2605">
<path id="Ellipse 1111" d="M5.37333 6.36677C5.19088 6.36677 5.04297 6.21886 5.04297 6.03641C5.04297 5.85396 5.19088 5.70605 5.37333 5.70605" stroke="black" stroke-width="1.5" stroke-linecap="round" stroke-linejoin="round"/>
<path id="Ellipse 1112" d="M5.375 6.36677C5.55745 6.36677 5.70536 6.21886 5.70536 6.03641C5.70536 5.85396 5.55745 5.70605 5.375 5.70605" stroke="black" stroke-width="1.5" stroke-linecap="round" stroke-linejoin="round"/>
</g>
<g id="Group 2614">
<path id="Ellipse 1111_2" d="M11.9827 6.36677C11.8003 6.36677 11.6523 6.21886 11.6523 6.03641C11.6523 5.85396 11.8003 5.70605 11.9827 5.70605" stroke="black" stroke-width="1.5" stroke-linecap="round" stroke-linejoin="round"/>
<path id="Ellipse 1112_2" d="M11.9844 6.36677C12.1668 6.36677 12.3147 6.21886 12.3147 6.03641C12.3147 5.85396 12.1668 5.70605 11.9844 5.70605" stroke="black" stroke-width="1.5" stroke-linecap="round" stroke-linejoin="round"/>
</g>
<g id="Group 2615">
<path id="Ellipse 1111_3" d="M8.67801 6.36677C8.49556 6.36677 8.34766 6.21886 8.34766 6.03641C8.34766 5.85396 8.49556 5.70605 8.67801 5.70605" stroke="black" stroke-width="1.5" stroke-linecap="round" stroke-linejoin="round"/>
<path id="Ellipse 1112_3" d="M8.67969 6.36677C8.86214 6.36677 9.01004 6.21886 9.01004 6.03641C9.01004 5.85396 8.86214 5.70605 8.67969 5.70605" stroke="black" stroke-width="1.5" stroke-linecap="round" stroke-linejoin="round"/>
</g>
</g>
</g>
<defs>
<clipPath id="clip0_47_146279">
<rect width="20" height="20" fill="white"/>
</clipPath>
</defs>
</svg>
