<svg width="20" height="20" viewBox="0 0 20 20" fill="none" xmlns="http://www.w3.org/2000/svg">
<g id="password-lock-17" clip-path="url(#clip0_47_146303)">
<g id="password-lock--circle-dots-lock-login-padlock-password-secure-security-textbox-type">
<path id="Vector" d="M8.0173 10.6611H2.73158C2.38112 10.6611 2.04501 10.5219 1.79719 10.2741C1.54938 10.0263 1.41016 9.69017 1.41016 9.3397V2.73256C1.41016 2.38209 1.54938 2.04599 1.79719 1.79817C2.04501 1.55035 2.38112 1.41113 2.73158 1.41113H14.6244C14.9749 1.41113 15.3111 1.55035 15.5588 1.79817C15.8066 2.04599 15.9459 2.38209 15.9459 2.73256V6.03613" stroke="black" stroke-width="1.5" stroke-linecap="round" stroke-linejoin="round"/>
<path id="Vector_2" d="M11.3209 13.3037H17.928C18.3244 13.3037 18.5887 13.568 18.5887 13.9644V17.9287C18.5887 18.3251 18.3244 18.5894 17.928 18.5894H11.3209C10.9244 18.5894 10.6602 18.3251 10.6602 17.9287V13.9644C10.6602 13.568 10.9244 13.3037 11.3209 13.3037Z" stroke="black" stroke-width="1.5" stroke-linecap="round" stroke-linejoin="round"/>
<path id="Vector_3" d="M11.9805 13.3041V11.9827C11.9805 10.5291 13.1698 9.33984 14.6233 9.33984C16.0769 9.33984 17.2662 10.5291 17.2662 11.9827V13.3041" stroke="black" stroke-width="1.5" stroke-linecap="round" stroke-linejoin="round"/>
<g id="Group 2605">
<path id="Ellipse 1111" d="M5.37333 6.36677C5.19088 6.36677 5.04297 6.21886 5.04297 6.03641C5.04297 5.85396 5.19088 5.70605 5.37333 5.70605" stroke="black" stroke-width="1.5" stroke-linecap="round" stroke-linejoin="round"/>
<path id="Ellipse 1112" d="M5.375 6.36677C5.55745 6.36677 5.70536 6.21886 5.70536 6.03641C5.70536 5.85396 5.55745 5.70605 5.375 5.70605" stroke="black" stroke-width="1.5" stroke-linecap="round" stroke-linejoin="round"/>
</g>
<g id="Group 2610">
<path id="Ellipse 1111_2" d="M11.9827 6.36677C11.8003 6.36677 11.6523 6.21886 11.6523 6.03641C11.6523 5.85396 11.8003 5.70605 11.9827 5.70605" stroke="black" stroke-width="1.5" stroke-linecap="round" stroke-linejoin="round"/>
<path id="Ellipse 1112_2" d="M11.9844 6.36677C12.1668 6.36677 12.3147 6.21886 12.3147 6.03641C12.3147 5.85396 12.1668 5.70605 11.9844 5.70605" stroke="black" stroke-width="1.5" stroke-linecap="round" stroke-linejoin="round"/>
</g>
<g id="Group 2611">
<path id="Ellipse 1111_3" d="M8.67801 6.36677C8.49556 6.36677 8.34766 6.21886 8.34766 6.03641C8.34766 5.85396 8.49556 5.70605 8.67801 5.70605" stroke="black" stroke-width="1.5" stroke-linecap="round" stroke-linejoin="round"/>
<path id="Ellipse 1112_3" d="M8.67969 6.36677C8.86214 6.36677 9.01004 6.21886 9.01004 6.03641C9.01004 5.85396 8.86214 5.70605 8.67969 5.70605" stroke="black" stroke-width="1.5" stroke-linecap="round" stroke-linejoin="round"/>
</g>
</g>
</g>
<defs>
<clipPath id="clip0_47_146303">
<rect width="20" height="20" fill="white"/>
</clipPath>
</defs>
</svg>
