<svg width="20" height="20" viewBox="0 0 20 20" fill="none" xmlns="http://www.w3.org/2000/svg">
<g id="pathfinder-exclude-1" clip-path="url(#clip0_47_146675)">
<g id="pathfinder-exclude">
<path id="Vector" d="M13.303 4.05399V2.73256C13.303 2.38209 13.1638 2.04599 12.916 1.79817C12.6682 1.55035 12.3321 1.41113 11.9816 1.41113H2.73158C2.38112 1.41113 2.04501 1.55035 1.79719 1.79817C1.54938 2.04599 1.41016 2.38209 1.41016 2.73256V11.9826C1.41016 12.333 1.54938 12.6691 1.79719 12.917C2.04501 13.1648 2.38112 13.304 2.73158 13.304H4.05301" stroke="black" stroke-width="1.5" stroke-linecap="round" stroke-linejoin="round"/>
<path id="Vector_2" d="M15.9453 6.69727H17.2667C17.6172 6.69727 17.9534 6.83649 18.2011 7.0843C18.4489 7.33212 18.5882 7.66822 18.5882 8.01869V17.2687C18.5882 17.6191 18.4489 17.9553 18.2011 18.2031C17.9534 18.4508 17.6172 18.5901 17.2667 18.5901H8.01674C7.66627 18.5901 7.33017 18.4508 7.08235 18.2031C6.83454 17.9553 6.69531 17.6191 6.69531 17.2687V15.9473" stroke="black" stroke-width="1.5" stroke-linecap="round" stroke-linejoin="round"/>
<path id="Vector 2595" d="M11.9805 6.69727H12.6412C13.0061 6.69727 13.3019 6.99308 13.3019 7.35798V8.01869" stroke="black" stroke-width="1.5" stroke-linecap="round" stroke-linejoin="round"/>
<path id="Vector 2596" d="M13.3019 11.9824V12.6431C13.3019 13.008 13.0061 13.3039 12.6412 13.3039H11.9805" stroke="black" stroke-width="1.5" stroke-linecap="round" stroke-linejoin="round"/>
<path id="Vector 2597" d="M8.01674 13.3039H7.35603C6.99113 13.3039 6.69531 13.008 6.69531 12.6431V11.9824" stroke="black" stroke-width="1.5" stroke-linecap="round" stroke-linejoin="round"/>
<path id="Vector 2598" d="M6.69531 8.01869V7.35798C6.69531 6.99308 6.99113 6.69727 7.35603 6.69727H8.01674" stroke="black" stroke-width="1.5" stroke-linecap="round" stroke-linejoin="round"/>
</g>
</g>
<defs>
<clipPath id="clip0_47_146675">
<rect width="20" height="20" fill="white"/>
</clipPath>
</defs>
</svg>
