<svg width="20" height="20" viewBox="0 0 20 20" fill="none" xmlns="http://www.w3.org/2000/svg">
<g id="pathfinder-outline-2" clip-path="url(#clip0_47_146741)">
<g id="pathfinder-outline">
<path id="Vector" d="M13.303 4.05399V2.73256C13.303 2.38209 13.1638 2.04599 12.916 1.79817C12.6682 1.55035 12.3321 1.41113 11.9816 1.41113H2.73158C2.38112 1.41113 2.04501 1.55035 1.79719 1.79817C1.54938 2.04599 1.41016 2.38209 1.41016 2.73256V11.9826C1.41016 12.333 1.54938 12.6691 1.79719 12.917C2.04501 13.1648 2.38112 13.304 2.73158 13.304H4.05301" stroke="black" stroke-width="1.5" stroke-linecap="round" stroke-linejoin="round"/>
<path id="Vector_2" d="M15.9453 6.69727H17.2667C17.6172 6.69727 17.9534 6.83649 18.2011 7.0843C18.4489 7.33212 18.5882 7.66822 18.5882 8.01869V17.2687C18.5882 17.6191 18.4489 17.9553 18.2011 18.2031C17.9534 18.4508 17.6172 18.5901 17.2667 18.5901H8.01674C7.66627 18.5901 7.33017 18.4508 7.08235 18.2031C6.83454 17.9553 6.69531 17.6191 6.69531 17.2687V15.9473" stroke="black" stroke-width="1.5" stroke-linecap="round" stroke-linejoin="round"/>
<path id="Vector_3" d="M8.01674 6.69727C7.28694 6.69727 6.69531 7.2889 6.69531 8.01869V11.983C6.69531 12.7128 7.28694 13.3044 8.01674 13.3044H11.981C12.7108 13.3044 13.3025 12.7128 13.3025 11.983V8.01869C13.3025 7.2889 12.7108 6.69727 11.981 6.69727H8.01674Z" stroke="black" stroke-width="1.5" stroke-linecap="round" stroke-linejoin="round"/>
</g>
</g>
<defs>
<clipPath id="clip0_47_146741">
<rect width="20" height="20" fill="white"/>
</clipPath>
</defs>
</svg>
