<svg width="20" height="20" viewBox="0 0 20 20" fill="none" xmlns="http://www.w3.org/2000/svg">
<g id="pathfinder-minus-back-2-3" clip-path="url(#clip0_47_146711)">
<g id="pathfinder-minus-back-2">
<path id="Vector" d="M1.41016 11.9824C1.41016 12.3329 1.54938 12.669 1.79719 12.9168C2.04501 13.1646 2.38112 13.3039 2.73158 13.3039" stroke="black" stroke-width="1.5" stroke-linecap="round" stroke-linejoin="round"/>
<path id="Vector_2" d="M2.73158 1.41113C2.38112 1.41113 2.04501 1.55035 1.79719 1.79817C1.54938 2.04599 1.41016 2.38209 1.41016 2.73256" stroke="black" stroke-width="1.5" stroke-linecap="round" stroke-linejoin="round"/>
<path id="Vector_3" d="M13.3019 2.73256C13.3019 2.38209 13.1627 2.04599 12.9149 1.79817C12.667 1.55035 12.3309 1.41113 11.9805 1.41113" stroke="black" stroke-width="1.5" stroke-linecap="round" stroke-linejoin="round"/>
<path id="Vector_4" d="M6.03516 1.41113H8.67801" stroke="black" stroke-width="1.5" stroke-linecap="round" stroke-linejoin="round"/>
<path id="Vector_5" d="M1.41016 6.03613V8.67899" stroke="black" stroke-width="1.5" stroke-linecap="round" stroke-linejoin="round"/>
<path id="Vector_6" d="M13.3025 6.69727H17.2667C17.6172 6.69727 17.9534 6.83649 18.2011 7.0843C18.4489 7.33212 18.5882 7.66822 18.5882 8.01869V17.2687C18.5882 17.6191 18.4489 17.9553 18.2011 18.2031C17.9534 18.4508 17.6172 18.5901 17.2667 18.5901H8.01674C7.66627 18.5901 7.33017 18.4508 7.08235 18.2031C6.83454 17.9553 6.69531 17.6191 6.69531 17.2687V13.3044H11.981C12.3315 13.3044 12.6676 13.1652 12.9154 12.9174C13.1632 12.6696 13.3025 12.3334 13.3025 11.983V6.69727Z" stroke="black" stroke-width="1.5" stroke-linecap="round" stroke-linejoin="round"/>
</g>
</g>
<defs>
<clipPath id="clip0_47_146711">
<rect width="20" height="20" fill="white"/>
</clipPath>
</defs>
</svg>
