<svg width="20" height="20" viewBox="0 0 20 20" fill="none" xmlns="http://www.w3.org/2000/svg">
<g id="pathfinder-divide-9" clip-path="url(#clip0_47_146671)">
<g id="pathfinder-divide">
<path id="Vector" d="M11.9816 13.304C12.7114 13.304 13.303 12.7124 13.303 11.9826V2.73256C13.303 2.01282 12.7013 1.41113 11.9816 1.41113H2.73158C2.01185 1.41113 1.41016 2.01282 1.41016 2.73256V11.9826C1.41016 12.7023 2.01185 13.304 2.73158 13.304H11.9816Z" stroke="black" stroke-width="1.5" stroke-linecap="round" stroke-linejoin="round"/>
<path id="Vector_2" d="M17.2667 18.5901C17.9966 18.5901 18.5882 17.9985 18.5882 17.2687V8.01869C18.5882 7.29895 17.9865 6.69727 17.2667 6.69727H8.01674C7.297 6.69727 6.69531 7.29895 6.69531 8.01869V17.2687C6.69531 17.9885 7.297 18.5901 8.01674 18.5901H17.2667Z" stroke="black" stroke-width="1.5" stroke-linecap="round" stroke-linejoin="round"/>
</g>
</g>
<defs>
<clipPath id="clip0_47_146671">
<rect width="20" height="20" fill="white"/>
</clipPath>
</defs>
</svg>
