<svg width="20" height="20" viewBox="0 0 20 20" fill="none" xmlns="http://www.w3.org/2000/svg">
<g id="pathfinder-merge-6" clip-path="url(#clip0_47_146696)">
<g id="pathfinder-merge">
<path id="Vector" d="M13.303 2.73256V6.69685H17.2673C17.6177 6.69685 17.9539 6.83607 18.2017 7.08388C18.4494 7.3317 18.5887 7.66781 18.5887 8.01828V17.2683C18.5887 17.6187 18.4494 17.9549 18.2017 18.2027C17.9539 18.4504 17.6177 18.5897 17.2673 18.5897H8.0173C7.66683 18.5897 7.33072 18.4504 7.0829 18.2027C6.8351 17.9549 6.69587 17.6187 6.69587 17.2683V13.304H2.73158C2.38112 13.304 2.04501 13.1648 1.79719 12.917C1.54938 12.6691 1.41016 12.333 1.41016 11.9826V2.73256C1.41016 2.38209 1.54938 2.04599 1.79719 1.79817C2.04501 1.55035 2.38112 1.41113 2.73158 1.41113H11.9816C12.3321 1.41113 12.6682 1.55035 12.916 1.79817C13.1638 2.04599 13.303 2.38209 13.303 2.73256Z" stroke="black" stroke-width="1.5" stroke-linecap="round" stroke-linejoin="round"/>
<path id="Vector 2601" d="M6.69531 13.3041V9.33984" stroke="black" stroke-width="1.5" stroke-linecap="round" stroke-linejoin="round"/>
</g>
</g>
<defs>
<clipPath id="clip0_47_146696">
<rect width="20" height="20" fill="white"/>
</clipPath>
</defs>
</svg>
