<svg width="21" height="21" viewBox="0 0 21 21" fill="none" xmlns="http://www.w3.org/2000/svg">
<g clip-path="url(#clip0_146_399457)">
<path d="M19.5525 9.10712V2.83927C19.5525 2.07001 18.9289 1.44641 18.1596 1.44641H2.83817C2.06892 1.44641 1.44531 2.07001 1.44531 2.83927V11.1964C1.44531 11.9657 2.06892 12.5893 2.83817 12.5893H8.4096" stroke="black" stroke-width="1.5" stroke-linecap="round" stroke-linejoin="round"/>
<path d="M10.5 9.45532C11.8462 9.45532 12.9375 8.36402 12.9375 7.01782C12.9375 5.67163 11.8462 4.58032 10.5 4.58032C9.1538 4.58032 8.0625 5.67163 8.0625 7.01782C8.0625 8.36402 9.1538 9.45532 10.5 9.45532Z" stroke="black" stroke-width="1.5" stroke-linecap="round" stroke-linejoin="round"/>
<path d="M4.61384 7.36611C4.42153 7.36611 4.26562 7.2102 4.26562 7.01789C4.26562 6.82558 4.42153 6.66968 4.61384 6.66968" stroke="black" stroke-width="1.5" stroke-linecap="round" stroke-linejoin="round"/>
<path d="M4.61328 7.36611C4.80559 7.36611 4.9615 7.2102 4.9615 7.01789C4.9615 6.82558 4.80559 6.66968 4.61328 6.66968" stroke="black" stroke-width="1.5" stroke-linecap="round" stroke-linejoin="round"/>
<path d="M16.3834 7.36611C16.191 7.36611 16.0352 7.2102 16.0352 7.01789C16.0352 6.82558 16.191 6.66968 16.3834 6.66968" stroke="black" stroke-width="1.5" stroke-linecap="round" stroke-linejoin="round"/>
<path d="M16.3828 7.36611C16.5752 7.36611 16.731 7.2102 16.731 7.01789C16.731 6.82558 16.5752 6.66968 16.3828 6.66968" stroke="black" stroke-width="1.5" stroke-linecap="round" stroke-linejoin="round"/>
<path d="M15.3739 19.5536C17.6817 19.5536 19.5525 17.6828 19.5525 15.375C19.5525 13.0672 17.6817 11.1964 15.3739 11.1964C13.0661 11.1964 11.1953 13.0672 11.1953 15.375C11.1953 17.6828 13.0661 19.5536 15.3739 19.5536Z" stroke="black" stroke-width="1.5" stroke-linecap="round" stroke-linejoin="round"/>
<path d="M16.4196 14.3303L15.375 15.375" stroke="black" stroke-width="1.5" stroke-linecap="round" stroke-linejoin="round"/>
</g>
<defs>
<clipPath id="clip0_146_399457">
<rect width="21" height="21" fill="white"/>
</clipPath>
</defs>
</svg>
