<svg width="20" height="20" viewBox="0 0 20 20" fill="none" xmlns="http://www.w3.org/2000/svg">
<g id="pen-2-29" clip-path="url(#clip0_47_141339)">
<g id="pen-2--content-creation-edit-fountain-pen-write">
<path id="Vector" d="M8.0173 17.268C8.38248 16.9313 8.67393 16.5227 8.87328 16.0679C9.07265 15.613 9.17556 15.1217 9.17556 14.6251C9.17556 14.1284 9.07265 13.6372 8.87328 13.1823C8.67393 12.7275 8.38248 12.3188 8.0173 11.9822C7.6807 11.6171 7.27208 11.3256 6.8172 11.1263C6.36233 10.9269 5.87109 10.824 5.37444 10.824C4.8778 10.824 4.38656 10.9269 3.93168 11.1263C3.4768 11.3256 3.06818 11.6171 2.73158 11.9822C1.41016 13.3037 1.41016 18.5894 1.41016 18.5894C1.41016 18.5894 6.69587 18.5894 8.0173 17.268Z" stroke="black" stroke-width="1.5" stroke-linecap="round" stroke-linejoin="round"/>
<path id="Vector_2" d="M17.8224 2.17743C17.3647 1.7255 16.7579 1.45603 16.1156 1.41954C15.4734 1.38305 14.8399 1.58204 14.3338 1.97922L6.69603 7.35743L5.75781 10.846C6.61888 10.9551 7.41647 11.3562 8.01746 11.9824C8.64367 12.5834 9.0448 13.381 9.15388 14.2421L12.6425 13.3039L18.0206 5.666C18.4178 5.16 18.6168 4.52651 18.5804 3.88428C18.5439 3.24205 18.2743 2.63519 17.8224 2.17743Z" stroke="black" stroke-width="1.5" stroke-linecap="round" stroke-linejoin="round"/>
<path id="Vector_3" d="M1.41016 18.5894L4.63114 15.3684" stroke="black" stroke-width="1.5" stroke-linecap="round" stroke-linejoin="round"/>
</g>
</g>
<defs>
<clipPath id="clip0_47_141339">
<rect width="20" height="20" fill="white"/>
</clipPath>
</defs>
</svg>
