<svg width="20" height="20" viewBox="0 0 20 20" fill="none" xmlns="http://www.w3.org/2000/svg">
<g id="pen-pressure-79" clip-path="url(#clip0_47_141354)">
<g id="pen-pressure--pencil-drawing-tablet">
<path id="Vector" d="M11.3379 11.9793L7.38672 12.6905L8.04525 8.68663L14.9335 1.82476C15.0559 1.70132 15.2016 1.60334 15.3621 1.53647C15.5225 1.46961 15.6947 1.43518 15.8686 1.43518C16.0424 1.43518 16.2146 1.46961 16.3751 1.53647C16.5355 1.60334 16.6813 1.70132 16.8037 1.82476L18.1998 3.22085C18.3232 3.34328 18.4212 3.48895 18.4881 3.64944C18.555 3.80994 18.5893 3.98208 18.5893 4.15596C18.5893 4.32982 18.555 4.50197 18.4881 4.66246C18.4212 4.82296 18.3232 4.96862 18.1998 5.09106L11.3379 11.9793Z" stroke="black" stroke-width="1.5" stroke-linecap="round" stroke-linejoin="round"/>
<path id="Ellipse 889" d="M5.80927 8.68689C4.74463 9.39475 4.04297 10.6052 4.04297 11.9795C4.04297 14.1616 5.81196 15.9308 7.99413 15.9308C9.36847 15.9308 10.5789 15.2291 11.2868 14.1644" stroke="black" stroke-width="1.5" stroke-linecap="round" stroke-linejoin="round"/>
<path id="Ellipse 890" d="M7.33691 5.42651C4.00916 5.75691 1.41016 8.56459 1.41016 11.9793C1.41016 15.6162 4.35849 18.5646 7.99544 18.5646C11.4101 18.5646 14.2178 15.9656 14.5482 12.6378" stroke="black" stroke-width="1.5" stroke-linecap="round" stroke-linejoin="round"/>
</g>
</g>
<defs>
<clipPath id="clip0_47_141354">
<rect width="20" height="20" fill="white"/>
</clipPath>
</defs>
</svg>
