<svg width="20" height="20" viewBox="0 0 20 20" fill="none" xmlns="http://www.w3.org/2000/svg">
<g id="pencil-line-71" clip-path="url(#clip0_47_141372)">
<g id="pencil-line--edit-edition-form-pen-text-write">
<path id="Vector" d="M1.41016 18.5894H18.5811" stroke="black" stroke-width="1.5" stroke-linecap="round" stroke-linejoin="round"/>
<path id="Vector_2" d="M9.33361 13.9665L5.37109 14.6796L6.03152 10.6643L14.9208 1.80147C15.0436 1.67767 15.1896 1.57941 15.3505 1.51235C15.5115 1.44529 15.6842 1.41077 15.8585 1.41077C16.0329 1.41077 16.2055 1.44529 16.3665 1.51235C16.5274 1.57941 16.6736 1.67767 16.7963 1.80147L18.1965 3.20155C18.3202 3.32435 18.4185 3.47044 18.4855 3.63139C18.5526 3.79235 18.5871 3.96498 18.5871 4.13936C18.5871 4.31372 18.5526 4.48637 18.4855 4.64732C18.4185 4.80828 18.3202 4.95436 18.1965 5.07715L9.33361 13.9665Z" stroke="black" stroke-width="1.5" stroke-linecap="round" stroke-linejoin="round"/>
</g>
</g>
<defs>
<clipPath id="clip0_47_141372">
<rect width="20" height="20" fill="white"/>
</clipPath>
</defs>
</svg>
