<svg width="20" height="20" viewBox="0 0 20 20" fill="none" xmlns="http://www.w3.org/2000/svg">
<g id="pencil-7" clip-path="url(#clip0_47_141365)">
<g id="pencil--change-edit-modify-pencil-write-writing">
<path id="Vector" d="M7.35659 16.9242L1.41016 18.5892L3.07516 12.6427L13.9637 1.80701C14.0868 1.68115 14.2338 1.58114 14.396 1.51287C14.5582 1.44459 14.7325 1.40942 14.9085 1.40942C15.0846 1.40942 15.2589 1.44459 15.4211 1.51287C15.5833 1.58114 15.7303 1.68115 15.8534 1.80701L18.1923 4.15915C18.3161 4.28199 18.4144 4.42814 18.4816 4.58917C18.5487 4.7502 18.5832 4.92293 18.5832 5.09737C18.5832 5.27181 18.5487 5.44453 18.4816 5.60556C18.4144 5.76658 18.3161 5.91274 18.1923 6.03558L7.35659 16.9242Z" stroke="black" stroke-width="1.5" stroke-linecap="round" stroke-linejoin="round"/>
</g>
</g>
<defs>
<clipPath id="clip0_47_141365">
<rect width="20" height="20" fill="white"/>
</clipPath>
</defs>
</svg>
