<svg width="21" height="21" viewBox="0 0 21 21" fill="none" xmlns="http://www.w3.org/2000/svg">
<g clip-path="url(#clip0_146_402451)">
<path d="M12.3973 12.0834L8.21875 12.8356L8.91518 8.60127L15.5034 2.04091C15.6328 1.91036 15.7869 1.80674 15.9567 1.73603C16.1263 1.66531 16.3084 1.62891 16.4924 1.62891C16.6762 1.62891 16.8583 1.66531 17.0279 1.73603C17.1977 1.80674 17.3518 1.91036 17.4813 2.04091L18.9577 3.51734C19.0882 3.64682 19.1919 3.80087 19.2626 3.9706C19.3332 4.14034 19.3697 4.3224 19.3697 4.50627C19.3697 4.69014 19.3332 4.8722 19.2626 5.04193C19.1919 5.21167 19.0882 5.36572 18.9577 5.4952L12.3973 12.0834Z" stroke="black" stroke-width="1.5" stroke-linecap="round" stroke-linejoin="round"/>
<path d="M11.1953 1.44641H2.83817C2.06892 1.44641 1.44531 2.07001 1.44531 2.83927V18.1607C1.44531 18.93 2.06892 19.5536 2.83817 19.5536H12.5882C13.3574 19.5536 13.981 18.93 13.981 18.1607V14.3303" stroke="black" stroke-width="1.5" stroke-linecap="round" stroke-linejoin="round"/>
<path d="M7.01562 16.0714H8.40848" stroke="black" stroke-width="1.5" stroke-linecap="round" stroke-linejoin="round"/>
</g>
<defs>
<clipPath id="clip0_146_402451">
<rect width="21" height="21" fill="white"/>
</clipPath>
</defs>
</svg>
