<svg width="21" height="21" viewBox="0 0 21 21" fill="none" xmlns="http://www.w3.org/2000/svg">
<g clip-path="url(#clip0_146_402346)">
<path d="M8.05835 18.8317C7.20238 19.3838 6.18238 19.6245 5.16984 19.513C4.15732 19.4017 3.214 18.945 2.49855 18.2201L1.87307 17.6084C1.59885 17.3279 1.44531 16.9513 1.44531 16.5591C1.44531 16.1667 1.59885 15.7901 1.87307 15.5095L4.52787 12.8826C4.80601 12.6093 5.18037 12.4561 5.57034 12.4561C5.9603 12.4561 6.33467 12.6093 6.6128 12.8826C6.89328 13.1568 7.26996 13.3104 7.66222 13.3104C8.05448 13.3104 8.43115 13.1568 8.71163 12.8826L12.8815 8.71274C13.0206 8.57566 13.1311 8.41229 13.2064 8.23214C13.2818 8.05198 13.3207 7.85863 13.3207 7.66333C13.3207 7.46803 13.2818 7.27469 13.2064 7.09452C13.1311 6.91437 13.0206 6.751 12.8815 6.61391C12.6081 6.33579 12.455 5.96142 12.455 5.57146C12.455 5.18149 12.6081 4.80713 12.8815 4.52899L15.5224 1.88808C15.8029 1.61386 16.1795 1.46033 16.5717 1.46033C16.9641 1.46033 17.3407 1.61386 17.6213 1.88808L18.2329 2.51357C18.9578 3.22902 19.4144 4.17233 19.5259 5.18486C19.6373 6.19739 19.3966 7.2174 18.8443 8.07336C15.9671 12.3137 12.3061 15.9653 8.05835 18.8317Z" stroke="black" stroke-width="1.5" stroke-linecap="round" stroke-linejoin="round"/>
</g>
<defs>
<clipPath id="clip0_146_402346">
<rect width="21" height="21" fill="white"/>
</clipPath>
</defs>
</svg>
