<svg width="21" height="21" viewBox="0 0 21 21" fill="none" xmlns="http://www.w3.org/2000/svg">
<g clip-path="url(#clip0_146_402354)">
<path d="M10.4989 19.5536C5.49874 19.5536 1.44531 15.5002 1.44531 10.5C1.44531 5.49983 5.49874 1.44641 10.4989 1.44641C15.4991 1.44641 19.5525 5.49983 19.5525 10.5C19.5525 15.5002 15.4991 19.5536 10.4989 19.5536Z" stroke="black" stroke-width="1.5" stroke-linecap="round" stroke-linejoin="round"/>
<path d="M16.9042 16.9071L4.08984 4.09277" stroke="black" stroke-width="1.5" stroke-linecap="round" stroke-linejoin="round"/>
<path d="M10.4972 14.79C10.2096 14.9905 9.9121 15.1765 9.60575 15.3471C9.02284 15.5936 8.37657 15.6482 7.76054 15.5031C7.14451 15.3578 6.59071 15.0202 6.17933 14.5392L5.74754 14.1075C5.55971 13.9567 5.43743 13.7392 5.40628 13.5004C5.37513 13.2615 5.43752 13.0199 5.5804 12.826L6.97325 11.4332C7.16714 11.2903 7.40876 11.2279 7.64758 11.2591C7.8864 11.2902 8.10393 11.4125 8.25468 11.6003" stroke="black" stroke-width="1.5" stroke-linecap="round" stroke-linejoin="round"/>
<path d="M10.6523 10.6532L11.7666 9.53891C11.9095 9.34503 11.9719 9.10341 11.9408 8.86459C11.9096 8.62577 11.7873 8.40823 11.5995 8.25748C11.4117 8.10673 11.2894 7.88921 11.2582 7.65038C11.2271 7.41156 11.2895 7.16994 11.4323 6.97605L12.8252 5.5832C13.0191 5.44032 13.2607 5.37793 13.4995 5.40909C13.7383 5.44023 13.9559 5.56251 14.1066 5.75034L14.5384 6.18213C15.0176 6.5948 15.3539 7.14857 15.499 7.76411C15.6441 8.37962 15.5906 9.02528 15.3462 9.60855C14.6601 10.7896 13.8167 11.872 12.8391 12.8261" stroke="black" stroke-width="1.5" stroke-linecap="round" stroke-linejoin="round"/>
</g>
<defs>
<clipPath id="clip0_146_402354">
<rect width="21" height="21" fill="white"/>
</clipPath>
</defs>
</svg>
