<svg width="21" height="21" viewBox="0 0 21 21" fill="none" xmlns="http://www.w3.org/2000/svg">
<g clip-path="url(#clip0_146_402389)">
<path d="M18.1602 1.44641H9.80301C9.03377 1.44641 8.41016 2.07001 8.41016 2.83927V8.4107C8.41016 9.17994 9.03377 9.80355 9.80301 9.80355H18.1602C18.9294 9.80355 19.553 9.17994 19.553 8.4107V2.83927C19.553 2.07001 18.9294 1.44641 18.1602 1.44641Z" stroke="black" stroke-width="1.5" stroke-linecap="round" stroke-linejoin="round"/>
<path d="M8.41016 3.53564L13.9816 6.32136L19.553 3.53564" stroke="black" stroke-width="1.5" stroke-linecap="round" stroke-linejoin="round"/>
<path d="M5.9721 1.44641H2.83817C2.06892 1.44641 1.44531 2.07001 1.44531 2.83927V18.1607C1.44531 18.93 2.06892 19.5536 2.83817 19.5536H12.5882C13.3574 19.5536 13.981 18.93 13.981 18.1607V12.5893" stroke="black" stroke-width="1.5" stroke-linecap="round" stroke-linejoin="round"/>
<path d="M7.01562 16.0714H8.40848" stroke="black" stroke-width="1.5" stroke-linecap="round" stroke-linejoin="round"/>
</g>
<defs>
<clipPath id="clip0_146_402389">
<rect width="21" height="21" fill="white"/>
</clipPath>
</defs>
</svg>
