<svg width="21" height="21" viewBox="0 0 21 21" fill="none" xmlns="http://www.w3.org/2000/svg">
<path d="M10.6964 5.88611H17.6606C18.0785 5.88611 18.3571 6.16468 18.3571 6.58254V10.7611C18.3571 11.179 18.0785 11.4575 17.6606 11.4575H10.6964C10.2786 11.4575 10 11.179 10 10.7611V6.58254C10 6.16468 10.2786 5.88611 10.6964 5.88611Z" stroke="black" stroke-width="1.5" stroke-linecap="round" stroke-linejoin="round"/>
<path d="M11.3906 5.88609V4.49323C11.3906 2.96109 12.6442 1.70752 14.1763 1.70752C15.7084 1.70752 16.962 2.96109 16.962 4.49323V5.88609" stroke="black" stroke-width="1.5" stroke-linecap="round" stroke-linejoin="round"/>
<path d="M9.10658 1.44641H4.92801C4.15877 1.44641 3.53516 2.07001 3.53516 2.83927V18.1607C3.53516 18.93 4.15877 19.5536 4.92801 19.5536H14.678C15.4473 19.5536 16.0709 18.93 16.0709 18.1607V14.6786" stroke="black" stroke-width="1.5" stroke-linecap="round" stroke-linejoin="round"/>
<path d="M9.10547 16.0714H10.4983" stroke="black" stroke-width="1.5" stroke-linecap="round" stroke-linejoin="round"/>
</svg>
