<svg width="21" height="21" viewBox="0 0 21 21" fill="none" xmlns="http://www.w3.org/2000/svg">
<path d="M9.5693 1.44641H4.40458C3.63533 1.44641 3.01172 2.07001 3.01172 2.83927V18.1607C3.01172 18.93 3.63533 19.5536 4.40458 19.5536H14.1546C14.9239 19.5536 15.5474 18.93 15.5474 18.1607V13.5033" stroke="black" stroke-width="1.5" stroke-linecap="round" stroke-linejoin="round"/>
<path d="M8.58203 16.0714H9.97489" stroke="black" stroke-width="1.5" stroke-linecap="round" stroke-linejoin="round"/>
<path d="M14.8527 10.7176C17.2566 10.7176 19.2054 8.7688 19.2054 6.36489C19.2054 3.96097 17.2566 2.01221 14.8527 2.01221C12.4488 2.01221 10.5 3.96097 10.5 6.36489C10.5 8.7688 12.4488 10.7176 14.8527 10.7176Z" stroke="black" stroke-width="1.5" stroke-linecap="round" stroke-linejoin="round"/>
<path d="M10.5 6.40495H12.1214L13.0712 5.42312L14.6294 7.82311L16.0462 4.92859L17.2768 6.40495H19.1836" stroke="black" stroke-width="1.5" stroke-linecap="round" stroke-linejoin="round"/>
</svg>
