<svg width="21" height="21" viewBox="0 0 21 21" fill="none" xmlns="http://www.w3.org/2000/svg">
<g clip-path="url(#clip0_146_402463)">
<path d="M7.71317 1.44641H2.83817C2.06892 1.44641 1.44531 2.07001 1.44531 2.83927V18.1607C1.44531 18.93 2.06892 19.5536 2.83817 19.5536H12.5882C13.3574 19.5536 13.981 18.93 13.981 18.1607V11.8928" stroke="black" stroke-width="1.5" stroke-linecap="round" stroke-linejoin="round"/>
<path d="M7.01562 16.0714H8.40848" stroke="black" stroke-width="1.5" stroke-linecap="round" stroke-linejoin="round"/>
<path d="M10.4972 5.58981C10.0664 5.15017 9.80078 4.54807 9.80078 3.88391C9.80078 2.53771 10.8921 1.44641 12.2383 1.44641H14.3276C15.6738 1.44641 16.7651 2.53771 16.7651 3.88391C16.7651 4.85626 16.1957 5.69564 15.3722 6.08684" stroke="black" stroke-width="1.5" stroke-linecap="round" stroke-linejoin="round"/>
<path d="M18.8577 4.61544C19.2885 5.05508 19.5541 5.65718 19.5541 6.32134C19.5541 7.66753 18.4628 8.75884 17.1166 8.75884H15.0273C13.6811 8.75884 12.5898 7.66753 12.5898 6.32134C12.5898 5.34898 13.1592 4.50961 13.9827 4.11841" stroke="black" stroke-width="1.5" stroke-linecap="round" stroke-linejoin="round"/>
</g>
<defs>
<clipPath id="clip0_146_402463">
<rect width="21" height="21" fill="white"/>
</clipPath>
</defs>
</svg>
