<svg width="21" height="21" viewBox="0 0 21 21" fill="none" xmlns="http://www.w3.org/2000/svg">
<g clip-path="url(#clip0_146_402519)">
<path d="M8.4096 7.71423H2.83817C2.06892 7.71423 1.44531 8.33784 1.44531 9.10709V18.1607C1.44531 18.9299 2.06892 19.5535 2.83817 19.5535H8.4096C9.17884 19.5535 9.80246 18.9299 9.80246 18.1607V9.10709C9.80246 8.33784 9.17884 7.71423 8.4096 7.71423Z" stroke="black" stroke-width="1.5" stroke-linecap="round" stroke-linejoin="round"/>
<path d="M4.15234 4.67532V2.71264C4.15234 2.01332 4.71926 1.44641 5.41859 1.44641H18.081C18.7802 1.44641 19.3473 2.01332 19.3473 2.71264V11.5763C19.3473 12.2756 18.7802 12.8426 18.081 12.8426H13.016" stroke="black" stroke-width="1.5" stroke-linecap="round" stroke-linejoin="round"/>
<path d="M4.92578 16.7678H6.31864" stroke="black" stroke-width="1.5" stroke-linecap="round" stroke-linejoin="round"/>
</g>
<defs>
<clipPath id="clip0_146_402519">
<rect width="21" height="21" fill="white"/>
</clipPath>
</defs>
</svg>
