<svg width="21" height="21" viewBox="0 0 21 21" fill="none" xmlns="http://www.w3.org/2000/svg">
<g clip-path="url(#clip0_146_402478)">
<path d="M9.81621 18.9546C9.09415 19.4195 8.23472 19.6233 7.38077 19.5321C6.52684 19.4408 5.72983 19.0602 5.12228 18.4531L4.593 17.9239C4.35824 17.6865 4.22656 17.3663 4.22656 17.0324C4.22656 16.6986 4.35824 16.3783 4.593 16.141L6.82157 13.9264C7.0565 13.6925 7.37452 13.5611 7.70603 13.5611C8.03754 13.5611 8.35556 13.6925 8.5905 13.9264C8.8278 14.1611 9.14813 14.2928 9.48192 14.2928C9.81572 14.2928 10.1361 14.1611 10.3734 13.9264L13.9251 10.3746C14.1599 10.1373 14.2916 9.81694 14.2916 9.48314C14.2916 9.14935 14.1599 8.82902 13.9251 8.59172C13.6912 8.35678 13.5599 8.03877 13.5599 7.70725C13.5599 7.37574 13.6912 7.05772 13.9251 6.82279L16.0701 4.59422C16.3074 4.35945 16.6278 4.22778 16.9615 4.22778C17.2954 4.22778 17.6157 4.35945 17.8529 4.59422L18.3822 5.1235C19.0001 5.72249 19.3939 6.51524 19.4978 7.36948C19.6018 8.22374 19.4096 9.08778 18.9533 9.81743C16.5246 13.4232 13.422 16.5258 9.81621 18.9546Z" stroke="black" stroke-width="1.5" stroke-linecap="round" stroke-linejoin="round"/>
<path d="M10.4989 1.44641C9.30996 1.44641 8.13266 1.68059 7.03424 2.13557C5.9358 2.59056 4.93775 3.25745 4.09705 4.09815C3.25633 4.93885 2.58946 5.9369 2.13447 7.03533C1.67949 8.13375 1.44531 9.31105 1.44531 10.5" stroke="black" stroke-width="1.5" stroke-linecap="round" stroke-linejoin="round"/>
<path d="M10.4972 4.92859C9.01957 4.92859 7.60246 5.51558 6.55761 6.56042C5.51277 7.60527 4.92578 9.02238 4.92578 10.5" stroke="black" stroke-width="1.5" stroke-linecap="round" stroke-linejoin="round"/>
</g>
<defs>
<clipPath id="clip0_146_402478">
<rect width="21" height="21" fill="white"/>
</clipPath>
</defs>
</svg>
