<svg width="21" height="21" viewBox="0 0 21 21" fill="none" xmlns="http://www.w3.org/2000/svg">
<path d="M17.5357 5.22696C17.5357 7.46548 13.6357 11.9425 13.6357 11.9425C13.6357 11.9425 9.875 7.46548 9.875 5.22696C10.0143 3.13768 11.6857 1.49609 13.775 1.49609C15.725 1.49609 17.3964 3.13768 17.5357 5.22696Z" stroke="black" stroke-width="1.5" stroke-linecap="round" stroke-linejoin="round"/>
<path d="M6.67243 1.44641H2.84207C2.07282 1.44641 1.44922 2.07001 1.44922 2.83927V18.1607C1.44922 18.93 2.07282 19.5536 2.84207 19.5536H12.5921C13.3613 19.5536 13.9849 18.93 13.9849 18.1607V14.6786" stroke="black" stroke-width="1.5" stroke-linecap="round" stroke-linejoin="round"/>
<path d="M7.01953 16.0714H8.41239" stroke="black" stroke-width="1.5" stroke-linecap="round" stroke-linejoin="round"/>
<path d="M13.7076 5.27675C13.5153 5.27675 13.3594 5.12085 13.3594 4.92854C13.3594 4.73622 13.5153 4.58032 13.7076 4.58032" stroke="black" stroke-width="1.5" stroke-linecap="round" stroke-linejoin="round"/>
<path d="M13.707 5.27675C13.8993 5.27675 14.0552 5.12085 14.0552 4.92854C14.0552 4.73622 13.8993 4.58032 13.707 4.58032" stroke="black" stroke-width="1.5" stroke-linecap="round" stroke-linejoin="round"/>
</svg>
