<svg width="21" height="21" viewBox="0 0 21 21" fill="none" xmlns="http://www.w3.org/2000/svg">
<path d="M10.2674 1.44641H5.18973C4.42048 1.44641 3.79688 2.07001 3.79688 2.83927V18.1607C3.79688 18.93 4.42048 19.5536 5.18973 19.5536H14.9397C15.709 19.5536 16.3326 18.93 16.3326 18.1607V13.5033" stroke="black" stroke-width="1.5" stroke-linecap="round" stroke-linejoin="round"/>
<path d="M9.36719 16.0714H10.76" stroke="black" stroke-width="1.5" stroke-linecap="round" stroke-linejoin="round"/>
<path d="M14.4258 1.7511V3.69515" stroke="black" stroke-width="1.5" stroke-linecap="round" stroke-linejoin="round"/>
<path d="M10.5 4.01917L12.1848 4.99118" stroke="black" stroke-width="1.5" stroke-linecap="round" stroke-linejoin="round"/>
<path d="M10.5 8.55529L12.1848 7.58325" stroke="black" stroke-width="1.5" stroke-linecap="round" stroke-linejoin="round"/>
<path d="M14.4258 10.8233V8.87927" stroke="black" stroke-width="1.5" stroke-linecap="round" stroke-linejoin="round"/>
<path d="M18.3528 8.55529L16.668 7.58325" stroke="black" stroke-width="1.5" stroke-linecap="round" stroke-linejoin="round"/>
<path d="M18.3528 4.01917L16.668 4.99118" stroke="black" stroke-width="1.5" stroke-linecap="round" stroke-linejoin="round"/>
<path d="M14.428 8.87932C15.8595 8.87932 17.0201 7.71881 17.0201 6.28726C17.0201 4.85571 15.8595 3.69519 14.428 3.69519C12.9965 3.69519 11.8359 4.85571 11.8359 6.28726C11.8359 7.71881 12.9965 8.87932 14.428 8.87932Z" stroke="black" stroke-width="1.5" stroke-linecap="round" stroke-linejoin="round"/>
</svg>
