<svg width="21" height="21" viewBox="0 0 21 21" fill="none" xmlns="http://www.w3.org/2000/svg">
<path d="M9.52975 11.1128C10.9183 11.1128 12.0439 9.98723 12.0439 8.59872C12.0439 7.2102 10.9183 6.08459 9.52975 6.08459C8.14124 6.08459 7.01562 7.2102 7.01562 8.59872C7.01562 9.98723 8.14124 11.1128 9.52975 11.1128Z" stroke="black" stroke-width="1.5" stroke-linecap="round" stroke-linejoin="round"/>
<path d="M11.4766 6.66842L16.5454 1.59962C16.591 1.55114 16.6461 1.5125 16.7071 1.48608C16.7683 1.45967 16.834 1.44604 16.9006 1.44604C16.9672 1.44604 17.0331 1.45967 17.0941 1.48608C17.1552 1.5125 17.2102 1.55114 17.2558 1.59962L18.8576 3.20141" stroke="black" stroke-width="1.5" stroke-linecap="round" stroke-linejoin="round"/>
<path d="M14.6094 3.59143L16.0302 5.01215" stroke="black" stroke-width="1.5" stroke-linecap="round" stroke-linejoin="round"/>
<path d="M7.01562 16.0714H8.40848" stroke="black" stroke-width="1.5" stroke-linecap="round" stroke-linejoin="round"/>
<path d="M12.5882 1.44641H2.83817C2.06892 1.44641 1.44531 2.07001 1.44531 2.83927V18.1607C1.44531 18.93 2.06892 19.5536 2.83817 19.5536H12.5882C13.3574 19.5536 13.981 18.93 13.981 18.1607V11.8928" stroke="black" stroke-width="1.5" stroke-linecap="round" stroke-linejoin="round"/>
</svg>
