<svg width="21" height="21" viewBox="0 0 21 21" fill="none" xmlns="http://www.w3.org/2000/svg">
<path d="M6.59821 6.39101C6.4059 6.39101 6.25 6.23511 6.25 6.04279C6.25 5.85048 6.4059 5.69458 6.59821 5.69458" stroke="black" stroke-width="1.5" stroke-linecap="round" stroke-linejoin="round"/>
<path d="M6.59766 6.39101C6.78997 6.39101 6.94587 6.23511 6.94587 6.04279C6.94587 5.85048 6.78997 5.69458 6.59766 5.69458" stroke="black" stroke-width="1.5" stroke-linecap="round" stroke-linejoin="round"/>
<path d="M2.83817 2.14282H10.4989C11.3346 2.14282 11.8917 2.69997 11.8917 3.53568V17.4642C11.8917 18.3 11.3346 18.8571 10.4989 18.8571H2.83817C2.00246 18.8571 1.44531 18.3 1.44531 17.4642V3.53568C1.44531 2.69997 2.00246 2.14282 2.83817 2.14282Z" stroke="black" stroke-width="1.5" stroke-linecap="round" stroke-linejoin="round"/>
<path d="M15.375 7.01777L17.4643 4.23206L19.5536 7.01777V17.4642C19.5536 18.2999 18.9964 18.8571 18.1607 18.8571H16.7679C15.9321 18.8571 15.375 18.2999 15.375 17.4642V7.01777Z" stroke="black" stroke-width="1.5" stroke-linecap="round" stroke-linejoin="round"/>
</svg>
