<svg width="21" height="21" viewBox="0 0 21 21" fill="none" xmlns="http://www.w3.org/2000/svg">
<g clip-path="url(#clip0_146_402360)">
<path d="M9.60575 15.3471C9.02284 15.5937 8.37657 15.6483 7.76054 15.5031C7.14451 15.3579 6.59071 15.0202 6.17933 14.5393L5.74754 14.1075C5.55971 13.9567 5.43743 13.7392 5.40628 13.5004C5.37513 13.2616 5.43752 13.0199 5.5804 12.8261L6.97325 11.4332C7.16714 11.2903 7.40876 11.2279 7.64758 11.2591C7.8864 11.2902 8.10393 11.4125 8.25468 11.6003C8.40543 11.7882 8.62297 11.9105 8.86179 11.9416C9.10061 11.9727 9.34223 11.9104 9.53611 11.7675L11.7647 9.53891C11.9076 9.34503 11.9699 9.10341 11.9388 8.86459C11.9076 8.62577 11.7854 8.40823 11.5975 8.25748C11.4097 8.10673 11.2874 7.88921 11.2563 7.65038C11.2251 7.41156 11.2875 7.16994 11.4304 6.97605L12.8233 5.5832C13.0171 5.44032 13.2588 5.37793 13.4976 5.40909C13.7364 5.44023 13.9539 5.56251 14.1047 5.75034L14.5365 6.18213C15.0157 6.5948 15.3519 7.14857 15.4971 7.76411C15.6422 8.37962 15.5887 9.02528 15.3443 9.60855C13.932 11.9638 11.961 13.9348 9.60575 15.3471Z" stroke="black" stroke-width="1.5" stroke-linecap="round" stroke-linejoin="round"/>
<path d="M10.4989 19.5536C5.49874 19.5536 1.44531 15.5002 1.44531 10.5C1.44531 5.49983 5.49874 1.44641 10.4989 1.44641C15.4991 1.44641 19.5525 5.49983 19.5525 10.5C19.5525 15.5002 15.4991 19.5536 10.4989 19.5536Z" stroke="black" stroke-width="1.5" stroke-linecap="round" stroke-linejoin="round"/>
</g>
<defs>
<clipPath id="clip0_146_402360">
<rect width="21" height="21" fill="white"/>
</clipPath>
</defs>
</svg>
