<svg width="20" height="20" viewBox="0 0 20 20" fill="none" xmlns="http://www.w3.org/2000/svg">
<g id="pictures-folder-memories-25" clip-path="url(#clip0_47_144537)">
<g id="pictures-folder-memories">
<path id="vector" d="M15.1536 18.2591L7.75178 11.3262C7.62413 11.2198 7.46327 11.1616 7.29715 11.1616C7.13104 11.1616 6.97017 11.2198 6.84253 11.3262L1.42969 15.2189" stroke="black" stroke-width="1.5" stroke-linecap="round" stroke-linejoin="round"/>
<path id="vector_2" d="M13.779 11.1616C12.6843 11.1616 11.7969 10.2741 11.7969 9.17941C11.7969 8.0847 12.6843 7.19727 13.779 7.19727C14.8737 7.19727 15.7612 8.0847 15.7612 9.17941C15.7612 10.2741 14.8737 11.1616 13.779 11.1616Z" stroke="black" stroke-width="1.5" stroke-linecap="round" stroke-linejoin="round"/>
<path id="vector_3" d="M1.41016 16.9377V3.06271C1.41016 2.71224 1.54938 2.37614 1.79719 2.12832C2.04501 1.88051 2.38112 1.74128 2.73158 1.74128H7.60766C7.90951 1.73249 8.20529 1.82735 8.44572 2.01008C8.68614 2.1928 8.85674 2.45237 8.92908 2.74557L9.33873 4.38414H17.2673C17.6177 4.38414 17.9539 4.52337 18.2017 4.77117C18.4494 5.01899 18.5887 5.3551 18.5887 5.70557V16.9377C18.5887 17.2882 18.4494 17.6244 18.2017 17.8721C17.9539 18.1199 17.6177 18.2592 17.2673 18.2592H2.73158C2.38112 18.2592 2.04501 18.1199 1.79719 17.8721C1.54938 17.6244 1.41016 17.2882 1.41016 16.9377Z" stroke="black" stroke-width="1.5" stroke-linecap="round" stroke-linejoin="round"/>
</g>
</g>
<defs>
<clipPath id="clip0_47_144537">
<rect width="20" height="20" fill="white"/>
</clipPath>
</defs>
</svg>
