<svg width="20" height="20" viewBox="0 0 20 20" fill="none" xmlns="http://www.w3.org/2000/svg">
<g id="pin-2-76" clip-path="url(#clip0_47_141384)">
<g id="pin-2--pin-push-thumbtack">
<path id="Vector" d="M12.6417 13.3036C15.9259 13.3036 18.5882 10.6413 18.5882 7.3572C18.5882 4.07308 15.9259 1.41077 12.6417 1.41077C9.35762 1.41077 6.69531 4.07308 6.69531 7.3572C6.69531 10.6413 9.35762 13.3036 12.6417 13.3036Z" stroke="black" stroke-width="1.5" stroke-linecap="round" stroke-linejoin="round"/>
<path id="Vector_2" d="M14.2946 5.59972C14.1322 5.35529 13.9174 5.15002 13.666 4.99869C13.4145 4.84738 13.1325 4.7538 12.8404 4.72472C12.5484 4.69564 12.2535 4.73179 11.9771 4.83054C11.7007 4.9293 11.4497 5.08821 11.2422 5.29579" stroke="black" stroke-width="1.5" stroke-linecap="round" stroke-linejoin="round"/>
<path id="Vector_3" d="M1.41016 18.5896L8.78373 11.8899" stroke="black" stroke-width="1.5" stroke-linecap="round" stroke-linejoin="round"/>
</g>
</g>
<defs>
<clipPath id="clip0_47_141384">
<rect width="20" height="20" fill="white"/>
</clipPath>
</defs>
</svg>
