<svg width="20" height="20" viewBox="0 0 20 20" fill="none" xmlns="http://www.w3.org/2000/svg">
<g clip-path="url(#clip0_48_150776)">
<path d="M15.2835 5.04475C15.101 5.04475 14.9531 4.89684 14.9531 4.71439C14.9531 4.53194 15.101 4.38403 15.2835 4.38403" stroke="black" stroke-width="1.5" stroke-linecap="round" stroke-linejoin="round"/>
<path d="M15.2852 5.04475C15.4676 5.04475 15.6155 4.89684 15.6155 4.71439C15.6155 4.53194 15.4676 4.38403 15.2852 4.38403" stroke="black" stroke-width="1.5" stroke-linecap="round" stroke-linejoin="round"/>
<path d="M18.5876 4.71434C18.5876 6.53885 15.284 10.6608 15.284 10.6608C15.284 10.6608 11.9805 6.53885 11.9805 4.71434C11.9805 2.88983 13.4595 1.41077 15.284 1.41077C17.1085 1.41077 18.5876 2.88983 18.5876 4.71434Z" stroke="black" stroke-width="1.5" stroke-linecap="round" stroke-linejoin="round"/>
<path d="M4.71317 12.9732C4.53072 12.9732 4.38281 12.8253 4.38281 12.6429C4.38281 12.4604 4.53072 12.3125 4.71317 12.3125" stroke="black" stroke-width="1.5" stroke-linecap="round" stroke-linejoin="round"/>
<path d="M4.71484 12.9732C4.89729 12.9732 5.0452 12.8253 5.0452 12.6429C5.0452 12.4604 4.89729 12.3125 4.71484 12.3125" stroke="black" stroke-width="1.5" stroke-linecap="round" stroke-linejoin="round"/>
<path d="M8.0173 12.6429C8.0173 14.4674 4.71373 18.5894 4.71373 18.5894C4.71373 18.5894 1.41016 14.4674 1.41016 12.6429C1.41016 10.8184 2.88922 9.33936 4.71373 9.33936C6.53824 9.33936 8.0173 10.8184 8.0173 12.6429Z" stroke="black" stroke-width="1.5" stroke-linecap="round" stroke-linejoin="round"/>
<path d="M13.5232 11.9822L9.48047 15.0142" stroke="black" stroke-width="1.5" stroke-linecap="round" stroke-linejoin="round"/>
</g>
<defs>
<clipPath id="clip0_48_150776">
<rect width="20" height="20" fill="white"/>
</clipPath>
</defs>
</svg>
