<svg width="20" height="20" viewBox="0 0 20 20" fill="none" xmlns="http://www.w3.org/2000/svg">
<g id="pinwheel-10" clip-path="url(#clip0_47_149600)">
<g id="pinwheel--windmill-velocity-weather-wind">
<path id="Vector" d="M10 1.41016H11.3214C12.0224 1.41016 12.6946 1.6886 13.1902 2.18424C13.6858 2.67986 13.9643 3.35209 13.9643 4.05301V9.99944H10V1.41016Z" stroke="black" stroke-width="1.5" stroke-linecap="round" stroke-linejoin="round"/>
<path id="Vector_2" d="M6.03516 10H9.99944V18.5893H8.67801C7.97709 18.5893 7.30486 18.3109 6.80924 17.8152C6.31359 17.3195 6.03516 16.6473 6.03516 15.9464V10Z" stroke="black" stroke-width="1.5" stroke-linecap="round" stroke-linejoin="round"/>
<path id="Vector_3" d="M18.5893 10V11.3214C18.5893 12.0224 18.3109 12.6946 17.8152 13.1902C17.3195 13.6858 16.6473 13.9643 15.9464 13.9643H10V10H18.5893Z" stroke="black" stroke-width="1.5" stroke-linecap="round" stroke-linejoin="round"/>
<path id="Vector_4" d="M9.99944 6.03516V9.99944H1.41016V8.67801C1.41016 7.97709 1.6886 7.30486 2.18424 6.80924C2.67986 6.31359 3.35209 6.03516 4.05301 6.03516H9.99944Z" stroke="black" stroke-width="1.5" stroke-linecap="round" stroke-linejoin="round"/>
</g>
</g>
<defs>
<clipPath id="clip0_47_149600">
<rect width="20" height="20" fill="white"/>
</clipPath>
</defs>
</svg>
