<svg width="21" height="21" viewBox="0 0 21 21" fill="none" xmlns="http://www.w3.org/2000/svg">
<g clip-path="url(#clip0_146_399479)">
<path d="M10.4989 19.5536C15.4991 19.5536 19.5525 15.5002 19.5525 10.5C19.5525 5.49983 15.4991 1.44641 10.4989 1.44641C5.49874 1.44641 1.44531 5.49983 1.44531 10.5C1.44531 15.5002 5.49874 19.5536 10.4989 19.5536Z" stroke="black" stroke-width="1.5" stroke-linecap="round" stroke-linejoin="round"/>
<path d="M6.04297 8.82861C6.04297 6.32146 7.99297 4.23218 10.5001 4.23218C13.0073 4.23218 14.9573 6.32146 14.9573 8.68932C14.9573 11.0572 13.0073 13.2857 10.5001 13.2857C9.38583 13.2857 8.27154 13.9822 7.85368 15.2357" stroke="black" stroke-width="1.5" stroke-linecap="round" stroke-linejoin="round"/>
<path d="M7.71484 16.0715L9.1077 9.10718" stroke="black" stroke-width="1.5" stroke-linecap="round" stroke-linejoin="round"/>
<path d="M11.6138 16.4196C11.4215 16.4196 11.2656 16.2637 11.2656 16.0714C11.2656 15.879 11.4215 15.7231 11.6138 15.7231" stroke="black" stroke-width="1.5" stroke-linecap="round" stroke-linejoin="round"/>
<path d="M11.6133 16.4196C11.8056 16.4196 11.9615 16.2637 11.9615 16.0714C11.9615 15.879 11.8056 15.7231 11.6133 15.7231" stroke="black" stroke-width="1.5" stroke-linecap="round" stroke-linejoin="round"/>
</g>
<defs>
<clipPath id="clip0_146_399479">
<rect width="21" height="21" fill="white"/>
</clipPath>
</defs>
</svg>
