<svg width="21" height="21" viewBox="0 0 21 21" fill="none" xmlns="http://www.w3.org/2000/svg">
<path d="M17.4637 18.1607V2.83927C17.4637 2.07001 16.8401 1.44641 16.0709 1.44641H4.92801C4.15875 1.44641 3.53516 2.07001 3.53516 2.83927V18.1607C3.53516 18.93 4.15875 19.5536 4.92801 19.5536H16.0709C16.8401 19.5536 17.4637 18.93 17.4637 18.1607Z" stroke="black" stroke-width="1.5" stroke-linecap="round" stroke-linejoin="round"/>
<path d="M10.4994 8.70872C11.2909 8.70872 11.9325 8.06713 11.9325 7.27569C11.9325 6.48424 11.2909 5.84265 10.4994 5.84265C9.708 5.84265 9.06641 6.48424 9.06641 7.27569C9.06641 8.06713 9.708 8.70872 10.4994 8.70872Z" stroke="black" stroke-width="1.5" stroke-linecap="round" stroke-linejoin="round"/>
<path d="M13.0078 11.2164C13.0078 10.5513 12.7436 9.91344 12.2733 9.44314C11.803 8.97283 11.1651 8.70862 10.5 8.70862C9.8349 8.70862 9.19702 8.97283 8.72671 9.44314C8.25641 9.91344 7.99219 10.5513 7.99219 11.2164V12.2912H9.06697L9.42523 15.1572H11.5748L11.933 12.2912H13.0078V11.2164Z" stroke="black" stroke-width="1.5" stroke-linecap="round" stroke-linejoin="round"/>
</svg>
