<svg width="21" height="21" viewBox="0 0 21 21" fill="none" xmlns="http://www.w3.org/2000/svg">
<g clip-path="url(#clip0_146_399491)">
<path d="M13.3698 8.29929V7.79786C13.3698 7.22158 13.1409 6.6689 12.7334 6.26141C12.3259 5.85393 11.7733 5.625 11.197 5.625C10.6207 5.625 10.068 5.85393 9.66054 6.26141C9.25306 6.6689 9.02413 7.22158 9.02413 7.79786V11.9764L7.71484 13.9821H13.3698" stroke="black" stroke-width="1.5" stroke-linecap="round" stroke-linejoin="round"/>
<path d="M7.01562 9.9707H11.0271" stroke="black" stroke-width="1.5" stroke-linecap="round" stroke-linejoin="round"/>
<path d="M10.4989 19.5536C15.4991 19.5536 19.5525 15.5002 19.5525 10.5C19.5525 5.49983 15.4991 1.44641 10.4989 1.44641C5.49874 1.44641 1.44531 5.49983 1.44531 10.5C1.44531 15.5002 5.49874 19.5536 10.4989 19.5536Z" stroke="black" stroke-width="1.5" stroke-linecap="round" stroke-linejoin="round"/>
</g>
<defs>
<clipPath id="clip0_146_399491">
<rect width="21" height="21" fill="white"/>
</clipPath>
</defs>
</svg>
