<svg width="21" height="21" viewBox="0 0 21 21" fill="none" xmlns="http://www.w3.org/2000/svg">
<g clip-path="url(#clip0_146_401906)">
<path d="M10.5006 2.14284C10.3082 2.14284 10.1523 1.98694 10.1523 1.79463C10.1523 1.60231 10.3082 1.44641 10.5006 1.44641" stroke="black" stroke-width="1.5" stroke-linecap="round" stroke-linejoin="round"/>
<path d="M10.5 2.14284C10.6923 2.14284 10.8482 1.98694 10.8482 1.79463C10.8482 1.60231 10.6923 1.44641 10.5 1.44641" stroke="black" stroke-width="1.5" stroke-linecap="round" stroke-linejoin="round"/>
<path d="M10.5006 5.62502C10.3082 5.62502 10.1523 5.46912 10.1523 5.2768C10.1523 5.08449 10.3082 4.92859 10.5006 4.92859" stroke="black" stroke-width="1.5" stroke-linecap="round" stroke-linejoin="round"/>
<path d="M10.5 5.62502C10.6923 5.62502 10.8482 5.46912 10.8482 5.2768C10.8482 5.08449 10.6923 4.92859 10.5 4.92859" stroke="black" stroke-width="1.5" stroke-linecap="round" stroke-linejoin="round"/>
<path d="M1.79353 10.8482C1.60121 10.8482 1.44531 10.6923 1.44531 10.4999C1.44531 10.3076 1.60121 10.1517 1.79353 10.1517" stroke="black" stroke-width="1.5" stroke-linecap="round" stroke-linejoin="round"/>
<path d="M1.79297 10.8482C1.98528 10.8482 2.14118 10.6923 2.14118 10.4999C2.14118 10.3076 1.98528 10.1517 1.79297 10.1517" stroke="black" stroke-width="1.5" stroke-linecap="round" stroke-linejoin="round"/>
<path d="M19.2037 10.8482C19.0113 10.8482 18.8555 10.6923 18.8555 10.4999C18.8555 10.3076 19.0113 10.1517 19.2037 10.1517" stroke="black" stroke-width="1.5" stroke-linecap="round" stroke-linejoin="round"/>
<path d="M19.2031 10.8482C19.3955 10.8482 19.5513 10.6923 19.5513 10.4999C19.5513 10.3076 19.3955 10.1517 19.2031 10.1517" stroke="black" stroke-width="1.5" stroke-linecap="round" stroke-linejoin="round"/>
<path d="M10.5006 19.5536C10.3082 19.5536 10.1523 19.3977 10.1523 19.2054C10.1523 19.013 10.3082 18.8572 10.5006 18.8572" stroke="black" stroke-width="1.5" stroke-linecap="round" stroke-linejoin="round"/>
<path d="M10.5 19.5536C10.6923 19.5536 10.8482 19.3977 10.8482 19.2054C10.8482 19.013 10.6923 18.8572 10.5 18.8572" stroke="black" stroke-width="1.5" stroke-linecap="round" stroke-linejoin="round"/>
<path d="M10.5006 9.10707C10.3082 9.10707 10.1523 8.95117 10.1523 8.75886C10.1523 8.56655 10.3082 8.41064 10.5006 8.41064" stroke="black" stroke-width="1.5" stroke-linecap="round" stroke-linejoin="round"/>
<path d="M10.5 9.10707C10.6923 9.10707 10.8482 8.95117 10.8482 8.75886C10.8482 8.56655 10.6923 8.41064 10.5 8.41064" stroke="black" stroke-width="1.5" stroke-linecap="round" stroke-linejoin="round"/>
<path d="M2.78746 6.44829C2.6209 6.35214 2.56383 6.13917 2.65999 5.97263C2.75616 5.80607 2.96911 5.74902 3.13567 5.84517" stroke="black" stroke-width="1.5" stroke-linecap="round" stroke-linejoin="round"/>
<path d="M2.78906 6.44834C2.95562 6.5445 3.16857 6.48743 3.26474 6.32089C3.36089 6.15433 3.30383 5.94138 3.13728 5.84521" stroke="black" stroke-width="1.5" stroke-linecap="round" stroke-linejoin="round"/>
<path d="M17.8656 15.1536C17.699 15.0575 17.642 14.8446 17.7381 14.678C17.8342 14.5114 18.0472 14.4543 18.2138 14.5505" stroke="black" stroke-width="1.5" stroke-linecap="round" stroke-linejoin="round"/>
<path d="M17.8672 15.1537C18.0338 15.2498 18.2467 15.1928 18.3428 15.0262C18.4391 14.8596 18.382 14.6467 18.2154 14.5505" stroke="black" stroke-width="1.5" stroke-linecap="round" stroke-linejoin="round"/>
<path d="M3.13567 15.1542C2.96911 15.2503 2.75616 15.1932 2.65999 15.0268C2.56383 14.8602 2.6209 14.6472 2.78746 14.551" stroke="black" stroke-width="1.5" stroke-linecap="round" stroke-linejoin="round"/>
<path d="M3.13728 15.1542C3.30383 15.0579 3.36089 14.8449 3.26474 14.6784C3.16857 14.5119 2.95562 14.4548 2.78906 14.551" stroke="black" stroke-width="1.5" stroke-linecap="round" stroke-linejoin="round"/>
<path d="M18.2139 6.44882C18.0473 6.54499 17.8343 6.48792 17.7381 6.32136C17.642 6.15482 17.6991 5.94185 17.8657 5.8457" stroke="black" stroke-width="1.5" stroke-linecap="round" stroke-linejoin="round"/>
<path d="M18.2154 6.44879C18.382 6.35262 18.439 6.13967 18.3428 5.97311C18.2467 5.80657 18.0338 5.7495 17.8672 5.84566" stroke="black" stroke-width="1.5" stroke-linecap="round" stroke-linejoin="round"/>
<path d="M6.44671 18.2131C6.35055 18.3797 6.13759 18.4368 5.97104 18.3407C5.80449 18.2444 5.74743 18.0315 5.84359 17.8649" stroke="black" stroke-width="1.5" stroke-linecap="round" stroke-linejoin="round"/>
<path d="M6.44687 18.213C6.54303 18.0464 6.48597 17.8335 6.31941 17.7374C6.15287 17.6413 5.9399 17.6982 5.84375 17.8648" stroke="black" stroke-width="1.5" stroke-linecap="round" stroke-linejoin="round"/>
<path d="M14.5506 18.2132C14.4545 18.0466 14.5115 17.8337 14.678 17.7376C14.8446 17.6413 15.0576 17.6984 15.1538 17.865" stroke="black" stroke-width="1.5" stroke-linecap="round" stroke-linejoin="round"/>
<path d="M14.5508 18.2132C14.6469 18.3798 14.8599 18.4369 15.0264 18.3407C15.193 18.2445 15.2501 18.0316 15.154 17.865" stroke="black" stroke-width="1.5" stroke-linecap="round" stroke-linejoin="round"/>
</g>
<defs>
<clipPath id="clip0_146_401906">
<rect width="21" height="21" fill="white"/>
</clipPath>
</defs>
</svg>
