<svg width="20" height="20" viewBox="0 0 20 20" fill="none" xmlns="http://www.w3.org/2000/svg">
<g id="praying-hand-26" clip-path="url(#clip0_47_144896)">
<g id="praying-hand">
<path id="Vector 2010" d="M10 1.41064V2.73207" stroke="black" stroke-width="1.5" stroke-linecap="round" stroke-linejoin="round"/>
<path id="Vector 2011" d="M13.9648 2.732L14.6256 2.07129" stroke="black" stroke-width="1.5" stroke-linecap="round" stroke-linejoin="round"/>
<path id="Vector 2012" d="M6.03571 2.732L5.375 2.07129" stroke="black" stroke-width="1.5" stroke-linecap="round" stroke-linejoin="round"/>
<path id="Vector 2014" d="M18.5892 18.5892H15.4877C12.7539 18.5892 10.4712 16.5046 10.2237 13.782L10.0716 12.1088C10.0278 11.628 10.2654 11.1652 10.6815 10.9204C11.436 10.4766 12.401 10.9273 12.5449 11.7907L12.9071 13.9642" stroke="black" stroke-width="1.5" stroke-linecap="round" stroke-linejoin="round"/>
<path id="Vector 2015" d="M18.5882 13.9599H16.4415C15.7792 13.9599 15.2192 13.4696 15.1317 12.8131L14.3009 6.58194C14.1498 5.4481 12.8341 4.89597 11.9191 5.58229C11.5421 5.86497 11.3203 6.30863 11.3203 6.77977V10.6563" stroke="black" stroke-width="1.5" stroke-linecap="round" stroke-linejoin="round"/>
<path id="Vector 2017" d="M1.41016 18.5892H4.51174C7.24552 18.5892 9.52824 16.5046 9.77574 13.782L9.92785 12.1088C9.97156 11.628 9.734 11.1652 9.31788 10.9204C8.56344 10.4766 7.59844 10.9273 7.45455 11.7907L7.0923 13.9642" stroke="black" stroke-width="1.5" stroke-linecap="round" stroke-linejoin="round"/>
<path id="Vector 2018" d="M1.41016 13.9589H3.55679C4.21909 13.9589 4.7791 13.4686 4.86663 12.8122L5.69745 6.58097C5.84864 5.44713 7.16417 4.89499 8.07928 5.58132C8.45619 5.864 8.67802 6.30765 8.67802 6.7788V10.6554" stroke="black" stroke-width="1.5" stroke-linecap="round" stroke-linejoin="round"/>
</g>
</g>
<defs>
<clipPath id="clip0_47_144896">
<rect width="20" height="20" fill="white"/>
</clipPath>
</defs>
</svg>
