<svg width="20" height="20" viewBox="0 0 20 20" fill="none" xmlns="http://www.w3.org/2000/svg">
<g id="presentation-1">
<g id="presentation">
<path id="vector" d="M15.8822 15.7812H4.11328" stroke="black" stroke-width="1.5" stroke-linecap="round" stroke-linejoin="round"/>
<path id="rectangle 630" d="M13.9425 18.5687L14.6033 15.7812H5.39453L6.05525 18.5687" stroke="black" stroke-width="1.5" stroke-linecap="round" stroke-linejoin="round"/>
<path id="rectangle 631" d="M4.15624 12.3951H3.59877C2.86896 12.3951 2.27734 11.8035 2.27734 11.0737V3.22768C2.27734 2.49787 2.86897 1.90625 3.59877 1.90625H16.4C17.1299 1.90625 17.7215 2.49788 17.7215 3.22768V11.0737C17.7215 11.8035 17.1299 12.3951 16.4 12.3951H15.8427" stroke="black" stroke-width="1.5" stroke-linecap="round" stroke-linejoin="round"/>
<path id="vector_2" d="M9.99775 9.42227C11.0925 9.42227 11.9799 8.53484 11.9799 7.44014C11.9799 6.34544 11.0925 5.45801 9.99775 5.45801C8.90306 5.45801 8.01562 6.34544 8.01562 7.44014C8.01562 8.53484 8.90306 9.42227 9.99775 9.42227Z" stroke="black" stroke-width="1.5" stroke-linecap="round" stroke-linejoin="round"/>
<path id="vector_3" d="M13.7686 13.8823C13.5126 13.0838 13.0096 12.3874 12.3322 11.8932C11.6548 11.3991 10.838 11.1328 9.99955 11.1328C9.16108 11.1328 8.34427 11.3991 7.66687 11.8932C6.98948 12.3874 6.48651 13.0838 6.23047 13.8823" stroke="black" stroke-width="1.5" stroke-linecap="round" stroke-linejoin="round"/>
</g>
</g>
</svg>
