<svg width="21" height="21" viewBox="0 0 21 21" fill="none" xmlns="http://www.w3.org/2000/svg">
<g clip-path="url(#clip0_146_398403)">
<path d="M15.6539 9.24653C17.8078 9.24653 19.5539 7.50045 19.5539 5.34653C19.5539 3.19262 17.8078 1.44653 15.6539 1.44653C13.5 1.44653 11.7539 3.19262 11.7539 5.34653C11.7539 7.50045 13.5 9.24653 15.6539 9.24653Z" stroke="black" stroke-width="1.5" stroke-linecap="round" stroke-linejoin="round"/>
<path d="M15.6523 5.34658L16.6273 4.37158" stroke="black" stroke-width="1.5" stroke-linecap="round" stroke-linejoin="round"/>
<path d="M7.01674 7.01807H1.44531V12.5895H7.01674V7.01807Z" stroke="black" stroke-width="1.5" stroke-linecap="round" stroke-linejoin="round"/>
<path d="M1.44531 19.5536H16.0703C18.0203 19.5536 19.5525 18.0215 19.5525 16.0715C19.5525 14.1215 18.0203 12.5894 16.0703 12.5894H1.44531" stroke="black" stroke-width="1.5" stroke-linecap="round" stroke-linejoin="round"/>
<path d="M1.86328 16.4197C2.05559 16.4197 2.21149 16.2638 2.21149 16.0715C2.21149 15.8791 2.05559 15.7233 1.86328 15.7233" stroke="black" stroke-width="1.5" stroke-linecap="round" stroke-linejoin="round"/>
<path d="M1.86384 16.4197C1.67153 16.4197 1.51562 16.2638 1.51562 16.0715C1.51562 15.8791 1.67153 15.7233 1.86384 15.7233" stroke="black" stroke-width="1.5" stroke-linecap="round" stroke-linejoin="round"/>
<path d="M8.82812 16.4197C9.02044 16.4197 9.17634 16.2638 9.17634 16.0715C9.17634 15.8791 9.02044 15.7233 8.82812 15.7233" stroke="black" stroke-width="1.5" stroke-linecap="round" stroke-linejoin="round"/>
<path d="M8.82868 16.4197C8.63637 16.4197 8.48047 16.2638 8.48047 16.0715C8.48047 15.8791 8.63637 15.7233 8.82868 15.7233" stroke="black" stroke-width="1.5" stroke-linecap="round" stroke-linejoin="round"/>
<path d="M15.793 16.4197C15.9853 16.4197 16.1412 16.2638 16.1412 16.0715C16.1412 15.8791 15.9853 15.7233 15.793 15.7233" stroke="black" stroke-width="1.5" stroke-linecap="round" stroke-linejoin="round"/>
<path d="M15.7935 16.4197C15.6012 16.4197 15.4453 16.2638 15.4453 16.0715C15.4453 15.8791 15.6012 15.7233 15.7935 15.7233" stroke="black" stroke-width="1.5" stroke-linecap="round" stroke-linejoin="round"/>
</g>
<defs>
<clipPath id="clip0_146_398403">
<rect width="21" height="21" fill="white"/>
</clipPath>
</defs>
</svg>
