<svg width="21" height="21" viewBox="0 0 21 21" fill="none" xmlns="http://www.w3.org/2000/svg">
<path d="M4.92801 8.41078L3.53516 6.3215L7.71373 2.83936" stroke="black" stroke-width="1.5" stroke-linecap="round" stroke-linejoin="round"/>
<path d="M16.0709 8.41078L17.4637 6.3215L13.2852 2.83936" stroke="black" stroke-width="1.5" stroke-linecap="round" stroke-linejoin="round"/>
<path d="M7.71484 1.44653V2.83939C7.71484 3.5782 8.00833 4.28676 8.53077 4.80918C9.05318 5.33162 9.76174 5.6251 10.5006 5.6251C11.2394 5.6251 11.9479 5.33162 12.4704 4.80918C12.9928 4.28676 13.2863 3.5782 13.2863 2.83939V1.44653" stroke="black" stroke-width="1.5" stroke-linecap="round" stroke-linejoin="round"/>
<path d="M5.625 11.8931V17.4645L10.5 19.5538L15.375 17.4645V11.8931" stroke="black" stroke-width="1.5" stroke-linecap="round" stroke-linejoin="round"/>
<path d="M15.375 11.893L10.5 9.80371L5.625 11.893" stroke="black" stroke-width="1.5" stroke-linecap="round" stroke-linejoin="round"/>
<path d="M5.625 11.8931L10.5 13.9824" stroke="black" stroke-width="1.5" stroke-linecap="round" stroke-linejoin="round"/>
<path d="M15.375 11.8931L10.5 13.9824" stroke="black" stroke-width="1.5" stroke-linecap="round" stroke-linejoin="round"/>
</svg>
