<svg width="20" height="20" viewBox="0 0 20 20" fill="none" xmlns="http://www.w3.org/2000/svg">
<g id="quotation-3-69">
<g id="quotation-3--quote-quotation-format-formatting-open-close-marks-text">
<path id="Vector" d="M3.67188 7.91541C3.84129 8.03601 3.97956 8.19521 4.07529 8.37981C4.171 8.56441 4.22142 8.76916 4.22239 8.9771C4.24895 9.16726 4.2287 9.36102 4.16339 9.54158C4.09807 9.72214 3.98967 9.88403 3.8476 10.0132C3.70552 10.1423 3.53407 10.2349 3.34813 10.2827C3.16218 10.3306 2.96736 10.3323 2.78059 10.2878C1.52229 9.96015 0.932467 8.08581 2.12523 5.04492" stroke="black" stroke-width="1.5" stroke-linecap="round" stroke-linejoin="round"/>
<path id="Vector_2" d="M8.28379 7.91541C8.45561 8.03459 8.59642 8.19315 8.69447 8.37784C8.79252 8.56254 8.84496 8.76801 8.8474 8.9771C8.87398 9.16726 8.85372 9.36102 8.7884 9.54158C8.7231 9.72214 8.61469 9.88403 8.47262 10.0132C8.33054 10.1423 8.1591 10.2349 7.97315 10.2827C7.7872 10.3306 7.59239 10.3323 7.40561 10.2878C6.09488 10.0388 5.55748 8.11202 6.71092 5.04492" stroke="black" stroke-width="1.5" stroke-linecap="round" stroke-linejoin="round"/>
<path id="Vector_3" d="M16.308 12.0051C16.1385 11.8845 16.0002 11.7254 15.9045 11.5407C15.8088 11.3561 15.7584 11.1514 15.7574 10.9435C15.7309 10.7533 15.7511 10.5595 15.8164 10.379C15.8817 10.1984 15.9901 10.0365 16.1322 9.90736C16.2743 9.7782 16.4458 9.68568 16.6317 9.63782C16.8176 9.58997 17.0124 9.58821 17.1993 9.63273C18.51 9.88176 19.0473 11.8085 17.8807 14.8756" stroke="black" stroke-width="1.5" stroke-linecap="round" stroke-linejoin="round"/>
<path id="Vector_4" d="M11.6921 12.0051C11.5203 11.886 11.3795 11.7274 11.2815 11.5427C11.1834 11.358 11.131 11.1525 11.1285 10.9435C11.102 10.7533 11.1222 10.5595 11.1875 10.379C11.2528 10.1984 11.3612 10.0365 11.5033 9.90736C11.6454 9.7782 11.8168 9.68568 12.0028 9.63782C12.1887 9.58997 12.3836 9.58821 12.5703 9.63273C13.8811 9.88176 14.4184 11.8085 13.265 14.8756" stroke="black" stroke-width="1.5" stroke-linecap="round" stroke-linejoin="round"/>
</g>
</g>
</svg>
