<svg width="20" height="20" viewBox="0 0 20 20" fill="none" xmlns="http://www.w3.org/2000/svg">
<g id="radioactive-2-31">
<g id="radioactive-2--warning-radioactive-radiation-emergency-danger-safety">
<path id="Vector" d="M10 15.2726C12.5543 15.2726 14.625 13.2019 14.625 10.6476C14.625 8.09326 12.5543 6.02258 10 6.02258C7.44568 6.02258 5.375 8.09326 5.375 10.6476C5.375 13.2019 7.44568 15.2726 10 15.2726Z" stroke="black" stroke-width="1.5" stroke-linecap="round" stroke-linejoin="round"/>
<path id="Vector_2" d="M13.1058 2.4812C13.7184 3.09511 14.1353 3.87684 14.3039 4.72762C14.4725 5.57839 14.3851 6.46004 14.0527 7.26117C13.7204 8.06228 13.1581 8.74693 12.4369 9.2286C11.7156 9.71026 10.8677 9.96733 10.0004 9.96733C9.13311 9.96733 8.28526 9.71026 7.564 9.2286C6.84272 8.74693 6.28041 8.06228 5.9481 7.26117C5.61578 6.46004 5.52838 5.57839 5.69692 4.72762C5.86547 3.87684 6.28241 3.09511 6.89506 2.4812" stroke="black" stroke-width="1.5" stroke-linecap="round" stroke-linejoin="round"/>
<path id="Vector_3" d="M1.41016 11.9822C1.63542 11.1446 2.10389 10.3926 2.75639 9.82122C3.40887 9.24979 4.2161 8.8846 5.07606 8.77178C5.93604 8.65895 6.81015 8.80356 7.58795 9.18734C8.36576 9.57111 9.01236 10.1768 9.44605 10.9279C9.87975 11.6791 10.0811 12.5419 10.0246 13.4074C9.96808 14.2728 9.65633 15.1021 9.12869 15.7906C8.60104 16.4789 7.88119 16.9955 7.06011 17.2748C6.23901 17.5543 5.35352 17.5841 4.51551 17.3605" stroke="black" stroke-width="1.5" stroke-linecap="round" stroke-linejoin="round"/>
<path id="Vector_4" d="M15.4832 17.3605C14.6452 17.5841 13.7597 17.5543 12.9386 17.2748C12.1175 16.9955 11.3977 16.4789 10.8701 15.7906C10.3424 15.1021 10.0307 14.2728 9.97416 13.4074C9.91767 12.5419 10.119 11.6791 10.5527 10.9279C10.9864 10.1768 11.633 9.57111 12.4108 9.18734C13.1886 8.80356 14.0627 8.65895 14.9227 8.77178C15.7826 8.8846 16.5899 9.24979 17.2423 9.82122C17.8948 10.3926 18.3633 11.1446 18.5886 11.9822" stroke="black" stroke-width="1.5" stroke-linecap="round" stroke-linejoin="round"/>
</g>
</g>
</svg>
