<svg width="20" height="20" viewBox="0 0 20 20" fill="none" xmlns="http://www.w3.org/2000/svg">
<g id="rain-cloud-12">
<g id="rain-cloud--cloud-rain-rainy-meteorology-precipitation-weather">
<path id="Vector" d="M6.03516 15.9464L6.69587 14.625" stroke="black" stroke-width="1.5" stroke-linecap="round" stroke-linejoin="round"/>
<path id="Vector_2" d="M11.9805 15.9464L12.6412 14.625" stroke="black" stroke-width="1.5" stroke-linecap="round" stroke-linejoin="round"/>
<path id="Vector_3" d="M8.34766 18.589L9.00837 17.2676" stroke="black" stroke-width="1.5" stroke-linecap="round" stroke-linejoin="round"/>
<path id="Vector_4" d="M2.39844 18.589L3.05915 17.2676" stroke="black" stroke-width="1.5" stroke-linecap="round" stroke-linejoin="round"/>
<path id="Vector_5" d="M14.293 18.589L14.9537 17.2676" stroke="black" stroke-width="1.5" stroke-linecap="round" stroke-linejoin="round"/>
<path id="Vector_6" d="M14.2928 11.3209C15.1689 11.3209 16.0092 10.9728 16.6288 10.3533C17.2483 9.73373 17.5964 8.89346 17.5964 8.0173C17.5964 7.14114 17.2483 6.30086 16.6288 5.68132C16.0092 5.06178 15.1689 4.71373 14.2928 4.71373C13.5393 4.71624 12.8085 4.97224 12.2181 5.44051C12.0425 4.51633 11.6075 3.66122 10.9639 2.97515C10.3203 2.28906 9.49464 1.80037 8.58354 1.56617C7.67245 1.33198 6.7135 1.36196 5.81881 1.65262C4.92413 1.94328 4.13065 2.4826 3.53114 3.20754C2.93164 3.93249 2.55088 4.8131 2.43335 5.74645C2.31584 6.6798 2.46641 7.62732 2.86749 8.47825C3.26857 9.32919 3.90357 10.0484 4.69828 10.5517C5.493 11.0551 6.41458 11.3219 7.35529 11.3209H14.2928Z" stroke="black" stroke-width="1.5" stroke-linecap="round" stroke-linejoin="round"/>
</g>
</g>
</svg>
