<svg width="21" height="21" viewBox="0 0 21 21" fill="none" xmlns="http://www.w3.org/2000/svg">
<g clip-path="url(#clip0_146_399508)">
<path d="M10.7803 7.32744C10.6988 7.09678 10.573 6.88702 10.4131 6.7084C10.073 6.32845 9.57885 6.08936 9.02883 6.08936H7.59134C6.67579 6.08936 5.93359 6.83155 5.93359 7.74709C5.93359 8.52613 6.47604 9.20007 7.23709 9.36655L9.4257 9.84531C10.2783 10.0318 10.886 10.7874 10.886 11.6601C10.886 12.6858 10.0545 13.5179 9.02883 13.5179H7.79073C6.98212 13.5179 6.29422 13.0011 6.03927 12.2798" stroke="black" stroke-width="1.5" stroke-linecap="round" stroke-linejoin="round"/>
<path d="M8.41016 6.08932V4.23218" stroke="black" stroke-width="1.5" stroke-linecap="round" stroke-linejoin="round"/>
<path d="M8.41016 15.3749V13.5178" stroke="black" stroke-width="1.5" stroke-linecap="round" stroke-linejoin="round"/>
<path d="M17.4632 1.44641H4.23103C3.49221 1.44641 2.78365 1.73991 2.26123 2.26233C1.73881 2.78475 1.44531 3.49331 1.44531 4.23213V19.5536L4.92746 17.4643L8.4096 19.5536L11.8917 17.4643L15.3739 19.5536V3.5357C15.3739 2.98159 15.594 2.45016 15.9858 2.05835C16.3776 1.66653 16.9091 1.44641 17.4632 1.44641ZM17.4632 1.44641C18.0172 1.44641 18.5488 1.66653 18.9406 2.05835C19.3324 2.45016 19.5525 2.98159 19.5525 3.5357V8.4107H15.3739" stroke="black" stroke-width="1.5" stroke-linecap="round" stroke-linejoin="round"/>
</g>
<defs>
<clipPath id="clip0_146_399508">
<rect width="21" height="21" fill="white"/>
</clipPath>
</defs>
</svg>
