<svg width="20" height="20" viewBox="0 0 20 20" fill="none" xmlns="http://www.w3.org/2000/svg">
<g id="recycle-bin-alert-32">
<g id="recycle-bin-alert--remove-delete-empty-bin-trash-garbage-full-alert-warning">
<path id="Vector" d="M2.07031 5.375H17.9275" stroke="black" stroke-width="1.5" stroke-linecap="round" stroke-linejoin="round"/>
<path id="Vector_2" d="M4.05078 5.375H15.9436V17.2679C15.9436 17.6183 15.8044 17.9545 15.5566 18.2022C15.3088 18.45 14.9727 18.5893 14.6222 18.5893H5.37221C5.02174 18.5893 4.68564 18.45 4.43781 18.2022C4.19001 17.9545 4.05078 17.6183 4.05078 17.2679V5.375Z" stroke="black" stroke-width="1.5" stroke-linecap="round" stroke-linejoin="round"/>
<path id="Vector_3" d="M6.69531 5.37499V4.71428C6.69531 3.83812 7.04336 2.99783 7.6629 2.3783C8.28244 1.75876 9.12272 1.41071 9.99888 1.41071C10.875 1.41071 11.7153 1.75876 12.3349 2.3783C12.9544 2.99783 13.3025 3.83812 13.3025 4.71428V5.37499" stroke="black" stroke-width="1.5" stroke-linecap="round" stroke-linejoin="round"/>
<path id="Vector_4" d="M10 8.34821V11.6518" stroke="black" stroke-width="1.5" stroke-linecap="round" stroke-linejoin="round"/>
<g id="Group 2605">
<path id="Ellipse 1111" d="M9.99833 15.2857C9.81588 15.2857 9.66797 15.1378 9.66797 14.9554C9.66797 14.7729 9.81588 14.625 9.99833 14.625" stroke="black" stroke-width="1.5" stroke-linecap="round" stroke-linejoin="round"/>
<path id="Ellipse 1112" d="M10 15.2857C10.1824 15.2857 10.3304 15.1378 10.3304 14.9554C10.3304 14.7729 10.1824 14.625 10 14.625" stroke="black" stroke-width="1.5" stroke-linecap="round" stroke-linejoin="round"/>
</g>
</g>
</g>
</svg>
