<svg width="20" height="20" viewBox="0 0 20 20" fill="none" xmlns="http://www.w3.org/2000/svg">
<g clip-path="url(#clip0_48_150791)">
<path d="M9.99833 9.00898C9.81588 9.00898 9.66797 8.86107 9.66797 8.67862C9.66797 8.49617 9.81588 8.34827 9.99833 8.34827" stroke="black" stroke-width="1.5" stroke-linecap="round" stroke-linejoin="round"/>
<path d="M10 9.00898C10.1824 9.00898 10.3304 8.86107 10.3304 8.67862C10.3304 8.49617 10.1824 8.34827 10 8.34827" stroke="black" stroke-width="1.5" stroke-linecap="round" stroke-linejoin="round"/>
<path d="M13.3025 8.67857C13.3025 10.5031 9.99888 14.625 9.99888 14.625C9.99888 14.625 6.69531 10.5031 6.69531 8.67857C6.69531 6.85406 8.17437 5.375 9.99888 5.375C11.8234 5.375 13.3025 6.85406 13.3025 8.67857Z" stroke="black" stroke-width="1.5" stroke-linecap="round" stroke-linejoin="round"/>
<path d="M18.5906 10C18.5906 14.7438 14.7451 18.5893 10.0013 18.5893C6.42824 18.5893 3.36473 16.4076 2.07031 13.3036" stroke="black" stroke-width="1.5" stroke-linecap="round" stroke-linejoin="round"/>
<path d="M1.41016 10.0001C1.41016 5.25632 5.25571 1.41077 9.99944 1.41077C13.5725 1.41077 16.6361 3.59251 17.9304 6.69648" stroke="black" stroke-width="1.5" stroke-linecap="round" stroke-linejoin="round"/>
<path d="M18.5882 4.05359V6.69645H15.9453" stroke="black" stroke-width="1.5" stroke-linecap="round" stroke-linejoin="round"/>
<path d="M1.41016 15.9464V13.3036H4.05301" stroke="black" stroke-width="1.5" stroke-linecap="round" stroke-linejoin="round"/>
</g>
<defs>
<clipPath id="clip0_48_150791">
<rect width="20" height="20" fill="white"/>
</clipPath>
</defs>
</svg>
