<svg width="20" height="20" viewBox="0 0 20 20" fill="none" xmlns="http://www.w3.org/2000/svg">
<g id="registration-marks-1" clip-path="url(#clip0_47_146811)">
<g id="registration-marks">
<path id="Vector 860" d="M3.81641 3.81641V16.1852H16.1851V3.81641H3.81641Z" stroke="black" stroke-width="1.5" stroke-linecap="round" stroke-linejoin="round"/>
<path id="Vector 861" d="M16.1836 1.41113V3.81617H18.5886" stroke="black" stroke-width="1.5" stroke-linecap="round" stroke-linejoin="round"/>
<path id="Vector 862" d="M16.1836 18.5896V16.1846H18.5886" stroke="black" stroke-width="1.5" stroke-linecap="round" stroke-linejoin="round"/>
<path id="Vector 863" d="M3.81519 1.41113V3.81617H1.41016" stroke="black" stroke-width="1.5" stroke-linecap="round" stroke-linejoin="round"/>
<path id="Vector 864" d="M3.81519 18.5896V16.1846H1.41016" stroke="black" stroke-width="1.5" stroke-linecap="round" stroke-linejoin="round"/>
<path id="Vector" d="M9.99765 7.89746C11.1592 7.89746 12.1008 8.83906 12.1008 10.0006C12.1008 11.1621 11.1592 12.1037 9.99765 12.1037C8.83613 12.1037 7.89453 11.1621 7.89453 10.0006C7.89453 8.83906 8.83613 7.89746 9.99765 7.89746Z" stroke="black" stroke-width="1.5" stroke-linecap="round" stroke-linejoin="round"/>
<path id="Vector 832" d="M10.0039 7.81766V6.44336" stroke="black" stroke-width="1.5" stroke-linecap="round" stroke-linejoin="round"/>
<path id="Vector 833" d="M10 13.5579V12.1836" stroke="black" stroke-width="1.5" stroke-linecap="round" stroke-linejoin="round"/>
<path id="Vector 834" d="M12.1016 10H13.4759" stroke="black" stroke-width="1.5" stroke-linecap="round" stroke-linejoin="round"/>
<path id="Vector 835" d="M6.52344 10H7.89774" stroke="black" stroke-width="1.5" stroke-linecap="round" stroke-linejoin="round"/>
</g>
</g>
<defs>
<clipPath id="clip0_47_146811">
<rect width="20" height="20" fill="white"/>
</clipPath>
</defs>
</svg>
