<svg width="20" height="20" viewBox="0 0 20 20" fill="none" xmlns="http://www.w3.org/2000/svg">
<g id="remove-filter-slide-18" clip-path="url(#clip0_47_147312)">
<g id="remove-filter-slide">
<path id="vector" d="M4.45703 1.46777V11.1065" stroke="black" stroke-width="1.5" stroke-linecap="round" stroke-linejoin="round"/>
<path id="vector_2" d="M16.8571 11.6475C17.7684 11.6475 18.5072 12.3862 18.5072 13.2975C18.5072 14.2088 17.7684 14.9475 16.8571 14.9475C15.9458 14.9475 15.207 14.2088 15.207 13.2975C15.207 12.3862 15.9458 11.6475 16.8571 11.6475Z" stroke="black" stroke-width="1.5" stroke-linecap="round" stroke-linejoin="round"/>
<path id="vector_3" d="M16.8555 14.9482V18.5318" stroke="black" stroke-width="1.5" stroke-linecap="round" stroke-linejoin="round"/>
<path id="vector_4" d="M16.8594 1.46777V11.6482" stroke="black" stroke-width="1.5" stroke-linecap="round" stroke-linejoin="round"/>
<path id="vector_5" d="M10.6539 11.5569C11.5652 11.5569 12.304 10.8182 12.304 9.90688C12.304 8.99558 11.5652 8.25684 10.6539 8.25684C9.74265 8.25684 9.00391 8.99558 9.00391 9.90688C9.00391 10.8182 9.74265 11.5569 10.6539 11.5569Z" stroke="black" stroke-width="1.5" stroke-linecap="round" stroke-linejoin="round"/>
<path id="vector_6" d="M10.6562 1.46777V8.25687" stroke="black" stroke-width="1.5" stroke-linecap="round" stroke-linejoin="round"/>
<path id="vector_7" d="M10.6641 11.5566V18.5315" stroke="black" stroke-width="1.5" stroke-linecap="round" stroke-linejoin="round"/>
<path id="vector_8" d="M6.11719 13.9062L1.49219 18.5312M1.49219 13.9062L6.11719 18.5312" stroke="black" stroke-width="1.5" stroke-linecap="round" stroke-linejoin="round"/>
</g>
</g>
<defs>
<clipPath id="clip0_47_147312">
<rect width="20" height="20" fill="white"/>
</clipPath>
</defs>
</svg>
