<svg width="20" height="20" viewBox="0 0 20 20" fill="none" xmlns="http://www.w3.org/2000/svg">
<g id="remove-favorite-highlight-4" clip-path="url(#clip0_47_143264)">
<g id="remove-favorite-highlight">
<path id="vector" d="M7.11384 13.0377L1.82812 18.3234M1.82812 13.0377L7.11384 18.3234" stroke="black" stroke-width="1.5" stroke-linecap="round" stroke-linejoin="round"/>
<path id="vector_2" d="M10.3602 15.8198L14.5358 18.0266C14.6561 18.0905 14.7917 18.1194 14.9274 18.11C15.0631 18.1005 15.1935 18.0531 15.3036 17.9733C15.4138 17.8934 15.4993 17.7842 15.5504 17.6582C15.6016 17.5321 15.6164 17.3943 15.593 17.2602L14.7869 12.5956C14.7666 12.4806 14.7751 12.3623 14.8121 12.2516C14.849 12.1408 14.9131 12.041 14.9983 11.9613L18.3415 8.6445C18.4405 8.55201 18.5111 8.43329 18.545 8.30222C18.5789 8.17113 18.5749 8.03311 18.5333 7.90425C18.4918 7.77538 18.4144 7.661 18.3102 7.57447C18.2061 7.48794 18.0795 7.43283 17.9451 7.41557L13.307 6.72843C13.1899 6.71545 13.0782 6.67203 12.9832 6.60247C12.8881 6.53291 12.813 6.43965 12.7652 6.332L10.6641 2.09021C10.6069 1.96666 10.5155 1.86207 10.4008 1.78877C10.2861 1.71546 10.1527 1.67651 10.0166 1.67651C9.88045 1.67651 9.74715 1.71546 9.63241 1.78877C9.51768 1.86207 9.42632 1.96666 9.3691 2.09021L7.26803 6.332C7.22024 6.43965 7.14507 6.53291 7.05 6.60247C6.95494 6.67203 6.84332 6.71545 6.72624 6.72843L2.08803 7.41557C1.95044 7.42624 1.8189 7.47659 1.70935 7.56052C1.59979 7.64443 1.51692 7.75831 1.47077 7.88836C1.42462 8.01843 1.41717 8.15907 1.44933 8.29327C1.48149 8.42748 1.55187 8.54947 1.65195 8.6445L3.47964 10.4485" stroke="black" stroke-width="1.5" stroke-linecap="round" stroke-linejoin="round"/>
</g>
</g>
<defs>
<clipPath id="clip0_47_143264">
<rect width="20" height="20" fill="white"/>
</clipPath>
</defs>
</svg>
