<svg width="20" height="20" viewBox="0 0 20 20" fill="none" xmlns="http://www.w3.org/2000/svg">
<g id="reorder-pdf-16" clip-path="url(#clip0_47_144542)">
<g id="reorder-PDF--essential-files-folder-reorder-PDF-pages">
<path id="Rectangle 609" d="M6.03516 10.6608C6.03516 9.93099 6.62679 9.33936 7.35659 9.33936H10.6602L13.9637 12.6429V17.2679C13.9637 17.9978 13.3721 18.5894 12.6423 18.5894H7.35659C6.62679 18.5894 6.03516 17.9978 6.03516 17.2679V10.6608Z" stroke="black" stroke-width="1.5" stroke-linecap="round" stroke-linejoin="round"/>
<path id="Rectangle 611" d="M1.41016 18.5894H2.07087C2.55998 18.5894 2.98703 18.3237 3.21552 17.9287" stroke="black" stroke-width="1.5" stroke-linecap="round" stroke-linejoin="round"/>
<path id="Rectangle 612" d="M3.39062 13.9644V15.2858" stroke="black" stroke-width="1.5" stroke-linecap="round" stroke-linejoin="round"/>
<path id="Rectangle 613" d="M1.41016 10.6606L2.40123 11.6517" stroke="black" stroke-width="1.5" stroke-linecap="round" stroke-linejoin="round"/>
<path id="Rectangle 610" d="M18.5876 9.33936H17.9269C17.1971 9.33936 16.6055 9.93099 16.6055 10.6608V17.2679C16.6055 17.9978 17.1971 18.5894 17.9269 18.5894H18.5876" stroke="black" stroke-width="1.5" stroke-linecap="round" stroke-linejoin="round"/>
<path id="Vector 1266" d="M3.39062 5.37493C3.61087 4.0535 5.10848 1.41064 9.33705 1.41064C13.5656 1.41064 15.0632 4.0535 15.2835 5.37493" stroke="black" stroke-width="1.5" stroke-linecap="round" stroke-linejoin="round"/>
<path id="Vector 1267" d="M12.6406 4.71401L15.2835 5.37472L16.6049 3.39258" stroke="black" stroke-width="1.5" stroke-linecap="round" stroke-linejoin="round"/>
</g>
</g>
<defs>
<clipPath id="clip0_47_144542">
<rect width="20" height="20" fill="white"/>
</clipPath>
</defs>
</svg>
