<svg width="20" height="20" viewBox="0 0 20 20" fill="none" xmlns="http://www.w3.org/2000/svg">
<g id="reorder-dots-vertical-22">
<g id="reorder-dots-vertical--select-drag-reorder-dots">
<path id="Ellipse 3" d="M8.67913 3.39291C8.67913 4.48762 7.7917 5.37505 6.69699 5.37505C5.60228 5.37505 4.71484 4.48762 4.71484 3.39291C4.71484 2.2982 5.60228 1.41077 6.69699 1.41077C7.7917 1.41077 8.67913 2.2982 8.67913 3.39291Z" stroke="black" stroke-width="1.5" stroke-linecap="round" stroke-linejoin="round"/>
<path id="Ellipse 4" d="M8.67913 10.0001C8.67913 11.0948 7.7917 11.9822 6.69699 11.9822C5.60228 11.9822 4.71484 11.0948 4.71484 10.0001C4.71484 8.90538 5.60228 8.01794 6.69699 8.01794C7.7917 8.01794 8.67913 8.90538 8.67913 10.0001Z" stroke="black" stroke-width="1.5" stroke-linecap="round" stroke-linejoin="round"/>
<path id="Ellipse 5" d="M8.67913 16.6071C8.67913 17.7018 7.7917 18.5893 6.69699 18.5893C5.60228 18.5893 4.71484 17.7018 4.71484 16.6071C4.71484 15.5125 5.60228 14.625 6.69699 14.625C7.7917 14.625 8.67913 15.5125 8.67913 16.6071Z" stroke="black" stroke-width="1.5" stroke-linecap="round" stroke-linejoin="round"/>
<path id="Ellipse 6" d="M15.2846 3.39291C15.2846 4.48762 14.3971 5.37505 13.3025 5.37505C12.2077 5.37505 11.3203 4.48762 11.3203 3.39291C11.3203 2.2982 12.2077 1.41077 13.3025 1.41077C14.3971 1.41077 15.2846 2.2982 15.2846 3.39291Z" stroke="black" stroke-width="1.5" stroke-linecap="round" stroke-linejoin="round"/>
<path id="Ellipse 7" d="M15.2846 10.0001C15.2846 11.0948 14.3971 11.9822 13.3025 11.9822C12.2077 11.9822 11.3203 11.0948 11.3203 10.0001C11.3203 8.90538 12.2077 8.01794 13.3025 8.01794C14.3971 8.01794 15.2846 8.90538 15.2846 10.0001Z" stroke="black" stroke-width="1.5" stroke-linecap="round" stroke-linejoin="round"/>
<path id="Ellipse 8" d="M15.2846 16.6071C15.2846 17.7018 14.3971 18.5893 13.3025 18.5893C12.2077 18.5893 11.3203 17.7018 11.3203 16.6071C11.3203 15.5125 12.2077 14.625 13.3025 14.625C14.3971 14.625 15.2846 15.5125 15.2846 16.6071Z" stroke="black" stroke-width="1.5" stroke-linecap="round" stroke-linejoin="round"/>
</g>
</g>
</svg>
