<svg width="21" height="21" viewBox="0 0 21 21" fill="none" xmlns="http://www.w3.org/2000/svg">
<path d="M6.5346 4.05811H3.98995C3.65252 4.05811 3.3289 4.19215 3.09029 4.43076C2.85168 4.66936 2.71763 4.99299 2.71763 5.33043V15.7367L1.44531 19.5536L6.5346 18.2813H18.1596C18.4971 18.2813 18.8206 18.1473 19.0592 17.9087C19.2978 17.6701 19.432 17.3464 19.432 17.009V5.33043C19.432 4.99299 19.2978 4.66936 19.0592 4.43076C18.8206 4.19215 18.4971 4.05811 18.1596 4.05811H11.0212" stroke="black" stroke-width="1.5" stroke-linecap="round" stroke-linejoin="round"/>
<path d="M12.5893 1.79468L10.5 3.88396L12.5893 5.97325" stroke="black" stroke-width="1.5" stroke-linecap="round" stroke-linejoin="round"/>
<path d="M6.62388 11.5446C6.33541 11.5446 6.10156 11.3108 6.10156 11.0223C6.10156 10.7338 6.33541 10.5 6.62388 10.5" stroke="black" stroke-width="1.5" stroke-linecap="round" stroke-linejoin="round"/>
<path d="M6.625 11.5446C6.91347 11.5446 7.14732 11.3108 7.14732 11.0223C7.14732 10.7338 6.91347 10.5 6.625 10.5" stroke="black" stroke-width="1.5" stroke-linecap="round" stroke-linejoin="round"/>
<path d="M11.1083 11.5446C10.8198 11.5446 10.5859 11.3108 10.5859 11.0223C10.5859 10.7338 10.8198 10.5 11.1083 10.5" stroke="black" stroke-width="1.5" stroke-linecap="round" stroke-linejoin="round"/>
<path d="M11.1094 11.5446C11.3978 11.5446 11.6317 11.3108 11.6317 11.0223C11.6317 10.7338 11.3978 10.5 11.1094 10.5" stroke="black" stroke-width="1.5" stroke-linecap="round" stroke-linejoin="round"/>
<path d="M15.5928 11.5446C15.3042 11.5446 15.0703 11.3108 15.0703 11.0223C15.0703 10.7338 15.3042 10.5 15.5928 10.5" stroke="black" stroke-width="1.5" stroke-linecap="round" stroke-linejoin="round"/>
<path d="M15.5898 11.5446C15.8784 11.5446 16.1122 11.3108 16.1122 11.0223C16.1122 10.7338 15.8784 10.5 15.5898 10.5" stroke="black" stroke-width="1.5" stroke-linecap="round" stroke-linejoin="round"/>
</svg>
