<svg width="20" height="20" viewBox="0 0 20 20" fill="none" xmlns="http://www.w3.org/2000/svg">
<g id="ribbon-3">
<g id="ribbon--ribbon-reward-like-social-rating-media">
<path id="Vector" d="M9.82924 13.3036C13.1134 13.3036 15.7757 10.6413 15.7757 7.3572C15.7757 4.07308 13.1134 1.41077 9.82924 1.41077C6.54511 1.41077 3.88281 4.07308 3.88281 7.3572C3.88281 10.6413 6.54511 13.3036 9.82924 13.3036Z" stroke="black" stroke-width="1.5" stroke-linecap="round" stroke-linejoin="round"/>
<path id="Vector_2" d="M9.83036 10.0001C11.29 10.0001 12.4732 8.81682 12.4732 7.35721C12.4732 5.8976 11.29 4.71436 9.83036 4.71436C8.37075 4.71436 7.1875 5.8976 7.1875 7.35721C7.1875 8.81682 8.37075 10.0001 9.83036 10.0001Z" stroke="black" stroke-width="1.5" stroke-linecap="round" stroke-linejoin="round"/>
<path id="Vector_3" d="M8.67971 13.198L7.51685 18.0872C7.49383 18.1801 7.4513 18.2671 7.39206 18.3423C7.3328 18.4175 7.25824 18.4792 7.17328 18.5233C7.08362 18.5623 6.98692 18.5823 6.88917 18.5823C6.79143 18.5823 6.69473 18.5623 6.60507 18.5233L2.21792 16.6072C2.1259 16.5638 2.04492 16.4999 1.98108 16.4207C1.91724 16.3414 1.87218 16.2487 1.84929 16.1495C1.8264 16.0504 1.82628 15.9472 1.84893 15.848C1.87158 15.7487 1.91641 15.656 1.98006 15.5765L5.37614 11.3215" stroke="black" stroke-width="1.5" stroke-linecap="round" stroke-linejoin="round"/>
<path id="Vector_4" d="M11.3242 13.1319L12.5135 18.0872C12.5372 18.1817 12.5814 18.2698 12.6431 18.3452C12.7048 18.4206 12.7823 18.4814 12.8703 18.5233C12.9575 18.5627 13.0521 18.583 13.1478 18.583C13.2435 18.583 13.3381 18.5627 13.4253 18.5233L17.786 16.6072C17.8794 16.5643 17.9615 16.5001 18.0257 16.4197C18.0899 16.3395 18.1346 16.2453 18.156 16.1447C18.1811 16.0464 18.1822 15.9433 18.1592 15.8445C18.1362 15.7456 18.0898 15.6537 18.0239 15.5765L14.4824 11.0704" stroke="black" stroke-width="1.5" stroke-linecap="round" stroke-linejoin="round"/>
</g>
</g>
</svg>
