<svg width="20" height="20" viewBox="0 0 20 20" fill="none" xmlns="http://www.w3.org/2000/svg">
<g id="rock-and-roll-hand-28">
<g id="rock-and-roll-hand">
<path id="Vector 536" d="M5.72103 18.5894C3.2331 17.5973 2.98427 15.3712 3.18923 13.524C3.33133 12.2432 4.39328 11.4316 5.65406 11.4316C6.83636 11.4316 9.2322 11.4365 9.2322 11.4365C10.1356 11.5062 10.7915 12.3305 10.7057 13.2191C10.5735 14.5885 8.95574 14.7357 7.86835 15.0105C8.70269 15.3954 10.3402 16.4576 10.2154 17.6272" stroke="black" stroke-width="1.5" stroke-linecap="round" stroke-linejoin="round"/>
<path id="Vector 2004" d="M14.3099 18.5892L14.9091 17.9901C15.9003 16.9987 16.4572 15.6543 16.4572 14.2524V6.06317C16.4572 5.0749 15.6561 4.27374 14.6678 4.27374C13.6795 4.27374 12.8783 5.0749 12.8783 6.06317V9.99993C10.743 9.04109 10.2159 8.94569 7.86794 9.28415V3.20008C7.86794 2.2118 7.06678 1.41064 6.0785 1.41064C5.09023 1.41064 4.28906 2.2118 4.28906 3.20008V11.7597" stroke="black" stroke-width="1.5" stroke-linecap="round" stroke-linejoin="round"/>
</g>
</g>
</svg>
