<svg width="20" height="20" viewBox="0 0 20 20" fill="none" xmlns="http://www.w3.org/2000/svg">
<g id="roller-paintbrush-2" clip-path="url(#clip0_47_143620)">
<g id="roller-paintbrush--brush-color-colors-design-paint-painting-roller-rolling">
<path id="Vector" d="M17.269 1.41064H5.37612C4.64632 1.41064 4.05469 2.00227 4.05469 2.73207V5.37493C4.05469 6.10473 4.64632 6.69636 5.37612 6.69636H17.269C17.9988 6.69636 18.5904 6.10473 18.5904 5.37493V2.73207C18.5904 2.00227 17.9988 1.41064 17.269 1.41064Z" stroke="black" stroke-width="1.5" stroke-linecap="round" stroke-linejoin="round"/>
<path id="Vector_2" d="M11.3209 13.3035V11.982C11.3209 11.2811 11.0424 10.6089 10.5468 10.1133C10.0512 9.61762 9.37894 9.33918 8.67801 9.33918H4.05301C3.35209 9.33918 2.67986 9.06074 2.18424 8.5651C1.6886 8.06947 1.41016 7.39725 1.41016 6.69632V5.3749C1.41016 5.02443 1.54938 4.68832 1.79719 4.4405C2.04501 4.19269 2.38112 4.05347 2.73158 4.05347H4.05301" stroke="black" stroke-width="1.5" stroke-linecap="round" stroke-linejoin="round"/>
<path id="Vector_3" d="M9.33984 18.5892V14.6249C9.33984 14.2745 9.47907 13.9383 9.72688 13.6905C9.9747 13.4427 10.3108 13.3035 10.6613 13.3035H11.9827C12.3332 13.3035 12.6693 13.4427 12.9171 13.6905C13.1649 13.9383 13.3041 14.2745 13.3041 14.6249V18.5892" stroke="black" stroke-width="1.5" stroke-linecap="round" stroke-linejoin="round"/>
</g>
</g>
<defs>
<clipPath id="clip0_47_143620">
<rect width="20" height="20" fill="white"/>
</clipPath>
</defs>
</svg>
