<svg width="20" height="20" viewBox="0 0 20 20" fill="none" xmlns="http://www.w3.org/2000/svg">
<g id="rotate-left-circle-8" clip-path="url(#clip0_47_143090)">
<g id="rotate-left-circle">
<path id="Vector" d="M18.5887 10.0001C18.5887 5.25632 14.7432 1.41077 9.99944 1.41077C5.25571 1.41077 1.41016 5.25632 1.41016 10.0001C1.41016 14.7438 5.25571 18.5893 9.99944 18.5893C14.7432 18.5893 18.5887 14.7438 18.5887 10.0001Z" stroke="black" stroke-width="1.5" stroke-linecap="round" stroke-linejoin="round"/>
<path id="Ellipse 440" d="M6.41216 11.5665C7.02043 12.9868 8.43087 13.9818 10.0737 13.9818C12.2726 13.9818 14.0551 12.1993 14.0551 10.0004C14.0551 7.80157 12.2726 6.01904 10.0737 6.01904C8.28963 6.01904 6.77964 7.1925 6.27344 8.80969" stroke="black" stroke-width="1.5" stroke-linecap="round" stroke-linejoin="round"/>
<path id="Vector 997" d="M8.8337 8.58755L6.2651 8.81751L6.03516 6.2489" stroke="black" stroke-width="1.5" stroke-linecap="round" stroke-linejoin="round"/>
</g>
</g>
<defs>
<clipPath id="clip0_47_143090">
<rect width="20" height="20" fill="white"/>
</clipPath>
</defs>
</svg>
