<svg width="20" height="20" viewBox="0 0 20 20" fill="none" xmlns="http://www.w3.org/2000/svg">
<g id="rotate-left-78" clip-path="url(#clip0_47_141426)">
<g id="rotate-left">
<path id="Vector" d="M1.41016 10C1.41016 10.7306 1.50332 11.4541 1.68458 12.1538M2.85772 14.7719C3.40165 15.5861 4.07768 16.2966 4.85332 16.877M11.6751 18.4242C10.2468 18.7083 8.77374 18.6239 7.39353 18.1844M16.073 16.0736C15.6343 16.5123 15.1518 16.8997 14.6347 17.2313" stroke="black" stroke-width="1.5" stroke-linecap="round" stroke-linejoin="round"/>
<path id="Vector_2" d="M4.05134 1.41077L3.39062 4.05362L6.03348 4.71434" stroke="black" stroke-width="1.5" stroke-linecap="round" stroke-linejoin="round"/>
<path id="Vector_3" d="M16.0713 16.0736C17.2725 14.8724 18.0906 13.3419 18.422 11.6757C18.7534 10.0096 18.5834 8.28257 17.9332 6.71308C17.2831 5.14359 16.1822 3.80213 14.7697 2.85833C13.3572 1.91453 11.6966 1.41077 9.99777 1.41077C7.53723 1.40805 5.17051 2.35474 3.39062 4.05362" stroke="black" stroke-width="1.5" stroke-linecap="round" stroke-linejoin="round"/>
</g>
</g>
<defs>
<clipPath id="clip0_47_141426">
<rect width="20" height="20" fill="white"/>
</clipPath>
</defs>
</svg>
