<svg width="20" height="20" viewBox="0 0 20 20" fill="none" xmlns="http://www.w3.org/2000/svg">
<g id="rotate-pdf-1" clip-path="url(#clip0_47_144556)">
<g id="rotate-PDF--essential-files-folder-rotate-PDF-page">
<path id="Rectangle 605" d="M6.69587 13.3035H2.73158C2.00178 13.3035 1.41016 12.7119 1.41016 11.9821V2.73207C1.41016 2.00227 2.00178 1.41064 2.73158 1.41064H7.46995C7.82041 1.41064 8.15653 1.54987 8.40433 1.79768L10.2731 3.66647C10.5209 3.91428 10.6602 4.25039 10.6602 4.60085V9.33922" stroke="black" stroke-width="1.5" stroke-linecap="round" stroke-linejoin="round"/>
<path id="Rectangle 606" d="M17.2667 18.5894C17.9966 18.5894 18.5882 17.9978 18.5882 17.2679V12.5296C18.5882 12.1791 18.4489 11.843 18.2011 11.5952L16.3324 9.72639C16.0846 9.47858 15.7484 9.33936 15.398 9.33936H8.01674C7.28694 9.33936 6.69531 9.93097 6.69531 10.6608V17.2679C6.69531 17.9978 7.28694 18.5894 8.01674 18.5894H17.2667Z" stroke="black" stroke-width="1.5" stroke-linecap="round" stroke-linejoin="round"/>
<path id="Vector 1240" d="M13.3047 2.73193H15.2868C16.0167 2.73193 16.6083 3.32356 16.6083 4.05336V7.35693" stroke="black" stroke-width="1.5" stroke-linecap="round" stroke-linejoin="round"/>
<path id="Vector 1262" d="M18.5893 5.375L16.6071 7.35714L14.625 5.375" stroke="black" stroke-width="1.5" stroke-linecap="round" stroke-linejoin="round"/>
</g>
</g>
<defs>
<clipPath id="clip0_47_144556">
<rect width="20" height="20" fill="white"/>
</clipPath>
</defs>
</svg>
