<svg width="20" height="20" viewBox="0 0 20 20" fill="none" xmlns="http://www.w3.org/2000/svg">
<g id="round-anchor-point-1">
<g id="round-anchor-point">
<path id="Ellipse 397" d="M1.41016 4.12486C1.41016 4.59413 1.59657 5.04419 1.9284 5.37601C2.26022 5.70784 2.71028 5.89425 3.17955 5.89425C3.64882 5.89425 4.09887 5.70784 4.4307 5.37601C4.76252 5.04419 4.94894 4.59413 4.94894 4.12486C4.94894 3.65559 4.76252 3.20554 4.4307 2.87371C4.09887 2.54189 3.64882 2.35547 3.17955 2.35547C2.71028 2.35547 2.26022 2.54189 1.9284 2.87371C1.59657 3.20554 1.41016 3.65559 1.41016 4.12486Z" stroke="black" stroke-width="1.5" stroke-linecap="round" stroke-linejoin="round"/>
<path id="Ellipse 398" d="M18.5862 17.6427C18.5862 12.8997 14.7413 9.05469 9.99817 9.05469C5.25514 9.05469 1.41016 12.8997 1.41016 17.6427" stroke="black" stroke-width="1.5" stroke-linecap="round" stroke-linejoin="round"/>
<path id="Ellipse 396" d="M15.0508 4.12486C15.0508 4.59413 15.2372 5.04419 15.569 5.37601C15.9008 5.70784 16.3509 5.89425 16.8202 5.89425C17.2894 5.89425 17.7395 5.70784 18.0713 5.37601C18.4031 5.04419 18.5896 4.59413 18.5896 4.12486C18.5896 3.65559 18.4031 3.20554 18.0713 2.87371C17.7395 2.54189 17.2894 2.35547 16.8202 2.35547C16.3509 2.35547 15.9008 2.54189 15.569 2.87371C15.2372 3.20554 15.0508 3.65559 15.0508 4.12486Z" stroke="black" stroke-width="1.5" stroke-linecap="round" stroke-linejoin="round"/>
<path id="Vector 802" d="M8.22656 5.89552V2.35547H11.7666V5.89552H8.22656Z" stroke="black" stroke-width="1.5" stroke-linecap="round" stroke-linejoin="round"/>
<path id="Vector 829" d="M8.22729 4.125H4.94922" stroke="black" stroke-width="1.5" stroke-linecap="round" stroke-linejoin="round"/>
<path id="Vector 830" d="M15.0475 4.125H11.7695" stroke="black" stroke-width="1.5" stroke-linecap="round" stroke-linejoin="round"/>
</g>
</g>
</svg>
