<svg width="20" height="20" viewBox="0 0 20 20" fill="none" xmlns="http://www.w3.org/2000/svg">
<g id="round-cap-19">
<g id="round-cap">
<path id="Vector 807" d="M11.3047 10H18.588" stroke="black" stroke-width="1.5" stroke-linecap="round" stroke-linejoin="round"/>
<path id="Vector 809" d="M18.5887 3.66603L7.74479 3.66602C4.24627 3.66602 1.41016 6.50213 1.41016 10.0007C1.41016 13.4992 4.24627 16.3353 7.74479 16.3353H18.5887" stroke="black" stroke-width="1.5" stroke-linecap="round" stroke-linejoin="round"/>
<path id="Ellipse 399" d="M6.55469 9.99898C6.55469 10.6291 6.80501 11.2334 7.25058 11.679C7.69615 12.1246 8.30048 12.3749 8.93062 12.3749C9.56075 12.3749 10.1651 12.1246 10.6107 11.679C11.0562 11.2334 11.3065 10.6291 11.3065 9.99898C11.3065 9.36884 11.0562 8.76451 10.6107 8.31894C10.1651 7.87337 9.56075 7.62305 8.93062 7.62305C8.30048 7.62305 7.69615 7.87337 7.25058 8.31894C6.80501 8.76451 6.55469 9.36884 6.55469 9.99898Z" stroke="black" stroke-width="1.5" stroke-linecap="round" stroke-linejoin="round"/>
</g>
</g>
</svg>
