<svg width="21" height="21" viewBox="0 0 21 21" fill="none" xmlns="http://www.w3.org/2000/svg">
<path d="M1.44531 16.7679V12.7635C1.44531 11.9942 2.06892 11.3706 2.83817 11.3706H18.1596C18.9289 11.3706 19.5525 11.9942 19.5525 12.7635V16.7679C19.5525 17.5372 18.9289 18.1608 18.1596 18.1608H2.83817C2.06892 18.1608 1.44531 17.5372 1.44531 16.7679Z" stroke="black" stroke-width="1.5" stroke-linecap="round" stroke-linejoin="round"/>
<path d="M4.92578 18.1608V19.5536" stroke="black" stroke-width="1.5" stroke-linecap="round" stroke-linejoin="round"/>
<path d="M9.38281 14.7656H15.4602" stroke="black" stroke-width="1.5" stroke-linecap="round" stroke-linejoin="round"/>
<path d="M6.16406 7.36206V11.3706" stroke="black" stroke-width="1.5" stroke-linecap="round" stroke-linejoin="round"/>
<path d="M15.3906 3.70984V11.3706" stroke="black" stroke-width="1.5" stroke-linecap="round" stroke-linejoin="round"/>
<path d="M16.0703 18.1608V19.5536" stroke="black" stroke-width="1.5" stroke-linecap="round" stroke-linejoin="round"/>
<path d="M5.81306 15.1139C5.62075 15.1139 5.46484 14.958 5.46484 14.7657C5.46484 14.5734 5.62075 14.4175 5.81306 14.4175" stroke="black" stroke-width="1.5" stroke-linecap="round" stroke-linejoin="round"/>
<path d="M5.8125 15.1139C6.00481 15.1139 6.16071 14.958 6.16071 14.7657C6.16071 14.5734 6.00481 14.4175 5.8125 14.4175" stroke="black" stroke-width="1.5" stroke-linecap="round" stroke-linejoin="round"/>
</svg>
