<svg width="21" height="21" viewBox="0 0 21 21" fill="none" xmlns="http://www.w3.org/2000/svg">
<g clip-path="url(#clip0_146_400404)">
<path d="M3.7182 19.3863C4.87207 19.3863 5.80747 18.4509 5.80747 17.297C5.80747 16.1432 4.87207 15.2078 3.7182 15.2078C2.56431 15.2078 1.62891 16.1432 1.62891 17.297C1.62891 18.4509 2.56431 19.3863 3.7182 19.3863Z" stroke="black" stroke-width="1.5" stroke-linecap="round" stroke-linejoin="round"/>
<path d="M19.389 17.6314C19.389 15.5279 18.9746 13.445 18.1696 11.5016C17.3647 9.55824 16.1848 7.79244 14.6974 6.30505C13.21 4.81765 11.4442 3.63779 9.50086 2.83281C7.55749 2.02784 5.4746 1.61353 3.37109 1.61353" stroke="black" stroke-width="1.5" stroke-linecap="round" stroke-linejoin="round"/>
<path d="M3.70312 8.24353C4.89205 8.24353 6.06934 8.47771 7.16777 8.9327C8.26619 9.38768 9.26426 10.0546 10.105 10.8953C10.9457 11.736 11.6125 12.734 12.0675 13.8325C12.5225 14.9309 12.7567 16.1082 12.7567 17.2971" stroke="black" stroke-width="1.5" stroke-linecap="round" stroke-linejoin="round"/>
</g>
<defs>
<clipPath id="clip0_146_400404">
<rect width="21" height="21" fill="white"/>
</clipPath>
</defs>
</svg>
