<svg width="21" height="21" viewBox="0 0 21 21" fill="none" xmlns="http://www.w3.org/2000/svg">
<g clip-path="url(#clip0_146_400398)">
<path d="M18.1596 1.44641H2.83817C2.06892 1.44641 1.44531 2.07001 1.44531 2.83927V18.1607C1.44531 18.93 2.06892 19.5536 2.83817 19.5536H18.1596C18.9289 19.5536 19.5525 18.93 19.5525 18.1607V2.83927C19.5525 2.07001 18.9289 1.44641 18.1596 1.44641Z" stroke="black" stroke-width="1.5" stroke-linecap="round" stroke-linejoin="round"/>
<path d="M6.32143 15.375C6.70605 15.375 7.01786 15.0632 7.01786 14.6786C7.01786 14.294 6.70605 13.9822 6.32143 13.9822C5.93681 13.9822 5.625 14.294 5.625 14.6786C5.625 15.0632 5.93681 15.375 6.32143 15.375Z" stroke="black" stroke-width="1.5" stroke-linecap="round" stroke-linejoin="round"/>
<path d="M7.01562 9.80359C8.12385 9.80359 9.18669 10.2438 9.97032 11.0275C10.754 11.8111 11.1942 12.8739 11.1942 13.9822" stroke="black" stroke-width="1.5" stroke-linecap="round" stroke-linejoin="round"/>
<path d="M7.01562 5.625C9.23208 5.625 11.3577 6.50548 12.925 8.07275C14.4923 9.64002 15.3728 11.7657 15.3728 13.9821" stroke="black" stroke-width="1.5" stroke-linecap="round" stroke-linejoin="round"/>
</g>
<defs>
<clipPath id="clip0_146_400398">
<rect width="21" height="21" fill="white"/>
</clipPath>
</defs>
</svg>
