<svg width="21" height="21" viewBox="0 0 21 21" fill="none" xmlns="http://www.w3.org/2000/svg">
<g clip-path="url(#clip0_146_399549)">
<path d="M12.8701 7.90668C12.7886 7.676 12.6628 7.46624 12.5029 7.28762C12.1629 6.90768 11.6687 6.66858 11.1187 6.66858H9.68119C8.76563 6.66858 8.02344 7.41078 8.02344 8.32632C8.02344 9.10535 8.56589 9.77929 9.32693 9.94578L11.5155 10.4245C12.3681 10.611 12.9758 11.3666 12.9758 12.2393C12.9758 13.265 12.1443 14.0971 11.1187 14.0971H9.88058C9.07197 14.0971 8.38406 13.5804 8.12911 12.859" stroke="black" stroke-width="1.5" stroke-linecap="round" stroke-linejoin="round"/>
<path d="M10.5 6.66843V4.81128" stroke="black" stroke-width="1.5" stroke-linecap="round" stroke-linejoin="round"/>
<path d="M10.5 15.9542V14.097" stroke="black" stroke-width="1.5" stroke-linecap="round" stroke-linejoin="round"/>
<path d="M7.80859 1.66406H2.3711C2.19083 1.66406 2.01795 1.73567 1.89048 1.86314C1.76302 1.9906 1.69141 2.16349 1.69141 2.34375V7.78125" stroke="black" stroke-width="1.5" stroke-linecap="round" stroke-linejoin="round"/>
<path d="M19.3633 7.78125V2.34375C19.3633 2.16349 19.2916 1.9906 19.1642 1.86314C19.0367 1.73567 18.8639 1.66406 18.6836 1.66406H13.2461" stroke="black" stroke-width="1.5" stroke-linecap="round" stroke-linejoin="round"/>
<path d="M13.2461 19.3359H18.6836C18.8639 19.3359 19.0367 19.2643 19.1642 19.1369C19.2916 19.0094 19.3633 18.8366 19.3633 18.6563V13.2188" stroke="black" stroke-width="1.5" stroke-linecap="round" stroke-linejoin="round"/>
<path d="M1.69141 13.2188V18.6563C1.69141 18.8366 1.76302 19.0094 1.89048 19.1369C2.01795 19.2643 2.19083 19.3359 2.3711 19.3359H7.80859" stroke="black" stroke-width="1.5" stroke-linecap="round" stroke-linejoin="round"/>
</g>
<defs>
<clipPath id="clip0_146_399549">
<rect width="21" height="21" fill="white"/>
</clipPath>
</defs>
</svg>
