<svg width="20" height="20" viewBox="0 0 20 20" fill="none" xmlns="http://www.w3.org/2000/svg">
<g id="scan-document-focus-32" clip-path="url(#clip0_47_144562)">
<g id="scan-document-focus">
<path id="vector" d="M15.2056 15.2064C15.2056 15.4574 15.1058 15.6982 14.9284 15.8757C14.7508 16.0533 14.51 16.1529 14.2589 16.1529H5.73956C5.48852 16.1529 5.24774 16.0533 5.07022 15.8757C4.8927 15.6982 4.79297 15.4574 4.79297 15.2064V4.79377C4.79297 4.54272 4.8927 4.30194 5.07022 4.12442C5.24774 3.9469 5.48852 3.84717 5.73956 3.84717H11.8925L15.2056 7.16027V15.2064Z" stroke="black" stroke-width="1.5" stroke-linecap="round" stroke-linejoin="round"/>
<path id="vector_2" d="M7.63281 7.6333H9.52601" stroke="black" stroke-width="1.5" stroke-linecap="round" stroke-linejoin="round"/>
<path id="vector_3" d="M7.63281 10.4731H12.3658" stroke="black" stroke-width="1.5" stroke-linecap="round" stroke-linejoin="round"/>
<path id="vector_4" d="M4.05301 1.41064H2.73158C2.38112 1.41064 2.04501 1.54987 1.79719 1.79768C1.54938 2.0455 1.41016 2.3816 1.41016 2.73207V4.0535" stroke="black" stroke-width="1.5" stroke-linecap="round" stroke-linejoin="round"/>
<path id="vector_5" d="M18.5882 4.0535V2.73207C18.5882 2.3816 18.4489 2.0455 18.2011 1.79768C17.9534 1.54987 17.6172 1.41064 17.2667 1.41064H15.9453" stroke="black" stroke-width="1.5" stroke-linecap="round" stroke-linejoin="round"/>
<path id="vector_6" d="M15.9453 18.5891H17.2667C17.6172 18.5891 17.9534 18.4499 18.2011 18.2021C18.4489 17.9543 18.5882 17.6182 18.5882 17.2677V15.9463" stroke="black" stroke-width="1.5" stroke-linecap="round" stroke-linejoin="round"/>
<path id="vector_7" d="M1.41016 15.9463V17.2677C1.41016 17.6182 1.54938 17.9543 1.79719 18.2021C2.04501 18.4499 2.38112 18.5891 2.73158 18.5891H4.05301" stroke="black" stroke-width="1.5" stroke-linecap="round" stroke-linejoin="round"/>
</g>
</g>
<defs>
<clipPath id="clip0_47_144562">
<rect width="20" height="20" fill="white"/>
</clipPath>
</defs>
</svg>
