<svg width="21" height="21" viewBox="0 0 21 21" fill="none" xmlns="http://www.w3.org/2000/svg">
<path d="M7.86719 1.66406H2.42969C2.24942 1.66406 2.07654 1.73567 1.94908 1.86314C1.82161 1.9906 1.75 2.16349 1.75 2.34375V7.78125" stroke="black" stroke-width="1.5" stroke-linecap="round" stroke-linejoin="round"/>
<path d="M19.4218 7.78125V2.34375C19.4218 2.16349 19.3502 1.9906 19.2228 1.86314C19.0953 1.73567 18.9225 1.66406 18.7422 1.66406H13.3047" stroke="black" stroke-width="1.5" stroke-linecap="round" stroke-linejoin="round"/>
<path d="M13.3047 19.3359H18.7422C18.9225 19.3359 19.0953 19.2643 19.2228 19.1369C19.3502 19.0094 19.4218 18.8366 19.4218 18.6563V13.2188" stroke="black" stroke-width="1.5" stroke-linecap="round" stroke-linejoin="round"/>
<path d="M1.75 13.2188V18.6563C1.75 18.8366 1.82161 19.0094 1.94908 19.1369C2.07654 19.2643 2.24942 19.3359 2.42969 19.3359H7.86719" stroke="black" stroke-width="1.5" stroke-linecap="round" stroke-linejoin="round"/>
<path d="M15.8008 6.03125V14.9688" stroke="black" stroke-width="1.5" stroke-linecap="round" stroke-linejoin="round"/>
<path d="M5.19922 6.03125V14.9688" stroke="black" stroke-width="1.5" stroke-linecap="round" stroke-linejoin="round"/>
<path d="M13.1484 6.03125V12.5312" stroke="black" stroke-width="1.5" stroke-linecap="round" stroke-linejoin="round"/>
<path d="M13.1484 14.9687V14.5625" stroke="black" stroke-width="1.5" stroke-linecap="round" stroke-linejoin="round"/>
<path d="M10.5 6.03125V12.5312" stroke="black" stroke-width="1.5" stroke-linecap="round" stroke-linejoin="round"/>
<path d="M10.5 14.9687V14.5625" stroke="black" stroke-width="1.5" stroke-linecap="round" stroke-linejoin="round"/>
<path d="M7.84766 6.03125V12.5312" stroke="black" stroke-width="1.5" stroke-linecap="round" stroke-linejoin="round"/>
<path d="M7.84766 14.9687V14.5625" stroke="black" stroke-width="1.5" stroke-linecap="round" stroke-linejoin="round"/>
</svg>
