<svg width="20" height="20" viewBox="0 0 20 20" fill="none" xmlns="http://www.w3.org/2000/svg">
<g id="screenshot-15" clip-path="url(#clip0_47_145527)">
<g id="screenshot">
<path id="Ellipse 50" d="M8.34766 10.3305C8.34766 10.5474 8.39038 10.7622 8.47339 10.9626C8.5564 11.163 8.67807 11.3451 8.83145 11.4985C8.98484 11.6519 9.16693 11.7735 9.36733 11.8565C9.56774 11.9396 9.78253 11.9823 9.99944 11.9823C10.2164 11.9823 10.4311 11.9396 10.6316 11.8565C10.832 11.7735 11.014 11.6519 11.1674 11.4985C11.3208 11.3451 11.4425 11.163 11.5255 10.9626C11.6085 10.7622 11.6512 10.5474 11.6512 10.3305C11.6512 9.89242 11.4772 9.47228 11.1674 9.16251C10.8577 8.85274 10.4375 8.67871 9.99944 8.67871C9.56136 8.67871 9.14122 8.85274 8.83145 9.16251C8.52168 9.47228 8.34766 9.89242 8.34766 10.3305Z" stroke="black" stroke-width="1.5" stroke-linecap="round" stroke-linejoin="round"/>
<path id="Vector 233" d="M1.41016 5.37493V2.6377C1.41016 1.96001 1.95952 1.41064 2.6372 1.41064H5.37448" stroke="black" stroke-width="1.5" stroke-linecap="round" stroke-linejoin="round"/>
<path id="Vector 234" d="M14.625 1.41064H17.3623C18.04 1.41064 18.5893 1.96001 18.5893 2.6377V5.37493" stroke="black" stroke-width="1.5" stroke-linecap="round" stroke-linejoin="round"/>
<path id="Vector 235" d="M1.41016 14.625V17.3621C1.41016 18.0397 1.95952 18.5892 2.6372 18.5892L5.37448 18.5893" stroke="black" stroke-width="1.5" stroke-linecap="round" stroke-linejoin="round"/>
<path id="Vector 236" d="M18.5893 14.625V17.3621C18.5893 18.0397 18.04 18.5892 17.3623 18.5892L14.625 18.5893" stroke="black" stroke-width="1.5" stroke-linecap="round" stroke-linejoin="round"/>
<path id="Vector" d="M15.467 7.89773C15.467 7.67471 15.3783 7.46082 15.2207 7.30311C15.0629 7.14541 14.8491 7.05682 14.626 7.05682H12.9442L11.6829 5.375H8.31924L7.05788 7.05682H5.37606C5.15304 7.05682 4.93916 7.14541 4.78144 7.30311C4.62375 7.46082 4.53516 7.67471 4.53516 7.89773V13.7841C4.53516 14.0071 4.62375 14.221 4.78144 14.3787C4.93916 14.5365 5.15304 14.625 5.37606 14.625H14.626C14.8491 14.625 15.0629 14.5365 15.2207 14.3787C15.3783 14.221 15.467 14.0071 15.467 13.7841V7.89773Z" stroke="black" stroke-width="1.5" stroke-linecap="round" stroke-linejoin="round"/>
</g>
</g>
<defs>
<clipPath id="clip0_47_145527">
<rect width="20" height="20" fill="white"/>
</clipPath>
</defs>
</svg>
