<svg width="21" height="21" viewBox="0 0 21 21" fill="none" xmlns="http://www.w3.org/2000/svg">
<path d="M1.44531 11.8929C2.92295 11.8929 4.34006 12.4799 5.38491 13.5248C6.42975 14.5696 7.01674 15.9867 7.01674 17.4644" stroke="black" stroke-width="1.5" stroke-linecap="round" stroke-linejoin="round"/>
<path d="M1.44531 15.375C1.99943 15.375 2.53085 15.5951 2.92266 15.9869C3.31447 16.3787 3.5346 16.9102 3.5346 17.4643" stroke="black" stroke-width="1.5" stroke-linecap="round" stroke-linejoin="round"/>
<path d="M10.4989 17.4643H18.1596C18.529 17.4643 18.8833 17.3175 19.1445 17.0564C19.4056 16.7952 19.5525 16.4409 19.5525 16.0715V4.92862C19.5525 4.55921 19.4056 4.20494 19.1445 3.94372C18.8833 3.68252 18.529 3.53577 18.1596 3.53577H2.83817C2.46876 3.53577 2.11448 3.68252 1.85327 3.94372C1.59206 4.20494 1.44531 4.55921 1.44531 4.92862V8.41077" stroke="black" stroke-width="1.5" stroke-linecap="round" stroke-linejoin="round"/>
</svg>
