<svg width="21" height="21" viewBox="0 0 21 21" fill="none" xmlns="http://www.w3.org/2000/svg">
<g clip-path="url(#clip0_146_400422)">
<path d="M14.6775 5.62498V16.7678C14.6775 17.5066 14.384 18.2152 13.8615 18.7376C13.3391 19.2601 12.6306 19.5536 11.8917 19.5536H1.44531C2.18413 19.5536 2.89269 19.2601 3.41511 18.7376C3.93754 18.2152 4.23103 17.5066 4.23103 16.7678V4.23213C4.23103 3.49331 4.52452 2.78475 5.04695 2.26233C5.56937 1.73991 6.27793 1.44641 7.01674 1.44641H17.115" stroke="black" stroke-width="1.5" stroke-linecap="round" stroke-linejoin="round"/>
<path d="M17.1133 1.44641C17.7597 1.44641 18.3797 1.70322 18.8368 2.16033C19.2939 2.61746 19.5508 3.23744 19.5508 3.88391V4.92855C19.5508 5.11326 19.4774 5.2904 19.3469 5.421C19.2162 5.55161 19.039 5.62498 18.8544 5.62498H14.6758V3.88391C14.6758 3.23744 14.9326 2.61746 15.3898 2.16033C15.8469 1.70322 16.4669 1.44641 17.1133 1.44641Z" stroke="black" stroke-width="1.5" stroke-linecap="round" stroke-linejoin="round"/>
<path d="M9.10547 6.32141H11.1948" stroke="black" stroke-width="1.5" stroke-linecap="round" stroke-linejoin="round"/>
<path d="M7.71484 10.5H11.197" stroke="black" stroke-width="1.5" stroke-linecap="round" stroke-linejoin="round"/>
<path d="M7.71484 14.6786H11.197" stroke="black" stroke-width="1.5" stroke-linecap="round" stroke-linejoin="round"/>
</g>
<defs>
<clipPath id="clip0_146_400422">
<rect width="21" height="21" fill="white"/>
</clipPath>
</defs>
</svg>
