<svg width="21" height="21" viewBox="0 0 21 21" fill="none" xmlns="http://www.w3.org/2000/svg">
<g clip-path="url(#clip0_146_401318)">
<path d="M15.0268 19.5536C12.5267 19.5536 10.5 17.5268 10.5 15.0268C10.5 12.5267 12.5267 10.5 15.0268 10.5C17.5268 10.5 19.5536 12.5267 19.5536 15.0268C19.5536 17.5268 17.5268 19.5536 15.0268 19.5536Z" stroke="black" stroke-width="1.5" stroke-linecap="round" stroke-linejoin="round"/>
<path d="M18.2313 18.2306L11.8242 11.8235" stroke="black" stroke-width="1.5" stroke-linecap="round" stroke-linejoin="round"/>
<path d="M7.35938 4.79663V6.88022" stroke="black" stroke-width="1.5" stroke-linecap="round" stroke-linejoin="round"/>
<path d="M10.4336 4.79663V6.88022" stroke="black" stroke-width="1.5" stroke-linecap="round" stroke-linejoin="round"/>
<path d="M14.0033 7.71427V3.83417C14.0033 2.51544 12.9343 1.44641 11.6156 1.44641H6.40541C6.03816 1.44641 5.68577 1.59145 5.42493 1.84998L2.08815 5.15705C1.82424 5.4186 1.67578 5.77477 1.67578 6.14634V14.3801C1.67578 15.6988 2.74482 16.7678 4.06353 16.7678H7.71506" stroke="black" stroke-width="1.5" stroke-linecap="round" stroke-linejoin="round"/>
</g>
<defs>
<clipPath id="clip0_146_401318">
<rect width="21" height="21" fill="white"/>
</clipPath>
</defs>
</svg>
