<svg width="21" height="21" viewBox="0 0 21 21" fill="none" xmlns="http://www.w3.org/2000/svg">
<path d="M10.6719 6.91748H13.1744V9.42004" stroke="black" stroke-width="1.5" stroke-linecap="round" stroke-linejoin="round"/>
<path d="M13.1723 6.91748L9.6375 10.4523C9.57902 10.5097 9.50041 10.5418 9.41853 10.5418C9.33664 10.5418 9.25803 10.5097 9.19955 10.4523L7.76058 9.01337C7.70211 8.95605 7.6235 8.92395 7.54161 8.92395C7.45974 8.92395 7.38111 8.95605 7.32264 9.01337L5.03906 11.2969" stroke="black" stroke-width="1.5" stroke-linecap="round" stroke-linejoin="round"/>
<path d="M1.44531 9.10712C1.44531 11.1389 2.25242 13.0874 3.68908 14.5241C5.12575 15.9607 7.07428 16.7678 9.10603 16.7678C11.1378 16.7678 13.0863 15.9607 14.523 14.5241C15.9596 13.0874 16.7667 11.1389 16.7667 9.10712C16.7667 7.07538 15.9596 5.12685 14.523 3.69018C13.0863 2.25352 11.1378 1.44641 9.10603 1.44641C7.07428 1.44641 5.12575 2.25352 3.68908 3.69018C2.25242 5.12685 1.44531 7.07538 1.44531 9.10712Z" stroke="black" stroke-width="1.5"/>
<path d="M14.6719 14.6719L18.8574 18.8574" stroke="black" stroke-width="1.5" stroke-linecap="round" stroke-linejoin="round"/>
</svg>
