<svg width="20" height="20" viewBox="0 0 20 20" fill="none" xmlns="http://www.w3.org/2000/svg">
<g id="search-category-16" clip-path="url(#clip0_47_146972)">
<g id="search-category">
<path id="Vector 2561" d="M7.35659 1.41113H2.73158C2.00178 1.41113 1.41016 2.00276 1.41016 2.73256V7.35756C1.41016 8.08736 2.00178 8.67899 2.73158 8.67899H7.35659C8.08638 8.67899 8.67801 8.08736 8.67801 7.35756V2.73256C8.67801 2.00276 8.08638 1.41113 7.35659 1.41113Z" stroke="black" stroke-width="1.5" stroke-linecap="round" stroke-linejoin="round"/>
<path id="Vector 2563" d="M6.69587 11.3223H2.73158C2.00178 11.3223 1.41016 11.9139 1.41016 12.6437V17.2687C1.41016 17.9985 2.00178 18.5901 2.73158 18.5901H7.35659C7.8457 18.5901 8.27274 18.3244 8.50123 17.9294" stroke="black" stroke-width="1.5" stroke-linecap="round" stroke-linejoin="round"/>
<path id="Vector 2562" d="M11.3203 6.69685V2.73256C11.3203 2.00276 11.9119 1.41113 12.6417 1.41113H17.2667C17.9966 1.41113 18.5882 2.00276 18.5882 2.73256V7.35756C18.5882 7.84668 18.3224 8.27372 17.9275 8.50221" stroke="black" stroke-width="1.5" stroke-linecap="round" stroke-linejoin="round"/>
<path id="vector" d="M13.3041 17.2684C15.4936 17.2684 17.2684 15.4936 17.2684 13.3041C17.2684 11.1147 15.4936 9.33984 13.3041 9.33984C11.1147 9.33984 9.33984 11.1147 9.33984 13.3041C9.33984 15.4936 11.1147 17.2684 13.3041 17.2684Z" stroke="black" stroke-width="1.5" stroke-linecap="round" stroke-linejoin="round"/>
<path id="vector_2" d="M18.5898 18.5898L16.2773 16.2773" stroke="black" stroke-width="1.5" stroke-linecap="round" stroke-linejoin="round"/>
</g>
</g>
<defs>
<clipPath id="clip0_47_146972">
<rect width="20" height="20" fill="white"/>
</clipPath>
</defs>
</svg>
