<svg width="20" height="20" viewBox="0 0 20 20" fill="none" xmlns="http://www.w3.org/2000/svg">
<g id="search-bar-7">
<g id="search-bar--search-bar-input-magnifier-text">
<path id="Vector" d="M11.9827 11.982C13.4423 11.982 14.6256 10.7988 14.6256 9.33915C14.6256 7.87954 13.4423 6.69629 11.9827 6.69629C10.5231 6.69629 9.33984 7.87954 9.33984 9.33915C9.33984 10.7988 10.5231 11.982 11.9827 11.982Z" stroke="black" stroke-width="1.5" stroke-linecap="round" stroke-linejoin="round"/>
<path id="Vector_2" d="M15.9475 13.3039L13.9219 11.2783" stroke="black" stroke-width="1.5" stroke-linecap="round" stroke-linejoin="round"/>
<path id="Vector_3" d="M17.2673 4.05371H2.73158C2.00178 4.05371 1.41016 4.64534 1.41016 5.37514V14.6251C1.41016 15.355 2.00178 15.9466 2.73158 15.9466H17.2673C17.9971 15.9466 18.5887 15.355 18.5887 14.6251V5.37514C18.5887 4.64534 17.9971 4.05371 17.2673 4.05371Z" stroke="black" stroke-width="1.5" stroke-linecap="round" stroke-linejoin="round"/>
</g>
</g>
</svg>
