<svg width="20" height="20" viewBox="0 0 20 20" fill="none" xmlns="http://www.w3.org/2000/svg">
<g id="search-visual-1" clip-path="url(#clip0_47_146993)">
<g id="search-visual">
<path id="Vector" d="M18.5893 14.625V17.2679C18.5893 17.6183 18.45 17.9545 18.2022 18.2022C17.9545 18.45 17.6183 18.5893 17.2679 18.5893H14.625" stroke="black" stroke-width="1.5" stroke-linecap="round" stroke-linejoin="round"/>
<path id="Vector_2" d="M14.625 1.41113H17.2679C17.6183 1.41113 17.9545 1.55035 18.2022 1.79817C18.45 2.04599 18.5893 2.38209 18.5893 2.73256V5.37542" stroke="black" stroke-width="1.5" stroke-linecap="round" stroke-linejoin="round"/>
<path id="Vector_3" d="M1.41016 5.37542V2.73256C1.41016 2.38209 1.54938 2.04599 1.79719 1.79817C2.04501 1.55035 2.38112 1.41113 2.73158 1.41113H5.37444" stroke="black" stroke-width="1.5" stroke-linecap="round" stroke-linejoin="round"/>
<path id="Vector_4" d="M5.37444 18.5893H2.73158C2.38112 18.5893 2.04501 18.45 1.79719 18.2022C1.54938 17.9545 1.41016 17.6183 1.41016 17.2679V14.625" stroke="black" stroke-width="1.5" stroke-linecap="round" stroke-linejoin="round"/>
<path id="Ellipse 1174" d="M5.04297 9.00921C5.04297 9.5298 5.14551 10.0453 5.34473 10.5263C5.54396 11.0072 5.83596 11.4443 6.20408 11.8124C6.5722 12.1805 7.00922 12.4725 7.49019 12.6717C7.97116 12.871 8.48666 12.9735 9.00725 12.9735C9.52785 12.9735 10.0434 12.871 10.5243 12.6717C11.0053 12.4725 11.4423 12.1805 11.8104 11.8124C12.1785 11.4443 12.4706 11.0072 12.6698 10.5263C12.869 10.0453 12.9715 9.5298 12.9715 9.00921C12.9715 8.48861 12.869 7.97311 12.6698 7.49214C12.4706 7.01117 12.1785 6.57415 11.8104 6.20603C11.4423 5.83792 11.0053 5.54591 10.5243 5.34668C10.0434 5.14746 9.52785 5.04492 9.00725 5.04492C8.48666 5.04492 7.97116 5.14746 7.49019 5.34668C7.00922 5.54591 6.5722 5.83792 6.20408 6.20603C5.83596 6.57415 5.54396 7.01117 5.34473 7.49214C5.14551 7.97311 5.04297 8.48861 5.04297 9.00921Z" stroke="black" stroke-width="1.5"/>
<path id="Vector 2507" d="M11.9805 11.9824L14.6233 14.6253" stroke="black" stroke-width="1.5" stroke-linecap="round" stroke-linejoin="round"/>
</g>
</g>
<defs>
<clipPath id="clip0_47_146993">
<rect width="20" height="20" fill="white"/>
</clipPath>
</defs>
</svg>
