<svg width="22" height="21" viewBox="0 0 22 21" fill="none" xmlns="http://www.w3.org/2000/svg">
<path fill-rule="evenodd" clip-rule="evenodd" d="M14.8088 11.9819C15.9912 11.9819 16.9496 11.0234 16.9496 9.84103C16.9496 8.65868 15.9912 7.7002 14.8088 7.7002C13.6265 7.7002 12.668 8.65868 12.668 9.84103C12.668 11.0234 13.6265 11.9819 14.8088 11.9819Z" stroke="black" stroke-linecap="round" stroke-linejoin="round"/>
<path d="M16.3203 11.3544L17.6661 12.7002" stroke="black" stroke-linecap="round" stroke-linejoin="round"/>
<path fill-rule="evenodd" clip-rule="evenodd" d="M1.41797 10.2002C1.41797 7.89905 3.28345 6.03357 5.58463 6.03357H16.418C18.7192 6.03357 20.5846 7.89905 20.5846 10.2002V10.2002C20.5846 12.5014 18.7192 14.3669 16.418 14.3669H5.58463C3.28345 14.3669 1.41797 12.5014 1.41797 10.2002V10.2002Z" stroke="black" stroke-linecap="round" stroke-linejoin="round"/>
</svg>
