<svg width="20" height="20" viewBox="0 0 20 20" fill="none" xmlns="http://www.w3.org/2000/svg">
<g id="search-history-41">
<g id="search-history">
<path id="rectangle 629" d="M13.7991 7.27455V3.22768C13.7991 2.49788 13.2075 1.90625 12.4777 1.90625H3.22768C2.49788 1.90625 1.90625 2.49788 1.90625 3.22768V13.7991C1.90625 14.5289 2.49788 15.1205 3.22768 15.1205H7.52232" stroke="black" stroke-width="1.5" stroke-linecap="round" stroke-linejoin="round"/>
<path id="rectangle 631" d="M10.6607 5.375H5.375" stroke="black" stroke-width="1.5" stroke-linecap="round" stroke-linejoin="round"/>
<path id="rectangle 632" d="M8.01786 8.01782H5.375" stroke="black" stroke-width="1.5" stroke-linecap="round" stroke-linejoin="round"/>
<path id="vector" d="M14.4604 18.4654C16.6499 18.4654 18.4247 16.6906 18.4247 14.5011C18.4247 12.3117 16.6499 10.5369 14.4604 10.5369C12.271 10.5369 10.4961 12.3117 10.4961 14.5011C10.4961 16.6906 12.271 18.4654 14.4604 18.4654Z" stroke="black" stroke-width="1.5" stroke-linecap="round" stroke-linejoin="round"/>
<path id="vector_2" d="M15.452 13.51L14.4609 14.501" stroke="black" stroke-width="1.5" stroke-linecap="round" stroke-linejoin="round"/>
</g>
</g>
</svg>
