<svg width="22" height="21" viewBox="0 0 22 21" fill="none" xmlns="http://www.w3.org/2000/svg">
<path fill-rule="evenodd" clip-rule="evenodd" d="M15.1042 12.5752C16.6805 12.5752 17.9583 11.2973 17.9583 9.72099C17.9583 8.14468 16.6805 6.86682 15.1042 6.86682C13.5279 6.86682 12.25 8.14468 12.25 9.72099C12.25 11.2973 13.5279 12.5752 15.1042 12.5752Z" stroke="black" stroke-linecap="round" stroke-linejoin="round"/>
<path d="M17.1211 11.7385L18.9161 13.5335" stroke="black" stroke-linecap="round" stroke-linejoin="round"/>
<path fill-rule="evenodd" clip-rule="evenodd" d="M1.41797 6.2002C1.41797 5.64791 1.86568 5.2002 2.41797 5.2002H19.5846C20.1369 5.2002 20.5846 5.64791 20.5846 6.2002V14.2002C20.5846 14.7525 20.1369 15.2002 19.5846 15.2002H2.41797C1.86568 15.2002 1.41797 14.7525 1.41797 14.2002V6.2002Z" stroke="black" stroke-linecap="round" stroke-linejoin="round"/>
</svg>
