<svg width="21" height="21" viewBox="0 0 21 21" fill="none" xmlns="http://www.w3.org/2000/svg">
<g clip-path="url(#clip0_146_398445)">
<path d="M12.8701 7.03168C12.7886 6.801 12.6628 6.59125 12.5029 6.41263C12.1629 6.03269 11.6687 5.79358 11.1187 5.79358H9.68119C8.76564 5.79358 8.02344 6.53578 8.02344 7.45133C8.02344 8.23037 8.56589 8.9043 9.32693 9.07078L11.5155 9.54954C12.3681 9.73605 12.9758 10.4916 12.9758 11.3643C12.9758 12.39 12.1443 13.2222 11.1187 13.2222H9.88058C9.07197 13.2222 8.38406 12.7054 8.12911 11.9841" stroke="black" stroke-width="1.5" stroke-linecap="round" stroke-linejoin="round"/>
<path d="M10.5 5.79342V3.93628" stroke="black" stroke-width="1.5" stroke-linecap="round" stroke-linejoin="round"/>
<path d="M10.5 15.0789V13.2218" stroke="black" stroke-width="1.5" stroke-linecap="round" stroke-linejoin="round"/>
<path d="M11.0003 19.4092C10.6776 19.5338 10.3202 19.5338 9.99746 19.4092C7.48176 18.4393 5.3185 16.7306 3.79208 14.5082C2.26565 12.2857 1.44755 9.65327 1.44531 6.95707V2.88993C1.44531 2.52052 1.59206 2.16624 1.85327 1.90503C2.11448 1.64382 2.46876 1.49707 2.83817 1.49707H18.1596C18.529 1.49707 18.8833 1.64382 19.1445 1.90503C19.4056 2.16624 19.5525 2.52052 19.5525 2.88993V6.95707C19.5502 9.65327 18.7321 12.2857 17.2056 14.5082C15.6793 16.7306 13.516 18.4393 11.0003 19.4092Z" stroke="black" stroke-width="1.5" stroke-linecap="round" stroke-linejoin="round"/>
</g>
<defs>
<clipPath id="clip0_146_398445">
<rect width="21" height="21" fill="white"/>
</clipPath>
</defs>
</svg>
