<svg width="20" height="20" viewBox="0 0 20 20" fill="none" xmlns="http://www.w3.org/2000/svg">
<g id="select-app-object-mark-4" clip-path="url(#clip0_47_147132)">
<g id="select-app-object-mark">
<path id="vector" d="M15.6562 6.84083V3.06695C15.6562 2.20976 14.9397 1.49316 14.0825 1.49316H3.06597C2.20878 1.49316 1.49219 2.20976 1.49219 3.06695V14.0835C1.49219 14.9407 2.20878 15.6572 3.06597 15.6572H7.17021" stroke="black" stroke-width="1.5" stroke-linecap="round" stroke-linejoin="round"/>
<path id="vector_2" d="M14.2126 18.5063C11.8407 18.5063 9.91797 16.5835 9.91797 14.2116C9.91797 11.8398 11.8407 9.91699 14.2126 9.91699C16.5844 9.91699 18.5073 11.8398 18.5073 14.2116C18.5073 16.5835 16.5844 18.5063 14.2126 18.5063Z" stroke="black" stroke-width="1.5" stroke-linecap="round" stroke-linejoin="round"/>
<path id="vector_3" d="M12.5586 14.6969L13.8387 15.6569L16.079 13.0967" stroke="black" stroke-width="1.5" stroke-linecap="round" stroke-linejoin="round"/>
</g>
</g>
<defs>
<clipPath id="clip0_47_147132">
<rect width="20" height="20" fill="white"/>
</clipPath>
</defs>
</svg>
