<svg width="20" height="20" viewBox="0 0 20 20" fill="none" xmlns="http://www.w3.org/2000/svg">
<g id="select-front-1" clip-path="url(#clip0_47_144101)">
<g id="select-front--design-front-layer-layers-select-send-to-top">
<path id="Vector" d="M17.2679 1.41064H6.69643C5.96663 1.41064 5.375 2.00227 5.375 2.73207V13.3035C5.375 14.0333 5.96663 14.6249 6.69643 14.6249H17.2679C17.9977 14.6249 18.5893 14.0333 18.5893 13.3035V2.73207C18.5893 2.00227 17.9977 1.41064 17.2679 1.41064Z" stroke="black" stroke-width="1.5" stroke-linecap="round" stroke-linejoin="round"/>
<path id="Vector_2" d="M1.41016 17.2678C1.41016 17.6183 1.54938 17.9544 1.79719 18.2022C2.04501 18.45 2.38112 18.5893 2.73158 18.5893" stroke="black" stroke-width="1.5" stroke-linecap="round" stroke-linejoin="round"/>
<path id="Vector_3" d="M6.69531 18.5891H8.67745" stroke="black" stroke-width="1.5" stroke-linecap="round" stroke-linejoin="round"/>
<path id="Vector_4" d="M12.6406 18.5891H14.6228" stroke="black" stroke-width="1.5" stroke-linecap="round" stroke-linejoin="round"/>
<path id="Vector_5" d="M1.41016 11.3213V13.3034" stroke="black" stroke-width="1.5" stroke-linecap="round" stroke-linejoin="round"/>
<path id="Vector_6" d="M1.41016 5.375V7.35714" stroke="black" stroke-width="1.5" stroke-linecap="round" stroke-linejoin="round"/>
</g>
</g>
<defs>
<clipPath id="clip0_47_144101">
<rect width="20" height="20" fill="white"/>
</clipPath>
</defs>
</svg>
