<svg width="20" height="20" viewBox="0 0 20 20" fill="none" xmlns="http://www.w3.org/2000/svg">
<g id="select-circle-area-2-6" clip-path="url(#clip0_47_144039)">
<g id="select-circle-area-2--select-area-object-work">
<g id="Group 16">
<path id="Vector" d="M10.0022 2.07136C9.81978 2.07136 9.67188 1.92345 9.67188 1.741C9.67188 1.55855 9.81978 1.41064 10.0022 1.41064" stroke="black" stroke-width="1.5" stroke-linecap="round" stroke-linejoin="round"/>
<path id="Vector_2" d="M10.0039 2.07136C10.1864 2.07136 10.3343 1.92345 10.3343 1.741C10.3343 1.55855 10.1864 1.41064 10.0039 1.41064" stroke="black" stroke-width="1.5" stroke-linecap="round" stroke-linejoin="round"/>
</g>
<g id="Group 33">
<path id="Vector_3" d="M7.17411 2.57331C6.99164 2.57331 6.84375 2.4254 6.84375 2.24295C6.84375 2.0605 6.99164 1.9126 7.17411 1.9126" stroke="black" stroke-width="1.5" stroke-linecap="round" stroke-linejoin="round"/>
<path id="Vector_4" d="M7.17578 2.57331C7.35823 2.57331 7.50614 2.4254 7.50614 2.24295C7.50614 2.0605 7.35823 1.9126 7.17578 1.9126" stroke="black" stroke-width="1.5" stroke-linecap="round" stroke-linejoin="round"/>
</g>
<g id="Group 32">
<path id="Vector_5" d="M4.68973 4.00056C4.50728 4.00056 4.35938 3.85265 4.35938 3.6702C4.35938 3.48775 4.50728 3.33984 4.68973 3.33984" stroke="black" stroke-width="1.5" stroke-linecap="round" stroke-linejoin="round"/>
<path id="Vector_6" d="M4.69141 4.00056C4.87386 4.00056 5.02176 3.85265 5.02176 3.6702C5.02176 3.48775 4.87386 3.33984 4.69141 3.33984" stroke="black" stroke-width="1.5" stroke-linecap="round" stroke-linejoin="round"/>
</g>
<g id="Group 31">
<path id="Vector_7" d="M2.85379 6.19441C2.67135 6.19441 2.52344 6.0465 2.52344 5.86405C2.52344 5.6816 2.67135 5.53369 2.85379 5.53369" stroke="black" stroke-width="1.5" stroke-linecap="round" stroke-linejoin="round"/>
<path id="Vector_8" d="M2.85547 6.19441C3.03792 6.19441 3.18583 6.0465 3.18583 5.86405C3.18583 5.6816 3.03792 5.53369 2.85547 5.53369" stroke="black" stroke-width="1.5" stroke-linecap="round" stroke-linejoin="round"/>
</g>
<g id="Group 30">
<path id="Vector_9" d="M1.86161 8.88972C1.67916 8.88972 1.53125 8.74181 1.53125 8.55936C1.53125 8.37691 1.67916 8.229 1.86161 8.229" stroke="black" stroke-width="1.5" stroke-linecap="round" stroke-linejoin="round"/>
<path id="Vector_10" d="M1.86328 8.88972C2.04573 8.88972 2.19364 8.74181 2.19364 8.55936C2.19364 8.37691 2.04573 8.229 1.86328 8.229" stroke="black" stroke-width="1.5" stroke-linecap="round" stroke-linejoin="round"/>
</g>
<g id="Group 29">
<path id="Vector_11" d="M1.86161 11.7708C1.67916 11.7708 1.53125 11.6229 1.53125 11.4405C1.53125 11.258 1.67916 11.1101 1.86161 11.1101" stroke="black" stroke-width="1.5" stroke-linecap="round" stroke-linejoin="round"/>
<path id="Vector_12" d="M1.86328 11.7708C2.04573 11.7708 2.19364 11.6229 2.19364 11.4405C2.19364 11.258 2.04573 11.1101 1.86328 11.1101" stroke="black" stroke-width="1.5" stroke-linecap="round" stroke-linejoin="round"/>
</g>
<g id="Group 28">
<path id="Vector_13" d="M2.85379 14.4662C2.67135 14.4662 2.52344 14.3183 2.52344 14.1358C2.52344 13.9533 2.67135 13.8054 2.85379 13.8054" stroke="black" stroke-width="1.5" stroke-linecap="round" stroke-linejoin="round"/>
<path id="Vector_14" d="M2.85547 14.4662C3.03792 14.4662 3.18583 14.3183 3.18583 14.1358C3.18583 13.9533 3.03792 13.8054 2.85547 13.8054" stroke="black" stroke-width="1.5" stroke-linecap="round" stroke-linejoin="round"/>
</g>
<g id="Group 27">
<path id="Vector_15" d="M4.68973 16.66C4.50728 16.66 4.35938 16.5121 4.35938 16.3296C4.35938 16.1473 4.50728 15.9993 4.68973 15.9993" stroke="black" stroke-width="1.5" stroke-linecap="round" stroke-linejoin="round"/>
<path id="Vector_16" d="M4.69141 16.66C4.87386 16.66 5.02176 16.5121 5.02176 16.3296C5.02176 16.1473 4.87386 15.9993 4.69141 15.9993" stroke="black" stroke-width="1.5" stroke-linecap="round" stroke-linejoin="round"/>
</g>
<g id="Group 26">
<path id="Vector_17" d="M7.17411 18.0872C6.99166 18.0872 6.84375 17.9394 6.84375 17.7569C6.84375 17.5744 6.99166 17.4265 7.17411 17.4265" stroke="black" stroke-width="1.5" stroke-linecap="round" stroke-linejoin="round"/>
<path id="Vector_18" d="M7.17578 18.0872C7.35823 18.0872 7.50614 17.9394 7.50614 17.7569C7.50614 17.5744 7.35823 17.4265 7.17578 17.4265" stroke="black" stroke-width="1.5" stroke-linecap="round" stroke-linejoin="round"/>
</g>
<g id="Group 25">
<path id="Vector_19" d="M10.0022 18.5892C9.81978 18.5892 9.67188 18.4413 9.67188 18.2588C9.67188 18.0763 9.81978 17.9285 10.0022 17.9285" stroke="black" stroke-width="1.5" stroke-linecap="round" stroke-linejoin="round"/>
<path id="Vector_20" d="M10.0039 18.5892C10.1864 18.5892 10.3343 18.4413 10.3343 18.2588C10.3343 18.0763 10.1864 17.9285 10.0039 17.9285" stroke="black" stroke-width="1.5" stroke-linecap="round" stroke-linejoin="round"/>
</g>
<g id="Group 24">
<path id="Vector_21" d="M12.8304 18.0872C12.6479 18.0872 12.5 17.9394 12.5 17.7569C12.5 17.5744 12.6479 17.4265 12.8304 17.4265" stroke="black" stroke-width="1.5" stroke-linecap="round" stroke-linejoin="round"/>
<path id="Vector_22" d="M12.832 18.0872C13.0145 18.0872 13.1624 17.9394 13.1624 17.7569C13.1624 17.5744 13.0145 17.4265 12.832 17.4265" stroke="black" stroke-width="1.5" stroke-linecap="round" stroke-linejoin="round"/>
</g>
<g id="Group 23">
<path id="Vector_23" d="M15.3147 16.66C15.1322 16.66 14.9844 16.5121 14.9844 16.3296C14.9844 16.1473 15.1322 15.9993 15.3147 15.9993" stroke="black" stroke-width="1.5" stroke-linecap="round" stroke-linejoin="round"/>
<path id="Vector_24" d="M15.3164 16.66C15.4989 16.66 15.6468 16.5121 15.6468 16.3296C15.6468 16.1473 15.4989 15.9993 15.3164 15.9993" stroke="black" stroke-width="1.5" stroke-linecap="round" stroke-linejoin="round"/>
</g>
<g id="Group 22">
<path id="Vector_25" d="M17.1507 14.4662C16.9683 14.4662 16.8203 14.3183 16.8203 14.1358C16.8203 13.9533 16.9683 13.8054 17.1507 13.8054" stroke="black" stroke-width="1.5" stroke-linecap="round" stroke-linejoin="round"/>
<path id="Vector_26" d="M17.1523 14.4662C17.3348 14.4662 17.4827 14.3183 17.4827 14.1358C17.4827 13.9533 17.3348 13.8054 17.1523 13.8054" stroke="black" stroke-width="1.5" stroke-linecap="round" stroke-linejoin="round"/>
</g>
<g id="Group 21">
<path id="Vector_27" d="M18.1429 11.7708C17.9605 11.7708 17.8125 11.6229 17.8125 11.4405C17.8125 11.258 17.9605 11.1101 18.1429 11.1101" stroke="black" stroke-width="1.5" stroke-linecap="round" stroke-linejoin="round"/>
<path id="Vector_28" d="M18.1445 11.7708C18.327 11.7708 18.4749 11.6229 18.4749 11.4405C18.4749 11.258 18.327 11.1101 18.1445 11.1101" stroke="black" stroke-width="1.5" stroke-linecap="round" stroke-linejoin="round"/>
</g>
<g id="Group 20">
<path id="Vector_29" d="M18.1429 8.88972C17.9605 8.88972 17.8125 8.74181 17.8125 8.55936C17.8125 8.37691 17.9605 8.229 18.1429 8.229" stroke="black" stroke-width="1.5" stroke-linecap="round" stroke-linejoin="round"/>
<path id="Vector_30" d="M18.1445 8.88972C18.327 8.88972 18.4749 8.74181 18.4749 8.55936C18.4749 8.37691 18.327 8.229 18.1445 8.229" stroke="black" stroke-width="1.5" stroke-linecap="round" stroke-linejoin="round"/>
</g>
<g id="Group 19">
<path id="Vector_31" d="M17.1507 6.19441C16.9683 6.19441 16.8203 6.0465 16.8203 5.86405C16.8203 5.6816 16.9683 5.53369 17.1507 5.53369" stroke="black" stroke-width="1.5" stroke-linecap="round" stroke-linejoin="round"/>
<path id="Vector_32" d="M17.1523 6.19441C17.3348 6.19441 17.4827 6.0465 17.4827 5.86405C17.4827 5.6816 17.3348 5.53369 17.1523 5.53369" stroke="black" stroke-width="1.5" stroke-linecap="round" stroke-linejoin="round"/>
</g>
<g id="Group 18">
<path id="Vector_33" d="M15.3147 4.00056C15.1322 4.00056 14.9844 3.85265 14.9844 3.6702C14.9844 3.48775 15.1322 3.33984 15.3147 3.33984" stroke="black" stroke-width="1.5" stroke-linecap="round" stroke-linejoin="round"/>
<path id="Vector_34" d="M15.3164 4.00056C15.4989 4.00056 15.6468 3.85265 15.6468 3.6702C15.6468 3.48775 15.4989 3.33984 15.3164 3.33984" stroke="black" stroke-width="1.5" stroke-linecap="round" stroke-linejoin="round"/>
</g>
<g id="Group 17">
<path id="Vector_35" d="M12.8304 2.57331C12.6479 2.57331 12.5 2.4254 12.5 2.24295C12.5 2.0605 12.6479 1.9126 12.8304 1.9126" stroke="black" stroke-width="1.5" stroke-linecap="round" stroke-linejoin="round"/>
<path id="Vector_36" d="M12.832 2.57331C13.0145 2.57331 13.1624 2.4254 13.1624 2.24295C13.1624 2.0605 13.0145 1.9126 12.832 1.9126" stroke="black" stroke-width="1.5" stroke-linecap="round" stroke-linejoin="round"/>
</g>
</g>
</g>
<defs>
<clipPath id="clip0_47_144039">
<rect width="20" height="20" fill="white"/>
</clipPath>
</defs>
</svg>
