<svg width="21" height="21" viewBox="0 0 21 21" fill="none" xmlns="http://www.w3.org/2000/svg">
<g clip-path="url(#clip0_146_403474)">
<path d="M8.84599 16.0721L11.8796 19.0918C12.0658 19.2825 12.2985 19.4214 12.5547 19.4946C12.811 19.5679 13.082 19.5729 13.3408 19.5093C13.6012 19.4487 13.8417 19.3222 14.0391 19.1418C14.2365 18.9615 14.3842 18.7334 14.468 18.4795L19.4498 3.5479C19.5538 3.26813 19.5753 2.96439 19.5116 2.67278C19.4479 2.38116 19.302 2.11395 19.091 1.9029C18.8799 1.69185 18.6127 1.54584 18.3211 1.48223C18.0295 1.41861 17.7257 1.44006 17.446 1.54403L2.51433 6.52587C2.25167 6.61558 2.01773 6.77382 1.83669 6.98422C1.65566 7.19461 1.53409 7.44953 1.48456 7.72263C1.43343 7.97101 1.44481 8.2282 1.51768 8.4711C1.59055 8.71399 1.72262 8.93498 1.90203 9.1142L5.71495 12.9271L5.5897 17.7559L8.84599 16.0721Z" stroke="black" stroke-width="1.5" stroke-linecap="round" stroke-linejoin="round"/>
<path d="M19.0044 1.85022L5.71484 12.9272" stroke="black" stroke-width="1.5" stroke-linecap="round" stroke-linejoin="round"/>
</g>
<defs>
<clipPath id="clip0_146_403474">
<rect width="21" height="21" fill="white"/>
</clipPath>
</defs>
</svg>
