<svg width="20" height="20" viewBox="0 0 20 20" fill="none" xmlns="http://www.w3.org/2000/svg">
<g id="service-mark-33" clip-path="url(#clip0_47_143908)">
<g id="service-mark--logo-sm-trademark">
<path id="Vector" d="M9.99944 18.5892C14.7432 18.5892 18.5887 14.7437 18.5887 9.99993C18.5887 5.2562 14.7432 1.41064 9.99944 1.41064C5.25571 1.41064 1.41016 5.2562 1.41016 9.99993C1.41016 14.7437 5.25571 18.5892 9.99944 18.5892Z" stroke="black" stroke-width="1.5" stroke-linecap="round" stroke-linejoin="round"/>
<path id="Vector 3" d="M5.22755 11.7619C5.40894 12.2752 5.89842 12.6429 6.47377 12.6429H7.35473C8.08453 12.6429 8.67616 12.0508 8.67616 11.321C8.67616 10.7 8.24376 10.1624 7.63712 10.0297L6.07983 9.68904C5.53832 9.57057 5.15234 9.09105 5.15234 8.53672C5.15234 7.88529 5.68045 7.35718 6.3319 7.35718H7.35473C7.7461 7.35718 8.09772 7.52731 8.33968 7.79765C8.45343 7.92476 8.54296 8.074 8.60097 8.23813" stroke="black" stroke-width="1.5" stroke-linecap="round" stroke-linejoin="round"/>
<path id="Vector 1" d="M10.4414 12.6429V7.63696C10.4414 7.48244 10.5667 7.35718 10.7212 7.35718C10.8207 7.35718 10.9127 7.41004 10.9629 7.49598L12.3126 9.8098C12.3813 9.92759 12.5074 10 12.6438 10C12.7802 10 12.9063 9.92759 12.975 9.8098L14.3247 7.49598C14.3749 7.41004 14.4669 7.35718 14.5664 7.35718C14.721 7.35718 14.8461 7.48244 14.8461 7.63695V12.6429" stroke="black" stroke-width="1.5" stroke-linecap="round" stroke-linejoin="round"/>
</g>
</g>
<defs>
<clipPath id="clip0_47_143908">
<rect width="20" height="20" fill="white"/>
</clipPath>
</defs>
</svg>
