<svg width="20" height="20" viewBox="0 0 20 20" fill="none" xmlns="http://www.w3.org/2000/svg">
<g id="settings-bolt-nut-6">
<g id="settings-bolt-nut">
<path id="vector 2101" d="M2.64844 5.7287L9.99888 1.62305L17.3493 5.7287V14.2711L9.99888 18.3768L2.64844 14.2711V5.7287Z" stroke="black" stroke-width="1.5" stroke-linecap="round" stroke-linejoin="round"/>
<path id="ellipse 2" d="M6.53125 10C6.53125 10.4555 6.62097 10.9066 6.79529 11.3274C6.96961 11.7483 7.22512 12.1307 7.54722 12.4528C7.86933 12.7749 8.25172 13.0304 8.67257 13.2047C9.09342 13.379 9.54448 13.4688 10 13.4688C10.4555 13.4688 10.9066 13.379 11.3274 13.2047C11.7483 13.0304 12.1307 12.7749 12.4528 12.4528C12.7749 12.1307 13.0304 11.7483 13.2047 11.3274C13.379 10.9066 13.4688 10.4555 13.4688 10C13.4688 9.54448 13.379 9.09342 13.2047 8.67257C13.0304 8.25172 12.7749 7.86933 12.4528 7.54722C12.1307 7.22512 11.7483 6.96961 11.3274 6.79529C10.9066 6.62097 10.4555 6.53125 10 6.53125C9.54448 6.53125 9.09342 6.62097 8.67257 6.79529C8.25172 6.96961 7.86933 7.22512 7.54722 7.54722C7.22512 7.86933 6.96961 8.25172 6.79529 8.67257C6.62097 9.09342 6.53125 9.54448 6.53125 10Z" stroke="black" stroke-width="1.5"/>
</g>
</g>
</svg>
