<svg width="20" height="20" viewBox="0 0 20 20" fill="none" xmlns="http://www.w3.org/2000/svg">
<g id="share-link-block" clip-path="url(#clip0_47_147494)">
<g id="share-link-block--share-transmit-remove-block">
<path id="Vector" d="M4.38337 12.9738C6.02543 12.9738 7.35659 11.6426 7.35659 10.0006C7.35659 8.3585 6.02543 7.02734 4.38337 7.02734C2.74131 7.02734 1.41016 8.3585 1.41016 10.0006C1.41016 11.6426 2.74131 12.9738 4.38337 12.9738Z" stroke="black" stroke-width="1.5" stroke-linecap="round" stroke-linejoin="round"/>
<path id="Vector_2" d="M15.6138 7.35756C17.2558 7.35756 18.5871 6.02641 18.5871 4.38435C18.5871 2.74229 17.2558 1.41113 15.6138 1.41113C13.9718 1.41113 12.6406 2.74229 12.6406 4.38435C12.6406 6.02641 13.9718 7.35756 15.6138 7.35756Z" stroke="black" stroke-width="1.5" stroke-linecap="round" stroke-linejoin="round"/>
<path id="Vector_3" d="M7.03906 8.67927L12.9591 5.70605" stroke="black" stroke-width="1.5" stroke-linecap="round" stroke-linejoin="round"/>
<path id="Vector_4" d="M14.6244 18.5897C12.435 18.5897 10.6602 16.8149 10.6602 14.6254C10.6602 12.436 12.435 10.6611 14.6244 10.6611C16.8139 10.6611 18.5887 12.436 18.5887 14.6254C18.5887 16.8149 16.8139 18.5897 14.6244 18.5897Z" stroke="black" stroke-width="1.5" stroke-linecap="round" stroke-linejoin="round"/>
<path id="Vector_5" d="M17.4261 17.428L11.8203 11.8223" stroke="black" stroke-width="1.5" stroke-linecap="round" stroke-linejoin="round"/>
<path id="Vector_6" d="M7.03906 11.3223L8.70406 12.1548" stroke="black" stroke-width="1.5" stroke-linecap="round" stroke-linejoin="round"/>
</g>
</g>
<defs>
<clipPath id="clip0_47_147494">
<rect width="20" height="20" fill="white"/>
</clipPath>
</defs>
</svg>
