<svg width="20" height="20" viewBox="0 0 20 20" fill="none" xmlns="http://www.w3.org/2000/svg">
<g id="share-heart-28" clip-path="url(#clip0_47_143278)">
<g id="share-heart--reward-social-rating-media-heart-hand">
<path id="Vector" d="M12.3127 11.9821L7.02695 7.09284C4.14623 4.19892 8.34838 -1.40394 12.3127 3.12856C16.2769 -1.39073 20.5187 4.21213 17.5984 7.09284L12.3127 11.9821Z" stroke="black" stroke-width="1.5" stroke-linecap="round" stroke-linejoin="round"/>
<path id="Vector 294" d="M1.41016 15.2856L4.63937 17.9766C5.11433 18.3725 5.71303 18.5892 6.33129 18.5892H14.8447C15.4528 18.5892 15.9459 18.0962 15.9459 17.4881C15.9459 16.2717 14.9598 15.2856 13.7435 15.2856H7.82475" stroke="black" stroke-width="1.5" stroke-linecap="round" stroke-linejoin="round"/>
<path id="Vector 295" d="M5.37444 13.9642L6.36551 14.9553C6.91286 15.5026 7.80031 15.5026 8.34766 14.9553C8.89501 14.408 8.89501 13.5205 8.34766 12.9731L6.80924 11.4347C6.31359 10.9391 5.64138 10.6606 4.94045 10.6606H1.41016" stroke="black" stroke-width="1.5" stroke-linecap="round" stroke-linejoin="round"/>
</g>
</g>
<defs>
<clipPath id="clip0_47_143278">
<rect width="20" height="20" fill="white"/>
</clipPath>
</defs>
</svg>
