<svg width="21" height="21" viewBox="0 0 21 21" fill="none" xmlns="http://www.w3.org/2000/svg">
<path d="M17.7451 4.90082C17.6637 4.67015 17.5377 4.46038 17.378 4.28176C17.0378 3.90182 16.5437 3.66272 15.9936 3.66272H14.5562C13.6406 3.66272 12.8984 4.40492 12.8984 5.32046C12.8984 6.0995 13.4409 6.77343 14.2019 6.93992L16.3906 7.41867C17.2431 7.60517 17.8509 8.36071 17.8509 9.23347C17.8509 10.2591 17.0193 11.0913 15.9936 11.0913H14.7556C13.947 11.0913 13.2591 10.5745 13.0041 9.85319" stroke="black" stroke-width="1.5" stroke-linecap="round" stroke-linejoin="round"/>
<path d="M15.375 3.66269V1.80554" stroke="black" stroke-width="1.5" stroke-linecap="round" stroke-linejoin="round"/>
<path d="M15.375 12.9483V11.0912" stroke="black" stroke-width="1.5" stroke-linecap="round" stroke-linejoin="round"/>
<path d="M1.64844 15.8973L5.05221 18.7338C5.55284 19.1511 6.18389 19.3795 6.83558 19.3795H15.8092C16.4502 19.3795 16.9699 18.8598 16.9699 18.2188C16.9699 16.9367 15.9305 15.8973 14.6484 15.8973H8.40977" stroke="black" stroke-width="1.5" stroke-linecap="round" stroke-linejoin="round"/>
<path d="M5.82701 14.5045L6.87165 15.5491C7.44859 16.126 8.38399 16.126 8.96094 15.5491C9.53788 14.9722 9.53788 14.0368 8.96094 13.4598L7.33935 11.8383C6.81693 11.3158 6.10837 11.0223 5.36956 11.0223H1.64844" stroke="black" stroke-width="1.5" stroke-linecap="round" stroke-linejoin="round"/>
</svg>
