<svg width="20" height="20" viewBox="0 0 20 20" fill="none" xmlns="http://www.w3.org/2000/svg">
<g id="share-time" clip-path="url(#clip0_47_148541)">
<g id="share-time--hand-clock-time-give-human-person">
<path id="Vector 294" d="M1.41016 15.2852L4.63937 17.9761C5.11433 18.372 5.71303 18.5887 6.33129 18.5887H14.8447C15.4528 18.5887 15.9459 18.0957 15.9459 17.4876C15.9459 16.2712 14.9598 15.2852 13.7435 15.2852H7.82475" stroke="black" stroke-width="1.5" stroke-linecap="round" stroke-linejoin="round"/>
<path id="Vector 295" d="M5.37444 13.9637L6.36551 14.9548C6.91286 15.5021 7.80031 15.5021 8.34766 14.9548C8.89501 14.4075 8.89501 13.52 8.34766 12.9727L6.80924 11.4342C6.31359 10.9386 5.64138 10.6602 4.94045 10.6602H1.41016" stroke="black" stroke-width="1.5" stroke-linecap="round" stroke-linejoin="round"/>
<path id="Ellipse 577" d="M8.01562 6.69587C8.01563 8.09773 8.57251 9.44217 9.56377 10.4334C10.555 11.4247 11.8995 11.9816 13.3013 11.9816C14.7032 11.9816 16.0476 11.4247 17.0389 10.4334C18.0302 9.44217 18.5871 8.09773 18.5871 6.69587C18.5871 5.29401 18.0302 3.94957 17.0389 2.95831C16.0476 1.96704 14.7032 1.41016 13.3013 1.41016C11.8995 1.41016 10.555 1.96704 9.56377 2.95831C8.57251 3.94957 8.01563 5.29401 8.01562 6.69587Z" stroke="black" stroke-width="1.5" stroke-linecap="round" stroke-linejoin="round"/>
<path id="Vector 1652" d="M13.3047 4.05273V6.69559H15.2868" stroke="black" stroke-width="1.5" stroke-linecap="round" stroke-linejoin="round"/>
</g>
</g>
<defs>
<clipPath id="clip0_47_148541">
<rect width="20" height="20" fill="white"/>
</clipPath>
</defs>
</svg>
