<svg width="20" height="20" viewBox="0 0 20 20" fill="none" xmlns="http://www.w3.org/2000/svg">
<g id="share-link-lock-16" clip-path="url(#clip0_47_147518)">
<g id="share-link-lock--share-transmit-lock">
<path id="Vector" d="M4.38337 13.09C6.02543 13.09 7.35659 11.7588 7.35659 10.1168C7.35659 8.47471 6.02543 7.14355 4.38337 7.14355C2.74131 7.14355 1.41016 8.47471 1.41016 10.1168C1.41016 11.7588 2.74131 13.09 4.38337 13.09Z" stroke="black" stroke-width="1.5" stroke-linecap="round" stroke-linejoin="round"/>
<path id="Vector_2" d="M15.6138 7.47182C17.2558 7.47182 18.5871 6.14067 18.5871 4.49861C18.5871 2.85655 17.2558 1.52539 15.6138 1.52539C13.9718 1.52539 12.6406 2.85655 12.6406 4.49861C12.6406 6.14067 13.9718 7.47182 15.6138 7.47182Z" stroke="black" stroke-width="1.5" stroke-linecap="round" stroke-linejoin="round"/>
<path id="Vector_3" d="M7.03906 8.79548L12.9591 5.82227" stroke="black" stroke-width="1.5" stroke-linecap="round" stroke-linejoin="round"/>
<path id="Vector_4" d="M7.03906 11.4385L8.67762 12.2578" stroke="black" stroke-width="1.5" stroke-linecap="round" stroke-linejoin="round"/>
<path id="Vector_5" d="M11.3209 13.3037H17.928C18.3244 13.3037 18.5887 13.568 18.5887 13.9644V17.9287C18.5887 18.3251 18.3244 18.5894 17.928 18.5894H11.3209C10.9244 18.5894 10.6602 18.3251 10.6602 17.9287V13.9644C10.6602 13.568 10.9244 13.3037 11.3209 13.3037Z" stroke="black" stroke-width="1.5" stroke-linecap="round" stroke-linejoin="round"/>
<path id="Vector_6" d="M11.9805 13.3041V11.9827C11.9805 10.5291 13.1698 9.33984 14.6233 9.33984C16.0769 9.33984 17.2662 10.5291 17.2662 11.9827V13.3041" stroke="black" stroke-width="1.5" stroke-linecap="round" stroke-linejoin="round"/>
</g>
</g>
<defs>
<clipPath id="clip0_47_147518">
<rect width="20" height="20" fill="white"/>
</clipPath>
</defs>
</svg>
