<svg width="20" height="20" viewBox="0 0 20 20" fill="none" xmlns="http://www.w3.org/2000/svg">
<g id="shield-cross" clip-path="url(#clip0_47_147032)">
<g id="shield-cross--shield-secure-security-cross-add-plus">
<path id="Vector" d="M10.4741 18.5012C10.1682 18.6192 9.82921 18.6192 9.52323 18.5012C7.13574 17.5845 5.08247 15.9652 3.63463 13.8572C2.18679 11.7491 1.41252 9.25138 1.41406 6.69398V2.73185C1.41406 2.38158 1.55321 2.04564 1.80089 1.79796C2.04857 1.55028 2.38451 1.41113 2.73478 1.41113H17.2626C17.6129 1.41113 17.9488 1.55028 18.1965 1.79796C18.4442 2.04564 18.5833 2.38158 18.5833 2.73185V6.69398C18.5849 9.25138 17.8106 11.7491 16.3628 13.8572C14.9149 15.9652 12.8617 17.5845 10.4741 18.5012Z" stroke="black" stroke-width="1.5" stroke-linecap="round" stroke-linejoin="round"/>
<path id="Vector 5" d="M11.318 4.72559H8.67657V7.36702H6.03516V10.0084H8.67657V12.6499H11.318V10.0084H13.9594V7.36702H11.318V4.72559Z" stroke="black" stroke-width="1.5" stroke-linecap="round" stroke-linejoin="round"/>
</g>
</g>
<defs>
<clipPath id="clip0_47_147032">
<rect width="20" height="20" fill="white"/>
</clipPath>
</defs>
</svg>
