<svg width="20" height="20" viewBox="0 0 20 20" fill="none" xmlns="http://www.w3.org/2000/svg">
<g id="show-layer-11">
<g id="show-layer--show-layer-work">
<path id="Vector" d="M4.71596 4.71436H11.9838C12.7136 4.71436 13.3052 5.30599 13.3052 6.03578V17.2679C13.3052 17.9978 12.7136 18.5894 11.9838 18.5894H4.71596C3.98616 18.5894 3.39453 17.9978 3.39453 17.2679V6.03578C3.39453 5.30599 3.98616 4.71436 4.71596 4.71436Z" stroke="black" stroke-width="1.5" stroke-linecap="round" stroke-linejoin="round"/>
<path id="Vector_2" d="M13.3064 15.2858H15.2885C15.6389 15.2858 15.9751 15.1465 16.2229 14.8987C16.4707 14.651 16.6099 14.3148 16.6099 13.9643V2.7322C16.6099 2.38173 16.4707 2.04562 16.2229 1.7978C15.9751 1.54999 15.6389 1.41077 15.2885 1.41077H8.02065C7.67018 1.41077 7.33407 1.54999 7.08625 1.7978C6.83844 2.04562 6.69922 2.38173 6.69922 2.7322V4.71434" stroke="black" stroke-width="1.5" stroke-linecap="round" stroke-linejoin="round"/>
</g>
</g>
</svg>
