<svg width="20" height="20" viewBox="0 0 20 20" fill="none" xmlns="http://www.w3.org/2000/svg">
<g id="sigma-92" clip-path="url(#clip0_47_148158)">
<g id="sigma--formula-text-format-sigma-formatting-sum">
<path id="Vector" d="M18.523 18.5205H2.1346C2.00518 18.5199 1.87885 18.4809 1.77152 18.4086C1.6642 18.3362 1.58068 18.2338 1.53151 18.1141C1.47796 17.9959 1.46307 17.8638 1.48896 17.7367C1.51486 17.6096 1.58022 17.4939 1.67572 17.4061L8.61129 10.4574C8.73141 10.3349 8.79868 10.1701 8.79868 9.99852C8.79868 9.82694 8.73141 9.66219 8.61129 9.53966L1.67572 2.59098C1.58022 2.50317 1.51486 2.38746 1.48896 2.26034C1.46307 2.13322 1.47796 2.00116 1.53151 1.88299C1.58068 1.76328 1.6642 1.6608 1.77152 1.58848C1.87885 1.51615 2.00518 1.47721 2.1346 1.47656H18.523" stroke="black" stroke-width="1.5" stroke-linecap="round" stroke-linejoin="round"/>
</g>
</g>
<defs>
<clipPath id="clip0_47_148158">
<rect width="20" height="20" fill="white"/>
</clipPath>
</defs>
</svg>
