<svg width="21" height="21" viewBox="0 0 21 21" fill="none" xmlns="http://www.w3.org/2000/svg">
<path d="M4.92746 13.9821L1.44531 10.5L4.92746 7.01782" stroke="black" stroke-width="1.5" stroke-linecap="round" stroke-linejoin="round"/>
<path d="M16.0703 13.9821L19.5525 10.5L16.0703 7.01782" stroke="black" stroke-width="1.5" stroke-linecap="round" stroke-linejoin="round"/>
<path d="M10.5006 10.8482C10.3082 10.8482 10.1523 10.6923 10.1523 10.4999C10.1523 10.3076 10.3082 10.1517 10.5006 10.1517" stroke="black" stroke-width="1.5" stroke-linecap="round" stroke-linejoin="round"/>
<path d="M10.5 10.8482C10.6923 10.8482 10.8482 10.6923 10.8482 10.4999C10.8482 10.3076 10.6923 10.1517 10.5 10.1517" stroke="black" stroke-width="1.5" stroke-linecap="round" stroke-linejoin="round"/>
<path d="M13.981 10.8482C13.7887 10.8482 13.6328 10.6923 13.6328 10.4999C13.6328 10.3076 13.7887 10.1517 13.981 10.1517" stroke="black" stroke-width="1.5" stroke-linecap="round" stroke-linejoin="round"/>
<path d="M13.9805 10.8482C14.1728 10.8482 14.3287 10.6923 14.3287 10.4999C14.3287 10.3076 14.1728 10.1517 13.9805 10.1517" stroke="black" stroke-width="1.5" stroke-linecap="round" stroke-linejoin="round"/>
<path d="M7.01618 10.8482C6.82387 10.8482 6.66797 10.6923 6.66797 10.4999C6.66797 10.3076 6.82387 10.1517 7.01618 10.1517" stroke="black" stroke-width="1.5" stroke-linecap="round" stroke-linejoin="round"/>
<path d="M7.01562 10.8482C7.20794 10.8482 7.36384 10.6923 7.36384 10.4999C7.36384 10.3076 7.20794 10.1517 7.01562 10.1517" stroke="black" stroke-width="1.5" stroke-linecap="round" stroke-linejoin="round"/>
</svg>
