<svg width="20" height="20" viewBox="0 0 20 20" fill="none" xmlns="http://www.w3.org/2000/svg">
<g id="skull-1-66">
<g id="skull-1--crash-death-delete-die-error-garbage-remove-skull-trash">
<path id="Vector" d="M17.7767 9.35404C17.7774 8.02174 17.4358 6.71159 16.7846 5.54928C16.1334 4.38698 15.1944 3.41151 14.0578 2.71647C12.9211 2.02142 11.625 1.63011 10.2936 1.58007C8.96226 1.53004 7.64036 1.82295 6.45476 2.43073C5.26917 3.0385 4.25963 3.94074 3.52302 5.05089C2.7864 6.16103 2.34742 7.44184 2.24817 8.77045C2.14892 10.0991 2.39275 11.4309 2.95624 12.6381C3.51975 13.8454 4.38403 14.8876 5.46616 15.6648V17.1291C5.46616 17.4728 5.60269 17.8024 5.84572 18.0454C6.08873 18.2884 6.41833 18.4249 6.76201 18.4249H13.2412C13.5849 18.4249 13.9145 18.2884 14.1575 18.0454C14.4005 17.8024 14.5371 17.4728 14.5371 17.1291V15.6648C15.5389 14.9453 16.3553 13.9977 16.9185 12.9004C17.4818 11.8031 17.7759 10.5875 17.7767 9.35404Z" stroke="black" stroke-width="1.5" stroke-linecap="round" stroke-linejoin="round"/>
<path id="Vector_2" d="M8.70703 15.8336V18.4252" stroke="black" stroke-width="1.5" stroke-linecap="round" stroke-linejoin="round"/>
<path id="Vector_3" d="M11.2969 15.8336V18.4252" stroke="black" stroke-width="1.5" stroke-linecap="round" stroke-linejoin="round"/>
<path id="Ellipse 455" d="M5.46484 10.325C5.46484 10.7547 5.63553 11.1668 5.93935 11.4706C6.24317 11.7744 6.65525 11.9451 7.08492 11.9451C7.51458 11.9451 7.92666 11.7744 8.23048 11.4706C8.5343 11.1668 8.70499 10.7547 8.70499 10.325C8.70499 9.89536 8.5343 9.48329 8.23048 9.17946C7.92666 8.87564 7.51458 8.70496 7.08492 8.70496C6.65525 8.70496 6.24317 8.87564 5.93935 9.17946C5.63553 9.48329 5.46484 9.89536 5.46484 10.325Z" stroke="black" stroke-width="1.5" stroke-linecap="round" stroke-linejoin="round"/>
<path id="Ellipse 456" d="M11.2969 10.325C11.2969 10.7547 11.4676 11.1668 11.7714 11.4706C12.0752 11.7744 12.4873 11.9451 12.9169 11.9451C13.3466 11.9451 13.7587 11.7744 14.0625 11.4706C14.3663 11.1668 14.537 10.7547 14.537 10.325C14.537 9.89536 14.3663 9.48329 14.0625 9.17946C13.7587 8.87564 13.3466 8.70496 12.9169 8.70496C12.4873 8.70496 12.0752 8.87564 11.7714 9.17946C11.4676 9.48329 11.2969 9.89536 11.2969 10.325Z" stroke="black" stroke-width="1.5" stroke-linecap="round" stroke-linejoin="round"/>
</g>
</g>
</svg>
