<svg width="20" height="20" viewBox="0 0 20 20" fill="none" xmlns="http://www.w3.org/2000/svg">
<g id="smart-key-14">
<g id="smart-key--smart-key-entry-lock-login-pass-unlock-access-signal-wifi">
<path id="Vector" d="M8.17578 11.8237L15.9458 4.05371L18.5886 6.69657" stroke="black" stroke-width="1.5" stroke-linecap="round" stroke-linejoin="round"/>
<path id="Vector_2" d="M12.9727 7.02734L15.2852 9.33984" stroke="black" stroke-width="1.5" stroke-linecap="round" stroke-linejoin="round"/>
<path id="Vector_3" d="M5.37444 18.5897C7.56385 18.5897 9.33873 16.8149 9.33873 14.6254C9.33873 12.436 7.56385 10.6611 5.37444 10.6611C3.18503 10.6611 1.41016 12.436 1.41016 14.6254C1.41016 16.8149 3.18503 18.5897 5.37444 18.5897Z" stroke="black" stroke-width="1.5" stroke-linecap="round" stroke-linejoin="round"/>
<path id="Vector_4" d="M9.11185 5.14873C8.12058 4.15748 6.77614 3.60059 5.37429 3.60059C3.97242 3.60059 2.62799 4.15748 1.63672 5.14873" stroke="black" stroke-width="1.5" stroke-linecap="round" stroke-linejoin="round"/>
<path id="Vector_5" d="M6.77583 7.48485C6.40411 7.11314 5.89995 6.9043 5.37424 6.9043C4.84855 6.9043 4.34439 7.11314 3.97266 7.48485" stroke="black" stroke-width="1.5" stroke-linecap="round" stroke-linejoin="round"/>
</g>
</g>
</svg>
