<svg width="21" height="21" viewBox="0 0 21 21" fill="none" xmlns="http://www.w3.org/2000/svg">
<g clip-path="url(#clip0_146_402819)">
<path d="M10.4994 15.375C11.6533 15.375 12.5887 14.2837 12.5887 12.9375C12.5887 11.5913 11.6533 10.5 10.4994 10.5C9.34556 10.5 8.41016 11.5913 8.41016 12.9375C8.41016 14.2837 9.34556 15.375 10.4994 15.375Z" stroke="black" stroke-width="1.5" stroke-linecap="round" stroke-linejoin="round"/>
<path d="M10.4989 19.5536C15.4991 19.5536 19.5525 15.5002 19.5525 10.5C19.5525 5.49983 15.4991 1.44641 10.4989 1.44641C5.49874 1.44641 1.44531 5.49983 1.44531 10.5C1.44531 15.5002 5.49874 19.5536 10.4989 19.5536Z" stroke="black" stroke-width="1.5" stroke-linecap="round" stroke-linejoin="round"/>
<path d="M8.39025 7.52917C8.17239 7.8832 7.6931 8.11014 7.22833 8.11014C6.76356 8.11014 6.28428 7.8832 6.06641 7.52917" stroke="black" stroke-width="1.5" stroke-linecap="round" stroke-linejoin="round"/>
<path d="M12.6094 7.52917C12.8272 7.8832 13.3065 8.11014 13.7713 8.11014C14.2361 8.11014 14.7153 7.8832 14.9333 7.52917" stroke="black" stroke-width="1.5" stroke-linecap="round" stroke-linejoin="round"/>
</g>
<defs>
<clipPath id="clip0_146_402819">
<rect width="21" height="21" fill="white"/>
</clipPath>
</defs>
</svg>
