<svg width="21" height="21" viewBox="0 0 21 21" fill="none" xmlns="http://www.w3.org/2000/svg">
<g clip-path="url(#clip0_146_402899)">
<path d="M5.90234 11.8928C6.59877 14.4 9.38449 15.9321 11.8916 15.2357C13.4238 14.6785 14.6773 13.425 15.0953 11.8928" stroke="black" stroke-width="1.5" stroke-linecap="round" stroke-linejoin="round"/>
<path d="M10.4989 19.5536C15.4991 19.5536 19.5525 15.5002 19.5525 10.5C19.5525 5.49983 15.4991 1.44641 10.4989 1.44641C5.49874 1.44641 1.44531 5.49983 1.44531 10.5C1.44531 15.5002 5.49874 19.5536 10.4989 19.5536Z" stroke="black" stroke-width="1.5" stroke-linecap="round" stroke-linejoin="round"/>
<path d="M12.4023 7.97757C12.6202 7.62354 13.0995 7.39661 13.5643 7.39661C14.029 7.39661 14.5083 7.62354 14.7262 7.97757" stroke="black" stroke-width="1.5" stroke-linecap="round" stroke-linejoin="round"/>
<path d="M8.59336 7.97757C8.3755 7.62354 7.89621 7.39661 7.43144 7.39661C6.96668 7.39661 6.48739 7.62354 6.26953 7.97757" stroke="black" stroke-width="1.5" stroke-linecap="round" stroke-linejoin="round"/>
</g>
<defs>
<clipPath id="clip0_146_402899">
<rect width="21" height="21" fill="white"/>
</clipPath>
</defs>
</svg>
