<svg width="21" height="21" viewBox="0 0 21 21" fill="none" xmlns="http://www.w3.org/2000/svg">
<g clip-path="url(#clip0_146_402701)">
<path d="M6.27734 7.3307C6.4952 6.97668 6.9745 6.74976 7.43927 6.74976C7.90403 6.74976 8.38332 6.97668 8.60119 7.3307" stroke="black" stroke-width="1.5" stroke-linecap="round" stroke-linejoin="round"/>
<path d="M12.4023 7.3307C12.6202 6.97668 13.0995 6.74976 13.5643 6.74976C14.029 6.74976 14.5083 6.97668 14.7262 7.3307" stroke="black" stroke-width="1.5" stroke-linecap="round" stroke-linejoin="round"/>
<path d="M2.17188 6.95164C3.55202 3.71511 6.7629 1.44641 10.5037 1.44641C14.2444 1.44641 17.4553 3.71511 18.8355 6.95164" stroke="black" stroke-width="1.5" stroke-linecap="round" stroke-linejoin="round"/>
<path d="M2.65625 15.0226C4.22107 17.731 7.1482 19.5535 10.501 19.5535C13.8538 19.5535 16.7809 17.731 18.3457 15.0226" stroke="black" stroke-width="1.5" stroke-linecap="round" stroke-linejoin="round"/>
<path d="M19.0228 12.2707C19.6085 11.8134 19.7125 10.9679 19.2552 10.3821C18.798 9.79642 16.6836 9.2749 16.6836 9.2749C16.6836 9.2749 16.6768 11.4525 17.1342 12.0382C17.5915 12.624 18.4371 12.7281 19.0228 12.2707Z" stroke="black" stroke-width="1.5" stroke-linecap="round" stroke-linejoin="round"/>
<path d="M1.98237 12.2707C1.39665 11.8134 1.29256 10.9679 1.74988 10.3821C2.20721 9.79642 4.32147 9.2749 4.32147 9.2749C4.32147 9.2749 4.32828 11.4525 3.87097 12.0382C3.41364 12.624 2.56809 12.7281 1.98237 12.2707Z" stroke="black" stroke-width="1.5" stroke-linecap="round" stroke-linejoin="round"/>
<path d="M10.5028 16.0714C12.8105 16.0714 14.6814 14.2006 14.6814 11.8928H6.32422C6.32422 14.2006 8.19503 16.0714 10.5028 16.0714Z" stroke="black" stroke-width="1.5" stroke-linecap="round" stroke-linejoin="round"/>
</g>
<defs>
<clipPath id="clip0_146_402701">
<rect width="21" height="21" fill="white"/>
</clipPath>
</defs>
</svg>
