<svg width="21" height="21" viewBox="0 0 21 21" fill="none" xmlns="http://www.w3.org/2000/svg">
<g clip-path="url(#clip0_146_402889)">
<path d="M10.4989 19.5536C15.4991 19.5536 19.5525 15.5002 19.5525 10.5C19.5525 5.49983 15.4991 1.44641 10.4989 1.44641C5.49874 1.44641 1.44531 5.49983 1.44531 10.5C1.44531 15.5002 5.49874 19.5536 10.4989 19.5536Z" stroke="black" stroke-width="1.5" stroke-linecap="round" stroke-linejoin="round"/>
<path d="M5.90234 9.10715C6.59877 6.6 9.38449 5.06787 11.8916 5.7643C13.4238 6.32144 14.6773 7.575 15.0952 9.10715" stroke="black" stroke-width="1.5" stroke-linecap="round" stroke-linejoin="round"/>
<path d="M7.36384 12.5892C7.17153 12.5892 7.01562 12.7451 7.01562 12.9374C7.01562 13.1298 7.17153 13.2857 7.36384 13.2857" stroke="black" stroke-width="1.5" stroke-linecap="round" stroke-linejoin="round"/>
<path d="M7.36328 12.5892C7.55559 12.5892 7.7115 12.7451 7.7115 12.9374C7.7115 13.1298 7.55559 13.2857 7.36328 13.2857" stroke="black" stroke-width="1.5" stroke-linecap="round" stroke-linejoin="round"/>
<path d="M13.6334 12.5892C13.4411 12.5892 13.2852 12.7451 13.2852 12.9374C13.2852 13.1298 13.4411 13.2857 13.6334 13.2857" stroke="black" stroke-width="1.5" stroke-linecap="round" stroke-linejoin="round"/>
<path d="M13.6328 12.5892C13.8251 12.5892 13.981 12.7451 13.981 12.9374C13.981 13.1298 13.8251 13.2857 13.6328 13.2857" stroke="black" stroke-width="1.5" stroke-linecap="round" stroke-linejoin="round"/>
</g>
<defs>
<clipPath id="clip0_146_402889">
<rect width="21" height="21" fill="white"/>
</clipPath>
</defs>
</svg>
