<svg width="21" height="21" viewBox="0 0 21 21" fill="none" xmlns="http://www.w3.org/2000/svg">
<g clip-path="url(#clip0_146_402670)">
<path d="M19.5525 10.5C19.5525 15.5002 15.4991 19.5536 10.4989 19.5536C5.49874 19.5536 1.44531 15.5002 1.44531 10.5" stroke="black" stroke-width="1.5" stroke-linecap="round" stroke-linejoin="round"/>
<path d="M8.41016 1.68867C9.08084 1.53025 9.78035 1.44641 10.4994 1.44641C11.2185 1.44641 11.918 1.53025 12.5887 1.68867" stroke="black" stroke-width="1.5" stroke-linecap="round" stroke-linejoin="round"/>
<path d="M5.68444 5.04737C4.30251 3.35177 2.84343 4.55656 2.82422 5.85532C2.82422 7.78878 5.1376 9.37576 5.68444 9.37576C6.23127 9.37576 8.54466 7.78878 8.54466 5.85532C8.52545 4.55656 7.06636 3.35177 5.68444 5.04737Z" stroke="black" stroke-width="1.5" stroke-linecap="round" stroke-linejoin="round"/>
<path d="M15.3095 5.04737C16.6913 3.35177 18.1505 4.55656 18.1697 5.85532C18.1697 7.78878 15.8563 9.37576 15.3095 9.37576C14.7626 9.37576 12.4492 7.78878 12.4492 5.85532C12.4684 4.55656 13.9275 3.35177 15.3095 5.04737Z" stroke="black" stroke-width="1.5" stroke-linecap="round" stroke-linejoin="round"/>
<path d="M5.90234 11.8928C6.59877 14.4 9.38449 15.9321 11.8916 15.2357C13.4238 14.6785 14.6773 13.425 15.0953 11.8928" stroke="black" stroke-width="1.5" stroke-linecap="round" stroke-linejoin="round"/>
</g>
<defs>
<clipPath id="clip0_146_402670">
<rect width="21" height="21" fill="white"/>
</clipPath>
</defs>
</svg>
