<svg width="21" height="21" viewBox="0 0 21 21" fill="none" xmlns="http://www.w3.org/2000/svg">
<g clip-path="url(#clip0_146_402760)">
<path d="M10.4989 19.5536C15.4991 19.5536 19.5525 15.5002 19.5525 10.5C19.5525 5.49983 15.4991 1.44641 10.4989 1.44641C5.49874 1.44641 1.44531 5.49983 1.44531 10.5C1.44531 15.5002 5.49874 19.5536 10.4989 19.5536Z" stroke="black" stroke-width="1.5" stroke-linecap="round" stroke-linejoin="round"/>
<path d="M8.65595 6.23328H7.6776C7.13727 6.23328 6.69922 6.6713 6.69922 7.21163C6.69922 7.75196 7.13724 8.18999 7.67759 8.18999C8.21792 8.18999 8.65595 8.62802 8.65595 9.16836C8.65595 9.70869 8.21792 10.1467 7.67759 10.1467H6.69922" stroke="black" stroke-width="1.5" stroke-linecap="round" stroke-linejoin="round"/>
<path d="M7.67578 6.23411V5.25574" stroke="black" stroke-width="1.5" stroke-linecap="round" stroke-linejoin="round"/>
<path d="M7.67578 11.1255V10.1471" stroke="black" stroke-width="1.5" stroke-linecap="round" stroke-linejoin="round"/>
<path d="M14.3005 6.23328H13.3221C12.7818 6.23328 12.3438 6.6713 12.3438 7.21163C12.3438 7.75196 12.7818 8.18999 13.3221 8.18999C13.8625 8.18999 14.3005 8.62802 14.3005 9.16836C14.3005 9.70869 13.8625 10.1467 13.3221 10.1467H12.3438" stroke="black" stroke-width="1.5" stroke-linecap="round" stroke-linejoin="round"/>
<path d="M13.3203 6.23411V5.25574" stroke="black" stroke-width="1.5" stroke-linecap="round" stroke-linejoin="round"/>
<path d="M13.3203 11.1255V10.1471" stroke="black" stroke-width="1.5" stroke-linecap="round" stroke-linejoin="round"/>
<path d="M6.625 13.9822C7.52536 15.5469 9.60404 16.4225 11.6827 15.9379C12.8023 15.6674 13.7557 14.9555 14.3398 13.9822" stroke="black" stroke-width="1.5" stroke-linecap="round" stroke-linejoin="round"/>
</g>
<defs>
<clipPath id="clip0_146_402760">
<rect width="21" height="21" fill="white"/>
</clipPath>
</defs>
</svg>
