<svg width="21" height="21" viewBox="0 0 21 21" fill="none" xmlns="http://www.w3.org/2000/svg">
<path d="M13.9821 14.6089V17.116C13.9821 18.0776 13.2026 18.8571 12.2411 18.8571C11.2795 18.8571 10.5 18.0776 10.5 17.116V16.0714C11.1703 15.4011 12.6415 14.6089 13.9821 14.6089Z" stroke="black" stroke-width="1.5" stroke-linecap="round" stroke-linejoin="round"/>
<path d="M5.625 11.1964C5.625 13.8888 7.80761 16.0714 10.5 16.0714V17.1161C10.5 18.0777 11.2795 18.8571 12.2411 18.8571C13.2026 18.8571 13.9821 18.0777 13.9821 17.1161V14.6082C14.8438 13.7289 15.375 12.5247 15.375 11.1964H5.625Z" stroke="black" stroke-width="1.5" stroke-linecap="round" stroke-linejoin="round"/>
<path d="M17.6356 16.0714C18.8367 14.5351 19.5525 12.6011 19.5525 10.5C19.5525 5.49983 15.4991 1.44641 10.4989 1.44641C5.49874 1.44641 1.44531 5.49983 1.44531 10.5C1.44531 14.5282 4.07606 17.9419 7.71317 19.1169" stroke="black" stroke-width="1.5" stroke-linecap="round" stroke-linejoin="round"/>
<path d="M6.03906 8.23935C6.16719 7.98994 6.5681 7.5469 7.0325 7.27878C7.49691 7.01065 8.08105 6.88497 8.36109 6.89872" stroke="black" stroke-width="1.5" stroke-linecap="round" stroke-linejoin="round"/>
<path d="M12.6367 6.89677C12.9168 6.88303 13.5009 7.00871 13.9653 7.27684C14.4297 7.54496 14.8306 7.988 14.9587 8.23739" stroke="black" stroke-width="1.5" stroke-linecap="round" stroke-linejoin="round"/>
</svg>
