<svg width="21" height="21" viewBox="0 0 21 21" fill="none" xmlns="http://www.w3.org/2000/svg">
<g clip-path="url(#clip0_146_402693)">
<path d="M12.5547 8.1293C12.7725 7.77528 13.2518 7.54834 13.7166 7.54834C14.1814 7.54834 14.6607 7.77528 14.8785 8.1293" stroke="black" stroke-width="1.5" stroke-linecap="round" stroke-linejoin="round"/>
<path d="M10.1367 10.2715L10.7587 10.4066C11.7369 10.619 12.0357 11.8681 11.2596 12.5002L10.7461 12.9185L11.2596 13.3367C12.0357 13.9688 11.7369 15.2178 10.7587 15.4304L10.1367 15.5654" stroke="black" stroke-width="1.5" stroke-linecap="round" stroke-linejoin="round"/>
<path d="M7.36384 8.41066C7.17153 8.41066 7.01562 8.25476 7.01562 8.06245C7.01562 7.87014 7.17153 7.71423 7.36384 7.71423" stroke="black" stroke-width="1.5" stroke-linecap="round" stroke-linejoin="round"/>
<path d="M7.36328 8.41066C7.55559 8.41066 7.7115 8.25476 7.7115 8.06245C7.7115 7.87014 7.55559 7.71423 7.36328 7.71423" stroke="black" stroke-width="1.5" stroke-linecap="round" stroke-linejoin="round"/>
<path d="M10.4989 19.5536C15.4991 19.5536 19.5525 15.5002 19.5525 10.5C19.5525 5.49983 15.4991 1.44641 10.4989 1.44641C5.49874 1.44641 1.44531 5.49983 1.44531 10.5C1.44531 15.5002 5.49874 19.5536 10.4989 19.5536Z" stroke="black" stroke-width="1.5" stroke-linecap="round" stroke-linejoin="round"/>
</g>
<defs>
<clipPath id="clip0_146_402693">
<rect width="21" height="21" fill="white"/>
</clipPath>
</defs>
</svg>
