<svg width="21" height="21" viewBox="0 0 21 21" fill="none" xmlns="http://www.w3.org/2000/svg">
<g clip-path="url(#clip0_146_402589)">
<path d="M10.4989 19.5536C15.4991 19.5536 19.5525 15.5002 19.5525 10.5C19.5525 5.49983 15.4991 1.44641 10.4989 1.44641C5.49874 1.44641 1.44531 5.49983 1.44531 10.5C1.44531 15.5002 5.49874 19.5536 10.4989 19.5536Z" stroke="black" stroke-width="1.5" stroke-linecap="round" stroke-linejoin="round"/>
<path d="M6.32031 13.9821C6.94398 11.993 9.31391 10.7775 11.6839 11.33C13.0559 11.6615 14.1785 12.6561 14.6775 13.9821" stroke="black" stroke-width="1.5" stroke-linecap="round" stroke-linejoin="round"/>
<path d="M6.03906 8.23935C6.16719 7.98994 6.5681 7.5469 7.0325 7.27878C7.49691 7.01065 8.08105 6.88497 8.36109 6.89872" stroke="black" stroke-width="1.5" stroke-linecap="round" stroke-linejoin="round"/>
<path d="M12.6367 6.89677C12.9168 6.88303 13.5009 7.00871 13.9653 7.27684C14.4297 7.54496 14.8306 7.988 14.9587 8.23739" stroke="black" stroke-width="1.5" stroke-linecap="round" stroke-linejoin="round"/>
</g>
<defs>
<clipPath id="clip0_146_402589">
<rect width="21" height="21" fill="white"/>
</clipPath>
</defs>
</svg>
