<svg width="21" height="21" viewBox="0 0 21 21" fill="none" xmlns="http://www.w3.org/2000/svg">
<g clip-path="url(#clip0_146_402853)">
<path d="M2.46518 14.6786C1.81363 13.4285 1.44531 12.0072 1.44531 10.5C1.44531 5.49983 5.49874 1.44641 10.4989 1.44641C15.4991 1.44641 19.5525 5.49983 19.5525 10.5C19.5525 12.0072 19.1842 13.4285 18.5326 14.6786" stroke="black" stroke-width="1.5" stroke-linecap="round" stroke-linejoin="round"/>
<path d="M6.24698 14.9475C5.93389 11.7491 9.06524 11.1964 10.4972 11.1964C11.9292 11.1964 15.0605 11.7491 14.7474 14.9475C14.7195 15.2328 14.4686 15.4384 14.1821 15.4384H13.1506C13.1582 17.37 16.0686 16.9708 16.0686 18.1001C16.0686 18.1001 15.8286 19.5536 10.4972 19.5536C5.16577 19.5536 4.92578 18.1001 4.92578 18.1001C4.92578 16.9708 7.83625 17.37 7.84383 15.4384H6.81235C6.52583 15.4384 6.27489 15.2328 6.24698 14.9475Z" stroke="black" stroke-width="1.5" stroke-linecap="round" stroke-linejoin="round"/>
<path d="M13.9827 6.32141L12.5898 8.4107H15.3756" stroke="black" stroke-width="1.5" stroke-linecap="round" stroke-linejoin="round"/>
<path d="M7.01786 6.32141L8.41071 8.4107H5.625" stroke="black" stroke-width="1.5" stroke-linecap="round" stroke-linejoin="round"/>
</g>
<defs>
<clipPath id="clip0_146_402853">
<rect width="21" height="21" fill="white"/>
</clipPath>
</defs>
</svg>
