<svg width="21" height="21" viewBox="0 0 21 21" fill="none" xmlns="http://www.w3.org/2000/svg">
<path d="M8.41016 14.899V16.7678C8.41016 17.9217 9.34556 18.8571 10.4994 18.8571C11.6533 18.8571 12.5887 17.9217 12.5887 16.7678V14.9106" stroke="black" stroke-width="1.5" stroke-linecap="round" stroke-linejoin="round"/>
<path d="M6.625 13.2856C7.52536 14.8504 9.60404 15.7259 11.6827 15.2414C12.8023 14.9709 13.7557 14.2589 14.3398 13.2856" stroke="black" stroke-width="1.5" stroke-linecap="round" stroke-linejoin="round"/>
<path d="M7.36384 9.10707C7.17153 9.10707 7.01562 8.95117 7.01562 8.75886C7.01562 8.56655 7.17153 8.41064 7.36384 8.41064" stroke="black" stroke-width="1.5" stroke-linecap="round" stroke-linejoin="round"/>
<path d="M7.36328 9.10707C7.55559 9.10707 7.7115 8.95117 7.7115 8.75886C7.7115 8.56655 7.55559 8.41064 7.36328 8.41064" stroke="black" stroke-width="1.5" stroke-linecap="round" stroke-linejoin="round"/>
<path d="M12.5547 8.82571C12.7725 8.47169 13.2518 8.24475 13.7166 8.24475C14.1814 8.24475 14.6607 8.47169 14.8785 8.82571" stroke="black" stroke-width="1.5" stroke-linecap="round" stroke-linejoin="round"/>
<path d="M16.0703 17.6367C18.19 15.9798 19.5525 13.399 19.5525 10.5C19.5525 5.49983 15.4991 1.44641 10.4989 1.44641C5.49874 1.44641 1.44531 5.49983 1.44531 10.5C1.44531 13.399 2.80785 15.9798 4.92746 17.6367" stroke="black" stroke-width="1.5" stroke-linecap="round" stroke-linejoin="round"/>
</svg>
