<svg width="21" height="21" viewBox="0 0 21 21" fill="none" xmlns="http://www.w3.org/2000/svg">
<g clip-path="url(#clip0_146_403507)">
<path d="M12.6094 6.83276C12.8272 7.18679 13.3065 7.41372 13.7713 7.41372C14.2361 7.41372 14.7153 7.18679 14.9333 6.83276" stroke="black" stroke-width="1.5" stroke-linecap="round" stroke-linejoin="round"/>
<path d="M8.39025 6.83276C8.17239 7.18679 7.6931 7.41372 7.22833 7.41372C6.76356 7.41372 6.28428 7.18679 6.06641 6.83276" stroke="black" stroke-width="1.5" stroke-linecap="round" stroke-linejoin="round"/>
<path d="M10.4989 19.5536C15.4991 19.5536 19.5525 15.5002 19.5525 10.5C19.5525 5.49983 15.4991 1.44641 10.4989 1.44641C5.49874 1.44641 1.44531 5.49983 1.44531 10.5C1.44531 15.5002 5.49874 19.5536 10.4989 19.5536Z" stroke="black" stroke-width="1.5" stroke-linecap="round" stroke-linejoin="round"/>
<path d="M10.5 16.0714C13.1924 16.0714 15.375 13.8888 15.375 11.1964H5.625C5.625 13.8888 7.80761 16.0714 10.5 16.0714Z" stroke="black" stroke-width="1.5" stroke-linecap="round" stroke-linejoin="round"/>
</g>
<defs>
<clipPath id="clip0_146_403507">
<rect width="21" height="21" fill="white"/>
</clipPath>
</defs>
</svg>
