<svg width="21" height="21" viewBox="0 0 21 21" fill="none" xmlns="http://www.w3.org/2000/svg">
<g clip-path="url(#clip0_146_402612)">
<path d="M10.4989 19.5536C15.4991 19.5536 19.5525 15.5002 19.5525 10.5C19.5525 5.49983 15.4991 1.44641 10.4989 1.44641C5.49874 1.44641 1.44531 5.49983 1.44531 10.5C1.44531 15.5002 5.49874 19.5536 10.4989 19.5536Z" stroke="black" stroke-width="1.5" stroke-linecap="round" stroke-linejoin="round"/>
<path d="M5.61328 8.45104C5.9994 8.55607 6.62745 8.40369 7.14821 8.10303C7.66896 7.80238 8.11496 7.33465 8.21705 6.94775" stroke="black" stroke-width="1.5" stroke-linecap="round" stroke-linejoin="round"/>
<path d="M15.3851 8.45104C14.999 8.55607 14.3708 8.40369 13.8501 8.10303C13.3293 7.80238 12.8833 7.33465 12.7812 6.94775" stroke="black" stroke-width="1.5" stroke-linecap="round" stroke-linejoin="round"/>
<path d="M10.4989 10.5C12.8066 10.5 14.6775 12.3708 14.6775 14.6786H6.32031C6.32031 12.3708 8.19113 10.5 10.4989 10.5Z" stroke="black" stroke-width="1.5" stroke-linecap="round" stroke-linejoin="round"/>
</g>
<defs>
<clipPath id="clip0_146_402612">
<rect width="21" height="21" fill="white"/>
</clipPath>
</defs>
</svg>
