<svg width="21" height="21" viewBox="0 0 21 21" fill="none" xmlns="http://www.w3.org/2000/svg">
<g clip-path="url(#clip0_146_402728)">
<path d="M10.4989 19.5536C15.4991 19.5536 19.5525 15.5002 19.5525 10.5C19.5525 5.49983 15.4991 1.44641 10.4989 1.44641C5.49874 1.44641 1.44531 5.49983 1.44531 10.5C1.44531 15.5002 5.49874 19.5536 10.4989 19.5536Z" stroke="black" stroke-width="1.5" stroke-linecap="round" stroke-linejoin="round"/>
<path d="M6.03906 8.23935C6.16719 7.98994 6.5681 7.5469 7.0325 7.27878C7.49691 7.01065 8.08105 6.88497 8.36109 6.89872" stroke="black" stroke-width="1.5" stroke-linecap="round" stroke-linejoin="round"/>
<path d="M12.6367 6.89677C12.9168 6.88303 13.5009 7.00871 13.9653 7.27684C14.4297 7.54496 14.8306 7.988 14.9587 8.23739" stroke="black" stroke-width="1.5" stroke-linecap="round" stroke-linejoin="round"/>
<path d="M1.44531 10.5C2.37389 11.1964 5.62388 12.5893 10.4989 12.5893C15.3739 12.5893 18.6238 11.1964 19.5525 10.5" stroke="black" stroke-width="1.5" stroke-linecap="round" stroke-linejoin="round"/>
<path d="M10.4989 19.5536C12.0061 19.5536 13.4274 19.1853 14.6775 18.5338V12.2262C13.4684 12.4451 12.0678 12.5893 10.4989 12.5893C8.92998 12.5893 7.5294 12.4451 6.32031 12.2262V18.5338C7.57042 19.1853 8.99163 19.5536 10.4989 19.5536Z" stroke="black" stroke-width="1.5" stroke-linecap="round" stroke-linejoin="round"/>
</g>
<defs>
<clipPath id="clip0_146_402728">
<rect width="21" height="21" fill="white"/>
</clipPath>
</defs>
</svg>
