<svg width="21" height="21" viewBox="0 0 21 21" fill="none" xmlns="http://www.w3.org/2000/svg">
<g clip-path="url(#clip0_146_402843)">
<path d="M10.4994 15.375C11.6533 15.375 12.5887 14.2837 12.5887 12.9375C12.5887 11.5913 11.6533 10.5 10.4994 10.5C9.34556 10.5 8.41016 11.5913 8.41016 12.9375C8.41016 14.2837 9.34556 15.375 10.4994 15.375Z" stroke="black" stroke-width="1.5" stroke-linecap="round" stroke-linejoin="round"/>
<path d="M10.4989 19.5536C15.4991 19.5536 19.5525 15.5002 19.5525 10.5C19.5525 5.49983 15.4991 1.44641 10.4989 1.44641C5.49874 1.44641 1.44531 5.49983 1.44531 10.5C1.44531 15.5002 5.49874 19.5536 10.4989 19.5536Z" stroke="black" stroke-width="1.5" stroke-linecap="round" stroke-linejoin="round"/>
<path d="M7.36384 7.71425C7.17153 7.71425 7.01562 7.55835 7.01562 7.36604C7.01562 7.17372 7.17153 7.01782 7.36384 7.01782" stroke="black" stroke-width="1.5" stroke-linecap="round" stroke-linejoin="round"/>
<path d="M7.36328 7.71425C7.55559 7.71425 7.7115 7.55835 7.7115 7.36604C7.7115 7.17372 7.55559 7.01782 7.36328 7.01782" stroke="black" stroke-width="1.5" stroke-linecap="round" stroke-linejoin="round"/>
<path d="M13.6334 7.71425C13.4411 7.71425 13.2852 7.55835 13.2852 7.36604C13.2852 7.17372 13.4411 7.01782 13.6334 7.01782" stroke="black" stroke-width="1.5" stroke-linecap="round" stroke-linejoin="round"/>
<path d="M13.6328 7.71425C13.8251 7.71425 13.981 7.55835 13.981 7.36604C13.981 7.17372 13.8251 7.01782 13.6328 7.01782" stroke="black" stroke-width="1.5" stroke-linecap="round" stroke-linejoin="round"/>
</g>
<defs>
<clipPath id="clip0_146_402843">
<rect width="21" height="21" fill="white"/>
</clipPath>
</defs>
</svg>
