<svg width="20" height="20" viewBox="0 0 20 20" fill="none" xmlns="http://www.w3.org/2000/svg">
<g id="snooze-25" clip-path="url(#clip0_47_148547)">
<g id="snooze--nap-sleep-rest-break-clock-bed-time-moon">
<path id="Vector 3" d="M11.9967 6.80664H15.0067L11.8086 11.3216H15.1947" stroke="black" stroke-width="1.5" stroke-linecap="round" stroke-linejoin="round"/>
<path id="Vector 1174" d="M16.7018 12.9531H18.2435L16.6055 15.2657H18.3398" stroke="black" stroke-width="1.5" stroke-linecap="round" stroke-linejoin="round"/>
<path id="Subtract" d="M13.1189 1.99415C13.7433 2.23767 13.4746 3.15691 12.8244 3.31982C9.85829 4.06304 7.54536 6.77136 7.54536 9.99944C7.54536 13.2275 9.85829 15.9358 12.8244 16.679C13.4746 16.8419 13.7433 17.7612 13.1189 18.0048C12.1519 18.3818 11.0998 18.5887 9.99944 18.5887C5.25571 18.5887 1.41016 14.7432 1.41016 9.99944C1.41016 5.25571 5.25571 1.41016 9.99944 1.41016C11.0998 1.41016 12.1519 1.61709 13.1189 1.99415Z" stroke="black" stroke-width="1.5" stroke-linecap="round" stroke-linejoin="round"/>
</g>
</g>
<defs>
<clipPath id="clip0_47_148547">
<rect width="20" height="20" fill="white"/>
</clipPath>
</defs>
</svg>
