<svg width="20" height="20" viewBox="0 0 20 20" fill="none" xmlns="http://www.w3.org/2000/svg">
<g id="snow-cloud-22">
<g id="snow-cloud--cloud-snow-snowfall-overcast-weather-precipitation-meteorology">
<path id="Vector" d="M14.6248 11.3209C15.5009 11.3209 16.3412 10.9728 16.9608 10.3533C17.5803 9.73373 17.9284 8.89346 17.9284 8.0173C17.9284 7.14114 17.5803 6.30086 16.9608 5.68132C16.3412 5.06178 15.5009 4.71373 14.6248 4.71373C13.8713 4.71624 13.1405 4.97224 12.5502 5.44051C12.3746 4.51633 11.9395 3.66122 11.2959 2.97515C10.6523 2.28906 9.82667 1.80037 8.91558 1.56617C8.00448 1.33198 7.04553 1.36196 6.15084 1.65262C5.25616 1.94328 4.46268 2.4826 3.86317 3.20754C3.26367 3.93249 2.88291 4.8131 2.76538 5.74645C2.64787 6.6798 2.79845 7.62732 3.19953 8.47825C3.60061 9.32919 4.2356 10.0484 5.03031 10.5517C5.82503 11.0551 6.74661 11.3219 7.68732 11.3209H14.6248Z" stroke="black" stroke-width="1.5" stroke-linecap="round" stroke-linejoin="round"/>
<g id="Group 5">
<path id="Vector_2" d="M2.40067 18.5884C2.21822 18.5884 2.07031 18.4404 2.07031 18.2581C2.07031 18.0756 2.21822 17.9277 2.40067 17.9277" stroke="black" stroke-width="1.5" stroke-linecap="round" stroke-linejoin="round"/>
<path id="Vector_3" d="M2.40234 18.5884C2.58479 18.5884 2.7327 18.4404 2.7327 18.2581C2.7327 18.0756 2.58479 17.9277 2.40234 17.9277" stroke="black" stroke-width="1.5" stroke-linecap="round" stroke-linejoin="round"/>
</g>
<g id="Group 4">
<path id="Vector_4" d="M7.3577 18.5884C7.17525 18.5884 7.02734 18.4404 7.02734 18.2581C7.02734 18.0756 7.17525 17.9277 7.3577 17.9277" stroke="black" stroke-width="1.5" stroke-linecap="round" stroke-linejoin="round"/>
<path id="Vector_5" d="M7.35938 18.5884C7.54182 18.5884 7.68973 18.4404 7.68973 18.2581C7.68973 18.0756 7.54182 17.9277 7.35938 17.9277" stroke="black" stroke-width="1.5" stroke-linecap="round" stroke-linejoin="round"/>
</g>
<g id="Group 3">
<path id="Vector_6" d="M12.6429 18.5884C12.4604 18.5884 12.3125 18.4404 12.3125 18.2581C12.3125 18.0756 12.4604 17.9277 12.6429 17.9277" stroke="black" stroke-width="1.5" stroke-linecap="round" stroke-linejoin="round"/>
<path id="Vector_7" d="M12.6445 18.5884C12.827 18.5884 12.9749 18.4404 12.9749 18.2581C12.9749 18.0756 12.827 17.9277 12.6445 17.9277" stroke="black" stroke-width="1.5" stroke-linecap="round" stroke-linejoin="round"/>
</g>
<g id="Group 1">
<path id="Vector_8" d="M17.596 18.5884C17.4135 18.5884 17.2656 18.4404 17.2656 18.2581C17.2656 18.0756 17.4135 17.9277 17.596 17.9277" stroke="black" stroke-width="1.5" stroke-linecap="round" stroke-linejoin="round"/>
<path id="Vector_9" d="M17.5977 18.5884C17.7801 18.5884 17.928 18.4404 17.928 18.2581C17.928 18.0756 17.7801 17.9277 17.5977 17.9277" stroke="black" stroke-width="1.5" stroke-linecap="round" stroke-linejoin="round"/>
</g>
<g id="Group 7">
<path id="Vector_10" d="M5.0452 15.2857C4.86275 15.2857 4.71484 15.1377 4.71484 14.9554C4.71484 14.7729 4.86275 14.625 5.0452 14.625" stroke="black" stroke-width="1.5" stroke-linecap="round" stroke-linejoin="round"/>
<path id="Vector_11" d="M5.04688 15.2857C5.22932 15.2857 5.37723 15.1377 5.37723 14.9554C5.37723 14.7729 5.22932 14.625 5.04688 14.625" stroke="black" stroke-width="1.5" stroke-linecap="round" stroke-linejoin="round"/>
</g>
<g id="Group 6">
<path id="Vector_12" d="M10.3304 15.2857C10.1479 15.2857 10 15.1377 10 14.9554C10 14.7729 10.1479 14.625 10.3304 14.625" stroke="black" stroke-width="1.5" stroke-linecap="round" stroke-linejoin="round"/>
<path id="Vector_13" d="M10.332 15.2857C10.5145 15.2857 10.6624 15.1377 10.6624 14.9554C10.6624 14.7729 10.5145 14.625 10.332 14.625" stroke="black" stroke-width="1.5" stroke-linecap="round" stroke-linejoin="round"/>
</g>
<g id="Group 2">
<path id="Vector_14" d="M14.9554 15.2857C14.7729 15.2857 14.625 15.1377 14.625 14.9554C14.625 14.7729 14.7729 14.625 14.9554 14.625" stroke="black" stroke-width="1.5" stroke-linecap="round" stroke-linejoin="round"/>
<path id="Vector_15" d="M14.957 15.2857C15.1395 15.2857 15.2874 15.1377 15.2874 14.9554C15.2874 14.7729 15.1395 14.625 14.957 14.625" stroke="black" stroke-width="1.5" stroke-linecap="round" stroke-linejoin="round"/>
</g>
</g>
</g>
</svg>
