<svg width="21" height="21" viewBox="0 0 21 21" fill="none" xmlns="http://www.w3.org/2000/svg">
<path d="M2.83817 11.1964H4.23103C4.60044 11.1964 4.95471 11.3432 5.21593 11.6044C5.47713 11.8656 5.62388 12.2199 5.62388 12.5893V19.5536H1.44531V12.5893C1.44531 12.2199 1.59206 11.8656 1.85327 11.6044C2.11448 11.3432 2.46876 11.1964 2.83817 11.1964Z" stroke="black" stroke-width="1.5" stroke-linecap="round" stroke-linejoin="round"/>
<path d="M16.7679 11.1964H18.1607C18.5301 11.1964 18.8844 11.3432 19.1456 11.6044C19.4068 11.8656 19.5536 12.2199 19.5536 12.5893V19.5536H15.375V12.5893C15.375 12.2199 15.5218 11.8656 15.783 11.6044C16.0441 11.3432 16.3985 11.1964 16.7679 11.1964Z" stroke="black" stroke-width="1.5" stroke-linecap="round" stroke-linejoin="round"/>
<path d="M5.625 19.5536H15.375" stroke="black" stroke-width="1.5" stroke-linecap="round" stroke-linejoin="round"/>
<path d="M4.23047 11.1965V8.41075C4.23047 7.30252 4.67071 6.23969 5.45434 5.45605C6.23798 4.67242 7.30081 4.23218 8.40904 4.23218H12.5876C13.6958 4.23218 14.7587 4.67242 15.5423 5.45605C16.3259 6.23969 16.7662 7.30252 16.7662 8.41075V11.1965" stroke="black" stroke-width="1.5" stroke-linecap="round" stroke-linejoin="round"/>
<path d="M5.625 13.9822H15.375" stroke="black" stroke-width="1.5" stroke-linecap="round" stroke-linejoin="round"/>
</svg>
