<svg width="20" height="20" viewBox="0 0 20 20" fill="none" xmlns="http://www.w3.org/2000/svg">
<g id="spiral-shape-11">
<g id="spiral-shape">
<path id="Vector 898" d="M18.5887 8.77314V9.38666C18.5887 14.1304 14.7432 17.9759 9.99944 17.9759H9.38593C4.98104 17.9759 1.41016 14.405 1.41016 10.0002V9.12833C1.41016 5.20494 4.59069 2.02441 8.51408 2.02441C12.0451 2.02441 14.9076 4.8869 14.9076 8.41794V9.00911C14.9076 11.9283 12.5411 14.2948 9.6219 14.2948H9.38592C7.01406 14.2948 5.09127 12.372 5.09127 10.0002V9.38666C5.09127 7.35364 6.73937 5.70554 8.7724 5.70554C10.1278 5.70554 11.2265 6.80427 11.2265 8.15962V8.5102C11.2265 9.67193 10.2847 10.6137 9.12298 10.6137H8.7724" stroke="black" stroke-width="1.5" stroke-linecap="round" stroke-linejoin="round"/>
</g>
</g>
</svg>
