<svg width="20" height="20" viewBox="0 0 20 20" fill="none" xmlns="http://www.w3.org/2000/svg">
<g id="square-brackets-circle-3" clip-path="url(#clip0_47_146553)">
<g id="square-brackets-circle--interface-math-brackets-sign-mathematics">
<path id="Vector" d="M10.0011 18.2591C14.5624 18.2591 18.26 14.5614 18.26 10.0001C18.26 5.43886 14.5624 1.74121 10.0011 1.74121C5.43984 1.74121 1.74219 5.43886 1.74219 10.0001C1.74219 14.5614 5.43984 18.2591 10.0011 18.2591Z" stroke="black" stroke-width="1.5" stroke-linecap="round" stroke-linejoin="round"/>
<path id="Vector 2393" d="M8.0173 13.3034H7.35659C6.62679 13.3034 6.03516 12.7118 6.03516 11.982V8.01772C6.03516 7.28792 6.62679 6.69629 7.35659 6.69629H8.0173" stroke="black" stroke-width="1.5" stroke-linecap="round" stroke-linejoin="round"/>
<path id="Vector 2394" d="M11.9844 13.3034H12.6451C13.3749 13.3034 13.9665 12.7118 13.9665 11.982V8.01772C13.9665 7.28792 13.3749 6.69629 12.6451 6.69629H11.9844" stroke="black" stroke-width="1.5" stroke-linecap="round" stroke-linejoin="round"/>
</g>
</g>
<defs>
<clipPath id="clip0_47_146553">
<rect width="20" height="20" fill="white"/>
</clipPath>
</defs>
</svg>
