<svg width="20" height="20" viewBox="0 0 20 20" fill="none" xmlns="http://www.w3.org/2000/svg">
<g id="stamp-15" clip-path="url(#clip0_47_141488)">
<g id="stamp--design-rubber-stamp-supplies-tool">
<path id="Vector" d="M2.73047 14.625H17.2662V17.2679C17.2662 17.6183 17.1269 17.9545 16.8791 18.2022C16.6314 18.45 16.2952 18.5893 15.9448 18.5893H4.0519C3.70143 18.5893 3.36532 18.45 3.1175 18.2022C2.86969 17.9545 2.73047 17.6183 2.73047 17.2679V14.625Z" stroke="black" stroke-width="1.5" stroke-linecap="round" stroke-linejoin="round"/>
<path id="Vector_2" d="M14.6244 9.33934C14.274 9.33934 13.9379 9.20011 13.69 8.9523C13.4422 8.70448 13.303 8.36838 13.303 8.01791V4.71434C13.303 3.83818 12.955 2.99789 12.3354 2.37836C11.7159 1.75882 10.8756 1.41077 9.99944 1.41077C9.12328 1.41077 8.283 1.75882 7.66346 2.37836C7.04392 2.99789 6.69587 3.83818 6.69587 4.71434V8.01791C6.69587 8.36838 6.55664 8.70448 6.30884 8.9523C6.06102 9.20011 5.72491 9.33934 5.37444 9.33934H4.05301C3.35209 9.33934 2.67986 9.61778 2.18424 10.1134C1.6886 10.609 1.41016 11.2813 1.41016 11.9822V13.3036C1.41016 13.6541 1.54938 13.9902 1.79719 14.238C2.04501 14.4858 2.38112 14.6251 2.73158 14.6251H17.2673C17.6177 14.6251 17.9539 14.4858 18.2017 14.238C18.4494 13.9902 18.5887 13.6541 18.5887 13.3036V11.9822C18.5887 11.2813 18.3103 10.609 17.8146 10.1134C17.319 9.61778 16.6468 9.33934 15.9459 9.33934H14.6244Z" stroke="black" stroke-width="1.5" stroke-linecap="round" stroke-linejoin="round"/>
</g>
</g>
<defs>
<clipPath id="clip0_47_141488">
<rect width="20" height="20" fill="white"/>
</clipPath>
</defs>
</svg>
