<svg width="20" height="20" viewBox="0 0 20 20" fill="none" xmlns="http://www.w3.org/2000/svg">
<g id="star-medal-2-7">
<g id="star-medal-2--star-medal-ribbon-reward-like-social-rating-media">
<path id="Ellipse 20" d="M14.9576 13.6331C14.9576 16.3699 12.739 18.5884 10.0022 18.5884C7.26546 18.5884 5.04688 16.3699 5.04688 13.6331C5.04687 10.8963 7.26546 8.67773 10.0022 8.67773C12.739 8.67773 14.9576 10.8963 14.9576 13.6331Z" stroke="black" stroke-width="1.5" stroke-linecap="round" stroke-linejoin="round"/>
<path id="Vector" d="M10.1908 11.0672L10.8279 12.3488C10.8422 12.3812 10.8648 12.4093 10.8934 12.4301C10.922 12.4509 10.9557 12.4638 10.9909 12.4673L12.4058 12.6822C12.4463 12.6874 12.4844 12.7041 12.5157 12.7302C12.547 12.7564 12.5703 12.7909 12.5827 12.8297C12.5951 12.8686 12.5963 12.9102 12.5859 12.9496C12.5756 12.9891 12.5542 13.0248 12.5243 13.0526L11.4798 14.0452C11.4642 14.075 11.4561 14.108 11.4561 14.1416C11.4561 14.1751 11.4642 14.2082 11.4798 14.2379L11.6798 15.6453C11.6884 15.686 11.6849 15.7283 11.6699 15.7671C11.6549 15.8059 11.6289 15.8395 11.5952 15.8638C11.5615 15.8881 11.5214 15.9021 11.4799 15.9041C11.4384 15.9061 11.3972 15.896 11.3613 15.875L10.1019 15.2084C10.0693 15.1936 10.034 15.186 9.99822 15.186C9.96245 15.186 9.92711 15.1936 9.89452 15.2084L8.63516 15.875C8.59925 15.896 8.55804 15.9061 8.51652 15.9041C8.475 15.9021 8.43495 15.8881 8.40124 15.8638C8.36752 15.8395 8.34158 15.8059 8.32655 15.7671C8.31153 15.7283 8.30808 15.686 8.31661 15.6453L8.55367 14.2379C8.56387 14.2051 8.56581 14.1705 8.55935 14.1369C8.55289 14.1032 8.53822 14.0718 8.51663 14.0452L7.4721 13.0452C7.44439 13.0171 7.42495 12.982 7.4159 12.9436C7.40684 12.9052 7.40853 12.865 7.42076 12.8276C7.43301 12.7901 7.45533 12.7567 7.48529 12.731C7.51526 12.7054 7.55171 12.6885 7.59063 12.6822L9.00555 12.4748C9.04078 12.4712 9.07443 12.4583 9.10306 12.4375C9.1317 12.4167 9.15428 12.3886 9.16853 12.3562L9.80561 11.0746C9.82266 11.0384 9.84952 11.0076 9.88315 10.9858C9.91678 10.9639 9.95585 10.952 9.99593 10.9512C10.036 10.9504 10.0755 10.9609 10.1099 10.9814C10.1444 11.0019 10.1724 11.0316 10.1908 11.0672Z" stroke="black" stroke-width="1.5" stroke-linecap="round" stroke-linejoin="round"/>
<path id="Vector 2770" d="M6.37677 10.2534L4.77057 4.89949C4.73362 4.77631 4.71484 4.6484 4.71484 4.51978V2.73158C4.71484 2.00178 5.30647 1.41016 6.03627 1.41016H13.9648C14.6947 1.41016 15.2863 2.00178 15.2863 2.73158V4.51978C15.2863 4.6484 15.2675 4.77631 15.2305 4.89949L13.6244 10.2534" stroke="black" stroke-width="1.5" stroke-linecap="round" stroke-linejoin="round"/>
<path id="Vector 2771" d="M10 8.67801V1.41016" stroke="black" stroke-width="1.5" stroke-linecap="round" stroke-linejoin="round"/>
</g>
</g>
</svg>
