<svg width="21" height="21" viewBox="0 0 21 21" fill="none" xmlns="http://www.w3.org/2000/svg">
<g clip-path="url(#clip0_146_398459)">
<path d="M8.7021 6.75306C6.02781 4.92842 3.5346 6.32127 1.44531 8.46627L6.0696 11.252" stroke="black" stroke-width="1.5" stroke-linecap="round" stroke-linejoin="round"/>
<path d="M14.245 12.2969C16.0697 14.9711 14.6768 17.4643 12.5318 19.5536L9.74609 14.9293" stroke="black" stroke-width="1.5" stroke-linecap="round" stroke-linejoin="round"/>
<path d="M6.07031 11.2383L9.76138 14.9294C12.7142 13.1605 16.071 11.4472 17.6032 9.85939C20.9182 6.54439 18.996 2.00368 18.996 2.00368C18.996 2.00368 14.4553 0.0815352 11.1403 3.39653C9.55246 4.92867 7.82531 8.2994 6.07031 11.2383Z" stroke="black" stroke-width="1.5" stroke-linecap="round" stroke-linejoin="round"/>
<path d="M8.10156 7.74219L13.2551 12.8958" stroke="black" stroke-width="1.5" stroke-linecap="round" stroke-linejoin="round"/>
<path d="M15.3722 6.32145C15.7568 6.32145 16.0686 6.00964 16.0686 5.62502C16.0686 5.24039 15.7568 4.92859 15.3722 4.92859C14.9876 4.92859 14.6758 5.24039 14.6758 5.62502C14.6758 6.00964 14.9876 6.32145 15.3722 6.32145Z" stroke="black" stroke-width="1.5" stroke-linecap="round" stroke-linejoin="round"/>
<path d="M5.8746 18.077C5.06674 18.857 1.44531 19.5534 1.44531 19.5534C1.44531 19.5534 2.14174 15.932 2.92174 15.1241C3.11301 14.919 3.34367 14.7543 3.59995 14.6401C3.85624 14.5259 4.1329 14.4645 4.41342 14.4596C4.69396 14.4546 4.97261 14.5062 5.23277 14.6113C5.49291 14.7163 5.72924 14.8727 5.92764 15.0712C6.12602 15.2696 6.28243 15.5059 6.38752 15.7661C6.49259 16.0262 6.5442 16.3049 6.53924 16.5854C6.5343 16.8659 6.4729 17.1425 6.3587 17.3988C6.24451 17.6551 6.07986 17.8858 5.8746 18.077Z" stroke="black" stroke-width="1.5" stroke-linecap="round" stroke-linejoin="round"/>
</g>
<defs>
<clipPath id="clip0_146_398459">
<rect width="21" height="21" fill="white"/>
</clipPath>
</defs>
</svg>
