<svg width="20" height="20" viewBox="0 0 20 20" fill="none" xmlns="http://www.w3.org/2000/svg">
<g id="star-square-7" clip-path="url(#clip0_47_143293)">
<g id="star-square--reward-social-rating-media-rate-it-star">
<path id="Vector" d="M17.2673 1.41077H2.73158C2.00178 1.41077 1.41016 2.00239 1.41016 2.7322V17.2679C1.41016 17.9977 2.00178 18.5893 2.73158 18.5893H17.2673C17.9971 18.5893 18.5887 17.9977 18.5887 17.2679V2.7322C18.5887 2.00239 17.9971 1.41077 17.2673 1.41077Z" stroke="black" stroke-width="1.5" stroke-linecap="round" stroke-linejoin="round"/>
<path id="Vector_2" d="M10.343 5.79785L11.4794 8.08392C11.5048 8.14174 11.5451 8.19178 11.5962 8.22892C11.6472 8.26607 11.7073 8.289 11.7701 8.29535L14.294 8.67857C14.3662 8.68795 14.4342 8.7177 14.49 8.7643C14.5459 8.81092 14.5874 8.87247 14.6096 8.94178C14.6318 9.01109 14.6338 9.08528 14.6153 9.15567C14.5969 9.22606 14.5587 9.28974 14.5055 9.33928L12.6422 11.11C12.6145 11.163 12.5999 11.2219 12.5999 11.2818C12.5999 11.3416 12.6145 11.4006 12.6422 11.4536L12.999 13.9643C13.0142 14.0368 13.0081 14.1123 12.9813 14.1814C12.9545 14.2505 12.9082 14.3105 12.8481 14.3538C12.7879 14.3972 12.7165 14.4222 12.6424 14.4257C12.5684 14.4293 12.4948 14.4113 12.4308 14.3739L10.1844 13.1846C10.1262 13.1584 10.0632 13.1448 9.99938 13.1448C9.93558 13.1448 9.87251 13.1584 9.81438 13.1846L7.56796 14.3739C7.50391 14.4113 7.43039 14.4293 7.35634 14.4257C7.28228 14.4222 7.21084 14.3972 7.15069 14.3538C7.09054 14.3105 7.04426 14.2505 7.01746 14.1814C6.99068 14.1123 6.98452 14.0368 6.99974 13.9643L7.4226 11.4536C7.44078 11.3953 7.44426 11.3334 7.43273 11.2735C7.42121 11.2135 7.39502 11.1574 7.35653 11.11L5.49331 9.32607C5.44389 9.276 5.4092 9.2133 5.39306 9.14483C5.37689 9.07636 5.37991 9.00477 5.40174 8.9379C5.42358 8.87102 5.4634 8.81145 5.51685 8.7657C5.57029 8.71997 5.6353 8.68981 5.70474 8.67857L8.22867 8.30857C8.2915 8.30221 8.35152 8.27928 8.4026 8.24214C8.45367 8.20499 8.49397 8.15495 8.51938 8.09714L9.65581 5.81107C9.68622 5.74636 9.73412 5.69144 9.79411 5.65252C9.85411 5.61362 9.92378 5.59227 9.99527 5.59089C10.0668 5.58952 10.1372 5.60818 10.1987 5.64475C10.2601 5.68132 10.3101 5.73436 10.343 5.79785Z" stroke="black" stroke-width="1.5" stroke-linecap="round" stroke-linejoin="round"/>
</g>
</g>
<defs>
<clipPath id="clip0_47_143293">
<rect width="20" height="20" fill="white"/>
</clipPath>
</defs>
</svg>
