<svg width="20" height="20" viewBox="0 0 20 20" fill="none" xmlns="http://www.w3.org/2000/svg">
<g id="star-1-2">
<g id="star-1--reward-rating-rate-social-star-media-favorite-like-stars">
<path id="Vector" d="M10.6485 2.1903L12.7495 6.43209C12.7973 6.53976 12.8725 6.63301 12.9676 6.70257C13.0626 6.77212 13.1743 6.81555 13.2913 6.82852L17.9295 7.51566C18.0638 7.53292 18.1904 7.58803 18.2947 7.67457C18.3988 7.7611 18.4761 7.87547 18.5177 8.00434C18.5592 8.1332 18.5633 8.27124 18.5293 8.40231C18.4954 8.53338 18.4248 8.6521 18.326 8.74459L14.9828 12.0614C14.8974 12.1411 14.8334 12.2409 14.7964 12.3517C14.7596 12.4624 14.7508 12.5807 14.7713 12.6957L15.5774 17.3603C15.6008 17.4943 15.586 17.6323 15.5348 17.7583C15.4837 17.8844 15.3981 17.9936 15.288 18.0734C15.1778 18.1532 15.0475 18.2006 14.9118 18.21C14.7761 18.2194 14.6404 18.1906 14.5203 18.1268L10.3445 15.92C10.2376 15.8675 10.1201 15.8402 10.001 15.8402C9.88186 15.8402 9.76433 15.8675 9.6574 15.92L5.48168 18.1268C5.36155 18.1906 5.22591 18.2194 5.09018 18.21C4.95446 18.2006 4.8241 18.1532 4.71396 18.0734C4.60381 17.9936 4.51828 17.8844 4.46712 17.7583C4.41595 17.6323 4.4012 17.4943 4.42454 17.3603L5.23061 12.6428C5.25104 12.5278 5.2424 12.4096 5.20548 12.2988C5.16854 12.188 5.10451 12.0882 5.01918 12.0085L1.63633 8.74459C1.53625 8.64958 1.46586 8.52757 1.43371 8.39336C1.40155 8.25917 1.409 8.11852 1.45514 7.98847C1.50129 7.85841 1.58417 7.74453 1.69372 7.66061C1.80328 7.5767 1.93481 7.52634 2.0724 7.51566L6.71061 6.82852C6.82769 6.81555 6.93932 6.77212 7.03439 6.70257C7.12944 6.63301 7.20461 6.53976 7.2524 6.43209L9.35347 2.1903C9.41069 2.06676 9.50205 1.96217 9.61679 1.88886C9.73152 1.81556 9.86482 1.77661 10.001 1.77661C10.1371 1.77661 10.2704 1.81556 10.3852 1.88886C10.4999 1.96217 10.5913 2.06676 10.6485 2.1903Z" stroke="black" stroke-width="1.5" stroke-linecap="round" stroke-linejoin="round"/>
</g>
</g>
</svg>
