<svg width="21" height="21" viewBox="0 0 21 21" fill="none" xmlns="http://www.w3.org/2000/svg">
<g clip-path="url(#clip0_146_398467)">
<path d="M1.44531 19.5535L8.4096 12.5892" stroke="black" stroke-width="1.5" stroke-linecap="round" stroke-linejoin="round"/>
<path d="M2.14174 13.9821C2.52636 13.9821 2.83817 13.6703 2.83817 13.2857C2.83817 12.901 2.52636 12.5892 2.14174 12.5892C1.75711 12.5892 1.44531 12.901 1.44531 13.2857C1.44531 13.6703 1.75711 13.9821 2.14174 13.9821Z" stroke="black" stroke-width="1.5" stroke-linecap="round" stroke-linejoin="round"/>
<path d="M7.71205 19.5535C8.09668 19.5535 8.40848 19.2416 8.40848 18.8571C8.40848 18.4725 8.09668 18.1606 7.71205 18.1606C7.32743 18.1606 7.01562 18.4725 7.01562 18.8571C7.01562 19.2416 7.32743 19.5535 7.71205 19.5535Z" stroke="black" stroke-width="1.5" stroke-linecap="round" stroke-linejoin="round"/>
<path d="M4.23047 9.80355V2.83927C4.23047 2.46985 4.37722 2.11558 4.63842 1.85437C4.89964 1.59316 5.25391 1.44641 5.62333 1.44641H14.6769L19.5519 6.32141V18.1607C19.5519 18.5301 19.4051 18.8844 19.1439 19.1456C18.8828 19.4067 18.5284 19.5536 18.159 19.5536H11.8912" stroke="black" stroke-width="1.5" stroke-linecap="round" stroke-linejoin="round"/>
</g>
<defs>
<clipPath id="clip0_146_398467">
<rect width="21" height="21" fill="white"/>
</clipPath>
</defs>
</svg>
