<svg width="21" height="21" viewBox="0 0 21 21" fill="none" xmlns="http://www.w3.org/2000/svg">
<path d="M10.4994 12.5893C11.6533 12.5893 12.5887 11.6539 12.5887 10.5001C12.5887 9.34617 11.6533 8.41077 10.4994 8.41077C9.34556 8.41077 8.41016 9.34617 8.41016 10.5001C8.41016 11.6539 9.34556 12.5893 10.4994 12.5893Z" stroke="black" stroke-width="1.5" stroke-linecap="round" stroke-linejoin="round"/>
<path d="M3.5346 12.5893C4.68848 12.5893 5.62388 11.6539 5.62388 10.5001C5.62388 9.34617 4.68848 8.41077 3.5346 8.41077C2.38071 8.41077 1.44531 9.34617 1.44531 10.5001C1.44531 11.6539 2.38071 12.5893 3.5346 12.5893Z" stroke="black" stroke-width="1.5" stroke-linecap="round" stroke-linejoin="round"/>
<path d="M17.4643 12.5893C18.6181 12.5893 19.5536 11.6539 19.5536 10.5001C19.5536 9.34617 18.6181 8.41077 17.4643 8.41077C16.3104 8.41077 15.375 9.34617 15.375 10.5001C15.375 11.6539 16.3104 12.5893 17.4643 12.5893Z" stroke="black" stroke-width="1.5" stroke-linecap="round" stroke-linejoin="round"/>
<path d="M5.625 10.5H8.41071" stroke="black" stroke-width="1.5" stroke-linecap="round" stroke-linejoin="round"/>
<path d="M12.5898 10.5H15.3756" stroke="black" stroke-width="1.5" stroke-linecap="round" stroke-linejoin="round"/>
</svg>
