<svg width="21" height="21" viewBox="0 0 21 21" fill="none" xmlns="http://www.w3.org/2000/svg">
<path d="M10.5006 13.2857C12.0391 13.2857 13.2863 12.0385 13.2863 10.4999C13.2863 8.96144 12.0391 7.71423 10.5006 7.71423C8.96205 7.71423 7.71484 8.96144 7.71484 10.4999C7.71484 12.0385 8.96205 13.2857 10.5006 13.2857Z" stroke="black" stroke-width="1.5" stroke-linecap="round" stroke-linejoin="round"/>
<path d="M3.18638 12.2411C4.14796 12.2411 4.92746 11.4616 4.92746 10.5C4.92746 9.53841 4.14796 8.75891 3.18638 8.75891C2.22481 8.75891 1.44531 9.53841 1.44531 10.5C1.44531 11.4616 2.22481 12.2411 3.18638 12.2411Z" stroke="black" stroke-width="1.5" stroke-linecap="round" stroke-linejoin="round"/>
<path d="M17.8114 12.2411C18.773 12.2411 19.5525 11.4616 19.5525 10.5C19.5525 9.53841 18.773 8.75891 17.8114 8.75891C16.8498 8.75891 16.0703 9.53841 16.0703 10.5C16.0703 11.4616 16.8498 12.2411 17.8114 12.2411Z" stroke="black" stroke-width="1.5" stroke-linecap="round" stroke-linejoin="round"/>
<path d="M4.92578 10.5H7.7115" stroke="black" stroke-width="1.5" stroke-linecap="round" stroke-linejoin="round"/>
<path d="M13.2852 10.5H16.0709" stroke="black" stroke-width="1.5" stroke-linecap="round" stroke-linejoin="round"/>
</svg>
