<svg width="21" height="21" viewBox="0 0 21 21" fill="none" xmlns="http://www.w3.org/2000/svg">
<g clip-path="url(#clip0_146_398473)">
<path d="M17.8125 3.27105V1.44641" stroke="black" stroke-width="1.5" stroke-linecap="round" stroke-linejoin="round"/>
<path d="M16.0703 8.14612C16.0703 9.0654 16.8085 9.37183 17.8114 9.37183C18.8142 9.37183 19.5525 9.37183 19.5525 8.14612C19.5525 6.32148 16.0703 6.32148 16.0703 4.49683C16.0703 3.27112 16.8085 3.27112 17.8114 3.27112C18.8142 3.27112 19.5525 3.73076 19.5525 4.49683" stroke="black" stroke-width="1.5" stroke-linecap="round" stroke-linejoin="round"/>
<path d="M17.8125 9.3717V11.1963" stroke="black" stroke-width="1.5" stroke-linecap="round" stroke-linejoin="round"/>
<path d="M4.23103 5.625H2.83817C2.06892 5.625 1.44531 6.24861 1.44531 7.01786V13.2857C1.44531 14.055 2.06892 14.6786 2.83817 14.6786H4.23103C5.00027 14.6786 5.62388 14.055 5.62388 13.2857V7.01786C5.62388 6.24861 5.00027 5.625 4.23103 5.625Z" stroke="black" stroke-width="1.5" stroke-linecap="round" stroke-linejoin="round"/>
<path d="M3.53516 14.6786V16.7679" stroke="black" stroke-width="1.5" stroke-linecap="round" stroke-linejoin="round"/>
<path d="M3.53516 5.62498V1.44641" stroke="black" stroke-width="1.5" stroke-linecap="round" stroke-linejoin="round"/>
<path d="M11.8912 11.1964H10.4983C9.72908 11.1964 9.10547 11.82 9.10547 12.5893V14.6786C9.10547 15.4478 9.72908 16.0714 10.4983 16.0714H11.8912C12.6604 16.0714 13.284 15.4478 13.284 14.6786V12.5893C13.284 11.82 12.6604 11.1964 11.8912 11.1964Z" stroke="black" stroke-width="1.5" stroke-linecap="round" stroke-linejoin="round"/>
<path d="M11.1953 16.0714V19.5536" stroke="black" stroke-width="1.5" stroke-linecap="round" stroke-linejoin="round"/>
<path d="M11.1953 11.1964V6.32141" stroke="black" stroke-width="1.5" stroke-linecap="round" stroke-linejoin="round"/>
</g>
<defs>
<clipPath id="clip0_146_398473">
<rect width="21" height="21" fill="white"/>
</clipPath>
</defs>
</svg>
