<svg width="20" height="20" viewBox="0 0 20 20" fill="none" xmlns="http://www.w3.org/2000/svg">
<g id="story-button-5" clip-path="url(#clip0_47_147532)">
<g id="story-button">
<path id="Ellipse 299" d="M5.04297 10.0002C5.04297 11.3302 5.56533 12.6057 6.49513 13.5462C7.42494 14.4866 8.68603 15.015 10.001 15.015C11.3159 15.015 12.577 14.4866 13.5068 13.5462C14.4366 12.6057 14.959 11.3302 14.959 10.0002C14.959 8.67016 14.4366 7.39462 13.5068 6.45416C12.577 5.5137 11.3159 4.98535 10.001 4.98535C8.68603 4.98535 7.42494 5.5137 6.49513 6.45416C5.56533 7.39462 5.04297 8.67016 5.04297 10.0002Z" stroke="black" stroke-width="1.5" stroke-linecap="round" stroke-linejoin="round"/>
<path id="Ellipse 300" d="M1.55659 8.8623C1.51408 9.20712 1.49219 9.55831 1.49219 9.91464C1.49219 10.2709 1.51408 10.6222 1.55659 10.967" stroke="black" stroke-width="1.5" stroke-linecap="round" stroke-linejoin="round"/>
<path id="Ellipse 305" d="M4.86719 3.12753C5.14456 2.91831 5.43775 2.72374 5.74633 2.54558C6.05491 2.36743 6.37001 2.21079 6.68989 2.0752" stroke="black" stroke-width="1.5" stroke-linecap="round" stroke-linejoin="round"/>
<path id="Ellipse 303" d="M2.16406 6.60297C2.29964 6.28309 2.45628 5.96799 2.63445 5.65942C2.81261 5.35084 3.00716 5.05763 3.2164 4.78027" stroke="black" stroke-width="1.5" stroke-linecap="round" stroke-linejoin="round"/>
<path id="Ellipse 306" d="M10.0168 1.41113C14.7071 1.41113 18.5095 5.25669 18.5095 10.0004C18.5095 14.7442 14.7071 18.5897 10.0168 18.5897C6.7846 18.5897 3.97416 16.7636 2.53906 14.0758" stroke="black" stroke-width="1.5" stroke-linecap="round" stroke-linejoin="round"/>
</g>
</g>
<defs>
<clipPath id="clip0_47_147532">
<rect width="20" height="20" fill="white"/>
</clipPath>
</defs>
</svg>
