<svg width="20" height="20" viewBox="0 0 20 20" fill="none" xmlns="http://www.w3.org/2000/svg">
<g id="story-post-7" clip-path="url(#clip0_47_147539)">
<g id="story-post">
<path id="Vector" d="M10 6.69727V13.3044" stroke="black" stroke-width="1.5" stroke-linecap="round"/>
<path id="Vector_2" d="M6.69922 10H13.3064" stroke="black" stroke-width="1.5" stroke-linecap="round"/>
<path id="Ellipse 300" d="M1.55659 8.8623C1.51408 9.20712 1.49219 9.55831 1.49219 9.91464C1.49219 10.2709 1.51408 10.6222 1.55659 10.967" stroke="black" stroke-width="1.5" stroke-linecap="round" stroke-linejoin="round"/>
<path id="Ellipse 305" d="M4.94531 3.01815C5.22267 2.80893 5.51588 2.61436 5.82446 2.43621C6.13304 2.25805 6.44813 2.10141 6.76801 1.96582" stroke="black" stroke-width="1.5" stroke-linecap="round" stroke-linejoin="round"/>
<path id="Ellipse 303" d="M2.16406 6.60297C2.29964 6.28309 2.45628 5.96799 2.63445 5.65942C2.81261 5.35084 3.00716 5.05763 3.2164 4.78027" stroke="black" stroke-width="1.5" stroke-linecap="round" stroke-linejoin="round"/>
<path id="Ellipse 306" d="M10.0168 1.41113C14.7071 1.41113 18.5095 5.25669 18.5095 10.0004C18.5095 14.7442 14.7071 18.5897 10.0168 18.5897C6.7846 18.5897 3.97416 16.7636 2.53906 14.0758" stroke="black" stroke-width="1.5" stroke-linecap="round" stroke-linejoin="round"/>
</g>
</g>
<defs>
<clipPath id="clip0_47_147539">
<rect width="20" height="20" fill="white"/>
</clipPath>
</defs>
</svg>
