<svg width="20" height="20" viewBox="0 0 20 20" fill="none" xmlns="http://www.w3.org/2000/svg">
<g id="sun-2" clip-path="url(#clip0_47_149663)">
<g id="sun--photos-light-camera-mode-brightness-sun-photo-full">
<path id="Vector" d="M9.99888 13.3025C11.8234 13.3025 13.3025 11.8234 13.3025 9.99888C13.3025 8.17437 11.8234 6.69531 9.99888 6.69531C8.17437 6.69531 6.69531 8.17437 6.69531 9.99888C6.69531 11.8234 8.17437 13.3025 9.99888 13.3025Z" stroke="black" stroke-width="1.5" stroke-linecap="round" stroke-linejoin="round"/>
<path id="Vector_2" d="M18.5887 9.99944L15.4966 12.2723L16.078 16.078L12.2723 15.4966L9.99944 18.5887L7.72658 15.4966L3.92087 16.078L4.5023 12.2723L1.41016 9.99944L4.5023 7.72658L3.92087 3.92087L7.72658 4.5023L9.99944 1.41016L12.2723 4.5023L16.078 3.92087L15.4966 7.72658L18.5887 9.99944Z" stroke="black" stroke-width="1.5" stroke-linecap="round" stroke-linejoin="round"/>
</g>
</g>
<defs>
<clipPath id="clip0_47_149663">
<rect width="20" height="20" fill="white"/>
</clipPath>
</defs>
</svg>
