<svg width="20" height="20" viewBox="0 0 20 20" fill="none" xmlns="http://www.w3.org/2000/svg">
<g id="swipe-right-29">
<g id="swipe-right">
<path id="Vector 107" d="M4.94929 18.1783L2.0662 13.1635C1.81119 12.7199 1.90093 12.1585 2.28149 11.8165C2.71809 11.4242 3.38758 11.4505 3.79201 11.8759L5.85371 14.0444V6.12811C5.85371 5.32817 6.5022 4.67969 7.30214 4.67969C8.10208 4.67969 8.75056 5.32817 8.75056 6.12811V11.1591L10.2697 11.1143C12.3075 11.0544 13.9396 12.7888 13.756 14.8192L13.4522 18.1783" stroke="black" stroke-width="1.5" stroke-linecap="round" stroke-linejoin="round"/>
<path id="Ellipse 303" d="M11.8719 7.53811C11.9511 7.19785 11.9929 6.84325 11.9929 6.4789C11.9929 3.90711 9.9081 1.82227 7.33631 1.82227C4.76453 1.82227 2.67969 3.90711 2.67969 6.4789C2.67969 6.84325 2.72154 7.19785 2.80069 7.53811" stroke="black" stroke-width="1.5" stroke-linecap="round" stroke-linejoin="round"/>
<path id="Vector 721" d="M11.1641 3.81592H16.7944" stroke="black" stroke-width="1.5" stroke-linecap="round" stroke-linejoin="round"/>
<path id="Vector 722" d="M14.6328 1.82227L16.793 3.81277L14.6328 5.80326" stroke="black" stroke-width="1.5" stroke-linecap="round" stroke-linejoin="round"/>
</g>
</g>
</svg>
