<svg width="20" height="20" viewBox="0 0 20 20" fill="none" xmlns="http://www.w3.org/2000/svg">
<g id="symmetry-mirror-51" clip-path="url(#clip0_47_141492)">
<g id="symmetry-mirror">
<path id="Vector 917" d="M10 9.42188V10.5781" stroke="black" stroke-width="1.5" stroke-linecap="round" stroke-linejoin="round"/>
<path id="Vector 918" d="M10 5.56799V6.72424" stroke="black" stroke-width="1.5" stroke-linecap="round" stroke-linejoin="round"/>
<path id="Vector 921" d="M10 13.2765V14.4328" stroke="black" stroke-width="1.5" stroke-linecap="round" stroke-linejoin="round"/>
<path id="Vector 922" d="M10 17.1305V18.2867" stroke="black" stroke-width="1.5" stroke-linecap="round" stroke-linejoin="round"/>
<path id="Vector 919" d="M10 1.71338V2.86962" stroke="black" stroke-width="1.5" stroke-linecap="round" stroke-linejoin="round"/>
<path id="Subtract" d="M12.4453 10.8309V3.72021C12.4453 2.7787 13.0443 1.88562 13.9858 1.88562C16.5289 1.88562 18.5905 3.9472 18.5905 6.49028C18.5905 8.43303 17.3873 10.0948 15.6855 10.7711L15.6845 10.7637C16.6699 11.4849 17.3098 12.6501 17.3098 13.9647C17.3098 16.154 15.5348 17.929 13.3454 17.929C12.8138 17.929 12.4453 17.45 12.4453 16.9184V10.8309Z" stroke="black" stroke-width="1.5" stroke-linecap="round" stroke-linejoin="round"/>
<path id="Subtract_2" d="M7.55531 10.8309V3.72021C7.55531 2.7787 6.95631 1.88562 6.01482 1.88562C3.47173 1.88562 1.41016 3.9472 1.41016 6.49028C1.41016 8.43303 2.61329 10.0948 4.3151 10.7711L4.31604 10.7637C3.33077 11.4849 2.6909 12.6501 2.6909 13.9647C2.6909 16.154 4.46577 17.929 6.65518 17.929C7.1868 17.929 7.55531 17.45 7.55531 16.9184V10.8309Z" stroke="black" stroke-width="1.5" stroke-linecap="round" stroke-linejoin="round"/>
</g>
</g>
<defs>
<clipPath id="clip0_47_141492">
<rect width="20" height="20" fill="white"/>
</clipPath>
</defs>
</svg>
