<svg width="20" height="20" viewBox="0 0 20 20" fill="none" xmlns="http://www.w3.org/2000/svg">
<g clip-path="url(#clip0_48_150809)">
<path d="M13.303 16.6072H9.99944C5.25571 16.6072 1.41016 15.1282 1.41016 13.3037C1.41016 12.3253 2.51605 11.4462 4.2733 10.8413" stroke="black" stroke-width="1.5" stroke-linecap="round" stroke-linejoin="round"/>
<path d="M15.9467 15.6877C17.5756 15.0865 18.5896 14.2406 18.5896 13.3038C18.5896 12.3254 17.4838 11.4463 15.7266 10.8414" stroke="black" stroke-width="1.5" stroke-linecap="round" stroke-linejoin="round"/>
<path d="M11.3203 14.625L13.3025 16.6071L11.3203 18.5893" stroke="black" stroke-width="1.5" stroke-linecap="round" stroke-linejoin="round"/>
<path d="M14.625 6.07463C14.625 9.18387 10 13.3036 10 13.3036C10 13.3036 5.375 9.18387 5.375 6.07463C5.375 3.49885 7.44568 1.41077 10 1.41077C12.5543 1.41077 14.625 3.49885 14.625 6.07463Z" stroke="black" stroke-width="1.5" stroke-linecap="round" stroke-linejoin="round"/>
<path d="M9.33984 6.03571C9.33984 6.21095 9.40945 6.379 9.53336 6.50291C9.65727 6.62682 9.82533 6.69643 10.0006 6.69643C10.1758 6.69643 10.3438 6.62682 10.4678 6.50291C10.5917 6.379 10.6613 6.21095 10.6613 6.03571C10.6613 5.86048 10.5917 5.69243 10.4678 5.56852C10.3438 5.44461 10.1758 5.375 10.0006 5.375C9.82533 5.375 9.65727 5.44461 9.53336 5.56852C9.40945 5.69243 9.33984 5.86048 9.33984 6.03571Z" stroke="black" stroke-width="1.5" stroke-linecap="round" stroke-linejoin="round"/>
</g>
<defs>
<clipPath id="clip0_48_150809">
<rect width="20" height="20" fill="white"/>
</clipPath>
</defs>
</svg>
