<svg width="20" height="20" viewBox="0 0 20 20" fill="none" xmlns="http://www.w3.org/2000/svg">
<g id="synchronize-disable-5" clip-path="url(#clip0_47_143138)">
<g id="synchronize-disable--arrows-loading-load-sync-synchronize-arrow-reload">
<path id="Vector" d="M7.35714 15.2858L8.01786 17.9286L5.375 18.5893" stroke="black" stroke-width="1.5" stroke-linecap="round" stroke-linejoin="round"/>
<path id="Vector_2" d="M8.01674 17.9285C6.35358 17.3415 4.90137 16.2754 3.84315 14.8645C2.78494 13.4535 2.16807 11.7608 2.07031 9.99985C2.07009 8.73755 2.37116 7.49889 2.94183 6.38453M7.28996 2.547C6.1969 2.94438 5.21015 3.57525 4.39519 4.38943" stroke="black" stroke-width="1.5" stroke-linecap="round" stroke-linejoin="round"/>
<path id="Vector_3" d="M12.6412 4.71434L11.9805 2.07148L14.6233 1.41077" stroke="black" stroke-width="1.5" stroke-linecap="round" stroke-linejoin="round"/>
<path id="Vector_4" d="M11.9805 2.07153C15.0198 3.18153 17.9269 6.59082 17.9269 10.0001C17.9223 11.6359 17.4118 13.2302 16.4655 14.5645C16.216 14.9163 15.9393 15.2456 15.639 15.5497M12.6412 17.453C12.9318 17.3502 13.2151 17.231 13.4899 17.0962" stroke="black" stroke-width="1.5" stroke-linecap="round" stroke-linejoin="round"/>
<path id="Vector 1002" d="M1.41016 1.41077L18.5887 18.5893" stroke="black" stroke-width="1.5" stroke-linecap="round" stroke-linejoin="round"/>
</g>
</g>
<defs>
<clipPath id="clip0_47_143138">
<rect width="20" height="20" fill="white"/>
</clipPath>
</defs>
</svg>
