<svg width="20" height="20" viewBox="0 0 20 20" fill="none" xmlns="http://www.w3.org/2000/svg">
<g id="table-lamp-1-6" clip-path="url(#clip0_47_146005)">
<g id="table-lamp-1--lighting-light-incandescent-bulb-lights-table-lamp">
<path id="Vector" d="M9.33894 4.7147V2.73256C9.33894 2.38209 9.19972 2.04599 8.9519 1.79817C8.70409 1.55035 8.36797 1.41113 8.01752 1.41113H5.37466C5.02419 1.41113 4.68808 1.55035 4.44026 1.79817C4.19244 2.04599 4.05323 2.38209 4.05323 2.73256V4.7147C3.24269 5.18262 2.57092 5.85736 2.10658 6.66994C1.64225 7.48253 1.40199 8.40384 1.41037 9.3397H11.9818C11.9902 8.40384 11.7499 7.48253 11.2856 6.66994C10.8212 5.85736 10.1495 5.18262 9.33894 4.7147Z" stroke="black" stroke-width="1.5" stroke-linecap="round" stroke-linejoin="round"/>
<path id="Vector_2" d="M9.33984 2.73242H11.322C12.7239 2.73242 14.0683 3.28931 15.0595 4.28057C16.0509 5.27184 16.6077 6.61627 16.6077 8.01814V18.5896" stroke="black" stroke-width="1.5" stroke-linecap="round" stroke-linejoin="round"/>
<path id="Vector_3" d="M18.5887 18.5898H10.6602" stroke="black" stroke-width="1.5" stroke-linecap="round" stroke-linejoin="round"/>
</g>
</g>
<defs>
<clipPath id="clip0_47_146005">
<rect width="20" height="20" fill="white"/>
</clipPath>
</defs>
</svg>
