<svg width="20" height="20" viewBox="0 0 20 20" fill="none" xmlns="http://www.w3.org/2000/svg">
<g id="tag-29" clip-path="url(#clip0_47_143297)">
<g id="tag--tags-bookmark-favorite">
<path id="Vector" d="M1.7 13.1595L6.84036 18.2999C7.02619 18.4854 7.27808 18.5897 7.54071 18.5897C7.80335 18.5897 8.05525 18.4854 8.24107 18.2999L18.4425 8.09846C18.4938 8.04946 18.5334 7.98961 18.5585 7.9233C18.5837 7.85701 18.5937 7.78591 18.5878 7.71524L17.8082 2.65417C17.8019 2.53357 17.7511 2.41959 17.6657 2.3342C17.5803 2.2488 17.4663 2.19803 17.3457 2.19167L12.2846 1.41203C12.214 1.40616 12.1429 1.41617 12.0766 1.44132C12.0103 1.46647 11.9504 1.50613 11.9014 1.55739L1.7 11.7588C1.5144 11.9446 1.41016 12.1965 1.41016 12.4592C1.41016 12.7218 1.5144 12.9737 1.7 13.1595Z" stroke="black" stroke-width="1.5" stroke-linecap="round" stroke-linejoin="round"/>
<path id="Vector_2" d="M13.817 6.84304C13.4521 6.84304 13.1562 6.54722 13.1562 6.18232C13.1562 5.81742 13.4521 5.52161 13.817 5.52161C14.1819 5.52161 14.4776 5.81742 14.4776 6.18232C14.4776 6.54722 14.1819 6.84304 13.817 6.84304Z" stroke="black" stroke-width="1.5" stroke-linecap="round" stroke-linejoin="round"/>
</g>
</g>
<defs>
<clipPath id="clip0_47_143297">
<rect width="20" height="20" fill="white"/>
</clipPath>
</defs>
</svg>
