<svg width="21" height="21" viewBox="0 0 21 21" fill="none" xmlns="http://www.w3.org/2000/svg">
<g clip-path="url(#clip0_146_398534)">
<path d="M10.5 10.5L13.9821 7.01782" stroke="black" stroke-width="1.5" stroke-linecap="round" stroke-linejoin="round"/>
<path d="M16.7673 7.71427L13.9816 7.01784L13.2852 4.23213L16.0709 1.44641L16.7673 4.23213L19.553 4.92855L16.7673 7.71427Z" stroke="black" stroke-width="1.5" stroke-linecap="round" stroke-linejoin="round"/>
<path d="M19.553 13.2856L13.2852 19.5535" stroke="black" stroke-width="1.5" stroke-linecap="round" stroke-linejoin="round"/>
<path d="M13.2852 13.2856L19.553 19.5535" stroke="black" stroke-width="1.5" stroke-linecap="round" stroke-linejoin="round"/>
<path d="M9.63531 19.5117C7.39401 19.2969 5.31317 18.2548 3.79885 16.5885C2.28454 14.9223 1.44544 12.7515 1.44532 10.5C1.44357 8.2074 2.31296 5.99982 3.87749 4.32408C5.44203 2.64835 7.58482 1.62967 9.8721 1.47424" stroke="black" stroke-width="1.5" stroke-linecap="round" stroke-linejoin="round"/>
<path d="M9.83066 14.6785C8.84191 14.5184 7.94359 14.0083 7.29934 13.2414C6.65508 12.4744 6.30777 11.5015 6.32066 10.5C6.32096 9.66148 6.5735 8.84246 7.04547 8.14942C7.51744 7.45636 8.187 6.92134 8.96709 6.61389" stroke="black" stroke-width="1.5" stroke-linecap="round" stroke-linejoin="round"/>
</g>
<defs>
<clipPath id="clip0_146_398534">
<rect width="21" height="21" fill="white"/>
</clipPath>
</defs>
</svg>
