<svg width="21" height="21" viewBox="0 0 21 21" fill="none" xmlns="http://www.w3.org/2000/svg">
<path d="M10.7673 1.62061C15.4022 1.62061 19.1596 5.37796 19.1596 10.0129C19.1596 14.6478 15.4022 18.4051 10.7673 18.4051C6.13236 18.4051 2.375 14.6478 2.375 10.0129C2.375 5.37796 6.13236 1.62061 10.7673 1.62061Z" stroke="black" stroke-width="1.5" stroke-linecap="round" stroke-linejoin="round"/>
<path d="M5.43588 16.5067L4.00781 19.3871" stroke="black" stroke-width="1.5" stroke-linecap="round" stroke-linejoin="round"/>
<path d="M16.1016 16.5067L17.5297 19.3871" stroke="black" stroke-width="1.5" stroke-linecap="round" stroke-linejoin="round"/>
<path d="M10.7675 4.55786C13.7802 4.55786 16.2225 7.00014 16.2225 10.0128C16.2225 13.0256 13.7802 15.4679 10.7675 15.4679C7.75478 15.4679 5.3125 13.0256 5.3125 10.0128C5.3125 7.00014 7.75478 4.55786 10.7675 4.55786Z" stroke="black" stroke-width="1.5" stroke-linecap="round" stroke-linejoin="round"/>
<path d="M10.766 7.91467C11.9248 7.91467 12.8641 8.85402 12.8641 10.0127C12.8641 11.1715 11.9248 12.1108 10.766 12.1108C9.60731 12.1108 8.66797 11.1715 8.66797 10.0127C8.66797 8.85402 9.60731 7.91467 10.766 7.91467Z" stroke="black" stroke-width="1.5" stroke-linecap="round" stroke-linejoin="round"/>
</svg>
