<svg width="21" height="21" viewBox="0 0 21 21" fill="none" xmlns="http://www.w3.org/2000/svg">
<mask id="mask0_146_398542" style="mask-type:luminance" maskUnits="userSpaceOnUse" x="0" y="0" width="21" height="21">
<path d="M0.75 0.75H20.25V20.25H0.75V0.75Z" fill="white"/>
</mask>
<g mask="url(#mask0_146_398542)">
<path d="M1.84375 10.4999C1.84375 11.6366 2.06762 12.762 2.50259 13.8121C2.93755 14.8622 3.57509 15.8164 4.3788 16.6201C5.18251 17.4238 6.13666 18.0614 7.18676 18.4963C8.23686 18.9313 9.36235 19.1552 10.499 19.1552C11.6356 19.1552 12.7611 18.9313 13.8112 18.4963C14.8613 18.0614 15.8154 17.4238 16.6191 16.6201C17.4228 15.8164 18.0604 14.8622 18.4953 13.8121C18.9303 12.762 19.1542 11.6366 19.1542 10.4999C19.1542 9.36332 18.9303 8.23783 18.4953 7.18773C18.0604 6.13763 17.4228 5.18349 16.6191 4.37978C15.8154 3.57607 14.8613 2.93853 13.8112 2.50357C12.7611 2.0686 11.6356 1.84473 10.499 1.84473C9.36235 1.84473 8.23686 2.0686 7.18676 2.50357C6.13666 2.93853 5.18251 3.57607 4.3788 4.37978C3.57509 5.18349 2.93755 6.13763 2.50259 7.18773C2.06762 8.23783 1.84375 9.36332 1.84375 10.4999Z" stroke="black" stroke-width="1.5" stroke-linecap="round" stroke-linejoin="round"/>
<path d="M4.80078 10.4999C4.80078 12.0108 5.40098 13.4598 6.46933 14.5281C7.53769 15.5965 8.98669 16.1967 10.4976 16.1967C12.0084 16.1967 13.4574 15.5965 14.5258 14.5281C15.5942 13.4598 16.1944 12.0108 16.1944 10.4999C16.1944 8.989 15.5942 7.54001 14.5258 6.47165C13.4574 5.4033 12.0084 4.8031 10.4976 4.8031C8.98669 4.8031 7.53769 5.4033 6.46933 6.47165C5.40098 7.54001 4.80078 8.989 4.80078 10.4999Z" stroke="black" stroke-width="1.5" stroke-linecap="round" stroke-linejoin="round"/>
<path d="M8.19922 10.5C8.19922 10.8021 8.25874 11.1014 8.37437 11.3805C8.49001 11.6597 8.6595 11.9134 8.87317 12.127C9.08683 12.3407 9.34049 12.5102 9.61966 12.6258C9.89883 12.7415 10.198 12.801 10.5002 12.801C10.8024 12.801 11.1016 12.7415 11.3808 12.6258C11.6599 12.5102 11.9136 12.3407 12.1273 12.127C12.3409 11.9134 12.5104 11.6597 12.6261 11.3805C12.7417 11.1014 12.8012 10.8021 12.8012 10.5C12.8012 10.1978 12.7417 9.89859 12.6261 9.61942C12.5104 9.34025 12.3409 9.08659 12.1273 8.87292C11.9136 8.65925 11.6599 8.48976 11.3808 8.37413C11.1016 8.25849 10.8024 8.19897 10.5002 8.19897C10.198 8.19897 9.89883 8.25849 9.61966 8.37413C9.34049 8.48976 9.08683 8.65925 8.87317 8.87292C8.6595 9.08659 8.49001 9.34025 8.37437 9.61942C8.25874 9.89859 8.19922 10.1978 8.19922 10.5Z" stroke="black" stroke-width="1.5" stroke-linecap="round" stroke-linejoin="round"/>
</g>
</svg>
