<svg width="21" height="21" viewBox="0 0 21 21" fill="none" xmlns="http://www.w3.org/2000/svg">
<g clip-path="url(#clip0_146_398557)">
<path d="M19.5506 12.5891L12.9902 19.1494L10.0234 19.5534L10.4413 16.5866L16.9877 10.0262L19.5506 12.5891Z" stroke="black" stroke-width="1.5" stroke-linecap="round" stroke-linejoin="round"/>
<path d="M15.3739 7.71427V6.89835C15.3739 6.52895 15.2271 6.17466 14.9659 5.91346L10.9068 1.85437C10.6456 1.59316 10.2913 1.44641 9.92195 1.44641H2.83817C2.06892 1.44641 1.44531 2.07001 1.44531 2.83927V16.7678C1.44531 17.5371 2.06892 18.1607 2.83817 18.1607H7.01674" stroke="black" stroke-width="1.5" stroke-linecap="round" stroke-linejoin="round"/>
<path d="M4.07812 6.50499L5.44106 7.86792L7.71262 4.68774" stroke="black" stroke-width="1.5" stroke-linecap="round" stroke-linejoin="round"/>
<path d="M4.07812 12.1636L5.44106 13.5265L7.71262 10.3463" stroke="black" stroke-width="1.5" stroke-linecap="round" stroke-linejoin="round"/>
</g>
<defs>
<clipPath id="clip0_146_398557">
<rect width="21" height="21" fill="white"/>
</clipPath>
</defs>
</svg>
