<svg width="21" height="21" viewBox="0 0 21 21" fill="none" xmlns="http://www.w3.org/2000/svg">
<path d="M17.0715 18.1607C17.0715 18.5301 16.9247 18.8844 16.6635 19.1456C16.4022 19.4067 16.048 19.5536 15.6786 19.5536H3.14286C2.77344 19.5536 2.41917 19.4067 2.15795 19.1456C1.89675 18.8844 1.75 18.5301 1.75 18.1607V2.83927C1.75 2.46985 1.89675 2.11558 2.15795 1.85437C2.41917 1.59316 2.77344 1.44641 3.14286 1.44641H10.9231C11.2925 1.44641 11.6468 1.59316 11.908 1.85437L16.6635 6.60989C16.9247 6.87109 17.0715 7.22538 17.0715 7.59477V18.1607Z" stroke="black" stroke-width="1.5" stroke-linecap="round" stroke-linejoin="round"/>
<path d="M10.1875 9.62939H13.6696" stroke="black" stroke-width="1.5" stroke-linecap="round" stroke-linejoin="round"/>
<path d="M10.1875 14.4609H13.6696" stroke="black" stroke-width="1.5" stroke-linecap="round" stroke-linejoin="round"/>
<path d="M4.80078 14.382L5.96784 15.5491L7.91294 12.8259" stroke="black" stroke-width="1.5" stroke-linecap="round" stroke-linejoin="round"/>
<path d="M4.80078 9.46356L5.96784 10.6306L7.91294 7.90747" stroke="black" stroke-width="1.5" stroke-linecap="round" stroke-linejoin="round"/>
</svg>
