<svg width="20" height="20" viewBox="0 0 20 20" fill="none" xmlns="http://www.w3.org/2000/svg">
<g id="text-to-speech-2-16" clip-path="url(#clip0_47_148356)">
<g id="text-to-speech-2--speech-automated-translate-language-voice-technology">
<path id="Vector" d="M4.71484 10.6611H15.2863" stroke="black" stroke-width="1.5" stroke-linecap="round" stroke-linejoin="round"/>
<path id="Vector_2" d="M10 8.01855V10.6614" stroke="black" stroke-width="1.5" stroke-linecap="round" stroke-linejoin="round"/>
<path id="Vector_3" d="M6.69531 10.6611C6.69531 13.7268 9.5496 16.3168 13.3025 18.5897" stroke="black" stroke-width="1.5" stroke-linecap="round" stroke-linejoin="round"/>
<path id="Vector_4" d="M13.3025 10.6611C13.3685 13.7268 10.4482 16.3168 6.69531 18.5897" stroke="black" stroke-width="1.5" stroke-linecap="round" stroke-linejoin="round"/>
<path id="Vector_5" d="M1.41016 6.03613C1.41016 4.8095 1.89743 3.63311 2.76479 2.76577C3.63214 1.89841 4.80853 1.41113 6.03516 1.41113" stroke="black" stroke-width="1.5" stroke-linecap="round" stroke-linejoin="round"/>
<path id="Vector_6" d="M1.41016 6.03613C1.41016 4.8095 1.89743 3.63311 2.76479 2.76577C3.63214 1.89841 4.80853 1.41113 6.03516 1.41113" stroke="black" stroke-width="1.5" stroke-linecap="round" stroke-linejoin="round"/>
<path id="Vector_7" d="M4.71484 6.03627C4.71484 5.6858 4.85407 5.3497 5.10188 5.10188C5.3497 4.85407 5.6858 4.71484 6.03627 4.71484" stroke="black" stroke-width="1.5" stroke-linecap="round" stroke-linejoin="round"/>
<path id="Vector_8" d="M4.71484 6.03627C4.71484 5.6858 4.85407 5.3497 5.10188 5.10188C5.3497 4.85407 5.6858 4.71484 6.03627 4.71484" stroke="black" stroke-width="1.5" stroke-linecap="round" stroke-linejoin="round"/>
<path id="Vector_9" d="M13.9648 1.41113C15.1915 1.41113 16.3679 1.89841 17.2352 2.76577C18.1026 3.63311 18.5898 4.8095 18.5898 6.03613" stroke="black" stroke-width="1.5" stroke-linecap="round" stroke-linejoin="round"/>
<path id="Vector_10" d="M13.9648 1.41113C15.1915 1.41113 16.3679 1.89841 17.2352 2.76577C18.1026 3.63311 18.5898 4.8095 18.5898 6.03613" stroke="black" stroke-width="1.5" stroke-linecap="round" stroke-linejoin="round"/>
<path id="Vector_11" d="M13.9648 4.71484C14.3153 4.71484 14.6515 4.85407 14.8992 5.10188C15.147 5.3497 15.2863 5.6858 15.2863 6.03627" stroke="black" stroke-width="1.5" stroke-linecap="round" stroke-linejoin="round"/>
<path id="Vector_12" d="M13.9648 4.71484C14.3153 4.71484 14.6515 4.85407 14.8992 5.10188C15.147 5.3497 15.2863 5.6858 15.2863 6.03627" stroke="black" stroke-width="1.5" stroke-linecap="round" stroke-linejoin="round"/>
</g>
</g>
<defs>
<clipPath id="clip0_47_148356">
<rect width="20" height="20" fill="white"/>
</clipPath>
</defs>
</svg>
