<svg width="20" height="20" viewBox="0 0 20 20" fill="none" xmlns="http://www.w3.org/2000/svg">
<g id="text-bar-24">
<g id="text-bar--text-bar-formatting-format">
<path id="Vector" d="M14.625 18.5901H12.6429C11.9419 18.5901 11.2697 18.3117 10.7741 17.816C10.2784 17.3204 10 16.6482 10 15.9473C10 16.6482 9.72156 17.3204 9.22592 17.816C8.73029 18.3117 8.05807 18.5901 7.35714 18.5901H5.375" stroke="black" stroke-width="1.5" stroke-linecap="round" stroke-linejoin="round"/>
<path id="Vector_2" d="M14.625 1.41113H12.6429C11.9419 1.41113 11.2697 1.68958 10.7741 2.18521C10.2784 2.68084 10 3.35306 10 4.05399C10 3.35306 9.72156 2.68084 9.22592 2.18521C8.73029 1.68958 8.05807 1.41113 7.35714 1.41113H5.375" stroke="black" stroke-width="1.5" stroke-linecap="round" stroke-linejoin="round"/>
<path id="Vector_3" d="M10 4.05371V15.9466" stroke="black" stroke-width="1.5" stroke-linecap="round" stroke-linejoin="round"/>
<path id="Vector_4" d="M6.69531 11.3223H13.3025" stroke="black" stroke-width="1.5" stroke-linecap="round" stroke-linejoin="round"/>
</g>
</g>
</svg>
