<svg width="20" height="20" viewBox="0 0 20 20" fill="none" xmlns="http://www.w3.org/2000/svg">
<g id="thermometer-disable-8" clip-path="url(#clip0_47_149685)">
<g id="thermometer-disable--thermometer-disable-temperature-weather-level-meter-measure">
<path id="Vector" d="M13.1329 16.3299C12.9137 16.9876 12.493 17.5597 11.9305 17.9651C11.368 18.3706 10.6923 18.5887 9.99888 18.5887C9.30552 18.5887 8.62974 18.3706 8.06725 17.9651C7.50477 17.5597 7.0841 16.9876 6.86484 16.3299C6.64557 15.6721 6.63885 14.9619 6.84559 14.3002C7.05232 13.6383 7.46206 13.0583 8.01674 12.6423V10.6602" stroke="black" stroke-width="1.5" stroke-linecap="round" stroke-linejoin="round"/>
<path id="Vector_2" d="M11.9799 11.9816V3.3923C11.9799 2.86661 11.7711 2.36243 11.3994 1.99071C11.0276 1.61899 10.5235 1.41016 9.99777 1.41016C9.47208 1.41016 8.9679 1.61899 8.59618 1.99071C8.22446 2.36243 8.01562 2.86661 8.01562 3.3923V8.0173" stroke="black" stroke-width="1.5" stroke-linecap="round" stroke-linejoin="round"/>
<path id="Vector 1859" d="M1.41016 1.41016L18.5887 18.5887" stroke="black" stroke-width="1.5" stroke-linecap="round" stroke-linejoin="round"/>
</g>
</g>
<defs>
<clipPath id="clip0_47_149685">
<rect width="20" height="20" fill="white"/>
</clipPath>
</defs>
</svg>
