<svg width="20" height="20" viewBox="0 0 20 20" fill="none" xmlns="http://www.w3.org/2000/svg">
<g id="thermometer">
<g id="thermometer--temperature-thermometer-weather-level-meter-mercury-measure">
<path id="Vector" d="M11.981 12.6423V3.3923C11.981 2.86661 11.7722 2.36243 11.4005 1.99071C11.0287 1.61899 10.5246 1.41016 9.99888 1.41016C9.47319 1.41016 8.96901 1.61899 8.59729 1.99071C8.22557 2.36243 8.01674 2.86661 8.01674 3.3923V12.6423C7.46205 13.0583 7.05232 13.6383 6.84558 14.3002C6.63884 14.9619 6.64558 15.6721 6.86483 16.3299C7.0841 16.9876 7.50476 17.5597 8.06724 17.9651C8.62973 18.3706 9.30551 18.5887 9.99888 18.5887C10.6922 18.5887 11.368 18.3706 11.9305 17.9651C12.493 17.5597 12.9137 16.9876 13.1329 16.3299C13.3522 15.6721 13.3589 14.9619 13.1522 14.3002C12.9454 13.6383 12.5357 13.0583 11.981 12.6423Z" stroke="black" stroke-width="1.5" stroke-linecap="round" stroke-linejoin="round"/>
</g>
</g>
</svg>
