<svg width="21" height="21" viewBox="0 0 21 21" fill="none" xmlns="http://www.w3.org/2000/svg">
<g clip-path="url(#clip0_146_400512)">
<path d="M14.0279 13.9821V18.1607C14.0279 18.93 13.4043 19.5536 12.635 19.5536H2.88504C2.11579 19.5536 1.49219 18.93 1.49219 18.1607V2.83927C1.49219 2.07001 2.11579 1.44641 2.88504 1.44641H9.84933" stroke="black" stroke-width="1.5" stroke-linecap="round" stroke-linejoin="round"/>
<path d="M7.0625 16.0714H8.45536" stroke="black" stroke-width="1.5" stroke-linecap="round" stroke-linejoin="round"/>
<path d="M19.442 9.56092C19.5102 9.68711 19.546 9.82833 19.546 9.97181C19.546 10.1153 19.5102 10.2565 19.442 10.3827C19.3778 10.5085 19.2801 10.6141 19.1596 10.6878C19.0392 10.7616 18.9007 10.8006 18.7595 10.8006H10.5834C10.4422 10.8006 10.3037 10.7616 10.1832 10.6878C10.0628 10.6141 9.96508 10.5085 9.90088 10.3827C9.83262 10.2565 9.79688 10.1153 9.79688 9.97181C9.79688 9.82833 9.83262 9.68711 9.90088 9.56092L14.0098 2.15092C14.0663 2.01254 14.1627 1.89411 14.2867 1.81075C14.4107 1.72738 14.5568 1.68286 14.7063 1.68286C14.8557 1.68286 15.0018 1.72738 15.1258 1.81075C15.2499 1.89411 15.3463 2.01254 15.4027 2.15092L19.442 9.56092Z" stroke="black" stroke-width="1.5" stroke-linecap="round" stroke-linejoin="round"/>
<path d="M14.6797 6.62198V5.22913" stroke="black" stroke-width="1.5" stroke-linecap="round" stroke-linejoin="round"/>
<path d="M14.6742 8.88556C14.578 8.88556 14.5 8.80756 14.5 8.71134C14.5 8.61511 14.578 8.53711 14.6742 8.53711" stroke="black" stroke-width="1.5" stroke-linecap="round" stroke-linejoin="round"/>
<path d="M14.6758 8.88544C14.772 8.88544 14.85 8.80744 14.85 8.71121C14.85 8.61499 14.772 8.53699 14.6758 8.53699" stroke="black" stroke-width="1.5" stroke-linecap="round" stroke-linejoin="round"/>
</g>
<defs>
<clipPath id="clip0_146_400512">
<rect width="21" height="21" fill="white"/>
</clipPath>
</defs>
</svg>
