<svg width="20" height="20" viewBox="0 0 20 20" fill="none" xmlns="http://www.w3.org/2000/svg">
<g id="tile-window-center-12">
<g id="tile-window-center">
<path id="rectangle 629" d="M1.41016 5.37514C1.41016 4.64534 2.00178 4.05371 2.73158 4.05371H17.2673C17.9971 4.05371 18.5887 4.64534 18.5887 5.37514V14.6251C18.5887 15.355 17.9971 15.9466 17.2673 15.9466H2.73158C2.00178 15.9466 1.41016 15.355 1.41016 14.6251V5.37514Z" stroke="black" stroke-width="1.5" stroke-linecap="round" stroke-linejoin="round"/>
<path id="rectangle 630" d="M5.375 7.357C5.375 6.9921 5.67081 6.69629 6.03571 6.69629H13.9643C14.3291 6.69629 14.625 6.9921 14.625 7.357V12.6427C14.625 13.0076 14.3291 13.3034 13.9643 13.3034H6.03571C5.67081 13.3034 5.375 13.0076 5.375 12.6427V7.357Z" stroke="black" stroke-width="1.5" stroke-linecap="round" stroke-linejoin="round"/>
</g>
</g>
</svg>
