<svg width="20" height="20" viewBox="0 0 20 20" fill="none" xmlns="http://www.w3.org/2000/svg">
<g id="tile-window-left-6">
<g id="tile-window-left">
<path id="rectangle 629" d="M1.41016 5.37514C1.41016 4.64534 2.00178 4.05371 2.73158 4.05371H17.2673C17.9971 4.05371 18.5887 4.64534 18.5887 5.37514V14.6251C18.5887 15.355 17.9971 15.9466 17.2673 15.9466H2.73158C2.00178 15.9466 1.41016 15.355 1.41016 14.6251V5.37514Z" stroke="black" stroke-width="1.5" stroke-linecap="round" stroke-linejoin="round"/>
<path id="rectangle 630" d="M4.05469 7.357C4.05469 6.9921 4.3505 6.69629 4.7154 6.69629H8.67969C9.04459 6.69629 9.3404 6.9921 9.3404 7.357V12.6427C9.3404 13.0076 9.04459 13.3034 8.67969 13.3034H4.7154C4.3505 13.3034 4.05469 13.0076 4.05469 12.6427V7.357Z" stroke="black" stroke-width="1.5" stroke-linecap="round" stroke-linejoin="round"/>
</g>
</g>
</svg>
