<svg width="20" height="20" viewBox="0 0 20 20" fill="none" xmlns="http://www.w3.org/2000/svg">
<g id="timer-nine-15" clip-path="url(#clip0_47_148615)">
<g id="timer-nine--three-quarters-fourty-five-clock-minutes-nine-time-hour">
<path id="Vector" d="M1.41016 9.99944C1.41016 11.6982 1.91391 13.3589 2.85772 14.7714C3.80152 16.1839 5.14298 17.2847 6.71247 17.9349C8.28195 18.585 10.009 18.7551 11.6751 18.4237C13.3413 18.0923 14.8718 17.2742 16.073 16.073C17.2742 14.8718 18.0923 13.3413 18.4237 11.6751C18.7551 10.009 18.585 8.28195 17.9349 6.71247C17.2847 5.14298 16.1839 3.80152 14.7714 2.85772C13.3589 1.91391 11.6982 1.41016 9.99944 1.41016V9.99944H1.41016Z" stroke="black" stroke-width="1.5" stroke-linecap="round" stroke-linejoin="round"/>
<path id="Vector_2" d="M5.32259 5.32064L3.92188 3.91992" stroke="black" stroke-width="1.5" stroke-linecap="round" stroke-linejoin="round"/>
</g>
</g>
<defs>
<clipPath id="clip0_47_148615">
<rect width="20" height="20" fill="white"/>
</clipPath>
</defs>
</svg>
