<svg width="20" height="20" viewBox="0 0 20 20" fill="none" xmlns="http://www.w3.org/2000/svg">
<g id="tool-box-28">
<g id="tool-box--box-briefcase-tool-settings">
<path id="Vector" d="M17.2673 6.69629H2.73158C2.00178 6.69629 1.41016 7.28792 1.41016 8.01772V17.2677C1.41016 17.9975 2.00178 18.5891 2.73158 18.5891H17.2673C17.9971 18.5891 18.5887 17.9975 18.5887 17.2677V8.01772C18.5887 7.28792 17.9971 6.69629 17.2673 6.69629Z" stroke="black" stroke-width="1.5" stroke-linecap="round" stroke-linejoin="round"/>
<path id="Vector_2" d="M1.41016 11.9824H18.5887" stroke="black" stroke-width="1.5" stroke-linecap="round" stroke-linejoin="round"/>
<path id="Vector_3" d="M10 10.6611V13.304" stroke="black" stroke-width="1.5" stroke-linecap="round" stroke-linejoin="round"/>
<path id="Vector_4" d="M13.9637 6.69671C13.9637 5.64531 13.5461 4.63698 12.8026 3.89353C12.0592 3.15009 11.0508 2.73242 9.99944 2.73242C8.94805 2.73242 7.93972 3.15009 7.19627 3.89353C6.45282 4.63698 6.03516 5.64531 6.03516 6.69671" stroke="black" stroke-width="1.5" stroke-linecap="round" stroke-linejoin="round"/>
</g>
</g>
</svg>
