<svg width="20" height="20" viewBox="0 0 20 20" fill="none" xmlns="http://www.w3.org/2000/svg">
<g id="track-select-right-tool-1">
<g id="track-select-right-tool">
<path id="Vector 377" d="M15.9453 7.35693L18.5882 9.99979L15.9453 12.6426" stroke="black" stroke-width="1.5" stroke-linecap="round" stroke-linejoin="round"/>
<path id="Vector 378" d="M18.5898 9.99951H9.33984" stroke="black" stroke-width="1.5" stroke-linecap="round" stroke-linejoin="round"/>
<path id="Vector 2570" d="M1.41016 6.69643V6.03571C1.41016 5.67081 1.70597 5.375 2.07087 5.375H2.73158" stroke="black" stroke-width="1.5" stroke-linecap="round" stroke-linejoin="round"/>
<path id="Vector 2571" d="M5.375 5.375H6.69643" stroke="black" stroke-width="1.5" stroke-linecap="round" stroke-linejoin="round"/>
<path id="Vector 2572" d="M9.33984 5.375H10.0006C10.3655 5.375 10.6613 5.67081 10.6613 6.03571V6.69643" stroke="black" stroke-width="1.5" stroke-linecap="round" stroke-linejoin="round"/>
<path id="Vector 2573" d="M1.41016 9.33936V10.6608" stroke="black" stroke-width="1.5" stroke-linecap="round" stroke-linejoin="round"/>
<path id="Vector 2574" d="M1.41016 13.3037V13.9644C1.41016 14.3293 1.70597 14.6251 2.07087 14.6251H2.73158" stroke="black" stroke-width="1.5" stroke-linecap="round" stroke-linejoin="round"/>
<path id="Vector 2575" d="M5.375 14.625H6.69643" stroke="black" stroke-width="1.5" stroke-linecap="round" stroke-linejoin="round"/>
<path id="Vector 2576" d="M9.33984 14.6251H10.0006C10.3655 14.6251 10.6613 14.3293 10.6613 13.9644V13.3037" stroke="black" stroke-width="1.5" stroke-linecap="round" stroke-linejoin="round"/>
</g>
</g>
</svg>
