<svg width="20" height="20" viewBox="0 0 20 20" fill="none" xmlns="http://www.w3.org/2000/svg">
<g id="trademark-3" clip-path="url(#clip0_47_143941)">
<g id="trademark--logo-tm-trademark">
<path id="Vector" d="M9.99944 18.5892C14.7432 18.5892 18.5887 14.7437 18.5887 9.99993C18.5887 5.2562 14.7432 1.41064 9.99944 1.41064C5.25571 1.41064 1.41016 5.2562 1.41016 9.99993C1.41016 14.7437 5.25571 18.5892 9.99944 18.5892Z" stroke="black" stroke-width="1.5" stroke-linecap="round" stroke-linejoin="round"/>
<path id="Vector 1" d="M10.6602 12.6429V7.63696C10.6602 7.48244 10.7854 7.35718 10.9399 7.35718C11.0394 7.35718 11.1315 7.41004 11.1816 7.49598L12.5313 9.8098C12.6 9.92759 12.7262 10 12.8625 10C12.9989 10 13.125 9.92759 13.1937 9.8098L14.5434 7.49598C14.5937 7.41004 14.6856 7.35718 14.7851 7.35718C14.9396 7.35718 15.0649 7.48244 15.0649 7.63695V12.6429" stroke="black" stroke-width="1.5" stroke-linecap="round" stroke-linejoin="round"/>
<path id="Vector 2" d="M6.69531 7.35718V12.6429" stroke="black" stroke-width="1.5" stroke-linecap="round" stroke-linejoin="round"/>
<path id="Vector 3" d="M4.71484 7.35718H8.67913" stroke="black" stroke-width="1.5" stroke-linecap="round" stroke-linejoin="round"/>
</g>
</g>
<defs>
<clipPath id="clip0_47_143941">
<rect width="20" height="20" fill="white"/>
</clipPath>
</defs>
</svg>
