<svg width="21" height="21" viewBox="0 0 21 21" fill="none" xmlns="http://www.w3.org/2000/svg">
<path d="M2.00004 14.5575C2.23788 15.144 2.65624 15.6396 3.19453 15.9725C3.73284 16.3054 4.36313 16.4583 4.99413 16.4092H5.60477C5.84418 16.4354 6.08446 16.3679 6.27537 16.2211C6.46626 16.0743 6.59299 15.8593 6.62907 15.6212V13.6514C6.59299 13.4133 6.46627 13.1983 6.27537 13.0515C6.08446 12.9046 5.84418 12.8373 5.60477 12.8635C5.36536 12.8897 5.12507 12.8223 4.93417 12.6755C4.74328 12.5287 4.61654 12.3137 4.58048 12.0756V8.92389C4.61654 8.68575 4.74328 8.47079 4.93417 8.32394C5.12507 8.17709 5.36536 8.10975 5.60477 8.13596C5.84418 8.16219 6.08446 8.09483 6.27537 7.94798C6.46626 7.80115 6.59299 7.58617 6.62907 7.34805V5.37824C6.59299 5.14012 6.46626 4.92516 6.27537 4.77831C6.08446 4.63146 5.84418 4.56411 5.60477 4.59033H4.99413C4.36349 4.54328 3.73414 4.6971 3.19627 5.02972C2.65842 5.36235 2.23967 5.8567 2.00004 6.44194C1.33332 9.10605 1.33332 11.8934 2.00004 14.5575Z" stroke="black" stroke-width="1.5" stroke-linecap="round" stroke-linejoin="round"/>
<path d="M14.8712 14.5575C15.1089 15.144 15.5273 15.6396 16.0657 15.9725C16.6039 16.3054 17.2341 16.4583 17.8653 16.4092H18.4759C18.7153 16.4354 18.9556 16.3679 19.1464 16.2211C19.3374 16.0743 19.4641 15.8593 19.5002 15.6212V13.6514C19.4641 13.4133 19.3374 13.1983 19.1464 13.0515C18.9556 12.9046 18.7153 12.8373 18.4759 12.8635C18.2364 12.8897 17.9962 12.8223 17.8052 12.6755C17.6144 12.5287 17.4876 12.3137 17.4516 12.0756V8.92389C17.4876 8.68575 17.6144 8.47079 17.8052 8.32394C17.9962 8.17709 18.2364 8.10975 18.4759 8.13596C18.7153 8.16219 18.9556 8.09483 19.1464 7.94798C19.3374 7.80115 19.4641 7.58617 19.5002 7.34805V5.37824C19.4641 5.14012 19.3374 4.92516 19.1464 4.77831C18.9556 4.63146 18.7153 4.56411 18.4759 4.59033H17.8653C17.2346 4.54328 16.6053 4.6971 16.0673 5.02972C15.5296 5.36235 15.1107 5.8567 14.8712 6.44194C14.2044 9.10605 14.2044 11.8934 14.8712 14.5575Z" stroke="black" stroke-width="1.5" stroke-linecap="round" stroke-linejoin="round"/>
<path d="M7.87109 10.5006H12.0061" stroke="black" stroke-width="1.5" stroke-linecap="round" stroke-linejoin="round"/>
<path d="M9.99609 8.48755L12.0092 10.5007L9.99609 12.5138" stroke="black" stroke-width="1.5" stroke-linecap="round" stroke-linejoin="round"/>
</svg>
