<svg width="20" height="20" viewBox="0 0 20 20" fill="none" xmlns="http://www.w3.org/2000/svg">
<g id="transparent-3" clip-path="url(#clip0_47_141507)">
<g id="transparent">
<path id="Rectangle 55" d="M8.6769 7.35718H17.2662C17.2662 7.35718 18.5876 7.35718 18.5876 8.67861V17.2679C18.5876 17.2679 18.5876 18.5893 17.2662 18.5893H8.6769C8.6769 18.5893 7.35547 18.5893 7.35547 17.2679V8.67861C7.35547 8.67861 7.35547 7.35718 8.6769 7.35718Z" stroke="black" stroke-width="1.5" stroke-linecap="round" stroke-linejoin="round"/>
<path id="Rectangle 53" d="M2.73158 1.41077H11.3209C11.3209 1.41077 12.6423 1.41077 12.6423 2.7322V11.3215C12.6423 11.3215 12.6423 12.6429 11.3209 12.6429H2.73158C2.73158 12.6429 1.41016 12.6429 1.41016 11.3215V2.7322C1.41016 2.7322 1.41016 1.41077 2.73158 1.41077Z" stroke="black" stroke-width="1.5" stroke-linecap="round" stroke-linejoin="round"/>
<path id="Vector 719" d="M12.6427 8.67862L5.375 1.41077" stroke="black" stroke-width="1.5" stroke-linecap="round" stroke-linejoin="round"/>
<path id="Vector 720" d="M8.67737 12.6422L1.41016 5.375" stroke="black" stroke-width="1.5" stroke-linecap="round" stroke-linejoin="round"/>
</g>
</g>
<defs>
<clipPath id="clip0_47_141507">
<rect width="20" height="20" fill="white"/>
</clipPath>
</defs>
</svg>
