<svg width="20" height="20" viewBox="0 0 20 20" fill="none" xmlns="http://www.w3.org/2000/svg">
<g id="two-finger-double-tap-23">
<g id="two-finger-double-tap">
<path id="Ellipse 302" d="M3.50659 9.32237C3.43329 9.00725 3.39453 8.67889 3.39453 8.34146C3.39453 5.95984 5.32523 4.02915 7.70685 4.02915C7.99255 4.02915 8.27177 4.05693 8.54193 4.10994C9.33298 3.16579 10.5208 2.56543 11.8489 2.56543C14.2305 2.56543 16.1613 4.49613 16.1613 6.87775C16.1613 7.21518 16.1224 7.54354 16.0492 7.85865" stroke="black" stroke-width="1.5" stroke-linecap="round" stroke-linejoin="round"/>
<path id="Vector 108" d="M9.72656 12.127L10.4853 6.34563C10.5891 5.55474 11.2631 4.96338 12.0608 4.96338C13.0205 4.96338 13.7612 5.80761 13.6363 6.75917L12.9319 12.127H13.3246C14.8895 12.127 16.158 13.3956 16.158 14.9604V18.5656" stroke="black" stroke-width="1.5" stroke-linecap="round" stroke-linejoin="round"/>
<path id="Vector 107" d="M9.72564 12.1373L9.01619 8.0019C8.88291 7.22507 8.20936 6.65723 7.42119 6.65723C6.44435 6.65723 5.69018 7.5161 5.81646 8.48474L6.51835 13.8687L5.95103 13.9755C4.34033 14.2787 3.57382 16.1383 4.50314 17.4883L4.73759 17.829L5.26017 18.5891" stroke="black" stroke-width="1.5" stroke-linecap="round" stroke-linejoin="round"/>
<path id="Ellipse 304" d="M17.4766 3.51866C16.9934 2.74297 16.3181 2.15969 15.5508 1.79199" stroke="black" stroke-width="1.5" stroke-linecap="round" stroke-linejoin="round"/>
<path id="Ellipse 305" d="M2.78906 3.90137C3.33946 3.17178 4.06391 2.65093 4.86092 2.35303" stroke="black" stroke-width="1.5" stroke-linecap="round" stroke-linejoin="round"/>
</g>
</g>
</svg>
