<svg width="20" height="20" viewBox="0 0 20 20" fill="none" xmlns="http://www.w3.org/2000/svg">
<g id="two-finger-drag-vertical-31" clip-path="url(#clip0_47_144936)">
<g id="two-finger-drag-vertical">
<path id="Vector 721" d="M11.8007 10.9575V5.73016C11.8007 4.79296 11.0409 4.0332 10.1037 4.0332C9.1665 4.0332 8.40675 4.79296 8.40675 5.73016V12.7897L7.60729 12.9402C5.99658 13.2433 5.23007 15.1029 6.15938 16.453L6.52238 16.9803L7.62835 18.589" stroke="black" stroke-width="1.5" stroke-linecap="round" stroke-linejoin="round"/>
<path id="Vector 722" d="M11.7969 10.9577V3.1076C11.7969 2.1704 12.5566 1.41064 13.4938 1.41064C14.4311 1.41064 15.1908 2.1704 15.1908 3.1076V10.9577H15.9442C17.4039 10.9577 18.5871 12.1409 18.5871 13.6005V18.5892" stroke="black" stroke-width="1.5" stroke-linecap="round" stroke-linejoin="round"/>
<path id="Vector 2508" d="M1.41016 3.39279L3.3923 1.41064L5.37444 3.39279" stroke="black" stroke-width="1.5" stroke-linecap="round" stroke-linejoin="round"/>
<path id="Vector 2509" d="M1.41016 8.01758L3.3923 9.99972L5.37444 8.01758" stroke="black" stroke-width="1.5" stroke-linecap="round" stroke-linejoin="round"/>
<path id="Vector 2510" d="M3.39062 1.41064V9.99993" stroke="black" stroke-width="1.5" stroke-linecap="round" stroke-linejoin="round"/>
</g>
</g>
<defs>
<clipPath id="clip0_47_144936">
<rect width="20" height="20" fill="white"/>
</clipPath>
</defs>
</svg>
