<svg width="20" height="20" viewBox="0 0 20 20" fill="none" xmlns="http://www.w3.org/2000/svg">
<g id="two-finger-tap-19">
<g id="two-finger-tap">
<path id="Ellipse 302" d="M3.74122 8.6544C3.66264 8.31659 3.62109 7.96456 3.62109 7.60283C3.62109 5.04961 5.69089 2.97981 8.24411 2.97981C8.55039 2.97981 8.84972 3.0096 9.13935 3.06643C9.98739 2.05427 11.2608 1.41064 12.6846 1.41064C15.2378 1.41064 17.3076 3.48044 17.3076 6.03366C17.3076 6.39539 17.2661 6.74742 17.1875 7.08524" stroke="black" stroke-width="1.5" stroke-linecap="round" stroke-linejoin="round"/>
<path id="Vector 108" d="M10.4141 11.6617L11.2275 5.46378C11.3387 4.61592 12.0614 3.98193 12.9165 3.98193C13.9454 3.98193 14.7393 4.88701 14.6055 5.90711L13.8503 11.6617H14.4755C16.0403 11.6617 17.3089 12.9303 17.3089 14.4952V18.5642" stroke="black" stroke-width="1.5" stroke-linecap="round" stroke-linejoin="round"/>
<path id="Vector 107" d="M10.4083 11.6727L9.64769 7.2394C9.50481 6.40659 8.78273 5.79785 7.93777 5.79785C6.89055 5.79785 6.08204 6.7186 6.21742 7.75703L6.96988 13.5289L6.1151 13.6898C4.50439 13.9929 3.73789 15.8525 4.66719 17.2026L5.06082 17.7744L5.62105 18.5893" stroke="black" stroke-width="1.5" stroke-linecap="round" stroke-linejoin="round"/>
</g>
</g>
</svg>
