<svg width="21" height="21" viewBox="0 0 21 21" fill="none" xmlns="http://www.w3.org/2000/svg">
<g clip-path="url(#clip0_146_400543)">
<path d="M18.1596 1.44641H2.83817C2.06892 1.44641 1.44531 2.07001 1.44531 2.83927V18.1607C1.44531 18.93 2.06892 19.5536 2.83817 19.5536H18.1596C18.9289 19.5536 19.5525 18.93 19.5525 18.1607V2.83927C19.5525 2.07001 18.9289 1.44641 18.1596 1.44641Z" stroke="black" stroke-width="1.5" stroke-linecap="round" stroke-linejoin="round"/>
<path d="M10.5006 16.0714C10.3082 16.0714 10.1523 15.9156 10.1523 15.7232C10.1523 15.5309 10.3082 15.375 10.5006 15.375" stroke="black" stroke-width="1.5" stroke-linecap="round" stroke-linejoin="round"/>
<path d="M10.5 16.0714C10.6923 16.0714 10.8482 15.9156 10.8482 15.7232C10.8482 15.5309 10.6923 15.375 10.5 15.375" stroke="black" stroke-width="1.5" stroke-linecap="round" stroke-linejoin="round"/>
<path d="M7.01618 16.0714C6.82387 16.0714 6.66797 15.9156 6.66797 15.7232C6.66797 15.5309 6.82387 15.375 7.01618 15.375" stroke="black" stroke-width="1.5" stroke-linecap="round" stroke-linejoin="round"/>
<path d="M7.01562 16.0714C7.20794 16.0714 7.36384 15.9156 7.36384 15.7232C7.36384 15.5309 7.20794 15.375 7.01562 15.375" stroke="black" stroke-width="1.5" stroke-linecap="round" stroke-linejoin="round"/>
<path d="M13.981 16.0714C13.7887 16.0714 13.6328 15.9156 13.6328 15.7232C13.6328 15.5309 13.7887 15.375 13.981 15.375" stroke="black" stroke-width="1.5" stroke-linecap="round" stroke-linejoin="round"/>
<path d="M13.9805 16.0714C14.1728 16.0714 14.3287 15.9156 14.3287 15.7232C14.3287 15.5309 14.1728 15.375 13.9805 15.375" stroke="black" stroke-width="1.5" stroke-linecap="round" stroke-linejoin="round"/>
<path d="M6.31864 8.41064L4.92578 9.8035L6.31864 11.1964" stroke="black" stroke-width="1.5" stroke-linecap="round" stroke-linejoin="round"/>
<path d="M14.6758 8.41064L16.0686 9.8035L14.6758 11.1964" stroke="black" stroke-width="1.5" stroke-linecap="round" stroke-linejoin="round"/>
</g>
<defs>
<clipPath id="clip0_146_400543">
<rect width="21" height="21" fill="white"/>
</clipPath>
</defs>
</svg>
