<svg width="21" height="21" viewBox="0 0 21 21" fill="none" xmlns="http://www.w3.org/2000/svg">
<g clip-path="url(#clip0_146_400557)">
<path d="M18.1596 1.44641H2.83817C2.06892 1.44641 1.44531 2.07001 1.44531 2.83927V13.9821C1.44531 14.7514 2.06892 15.375 2.83817 15.375H18.1596C18.9289 15.375 19.5525 14.7514 19.5525 13.9821V2.83927C19.5525 2.07001 18.9289 1.44641 18.1596 1.44641Z" stroke="black" stroke-width="1.5" stroke-linecap="round" stroke-linejoin="round"/>
<path d="M10.5006 19.5536C10.3082 19.5536 10.1523 19.3977 10.1523 19.2054C10.1523 19.013 10.3082 18.8572 10.5006 18.8572" stroke="black" stroke-width="1.5" stroke-linecap="round" stroke-linejoin="round"/>
<path d="M10.5 19.5536C10.6923 19.5536 10.8482 19.3977 10.8482 19.2054C10.8482 19.013 10.6923 18.8572 10.5 18.8572" stroke="black" stroke-width="1.5" stroke-linecap="round" stroke-linejoin="round"/>
<path d="M7.01618 19.5536C6.82387 19.5536 6.66797 19.3977 6.66797 19.2054C6.66797 19.013 6.82387 18.8572 7.01618 18.8572" stroke="black" stroke-width="1.5" stroke-linecap="round" stroke-linejoin="round"/>
<path d="M7.01562 19.5536C7.20794 19.5536 7.36384 19.3977 7.36384 19.2054C7.36384 19.013 7.20794 18.8572 7.01562 18.8572" stroke="black" stroke-width="1.5" stroke-linecap="round" stroke-linejoin="round"/>
<path d="M13.981 19.5536C13.7887 19.5536 13.6328 19.3977 13.6328 19.2054C13.6328 19.013 13.7887 18.8572 13.981 18.8572" stroke="black" stroke-width="1.5" stroke-linecap="round" stroke-linejoin="round"/>
<path d="M13.9805 19.5536C14.1728 19.5536 14.3287 19.3977 14.3287 19.2054C14.3287 19.013 14.1728 18.8572 13.9805 18.8572" stroke="black" stroke-width="1.5" stroke-linecap="round" stroke-linejoin="round"/>
<path d="M6.31864 7.01782L4.92578 8.41068L6.31864 9.80354" stroke="black" stroke-width="1.5" stroke-linecap="round" stroke-linejoin="round"/>
<path d="M14.6758 7.01782L16.0686 8.41068L14.6758 9.80354" stroke="black" stroke-width="1.5" stroke-linecap="round" stroke-linejoin="round"/>
</g>
<defs>
<clipPath id="clip0_146_400557">
<rect width="21" height="21" fill="white"/>
</clipPath>
</defs>
</svg>
