<svg width="20" height="20" viewBox="0 0 20 20" fill="none" xmlns="http://www.w3.org/2000/svg">
<g id="upload-browser-15" clip-path="url(#clip0_47_148790)">
<g id="upload-browser--action-actions-computer-website-device-display-upload-monitor-screen">
<path id="Vector" d="M5.37444 18.5887H2.73158C2.38112 18.5887 2.04501 18.4494 1.79719 18.2017C1.54938 17.9539 1.41016 17.6177 1.41016 17.2673V2.73158C1.41016 2.38112 1.54938 2.04501 1.79719 1.79719C2.04501 1.54938 2.38112 1.41016 2.73158 1.41016H17.2673C17.6177 1.41016 17.9539 1.54938 18.2017 1.79719C18.4494 2.04501 18.5887 2.38112 18.5887 2.73158V17.2673C18.5887 17.6177 18.4494 17.9539 18.2017 18.2017C17.9539 18.4494 17.6177 18.5887 17.2673 18.5887H14.6244" stroke="black" stroke-width="1.5" stroke-linecap="round" stroke-linejoin="round"/>
<path id="Vector_2" d="M1.41016 5.375H18.5887" stroke="black" stroke-width="1.5" stroke-linecap="round" stroke-linejoin="round"/>
<path id="Vector_3" d="M10 18.5893V10" stroke="black" stroke-width="1.5" stroke-linecap="round" stroke-linejoin="round"/>
<path id="Vector_4" d="M6.69531 13.3036L9.99888 10L13.3025 13.3036" stroke="black" stroke-width="1.5" stroke-linecap="round" stroke-linejoin="round"/>
</g>
</g>
<defs>
<clipPath id="clip0_47_148790">
<rect width="20" height="20" fill="white"/>
</clipPath>
</defs>
</svg>
