<svg width="21" height="21" viewBox="0 0 21 21" fill="none" xmlns="http://www.w3.org/2000/svg">
<path d="M10.5 19.5536V16.0714" stroke="black" stroke-width="1.5" stroke-linecap="round" stroke-linejoin="round"/>
<path d="M7.01953 6.32141V2.83927C7.01953 2.46985 7.16628 2.11558 7.42749 1.85437C7.6887 1.59316 8.04297 1.44641 8.41239 1.44641H12.591C12.9604 1.44641 13.3146 1.59316 13.5759 1.85437C13.8371 2.11558 13.9838 2.46985 13.9838 2.83927V6.32141" stroke="black" stroke-width="1.5" stroke-linecap="round" stroke-linejoin="round"/>
<path d="M15.3761 6.32141H5.62612C5.44141 6.32141 5.26427 6.39479 5.13367 6.52539C5.00306 6.65599 4.92969 6.83313 4.92969 7.01784V10.6253C4.93122 10.9907 5.0763 11.3409 5.33362 11.6003L7.01897 13.2857V14.6786C7.01897 15.0479 7.16573 15.4023 7.42693 15.6634C7.68814 15.9246 8.04242 16.0714 8.41183 16.0714H12.5904C12.9598 16.0714 13.3141 15.9246 13.5753 15.6634C13.8365 15.4023 13.9833 15.0479 13.9833 14.6786V13.2857L15.6686 11.6003C15.9259 11.3409 16.071 10.9907 16.0725 10.6253V7.01784C16.0725 6.83313 15.9991 6.65599 15.8686 6.52539C15.738 6.39479 15.5608 6.32141 15.3761 6.32141Z" stroke="black" stroke-width="1.5" stroke-linecap="round" stroke-linejoin="round"/>
<path d="M9.80469 9.80359H11.1975" stroke="black" stroke-width="1.5" stroke-linecap="round" stroke-linejoin="round"/>
</svg>
