<svg width="20" height="20" viewBox="0 0 20 20" fill="none" xmlns="http://www.w3.org/2000/svg">
<g id="user-single-neutral-female-12" clip-path="url(#clip0_47_149182)">
<g id="user-single-neutral-female--close-geometric-human-person-single-up-user-female">
<path id="Vector" d="M18.1649 18.59C17.6101 16.86 16.5203 15.351 15.0527 14.2803C13.5849 13.2097 11.8152 12.6328 9.99846 12.6328C8.18175 12.6328 6.41197 13.2097 4.94428 14.2803C3.47659 15.351 2.3868 16.86 1.83203 18.59H18.1649Z" stroke="black" stroke-width="1.5" stroke-linecap="round" stroke-linejoin="round"/>
<path id="Vector_2" d="M9.9986 12.6437C13.0872 12.6437 15.591 10.1399 15.591 7.05134C15.591 3.96276 13.0872 1.45898 9.9986 1.45898C6.91003 1.45898 4.40625 3.96276 4.40625 7.05134C4.40625 10.1399 6.91003 12.6437 9.9986 12.6437Z" stroke="black" stroke-width="1.5" stroke-linecap="round" stroke-linejoin="round"/>
<path id="Vector_3" d="M5.37051 10.1968C5.14032 11.0366 4.37158 11.6537 3.45871 11.6537C2.364 11.6537 1.47656 10.7663 1.47656 9.6716C1.47656 8.5769 2.364 7.68945 3.45871 7.68945C3.8353 7.68945 4.18737 7.79448 4.48721 7.97684" stroke="black" stroke-width="1.5" stroke-linecap="round" stroke-linejoin="round"/>
<path id="Vector_4" d="M15.5121 7.97684C15.812 7.79448 16.1641 7.68945 16.5406 7.68945C17.6354 7.68945 18.5228 8.5769 18.5228 9.6716C18.5228 10.7663 17.6354 11.6537 16.5406 11.6537C15.6278 11.6537 14.8591 11.0366 14.6289 10.1968" stroke="black" stroke-width="1.5" stroke-linecap="round" stroke-linejoin="round"/>
<path id="Ellipse 592" d="M11.824 9.21484C11.824 9.21484 11.36 10.1279 9.99796 10.1279C8.63589 10.1279 8.17188 9.21484 8.17188 9.21484" stroke="black" stroke-width="1.5" stroke-linecap="round" stroke-linejoin="round"/>
<path id="Intersect" d="M6.17475 6.72098C7.86547 6.72098 9.33501 5.77391 10.0818 4.38134C10.8285 5.77391 12.2981 6.72098 13.9887 6.72098C14.5404 6.72098 15.0685 6.62018 15.5556 6.43597C15.2493 3.63694 12.8773 1.45898 9.99667 1.45898C7.13849 1.45898 4.7811 3.60316 4.44531 6.37074C4.97667 6.59625 5.56114 6.72098 6.17475 6.72098Z" stroke="black" stroke-width="1.5" stroke-linecap="round" stroke-linejoin="round"/>
</g>
</g>
<defs>
<clipPath id="clip0_47_149182">
<rect width="20" height="20" fill="white"/>
</clipPath>
</defs>
</svg>
