<svg width="20" height="20" viewBox="0 0 20 20" fill="none" xmlns="http://www.w3.org/2000/svg">
<g id="user-head-side-37">
<g id="user-head-side--geometric-human-person-single-user">
<path id="Vector" d="M13.3019 18.5893V15.2858H15.9448C16.2952 15.2858 16.6314 15.1465 16.8791 14.8987C17.1269 14.651 17.2662 14.3148 17.2662 13.9643V8.67862C17.2659 7.38695 16.9214 6.1187 16.2682 5.00439C15.6151 3.89008 14.6766 2.97 13.5497 2.33884C12.4227 1.7077 11.1479 1.38829 9.85648 1.41349C8.56508 1.4387 7.30371 1.80762 6.20223 2.48227C5.10077 3.15691 4.199 4.11293 3.58974 5.25187C2.9805 6.39082 2.68579 7.67156 2.73595 8.96224C2.78613 10.2529 3.17936 11.5069 3.87517 12.5952C4.57098 13.6834 5.54424 14.5665 6.69475 15.1536V18.5893" stroke="black" stroke-width="1.5" stroke-linecap="round" stroke-linejoin="round"/>
</g>
</g>
</svg>
