<svg width="20" height="20" viewBox="0 0 20 20" fill="none" xmlns="http://www.w3.org/2000/svg">
<g id="user-full-body-edit-pencil-8" clip-path="url(#clip0_47_149019)">
<g id="user-full-body-edit-pencil--actions-edit-geometric-human-pencil-person-single-user-write">
<path id="Vector" d="M6.03348 6.69587C7.49309 6.69587 8.67634 5.51262 8.67634 4.05301C8.67634 2.5934 7.49309 1.41016 6.03348 1.41016C4.57387 1.41016 3.39062 2.5934 3.39062 4.05301C3.39062 5.51262 4.57387 6.69587 6.03348 6.69587Z" stroke="black" stroke-width="1.5" stroke-linecap="round" stroke-linejoin="round"/>
<path id="Vector_2" d="M10.6602 11.3203C10.6602 10.0937 10.1729 8.91729 9.30552 8.04995C8.43817 7.18259 7.26179 6.69531 6.03516 6.69531C4.80853 6.69531 3.63214 7.18259 2.76479 8.04995C1.89743 8.91729 1.41016 10.0937 1.41016 11.3203V13.3025H3.3923L4.05301 18.5882H6.69587" stroke="black" stroke-width="1.5" stroke-linecap="round" stroke-linejoin="round"/>
<path id="Vector_3" d="M18.5893 11.9822L12.3654 18.2062L9.55078 18.5894L9.94721 15.7748L16.1579 9.55078L18.5893 11.9822Z" stroke="black" stroke-width="1.5" stroke-linecap="round" stroke-linejoin="round"/>
</g>
</g>
<defs>
<clipPath id="clip0_47_149019">
<rect width="20" height="20" fill="white"/>
</clipPath>
</defs>
</svg>
