<svg width="20" height="20" viewBox="0 0 20 20" fill="none" xmlns="http://www.w3.org/2000/svg">
<g id="user-face-id-mask-30" clip-path="url(#clip0_47_148947)">
<g id="user-face-id-mask">
<path id="Rectangle 434" d="M5.00781 9.1875C8.23664 9.80918 11.3651 9.80918 14.5939 9.1875V14.9711C11.3458 15.8274 8.25598 15.8274 5.00781 14.9711V9.1875Z" stroke="black" stroke-width="1.5" stroke-linecap="round" stroke-linejoin="round"/>
<path id="Vector 1138" d="M4.96708 12.1789C4.17461 11.9488 2.42096 11.3046 1.74609 10.5684" stroke="black" stroke-width="1.5" stroke-linecap="round" stroke-linejoin="round"/>
<path id="Vector 1139" d="M14.6328 12.1789C15.4253 11.9488 17.1789 11.3046 17.8538 10.5684" stroke="black" stroke-width="1.5" stroke-linecap="round" stroke-linejoin="round"/>
<path id="Vector 233" d="M1.41016 5.29491V2.6372C1.41016 1.95952 1.95952 1.41016 2.6372 1.41016H5.29491" stroke="black" stroke-width="1.5" stroke-linecap="round" stroke-linejoin="round"/>
<path id="Vector 234" d="M14.7031 1.41016H17.3608C18.0385 1.41016 18.5879 1.95952 18.5879 2.6372V5.29491" stroke="black" stroke-width="1.5" stroke-linecap="round" stroke-linejoin="round"/>
<path id="Vector 235" d="M1.41016 14.7031V17.3608C1.41016 18.0385 1.95952 18.5879 2.6372 18.5879H5.29491" stroke="black" stroke-width="1.5" stroke-linecap="round" stroke-linejoin="round"/>
<path id="Vector 236" d="M18.5879 14.7031V17.3608C18.5879 18.0385 18.0385 18.5879 17.3608 18.5879H14.7031" stroke="black" stroke-width="1.5" stroke-linecap="round" stroke-linejoin="round"/>
<g id="Group 2605">
<path id="Ellipse 1111" d="M7.3577 6.36579C7.17525 6.36579 7.02734 6.21788 7.02734 6.03544C7.02734 5.85299 7.17525 5.70508 7.3577 5.70508" stroke="black" stroke-width="1.5" stroke-linecap="round" stroke-linejoin="round"/>
<path id="Ellipse 1112" d="M7.35938 6.36579C7.54182 6.36579 7.68973 6.21788 7.68973 6.03544C7.68973 5.85299 7.54182 5.70508 7.35938 5.70508" stroke="black" stroke-width="1.5" stroke-linecap="round" stroke-linejoin="round"/>
</g>
<g id="Group 2606">
<path id="Ellipse 1111_2" d="M12.6429 6.36579C12.4604 6.36579 12.3125 6.21788 12.3125 6.03544C12.3125 5.85299 12.4604 5.70508 12.6429 5.70508" stroke="black" stroke-width="1.5" stroke-linecap="round" stroke-linejoin="round"/>
<path id="Ellipse 1112_2" d="M12.6445 6.36579C12.827 6.36579 12.9749 6.21788 12.9749 6.03544C12.9749 5.85299 12.827 5.70508 12.6445 5.70508" stroke="black" stroke-width="1.5" stroke-linecap="round" stroke-linejoin="round"/>
</g>
</g>
</g>
<defs>
<clipPath id="clip0_47_148947">
<rect width="20" height="20" fill="white"/>
</clipPath>
</defs>
</svg>
