<svg width="20" height="20" viewBox="0 0 20 20" fill="none" xmlns="http://www.w3.org/2000/svg">
<g id="user-share-31">
<g id="user-share--user-share-actions-human-geometric-person-single">
<path id="Vector" d="M7.35826 8.0173C9.18277 8.0173 10.6618 6.53824 10.6618 4.71373C10.6618 2.88922 9.18277 1.41016 7.35826 1.41016C5.53375 1.41016 4.05469 2.88922 4.05469 4.71373C4.05469 6.53824 5.53375 8.0173 7.35826 8.0173Z" stroke="black" stroke-width="1.5" stroke-linecap="round" stroke-linejoin="round"/>
<path id="Vector_2" d="M8.03226 17.2681H1.41016V16.5518C1.42068 15.5444 1.6863 14.5564 2.18223 13.6797C2.67816 12.803 3.3882 12.0663 4.24603 11.5384C5.10388 11.0104 6.08153 10.7086 7.08765 10.661C7.17735 10.6567 7.26702 10.6545 7.35659 10.6543C7.44615 10.6545 7.53584 10.6567 7.62554 10.661C7.81313 10.6698 7.99972 10.6876 8.18474 10.7139" stroke="black" stroke-width="1.5" stroke-linecap="round" stroke-linejoin="round"/>
<path id="Ellipse 21" d="M12.3685 13.8542C12.3685 14.7056 11.6783 15.3958 10.8268 15.3958C9.97538 15.3958 9.28516 14.7056 9.28516 13.8542C9.28516 13.0027 9.97538 12.3125 10.8268 12.3125C11.6783 12.3125 12.3685 13.0027 12.3685 13.8542Z" stroke="black" stroke-width="1.5" stroke-linecap="round" stroke-linejoin="round"/>
<path id="Ellipse 22" d="M18.0951 11.155C18.0951 12.0064 17.4048 12.6966 16.5534 12.6966C15.702 12.6966 15.0117 12.0064 15.0117 11.155C15.0117 10.3035 15.702 9.61328 16.5534 9.61328C17.4048 9.61328 18.0951 10.3035 18.0951 11.155Z" stroke="black" stroke-width="1.5" stroke-linecap="round" stroke-linejoin="round"/>
<path id="Ellipse 23" d="M18.0951 16.5513C18.0951 15.6999 17.4048 15.0098 16.5534 15.0098C15.702 15.0098 15.0117 15.6999 15.0117 16.5513C15.0117 17.4029 15.702 18.0931 16.5534 18.0931C17.4048 18.0931 18.0951 17.4029 18.0951 16.5513Z" stroke="black" stroke-width="1.5" stroke-linecap="round" stroke-linejoin="round"/>
<path id="Subtract" d="M15.2212 11.9336L12.1484 13.0777M15.2212 15.7756L12.1484 14.6315" stroke="black" stroke-width="1.5" stroke-linecap="round" stroke-linejoin="round"/>
</g>
</g>
</svg>
