<svg width="20" height="20" viewBox="0 0 20 20" fill="none" xmlns="http://www.w3.org/2000/svg">
<g id="user-switch-account-51" clip-path="url(#clip0_47_149223)">
<g id="user-switch-account">
<path id="Vector" d="M3.28125 12.2479C3.28125 13.5335 4.32351 14.5758 5.60918 14.5758C5.93422 14.5758 6.24368 14.5091 6.52468 14.3889C7.35523 14.0333 7.93712 13.2085 7.93712 12.2479C7.93712 10.9622 6.89487 9.91992 5.60918 9.91992C4.32351 9.91992 3.28125 10.9622 3.28125 12.2479Z" stroke="black" stroke-width="1.5" stroke-linecap="round" stroke-linejoin="round"/>
<path id="Vector_2" d="M12.1133 3.73809C12.1133 5.02377 13.1555 6.06602 14.4412 6.06602C14.7662 6.06602 15.0757 5.99941 15.3567 5.8791C16.1872 5.52349 16.7692 4.69874 16.7692 3.73809C16.7692 2.45241 15.7269 1.41016 14.4412 1.41016C13.1555 1.41016 12.1133 2.45241 12.1133 3.73809Z" stroke="black" stroke-width="1.5" stroke-linecap="round" stroke-linejoin="round"/>
<path id="Ellipse 53" d="M9.58172 18.5896C9.40686 16.5199 7.67148 14.8945 5.55649 14.8945C3.44149 14.8945 1.70612 16.5199 1.53125 18.5896" stroke="black" stroke-width="1.5" stroke-linecap="round" stroke-linejoin="round"/>
<path id="Ellipse 54" d="M18.4684 9.91969C18.2936 7.84993 16.5582 6.22461 14.4432 6.22461C12.3282 6.22461 10.5928 7.84993 10.418 9.91969" stroke="black" stroke-width="1.5" stroke-linecap="round" stroke-linejoin="round"/>
<path id="Vector 3205" d="M1.41016 8.67829V6.03544C1.41016 4.57582 2.5934 3.39258 4.05301 3.39258H7.35659" stroke="black" stroke-width="1.5" stroke-linecap="round" stroke-linejoin="round"/>
<path id="Vector 3212" d="M5.375 1.41016L7.35714 3.3923L5.375 5.37444" stroke="black" stroke-width="1.5" stroke-linecap="round" stroke-linejoin="round"/>
<path id="Vector 3206" d="M18.5871 12.6426V13.964C18.5871 15.4237 17.4038 16.6069 15.9442 16.6069H12.6406" stroke="black" stroke-width="1.5" stroke-linecap="round" stroke-linejoin="round"/>
<path id="Vector 3211" d="M14.6228 14.625L12.6406 16.6071L14.6228 18.5893" stroke="black" stroke-width="1.5" stroke-linecap="round" stroke-linejoin="round"/>
</g>
</g>
<defs>
<clipPath id="clip0_47_149223">
<rect width="20" height="20" fill="white"/>
</clipPath>
</defs>
</svg>
