<svg width="20" height="20" viewBox="0 0 20 20" fill="none" xmlns="http://www.w3.org/2000/svg">
<g id="user-nft-profile-picture-1-57">
<g id="user-nft-profile-picture-1">
<path id="Polygon 5" d="M18.2059 9.33838C18.4421 9.74723 18.4421 10.251 18.2059 10.6598L14.6743 16.777C14.4381 17.1858 14.0019 17.4377 13.5299 17.4377H6.46642C5.99432 17.4377 5.55809 17.1858 5.32204 16.777L1.79032 10.6598C1.55427 10.251 1.55427 9.74723 1.79032 9.33838L5.32204 3.22126C5.55809 2.81241 5.99433 2.56055 6.46642 2.56055H13.5299C14.0019 2.56055 14.4381 2.81241 14.6743 3.22126L18.2059 9.33838Z" stroke="black" stroke-width="1.5" stroke-linecap="round" stroke-linejoin="round"/>
<path id="Vector" d="M7.54297 7.54205C7.54297 8.89852 8.64261 9.99816 9.99908 9.99816C10.342 9.99816 10.6685 9.92789 10.965 9.80094C11.8413 9.42576 12.4552 8.5556 12.4552 7.54205C12.4552 6.18558 11.3556 5.08594 9.99908 5.08594C8.64261 5.08594 7.54297 6.18558 7.54297 7.54205Z" stroke="black" stroke-width="1.5" stroke-linecap="round" stroke-linejoin="round"/>
<path id="Ellipse 53" d="M14.8372 16.4414C14.6268 13.9525 12.54 11.998 9.99668 11.998C7.45337 11.998 5.36654 13.9525 5.15625 16.4414" stroke="black" stroke-width="1.5" stroke-linecap="round" stroke-linejoin="round"/>
</g>
</g>
</svg>
