<svg width="20" height="20" viewBox="0 0 20 20" fill="none" xmlns="http://www.w3.org/2000/svg">
<g id="user-full-body-delete-cross-34" clip-path="url(#clip0_47_149013)">
<g id="user-full-body-delete-cross--actions-delete-deny-fail-geometric-human-person-remove-single-user-cross">
<path id="Vector" d="M18.5872 12.9863L12.9844 18.5892" stroke="black" stroke-width="1.5" stroke-linecap="round" stroke-linejoin="round"/>
<path id="Vector_2" d="M12.9844 12.9863L18.5872 18.5892" stroke="black" stroke-width="1.5" stroke-linecap="round" stroke-linejoin="round"/>
<path id="Vector_3" d="M6.03348 6.69587C7.49309 6.69587 8.67634 5.51262 8.67634 4.05301C8.67634 2.5934 7.49309 1.41016 6.03348 1.41016C4.57387 1.41016 3.39062 2.5934 3.39062 4.05301C3.39062 5.51262 4.57387 6.69587 6.03348 6.69587Z" stroke="black" stroke-width="1.5" stroke-linecap="round" stroke-linejoin="round"/>
<path id="Vector_4" d="M9.99944 13.3025H8.67801L8.0173 18.5882H4.05301L3.3923 13.3025H1.41016V11.3203C1.41016 10.0937 1.89743 8.91729 2.76479 8.04995C3.63214 7.18259 4.80853 6.69531 6.03516 6.69531C7.26179 6.69531 8.43817 7.18259 9.30552 8.04995C10.0156 8.76003 10.471 9.67726 10.6127 10.6596" stroke="black" stroke-width="1.5" stroke-linecap="round" stroke-linejoin="round"/>
</g>
</g>
<defs>
<clipPath id="clip0_47_149013">
<rect width="20" height="20" fill="white"/>
</clipPath>
</defs>
</svg>
