<svg width="20" height="20" viewBox="0 0 20 20" fill="none" xmlns="http://www.w3.org/2000/svg">
<g id="user-square-single-17" clip-path="url(#clip0_47_149196)">
<g id="user-square-single--square-geometric-human-person-single-user">
<path id="Vector" d="M9.99888 11.32C11.8234 11.32 13.3025 9.84097 13.3025 8.01646C13.3025 6.19195 11.8234 4.71289 9.99888 4.71289C8.17437 4.71289 6.69531 6.19195 6.69531 8.01646C6.69531 9.84097 8.17437 11.32 9.99888 11.32Z" stroke="black" stroke-width="1.5" stroke-linecap="round" stroke-linejoin="round"/>
<path id="Vector_2" d="M3.52344 18.5892C3.82672 17.0956 4.63704 15.7527 5.81709 14.7882C6.99714 13.8238 8.47435 13.2969 9.99844 13.2969C11.5225 13.2969 12.9997 13.8238 14.1798 14.7882C15.3599 15.7527 16.1702 17.0956 16.4734 18.5892" stroke="black" stroke-width="1.5" stroke-linecap="round" stroke-linejoin="round"/>
<path id="Vector_3" d="M17.2673 1.41016H2.73158C2.00178 1.41016 1.41016 2.00178 1.41016 2.73158V17.2673C1.41016 17.9971 2.00178 18.5887 2.73158 18.5887H17.2673C17.9971 18.5887 18.5887 17.9971 18.5887 17.2673V2.73158C18.5887 2.00178 17.9971 1.41016 17.2673 1.41016Z" stroke="black" stroke-width="1.5" stroke-linecap="round" stroke-linejoin="round"/>
</g>
</g>
<defs>
<clipPath id="clip0_47_149196">
<rect width="20" height="20" fill="white"/>
</clipPath>
</defs>
</svg>
