<svg width="20" height="20" viewBox="0 0 20 20" fill="none" xmlns="http://www.w3.org/2000/svg">
<g id="user-full-body-warning-56">
<g id="user-full-body-warning--user-warning-actions-human-geometric-person-single">
<path id="Vector" d="M6.03348 6.69587C7.49309 6.69587 8.67634 5.51262 8.67634 4.05301C8.67634 2.5934 7.49309 1.41016 6.03348 1.41016C4.57387 1.41016 3.39062 2.5934 3.39062 4.05301C3.39062 5.51262 4.57387 6.69587 6.03348 6.69587Z" stroke="black" stroke-width="1.5" stroke-linecap="round" stroke-linejoin="round"/>
<path id="Vector_2" d="M10.6602 11.3203C10.6602 10.0937 10.1729 8.91729 9.30552 8.04995C8.43817 7.18259 7.26179 6.69531 6.03516 6.69531C4.80853 6.69531 3.63214 7.18259 2.76479 8.04995C1.89743 8.91729 1.41016 10.0937 1.41016 11.3203V13.3025H3.3923L4.05301 18.5882H8.0173L8.67801 13.3025H10.6602V11.3203Z" stroke="black" stroke-width="1.5" stroke-linecap="round" stroke-linejoin="round"/>
<path id="Vector_3" d="M15.2852 8.67773V14.6242" stroke="black" stroke-width="1.5" stroke-linecap="round" stroke-linejoin="round"/>
<path id="Ellipse 1515" d="M14.625 17.9283C14.625 18.1035 14.6946 18.2716 14.8185 18.3955C14.9424 18.5194 15.1105 18.589 15.2857 18.589C15.4609 18.589 15.629 18.5194 15.7529 18.3955C15.8768 18.2716 15.9464 18.1035 15.9464 17.9283C15.9464 17.7531 15.8768 17.585 15.7529 17.4611C15.629 17.3372 15.4609 17.2676 15.2857 17.2676C15.1105 17.2676 14.9424 17.3372 14.8185 17.4611C14.6946 17.585 14.625 17.7531 14.625 17.9283Z" stroke="black" stroke-width="1.5" stroke-linecap="round" stroke-linejoin="round"/>
</g>
</g>
</svg>
