<svg width="20" height="20" viewBox="0 0 20 20" fill="none" xmlns="http://www.w3.org/2000/svg">
<g id="user-multiple-circle-28" clip-path="url(#clip0_47_149110)">
<g id="user-multiple-circle--close-geometric-human-multiple-person-up-user-circle">
<path id="Vector" d="M14.5416 11.3216C13.3666 11.3216 12.4141 10.369 12.4141 9.194C12.4141 8.01896 13.3666 7.06641 14.5416 7.06641C15.7166 7.06641 16.6693 8.01896 16.6693 9.194C16.6693 10.369 15.7166 11.3216 14.5416 11.3216Z" stroke="black" stroke-width="1.5" stroke-linecap="round" stroke-linejoin="round"/>
<path id="Vector_2" d="M11.4531 14.6042C11.7462 14.2944 12.0853 14.0292 12.4601 13.8187C13.0965 13.4612 13.8142 13.2734 14.5441 13.2734C15.2741 13.2734 15.9918 13.4612 16.6282 13.8187C16.9034 13.9733 17.1595 14.1575 17.3922 14.3671" stroke="black" stroke-width="1.5" stroke-linecap="round" stroke-linejoin="round"/>
<path id="Vector_3" d="M7.65993 10.6382C6.20384 10.6382 5.02344 9.45782 5.02344 8.00172C5.02344 6.54563 6.20384 5.36523 7.65993 5.36523C9.11602 5.36523 10.2964 6.54563 10.2964 8.00172C10.2964 9.45782 9.11602 10.6382 7.65993 10.6382Z" stroke="black" stroke-width="1.5" stroke-linecap="round" stroke-linejoin="round"/>
<path id="Vector_4" d="M12.5992 18.1676C12.4677 16.5929 12.0753 15.5574 11.8602 15.1928C11.4021 14.4141 10.7584 13.7704 9.99084 13.3238C9.22329 12.8772 8.35771 12.6426 7.47734 12.6426C6.59696 12.6426 5.7314 12.8772 4.96383 13.3238C4.35094 13.6804 3.81699 14.1626 3.39349 14.739L3.125 15.1409" stroke="black" stroke-width="1.5" stroke-linecap="round" stroke-linejoin="round"/>
<path id="Vector_5" d="M9.99944 18.5887C5.25571 18.5887 1.41016 14.7432 1.41016 9.99944C1.41016 5.25571 5.25571 1.41016 9.99944 1.41016C14.7432 1.41016 18.5887 5.25571 18.5887 9.99944C18.5887 14.7432 14.7432 18.5887 9.99944 18.5887Z" stroke="black" stroke-width="1.5" stroke-linecap="round" stroke-linejoin="round"/>
</g>
</g>
<defs>
<clipPath id="clip0_47_149110">
<rect width="20" height="20" fill="white"/>
</clipPath>
</defs>
</svg>
