<svg width="20" height="20" viewBox="0 0 20 20" fill="none" xmlns="http://www.w3.org/2000/svg">
<g id="user-podcast-4">
<g id="user-podcast--human-person-share-signal-transmit-user">
<path id="Vector" d="M10.0006 12.6427C11.6426 12.6427 12.9738 11.3116 12.9738 9.6695C12.9738 8.02744 11.6426 6.69629 10.0006 6.69629C8.3585 6.69629 7.02734 8.02744 7.02734 9.6695C7.02734 11.3116 8.3585 12.6427 10.0006 12.6427Z" stroke="black" stroke-width="1.5" stroke-linecap="round" stroke-linejoin="round"/>
<path id="Vector_2" d="M15.2863 18.5885C14.786 17.6178 14.0281 16.8037 13.0958 16.2353C12.1634 15.667 11.0925 15.3662 10.0006 15.3662C8.9086 15.3662 7.83771 15.667 6.90534 16.2353C5.97296 16.8037 5.2151 17.6178 4.71484 18.5885" stroke="black" stroke-width="1.5" stroke-linecap="round" stroke-linejoin="round"/>
<path id="Vector_3" d="M16.6061 14.7039C17.5439 13.4808 18.1208 12.0197 18.2713 10.4859C18.4219 8.95203 18.1403 7.40665 17.4583 6.02451C16.7765 4.64238 15.7213 3.47864 14.4124 2.66491C13.1036 1.85118 11.5931 1.41992 10.0519 1.41992C8.51069 1.41992 7.00022 1.85118 5.69134 2.66491C4.38245 3.47864 3.32737 4.64238 2.64544 6.02451C1.96349 7.40665 1.6819 8.95203 1.8325 10.4859C1.9831 12.0197 2.55987 13.4808 3.49761 14.7039" stroke="black" stroke-width="1.5" stroke-linecap="round" stroke-linejoin="round"/>
</g>
</g>
</svg>
