<svg width="20" height="20" viewBox="0 0 20 20" fill="none" xmlns="http://www.w3.org/2000/svg">
<g id="user-home-single-59" clip-path="url(#clip0_47_149081)">
<g id="user-home-single--home-geometric-human-person-single-user">
<path id="Vector" d="M18.5887 9.92016C18.59 9.73674 18.553 9.55507 18.4802 9.38672C18.4074 9.21837 18.3004 9.06702 18.1659 8.9423L9.99947 1.41016L1.83304 8.9423C1.69856 9.06702 1.5915 9.21837 1.5187 9.38672C1.4459 9.55507 1.40895 9.73674 1.41019 9.92016V17.2673C1.41019 17.6177 1.54941 17.9539 1.79722 18.2017C2.04504 18.4494 2.38116 18.5887 2.73161 18.5887H17.2673C17.6177 18.5887 17.9539 18.4494 18.2017 18.2017C18.4496 17.9539 18.5887 17.6177 18.5887 17.2673V9.92016Z" stroke="black" stroke-width="1.5" stroke-linecap="round" stroke-linejoin="round"/>
<path id="Ellipse 5" d="M7.35547 9.05824C7.35547 9.75952 7.63405 10.4321 8.12993 10.928C8.62581 11.4238 9.29837 11.7024 9.99965 11.7024C10.7009 11.7024 11.3735 11.4238 11.8694 10.928C12.3652 10.4321 12.6438 9.75952 12.6438 9.05824C12.6438 8.35696 12.3652 7.6844 11.8694 7.18852C11.3735 6.69265 10.7009 6.41406 9.99965 6.41406C9.29837 6.41406 8.62581 6.69265 8.12993 7.18852C7.63405 7.6844 7.35547 8.35696 7.35547 9.05824Z" stroke="black" stroke-width="1.5"/>
<path id="Ellipse 6" d="M4.51562 18.5886C4.95866 15.9608 7.24498 13.959 9.99884 13.959C12.7527 13.959 15.039 15.9608 15.482 18.5886" stroke="black" stroke-width="1.5"/>
</g>
</g>
<defs>
<clipPath id="clip0_47_149081">
<rect width="20" height="20" fill="white"/>
</clipPath>
</defs>
</svg>
