<svg width="20" height="20" viewBox="0 0 20 20" fill="none" xmlns="http://www.w3.org/2000/svg">
<g id="user-full-body-48">
<g id="user-full-body--geometric-human-person-single-up-user-full-body">
<path id="Vector" d="M9.99833 6.69587C11.4579 6.69587 12.6412 5.51262 12.6412 4.05301C12.6412 2.5934 11.4579 1.41016 9.99833 1.41016C8.53872 1.41016 7.35547 2.5934 7.35547 4.05301C7.35547 5.51262 8.53872 6.69587 9.99833 6.69587Z" stroke="black" stroke-width="1.5" stroke-linecap="round" stroke-linejoin="round"/>
<path id="Vector_2" d="M14.625 11.3203C14.625 10.0937 14.1378 8.91729 13.2704 8.04995C12.403 7.18259 11.2266 6.69531 10 6.69531C8.77337 6.69531 7.59698 7.18259 6.72964 8.04995C5.86228 8.91729 5.375 10.0937 5.375 11.3203V13.3025H7.35714L8.01786 18.5882H11.9821L12.6429 13.3025H14.625V11.3203Z" stroke="black" stroke-width="1.5" stroke-linecap="round" stroke-linejoin="round"/>
</g>
</g>
</svg>
