<svg width="20" height="20" viewBox="0 0 20 20" fill="none" xmlns="http://www.w3.org/2000/svg">
<g id="user-multiple-group-27">
<g id="user-multiple-group--close-geometric-human-multiple-person-up-user">
<path id="Vector" d="M7.35826 9.33956C9.18277 9.33956 10.6618 7.8605 10.6618 6.03599C10.6618 4.21148 9.18277 2.73242 7.35826 2.73242C5.53375 2.73242 4.05469 4.21148 4.05469 6.03599C4.05469 7.8605 5.53375 9.33956 7.35826 9.33956Z" stroke="black" stroke-width="1.5" stroke-linecap="round" stroke-linejoin="round"/>
<path id="Vector_2" d="M1.41016 18.5904H13.303V17.874C13.2925 16.8667 13.0269 15.8787 12.5309 15.0019C12.035 14.1253 11.325 13.3885 10.4671 12.8606C9.60929 12.3327 8.63164 12.0309 7.62552 11.9832C7.53582 11.979 7.44615 11.9768 7.35659 11.9766C7.26702 11.9768 7.17735 11.979 7.08765 11.9832C6.08153 12.0309 5.10388 12.3327 4.24603 12.8606C3.3882 13.3885 2.67816 14.1253 2.18223 15.0019C1.6863 15.8787 1.42068 16.8667 1.41016 17.874V18.5904Z" stroke="black" stroke-width="1.5" stroke-linecap="round" stroke-linejoin="round"/>
<path id="Vector_3" d="M12.6406 9.33956C14.4651 9.33956 15.9442 7.8605 15.9442 6.03599C15.9442 4.21148 14.4651 2.73242 12.6406 2.73242" stroke="black" stroke-width="1.5" stroke-linecap="round" stroke-linejoin="round"/>
<path id="Vector_4" d="M15.947 18.5895H18.5898V17.873C18.5793 16.8658 18.3137 15.8778 17.8177 15.001C17.3218 14.1244 16.6118 13.3876 15.7539 12.8597C15.1995 12.5185 14.5948 12.2717 13.9648 12.127" stroke="black" stroke-width="1.5" stroke-linecap="round" stroke-linejoin="round"/>
</g>
</g>
</svg>
