<svg width="20" height="20" viewBox="0 0 20 20" fill="none" xmlns="http://www.w3.org/2000/svg">
<g id="user-profile-focus-11" clip-path="url(#clip0_47_149138)">
<g id="user-profile-focus--close-geometric-human-person-profile-focus-user">
<path id="Vector" d="M18.5893 14.625V17.2679C18.5893 17.6183 18.45 17.9545 18.2022 18.2022C17.9545 18.45 17.6183 18.5893 17.2679 18.5893H14.625" stroke="black" stroke-width="1.5" stroke-linecap="round" stroke-linejoin="round"/>
<path id="Vector_2" d="M14.625 1.41016H17.2679C17.6183 1.41016 17.9545 1.54938 18.2022 1.79719C18.45 2.04501 18.5893 2.38112 18.5893 2.73158V5.37444" stroke="black" stroke-width="1.5" stroke-linecap="round" stroke-linejoin="round"/>
<path id="Vector_3" d="M1.41016 5.37444V2.73158C1.41016 2.38112 1.54938 2.04501 1.79719 1.79719C2.04501 1.54938 2.38112 1.41016 2.73158 1.41016H5.37444" stroke="black" stroke-width="1.5" stroke-linecap="round" stroke-linejoin="round"/>
<path id="Vector_4" d="M5.37444 18.5893H2.73158C2.38112 18.5893 2.04501 18.45 1.79719 18.2022C1.54938 17.9545 1.41016 17.6183 1.41016 17.2679V14.625" stroke="black" stroke-width="1.5" stroke-linecap="round" stroke-linejoin="round"/>
<path id="Vector_5" d="M9.99831 9.33842C11.4579 9.33842 12.6412 8.15518 12.6412 6.69558C12.6412 5.23598 11.4579 4.05273 9.99831 4.05273C8.5387 4.05273 7.35547 5.23598 7.35547 6.69558C7.35547 8.15518 8.5387 9.33842 9.99831 9.33842Z" stroke="black" stroke-width="1.5" stroke-linecap="round" stroke-linejoin="round"/>
<path id="Vector_6" d="M15.0236 15.2851C14.6822 14.2205 14.0115 13.2919 13.1084 12.633C12.2052 11.9742 11.1161 11.6191 9.99811 11.6191C8.88015 11.6191 7.79106 11.9742 6.88787 12.633C5.98467 13.2919 5.31405 14.2205 4.97266 15.2851H15.0236Z" stroke="black" stroke-width="1.5" stroke-linecap="round" stroke-linejoin="round"/>
</g>
</g>
<defs>
<clipPath id="clip0_47_149138">
<rect width="20" height="20" fill="white"/>
</clipPath>
</defs>
</svg>
