<svg width="20" height="20" viewBox="0 0 20 20" fill="none" xmlns="http://www.w3.org/2000/svg">
<g id="user-sticker-circle-41" clip-path="url(#clip0_47_149201)">
<g id="user-sticker-circle">
<path id="Ellipse 167" d="M5.89062 10.666C6.51829 11.5406 7.43812 12.1907 8.50647 12.4744" stroke="black" stroke-width="1.5" stroke-linecap="round" stroke-linejoin="round"/>
<path id="Ellipse 168" d="M3.95929 3.91241C0.622947 7.24874 0.622947 12.658 3.95929 15.9944C5.47533 17.5104 7.41942 18.3375 9.40254 18.4757C10.2763 18.5367 11.1576 18.4639 12.0133 18.2573L17.9903 12.9834C18.1353 12.6005 18.2517 12.2093 18.3397 11.813C18.9515 9.05697 18.1854 6.05659 16.0412 3.91241C12.7049 0.576071 7.29563 0.576071 3.95929 3.91241Z" stroke="black" stroke-width="1.5" stroke-linecap="round" stroke-linejoin="round"/>
<path id="Ellipse 54" d="M12.0436 18.2711C10.4803 16.7079 10.4803 14.1732 12.0436 12.61C13.6069 11.0467 16.1415 11.0467 17.7047 12.61C17.8119 12.7171 17.9116 12.8288 18.004 12.9444" stroke="black" stroke-width="1.5" stroke-linecap="round" stroke-linejoin="round"/>
<g id="Group 2605">
<path id="Ellipse 1111" d="M7.68583 8.01814C7.50338 8.01814 7.35547 7.87023 7.35547 7.68778C7.35547 7.50533 7.50338 7.35742 7.68583 7.35742" stroke="black" stroke-width="1.5" stroke-linecap="round" stroke-linejoin="round"/>
<path id="Ellipse 1112" d="M7.6875 8.01814C7.86995 8.01814 8.01786 7.87023 8.01786 7.68778C8.01786 7.50533 7.86995 7.35742 7.6875 7.35742" stroke="black" stroke-width="1.5" stroke-linecap="round" stroke-linejoin="round"/>
</g>
<g id="Group 2606">
<path id="Ellipse 1111_2" d="M12.3108 8.01814C12.1284 8.01814 11.9805 7.87023 11.9805 7.68778C11.9805 7.50533 12.1284 7.35742 12.3108 7.35742" stroke="black" stroke-width="1.5" stroke-linecap="round" stroke-linejoin="round"/>
<path id="Ellipse 1112_2" d="M12.3125 8.01814C12.4949 8.01814 12.6429 7.87023 12.6429 7.68778C12.6429 7.50533 12.4949 7.35742 12.3125 7.35742" stroke="black" stroke-width="1.5" stroke-linecap="round" stroke-linejoin="round"/>
</g>
</g>
</g>
<defs>
<clipPath id="clip0_47_149201">
<rect width="20" height="20" fill="white"/>
</clipPath>
</defs>
</svg>
