<svg width="20" height="20" viewBox="0 0 20 20" fill="none" xmlns="http://www.w3.org/2000/svg">
<g id="user-arrows-account-switch-21" clip-path="url(#clip0_47_148882)">
<g id="user-arrows-account-switch--user-arrows-account-switch-reload">
<path id="Vector" d="M15.0315 16.8963C14.6896 15.83 14.0179 14.9 13.1133 14.2401C12.2087 13.5802 11.1179 13.2246 9.99818 13.2246C8.87847 13.2246 7.78767 13.5802 6.88306 14.2401C5.97846 14.9 5.30676 15.83 4.96484 16.8963" stroke="black" stroke-width="1.5" stroke-linecap="round" stroke-linejoin="round"/>
<path id="Vector_2" d="M9.99865 11.2219C11.3419 11.2219 12.4309 10.1329 12.4309 8.78966C12.4309 7.44637 11.3419 6.35742 9.99865 6.35742C8.65537 6.35742 7.56641 7.44637 7.56641 8.78966C7.56641 10.1329 8.65537 11.2219 9.99865 11.2219Z" stroke="black" stroke-width="1.5" stroke-linecap="round" stroke-linejoin="round"/>
<path id="Ellipse 1115" d="M18.3589 11.9816C17.4641 15.7697 14.061 18.5887 9.99944 18.5887C5.25571 18.5887 1.41016 14.7432 1.41016 9.99944C1.41016 5.25571 5.25571 1.41016 9.99944 1.41016C13.3132 1.41016 16.1887 3.28673 17.6212 6.03516" stroke="black" stroke-width="1.5" stroke-linecap="round"/>
<path id="Vector_3" d="M18.5887 3.39258V6.69615H15.2852" stroke="black" stroke-width="1.5" stroke-linecap="round" stroke-linejoin="round"/>
</g>
</g>
<defs>
<clipPath id="clip0_47_148882">
<rect width="20" height="20" fill="white"/>
</clipPath>
</defs>
</svg>
