<svg width="20" height="20" viewBox="0 0 20 20" fill="none" xmlns="http://www.w3.org/2000/svg">
<g id="user-collaborate-group-29" clip-path="url(#clip0_47_148916)">
<g id="user-collaborate-group">
<path id="Ellipse 330" d="M2.63672 3.25091C2.63672 3.49264 2.68433 3.732 2.77684 3.95533C2.86934 4.17866 3.00493 4.38158 3.17586 4.55251C3.34679 4.72344 3.54971 4.85903 3.77304 4.95154C3.99637 5.04404 4.23574 5.09166 4.47747 5.09166C4.7192 5.09166 4.95856 5.04404 5.18189 4.95154C5.40522 4.85903 5.60815 4.72344 5.77908 4.55251C5.95001 4.38158 6.08559 4.17866 6.1781 3.95533C6.27061 3.732 6.31822 3.49264 6.31822 3.25091C6.31822 3.00918 6.27061 2.76981 6.1781 2.54648C6.08559 2.32315 5.95001 2.12023 5.77908 1.9493C5.60815 1.77837 5.40522 1.64278 5.18189 1.55027C4.95856 1.45777 4.7192 1.41016 4.47747 1.41016C4.23574 1.41016 3.99637 1.45777 3.77304 1.55027C3.54971 1.64278 3.34679 1.77837 3.17586 1.9493C3.00493 2.12023 2.86934 2.32315 2.77684 2.54648C2.68433 2.76981 2.63672 3.00918 2.63672 3.25091Z" stroke="black" stroke-width="1.5" stroke-linejoin="round"/>
<path id="Ellipse 334" d="M7.54536 9.99924C7.54536 8.30505 6.17195 6.93164 4.47776 6.93164C2.78357 6.93164 1.41016 8.30505 1.41016 9.99924" stroke="black" stroke-width="1.5" stroke-linecap="round" stroke-linejoin="round"/>
<path id="Ellipse 335" d="M13.6797 11.8407C13.6797 12.0825 13.7273 12.3218 13.8198 12.5452C13.9123 12.7685 14.0479 12.9714 14.2188 13.1424C14.3898 13.3133 14.5927 13.4489 14.816 13.5414C15.0393 13.6339 15.2787 13.6815 15.5204 13.6815C15.7622 13.6815 16.0015 13.6339 16.2249 13.5414C16.4482 13.4489 16.6511 13.3133 16.822 13.1424C16.993 12.9714 17.1286 12.7685 17.2211 12.5452C17.3136 12.3218 17.3612 12.0825 17.3612 11.8407C17.3612 11.599 17.3136 11.3597 17.2211 11.1363C17.1286 10.913 16.993 10.7101 16.822 10.5391C16.6511 10.3682 16.4482 10.2326 16.2249 10.1401C16.0015 10.0476 15.7622 10 15.5204 10C15.2787 10 15.0393 10.0476 14.816 10.1401C14.5927 10.2326 14.3898 10.3682 14.2188 10.5391C14.0479 10.7101 13.9123 10.913 13.8198 11.1363C13.7273 11.3597 13.6797 11.599 13.6797 11.8407Z" stroke="black" stroke-width="1.5" stroke-linejoin="round"/>
<path id="Ellipse 336" d="M18.5883 18.589C18.5883 16.8948 17.2149 15.5215 15.5207 15.5215C13.8265 15.5215 12.4531 16.8948 12.4531 18.589" stroke="black" stroke-width="1.5" stroke-linecap="round" stroke-linejoin="round"/>
<path id="Vector 1040" d="M15.5212 6.3176V5.70409C15.5212 4.34873 14.4225 3.25 13.0671 3.25H11.2266" stroke="black" stroke-width="1.5" stroke-linecap="round" stroke-linejoin="round"/>
<path id="Vector 1041" d="M4.47656 13.6797V14.2932C4.47656 15.6486 5.57529 16.7472 6.93065 16.7472H8.77122" stroke="black" stroke-width="1.5" stroke-linecap="round" stroke-linejoin="round"/>
</g>
</g>
<defs>
<clipPath id="clip0_47_148916">
<rect width="20" height="20" fill="white"/>
</clipPath>
</defs>
</svg>
