<svg width="20" height="21" viewBox="0 0 20 21" fill="none" xmlns="http://www.w3.org/2000/svg">
<g clip-path="url(#clip0_3876_17436)">
<path d="M10.0001 11.928C11.9726 11.928 13.5716 10.329 13.5716 8.35659C13.5716 6.38414 11.9726 4.78516 10.0001 4.78516C8.0277 4.78516 6.42871 6.38414 6.42871 8.35659C6.42871 10.329 8.0277 11.928 10.0001 11.928Z" stroke="#637083" stroke-width="1.42857" stroke-linecap="round" stroke-linejoin="round"/>
<path d="M3.8999 17.4999C4.53739 16.4534 5.43335 15.5886 6.50163 14.9886C7.56992 14.3885 8.7746 14.0732 9.9999 14.0732C11.2252 14.0732 12.4299 14.3885 13.4982 14.9886C14.5665 15.5886 15.4624 16.4534 16.0999 17.4999" stroke="#637083" stroke-width="1.42857" stroke-linecap="round" stroke-linejoin="round"/>
<path d="M10.0001 19.7853C15.1285 19.7853 19.2858 15.628 19.2858 10.4996C19.2858 5.37122 15.1285 1.21387 10.0001 1.21387C4.87171 1.21387 0.714355 5.37122 0.714355 10.4996C0.714355 15.628 4.87171 19.7853 10.0001 19.7853Z" stroke="#637083" stroke-width="1.42857" stroke-linecap="round" stroke-linejoin="round"/>
</g>
<defs>
<clipPath id="clip0_3876_17436">
<rect width="20" height="20" fill="white" transform="translate(0 0.5)"/>
</clipPath>
</defs>
</svg>
