<svg width="20" height="20" viewBox="0 0 20 20" fill="none" xmlns="http://www.w3.org/2000/svg">
<g id="user-lock-privacy-60" clip-path="url(#clip0_47_149098)">
<g id="user-lock-privacy--actions-lock-geometric-human-person-single-up-user">
<path id="Vector" d="M7.35826 8.0173C9.18277 8.0173 10.6618 6.53824 10.6618 4.71373C10.6618 2.88922 9.18277 1.41016 7.35826 1.41016C5.53375 1.41016 4.05469 2.88922 4.05469 4.71373C4.05469 6.53824 5.53375 8.0173 7.35826 8.0173Z" stroke="black" stroke-width="1.5" stroke-linecap="round" stroke-linejoin="round"/>
<path id="Vector_2" d="M8.0173 17.2681H1.41016V16.5518C1.42068 15.5444 1.6863 14.5564 2.18223 13.6797C2.67816 12.803 3.3882 12.0663 4.24603 11.5384C5.10388 11.0104 6.08153 10.7086 7.08765 10.661C7.17735 10.6567 7.26702 10.6545 7.35659 10.6543C7.44615 10.6545 7.53584 10.6567 7.62554 10.661C7.98126 10.6778 8.33344 10.7264 8.67801 10.8056" stroke="black" stroke-width="1.5" stroke-linecap="round" stroke-linejoin="round"/>
<path id="Vector_3" d="M11.3209 13.3027H17.928C18.3244 13.3027 18.5887 13.567 18.5887 13.9634V17.9277C18.5887 18.3242 18.3244 18.5884 17.928 18.5884H11.3209C10.9244 18.5884 10.6602 18.3242 10.6602 17.9277V13.9634C10.6602 13.567 10.9244 13.3027 11.3209 13.3027Z" stroke="black" stroke-width="1.5" stroke-linecap="round" stroke-linejoin="round"/>
<path id="Vector_4" d="M11.9805 13.3022V11.9807C11.9805 10.5272 13.1698 9.33789 14.6233 9.33789C16.0769 9.33789 17.2662 10.5272 17.2662 11.9807V13.3022" stroke="black" stroke-width="1.5" stroke-linecap="round" stroke-linejoin="round"/>
</g>
</g>
<defs>
<clipPath id="clip0_47_149098">
<rect width="20" height="20" fill="white"/>
</clipPath>
</defs>
</svg>
