<svg width="20" height="20" viewBox="0 0 20 20" fill="none" xmlns="http://www.w3.org/2000/svg">
<g id="user-sticker-square-9" clip-path="url(#clip0_47_149212)">
<g id="user-sticker-square">
<path id="Vector 176" d="M18.5887 2.6372V13.1723C18.5887 13.4977 18.4595 13.8098 18.2293 14.04L14.04 18.2293C13.8098 18.4595 13.4977 18.5887 13.1723 18.5887H2.6372C1.95952 18.5887 1.41016 18.0394 1.41016 17.3616V2.6372C1.41016 1.95952 1.95952 1.41016 2.6372 1.41016H17.3616C18.0394 1.41016 18.5887 1.95952 18.5887 2.6372Z" stroke="black" stroke-width="1.5" stroke-linecap="round" stroke-linejoin="round"/>
<path id="Vector 177" d="M12.9922 18.589V13.8404C12.9922 13.2576 13.4479 12.7852 14.01 12.7852H18.5905" stroke="black" stroke-width="1.5" stroke-linecap="round" stroke-linejoin="round"/>
<path id="Ellipse 167" d="M6.75 10.7728C7.71583 11.3074 8.91739 11.3817 9.98808 10.867C11.0588 10.3523 11.7513 9.36752 11.9369 8.2793" stroke="black" stroke-width="1.5" stroke-linecap="round" stroke-linejoin="round"/>
<g id="Group 2605">
<path id="Ellipse 1111" d="M5.70536 7.6861C5.52291 7.6861 5.375 7.5382 5.375 7.35575C5.375 7.1733 5.52291 7.02539 5.70536 7.02539" stroke="black" stroke-width="1.5" stroke-linecap="round" stroke-linejoin="round"/>
<path id="Ellipse 1112" d="M5.70703 7.6861C5.88948 7.6861 6.03739 7.5382 6.03739 7.35575C6.03739 7.1733 5.88948 7.02539 5.70703 7.02539" stroke="black" stroke-width="1.5" stroke-linecap="round" stroke-linejoin="round"/>
</g>
<g id="Group 2608">
<path id="Ellipse 1111_2" d="M9.33817 5.37361C9.15572 5.37361 9.00781 5.2257 9.00781 5.04325C9.00781 4.8608 9.15572 4.71289 9.33817 4.71289" stroke="black" stroke-width="1.5" stroke-linecap="round" stroke-linejoin="round"/>
<path id="Ellipse 1112_2" d="M9.33984 5.37361C9.52229 5.37361 9.6702 5.2257 9.6702 5.04325C9.6702 4.8608 9.52229 4.71289 9.33984 4.71289" stroke="black" stroke-width="1.5" stroke-linecap="round" stroke-linejoin="round"/>
</g>
</g>
</g>
<defs>
<clipPath id="clip0_47_149212">
<rect width="20" height="20" fill="white"/>
</clipPath>
</defs>
</svg>
