<svg width="20" height="20" viewBox="0 0 20 20" fill="none" xmlns="http://www.w3.org/2000/svg">
<g id="user-friendship-group-61" clip-path="url(#clip0_47_148980)">
<g id="user-friendship-group">
<path id="Vector" d="M5.70592 5.7048C6.89184 5.7048 7.85324 4.74341 7.85324 3.55748C7.85324 2.37155 6.89184 1.41016 5.70592 1.41016C4.51999 1.41016 3.55859 2.37155 3.55859 3.55748C3.55859 4.74341 4.51999 5.7048 5.70592 5.7048Z" stroke="black" stroke-width="1.5" stroke-linecap="round" stroke-linejoin="round"/>
<path id="Vector_2" d="M14.2958 5.7048C15.4817 5.7048 16.4431 4.74341 16.4431 3.55748C16.4431 2.37155 15.4817 1.41016 14.2958 1.41016C13.1098 1.41016 12.1484 2.37155 12.1484 3.55748C12.1484 4.74341 13.1098 5.7048 14.2958 5.7048Z" stroke="black" stroke-width="1.5" stroke-linecap="round" stroke-linejoin="round"/>
<path id="Ellipse 8" d="M8.15857 13.6801L7.54506 18.5883H3.86394L3.25042 13.6801H2.02368C1.68484 13.6801 1.41016 13.4054 1.41016 13.0666V11.8395C1.41016 9.46768 3.33309 7.54492 5.70494 7.54492H14.294C16.6658 7.54492 18.5887 9.46768 18.5887 11.8395V13.0666C18.5887 13.4054 18.314 13.6801 17.9752 13.6801H16.7485L16.135 18.5883H12.4538L11.8403 13.6801" stroke="black" stroke-width="1.5" stroke-linecap="round" stroke-linejoin="round"/>
</g>
</g>
<defs>
<clipPath id="clip0_47_148980">
<rect width="20" height="20" fill="white"/>
</clipPath>
</defs>
</svg>
