<svg width="20" height="20" viewBox="0 0 20 20" fill="none" xmlns="http://www.w3.org/2000/svg">
<g id="user-full-body-lock-privacy" clip-path="url(#clip0_47_149036)">
<g id="user-full-body-lock-privacy--actions-lock-geometric-human-person-single-user">
<path id="Vector" d="M6.03348 6.69587C7.49309 6.69587 8.67634 5.51262 8.67634 4.05301C8.67634 2.5934 7.49309 1.41016 6.03348 1.41016C4.57387 1.41016 3.39062 2.5934 3.39062 4.05301C3.39062 5.51262 4.57387 6.69587 6.03348 6.69587Z" stroke="black" stroke-width="1.5" stroke-linecap="round" stroke-linejoin="round"/>
<path id="Vector_2" d="M8.51284 14.6239L8.0173 18.5882H4.05301L3.3923 13.3025H1.41016V11.3203C1.41016 10.0937 1.89743 8.91729 2.76479 8.04995C3.63214 7.18259 4.80853 6.69531 6.03516 6.69531C7.26179 6.69531 8.43817 7.18259 9.30552 8.04995C9.68341 8.42782 9.98915 8.86437 10.2139 9.33817" stroke="black" stroke-width="1.5" stroke-linecap="round" stroke-linejoin="round"/>
<path id="Vector_3" d="M11.3209 13.3027H17.928C18.3244 13.3027 18.5887 13.567 18.5887 13.9634V17.9277C18.5887 18.3242 18.3244 18.5884 17.928 18.5884H11.3209C10.9244 18.5884 10.6602 18.3242 10.6602 17.9277V13.9634C10.6602 13.567 10.9244 13.3027 11.3209 13.3027Z" stroke="black" stroke-width="1.5" stroke-linecap="round" stroke-linejoin="round"/>
<path id="Vector_4" d="M11.9805 13.3022V11.9807C11.9805 10.5272 13.1698 9.33789 14.6233 9.33789C16.0769 9.33789 17.2662 10.5272 17.2662 11.9807V13.3022" stroke="black" stroke-width="1.5" stroke-linecap="round" stroke-linejoin="round"/>
</g>
</g>
<defs>
<clipPath id="clip0_47_149036">
<rect width="20" height="20" fill="white"/>
</clipPath>
</defs>
</svg>
