<svg width="20" height="20" viewBox="0 0 20 20" fill="none" xmlns="http://www.w3.org/2000/svg">
<g id="user-sync-online-in-person-58" clip-path="url(#clip0_47_149233)">
<g id="user-sync-online-in-person">
<path id="Ellipse 1134" d="M8.34766 7.68694C8.34766 7.90386 8.39038 8.11865 8.47339 8.31905C8.5564 8.51946 8.67807 8.70155 8.83145 8.85493C8.98484 9.00831 9.16693 9.12998 9.36733 9.21299C9.56774 9.296 9.78253 9.33873 9.99944 9.33873C10.2164 9.33873 10.4311 9.296 10.6316 9.21299C10.832 9.12998 11.014 9.00831 11.1674 8.85493C11.3208 8.70155 11.4425 8.51946 11.5255 8.31905C11.6085 8.11865 11.6512 7.90386 11.6512 7.68694C11.6512 7.24886 11.4772 6.82872 11.1674 6.51895C10.8577 6.20918 10.4375 6.03516 9.99944 6.03516C9.56136 6.03516 9.14122 6.20918 8.83145 6.51895C8.52168 6.82872 8.34766 7.24886 8.34766 7.68694Z" stroke="black" stroke-width="1.5" stroke-linecap="round" stroke-linejoin="round"/>
<path id="Ellipse 1136" d="M6.97266 13.3025C7.48244 12.1357 8.64667 11.3203 10.0013 11.3203C11.356 11.3203 12.5203 12.1357 13.03 13.3025" stroke="black" stroke-width="1.5" stroke-linecap="round" stroke-linejoin="round"/>
<path id="Ellipse 1522" d="M18.5867 10C18.5867 14.7438 14.7411 18.5893 9.9974 18.5893C6.42432 18.5893 3.36083 16.4076 2.06641 13.3036" stroke="black" stroke-width="1.5" stroke-linecap="round" stroke-linejoin="round"/>
<path id="Ellipse 1523" d="M1.41016 9.99944C1.41016 5.25571 5.25571 1.41016 9.99944 1.41016C13.5725 1.41016 16.6361 3.5919 17.9304 6.69587" stroke="black" stroke-width="1.5" stroke-linecap="round" stroke-linejoin="round"/>
<path id="Vector" d="M18.5882 4.05273V6.69559H15.9453" stroke="black" stroke-width="1.5" stroke-linecap="round" stroke-linejoin="round"/>
<path id="Vector_2" d="M1.41016 15.9456V13.3027H4.05301" stroke="black" stroke-width="1.5" stroke-linecap="round" stroke-linejoin="round"/>
</g>
</g>
<defs>
<clipPath id="clip0_47_149233">
<rect width="20" height="20" fill="white"/>
</clipPath>
</defs>
</svg>
