<svg width="20" height="20" viewBox="0 0 20 20" fill="none" xmlns="http://www.w3.org/2000/svg">
<g id="user-work-laptop-32">
<g id="user-work-laptop--geometric-work-laptop-person-single-user">
<path id="Vector" d="M12.6434 8.67941C14.4679 8.67941 15.947 7.20035 15.947 5.37584C15.947 3.55133 14.4679 2.07227 12.6434 2.07227C10.8189 2.07227 9.33984 3.55133 9.33984 5.37584C9.33984 7.20035 10.8189 8.67941 12.6434 8.67941Z" stroke="black" stroke-width="1.5" stroke-linecap="round" stroke-linejoin="round"/>
<path id="Vector_2" d="M12.6406 11.9824C13.422 11.9807 14.1961 12.1333 14.9182 12.4315C15.6405 12.7298 16.2968 13.1677 16.8492 13.7202C17.4017 14.2727 17.8398 14.9289 18.1379 15.6512C18.4361 16.3734 18.5888 17.1475 18.5871 17.9289" stroke="black" stroke-width="1.5" stroke-linecap="round" stroke-linejoin="round"/>
<path id="Vector_3" d="M9.33873 11.3223H1.41016L2.73158 17.9294H10.6602L9.33873 11.3223Z" stroke="black" stroke-width="1.5" stroke-linecap="round" stroke-linejoin="round"/>
<path id="Vector_4" d="M10.6602 17.9297H14.6244" stroke="black" stroke-width="1.5" stroke-linecap="round" stroke-linejoin="round"/>
</g>
</g>
</svg>
