<svg width="20" height="20" viewBox="0 0 20 20" fill="none" xmlns="http://www.w3.org/2000/svg">
<g id="user-warning-5">
<g id="user-warning--user-warning-actions-human-geometric-person-single">
<path id="Vector" d="M7.35826 8.0173C9.18277 8.0173 10.6618 6.53824 10.6618 4.71373C10.6618 2.88922 9.18277 1.41016 7.35826 1.41016C5.53375 1.41016 4.05469 2.88922 4.05469 4.71373C4.05469 6.53824 5.53375 8.0173 7.35826 8.0173Z" stroke="black" stroke-width="1.5" stroke-linecap="round" stroke-linejoin="round"/>
<path id="Vector_2" d="M10.6602 17.2681H1.41016V16.5518C1.42068 15.5444 1.6863 14.5564 2.18223 13.6797C2.67816 12.803 3.3882 12.0663 4.24603 11.5384C5.10388 11.0104 6.08153 10.7086 7.08765 10.661C7.17735 10.6567 7.26702 10.6545 7.35659 10.6543C7.44615 10.6545 7.53582 10.6567 7.62552 10.661C8.63164 10.7086 9.60929 11.0104 10.4671 11.5384C10.6081 11.6251 10.7451 11.7175 10.8778 11.8153" stroke="black" stroke-width="1.5" stroke-linecap="round" stroke-linejoin="round"/>
<path id="Vector_3" d="M14.2383 9.33789V13.3022" stroke="black" stroke-width="1.5" stroke-linecap="round" stroke-linejoin="round"/>
<g id="Group 627">
<path id="Vector_4" d="M14.2405 16.9361C14.058 16.9361 13.9102 16.7882 13.9102 16.6057C13.9102 16.4233 14.058 16.2754 14.2405 16.2754" stroke="black" stroke-width="1.5" stroke-linecap="round" stroke-linejoin="round"/>
<path id="Vector_5" d="M14.2422 16.9361C14.4247 16.9361 14.5725 16.7882 14.5725 16.6057C14.5725 16.4233 14.4247 16.2754 14.2422 16.2754" stroke="black" stroke-width="1.5" stroke-linecap="round" stroke-linejoin="round"/>
</g>
</g>
</g>
</svg>
