<svg width="20" height="20" viewBox="0 0 20 20" fill="none" xmlns="http://www.w3.org/2000/svg">
<g id="user-work-laptop-wifi-46" clip-path="url(#clip0_47_149265)">
<g id="user-work-laptop-wifi--geometric-work-laptop-wifi-person-single-user">
<path id="Vector" d="M12.6429 9.8365C14.1025 9.8365 15.2857 8.65325 15.2857 7.19364C15.2857 5.73403 14.1025 4.55078 12.6429 4.55078C11.1832 4.55078 10 5.73403 10 7.19364C10 8.65325 11.1832 9.8365 12.6429 9.8365Z" stroke="black" stroke-width="1.5" stroke-linecap="round" stroke-linejoin="round"/>
<path id="Vector_2" d="M12.6406 12.4805C13.422 12.4787 14.1961 12.6314 14.9182 12.9296C15.6405 13.2278 16.2968 13.6657 16.8492 14.2183C17.4017 14.7708 17.8398 15.427 18.1379 16.1493C18.4361 16.8715 18.5888 17.6456 18.5871 18.4269" stroke="black" stroke-width="1.5" stroke-linecap="round" stroke-linejoin="round"/>
<path id="Vector_3" d="M9.33873 11.8203H1.41016L2.73158 18.4275H10.6602L9.33873 11.8203Z" stroke="black" stroke-width="1.5" stroke-linecap="round" stroke-linejoin="round"/>
<path id="Vector_4" d="M10.6602 18.4258H14.6244" stroke="black" stroke-width="1.5" stroke-linecap="round" stroke-linejoin="round"/>
<path id="Vector_5" d="M1.63281 3.12445C2.12371 2.633 2.70667 2.24314 3.34834 1.97713C3.99001 1.71113 4.67783 1.57422 5.37245 1.57422C6.06707 1.57422 6.75489 1.71113 7.39656 1.97713C8.03825 2.24314 8.6212 2.633 9.1121 3.12445" stroke="black" stroke-width="1.5" stroke-linecap="round" stroke-linejoin="round"/>
<path id="Vector_6" d="M3.97266 5.46411C4.15579 5.27873 4.37391 5.13155 4.61434 5.03108C4.85479 4.93063 5.11278 4.87891 5.37337 4.87891C5.63396 4.87891 5.89195 4.93063 6.1324 5.03108C6.37285 5.13155 6.59095 5.27873 6.77408 5.46411" stroke="black" stroke-width="1.5" stroke-linecap="round" stroke-linejoin="round"/>
</g>
</g>
<defs>
<clipPath id="clip0_47_149265">
<rect width="20" height="20" fill="white"/>
</clipPath>
</defs>
</svg>
