<svg width="20" height="20" viewBox="0 0 20 20" fill="none" xmlns="http://www.w3.org/2000/svg">
<g id="user-story-3" clip-path="url(#clip0_47_147552)">
<g id="user-story">
<path id="Vector" d="M9.99867 11.5823C11.7109 11.5823 13.0989 10.1943 13.0989 8.48208C13.0989 6.76986 11.7109 5.38184 9.99867 5.38184C8.28645 5.38184 6.89844 6.76986 6.89844 8.48208C6.89844 10.1943 8.28645 11.5823 9.99867 11.5823Z" stroke="black" stroke-width="1.5" stroke-linecap="round" stroke-linejoin="round"/>
<path id="Vector_2" d="M4.58594 16.5528C5.15206 15.6234 5.94771 14.8556 6.89639 14.3226C7.84507 13.7897 8.91489 13.5098 10.003 13.5098C11.0911 13.5098 12.1609 13.7897 13.1096 14.3226C14.0583 14.8556 14.8539 15.6234 15.42 16.5528" stroke="black" stroke-width="1.5" stroke-linecap="round" stroke-linejoin="round"/>
<path id="Ellipse 300" d="M1.55659 8.8623C1.51408 9.20712 1.49219 9.55831 1.49219 9.91464C1.49219 10.2709 1.51408 10.6222 1.55659 10.967" stroke="black" stroke-width="1.5" stroke-linecap="round" stroke-linejoin="round"/>
<path id="Ellipse 305" d="M4.86719 3.12753C5.14456 2.91831 5.43775 2.72374 5.74633 2.54558C6.05491 2.36743 6.37001 2.21079 6.68989 2.0752" stroke="black" stroke-width="1.5" stroke-linecap="round" stroke-linejoin="round"/>
<path id="Ellipse 303" d="M2.16406 6.60297C2.29964 6.28309 2.45628 5.96799 2.63445 5.65942C2.81261 5.35084 3.00716 5.05763 3.2164 4.78027" stroke="black" stroke-width="1.5" stroke-linecap="round" stroke-linejoin="round"/>
<path id="Ellipse 306" d="M10.0168 1.41113C14.7071 1.41113 18.5094 5.25669 18.5094 10.0004C18.5094 14.7442 14.7071 18.5897 10.0168 18.5897C6.7846 18.5897 3.97415 16.7636 2.53906 14.0758" stroke="black" stroke-width="1.5" stroke-linecap="round" stroke-linejoin="round"/>
</g>
</g>
<defs>
<clipPath id="clip0_47_147552">
<rect width="20" height="20" fill="white"/>
</clipPath>
</defs>
</svg>
