<svg width="20" height="20" viewBox="0 0 20 20" fill="none" xmlns="http://www.w3.org/2000/svg">
<g id="user-face-male-2">
<g id="user-face-male--user-face-male-man">
<path id="Ellipse 18" d="M18.0938 10C18.0938 14.47 14.47 18.0938 10 18.0938C5.52995 18.0938 1.90625 14.47 1.90625 10C1.90625 5.52995 5.52995 1.90625 10 1.90625C14.47 1.90625 18.0938 5.52995 18.0938 10Z" stroke="black" stroke-width="1.5" stroke-linecap="round" stroke-linejoin="round"/>
<path id="Ellipse 592" d="M12.6412 13.3516C12.6412 13.3516 11.9696 14.673 9.99833 14.673C8.02703 14.673 7.35547 13.3516 7.35547 13.3516" stroke="black" stroke-width="1.5" stroke-linecap="round" stroke-linejoin="round"/>
<g id="Group 623">
<path id="Vector" d="M6.91629 10.772C6.73384 10.772 6.58594 10.6241 6.58594 10.4417C6.58594 10.2592 6.73384 10.1113 6.91629 10.1113" stroke="black" stroke-width="1.5" stroke-linecap="round" stroke-linejoin="round"/>
<path id="Vector_2" d="M6.91797 10.772C7.10042 10.772 7.24833 10.6241 7.24833 10.4417C7.24833 10.2592 7.10042 10.1113 6.91797 10.1113" stroke="black" stroke-width="1.5" stroke-linecap="round" stroke-linejoin="round"/>
</g>
<g id="Group 624">
<path id="Vector_3" d="M13.0843 10.772C12.9018 10.772 12.7539 10.6241 12.7539 10.4417C12.7539 10.2592 12.9018 10.1113 13.0843 10.1113" stroke="black" stroke-width="1.5" stroke-linecap="round" stroke-linejoin="round"/>
<path id="Vector_4" d="M13.0859 10.772C13.2684 10.772 13.4163 10.6241 13.4163 10.4417C13.4163 10.2592 13.2684 10.1113 13.0859 10.1113" stroke="black" stroke-width="1.5" stroke-linecap="round" stroke-linejoin="round"/>
</g>
<path id="Intersect" d="M6.07237 8.1223C8.42501 8.1223 10.5372 7.09302 11.9833 5.46018C13.4256 7.08875 15.5306 8.11692 17.8758 8.12228C17.0291 4.5577 13.8247 1.90625 10.001 1.90625C6.50883 1.90625 3.53323 4.1179 2.39844 7.21694C3.49578 7.79508 4.74586 8.1223 6.07237 8.1223Z" stroke="black" stroke-width="1.5" stroke-linecap="round" stroke-linejoin="round"/>
</g>
</g>
</svg>
