<svg width="20" height="20" viewBox="0 0 20 20" fill="none" xmlns="http://www.w3.org/2000/svg">
<g id="user-multiple-accounts-1" clip-path="url(#clip0_47_149104)">
<g id="user-multiple-accounts">
<path id="Rectangle 56" d="M2.54394 5.78711H12.8775C12.8775 5.78711 14.0113 5.78711 14.0113 6.9209V17.2545C14.0113 17.2545 14.0113 18.3883 12.8775 18.3883H2.54394C2.54394 18.3883 1.41016 18.3883 1.41016 17.2545V6.9209C1.41016 6.9209 1.41016 5.78711 2.54394 5.78711Z" stroke="black" stroke-width="1.5" stroke-linecap="round" stroke-linejoin="round"/>
<path id="Rectangle 57" d="M5.98828 5.7686V2.74664C5.98828 2.1207 6.4957 1.61328 7.12163 1.61328H17.4559C18.0817 1.61328 18.5891 2.1207 18.5891 2.74664V13.0808C18.5891 13.7068 18.0817 14.2141 17.4559 14.2141H14.0229" stroke="black" stroke-width="1.5" stroke-linecap="round" stroke-linejoin="round"/>
<path id="Vector" d="M5.39453 10.8797C5.39453 12.1595 6.43198 13.1969 7.71175 13.1969C8.03527 13.1969 8.34331 13.1306 8.62303 13.0109C9.44974 12.6569 10.029 11.8359 10.029 10.8797C10.029 9.59995 8.9915 8.5625 7.71175 8.5625C6.43198 8.5625 5.39453 9.59995 5.39453 10.8797Z" stroke="black" stroke-width="1.5" stroke-linecap="round" stroke-linejoin="round"/>
<path id="Ellipse 53" d="M11.7165 18.389C11.5424 16.3288 9.81506 14.7109 7.70982 14.7109C5.60457 14.7109 3.8772 16.3288 3.70312 18.389" stroke="black" stroke-width="1.5" stroke-linecap="round" stroke-linejoin="round"/>
</g>
</g>
<defs>
<clipPath id="clip0_47_149104">
<rect width="20" height="20" fill="white"/>
</clipPath>
</defs>
</svg>
