<svg width="20" height="20" viewBox="0 0 20 20" fill="none" xmlns="http://www.w3.org/2000/svg">
<g id="user-block-remove-33" clip-path="url(#clip0_47_148888)">
<g id="user-block-remove--actions-block-close-denied-deny-geometric-human-person-single-up-user">
<path id="Vector" d="M7.35826 8.0173C9.18277 8.0173 10.6618 6.53824 10.6618 4.71373C10.6618 2.88922 9.18277 1.41016 7.35826 1.41016C5.53375 1.41016 4.05469 2.88922 4.05469 4.71373C4.05469 6.53824 5.53375 8.0173 7.35826 8.0173Z" stroke="black" stroke-width="1.5" stroke-linecap="round" stroke-linejoin="round"/>
<path id="Vector_2" d="M8.0173 17.2681H1.41016V16.5518C1.42068 15.5444 1.6863 14.5564 2.18223 13.6797C2.67816 12.803 3.3882 12.0663 4.24603 11.5384C5.10388 11.0104 6.08153 10.7086 7.08765 10.661C7.17735 10.6567 7.26702 10.6545 7.35659 10.6543C7.44615 10.6545 7.53584 10.6567 7.62554 10.661C7.98126 10.6778 8.33344 10.7264 8.67801 10.8056" stroke="black" stroke-width="1.5" stroke-linecap="round" stroke-linejoin="round"/>
<path id="Vector_3" d="M14.2946 18.5893C11.9228 18.5893 10 16.6665 10 14.2946C10 11.9228 11.9228 10 14.2946 10C16.6665 10 18.5893 11.9228 18.5893 14.2946C18.5893 16.6665 16.6665 18.5893 14.2946 18.5893Z" stroke="black" stroke-width="1.5" stroke-linecap="round" stroke-linejoin="round"/>
<path id="Vector_4" d="M17.3324 17.3325L11.2539 11.2539" stroke="black" stroke-width="1.5" stroke-linecap="round" stroke-linejoin="round"/>
</g>
</g>
<defs>
<clipPath id="clip0_47_148888">
<rect width="20" height="20" fill="white"/>
</clipPath>
</defs>
</svg>
