<svg width="20" height="20" viewBox="0 0 20 20" fill="none" xmlns="http://www.w3.org/2000/svg">
<g id="user-search-47" clip-path="url(#clip0_47_149164)">
<g id="user-search--close-geometric-human-person-search-user">
<path id="Vector" d="M14.3589 15.4089C14.0179 14.3453 13.3478 13.4174 12.4453 12.7591C11.5429 12.1008 10.4547 11.7461 9.33769 11.7461C8.22066 11.7461 7.13248 12.1008 6.23003 12.7591C5.32759 13.4174 4.65752 14.3453 4.31641 15.4089" stroke="black" stroke-width="1.5" stroke-linecap="round" stroke-linejoin="round"/>
<path id="Vector_2" d="M9.3385 9.74339C10.6818 9.74339 11.7707 8.65444 11.7707 7.31114C11.7707 5.96786 10.6818 4.87891 9.3385 4.87891C7.99521 4.87891 6.90625 5.96786 6.90625 7.31114C6.90625 8.65444 7.99521 9.74339 9.3385 9.74339Z" stroke="black" stroke-width="1.5" stroke-linecap="round" stroke-linejoin="round"/>
<path id="Vector_3" d="M9.33873 17.2673C13.7176 17.2673 17.2673 13.7176 17.2673 9.33873C17.2673 4.9599 13.7176 1.41016 9.33873 1.41016C4.9599 1.41016 1.41016 4.9599 1.41016 9.33873C1.41016 13.7176 4.9599 17.2673 9.33873 17.2673Z" stroke="black" stroke-width="1.5" stroke-linecap="round" stroke-linejoin="round"/>
<path id="Vector_4" d="M14.9414 14.9414L18.5885 18.5885" stroke="black" stroke-width="1.5" stroke-linecap="round" stroke-linejoin="round"/>
</g>
</g>
<defs>
<clipPath id="clip0_47_149164">
<rect width="20" height="20" fill="white"/>
</clipPath>
</defs>
</svg>
