<svg width="20" height="20" viewBox="0 0 20 20" fill="none" xmlns="http://www.w3.org/2000/svg">
<g id="user-full-body-block-remove-36" clip-path="url(#clip0_47_149002)">
<g id="user-full-body-block-remove--actions-block-denied-deny-geometric-human-person-single-user">
<path id="Vector" d="M6.03348 6.69587C7.49309 6.69587 8.67634 5.51262 8.67634 4.05301C8.67634 2.5934 7.49309 1.41016 6.03348 1.41016C4.57387 1.41016 3.39062 2.5934 3.39062 4.05301C3.39062 5.51262 4.57387 6.69587 6.03348 6.69587Z" stroke="black" stroke-width="1.5" stroke-linecap="round" stroke-linejoin="round"/>
<path id="Vector_2" d="M9.99944 8.93804C9.80679 8.61745 9.57443 8.31885 9.30552 8.04995C8.43817 7.18259 7.26179 6.69531 6.03516 6.69531C4.80853 6.69531 3.63214 7.18259 2.76479 8.04995C1.89743 8.91729 1.41016 10.0937 1.41016 11.3203V13.3025H3.3923L4.05301 18.5882H8.0173L8.14118 17.5971" stroke="black" stroke-width="1.5" stroke-linecap="round" stroke-linejoin="round"/>
<path id="Vector_3" d="M14.2946 18.5893C11.9228 18.5893 10 16.6665 10 14.2946C10 11.9228 11.9228 10 14.2946 10C16.6665 10 18.5893 11.9228 18.5893 14.2946C18.5893 16.6665 16.6665 18.5893 14.2946 18.5893Z" stroke="black" stroke-width="1.5" stroke-linecap="round" stroke-linejoin="round"/>
<path id="Vector_4" d="M17.3324 17.3344L11.2539 11.2559" stroke="black" stroke-width="1.5" stroke-linecap="round" stroke-linejoin="round"/>
</g>
</g>
<defs>
<clipPath id="clip0_47_149002">
<rect width="20" height="20" fill="white"/>
</clipPath>
</defs>
</svg>
