<svg width="20" height="20" viewBox="0 0 20 20" fill="none" xmlns="http://www.w3.org/2000/svg">
<g id="vector-stroke-weight-35" clip-path="url(#clip0_47_141534)">
<g id="vector-stroke-weight">
<path id="Vector 1345" d="M1.41016 1.47778L18.5887 1.4778" stroke="black" stroke-width="1.5" stroke-linecap="round" stroke-linejoin="round"/>
<path id="Vector 1945" d="M1.41016 17.2678V13.9643C1.41016 13.2345 2.00178 12.6428 2.73158 12.6428H17.2673C17.9971 12.6428 18.5887 13.2345 18.5887 13.9643V17.2678C18.5887 17.9976 17.9971 18.5892 17.2673 18.5892H2.73158C2.00178 18.5892 1.41016 17.9976 1.41016 17.2678Z" stroke="black" stroke-width="1.5" stroke-linecap="round" stroke-linejoin="round"/>
<path id="Vector 1946" d="M1.41016 8.0178V6.03566C1.41016 5.30586 2.00178 4.71423 2.73158 4.71423H17.2673C17.9971 4.71423 18.5887 5.30586 18.5887 6.03566V8.0178C18.5887 8.7476 17.9971 9.33923 17.2673 9.33923H2.73158C2.00178 9.33923 1.41016 8.7476 1.41016 8.0178Z" stroke="black" stroke-width="1.5" stroke-linecap="round" stroke-linejoin="round"/>
</g>
</g>
<defs>
<clipPath id="clip0_47_141534">
<rect width="20" height="20" fill="white"/>
</clipPath>
</defs>
</svg>
