<svg width="20" height="20" viewBox="0 0 20 20" fill="none" xmlns="http://www.w3.org/2000/svg">
<g id="vertical-toggle-button-3">
<g id="vertical-toggle-button--move-slide-horizontal">
<path id="Vector" d="M8.67745 15.2861V4.7147C8.67745 2.89019 7.19839 1.41113 5.37388 1.41113C3.54937 1.41113 2.07031 2.89019 2.07031 4.7147V15.2861C2.07031 17.1106 3.54937 18.5897 5.37388 18.5897C7.19839 18.5897 8.67745 17.1106 8.67745 15.2861Z" stroke="black" stroke-width="1.5" stroke-linecap="round" stroke-linejoin="round"/>
<path id="Vector_2" d="M5.37556 6.69643C5.74046 6.69643 6.03627 6.40061 6.03627 6.03571C6.03627 5.67081 5.74046 5.375 5.37556 5.375C5.01066 5.375 4.71484 5.67081 4.71484 6.03571C4.71484 6.40061 5.01066 6.69643 5.37556 6.69643Z" stroke="black" stroke-width="1.5" stroke-linecap="round" stroke-linejoin="round"/>
<path id="Vector_3" d="M11.3203 4.7147V15.2861C11.3203 17.1106 12.7994 18.5897 14.6239 18.5897C16.4484 18.5897 17.9275 17.1106 17.9275 15.2861V4.7147C17.9275 2.89019 16.4484 1.41113 14.6239 1.41113C12.7994 1.41113 11.3203 2.89019 11.3203 4.7147Z" stroke="black" stroke-width="1.5" stroke-linecap="round" stroke-linejoin="round"/>
<path id="Vector_4" d="M14.6256 14.6251C14.9904 14.6251 15.2863 14.3293 15.2863 13.9644C15.2863 13.5995 14.9904 13.3037 14.6256 13.3037C14.2607 13.3037 13.9648 13.5995 13.9648 13.9644C13.9648 14.3293 14.2607 14.6251 14.6256 14.6251Z" stroke="black" stroke-width="1.5" stroke-linecap="round" stroke-linejoin="round"/>
</g>
</g>
</svg>
