<svg width="20" height="20" viewBox="0 0 20 20" fill="none" xmlns="http://www.w3.org/2000/svg">
<g id="vertical-slider-2-39" clip-path="url(#clip0_47_147364)">
<g id="vertical-slider-2--adjustment-adjust-controls-fader-vertical-settings-slider">
<path id="Vector" d="M3.3923 8.67913C4.48701 8.67913 5.37444 7.7917 5.37444 6.69699C5.37444 5.60228 4.48701 4.71484 3.3923 4.71484C2.29759 4.71484 1.41016 5.60228 1.41016 6.69699C1.41016 7.7917 2.29759 8.67913 3.3923 8.67913Z" stroke="black" stroke-width="1.5" stroke-linecap="round" stroke-linejoin="round"/>
<path id="Vector_2" d="M3.39062 8.67871V18.5894" stroke="black" stroke-width="1.5" stroke-linecap="round" stroke-linejoin="round"/>
<path id="Vector_3" d="M3.39062 1.41113V4.7147" stroke="black" stroke-width="1.5" stroke-linecap="round" stroke-linejoin="round"/>
<path id="Vector_4" d="M16.6071 8.67913C17.7018 8.67913 18.5893 7.7917 18.5893 6.69699C18.5893 5.60228 17.7018 4.71484 16.6071 4.71484C15.5125 4.71484 14.625 5.60228 14.625 6.69699C14.625 7.7917 15.5125 8.67913 16.6071 8.67913Z" stroke="black" stroke-width="1.5" stroke-linecap="round" stroke-linejoin="round"/>
<path id="Vector_5" d="M16.6055 4.7147V1.41113" stroke="black" stroke-width="1.5" stroke-linecap="round" stroke-linejoin="round"/>
<path id="Vector_6" d="M16.6055 18.5894V8.67871" stroke="black" stroke-width="1.5" stroke-linecap="round" stroke-linejoin="round"/>
<path id="Vector_7" d="M9.99777 11.9828C11.0925 11.9828 11.9799 11.0954 11.9799 10.0007C11.9799 8.90599 11.0925 8.01855 9.99777 8.01855C8.90306 8.01855 8.01562 8.90599 8.01562 10.0007C8.01562 11.0954 8.90306 11.9828 9.99777 11.9828Z" stroke="black" stroke-width="1.5" stroke-linecap="round" stroke-linejoin="round"/>
<path id="Vector_8" d="M10 1.41113V8.01828" stroke="black" stroke-width="1.5" stroke-linecap="round" stroke-linejoin="round"/>
<path id="Vector_9" d="M10 11.9824V18.5896" stroke="black" stroke-width="1.5" stroke-linecap="round" stroke-linejoin="round"/>
</g>
</g>
<defs>
<clipPath id="clip0_47_147364">
<rect width="20" height="20" fill="white"/>
</clipPath>
</defs>
</svg>
