<svg width="20" height="20" viewBox="0 0 20 20" fill="none" xmlns="http://www.w3.org/2000/svg">
<g id="vertical-slider-square-43" clip-path="url(#clip0_47_147386)">
<g id="vertical-slider-square--adjustment-adjust-controls-fader-vertical-settings-slider-square">
<path id="Vector" d="M1.41016 2.73256V17.2683C1.41016 17.9981 2.00178 18.5897 2.73158 18.5897H17.2673C17.9971 18.5897 18.5887 17.9981 18.5887 17.2683V2.73256C18.5887 2.00276 17.9971 1.41113 17.2673 1.41113H2.73158C2.00178 1.41113 1.41016 2.00276 1.41016 2.73256Z" stroke="black" stroke-width="1.5" stroke-linecap="round" stroke-linejoin="round"/>
<path id="Vector_2" d="M6.69531 15.2859V8.67871" stroke="black" stroke-width="1.5" stroke-linecap="round" stroke-linejoin="round"/>
<path id="Vector_3" d="M6.69699 8.67913C7.7917 8.67913 8.67913 7.7917 8.67913 6.69699C8.67913 5.60228 7.7917 4.71484 6.69699 4.71484C5.60228 4.71484 4.71484 5.60228 4.71484 6.69699C4.71484 7.7917 5.60228 8.67913 6.69699 8.67913Z" stroke="black" stroke-width="1.5" stroke-linecap="round" stroke-linejoin="round"/>
<path id="Vector_4" d="M13.3047 4.71484V8.67913" stroke="black" stroke-width="1.5" stroke-linecap="round" stroke-linejoin="round"/>
<path id="Vector_5" d="M13.3047 12.6436V15.2864" stroke="black" stroke-width="1.5" stroke-linecap="round" stroke-linejoin="round"/>
<path id="Vector_6" d="M13.3025 12.643C14.3971 12.643 15.2846 11.7556 15.2846 10.6609C15.2846 9.56614 14.3971 8.67871 13.3025 8.67871C12.2077 8.67871 11.3203 9.56614 11.3203 10.6609C11.3203 11.7556 12.2077 12.643 13.3025 12.643Z" stroke="black" stroke-width="1.5" stroke-linecap="round" stroke-linejoin="round"/>
</g>
</g>
<defs>
<clipPath id="clip0_47_147386">
<rect width="20" height="20" fill="white"/>
</clipPath>
</defs>
</svg>
