<svg width="20" height="20" viewBox="0 0 20 20" fill="none" xmlns="http://www.w3.org/2000/svg">
<g id="vertical-toggle-button-single-top-47">
<g id="vertical-toggle-button-single-top">
<path id="Vector 3959" d="M4.48438 13.448V6.55142C4.48438 3.50433 6.95453 1.03418 10.0016 1.03418C13.0487 1.03418 15.5189 3.50433 15.5189 6.55142V13.448C15.5189 16.495 13.0487 18.9652 10.0016 18.9652C6.95453 18.9652 4.48438 16.495 4.48438 13.448Z" stroke="black" stroke-width="2.06897" stroke-linecap="round" stroke-linejoin="round"/>
<path id="Ellipse 1804" d="M10.0031 3.79297C9.27147 3.79297 8.5698 4.08361 8.05246 4.60095C7.53512 5.11829 7.24448 5.81996 7.24448 6.55159C7.24448 7.28322 7.53512 7.98489 8.05246 8.50223C8.5698 9.01957 9.27147 9.31021 10.0031 9.31021C10.7347 9.31021 11.4364 9.01957 11.9537 8.50223C12.4711 7.98489 12.7617 7.28322 12.7617 6.55159C12.7617 5.81996 12.4711 5.11829 11.9537 4.60095C11.4364 4.08361 10.7347 3.79297 10.0031 3.79297Z" stroke="black" stroke-width="2.06897"/>
</g>
</g>
</svg>
