<svg width="20" height="20" viewBox="0 0 20 20" fill="none" xmlns="http://www.w3.org/2000/svg">
<g id="vertical-toggle-button-single-bottom-35">
<g id="vertical-toggle-button-single-bottom">
<path id="Vector 3959" d="M4.48438 13.448V6.55142C4.48438 3.50433 6.95453 1.03418 10.0016 1.03418C13.0487 1.03418 15.5189 3.50433 15.5189 6.55142V13.448C15.5189 16.495 13.0487 18.9652 10.0016 18.9652C6.95453 18.9652 4.48438 16.495 4.48438 13.448Z" stroke="black" stroke-width="2.06897" stroke-linecap="round" stroke-linejoin="round"/>
<path id="Ellipse 1804" d="M10.0031 10.6895C9.27147 10.6895 8.5698 10.9801 8.05246 11.4974C7.53512 12.0148 7.24448 12.7164 7.24448 13.4481C7.24448 14.1797 7.53512 14.8814 8.05246 15.3987C8.5698 15.9161 9.27147 16.2067 10.0031 16.2067C10.7347 16.2067 11.4364 15.9161 11.9537 15.3987C12.4711 14.8814 12.7617 14.1797 12.7617 13.4481C12.7617 12.7164 12.4711 12.0148 11.9537 11.4974C11.4364 10.9801 10.7347 10.6895 10.0031 10.6895Z" stroke="black" stroke-width="2.06897"/>
</g>
</g>
</svg>
