<svg width="20" height="20" viewBox="0 0 20 20" fill="none" xmlns="http://www.w3.org/2000/svg">
<g id="video-close-captioning-18" clip-path="url(#clip0_47_145586)">
<g id="video-close-captioning">
<path id="Vector" d="M17.2673 1.41113H2.73158C2.38112 1.41113 2.04501 1.55035 1.79719 1.79817C1.54938 2.04599 1.41016 2.38209 1.41016 2.73256V13.9647C1.41016 14.3151 1.54938 14.6513 1.79719 14.8991C2.04501 15.1469 2.38112 15.2861 2.73158 15.2861H5.37444V18.5897L9.4973 15.2861H17.2673C17.6177 15.2861 17.9539 15.1469 18.2017 14.8991C18.4494 14.6513 18.5887 14.3151 18.5887 13.9647V2.73256C18.5887 2.38209 18.4494 2.04599 18.2017 1.79817C17.9539 1.55035 17.6177 1.41113 17.2673 1.41113Z" stroke="black" stroke-width="1.5" stroke-linecap="round" stroke-linejoin="round"/>
<path id="Vector 2" d="M8.79728 6.41787C8.58255 5.81031 8.0031 5.375 7.322 5.375H6.27914C5.4152 5.375 4.71484 6.07536 4.71484 6.93929V10.0679C4.71484 10.9318 5.4152 11.6322 6.27914 11.6322H7.322C8.0031 11.6322 8.58253 11.1969 8.79728 10.5893" stroke="black" stroke-width="1.5" stroke-linecap="round" stroke-linejoin="round"/>
<path id="Vector 2368" d="M15.2856 6.41787C15.0708 5.81031 14.4914 5.375 13.8103 5.375H12.7674C11.9035 5.375 11.2031 6.07536 11.2031 6.93929V10.0679C11.2031 10.9318 11.9035 11.6322 12.7674 11.6322H13.8103C14.4914 11.6322 15.0708 11.1969 15.2856 10.5893" stroke="black" stroke-width="1.5" stroke-linecap="round" stroke-linejoin="round"/>
</g>
</g>
<defs>
<clipPath id="clip0_47_145586">
<rect width="20" height="20" fill="white"/>
</clipPath>
</defs>
</svg>
