<svg width="20" height="20" viewBox="0 0 20 20" fill="none" xmlns="http://www.w3.org/2000/svg">
<g id="video-swap-camera-6">
<g id="video-swap-camera">
<path id="Vector" d="M14.1623 11.4051L13.0509 12.2451L12.2109 11.1338" stroke="black" stroke-width="1.5" stroke-linecap="round" stroke-linejoin="round"/>
<path id="Ellipse 50" d="M12.989 12.1619C13.1725 11.8094 13.297 11.4186 13.3479 11.0009C13.5758 9.13239 12.2458 7.43297 10.3773 7.2051C9.78597 7.13298 9.21153 7.2169 8.69531 7.42458" stroke="black" stroke-width="1.5" stroke-linecap="round" stroke-linejoin="round"/>
<path id="Vector_2" d="M5.76562 9.8224L6.87695 8.98242L7.71693 10.0937" stroke="black" stroke-width="1.5" stroke-linecap="round" stroke-linejoin="round"/>
<path id="Ellipse 52" d="M6.93509 9.06641C6.75161 9.4189 6.62713 9.80968 6.57619 10.2274C6.34833 12.0959 7.6783 13.7953 9.54679 14.0232C10.1382 14.0952 10.7126 14.0113 11.2288 13.8037" stroke="black" stroke-width="1.5" stroke-linecap="round" stroke-linejoin="round"/>
<path id="Vector_3" d="M18.5887 6.69671C18.5887 6.34624 18.4494 6.01013 18.2017 5.76231C17.9539 5.5145 17.6177 5.37528 17.2673 5.37528H14.6244L12.6423 2.73242H7.35659L5.37444 5.37528H2.73158C2.38112 5.37528 2.04501 5.5145 1.79719 5.76231C1.54938 6.01013 1.41016 6.34624 1.41016 6.69671V15.9467C1.41016 16.2972 1.54938 16.6333 1.79719 16.8811C2.04501 17.1289 2.38112 17.2681 2.73158 17.2681H17.2673C17.6177 17.2681 17.9539 17.1289 18.2017 16.8811C18.4494 16.6333 18.5887 16.2972 18.5887 15.9467V6.69671Z" stroke="black" stroke-width="1.5" stroke-linecap="round" stroke-linejoin="round"/>
</g>
</g>
</svg>
