<svg width="20" height="20" viewBox="0 0 20 20" fill="none" xmlns="http://www.w3.org/2000/svg">
<g id="voice-activation-1-22">
<g id="voice-activation-1--secure-phone-identification-id-human-person-face-smartphone-scan-security">
<path id="Vector" d="M6.03404 1.78076L9.25833 7.85933C9.33045 8.05884 9.3535 8.27278 9.32548 8.48308C9.29748 8.69337 9.21925 8.89381 9.09742 9.06749C8.97558 9.24117 8.81373 9.38295 8.62553 9.48087C8.43734 9.57879 8.22833 9.62996 8.01618 9.63005H6.69475V12.2729C6.69475 12.6234 6.55553 12.9595 6.30772 13.2073C6.0599 13.4551 5.7238 13.5943 5.37333 13.5943H2.73047V18.2193" stroke="black" stroke-width="1.5" stroke-linecap="round" stroke-linejoin="round"/>
<g id="Group 8">
<path id="Vector_2" d="M3.77567 5.33552C3.59322 5.33552 3.44531 5.18761 3.44531 5.00516C3.44531 4.82271 3.59322 4.6748 3.77567 4.6748" stroke="black" stroke-width="1.5" stroke-linecap="round" stroke-linejoin="round"/>
<path id="Vector_3" d="M3.77734 5.33552C3.95979 5.33552 4.1077 5.18761 4.1077 5.00516C4.1077 4.82271 3.95979 4.6748 3.77734 4.6748" stroke="black" stroke-width="1.5" stroke-linecap="round" stroke-linejoin="round"/>
</g>
<path id="Vector_4" d="M12.125 9.62988C12.477 9.98095 12.7563 10.398 12.9468 10.8572C13.1374 11.3164 13.2355 11.8086 13.2355 12.3058C13.2355 12.8029 13.1374 13.2952 12.9468 13.7544C12.7563 14.2136 12.477 14.6306 12.125 14.9817" stroke="black" stroke-width="1.5" stroke-linecap="round" stroke-linejoin="round"/>
<path id="Vector_5" d="M15.0078 6.9873C15.7066 7.68557 16.2609 8.51472 16.6392 9.42734C17.0174 10.34 17.2121 11.3182 17.2121 12.3061C17.2121 13.2939 17.0174 14.2721 16.6392 15.1848C16.2609 16.0974 15.7066 16.9265 15.0078 17.6248" stroke="black" stroke-width="1.5" stroke-linecap="round" stroke-linejoin="round"/>
</g>
</g>
</svg>
