<svg width="20" height="20" viewBox="0 0 20 20" fill="none" xmlns="http://www.w3.org/2000/svg">
<g id="voice-warning-7" clip-path="url(#clip0_47_145450)">
<g id="voice-warning--voice-warning-alert-loud-peak">
<path id="Vector" d="M1.41016 1.41064V15.9464" stroke="black" stroke-width="1.5" stroke-linecap="round" stroke-linejoin="round"/>
<path id="Vector_2" d="M8.28125 4.05371V13.3037" stroke="black" stroke-width="1.5" stroke-linecap="round" stroke-linejoin="round"/>
<path id="Vector_3" d="M4.84766 6.03564V11.3214" stroke="black" stroke-width="1.5" stroke-linecap="round" stroke-linejoin="round"/>
<path id="Vector_4" d="M18.5898 1.41064V11.9821" stroke="black" stroke-width="1.5" stroke-linecap="round" stroke-linejoin="round"/>
<path id="Vector_5" d="M15.1523 4.05371V6.69657" stroke="black" stroke-width="1.5" stroke-linecap="round" stroke-linejoin="round"/>
<path id="Vector_6" d="M11.7188 6.03564V8.01779" stroke="black" stroke-width="1.5" stroke-linecap="round" stroke-linejoin="round"/>
<path id="Vector_7" d="M18.4824 17.4135C18.5473 17.5332 18.5812 17.6672 18.5812 17.8033C18.5812 17.9395 18.5473 18.0734 18.4824 18.1931C18.4217 18.3126 18.3289 18.4127 18.2146 18.4826C18.1004 18.5527 17.9689 18.5897 17.8349 18.5895H10.0782C9.94424 18.5897 9.81286 18.5527 9.69858 18.4826C9.58432 18.4127 9.49162 18.3126 9.43072 18.1931C9.36595 18.0734 9.33203 17.9395 9.33203 17.8033C9.33203 17.6672 9.36595 17.5332 9.43072 17.4135L13.3289 10.3835C13.3825 10.2522 13.4739 10.1399 13.5916 10.0608C13.7093 9.9817 13.8479 9.93945 13.9896 9.93945C14.1314 9.93945 14.27 9.9817 14.3877 10.0608C14.5053 10.1399 14.5968 10.2522 14.6503 10.3835L18.4824 17.4135Z" stroke="black" stroke-width="1.5" stroke-linecap="round" stroke-linejoin="round"/>
<path id="Vector_8" d="M13.9648 14.6251V13.3037" stroke="black" stroke-width="1.5" stroke-linecap="round" stroke-linejoin="round"/>
<g id="Group 4488">
<path id="Ellipse 81" d="M13.9583 16.7725C13.867 16.7725 13.793 16.6985 13.793 16.6072C13.793 16.5159 13.867 16.4419 13.9583 16.4419" stroke="black" stroke-width="1.5" stroke-linecap="round" stroke-linejoin="round"/>
<path id="Ellipse 82" d="M13.957 16.7725C14.0483 16.7725 14.1223 16.6985 14.1223 16.6072C14.1223 16.5159 14.0483 16.4419 13.957 16.4419" stroke="black" stroke-width="1.5" stroke-linecap="round" stroke-linejoin="round"/>
</g>
</g>
</g>
<defs>
<clipPath id="clip0_47_145450">
<rect width="20" height="20" fill="white"/>
</clipPath>
</defs>
</svg>
