<svg width="20" height="20" viewBox="0 0 20 20" fill="none" xmlns="http://www.w3.org/2000/svg">
<g id="voice-typing-word-convert-29">
<g id="voice-typing-word-convert">
<path id="vector 220" d="M11.8398 18.129L14.1402 11.2281C14.258 10.8744 14.5892 10.6357 14.9621 10.6357C15.335 10.6357 15.666 10.8744 15.7839 11.2281L18.0842 18.129" stroke="black" stroke-width="1.5" stroke-linecap="round" stroke-linejoin="round"/>
<path id="vector 783" d="M12.6758 15.6318H17.255" stroke="black" stroke-width="1.5" stroke-linecap="round" stroke-linejoin="round"/>
<path id="vector" d="M10.1018 8.42455C10.1018 9.14876 9.81415 9.84329 9.30207 10.3554C8.78998 10.8675 8.09543 11.1552 7.37124 11.1552C6.64703 11.1552 5.95249 10.8675 5.44041 10.3554C4.92831 9.84329 4.64062 9.14876 4.64062 8.42455V4.6017C4.64062 3.8775 4.92831 3.18296 5.44041 2.67087C5.95249 2.15879 6.64703 1.87109 7.37124 1.87109C8.09543 1.87109 8.78998 2.15879 9.30207 2.67087C9.81415 3.18296 10.1018 3.8775 10.1018 4.6017V8.42455Z" stroke="black" stroke-width="1.5" stroke-linecap="round" stroke-linejoin="round"/>
<path id="vector_2" d="M9.80014 13.5136C9.20315 13.7601 8.56337 13.8863 7.91751 13.8848H6.82526C6.17939 13.8863 5.53961 13.7601 4.94263 13.5136C4.34566 13.2671 3.80325 12.9051 3.34656 12.4484C2.88986 11.9917 2.52786 11.4493 2.28138 10.8524C2.03488 10.2554 1.90873 9.61559 1.91017 8.96973" stroke="black" stroke-width="1.5" stroke-linecap="round" stroke-linejoin="round"/>
<path id="vector_3" d="M7.37109 13.8848V16.0692" stroke="black" stroke-width="1.5" stroke-linecap="round" stroke-linejoin="round"/>
<path id="vector_4" d="M14.0312 6.27781L16.1087 7.42118L17.2521 5.34375" stroke="black" stroke-width="1.5" stroke-linecap="round" stroke-linejoin="round"/>
<path id="vector_5" d="M16.1059 7.42059C15.9815 5.89042 15.407 4.43131 14.4547 3.22715C14.2976 3.02861 14.1315 2.83846 13.957 2.65723" stroke="black" stroke-width="1.5" stroke-linecap="round" stroke-linejoin="round"/>
</g>
</g>
</svg>
