<svg width="21" height="21" viewBox="0 0 21 21" fill="none" xmlns="http://www.w3.org/2000/svg">
<g clip-path="url(#clip0_146_402061)">
<path d="M5.32031 7.81949C5.967 7.38837 7.90706 6.52612 10.4938 6.52612C13.0805 6.52612 15.0206 7.38837 15.6673 7.81949" stroke="black" stroke-width="1.5" stroke-linecap="round" stroke-linejoin="round"/>
<path d="M7.19922 10.5873C7.74871 10.3125 9.17738 9.76306 10.4962 9.76306C11.8149 9.76306 13.2436 10.3125 13.7931 10.5873" stroke="black" stroke-width="1.5" stroke-linecap="round" stroke-linejoin="round"/>
<path d="M9.41406 13.3956C9.59402 13.3056 10.0619 13.1257 10.4938 13.1257C10.9257 13.1257 11.3936 13.3056 11.5735 13.3956" stroke="black" stroke-width="1.5" stroke-linecap="round" stroke-linejoin="round"/>
<path d="M11.0237 19.4549C10.7613 19.5864 10.3677 19.5864 9.97404 19.4549C4.85681 17.4832 1.44531 12.4882 1.44531 6.96729V2.89236C1.44531 2.10367 2.10137 1.44641 2.88863 1.44641H18.1092C18.8964 1.44641 19.5525 2.10367 19.5525 2.89236V6.96729C19.5525 12.6196 16.1409 17.4832 11.0237 19.4549Z" stroke="black" stroke-width="1.5" stroke-miterlimit="10" stroke-linecap="round" stroke-linejoin="round"/>
</g>
<defs>
<clipPath id="clip0_146_402061">
<rect width="21" height="21" fill="white"/>
</clipPath>
</defs>
</svg>
