<svg width="21" height="21" viewBox="0 0 21 21" fill="none" xmlns="http://www.w3.org/2000/svg">
<path d="M13.2846 16.7679V18.1608C13.2846 18.5302 13.1378 18.8845 12.8766 19.1457C12.6154 19.4068 12.2612 19.5536 11.8917 19.5536H2.83817C2.46876 19.5536 2.11448 19.4068 1.85327 19.1457C1.59206 18.8845 1.44531 18.5302 1.44531 18.1608V11.8929C1.44531 9.58517 3.31613 7.71436 5.62388 7.71436H10.4989V10.5001" stroke="black" stroke-width="1.5" stroke-linecap="round" stroke-linejoin="round"/>
<path d="M13.2857 13.2857V11.8929C13.2857 11.5234 13.139 11.1692 12.8778 10.908C12.6165 10.6468 12.2623 10.5 11.8929 10.5H5.625" stroke="black" stroke-width="1.5" stroke-linecap="round" stroke-linejoin="round"/>
<path d="M14.3298 13.2858H11.5441C11.1595 13.2858 10.8477 13.5976 10.8477 13.9822V16.0715C10.8477 16.456 11.1595 16.7679 11.5441 16.7679H14.3298C14.7144 16.7679 15.0262 16.456 15.0262 16.0715V13.9822C15.0262 13.5976 14.7144 13.2858 14.3298 13.2858Z" stroke="black" stroke-width="1.5" stroke-linecap="round" stroke-linejoin="round"/>
<path d="M12.5898 3.53577H19.5541" stroke="black" stroke-width="1.5" stroke-linecap="round" stroke-linejoin="round"/>
</svg>
