<svg width="21" height="21" viewBox="0 0 21 21" fill="none" xmlns="http://www.w3.org/2000/svg">
<g clip-path="url(#clip0_146_399833)">
<path d="M15.7227 1.44641V9.10712" stroke="black" stroke-width="1.5" stroke-linecap="round" stroke-linejoin="round"/>
<path d="M11.8906 5.27673H19.5513" stroke="black" stroke-width="1.5" stroke-linecap="round" stroke-linejoin="round"/>
<path d="M13.2846 16.7678V18.1607C13.2846 18.53 13.1378 18.8844 12.8766 19.1456C12.6154 19.4067 12.2612 19.5535 11.8917 19.5535H2.83817C2.46876 19.5535 2.11448 19.4067 1.85327 19.1456C1.59206 18.8844 1.44531 18.53 1.44531 18.1607V11.8928C1.44531 9.58505 3.31613 7.71423 5.62388 7.71423H10.4989V10.4999" stroke="black" stroke-width="1.5" stroke-linecap="round" stroke-linejoin="round"/>
<path d="M13.2857 13.2857V11.8929C13.2857 11.5234 13.139 11.1692 12.8778 10.908C12.6165 10.6468 12.2623 10.5 11.8929 10.5H5.625" stroke="black" stroke-width="1.5" stroke-linecap="round" stroke-linejoin="round"/>
<path d="M14.3298 13.2856H11.5441C11.1595 13.2856 10.8477 13.5974 10.8477 13.9821V16.0714C10.8477 16.4559 11.1595 16.7678 11.5441 16.7678H14.3298C14.7144 16.7678 15.0262 16.4559 15.0262 16.0714V13.9821C15.0262 13.5974 14.7144 13.2856 14.3298 13.2856Z" stroke="black" stroke-width="1.5" stroke-linecap="round" stroke-linejoin="round"/>
</g>
<defs>
<clipPath id="clip0_146_399833">
<rect width="21" height="21" fill="white"/>
</clipPath>
</defs>
</svg>
