<svg width="21" height="21" viewBox="0 0 21 21" fill="none" xmlns="http://www.w3.org/2000/svg">
<path d="M17.4632 15.3751V18.1608C17.4632 18.5302 17.3164 18.8845 17.0552 19.1457C16.794 19.4068 16.4397 19.5536 16.0703 19.5536H2.83817C2.46876 19.5536 2.11448 19.4068 1.85327 19.1457C1.59206 18.8845 1.44531 18.5302 1.44531 18.1608V7.71434C1.44531 5.40658 3.31613 3.53577 5.62388 3.53577H14.6775V7.01791" stroke="black" stroke-width="1.5" stroke-linecap="round" stroke-linejoin="round"/>
<path d="M18.8566 11.1965H13.9816C13.597 11.1965 13.2852 11.5083 13.2852 11.893V14.6787C13.2852 15.0632 13.597 15.3751 13.9816 15.3751H18.8566C19.2412 15.3751 19.553 15.0632 19.553 14.6787V11.893C19.553 11.5083 19.2412 11.1965 18.8566 11.1965Z" stroke="black" stroke-width="1.5" stroke-linecap="round" stroke-linejoin="round"/>
<path d="M17.4643 11.1965V8.4108C17.4643 8.04139 17.3175 7.68711 17.0563 7.4259C16.7952 7.1647 16.4408 7.01794 16.0714 7.01794H5.625" stroke="black" stroke-width="1.5" stroke-linecap="round" stroke-linejoin="round"/>
</svg>
