<svg width="20" height="20" viewBox="0 0 20 20" fill="none" xmlns="http://www.w3.org/2000/svg">
<g id="waning-cresent-moon-15">
<g id="waning-cresent-moon--night-new-moon-crescent-weather-time-waning">
<path id="Vector" d="M11.3225 9.99944C11.3288 8.39738 11.751 6.82439 12.5478 5.43454C13.3447 4.04469 14.4888 2.88562 15.8683 2.07087C14.8453 1.64737 13.751 1.42312 12.644 1.41016C10.3659 1.41016 8.18123 2.3151 6.57044 3.92591C4.95963 5.5367 4.05469 7.72142 4.05469 9.99944C4.05469 12.2775 4.95963 14.4622 6.57044 16.073C8.18123 17.6838 10.3659 18.5887 12.644 18.5887C13.7644 18.5808 14.8727 18.3564 15.9079 17.928C14.5211 17.1182 13.369 15.9613 12.565 14.5711C11.761 13.1809 11.3328 11.6053 11.3225 9.99944Z" stroke="black" stroke-width="1.5" stroke-linecap="round" stroke-linejoin="round"/>
</g>
</g>
</svg>
