<svg width="20" height="20" viewBox="0 0 20 20" fill="none" xmlns="http://www.w3.org/2000/svg">
<g id="warning-shield-29" clip-path="url(#clip0_47_141849)">
<g id="warning-shield--frame-alert-warning-shield-exclamation-caution-security-protection">
<path id="Vector" d="M10.467 18.4355C10.1633 18.5526 9.82699 18.5526 9.52336 18.4355C7.15423 17.5258 5.11676 15.9191 3.68006 13.8272C2.24335 11.7353 1.47503 9.25681 1.47656 6.71908V2.78742C1.47656 2.43985 1.61464 2.10649 1.86042 1.86072C2.1062 1.61494 2.43954 1.47687 2.78712 1.47687H17.2032C17.5508 1.47687 17.8841 1.61494 18.1299 1.86072C18.3757 2.10649 18.5138 2.43985 18.5138 2.78742V6.71908C18.5153 9.25681 17.7469 11.7353 16.3103 13.8272C14.8736 15.9191 12.8361 17.5258 10.467 18.4355Z" stroke="black" stroke-width="1.5" stroke-linecap="round" stroke-linejoin="round"/>
<path id="Vector_2" d="M10 5.375V9.66964" stroke="black" stroke-width="1.5" stroke-linecap="round" stroke-linejoin="round"/>
<g id="Group 2605">
<path id="Ellipse 1111" d="M9.99833 13.3036C9.81588 13.3036 9.66797 13.1557 9.66797 12.9732C9.66797 12.7908 9.81588 12.6429 9.99833 12.6429" stroke="black" stroke-width="1.5" stroke-linecap="round" stroke-linejoin="round"/>
<path id="Ellipse 1112" d="M10 13.3036C10.1824 13.3036 10.3304 13.1557 10.3304 12.9732C10.3304 12.7908 10.1824 12.6429 10 12.6429" stroke="black" stroke-width="1.5" stroke-linecap="round" stroke-linejoin="round"/>
</g>
</g>
</g>
<defs>
<clipPath id="clip0_47_141849">
<rect width="20" height="20" fill="white"/>
</clipPath>
</defs>
</svg>
