<svg width="20" height="20" viewBox="0 0 20 20" fill="none" xmlns="http://www.w3.org/2000/svg">
<g id="warning-triangle-34" clip-path="url(#clip0_47_141863)">
<g id="warning-triangle--frame-alert-warning-triangle-exclamation-caution">
<path id="Vector" d="M11.1754 2.13737C11.0645 1.92091 10.8961 1.73926 10.6885 1.61242C10.481 1.48558 10.2426 1.41846 9.99936 1.41846C9.75615 1.41846 9.51765 1.48558 9.31015 1.61242C9.10265 1.73926 8.93416 1.92091 8.82328 2.13737L1.55542 16.6731C1.45405 16.8742 1.40579 17.0979 1.41522 17.3231C1.42465 17.5481 1.49145 17.767 1.60929 17.959C1.72712 18.151 1.89208 18.3097 2.08849 18.4199C2.28489 18.5302 2.50623 18.5885 2.7315 18.5892H17.2672C17.4925 18.5885 17.7138 18.5302 17.9102 18.4199C18.1067 18.3097 18.2716 18.151 18.3895 17.959C18.5072 17.767 18.5741 17.5481 18.5834 17.3231C18.593 17.0979 18.5446 16.8742 18.4432 16.6731L11.1754 2.13737Z" stroke="black" stroke-width="1.5" stroke-linecap="round" stroke-linejoin="round"/>
<path id="Vector_2" d="M10 7.35712V11.6518" stroke="black" stroke-width="1.5" stroke-linecap="round" stroke-linejoin="round"/>
<g id="Group 2605">
<path id="Ellipse 1111" d="M9.99833 15.2857C9.81588 15.2857 9.66797 15.1378 9.66797 14.9554C9.66797 14.7729 9.81588 14.625 9.99833 14.625" stroke="black" stroke-width="1.5" stroke-linecap="round" stroke-linejoin="round"/>
<path id="Ellipse 1112" d="M10 15.2857C10.1824 15.2857 10.3304 15.1378 10.3304 14.9554C10.3304 14.7729 10.1824 14.625 10 14.625" stroke="black" stroke-width="1.5" stroke-linecap="round" stroke-linejoin="round"/>
</g>
</g>
</g>
<defs>
<clipPath id="clip0_47_141863">
<rect width="20" height="20" fill="white"/>
</clipPath>
</defs>
</svg>
