<svg width="20" height="20" viewBox="0 0 20 20" fill="none" xmlns="http://www.w3.org/2000/svg">
<g id="warp-flag-2" clip-path="url(#clip0_47_149497)">
<g id="warp-flag">
<path id="Vector 819" d="M14.8094 6.9073C16.8414 6.9073 18.1306 5.53301 18.5887 4.84587V16.5273C18.1306 17.2144 16.8414 18.5887 14.8094 18.5887C11.3931 18.5887 10.0001 13.0916 5.87659 13.0916C3.14325 13.0916 1.58445 15.7732 1.41016 16.5273V4.84587C1.58445 4.09174 3.14325 1.41016 5.87659 1.41016C10.0001 1.41016 11.3931 6.9073 14.8094 6.9073Z" stroke="black" stroke-width="1.5" stroke-linecap="round" stroke-linejoin="round"/>
<path id="Vector 820" d="M18.5887 10.6877C18.1306 11.3748 16.8414 12.7491 14.8094 12.7491C11.3931 12.7491 10.0001 7.25195 5.87659 7.25195C3.14325 7.25195 1.58445 9.93354 1.41016 10.6877" stroke="black" stroke-width="1.5" stroke-linecap="round" stroke-linejoin="round"/>
</g>
</g>
<defs>
<clipPath id="clip0_47_149497">
<rect width="20" height="20" fill="white"/>
</clipPath>
</defs>
</svg>
