<svg width="20" height="20" viewBox="0 0 20 20" fill="none" xmlns="http://www.w3.org/2000/svg">
<g id="warp-wave-1" clip-path="url(#clip0_47_149519)">
<g id="warp-wave">
<path id="Vector 811" d="M1.41016 17.2673V2.73158C1.41016 2.00178 2.00178 1.41016 2.73158 1.41016H17.2673C17.9971 1.41016 18.5887 2.00178 18.5887 2.73158V17.2673C18.5887 17.9971 17.9971 18.5887 17.2673 18.5887H2.73158C2.00178 18.5887 1.41016 17.9971 1.41016 17.2673Z" stroke="black" stroke-width="1.5" stroke-linecap="round" stroke-linejoin="round"/>
<path id="Vector 812" d="M1.41016 6.56569C1.86825 7.25283 3.33416 8.62712 5.53301 8.62712C8.28158 8.62712 9.65587 5.19141 13.7787 5.19141C17.077 5.19141 18.3597 7.48188 18.5887 8.62712" stroke="black" stroke-width="1.5" stroke-linecap="round" stroke-linejoin="round"/>
<path id="Vector 813" d="M1.41016 12.7512C1.86825 13.4384 3.33416 14.8127 5.53301 14.8127C8.28158 14.8127 9.65587 11.377 13.7787 11.377C17.077 11.377 18.3597 13.6674 18.5887 14.8127" stroke="black" stroke-width="1.5" stroke-linecap="round" stroke-linejoin="round"/>
</g>
</g>
<defs>
<clipPath id="clip0_47_149519">
<rect width="20" height="20" fill="white"/>
</clipPath>
</defs>
</svg>
