<svg width="20" height="20" viewBox="0 0 20 20" fill="none" xmlns="http://www.w3.org/2000/svg">
<g id="waxing-gibbous-moon-27">
<g id="waxing-gibbous-moon--night-waxing-moon-gibbous-time-weather">
<path id="Vector" d="M16.6061 9.99944C16.6061 12.2775 15.7012 14.4622 14.0903 16.073C12.4795 17.6838 10.2948 18.5887 8.0168 18.5887C7.48931 18.5881 6.96297 18.5394 6.4443 18.4434C4.47342 16.0709 3.39453 13.0837 3.39453 9.99944C3.39453 6.91514 4.47342 3.92798 6.4443 1.55551C6.96297 1.45946 7.48931 1.41081 8.0168 1.41016C9.14475 1.41016 10.2617 1.63232 11.3038 2.06398C12.3459 2.49563 13.2927 3.12832 14.0903 3.92591C14.8879 4.72349 15.5206 5.67036 15.9522 6.71247C16.3839 7.75456 16.6061 8.87148 16.6061 9.99944Z" stroke="black" stroke-width="1.5" stroke-linecap="round" stroke-linejoin="round"/>
</g>
</g>
</svg>
