<svg width="21" height="21" viewBox="0 0 21 21" fill="none" xmlns="http://www.w3.org/2000/svg">
<g clip-path="url(#clip0_146_402130)">
<path d="M6.22382 16.9907C4.91356 17.5761 3.73775 18.4248 2.76953 19.4839" stroke="black" stroke-width="1.5" stroke-linecap="round" stroke-linejoin="round"/>
<path d="M19.5525 19.5536L1.44531 1.44641" stroke="black" stroke-width="1.5" stroke-linecap="round" stroke-linejoin="round"/>
<path d="M4.25781 4.25999C5.02291 3.4389 5.94554 2.78035 6.97068 2.32357C7.99581 1.86681 9.10245 1.6212 10.2246 1.6014C11.3467 1.5816 12.4613 1.78802 13.5019 2.20834C14.5425 2.62865 15.4879 3.25427 16.2814 4.04785C17.075 4.84143 17.7006 5.78672 18.1209 6.82734C18.5413 7.86794 18.7476 8.98256 18.7278 10.1047C18.708 11.2268 18.4624 12.3334 18.0056 13.3586C17.5489 14.3837 16.8903 15.3063 16.0692 16.0714" stroke="black" stroke-width="1.5" stroke-linecap="round" stroke-linejoin="round"/>
<path d="M12.6289 17.882C11.9337 18.0672 11.2173 18.1608 10.4978 18.1605C8.28137 18.1605 6.1557 17.2801 4.58843 15.7129C3.02116 14.1456 2.14068 12.0199 2.14068 9.80347C2.13639 8.6378 2.37847 7.4844 2.85104 6.41882" stroke="black" stroke-width="1.5" stroke-linecap="round" stroke-linejoin="round"/>
<path d="M7.21094 7.21283C7.57977 6.75862 8.03988 6.38693 8.56148 6.12184C9.08308 5.85674 9.65454 5.70414 10.2389 5.67391C10.8232 5.64369 11.4073 5.73652 11.9535 5.94638C12.4997 6.15626 12.9957 6.47848 13.4094 6.89222C13.8231 7.30594 14.1454 7.80195 14.3552 8.34812C14.5651 8.89428 14.6579 9.47843 14.6277 10.0628C14.5975 10.6471 14.4449 11.2185 14.1798 11.7401C13.9147 12.2617 13.543 12.7218 13.0888 13.0907" stroke="black" stroke-width="1.5" stroke-linecap="round" stroke-linejoin="round"/>
<path d="M9.009 13.7035C8.46588 13.4951 7.97225 13.1756 7.55971 12.7655C7.14718 12.3554 6.82483 11.8636 6.61328 11.3217" stroke="black" stroke-width="1.5" stroke-linecap="round" stroke-linejoin="round"/>
</g>
<defs>
<clipPath id="clip0_146_402130">
<rect width="21" height="21" fill="white"/>
</clipPath>
</defs>
</svg>
