<svg width="21" height="21" viewBox="0 0 21 21" fill="none" xmlns="http://www.w3.org/2000/svg">
<path d="M10.5017 18.1886C15.1172 18.1886 18.8588 14.447 18.8588 9.83145C18.8588 5.21592 15.1172 1.4743 10.5017 1.4743C5.88615 1.4743 2.14453 5.21592 2.14453 9.83145C2.14453 14.447 5.88615 18.1886 10.5017 18.1886Z" stroke="black" stroke-width="1.5" stroke-linecap="round" stroke-linejoin="round"/>
<path d="M14.7773 17.0187C16.0911 17.6041 17.2678 18.4582 18.2316 19.5258" stroke="black" stroke-width="1.5" stroke-linecap="round" stroke-linejoin="round"/>
<path d="M2.76953 19.5258C3.73342 18.4582 4.91006 17.6041 6.22382 17.0187" stroke="black" stroke-width="1.5" stroke-linecap="round" stroke-linejoin="round"/>
<path d="M10.5028 14.01C12.8105 14.01 14.6814 12.1392 14.6814 9.83146C14.6814 7.52371 12.8105 5.65289 10.5028 5.65289C8.19503 5.65289 6.32422 7.52371 6.32422 9.83146C6.32422 12.1392 8.19503 14.01 10.5028 14.01Z" stroke="black" stroke-width="1.5" stroke-linecap="round" stroke-linejoin="round"/>
<path d="M10.5011 10.5279C10.8857 10.5279 11.1975 10.2161 11.1975 9.83144C11.1975 9.44681 10.8857 9.13501 10.5011 9.13501C10.1165 9.13501 9.80469 9.44681 9.80469 9.83144C9.80469 10.2161 10.1165 10.5279 10.5011 10.5279Z" stroke="black" stroke-width="1.5" stroke-linecap="round" stroke-linejoin="round"/>
</svg>
