<svg width="21" height="21" viewBox="0 0 21 21" fill="none" xmlns="http://www.w3.org/2000/svg">
<g clip-path="url(#clip0_146_402168)">
<path d="M10.4989 19.5536C15.4991 19.5536 19.5525 15.5002 19.5525 10.5C19.5525 5.49983 15.4991 1.44641 10.4989 1.44641C5.49874 1.44641 1.44531 5.49983 1.44531 10.5C1.44531 15.5002 5.49874 19.5536 10.4989 19.5536Z" stroke="black" stroke-width="1.5" stroke-linecap="round" stroke-linejoin="round"/>
<path d="M14.8639 8.06175L12.7482 8.99951V7.87418C12.7482 7.67521 12.6692 7.48439 12.5285 7.3437C12.3878 7.20301 12.197 7.12396 11.998 7.12396H6.37131C6.17234 7.12396 5.98152 7.20301 5.84083 7.3437C5.70014 7.48439 5.62109 7.67521 5.62109 7.87418V13.1257C5.62109 13.3247 5.70014 13.5155 5.84083 13.6562C5.98152 13.7969 6.17234 13.876 6.37131 13.876H11.998C12.197 13.876 12.3878 13.7969 12.5285 13.6562C12.6692 13.5155 12.7482 13.3247 12.7482 13.1257V12.0004L14.8639 12.9382C14.9208 12.9602 14.9824 12.9679 15.0431 12.9607C15.1039 12.9535 15.1618 12.9316 15.2122 12.8968C15.2625 12.862 15.3035 12.8155 15.3317 12.7613C15.3599 12.707 15.3744 12.6467 15.3739 12.5856V8.41435C15.3744 8.35321 15.3599 8.29289 15.3317 8.23865C15.3035 8.18441 15.2625 8.13788 15.2122 8.10313C15.1618 8.06836 15.1039 8.04642 15.0431 8.03921C14.9824 8.03199 14.9208 8.03974 14.8639 8.06175Z" stroke="black" stroke-width="1.5" stroke-linecap="round" stroke-linejoin="round"/>
</g>
<defs>
<clipPath id="clip0_146_402168">
<rect width="21" height="21" fill="white"/>
</clipPath>
</defs>
</svg>
