<svg width="21" height="21" viewBox="0 0 21 21" fill="none" xmlns="http://www.w3.org/2000/svg">
<path d="M10.5004 17.8125C11.5082 17.8125 12.3251 16.9956 12.3251 15.9879C12.3251 14.9801 11.5082 14.1632 10.5004 14.1632C9.49271 14.1632 8.67578 14.9801 8.67578 15.9879C8.67578 16.9956 9.49271 17.8125 10.5004 17.8125Z" stroke="black" stroke-width="1.5" stroke-linecap="round" stroke-linejoin="round"/>
<path d="M7.05859 11.8929C7.51151 11.4279 8.05298 11.0583 8.65103 10.806C9.24908 10.5537 9.89162 10.4236 10.5407 10.4236C11.1898 10.4236 11.8324 10.5537 12.4304 10.806C13.0285 11.0583 13.57 11.4279 14.0229 11.8929" stroke="black" stroke-width="1.5" stroke-linecap="round" stroke-linejoin="round"/>
<path d="M4.03516 9.53888C4.883 8.68609 5.89108 8.00933 7.00141 7.54751C8.11174 7.08571 9.30243 6.84796 10.505 6.84796C11.7075 6.84796 12.8982 7.08571 14.0085 7.54751C15.1188 8.00933 16.127 8.68609 16.9748 9.53888" stroke="black" stroke-width="1.5" stroke-linecap="round" stroke-linejoin="round"/>
<path d="M1.44531 6.94815C2.63402 5.75882 4.04541 4.81536 5.59887 4.17167C7.15231 3.52797 8.81736 3.19666 10.4989 3.19666C12.1804 3.19666 13.8455 3.52797 15.399 4.17167C16.9524 4.81536 18.3638 5.75882 19.5525 6.94815" stroke="black" stroke-width="1.5" stroke-linecap="round" stroke-linejoin="round"/>
</svg>
