<svg width="21" height="21" viewBox="0 0 21 21" fill="none" xmlns="http://www.w3.org/2000/svg">
<path d="M7.02065 13.9821H13.9849C14.4028 13.9821 14.6814 14.2607 14.6814 14.6785V18.8571C14.6814 19.275 14.4028 19.5535 13.9849 19.5535H7.02065C6.60279 19.5535 6.32422 19.275 6.32422 18.8571V14.6785C6.32422 14.2607 6.60279 13.9821 7.02065 13.9821Z" stroke="black" stroke-width="1.5" stroke-linecap="round" stroke-linejoin="round"/>
<path d="M7.71484 13.9821V12.5892C7.71484 11.0571 8.96842 9.80353 10.5006 9.80353C12.0327 9.80353 13.2863 11.0571 13.2863 12.5892V13.9821" stroke="black" stroke-width="1.5" stroke-linecap="round" stroke-linejoin="round"/>
<path d="M5.20312 2.77089C5.86537 2.3294 7.8521 1.44641 10.5011 1.44641C13.15 1.44641 15.1368 2.3294 15.7991 2.77089" stroke="black" stroke-width="1.5" stroke-linecap="round" stroke-linejoin="round"/>
<path d="M7.85156 6.08217C8.29306 5.86142 9.44094 5.41992 10.5005 5.41992C11.5601 5.41992 12.708 5.86142 13.1495 6.08217" stroke="black" stroke-width="1.5" stroke-linecap="round" stroke-linejoin="round"/>
</svg>
