<svg width="20" height="20" viewBox="0 0 20 20" fill="none" xmlns="http://www.w3.org/2000/svg">
<g id="wind-flow-3-18" clip-path="url(#clip0_47_149740)">
<g id="wind-flow-3--wind-flow-weather">
<path id="Vector" d="M4.38281 15.9723C4.66478 16.6836 5.13448 17.3052 5.74186 17.7706C6.34924 18.236 7.07154 18.5015 7.83174 18.5887C10.4878 18.5623 12.6417 14.7434 12.6417 9.99944C12.6417 5.25551 10.4878 1.41016 7.83174 1.41016C7.07154 1.4974 6.34924 1.78929 5.74186 2.25471C5.13448 2.72014 4.66478 3.34165 4.38281 4.05301" stroke="black" stroke-width="1.5" stroke-linecap="round" stroke-linejoin="round"/>
<path id="Vector_2" d="M15.3789 8.44016C16.4882 8.20682 17.5661 7.84311 18.59 7.35659L15.9471 6.03516" stroke="black" stroke-width="1.5" stroke-linecap="round" stroke-linejoin="round"/>
<path id="Vector_3" d="M1.41016 8.01674C3.06548 7.22589 4.86312 6.77647 6.69587 6.69531C7.61602 6.70855 8.52061 6.9347 9.33873 7.35603" stroke="black" stroke-width="1.5" stroke-linecap="round" stroke-linejoin="round"/>
<path id="Vector_4" d="M15.3789 13.487C16.4882 13.2537 17.5661 12.89 18.59 12.4035L15.9471 11.082" stroke="black" stroke-width="1.5" stroke-linecap="round" stroke-linejoin="round"/>
<path id="Vector_5" d="M1.41016 13.0656C3.06548 12.2747 4.86312 11.8253 6.69587 11.7441C7.61708 11.7615 8.52172 11.9922 9.33873 12.4181" stroke="black" stroke-width="1.5" stroke-linecap="round" stroke-linejoin="round"/>
</g>
</g>
<defs>
<clipPath id="clip0_47_149740">
<rect width="20" height="20" fill="white"/>
</clipPath>
</defs>
</svg>
