<svg width="21" height="21" viewBox="0 0 21 21" fill="none" xmlns="http://www.w3.org/2000/svg">
<g clip-path="url(#clip0_146_398563)">
<path d="M15.3739 8.4107V2.83927C15.3739 2.07001 14.7503 1.44641 13.981 1.44641H2.83817C2.46876 1.44641 2.11448 1.59316 1.85327 1.85437C1.59206 2.11558 1.44531 2.46985 1.44531 2.83927V16.7678C1.44531 17.1372 1.59206 17.4916 1.85327 17.7527C2.11448 18.0139 2.46876 18.1607 2.83817 18.1607H8.4096" stroke="black" stroke-width="1.5" stroke-linecap="round" stroke-linejoin="round"/>
<path d="M4.92578 5.625H11.8901" stroke="black" stroke-width="1.5" stroke-linecap="round" stroke-linejoin="round"/>
<path d="M4.92578 9.10718H9.10435" stroke="black" stroke-width="1.5" stroke-linecap="round" stroke-linejoin="round"/>
<path d="M14.592 19.5537L10.4134 15.6815C8.07344 13.3972 11.4442 8.96795 14.592 12.5337C17.7399 8.96795 21.1106 13.3972 18.7706 15.6815L14.592 19.5537Z" stroke="black" stroke-width="1.5" stroke-linecap="round" stroke-linejoin="round"/>
</g>
<defs>
<clipPath id="clip0_146_398563">
<rect width="21" height="21" fill="white"/>
</clipPath>
</defs>
</svg>
