<svg width="21" height="21" viewBox="0 0 21 21" fill="none" xmlns="http://www.w3.org/2000/svg">
<g clip-path="url(#clip0_146_398569)">
<path d="M8.41016 3.53841C8.41016 4.6938 9.34678 5.63043 10.5022 5.63043C10.7943 5.63043 11.0724 5.57056 11.3249 5.46244C12.0713 5.14287 12.5942 4.40172 12.5942 3.53841C12.5942 2.38304 11.6575 1.44641 10.5022 1.44641C9.34678 1.44641 8.41016 2.38304 8.41016 3.53841Z" stroke="black" stroke-width="1.5" stroke-linecap="round" stroke-linejoin="round"/>
<path d="M15.5117 17.5636C15.5117 18.6626 16.4027 19.5536 17.5017 19.5536C17.7796 19.5536 18.0441 19.4966 18.2843 19.3938C18.9943 19.0898 19.4917 18.3848 19.4917 17.5636C19.4917 16.4645 18.6008 15.5735 17.5017 15.5735C16.4027 15.5735 15.5117 16.4645 15.5117 17.5636Z" stroke="black" stroke-width="1.5" stroke-linecap="round" stroke-linejoin="round"/>
<path d="M8.50781 17.5636C8.50781 18.6626 9.39877 19.5536 10.4978 19.5536C10.7757 19.5536 11.0402 19.4966 11.2804 19.3938C11.9904 19.0898 12.4878 18.3848 12.4878 17.5636C12.4878 16.4645 11.5969 15.5735 10.4978 15.5735C9.39877 15.5735 8.50781 16.4645 8.50781 17.5636Z" stroke="black" stroke-width="1.5" stroke-linecap="round" stroke-linejoin="round"/>
<path d="M1.50781 17.5636C1.50781 18.6626 2.39877 19.5536 3.49782 19.5536C3.77567 19.5536 4.04021 19.4966 4.28043 19.3938C4.99041 19.0898 5.48783 18.3848 5.48783 17.5636C5.48783 16.4645 4.59687 15.5735 3.49782 15.5735C2.39877 15.5735 1.50781 16.4645 1.50781 17.5636Z" stroke="black" stroke-width="1.5" stroke-linecap="round" stroke-linejoin="round"/>
<path d="M14.5323 9.80683C14.3572 7.73471 12.6199 6.10754 10.5025 6.10754C8.38508 6.10754 6.64772 7.73471 6.47266 9.80683" stroke="black" stroke-width="1.5" stroke-linecap="round" stroke-linejoin="round"/>
<path d="M3.5 15.5736V12.5858H17.5037V15.5736" stroke="black" stroke-width="1.5" stroke-miterlimit="10" stroke-linecap="round" stroke-linejoin="round"/>
<path d="M10.5 13.1581V15.5734" stroke="black" stroke-width="1.5" stroke-miterlimit="10" stroke-linecap="round" stroke-linejoin="round"/>
</g>
<defs>
<clipPath id="clip0_146_398569">
<rect width="21" height="21" fill="white"/>
</clipPath>
</defs>
</svg>
