<svg width="21" height="21" viewBox="0 0 21 21" fill="none" xmlns="http://www.w3.org/2000/svg">
<g clip-path="url(#clip0_146_398578)">
<path d="M17.1133 1.79468C18.4595 1.79468 19.5508 2.88598 19.5508 4.23218C19.5508 5.57837 18.4595 6.66968 17.1133 6.66968C15.7671 6.66968 14.6758 5.57837 14.6758 4.23218C14.6758 2.88598 15.7671 1.79468 17.1133 1.79468Z" stroke="black" stroke-width="1.5" stroke-linecap="round" stroke-linejoin="round"/>
<path d="M17.1133 14.6786C18.4595 14.6786 19.5508 15.7699 19.5508 17.1161C19.5508 18.4623 18.4595 19.5536 17.1133 19.5536C15.7671 19.5536 14.6758 18.4623 14.6758 17.1161C14.6758 15.7699 15.7671 14.6786 17.1133 14.6786Z" stroke="black" stroke-width="1.5" stroke-linecap="round" stroke-linejoin="round"/>
<path d="M1.79297 18.1607V16.0714C1.79297 15.3022 2.41658 14.6786 3.18583 14.6786H5.27511C6.04436 14.6786 6.66797 15.3022 6.66797 16.0714V18.1607C6.66797 18.93 6.04436 19.5536 5.27511 19.5536H3.18583C2.41658 19.5536 1.79297 18.93 1.79297 18.1607Z" stroke="black" stroke-width="1.5" stroke-linecap="round" stroke-linejoin="round"/>
<path d="M7.01674 4.23213L4.23103 1.44641L1.44531 4.23213L4.23103 7.01784L7.01674 4.23213Z" stroke="black" stroke-width="1.5" stroke-linecap="round" stroke-linejoin="round"/>
<path d="M11.1953 15.0267L13.2846 17.116L11.1953 19.2053" stroke="black" stroke-width="1.5" stroke-linecap="round" stroke-linejoin="round"/>
<path d="M10.4994 2.14282L8.41016 4.23211L10.4994 6.32139" stroke="black" stroke-width="1.5" stroke-linecap="round" stroke-linejoin="round"/>
<path d="M2.14062 11.1964L4.22991 13.2857L6.3192 11.1964" stroke="black" stroke-width="1.5" stroke-linecap="round" stroke-linejoin="round"/>
<path d="M4.23047 13.2857V7.01782" stroke="black" stroke-width="1.5" stroke-linecap="round" stroke-linejoin="round"/>
<path d="M8.41016 4.23218H14.678" stroke="black" stroke-width="1.5" stroke-linecap="round" stroke-linejoin="round"/>
<path d="M6.66797 17.1161H13.284" stroke="black" stroke-width="1.5" stroke-linecap="round" stroke-linejoin="round"/>
</g>
<defs>
<clipPath id="clip0_146_398578">
<rect width="21" height="21" fill="white"/>
</clipPath>
</defs>
</svg>
