<svg width="20" height="20" viewBox="0 0 20 20" fill="none" xmlns="http://www.w3.org/2000/svg">
<g id="wrench-42" clip-path="url(#clip0_47_147408)">
<g id="wrench--crescent-tool-construction-tools-wrench-setting-edit-adjust">
<path id="Union" d="M18.4679 5.50272C18.4424 5.36425 18.388 5.23268 18.3083 5.11657C18.2286 5.00047 18.1254 4.90242 18.0054 4.82879L15.3626 7.47165C15.2393 7.59954 15.0916 7.70126 14.9281 7.77075C14.7646 7.84023 14.5888 7.87604 14.4112 7.87604C14.2336 7.87604 14.0577 7.84023 13.8943 7.77075C13.7308 7.70126 13.583 7.59954 13.4597 7.47165L12.4554 6.57308C12.2133 6.32606 12.0777 5.99396 12.0777 5.64808C12.0777 5.30219 12.2133 4.97009 12.4554 4.72308L15.0983 2.08022C15.0407 1.94482 14.954 1.82374 14.8443 1.72555C14.7348 1.62736 14.6049 1.55446 14.464 1.51201C13.5419 1.32811 12.5866 1.40683 11.7071 1.73919C10.8275 2.07155 10.0589 2.64419 9.48878 3.39193C8.91868 4.13968 8.56998 5.03247 8.48238 5.96867C8.40032 6.84565 8.55047 7.7277 8.91626 8.52668L1.82454 15.6184C1.30103 16.1419 1.30971 16.9933 1.84379 17.506L2.58481 18.2174C3.10168 18.7137 3.91985 18.7075 4.42924 18.2036L11.6024 11.1082C12.3782 11.4286 13.2233 11.5504 14.0607 11.4607C14.9868 11.3614 15.8671 11.0072 16.6038 10.4376C17.3405 9.8679 17.9049 9.10505 18.2339 8.23383C18.5631 7.36263 18.6441 6.41721 18.4679 5.50272Z" stroke="black" stroke-width="1.5" stroke-linecap="round" stroke-linejoin="round"/>
</g>
</g>
<defs>
<clipPath id="clip0_47_147408">
<rect width="20" height="20" fill="white"/>
</clipPath>
</defs>
</svg>
