<svg width="20" height="20" viewBox="0 0 20 20" fill="none" xmlns="http://www.w3.org/2000/svg">
<g id="wrench-circle-12" clip-path="url(#clip0_47_147411)">
<g id="wrench-circle--crescent-tool-construction-tools-wrench-setting-edit-adjust">
<path id="Vector" d="M9.99944 18.5897C14.7432 18.5897 18.5887 14.7442 18.5887 10.0004C18.5887 5.25669 14.7432 1.41113 9.99944 1.41113C5.25571 1.41113 1.41016 5.25669 1.41016 10.0004C1.41016 14.7442 5.25571 18.5897 9.99944 18.5897Z" stroke="black" stroke-width="1.5" stroke-linecap="round" stroke-linejoin="round"/>
<path id="Union" d="M8.17332 18.3957L8.17333 14.5206C7.34971 14.2143 6.61984 13.6968 6.05774 13.0186C5.45769 12.2947 5.07296 11.4168 4.94736 10.485C4.82174 9.55313 4.96029 8.60473 5.34725 7.74775C5.73419 6.89078 6.35398 6.15967 7.13605 5.63766C7.26571 5.56806 7.40907 5.52779 7.556 5.51972C7.70294 5.51165 7.84986 5.53596 7.98635 5.59094V9.28078C7.98635 10.0106 8.57797 10.6022 9.30778 10.6022H10.6641C11.3939 10.6022 11.9855 10.0106 11.9855 9.28078V5.47881C12.1225 5.446 12.2648 5.44236 12.4032 5.46812C12.5417 5.49387 12.6731 5.54845 12.7891 5.62831C13.5603 6.15044 14.1715 6.87623 14.5549 7.72497C14.9382 8.57371 15.0786 9.51215 14.9604 10.4359C14.8423 11.3597 14.4703 12.2326 13.8857 12.9576C13.357 13.6132 12.6733 14.1246 11.8981 14.4466L11.8432 18.382" stroke="black" stroke-width="1.5" stroke-linecap="round" stroke-linejoin="round"/>
</g>
</g>
<defs>
<clipPath id="clip0_47_147411">
<rect width="20" height="20" fill="white"/>
</clipPath>
</defs>
</svg>
