<svg width="21" height="21" viewBox="0 0 21 21" fill="none" xmlns="http://www.w3.org/2000/svg">
<g clip-path="url(#clip0_146_399703)">
<path d="M10.4989 19.5536C15.4991 19.5536 19.5525 15.5002 19.5525 10.5C19.5525 5.49983 15.4991 1.44641 10.4989 1.44641C5.49874 1.44641 1.44531 5.49983 1.44531 10.5C1.44531 15.5002 5.49874 19.5536 10.4989 19.5536Z" stroke="black" stroke-width="1.5" stroke-linecap="round" stroke-linejoin="round"/>
<path d="M7.01562 6.32141L9.50884 8.81463C9.63832 8.94518 9.79237 9.04879 9.9621 9.11951C10.1318 9.19022 10.3139 9.22663 10.4978 9.22663C10.6816 9.22663 10.8637 9.19022 11.0334 9.11951C11.2032 9.04879 11.3572 8.94518 11.4867 8.81463L13.9799 6.32141" stroke="black" stroke-width="1.5" stroke-linecap="round" stroke-linejoin="round"/>
<path d="M7.01562 14.6785L9.50884 12.1853C9.63832 12.0548 9.79237 11.9511 9.9621 11.8804C10.1318 11.8097 10.3139 11.7733 10.4978 11.7733C10.6816 11.7733 10.8637 11.8097 11.0334 11.8804C11.2032 11.9511 11.3572 12.0548 11.4867 12.1853L13.9799 14.6785" stroke="black" stroke-width="1.5" stroke-linecap="round" stroke-linejoin="round"/>
</g>
<defs>
<clipPath id="clip0_146_399703">
<rect width="21" height="21" fill="white"/>
</clipPath>
</defs>
</svg>
