<svg width="20" height="20" viewBox="0 0 20 20" fill="none" xmlns="http://www.w3.org/2000/svg">
<g id="zoom-area-11" clip-path="url(#clip0_47_147423)">
<g id="zoom-area--zoom-magnifier-square-area">
<path id="Vector" d="M15.9453 1.41113H17.2667C17.6172 1.41113 17.9534 1.55035 18.2011 1.79817C18.4489 2.04599 18.5882 2.38209 18.5882 2.73256V4.05399" stroke="black" stroke-width="1.5" stroke-linecap="round" stroke-linejoin="round"/>
<path id="Vector_2" d="M1.41016 4.05399V2.73256C1.41016 2.38209 1.54938 2.04599 1.79719 1.79817C2.04501 1.55035 2.38112 1.41113 2.73158 1.41113H4.05301" stroke="black" stroke-width="1.5" stroke-linecap="round" stroke-linejoin="round"/>
<path id="Vector_3" d="M8.01562 1.41113H11.9799" stroke="black" stroke-width="1.5" stroke-linecap="round" stroke-linejoin="round"/>
<path id="Vector_4" d="M1.41016 8.01855V11.9828" stroke="black" stroke-width="1.5" stroke-linecap="round" stroke-linejoin="round"/>
<path id="Vector_5" d="M1.41016 15.9473V17.2687C1.41016 17.6191 1.54938 17.9553 1.79719 18.2031C2.04501 18.4508 2.38112 18.5901 2.73158 18.5901H4.05301" stroke="black" stroke-width="1.5" stroke-linecap="round" stroke-linejoin="round"/>
<path id="Vector_6" d="M11.3203 15.9473C13.8746 15.9473 15.9453 13.8766 15.9453 11.3223C15.9453 8.76794 13.8746 6.69727 11.3203 6.69727C8.76599 6.69727 6.69531 8.76794 6.69531 11.3223C6.69531 13.8766 8.76599 15.9473 11.3203 15.9473Z" stroke="black" stroke-width="1.5" stroke-linecap="round" stroke-linejoin="round"/>
<path id="Vector_7" d="M14.5859 14.5859L17.9292 17.9292" stroke="black" stroke-width="1.5" stroke-linecap="round" stroke-linejoin="round"/>
</g>
</g>
<defs>
<clipPath id="clip0_47_147423">
<rect width="20" height="20" fill="white"/>
</clipPath>
</defs>
</svg>
