<svg width="20" height="20" viewBox="0 0 20 20" fill="none" xmlns="http://www.w3.org/2000/svg">
<g id="zoom-out-area-1" clip-path="url(#clip0_47_149458)">
<g id="zoom-out-area">
<path id="Vector 40" d="M1.41016 15.9453V17.3614C1.41016 18.0391 1.95952 18.5884 2.63721 18.5884L4.05305 18.5882" stroke="black" stroke-width="1.5" stroke-linecap="round" stroke-linejoin="round"/>
<path id="Vector 160" d="M1.41016 8.01758V11.9819" stroke="black" stroke-width="1.5" stroke-linecap="round" stroke-linejoin="round"/>
<path id="Vector 159" d="M1.41016 4.05301V2.63721C1.41016 1.95952 1.95952 1.41016 2.63721 1.41016H4.05305" stroke="black" stroke-width="1.5" stroke-linecap="round" stroke-linejoin="round"/>
<path id="Vector 158" d="M8.01562 1.41016H11.9799" stroke="black" stroke-width="1.5" stroke-linecap="round" stroke-linejoin="round"/>
<path id="Vector 157" d="M15.9453 1.41016H17.3612C18.0389 1.41016 18.5882 1.95952 18.5882 2.63721V4.05301" stroke="black" stroke-width="1.5" stroke-linecap="round" stroke-linejoin="round"/>
<path id="Ellipse 123" d="M6.03516 11.6512C6.03516 13.1407 6.62685 14.5692 7.68007 15.6224C8.73328 16.6756 10.1618 17.2673 11.6512 17.2673C13.1407 17.2673 14.5692 16.6756 15.6224 15.6224C16.6756 14.5692 17.2673 13.1407 17.2673 11.6512C17.2673 10.1618 16.6756 8.73328 15.6224 7.68007C14.5692 6.62685 13.1407 6.03516 11.6512 6.03516C10.1618 6.03516 8.73328 6.62685 7.68007 7.68007C6.62685 8.73328 6.03516 10.1618 6.03516 11.6512Z" stroke="black" stroke-width="1.5" stroke-linecap="round" stroke-linejoin="round"/>
<path id="Vector 156" d="M18.5886 18.5869L15.6172 15.6152" stroke="black" stroke-width="1.5" stroke-linecap="round" stroke-linejoin="round"/>
<path id="Vector 1019" d="M9.33984 11.6504H13.9648" stroke="black" stroke-width="1.5" stroke-linecap="round" stroke-linejoin="round"/>
</g>
</g>
<defs>
<clipPath id="clip0_47_149458">
<rect width="20" height="20" fill="white"/>
</clipPath>
</defs>
</svg>
