<svg width="20" height="20" viewBox="0 0 20 20" fill="none" xmlns="http://www.w3.org/2000/svg">
<g id="zoom-out-18">
<g id="zoom-out">
<path id="Vector 107" d="M8.21381 17.8783L4.83627 15.2928C4.3015 14.8834 4.16588 14.1344 4.52317 13.5635C4.82305 13.0843 5.39725 12.8526 5.94573 12.9894L8.48107 13.6216L6.46869 6.61198C6.2246 5.76172 6.71599 4.87458 7.56625 4.63047C8.41651 4.38638 9.30365 4.87776 9.54775 5.72802L11.0829 11.0754L13.3188 10.3617C15.1706 9.77056 17.14 10.8494 17.6389 12.7281L18.3695 15.4795" stroke="black" stroke-width="1.5" stroke-linecap="round" stroke-linejoin="round"/>
<path id="Vector 2508" d="M1.41016 8.67836L2.73158 7.35693L4.05301 8.67836" stroke="black" stroke-width="1.5" stroke-linecap="round" stroke-linejoin="round"/>
<path id="Vector 2509" d="M1.41016 3.39258L2.73158 4.71401L4.05301 3.39258" stroke="black" stroke-width="1.5" stroke-linecap="round" stroke-linejoin="round"/>
<path id="Vector 2510" d="M2.73047 7.35693V10.6605" stroke="black" stroke-width="1.5" stroke-linecap="round" stroke-linejoin="round"/>
<path id="Vector 2607" d="M2.73047 1.41064V4.71422" stroke="black" stroke-width="1.5" stroke-linecap="round"/>
</g>
</g>
</svg>
